<svg xmlns="http://www.w3.org/2000/svg" width="48" height="60" viewBox="0 0 48 60">
    <g fill="none" fill-rule="evenodd">
        <path d="M-8-2h64v64H-8z"/>
        <path fill="#1F282C" fill-rule="nonzero" d="M35.77.685H5.334A5.339 5.339 0 0 0 0 6.02v48a5.337 5.337 0 0 0 5.333 5.333h37.334A5.337 5.337 0 0 0 48 54.019V12.915L35.77.685zm-3.77 16V3.352l13.333 13.333H32z"/>
        <path fill="#1EB0CD" d="M18.667 51.352h-5.334v-5.333h5.334v5.333zm0-8h-5.334v-5.333h5.334v5.333zm0-8h-5.334v-5.333h5.334v5.333zm0-8h-5.334v-5.333h5.334v5.333zm8 24h-5.334v-5.333h5.334v5.333zm0-8h-5.334v-5.333h5.334v5.333zm8 8h-5.334v-5.333h5.334v5.333zm0-8h-5.334v-5.333h5.334v5.333zm0-8h-5.334v-5.333h5.334v5.333z"/>
    </g>
</svg>
