<svg xmlns="http://www.w3.org/2000/svg" width="54" height="51" viewBox="0 0 54 51">
    <g fill="none" fill-rule="evenodd">
        <path d="M-5-8h64v64H-5z"/>
        <path fill="#1EB0CD" fill-rule="nonzero" d="M48.333 8V5.333H43V8h-5.333V2.667A2.666 2.666 0 0 0 35 0H19a2.666 2.666 0 0 0-2.667 2.667V8H11V5.333H5.667V8a5.339 5.339 0 0 0-5.334 5.333v32a5.337 5.337 0 0 0 5.334 5.334h42.666a5.335 5.335 0 0 0 5.334-5.334v-32A5.337 5.337 0 0 0 48.333 8zM21.667 5.333h10.666V8H21.667V5.333zM6.333 12h41a2 2 0 0 1 2 2v31a2 2 0 0 1-2 2h-41a2 2 0 0 1-2-2V14a2 2 0 0 1 2-2z"/>
        <path fill="#1F282C" d="M35 24h-9.333a1.334 1.334 0 0 0 0 2.667h2.666A6.676 6.676 0 0 1 35 33.333c0 3.222-2.296 5.915-5.333 6.534v2.8h-5.334V40H19v-5.333h9.333c.734 0 1.334-.598 1.334-1.334 0-.733-.6-1.333-1.334-1.333h-2.666A6.674 6.674 0 0 1 19 25.333a6.673 6.673 0 0 1 5.333-6.53V16h5.334v2.667H35V24z"/>
    </g>
</svg>
