<svg xmlns="http://www.w3.org/2000/svg" width="57" height="48" viewBox="0 0 57 48">
    <g fill="none" fill-rule="evenodd">
        <path d="M-2-10h64v64H-2z"/>
        <g fill-rule="nonzero">
            <path fill="#1EB0CD" d="M51.333 11.835v15.021c3.099-1.107 5.334-4.037 5.334-7.51 0-3.477-2.235-6.407-5.334-7.511zM8.667 8.677H6a5.337 5.337 0 0 0-5.333 5.334v10.666A5.337 5.337 0 0 0 6 30.011h2.667V8.677z"/>
            <path fill="#1F282C" d="M47.64 1.245a2.67 2.67 0 0 0-2.285-.49L13.672 8.677h-2.339v26.667c0 .579.187 1.141.534 1.6l8 10.667 4.266-3.198-7.466-9.96V30.76l28.688 7.17c.213.054.429.078.645.078.59 0 1.168-.192 1.64-.565a2.665 2.665 0 0 0 1.027-2.099v-32c0-.821-.382-1.597-1.027-2.099z"/>
        </g>
    </g>
</svg>
