<svg xmlns="http://www.w3.org/2000/svg" width="46" height="54" viewBox="0 0 46 54">
    <g fill="none" fill-rule="evenodd">
        <path d="M-10-5h64v64h-64z"/>
        <g fill-rule="nonzero">
            <path fill="#1F282C" d="M31.173 41.981l-3.741-2.738v3.754H6.099v-32h21.333v6.28l5.333-7.28V5.664A5.334 5.334 0 0 0 27.432.331H6.099A5.335 5.335 0 0 0 .765 5.664v42.667A5.335 5.335 0 0 0 6.1 53.664h21.333a5.335 5.335 0 0 0 5.333-5.333v-8.52l-1.592 2.17z"/>
            <path fill="#1EB0CD" d="M27.984 35.693L14.728 25.75l4-5.333 8.075 6.059L40.787 8.92 46 13.075z"/>
        </g>
    </g>
</svg>
