<svg xmlns="http://www.w3.org/2000/svg" width="54" height="54" viewBox="0 0 54 54">
    <g fill="none" fill-rule="evenodd">
        <path d="M-5-5h64v64H-5z"/>
        <g fill-rule="nonzero">
            <path fill="#1F282C" d="M24.333 16.333h5.333v21.333h-5.333z"/>
            <path fill="#1EB0CD" d="M27 53.667C12.296 53.667.333 41.704.333 27 .333 12.296 12.296.333 27 .333 41.704.333 53.667 12.296 53.667 27c0 14.704-11.963 26.667-26.667 26.667zm0-48C15.237 5.667 5.667 15.237 5.667 27c0 11.763 9.57 21.333 21.333 21.333 11.763 0 21.333-9.57 21.333-21.333 0-11.763-9.57-21.333-21.333-21.333z"/>
        </g>
    </g>
</svg>
