<svg xmlns="http://www.w3.org/2000/svg" width="56" height="60" viewBox="0 0 56 60">
    <g fill="none" fill-rule="evenodd">
        <path d="M-4-2h64v64H-4z"/>
        <g fill-rule="nonzero">
            <path fill="#1EB0CD" d="M54.4 16.021l-7.541-7.544C36.46-1.92 19.544-1.92 9.144 8.477l-7.541 7.544A5.297 5.297 0 0 0 .04 19.792c0 1.424.555 2.763 1.563 3.77l5.656 5.657a5.297 5.297 0 0 0 3.77 1.562A5.297 5.297 0 0 0 14.8 29.22l5.659-5.656a5.297 5.297 0 0 0 1.562-3.771 5.297 5.297 0 0 0-1.562-3.77l-5.528-5.529c7.666-5.954 18.474-5.954 26.141 0l-5.53 5.531a5.346 5.346 0 0 0 .002 7.539l5.656 5.656a5.299 5.299 0 0 0 3.773 1.562 5.288 5.288 0 0 0 3.771-1.562l5.656-5.656a5.337 5.337 0 0 0 0-7.542z"/>
            <path fill="#1F282C" d="M36 32.88v-5.547h-5.333v5.334h-5.334v-5.334H20v5.547c-9.032 1.299-16 9.067-16 18.453v8h48v-8c0-9.386-6.968-17.154-16-18.453zM28 54a8.001 8.001 0 0 1 0-16 8.001 8.001 0 0 1 0 16z"/>
        </g>
    </g>
</svg>
