<svg xmlns="http://www.w3.org/2000/svg" width="52" height="52" viewBox="0 0 52 52">
    <g fill="none" fill-rule="evenodd">
        <path d="M-4.997-5h61.44v61.445h-61.44z"/>
        <g fill-rule="nonzero" transform="translate(.12 .12)">
            <path fill="#1F282C" d="M25.6 17.92c2.12 0 4.04.86 5.43 2.25L46.817 4.372a2.553 2.553 0 0 0 .558-2.787A2.564 2.564 0 0 0 45.007 0H30.72l-12.8 12.8 5.478 5.481c.704-.213 1.431-.361 2.202-.361zM38.4 17.92l-5.478 5.481c.21.699.358 1.428.358 2.199 0 2.12-.86 4.04-2.248 5.43l15.796 15.785a2.557 2.557 0 0 0 4.372-1.808V30.72l-12.8-12.8zM25.6 33.28a7.654 7.654 0 0 1-5.414-2.237l-15.8 15.785a2.556 2.556 0 0 0-.559 2.79A2.557 2.557 0 0 0 6.193 51.2H20.48l12.8-12.77-5.476-5.508c-.704.21-1.433.358-2.204.358zM18.278 27.802c-.21-.702-.358-1.431-.358-2.202 0-2.12.86-4.04 2.248-5.43L4.372 4.385a2.561 2.561 0 0 0-2.79-.56A2.566 2.566 0 0 0 0 6.193V20.48l12.8 12.8 5.478-5.478z"/>
            <circle cx="25.6" cy="25.6" r="5.12" fill="#1EB0CD"/>
        </g>
    </g>
</svg>
