<svg xmlns="http://www.w3.org/2000/svg" width="59" height="64" viewBox="0 0 59 64">
    <g fill="none" fill-rule="nonzero">
        <path fill="#E17352" d="M57.66 13.333H41.567c-.74 0-1.34.598-1.34 1.334v16c0 .736.6 1.333 1.34 1.333h6.705v12c0 5.147-4.21 9.333-9.387 9.333H26.032l3.074-3.056a1.329 1.329 0 0 0 0-1.885 1.347 1.347 0 0 0-1.896 0l-5.364 5.333c-.174.174-.27.39-.327.611a1.047 1.047 0 0 0-.03.155 1.3 1.3 0 0 0 .067.685v.003l.011.013c.065.152.156.296.282.419l5.363 5.333a1.35 1.35 0 0 0 1.896 0 1.329 1.329 0 0 0 0-1.885L26.032 56h12.854c6.654 0 12.069-5.384 12.069-12V32h6.704C58.4 32 59 31.403 59 30.667v-16c0-.736-.6-1.334-1.34-1.334z"/>
        <path fill="#1F282C" d="M17.432 0H1.34C.6 0 0 .597 0 1.333v16c0 .736.6 1.334 1.34 1.334h6.705v19.448l-3.073-3.056a1.347 1.347 0 0 0-1.896 0 1.329 1.329 0 0 0 0 1.885l5.361 5.33a1.36 1.36 0 0 0 1.462.29c.166-.065.313-.164.437-.29l5.36-5.33a1.329 1.329 0 0 0 0-1.885 1.347 1.347 0 0 0-1.895 0l-3.074 3.056V18.667h6.705c.74 0 1.34-.598 1.34-1.334v-16c0-.736-.6-1.333-1.34-1.333zM17.432 45.333H1.34C.6 45.333 0 45.931 0 46.667v16C0 63.403.6 64 1.34 64h16.092c.74 0 1.34-.597 1.34-1.333v-16c0-.736-.6-1.334-1.34-1.334z"/>
    </g>
</svg>
