<svg xmlns="http://www.w3.org/2000/svg" width="64" height="64" viewBox="0 0 64 64">
    <g fill="none" fill-rule="nonzero">
        <path fill="#1F282C" d="M62.933 57.6H6.4V1.067C6.4.427 5.973 0 5.333 0c-.64 0-1.066.427-1.066 1.067V57.6h-3.2C.427 57.6 0 58.027 0 58.667c0 .64.427 1.066 1.067 1.066h3.2v3.2c0 .64.426 1.067 1.066 1.067.64 0 1.067-.427 1.067-1.067v-3.2h56.533c.64 0 1.067-.426 1.067-1.066 0-.64-.427-1.067-1.067-1.067z"/>
        <path fill="#E17352" d="M58.58 24.385l-21.083-14.22a.97.97 0 0 0-.987-.056.943.943 0 0 0-.51.838v8.551c-14.718.603-22.805 15.036-23 25.516v.046c0 .056.004.111.011.163a.94.94 0 0 0 .926.777h.021a.973.973 0 0 0 .959-.939C15.003 42.595 25.267 31.52 36 30.883v8.503c0 .353.197.674.512.839a.957.957 0 0 0 .987-.055l21.083-14.221a.942.942 0 0 0-.002-1.564z"/>
    </g>
</svg>
