<svg xmlns="http://www.w3.org/2000/svg" width="62" height="62" viewBox="0 0 62 62">
    <g fill="none" fill-rule="nonzero">
        <path fill="#1F282C" d="M26.991 13.026c-.556 1.113-1.113 1.948-1.67 2.783-.278.556-.556.834-.556 1.113-.556.556-.835 1.113-1.391 1.67-.278.556-.557.834-.835 1.112-.556.557-.835 1.113-1.391 1.67-.278.278-.835.556-1.113.835-.278.278-.557.556-.835 1.113v.556c.278.279.278.835.278 1.392v1.113c.835.278 1.392.556 2.226.834.279 0 .279 0 .557.279 3.339.834 6.678 1.391 10.017 1.113v-1.392c0-.278.279-.556.279-.834 0 0 0-.279.278-.279 0-.278.278-.278.278-.556l.278-.278c0-.279.279-.279.279-.557l.278-.278c.278 0 .278-.278.556-.278l.279-.279c.278 0 .278-.278.556-.278s.278 0 .557-.278c.278 0 .278 0 .556-.279H37.287c.278-.834.278-1.67.556-2.504 0-.278.279-.835.279-1.113.278-1.391.835-2.783 1.391-4.174 0-.278 0-.278.278-.556.557-1.113 1.113-2.505 1.67-3.618.278-.556.556-.835.556-1.391.279-.557.557-1.391 1.113-1.948-.278-.278-.834-.556-1.113-1.113l-.278-.278c-.278-.278-.278-.557-.556-1.113 0-.278 0-.278-.279-.557-.278-.556-.278-1.113-.278-1.67V1.897C37.287.783 33.948-.052 30.61.226c0 .557 0 .835-.279 1.391 0 .557 0 .835-.278 1.392 0 .556-.278 1.391-.556 1.948 0 .556-.279.834-.279 1.39-.278.836-.556 1.392-.556 2.227 0 .278-.278.835-.278 1.113-.279.835-.835 1.948-1.113 2.783-.279.278-.279.556-.279.556zM4.452 27.774c1.391-.278 2.505-.835 3.618-1.113.278 0 .278 0 .556-.278V25.27c0-.557 0-1.113.278-1.392v-.556c-.278-.279-.556-.279-.556-.557A6.501 6.501 0 0 1 6.4 20.817c-.278-.278-.557-.278-.557-.556-.834-.835-1.67-1.67-2.226-2.783L3.34 17.2C1.67 20.54.557 24.435 0 28.33h.557c1.39 0 2.504-.278 3.895-.556z"/>
        <path fill="#E17352" d="M11.687 23.6c-.278.557-.557 1.113-.557 1.67 0 .556 0 .834.279 1.39.278.557.556.836 1.113 1.114 1.391.835 3.06.278 3.895-1.113.279-.557.279-.835.279-1.391 0-.557-.279-1.113-.557-1.67-1.113-1.391-3.339-1.391-4.452 0zM45.078 6.07h1.113c1.113 0 1.67-.557 2.226-1.392.279-.556.279-.835.279-1.391 0-1.67-1.113-2.783-2.783-2.783-1.113 0-1.948.557-2.504 1.392-.279.556-.279.834-.279 1.391 0 1.391.835 2.504 1.948 2.783z"/>
        <path fill="#1F282C" d="M7.235 17.757c.278 0 .278.278 0 0l2.782 2.782.279.278c.556 0 .834-.278 1.113-.556h.278c.278 0 .556-.278.835-.278h.278c.278 0 .835-.279 1.113-.279s.835 0 1.113.279h.278c.279 0 .835.278 1.113.278h.279c0 .278.278.556.556.556.278-.278.835-.278 1.113-.556l.835-.835c.278-.556.835-1.113 1.113-1.67l.835-.834c.556-.557.835-1.113 1.391-1.948 0 0 .278-.278.278-.557l1.67-2.504c0-.278.278-.556.278-.556.278-.835.557-1.67.835-2.227 0-.278.278-.834.278-1.113.279-.556.279-1.113.557-1.947 0-.279.278-.835.278-1.113 0-.557.278-1.114.278-1.67 0-.557 0-.835.279-1.391V1.06c-8.905.835-17.253 5.843-22.261 13.635l.278.278c.556 1.113 1.391 1.948 1.948 2.783zM57.878 17.18s-.278 0 0 0c-.835 1.113-1.67 2.226-2.782 3.34-.279.277-.279.277-.557.556-.835 1.113-1.948 1.947-3.06 2.782-.279 0-.279.279-.557.279-1.113.834-2.226 1.67-3.34 2.226 0 0-.278 0-.278.278-1.113.835-2.504 1.391-3.895 1.948-.279 0-.279.278-.279.278v.278c0 .557-.278.835-.278 1.392v.278c-.278.556-.556.835-.835 1.391 0 0 0 .278-.278.278-.278.279-.556.835-1.113 1.113-.278.279-.835.557-1.391.557h-.278v.556H45.357c.834 0 1.947 0 2.782.279h1.113c1.113 0 1.948.278 3.061.556.278 0 .557 0 .835.278 1.113.279 2.504.557 3.617 1.114.278 0 .278 0 .557.278 1.113.278 1.948.835 3.06 1.391.279 0 .279 0 .557.278.557-2.226.835-4.452.835-6.4-.557-6.4-1.67-11.13-3.896-15.304z"/>
        <path fill="#E17352" d="M38.957 26.104c-.279 0-.557-.278-.835-.278h-1.113-.279c-.834.278-1.39.835-1.67 1.391-.277.279-.277.835-.277 1.113v.835c.278 1.113 1.39 1.948 2.782 1.948 1.113 0 2.226-.835 2.505-1.67 0-.278.278-.556.278-1.113v-.556c-.278-.557-.835-1.113-1.391-1.67z"/>
        <path fill="#1F282C" d="M47.583 8.852h-2.226c-.557.835-.835 1.391-1.114 2.226-.278.279-.278.835-.556 1.113-.835 1.392-1.391 2.505-1.948 3.896 0 .278 0 .278-.278.556-.278 1.114-.835 2.227-1.113 3.34 0 .556-.278.834-.278 1.39-.279.557-.279 1.392-.557 1.949.278.278.835.556 1.113.835l.278.278c.557.556.835.835 1.113 1.391h.279c1.113-.556 2.504-1.113 3.617-1.67.278 0 .278-.278.557-.278 1.67-.835 2.782-1.391 3.617-2.504l.278-.278a13.191 13.191 0 0 0 2.783-2.783l.278-.278c.835-1.113 1.67-1.948 2.504-3.061l.279-.278c-1.67-2.783-3.896-5.009-6.4-6.957-.279.278-.557.557-1.113.835h-.279c-.278 0-.556.278-.834.278z"/>
        <path fill="#E17352" d="M25.878 37.791c-.278.279-.556.279-.835.557-.278.556-.556 1.113-.556 1.67 0 .556.278 1.112.556 1.669.279.556 1.114.835 1.67 1.113.835.278 1.948 0 2.783-.835.556-.556.834-1.113.834-1.948 0-.278 0-.834-.278-1.113-1.113-1.391-2.782-1.947-4.174-1.113z"/>
        <path fill="#1F282C" d="M17.53 46.14l2.505-2.505c.278-.278.556-.557.835-.557.556-.278.834-.835 1.39-1.113v-.556c0-.557-.277-.835-.277-1.392 0-1.113.278-2.226 1.113-3.339 1.113-1.391 2.782-2.226 4.452-2.226 1.113 0 2.226.278 3.339 1.113.278 0 .278.278.556.557.279 0 .279.278.557.278l2.504-.835h.279c.834-.278 1.39-.278 2.226-.556v-1.113h-.279c-.278 0-.278 0-.556-.279-.278 0-.557-.278-.835-.556 0 0-.278 0-.278-.278-.278-.279-.835-.557-1.113-1.113l-.278-.279-.279-.278h-5.008c-.557 0-1.113 0-1.67-.278-.556 0-1.113-.278-1.948-.278-.556 0-1.113-.279-1.67-.279-.556-.278-1.112-.278-1.669-.556-.556-.279-1.391-.557-1.948-.557-.278 0-.556-.278-1.113-.278l-.278.278c-.278.278-.278.278-.557.278-.834.557-1.947 1.114-3.06 1.114s-2.227-.279-3.061-1.114c-.279 0-.279-.278-.557-.556l-.278-.278c-.278.278-.835.278-1.113.278-.278.278-.835.278-1.113.278-.557.278-1.113.278-1.67.557-.278 0-.835.278-1.113.278-.556.278-1.391.278-1.948.278-.278 0-.556 0-1.113.279-.556 0-1.113 0-1.67.278v.278c0 8.07 3.062 15.304 8.627 21.148 0 0 .278 0 .278-.278l.278-.279c.835-.556 1.67-.834 2.505-1.113h2.226c.278-.556.556-.834.835-1.391.278-.278.278-.557.556-.835 0-.278.835-1.113 1.391-2.226 0 .278 0 0 0 0z"/>
        <path fill="#E17352" d="M48.417 56.713c-.278 0-.278 0-.556-.278H46.47h-.279c-.278 0-.556.278-.834.278-.557.278-.835.835-1.114 1.67v.556c0 .278 0 .557.279.835.278 1.113 1.391 1.948 2.504 1.948 1.67 0 2.783-1.113 2.783-2.783 0-.835-.279-1.391-.835-1.948.278 0-.278 0-.557-.278z"/>
        <path fill="#1F282C" d="M57.878 39.74c-.556-.28-1.113-.28-1.391-.557-.278 0-.557-.279-1.113-.279-.557-.278-1.113-.278-1.948-.556-.278 0-.556-.278-.835-.278-.834-.279-1.67-.279-2.782-.557h-.279c-.834 0-1.67-.278-2.504-.278h-7.513c0 .835.278 1.67.278 2.504 0 .557.279 1.113.279 1.67.278 1.391.834 3.06 1.39 4.452v.278c.557 1.391 1.114 3.061 1.949 4.452.278.557.556.835.834 1.392.557.834.835 1.67 1.392 2.226.278-.557 1.113-.557 1.67-.557H48.138c.557 0 .835.278 1.113.278s.557.279.835.279c0 0 .278 0 .278.278 4.452-3.617 7.513-8.626 9.183-13.913-.278-.278-.557-.278-.835-.557-.278 0-.556 0-.835-.278z"/>
        <path fill="#E17352" d="M13.913 53.93c-.278 0-.835-.278-1.113-.278h-1.113c-.278 0-.557.278-.835.557h-.278c-.278.278-.557.556-.557.834-.278.279-.278.835-.278 1.114 0 1.67 1.113 2.782 2.783 2.782.835 0 1.391-.278 1.948-.835.556-.556.834-1.391.834-1.947 0-.835-.556-1.67-1.391-2.227z"/>
        <path fill="#1F282C" d="M40.904 51.704c0-.278-.278-.278-.278-.556-.556-1.391-1.113-2.505-1.67-3.896v-.278c-.556-1.391-.834-2.783-1.113-4.174 0-.278 0-.557-.278-.557-.278-1.39-.556-2.782-.835-3.895v-.278c-.278 0-.556 0-.834.278-.835.278-1.392.556-2.226.835-.279 0-.557.278-.835.278v.835c0 1.391-.557 2.782-1.392 3.895l-.278.279c-1.113 1.113-2.504 1.67-3.895 1.67-.557 0-1.113 0-1.67-.28h-.278c-.279 0-.557-.277-.835-.277-.278-.279-.557-.279-.835-.557-.278.278-.835.557-1.113.835-.278.278-.556.556-.835.556-.834.557-1.391 1.392-1.947 1.948l-.279.278c-.556.835-1.391 1.392-1.948 2.227-.278.278-.278.556-.556.834-.278.279-.557.835-.835 1.113l.835.835s0 .278.278.278c.278.279.278.557.278.835v.278c0 .557.279.835.279 1.392 0 .556 0 .835-.279 1.113v.278c0 .278-.278.557-.278.835v.278c7.235 3.618 15.583 3.896 23.374 1.113.278 0 .557-.278.835-.278v-.557c0-.278 0-.834.278-1.113v-.278c0-.278.278-.556.278-.835 0 0 0-.278.279-.278.278-.278.278-.556.556-1.113 0 0 0-.278-.278-.278-.278-1.392-1.113-2.505-1.67-3.618z"/>
    </g>
</svg>
