<svg xmlns="http://www.w3.org/2000/svg" width="211" height="48" viewBox="0 0 211 48">
    <g fill="#E17352" fill-rule="evenodd">
        <path d="M26.227 31.368c0-2.261-.809-4.45-2.425-6.054a7.976 7.976 0 0 0-5.804-2.48c-2.204 0-4.26.875-5.877 2.48a8.773 8.773 0 0 0-2.425 6.054c0 2.262.882 4.377 2.425 6.055 1.616 1.605 3.673 2.48 5.877 2.48a7.976 7.976 0 0 0 5.804-2.48c1.616-1.678 2.425-3.793 2.425-6.055zm9.256-15.683v31.44h-7.787V44.06C24.757 46.54 20.937 48 16.823 48 7.493 48 0 40.56 0 31.368c0-9.264 7.494-16.631 16.823-16.631 4.114 0 7.934 1.459 10.873 3.94l.735-2.992h7.052zM43.298 47.158h9.294V0h-9.294zM88.965 31.244c0-2.268-.88-4.39-2.418-6.072-1.54-1.611-3.59-2.49-5.789-2.49a8.093 8.093 0 0 0-5.862 2.49c-1.537 1.682-2.418 3.804-2.418 6.072 0 2.269.88 4.464 2.418 6.074a8.097 8.097 0 0 0 5.862 2.488c2.198 0 4.25-.878 5.789-2.488a8.827 8.827 0 0 0 2.418-6.074zm-18.757-12A16.825 16.825 0 0 1 81.93 14.49c9.233 0 16.706 7.535 16.706 16.755C98.636 40.537 91.163 48 81.93 48a16.824 16.824 0 0 1-11.722-4.755v3.878h-9.38V0h9.38v19.245zM129.086 31.368c0-2.261-.808-4.45-2.424-6.054a7.976 7.976 0 0 0-5.804-2.48c-2.204 0-4.261.875-5.877 2.48a8.773 8.773 0 0 0-2.425 6.054c0 2.262.882 4.377 2.425 6.055 1.616 1.605 3.673 2.48 5.877 2.48a7.976 7.976 0 0 0 5.804-2.48c1.616-1.678 2.424-3.793 2.424-6.055zm9.257-15.683v31.44h-7.787V44.06c-2.939 2.48-6.76 3.939-10.873 3.939-9.33 0-16.823-7.44-16.823-16.632 0-9.264 7.492-16.631 16.823-16.631 4.114 0 7.934 1.459 10.873 3.94l.734-2.992h7.053zM172.348 15.579v8.573h-9.762v23.006h-9.299V24.152h-9.03v-8.573zM201.738 31.295c0-2.261-.808-4.377-2.352-5.981-1.617-1.678-3.6-2.554-5.88-2.554-2.13 0-4.263.876-5.733 2.554-1.69 1.604-2.499 3.793-2.499 6.054 0 2.335.809 4.45 2.5 6.128 1.47 1.605 3.601 2.48 5.732 2.48 2.28 0 4.263-.875 5.88-2.48 1.544-1.678 2.352-3.866 2.352-6.2m9.262.072C211 40.633 203.208 48 193.433 48c-9.702 0-17.494-7.367-17.494-16.632 0-9.191 7.792-16.631 17.494-16.631 9.775 0 17.567 7.44 17.567 16.631M144.257 8.632h28.091V0h-28.09z"/>
    </g>
</svg>
