<?xml version="1.0" encoding="utf-8"?>
<!-- Generator: Adobe Illustrator 22.1.0, SVG Export Plug-In . SVG Version: 6.00 Build 0)  -->
<svg version="1.1" id="Layer_1" xmlns="http://www.w3.org/2000/svg" xmlns:xlink="http://www.w3.org/1999/xlink" x="0px" y="0px"
	 viewBox="0 0 44 39" style="enable-background:new 0 0 44 39;" xml:space="preserve">
<style type="text/css">
	.st0{fill:#FFFFFF;}
	.st1{fill:#CEEAF2;}
	.st2{fill:#1F282C;}
	.st3{fill:#3DAFCC;}
</style>
<title>CD18_priglosArtboard 57</title>
<path class="st0" d="M6.3,6.1h31.5c1.4,0,2.5,1.1,2.5,2.5V35c0,1.4-1.1,2.5-2.5,2.5H6.3c-1.4,0-2.5-1.1-2.5-2.5V8.6
	C3.7,7.2,4.9,6.1,6.3,6.1z"/>
<path class="st1" d="M38,6.1H6c-1.3,0-2.3,1-2.3,2.3V12h36.5V8.4C40.3,7.1,39.2,6.1,38,6.1C38,6.1,38,6.1,38,6.1z"/>
<path class="st2" d="M40.3,12.4h-2.6c-0.3,0-0.5-0.2-0.5-0.5c0-0.3,0.2-0.5,0.5-0.5h2.6c0.3,0,0.5,0.2,0.5,0.5S40.5,12.4,40.3,12.4
	C40.3,12.4,40.3,12.4,40.3,12.4L40.3,12.4z"/>
<path class="st2" d="M26,12.4H6.9c-0.3,0-0.5-0.2-0.5-0.5c0-0.3,0.2-0.5,0.5-0.5H26c0.3,0,0.5,0.2,0.5,0.5S26.3,12.4,26,12.4
	C26,12.4,26,12.4,26,12.4z"/>
<path class="st2" d="M37.6,38H6.4c-1.7,0-3.2-1.4-3.2-3.2V20.9c0-0.3,0.2-0.5,0.5-0.5c0.3,0,0.5,0.2,0.5,0.5v13.9
	c0,1.2,1,2.2,2.2,2.2h31.2c1.2,0,2.2-1,2.2-2.2V8.8c0-1.2-1-2.2-2.2-2.2c-0.3,0-0.5-0.2-0.5-0.5c0-0.3,0.2-0.5,0.5-0.5
	c1.7,0,3.2,1.4,3.2,3.2v26.1C40.7,36.6,39.3,38,37.6,38z"/>
<path class="st2" d="M3.7,21.4c-0.3,0-0.5-0.2-0.5-0.5c0,0,0,0,0,0V8.8c0-1.7,1.4-3.2,3.2-3.2H26c0.3,0,0.5,0.2,0.5,0.5
	c0,0.3-0.2,0.5-0.5,0.5H6.4c-1.2,0-2.2,1-2.2,2.2v12.1C4.2,21.2,4,21.4,3.7,21.4C3.7,21.4,3.7,21.4,3.7,21.4z"/>
<path class="st2" d="M8,9.5H6.9C6.6,9.5,6.4,9.3,6.4,9c0-0.3,0.2-0.5,0.5-0.5H8c0.3,0,0.5,0.2,0.5,0.5S8.2,9.5,8,9.5
	C8,9.5,8,9.5,8,9.5z"/>
<path class="st2" d="M37.6,9.5h-0.3c-0.3,0-0.5-0.2-0.5-0.5c0-0.3,0.2-0.5,0.5-0.5h0.3c0.3,0,0.5,0.2,0.5,0.5
	C38,9.3,37.8,9.5,37.6,9.5z"/>
<path class="st2" d="M11.4,9.5h-1.1c-0.3,0-0.5-0.2-0.5-0.5s0.2-0.5,0.5-0.5c0,0,0,0,0,0h1.1c0.3,0,0.5,0.2,0.5,0.5
	C11.9,9.3,11.7,9.5,11.4,9.5z"/>
<path class="st2" d="M14.8,9.5h-1.1c-0.3,0-0.5-0.2-0.5-0.5c0-0.3,0.2-0.5,0.5-0.5h1.1c0.3,0,0.5,0.2,0.5,0.5S15.1,9.5,14.8,9.5
	C14.9,9.5,14.8,9.5,14.8,9.5z"/>
<rect x="18.9" y="17.3" class="st1" width="6.2" height="15"/>
<rect x="28.7" y="1.5" class="st3" width="6.2" height="30.7"/>
<path class="st2" d="M15.3,32.7H9.1c-0.3,0-0.5-0.2-0.5-0.5c0,0,0,0,0,0v-1.5c0-0.3,0.2-0.5,0.5-0.5c0.3,0,0.5,0.2,0.5,0.5v1.1h5.3
	v-8.6H9.5v4.7c0,0.3-0.2,0.5-0.5,0.5s-0.5-0.2-0.5-0.5c0,0,0,0,0,0v-5.1c0-0.3,0.2-0.5,0.5-0.5c0,0,0,0,0,0h6.2
	c0.3,0,0.5,0.2,0.5,0.5c0,0,0,0,0,0v9.5C15.8,32.5,15.6,32.7,15.3,32.7C15.3,32.7,15.3,32.7,15.3,32.7z"/>
<path class="st2" d="M25.1,32.7h-6.2c-0.3,0-0.5-0.2-0.5-0.5c0,0,0,0,0,0v-15c0-0.3,0.2-0.5,0.5-0.5c0,0,0,0,0,0h6.2
	c0.3,0,0.5,0.2,0.5,0.5c0,0,0,0,0,0v15C25.6,32.5,25.4,32.7,25.1,32.7C25.1,32.7,25.1,32.7,25.1,32.7z M19.4,31.7h5.3v-14h-5.3V31.7
	z"/>
<path class="st2" d="M34.9,32.7h-6.2c-0.3,0-0.5-0.2-0.5-0.5c0,0,0,0,0,0V10.7c0-0.3,0.2-0.5,0.5-0.5c0.3,0,0.5,0.2,0.5,0.5v21.1
	h5.3V2h-5.3v5.2c0,0.3-0.2,0.5-0.5,0.5c-0.3,0-0.5-0.2-0.5-0.5c0,0,0,0,0,0V1.5c0-0.3,0.2-0.5,0.5-0.5c0,0,0,0,0,0h6.2
	c0.3,0,0.5,0.2,0.5,0.5c0,0,0,0,0,0v30.7C35.4,32.5,35.2,32.7,34.9,32.7C34.9,32.7,34.9,32.7,34.9,32.7z"/>
</svg>
