<svg xmlns="http://www.w3.org/2000/svg" width="70" height="68" viewBox="0 0 70 68">
    <g fill="none" fill-rule="evenodd">
        <path fill="#FFF" d="M6.079 9.373h58.026c2.58 0 4.606 2.022 4.606 4.595v48.518c0 2.573-2.027 4.595-4.606 4.595H6.08c-2.579 0-4.605-2.022-4.605-4.595V13.968C1.289 11.395 3.5 9.373 6.079 9.373z"/>
        <path fill="#CEEAF2" d="M64.474 9.373H5.526c-2.394 0-4.237 1.838-4.237 4.227v6.616h67.237V13.6c.185-2.39-1.842-4.227-4.052-4.227z"/>
        <path fill="#1F282C" d="M68.71 20.951h-4.789c-.553 0-.921-.367-.921-.919 0-.55.368-.918.921-.918h4.79c.552 0 .92.367.92.918 0 .552-.552.92-.92.92zM42.368 20.951H7.184c-.552 0-.92-.367-.92-.919 0-.55.368-.918.92-.918h35.184c.553 0 .921.367.921.918 0 .552-.368.92-.92.92z"/>
        <path fill="#1F282C" d="M63.737 68H6.263C3.132 68 .368 65.427.368 62.119V36.573c0-.551.369-.919.921-.919.553 0 .922.368.922.919v25.546c0 2.205 1.842 4.043 4.052 4.043h57.474c2.21 0 4.052-1.838 4.052-4.043V14.335c0-2.205-1.842-4.043-4.052-4.043-.553 0-.921-.368-.921-.919s.368-.919.92-.919c3.132 0 5.896 2.573 5.896 5.881v47.968C69.447 65.427 66.868 68 63.737 68z"/>
        <path fill="#1F282C" d="M1.29 37.492c-.553 0-.922-.368-.922-.919V14.335c0-3.124 2.58-5.88 5.895-5.88h36.105c.553 0 .921.367.921.918s-.368.919-.92.919H6.262c-2.21 0-4.052 1.838-4.052 4.043v22.238c0 .551-.369.919-.922.919z"/>
        <path fill="#1F282C" d="M9.21 15.622H7.185c-.552 0-.92-.368-.92-.92 0-.55.368-.918.92-.918h2.027c.552 0 .92.367.92.919 0 .551-.552.919-.92.919zM63.737 15.622h-.553c-.552 0-.92-.368-.92-.92 0-.55.368-.918.92-.918h.553c.552 0 .92.367.92.919-.183.551-.552.919-.92.919zM15.474 15.622h-2.027c-.552 0-.92-.368-.92-.92 0-.55.368-.918.92-.918h2.027c.552 0 .92.367.92.919 0 .551-.368.919-.92.919zM21.737 15.622H19.71c-.553 0-.922-.368-.922-.92 0-.55.369-.918.922-.918h2.026c.552 0 .92.367.92.919 0 .551-.368.919-.92.919.184 0 0 0 0 0z"/>
        <path fill="#CEEAF2" d="M29.289 29.957H40.71v27.568H29.289z"/>
        <path fill="#3DAFCC" d="M47.342.919h11.421v56.422H47.342z"/>
        <path fill="#1F282C" d="M22.658 58.26H11.237c-.553 0-.921-.368-.921-.92v-2.756c0-.552.368-.92.92-.92.553 0 .922.368.922.92v2.021h9.763V40.8h-9.947v8.638c0 .551-.369.919-.921.919-.553 0-.921-.368-.921-.92v-9.372c0-.551.368-.92.92-.92h11.422c.552 0 .92.369.92.92v17.46c.185.367-.183.734-.736.734z"/>
        <path fill="#1F282C" fill-rule="nonzero" d="M40.71 58.26H29.29c-.553 0-.922-.368-.922-.92V29.774c0-.551.369-.919.921-.919h11.422c.552 0 .92.368.92.919v27.568c0 .55-.368.918-.92.918zm-10.5-1.838h9.764v-25.73H30.21v25.73z"/>
        <path fill="#1F282C" d="M58.763 58.26h-11.42c-.554 0-.922-.368-.922-.92V17.828c0-.551.368-.919.921-.919s.921.368.921.919v38.778h9.763V1.838h-9.763v9.557c0 .55-.368.919-.92.919-.554 0-.922-.368-.922-.92V.92c0-.551.368-.919.921-.919h11.421c.553 0 .921.368.921.919V57.34c0 .55-.368.918-.92.918z"/>
    </g>
</svg>
