<?xml version="1.0" encoding="utf-8"?>
<!-- Generator: Adobe Illustrator 22.1.0, SVG Export Plug-In . SVG Version: 6.00 Build 0)  -->
<svg version="1.1" id="Layer_1" xmlns="http://www.w3.org/2000/svg" xmlns:xlink="http://www.w3.org/1999/xlink" x="0px" y="0px"
	 viewBox="0 0 45 45" style="enable-background:new 0 0 45 45;" xml:space="preserve">
<style type="text/css">
	.st0{fill:#FFFFFF;}
	.st1{fill:#CEEAF2;}
	.st2{fill:#1F282C;}
	.st3{fill:#3DAFCC;}
</style>
<title>CD18_priglosArtboard 56</title>
<rect x="9.4" y="1.5" class="st0" width="26.1" height="28.5"/>
<rect x="18.5" y="36.4" class="st0" width="8" height="5.8"/>
<path class="st0" d="M15.8,40.9h13.4c1,0,1.9,0.8,1.9,1.9l0,0v0.8l0,0H14l0,0v-0.8C14,41.7,14.8,40.9,15.8,40.9
	C15.8,40.9,15.8,40.9,15.8,40.9z"/>
<path class="st0" d="M1.2,29.9h42.6l0,0v2.9c0,1.9-1.6,3.5-3.5,3.5H4.7c-1.9,0-3.5-1.6-3.5-3.5L1.2,29.9L1.2,29.9z"/>
<polygon class="st1" points="18.5,36.3 26.5,40.8 26.5,36.3 "/>
<path class="st1" d="M41,6.3h-5.5v23.7h8.2V9C43.8,7.5,42.6,6.3,41,6.3z"/>
<path class="st1" d="M9.4,6.3H4C2.4,6.3,1.2,7.5,1.2,9v20.9h8.2V6.3z"/>
<path class="st2" d="M40.5,36.8h-36c-2.1,0-3.8-1.7-3.8-3.8V9.6c0-2.1,1.7-3.8,3.8-3.8h0.4c0.3,0,0.5,0.2,0.5,0.5S5.2,6.8,4.9,6.8
	H4.5c-1.6,0-2.8,1.3-2.8,2.8V33c0,1.6,1.3,2.8,2.8,2.8h36c1.6,0,2.8-1.3,2.8-2.8V9.6c0-1.6-1.3-2.8-2.8-2.8H40
	c-0.3,0-0.5-0.2-0.5-0.5s0.2-0.5,0.5-0.5h0.5c2.1,0,3.8,1.7,3.8,3.8V33C44.3,35.1,42.6,36.8,40.5,36.8z"/>
<path class="st2" d="M43.8,30.4H4.3c-0.3,0-0.5-0.2-0.5-0.5c0-0.3,0.2-0.5,0.5-0.5h39.5c0.3,0,0.5,0.2,0.5,0.5S44.1,30.4,43.8,30.4z
	"/>
<path class="st2" d="M26.5,41.4c-0.3,0-0.5-0.2-0.5-0.5c0,0,0,0,0,0v-4h-7v4c0,0.3-0.2,0.5-0.5,0.5S18,41.2,18,40.9v-4.5
	c0-0.3,0.2-0.5,0.5-0.5c0,0,0,0,0,0h8c0.3,0,0.5,0.2,0.5,0.5c0,0,0,0,0,0v4.5C27,41.2,26.8,41.4,26.5,41.4
	C26.5,41.4,26.5,41.4,26.5,41.4z"/>
<path class="st2" d="M31,44H14c-0.3,0-0.5-0.2-0.5-0.5c0,0,0,0,0,0v-1.3c0-1,0.8-1.8,1.8-1.8h3.2c0.3,0,0.5,0.2,0.5,0.5
	s-0.2,0.5-0.5,0.5h-3.2c-0.5,0-0.8,0.4-0.8,0.8V43h16.1v-0.8c0-0.5-0.4-0.8-0.8-0.8h-8.3c-0.3,0-0.5-0.2-0.5-0.5s0.2-0.5,0.5-0.5
	h8.3c1,0,1.8,0.8,1.8,1.8v1.3C31.5,43.8,31.3,44,31,44C31,44,31,44,31,44z"/>
<circle class="st2" cx="22.5" cy="33" r="0.7"/>
<path class="st2" d="M35.6,28c-0.3,0-0.5-0.2-0.5-0.5c0,0,0,0,0,0V2H9.9v25.6c0,0.3-0.2,0.5-0.5,0.5S9,27.8,9,27.5c0,0,0,0,0,0V1.5
	C9,1.2,9.2,1,9.4,1c0,0,0,0,0,0h26.1C35.8,1,36,1.2,36,1.5c0,0,0,0,0,0v26.1C36,27.8,35.8,28,35.6,28C35.6,28,35.6,28,35.6,28z"/>
<rect x="13.1" y="5" class="st3" width="7.2" height="3.2"/>
<path class="st2" d="M20.3,8.7h-7.2c-0.3,0-0.5-0.2-0.5-0.5c0,0,0,0,0,0V5c0-0.3,0.2-0.5,0.5-0.5c0,0,0,0,0,0h1
	c0.3,0,0.5,0.2,0.5,0.5s-0.2,0.5-0.5,0.5l0,0h-0.5v2.3h6.3V5.5h-3.1c-0.3,0-0.5-0.2-0.5-0.5s0.2-0.5,0.5-0.5h3.6
	c0.3,0,0.5,0.2,0.5,0.5c0,0,0,0,0,0v3.2C20.8,8.5,20.6,8.7,20.3,8.7C20.3,8.7,20.3,8.7,20.3,8.7z"/>
<path class="st2" d="M32,5.9h-5.2c-0.3,0-0.5-0.2-0.5-0.5s0.2-0.5,0.5-0.5H32c0.3,0,0.5,0.2,0.5,0.5S32.3,5.9,32,5.9z"/>
<path class="st2" d="M24.4,5.9h-0.2c-0.3,0-0.5-0.2-0.5-0.5s0.2-0.5,0.5-0.5l0,0h0.2c0.3,0,0.5,0.2,0.5,0.5S24.7,5.9,24.4,5.9z"/>
<path class="st2" d="M32,8.3h-7.7c-0.3,0-0.5-0.2-0.5-0.5c0-0.3,0.2-0.5,0.5-0.5l0,0H32c0.3,0,0.5,0.2,0.5,0.5
	C32.5,8.1,32.3,8.3,32,8.3z"/>
<path class="st2" d="M28.6,13.6c-0.1,0-0.2,0-0.3-0.1l-2.8-2.4l-2.7,1.7c-0.1,0.1-0.3,0.1-0.4,0l-3.1-1.2l-2.9,0.9c0,0-0.1,0-0.1,0
	h-3c-0.3,0-0.5-0.2-0.5-0.5c0-0.3,0.2-0.5,0.5-0.5h2.9l3-1c0.1,0,0.2,0,0.3,0l3.1,1.2l2.8-1.7c0.2-0.1,0.4-0.1,0.6,0l2.8,2.4
	l3.1-2.6c0.2-0.2,0.5-0.1,0.7,0.1c0.2,0.2,0.1,0.5-0.1,0.7l0,0l-3.4,2.9C28.8,13.6,28.7,13.6,28.6,13.6z"/>
<rect x="29.4" y="17.4" class="st1" width="2.6" height="4.6"/>
<rect x="26.8" y="15.7" class="st3" width="2.6" height="6.3"/>
<path class="st2" d="M26.8,22.5h-2.6c-0.3,0-0.5-0.2-0.5-0.5c0,0,0,0,0,0v-3.5c0-0.3,0.2-0.5,0.5-0.5c0,0,0,0,0,0h0.6
	c0.3,0,0.5,0.2,0.5,0.5S25.1,19,24.8,19h-0.1v2.5h1.6v-3c0-0.3,0.2-0.5,0.5-0.5c0.3,0,0.5,0.2,0.5,0.5v3.5
	C27.3,22.3,27.1,22.5,26.8,22.5C26.8,22.5,26.8,22.5,26.8,22.5z"/>
<path class="st2" d="M29.4,22.5h-2.6c-0.3,0-0.5-0.2-0.5-0.5c0,0,0,0,0,0v-6.3c0-0.3,0.2-0.5,0.5-0.5c0,0,0,0,0,0h2.6
	c0.3,0,0.5,0.2,0.5,0.5c0,0,0,0,0,0v6.3C29.9,22.3,29.7,22.5,29.4,22.5C29.4,22.5,29.4,22.5,29.4,22.5z M27.3,21.6h1.6v-5.4h-1.6
	L27.3,21.6z"/>
<path class="st2" d="M32,22.5h-2.6c-0.3,0-0.5-0.2-0.5-0.5c0,0,0,0,0,0v-4.6c0-0.3,0.2-0.5,0.5-0.5c0.3,0,0.5,0.2,0.5,0.5v4.1h1.6
	v-3.6h-0.1c-0.3,0-0.5-0.2-0.5-0.5s0.2-0.5,0.5-0.5l0,0H32c0.3,0,0.5,0.2,0.5,0.5c0,0,0,0,0,0v4.6C32.5,22.3,32.3,22.5,32,22.5
	C32,22.5,32,22.5,32,22.5z"/>
<path class="st2" d="M20.3,25.2h-4.7c-0.3,0-0.5-0.2-0.5-0.5c0-0.3,0.2-0.5,0.5-0.5c0,0,0,0,0,0h4.7c0.3,0,0.5,0.2,0.5,0.5
	S20.6,25.2,20.3,25.2z"/>
<path class="st2" d="M13.2,25.2H13c-0.3,0-0.5-0.2-0.5-0.5c0-0.3,0.2-0.5,0.5-0.5c0,0,0,0,0,0h0.2c0.3,0,0.5,0.2,0.5,0.5
	S13.5,25.2,13.2,25.2z"/>
<path class="st2" d="M20.3,27.6h-7.2c-0.3,0-0.5-0.2-0.5-0.5c0-0.3,0.2-0.5,0.5-0.5c0,0,0,0,0,0h7.2c0.3,0,0.5,0.2,0.5,0.5
	S20.6,27.6,20.3,27.6z"/>
<path class="st2" d="M32,25.2h-5.2c-0.3,0-0.5-0.2-0.5-0.5c0-0.3,0.2-0.5,0.5-0.5H32c0.3,0,0.5,0.2,0.5,0.5S32.3,25.2,32,25.2z"/>
<path class="st2" d="M24.4,25.2h-0.2c-0.3,0-0.5-0.2-0.5-0.5c0-0.3,0.2-0.5,0.5-0.5h0.2c0.3,0,0.5,0.2,0.5,0.5S24.7,25.2,24.4,25.2z
	"/>
<path class="st2" d="M32,27.6h-7.7c-0.3,0-0.5-0.2-0.5-0.5c0-0.3,0.2-0.5,0.5-0.5H32c0.3,0,0.5,0.2,0.5,0.5S32.3,27.6,32,27.6z"/>
<path class="st1" d="M14.1,21.1c1.4,1.4,3.7,1.3,5-0.1c0.6-0.7,1-1.5,1-2.5h-3.6L14.1,21.1z"/>
<path class="st3" d="M16.5,14.9c-2,0.1-3.5,1.7-3.5,3.7c0,0.9,0.4,1.8,1,2.4l2.5-2.5L16.5,14.9z"/>
<path class="st2" d="M13,19.2c-0.3,0-0.5-0.2-0.5-0.4c-0.2-1.3,0.3-2.5,1.3-3.3c0.2-0.2,0.5-0.1,0.7,0.1c0.2,0.2,0.1,0.5-0.1,0.7
	c-0.7,0.6-1.1,1.5-1,2.5C13.5,19,13.3,19.2,13,19.2C13,19.2,13,19.2,13,19.2C13,19.2,13,19.2,13,19.2z"/>
<path class="st2" d="M16.6,22.5c-1,0-2-0.4-2.8-1.1c-0.2-0.2-0.2-0.5,0-0.7s0.5-0.2,0.7,0c1.2,1.2,3.2,1.1,4.4-0.1
	c1.2-1.2,1.1-3.2-0.1-4.4c-0.6-0.5-1.3-0.8-2.1-0.8c-0.3,0-0.5-0.2-0.5-0.5c0-0.3,0.2-0.5,0.5-0.5c2.2,0,4.1,1.8,4.1,4.1
	S18.8,22.5,16.6,22.5z"/>
<path class="st2" d="M16.6,22.5c-1,0-2-0.4-2.8-1.1c-0.2-0.2-0.2-0.5,0-0.7c0,0,0,0,0,0l2.4-2.6c0.1-0.1,0.2-0.2,0.4-0.2h3.6
	c0.3,0,0.5,0.2,0.5,0.5c0,0,0,0,0,0C20.6,20.7,18.8,22.5,16.6,22.5z M14.8,21c0.5,0.3,1.1,0.5,1.7,0.5c1.5,0,2.8-1.1,3.1-2.6h-2.8
	L14.8,21z"/>
<path class="st2" d="M20.1,19h-3.6c-0.3,0-0.5-0.2-0.5-0.5s0.2-0.5,0.5-0.5l0,0h3.1c-0.2-1.5-1.5-2.6-3.1-2.6
	c-0.3,0-0.5-0.2-0.5-0.5c0-0.3,0.2-0.5,0.5-0.5l0,0c2.2,0,4.1,1.8,4.1,4.1C20.6,18.7,20.4,19,20.1,19C20.1,19,20.1,19,20.1,19z"/>
<path class="st2" d="M16.6,19c-0.3,0-0.5-0.2-0.5-0.5c0,0,0,0,0,0v-3.6c0-0.3,0.2-0.5,0.5-0.5c0.3,0,0.5,0.2,0.5,0.5v3.6
	C17.1,18.7,16.8,19,16.6,19C16.6,19,16.6,19,16.6,19z"/>
</svg>
