<?xml version="1.0" encoding="utf-8"?>
<!-- Generator: Adobe Illustrator 22.1.0, SVG Export Plug-In . SVG Version: 6.00 Build 0)  -->
<svg version="1.1" id="Layer_1" xmlns="http://www.w3.org/2000/svg" xmlns:xlink="http://www.w3.org/1999/xlink" x="0px" y="0px"
	 viewBox="0 0 42 42" style="enable-background:new 0 0 42 42;" xml:space="preserve">
<style type="text/css">
	.st0{fill:#FFFFFF;}
	.st1{fill:#3DAFCC;}
	.st2{fill:#CEEAF2;}
	.st3{fill:#1F282C;}
</style>
<title>CD18_priglosArtboard 61</title>
<path class="st0" d="M18.3,34.2h4.1c0.6,0,1,0.5,1,1v1.8l0,0h-6.2l0,0v-1.8C17.3,34.7,17.8,34.2,18.3,34.2z"/>
<path class="st0" d="M14.2,37h12.3c0.9,0,1.6,0.7,1.6,1.6v1.2l0,0H12.6l0,0v-1.2C12.6,37.8,13.3,37,14.2,37z"/>
<circle class="st0" cx="20.4" cy="6.6" r="2.2"/>
<rect x="19.1" y="8.3" class="st0" width="2.6" height="25.9"/>
<path class="st1" d="M37.4,18.1h2.1c0,3.4-2.8,6.2-6.2,6.2c-3.4,0-6.2-2.8-6.2-6.2H37.4z"/>
<path class="st0" d="M11.8,25.3h2.1c0,3.4-2.8,6.2-6.2,6.2c-3.4,0-6.2-2.8-6.2-6.2c0,0,0,0,0,0H11.8z"/>
<rect x="20.4" y="8.8" class="st2" width="1.3" height="25.4"/>
<path class="st2" d="M23.5,37H21v-1.3c0.1-0.7-0.2-1.3-0.9-1.6h2c0.8,0,1.4,0.6,1.4,1.4c0,0,0,0,0,0V37z"/>
<path class="st2" d="M28.2,39.9h-5.6c0-1.3-0.1-2.3-1.4-2.8L21.1,37h4.9c1.2,0,2.1,1,2.1,2.1c0,0,0,0,0,0L28.2,39.9z"/>
<path class="st2" d="M11.8,25.3H8.6c0,2.6-2.1,4.8-4.8,4.8c0,0,0,0,0,0l0,0c2.6,2.2,6.6,1.8,8.7-0.9c0.9-1.1,1.4-2.5,1.4-3.9
	L11.8,25.3z"/>
<circle class="st0" cx="7.7" cy="10.2" r="1.5"/>
<path class="st2" d="M21.4,4.7c0.4,1-0.1,2.2-1.1,2.7c-0.7,0.3-1.4,0.2-2-0.2c0.3,1.2,1.4,1.9,2.6,1.6c1.2-0.3,1.9-1.4,1.6-2.6
	C22.4,5.5,22,5,21.4,4.7z"/>
<path class="st3" d="M28.2,40.4H12.6c-0.3,0-0.5-0.2-0.5-0.5c0,0,0,0,0,0v-1.4c0-1.1,0.9-1.9,1.9-1.9h6.7c0.3,0,0.5,0.2,0.5,0.5
	s-0.2,0.5-0.5,0.5c0,0,0,0,0,0h-6.7c-0.5,0-1,0.4-1,1v0.9h14.7v-0.9c0-0.5-0.4-1-1-1h-3.2c-0.3,0-0.5-0.2-0.5-0.5s0.2-0.5,0.5-0.5
	c0,0,0,0,0,0h3.2c1.1,0,1.9,0.9,1.9,1.9v1.4C28.7,40.1,28.5,40.4,28.2,40.4C28.2,40.4,28.2,40.4,28.2,40.4z"/>
<path class="st3" d="M23.5,37.5c-0.3,0-0.5-0.2-0.5-0.5c0,0,0,0,0,0v-1.4c0-0.5-0.4-1-1-1h-3.3c-0.5,0-1,0.4-1,1V37
	c0,0.3-0.2,0.5-0.5,0.5c-0.3,0-0.5-0.2-0.5-0.5v-1.4c0-1.1,0.9-1.9,1.9-1.9h3.3c1.1,0,1.9,0.9,1.9,1.9V37
	C24,37.3,23.8,37.5,23.5,37.5C23.5,37.5,23.5,37.5,23.5,37.5z"/>
<path class="st3" d="M20.4,9.3c-1.5,0-2.6-1.2-2.6-2.6C17.8,5.2,19,4,20.4,4C21.9,4,23,5.2,23,6.6C23,8.1,21.9,9.3,20.4,9.3z
	 M20.4,5c-0.9,0-1.7,0.8-1.7,1.7s0.8,1.7,1.7,1.7c0.9,0,1.7-0.8,1.7-1.7C22.1,5.7,21.3,5,20.4,5L20.4,5z"/>
<path class="st3" d="M22.5,6.5C22.2,6.5,22,6.3,22,6c0-0.2,0.1-0.4,0.3-0.5l9.4-2.7C32,2.9,32.3,3,32.4,3.3c0.1,0.2-0.1,0.5-0.3,0.6
	l-9.4,2.7C22.6,6.5,22.5,6.5,22.5,6.5z"/>
<path class="st3" d="M9.1,10.3c-0.3,0-0.5-0.2-0.5-0.5c0-0.2,0.1-0.4,0.3-0.5l9.2-2.6c0.3-0.1,0.5,0.1,0.6,0.3
	c0.1,0.2-0.1,0.5-0.3,0.6l-9.2,2.6C9.2,10.3,9.2,10.3,9.1,10.3z"/>
<circle class="st0" cx="33.3" cy="3" r="1.5"/>
<path class="st3" d="M33.3,5c-1.1,0-2-0.9-1.9-2c0-1.1,0.9-2,2-1.9c1.1,0,1.9,0.9,1.9,2C35.3,4.1,34.4,5,33.3,5z M33.3,2
	c-0.6,0-1,0.4-1,1s0.4,1,1,1c0.6,0,1-0.4,1-1C34.3,2.4,33.9,2,33.3,2L33.3,2z"/>
<path class="st3" d="M33.3,24.8c-3.7,0-6.7-3-6.7-6.7c0-0.3,0.2-0.5,0.5-0.5c0,0,0,0,0,0h7.3c0.3,0,0.5,0.2,0.5,0.5
	c0,0.3-0.2,0.5-0.5,0.5h-6.8c0.3,3.2,3,5.5,6.2,5.2c2.8-0.2,5-2.4,5.2-5.2h-1.6c-0.3,0-0.5-0.2-0.5-0.5c0-0.3,0.2-0.5,0.5-0.5
	c0,0,0,0,0,0h2.1c0.3,0,0.5,0.2,0.5,0.5c0,0,0,0,0,0C40,21.8,37,24.8,33.3,24.8z"/>
<path class="st3" d="M39.5,18.6c-0.3,0-0.5-0.2-0.5-0.5c0-0.9-3.5-8.7-5.6-13.5c-0.1-0.2,0-0.5,0.2-0.6c0.2-0.1,0.5,0,0.6,0.2
	c0,0,0,0,0,0C35.3,6.3,40,16.9,40,18.1C40,18.3,39.8,18.6,39.5,18.6C39.5,18.6,39.5,18.6,39.5,18.6z"/>
<path class="st3" d="M27.1,18.6c-0.3,0-0.5-0.2-0.5-0.5c0,0,0,0,0,0c0-1.4,4.7-11.8,5.7-13.9c0.1-0.2,0.4-0.3,0.6-0.2
	c0.2,0.1,0.3,0.4,0.2,0.6c0,0,0,0,0,0c-2.7,5.9-5.6,12.7-5.6,13.5C27.6,18.3,27.4,18.6,27.1,18.6C27.1,18.6,27.1,18.6,27.1,18.6z"/>
<path class="st3" d="M7.7,12.2c-1.1,0-2-0.9-2-2s0.9-2,2-2s2,0.9,2,2c0,0,0,0,0,0C9.7,11.3,8.8,12.2,7.7,12.2z M7.7,9.2
	c-0.6,0-1,0.4-1,1s0.4,1,1,1s1-0.4,1-1l0,0C8.7,9.7,8.3,9.2,7.7,9.2z"/>
<path class="st3" d="M7.7,32C4,32,1,29,1,25.3c0-0.3,0.2-0.5,0.5-0.5c0,0,0,0,0,0h7.3c0.3,0,0.5,0.2,0.5,0.5c0,0.3-0.2,0.5-0.5,0.5
	H2c0.3,3.2,3,5.5,6.2,5.2c2.8-0.2,5-2.4,5.2-5.2h-1.6c-0.3,0-0.5-0.2-0.5-0.5c0-0.3,0.2-0.5,0.5-0.5h2.1c0.3,0,0.5,0.2,0.5,0.5
	c0,0,0,0,0,0C14.4,29,11.4,32,7.7,32z"/>
<path class="st3" d="M13.9,25.8c-0.3,0-0.5-0.2-0.5-0.5c0-0.9-3.5-8.7-5.6-13.5c-0.1-0.2,0-0.5,0.2-0.6c0.2-0.1,0.5,0,0.6,0.2
	c0.9,2.1,5.7,12.7,5.7,13.9C14.4,25.6,14.2,25.8,13.9,25.8C13.9,25.8,13.9,25.8,13.9,25.8z"/>
<path class="st3" d="M1.5,25.8c-0.3,0-0.5-0.2-0.5-0.5c0,0,0,0,0,0c0-1.4,4.7-11.8,5.7-13.9c0.1-0.2,0.4-0.3,0.6-0.2
	c0.2,0.1,0.3,0.4,0.2,0.6C4.9,17.7,2,24.5,2,25.3C2,25.5,1.8,25.8,1.5,25.8C1.5,25.8,1.5,25.8,1.5,25.8z"/>
<path class="st3" d="M21.7,34.7h-2.6c-0.3,0-0.5-0.2-0.5-0.5c0,0,0,0,0,0V8.3c0-0.3,0.2-0.5,0.5-0.5c0.1,0,0.2,0,0.3,0.1
	c0.6,0.5,1.4,0.5,2,0c0.2-0.2,0.5-0.1,0.7,0.1c0.1,0.1,0.1,0.2,0.1,0.3v25.9C22.2,34.5,22,34.7,21.7,34.7
	C21.7,34.7,21.7,34.7,21.7,34.7z M19.6,33.7h1.7V9.1c-0.5,0.2-1.1,0.2-1.7,0V33.7z"/>
</svg>
