<svg xmlns="http://www.w3.org/2000/svg" width="70" height="71" viewBox="0 0 70 71">
    <g fill="none" fill-rule="evenodd">
        <path fill="#FFF" d="M30.788 59.085h7.297c1.068 0 1.78.89 1.78 1.78v3.203H28.83v-3.204c.177-.89 1.067-1.78 1.957-1.78z"/>
        <path fill="#FFF" d="M23.492 64.068h21.89a2.811 2.811 0 0 1 2.847 2.847v2.136H20.644v-2.136c0-1.423 1.246-2.847 2.848-2.847z"/>
        <circle cx="34.525" cy="9.966" r="3.915" fill="#FFF"/>
        <path fill="#FFF" d="M32.212 12.992h4.627v46.093h-4.627z"/>
        <path fill="#3DAFCC" d="M64.78 30.432h3.737c0 6.051-4.983 11.034-11.034 11.034-6.05 0-11.034-4.983-11.034-11.034h18.33z"/>
        <path fill="#FFF" d="M19.22 43.246h3.738c0 6.05-4.983 11.034-11.034 11.034C5.873 54.28.89 49.297.89 43.246h18.33z"/>
        <path fill="#CEEAF2" d="M34.525 13.881h2.314v45.203h-2.314z"/>
        <path fill="#CEEAF2" d="M40.042 64.068h-4.449v-2.314c.178-1.246-.356-2.313-1.601-2.847h3.559c1.424 0 2.491 1.068 2.491 2.491v2.67zM48.407 69.229H38.44c0-2.314-.178-4.093-2.492-4.983l-.178-.178h8.72c2.136 0 3.738 1.78 3.738 3.737l.178 1.424zM19.22 43.246h-5.695c0 4.627-3.737 8.542-8.542 8.542 4.627 3.915 11.746 3.204 15.483-1.602a11.056 11.056 0 0 0 2.492-6.94H19.22z"/>
        <circle cx="11.924" cy="16.373" r="2.669" fill="#FFF"/>
        <path fill="#CEEAF2" d="M36.305 6.585c.712 1.78-.178 3.915-1.958 4.805-1.245.534-2.491.356-3.559-.356.534 2.135 2.492 3.381 4.627 2.847 2.136-.534 3.382-2.491 2.848-4.627-.178-1.246-.89-2.135-1.958-2.67z"/>
        <path fill="#1F282C" d="M48.407 70.119H20.644c-.534 0-.89-.356-.89-.89v-2.492c0-1.957 1.602-3.381 3.382-3.381h11.923c.534 0 .89.356.89.89s-.356.89-.89.89H23.136c-.89 0-1.78.711-1.78 1.78v1.6h26.16v-1.6c0-.89-.71-1.78-1.779-1.78h-5.695c-.534 0-.89-.356-.89-.89s.356-.89.89-.89h5.695c1.958 0 3.382 1.602 3.382 3.381v2.492c.178.356-.178.89-.712.89z"/>
        <path fill="#1F282C" d="M40.042 64.958c-.534 0-.89-.356-.89-.89v-2.492c0-.89-.711-1.78-1.78-1.78H31.5c-.89 0-1.78.712-1.78 1.78v2.492c0 .534-.356.89-.89.89-.533 0-.89-.356-.89-.89v-2.492c0-1.957 1.602-3.381 3.382-3.381h5.873c1.958 0 3.381 1.602 3.381 3.381v2.492c.356.534 0 .89-.534.89z"/>
        <path fill="#1F282C" fill-rule="nonzero" d="M34.525 14.771c-2.67 0-4.627-2.135-4.627-4.627 0-2.67 2.136-4.805 4.627-4.805 2.67 0 4.628 2.136 4.628 4.627 0 2.67-1.958 4.805-4.628 4.805zm0-7.652c-1.601 0-3.025 1.423-3.025 3.025 0 1.602 1.424 3.025 3.025 3.025 1.602 0 3.026-1.423 3.026-3.025 0-1.78-1.424-3.025-3.026-3.025z"/>
        <path fill="#1F282C" d="M38.263 9.788c-.534 0-.89-.356-.89-.89 0-.356.178-.712.534-.89l16.729-4.805c.533.178 1.067.356 1.245.89.178.356-.178.89-.534 1.068L38.62 9.966c-.178-.178-.356-.178-.356-.178zM14.415 16.55c-.534 0-.89-.355-.89-.889 0-.356.178-.712.534-.89l16.373-4.627c.534-.178.89.178 1.068.534.178.356-.178.89-.534 1.068l-16.373 4.627c0 .178 0 .178-.178.178z"/>
        <circle cx="57.483" cy="3.559" r="2.669" fill="#FFF"/>
        <path fill="#1F282C" fill-rule="nonzero" d="M57.483 7.119c-1.958 0-3.56-1.602-3.381-3.56 0-1.957 1.601-3.559 3.559-3.381 1.958 0 3.381 1.602 3.381 3.56 0 1.779-1.601 3.38-3.559 3.38zm0-5.34c-1.068 0-1.78.713-1.78 1.78 0 1.068.712 1.78 1.78 1.78s1.78-.712 1.78-1.78c0-1.067-.712-1.78-1.78-1.78z"/>
        <path fill="#1F282C" d="M57.483 42.356c-6.585 0-11.924-5.34-11.924-11.924 0-.534.356-.89.89-.89h12.992c.534 0 .89.356.89.89s-.356.89-.89.89H47.339c.534 5.695 5.339 9.788 11.034 9.254a9.952 9.952 0 0 0 9.254-9.254H64.78c-.534 0-.89-.356-.89-.89s.356-.89.89-.89h3.737c.534 0 .89.356.89.89 0 6.585-5.34 11.924-11.924 11.924z"/>
        <path fill="#1F282C" d="M68.517 31.322c-.534 0-.89-.356-.89-.89 0-1.601-6.229-15.483-9.966-24.025-.178-.356 0-.89.356-1.068.356-.178.89 0 1.068.356 1.957 3.737 10.322 22.602 10.322 24.737 0 .356-.356.89-.89.89zM46.45 31.322c-.535 0-.89-.356-.89-.89 0-2.491 8.364-21 10.143-24.737.178-.356.712-.534 1.068-.356.356.178.534.712.356 1.068-4.805 10.5-9.966 22.601-9.966 24.025.178.356-.178.89-.712.89z"/>
        <path fill="#1F282C" fill-rule="nonzero" d="M11.924 19.932a3.57 3.57 0 0 1-3.56-3.56 3.57 3.57 0 0 1 3.56-3.558 3.57 3.57 0 0 1 3.56 3.559 3.57 3.57 0 0 1-3.56 3.56zm0-5.339c-1.068 0-1.78.712-1.78 1.78s.712 1.78 1.78 1.78 1.78-.712 1.78-1.78c0-.89-.712-1.78-1.78-1.78z"/>
        <path fill="#1F282C" d="M11.924 55.17C5.339 55.17 0 49.83 0 43.245c0-.534.356-.89.89-.89H13.88c.534 0 .89.356.89.89s-.356.89-.89.89H1.78c.534 5.695 5.339 9.788 11.034 9.254a9.952 9.952 0 0 0 9.254-9.254H19.22c-.534 0-.89-.356-.89-.89s.356-.89.89-.89h3.738c.534 0 .89.356.89.89 0 6.585-5.34 11.923-11.924 11.923z"/>
        <path fill="#1F282C" d="M22.958 44.136c-.534 0-.89-.356-.89-.89 0-1.602-6.229-15.483-9.966-24.026-.178-.356 0-.89.356-1.067.356-.178.89 0 1.067.355C15.127 22.246 23.67 41.11 23.67 43.246c.178.534-.177.89-.711.89zM.89 44.136c-.534 0-.89-.356-.89-.89 0-2.492 8.364-21 10.144-24.738.178-.355.712-.533 1.068-.355.356.178.534.711.356 1.067C6.94 29.72 1.78 41.822 1.78 43.246c0 .356-.356.89-.89.89z"/>
        <path fill="#1F282C" fill-rule="nonzero" d="M36.839 59.975h-4.627c-.534 0-.89-.356-.89-.89V12.992c0-.534.356-.89.89-.89.178 0 .356 0 .534.178 1.068.89 2.491.89 3.56 0 .355-.356.889-.178 1.245.178.178.178.178.356.178.534v46.093c0 .534-.356.89-.89.89zm-3.737-1.78h3.025v-43.78c-.89.356-1.958.356-3.025 0v43.78z"/>
    </g>
</svg>
