<svg xmlns="http://www.w3.org/2000/svg" width="68" height="66" viewBox="0 0 68 66">
    <g fill="none" fill-rule="evenodd">
        <path fill="#FFF" d="M13.622.767h40.6v43.744h-40.6zM27.778 54.335h12.444v8.902H27.778z"/>
        <path fill="#FFF" d="M23.578 61.242h20.844c1.556 0 2.956 1.228 2.956 2.916v1.228h-26.6v-1.228c0-1.688 1.244-2.916 2.8-2.916zM.867 44.358h66.266v4.451c0 2.917-2.489 5.372-5.444 5.372H6.31c-2.955 0-5.444-2.455-5.444-5.372v-4.45z"/>
        <path fill="#CEEAF2" d="M27.778 54.181l12.444 6.907v-6.907zM62.778 8.135h-8.556v36.377h12.756V12.279c.155-2.302-1.711-4.144-4.2-4.144zM13.622 8.135h-8.4c-2.489 0-4.355 1.842-4.355 4.144v32.08h12.755V8.134z"/>
        <path fill="#1F282C" d="M62 54.949H6c-3.267 0-5.911-2.61-5.911-5.833V13.2C.089 9.977 2.733 7.367 6 7.367h.622c.467 0 .778.307.778.768 0 .46-.311.767-.778.767H6c-2.489 0-4.356 1.996-4.356 4.298v35.916c0 2.456 2.023 4.298 4.356 4.298h56c2.489 0 4.356-1.995 4.356-4.298V13.2c0-2.456-2.023-4.298-4.356-4.298h-.778c-.466 0-.778-.307-.778-.767s.312-.768.778-.768H62c3.267 0 5.911 2.61 5.911 5.833v35.916c0 3.224-2.644 5.833-5.911 5.833z"/>
        <path fill="#1F282C" d="M67.133 45.126H5.69c-.467 0-.778-.307-.778-.768 0-.46.311-.767.778-.767h61.444c.467 0 .778.307.778.767s-.311.768-.778.768zM40.222 62.01c-.466 0-.778-.308-.778-.768v-6.14H28.556v6.14c0 .46-.312.767-.778.767-.467 0-.778-.307-.778-.767v-6.907c0-.46.311-.768.778-.768h12.444c.467 0 .778.307.778.768v6.907c0 .46-.311.767-.778.767z"/>
        <path fill="#1F282C" d="M47.222 66H20.778c-.467 0-.778-.307-.778-.767v-1.996c0-1.535 1.244-2.763 2.8-2.763h4.978c.466 0 .778.307.778.768 0 .46-.312.767-.778.767H22.8c-.778 0-1.244.614-1.244 1.228v1.228H46.6v-1.228c0-.767-.622-1.228-1.244-1.228H32.444c-.466 0-.777-.307-.777-.767s.31-.768.777-.768h12.912c1.555 0 2.8 1.228 2.8 2.763v1.996c-.156.46-.467.767-.934.767z"/>
        <ellipse cx="34" cy="49.116" fill="#1F282C" rx="1.089" ry="1.074"/>
        <path fill="#1F282C" d="M54.378 41.442c-.467 0-.778-.307-.778-.768V1.534H14.4v39.294c0 .46-.311.767-.778.767-.466 0-.622-.46-.622-.92V.766c0-.46.311-.767.622-.767h40.6c.467 0 .778.307.778.767v40.06c0 .308-.311.615-.622.615z"/>
        <path fill="#3DAFCC" d="M19.378 6.14h11.2v4.912h-11.2z"/>
        <path fill="#1F282C" d="M30.578 11.819h-11.2c-.467 0-.778-.307-.778-.768V6.14c0-.46.311-.768.778-.768h1.555c.467 0 .778.307.778.768 0 .46-.311.767-.778.767h-.777v3.53h9.8v-3.53h-4.823c-.466 0-.777-.307-.777-.767s.31-.768.777-.768h5.6c.467 0 .778.307.778.768v4.911c-.155.46-.467.768-.933.768zM48.778 7.52h-8.09c-.466 0-.777-.306-.777-.767 0-.46.311-.767.778-.767h8.089c.466 0 .778.307.778.767 0 .461-.312.768-.778.768zM36.956 7.52h-.312c-.466 0-.777-.306-.777-.767 0-.46.31-.767.777-.767h.312c.466 0 .777.307.777.767 0 .461-.31.768-.777.768zM48.778 11.205H36.8c-.467 0-.778-.307-.778-.768 0-.46.311-.767.778-.767h11.978c.466 0 .778.307.778.767s-.312.768-.778.768zM43.489 19.34c-.156 0-.311 0-.467-.154l-4.355-3.684-4.2 2.61a.478.478 0 0 1-.623 0l-4.822-1.842-4.51 1.381H19.688c-.467 0-.778-.307-.778-.767s.311-.768.778-.768H24.2l4.667-1.535h.466l4.823 1.842 4.355-2.609c.311-.154.622-.154.933 0l4.356 3.684 4.822-3.991c.311-.307.778-.154 1.09.153.31.307.155.768-.156 1.075l-5.29 4.451c-.466.154-.622.154-.777.154z"/>
        <path fill="#CEEAF2" d="M44.733 25.172h4.044v7.06h-4.044z"/>
        <path fill="#3DAFCC" d="M40.689 22.563h4.044v9.67h-4.044z"/>
        <path fill="#1F282C" d="M40.689 33h-4.045c-.466 0-.777-.307-.777-.767V26.86c0-.46.31-.767.777-.767h.934c.466 0 .778.307.778.767s-.312.768-.778.768h-.156v3.837h2.49V26.86c0-.46.31-.767.777-.767s.778.307.778.767v5.373c0 .46-.311.767-.778.767z"/>
        <path fill="#1F282C" fill-rule="nonzero" d="M44.733 33H40.69c-.467 0-.778-.307-.778-.767v-9.67c0-.46.311-.768.778-.768h4.044c.467 0 .778.307.778.768v9.67c0 .46-.311.767-.778.767zm-3.266-1.381h2.489V23.33h-2.49v8.289z"/>
        <path fill="#1F282C" d="M48.778 33h-4.045c-.466 0-.777-.307-.777-.767v-7.06c0-.461.31-.768.777-.768s.778.307.778.767v6.293H48V25.94h-.156c-.466 0-.777-.307-.777-.768 0-.46.31-.767.777-.767h.934c.466 0 .778.307.778.767v7.06c0 .461-.312.768-.778.768zM30.578 37.144h-7.311c-.467 0-.778-.307-.778-.767s.311-.768.778-.768h7.31c.467 0 .779.307.779.768 0 .46-.312.767-.778.767zM19.533 37.144h-.31c-.467 0-.779-.307-.779-.767s.312-.768.778-.768h.311c.467 0 .778.307.778.768 0 .46-.311.767-.778.767zM30.578 40.828h-11.2c-.467 0-.778-.307-.778-.768 0-.46.311-.767.778-.767h11.2c.466 0 .778.307.778.767s-.312.768-.778.768zM48.778 37.144h-8.09c-.466 0-.777-.307-.777-.767s.311-.768.778-.768h8.089c.466 0 .778.307.778.768 0 .46-.312.767-.778.767zM36.956 37.144h-.312c-.466 0-.777-.307-.777-.767s.31-.768.777-.768h.312c.466 0 .777.307.777.768 0 .46-.31.767-.777.767zM48.778 40.828H36.8c-.467 0-.778-.307-.778-.768 0-.46.311-.767.778-.767h11.978c.466 0 .778.307.778.767s-.312.768-.778.768z"/>
        <path fill="#CEEAF2" d="M20.933 30.851c2.178 2.149 5.756 1.996 7.778-.153.933-1.075 1.556-2.303 1.556-3.838h-5.6l-3.734 3.991z"/>
        <path fill="#3DAFCC" d="M24.667 21.335c-3.111.153-5.445 2.61-5.445 5.679 0 1.381.622 2.763 1.556 3.684l3.889-3.838v-5.525z"/>
        <path fill="#1F282C" d="M19.222 27.935c-.466 0-.778-.307-.778-.614-.31-1.995.467-3.837 2.023-5.065.31-.307.777-.154 1.089.153.31.307.155.768-.156 1.075a4.388 4.388 0 0 0-1.556 3.837c.156.307-.155.614-.622.614zM24.822 33c-1.555 0-3.11-.614-4.355-1.688a.735.735 0 0 1 0-1.075.759.759 0 0 1 1.089 0c1.866 1.842 4.977 1.689 6.844-.153s1.711-4.912-.156-6.754c-.933-.767-2.022-1.228-3.266-1.228-.467 0-.778-.307-.778-.767s.311-.768.778-.768c3.422 0 6.378 2.763 6.378 6.293 0 3.53-3.112 6.14-6.534 6.14z"/>
        <path fill="#1F282C" fill-rule="nonzero" d="M24.822 33c-1.555 0-3.11-.614-4.355-1.688a.735.735 0 0 1 0-1.075l3.733-3.99c.156-.154.311-.307.622-.307h5.6c.467 0 .778.307.778.767-.156 3.53-2.956 6.293-6.378 6.293zm-2.8-2.302c.778.46 1.711.767 2.645.767 2.333 0 4.355-1.688 4.822-3.99h-4.356l-3.11 3.223z"/>
        <path fill="#1F282C" d="M30.267 27.628h-5.6c-.467 0-.778-.307-.778-.768 0-.46.311-.767.778-.767h4.822c-.311-2.302-2.333-3.99-4.822-3.99-.467 0-.778-.308-.778-.768s.311-.768.778-.768c3.422 0 6.377 2.763 6.377 6.293 0 .307-.31.768-.777.768z"/>
        <path fill="#1F282C" d="M24.822 27.628c-.466 0-.778-.307-.778-.768v-5.525c0-.46.312-.768.778-.768.467 0 .778.307.778.768v5.525c0 .307-.467.768-.778.768z"/>
    </g>
</svg>
