<svg width="292" height="292" viewBox="0 0 292 292" fill="none" xmlns="http://www.w3.org/2000/svg">
<path d="M155.582 291.151C152.872 289.525 151.985 285.977 153.611 283.218L264.586 98.684C266.212 95.9739 269.76 95.0869 272.52 96.713C275.23 98.3391 276.117 101.887 274.491 104.646L163.516 289.229C161.84 291.939 158.292 292.826 155.582 291.151Z" fill="#E38874"/>
<path d="M238.666 152.983C235.955 151.357 235.068 147.809 236.694 145.05L264.586 98.6824C266.212 95.9723 269.76 95.0853 272.52 96.7114C275.23 98.3375 276.117 101.885 274.491 104.645L246.599 151.012C244.973 153.771 241.425 154.658 238.666 152.983Z" fill="#BF7172"/>
<path d="M258.032 123.074L256.012 121.842C253.843 120.511 253.153 117.703 254.435 115.535L264.832 98.2391C266.311 95.7754 269.563 94.9377 272.027 96.4652L272.914 97.0073C275.378 98.4855 276.216 101.738 274.688 104.201L264.29 121.497C263.058 123.714 260.2 124.404 258.032 123.074Z" fill="#744A6A"/>
<path d="M259.313 118.688C255.617 116.471 254.435 111.691 256.652 107.996L261.826 99.422C264.044 95.7264 268.824 94.5438 272.52 96.7612C276.216 98.9785 277.398 103.758 275.181 107.454L270.007 116.028C267.789 119.723 263.009 120.906 259.313 118.688Z" fill="#9D5D6F"/>
<path d="M253.843 136.477L246.156 131.845C244.579 130.909 244.086 128.889 245.023 127.312C245.959 125.735 247.979 125.242 249.556 126.178L257.244 130.81C258.821 131.747 259.313 133.767 258.377 135.344C257.441 136.921 255.42 137.414 253.843 136.477Z" fill="#9D5D6F"/>
<path d="M0.847478 136.428C2.47367 139.138 6.02172 140.025 8.78132 138.399L193.28 27.4321C195.99 25.8061 196.877 22.2583 195.251 19.4989C193.625 16.7888 190.077 15.9019 187.317 17.5279L2.81862 128.544C0.0590216 130.17 -0.827992 133.718 0.847478 136.428Z" fill="#92586E"/>
<path d="M168.936 33.9847L170.168 36.005C171.499 38.173 174.308 38.8629 176.476 37.5817L193.773 27.1848C196.237 25.7066 197.074 22.4544 195.547 19.9907L195.005 19.1038C193.526 16.64 190.274 15.8024 187.81 17.3299L170.513 27.6775C168.345 29.008 167.606 31.8166 168.936 33.9847Z" fill="#744A6A"/>
<path d="M173.322 32.7038C175.54 36.3994 180.32 37.582 184.016 35.3646L192.59 30.1908C196.286 27.9734 197.469 23.1938 195.251 19.4982C193.034 15.8026 188.254 14.62 184.558 16.8373L175.983 22.0112C172.287 24.2285 171.105 29.0082 173.322 32.7038Z" fill="#9D5D6F"/>
<path d="M155.533 38.173L160.165 45.8598C161.101 47.4366 163.122 47.9293 164.699 46.9931C166.275 46.0569 166.768 44.0366 165.832 42.4599L161.2 34.773C160.263 33.1962 158.243 32.7035 156.666 33.6397C155.139 34.5759 154.596 36.5962 155.533 38.173Z" fill="#744A6A"/>
<path d="M270.756 95.975C282.489 66.4336 268.05 32.9748 238.506 21.2427C208.962 9.51069 175.501 23.9481 163.768 53.4896C152.035 83.031 166.474 116.49 196.017 128.222C225.561 139.954 259.023 125.516 270.756 95.975Z" fill="#FED892"/>
<path d="M260.201 71.039C258.476 73.7491 256.505 76.3114 254.287 78.7259C235.019 99.5198 202.298 101.195 180.961 82.52C178.497 80.3519 176.23 77.9868 174.259 75.4738C169.282 69.1666 159.229 73.4042 160.165 81.3374C161.693 94.7894 167.951 107.699 178.792 117.456C202.495 138.841 238.715 136.969 260.053 113.218C269.81 102.378 274.688 88.8765 274.836 75.3259C274.935 67.3927 264.488 64.2391 260.201 71.039Z" fill="#F19A6E"/>
<path d="M184.952 42.4104C202.791 24.573 231.816 24.573 249.655 42.4104C252.365 45.1206 254.681 48.1263 256.603 51.3292C258.18 53.99 261.531 55.0248 264.291 53.6451C264.34 53.6451 264.389 53.5958 264.438 53.5958C267.395 52.019 268.479 48.2741 266.755 45.3177C263.896 40.4887 260.201 35.9555 255.765 31.9642C234.132 12.4515 200.869 12.3036 179.088 31.7178C177.117 33.4917 175.244 35.3642 173.569 37.3352C171.351 39.9467 171.844 43.8887 174.604 45.9089C174.653 45.9089 174.653 45.9582 174.702 45.9582C177.166 47.7321 180.566 47.3379 182.538 45.022C183.277 44.1351 184.065 43.2481 184.952 42.4104Z" fill="#FCF0D2"/>
<path opacity="0.8" d="M172.485 50.8364C172.435 50.7871 172.337 50.7378 172.288 50.6886C169.232 48.7669 165.142 50.0973 163.812 53.448C163.22 54.9755 162.678 56.503 162.186 58.0798C161.299 61.0855 163.023 64.2884 166.029 65.2246C166.128 65.2246 166.177 65.2739 166.276 65.2739C169.38 66.2101 172.633 64.4855 173.569 61.3812C173.914 60.1986 174.308 59.0653 174.752 57.932C175.786 55.3204 174.85 52.3146 172.485 50.8364Z" fill="#FCF0D2"/>
<path d="M253.597 108.981C251.478 107.749 248.817 107.996 246.944 109.572C231.865 122.384 209.542 124.404 192.196 113.022C191.063 112.282 189.978 111.494 188.944 110.656C186.233 108.488 182.242 109.129 180.369 112.036C180.369 112.085 180.32 112.085 180.32 112.135C178.694 114.697 179.285 117.998 181.601 119.871C182.932 120.905 184.311 121.891 185.74 122.827C207.62 137.166 235.66 134.702 254.632 118.54C257.687 115.929 257.244 111.051 253.745 109.03C253.696 109.03 253.646 108.981 253.597 108.981Z" fill="#D47776"/>
<path d="M261.284 87.1524C260.841 88.68 260.348 90.2568 259.708 91.735C258.525 94.7407 260.003 98.0914 263.009 99.274C263.059 99.3233 263.157 99.3233 263.206 99.3726C266.163 100.506 269.514 99.0769 270.697 96.1204C271.485 94.1987 272.126 92.2277 272.668 90.2568C273.604 86.9061 271.485 83.5061 268.036 82.9148C267.986 82.9148 267.888 82.9148 267.839 82.8656C264.882 82.4714 262.122 84.2945 261.284 87.1524Z" fill="#D47776"/>
<path opacity="0.5" d="M242.559 56.7499C242.657 56.6514 242.805 56.5528 242.904 56.4543C249.458 50.6399 248.472 40.1444 240.982 35.6111C230.141 29.0576 217.033 27.333 204.959 30.7329C197.025 32.9503 193.231 41.9183 196.976 49.2602C197.025 49.3587 197.075 49.408 197.124 49.5065C199.933 55.0253 206.241 57.9325 212.203 56.3064C217.23 54.9268 222.749 55.6659 227.233 58.376C232.063 61.2832 238.321 60.5441 242.559 56.7499Z" fill="#FCF0D2"/>
<path d="M179.778 26.692C180.764 25.7065 182.39 25.7065 183.425 26.692L265.375 108.636C266.36 109.621 266.36 111.247 265.375 112.282C264.389 113.268 262.763 113.268 261.728 112.282L179.778 30.3383C178.743 29.3036 178.743 27.6775 179.778 26.692Z" fill="#E18574"/>
<path d="M169.232 37.237C170.218 36.2516 171.844 36.2516 172.879 37.237L254.78 119.181C255.765 120.166 255.765 121.792 254.78 122.827C253.794 123.813 252.168 123.813 251.133 122.827L169.232 40.8834C168.198 39.8486 168.198 38.2225 169.232 37.237Z" fill="#E18574"/>
<path d="M179.778 26.692C180.764 25.7065 182.39 25.7065 183.425 26.692L203.678 46.9439C204.664 47.9294 204.664 49.5554 203.678 50.5902C202.692 51.5757 201.066 51.5757 200.031 50.5902L179.778 30.3383C178.743 29.3036 178.743 27.6775 179.778 26.692Z" fill="#FEBC74"/>
<path d="M169.232 37.237C170.218 36.2516 171.844 36.2516 172.879 37.237L188.895 53.2513C189.88 54.2368 189.88 55.8629 188.895 56.8976C187.909 57.8831 186.283 57.8831 185.248 56.8976L169.232 40.8834C168.198 39.8486 168.198 38.2225 169.232 37.237Z" fill="#FEBC74"/>
<path d="M239.602 74.4392C238.518 75.5233 236.694 75.5233 235.61 74.4392C234.526 73.355 234.526 71.5317 235.61 70.4476C236.694 69.3635 238.518 69.3635 239.602 70.4476C240.686 71.5317 240.686 73.355 239.602 74.4392Z" fill="#FCA86A"/>
<path d="M248.176 83.0128C247.092 84.0969 245.269 84.0969 244.185 83.0128C243.101 81.9287 243.101 80.1054 244.185 79.0212C245.269 77.9371 247.092 77.9371 248.176 79.0212C249.31 80.1546 249.31 81.9287 248.176 83.0128Z" fill="#FCA86A"/>
<path d="M256.8 91.6358C255.716 92.7199 253.893 92.7199 252.809 91.6358C251.724 90.5517 251.724 88.7284 252.809 87.6443C253.893 86.5601 255.716 86.5601 256.8 87.6443C257.884 88.7284 257.884 90.5024 256.8 91.6358Z" fill="#E18574"/>
<path d="M217.575 52.4132C216.49 53.4973 216.49 55.3206 217.575 56.4048C218.659 57.4889 220.482 57.4889 221.566 56.4048C222.65 55.3206 222.65 53.4973 221.566 52.4132C220.482 51.3291 218.708 51.3291 217.575 52.4132Z" fill="#FCA86A"/>
<path d="M209 43.8392C207.916 44.9233 207.916 46.7466 209 47.8308C210.084 48.9149 211.908 48.9149 212.992 47.8308C214.076 46.7466 214.076 44.9233 212.992 43.8392C211.908 42.7058 210.084 42.7058 209 43.8392Z" fill="#FCA86A"/>
<path d="M200.376 35.217C199.292 36.3012 199.292 38.1245 200.376 39.2086C201.461 40.2927 203.284 40.2927 204.368 39.2086C205.452 38.1245 205.452 36.3012 204.368 35.217C203.284 34.1329 201.51 34.1329 200.376 35.217Z" fill="#FEBC74"/>
<path d="M191.802 26.6428C190.718 27.7269 190.718 29.5502 191.802 30.6344C192.886 31.7185 194.709 31.7185 195.793 30.6344C196.877 29.5502 196.877 27.7269 195.793 26.6428C194.709 25.5587 192.886 25.5587 191.802 26.6428Z" fill="#FEBC74"/>
<path d="M216.983 97.0564C218.067 95.9722 218.067 94.1489 216.983 93.0648C215.899 91.9807 214.076 91.9807 212.992 93.0648C211.908 94.1489 211.908 95.9722 212.992 97.0564C214.076 98.1898 215.85 98.1898 216.983 97.0564Z" fill="#FCA86A"/>
<path d="M225.558 105.679C226.642 104.595 226.642 102.772 225.558 101.688C224.474 100.604 222.65 100.604 221.566 101.688C220.482 102.772 220.482 104.595 221.566 105.679C222.65 106.763 224.474 106.763 225.558 105.679Z" fill="#E18574"/>
<path d="M234.181 114.253C235.265 113.169 235.265 111.346 234.181 110.262C233.097 109.178 231.274 109.178 230.19 110.262C229.106 111.346 229.106 113.169 230.19 114.253C231.274 115.337 233.048 115.337 234.181 114.253Z" fill="#E18574"/>
<path d="M194.956 75.0307C196.04 73.9466 197.863 73.9466 198.947 75.0307C200.031 76.1149 200.031 77.9382 198.947 79.0223C197.863 80.1064 196.04 80.1064 194.956 79.0223C193.871 77.9382 193.871 76.1642 194.956 75.0307Z" fill="#FCA86A"/>
<path d="M186.381 66.4569C187.465 65.3728 189.289 65.3728 190.373 66.4569C191.457 67.541 191.457 69.3643 190.373 70.4485C189.289 71.5326 187.465 71.5326 186.381 70.4485C185.248 69.3643 185.248 67.5903 186.381 66.4569Z" fill="#FCA86A"/>
<path d="M177.757 57.883C178.842 56.7989 180.665 56.7989 181.749 57.883C182.833 58.9672 182.833 60.7905 181.749 61.8746C180.665 62.9587 178.842 62.9587 177.757 61.8746C176.673 60.7412 176.673 58.9672 177.757 57.883Z" fill="#FCA86A"/>
<path d="M169.183 49.26C170.267 48.1759 172.09 48.1759 173.174 49.26C174.259 50.3441 174.259 52.1674 173.174 53.2516C172.09 54.3357 170.267 54.3357 169.183 53.2516C168.05 52.1674 168.05 50.3934 169.183 49.26Z" fill="#FEBC74"/>
<path d="M40.6646 251.385C38.3978 249.118 38.3978 245.472 40.6646 243.255L226.001 57.8833C228.268 55.6167 231.915 55.6167 234.132 57.8833C236.399 60.15 236.399 63.7963 234.132 66.0136L48.7955 251.385C46.5287 253.602 42.8821 253.602 40.6646 251.385Z" fill="#BF7172"/>
<path opacity="0.8" d="M93.3433 198.661C91.0765 196.394 91.0765 192.748 93.3433 190.53L140.848 143.029C143.115 140.763 146.761 140.763 148.979 143.029C151.246 145.296 151.246 148.942 148.979 151.16L101.474 198.661C99.2567 200.927 95.6101 200.927 93.3433 198.661Z" fill="#E18574"/>
<path opacity="0.8" d="M67.8664 224.136C65.5996 221.869 65.5996 218.223 67.8664 216.006L77.2293 206.643C79.4961 204.377 83.1427 204.377 85.3602 206.643C87.6271 208.91 87.6271 212.556 85.3602 214.774L75.9973 224.136C73.7798 226.403 70.0839 226.403 67.8664 224.136Z" fill="#E18574"/>
<path d="M213.78 79.9091L212.105 78.2338C210.331 76.4599 210.331 73.5527 212.105 71.7295L226.395 57.4892C228.465 55.4196 231.767 55.4196 233.787 57.4892L234.526 58.2283C236.596 60.2978 236.596 63.5992 234.526 65.6195L220.236 79.8599C218.461 81.7323 215.554 81.7323 213.78 79.9091Z" fill="#9D5D6F"/>
<path d="M216.047 75.9667C212.991 72.9117 212.991 68.0335 216.047 64.9785L223.143 57.8829C226.198 54.8279 231.126 54.8279 234.132 57.8829C237.187 60.938 237.187 65.8654 234.132 68.8712L227.036 75.9667C224.03 79.0218 219.102 79.0218 216.047 75.9667Z" fill="#E89A7C"/>
<path d="M206.438 91.8822L200.13 85.5751C198.849 84.2939 198.849 82.1751 200.13 80.894C201.411 79.6128 203.53 79.6128 204.811 80.894L211.119 87.2011C212.4 88.4823 212.4 90.6011 211.119 91.8822C209.838 93.1633 207.768 93.1633 206.438 91.8822Z" fill="#9D5D6F"/>
</svg>
