<svg xmlns="http://www.w3.org/2000/svg" width="62" height="64" viewBox="0 0 62 64">
    <g fill="none" fill-rule="nonzero">
        <path fill="#1F282C" d="M31 8c-2.205 0-4-1.795-4-4s1.795-4 4-4 4 1.795 4 4-1.795 4-4 4zm0-5.333a1.334 1.334 0 1 0 .001 2.667A1.334 1.334 0 0 0 31 2.667z"/>
        <path fill="#1EB0CD" d="M31 56a1.334 1.334 0 0 1-1.333-1.333V10.989c-2.4 1.448-6.064 2.051-9.459 2.614-4.139.68-8.808 1.453-9.184 3.464l7.835 15.669a1.337 1.337 0 0 1-1.192 1.93h-16A1.335 1.335 0 0 1 .475 32.74l7.872-15.742c.285-4.186 5.946-5.12 11.429-6.026 4.861-.803 9.89-1.635 9.89-4.304a1.334 1.334 0 0 1 2.667 0v48c0 .736-.597 1.333-1.333 1.333zM3.824 32h11.685L9.667 20.315 3.824 32z"/>
        <path fill="#1EB0CD" d="M31 48c-5.147 0-9.333-4.187-9.333-9.333a1.334 1.334 0 0 1 2.666 0A6.676 6.676 0 0 0 31 45.333a6.676 6.676 0 0 0 6.667-6.666 1.334 1.334 0 0 1 2.666 0C40.333 43.813 36.147 48 31 48zM60.333 34.667h-16a1.335 1.335 0 0 1-1.192-1.928l7.835-15.672c-.376-2.014-5.045-2.784-9.184-3.467-5.683-.936-12.125-2-12.125-6.933a1.334 1.334 0 0 1 2.666 0c0 2.669 5.03 3.501 9.894 4.304 5.48.904 11.141 1.837 11.429 6.026l7.872 15.742c.208.413.184.904-.059 1.296a1.34 1.34 0 0 1-1.136.632zM46.491 32h11.685l-5.843-11.685L46.491 32z"/>
        <path fill="#1F282C" d="M31 53.333c-8.224 0-14.667 4.102-14.667 9.334 0 .736.598 1.333 1.334 1.333h26.666c.736 0 1.334-.597 1.334-1.333 0-5.232-6.443-9.334-14.667-9.334zM17.667 31c-.736 0-1.334.597-1.334 1.333H3a1.334 1.334 0 0 0-2.667 0c0 5.147 4.187 9.334 9.334 9.334 5.146 0 9.333-4.187 9.333-9.334 0-.736-.597-1.333-1.333-1.333zM60.333 31c-.736 0-1.333.597-1.333 1.333H45.667a1.334 1.334 0 0 0-2.667 0c0 5.147 4.187 9.334 9.333 9.334 5.147 0 9.334-4.187 9.334-9.334 0-.736-.598-1.333-1.334-1.333z"/>
    </g>
</svg>
