<svg xmlns="http://www.w3.org/2000/svg" width="62" height="64" viewBox="0 0 62 64">
    <g fill="none" fill-rule="nonzero">
        <g fill="#1EB0CD">
            <path d="M9.667 34.707l8-5.334-7.262-4.84a1.334 1.334 0 0 0-1.48 0l-7.258 4.84 8 5.334zM11 37.024v26.667l7.405-4.939c.371-.245.595-.664.595-1.11V31.692l-8 5.333zM8.333 37.024l-8-5.333v25.952c0 .445.224.861.595 1.109l7.405 4.939V37.024z"/>
        </g>
        <g fill="#1F282C">
            <path d="M32.333 13.024v50.667l7.406-4.939c.37-.248.594-.664.594-1.11V7.692l-8 5.333zM31 10.707l8-5.334-7.261-4.84a1.334 1.334 0 0 0-1.48 0L23 5.373l8 5.334zM29.667 13.024l-8-5.333v49.952c0 .445.224.861.594 1.109l7.406 4.939V13.024z"/>
        </g>
        <g fill="#1F282C">
            <path d="M52.333 24.04l8-5.333-7.261-4.84a1.334 1.334 0 0 0-1.48 0l-7.259 4.84 8 5.333zM53.667 26.357v37.334l7.405-4.939c.37-.248.595-.664.595-1.11V21.025l-8 5.333zM51 26.357l-8-5.333v36.619c0 .445.224.861.595 1.109L51 63.691V26.357z"/>
        </g>
    </g>
</svg>
