<svg xmlns="http://www.w3.org/2000/svg" width="48" height="48" viewBox="0 0 48 48">
    <g fill="none" fill-rule="nonzero">
        <path fill="#1EB0CD" d="M5 48a1 1 0 0 1-1-1V1a1 1 0 0 1 2 0v46a1 1 0 0 1-1 1z"/>
        <path fill="#1F282C" d="M38.552 21.894l-7.356-3.678-9.49 9.49A.993.993 0 0 1 21 28h-7.764L4 32.618v7.968l8.292-8.292a.988.988 0 0 1 .95-.262l7.52 1.88 9.614-7.692c.306-.244.72-.286 1.072-.114L39 29.882l9-4.5v-9.46l-8.426 5.898a.994.994 0 0 1-1.022.074z"/>
        <path fill="#1EB0CD" d="M47.526 2.15a.991.991 0 0 0-.972-.044L38.764 6H31a1 1 0 0 0-.768.36L20.532 18H5a1 1 0 0 0-1 1v11.382l8.552-4.276c.14-.07.294-.106.448-.106h7.586l9.708-9.708a1 1 0 0 1 1.154-.188l7.466 3.734L48 13.478V3c0-.346-.18-.668-.474-.85zM38.552 31.894l-7.428-3.714-9.5 7.6a1.001 1.001 0 0 1-.868.188l-7.452-1.862-7.962 7.962A1.01 1.01 0 0 0 5 42H1a1 1 0 0 0 0 2h46a1 1 0 0 0 1-1V27.618l-8.552 4.276a.996.996 0 0 1-.896 0z"/>
    </g>
</svg>
