<svg xmlns="http://www.w3.org/2000/svg" width="61" height="64" viewBox="0 0 61 64">
    <g fill="none" fill-rule="nonzero">
        <ellipse cx="1.326" cy="1.333" fill="#1F282C" rx="1.326" ry="1.333"/>
        <ellipse cx="1.326" cy="6.667" fill="#1F282C" rx="1.326" ry="1.333"/>
        <ellipse cx="1.326" cy="12" fill="#1F282C" rx="1.326" ry="1.333"/>
        <path fill="#1EB0CD" d="M57.022 45.333H39.629c-.494-.029-1.708-1.49-2.363-2.274C35.96 41.485 34.725 40 33.152 40h-7.956c-2.194 0-3.979 1.795-3.979 4v16c0 2.205 1.785 4 3.979 4h31.826C59.215 64 61 62.205 61 60V49.333c0-2.205-1.785-4-3.978-4z"/>
        <path fill="#1F282C" d="M57.022 10.667H39.629c-.494-.03-1.708-1.491-2.363-2.275-1.305-1.573-2.541-3.059-4.114-3.059h-7.956c-2.194 0-3.979 1.795-3.979 4v16c0 2.206 1.785 4 3.979 4h31.826c2.193 0 3.978-1.794 3.978-4V14.667c0-2.206-1.785-4-3.978-4z"/>
        <path fill="#1EB0CD" d="M39.303 41.344c.212.259.488.587.734.87.252.287.616.453.997.453h15.988a1.33 1.33 0 0 0 1.326-1.334v-2.666c0-2.206-1.785-4-3.978-4H33.152A1.33 1.33 0 0 0 31.826 36a1.33 1.33 0 0 0 1.326 1.333c2.811 0 4.663 2.224 6.15 4.011z"/>
        <path fill="#1F282C" d="M33.152 2.667c2.811 0 4.663 2.224 6.15 4.01.213.259.489.587.735.87.252.288.616.453.997.453h15.988a1.33 1.33 0 0 0 1.326-1.333V4c0-2.205-1.785-4-3.978-4H33.152a1.33 1.33 0 0 0-1.326 1.333 1.33 1.33 0 0 0 1.326 1.334z"/>
        <ellipse cx="1.326" cy="17.333" fill="#1F282C" rx="1.326" ry="1.333"/>
        <ellipse cx="6.63" cy="17.333" fill="#1F282C" rx="1.326" ry="1.333"/>
        <ellipse cx="11.935" cy="17.333" fill="#1F282C" rx="1.326" ry="1.333"/>
        <ellipse cx="17.239" cy="17.333" fill="#1F282C" rx="1.326" ry="1.333"/>
        <ellipse cx="1.326" cy="22.667" fill="#1F282C" rx="1.326" ry="1.333"/>
        <ellipse cx="1.326" cy="28" fill="#1F282C" rx="1.326" ry="1.333"/>
        <ellipse cx="1.326" cy="33.333" fill="#1F282C" rx="1.326" ry="1.333"/>
        <ellipse cx="1.326" cy="38.667" fill="#1F282C" rx="1.326" ry="1.333"/>
        <ellipse cx="1.326" cy="44" fill="#1F282C" rx="1.326" ry="1.333"/>
        <ellipse cx="1.326" cy="49.333" fill="#1F282C" rx="1.326" ry="1.333"/>
        <ellipse cx="1.326" cy="54.667" fill="#1F282C" rx="1.326" ry="1.333"/>
        <ellipse cx="6.63" cy="54.667" fill="#1F282C" rx="1.326" ry="1.333"/>
        <ellipse cx="11.935" cy="54.667" fill="#1F282C" rx="1.326" ry="1.333"/>
        <ellipse cx="17.239" cy="54.667" fill="#1F282C" rx="1.326" ry="1.333"/>
    </g>
</svg>
