<svg xmlns="http://www.w3.org/2000/svg" width="44" height="48" viewBox="0 0 44 48">
    <g fill="none" fill-rule="nonzero">
        <path fill="#1EB0CD" d="M43.65 1.592A2.967 2.967 0 0 0 41.02 0H2.98A2.97 2.97 0 0 0 .35 1.592a3 3 0 0 0 .18 3.102l15.292 22.36c.116.17.178.366.178.57v17.378A3.002 3.002 0 0 0 19 48c.538 0 1.068-.148 1.538-.43l6.01-3.606A3.015 3.015 0 0 0 28 41.396V27.624c0-.204.062-.4.18-.572L43.47 4.696a3.004 3.004 0 0 0 .18-3.104zm-24.096 22.24a1 1 0 0 1-1.386-.278l-12-18a.999.999 0 1 1 1.664-1.108l12 18a.999.999 0 0 1-.278 1.386z"/>
        <path fill="#000" d="M36.484 23.36c-.528 0-1.062-.14-1.546-.43l-3.454-2.072a1 1 0 1 1 1.03-1.714l3.454 2.072a.997.997 0 0 0 1.314-.258l3.588-4.784a.982.982 0 0 0 .18-.792.99.99 0 0 0-.466-.666l-3.098-1.86a1 1 0 1 1 1.03-1.714l3.098 1.86a3.004 3.004 0 0 1 .858 4.372l-3.588 4.784a2.996 2.996 0 0 1-2.4 1.202z"/>
    </g>
</svg>
