<svg xmlns="http://www.w3.org/2000/svg" width="320" height="465" viewBox="0 0 320 465">
    <g fill="none" fill-rule="evenodd">
        <path fill="#FFF" fill-rule="nonzero" d="M.5.5h319v464H.5z"/>
        <path fill="#1F282C" fill-rule="nonzero" d="M176.35 314.39a20.47 20.47 0 0 0 0-26l-13 13 13 13z"/>
        <path fill="#3CB0CB" fill-rule="nonzero" d="M173.51 317.23l-13-13-13 13-4.26 4.26c9.922 8.52 24.578 8.52 34.5 0l-4.24-4.26zm-13-6.62l5.36 5.39h-10.7l5.34-5.39z"/>
        <path fill="#1F282C" fill-rule="nonzero" d="M160.52 280.92a20.47 20.47 0 0 0-15.83 33.47l28.82-28.83a20.39 20.39 0 0 0-13-4.65"/>
        <path stroke="#3DAFCC" stroke-width="1.5" d="M64 103c0 15.464 12.536 28 28 28M64 69v34M128 131H92M64 274c0 15.464 12.536 28 28 28M64 240v34M131 302H92M256 274c0 15.464-12.536 28-28 28M256 240v34M189 302h39M256 103c0 15.464-12.536 28-28 28M256 69v34M192 131h36M94.5 194a28.5 28.5 0 0 0 28.5-28.5V147M225.5 194c-15.74 0-28.5-12.76-28.5-28.5V147"/>
        <path fill="#F2FDFF" fill-rule="nonzero" stroke="#3DAFCC" stroke-width="1.5" d="M20 20h121v48H20z"/>
        <path fill="#1F282C" fill-rule="nonzero" d="M59.67 44.24v-3.49l-1.77-.18A9.78 9.78 0 0 0 56.41 37l1.12-1.37-2.47-2.48-1.37 1.12a10 10 0 0 0-3.6-1.49L49.92 31h-3.5l-.17 1.76a9.83 9.83 0 0 0-3.6 1.49l-1.37-1.12-2.47 2.47 1.12 1.4a9.83 9.83 0 0 0-1.49 3.6l-1.77.17v3.5l1.77.17A9.83 9.83 0 0 0 39.93 48l-1.12 1.37 2.47 2.47 1.37-1.12a9.68 9.68 0 0 0 3.6 1.5l.17 1.78h3.5l.17-1.77a9.83 9.83 0 0 0 3.6-1.49l1.37 1.12 2.47-2.47L56.41 48a9.83 9.83 0 0 0 1.49-3.6l1.77-.16zM48.17 50a7.52 7.52 0 1 1 0-15.04 7.52 7.52 0 0 1 0 15.04z"/>
        <circle cx="48.17" cy="42.49" r="1.75" fill="#1F282C" fill-rule="nonzero"/>
        <path fill="#3CB0CB" fill-rule="nonzero" d="M48.17 36.58a5.91 5.91 0 1 0 .04 11.82 5.91 5.91 0 0 0-.04-11.82zm0 9.54a3.64 3.64 0 1 1 3.64-3.64 3.63 3.63 0 0 1-3.63 3.65l-.01-.01zM36.86 50.32l-4.44 4.44a2.47 2.47 0 0 0 0 3.47 2.45 2.45 0 0 0 3.47 0l4.44-4.44.2-.2-3.45-3.45a1.92 1.92 0 0 0-.22.18z"/>
        <path fill="#1F282C" fill-rule="nonzero" d="M68.45 34.32H74v7.06h-1v-6.2h-3.56v6.2h-1zM78 36.2a2.65 2.65 0 1 1-2.72 2.64A2.64 2.64 0 0 1 78 36.2zm0 4.46a1.81 1.81 0 1 0-1.74-1.82A1.75 1.75 0 0 0 78 40.66zM81.88 36.32h.93V40c0-.09.28-.44.45-.68l2.18-3h.94v5.06h-.94v-3-.67a7.87 7.87 0 0 1-.44.67l-2.19 3h-.93v-5.06zM90.24 36.2a2.65 2.65 0 0 1 1.9.74l-.46.68a2.05 2.05 0 0 0-1.4-.58 1.73 1.73 0 0 0-1.76 1.8 1.75 1.75 0 0 0 1.79 1.82 2.26 2.26 0 0 0 1.56-.66l.39.71a2.84 2.84 0 0 1-2 .81 2.65 2.65 0 1 1 0-5.3l-.02-.02zM93.31 36.32h1v2H95l1.38-2h1.1l-1.69 2.41 1.89 2.63h-1.16L95 39.19h-.73v2.19h-1zM100.71 36.2A2.65 2.65 0 1 1 98 38.84a2.64 2.64 0 0 1 2.71-2.64zm0 4.46A1.81 1.81 0 1 0 99 38.84a1.75 1.75 0 0 0 1.72 1.82h-.01zM104.61 36.32h2.09c1 0 1.69.45 1.69 1.3a1.18 1.18 0 0 1-.72 1.11 1.19 1.19 0 0 1 1 1.2c0 .94-.76 1.44-1.86 1.44h-2.16l-.04-5.05zm1.92 2.14c.58 0 .87-.3.87-.77 0-.47-.29-.7-.9-.7h-.92v1.47h.95zm.09 2.24c.7 0 1-.32 1-.79 0-.47-.37-.8-1-.8h-1v1.59h1zM112.41 38.23h.26v-.1a1 1 0 0 0-1.11-1.13 2.54 2.54 0 0 0-1.42.49l-.39-.71a3.22 3.22 0 0 1 1.89-.6 1.8 1.8 0 0 1 2 2v3.2h-.91v-.51a2.55 2.55 0 0 1 0-.4 1.87 1.87 0 0 1-1.66 1 1.56 1.56 0 0 1-1.69-1.5c.01-1.56 1.98-1.74 3.03-1.74zm-1.1 2.5a1.52 1.52 0 0 0 1.36-1.61v-.19h-.25c-.72 0-2.06.06-2.06 1a.85.85 0 0 0 .95.8zM115.73 39.7a2.19 2.19 0 0 1 .23-.31 1.51 1.51 0 0 1-1.1-1.47c0-1 .74-1.59 1.81-1.59h2v5.06h-1v-1.84h-.85l-1.24 1.83h-1.07l1.22-1.68zm2-.86V37h-.81c-.65 0-1.07.26-1.07.91a.92.92 0 0 0 1 .94l.88-.01zM70.66 48.2a2.65 2.65 0 1 1-2.72 2.64 2.64 2.64 0 0 1 2.72-2.64zm0 4.46a1.81 1.81 0 1 0-1.74-1.82 1.75 1.75 0 0 0 1.75 1.82h-.01zM74.56 48.32H79v5.06h-1v-4.23h-2.47v4.23h-1zM81.7 49.15h-1.76v-.83h4.49v.83h-1.77v4.23h-1zM85.38 48.32h.93V52c0-.09.28-.44.45-.68l2.18-3h.94v5.06h-.94v-3-.67a7.87 7.87 0 0 1-.44.67l-2.19 3h-.93v-5.06zM91.59 48.32h1.08L94 51.18c.14.3.28.68.28.68l.28-.68 1.32-2.86h1.06l.44 5.06h-.94l-.22-3v-.87s-.13.35-.32.74l-1.2 2.53h-.83l-1.2-2.52-.32-.75v.87l-.22 3h-.94l.4-5.06zM98.66 48.32h.93V52c0-.09.28-.44.45-.68l2.18-3h.94v5.06h-.94v-3-.67a7.87 7.87 0 0 1-.44.67l-2.19 3h-.93v-5.06zM104.6 52.12a1.91 1.91 0 0 0 1.32.6c.58 0 1-.28 1-.83 0-.55-.33-.77-1-.77h-.62v-.7h.53c.57 0 1-.22 1-.73s-.34-.73-.9-.73a2 2 0 0 0-1.23.44l-.36-.65a2.87 2.87 0 0 1 1.76-.55c1 0 1.71.47 1.71 1.37a1.17 1.17 0 0 1-.74 1.15c.546.132.926.628.91 1.19 0 1-.9 1.57-1.94 1.57a2.73 2.73 0 0 1-1.86-.74l.42-.62zM111.72 50.23h.28v-.1a1 1 0 0 0-1.13-1.13 2.54 2.54 0 0 0-1.42.49l-.39-.71a3.22 3.22 0 0 1 1.89-.6 1.8 1.8 0 0 1 2 2v3.2H112v-.51a2.55 2.55 0 0 1 0-.4 1.87 1.87 0 0 1-1.66 1A1.56 1.56 0 0 1 108.7 52c0-1.59 1.97-1.77 3.02-1.77zm-1.1 2.5a1.52 1.52 0 0 0 1.38-1.61v-.19h-.25c-.72 0-2.06.06-2.06 1a.85.85 0 0 0 .93.8zM114.38 48.32h1v4.22h2.41v-4.22h1v4.22h.71v2h-.89v-1.2h-4.18zM120.48 48.32h.93V52c0-.09.28-.44.45-.68l2.18-3h.96v5.06h-1v-3-.67a7.87 7.87 0 0 1-.44.67l-2.19 3h-.93l.04-5.06zM127.12 51.7a2.19 2.19 0 0 1 .23-.31 1.51 1.51 0 0 1-1.1-1.47c0-1 .74-1.59 1.81-1.59h2v5.06h-1v-1.84h-.85L127 53.38h-1l1.12-1.68zm2-.86V49h-.81c-.65 0-1.07.26-1.07.91a.92.92 0 0 0 1 .94l.88-.01z"/>
        <path fill="#F2FDFF" fill-rule="nonzero" stroke="#3DAFCC" stroke-width="1.5" d="M20 194h121v48H20z"/>
        <path fill="#1F282C" fill-rule="nonzero" d="M62.34 213.87a2.36 2.36 0 0 0 1.66.74 1.3 1.3 0 0 0 1.47-1.28 1.17 1.17 0 0 0-1.32-1.17h-.87v-.82H64a1.18 1.18 0 0 0 1.27-1.14 1.1 1.1 0 0 0-1.27-1.13 2.42 2.42 0 0 0-1.58.6l-.42-.74a3.21 3.21 0 0 1 2.14-.72 1.9 1.9 0 0 1 2.12 1.87 1.71 1.71 0 0 1-1 1.59 1.67 1.67 0 0 1 1.24 1.69 2.18 2.18 0 0 1-2.4 2.12 3.16 3.16 0 0 1-2.29-1l.53-.61zM67.73 210.32h2.09c1 0 1.69.45 1.69 1.3a1.18 1.18 0 0 1-.72 1.11 1.19 1.19 0 0 1 1 1.2c0 .94-.76 1.44-1.86 1.44h-2.2v-5.05zm1.92 2.14c.58 0 .87-.3.87-.77 0-.47-.29-.7-.9-.7h-.92v1.47h.95zm.09 2.24c.7 0 1-.32 1-.79 0-.47-.37-.8-1-.8h-1v1.59h1zM75.32 210.2a2.65 2.65 0 1 1-2.72 2.64 2.64 2.64 0 0 1 2.72-2.64zm0 4.46a1.81 1.81 0 1 0-1.74-1.82 1.75 1.75 0 0 0 1.75 1.82h-.01zM79.22 210.32h1v2.06h2.56v-2.06h1v5.06h-1v-2.17h-2.59v2.17h-1zM85.22 210.32h1v2h.71l1.38-2h1.1l-1.69 2.41 1.89 2.63h-1.18l-1.51-2.19h-.73v2.19h-1zM90.44 210.32h.93V214c0-.09.28-.44.45-.68l2.18-3h.94v5.06H94v-3-.67a7.87 7.87 0 0 1-.44.67l-2.19 3h-.93v-5.06zM96.64 214.33h1l-.87 2.06H96zM101.6 214.12a1.91 1.91 0 0 0 1.32.6c.58 0 1-.28 1-.83 0-.55-.33-.77-1-.77h-.62v-.7h.53c.57 0 1-.22 1-.73s-.34-.73-.9-.73a2 2 0 0 0-1.23.44l-.36-.65a2.87 2.87 0 0 1 1.76-.55c1 0 1.71.47 1.71 1.37a1.17 1.17 0 0 1-.74 1.15c.546.132.926.628.91 1.19 0 1-.9 1.57-1.94 1.57a2.73 2.73 0 0 1-1.86-.74l.42-.62zM108.72 212.23h.28v-.1a1 1 0 0 0-1.11-1.11 2.54 2.54 0 0 0-1.42.49l-.39-.71a3.22 3.22 0 0 1 1.89-.6 1.8 1.8 0 0 1 2 2v3.2H109v-.51a2.55 2.55 0 0 1 0-.4 1.87 1.87 0 0 1-1.66 1 1.56 1.56 0 0 1-1.69-1.5c.05-1.58 2.02-1.76 3.07-1.76zm-1.1 2.5a1.52 1.52 0 0 0 1.36-1.61v-.19h-.25c-.72 0-2.06.06-2.06 1a.85.85 0 0 0 .95.8zM112 213.7a2.19 2.19 0 0 1 .23-.31 1.51 1.51 0 0 1-1.1-1.47c0-1 .74-1.59 1.81-1.59h2v5.06h-1v-1.83h-.85l-1.24 1.83h-1.07l1.22-1.69zm2-.86V211h-.81c-.65 0-1.07.26-1.07.91a.92.92 0 0 0 1 .94l.88-.01zM116.5 210.32h2.09c1 0 1.69.45 1.69 1.3a1.18 1.18 0 0 1-.72 1.11 1.19 1.19 0 0 1 1 1.2c0 .94-.76 1.44-1.86 1.44h-2.2v-5.05zm1.92 2.14c.58 0 .87-.3.87-.77 0-.47-.29-.7-.9-.7h-.92v1.47h.95zm.09 2.24c.7 0 1-.32 1-.79 0-.47-.37-.8-1-.8h-1v1.59h1zM121.7 210.32h1v2h.71l1.38-2h1.1l-1.69 2.41 1.89 2.63h-1.15l-1.51-2.19h-.73v2.19h-1zM126.92 210.32h.93V214c0-.09.28-.44.45-.68l2.18-3h.94v5.06h-.94v-3-.67a7.87 7.87 0 0 1-.44.67l-2.19 3h-.93v-5.06zM133.12 214.33h1l-.87 2.06h-.77zM62 224v-1.65h.95v1.51c0 .5.18.95 1 .95a2 2 0 0 0 1.12-.36v-2.1h1v5.06H65v-1.83-.3a2.83 2.83 0 0 1-1.37.37A1.51 1.51 0 0 1 62 224zM70.1 224.23h.26v-.1a1 1 0 0 0-1.11-1.13 2.54 2.54 0 0 0-1.42.49l-.39-.71a3.22 3.22 0 0 1 1.89-.6 1.8 1.8 0 0 1 2 2v3.2h-.91v-.51a2.55 2.55 0 0 1 0-.4 1.87 1.87 0 0 1-1.66 1 1.56 1.56 0 0 1-1.69-1.5c.01-1.56 1.98-1.74 3.03-1.74zm-1.1 2.5a1.52 1.52 0 0 0 1.36-1.61v-.19h-.25c-.72 0-2.06.06-2.06 1a.85.85 0 0 0 .95.8zM73.91 223.15h-1.76v-.83h4.49v.83h-1.77v4.23h-1zM77.59 222.32h1v1.83h1c1 0 1.84.48 1.84 1.63 0 .95-.58 1.6-1.85 1.6h-2l.01-5.06zm1.82 4.36c.7 0 1-.38 1-.91s-.31-.92-1-.92h-.84v1.83h.84zm2.76-4.36h1v5.06h-1v-5.06zM84.86 226.33h1l-.86 2.06h-.77zM89.82 226.12a1.91 1.91 0 0 0 1.32.6c.58 0 1-.28 1-.83 0-.55-.33-.77-1-.77h-.62v-.7h.53c.57 0 1-.22 1-.73s-.34-.73-.9-.73a2 2 0 0 0-1.23.44l-.36-.65a2.87 2.87 0 0 1 1.76-.55c1 0 1.71.47 1.71 1.37a1.17 1.17 0 0 1-.74 1.15c.546.132.926.628.91 1.19 0 1-.9 1.57-1.94 1.57a2.73 2.73 0 0 1-1.86-.74l.42-.62zM96.94 224.23h.26v-.1a1 1 0 0 0-1.11-1.13 2.54 2.54 0 0 0-1.42.49l-.39-.71a3.22 3.22 0 0 1 1.89-.6 1.8 1.8 0 0 1 2 2v3.2h-.91v-.51a2.55 2.55 0 0 1 0-.4 1.87 1.87 0 0 1-1.66 1 1.56 1.56 0 0 1-1.69-1.5c.01-1.56 1.98-1.74 3.03-1.74zm-1.1 2.5a1.52 1.52 0 0 0 1.36-1.61v-.19H97c-.72 0-2.06.06-2.06 1a.85.85 0 0 0 .9.8zM99.6 222.32h1v2h.71l1.38-2h1.1l-1.69 2.41 1.89 2.63h-1.15l-1.51-2.19h-.73v2.19h-1zM107.37 224.23h.26v-.1a1 1 0 0 0-1.11-1.11 2.54 2.54 0 0 0-1.42.49l-.39-.71a3.22 3.22 0 0 1 1.89-.6 1.8 1.8 0 0 1 2 2v3.2h-.91v-.51a2.55 2.55 0 0 1 0-.4 1.87 1.87 0 0 1-1.66 1 1.56 1.56 0 0 1-1.69-1.5c.01-1.58 1.98-1.76 3.03-1.76zm-1.1 2.5a1.52 1.52 0 0 0 1.36-1.61v-.19h-.25c-.72 0-2.06.06-2.06 1a.85.85 0 0 0 .95.8zM110 226.12a1.91 1.91 0 0 0 1.32.6c.58 0 1-.28 1-.83 0-.55-.33-.77-1-.77h-.62v-.7h.53c.57 0 1-.22 1-.73s-.34-.73-.9-.73a2 2 0 0 0-1.23.44l-.36-.65a2.87 2.87 0 0 1 1.76-.55c1 0 1.71.47 1.71 1.37a1.17 1.17 0 0 1-.74 1.15c.546.132.926.628.91 1.19 0 1-.9 1.57-1.94 1.57a2.73 2.73 0 0 1-1.86-.74l.42-.62zM114.51 222.32h1v1.83h1c1 0 1.84.48 1.84 1.63 0 .95-.58 1.6-1.85 1.6h-1.95l-.04-5.06zm1.82 4.36c.7 0 1-.38 1-.91s-.31-.92-1-.92h-.84v1.83h.84zm2.76-4.36h1v5.06h-1v-5.06z"/>
        <path fill="#F2FDFF" fill-rule="nonzero" stroke="#3DAFCC" stroke-width="1.5" d="M179 194h121v48H179z"/>
        <path stroke="#3DAFCC" stroke-width="1.5" d="M160 146v127M160 366l8-9M160 366l-8-9M160 336v33"/>
        <path fill="#F2FDFF" fill-rule="nonzero" stroke="#3DAFCC" stroke-width="1.5" d="M99.5 107h121v48h-121z"/>
        <path fill="#1F282C" fill-rule="nonzero" d="M171.11 127.28a3.77 3.77 0 0 1 2.58.93l-.5.74a3.24 3.24 0 0 0-2-.77 2.54 2.54 0 0 0-2.61 2.7 2.62 2.62 0 0 0 2.63 2.79 3.15 3.15 0 0 0 2.17-.92l.53.71a3.74 3.74 0 0 1-2.73 1.12 3.65 3.65 0 0 1 0-7.3h-.07zM177.54 131.31h.26v-.1a1 1 0 0 0-1.11-1.11 2.54 2.54 0 0 0-1.42.49l-.39-.71a3.22 3.22 0 0 1 1.89-.6 1.8 1.8 0 0 1 2 2v3.2h-.91V134a2.55 2.55 0 0 1 0-.4 1.87 1.87 0 0 1-1.66 1 1.56 1.56 0 0 1-1.69-1.5c.01-1.61 1.98-1.79 3.03-1.79zm-1.1 2.5a1.52 1.52 0 0 0 1.36-1.61v-.2h-.25c-.72 0-2.06.06-2.06 1a.85.85 0 0 0 .95.81zM180.2 129.4h.93v3.68c0-.09.28-.44.45-.68l2.18-3h.94v5.06h-.94v-3-.67a7.87 7.87 0 0 1-.44.67l-2.19 3h-.93v-5.06zm.75-1.86v-.15h.78v.14a.66.66 0 0 0 .7.66.67.67 0 0 0 .71-.67v-.13h.77v.15a1.5 1.5 0 0 1-3 0h.04zM187.4 130.23h-1.76v-.83h4.49v.83h-1.77v4.23h-1z"/>
        <path fill="#3CB0CB" fill-rule="nonzero" d="M153.06 125h-21.84l-2.45 1.49v15.76a2.24 2.24 0 0 0 2.23 2.24h21a2.24 2.24 0 0 0 2.24-2.23v-15.78l-1.18-1.48zm-9.34 15.76a.73.73 0 0 1-.73.74h-10.51a.73.73 0 0 1-.74-.73v-6a.74.74 0 0 1 .73-.75H143a.74.74 0 0 1 .74.74v6h-.02zm0-9.05a.72.72 0 0 1-.73.74h-10.51a.72.72 0 0 1-.74-.73v-3a.74.74 0 0 1 .73-.75H143a.74.74 0 0 1 .74.74v3h-.02zm7.5 9.05a.74.74 0 0 1-.74.74H146a.74.74 0 0 1-.74-.74v-12a.75.75 0 0 1 .74-.76h4.53c.41.005.74.34.74.75v12l-.05.01z"/>
        <path fill="#1F282C" fill-rule="nonzero" d="M154.23 121.26v5.22h-18l-1.49-1.34v-4.64l1.49-1.5H152a2.23 2.23 0 0 1 2.24 2.23l-.01.03z"/>
        <path fill="#3CB0CB" fill-rule="nonzero" d="M136.23 126.48h-7.46v-5.22A2.24 2.24 0 0 1 131 119h5.22l.01 7.48z"/>
        <path fill="#FFF" fill-rule="nonzero" d="M146 123.49h-1.49a.75.75 0 1 1 0-1.49H146a.75.75 0 1 1 0 1.49zM142.25 122.75a.74.74 0 0 1-.74.74H140a.75.75 0 1 1 0-1.49h1.49a.74.74 0 0 1 .75.73l.01.02z"/>
        <path fill="#FFF" fill-rule="nonzero" d="M141.5 123.49V122c.41.005.74.34.74.75a.74.74 0 0 1-.74.74zM150.5 123.49H149a.75.75 0 0 1 0-1.49h1.5a.75.75 0 0 1 0 1.49z"/>
        <path fill="#3CB0CB" fill-rule="nonzero" d="M208.46 224.91h-20.17v-16.12l8.77 8.77 2.72-2.72 8.68 8.67z"/>
        <path fill="#1F282C" fill-rule="nonzero" d="M207.06 208.19l-3.67 3.68-3.55-3.55-5.01 5.02 2.23 2.23 2.72-2.72 8.68 8.68v-13.34zM186.05 227.85a.75.75 0 0 1-.75-.74V209a.75.75 0 0 1 1.48-.24 1 1 0 0 1 0 .24v18.11a.74.74 0 0 1-.73.74z"/>
        <path fill="#1F282C" fill-rule="nonzero" d="M208.13 227.85h-22.08a.74.74 0 0 1 0-1.47h22.08a.75.75 0 0 1 .86.62.74.74 0 0 1-.62.85.49.49 0 0 1-.24 0z"/>
        <path fill="#F2FDFF" fill-rule="nonzero" stroke="#3DAFCC" stroke-width="1.5" d="M179 20h121v48H179z"/>
        <path fill="#000" fill-rule="nonzero" d="M235.45 40.45H238a2.1 2.1 0 0 1 2.21 2.21A2.12 2.12 0 0 1 238 44.9h-1.6v2.61h-1l.05-7.06zm2.43 3.55a1.28 1.28 0 0 0 1.37-1.38 1.26 1.26 0 0 0-1.36-1.35h-1.45V44h1.44zM243.37 42.33a2.16 2.16 0 0 1 2.19 2.37 3 3 0 0 1 0 .41h-3.68a1.67 1.67 0 0 0 1.74 1.68 2.29 2.29 0 0 0 1.49-.59l.41.71a3 3 0 0 1-2 .72 2.59 2.59 0 0 1-2.69-2.63 2.49 2.49 0 0 1 2.54-2.67zm1.21 2.08a1.23 1.23 0 0 0-1.23-1.33 1.47 1.47 0 0 0-1.48 1.33h2.71zM246.73 42.45h1v2h.71l1.38-2h1.1l-1.69 2.41 1.89 2.63h-1.15l-1.51-2.19h-.73v2.19h-1zM251.4 46.69c.74-.11 1.14-.85 1.14-2.68v-1.56h3.39v5.06h-1v-4.26h-1.49V44c0 2.29-.58 3.47-2.07 3.55l.03-.86zM260 44.36h.26v-.1a1 1 0 0 0-1.11-1.11 2.54 2.54 0 0 0-1.42.49l-.39-.71a3.22 3.22 0 0 1 1.89-.6 1.8 1.8 0 0 1 2 2v3.2h-.91V47a2.55 2.55 0 0 1 0-.4 1.87 1.87 0 0 1-1.66 1 1.56 1.56 0 0 1-1.69-1.5c.03-1.56 2.03-1.74 3.03-1.74zm-1.1 2.5a1.52 1.52 0 0 0 1.36-1.61v-.19H260c-.72 0-2.06.06-2.06 1a.85.85 0 0 0 .99.8h-.03zM262.92 42.45H264l1.29 2.86c.14.3.28.68.28.68l.28-.68 1.32-2.86h1.06l.44 5.06h-.94l-.22-3v-.87s-.13.35-.32.74L266 46.9h-.83L264 44.38l-.32-.75v.87l-.22 3h-.94l.4-5.05zM272.59 44.36h.26v-.1a1 1 0 0 0-1.11-1.11 2.54 2.54 0 0 0-1.42.49l-.39-.71a3.22 3.22 0 0 1 1.89-.6 1.8 1.8 0 0 1 2 2v3.2h-.91V47a2.55 2.55 0 0 1 0-.4 1.87 1.87 0 0 1-1.66 1 1.56 1.56 0 0 1-1.69-1.5c.01-1.56 1.98-1.74 3.03-1.74zm-1.1 2.5a1.52 1.52 0 0 0 1.36-1.61v-.19h-.25c-.72 0-2.06.06-2.06 1a.85.85 0 0 0 .95.8z"/>
        <path fill="#1F282C" fill-rule="nonzero" d="M219.35 51.92V32.63a2.06 2.06 0 0 0-4.11 0v19.29a2.06 2.06 0 0 0 4.11 0z"/>
        <path fill="#3CB0CB" fill-rule="nonzero" d="M213.2 33.25l-.44.29a22 22 0 0 1-10.39 3.52v10.49A22 22 0 0 1 212.76 51l.44.29V33.25z"/>
        <path fill="#1F282C" fill-rule="nonzero" d="M200.32 37.18h-7.17a3.08 3.08 0 0 0-3.07 3.07v4.1a3.08 3.08 0 0 0 3.07 3.07h7.17V37.18zm-5.12 6.14a1 1 0 1 1 0-2h2.05a1 1 0 1 1 0 2h-2.05zM199.38 54.43h2a3.08 3.08 0 0 0 3.07-3.07v-1.47a20.59 20.59 0 0 0-2-.28v1.75a1 1 0 0 1-1 1h-2v-2.89h-4.1l.08 6.46a2.05 2.05 0 1 0 4.1 0l-.15-1.5z"/>
        <path fill="#3CB0CB" fill-rule="nonzero" d="M223.81 35.85a1 1 0 0 0-1.45 0l-1.45 1.44a1.026 1.026 0 1 0 1.39 1.51l.06-.06 1.45-1.45a1 1 0 0 0 0-1.44zM223.81 47.44L222.36 46a1.026 1.026 0 0 0-1.51 1.39l.06.06 1.45 1.45a1.018 1.018 0 1 0 1.45-1.43v-.03zM227 42.36a1 1 0 0 0-1-1h-2.89a1 1 0 1 0 0 2H226a1 1 0 0 0 1-1zM32.64 222.63c3.92 5.89 9 9.4 11.37 7.83l2.87-1.89a1.29 1.29 0 0 0 .36-1.78l-2.36-3.56a1.29 1.29 0 0 0-1.78-.36l-2.1 1.42a17.76 17.76 0 0 1-6.61-10l2.14-1.42a1.29 1.29 0 0 0 .36-1.78l-2.37-3.56a1.27 1.27 0 0 0-1.77-.36l-2.9 1.9c-2.39 1.61-1.14 7.66 2.79 13.56z"/>
        <path fill="#1F282C" fill-rule="nonzero" d="M54.27 210.05h-15a1.1 1.1 0 0 1 0-2.2h15a1.1 1.1 0 0 1 0 2.2zM54.27 215.42H42.89a1.1 1.1 0 0 1 0-2.2h11.38a1.1 1.1 0 0 1 0 2.2zM54.27 220.76h-7.45a1.1 1.1 0 0 1 0-2.2h7.45a1.1 1.1 0 0 1 0 2.2zM54.27 226.16h-4.08a1.1 1.1 0 0 1 0-2.2h4.08a1.1 1.1 0 0 1 0 2.2zM218.09 208.21a3.76 3.76 0 0 1 2.58.92l-.5.74a3.24 3.24 0 0 0-2-.77 2.54 2.54 0 0 0-2.61 2.7 2.62 2.62 0 0 0 2.63 2.79 3.15 3.15 0 0 0 2.17-.92l.53.71a3.74 3.74 0 0 1-2.73 1.12 3.65 3.65 0 0 1 0-7.29h-.07zM221.77 210.32h.93V214c0-.09.28-.44.45-.68l2.18-3h.94v5.06h-.94v-3-.67a7.87 7.87 0 0 1-.44.67l-2.19 3h-.93v-5.06zM230 210.2a2.65 2.65 0 0 1 1.9.74l-.46.68a2.05 2.05 0 0 0-1.4-.58 1.73 1.73 0 0 0-1.76 1.8 1.75 1.75 0 0 0 1.79 1.82 2.26 2.26 0 0 0 1.56-.68l.39.71a2.84 2.84 0 0 1-2 .81 2.65 2.65 0 1 1 0-5.3H230zM234.22 211.15h-1.76v-.83H237v.83h-1.77v4.23h-1zM239.84 210.2a2.16 2.16 0 0 1 2.19 2.37 3 3 0 0 1 0 .41h-3.68a1.67 1.67 0 0 0 1.74 1.68 2.29 2.29 0 0 0 1.49-.59l.41.71a3 3 0 0 1-2 .72 2.59 2.59 0 0 1-2.69-2.65 2.49 2.49 0 0 1 2.54-2.65zm1.21 2.08a1.23 1.23 0 0 0-1.23-1.33 1.47 1.47 0 0 0-1.48 1.33h2.71zM243.33 210.32h1.08l1.29 2.86c.14.3.28.68.28.68l.28-.68 1.32-2.86h1.06l.44 5.06h-.94l-.22-3v-.87s-.13.35-.32.74l-1.2 2.53h-.83l-1.2-2.52-.32-.75v.87l-.22 3h-.94l.44-5.06zM250.3 210.32h1v1.83h1c1.05 0 1.84.48 1.84 1.63 0 .95-.58 1.6-1.85 1.6h-1.99v-5.06zm1.82 4.36c.7 0 1-.38 1-.91s-.31-.92-1-.92h-.84v1.83h.84zm2.76-4.36h1v5.06h-1v-5.06zM262 210.2a2.65 2.65 0 0 1 1.9.74l-.46.68a2.05 2.05 0 0 0-1.4-.58 1.73 1.73 0 0 0-1.76 1.8 1.75 1.75 0 0 0 1.79 1.82 2.26 2.26 0 0 0 1.56-.68l.39.71a2.84 2.84 0 0 1-2 .81 2.65 2.65 0 1 1 0-5.3H262zM267 208.82l1.81-.78.32.8-1.94.81a2.25 2.25 0 0 0-1.56 2 2 2 0 0 1 1.79-.9 2.12 2.12 0 0 1 2.15 2.33 2.29 2.29 0 0 1-2.39 2.4c-1.71 0-2.48-1.28-2.48-3a3.38 3.38 0 0 1 2.3-3.66zm.16 5.86a1.58 1.58 0 0 0 0-3.14 1.47 1.47 0 0 0-1.47 1.56 1.44 1.44 0 0 0 1.45 1.58h.02zM273.07 210.2a2.65 2.65 0 1 1-2.72 2.64 2.64 2.64 0 0 1 2.72-2.64zm0 4.46a1.81 1.81 0 1 0-1.74-1.82 1.75 1.75 0 0 0 1.75 1.82h-.01zM276.87 210.32h.9v.45c.01.126.01.254 0 .38a1.85 1.85 0 0 1 1.7-1c1.37 0 2.22 1.08 2.22 2.65a2.36 2.36 0 0 1-2.29 2.65 1.86 1.86 0 0 1-1.57-.86 2.24 2.24 0 0 1 0 .44v2.3h-1l.04-7.01zm2.37 4.34c.8 0 1.46-.65 1.46-1.8s-.59-1.81-1.43-1.81-1.46.54-1.46 1.82c0 .9.5 1.79 1.43 1.79zM285.38 212.23h.26v-.1a1 1 0 0 0-1.11-1.11 2.54 2.54 0 0 0-1.42.49l-.39-.71a3.22 3.22 0 0 1 1.89-.6 1.8 1.8 0 0 1 2 2v3.2h-.91v-.51a2.55 2.55 0 0 1 0-.4 1.87 1.87 0 0 1-1.66 1 1.56 1.56 0 0 1-1.69-1.5c.01-1.58 1.98-1.76 3.03-1.76zm-1.1 2.5a1.52 1.52 0 0 0 1.36-1.61v-.19h-.25c-.72 0-2.06.06-2.06 1a.85.85 0 0 0 .95.8zM217.13 222.2a2.65 2.65 0 0 1 1.9.74l-.46.68a2.05 2.05 0 0 0-1.4-.58 1.73 1.73 0 0 0-1.76 1.8 1.75 1.75 0 0 0 1.79 1.82 2.26 2.26 0 0 0 1.56-.68l.39.71a2.84 2.84 0 0 1-2 .81 2.65 2.65 0 1 1 0-5.3h-.02zM221.32 223.15h-1.76v-.83h4.49v.83h-1.77v4.23h-1zM227.45 224.23h.26v-.1a1 1 0 0 0-1.11-1.13 2.54 2.54 0 0 0-1.42.49l-.39-.71a3.22 3.22 0 0 1 1.89-.6 1.8 1.8 0 0 1 2 2v3.2h-.91v-.51a2.55 2.55 0 0 1 0-.4 1.87 1.87 0 0 1-1.66 1 1.56 1.56 0 0 1-1.69-1.5c.01-1.56 1.98-1.74 3.03-1.74zm-1.1 2.5a1.52 1.52 0 0 0 1.36-1.61v-.19h-.25c-.72 0-2.06.06-2.06 1a.85.85 0 0 0 .95.8zM231.16 223.15h-1.76v-.83h4.49v.83h-1.77v4.23h-1zM234.74 222.32h.93V226c0-.09.28-.44.45-.68l2.18-3h.94v5.06h-.94v-3-.67a7.87 7.87 0 0 1-.44.67l-2.19 3h-.93v-5.06zM243 222.2a2.65 2.65 0 0 1 1.9.74l-.46.68A2.05 2.05 0 0 0 243 223a1.73 1.73 0 0 0-1.76 1.8 1.75 1.75 0 0 0 1.79 1.82 2.26 2.26 0 0 0 1.56-.68l.39.71a2.84 2.84 0 0 1-2 .81 2.65 2.65 0 1 1 0-5.3l.02.04zM247.19 223.15h-1.76v-.83h4.49v.83h-1.77v4.23h-1zM250.77 222.32h.93V226c0-.09.28-.44.45-.68l2.18-3h.94v5.06h-.94v-3-.67a7.87 7.87 0 0 1-.44.67l-2.19 3h-.93v-5.06zM256.65 222.32h1v2h.71l1.38-2h1.1l-1.69 2.41 1.89 2.63h-1.15l-1.51-2.19h-.73v2.19h-1zM261.77 222.32h.93V226c0-.09.28-.44.45-.68l2.18-3h.94v5.06h-.94v-3-.67a7.87 7.87 0 0 1-.44.67l-2.19 3h-.93v-5.06zM267.87 226.33h1l-.87 2.06h-.77zM276 220.21a3.76 3.76 0 0 1 2.58.92l-.5.74a3.24 3.24 0 0 0-2-.77 2.54 2.54 0 0 0-2.61 2.7 2.62 2.62 0 0 0 2.63 2.79 3.15 3.15 0 0 0 2.17-.92l.53.71a3.74 3.74 0 0 1-2.8 1.12 3.65 3.65 0 0 1 0-7.29zM279.92 220.32h2.24a3.06 3.06 0 0 1 1.31.19 1.91 1.91 0 0 1 1.12 1.85 2 2 0 0 1-1.26 1.94c.075.101.142.208.2.32l1.5 2.74h-1.12l-1.49-2.81h-1.51v2.81h-1l.01-7.04zm2.41 3.39a1.2 1.2 0 0 0 1.26-1.3 1.13 1.13 0 0 0-.66-1.11 2 2 0 0 0-.85-.12h-1.17v2.53h1.42zM286.41 220.32h1l1.63 3.82c.16.39.34 1 .34 1s.19-.56.35-1l1.63-3.82h1l.57 7.06h-1l-.34-4.45a10.28 10.28 0 0 1 0-1s-.22.65-.38 1l-1.41 3.18h-.8l-1.4-3.18c-.16-.38-.38-1.06-.38-1.06v1.06l-.34 4.45h-1l.53-7.06z"/>
        <path fill="#F2FDFF" fill-rule="nonzero" stroke="#3DAFCC" stroke-width="1.5" d="M120.83 366.84h79.37v78.31h-79.37z"/>
        <path fill="#3CB0CB" fill-rule="nonzero" d="M139.74 419.53h1.11v5.12h2.62v-5.12h1.1v5.12h.72v2.14h-1v-1.19h-4.57zM148 421.13a1.89 1.89 0 0 1 2 2.07v.42h-3a1.23 1.23 0 0 0 1.3 1.16 2.07 2.07 0 0 0 1.25-.48l.43.77a2.74 2.74 0 0 1-1.75.63 2.24 2.24 0 0 1-2.35-2.28 2.16 2.16 0 0 1 2.12-2.29zm.84 1.75a.85.85 0 0 0-.84-.88 1 1 0 0 0-1.05.92l1.89-.04zM150.85 421.24h1.09v1.68h1.86v-1.68h1.08v4.36h-1.08v-1.76h-1.86v1.76h-1.09zM158.25 422.86h.18v-.06c0-.57-.36-.77-.82-.77a2.24 2.24 0 0 0-1.21.42l-.4-.78a3 3 0 0 1 1.71-.54 1.63 1.63 0 0 1 1.81 1.74v2.73h-1v-.37a1.7 1.7 0 0 1 0-.32 1.61 1.61 0 0 1-1.38.79 1.33 1.33 0 0 1-1.43-1.31c0-1.31 1.57-1.53 2.54-1.53zm-.81 2a1.11 1.11 0 0 0 1-1.15v-.12h-.19c-.54 0-1.46.08-1.46.7a.59.59 0 0 0 .65.58v-.01zM162.34 424.68c.54-.08.92-.53.92-2.07v-1.37h3.18v4.36h-1.09v-3.48h-1.06v.49c0 1.89-.5 3-1.95 3v-.93zM167.59 421.24h1v2.33a5 5 0 0 1 0 .52c0-.11.21-.35.32-.52l1.62-2.33h1.05v4.36h-1v-2.33-.52a5 5 0 0 1-.32.52l-1.62 2.33h-1l-.05-4.36zM172.83 424.72a4.94 4.94 0 0 0 .59-2.58v-.9h3.2v3.48h.62v1.9h-1v-1h-2.95v1h-1v-1.9h.54zm2.71 0v-2.61h-1.09v.2a4.89 4.89 0 0 1-.53 2.41h1.62zM180.23 422.86h.19v-.06a.72.72 0 0 0-.82-.77 2.27 2.27 0 0 0-1.22.42l-.4-.78a3 3 0 0 1 1.71-.54 1.62 1.62 0 0 1 1.81 1.74v2.73h-1v-.37a2.52 2.52 0 0 1 0-.32 1.58 1.58 0 0 1-1.37.79 1.33 1.33 0 0 1-1.44-1.31c0-1.31 1.58-1.53 2.54-1.53zm-.8 2a1.12 1.12 0 0 0 1-1.15v-.12h-.19c-.55 0-1.47.08-1.47.7a.59.59 0 0 0 .66.58v-.01zM153.75 429.78h2a2.71 2.71 0 0 1 1.14.16 1.66 1.66 0 0 1 1 1.65 1.75 1.75 0 0 1-1 1.66c.078.1.145.206.2.32l1.25 2.25h-1.24l-1.2-2.26h-1.06v2.26h-1.1l.01-6.04zm2.09 2.84a.9.9 0 0 0 1-1 .79.79 0 0 0-.48-.82 1.48 1.48 0 0 0-.66-.11h-.81v1.9l.95.03zM161.94 429.67a3 3 0 0 1 3.14 3.1 3.14 3.14 0 0 1-6.28 0 3 3 0 0 1 3.14-3.1zm0 5.27a2 2 0 0 0 2-2.17 2 2 0 0 0-4 0 2 2 0 0 0 2 2.17zM166.18 429.78h1.1v6.06h-1.1z"/>
        <path fill="#F2C400" fill-rule="nonzero" d="M172.69 396.55v-.14c1.73-1.22 2.74-2.72 2.74-4.37v-4.64c0-4.07-6.37-7.13-14.82-7.13s-14.82 3.07-14.82 7.13v1.25c-1.79 1.19-2.75 2.66-2.75 4.24v4.64c0 1.81 1.23 3.45 3.3 4.73v3.5c0 4.17 6.51 7.44 14.82 7.44s14.84-3.27 14.84-7.44v-4.64c0-1.74-1.17-3.31-3.31-4.57zm2.2 4.58c0 3.52-6.42 6.59-13.73 6.59h-1.22l-.81-.05h-.75c-4.48-.49-8.33-2.12-10-4.18l-.07-.08-.07-.1a19.12 19.12 0 0 0 2.51.87c2.44 1.6 6.24 2.52 10.45 2.52 7.44 0 12.63-2.89 12.63-5.47a3 3 0 0 0-1.35-2.21v-.12a1.54 1.54 0 0 1 0-.17 1.94 1.94 0 0 1 .05-.2v-.17-.43a4 4 0 0 1 2.25 3.24l.11-.04zm-11.46 7.6l.94-.1h.23l.91-.12v3.28c-.71.12-1.44.21-2.2.27v-3.3h.07l.05-.03zm3.21-.46h.08l.88-.19h.11l.57-.16v3.29c-.53.15-1.08.29-1.65.4v-3.34h.01zm2.74-.75h.21l.64-.26.19-.07v3.27c-.35.16-.72.3-1.1.43v-3.28l.06-.09zm2.2-.92l.27-.15.16-.09.64-.36v3.2a9.57 9.57 0 0 1-1.1.68v-3.25l.03-.03zm-22-.65c.34.22.71.43 1.09.65v3.25a9.45 9.45 0 0 1-1.09-.68V405.95zm-2.74-15.63c.12.153.25.303.39.45l.1.09c.12.13.25.25.39.38l.09.09.1.08v3.06a3.62 3.62 0 0 1-1.1-2.45v-1.7h.03zm2.85 2.31l.16.08.28.15v3.23a11.79 11.79 0 0 1-1.08-.64v-3.21c.217.146.444.276.68.39h-.04zm1.76.83l.64.26h.21V397c-.38-.13-.75-.28-1.1-.43v-3.27l.25.16zm2.66.87l.87.19h.09v3.29c-.57-.12-1.12-.25-1.65-.4v-3.24l.57.15.12.01zm3.2.57l.94.1h.12v3.29a22.05 22.05 0 0 1-2.2-.26v-3.29l.91.13.23.03zm3.25.19h1.1v3.28H159.47v-3.29h1.07l.02.01zm2.32-.1l.93-.09h.24l.9-.13V398l-.64.1-.32.05c-.41 0-.83.08-1.25.11V395h.14v-.01zm4.13-.67h.11l.57-.15v3.28l-.21.06-.37.1-.93.22h-.13v-3.28h.09l.86-.22.01-.01zm2-.61l.64-.26.18-.07v3.27c-.35.16-.72.3-1.1.43v-3.28h.09l.19-.09zm2.42-1.09l.64-.36v3.2a9.45 9.45 0 0 1-1.09.68v-3.26l.27-.14.18-.12zm-22.91 6.25l.18.08.64.25.13.05h.09v3.28c-.38-.14-.75-.28-1.1-.43v-3.27l.06.04zm2.84.94l.87.2h.09v3.28h-.1l-.87-.19-.68-.19v-3.29l.57.15.12.04zm3.2.57l.94.1h.12v3.3a10.13 10.13 0 0 1-1.12-.1l-.53-.07-.54-.09v-3.28l.9.13.23.01zm3.25.19H159v3.29H156.81v-3.25h1.09l-.09-.04zm3.76 3l-.39.05-.86.09h-.29v-3.3h.54l.54-.06a5.33 5.33 0 0 0 .79-.1l.33-.06v3.3h-.14l-.52.08zm2.16-3.7l.69-.16.52-.16v3.31c-.52.16-1.07.29-1.65.41V400l.44-.13zm2.31-.64h.11c.2-.07.41-.14.6-.22l.39-.17v3.31c-.35.15-.72.29-1.1.43v-3.35zm2.2 2.34v-3.17c.38-.11.75-.24 1.1-.36v2.84a10.7 10.7 0 0 1-1.06.69h-.04zm3.3-4.07c-.009.42-.1.835-.27 1.22l-.05.1a4.36 4.36 0 0 1-.64 1l-.1.12v-2.34c.38-.17.75-.35 1.1-.54v.44h-.04zm-25.26.18h.05c.206.136.42.26.64.37l.16.11.27.15v2.78h-.79l-.3-.21v-3.2h-.03zm5.49 9.38c.35.14.72.29 1.09.42v3.31c-.38-.13-.74-.28-1.09-.43v-3.3zm2.2.76c.53.15 1.07.29 1.64.41v3.29c-.56-.12-1.11-.26-1.64-.41v-3.29zm2.74.64h.26l.4.06.64.07.64.07h.35V412c-.75-.06-1.48-.15-2.19-.26v-3.29l-.1.01zm17.58-18.18v1.74a3.58 3.58 0 0 1-1.09 2.44v-3.06l.09-.08.1-.09.39-.37.1-.1a5.46 5.46 0 0 0 .39-.45l.02-.03zm-13.7-9c7.69 0 13.72 2.66 13.72 6s-6.37 6.72-13.68 6.72-13.73-3.07-13.73-6.59c-.02-3.41 6.04-6.07 13.73-6.07l-.04-.06zm-16.47 16.17v-1.74c.12.16.25.31.39.45l.1.1c.12.12.25.25.39.37l.09.09.11.14V400a3.65 3.65 0 0 1-1.11-2.44l.03-.11zm3.3 8.24V404c.322.409.687.78 1.09 1.11v3.07a3.62 3.62 0 0 1-1.12-2.45l.03-.04zm12.62 6.32v-3.3h2.2v3.34h-2.22l.02-.04zM174.9 404v1.74a3.6 3.6 0 0 1-1.09 2.44v-3.06l.09-.08.1-.09.39-.37.1-.1c.14-.147.27-.297.39-.45l.02-.03z"/>
        <path fill="#F2C400" fill-rule="nonzero" d="M153.8 392l4.09-1.48v-.06a2.85 2.85 0 0 1-1.75-1.85 1.26 1.26 0 0 1-.58-.49 1 1 0 0 1-.09-.78l.1-.34c.15-.396.47-.704.87-.84a3.25 3.25 0 0 1 .56-.76l.24-.23a2.29 2.29 0 0 1 0-.37.66.66 0 0 1 1-.48c.103.073.218.127.34.16a4.32 4.32 0 0 0 1.56.19h.28c1.35 0 3.21.17 4 1.54.406.137.729.45.88.85l.1.34a1 1 0 0 1-.09.78 1.28 1.28 0 0 1-.58.5 2.88 2.88 0 0 1-1.73 1.82v.06l4.12 1.54c3.74-1 6.06-2.9 6.06-4.62 0-2.43-4.73-4.94-12.63-4.94S148 385.05 148 387.48c0 1.62 2.2 3.43 5.8 4.52z"/>
    </g>
</svg>
