<svg xmlns="http://www.w3.org/2000/svg" width="1005" height="322" viewBox="0 0 1005 322">
    <g fill="none" fill-rule="evenodd">
        <path fill="#FFF" d="M286.189 162.124H172.278c-19.246 0-34.85-15.6-34.85-34.841V80.079h2.249v47.204c0 18 14.596 32.593 32.6 32.593H286.19v2.248z"/>
        <path fill="#FFF" fill-rule="nonzero" d="M139.677 243.045h-2.248v-48.328c0-19.241 15.603-34.84 34.849-34.84h113.91v2.247h-113.91c-18.005 0-32.601 14.593-32.601 32.593v48.328zm325.445 40.944h-2.249v-48.328c0-18-14.596-32.593-32.6-32.593H316.36v-2.248h113.912c19.245 0 34.849 15.6 34.849 34.841v48.328zm-34.85-162.865h-113.91v-2.248h113.91c18.006 0 32.601-14.593 32.601-32.593V37.954h2.249v48.329c0 19.24-15.604 34.84-34.85 34.84zm190.906-24.187V49.733h-2.249v47.204a34.656 34.656 0 0 0 7.105 21.051c.569-.486 1.15-.959 1.743-1.416a32.42 32.42 0 0 1-6.6-19.635zm-2.249 128.126v47.204h2.249v-47.204a32.432 32.432 0 0 1 7.33-20.556c-.658-.366-1.31-.74-1.957-1.124a34.657 34.657 0 0 0-7.622 21.68zm235.714-62.94v-2.247h-151.2c-.09.753-.213 1.506-.336 2.248h151.536zm-373.019-2.247v2.248h128.458a37.335 37.335 0 0 1-.337-2.248H481.591h.033z"/>
        <path fill="#F1FAFC" d="M1.405 1.18h274.296v82.832H1.405z"/>
        <path fill="#3CB0CB" fill-rule="nonzero" d="M276.825 85.136H.28V.056h276.544v85.08zM2.529 82.888h272.047V2.304H2.53v80.584z"/>
        <path fill="#F1FAFC" d="M1.405 237.988h274.296v82.832H1.405z"/>
        <path fill="#3CB0CB" fill-rule="nonzero" d="M276.825 321.944H.28v-85.08h276.544v85.08zM2.529 319.696h272.047v-80.584H2.53v80.584z"/>
        <path fill="#F1FAFC" d="M419.57 1.18h274.296v82.832H419.57z"/>
        <path fill="#3CB0CB" fill-rule="nonzero" d="M694.99 85.136H418.446V.056H694.99v85.08zm-274.295-2.248h272.047V2.304H420.695v80.584z"/>
        <path fill="#F1FAFC" d="M419.57 234.515h274.296v82.832H419.57z"/>
        <path fill="#3CB0CB" fill-rule="nonzero" d="M694.99 318.47H418.446v-85.079H694.99v85.08zm-274.295-2.247h272.047V235.64H420.695v80.584z"/>
        <path fill="#1F282C" d="M684.412 176.813c10.898-13.266 10.898-32.386 0-45.653l-22.832 22.827 22.832 22.826z"/>
        <path fill="#FFF" fill-rule="nonzero" d="M679.42 181.804l-22.831-22.827-22.832 22.827-7.487 7.485c17.44 14.97 43.198 14.97 60.637 0l-7.487-7.485zm-22.91-11.633l9.42 9.475h-18.818l9.398-9.475z"/>
        <path fill="#1F282C" fill-rule="nonzero" d="M656.589 118.01a35.974 35.974 0 0 0-32.552 20.586 35.959 35.959 0 0 0 4.729 38.217l50.654-50.654a35.843 35.843 0 0 0-22.831-8.171v.022zM102.625 20.376h12.5v15.87h-2.248V22.31h-8.049v13.936h-2.248v-15.87h.045zm21.437 4.226a5.957 5.957 0 1 1-6.115 5.935 5.934 5.934 0 0 1 6.115-5.935zm0 10.026a4.07 4.07 0 1 0-3.912-4.091 3.944 3.944 0 0 0 3.935 4.09h-.023zm8.758-9.756h2.08v6.744c0 .606 0 1.416-.068 1.528.09-.202.63-.989 1.012-1.528l4.901-6.744h2.113v11.374h-2.113v-6.743c0-.54.067-1.327.067-1.506a17.87 17.87 0 0 1-.966 1.506l-4.947 6.743h-2.09V24.872h.01zm18.807-.27a5.959 5.959 0 0 1 4.272 1.664l-1.035 1.528a4.61 4.61 0 0 0-3.147-1.303 3.89 3.89 0 0 0-3.957 4.046 3.944 3.944 0 0 0 4.002 4.09 5.082 5.082 0 0 0 3.507-1.528l.877 1.596a6.375 6.375 0 0 1-4.497 1.82 5.958 5.958 0 0 1-5.176-8.925 5.958 5.958 0 0 1 5.154-2.988zm6.88.27h2.248v4.63h1.596l3.103-4.585h2.473l-3.8 5.372 4.205 5.957h-2.586l-3.372-4.923h-1.619v4.923h-2.248V24.872zm16.66-.27a5.957 5.957 0 1 1-6.116 5.935 5.934 5.934 0 0 1 6.116-5.935zm0 10.026a4.07 4.07 0 1 0-3.912-4.091 3.944 3.944 0 0 0 3.934 4.09h-.022zm8.757-9.756h4.699c2.248 0 3.8 1.012 3.8 2.922a2.641 2.641 0 0 1-1.62 2.495 2.675 2.675 0 0 1 2.16 2.698c0 2.113-1.71 3.237-4.183 3.237h-4.856V24.872zm4.317 4.81a1.675 1.675 0 0 0 1.956-1.73c0-1.034-.652-1.574-2.024-1.574h-2.068v3.304h2.136zm.202 5.036c1.574 0 2.316-.72 2.316-1.776 0-1.057-.832-1.798-2.338-1.798h-2.316v3.574h2.338zm13.018-5.553h.584v-.224a2.248 2.248 0 0 0-2.495-2.495 5.7 5.7 0 0 0-3.193 1.123l-.877-1.595a7.252 7.252 0 0 1 4.25-1.35c2.855 0 4.496 1.574 4.496 4.496v7.126h-2.046v-1.124c0-.301.023-.601.068-.899a4.193 4.193 0 0 1-3.732 2.315 3.508 3.508 0 0 1-3.8-3.371c-.045-3.597 4.384-4.002 6.745-4.002zm-2.473 5.62c1.91 0 3.057-1.933 3.057-3.619v-.427h-.562c-1.618 0-4.631.135-4.631 2.248a1.922 1.922 0 0 0 2.125 1.798h.01zm9.937-2.315c.152-.248.326-.48.517-.697a3.372 3.372 0 0 1-2.473-3.304c0-2.338 1.664-3.574 4.07-3.574h4.496v11.351h-2.18v-4.113h-1.912l-2.742 4.113h-2.406l2.63-3.776zm4.497-1.933v-4.159h-1.821c-1.462 0-2.406.585-2.406 2.046a2.068 2.068 0 0 0 2.338 2.113h1.889zm-105.817 21.04a5.957 5.957 0 1 1-6.116 5.933 5.934 5.934 0 0 1 6.116-5.934zm0 10.024a4.07 4.07 0 1 0-3.912-4.09 3.944 3.944 0 0 0 3.934 4.09h-.022zm8.757-9.755h9.937V63.22h-2.18v-9.508h-5.621v9.508h-2.181V51.846h.045zm16.053 1.866h-3.957v-1.866h10.117v1.866h-3.98v9.508h-2.158v-9.508h-.022zm8.274-1.866h2.08v6.743c0 .607 0 1.417-.068 1.529.09-.202.63-.99 1.012-1.529l4.901-6.743h2.114V63.22h-2.114v-6.744c0-.539.068-1.326.068-1.506a17.87 17.87 0 0 1-.967 1.506l-4.947 6.744h-2.09V51.846h.01zm13.962 0h2.428l2.9 6.429c.315.674.63 1.528.63 1.528s.337-.831.63-1.528l2.967-6.43h2.383l1.046 11.375h-2.114l-.494-6.744v-1.955s-.292.787-.72 1.663l-2.698 5.687h-1.866l-2.698-5.62-.787-1.753s.068 1.282 0 1.956l-.494 6.743h-2.114l1-11.351zm15.895 0h2.091v6.743c0 .607 0 1.417-.067 1.529.09-.202.63-.99 1.012-1.529l4.901-6.743h2.113V63.22h-2.113v-6.744c0-.539.068-1.326.068-1.506a17.87 17.87 0 0 1-.934 1.506l-4.923 6.744h-2.091V51.846h-.057zm13.356 8.542a4.295 4.295 0 0 0 2.967 1.348c1.304 0 2.361-.63 2.361-1.865 0-1.237-.742-1.731-2.338-1.731h-1.405v-1.574h1.191c1.282 0 2.159-.494 2.159-1.64 0-1.147-.765-1.641-2.024-1.641-1.006.01-1.98.359-2.765.989l-.81-1.462a6.465 6.465 0 0 1 3.957-1.236c2.159 0 3.845 1.057 3.845 3.08a2.619 2.619 0 0 1-1.664 2.585 2.686 2.686 0 0 1 2.046 2.675c0 2.337-2.023 3.529-4.362 3.529a6.139 6.139 0 0 1-4.181-1.664l1.023-1.393zm16.008-4.249h.584v-.225a2.248 2.248 0 0 0-2.496-2.495 5.7 5.7 0 0 0-3.192 1.124l-.877-1.596a7.252 7.252 0 0 1 4.25-1.348c2.855 0 4.496 1.573 4.496 4.495v7.126h-2.046v-1.124c0-.301.023-.601.067-.9a4.193 4.193 0 0 1-3.732 2.316 3.508 3.508 0 0 1-3.8-3.372c-.044-3.596 4.385-4 6.746-4zm-2.474 5.62c1.911 0 3.058-1.933 3.058-3.62v-.426h-.562c-1.619 0-4.631.135-4.631 2.248a1.922 1.922 0 0 0 2.135 1.798zm8.454-9.913h2.181v9.486h5.418v-9.486h2.249v9.486h1.596v4.585h-2V63.22h-9.399V51.846h-.045zm13.715 0h2.09v6.743c0 .607 0 1.417-.067 1.529.09-.202.63-.99 1.012-1.529l4.901-6.743h2.114V63.22h-2.114v-6.744c0-.539.068-1.326.068-1.506a17.87 17.87 0 0 1-.99 1.506l-4.923 6.744h-2.091V51.846zm14.929 7.598c.151-.248.326-.48.517-.697a3.372 3.372 0 0 1-2.473-3.305c0-2.337 1.663-3.574 4.07-3.574h4.496V63.22h-2.181v-4.114h-1.911l-2.743 4.114h-2.406l2.63-3.776zm4.496-1.934v-4.158h-1.832c-1.461 0-2.406.584-2.406 2.045a2.068 2.068 0 0 0 2.339 2.113h1.9zm273.014-25.445a5.318 5.318 0 0 0 3.732 1.664c1.934 0 3.305-1.124 3.305-2.878a2.64 2.64 0 0 0-2.967-2.63h-1.956v-1.843h1.573a2.653 2.653 0 0 0 2.856-2.562 2.472 2.472 0 0 0-2.81-2.54 5.43 5.43 0 0 0-3.553 1.348l-.956-1.663a7.263 7.263 0 0 1 4.812-1.641c2.72 0 4.766 1.573 4.766 4.226a3.855 3.855 0 0 1-2.248 3.574 3.754 3.754 0 0 1 2.788 3.799c0 2.944-2.406 4.765-5.396 4.765a7.094 7.094 0 0 1-5.149-2.158l1.203-1.46zm12.107-7.98h4.7c2.248 0 3.799 1.012 3.799 2.923a2.641 2.641 0 0 1-1.608 2.495 2.675 2.675 0 0 1 2.159 2.697c0 2.113-1.709 3.237-4.182 3.237h-4.856V24.085h-.012zm4.317 4.81a1.675 1.675 0 0 0 1.956-1.73c0-1.034-.652-1.574-2.023-1.574h-2.069v3.305h2.136zm.202 5.036c1.574 0 2.316-.72 2.316-1.776s-.832-1.798-2.338-1.798h-2.316v3.574h2.338zm12.557-10.115a5.957 5.957 0 1 1-6.126 5.934 5.934 5.934 0 0 1 6.126-5.934zm0 10.025a4.07 4.07 0 1 0-3.878-4.091 3.944 3.944 0 0 0 3.9 4.09h-.022zm8.758-9.756h2.18v4.63h5.756v-4.63h2.181V35.46h-2.18v-4.832h-5.757v4.832h-2.18V24.085zm13.49 0h2.18v4.586h1.597l3.102-4.586h2.474l-3.789 5.418 4.283 5.956h-2.585l-3.373-4.922h-1.641v4.922h-2.181V24.085h-.068zm11.736 0h2.09v6.744c0 .607 0 1.416-.067 1.528.09-.202.63-.989 1.012-1.528l4.901-6.744h2.114V35.46h-2.114v-6.743c0-.54.068-1.326.068-1.506a17.87 17.87 0 0 1-.99 1.506l-4.923 6.743h-2.091V24.085zm13.94 9.014h2.248l-1.956 4.63h-1.732l1.44-4.63zm11.151-.472a4.295 4.295 0 0 0 2.968 1.349c1.304 0 2.36-.63 2.36-1.866 0-1.236-.741-1.73-2.338-1.73h-1.394v-1.574h1.192c1.281 0 2.158-.495 2.158-1.641 0-1.147-.764-1.641-2.023-1.641-1.007.01-1.98.36-2.766.989l-.809-1.506a6.465 6.465 0 0 1 3.957-1.236c2.158 0 3.845 1.056 3.845 3.08a2.619 2.619 0 0 1-1.664 2.584 2.686 2.686 0 0 1 2.046 2.675c0 2.338-2.024 3.53-4.362 3.53a6.139 6.139 0 0 1-4.182-1.664l1.012-1.349zm16.008-4.248h.585v-.225a2.248 2.248 0 0 0-2.496-2.495 5.7 5.7 0 0 0-3.193 1.124l-.876-1.596a7.252 7.252 0 0 1 4.249-1.349c2.855 0 4.497 1.574 4.497 4.496v7.193h-2.046v-1.124c0-.301.022-.601.067-.9a4.193 4.193 0 0 1-3.732 2.316 3.508 3.508 0 0 1-3.8-3.372c-.045-3.664 4.384-4.068 6.745-4.068zm-2.518 5.62c1.911 0 3.058-1.934 3.058-3.62v-.427h-.562c-1.62 0-4.632.135-4.632 2.248a1.922 1.922 0 0 0 2.136 1.798zm9.982-2.316c.152-.247.327-.48.518-.697a3.372 3.372 0 0 1-2.474-3.304c0-2.338 1.664-3.574 4.07-3.574h4.497v11.351h-2.181v-4.113h-1.911l-2.788 4.113h-2.406l2.675-3.776zm4.497-1.933V25.59h-1.821c-1.461 0-2.406.585-2.406 2.046a2.068 2.068 0 0 0 2.339 2.113h1.888zm5.531-5.665h4.721c2.249 0 3.8 1.012 3.8 2.923a2.641 2.641 0 0 1-1.641 2.495 2.675 2.675 0 0 1 2.158 2.697c0 2.113-1.708 3.237-4.182 3.237h-4.856V24.085zm4.317 4.81a1.675 1.675 0 0 0 1.956-1.73c0-1.034-.652-1.574-2.024-1.574h-2.068v3.305h2.136zm.202 5.036c1.574 0 2.316-.72 2.316-1.776s-.832-1.798-2.338-1.798h-2.316v3.574h2.338zm7.172-9.846h2.181v4.586h1.596l3.103-4.586h2.473l-3.8 5.418 4.25 5.911h-2.586l-3.372-4.922h-1.641v4.967h-2.204V24.085zm11.737 0h2.09v6.744c0 .607 0 1.416-.067 1.528.09-.202.63-.989 1.012-1.528l4.901-6.744h2.114V35.46h-2.114v-6.743c0-.54.068-1.326.068-1.506a17.87 17.87 0 0 1-.99 1.506l-4.924 6.743h-2.09V24.085zm13.894 9.014h2.248l-1.956 4.63h-1.64l1.348-4.63zM511.167 54.77v-3.71h2.136v3.372c0 1.124.405 2.135 2.249 2.135a4.497 4.497 0 0 0 2.518-.809v-4.72h2.18v11.396h-2.18v-4.788c-.94.534-2 .82-3.08.832-2.429 0-3.823-1.281-3.823-3.709zm18.313.584h.584v-.225a2.248 2.248 0 0 0-2.495-2.495 5.7 5.7 0 0 0-3.193 1.124l-.877-1.596a7.252 7.252 0 0 1 4.25-1.35c2.855 0 4.496 1.574 4.496 4.497V62.5H530.2v-1.124c0-.302.023-.602.068-.9a4.193 4.193 0 0 1-3.732 2.316 3.508 3.508 0 0 1-3.8-3.372c0-3.664 4.395-4.068 6.745-4.068zm-2.473 5.62c1.91 0 3.057-1.934 3.057-3.62v-.427h-.584c-1.619 0-4.632.135-4.632 2.248a1.922 1.922 0 0 0 2.17 1.798h-.011zm11.05-8.048h-3.968v-1.866h10.117v1.866h-3.98v9.508h-2.158v-9.508h-.01zm8.285-1.866h2.181v4.114h2.248c2.361 0 4.137 1.124 4.137 3.664 0 2.135-1.304 3.596-4.159 3.596h-4.407V51.06zm4.092 9.8a1.945 1.945 0 0 0 2.249-2.045 1.967 1.967 0 0 0-2.249-2.068h-1.888v4.114h1.91-.022zm6.206-9.8h2.18v11.374h-2.18V51.06zm6.025 9.014h2.248l-1.956 4.63h-1.73l1.438-4.63zm11.152-.472a4.295 4.295 0 0 0 2.968 1.349c1.304 0 2.36-.63 2.36-1.866 0-1.236-.742-1.73-2.338-1.73h-1.394V55.78h1.192c1.281 0 2.158-.495 2.158-1.641 0-1.147-.764-1.641-2.023-1.641-1.007.01-1.98.359-2.766.989l-.81-1.506a6.465 6.465 0 0 1 3.958-1.236c2.158 0 3.844 1.056 3.844 3.079a2.619 2.619 0 0 1-1.663 2.585 2.686 2.686 0 0 1 2.046 2.675c0 2.338-2.024 3.529-4.362 3.529a6.139 6.139 0 0 1-4.182-1.663l1.012-1.35zm16.008-4.248h.584v-.225a2.248 2.248 0 0 0-2.473-2.495 5.7 5.7 0 0 0-3.192 1.124l-.877-1.596a7.252 7.252 0 0 1 4.25-1.35c2.854 0 4.496 1.574 4.496 4.497V62.5h-2.046v-1.124c0-.302.022-.602.067-.9a4.193 4.193 0 0 1-3.822 2.226 3.508 3.508 0 0 1-3.8-3.372c.023-3.574 4.452-3.978 6.813-3.978zm-2.473 5.62c1.91 0 3.057-1.934 3.057-3.62v-.427h-.562c-1.618 0-4.631.135-4.631 2.248a1.922 1.922 0 0 0 2.136 1.798zm8.453-9.914h2.181v4.586h1.597l3.102-4.586h2.473l-3.8 5.417 4.25 5.912h-2.586l-3.372-4.923h-1.641v4.968h-2.204V51.06zm17.47 4.294h.584v-.225a2.248 2.248 0 0 0-2.495-2.495 5.7 5.7 0 0 0-3.193 1.124l-.877-1.596a7.252 7.252 0 0 1 4.25-1.35c2.855 0 4.496 1.574 4.496 4.497V62.5h-2.046v-1.124c0-.302.023-.602.068-.9a4.193 4.193 0 0 1-3.732 2.316 3.508 3.508 0 0 1-3.8-3.372c-.045-3.664 4.384-4.068 6.745-4.068zm-2.473 5.62c1.91 0 3.057-1.934 3.057-3.62v-.427h-.562c-1.618 0-4.631.135-4.631 2.248a1.922 1.922 0 0 0 2.136 1.798zm8.363-1.372a4.295 4.295 0 0 0 2.968 1.349c1.304 0 2.361-.63 2.361-1.866 0-1.236-.742-1.73-2.338-1.73h-1.394V55.78h1.191c1.282 0 2.159-.495 2.159-1.641 0-1.147-.765-1.641-2.024-1.641-1.006.01-1.98.359-2.765.989l-.81-1.506a6.465 6.465 0 0 1 3.957-1.236c2.159 0 3.845 1.056 3.845 3.079a2.619 2.619 0 0 1-1.664 2.585 2.686 2.686 0 0 1 2.046 2.675c0 2.338-2.023 3.529-4.361 3.529a6.139 6.139 0 0 1-4.182-1.663l1.011-1.35zm10.163-8.542h2.18v4.114h2.249c2.36 0 4.137 1.124 4.137 3.664 0 2.135-1.304 3.596-4.16 3.596h-4.384V51.06h-.022zm4.092 9.8a1.945 1.945 0 0 0 2.248-2.045 1.967 1.967 0 0 0-2.248-2.068h-1.889v4.114h1.911-.022zm6.228-9.8h2.18v11.374h-2.18V51.06zM76.342 41.135v-7.002l-3.53-.348a19.767 19.767 0 0 0-2.99-7.205l2.248-2.742-4.958-4.956-2.743 2.247a19.776 19.776 0 0 0-7.205-2.99l-.349-3.528H49.8l-.337 3.518a19.776 19.776 0 0 0-7.206 2.99l-2.743-2.249-4.957 4.957 2.248 2.742a19.767 19.767 0 0 0-2.99 7.204l-3.53.349v7.002l3.53.348a19.767 19.767 0 0 0 2.99 7.205l-2.248 2.742 4.957 4.956 2.743-2.248a19.776 19.776 0 0 0 7.206 3.013l.349 3.529h7.003l.349-3.53a19.776 19.776 0 0 0 7.205-2.99l2.743 2.249 4.958-4.957-2.248-2.742a19.767 19.767 0 0 0 2.99-7.204l3.53-.36zM53.308 52.7c-8.32 0-15.064-6.743-15.064-15.06s6.745-15.06 15.064-15.06c8.319 0 15.063 6.743 15.063 15.06S61.627 52.7 53.308 52.7z"/>
        <ellipse cx="53.308" cy="37.628" fill="#1F282C" rx="3.507" ry="3.507"/>
        <path fill="#3CB0CB" fill-rule="nonzero" d="M53.308 25.794c-6.53.031-11.802 5.343-11.781 11.872.02 6.53 5.326 11.807 11.856 11.797 6.53-.011 11.818-5.306 11.818-11.835a11.833 11.833 0 0 0-11.893-11.834zm0 19.106a7.295 7.295 0 1 1 0-14.588 7.295 7.295 0 0 1 7.296 7.294 7.293 7.293 0 0 1-7.296 7.317V44.9zm-22.652 8.407l-8.892 8.89a4.933 4.933 0 0 0 0 6.957 4.936 4.936 0 0 0 6.958 0l8.892-8.89c.14-.13.27-.27.394-.416l-6.914-6.912c-.153.115-.3.239-.438.371z"/>
        <path fill="#F1FAFC" d="M849.596 84.012h153.999v153.965H849.596z"/>
        <path fill="#3CB0CB" fill-rule="nonzero" d="M1004.719 239.112H848.461V82.888h156.258v156.224zm-154.01-2.248h151.762V85.136H850.709v151.728zM445.336 50.16c7.993 12.026 18.38 19.185 23.192 15.993l5.868-3.866a2.618 2.618 0 0 0 .73-3.63l-4.822-7.26a2.62 2.62 0 0 0-3.631-.731l-4.362 2.9a36.29 36.29 0 0 1-13.49-20.332l4.362-2.9a2.618 2.618 0 0 0 .73-3.63l-4.822-7.26a2.62 2.62 0 0 0-3.63-.73l-5.914 3.877c-4.789 3.191-2.248 15.543 5.79 27.57z"/>
        <path fill="#1F282C" fill-rule="nonzero" d="M489.482 24.501H458.95a2.248 2.248 0 1 1 0-4.495h30.521a2.248 2.248 0 1 1 .011 4.495zm0 10.958h-23.236a2.248 2.248 0 1 1 0-4.495h23.236a2.248 2.248 0 1 1 0 4.495zm0 10.902h-15.22a2.248 2.248 0 1 1 0-4.495h15.22a2.248 2.248 0 1 1 0 4.495zm0 11.015h-8.341a2.248 2.248 0 1 1 0-4.496h8.341a2.248 2.248 0 1 1 0 4.496z"/>
        <path fill="#F1FAFC" d="M210.488 119.584h274.295v82.832H210.488z"/>
        <path fill="#3CB0CB" fill-rule="nonzero" d="M485.907 203.54H209.364v-85.08h276.543v85.08zm-274.295-2.248H483.66v-80.584H211.612v80.584z"/>
        <path fill="#1F282C" fill-rule="nonzero" d="M356.831 152.009a8.466 8.466 0 0 1 5.8 2.09l-1.123 1.664a7.274 7.274 0 0 0-4.587-1.731 5.711 5.711 0 0 0-5.868 6.069c0 3.372 2.248 6.271 5.913 6.271a7.072 7.072 0 0 0 4.879-2.068l1.192 1.596a8.41 8.41 0 0 1-6.138 2.518 8.206 8.206 0 1 1-.068-16.41zM371.288 161h.584v-.225a2.248 2.248 0 0 0-2.495-2.495 5.7 5.7 0 0 0-3.193 1.124l-.832-1.562a7.252 7.252 0 0 1 4.25-1.349c2.855 0 4.496 1.574 4.496 4.496v7.193h-2.046v-1.124c0-.301.023-.601.068-.9a4.193 4.193 0 0 1-3.732 2.316 3.508 3.508 0 0 1-3.8-3.372c-.09-3.641 4.34-4.102 6.7-4.102zm-2.473 5.62c1.91 0 3.057-1.934 3.057-3.62v-.427h-.562c-1.618 0-4.631.135-4.631 2.248a1.922 1.922 0 0 0 2.136 1.799zm8.453-9.857h2.091v6.743c0 .607 0 1.416-.067 1.529.09-.202.63-.99 1.012-1.529l4.901-6.743h2.113v11.374h-2.068v-6.744c0-.54.067-1.326.067-1.506a17.87 17.87 0 0 1-.989 1.506l-4.924 6.744h-2.136v-11.374zm1.687-4.181v-.337h1.753v.314a1.472 1.472 0 0 0 1.574 1.484 1.495 1.495 0 0 0 1.597-1.506v-.292h1.708v.337a3.372 3.372 0 0 1-6.632 0zm14.501 6.047H389.5v-1.866h10.118v1.866h-3.98v9.508h-2.18v-9.508zm-274.183 112.03h5.824a4.722 4.722 0 0 1 4.968 4.969 4.776 4.776 0 0 1-4.968 5.035h-3.598v5.866h-2.248v-15.87h.022zm5.464 8.07a2.878 2.878 0 0 0 3.08-3.101 2.832 2.832 0 0 0-3.058-3.035h-3.26v6.136h3.283-.045zm12.343-3.843c3.215 0 4.924 2.405 4.924 5.327-.01.309-.04.617-.09.922h-8.274a3.753 3.753 0 0 0 3.912 3.776 5.15 5.15 0 0 0 3.373-1.326l.922 1.596a6.813 6.813 0 0 1-4.407 1.618 5.813 5.813 0 0 1-6.048-5.957 5.619 5.619 0 0 1 5.688-5.956zm2.72 4.675a2.764 2.764 0 0 0-2.765-2.99 3.305 3.305 0 0 0-3.372 2.99h6.138zm4.835-4.406h2.18v4.586h1.574l3.103-4.586h2.518l-3.8 5.418 4.25 5.911h-2.586l-3.372-4.922h-1.687v4.922h-2.18v-11.329zm10.5 9.542c1.663-.247 2.562-1.91 2.562-6.024v-3.506h7.622v11.374h-2.18v-9.576h-3.373v1.708c0 5.148-1.304 7.8-4.654 7.98v-1.956h.022zm19.402-5.237h.585v-.225a2.248 2.248 0 0 0-2.496-2.495 5.7 5.7 0 0 0-3.192 1.124l-.877-1.596a7.252 7.252 0 0 1 4.249-1.349c2.855 0 4.497 1.574 4.497 4.496v7.193h-2.046v-1.124c0-.301.022-.601.067-.899a4.193 4.193 0 0 1-3.732 2.315 3.508 3.508 0 0 1-3.8-3.371c-.045-3.676 4.385-4.069 6.745-4.069zm-2.473 5.62c1.911 0 3.058-1.934 3.058-3.62v-.426h-.562c-1.62 0-4.632.134-4.632 2.247a1.922 1.922 0 0 0 2.136 1.799zm8.926-9.925h2.428l2.9 6.43c.315.674.63 1.528.63 1.528s.337-.832.63-1.529l2.967-6.429h2.384l.989 11.374h-2.024l-.494-6.743v-1.956s-.293.787-.72 1.664l-2.698 5.687h-1.866l-2.698-5.62-.72-1.686s.068 1.282 0 1.956l-.494 6.743h-2.113l.899-11.419zm21.786 4.305h.585v-.225a2.248 2.248 0 0 0-2.496-2.495 5.7 5.7 0 0 0-3.193 1.124l-.876-1.596a7.252 7.252 0 0 1 4.249-1.349c2.855 0 4.497 1.574 4.497 4.496v7.193h-2.069v-1.124c0-.301.023-.601.068-.899a4.193 4.193 0 0 1-3.733 2.315 3.508 3.508 0 0 1-3.8-3.371c-.022-3.676 4.407-4.069 6.768-4.069zm-2.473 5.62c1.911 0 3.058-1.934 3.058-3.62v-.426h-.562c-1.62 0-4.632.134-4.632 2.247a1.922 1.922 0 0 0 2.136 1.799zm306.514-31.638a8.466 8.466 0 0 1 5.8 2.09l-1.124 1.663a7.274 7.274 0 0 0-4.586-1.73 5.711 5.711 0 0 0-5.868 6.069c0 3.371 2.248 6.271 5.913 6.271a7.072 7.072 0 0 0 4.879-2.068l1.191 1.596a8.41 8.41 0 0 1-6.138 2.518 8.206 8.206 0 1 1-.067-16.41zm8.487 4.765h2.091v6.743c0 .607 0 1.416-.067 1.529.09-.202.63-.99 1.011-1.529l4.902-6.743h2.113v11.374h-2.057v-6.744c0-.54.067-1.326.067-1.506a17.87 17.87 0 0 1-.989 1.506l-4.924 6.744h-2.09v-11.374h-.057zm18.807-.27a5.959 5.959 0 0 1 4.272 1.664l-1.034 1.528a4.61 4.61 0 0 0-3.148-1.304 3.89 3.89 0 0 0-3.957 4.046 3.944 3.944 0 0 0 4.025 4.091 5.082 5.082 0 0 0 3.507-1.528l.877 1.596a6.375 6.375 0 0 1-4.497 1.82 5.958 5.958 0 0 1-5.193-8.915 5.958 5.958 0 0 1 5.148-2.998zm9.646 2.136H539.8v-1.866h10.117v1.866h-3.98v9.508h-2.18v-9.508zm12.86-2.136c3.215 0 4.924 2.405 4.924 5.328-.01.308-.04.616-.09.921h-8.274a3.753 3.753 0 0 0 3.912 3.776 5.15 5.15 0 0 0 3.373-1.326l.922 1.596a6.813 6.813 0 0 1-4.407 1.619 5.813 5.813 0 0 1-6.048-5.957 5.619 5.619 0 0 1 5.688-5.957zm2.72 4.676a2.764 2.764 0 0 0-2.765-2.99 3.305 3.305 0 0 0-3.372 2.99h6.138zm5.34-4.406h2.429l2.9 6.429c.315.674.63 1.528.63 1.528s.337-.832.629-1.528l2.968-6.43h2.462l.989 11.375h-2.114l-.494-6.744v-1.955s-.292.787-.72 1.663l-2.698 5.687h-1.866l-2.698-5.62-.72-1.685s.068 1.281 0 1.955l-.494 6.744h-2.113l.91-11.42zm15.896 0h2.18v4.113h2.25c2.36 0 4.136 1.124 4.136 3.664 0 2.136-1.304 3.597-4.16 3.597h-4.384v-11.374h-.022zm4.092 9.8a1.945 1.945 0 0 0 2.248-2.045 1.967 1.967 0 0 0-2.248-2.068h-1.889v4.113h1.911-.022zm6.205-9.8h2.181v11.374h-2.18v-11.374zm16.537-.27a5.959 5.959 0 0 1 4.272 1.664l-1.035 1.528a4.61 4.61 0 0 0-3.147-1.304 3.89 3.89 0 0 0-3.957 4.046 3.944 3.944 0 0 0 4.024 4.091 5.082 5.082 0 0 0 3.507-1.528l.877 1.596a6.375 6.375 0 0 1-4.496 1.82 5.957 5.957 0 1 1-.045-11.913zm11.354-3.102l4.07-1.753.719 1.798-4.362 1.82c-2.248 1.035-3.373 2.361-3.507 4.497a4.497 4.497 0 0 1 4.024-2.024c2.855 0 4.834 2.024 4.834 5.238a5.136 5.136 0 0 1-5.374 5.395c-3.844 0-5.62-2.878-5.62-6.811 0-3.934 1.247-6.463 5.216-8.16zm.36 13.172a3.54 3.54 0 0 0 .09-7.058 3.305 3.305 0 0 0-3.306 3.507 3.236 3.236 0 0 0 3.215 3.551zm13.546-10.07a5.957 5.957 0 1 1-6.116 5.934 5.934 5.934 0 0 1 6.116-5.934zm0 10.025a4.07 4.07 0 1 0-3.912-4.09 3.944 3.944 0 0 0 3.945 4.09h-.033zm8.768-9.755h2.024v1.011c0 .287-.023.572-.068.855a4.17 4.17 0 0 1 3.822-2.136c3.08 0 4.992 2.428 4.992 5.957s-2.159 5.957-5.15 5.957a4.182 4.182 0 0 1-3.529-1.934c.063.326.092.658.09.99v5.17h-2.18v-15.87zm5.329 9.755c1.798 0 3.282-1.46 3.282-4.046 0-2.585-1.315-4.012-3.204-4.012-1.708 0-3.282 1.214-3.282 4.091-.012 1.967 1.113 3.967 3.204 3.967zm14.03-5.462h.584v-.225a2.248 2.248 0 0 0-2.496-2.495 5.7 5.7 0 0 0-3.193 1.124l-.876-1.596a7.252 7.252 0 0 1 4.249-1.348c2.855 0 4.497 1.573 4.497 4.495v7.193h-2.046v-1.124c0-.3.022-.6.067-.899a4.193 4.193 0 0 1-3.732 2.316 3.508 3.508 0 0 1-3.8-3.372c-.045-3.664 4.384-4.069 6.745-4.069zm-2.474 5.62c1.911 0 3.058-1.933 3.058-3.62v-.426h-.562c-1.62 0-4.632.135-4.632 2.248a1.922 1.922 0 0 0 2.136 1.798zM504.658 284.91a5.959 5.959 0 0 1 4.272 1.663l-1.034 1.529a4.61 4.61 0 0 0-3.148-1.304 3.89 3.89 0 0 0-3.957 4.046 3.944 3.944 0 0 0 4.025 4.091 5.082 5.082 0 0 0 3.507-1.528l.877 1.596a6.375 6.375 0 0 1-4.497 1.82 5.957 5.957 0 1 1-.045-11.913zm9.646 2.135h-3.935v-1.865h10.118v1.865h-3.98v9.509h-2.203v-9.509zm14.052 2.428h.584v-.225a2.248 2.248 0 0 0-2.495-2.495 5.7 5.7 0 0 0-3.193 1.124l-.877-1.596a7.252 7.252 0 0 1 4.25-1.349c2.855 0 4.496 1.574 4.496 4.496v7.193h-2.09v-1.124c0-.301.022-.601.067-.899a4.193 4.193 0 0 1-3.733 2.315 3.508 3.508 0 0 1-3.8-3.371c-.044-3.664 4.385-4.069 6.79-4.069zm-2.473 5.62c1.91 0 3.057-1.934 3.057-3.62v-.426h-.584c-1.62 0-4.632.134-4.632 2.247a1.922 1.922 0 0 0 2.114 1.799h.045zm10.994-8.048h-3.957v-1.865h10.117v1.865h-4.002v9.509h-2.158v-9.509zm8.262-1.865h2.091v6.743c0 .607 0 1.416-.067 1.529.09-.203.63-.99 1.012-1.529l4.901-6.743h2.113v11.374h-2.102v-6.744c0-.54.068-1.326.068-1.506a17.87 17.87 0 0 1-.99 1.506l-4.923 6.744h-2.091V285.18h-.012zm18.808-.27a5.959 5.959 0 0 1 4.271 1.663l-1.034 1.529a4.61 4.61 0 0 0-3.147-1.304 3.89 3.89 0 0 0-3.957 4.046 3.944 3.944 0 0 0 4.024 4.091 5.082 5.082 0 0 0 3.507-1.528l.877 1.596a6.375 6.375 0 0 1-4.496 1.82 5.958 5.958 0 0 1-5.194-8.915 5.958 5.958 0 0 1 5.149-2.998zm9.645 2.135h-3.957v-1.865h10.117v1.865h-3.98v9.509h-2.158v-9.509h-.022zm8.263-1.865h2.09v6.743c0 .607 0 1.416-.067 1.529.09-.203.63-.99 1.012-1.529l4.901-6.743h2.114v11.374h-2.058v-6.744c0-.54.068-1.326.068-1.506a17.87 17.87 0 0 1-.99 1.506l-4.923 6.744h-2.091V285.18h-.056zm13.444 0h2.181v4.585h1.597l3.102-4.585h2.474l-3.8 5.417 4.25 5.912h-2.553l-3.372-4.923h-1.686v4.923h-2.181v-11.33h-.012zm11.748 0h2.09v6.743c0 .607 0 1.416-.067 1.529.09-.203.63-.99 1.012-1.529l4.902-6.743h2.18v11.374h-2.135v-6.744c0-.54.067-1.326.067-1.506a17.87 17.87 0 0 1-.99 1.506l-4.923 6.744h-2.136V285.18zm13.928 9.013h2.249l-1.956 4.631h-1.732l1.44-4.63zm18.763-13.779a8.466 8.466 0 0 1 5.8 2.09l-1.124 1.664a7.274 7.274 0 0 0-4.586-1.73 5.711 5.711 0 0 0-5.869 6.069c0 3.371 2.249 6.27 5.913 6.27a7.072 7.072 0 0 0 4.88-2.067l1.191 1.596a8.41 8.41 0 0 1-6.138 2.517 8.206 8.206 0 1 1-.067-16.409zm9.004.27h5.036a6.904 6.904 0 0 1 2.946.427 4.293 4.293 0 0 1 2.518 4.159 4.496 4.496 0 0 1-2.833 4.36c.168.228.319.469.45.72l3.372 6.159h-2.518l-3.373-6.317h-3.372v6.317h-2.248v-15.825h.022zm5.419 7.62a2.71 2.71 0 0 0 2.832-2.922 2.529 2.529 0 0 0-1.483-2.495 4.498 4.498 0 0 0-1.912-.27h-2.63v5.687h3.193zm9.398-7.62h2.315l3.665 8.587c.36.876.765 2.135.765 2.135s.427-1.259.786-2.135l3.665-8.587h2.316l1.282 15.87h-2.249l-.764-10.003c-.04-.779-.04-1.56 0-2.338 0 0-.495 1.461-.855 2.338l-3.17 7.148h-1.978l-3.148-7.148c-.36-.854-.854-2.383-.854-2.383v2.383l-.765 10.003h-2.248l1.237-15.87z"/>
        <path fill="#3CB0CB" fill-rule="nonzero" d="M873.125 180.736h2.248v13.981h7.78v-13.936h2.248v13.936h1.82v5.08h-2v-3.147h-12.096v-15.914zm21.269 4.226c3.215 0 4.924 2.405 4.924 5.327-.01.309-.04.617-.09.922h-8.274a3.753 3.753 0 0 0 3.912 3.776 5.15 5.15 0 0 0 3.372-1.326l.922 1.596a6.813 6.813 0 0 1-4.406 1.618 5.813 5.813 0 0 1-6.048-5.957 5.619 5.619 0 0 1 5.688-5.956zm2.72 4.675a2.764 2.764 0 0 0-2.765-2.99 3.305 3.305 0 0 0-3.373 2.99h6.138zm4.834-4.406h2.181v4.631h5.756v-4.63h2.18v11.373h-2.18v-4.877h-5.756v4.877h-2.18v-11.374zm19.336 4.294h.584v-.225a2.248 2.248 0 0 0-2.495-2.495 5.7 5.7 0 0 0-3.193 1.124l-.877-1.596a7.252 7.252 0 0 1 4.25-1.349c2.855 0 4.496 1.574 4.496 4.496v7.193h-2.046v-1.124c0-.301.023-.601.068-.9a4.193 4.193 0 0 1-3.733 2.316 3.508 3.508 0 0 1-3.8-3.372c-.044-3.664 4.385-4.068 6.746-4.068zm-2.473 5.62c1.91 0 3.057-1.934 3.057-3.62v-.427h-.562c-1.619 0-4.631.135-4.631 2.248a1.922 1.922 0 0 0 2.136 1.798zm12.837-.428c1.664-.247 2.564-1.91 2.564-6.024v-3.506h7.621v11.373h-2.18v-9.575h-3.373v1.708c0 5.148-1.304 7.8-4.654 7.98v-1.956h.022zm13.558-9.486h2.09v6.744c0 .607 0 1.416-.067 1.528.09-.202.63-.989 1.012-1.528l4.901-6.744h2.114v11.374h-2.114v-6.743c0-.54.068-1.326.068-1.506a17.87 17.87 0 0 1-.99 1.506l-4.923 6.743h-2.091v-11.374zm13.422 9.576c1.597-2.18 1.777-5.732 1.777-7.485v-2.09h7.689v9.575h1.619v4.496h-2.001v-2.698h-8.432v2.698h-2.046v-4.496h1.394zm7.285 0v-7.8h-3.373v.607c0 1.709-.18 4.945-1.618 7.193h5.036-.045zm11.939-5.282h.584v-.225a2.248 2.248 0 0 0-2.496-2.495 5.7 5.7 0 0 0-3.192 1.124l-.877-1.596a7.252 7.252 0 0 1 4.25-1.349c2.855 0 4.496 1.574 4.496 4.496v7.193h-2.046v-1.124c0-.301.022-.601.067-.9a4.193 4.193 0 0 1-3.732 2.316 3.508 3.508 0 0 1-3.8-3.372c-.044-3.664 4.385-4.068 6.746-4.068zm-2.474 5.62c1.911 0 3.058-1.934 3.058-3.62v-.427h-.562c-1.619 0-4.632.135-4.632 2.248a1.922 1.922 0 0 0 2.136 1.798zM909.21 207.71h5.036a6.904 6.904 0 0 1 2.946.427 4.293 4.293 0 0 1 2.518 4.158 4.496 4.496 0 0 1-2.833 4.361c.169.228.319.468.45.72l3.372 6.158h-2.518l-3.372-6.316h-3.373v6.316h-2.248V207.71h.022zm5.419 7.62a2.71 2.71 0 0 0 2.833-2.922 2.529 2.529 0 0 0-1.484-2.495 4.498 4.498 0 0 0-1.911-.27h-2.63v5.687h3.192zm15.76-7.89a7.87 7.87 0 0 1 8.14 8.092 8.15 8.15 0 0 1-8.15 8.148 8.15 8.15 0 0 1-8.151-8.148 7.934 7.934 0 0 1 8.161-8.092zm0 14.363a5.925 5.925 0 0 0 5.846-6.27 5.855 5.855 0 0 0-8.785-5.072 5.855 5.855 0 0 0-2.929 5.071 5.933 5.933 0 0 0 5.868 6.271zm11.332-14.093h2.248v15.87h-2.248v-15.87z"/>
        <path fill="#1F282C" d="M76.668 293.273V257.96a3.754 3.754 0 0 0-7.51 0v35.313a3.754 3.754 0 0 0 7.51 0z"/>
        <path fill="#3CB0CB" d="M65.415 259.095l-.798.528a40.34 40.34 0 0 1-19.032 6.451v19.208a40.206 40.206 0 0 1 19.032 6.327l.798.54v-33.054z"/>
        <path fill="#1F282C" fill-rule="nonzero" d="M41.83 266.3H28.7a5.62 5.62 0 0 0-5.621 5.619v7.496a5.62 5.62 0 0 0 5.62 5.62H41.83v-18.736zm-9.375 11.238a1.877 1.877 0 1 1 0-3.754h3.743a1.877 1.877 0 1 1 0 3.754h-3.743zm7.644 20.332h3.608a5.621 5.621 0 0 0 5.621-5.62v-2.686a35.542 35.542 0 0 0-3.755-.517v3.203a1.865 1.865 0 0 1-1.877 1.877h-3.653l-.08-5.305h-7.508l.146 11.835a3.754 3.754 0 0 0 7.51 0l-.012-2.787z"/>
        <path fill="#3CB0CB" fill-rule="nonzero" d="M84.84 263.849a1.878 1.878 0 0 0-2.653 0l-2.653 2.652a1.877 1.877 0 1 0 2.653 2.653l2.653-2.653a1.877 1.877 0 0 0 0-2.652zm0 21.22l-2.653-2.687a1.878 1.878 0 1 0-2.653 2.653l2.653 2.652a1.878 1.878 0 0 0 2.653-2.619zm5.846-9.284c0-1.037-.84-1.877-1.877-1.877h-5.306a1.877 1.877 0 1 0 0 3.754h5.306c1.037 0 1.877-.84 1.877-1.877z"/>
        <path fill="#F2C400" fill-rule="nonzero" d="M949.703 133.711v-.247c3.035-2.135 4.81-4.765 4.81-7.654v-8.137c0-7.137-11.173-12.509-25.99-12.509-14.816 0-25.99 5.384-25.99 12.51v2.18c-3.137 2.101-4.812 4.664-4.812 7.44v8.137c0 3.17 2.147 6.047 5.778 8.283v6.148c0 7.317 11.422 13.049 25.991 13.049 14.57 0 25.99-5.732 25.99-13.049v-8.137c-.01-3.046-2.012-5.81-5.777-8.014zm3.855 8.036c0 6.16-11.241 11.554-24.068 11.554h-2.136l-1.416-.09-.91-.078h-.406c-7.869-.855-14.614-3.71-17.604-7.317l-.112-.146-.124-.169a33.73 33.73 0 0 0 4.407 1.518c4.272 2.81 10.927 4.417 18.312 4.417 13.052 0 22.146-5.058 22.146-9.587a5.17 5.17 0 0 0-2.36-3.878l.067-.202c0-.101.067-.203.09-.304.022-.1.056-.236.09-.348.034-.112 0-.202.067-.304.068-.1 0-.236 0-.36v-.393c2.069 1.237 3.946 3.181 3.946 5.687h.011zm-20.088 13.319h.09l1.64-.169h.417l1.585-.225v5.766c-1.248.202-2.53.36-3.856.46v-5.776h.124v-.056zm5.62-.798h.158l1.529-.349h.19l1.001-.27v5.766c-.922.27-1.885.506-2.889.708v-5.866l.011.01zm4.812-1.315h.157l.214-.079 1.124-.45.326-.134h.067v5.743a26.31 26.31 0 0 1-1.922.753v-5.755l.034-.078zm3.856-1.63l.483-.258.281-.146c.371-.203.73-.428 1.124-.641h.079v5.62c-.616.435-1.258.833-1.922 1.19v-5.697l-.045-.068zm-38.514-1.124c.596.382 1.248.742 1.922 1.124v5.71a18.696 18.696 0 0 1-1.922-1.192V150.2zm-4.8-27.412c.217.27.446.532.686.787l.168.168c.217.217.446.435.686.652l.169.158.168.146v5.36a6.316 6.316 0 0 1-1.922-4.281v-2.99h.045zm5.002 4.046l.281.146.484.259v5.664a18.577 18.577 0 0 1-1.889-1.124v-5.62h.079c.326.26.686.473 1.045.675zm3.08 1.461l1.125.45.213.078h.158v5.755a35.463 35.463 0 0 1-1.923-.753v-5.743h.068l.36.213zm4.666 1.518l1.529.348h.157v5.766c-.97-.204-1.934-.44-2.89-.708v-5.687l1.001.27.203.01zm5.62 1.011l1.642.169h.213v5.777a46.37 46.37 0 0 1-3.855-.461v-5.766l1.585.225.416.056zm5.7.326h1.922v5.754c-.64 0-1.281.057-1.922.057h-1.922v-5.777h.123c.607-.034 1.203-.023 1.844-.023l-.045-.011zm4.058-.169l1.642-.168h.416l1.585-.225v5.687l-1.125.18-.573.078c-.72.09-1.45.147-2.192.203v-5.755h.247zm7.251-1.18h.191l1-.27v5.766l-.37.101-.652.18c-.532.135-1.072.262-1.619.382h-.236v-5.754h.157c.529-.146 1.046-.27 1.507-.393l.022-.012zm3.496-1.067l1.124-.45.326-.135h.068v5.743a26.31 26.31 0 0 1-1.922.753v-5.754h.157l.247-.157zm4.25-1.911c.37-.202.73-.427 1.124-.64h.078v5.619c-.615.436-1.257.834-1.922 1.191v-5.71l.484-.258.236-.202zm-40.178 10.958l.326.135 1.124.45.214.078h.157v5.755a35.464 35.464 0 0 1-1.922-.753V137.7l.101.079zm4.98 1.64l1.529.35h.157v5.765h-.168l-1.53-.348-1.202-.326v-5.766l1 .27.214.056zm5.62 1.012l1.642.169h.214v5.788c-.663 0-1.327-.112-1.967-.18l-.934-.123-.944-.146v-5.755l1.585.225.405.022zm5.7.326h1.923v5.777h-1.923c-.63 0-1.281 0-1.922-.056v-5.71h1.934l-.012-.01zm6.588 5.328l-.686.09-1.506.157h-.506v-5.788l.944-.068.945-.112c.46 0 .933-.101 1.394-.169l.573-.1v5.787h-.247l-.911.203zm3.788-6.485c.405-.09.81-.18 1.203-.281l.922-.27v5.8c-.922.27-1.885.505-2.889.707v-5.788l.764-.168zm4.059-1.124l.18-.068c.348-.123.719-.247 1.056-.382l.686-.292v5.788c-.63.276-1.272.527-1.922.753v-5.8zm3.856 4.102v-5.552a38.506 38.506 0 0 0 1.922-.64v4.99c-.594.437-1.214.838-1.855 1.202h-.067zm5.778-7.137a5.27 5.27 0 0 1-.472 2.147l-.09.18a7.867 7.867 0 0 1-1.125 1.72l-.168.202v-4.103a30.632 30.632 0 0 0 1.922-.944v.776l-.067.022zm-44.292.326h.078c.346.217.72.43 1.125.64l.28.203.484.259v4.877h-1.383l-.54-.37v-5.62l-.044.011zm9.623 16.432c.633.266 1.274.514 1.922.742v5.81a35.463 35.463 0 0 1-1.922-.753v-5.8zm3.855 1.337c.934.27 1.89.506 2.89.72v5.765c-.971-.203-1.935-.44-2.89-.708v-5.777zm4.812 1.124l.46.068.698.1 1.124.136 1.124.112h.495v5.777a46.37 46.37 0 0 1-3.856-.46v-5.767l-.045.034zm30.836-31.874v3.046a6.316 6.316 0 0 1-1.923 4.282v-5.361l.169-.146.169-.158c.239-.216.468-.434.685-.651l.169-.169c.247-.255.475-.517.686-.787l.045-.056zm-24.035-15.735c13.49 0 24.068 4.653 24.068 10.588 0 6.159-11.241 11.553-24.068 11.553-12.827 0-24.068-5.394-24.068-11.553-.045-5.89 10.578-10.588 24.068-10.588zm-28.88 28.345v-3.045c.217.27.447.531.686.786l.169.169c.217.217.446.435.685.652l.17.157.19.247v5.361a6.316 6.316 0 0 1-1.945-4.282l.045-.045zm5.779 14.443v-3.001a13.6 13.6 0 0 0 1.922 1.955v5.373a6.305 6.305 0 0 1-1.967-4.282l.045-.045zm22.146 11.081v-5.777h3.844V161h-3.89l.046-.079zm25.99-14.116v3.046a6.316 6.316 0 0 1-1.922 4.282v-5.361l.168-.146.169-.158c.24-.217.469-.435.686-.651l.168-.169a9.67 9.67 0 0 0 .686-.787l.045-.056z"/>
        <path fill="#F2C400" d="M916.585 125.676l7.172-2.585v-.102a5.036 5.036 0 0 1-3.07-3.248 2.17 2.17 0 0 1-1.022-.865 1.697 1.697 0 0 1-.157-1.371l.18-.596c.263-.69.819-1.23 1.517-1.472.264-.488.598-.934.99-1.326l.426-.405a3.978 3.978 0 0 1 0-.652 1.124 1.124 0 0 1 1.125-1.056c.247-.003.488.076.685.224.186.12.386.214.596.281a7.511 7.511 0 0 0 2.743.326h.495c2.372 0 5.62.292 7.048 2.709a2.518 2.518 0 0 1 1.54 1.483l.18.596c.144.459.087.957-.157 1.371-.241.39-.6.692-1.023.866a5.036 5.036 0 0 1-3.07 3.248v.1l7.23 2.71c6.564-1.832 10.623-5.08 10.623-8.104 0-4.26-8.285-8.665-22.146-8.665s-22.146 4.406-22.146 8.665c.033 2.844 3.923 6.013 10.24 7.868z"/>
        <path fill="#FFF" d="M848.067 162.124a1.124 1.124 0 0 1-.798-.326l-12.703-12.711a1.124 1.124 0 0 1 1.585-1.574l12.714 12.712a1.124 1.124 0 0 1-.798 1.899z"/>
        <path fill="#3CB0CB" fill-rule="nonzero" d="M316.384 146.805h-45.866l-5.137 3.136v33.088a4.686 4.686 0 0 0 4.699 4.698h44.056a4.688 4.688 0 0 0 4.699-4.698V149.94l-2.451-3.136zm-19.605 33.088a1.55 1.55 0 0 1-1.563 1.562H273.17a1.552 1.552 0 0 1-1.562-1.562V167.26a1.55 1.55 0 0 1 1.562-1.562h22.022a1.552 1.552 0 0 1 1.563 1.562v12.633h.023zm0-18.994a1.55 1.55 0 0 1-1.563 1.562H273.17a1.552 1.552 0 0 1-1.562-1.562v-6.26a1.55 1.55 0 0 1 1.562-1.563h22.022a1.552 1.552 0 0 1 1.563 1.563v6.26h.023zm15.738 18.994c0 .863-.7 1.562-1.563 1.562H301.5c-.863 0-1.563-.7-1.563-1.562v-25.254c0-.863.7-1.563 1.563-1.563h9.5c.863 0 1.562.7 1.562 1.563v25.254h-.045z"/>
        <path fill="#FFF" fill-rule="nonzero" d="M835.353 174.835a1.124 1.124 0 0 1-.798-1.922l12.714-12.711a1.124 1.124 0 0 1 1.585 1.585l-12.703 12.7a1.124 1.124 0 0 1-.798.348z"/>
        <path fill="#1F282C" d="M318.835 138.983v10.958H281.04l-3.136-2.821v-9.722l3.136-3.158h33.096a4.688 4.688 0 0 1 4.699 4.743z"/>
        <path fill="#3CB0CB" d="M281.04 149.94h-15.66v-10.957a4.697 4.697 0 0 1 4.7-4.698h10.96v15.656z"/>
        <path fill="#FFF" fill-rule="nonzero" d="M301.5 143.67h-3.136a1.568 1.568 0 1 1 0-3.136h3.136a1.568 1.568 0 1 1 0 3.135zm-7.824-1.563a1.55 1.55 0 0 1-1.563 1.562h-3.136a1.568 1.568 0 1 1 0-3.135h3.136a1.552 1.552 0 0 1 1.563 1.573z"/>
        <path fill="#FFF" fill-rule="nonzero" d="M292.102 143.67v-3.125a1.562 1.562 0 1 1 0 3.124zm18.897 0h-3.136a1.568 1.568 0 1 1 0-3.136h3.136a1.568 1.568 0 1 1 0 3.135z"/>
        <path fill="#3CB0CB" d="M486.29 291.71h-46.192v-36.909l20.077 20.073 6.24-6.237 19.875 19.87v3.192z"/>
        <path fill="#1F282C" fill-rule="nonzero" d="M483.097 253.43l-8.409 8.407-8.127-8.126-11.49 11.498 5.104 5.102 6.24-6.226 19.875 19.87V253.43h-3.193zm-48.125 45.013a1.708 1.708 0 0 1-1.71-1.708v-41.45a1.708 1.708 0 1 1 3.373 0v41.45c0 .926-.737 1.683-1.663 1.708z"/>
        <path fill="#1F282C" d="M485.548 298.443H434.96a1.708 1.708 0 0 1 0-3.372h50.588a1.709 1.709 0 1 1 0 3.372z"/>
    </g>
</svg>
