<svg xmlns="http://www.w3.org/2000/svg" width="282" height="427" viewBox="0 0 282 427">
    <g fill="none" fill-rule="evenodd" transform="translate(1 1)">
        <path fill="#1F282C" fill-rule="nonzero" d="M156.35 294.39a20.47 20.47 0 0 0 0-26l-13 13 13 13z"/>
        <path fill="#FFF" fill-rule="nonzero" d="M153.51 297.23l-13-13-13 13-4.26 4.26c9.922 8.52 24.578 8.52 34.5 0l-4.24-4.26zm-13-6.62l5.36 5.39h-10.7l5.34-5.39z"/>
        <path fill="#1F282C" fill-rule="nonzero" d="M140.52 260.92a20.47 20.47 0 0 0-15.83 33.47l28.82-28.83a20.39 20.39 0 0 0-13-4.65"/>
        <path stroke="#FFF" stroke-width="1.5" d="M44 83c0 15.464 12.536 28 28 28M44 49v34M108 111H72M44 254c0 15.464 12.536 28 28 28M44 220v34M111 282H72M236 254c0 15.464-12.536 28-28 28M236 220v34M169 282h39M236 83c0 15.464-12.536 28-28 28M236 49v34M172 111h36"/>
        <path stroke="#3DAFCC" stroke-width="1.5" d="M74.5 174a28.5 28.5 0 0 0 28.5-28.5V127M205.5 174c-15.74 0-28.5-12.76-28.5-28.5V127"/>
        <path fill="#F2FDFF" fill-rule="nonzero" stroke="#3DAFCC" stroke-width="1.5" d="M0 0h121v48H0z"/>
        <path fill="#1F282C" fill-rule="nonzero" d="M39.67 24.24v-3.49l-1.77-.18A9.78 9.78 0 0 0 36.41 17l1.12-1.37-2.47-2.48-1.37 1.12a10 10 0 0 0-3.6-1.49L29.92 11h-3.5l-.17 1.76a9.83 9.83 0 0 0-3.6 1.49l-1.37-1.12-2.47 2.47 1.12 1.4a9.83 9.83 0 0 0-1.49 3.6l-1.77.17v3.5l1.77.17A9.83 9.83 0 0 0 19.93 28l-1.12 1.37 2.47 2.47 1.37-1.12a9.68 9.68 0 0 0 3.6 1.5l.17 1.78h3.5l.17-1.77a9.83 9.83 0 0 0 3.6-1.49l1.37 1.12 2.47-2.47L36.41 28a9.83 9.83 0 0 0 1.49-3.6l1.77-.16zM28.17 30a7.52 7.52 0 1 1 0-15.04 7.52 7.52 0 0 1 0 15.04z"/>
        <circle cx="28.17" cy="22.49" r="1.75" fill="#1F282C" fill-rule="nonzero"/>
        <path fill="#3CB0CB" fill-rule="nonzero" d="M28.17 16.58a5.91 5.91 0 1 0 .04 11.82 5.91 5.91 0 0 0-.04-11.82zm0 9.54a3.64 3.64 0 1 1 3.64-3.64 3.63 3.63 0 0 1-3.63 3.65l-.01-.01zM16.86 30.32l-4.44 4.44a2.47 2.47 0 0 0 0 3.47 2.45 2.45 0 0 0 3.47 0l4.44-4.44.2-.2-3.45-3.45a1.92 1.92 0 0 0-.22.18z"/>
        <path fill="#1F282C" fill-rule="nonzero" d="M48.45 14.32H54v7.06h-1v-6.2h-3.56v6.2h-1zM58 16.2a2.65 2.65 0 1 1-2.72 2.64A2.64 2.64 0 0 1 58 16.2zm0 4.46a1.81 1.81 0 1 0-1.74-1.82A1.75 1.75 0 0 0 58 20.66zM61.88 16.32h.93V20c0-.09.28-.44.45-.68l2.18-3h.94v5.06h-.94v-3-.67a7.87 7.87 0 0 1-.44.67l-2.19 3h-.93v-5.06zM70.24 16.2a2.65 2.65 0 0 1 1.9.74l-.46.68a2.05 2.05 0 0 0-1.4-.58 1.73 1.73 0 0 0-1.76 1.8 1.75 1.75 0 0 0 1.79 1.82 2.26 2.26 0 0 0 1.56-.66l.39.71a2.84 2.84 0 0 1-2 .81 2.65 2.65 0 1 1 0-5.3l-.02-.02zM73.31 16.32h1v2H75l1.38-2h1.1l-1.69 2.41 1.89 2.63h-1.16L75 19.19h-.73v2.19h-1zM80.71 16.2A2.65 2.65 0 1 1 78 18.84a2.64 2.64 0 0 1 2.71-2.64zm0 4.46A1.81 1.81 0 1 0 79 18.84a1.75 1.75 0 0 0 1.72 1.82h-.01zM84.61 16.32h2.09c1 0 1.69.45 1.69 1.3a1.18 1.18 0 0 1-.72 1.11 1.19 1.19 0 0 1 1 1.2c0 .94-.76 1.44-1.86 1.44h-2.16l-.04-5.05zm1.92 2.14c.58 0 .87-.3.87-.77 0-.47-.29-.7-.9-.7h-.92v1.47h.95zm.09 2.24c.7 0 1-.32 1-.79 0-.47-.37-.8-1-.8h-1v1.59h1zM92.41 18.23h.26v-.1A1 1 0 0 0 91.56 17a2.54 2.54 0 0 0-1.42.49l-.39-.71a3.22 3.22 0 0 1 1.89-.6 1.8 1.8 0 0 1 2 2v3.2h-.91v-.51a2.55 2.55 0 0 1 0-.4 1.87 1.87 0 0 1-1.66 1 1.56 1.56 0 0 1-1.69-1.5c.01-1.56 1.98-1.74 3.03-1.74zm-1.1 2.5a1.52 1.52 0 0 0 1.36-1.61v-.19h-.25c-.72 0-2.06.06-2.06 1a.85.85 0 0 0 .95.8zM95.73 19.7a2.19 2.19 0 0 1 .23-.31 1.51 1.51 0 0 1-1.1-1.47c0-1 .74-1.59 1.81-1.59h2v5.06h-1v-1.84h-.85l-1.24 1.83h-1.07l1.22-1.68zm2-.86V17h-.81c-.65 0-1.07.26-1.07.91a.92.92 0 0 0 1 .94l.88-.01zM50.66 28.2a2.65 2.65 0 1 1-2.72 2.64 2.64 2.64 0 0 1 2.72-2.64zm0 4.46a1.81 1.81 0 1 0-1.74-1.82 1.75 1.75 0 0 0 1.75 1.82h-.01zM54.56 28.32H59v5.06h-1v-4.23h-2.47v4.23h-1zM61.7 29.15h-1.76v-.83h4.49v.83h-1.77v4.23h-1zM65.38 28.32h.93V32c0-.09.28-.44.45-.68l2.18-3h.94v5.06h-.94v-3-.67a7.87 7.87 0 0 1-.44.67l-2.19 3h-.93v-5.06zM71.59 28.32h1.08L74 31.18c.14.3.28.68.28.68l.28-.68 1.32-2.86h1.06l.44 5.06h-.94l-.22-3v-.87s-.13.35-.32.74l-1.2 2.53h-.83l-1.2-2.52-.32-.75v.87l-.22 3h-.94l.4-5.06zM78.66 28.32h.93V32c0-.09.28-.44.45-.68l2.18-3h.94v5.06h-.94v-3-.67a7.87 7.87 0 0 1-.44.67l-2.19 3h-.93v-5.06zM84.6 32.12a1.91 1.91 0 0 0 1.32.6c.58 0 1-.28 1-.83 0-.55-.33-.77-1-.77h-.62v-.7h.53c.57 0 1-.22 1-.73s-.34-.73-.9-.73a2 2 0 0 0-1.23.44l-.36-.65a2.87 2.87 0 0 1 1.76-.55c1 0 1.71.47 1.71 1.37a1.17 1.17 0 0 1-.74 1.15c.546.132.926.628.91 1.19 0 1-.9 1.57-1.94 1.57a2.73 2.73 0 0 1-1.86-.74l.42-.62zM91.72 30.23H92v-.1A1 1 0 0 0 90.87 29a2.54 2.54 0 0 0-1.42.49l-.39-.71a3.22 3.22 0 0 1 1.89-.6 1.8 1.8 0 0 1 2 2v3.2H92v-.51a2.55 2.55 0 0 1 0-.4 1.87 1.87 0 0 1-1.66 1A1.56 1.56 0 0 1 88.7 32c0-1.59 1.97-1.77 3.02-1.77zm-1.1 2.5A1.52 1.52 0 0 0 92 31.12v-.19h-.25c-.72 0-2.06.06-2.06 1a.85.85 0 0 0 .93.8zM94.38 28.32h1v4.22h2.41v-4.22h1v4.22h.71v2h-.89v-1.2h-4.18zM100.48 28.32h.93V32c0-.09.28-.44.45-.68l2.18-3h.96v5.06h-1v-3-.67a7.87 7.87 0 0 1-.44.67l-2.19 3h-.93l.04-5.06zM107.12 31.7a2.19 2.19 0 0 1 .23-.31 1.51 1.51 0 0 1-1.1-1.47c0-1 .74-1.59 1.81-1.59h2v5.06h-1v-1.84h-.85L107 33.38h-1l1.12-1.68zm2-.86V29h-.81c-.65 0-1.07.26-1.07.91a.92.92 0 0 0 1 .94l.88-.01z"/>
        <path fill="#F2FDFF" fill-rule="nonzero" stroke="#3DAFCC" stroke-width="1.5" d="M0 174h121v48H0z"/>
        <path fill="#1F282C" fill-rule="nonzero" d="M42.34 193.87a2.36 2.36 0 0 0 1.66.74 1.3 1.3 0 0 0 1.47-1.28 1.17 1.17 0 0 0-1.32-1.17h-.87v-.82H44a1.18 1.18 0 0 0 1.27-1.14 1.1 1.1 0 0 0-1.27-1.13 2.42 2.42 0 0 0-1.58.6l-.42-.74a3.21 3.21 0 0 1 2.14-.72 1.9 1.9 0 0 1 2.12 1.87 1.71 1.71 0 0 1-1 1.59 1.67 1.67 0 0 1 1.24 1.69 2.18 2.18 0 0 1-2.4 2.12 3.16 3.16 0 0 1-2.29-1l.53-.61zM47.73 190.32h2.09c1 0 1.69.45 1.69 1.3a1.18 1.18 0 0 1-.72 1.11 1.19 1.19 0 0 1 1 1.2c0 .94-.76 1.44-1.86 1.44h-2.2v-5.05zm1.92 2.14c.58 0 .87-.3.87-.77 0-.47-.29-.7-.9-.7h-.92v1.47h.95zm.09 2.24c.7 0 1-.32 1-.79 0-.47-.37-.8-1-.8h-1v1.59h1zM55.32 190.2a2.65 2.65 0 1 1-2.72 2.64 2.64 2.64 0 0 1 2.72-2.64zm0 4.46a1.81 1.81 0 1 0-1.74-1.82 1.75 1.75 0 0 0 1.75 1.82h-.01zM59.22 190.32h1v2.06h2.56v-2.06h1v5.06h-1v-2.17h-2.59v2.17h-1zM65.22 190.32h1v2h.71l1.38-2h1.1l-1.69 2.41 1.89 2.63h-1.18l-1.51-2.19h-.73v2.19h-1zM70.44 190.32h.93V194c0-.09.28-.44.45-.68l2.18-3h.94v5.06H74v-3-.67a7.87 7.87 0 0 1-.44.67l-2.19 3h-.93v-5.06zM76.64 194.33h1l-.87 2.06H76zM81.6 194.12a1.91 1.91 0 0 0 1.32.6c.58 0 1-.28 1-.83 0-.55-.33-.77-1-.77h-.62v-.7h.53c.57 0 1-.22 1-.73s-.34-.73-.9-.73a2 2 0 0 0-1.23.44l-.36-.65a2.87 2.87 0 0 1 1.76-.55c1 0 1.71.47 1.71 1.37a1.17 1.17 0 0 1-.74 1.15c.546.132.926.628.91 1.19 0 1-.9 1.57-1.94 1.57a2.73 2.73 0 0 1-1.86-.74l.42-.62zM88.72 192.23H89v-.1a1 1 0 0 0-1.11-1.11 2.54 2.54 0 0 0-1.42.49l-.39-.71a3.22 3.22 0 0 1 1.89-.6 1.8 1.8 0 0 1 2 2v3.2H89v-.51a2.55 2.55 0 0 1 0-.4 1.87 1.87 0 0 1-1.66 1 1.56 1.56 0 0 1-1.69-1.5c.05-1.58 2.02-1.76 3.07-1.76zm-1.1 2.5a1.52 1.52 0 0 0 1.36-1.61v-.19h-.25c-.72 0-2.06.06-2.06 1a.85.85 0 0 0 .95.8zM92 193.7a2.19 2.19 0 0 1 .23-.31 1.51 1.51 0 0 1-1.1-1.47c0-1 .74-1.59 1.81-1.59h2v5.06h-1v-1.83h-.85l-1.24 1.83h-1.07L92 193.7zm2-.86V191h-.81c-.65 0-1.07.26-1.07.91a.92.92 0 0 0 1 .94l.88-.01zM96.5 190.32h2.09c1 0 1.69.45 1.69 1.3a1.18 1.18 0 0 1-.72 1.11 1.19 1.19 0 0 1 1 1.2c0 .94-.76 1.44-1.86 1.44h-2.2v-5.05zm1.92 2.14c.58 0 .87-.3.87-.77 0-.47-.29-.7-.9-.7h-.92v1.47h.95zm.09 2.24c.7 0 1-.32 1-.79 0-.47-.37-.8-1-.8h-1v1.59h1zM101.7 190.32h1v2h.71l1.38-2h1.1l-1.69 2.41 1.89 2.63h-1.15l-1.51-2.19h-.73v2.19h-1zM106.92 190.32h.93V194c0-.09.28-.44.45-.68l2.18-3h.94v5.06h-.94v-3-.67a7.87 7.87 0 0 1-.44.67l-2.19 3h-.93v-5.06zM113.12 194.33h1l-.87 2.06h-.77zM42 204v-1.65h.95v1.51c0 .5.18.95 1 .95a2 2 0 0 0 1.12-.36v-2.1h1v5.06H45v-1.83-.3a2.83 2.83 0 0 1-1.37.37A1.51 1.51 0 0 1 42 204zM50.1 204.23h.26v-.1a1 1 0 0 0-1.11-1.13 2.54 2.54 0 0 0-1.42.49l-.39-.71a3.22 3.22 0 0 1 1.89-.6 1.8 1.8 0 0 1 2 2v3.2h-.91v-.51a2.55 2.55 0 0 1 0-.4 1.87 1.87 0 0 1-1.66 1 1.56 1.56 0 0 1-1.69-1.5c.01-1.56 1.98-1.74 3.03-1.74zm-1.1 2.5a1.52 1.52 0 0 0 1.36-1.61v-.19h-.25c-.72 0-2.06.06-2.06 1a.85.85 0 0 0 .95.8zM53.91 203.15h-1.76v-.83h4.49v.83h-1.77v4.23h-1zM57.59 202.32h1v1.83h1c1 0 1.84.48 1.84 1.63 0 .95-.58 1.6-1.85 1.6h-2l.01-5.06zm1.82 4.36c.7 0 1-.38 1-.91s-.31-.92-1-.92h-.84v1.83h.84zm2.76-4.36h1v5.06h-1v-5.06zM64.86 206.33h1l-.86 2.06h-.77zM69.82 206.12a1.91 1.91 0 0 0 1.32.6c.58 0 1-.28 1-.83 0-.55-.33-.77-1-.77h-.62v-.7h.53c.57 0 1-.22 1-.73s-.34-.73-.9-.73a2 2 0 0 0-1.23.44l-.36-.65a2.87 2.87 0 0 1 1.76-.55c1 0 1.71.47 1.71 1.37a1.17 1.17 0 0 1-.74 1.15c.546.132.926.628.91 1.19 0 1-.9 1.57-1.94 1.57a2.73 2.73 0 0 1-1.86-.74l.42-.62zM76.94 204.23h.26v-.1a1 1 0 0 0-1.11-1.13 2.54 2.54 0 0 0-1.42.49l-.39-.71a3.22 3.22 0 0 1 1.89-.6 1.8 1.8 0 0 1 2 2v3.2h-.91v-.51a2.55 2.55 0 0 1 0-.4 1.87 1.87 0 0 1-1.66 1 1.56 1.56 0 0 1-1.69-1.5c.01-1.56 1.98-1.74 3.03-1.74zm-1.1 2.5a1.52 1.52 0 0 0 1.36-1.61v-.19H77c-.72 0-2.06.06-2.06 1a.85.85 0 0 0 .9.8zM79.6 202.32h1v2h.71l1.38-2h1.1l-1.69 2.41 1.89 2.63h-1.15l-1.51-2.19h-.73v2.19h-1zM87.37 204.23h.26v-.1a1 1 0 0 0-1.11-1.11 2.54 2.54 0 0 0-1.42.49l-.39-.71a3.22 3.22 0 0 1 1.89-.6 1.8 1.8 0 0 1 2 2v3.2h-.91v-.51a2.55 2.55 0 0 1 0-.4 1.87 1.87 0 0 1-1.66 1 1.56 1.56 0 0 1-1.69-1.5c.01-1.58 1.98-1.76 3.03-1.76zm-1.1 2.5a1.52 1.52 0 0 0 1.36-1.61v-.19h-.25c-.72 0-2.06.06-2.06 1a.85.85 0 0 0 .95.8zM90 206.12a1.91 1.91 0 0 0 1.32.6c.58 0 1-.28 1-.83 0-.55-.33-.77-1-.77h-.62v-.7h.53c.57 0 1-.22 1-.73s-.34-.73-.9-.73a2 2 0 0 0-1.23.44l-.36-.65a2.87 2.87 0 0 1 1.76-.55c1 0 1.71.47 1.71 1.37a1.17 1.17 0 0 1-.74 1.15c.546.132.926.628.91 1.19 0 1-.9 1.57-1.94 1.57a2.73 2.73 0 0 1-1.86-.74l.42-.62zM94.51 202.32h1v1.83h1c1 0 1.84.48 1.84 1.63 0 .95-.58 1.6-1.85 1.6h-1.95l-.04-5.06zm1.82 4.36c.7 0 1-.38 1-.91s-.31-.92-1-.92h-.84v1.83h.84zm2.76-4.36h1v5.06h-1v-5.06z"/>
        <path fill="#F2FDFF" fill-rule="nonzero" stroke="#3DAFCC" stroke-width="1.5" d="M159 174h121v48H159z"/>
        <path stroke="#FFF" stroke-width="1.5" d="M140 126v127M140 346l8-9M140 346l-8-9M140 316v33"/>
        <path fill="#F2FDFF" fill-rule="nonzero" stroke="#3DAFCC" stroke-width="1.5" d="M79.5 87h121v48h-121z"/>
        <path fill="#1F282C" fill-rule="nonzero" d="M151.11 107.28a3.77 3.77 0 0 1 2.58.93l-.5.74a3.24 3.24 0 0 0-2-.77 2.54 2.54 0 0 0-2.61 2.7 2.62 2.62 0 0 0 2.63 2.79 3.15 3.15 0 0 0 2.17-.92l.53.71a3.74 3.74 0 0 1-2.73 1.12 3.65 3.65 0 0 1 0-7.3h-.07zM157.54 111.31h.26v-.1a1 1 0 0 0-1.11-1.11 2.54 2.54 0 0 0-1.42.49l-.39-.71a3.22 3.22 0 0 1 1.89-.6 1.8 1.8 0 0 1 2 2v3.2h-.91V114a2.55 2.55 0 0 1 0-.4 1.87 1.87 0 0 1-1.66 1 1.56 1.56 0 0 1-1.69-1.5c.01-1.61 1.98-1.79 3.03-1.79zm-1.1 2.5a1.52 1.52 0 0 0 1.36-1.61v-.2h-.25c-.72 0-2.06.06-2.06 1a.85.85 0 0 0 .95.81zM160.2 109.4h.93v3.68c0-.09.28-.44.45-.68l2.18-3h.94v5.06h-.94v-3-.67a7.87 7.87 0 0 1-.44.67l-2.19 3h-.93v-5.06zm.75-1.86v-.15h.78v.14a.66.66 0 0 0 .7.66.67.67 0 0 0 .71-.67v-.13h.77v.15a1.5 1.5 0 0 1-3 0h.04zM167.4 110.23h-1.76v-.83h4.49v.83h-1.77v4.23h-1z"/>
        <path fill="#3CB0CB" fill-rule="nonzero" d="M133.06 105h-21.84l-2.45 1.49v15.76a2.24 2.24 0 0 0 2.23 2.24h21a2.24 2.24 0 0 0 2.24-2.23v-15.78l-1.18-1.48zm-9.34 15.76a.73.73 0 0 1-.73.74h-10.51a.73.73 0 0 1-.74-.73v-6a.74.74 0 0 1 .73-.75H123a.74.74 0 0 1 .74.74v6h-.02zm0-9.05a.72.72 0 0 1-.73.74h-10.51a.72.72 0 0 1-.74-.73v-3a.74.74 0 0 1 .73-.75H123a.74.74 0 0 1 .74.74v3h-.02zm7.5 9.05a.74.74 0 0 1-.74.74H126a.74.74 0 0 1-.74-.74v-12a.75.75 0 0 1 .74-.76h4.53c.41.005.74.34.74.75v12l-.05.01z"/>
        <path fill="#1F282C" fill-rule="nonzero" d="M134.23 101.26v5.22h-18l-1.49-1.34v-4.64l1.49-1.5H132a2.23 2.23 0 0 1 2.24 2.23l-.01.03z"/>
        <path fill="#3CB0CB" fill-rule="nonzero" d="M116.23 106.48h-7.46v-5.22A2.24 2.24 0 0 1 111 99h5.22l.01 7.48z"/>
        <path fill="#FFF" fill-rule="nonzero" d="M126 103.49h-1.49a.75.75 0 1 1 0-1.49H126a.75.75 0 1 1 0 1.49zM122.25 102.75a.74.74 0 0 1-.74.74H120a.75.75 0 1 1 0-1.49h1.49a.74.74 0 0 1 .75.73l.01.02z"/>
        <path fill="#FFF" fill-rule="nonzero" d="M121.5 103.49V102c.41.005.74.34.74.75a.74.74 0 0 1-.74.74zM130.5 103.49H129a.75.75 0 0 1 0-1.49h1.5a.75.75 0 0 1 0 1.49z"/>
        <path fill="#3CB0CB" fill-rule="nonzero" d="M188.46 204.91h-20.17v-16.12l8.77 8.77 2.72-2.72 8.68 8.67z"/>
        <path fill="#1F282C" fill-rule="nonzero" d="M187.06 188.19l-3.67 3.68-3.55-3.55-5.01 5.02 2.23 2.23 2.72-2.72 8.68 8.68v-13.34zM166.05 207.85a.75.75 0 0 1-.75-.74V189a.75.75 0 0 1 1.48-.24 1 1 0 0 1 0 .24v18.11a.74.74 0 0 1-.73.74z"/>
        <path fill="#1F282C" fill-rule="nonzero" d="M188.13 207.85h-22.08a.74.74 0 0 1 0-1.47h22.08a.75.75 0 0 1 .86.62.74.74 0 0 1-.62.85.49.49 0 0 1-.24 0z"/>
        <path fill="#F2FDFF" fill-rule="nonzero" stroke="#3DAFCC" stroke-width="1.5" d="M159 0h121v48H159z"/>
        <path fill="#000" fill-rule="nonzero" d="M215.45 20.45H218a2.1 2.1 0 0 1 2.21 2.21A2.12 2.12 0 0 1 218 24.9h-1.6v2.61h-1l.05-7.06zm2.43 3.55a1.28 1.28 0 0 0 1.37-1.38 1.26 1.26 0 0 0-1.36-1.35h-1.45V24h1.44zM223.37 22.33a2.16 2.16 0 0 1 2.19 2.37 3 3 0 0 1 0 .41h-3.68a1.67 1.67 0 0 0 1.74 1.68 2.29 2.29 0 0 0 1.49-.59l.41.71a3 3 0 0 1-2 .72 2.59 2.59 0 0 1-2.69-2.63 2.49 2.49 0 0 1 2.54-2.67zm1.21 2.08a1.23 1.23 0 0 0-1.23-1.33 1.47 1.47 0 0 0-1.48 1.33h2.71zM226.73 22.45h1v2h.71l1.38-2h1.1l-1.69 2.41 1.89 2.63h-1.15l-1.51-2.19h-.73v2.19h-1zM231.4 26.69c.74-.11 1.14-.85 1.14-2.68v-1.56h3.39v5.06h-1v-4.26h-1.49V24c0 2.29-.58 3.47-2.07 3.55l.03-.86zM240 24.36h.26v-.1a1 1 0 0 0-1.11-1.11 2.54 2.54 0 0 0-1.42.49l-.39-.71a3.22 3.22 0 0 1 1.89-.6 1.8 1.8 0 0 1 2 2v3.2h-.91V27a2.55 2.55 0 0 1 0-.4 1.87 1.87 0 0 1-1.66 1 1.56 1.56 0 0 1-1.69-1.5c.03-1.56 2.03-1.74 3.03-1.74zm-1.1 2.5a1.52 1.52 0 0 0 1.36-1.61v-.19H240c-.72 0-2.06.06-2.06 1a.85.85 0 0 0 .99.8h-.03zM242.92 22.45H244l1.29 2.86c.14.3.28.68.28.68l.28-.68 1.32-2.86h1.06l.44 5.06h-.94l-.22-3v-.87s-.13.35-.32.74L246 26.9h-.83L244 24.38l-.32-.75v.87l-.22 3h-.94l.4-5.05zM252.59 24.36h.26v-.1a1 1 0 0 0-1.11-1.11 2.54 2.54 0 0 0-1.42.49l-.39-.71a3.22 3.22 0 0 1 1.89-.6 1.8 1.8 0 0 1 2 2v3.2h-.91V27a2.55 2.55 0 0 1 0-.4 1.87 1.87 0 0 1-1.66 1 1.56 1.56 0 0 1-1.69-1.5c.01-1.56 1.98-1.74 3.03-1.74zm-1.1 2.5a1.52 1.52 0 0 0 1.36-1.61v-.19h-.25c-.72 0-2.06.06-2.06 1a.85.85 0 0 0 .95.8z"/>
        <path fill="#1F282C" fill-rule="nonzero" d="M199.35 31.92V12.63a2.06 2.06 0 0 0-4.11 0v19.29a2.06 2.06 0 0 0 4.11 0z"/>
        <path fill="#3CB0CB" fill-rule="nonzero" d="M193.2 13.25l-.44.29a22 22 0 0 1-10.39 3.52v10.49A22 22 0 0 1 192.76 31l.44.29V13.25z"/>
        <path fill="#1F282C" fill-rule="nonzero" d="M180.32 17.18h-7.17a3.08 3.08 0 0 0-3.07 3.07v4.1a3.08 3.08 0 0 0 3.07 3.07h7.17V17.18zm-5.12 6.14a1 1 0 1 1 0-2h2.05a1 1 0 1 1 0 2h-2.05zM179.38 34.43h2a3.08 3.08 0 0 0 3.07-3.07v-1.47a20.59 20.59 0 0 0-2-.28v1.75a1 1 0 0 1-1 1h-2v-2.89h-4.1l.08 6.46a2.05 2.05 0 1 0 4.1 0l-.15-1.5z"/>
        <path fill="#3CB0CB" fill-rule="nonzero" d="M203.81 15.85a1 1 0 0 0-1.45 0l-1.45 1.44a1.026 1.026 0 1 0 1.39 1.51l.06-.06 1.45-1.45a1 1 0 0 0 0-1.44zM203.81 27.44L202.36 26a1.026 1.026 0 0 0-1.51 1.39l.06.06 1.45 1.45a1.018 1.018 0 1 0 1.45-1.43v-.03zM207 22.36a1 1 0 0 0-1-1h-2.89a1 1 0 1 0 0 2H206a1 1 0 0 0 1-1zM12.64 202.63c3.92 5.89 9 9.4 11.37 7.83l2.87-1.89a1.29 1.29 0 0 0 .36-1.78l-2.36-3.56a1.29 1.29 0 0 0-1.78-.36l-2.1 1.42a17.76 17.76 0 0 1-6.61-10l2.14-1.42a1.29 1.29 0 0 0 .36-1.78l-2.37-3.56a1.27 1.27 0 0 0-1.77-.36l-2.9 1.9c-2.39 1.61-1.14 7.66 2.79 13.56z"/>
        <path fill="#1F282C" fill-rule="nonzero" d="M34.27 190.05h-15a1.1 1.1 0 0 1 0-2.2h15a1.1 1.1 0 0 1 0 2.2zM34.27 195.42H22.89a1.1 1.1 0 0 1 0-2.2h11.38a1.1 1.1 0 0 1 0 2.2zM34.27 200.76h-7.45a1.1 1.1 0 0 1 0-2.2h7.45a1.1 1.1 0 0 1 0 2.2zM34.27 206.16h-4.08a1.1 1.1 0 0 1 0-2.2h4.08a1.1 1.1 0 0 1 0 2.2zM198.09 188.21a3.76 3.76 0 0 1 2.58.92l-.5.74a3.24 3.24 0 0 0-2-.77 2.54 2.54 0 0 0-2.61 2.7 2.62 2.62 0 0 0 2.63 2.79 3.15 3.15 0 0 0 2.17-.92l.53.71a3.74 3.74 0 0 1-2.73 1.12 3.65 3.65 0 0 1 0-7.29h-.07zM201.77 190.32h.93V194c0-.09.28-.44.45-.68l2.18-3h.94v5.06h-.94v-3-.67a7.87 7.87 0 0 1-.44.67l-2.19 3h-.93v-5.06zM210 190.2a2.65 2.65 0 0 1 1.9.74l-.46.68a2.05 2.05 0 0 0-1.4-.58 1.73 1.73 0 0 0-1.76 1.8 1.75 1.75 0 0 0 1.79 1.82 2.26 2.26 0 0 0 1.56-.68l.39.71a2.84 2.84 0 0 1-2 .81 2.65 2.65 0 1 1 0-5.3H210zM214.22 191.15h-1.76v-.83H217v.83h-1.77v4.23h-1zM219.84 190.2a2.16 2.16 0 0 1 2.19 2.37 3 3 0 0 1 0 .41h-3.68a1.67 1.67 0 0 0 1.74 1.68 2.29 2.29 0 0 0 1.49-.59l.41.71a3 3 0 0 1-2 .72 2.59 2.59 0 0 1-2.69-2.65 2.49 2.49 0 0 1 2.54-2.65zm1.21 2.08a1.23 1.23 0 0 0-1.23-1.33 1.47 1.47 0 0 0-1.48 1.33h2.71zM223.33 190.32h1.08l1.29 2.86c.14.3.28.68.28.68l.28-.68 1.32-2.86h1.06l.44 5.06h-.94l-.22-3v-.87s-.13.35-.32.74l-1.2 2.53h-.83l-1.2-2.52-.32-.75v.87l-.22 3h-.94l.44-5.06zM230.3 190.32h1v1.83h1c1.05 0 1.84.48 1.84 1.63 0 .95-.58 1.6-1.85 1.6h-1.99v-5.06zm1.82 4.36c.7 0 1-.38 1-.91s-.31-.92-1-.92h-.84v1.83h.84zm2.76-4.36h1v5.06h-1v-5.06zM242 190.2a2.65 2.65 0 0 1 1.9.74l-.46.68a2.05 2.05 0 0 0-1.4-.58 1.73 1.73 0 0 0-1.76 1.8 1.75 1.75 0 0 0 1.79 1.82 2.26 2.26 0 0 0 1.56-.68l.39.71a2.84 2.84 0 0 1-2 .81 2.65 2.65 0 1 1 0-5.3H242zM247 188.82l1.81-.78.32.8-1.94.81a2.25 2.25 0 0 0-1.56 2 2 2 0 0 1 1.79-.9 2.12 2.12 0 0 1 2.15 2.33 2.29 2.29 0 0 1-2.39 2.4c-1.71 0-2.48-1.28-2.48-3a3.38 3.38 0 0 1 2.3-3.66zm.16 5.86a1.58 1.58 0 0 0 0-3.14 1.47 1.47 0 0 0-1.47 1.56 1.44 1.44 0 0 0 1.45 1.58h.02zM253.07 190.2a2.65 2.65 0 1 1-2.72 2.64 2.64 2.64 0 0 1 2.72-2.64zm0 4.46a1.81 1.81 0 1 0-1.74-1.82 1.75 1.75 0 0 0 1.75 1.82h-.01zM256.87 190.32h.9v.45c.01.126.01.254 0 .38a1.85 1.85 0 0 1 1.7-1c1.37 0 2.22 1.08 2.22 2.65a2.36 2.36 0 0 1-2.29 2.65 1.86 1.86 0 0 1-1.57-.86 2.24 2.24 0 0 1 0 .44v2.3h-1l.04-7.01zm2.37 4.34c.8 0 1.46-.65 1.46-1.8s-.59-1.81-1.43-1.81-1.46.54-1.46 1.82c0 .9.5 1.79 1.43 1.79zM265.38 192.23h.26v-.1a1 1 0 0 0-1.11-1.11 2.54 2.54 0 0 0-1.42.49l-.39-.71a3.22 3.22 0 0 1 1.89-.6 1.8 1.8 0 0 1 2 2v3.2h-.91v-.51a2.55 2.55 0 0 1 0-.4 1.87 1.87 0 0 1-1.66 1 1.56 1.56 0 0 1-1.69-1.5c.01-1.58 1.98-1.76 3.03-1.76zm-1.1 2.5a1.52 1.52 0 0 0 1.36-1.61v-.19h-.25c-.72 0-2.06.06-2.06 1a.85.85 0 0 0 .95.8zM197.13 202.2a2.65 2.65 0 0 1 1.9.74l-.46.68a2.05 2.05 0 0 0-1.4-.58 1.73 1.73 0 0 0-1.76 1.8 1.75 1.75 0 0 0 1.79 1.82 2.26 2.26 0 0 0 1.56-.68l.39.71a2.84 2.84 0 0 1-2 .81 2.65 2.65 0 1 1 0-5.3h-.02zM201.32 203.15h-1.76v-.83h4.49v.83h-1.77v4.23h-1zM207.45 204.23h.26v-.1a1 1 0 0 0-1.11-1.13 2.54 2.54 0 0 0-1.42.49l-.39-.71a3.22 3.22 0 0 1 1.89-.6 1.8 1.8 0 0 1 2 2v3.2h-.91v-.51a2.55 2.55 0 0 1 0-.4 1.87 1.87 0 0 1-1.66 1 1.56 1.56 0 0 1-1.69-1.5c.01-1.56 1.98-1.74 3.03-1.74zm-1.1 2.5a1.52 1.52 0 0 0 1.36-1.61v-.19h-.25c-.72 0-2.06.06-2.06 1a.85.85 0 0 0 .95.8zM211.16 203.15h-1.76v-.83h4.49v.83h-1.77v4.23h-1zM214.74 202.32h.93V206c0-.09.28-.44.45-.68l2.18-3h.94v5.06h-.94v-3-.67a7.87 7.87 0 0 1-.44.67l-2.19 3h-.93v-5.06zM223 202.2a2.65 2.65 0 0 1 1.9.74l-.46.68A2.05 2.05 0 0 0 223 203a1.73 1.73 0 0 0-1.76 1.8 1.75 1.75 0 0 0 1.79 1.82 2.26 2.26 0 0 0 1.56-.68l.39.71a2.84 2.84 0 0 1-2 .81 2.65 2.65 0 1 1 0-5.3l.02.04zM227.19 203.15h-1.76v-.83h4.49v.83h-1.77v4.23h-1zM230.77 202.32h.93V206c0-.09.28-.44.45-.68l2.18-3h.94v5.06h-.94v-3-.67a7.87 7.87 0 0 1-.44.67l-2.19 3h-.93v-5.06zM236.65 202.32h1v2h.71l1.38-2h1.1l-1.69 2.41 1.89 2.63h-1.15l-1.51-2.19h-.73v2.19h-1zM241.77 202.32h.93V206c0-.09.28-.44.45-.68l2.18-3h.94v5.06h-.94v-3-.67a7.87 7.87 0 0 1-.44.67l-2.19 3h-.93v-5.06zM247.87 206.33h1l-.87 2.06h-.77zM256 200.21a3.76 3.76 0 0 1 2.58.92l-.5.74a3.24 3.24 0 0 0-2-.77 2.54 2.54 0 0 0-2.61 2.7 2.62 2.62 0 0 0 2.63 2.79 3.15 3.15 0 0 0 2.17-.92l.53.71a3.74 3.74 0 0 1-2.8 1.12 3.65 3.65 0 0 1 0-7.29zM259.92 200.32h2.24a3.06 3.06 0 0 1 1.31.19 1.91 1.91 0 0 1 1.12 1.85 2 2 0 0 1-1.26 1.94c.075.101.142.208.2.32l1.5 2.74h-1.12l-1.49-2.81h-1.51v2.81h-1l.01-7.04zm2.41 3.39a1.2 1.2 0 0 0 1.26-1.3 1.13 1.13 0 0 0-.66-1.11 2 2 0 0 0-.85-.12h-1.17v2.53h1.42zM266.41 200.32h1l1.63 3.82c.16.39.34 1 .34 1s.19-.56.35-1l1.63-3.82h1l.57 7.06h-1l-.34-4.45a10.28 10.28 0 0 1 0-1s-.22.65-.38 1l-1.41 3.18h-.8l-1.4-3.18c-.16-.38-.38-1.06-.38-1.06v1.06l-.34 4.45h-1l.53-7.06z"/>
        <path fill="#F2FDFF" fill-rule="nonzero" stroke="#3DAFCC" stroke-width="1.5" d="M100.83 346.84h79.37v78.31h-79.37z"/>
        <path fill="#3CB0CB" fill-rule="nonzero" d="M119.74 399.53h1.11v5.12h2.62v-5.12h1.1v5.12h.72v2.14h-1v-1.19h-4.57zM128 401.13a1.89 1.89 0 0 1 2 2.07v.42h-3a1.23 1.23 0 0 0 1.3 1.16 2.07 2.07 0 0 0 1.25-.48l.43.77a2.74 2.74 0 0 1-1.75.63 2.24 2.24 0 0 1-2.35-2.28 2.16 2.16 0 0 1 2.12-2.29zm.84 1.75a.85.85 0 0 0-.84-.88 1 1 0 0 0-1.05.92l1.89-.04zM130.85 401.24h1.09v1.68h1.86v-1.68h1.08v4.36h-1.08v-1.76h-1.86v1.76h-1.09zM138.25 402.86h.18v-.06c0-.57-.36-.77-.82-.77a2.24 2.24 0 0 0-1.21.42l-.4-.78a3 3 0 0 1 1.71-.54 1.63 1.63 0 0 1 1.81 1.74v2.73h-1v-.37a1.7 1.7 0 0 1 0-.32 1.61 1.61 0 0 1-1.38.79 1.33 1.33 0 0 1-1.43-1.31c0-1.31 1.57-1.53 2.54-1.53zm-.81 2a1.11 1.11 0 0 0 1-1.15v-.12h-.19c-.54 0-1.46.08-1.46.7a.59.59 0 0 0 .65.58v-.01zM142.34 404.68c.54-.08.92-.53.92-2.07v-1.37h3.18v4.36h-1.09v-3.48h-1.06v.49c0 1.89-.5 3-1.95 3v-.93zM147.59 401.24h1v2.33a5 5 0 0 1 0 .52c0-.11.21-.35.32-.52l1.62-2.33h1.05v4.36h-1v-2.33-.52a5 5 0 0 1-.32.52l-1.62 2.33h-1l-.05-4.36zM152.83 404.72a4.94 4.94 0 0 0 .59-2.58v-.9h3.2v3.48h.62v1.9h-1v-1h-2.95v1h-1v-1.9h.54zm2.71 0v-2.61h-1.09v.2a4.89 4.89 0 0 1-.53 2.41h1.62zM160.23 402.86h.19v-.06a.72.72 0 0 0-.82-.77 2.27 2.27 0 0 0-1.22.42l-.4-.78a3 3 0 0 1 1.71-.54 1.62 1.62 0 0 1 1.81 1.74v2.73h-1v-.37a2.52 2.52 0 0 1 0-.32 1.58 1.58 0 0 1-1.37.79 1.33 1.33 0 0 1-1.44-1.31c0-1.31 1.58-1.53 2.54-1.53zm-.8 2a1.12 1.12 0 0 0 1-1.15v-.12h-.19c-.55 0-1.47.08-1.47.7a.59.59 0 0 0 .66.58v-.01zM133.75 409.78h2a2.71 2.71 0 0 1 1.14.16 1.66 1.66 0 0 1 1 1.65 1.75 1.75 0 0 1-1 1.66c.078.1.145.206.2.32l1.25 2.25h-1.24l-1.2-2.26h-1.06v2.26h-1.1l.01-6.04zm2.09 2.84a.9.9 0 0 0 1-1 .79.79 0 0 0-.48-.82 1.48 1.48 0 0 0-.66-.11h-.81v1.9l.95.03zM141.94 409.67a3 3 0 0 1 3.14 3.1 3.14 3.14 0 0 1-6.28 0 3 3 0 0 1 3.14-3.1zm0 5.27a2 2 0 0 0 2-2.17 2 2 0 0 0-4 0 2 2 0 0 0 2 2.17zM146.18 409.78h1.1v6.06h-1.1z"/>
        <path fill="#F2C400" fill-rule="nonzero" d="M152.69 376.55v-.14c1.73-1.22 2.74-2.72 2.74-4.37v-4.64c0-4.07-6.37-7.13-14.82-7.13s-14.82 3.07-14.82 7.13v1.25c-1.79 1.19-2.75 2.66-2.75 4.24v4.64c0 1.81 1.23 3.45 3.3 4.73v3.5c0 4.17 6.51 7.44 14.82 7.44s14.84-3.27 14.84-7.44v-4.64c0-1.74-1.17-3.31-3.31-4.57zm2.2 4.58c0 3.52-6.42 6.59-13.73 6.59h-1.22l-.81-.05h-.75c-4.48-.49-8.33-2.12-10-4.18l-.07-.08-.07-.1a19.12 19.12 0 0 0 2.51.87c2.44 1.6 6.24 2.52 10.45 2.52 7.44 0 12.63-2.89 12.63-5.47a3 3 0 0 0-1.35-2.21v-.12a1.54 1.54 0 0 1 0-.17 1.94 1.94 0 0 1 .05-.2v-.17-.43a4 4 0 0 1 2.25 3.24l.11-.04zm-11.46 7.6l.94-.1h.23l.91-.12v3.28c-.71.12-1.44.21-2.2.27v-3.3h.07l.05-.03zm3.21-.46h.08l.88-.19h.11l.57-.16v3.29c-.53.15-1.08.29-1.65.4v-3.34h.01zm2.74-.75h.21l.64-.26.19-.07v3.27c-.35.16-.72.3-1.1.43v-3.28l.06-.09zm2.2-.92l.27-.15.16-.09.64-.36v3.2a9.57 9.57 0 0 1-1.1.68v-3.25l.03-.03zm-22-.65c.34.22.71.43 1.09.65v3.25a9.45 9.45 0 0 1-1.09-.68V385.95zm-2.74-15.63c.12.153.25.303.39.45l.1.09c.12.13.25.25.39.38l.09.09.1.08v3.06a3.62 3.62 0 0 1-1.1-2.45v-1.7h.03zm2.85 2.31l.16.08.28.15v3.23a11.79 11.79 0 0 1-1.08-.64v-3.21c.217.146.444.276.68.39h-.04zm1.76.83l.64.26h.21V377c-.38-.13-.75-.28-1.1-.43v-3.27l.25.16zm2.66.87l.87.19h.09v3.29c-.57-.12-1.12-.25-1.65-.4v-3.24l.57.15.12.01zm3.2.57l.94.1h.12v3.29a22.05 22.05 0 0 1-2.2-.26v-3.29l.91.13.23.03zm3.25.19h1.1v3.28H139.47v-3.29h1.07l.02.01zm2.32-.1l.93-.09h.24l.9-.13V378l-.64.1-.32.05c-.41 0-.83.08-1.25.11V375h.14v-.01zm4.13-.67h.11l.57-.15v3.28l-.21.06-.37.1-.93.22h-.13v-3.28h.09l.86-.22.01-.01zm2-.61l.64-.26.18-.07v3.27c-.35.16-.72.3-1.1.43v-3.28h.09l.19-.09zm2.42-1.09l.64-.36v3.2a9.45 9.45 0 0 1-1.09.68v-3.26l.27-.14.18-.12zm-22.91 6.25l.18.08.64.25.13.05h.09v3.28c-.38-.14-.75-.28-1.1-.43v-3.27l.06.04zm2.84.94l.87.2h.09v3.28h-.1l-.87-.19-.68-.19v-3.29l.57.15.12.04zm3.2.57l.94.1h.12v3.3a10.13 10.13 0 0 1-1.12-.1l-.53-.07-.54-.09v-3.28l.9.13.23.01zm3.25.19H139v3.29H136.81v-3.25h1.09l-.09-.04zm3.76 3l-.39.05-.86.09h-.29v-3.3h.54l.54-.06a5.33 5.33 0 0 0 .79-.1l.33-.06v3.3h-.14l-.52.08zm2.16-3.7l.69-.16.52-.16v3.31c-.52.16-1.07.29-1.65.41V380l.44-.13zm2.31-.64h.11c.2-.07.41-.14.6-.22l.39-.17v3.31c-.35.15-.72.29-1.1.43v-3.35zm2.2 2.34v-3.17c.38-.11.75-.24 1.1-.36v2.84a10.7 10.7 0 0 1-1.06.69h-.04zm3.3-4.07c-.009.42-.1.835-.27 1.22l-.05.1a4.36 4.36 0 0 1-.64 1l-.1.12v-2.34c.38-.17.75-.35 1.1-.54v.44h-.04zm-25.26.18h.05c.206.136.42.26.64.37l.16.11.27.15v2.78h-.79l-.3-.21v-3.2h-.03zm5.49 9.38c.35.14.72.29 1.09.42v3.31c-.38-.13-.74-.28-1.09-.43v-3.3zm2.2.76c.53.15 1.07.29 1.64.41v3.29c-.56-.12-1.11-.26-1.64-.41v-3.29zm2.74.64h.26l.4.06.64.07.64.07h.35V392c-.75-.06-1.48-.15-2.19-.26v-3.29l-.1.01zm17.58-18.18v1.74a3.58 3.58 0 0 1-1.09 2.44v-3.06l.09-.08.1-.09.39-.37.1-.1a5.46 5.46 0 0 0 .39-.45l.02-.03zm-13.7-9c7.69 0 13.72 2.66 13.72 6s-6.37 6.72-13.68 6.72-13.73-3.07-13.73-6.59c-.02-3.41 6.04-6.07 13.73-6.07l-.04-.06zm-16.47 16.17v-1.74c.12.16.25.31.39.45l.1.1c.12.12.25.25.39.37l.09.09.11.14V380a3.65 3.65 0 0 1-1.11-2.44l.03-.11zm3.3 8.24V384c.322.409.687.78 1.09 1.11v3.07a3.62 3.62 0 0 1-1.12-2.45l.03-.04zm12.62 6.32v-3.3h2.2v3.34h-2.22l.02-.04zM154.9 384v1.74a3.6 3.6 0 0 1-1.09 2.44v-3.06l.09-.08.1-.09.39-.37.1-.1c.14-.147.27-.297.39-.45l.02-.03z"/>
        <path fill="#F2C400" fill-rule="nonzero" d="M133.8 372l4.09-1.48v-.06a2.85 2.85 0 0 1-1.75-1.85 1.26 1.26 0 0 1-.58-.49 1 1 0 0 1-.09-.78l.1-.34c.15-.396.47-.704.87-.84a3.25 3.25 0 0 1 .56-.76l.24-.23a2.29 2.29 0 0 1 0-.37.66.66 0 0 1 1-.48c.103.073.218.127.34.16a4.32 4.32 0 0 0 1.56.19h.28c1.35 0 3.21.17 4 1.54.406.137.729.45.88.85l.1.34a1 1 0 0 1-.09.78 1.28 1.28 0 0 1-.58.5 2.88 2.88 0 0 1-1.73 1.82v.06l4.12 1.54c3.74-1 6.06-2.9 6.06-4.62 0-2.43-4.73-4.94-12.63-4.94S128 365.05 128 367.48c0 1.62 2.2 3.43 5.8 4.52z"/>
    </g>
</svg>
