<svg xmlns="http://www.w3.org/2000/svg" width="49" height="64" viewBox="0 0 49 64">
    <g fill="none" fill-rule="nonzero">
        <path fill="#000" d="M28.907 64c-.34 0-.678-.13-.938-.39a1.34 1.34 0 0 1 0-1.885l15.9-16c2.406-2.421 2.406-6.36 0-8.781a6.15 6.15 0 0 0-8.727 0l-19.875 20a8.79 8.79 0 0 1-12.473 0c-3.44-3.461-3.44-9.09 0-12.552l9.275-9.333a1.32 1.32 0 0 1 1.873 0 1.34 1.34 0 0 1 0 1.885l-9.275 9.333c-2.406 2.422-2.406 6.36 0 8.782a6.15 6.15 0 0 0 8.727 0l19.875-20a8.79 8.79 0 0 1 12.473 0c3.44 3.461 3.44 9.09 0 12.552l-15.9 16c-.257.258-.596.389-.935.389z"/>
        <path fill="#000" d="M16.982 36c-.34 0-.678-.13-.938-.39l-2.65-2.666a1.34 1.34 0 0 1 0-1.885 1.32 1.32 0 0 1 1.873 0l2.65 2.666a1.34 1.34 0 0 1 0 1.886c-.257.258-.596.389-.935.389zM20.957 34.667c-.34 0-.678-.131-.938-.39l-5.3-5.333a1.34 1.34 0 0 1 0-1.885 1.32 1.32 0 0 1 1.873 0l5.3 5.333a1.34 1.34 0 0 1 0 1.885c-.257.259-.596.39-.935.39zM24.932 33.333c-.34 0-.678-.13-.938-.389l-7.95-8a1.34 1.34 0 0 1 0-1.885 1.32 1.32 0 0 1 1.873 0l7.95 8a1.34 1.34 0 0 1 0 1.885c-.257.259-.596.39-.935.39z"/>
        <path fill="#1EB0CD" d="M46.68 9.333l-3.588 3.611c-.257.259-.596.39-.935.39-.34 0-.678-.131-.938-.39a1.34 1.34 0 0 1 0-1.885l3.588-3.611-.776-.781-3.589 3.61c-.257.259-.596.39-.935.39-.34 0-.678-.131-.938-.39a1.34 1.34 0 0 1 0-1.885l3.588-3.61L41.38 4l-3.589 3.61c-.257.26-.596.39-.935.39-.34 0-.678-.13-.938-.39a1.34 1.34 0 0 1 0-1.885l3.588-3.61L37.795.392c-.254-.253-.583-.37-.954-.39a1.322 1.322 0 0 0-.943.417c-2.632 2.784-5.637 5.877-6.284 6.405a1.336 1.336 0 0 0-.32 2.123l10.6 10.666c.262.256.601.387.938.387.337 0 .678-.13.938-.39l6.625-6.666a1.34 1.34 0 0 0 0-1.885L46.68 9.333z"/>
        <g fill="#1EB0CD">
            <path d="M31.551 19.441l-2.1-2.1 2.113-2.114 2.1 2.1z"/>
            <path d="M43.095 19.056l-1.325-1.333a1.32 1.32 0 0 0-1.874 0L31.17 8.94a1.34 1.34 0 0 0 0-1.885l-1.325-1.333a1.32 1.32 0 0 0-1.874 0l-10.6 10.666c-.249.251-.39.59-.39.944V20c0 .355.141.693.388.944l10.6 10.667c.252.248.588.389.938.389h2.65c.352 0 .689-.141.938-.39l10.6-10.666a1.343 1.343 0 0 0 0-1.888zm-6.625-.779l-3.975 4a1.327 1.327 0 0 1-1.876 0l-1.05-1.056-1.049 1.056a1.327 1.327 0 0 1-1.876 0 1.34 1.34 0 0 1 0-1.885l1.05-1.056-1.047-1.059a1.34 1.34 0 0 1 0-1.885l3.975-4a1.32 1.32 0 0 1 1.873 0l3.975 4a1.34 1.34 0 0 1 0 1.885z"/>
        </g>
    </g>
</svg>
