<svg xmlns="http://www.w3.org/2000/svg" width="51" height="64" viewBox="0 0 51 64">
    <g fill="none" fill-rule="evenodd">
        <path d="M-6-1h64v64H-6z"/>
        <path fill="#1EB0CD" fill-rule="nonzero" d="M49.35 0h-31.8c-.061 0-.111.027-.17.035a1.16 1.16 0 0 0-.167.034 1.31 1.31 0 0 0-.601.323L.715 16.389c-.162.163-.26.374-.321.603a1.298 1.298 0 0 0-.035.17c-.008.06-.034.11-.034.171v45.334A1.33 1.33 0 0 0 1.65 64h47.7a1.33 1.33 0 0 0 1.325-1.333V1.333A1.33 1.33 0 0 0 49.35 0zM10.925 54.667A1.33 1.33 0 0 1 9.6 56a1.33 1.33 0 0 1-1.325-1.333v-5.334A1.33 1.33 0 0 1 9.6 48a1.33 1.33 0 0 1 1.325 1.333v5.334zm5.3 0A1.33 1.33 0 0 1 14.9 56a1.33 1.33 0 0 1-1.325-1.333V41.333A1.33 1.33 0 0 1 14.9 40a1.33 1.33 0 0 1 1.325 1.333v13.334zm0-40A1.33 1.33 0 0 1 14.9 16H4.849L16.225 4.552v10.115zm5.3 40A1.33 1.33 0 0 1 20.2 56a1.33 1.33 0 0 1-1.325-1.333V33.333A1.33 1.33 0 0 1 20.2 32a1.33 1.33 0 0 1 1.325 1.333v21.334zM41.4 56H25.5a1.33 1.33 0 0 1-1.325-1.333 1.33 1.33 0 0 1 1.325-1.334h15.9a1.33 1.33 0 0 1 1.325 1.334A1.33 1.33 0 0 1 41.4 56zm0-8H25.5a1.33 1.33 0 0 1-1.325-1.333 1.33 1.33 0 0 1 1.325-1.334h15.9a1.33 1.33 0 0 1 1.325 1.334A1.33 1.33 0 0 1 41.4 48zm0-8H25.5a1.33 1.33 0 0 1-1.325-1.333 1.33 1.33 0 0 1 1.325-1.334h15.9a1.33 1.33 0 0 1 1.325 1.334A1.33 1.33 0 0 1 41.4 40z"/>
        <path fill="#1F282C" d="M27.58 9.061c.411-.197.89-.168 1.278.075.384.245.617.672.617 1.13v7.067c0 2.206 1.783 4 3.975 4h7.022c.456 0 .88.235 1.121.622.244.386.273.872.075 1.285-1.781 3.76-5.438 6.093-9.543 6.093-5.846 0-10.6-4.784-10.6-10.666 0-4.131 2.319-7.811 6.055-9.606z"/>
        <path fill="#1F282C" d="M44.05 18.667h-10.6a1.33 1.33 0 0 1-1.325-1.334V6.667a1.33 1.33 0 0 1 1.325-1.334c6.575 0 11.925 5.384 11.925 12a1.33 1.33 0 0 1-1.325 1.334z"/>
    </g>
</svg>
