<svg xmlns="http://www.w3.org/2000/svg" width="48" height="64" viewBox="0 0 48 64">
    <g fill="none" fill-rule="nonzero">
        <path fill="#000" d="M18.667 37.333h8V40h-8zM10.667 37.333H16V40h-5.333zM29.333 37.333h8V40h-8zM18.667 26.667h8v2.667h-8zM18.667 32h8v2.667h-8z"/>
        <path fill="#1EB0CD" d="M46.667 0H17.333c-.061 0-.112.027-.17.035a1.173 1.173 0 0 0-.168.034c-.23.062-.443.16-.606.323L.392 16.389a1.312 1.312 0 0 0-.323.603 1.29 1.29 0 0 0-.034.17c-.008.06-.035.11-.035.171v45.334C0 63.403.597 64 1.333 64h45.334c.736 0 1.333-.597 1.333-1.333V1.333C48 .597 47.403 0 46.667 0zM16 4.552v10.115c0 .736-.597 1.333-1.333 1.333H4.552L16 4.552zM40 52c0 .736-.597 1.333-1.333 1.333H9.333A1.334 1.334 0 0 1 8 52V25.333C8 24.597 8.597 24 9.333 24h29.334c.736 0 1.333.597 1.333 1.333V52z"/>
        <path fill="#000" d="M18.667 48h8v2.667h-8zM29.333 32h8v2.667h-8zM18.667 42.667h8v2.667h-8zM10.667 26.667H16v2.667h-5.333zM10.667 48H16v2.667h-5.333zM29.333 48h8v2.667h-8zM10.667 32H16v2.667h-5.333zM10.667 42.667H16v2.667h-5.333zM29.333 26.667h8v2.667h-8zM29.333 42.667h8v2.667h-8z"/>
    </g>
</svg>
