<svg xmlns="http://www.w3.org/2000/svg" width="894" height="288" viewBox="0 0 894 288">
    <g fill="none" fill-rule="nonzero">
        <path fill="#3CB0CB" d="M254.58 145H153.25c-17.12 0-31-13.88-31-31V72h2v42c0 16.016 12.984 29 29 29h101.33v2z"/>
        <path fill="#3CB0CB" d="M124.25 217h-2v-43c0-17.12 13.88-31 31-31h101.33v2H153.25c-16.016 0-29 12.984-29 29v43zM413.75 253.43h-2v-43c0-16.016-12.984-29-29-29H281.42v-2h101.33c17.12 0 31 13.88 31 31v43zM382.75 108.52H281.42v-2h101.33a29 29 0 0 0 29-29v-43h2v43c0 17.12-13.88 31-31 31zM552.57 87V45h-2v42a30.84 30.84 0 0 0 6.32 18.73 39.938 39.938 0 0 1 1.55-1.26A28.85 28.85 0 0 1 552.57 87zM550.57 201v42h2v-42a28.86 28.86 0 0 1 6.52-18.29 73.752 73.752 0 0 1-1.74-1 30.84 30.84 0 0 0-6.78 19.29zM760.25 145v-2h-134.5c-.08.67-.19 1.34-.3 2h134.8zM428.43 143v2H542.7c-.12-.66-.22-1.33-.3-2h-114 .03z"/>
        <path fill="#F1FAFC" d="M1.25 1.8h244v73.7h-244z"/>
        <path fill="#3CB0CB" d="M246.25 76.5H.25V.8h246v75.7zm-244-2h242V2.8h-242v71.7z"/>
        <path fill="#F1FAFC" d="M1.25 212.5h244v73.7h-244z"/>
        <path fill="#3CB0CB" d="M246.25 287.2H.25v-75.7h246v75.7zm-244-2h242v-71.7h-242v71.7z"/>
        <path fill="#F1FAFC" d="M373.23 1.8h244v73.7h-244z"/>
        <path fill="#3CB0CB" d="M618.23 76.5h-246V.8h246v75.7zm-244-2h242V2.8h-242v71.7z"/>
        <path fill="#F1FAFC" d="M373.23 209.41h244v73.7h-244z"/>
        <path fill="#3CB0CB" d="M618.23 284.11h-246v-75.7h246v75.7zm-244-2h242v-71.7h-242v71.7z"/>
        <path fill="#1F282C" d="M608.82 158.07c9.695-11.804 9.695-28.816 0-40.62l-20.31 20.31 20.31 20.31z"/>
        <path fill="#3CB0CB" d="M604.38 162.51l-20.31-20.31-20.31 20.31-6.66 6.66c15.513 13.32 38.427 13.32 53.94 0l-6.66-6.66zM584 152.16l8.38 8.43h-16.74l8.36-8.43z"/>
        <path fill="#1F282C" d="M584.07 105.75a32 32 0 0 0-24.75 52.32L604.38 113a31.88 31.88 0 0 0-20.31-7.27M91.29 18.88h11.12V33h-2V20.6h-7.16V33h-2V18.88zM110.36 22.64a5.3 5.3 0 1 1-5.44 5.28 5.28 5.28 0 0 1 5.44-5.28zm0 8.92a3.62 3.62 0 1 0-3.48-3.64 3.51 3.51 0 0 0 3.5 3.64h-.02zM118.15 22.88H120v6c0 .54 0 1.26-.06 1.36.08-.18.56-.88.9-1.36l4.36-6h1.88V33h-1.88v-6c0-.48.06-1.18.06-1.34a15.9 15.9 0 0 1-.86 1.34l-4.4 6h-1.86V22.88h.01zM134.88 22.64a5.3 5.3 0 0 1 3.8 1.48l-.92 1.36a4.1 4.1 0 0 0-2.8-1.16 3.46 3.46 0 0 0-3.52 3.6 3.51 3.51 0 0 0 3.56 3.64 4.52 4.52 0 0 0 3.12-1.36l.78 1.42a5.67 5.67 0 0 1-4 1.62 5.3 5.3 0 1 1-.02-10.6zM141 22.88h2V27h1.42l2.76-4.08h2.2L146 27.7l3.74 5.3h-2.3l-3-4.38H143V33h-2zM155.82 22.64a5.3 5.3 0 1 1-5.44 5.28 5.28 5.28 0 0 1 5.44-5.28zm0 8.92a3.62 3.62 0 1 0-3.48-3.64 3.51 3.51 0 0 0 3.5 3.64h-.02zM163.61 22.88h4.18c2 0 3.38.9 3.38 2.6a2.35 2.35 0 0 1-1.44 2.22 2.38 2.38 0 0 1 1.92 2.4c0 1.88-1.52 2.88-3.72 2.88h-4.32v-10.1zm3.84 4.28a1.49 1.49 0 0 0 1.74-1.54c0-.92-.58-1.4-1.8-1.4h-1.84v2.94h1.9zm.18 4.48c1.4 0 2.06-.64 2.06-1.58 0-.94-.74-1.6-2.08-1.6h-2.06v3.18h2.08zM179.21 26.7h.52v-.2a2 2 0 0 0-2.22-2.22 5.07 5.07 0 0 0-2.84 1l-.78-1.42a6.45 6.45 0 0 1 3.78-1.2c2.54 0 4 1.4 4 4V33h-1.82v-1c0-.268.02-.535.06-.8a3.73 3.73 0 0 1-3.32 2.06 3.12 3.12 0 0 1-3.38-3c-.04-3.2 3.9-3.56 6-3.56zm-2.2 5c1.7 0 2.72-1.72 2.72-3.22v-.38h-.5c-1.44 0-4.12.12-4.12 2a1.71 1.71 0 0 0 1.89 1.6h.01zM185.85 29.64c.135-.22.29-.427.46-.62a3 3 0 0 1-2.2-2.94c0-2.08 1.48-3.18 3.62-3.18h4V33h-1.94v-3.66h-1.7L185.65 33h-2.14l2.34-3.36zm4-1.72v-3.7h-1.62c-1.3 0-2.14.52-2.14 1.82a1.84 1.84 0 0 0 2.08 1.88h1.68zM95.72 46.64a5.3 5.3 0 1 1-5.44 5.28 5.28 5.28 0 0 1 5.44-5.28zm0 8.92a3.62 3.62 0 1 0-3.48-3.64 3.51 3.51 0 0 0 3.5 3.64h-.02zM103.51 46.88h8.84V57h-1.94v-8.46h-5V57h-1.94V46.88zM117.79 48.54h-3.52v-1.66h9v1.66h-3.54V57h-1.92v-8.46zM125.15 46.88H127v6c0 .54 0 1.26-.06 1.36.08-.18.56-.88.9-1.36l4.36-6h1.88V57h-1.88v-6c0-.48.06-1.18.06-1.34a15.9 15.9 0 0 1-.86 1.34l-4.4 6h-1.86V46.88h.01zM137.57 46.88h2.16l2.58 5.72c.28.6.56 1.36.56 1.36s.3-.74.56-1.36l2.64-5.72h2.12l.93 10.12h-1.88l-.44-6v-1.74s-.26.7-.64 1.48l-2.4 5.06h-1.66l-2.4-5-.7-1.56s.06 1.14 0 1.74l-.44 6h-1.88l.89-10.1zM151.71 46.88h1.86v6c0 .54 0 1.26-.06 1.36.08-.18.56-.88.9-1.36l4.36-6h1.88V57h-1.88v-6c0-.48.06-1.18.06-1.34A15.9 15.9 0 0 1 158 51l-4.38 6h-1.86V46.88h-.05zM163.59 54.48a3.82 3.82 0 0 0 2.64 1.2c1.16 0 2.1-.56 2.1-1.66 0-1.1-.66-1.54-2.08-1.54H165v-1.4h1.06c1.14 0 1.92-.44 1.92-1.46s-.68-1.46-1.8-1.46a4 4 0 0 0-2.46.88l-.72-1.3a5.75 5.75 0 0 1 3.52-1.1c1.92 0 3.42.94 3.42 2.74a2.33 2.33 0 0 1-1.48 2.3 2.39 2.39 0 0 1 1.82 2.38c0 2.08-1.8 3.14-3.88 3.14a5.46 5.46 0 0 1-3.72-1.48l.91-1.24zM177.83 50.7h.52v-.2a2 2 0 0 0-2.22-2.22 5.07 5.07 0 0 0-2.84 1l-.78-1.42a6.45 6.45 0 0 1 3.78-1.2c2.54 0 4 1.4 4 4V57h-1.82v-1c0-.268.02-.535.06-.8a3.73 3.73 0 0 1-3.32 2.06 3.12 3.12 0 0 1-3.38-3c-.04-3.2 3.9-3.56 6-3.56zm-2.2 5c1.7 0 2.72-1.72 2.72-3.22v-.38h-.5c-1.44 0-4.12.12-4.12 2a1.71 1.71 0 0 0 1.9 1.6zM183.15 46.88h1.94v8.44h4.82v-8.44h2v8.44h1.42v4.08h-1.78V57h-8.36V46.88zM195.35 46.88h1.86v6c0 .54 0 1.26-.06 1.36.08-.18.56-.88.9-1.36l4.36-6h1.88V57h-1.88v-6c0-.48.06-1.18.06-1.34a15.9 15.9 0 0 1-.88 1.34l-4.38 6h-1.86V46.88zM208.63 53.64c.135-.22.29-.427.46-.62a3 3 0 0 1-2.2-2.94c0-2.08 1.48-3.18 3.62-3.18h4V57h-1.94v-3.66h-1.7L208.43 57h-2.14l2.34-3.36zm4-1.72v-3.7H211c-1.3 0-2.14.52-2.14 1.82a1.84 1.84 0 0 0 2.08 1.88h1.69zM455.49 29.28a4.73 4.73 0 0 0 3.32 1.48c1.72 0 2.94-1 2.94-2.56a2.35 2.35 0 0 0-2.64-2.34h-1.74v-1.64h1.4a2.36 2.36 0 0 0 2.54-2.28 2.2 2.2 0 0 0-2.5-2.26 4.83 4.83 0 0 0-3.16 1.2l-.85-1.48a6.46 6.46 0 0 1 4.28-1.46c2.42 0 4.24 1.4 4.24 3.76a3.43 3.43 0 0 1-2 3.18 3.34 3.34 0 0 1 2.48 3.38c0 2.62-2.14 4.24-4.8 4.24a6.31 6.31 0 0 1-4.58-1.92l1.07-1.3zM466.26 22.18h4.18c2 0 3.38.9 3.38 2.6a2.35 2.35 0 0 1-1.43 2.22 2.38 2.38 0 0 1 1.92 2.4c0 1.88-1.52 2.88-3.72 2.88h-4.32v-10.1h-.01zm3.84 4.28a1.49 1.49 0 0 0 1.74-1.54c0-.92-.58-1.4-1.8-1.4h-1.84v2.94h1.9zm.18 4.48c1.4 0 2.06-.64 2.06-1.58 0-.94-.74-1.6-2.08-1.6h-2.06v3.18h2.08zM481.45 21.94a5.3 5.3 0 1 1-5.45 5.28 5.28 5.28 0 0 1 5.45-5.28zm0 8.92a3.62 3.62 0 1 0-3.45-3.64 3.51 3.51 0 0 0 3.47 3.64h-.02zM489.24 22.18h1.94v4.12h5.12v-4.12h1.94V32.3h-1.94V28h-5.12v4.3h-1.94zM501.24 22.18h1.94v4.08h1.42l2.76-4.08h2.2L506.19 27l3.81 5.3h-2.3l-3-4.38h-1.46v4.38h-1.94V22.18zM511.68 22.18h1.86v6c0 .54 0 1.26-.06 1.36.08-.18.56-.88.9-1.36l4.36-6h1.88V32.3h-1.88v-6c0-.48.06-1.18.06-1.34a15.9 15.9 0 0 1-.88 1.34l-4.38 6h-1.86V22.18zM524.08 30.2h2l-1.74 4.12h-1.54zM534 29.78a3.82 3.82 0 0 0 2.64 1.2c1.16 0 2.1-.56 2.1-1.66 0-1.1-.66-1.54-2.08-1.54h-1.24v-1.4h1.06c1.14 0 1.92-.44 1.92-1.46s-.68-1.46-1.8-1.46a4 4 0 0 0-2.46.88l-.72-1.34a5.75 5.75 0 0 1 3.52-1.1c1.92 0 3.42.94 3.42 2.74a2.33 2.33 0 0 1-1.48 2.3 2.39 2.39 0 0 1 1.82 2.38c0 2.08-1.8 3.14-3.88 3.14a5.46 5.46 0 0 1-3.72-1.48l.9-1.2zM548.24 26h.52v-.2a2 2 0 0 0-2.22-2.22 5.07 5.07 0 0 0-2.84 1l-.78-1.42a6.45 6.45 0 0 1 3.78-1.2c2.54 0 4 1.4 4 4v6.4h-1.82v-1c0-.268.02-.535.06-.8a3.73 3.73 0 0 1-3.32 2.06 3.12 3.12 0 0 1-3.38-3c-.04-3.26 3.9-3.62 6-3.62zM546 31c1.7 0 2.72-1.72 2.72-3.22v-.38h-.5c-1.44 0-4.12.12-4.12 2A1.71 1.71 0 0 0 546 31zM554.88 28.94c.135-.22.29-.427.46-.62a3 3 0 0 1-2.2-2.94c0-2.08 1.48-3.18 3.62-3.18h4v10.1h-1.94v-3.66h-1.7l-2.48 3.66h-2.14l2.38-3.36zm4-1.72v-3.7h-1.62c-1.3 0-2.14.52-2.14 1.82a1.84 1.84 0 0 0 2.08 1.88h1.68zM563.8 22.18h4.2c2 0 3.38.9 3.38 2.6a2.35 2.35 0 0 1-1.46 2.22 2.38 2.38 0 0 1 1.92 2.4c0 1.88-1.52 2.88-3.72 2.88h-4.32v-10.1zm3.84 4.28a1.49 1.49 0 0 0 1.74-1.54c0-.92-.58-1.4-1.8-1.4h-1.84v2.94h1.9zm.18 4.48c1.4 0 2.06-.64 2.06-1.58 0-.94-.74-1.6-2.08-1.6h-2.06v3.18h2.08zM574.2 22.18h1.94v4.08h1.42l2.76-4.08h2.2L579.14 27l3.78 5.26h-2.3l-3-4.38h-1.46v4.42h-1.96zM584.64 22.18h1.86v6c0 .54 0 1.26-.06 1.36.08-.18.56-.88.9-1.36l4.36-6h1.88V32.3h-1.88v-6c0-.48.06-1.18.06-1.34a15.9 15.9 0 0 1-.88 1.34l-4.38 6h-1.86V22.18zM597 30.2h2l-1.74 4.12h-1.46zM454.71 49.48v-3.3h1.9v3c0 1 .36 1.9 2 1.9a4 4 0 0 0 2.24-.72v-4.2h1.94V56.3h-1.94v-3.66-.6a5.67 5.67 0 0 1-2.74.74c-2.16 0-3.4-1.14-3.4-3.3zM471 50h.52v-.2a2 2 0 0 0-2.22-2.22 5.07 5.07 0 0 0-2.84 1l-.78-1.42a6.45 6.45 0 0 1 3.78-1.2c2.54 0 4 1.4 4 4v6.4h-1.82v-1c0-.268.02-.535.06-.8a3.73 3.73 0 0 1-3.32 2.06 3.12 3.12 0 0 1-3.38-3c0-3.26 3.91-3.62 6-3.62zm-2.2 5c1.7 0 2.72-1.72 2.72-3.22v-.38H471c-1.44 0-4.12.12-4.12 2a1.71 1.71 0 0 0 1.93 1.6h-.01zM478.63 47.84h-3.53v-1.66h9v1.66h-3.54v8.46h-1.92v-8.46zM486 46.18h1.94v3.66h2c2.1 0 3.68 1 3.68 3.26 0 1.9-1.16 3.2-3.7 3.2H486V46.18zm3.64 8.72a1.73 1.73 0 0 0 2-1.82 1.75 1.75 0 0 0-2-1.84h-1.68v3.66h1.7-.02zm5.52-8.72h1.94V56.3h-1.94V46.18zM500.52 54.2h2l-1.74 4.12h-1.54zM510.44 53.78a3.82 3.82 0 0 0 2.64 1.2c1.16 0 2.1-.56 2.1-1.66 0-1.1-.66-1.54-2.08-1.54h-1.24v-1.4h1.06c1.14 0 1.92-.44 1.92-1.46s-.68-1.46-1.8-1.46a4 4 0 0 0-2.46.88l-.72-1.34a5.75 5.75 0 0 1 3.52-1.1c1.92 0 3.42.94 3.42 2.74a2.33 2.33 0 0 1-1.48 2.3 2.39 2.39 0 0 1 1.82 2.38c0 2.08-1.8 3.14-3.88 3.14a5.46 5.46 0 0 1-3.72-1.48l.9-1.2zM524.68 50h.52v-.2a2 2 0 0 0-2.2-2.22 5.07 5.07 0 0 0-2.84 1l-.78-1.42a6.45 6.45 0 0 1 3.78-1.2c2.54 0 4 1.4 4 4v6.4h-1.82v-1c0-.268.02-.535.06-.8a3.73 3.73 0 0 1-3.4 1.98 3.12 3.12 0 0 1-3.38-3c.02-3.18 3.96-3.54 6.06-3.54zm-2.2 5c1.7 0 2.72-1.72 2.72-3.22v-.38h-.5c-1.44 0-4.12.12-4.12 2a1.71 1.71 0 0 0 1.9 1.6zM530 46.18h1.94v4.08h1.42l2.76-4.08h2.2L534.94 51l3.78 5.26h-2.3l-3-4.38h-1.46v4.42H530zM545.54 50h.52v-.2a2 2 0 0 0-2.22-2.22 5.07 5.07 0 0 0-2.84 1l-.78-1.42a6.45 6.45 0 0 1 3.78-1.2c2.54 0 4 1.4 4 4v6.4h-1.82v-1c0-.268.02-.535.06-.8a3.73 3.73 0 0 1-3.32 2.06 3.12 3.12 0 0 1-3.38-3c-.04-3.26 3.9-3.62 6-3.62zm-2.2 5c1.7 0 2.72-1.72 2.72-3.22v-.38h-.5c-1.44 0-4.12.12-4.12 2a1.71 1.71 0 0 0 1.9 1.6zM550.78 53.78a3.82 3.82 0 0 0 2.64 1.2c1.16 0 2.1-.56 2.1-1.66 0-1.1-.66-1.54-2.08-1.54h-1.24v-1.4h1.06c1.14 0 1.92-.44 1.92-1.46s-.68-1.46-1.8-1.46a4 4 0 0 0-2.46.88L550.2 47a5.75 5.75 0 0 1 3.52-1.1c1.92 0 3.42.94 3.42 2.74a2.33 2.33 0 0 1-1.48 2.3 2.39 2.39 0 0 1 1.82 2.38c0 2.08-1.8 3.14-3.88 3.14a5.46 5.46 0 0 1-3.72-1.48l.9-1.2zM559.82 46.18h1.94v3.66h2c2.1 0 3.68 1 3.68 3.26 0 1.9-1.16 3.2-3.7 3.2h-3.9V46.18h-.02zm3.64 8.72a1.73 1.73 0 0 0 2-1.82 1.75 1.75 0 0 0-2-1.84h-1.68v3.66h1.7-.02zm5.54-8.72h1.94V56.3H569V46.18zM67.91 37.35v-6.23l-3.14-.31a17.59 17.59 0 0 0-2.66-6.41l2-2.44-4.41-4.41-2.44 2a17.59 17.59 0 0 0-6.41-2.66l-.31-3.14H44.3l-.3 3.13a17.59 17.59 0 0 0-6.41 2.66l-2.44-2-4.41 4.41 2 2.44a17.59 17.59 0 0 0-2.66 6.41l-3.14.31v6.23l3.14.31a17.59 17.59 0 0 0 2.66 6.41l-2 2.44 4.41 4.41 2.44-2A17.59 17.59 0 0 0 44 51.59l.31 3.14h6.23l.31-3.14a17.59 17.59 0 0 0 6.41-2.66l2.44 2 4.41-4.41-2-2.44a17.59 17.59 0 0 0 2.66-6.41l3.14-.32zM47.42 47.64c-7.4 0-13.4-6-13.4-13.4s6-13.4 13.4-13.4 13.4 6 13.4 13.4a13.4 13.4 0 0 1-13.4 13.4z"/>
        <circle cx="47.42" cy="34.23" r="3.12" fill="#1F282C"/>
        <path fill="#3CB0CB" d="M47.42 23.7c-5.809.028-10.498 4.754-10.48 10.563.018 5.81 4.738 10.506 10.547 10.497C53.296 44.75 58 40.039 58 34.23A10.53 10.53 0 0 0 47.42 23.7zm0 17a6.49 6.49 0 1 1 6.49-6.49 6.49 6.49 0 0 1-6.49 6.51v-.02zM27.27 48.18l-7.91 7.91a4.39 4.39 0 0 0 0 6.19 4.39 4.39 0 0 0 6.19 0l7.91-7.91c.124-.116.24-.24.35-.37l-6.15-6.15a4.37 4.37 0 0 0-.39.33z"/>
        <path fill="#F1FAFC" d="M755.76 75.5h136.99v136.99H755.76z"/>
        <path fill="#3CB0CB" d="M893.75 213.5h-139v-139h139v139zm-137-2h135v-135h-135v135zM396.15 45.38c7.11 10.7 16.35 17.07 20.63 14.23l5.22-3.44a2.33 2.33 0 0 0 .65-3.23l-4.29-6.46a2.33 2.33 0 0 0-3.23-.65l-3.88 2.58a32.29 32.29 0 0 1-12-18.09l3.88-2.58a2.33 2.33 0 0 0 .65-3.23l-4.29-6.46a2.33 2.33 0 0 0-3.23-.65L391 20.85c-4.26 2.84-2 13.83 5.15 24.53z"/>
        <path fill="#1F282C" d="M435.42 22.55h-27.16a2 2 0 0 1 0-4h27.15a2 2 0 0 1 .01 4zM435.42 32.3h-20.67a2 2 0 0 1 0-4h20.67a2 2 0 0 1 0 4zM435.42 42h-13.54a2 2 0 0 1 0-4h13.54a2 2 0 0 1 0 4zM435.42 51.8H428a2 2 0 0 1 0-4h7.42a2 2 0 0 1 0 4z"/>
        <path fill="#F1FAFC" d="M187.24 107.15h244v73.7h-244z"/>
        <path fill="#3CB0CB" d="M432.24 181.85h-246v-75.7h246v75.7zm-244-2h242v-71.7h-242v71.7z"/>
        <path fill="#1F282C" d="M317.42 136a7.53 7.53 0 0 1 5.16 1.86l-1 1.48a6.47 6.47 0 0 0-4.08-1.54 5.08 5.08 0 0 0-5.22 5.4c0 3 2 5.58 5.26 5.58a6.29 6.29 0 0 0 4.34-1.84l1.06 1.42a7.48 7.48 0 0 1-5.46 2.24 7.3 7.3 0 1 1-.06-14.6zM330.28 144h.52v-.2a2 2 0 0 0-2.22-2.22 5.07 5.07 0 0 0-2.84 1l-.74-1.39a6.45 6.45 0 0 1 3.78-1.2c2.54 0 4 1.4 4 4v6.4h-1.82v-1c0-.268.02-.535.06-.8a3.73 3.73 0 0 1-3.32 2.06 3.12 3.12 0 0 1-3.38-3c-.08-3.24 3.86-3.65 5.96-3.65zm-2.2 5c1.7 0 2.72-1.72 2.72-3.22v-.38h-.5c-1.44 0-4.12.12-4.12 2a1.71 1.71 0 0 0 1.9 1.6zM335.6 140.23h1.86v6c0 .54 0 1.26-.06 1.36.08-.18.56-.88.9-1.36l4.36-6h1.88v10.12h-1.84v-6c0-.48.06-1.18.06-1.34a15.9 15.9 0 0 1-.88 1.34l-4.38 6h-1.9v-10.12zm1.5-3.72v-.3h1.56v.28a1.31 1.31 0 0 0 1.4 1.32 1.33 1.33 0 0 0 1.42-1.34v-.26H343v.3a3 3 0 0 1-5.9 0zM350 141.89h-3.52v-1.66h9v1.66h-3.54v8.46H350zM106.1 241.57h5.18a4.2 4.2 0 0 1 4.42 4.42 4.25 4.25 0 0 1-4.42 4.48h-3.2v5.22h-2v-14.12h.02zm4.86 7.18a2.56 2.56 0 0 0 2.74-2.76 2.52 2.52 0 0 0-2.72-2.7h-2.9v5.46H111h-.04zM121.94 245.33c2.86 0 4.38 2.14 4.38 4.74a6.12 6.12 0 0 1-.08.82h-7.36a3.34 3.34 0 0 0 3.48 3.36 4.58 4.58 0 0 0 3-1.18l.82 1.42a6.06 6.06 0 0 1-3.92 1.44 5.17 5.17 0 0 1-5.38-5.3 5 5 0 0 1 5.06-5.3zm2.42 4.16a2.46 2.46 0 0 0-2.46-2.66 2.94 2.94 0 0 0-3 2.66h5.46zM128.66 245.57h1.94v4.08h1.4l2.76-4.08H137l-3.38 4.82 3.78 5.26h-2.3l-3-4.38h-1.5v4.38h-1.94zM138 254.06c1.48-.22 2.28-1.7 2.28-5.36v-3.12h6.78v10.12h-1.94v-8.52h-3v1.52c0 4.58-1.16 6.94-4.14 7.1v-1.74h.02zM155.26 249.4h.52v-.2a2 2 0 0 0-2.22-2.22 5.07 5.07 0 0 0-2.84 1l-.78-1.42a6.45 6.45 0 0 1 3.78-1.2c2.54 0 4 1.4 4 4v6.4h-1.82v-1c0-.268.02-.535.06-.8a3.73 3.73 0 0 1-3.32 2.06 3.12 3.12 0 0 1-3.38-3c-.04-3.27 3.9-3.62 6-3.62zm-2.2 5c1.7 0 2.72-1.72 2.72-3.22v-.38h-.5c-1.44 0-4.12.12-4.12 2a1.71 1.71 0 0 0 1.9 1.6zM161 245.57h2.16l2.58 5.72c.28.6.56 1.36.56 1.36s.3-.74.56-1.36l2.64-5.72h2.12l.88 10.12h-1.8l-.44-6v-1.74s-.26.7-.64 1.48l-2.4 5.06h-1.66l-2.4-5-.64-1.5s.06 1.14 0 1.74l-.44 6h-1.88l.8-10.16zM180.38 249.4h.52v-.2a2 2 0 0 0-2.22-2.22 5.07 5.07 0 0 0-2.84 1l-.78-1.42a6.45 6.45 0 0 1 3.78-1.2c2.54 0 4 1.4 4 4v6.4H181v-1c0-.268.02-.535.06-.8a3.73 3.73 0 0 1-3.32 2.06 3.12 3.12 0 0 1-3.38-3c-.02-3.27 3.92-3.62 6.02-3.62zm-2.2 5c1.7 0 2.72-1.72 2.72-3.22v-.38h-.5c-1.44 0-4.12.12-4.12 2a1.71 1.71 0 0 0 1.9 1.6zM450.84 226.25a7.53 7.53 0 0 1 5.16 1.86l-1 1.48a6.47 6.47 0 0 0-4.08-1.54 5.08 5.08 0 0 0-5.22 5.4c0 3 2 5.58 5.26 5.58a6.29 6.29 0 0 0 4.34-1.84l1.06 1.42a7.48 7.48 0 0 1-5.46 2.24 7.3 7.3 0 0 1-.06-14.6zM458.39 230.49h1.86v6c0 .54 0 1.26-.06 1.36.08-.18.56-.88.9-1.36l4.36-6h1.88v10.12h-1.83v-6c0-.48.06-1.18.06-1.34a15.9 15.9 0 0 1-.88 1.34l-4.38 6h-1.86v-10.12h-.05zM475.12 230.25a5.3 5.3 0 0 1 3.8 1.48l-.92 1.36a4.1 4.1 0 0 0-2.8-1.16 3.46 3.46 0 0 0-3.52 3.6 3.51 3.51 0 0 0 3.58 3.64 4.52 4.52 0 0 0 3.12-1.36l.78 1.42a5.67 5.67 0 0 1-4 1.62 5.3 5.3 0 0 1-.04-10.6zM483.7 232.15h-3.52v-1.66h9v1.66h-3.54v8.46h-1.94zM495.14 230.25c2.86 0 4.38 2.14 4.38 4.74a6.12 6.12 0 0 1-.08.82h-7.36a3.34 3.34 0 0 0 3.48 3.36 4.58 4.58 0 0 0 3-1.18l.82 1.42a6.06 6.06 0 0 1-3.92 1.44 5.17 5.17 0 0 1-5.38-5.3 5 5 0 0 1 5.06-5.3zm2.42 4.16a2.46 2.46 0 0 0-2.46-2.66 2.94 2.94 0 0 0-3 2.66h5.46zM502.31 230.49h2.16l2.58 5.72c.28.6.56 1.36.56 1.36s.3-.74.56-1.36l2.64-5.72H513l.88 10.12H512l-.44-6v-1.74s-.26.7-.64 1.48l-2.4 5.06h-1.66l-2.4-5-.64-1.5s.06 1.14 0 1.74l-.44 6h-1.88l.81-10.16zM516.45 230.49h1.94v3.66h2c2.1 0 3.68 1 3.68 3.26 0 1.9-1.16 3.2-3.7 3.2h-3.9v-10.12h-.02zm3.64 8.72a1.73 1.73 0 0 0 2-1.82 1.75 1.75 0 0 0-2-1.84h-1.68v3.66h1.7-.02zm5.52-8.72h1.94v10.12h-1.94v-10.12zM540.32 230.25a5.3 5.3 0 0 1 3.8 1.48l-.92 1.36a4.1 4.1 0 0 0-2.8-1.16 3.46 3.46 0 0 0-3.52 3.6 3.51 3.51 0 0 0 3.58 3.64 4.52 4.52 0 0 0 3.12-1.36l.78 1.42a5.67 5.67 0 0 1-4 1.62 5.3 5.3 0 1 1-.04-10.6zM550.42 227.49l3.62-1.56.64 1.6-3.88 1.62c-2 .92-3 2.1-3.12 4a4 4 0 0 1 3.58-1.8c2.54 0 4.3 1.8 4.3 4.66a4.57 4.57 0 0 1-4.78 4.8c-3.42 0-5-2.56-5-6.06 0-3.5 1.11-5.75 4.64-7.26zm.32 11.72a3.15 3.15 0 0 0 .08-6.28 2.94 2.94 0 0 0-2.94 3.12 2.88 2.88 0 0 0 2.86 3.16zM562.79 230.25a5.3 5.3 0 1 1-5.44 5.28 5.28 5.28 0 0 1 5.44-5.28zm0 8.92a3.62 3.62 0 1 0-3.48-3.64 3.51 3.51 0 0 0 3.51 3.64h-.03zM570.59 230.49h1.8v.9c0 .255-.02.509-.06.76a3.71 3.71 0 0 1 3.4-1.9c2.74 0 4.44 2.16 4.44 5.3 0 3.14-1.92 5.3-4.58 5.3a3.72 3.72 0 0 1-3.14-1.72c.056.29.082.585.08.88v4.6h-1.94v-14.12zm4.74 8.68c1.6 0 2.92-1.3 2.92-3.6s-1.17-3.57-2.85-3.57c-1.52 0-2.92 1.08-2.92 3.64-.01 1.75.99 3.53 2.85 3.53zM587.81 234.31h.52v-.2a2 2 0 0 0-2.22-2.22 5.07 5.07 0 0 0-2.84 1l-.78-1.42a6.45 6.45 0 0 1 3.78-1.2c2.54 0 4 1.4 4 4v6.4h-1.82v-1c0-.268.02-.535.06-.8a3.73 3.73 0 0 1-3.32 2.06 3.12 3.12 0 0 1-3.38-3c-.04-3.26 3.9-3.62 6-3.62zm-2.2 5c1.7 0 2.72-1.72 2.72-3.22v-.38h-.5c-1.44 0-4.12.12-4.12 2a1.71 1.71 0 0 0 1.9 1.6zM448.92 254.25a5.3 5.3 0 0 1 3.8 1.48l-.92 1.36a4.1 4.1 0 0 0-2.8-1.16 3.46 3.46 0 0 0-3.52 3.6 3.51 3.51 0 0 0 3.58 3.64 4.52 4.52 0 0 0 3.12-1.36l.78 1.42a5.67 5.67 0 0 1-4 1.62 5.3 5.3 0 1 1-.04-10.6zM457.5 256.15H454v-1.66h9v1.66h-3.54v8.46h-1.96zM470 258.31h.52v-.2a2 2 0 0 0-2.22-2.22 5.07 5.07 0 0 0-2.84 1l-.78-1.42a6.45 6.45 0 0 1 3.78-1.2c2.54 0 4 1.4 4 4v6.4h-1.86v-1c0-.268.02-.535.06-.8a3.73 3.73 0 0 1-3.32 2.06 3.12 3.12 0 0 1-3.38-3c-.04-3.26 3.9-3.62 6.04-3.62zm-2.2 5c1.7 0 2.72-1.72 2.72-3.22v-.38H470c-1.44 0-4.12.12-4.12 2a1.71 1.71 0 0 0 1.88 1.6h.04zM477.58 256.15h-3.52v-1.66h9v1.66h-3.56v8.46h-1.92zM484.93 254.49h1.86v6c0 .54 0 1.26-.06 1.36.08-.18.56-.88.9-1.36l4.36-6h1.88v10.12H492v-6c0-.48.06-1.18.06-1.34a15.9 15.9 0 0 1-.88 1.34l-4.38 6h-1.86v-10.12h-.01zM501.66 254.25a5.3 5.3 0 0 1 3.8 1.48l-.92 1.36a4.1 4.1 0 0 0-2.8-1.16 3.46 3.46 0 0 0-3.52 3.6 3.51 3.51 0 0 0 3.58 3.64 4.52 4.52 0 0 0 3.12-1.36l.78 1.42a5.67 5.67 0 0 1-4 1.62 5.3 5.3 0 1 1-.04-10.6zM510.24 256.15h-3.52v-1.66h9v1.66h-3.54v8.46h-1.92v-8.46zM517.59 254.49h1.86v6c0 .54 0 1.26-.06 1.36.08-.18.56-.88.9-1.36l4.36-6h1.88v10.12h-1.83v-6c0-.48.06-1.18.06-1.34a15.9 15.9 0 0 1-.88 1.34l-4.38 6h-1.86v-10.12h-.05zM529.55 254.49h1.94v4.08h1.42l2.76-4.08h2.2l-3.38 4.82 3.78 5.26H536l-3-4.38h-1.5v4.38h-1.94v-10.08zM540 254.49h1.86v6c0 .54 0 1.26-.06 1.36.08-.18.56-.88.9-1.36l4.36-6H549v10.12h-1.9v-6c0-.48.06-1.18.06-1.34a15.9 15.9 0 0 1-.88 1.34l-4.38 6H540v-10.12zM552.39 262.51h2l-1.74 4.12h-1.54zM569.08 250.25a7.53 7.53 0 0 1 5.16 1.86l-1 1.48a6.47 6.47 0 0 0-4.08-1.54 5.08 5.08 0 0 0-5.22 5.4c0 3 2 5.58 5.26 5.58a6.29 6.29 0 0 0 4.34-1.84l1.06 1.42a7.48 7.48 0 0 1-5.46 2.24 7.3 7.3 0 1 1-.06-14.6zM577.09 250.49h4.48a6.14 6.14 0 0 1 2.62.38 3.82 3.82 0 0 1 2.24 3.7 4 4 0 0 1-2.52 3.88 4.8 4.8 0 0 1 .4.64l3 5.48h-2.24l-3-5.62h-3v5.62h-2v-14.08h.02zm4.82 6.78a2.41 2.41 0 0 0 2.52-2.6 2.25 2.25 0 0 0-1.32-2.22 4 4 0 0 0-1.7-.24h-2.34v5.06h2.84zM590.27 250.49h2.06l3.26 7.64c.32.78.68 1.9.68 1.9s.38-1.12.7-1.9l3.26-7.64h2.06l1.14 14.12h-2l-.68-8.9a20.55 20.55 0 0 1 0-2.08s-.44 1.3-.76 2.08l-2.82 6.36h-1.76l-2.8-6.36c-.32-.76-.76-2.12-.76-2.12v2.12l-.68 8.9h-2l1.1-14.12z"/>
        <path fill="#3CB0CB" d="M776.69 161.56h2V174h6.92v-12.4h2V174h1.62v4.52h-1.78v-2.8h-10.76zM795.61 165.32c2.86 0 4.38 2.14 4.38 4.74a6.12 6.12 0 0 1-.08.82h-7.36a3.34 3.34 0 0 0 3.48 3.36 4.58 4.58 0 0 0 3-1.18l.82 1.42a6.06 6.06 0 0 1-3.92 1.44 5.17 5.17 0 0 1-5.38-5.3 5 5 0 0 1 5.06-5.3zm2.42 4.16a2.46 2.46 0 0 0-2.46-2.66 2.94 2.94 0 0 0-3 2.66h5.46zM802.33 165.56h1.94v4.12h5.12v-4.12h1.94v10.12h-1.94v-4.34h-5.12v4.34h-1.94zM819.53 169.38h.52v-.2a2 2 0 0 0-2.22-2.22 5.07 5.07 0 0 0-2.84 1l-.78-1.42a6.45 6.45 0 0 1 3.78-1.2c2.54 0 4 1.4 4 4v6.4h-1.82v-1c0-.268.02-.535.06-.8a3.73 3.73 0 0 1-3.32 2.06 3.12 3.12 0 0 1-3.38-3c-.04-3.26 3.9-3.62 6-3.62zm-2.2 5c1.7 0 2.72-1.72 2.72-3.22v-.38h-.5c-1.44 0-4.12.12-4.12 2a1.71 1.71 0 0 0 1.9 1.6zM828.75 174c1.48-.22 2.28-1.7 2.28-5.36v-3.12h6.78v10.12h-1.94v-8.52h-3v1.52c0 4.58-1.16 6.94-4.14 7.1V174h.02zM840.81 165.56h1.86v6c0 .54 0 1.26-.06 1.36.08-.18.56-.88.9-1.36l4.36-6h1.88v10.12h-1.88v-6c0-.48.06-1.18.06-1.34a15.9 15.9 0 0 1-.88 1.34l-4.38 6h-1.86v-10.12zM852.75 174.08c1.42-1.94 1.58-5.1 1.58-6.66v-1.86h6.84v8.52h1.44v4h-1.78v-2.4h-7.5v2.4h-1.82v-4h1.24zm6.48 0v-6.94h-3v.54c0 1.52-.16 4.4-1.44 6.4h4.48-.04zM869.85 169.38h.52v-.2a2 2 0 0 0-2.22-2.22 5.07 5.07 0 0 0-2.84 1l-.78-1.42a6.45 6.45 0 0 1 3.78-1.2c2.54 0 4 1.4 4 4v6.4h-1.82v-1c0-.268.02-.535.06-.8a3.73 3.73 0 0 1-3.32 2.06 3.12 3.12 0 0 1-3.38-3c-.04-3.26 3.9-3.62 6-3.62zm-2.2 5c1.7 0 2.72-1.72 2.72-3.22v-.38h-.5c-1.44 0-4.12.12-4.12 2a1.71 1.71 0 0 0 1.9 1.6zM808.79 185.56h4.48a6.14 6.14 0 0 1 2.62.38 3.82 3.82 0 0 1 2.24 3.7 4 4 0 0 1-2.52 3.88 4.8 4.8 0 0 1 .4.64l3 5.48h-2.24l-3-5.62h-3v5.62h-2v-14.08h.02zm4.82 6.78a2.41 2.41 0 0 0 2.52-2.6 2.25 2.25 0 0 0-1.32-2.22 4 4 0 0 0-1.7-.24h-2.34v5.06h2.84zM827.63 185.32a7 7 0 0 1 7.24 7.2 7.25 7.25 0 0 1-14.5 0 7.06 7.06 0 0 1 7.26-7.2zm0 12.78a5.27 5.27 0 0 0 5.2-5.58 5.21 5.21 0 1 0-10.42 0 5.28 5.28 0 0 0 5.22 5.58zM837.71 185.56h2v14.12h-2z"/>
        <path fill="#1F282C" d="M68.2 261.69v-31.42a3.34 3.34 0 0 0-6.68 0v31.42a3.34 3.34 0 0 0 6.68 0z"/>
        <path fill="#3CB0CB" d="M58.19 231.28l-.71.47a35.88 35.88 0 0 1-16.93 5.74v17.09a35.76 35.76 0 0 1 16.93 5.63l.71.48v-29.41z"/>
        <path fill="#1F282C" d="M37.21 237.69H25.53a5 5 0 0 0-5 5v6.67a5 5 0 0 0 5 5h11.68v-16.67zm-8.34 10a1.67 1.67 0 1 1 0-3.34h3.33a1.67 1.67 0 0 1 0 3.34h-3.33zM35.67 265.78h3.21a5 5 0 0 0 5-5v-2.39a31.61 31.61 0 0 0-3.34-.46v2.85a1.66 1.66 0 0 1-1.67 1.67h-3.25l-.07-4.72h-6.68l.13 10.53a3.34 3.34 0 0 0 6.68 0l-.01-2.48z"/>
        <path fill="#3CB0CB" d="M75.47 235.51a1.67 1.67 0 0 0-2.36 0l-2.36 2.36a1.67 1.67 0 1 0 2.36 2.36l2.36-2.36a1.67 1.67 0 0 0 0-2.36zM75.47 254.39L73.11 252a1.67 1.67 0 1 0-2.36 2.36l2.36 2.36a1.67 1.67 0 0 0 2.36-2.33zM80.67 246.13a1.67 1.67 0 0 0-1.67-1.67h-4.72a1.67 1.67 0 0 0 0 3.34H79a1.67 1.67 0 0 0 1.67-1.67z"/>
        <path fill="#F2C400" d="M844.81 119.72v-.22c2.7-1.9 4.28-4.24 4.28-6.81v-7.24c0-6.35-9.94-11.13-23.12-11.13-13.18 0-23.12 4.79-23.12 11.13v1.94c-2.79 1.87-4.28 4.15-4.28 6.62v7.24c0 2.82 1.91 5.38 5.14 7.37v5.47c0 6.51 10.16 11.61 23.12 11.61s23.12-5.1 23.12-11.61v-7.24c-.01-2.71-1.79-5.17-5.14-7.13zm3.43 7.15c0 5.48-10 10.28-21.41 10.28h-1.9l-1.26-.08-.81-.07h-.36c-7-.76-13-3.3-15.66-6.51l-.1-.13-.11-.15a30 30 0 0 0 3.92 1.35c3.8 2.5 9.72 3.93 16.29 3.93 11.61 0 19.7-4.5 19.7-8.53a4.6 4.6 0 0 0-2.1-3.45l.06-.18c0-.09.06-.18.08-.27.02-.09.05-.21.08-.31s0-.18.06-.27c.06-.09 0-.21 0-.32v-.27-.08c1.84 1.1 3.51 2.83 3.51 5.06h.01zm-17.87 11.85h.08l1.46-.15h.37l1.41-.2v5.13c-1.11.18-2.25.32-3.43.41v-5.14h.11v-.05zm5-.71h.14l1.36-.31h.17l.89-.24v5.13c-.82.24-1.677.45-2.57.63V138l.01.01zm4.28-1.17h.14l.19-.07 1-.4.29-.12h.06v5.11a23.4 23.4 0 0 1-1.71.67v-5.12l.03-.07zm3.43-1.45l.43-.23.25-.13c.33-.18.65-.38 1-.57h.07v5a16.49 16.49 0 0 1-1.71 1.06v-5.07l-.04-.06zm-34.26-1c.53.34 1.11.66 1.71 1v5.08a16.63 16.63 0 0 1-1.71-1.06v-5.02zM804.55 110c.193.24.397.473.61.7l.15.15c.193.193.397.387.61.58l.15.14.15.13v4.77a5.62 5.62 0 0 1-1.71-3.81V110h.04zm4.45 3.6l.25.13.43.23V119c-.58-.3-1.14-.634-1.68-1v-5h.07c.29.23.61.42.93.6zm2.74 1.3l1 .4.19.07h.14v5.12a31.542 31.542 0 0 1-1.71-.67v-5.11h.06l.32.19zm4.15 1.35l1.36.31h.14v5.13a39.158 39.158 0 0 1-2.57-.63V116l.89.24.18.01zm5 .9l1.46.15h.19v5.14a41.24 41.24 0 0 1-3.43-.41v-5.13l1.41.2.37.05zm5.07.29H827.67v5.12c-.57 0-1.14.05-1.71.05h-1.71v-5.14h.11c.54-.03 1.07-.02 1.64-.02l-.04-.01zm3.61-.15l1.46-.15h.37l1.41-.2V122l-1 .16-.51.07c-.64.08-1.29.13-1.95.18v-5.12h.22zm6.45-1.05h.17l.89-.24v5.13l-.33.09-.58.16c-.473.12-.953.233-1.44.34h-.21v-5.12h.14c.47-.13.93-.24 1.34-.35l.02-.01zm3.11-.95l1-.4.29-.12h.06v5.11a23.4 23.4 0 0 1-1.71.67v-5.12h.14l.22-.14zm3.78-1.7c.33-.18.65-.38 1-.57h.07v5a16.49 16.49 0 0 1-1.71 1.06V114l.43-.23.21-.18zm-35.74 9.75l.29.12 1 .4.19.07h.14v5.12a31.542 31.542 0 0 1-1.71-.67v-5.11l.09.07zm4.43 1.46l1.36.31h.14v5.13h-.15l-1.36-.31-1.07-.29v-5.13l.89.24.19.05zm5 .9l1.46.15h.19V131c-.59 0-1.18-.1-1.75-.16l-.83-.11-.84-.13v-5.12l1.41.2.36.02zm5.07.29h1.71v5.14h-1.71c-.56 0-1.14 0-1.71-.05V126H821.68l-.01-.01zm5.86 4.74l-.61.08-1.34.14h-.45v-5.15l.84-.06.84-.1c.41 0 .83-.09 1.24-.15l.51-.09v5.15h-.22l-.81.18zm3.37-5.77c.36-.08.72-.16 1.07-.25l.82-.24v5.16c-.82.24-1.677.45-2.57.63v-5.15l.68-.15zm3.61-1l.16-.06c.31-.11.64-.22.94-.34l.61-.26v5.15a23.4 23.4 0 0 1-1.71.67v-5.16zm3.43 3.65v-4.94c.59-.18 1.16-.37 1.71-.57v4.44a16.63 16.63 0 0 1-1.65 1.07h-.06zm5.14-6.35a4.69 4.69 0 0 1-.42 1.91l-.08.16a7 7 0 0 1-1 1.53l-.15.18v-3.65c.6-.27 1.17-.55 1.71-.84v.69l-.06.02zm-39.4.29h.07c.307.193.64.383 1 .57l.25.18.43.23v4.34h-1.23l-.48-.33v-5l-.04.01zm8.56 14.62a30.37 30.37 0 0 0 1.71.66V142a31.542 31.542 0 0 1-1.71-.67v-5.16zm3.43 1.19c.83.24 1.68.45 2.57.64v5.13a39.158 39.158 0 0 1-2.57-.63v-5.14zm4.28 1l.41.06.62.09 1 .12 1 .1h.44v5.14a41.24 41.24 0 0 1-3.43-.41v-5.13l-.04.03zM847.38 110v2.71a5.62 5.62 0 0 1-1.71 3.81v-4.77l.15-.13.15-.14c.213-.193.417-.387.61-.58l.15-.15c.22-.227.423-.46.61-.7l.04-.05zM826 96c12 0 21.41 4.14 21.41 9.42 0 5.48-10 10.28-21.41 10.28s-21.41-4.8-21.41-10.28C804.55 100.18 814 96 826 96zm-25.69 25.22v-2.71c.193.24.397.473.61.7l.15.15c.193.193.397.387.61.58l.15.14.17.22v4.77a5.62 5.62 0 0 1-1.73-3.81l.04-.04zm5.14 12.85v-2.67a12.1 12.1 0 0 0 1.71 1.74v4.78a5.61 5.61 0 0 1-1.75-3.81l.04-.04zm19.7 9.86v-5.14h3.42V144h-3.46l.04-.07zm23.12-12.56v2.71a5.62 5.62 0 0 1-1.71 3.81v-4.77l.15-.13.15-.14c.213-.193.417-.387.61-.58l.15-.15c.22-.227.423-.46.61-.7l.04-.05z"/>
        <path fill="#F2C400" d="M815.35 112.57l6.38-2.3v-.09a4.48 4.48 0 0 1-2.73-2.89 1.93 1.93 0 0 1-.91-.77 1.51 1.51 0 0 1-.14-1.22l.16-.53a2.23 2.23 0 0 1 1.35-1.31 5.14 5.14 0 0 1 .88-1.18l.38-.36a3.54 3.54 0 0 1 0-.58 1 1 0 0 1 1-.94 1 1 0 0 1 .61.2c.165.106.343.19.53.25a6.68 6.68 0 0 0 2.44.29h.44c2.11 0 5 .26 6.27 2.41a2.24 2.24 0 0 1 1.37 1.32l.16.53a1.51 1.51 0 0 1-.14 1.22 1.93 1.93 0 0 1-.91.77 4.48 4.48 0 0 1-2.73 2.89v.09l6.43 2.41c5.84-1.63 9.45-4.52 9.45-7.21 0-3.79-7.37-7.71-19.7-7.71-12.33 0-19.7 3.92-19.7 7.71.03 2.53 3.49 5.35 9.11 7z"/>
        <path fill="#3CB0CB" d="M754.4 145a1 1 0 0 1-.71-.29l-11.3-11.31a1 1 0 0 1 1.41-1.4l11.31 11.31a1 1 0 0 1-.71 1.69z"/>
        <path fill="#3CB0CB" d="M743.09 156.31a1 1 0 0 1-.71-1.71l11.31-11.31a1 1 0 0 1 1.41 1.41L743.8 156a1 1 0 0 1-.71.31zM281.44 131.37h-40.8l-4.57 2.79v29.44a4.17 4.17 0 0 0 4.18 4.18h39.19a4.17 4.17 0 0 0 4.18-4.18v-29.44l-2.18-2.79zM264 160.81a1.38 1.38 0 0 1-1.39 1.39H243a1.38 1.38 0 0 1-1.39-1.39v-11.24a1.38 1.38 0 0 1 1.39-1.39h19.59a1.38 1.38 0 0 1 1.39 1.39v11.24h.02zm0-16.9a1.38 1.38 0 0 1-1.39 1.39H243a1.38 1.38 0 0 1-1.39-1.39v-5.57a1.38 1.38 0 0 1 1.39-1.39h19.59a1.38 1.38 0 0 1 1.39 1.39v5.57h.02zm14 16.9a1.39 1.39 0 0 1-1.39 1.39h-8.41a1.39 1.39 0 0 1-1.39-1.39v-22.47c0-.768.622-1.39 1.39-1.39h8.45c.768 0 1.39.622 1.39 1.39v22.47H278z"/>
        <path fill="#1F282C" d="M283.62 124.41v9.75H250l-2.79-2.51V123l2.79-2.81h29.44a4.17 4.17 0 0 1 4.18 4.22z"/>
        <path fill="#3CB0CB" d="M250 134.16h-13.93v-9.75a4.18 4.18 0 0 1 4.18-4.18H250v13.93z"/>
        <path fill="#FFF" d="M268.2 128.58h-2.79a1.395 1.395 0 0 1 0-2.79h2.79a1.395 1.395 0 1 1 0 2.79zM261.24 127.19a1.38 1.38 0 0 1-1.39 1.39h-2.79a1.395 1.395 0 0 1 0-2.79h2.79a1.38 1.38 0 0 1 1.39 1.4z"/>
        <path fill="#FFF" d="M259.84 128.58v-2.78a1.39 1.39 0 1 1 0 2.78zM276.65 128.58h-2.79a1.395 1.395 0 0 1 0-2.79h2.79a1.395 1.395 0 0 1 0 2.79z"/>
        <path fill="#3CB0CB" d="M432.58 260.3h-41.09v-32.84l17.86 17.86 5.55-5.55 17.68 17.68v2.84z"/>
        <path fill="#1F282C" d="M429.74 226.24l-7.48 7.48-7.23-7.23-10.22 10.23 4.54 4.54 5.55-5.54 17.68 17.68v-27.16zM386.93 266.29c-.84 0-1.52-.68-1.52-1.52v-36.88a1.52 1.52 0 1 1 3 0v36.88a1.52 1.52 0 0 1-1.48 1.52z"/>
        <path fill="#1F282C" d="M431.92 266.29h-45a1.52 1.52 0 0 1 0-3h45a1.52 1.52 0 1 1 0 3z"/>
    </g>
</svg>
