<svg xmlns="http://www.w3.org/2000/svg" width="48" height="47" viewBox="0 0 48 47">
    <g fill="none" fill-rule="nonzero">
        <path fill="#1EB0CD" d="M47.366 32.8s-7.126-5.435-12.004-9.1c-3.852-2.895-3.726-6.845-3.626-10.018.014-.463.028-.898.028-1.3 0-3.958-3.422-12.13-14-12.13-1.99 0-3.728.08-5.314.24a1.002 1.002 0 0 0-.884.83 1.01 1.01 0 0 0 .552 1.086l3.38 1.635a6.08 6.08 0 0 1 3.39 4.991l.388 5.072a6.108 6.108 0 0 1-2.59 5.466l-4.146 2.875c-1.732 1.203-4.078 1.389-5.974.465l-4.474-2.163A.994.994 0 0 0 1 20.904c-.3.267-.416.692-.29 1.076 1.106 3.374 2.974 6.264 5.406 8.355 2.706 2.324 6.37 3.273 12.648 3.273 4.81 0 9.312 3.768 9.4 3.84l12 9.097a.995.995 0 0 0 1.494-.356l6-12.129a1.016 1.016 0 0 0-.292-1.26z"/>
        <path fill="#000" d="M16.894 9.196a4.054 4.054 0 0 0-2.258-3.33L10.1 3.673a4.024 4.024 0 0 0-3.98.311L1.972 6.86a4.056 4.056 0 0 0-1.724 3.64l.388 5.069a4.054 4.054 0 0 0 2.258 3.329L7.43 21.09a3.945 3.945 0 0 0 3.98-.311l4.148-2.873a4.06 4.06 0 0 0 1.724-3.64l-.388-5.07zm-8.13 7.229c-2.208 0-4-1.814-4-4.043 0-2.23 1.792-4.043 4-4.043s4 1.813 4 4.043c0 2.23-1.792 4.043-4 4.043z"/>
    </g>
</svg>
