<svg xmlns="http://www.w3.org/2000/svg" width="62" height="66" viewBox="0 0 62 66">
    <g fill="none" fill-rule="evenodd">
        <path fill="#FFF" d="M44 17h14a4 4 0 0 1 4 4v5a6 6 0 0 1-6 6h-9a6 6 0 0 1-6-6v-6a3 3 0 0 1 3-3zM1 13h7a3 3 0 0 1 3 3v30H1V13z"/>
        <path fill="#CEEAF2" fill-rule="nonzero" d="M46.061 32.233v-6.14h-5.338v.66a5.46 5.46 0 0 0 1.542 3.871 5.299 5.299 0 0 0 3.796 1.609zM55.71 26.216v6.14h.241c2.948 0 5.338-2.426 5.338-5.419v-.66l-5.58-.061zM21.624 22.532h9.497v23.53h-9.497zM48.859 7.383h4.234v9.547h-4.234z"/>
        <path fill="#3DAFCC" fill-rule="nonzero" d="M46.213 26.216h9.497v13.845h-9.497z"/>
        <path fill="#CEEAF2" fill-rule="nonzero" d="M12.793 55.64a3.335 3.335 0 0 0-.544-1.796 3.148 3.148 0 0 0-4.002-1.103c-1.42.69-2.127 2.33-1.665 3.855.463 1.526 1.957 2.479 3.512 2.24 1.555-.24 2.703-1.6 2.7-3.196z"/>
        <ellipse cx="21.352" cy="55.64" fill="#CEEAF2" fill-rule="nonzero" rx="3.176" ry="3.223"/>
        <ellipse cx="33.072" cy="55.64" fill="#CEEAF2" fill-rule="nonzero" rx="3.176" ry="3.223"/>
        <ellipse cx="44.806" cy="55.64" fill="#CEEAF2" fill-rule="nonzero" rx="3.176" ry="3.223"/>
        <path fill="#1F282C" fill-rule="nonzero" d="M44.489 66H.756A.762.762 0 0 1 0 65.233c0-.424.339-.768.756-.768H44.49c3.195.135 6.207-1.518 7.845-4.307a8.955 8.955 0 0 0 0-9.053c-1.638-2.788-4.65-4.442-7.845-4.306H.756A.762.762 0 0 1 0 46.03c0-.424.339-.767.756-.767H44.49c3.737-.146 7.255 1.794 9.166 5.058a10.494 10.494 0 0 1 0 10.59c-1.911 3.263-5.429 5.203-9.166 5.057V66z"/>
        <path fill="#1F282C" fill-rule="nonzero" d="M9.618 59.63c-2.164-.034-3.894-1.835-3.871-4.03.022-2.197 1.787-3.962 3.95-3.95 2.164.01 3.913 1.794 3.913 3.99a4.02 4.02 0 0 1-1.173 2.843 3.901 3.901 0 0 1-2.82 1.147zm0-6.446c-1.328.033-2.381 1.147-2.36 2.495.023 1.348 1.111 2.426 2.44 2.416 1.328-.011 2.4-1.107 2.4-2.455a2.44 2.44 0 0 0-2.48-2.456zM21.352 59.63a3.931 3.931 0 0 1-3.643-2.453 4.035 4.035 0 0 1 .843-4.354 3.89 3.89 0 0 1 4.286-.872 3.992 3.992 0 0 1 2.43 3.689c-.007 2.194-1.754 3.973-3.916 3.99zm0-6.446c-1.336 0-2.42 1.1-2.42 2.456 0 1.356 1.084 2.455 2.42 2.455 1.336 0 2.42-1.1 2.42-2.455 0-1.357-1.084-2.456-2.42-2.456zM33.072 59.63c-2.172 0-3.932-1.786-3.932-3.99s1.76-3.991 3.932-3.991c2.171 0 3.931 1.787 3.931 3.99 0 2.205-1.76 3.991-3.931 3.991zm0-6.446c-1.337 0-2.42 1.1-2.42 2.456 0 1.356 1.083 2.455 2.42 2.455 1.336 0 2.42-1.1 2.42-2.455 0-1.357-1.084-2.456-2.42-2.456zM44.806 59.63a3.932 3.932 0 0 1-3.632-2.463 4.035 4.035 0 0 1 .852-4.35 3.89 3.89 0 0 1 4.285-.864 3.992 3.992 0 0 1 2.427 3.687c0 2.204-1.76 3.99-3.932 3.99zm0-6.446c-1.336 0-2.42 1.1-2.42 2.456 0 1.356 1.084 2.455 2.42 2.455 1.337 0 2.42-1.1 2.42-2.455 0-.652-.255-1.276-.709-1.737a2.402 2.402 0 0 0-1.71-.72zM6.215 49.792a.762.762 0 0 1-.756-.768v-2.977c0-.203.08-.396.222-.538a.762.762 0 0 1 1.29.537v2.978a.762.762 0 0 1-.756.768zM12.687 49.792a.762.762 0 0 1-.756-.768v-2.977a.762.762 0 0 1 1.29-.538.758.758 0 0 1 .222.538v2.977a.762.762 0 0 1-.756.768zM19.175 49.792a.762.762 0 0 1-.756-.768v-2.977c0-.424.338-.768.756-.768.417 0 .756.344.756.768v2.977a.758.758 0 0 1-.217.548.735.735 0 0 1-.54.22zM25.707 49.792a.762.762 0 0 1-.756-.768v-2.977c0-.203.08-.396.223-.538a.762.762 0 0 1 1.29.537v2.978a.762.762 0 0 1-.757.768zM32.119 49.792c-.2 0-.39-.082-.53-.226a.758.758 0 0 1-.211-.542v-2.977c0-.424.339-.768.756-.768.418 0 .756.344.756.768v2.977a.773.773 0 0 1-.227.548.75.75 0 0 1-.544.22zM38.606 49.792a.762.762 0 0 1-.756-.768v-2.977c0-.424.339-.768.756-.768.418 0 .756.344.756.768v2.977a.758.758 0 0 1-.216.548.735.735 0 0 1-.54.22zM45.079 49.792a.762.762 0 0 1-.757-.768v-2.977a.762.762 0 0 1 1.29-.538.758.758 0 0 1 .223.538v2.977a.762.762 0 0 1-.756.768zM6.215 66a.762.762 0 0 1-.756-.767v-2.978c0-.202.08-.396.222-.537a.762.762 0 0 1 1.29.537v2.978a.762.762 0 0 1-.756.767zM12.687 66a.762.762 0 0 1-.756-.767v-2.978a.762.762 0 0 1 1.29-.537.758.758 0 0 1 .222.537v2.978a.762.762 0 0 1-.756.767zM19.175 66a.762.762 0 0 1-.756-.767v-2.978c0-.424.338-.768.756-.768.417 0 .756.344.756.768v2.978a.758.758 0 0 1-.217.547.735.735 0 0 1-.54.22zM25.707 66a.762.762 0 0 1-.756-.767v-2.978c0-.202.08-.396.223-.537a.762.762 0 0 1 1.29.537v2.978a.762.762 0 0 1-.757.767zM32.119 66c-.2 0-.39-.081-.53-.226a.758.758 0 0 1-.211-.541v-2.978c0-.424.339-.768.756-.768.418 0 .756.344.756.768v2.978a.773.773 0 0 1-.227.548.75.75 0 0 1-.544.219zM38.606 66a.762.762 0 0 1-.756-.767v-2.978c0-.424.339-.768.756-.768.418 0 .756.344.756.768v2.978a.758.758 0 0 1-.216.547.735.735 0 0 1-.54.22zM45.079 66a.762.762 0 0 1-.757-.767v-2.978a.762.762 0 0 1 1.29-.537.758.758 0 0 1 .223.537v2.978a.762.762 0 0 1-.756.767zM53.94 56.683h-2.616a.762.762 0 0 1-.756-.767c0-.424.338-.768.756-.768h2.616c.418 0 .756.344.756.768a.762.762 0 0 1-.756.767zM49.615 51.925a.706.706 0 0 1-.53-.23.742.742 0 0 1 0-1.075l1.846-1.872a.72.72 0 0 1 1.058 0 .776.776 0 0 1 0 1.074l-1.845 1.873a.75.75 0 0 1-.529.23zM51.082 63.16a.766.766 0 0 1-.544-.23l-1.845-1.872a.776.776 0 0 1 0-1.075.72.72 0 0 1 1.058 0l1.86 1.873c.212.22.275.545.16.83a.756.756 0 0 1-.689.474zM10.253 46.814a.762.762 0 0 1-.756-.767V13.292H1.512v27.95c0 .418-.33.76-.74.768a.762.762 0 0 1-.757-.768V12.525c0-.203.08-.396.222-.538a.736.736 0 0 1 .534-.215h9.482c.409 0 .74.337.74.753v33.522a.758.758 0 0 1-.21.541.736.736 0 0 1-.53.226z"/>
        <path fill="#1F282C" fill-rule="nonzero" d="M31.121 46.814h-9.497a.762.762 0 0 1-.756-.767V22.532c0-.424.339-.767.756-.767h9.497c.2 0 .39.081.53.225.139.145.215.34.211.542v23.515a.758.758 0 0 1-.212.541.736.736 0 0 1-.529.226zm-8.756-1.535h8V23.3h-8v21.98zM55.74 40.828h-9.497c-.2 0-.39-.081-.53-.226a.758.758 0 0 1-.211-.542V26.247a.758.758 0 0 1 .212-.542.736.736 0 0 1 .529-.226h9.497c.417 0 .756.344.756.768V40.06a.762.762 0 0 1-.756.768zm-8.741-1.535h8V27.014h-8v12.279z"/>
        <path fill="#1F282C" fill-rule="nonzero" d="M55.951 33.061h-.166c-.2 0-.39-.08-.53-.225a.758.758 0 0 1-.211-.542v-9.27h-8.166v9.209a.762.762 0 0 1-.756.767c-3.34 0-6.049-2.749-6.049-6.14v-6.907c0-2.102 1.68-3.806 3.75-3.806h14.502c2.042.042 3.675 1.734 3.675 3.806v6.907a6.188 6.188 0 0 1-1.75 4.382 6.005 6.005 0 0 1-4.299 1.82zm-9.86-11.573h9.649c.417 0 .756.344.756.768v9.21c2.29-.282 4.008-2.263 3.992-4.606v-6.907c0-1.254-1.002-2.271-2.238-2.271H43.748c-1.239 0-2.245 1.014-2.253 2.271v6.907c-.026 2.297 1.619 4.26 3.856 4.605v-9.21c0-.417.329-.758.74-.767z"/>
        <path fill="#1F282C" fill-rule="nonzero" d="M53.108 17.697H48.89a.762.762 0 0 1-.756-.767V7.383c0-.424.339-.768.756-.768h4.22c.417 0 .755.344.755.768v9.5a.774.774 0 0 1-.204.573.75.75 0 0 1-.552.241zm-3.478-1.535h2.737V8.15H49.63v8.012z"/>
        <path fill="#1F282C" fill-rule="nonzero" d="M55.18 7.966h-8.302a.762.762 0 0 1-.756-.767V.767c0-.423.338-.767.756-.767s.756.344.756.767v5.68h6.805V.767c0-.423.339-.767.756-.767.418 0 .756.344.756.767V7.2a.773.773 0 0 1-.227.548.75.75 0 0 1-.544.219z"/>
        <path fill="#1F282C" fill-rule="nonzero" d="M54.908 14.566h-.771a.762.762 0 0 1-.741-.767.758.758 0 0 1 .211-.542.736.736 0 0 1 .53-.226h.77c2.039 0 3.69-1.677 3.69-3.745v-.783c-.004-1.976-1.52-3.608-3.462-3.73a.737.737 0 0 1-.517-.257.76.76 0 0 1-.179-.556.726.726 0 0 1 .24-.53.704.704 0 0 1 .546-.176c2.737.17 4.874 2.466 4.885 5.25v.782c-.009 2.913-2.333 5.272-5.202 5.28z"/>
    </g>
</svg>
