<svg width="222" height="56" viewBox="0 0 222 56" fill="none" xmlns="http://www.w3.org/2000/svg">
<rect y="8" width="222" height="48" fill="#1BA7C6"/>
<path d="M100.302 29H103.928C105.65 29 106.868 27.824 106.868 26.06C106.868 24.156 105.594 23.078 103.858 23.078H101.688V20.32H106.14V19.116H100.302V29ZM101.688 27.796V24.282H103.676C104.768 24.282 105.468 24.968 105.468 26.06C105.468 27.138 104.81 27.796 103.704 27.796H101.688ZM108.065 25.458C108.065 27.558 109.605 29.168 111.831 29.168C112.811 29.168 113.889 28.79 114.575 28.16L114.001 27.166C113.441 27.67 112.671 27.992 111.915 27.992C110.641 27.992 109.549 27.166 109.479 25.64H114.631C114.659 25.444 114.687 25.248 114.687 25.066C114.687 23.246 113.623 21.748 111.621 21.748C109.605 21.748 108.065 23.204 108.065 25.458ZM109.521 24.66C109.717 23.484 110.543 22.798 111.593 22.798C112.517 22.798 113.273 23.442 113.315 24.66H109.521ZM115.858 25.458C115.858 27.586 117.412 29.168 119.652 29.168C120.758 29.168 121.836 28.72 122.48 28.034L121.934 27.04C121.388 27.614 120.534 27.992 119.75 27.992C118.28 27.992 117.244 26.886 117.244 25.444C117.244 24.002 118.28 22.924 119.708 22.924C120.45 22.924 121.192 23.26 121.668 23.736L122.312 22.784C121.64 22.07 120.59 21.748 119.652 21.748C117.426 21.748 115.858 23.358 115.858 25.458ZM123.948 29H125.306V23.078H128.778V29H130.136V21.916H123.948V29ZM131.464 29.07C133.55 28.958 134.362 27.306 134.362 24.1V23.036H136.448V29H137.806V21.916H133.06V24.1C133.06 26.662 132.5 27.698 131.464 27.852V29.07ZM139.316 27.068C139.316 28.398 140.45 29.168 141.682 29.168C142.732 29.168 143.6 28.538 144.006 27.726H144.034C144.034 27.726 143.992 27.964 143.992 28.286V29H145.266V24.52C145.266 22.728 144.244 21.748 142.466 21.748C141.472 21.748 140.394 22.112 139.82 22.588L140.366 23.582C140.94 23.176 141.654 22.896 142.354 22.896C143.236 22.896 143.908 23.288 143.908 24.45V24.59H143.544C142.074 24.59 139.316 24.842 139.316 27.068ZM140.674 26.956C140.674 25.654 142.55 25.57 143.558 25.57H143.908V25.836C143.908 26.886 143.194 28.09 142.004 28.09C141.122 28.09 140.674 27.516 140.674 26.956ZM148.885 29H150.229V23.078H152.707V21.916H146.421V23.078H148.885V29ZM154.04 29H155.398V25.962H158.982V29H160.34V21.916H158.982V24.8H155.398V21.916H154.04V29ZM161.973 25.444C161.973 27.6 163.681 29.168 165.795 29.168C167.895 29.168 169.603 27.6 169.603 25.444C169.603 23.302 167.895 21.748 165.781 21.748C163.681 21.748 161.973 23.302 161.973 25.444ZM163.359 25.444C163.359 23.974 164.451 22.924 165.795 22.924C167.125 22.924 168.231 23.974 168.231 25.444C168.231 26.928 167.125 27.992 165.795 27.992C164.451 27.992 163.359 26.928 163.359 25.444ZM100.05 45H101.408V41.962H104.992V45H106.35V37.916H104.992V40.8H101.408V37.916H100.05V45ZM107.983 41.444C107.983 43.6 109.691 45.168 111.805 45.168C113.905 45.168 115.613 43.6 115.613 41.444C115.613 39.302 113.905 37.748 111.791 37.748C109.691 37.748 107.983 39.302 107.983 41.444ZM109.369 41.444C109.369 39.974 110.461 38.924 111.805 38.924C113.135 38.924 114.241 39.974 114.241 41.444C114.241 42.928 113.135 43.992 111.805 43.992C110.461 43.992 109.369 42.928 109.369 41.444ZM117.249 45H120.273C121.813 45 122.877 44.3 122.877 42.984C122.877 42.2 122.415 41.514 121.533 41.304V41.29C122.177 41.01 122.541 40.422 122.541 39.736C122.541 38.546 121.603 37.916 120.175 37.916H117.249V45ZM118.607 40.912V38.854H119.895C120.749 38.854 121.155 39.19 121.155 39.834C121.155 40.492 120.749 40.912 119.937 40.912H118.607ZM118.607 44.048V41.822H120.049C120.987 41.822 121.505 42.242 121.505 42.942C121.505 43.6 121.043 44.048 120.063 44.048H118.607ZM130.935 45H132.293V37.916H130.935V45ZM124.523 45H127.253C129.031 45 129.843 44.09 129.843 42.76C129.843 41.15 128.737 40.478 127.267 40.478H125.881V37.916H124.523V45ZM125.881 44.02V41.458H127.057C128.037 41.458 128.471 41.99 128.471 42.746C128.471 43.488 128.051 44.02 127.071 44.02H125.881ZM134.1 45H135.416L135.724 40.786C135.752 40.366 135.71 39.568 135.71 39.568H135.738C135.738 39.568 135.962 40.1 136.186 40.618L137.866 44.146H139.028L140.708 40.604C140.974 40.058 141.156 39.568 141.156 39.568H141.184C141.184 39.568 141.156 40.366 141.17 40.786L141.478 45H142.794L142.178 37.916H140.694L138.846 41.92C138.664 42.354 138.454 42.872 138.454 42.872H138.426C138.426 42.872 138.23 42.34 138.034 41.92L136.228 37.916H134.716L134.1 45ZM148.12 45H149.478V41.934H150.5L152.614 45H154.224L151.578 41.318V41.29L153.944 37.916H152.404L150.472 40.772H149.478V37.916H148.12V45ZM154.665 45.07C156.751 44.958 157.563 43.306 157.563 40.1V39.036H159.649V45H161.007V37.916H156.261V40.1C156.261 42.662 155.701 43.698 154.665 43.852V45.07ZM163.105 45H164.407L167.473 40.772C167.697 40.436 168.047 39.96 168.089 39.834H168.117C168.117 39.946 168.075 40.436 168.075 40.772V45H169.391V37.916H168.075L165.023 42.144C164.785 42.48 164.449 42.97 164.393 43.096H164.365C164.379 43.026 164.407 42.522 164.407 42.144V37.916H163.105V45ZM171.01 41.458C171.01 43.558 172.55 45.168 174.776 45.168C175.756 45.168 176.834 44.79 177.52 44.16L176.946 43.166C176.386 43.67 175.616 43.992 174.86 43.992C173.586 43.992 172.494 43.166 172.424 41.64H177.576C177.604 41.444 177.632 41.248 177.632 41.066C177.632 39.246 176.568 37.748 174.566 37.748C172.55 37.748 171.01 39.204 171.01 41.458ZM172.466 40.66C172.662 39.484 173.488 38.798 174.538 38.798C175.462 38.798 176.218 39.442 176.26 40.66H172.466ZM179.265 45H180.623V41.962H184.207V45H185.565V37.916H184.207V40.8H180.623V37.916H179.265V45ZM189.367 45H190.711V39.078H193.189V37.916H186.903V39.078H189.367V45ZM193.866 43.068C193.866 44.398 195 45.168 196.232 45.168C197.282 45.168 198.15 44.538 198.556 43.726H198.584C198.584 43.726 198.542 43.964 198.542 44.286V45H199.816V40.52C199.816 38.728 198.794 37.748 197.016 37.748C196.022 37.748 194.944 38.112 194.37 38.588L194.916 39.582C195.49 39.176 196.204 38.896 196.904 38.896C197.786 38.896 198.458 39.288 198.458 40.45V40.59H198.094C196.624 40.59 193.866 40.842 193.866 43.068ZM195.224 42.956C195.224 41.654 197.1 41.57 198.108 41.57H198.458V41.836C198.458 42.886 197.744 44.09 196.554 44.09C195.672 44.09 195.224 43.516 195.224 42.956ZM201.529 45H202.845L203.153 40.786C203.181 40.366 203.139 39.568 203.139 39.568H203.167C203.167 39.568 203.391 40.1 203.615 40.618L205.295 44.146H206.457L208.137 40.604C208.403 40.058 208.585 39.568 208.585 39.568H208.613C208.613 39.568 208.585 40.366 208.599 40.786L208.907 45H210.223L209.607 37.916H208.123L206.275 41.92C206.093 42.354 205.883 42.872 205.883 42.872H205.855C205.855 42.872 205.659 42.34 205.463 41.92L203.657 37.916H202.145L201.529 45Z" fill="white"/>
<mask id="mask0" mask-type="alpha" maskUnits="userSpaceOnUse" x="24" y="0" width="67" height="56">
<rect x="24" width="66.4348" height="56" fill="#C4C4C4"/>
</mask>
<g mask="url(#mask0)">
<ellipse cx="57.2174" cy="32" rx="33.2174" ry="32" fill="#F2C43F"/>
<path d="M37.4946 35.968C39.662 38.236 42.8384 39.424 46.0148 39.424C51.5082 39.424 55.5814 35.68 55.5814 30.64C55.5814 26.032 52.1061 22.252 46.239 22.252C45.2674 22.252 43.8848 22.576 43.399 22.828H43.3242C43.3242 22.828 43.4363 22.324 43.5111 21.64L43.9221 17.428H53.713V13.432H39.7367L38.5035 26.392L41.1942 27.328C42.39 26.644 43.8848 26.248 45.3048 26.248C48.3317 26.248 50.6113 28.012 50.6113 30.676C50.6113 33.376 48.2196 35.032 45.6411 35.032C43.2121 35.032 41.1942 33.736 39.9983 32.476L37.4946 35.968Z" fill="white"/>
<path d="M67.0282 39.424C74.2779 39.424 76.6322 33.52 76.6322 26.176C76.6322 18.832 74.2779 13 67.0282 13C59.7785 13 57.3869 18.832 57.3869 26.176C57.3869 33.52 59.7785 39.424 67.0282 39.424ZM67.0282 35.176C63.4034 35.176 62.357 31.216 62.357 26.176C62.357 21.208 63.4034 17.284 67.0282 17.284C70.6531 17.284 71.6994 21.208 71.6994 26.176C71.6994 31.216 70.6531 35.176 67.0282 35.176Z" fill="white"/>
<path d="M38.08 49.9999H39.5997L39.8239 46.6879C39.8488 46.2799 39.8114 45.6439 39.8114 45.6439H39.8363C39.8363 45.6439 40.0481 46.1239 40.2225 46.5439L41.4681 49.2319H42.7761L44.0217 46.5319C44.221 46.0999 44.3954 45.6439 44.3954 45.6439H44.4203C44.4203 45.6439 44.3954 46.2799 44.4079 46.6879L44.6321 49.9999H46.1518L45.5788 43.8799H43.81L42.4397 47.0359C42.3027 47.3839 42.1283 47.8159 42.1283 47.8159H42.1034C42.1034 47.8159 41.9415 47.3719 41.792 47.0359L40.4467 43.8799H38.653L38.08 49.9999Z" fill="white"/>
<path d="M47.5988 49.9999H49.1309L51.4852 46.7359C51.6472 46.4959 51.8838 46.1719 51.9586 46.0039H51.9835C51.971 46.1599 51.9461 46.5079 51.9461 46.7359V49.9999H53.4533V43.8799H51.9212L49.5669 47.1559C49.405 47.3959 49.1683 47.7319 49.0936 47.8879H49.0687C49.0811 47.7919 49.106 47.4319 49.106 47.1559V43.8799H47.5988V49.9999Z" fill="white"/>
<path d="M55.153 49.9999H56.735V47.5279H59.4505V49.9999H61.0325V43.8799H59.4505V46.2439H56.735V43.8799H55.153V49.9999Z" fill="white"/>
<path d="M62.5696 50.9839L62.0464 52.1239C62.0464 52.1239 62.6069 52.5199 63.3668 52.5199C64.301 52.5199 65.2228 52.0399 65.6588 50.9239L68.4864 43.8799H66.7674L65.5218 47.4319C65.4221 47.7559 65.31 48.2359 65.31 48.2359H65.2851C65.2851 48.2359 65.173 47.7319 65.0484 47.4079L63.7156 43.8799H61.9343L64.6124 49.9039L64.3758 50.4439C64.1391 50.9839 63.7031 51.2359 63.2671 51.2359C62.9184 51.2359 62.5696 50.9839 62.5696 50.9839Z" fill="white"/>
<path d="M71.0017 49.9999H72.5712V45.1759H74.6763V43.8799H68.909V45.1759H71.0017V49.9999Z" fill="white"/>
</g>
<path d="M8 31H24V35H8V31Z" fill="#F2C43F"/>
<path d="M18 25L18 41H14L14 25L18 25Z" fill="#F2C43F"/>
</svg>
