<svg width="24" height="24" viewBox="0 0 24 24" fill="none" xmlns="http://www.w3.org/2000/svg">
<path d="M22.293 16.2942L20 18.5862L17.707 16.2942L16.293 17.7082L18.586 20.0002L16.293 22.2942L17.707 23.7082L20 21.4142L22.293 23.7082L23.707 22.2942L21.414 20.0002L23.707 17.7082L22.293 16.2942Z" fill="#F2C43F"/>
<path d="M23.707 10.2941L13.707 0.294119C13.42 0.00611857 12.99 -0.0778814 12.617 0.0771186C12.244 0.230119 12 0.596119 12 0.999119V2.99912H1C0.447 3.00012 0 3.44812 0 4.00012V18.0001C0 18.5531 0.447 19.0001 1 19.0001H12V21.0001C12 21.4051 12.244 21.7691 12.617 21.9251C12.741 21.9751 12.871 22.0001 13 22.0001C13.26 22.0001 13.516 21.8981 13.707 21.7081L14.139 21.2751C14.05 20.8641 14 20.4371 14 20.0001C14 16.6861 16.687 14.0001 20 14.0001C20.438 14.0001 20.863 14.0511 21.275 14.1401L23.707 11.7081C24.098 11.3161 24.098 10.6831 23.707 10.2941ZM12 9.00012H8.5C8.225 9.00012 8 9.22412 8 9.50012C8 9.77612 8.225 10.0001 8.5 10.0001H9.5C10.879 10.0001 12 11.1221 12 12.5001C12 13.7081 11.14 14.7171 10 14.9501V16.0001H8V15.0001H6V13.0001H9.5C9.775 13.0001 10 12.7761 10 12.5001C10 12.2241 9.775 12.0001 9.5 12.0001H8.5C7.121 12.0001 6 10.8781 6 9.50012C6 8.29212 6.86 7.28312 8 7.05012V5.99912H10V6.99912H12V9.00012Z" fill="#F2C43F"/>
</svg>
