<svg xmlns="http://www.w3.org/2000/svg" width="58" height="58" viewBox="0 0 58 58">
    <g fill="none" fill-rule="evenodd">
        <path fill="#CEEAF2" d="M35.582 40.021l-.123-.096.123.096zM33.5 38.504c.523.45 1.085.851 1.68 1.2l-2.28-1.807.011.01.59.597zM45.83 39.695l3.848-3.883.548.385-2.036-1.432-2.662-.932-2.008.892-1.87 2.343s-2.072 4.005-5.734 3.04a9.367 9.367 0 0 0 9.914-.413zM55.43 40.438l1.871 3.313-1.185 3.338-2.358 2.247 2.358-2.247 1.185-3.338zM22.572 8.478l-4.2 4.555a7.699 7.699 0 0 0 .397 10.539l1.665 1.688a5.985 5.985 0 0 1 .894-8.22s2.607-2.252 2.758-2.443c.23-.804.407-1.62.531-2.447 0 0-1.128-2.496-1.224-2.634-.096-.139-6.056-7.601-6.056-7.601l-2.402-.548 2.402.548s3.583 4.486 5.235 6.563z"/>
        <path fill="#CEEAF2" d="M29.787 40.44L17.12 27.775l-7.014-6.593a15.396 15.396 0 0 1-4.694-10.61l-.723 1.316.297 7.643 3.333 5.766 10.053 10.547 11.942 12.168 4.98 3.478 6.498 2.543 3.562.176 5.93-2.519.694-.66c-5.672.422-13.2-1.73-22.192-10.59zM12.282 1.915l2.653-.548-2.653.548L8.058 5.76z"/>
        <path fill="#1F282C" d="M10.314 28.156a.695.695 0 0 1-.505-.217c-1.006-1.065-1.725-1.843-2.021-2.195a18.576 18.576 0 0 1-3.86-9.176A12.18 12.18 0 0 1 6.25 6.932a19.411 19.411 0 0 1 5.724-5.64c3.652-1.81 6.272.3 9.321 4.29l.866 1.126c2.328 3.02 3.39 4.398 3.188 6.676-.122 1.38-1.288 2.318-2.52 3.313-.531.427-1.08.87-1.6 1.38a.695.695 0 0 1-.971-.994c.567-.556 1.169-1.04 1.7-1.467 1.082-.874 1.936-1.563 2.007-2.354.155-1.738-.678-2.818-2.904-5.704l-.87-1.132c-3.173-4.154-5.092-5.134-7.6-3.89-.777.386-2.49 1.577-5.229 5.23a10.843 10.843 0 0 0-2.065 8.574 17.243 17.243 0 0 0 3.555 8.511c.287.342.987 1.098 1.967 2.133a.695.695 0 0 1-.505 1.172zM44.058 54.902a16.579 16.579 0 0 1-2.364-.18c-3.372-.488-8.754-3.368-12.251-6.557a.694.694 0 1 1 .936-1.026c3.265 2.978 8.43 5.762 11.513 6.207 2.536.479 5.16.055 7.415-1.2a23.612 23.612 0 0 0 6.514-5.85c1.064-1.69.855-2.47.497-3.248a14.882 14.882 0 0 0-4.773-5.16l-.323-.255c-2.177-1.714-4.103-3.228-5.656-3.107-1.375.075-2.254 1.353-3.366 2.97l-.29.422a.695.695 0 1 1-1.143-.793l.29-.418c1.222-1.777 2.376-3.456 4.433-3.567 2.106-.135 4.194 1.514 6.591 3.402l.323.254a15.943 15.943 0 0 1 5.175 5.671 4.263 4.263 0 0 1-.583 4.57 24.569 24.569 0 0 1-7.053 6.344 12.119 12.119 0 0 1-5.885 1.52z"/>
        <path fill="#1F282C" d="M43.974 43.725a.764.764 0 0 1-.078-.004 22.205 22.205 0 0 1-10.847-4.69L19.467 25.452c-3.777-3.747-4.526-9.705-4.556-9.956a.694.694 0 0 1 1.379-.165c.006.057.727 5.734 4.157 9.138l13.544 13.543a21.053 21.053 0 0 0 10.06 4.328.695.695 0 0 1-.077 1.385z"/>
        <circle cx="12.928" cy="44.435" r="12.233" fill="#3DAFCC"/>
        <path fill="#1F282C" d="M12.928 57.363A12.933 12.933 0 0 1 1.137 39.128a.695.695 0 1 1 1.267.57 11.543 11.543 0 1 0 3.406-4.346.695.695 0 1 1-.857-1.093 12.804 12.804 0 0 1 7.975-2.751c7.14 0 12.927 5.788 12.927 12.927 0 7.14-5.787 12.928-12.927 12.928zM39.547 19.064a.695.695 0 0 1-.502-1.175l8.402-8.778a.695.695 0 1 1 1.004.96l-8.403 8.779a.694.694 0 0 1-.501.214zM33.542 15.513a.695.695 0 0 1-.66-.913l3.52-10.64a.685.685 0 0 1 .878-.44c.364.12.561.513.44.877l-3.518 10.64a.694.694 0 0 1-.66.476zM43.13 24.732a.695.695 0 0 1-.256-1.34l10.283-4.073a.695.695 0 0 1 .513 1.291l-10.283 4.073a.683.683 0 0 1-.256.049z"/>
        <path fill="#1F282C" d="M12.928 47.016a.694.694 0 0 1-.695-.695v-8.737a.695.695 0 0 1 1.39 0v8.737a.694.694 0 0 1-.695.695zM12.928 52.042a.694.694 0 0 1-.695-.695v-.929a.695.695 0 1 1 1.39 0v.93a.694.694 0 0 1-.695.694z"/>
    </g>
</svg>
