<svg width="24" height="24" viewBox="0 0 24 24" fill="none" xmlns="http://www.w3.org/2000/svg">
<path d="M16 14H12V18H16V14Z" fill="#F2C43F"/>
<path d="M10 14H6V18H10V14Z" fill="#F2C43F"/>
<path d="M10 8H6V12H10V8Z" fill="#F2C43F"/>
<path d="M18 11.975V20H4V6H13.025C13.089 5.284 13.293 4.611 13.605 4H2V22H20V11.788C19.522 11.923 19.021 12 18.5 12C18.331 12 18.165 11.99 18 11.975Z" fill="#F2C43F"/>
<path d="M12 8V12H16V11.394C14.654 10.706 13.632 9.481 13.212 8H12Z" fill="#F2C43F"/>
<path d="M18 11L22 6H19V2L15 7H18V11Z" fill="#F2C43F"/>
</svg>
