<svg width="180" height="128" viewBox="0 0 180 128" fill="none" xmlns="http://www.w3.org/2000/svg">
<path fill-rule="evenodd" clip-rule="evenodd" d="M175.05 118.1H4.94978C2.21659 118.1 0 120.316 0 123.05C0 125.783 2.21659 128 4.94978 128H175.05C177.783 128 180 125.783 180 123.05C180 120.316 177.783 118.1 175.05 118.1Z" fill="#1F93B2"/>
<path fill-rule="evenodd" clip-rule="evenodd" d="M90.1754 0H117.062V40.3268H63.2899V0H90.1754Z" fill="#FFCE54"/>
<path fill-rule="evenodd" clip-rule="evenodd" d="M170.836 62.1826V120.981H117.062V62.1826H143.951H170.836Z" fill="#F6BB42"/>
<path fill-rule="evenodd" clip-rule="evenodd" d="M63.2897 40.3271H90.1751V80.654H36.4028V40.3271H63.2897Z" fill="#F6BB42"/>
<path fill-rule="evenodd" clip-rule="evenodd" d="M117.063 40.3271H143.948V120.981H90.1759V40.3271H117.063Z" fill="#FFCE54"/>
<path fill-rule="evenodd" clip-rule="evenodd" d="M90.1754 80.6553H117.062V120.982H63.2899V80.6553H90.1754Z" fill="#F6BB42"/>
<path fill-rule="evenodd" clip-rule="evenodd" d="M36.4016 80.6548H63.2884V120.982H9.51611V80.6548H36.4016Z" fill="#FFCE54"/>
<path fill-rule="evenodd" clip-rule="evenodd" d="M85.6937 8.96121H94.6563V0H85.6937V8.96121Z" fill="white"/>
<path fill-rule="evenodd" clip-rule="evenodd" d="M58.8081 49.2879H67.7693V40.3267H58.8081V49.2879Z" fill="white"/>
<path fill-rule="evenodd" clip-rule="evenodd" d="M112.582 49.2879H121.543V40.3267H112.582V49.2879Z" fill="white"/>
<path fill-rule="evenodd" clip-rule="evenodd" d="M85.6937 89.6165H94.6563V80.6553H85.6937V89.6165Z" fill="white"/>
<path fill-rule="evenodd" clip-rule="evenodd" d="M31.9214 89.6165H40.884V80.6553H31.9214V89.6165Z" fill="white"/>
</svg>
