<svg xmlns="http://www.w3.org/2000/svg" width="55" height="54" viewBox="0 0 55 54">
    <g fill="none" fill-rule="evenodd">
        <path fill="#CEEAF2" d="M53.64 22.6c-.702 13.692-12.263 24.444-26.291 24.45-14.07-.005-25.65-10.82-26.296-24.555-1.366 7.593.775 15.387 5.848 21.29 5.074 5.903 12.56 9.31 20.448 9.307 7.88.04 15.372-3.341 20.45-9.23 5.078-5.89 7.218-13.68 5.84-21.262z"/>
        <path fill="#CEEAF2" d="M27.349 10.884c9.103 0 18.091 5.789 20.068 14.355-.93-10.154-9.636-17.937-20.068-17.94C16.915 7.303 8.21 15.085 7.28 25.24c1.976-8.566 10.964-14.355 20.068-14.355z"/>
        <path fill="#1F282C" d="M27.348 47.336c-11.492 0-20.807-9.106-20.806-20.337 0-11.23 9.317-20.334 20.809-20.334 11.491 0 20.807 9.105 20.807 20.336 0 .35-.29.635-.65.635a.643.643 0 0 1-.65-.635C46.849 16.97 38.88 8.668 28.64 8.015 18.4 7.362 9.394 14.583 8.05 24.525c-1.344 9.944 5.433 19.202 15.496 21.17 10.063 1.969 19.964-4.026 22.64-13.71a.651.651 0 0 1 .795-.446c.346.091.551.439.459.777-2.466 8.86-10.695 15.012-20.09 15.02z"/>
        <path fill="#1F282C" d="M27.348 12.235a.657.657 0 0 1-.46-.186.627.627 0 0 1-.19-.45V7.3c0-.35.291-.635.65-.635.36 0 .65.285.65.635v4.3c0 .168-.068.33-.19.449a.657.657 0 0 1-.46.186zM38.493 16.745a.65.65 0 0 1-.6-.392.625.625 0 0 1 .14-.692l3.111-3.04a.66.66 0 0 1 .631-.172.643.643 0 0 1 .463.453.625.625 0 0 1-.175.617l-3.11 3.04a.656.656 0 0 1-.46.186zM47.508 27.636H43.11a.643.643 0 0 1-.65-.635c0-.351.291-.635.65-.635h4.4c.358 0 .65.284.65.635 0 .35-.292.635-.65.635zM41.604 41.566a.656.656 0 0 1-.46-.186l-3.11-3.04a.625.625 0 0 1 .005-.893.66.66 0 0 1 .913-.006l3.111 3.04a.625.625 0 0 1 .141.693.65.65 0 0 1-.6.392zM27.348 47.336a.657.657 0 0 1-.46-.186.627.627 0 0 1-.19-.45v-4.298c0-.351.291-.635.65-.635.36 0 .65.284.65.635V46.7c0 .168-.068.33-.19.45a.657.657 0 0 1-.46.185zM13.094 41.566a.65.65 0 0 1-.6-.392.625.625 0 0 1 .14-.693l3.112-3.04a.66.66 0 0 1 .912.006.625.625 0 0 1 .007.892l-3.111 3.04a.656.656 0 0 1-.46.187zM16.205 16.745a.656.656 0 0 1-.46-.186l-3.11-3.04a.625.625 0 0 1-.176-.617.643.643 0 0 1 .464-.453.66.66 0 0 1 .63.171l3.112 3.04a.625.625 0 0 1 .14.693.65.65 0 0 1-.6.392zM11.589 27.636h-4.4A.643.643 0 0 1 6.54 27c0-.351.291-.635.65-.635h4.4c.359 0 .65.284.65.635 0 .35-.291.635-.65.635z"/>
        <path fill="#1F282C" d="M27.348 53.728C12.251 53.71.017 41.755 0 27c-.023-6.048 2.075-11.92 5.944-16.64a.66.66 0 0 1 .912-.1c.28.218.328.616.106.89-3.687 4.495-5.685 10.09-5.662 15.85.002 11.73 8.206 21.94 19.866 24.722 11.66 2.783 23.756-2.582 29.29-12.99 5.534-10.41 3.073-23.166-5.96-30.89C35.465.117 22.2-.575 12.377 6.166a.66.66 0 0 1-.902-.157.626.626 0 0 1 .154-.883c9.652-6.625 22.563-6.457 32.03.418 9.469 6.874 13.36 18.906 9.656 29.85-3.705 10.943-14.17 18.333-25.966 18.333z"/>
        <path fill="#3DAFCC" d="M34.99 17.821l-8.998 8.797-5.295-5.173-3.504 3.423 5.296 5.175 3.503 3.422 3.503-3.422 8.998-8.797z"/>
        <path fill="#1F282C" d="M25.991 34.1a.655.655 0 0 1-.46-.185l-5.62-5.494a.625.625 0 0 1-.176-.617.643.643 0 0 1 .463-.452.66.66 0 0 1 .631.17l5.162 5.046 11.583-11.323-2.585-2.525-8.538 8.348a.68.68 0 0 1-.92 0l-4.834-4.725-3.044 2.974a.66.66 0 0 1-.63.172.643.643 0 0 1-.464-.453.625.625 0 0 1 .175-.617l3.504-3.423a.657.657 0 0 1 .919 0l4.834 4.725 8.539-8.348a.68.68 0 0 1 .919 0l3.503 3.423a.628.628 0 0 1 0 .898l-12.501 12.22a.655.655 0 0 1-.46.187z"/>
    </g>
</svg>
