<svg xmlns="http://www.w3.org/2000/svg" width="56" height="64" viewBox="0 0 56 64">
    <g fill="none" fill-rule="evenodd">
        <path fill="#CEEAF2" d="M52.223 17.758v4.395a2.936 2.936 0 0 1-2.936 2.935h-7.945c-.083 0-.162-.018-.244-.025v.442a2.935 2.935 0 0 0 2.936 2.935h7.945a2.935 2.935 0 0 0 2.935-2.935v-4.836a2.926 2.926 0 0 0-2.691-2.91zM32.217 17.746v4.394a2.936 2.936 0 0 1-2.936 2.936h-7.944c-.084 0-.163-.019-.244-.025v.442a2.935 2.935 0 0 0 2.935 2.935h7.945a2.935 2.935 0 0 0 2.935-2.935v-4.836a2.926 2.926 0 0 0-2.691-2.911zM32.217 51.756v4.395a2.936 2.936 0 0 1-2.936 2.935h-7.944c-.084 0-.163-.018-.244-.025v.442a2.935 2.935 0 0 0 2.935 2.935h7.945a2.935 2.935 0 0 0 2.935-2.935v-4.836a2.926 2.926 0 0 0-2.691-2.91zM12.211 17.746v4.394a2.936 2.936 0 0 1-2.935 2.936H1.33c-.084 0-.162-.019-.244-.025v.442a2.935 2.935 0 0 0 2.935 2.935h7.945a2.935 2.935 0 0 0 2.936-2.935v-4.836a2.926 2.926 0 0 0-2.692-2.911z"/>
        <rect width="13.816" height="10.706" x="1.087" y=".729" fill="#3DAFCC" rx="2.044"/>
        <rect width="13.816" height="10.706" x="21.093" y=".729" fill="#3DAFCC" rx="2.044"/>
        <rect width="13.816" height="10.706" x="41.098" y=".729" fill="#3DAFCC" rx="2.044"/>
        <rect width="13.816" height="10.706" x="1.087" y="34.739" fill="#3DAFCC" rx="2.044"/>
        <rect width="13.816" height="10.706" x="21.093" y="34.739" fill="#3DAFCC" rx="2.044"/>
        <rect width="13.816" height="10.706" x="41.098" y="34.739" fill="#3DAFCC" rx="2.044"/>
        <path fill="#1F282C" d="M11.968 12.165H4.022A3.669 3.669 0 0 1 .357 8.5V5.122a.73.73 0 0 1 1.459 0V8.5a2.21 2.21 0 0 0 2.206 2.206h7.946A2.208 2.208 0 0 0 14.173 8.5V3.664a2.207 2.207 0 0 0-2.205-2.205H4.022a.73.73 0 1 1 0-1.459h7.946a3.668 3.668 0 0 1 3.664 3.664V8.5a3.668 3.668 0 0 1-3.664 3.665z"/>
        <path fill="#1F282C" fill-rule="nonzero" d="M11.968 29.17H4.022a3.669 3.669 0 0 1-3.665-3.665v-4.836a3.668 3.668 0 0 1 3.665-3.664h7.946a3.668 3.668 0 0 1 3.664 3.664v4.836a3.668 3.668 0 0 1-3.664 3.665zM4.022 18.464a2.208 2.208 0 0 0-2.206 2.205v4.836a2.21 2.21 0 0 0 2.206 2.206h7.946a2.208 2.208 0 0 0 2.205-2.206v-4.836a2.207 2.207 0 0 0-2.205-2.205H4.022zM11.968 46.175H4.022a3.669 3.669 0 0 1-3.665-3.666v-4.835a3.668 3.668 0 0 1 3.665-3.664h7.946a3.668 3.668 0 0 1 3.664 3.664v4.835a3.668 3.668 0 0 1-3.664 3.666zM4.022 35.469a2.208 2.208 0 0 0-2.206 2.205v4.835a2.21 2.21 0 0 0 2.206 2.207h7.946a2.208 2.208 0 0 0 2.205-2.207v-4.835a2.207 2.207 0 0 0-2.205-2.206H4.022zM31.973 12.165h-7.944A3.669 3.669 0 0 1 20.364 8.5V3.664A3.668 3.668 0 0 1 24.029 0h7.944a3.668 3.668 0 0 1 3.665 3.664V8.5a3.669 3.669 0 0 1-3.665 3.665zM24.029 1.459a2.208 2.208 0 0 0-2.207 2.205V8.5a2.21 2.21 0 0 0 2.207 2.206h7.944A2.21 2.21 0 0 0 34.179 8.5V3.664a2.208 2.208 0 0 0-2.206-2.205h-7.944z"/>
        <path fill="#1F282C" d="M31.973 29.17h-7.944a3.669 3.669 0 0 1-3.665-3.665v-3.378a.73.73 0 1 1 1.458 0v3.378a2.21 2.21 0 0 0 2.207 2.206h7.944a2.21 2.21 0 0 0 2.206-2.206v-4.836a2.208 2.208 0 0 0-2.206-2.205h-7.944a.73.73 0 0 1 0-1.46h7.944a3.668 3.668 0 0 1 3.665 3.665v4.836a3.669 3.669 0 0 1-3.665 3.665z"/>
        <path fill="#1F282C" fill-rule="nonzero" d="M31.973 46.175h-7.944a3.669 3.669 0 0 1-3.665-3.666v-4.835a3.668 3.668 0 0 1 3.665-3.664h7.944a3.668 3.668 0 0 1 3.665 3.664v4.835a3.669 3.669 0 0 1-3.665 3.666zm-7.944-10.706a2.208 2.208 0 0 0-2.207 2.205v4.835a2.21 2.21 0 0 0 2.207 2.207h7.944a2.21 2.21 0 0 0 2.206-2.207v-4.835a2.208 2.208 0 0 0-2.206-2.206h-7.944z"/>
        <path fill="#1F282C" d="M51.979 12.165h-7.946A3.669 3.669 0 0 1 40.368 8.5V5.122a.73.73 0 0 1 1.459 0V8.5a2.21 2.21 0 0 0 2.206 2.206h7.946A2.208 2.208 0 0 0 54.184 8.5V3.664a2.207 2.207 0 0 0-2.205-2.205h-7.946a.73.73 0 0 1 0-1.459h7.946a3.668 3.668 0 0 1 3.664 3.664V8.5a3.668 3.668 0 0 1-3.664 3.665z"/>
        <path fill="#1F282C" fill-rule="nonzero" d="M51.979 29.17h-7.946a3.669 3.669 0 0 1-3.665-3.665v-4.836a3.668 3.668 0 0 1 3.665-3.664h7.946a3.668 3.668 0 0 1 3.664 3.664v4.836a3.668 3.668 0 0 1-3.664 3.665zm-7.946-10.706a2.208 2.208 0 0 0-2.206 2.205v4.836a2.21 2.21 0 0 0 2.206 2.206h7.946a2.208 2.208 0 0 0 2.205-2.206v-4.836a2.207 2.207 0 0 0-2.205-2.205h-7.946zM51.979 46.175h-7.946a3.669 3.669 0 0 1-3.665-3.666v-4.835a3.668 3.668 0 0 1 3.665-3.664h7.946a3.668 3.668 0 0 1 3.664 3.664v4.835a3.668 3.668 0 0 1-3.664 3.666zm-7.946-10.706a2.208 2.208 0 0 0-2.206 2.205v4.835a2.21 2.21 0 0 0 2.206 2.207h7.946a2.208 2.208 0 0 0 2.205-2.207v-4.835a2.207 2.207 0 0 0-2.205-2.206h-7.946zM31.973 63.18h-7.944a3.669 3.669 0 0 1-3.665-3.666V54.68a3.669 3.669 0 0 1 3.665-3.665h7.944a3.669 3.669 0 0 1 3.665 3.665v4.834a3.669 3.669 0 0 1-3.665 3.665zm-7.944-10.707a2.21 2.21 0 0 0-2.207 2.207v4.834a2.21 2.21 0 0 0 2.207 2.207h7.944a2.21 2.21 0 0 0 2.206-2.207V54.68a2.21 2.21 0 0 0-2.206-2.207h-7.944z"/>
    </g>
</svg>
