<svg xmlns="http://www.w3.org/2000/svg" width="63" height="66" viewBox="0 0 63 66">
    <g fill="none" fill-rule="evenodd">
        <path fill="#FFF" d="M.968 61.6l6.583-4.525 6.585 4.525 6.584-4.525 6.585 4.525 6.583-4.525 6.083 4.525 11.44-7.386V.755H.841z"/>
        <path fill="#CEEAF2" d="M46.338.754h5.073v48.689h-5.073zM.968 61.6l6.583-4.525 6.585 4.525 6.584-4.525 6.585 4.525 6.583-4.525 6.083 4.525 8.893-7.386-6.723-4.771H.841z"/>
        <circle cx="51.411" cy="54.625" r="10.621" fill="#3DAFCC"/>
        <path fill="#1F282C" d="M.968 62.354a.754.754 0 0 1-.755-.754V.754A.754.754 0 0 1 .968 0H51.41a.754.754 0 0 1 .755.754v38.092a.754.754 0 1 1-1.509 0V1.509H1.722v60.09a.754.754 0 0 1-.754.755zM51.41 66a11.384 11.384 0 0 1-11.127-13.745.772.772 0 0 1 .896-.58.755.755 0 0 1 .58.895 9.865 9.865 0 1 0 3.427-5.602.754.754 0 1 1-.951-1.17A11.376 11.376 0 1 1 51.41 66z"/>
        <path fill="#1F282C" d="M14.135 62.354a.753.753 0 0 1-.427-.133L7.551 57.99 1.395 62.22a.754.754 0 0 1-.855-1.243l6.584-4.526a.755.755 0 0 1 .855 0l6.583 4.526a.754.754 0 0 1-.427 1.376z"/>
        <path fill="#1F282C" d="M27.304 62.354a.753.753 0 0 1-.427-.133L20.72 57.99l-6.158 4.232a.754.754 0 0 1-.854-1.243l6.585-4.526a.755.755 0 0 1 .855 0l6.584 4.526a.754.754 0 0 1-.428 1.376z"/>
        <path fill="#1F282C" d="M27.304 62.354a.754.754 0 0 1-.427-1.376l6.584-4.526a.754.754 0 1 1 .854 1.243l-6.583 4.526a.753.753 0 0 1-.428.133zM50.254 58.952c-.2 0-.392-.08-.533-.22l-3.916-3.917a.754.754 0 1 1 1.067-1.066l3.382 3.382 5.697-5.697a.754.754 0 1 1 1.067 1.067l-6.23 6.23a.752.752 0 0 1-.534.221zM16.46 11.74h-7.4a.754.754 0 1 1 0-1.509h7.4a.754.754 0 1 1 0 1.51zM39.97 18.339H32.57a.754.754 0 1 1 0-1.509h7.398a.754.754 0 1 1 0 1.509zM39.97 24.937H32.57a.754.754 0 1 1 0-1.508h7.398a.754.754 0 1 1 0 1.508zM39.97 31.534H32.57a.754.754 0 1 1 0-1.508h7.398a.754.754 0 1 1 0 1.508zM39.97 38.133H32.57a.754.754 0 1 1 0-1.509h7.398a.754.754 0 1 1 0 1.509zM39.97 44.73H32.57a.754.754 0 1 1 0-1.509h7.398a.754.754 0 1 1 0 1.509zM26.712 18.339H9.06a.754.754 0 1 1 0-1.509h17.652a.754.754 0 0 1 0 1.509zM26.712 24.937H9.06a.754.754 0 1 1 0-1.508h17.652a.754.754 0 0 1 0 1.508zM26.712 31.534H9.06a.754.754 0 1 1 0-1.508h17.652a.754.754 0 1 1 0 1.508zM26.712 38.133H9.06a.754.754 0 1 1 0-1.509h17.652a.754.754 0 1 1 0 1.509zM26.712 44.73H9.06a.754.754 0 1 1 0-1.509h17.652a.754.754 0 0 1 0 1.509z"/>
        <path stroke="#1F282C" d="M.968 61.6V.755H51.41"/>
    </g>
</svg>
