<svg width="96" height="96" viewBox="0 0 96 96" fill="none" xmlns="http://www.w3.org/2000/svg">
<path d="M32.8116 96C32.4204 96 31.9936 95.9288 31.6024 95.8222C17.2332 91.0571 5.78058 80.2468 0.267665 66.1295C-0.514813 64.1381 0.481068 61.8978 2.43726 61.1155C4.42903 60.3332 6.66976 61.3289 7.45224 63.2847C12.1471 75.2684 21.8214 84.4429 34.0209 88.4612C36.0482 89.1369 37.1508 91.306 36.4751 93.333C35.9416 94.9687 34.4477 96 32.8116 96Z" fill="#614A8A"/>
<path d="M47.5365 80.389C65.6672 80.389 80.365 65.6941 80.365 47.5671C80.365 29.44 65.6672 14.7451 47.5365 14.7451C29.4058 14.7451 14.708 29.44 14.708 47.5671C14.708 65.6941 29.4058 80.389 47.5365 80.389Z" fill="#6091D8"/>
<path d="M92.1022 36.6856C90.4661 36.6856 88.9722 35.6544 88.4387 34.0186C84.4196 21.8215 75.2433 12.1492 63.2572 7.45523C61.2654 6.67291 60.3051 4.43262 61.0876 2.44126C61.8701 0.449891 64.1108 -0.510231 66.1025 0.272091C80.2227 5.81946 91.0351 17.2343 95.8011 31.6005C96.4769 33.6275 95.3743 35.7966 93.347 36.4723C92.9202 36.6501 92.529 36.6856 92.1022 36.6856Z" fill="#614A8A"/>
<path d="M63.5061 30.7472C64.1463 33.3075 64.4309 36.0456 64.2886 38.8549C63.5773 52.5455 52.4803 63.6403 38.7869 64.3515C35.9771 64.4937 33.2385 64.2092 30.6776 63.5691C25.4492 62.2534 21.857 68.7609 25.9116 72.3169C32.0647 77.6865 40.2452 80.8158 49.137 80.3891C65.9247 79.6067 79.5469 65.9872 80.3294 49.2029C80.7562 40.3128 77.6263 32.134 72.2556 25.9821C68.7345 21.8927 62.1901 25.5198 63.5061 30.7472Z" fill="#5A77C3"/>
<path d="M47.5365 22.4613C49.2081 22.4613 50.8087 22.6391 52.3736 22.9236C53.9741 23.2437 55.6458 22.5324 56.4639 21.11C56.4639 21.0745 56.4994 21.0745 56.4994 21.0389C57.8154 18.7275 56.3927 15.8472 53.7963 15.3138C51.769 14.9226 49.6705 14.7092 47.5009 14.7092C31.4957 14.7092 18.158 26.1596 15.2415 41.3437C14.7791 43.7618 16.6642 46.0021 19.1183 45.8954C19.1539 45.8954 19.1539 45.8954 19.1895 45.8954C21.0034 45.8243 22.4616 44.5086 22.8173 42.7661C25.1292 31.2091 35.3369 22.4613 47.5365 22.4613Z" fill="#76A8E5"/>
<path d="M24.6313 29.858C24.7024 29.8936 24.738 29.9647 24.8091 30.0002C26.2674 31.2093 28.4725 31.1382 29.8597 29.7869C31.6736 28.0089 33.7365 26.4798 35.9772 25.3063C37.9334 24.2751 38.6092 21.857 37.5066 19.9723C37.5066 19.9367 37.471 19.9367 37.471 19.9012C36.4396 18.1232 34.1989 17.5187 32.3849 18.4788C29.4684 19.9723 26.8009 21.9281 24.489 24.204C22.8885 25.8042 22.9241 28.4 24.6313 29.858Z" fill="#A6CBFF"/>
<path d="M23.6709 55.2837C23.3508 54.3591 23.1018 53.399 22.924 52.4033C22.5683 50.5542 20.8255 49.274 18.9404 49.3807H18.8693C16.5574 49.523 14.8858 51.6566 15.3481 53.9324C15.5971 55.2126 15.9172 56.4216 16.3085 57.6662C16.9131 59.5153 18.8337 60.5466 20.7188 60.191C20.7544 60.191 20.7544 60.191 20.7899 60.191C22.9951 59.7287 24.3466 57.4173 23.6709 55.2837Z" fill="#76A8E5"/>
<path d="M71.3309 39.5304C71.5443 40.135 71.7221 40.7395 71.8644 41.344C72.3267 43.0864 73.9628 44.2955 75.7768 44.1533C75.8123 44.1533 75.8479 44.1533 75.8835 44.1533C78.2309 43.9755 79.9026 41.7707 79.3335 39.4593C79.1201 38.6414 78.8711 37.8236 78.6221 37.0412C77.9819 35.1921 75.9902 34.1609 74.0695 34.6231C74.034 34.6231 74.034 34.6231 73.9984 34.6587C71.8999 35.1921 70.6195 37.4324 71.3309 39.5304Z" fill="#5660A4"/>
<path d="M72.1845 52.4032C70.1572 62.7512 61.7633 70.8233 51.271 72.388C49.4571 72.6725 48.07 74.0949 47.9633 75.944C47.9633 75.9796 47.9633 75.9796 47.9633 76.0151C47.821 78.4688 49.955 80.389 52.3736 80.0334C66.1381 78.0065 77.1639 67.4451 79.7959 53.8612C80.2583 51.5142 78.5155 49.2739 76.0969 49.2739C76.0258 49.2739 75.9546 49.2739 75.8835 49.2739C74.034 49.3095 72.5402 50.6252 72.1845 52.4032Z" fill="#5660A4"/>
<path d="M45.4736 54.8212H42.1659C39.6406 54.8212 37.6133 52.7942 37.6133 50.2695C37.6133 47.7447 39.6406 45.7178 42.1659 45.7178H45.4736C47.9989 45.7178 50.0262 47.7447 50.0262 50.2695C50.0262 52.7942 47.9989 54.8212 45.4736 54.8212Z" fill="#5A77C3"/>
<path d="M55.3257 42.5179H52.7649C50.8443 42.5179 49.2793 40.9532 49.2793 39.033C49.2793 37.1127 50.8443 35.5481 52.7649 35.5481H55.3257C57.2463 35.5481 58.8113 37.1127 58.8113 39.033C58.8113 40.9532 57.2463 42.5179 55.3257 42.5179Z" fill="#5A77C3"/>
<path d="M38.8579 39.0327H36.2971C34.3765 39.0327 32.8115 37.468 32.8115 35.5478C32.8115 33.592 34.3765 32.0273 36.2971 32.0273H38.8579C40.7786 32.0273 42.3435 33.592 42.3435 35.5122C42.3435 37.468 40.7786 39.0327 38.8579 39.0327Z" fill="#76A8E5"/>
</svg>
