<svg width="24" height="24" viewBox="0 0 24 24" fill="none" xmlns="http://www.w3.org/2000/svg">
<path d="M10 13V12H0V13C0 15.758 2.243 18 5 18C7.757 18 10 15.758 10 13Z" fill="#F2C43F"/>
<path d="M14 12V13C14 15.758 16.243 18 19 18C21.757 18 24 15.758 24 13V12H14Z" fill="#F2C43F"/>
<path d="M12.9998 6H17.3818L14.8818 11H17.1168L18.9998 7.236L20.8828 11H23.1178L20.6178 6H21.9998V4H12.9998V2H10.9998V4H1.99984V6H3.38184L0.881836 11H3.11684L4.99984 7.236L6.88284 11H9.11784L6.61784 6H10.9998V20H7.99984V22H15.9998V20H12.9998V6Z" fill="#F2C43F"/>
</svg>
