<svg xmlns="http://www.w3.org/2000/svg" width="53" height="74" viewBox="0 0 53 74">
    <g fill="none" fill-rule="evenodd">
        <path d="M-5-1h63v74H-5z"/>
        <path fill="#FFF" d="M10.46 33.46a3.448 3.448 0 0 0-3.39-2.408c-2.735 0-3.475 3.217-3.475 3.217v14.785c-.157 3.09.734 6.14 2.528 8.66 2.925 3.702 8.373 7.633 8.373 14.67h25.306a28.226 28.226 0 0 1 2.421-10.511c2.151-4.784 4.041-9.68 5.661-14.669 1.148-4.478 3.296-14.44 3.296-14.44a3.932 3.932 0 0 0-1.03-4.225c-1.986-1.578-3.677.89-3.677.89s1.42-4.805-.792-6.26c-2.212-1.456-3.127-.974-3.127-.974s1.538-3.963-1.887-5.265a3.038 3.038 0 0 0-4.359 1.672l-4.956 16.246s-1.094 4.71-4.117 4.177c-3.023-.534-3.26-1.798-3.473-4.326V21.316s.29-4.45-3.67-4.45c-3.961 0-3.763 4.548-3.763 4.548v16.56s.626 4.707-3.19 10.716a11.807 11.807 0 0 0-1.563-2.35c-.429-.718-.82-1.46-1.17-2.22l.054-10.66z"/>
        <path fill="#CEEAF2" d="M14.496 72.384v-1.015c0-9.082-10.901-10.577-10.901-22.315v-14.02a3.988 3.988 0 0 1 2.013-3.766 1.014 1.014 0 0 1 1.09 1.116V46.83a3.547 3.547 0 0 0 6.44 1.86c.205-.31.41-.653.614-1.031a12.886 12.886 0 0 0 2.577-7.314s-2.27 14.74 2.536 22.281a16.58 16.58 0 0 1 2.727 9.758h-7.096z"/>
        <path fill="#3DAFCC" d="M10.406 44.652V22.195s.369-14.138 17.78-13.301l3.171-.036s14.158 1.488 14.255 13.337l.307 1.559-2.151-1.05-1.214-.509s1.42-4.384-1.887-5.265c-3.307-.88-4.093.902-4.359 1.672l-4.956 16.246s-.788 4.332-4.429 4.138c-3.64-.194-3.174-5.388-3.174-5.388V21.316s.966-3.9-3.658-4.45c-4.624-.55-3.762 4.548-3.762 4.548v16.941c-.009 3.276-.899 6.49-2.577 9.304-.871 1.349-3.346.647-3.346-3.007z"/>
        <path fill="#1F282C" d="M14.497 73.114a.73.73 0 0 1-.731-.73v-1.015c0-3.964-2.193-6.343-4.735-9.098-2.89-3.134-6.168-6.687-6.168-13.217v-14.02a4.939 4.939 0 0 1 2.703-4.417.731.731 0 0 1 .666 1.302 3.485 3.485 0 0 0-1.907 3.114v14.02c0 5.96 2.94 9.146 5.781 12.227 2.635 2.856 5.122 5.554 5.122 10.09v1.013a.73.73 0 0 1-.73.731zM16.33 39.876a.73.73 0 0 1-.732-.731V20.523a4.441 4.441 0 0 1 8.882 0v13.76a.731.731 0 0 1-1.462 0v-13.76a2.98 2.98 0 0 0-5.958 0v18.622a.73.73 0 0 1-.73.73zM37.58 38.898a.731.731 0 0 1-.698-.948l5.306-17.038a2.95 2.95 0 0 0-4.313-3.145 3.03 3.03 0 0 0-1.124 1.787l-4.104 13.352a.73.73 0 1 1-1.396-.429l4.094-13.319a4.34 4.34 0 0 1 1.718-2.606 4.509 4.509 0 0 1 6.071 1.527 4.24 4.24 0 0 1 .46 3.231L38.28 38.384a.73.73 0 0 1-.698.514z"/>
        <path fill="#1F282C" d="M43.176 46.34a.72.72 0 0 1-.631-.368 5.738 5.738 0 0 1-.347-3.617c.374-2.3 1.778-7.26 1.836-7.47l2.192-7.095a3.824 3.824 0 0 0-.53-3.517 3.45 3.45 0 0 0-3.157-1.093.764.764 0 0 1-.793-.665.731.731 0 0 1 .664-.792 4.937 4.937 0 0 1 4.42 1.626 5.282 5.282 0 0 1 .796 4.866l-2.19 7.085c-.008.035-1.433 5.074-1.796 7.289a4.61 4.61 0 0 0 .184 2.675.733.733 0 0 1-.648 1.076zM10.406 45.384a.73.73 0 0 1-.731-.731V23.267A15.243 15.243 0 0 1 20.34 8.832a14.989 14.989 0 0 1 4.44-.67h5.814a14.977 14.977 0 0 1 8.52 2.65.731.731 0 0 1-.829 1.205 13.521 13.521 0 0 0-7.69-2.392H24.78a13.51 13.51 0 0 0-4.007.604 13.77 13.77 0 0 0-9.636 13.038v21.385a.73.73 0 0 1-.731.732z"/>
        <path fill="#1F282C" d="M29.11 22.927a.73.73 0 0 1-.731-.731V8.894a.731.731 0 0 1 1.462 0v13.302a.73.73 0 0 1-.731.73zM27.506 39.859a4.195 4.195 0 0 1-3.076-1.13 6.003 6.003 0 0 1-1.412-4.445.731.731 0 0 1 1.462 0 4.745 4.745 0 0 0 .981 3.407c.559.528 1.32.786 2.084.705 1.872-.014 2.653-1.827 3.696-5.886a.731.731 0 1 1 1.416.363c-.838 3.263-1.786 6.96-5.1 6.986h-.05zM37.265 42.288a.731.731 0 0 1-.72-.62 9.626 9.626 0 0 1 .33-3.691.73.73 0 1 1 1.411.38 8.277 8.277 0 0 0-.297 3.088.731.731 0 0 1-.724.843zM12.7 49.826a.73.73 0 0 1-.585-1.168 16.58 16.58 0 0 0 3.483-9.513.731.731 0 0 1 1.462 0 18.034 18.034 0 0 1-3.774 10.387.726.726 0 0 1-.585.294zM39.916 73.114a.73.73 0 0 1-.731-.73c0-5.255 1.586-8.873 3.424-13.063.875-1.998 1.78-4.064 2.617-6.524.62-1.72 1.236-3.605 1.573-4.817 2.107-7.596 3.831-15.895 3.848-15.978a2.829 2.829 0 0 0-.525-2.43.731.731 0 0 1 1.062-1.005 4.161 4.161 0 0 1 .898 3.716c-.021.099-1.753 8.444-3.875 16.088-.344 1.244-.973 3.17-1.6 4.91-.852 2.506-1.77 4.6-2.66 6.627-1.77 4.04-3.3 7.527-3.3 12.475a.73.73 0 0 1-.731.731zM10.386 9.13a.729.729 0 0 1-.517-.215L6.783 5.83a.731.731 0 1 1 1.034-1.034l3.086 3.086a.731.731 0 0 1-.517 1.248zM17.4 5.826a.73.73 0 0 1-.73-.73V.73a.731.731 0 0 1 1.461 0v4.364a.73.73 0 0 1-.73.731zM5.56 15.998H1.196a.731.731 0 0 1 0-1.462h4.366a.731.731 0 0 1 0 1.462z"/>
    </g>
</svg>
