<svg xmlns="http://www.w3.org/2000/svg" width="90" height="88" viewBox="0 0 90 88">
    <g fill="none" fill-rule="evenodd">
        <path fill="#1F282C" fill-rule="nonzero" d="M72.741 60.203a2.511 2.511 0 0 0 0-3.61l-1.41-1.373c4.626-10.284 2.64-22.706-6.007-31.12-8.647-8.415-21.406-10.348-31.968-5.847l-1.41-1.373a2.676 2.676 0 0 0-3.71 0L13.177 2.222a5 5 0 0 0-6.974 0L2.244 6.075a5 5 0 0 0 0 7.165l14.865 14.472a2.507 2.507 0 0 0 0 3.61l1.41 1.373c-4.623 10.283-2.64 22.703 6.007 31.118 8.647 8.414 21.406 10.35 31.97 5.846l1.411 1.373a2.68 2.68 0 0 0 3.709 0L76.67 85.69a5 5 0 0 0 6.975 0l3.96-3.854a5 5 0 0 0 0-7.166L72.74 60.203z"/>
        <path fill="#FFF" d="M28.237 60.203c-6.822-6.64-8.582-16.326-5.308-24.552h.002c.239-.615.525-1.215.821-1.807.066-.13.12-.266.189-.398.244-.468.53-.92.81-1.374.142-.225.265-.457.412-.679.275-.408.588-.799.892-1.195.18-.237.343-.48.537-.712a22.92 22.92 0 0 1 1.645-1.777 23.521 23.521 0 0 1 1.823-1.598c.251-.2.516-.368.773-.554.391-.283.777-.577 1.18-.835.242-.153.494-.278.738-.424.453-.265.904-.533 1.371-.765.142-.072.286-.128.43-.194a22.419 22.419 0 0 1 1.844-.792v-.002c8.45-3.186 18.404-1.473 25.223 5.167 6.821 6.637 8.578 16.323 5.305 24.549h-.002c-.247.633-.538 1.25-.845 1.863-.055.11-.1.222-.16.332-.26.496-.559.975-.857 1.455-.126.197-.234.404-.368.6-.29.437-.624.856-.95 1.277-.164.21-.306.429-.479.633a22.99 22.99 0 0 1-1.647 1.78 24.221 24.221 0 0 1-1.828 1.603c-.207.163-.428.3-.64.457-.435.321-.868.648-1.322.934-.202.13-.412.235-.616.355-.493.293-.986.584-1.495.837-.11.054-.226.1-.336.153-.63.302-1.267.585-1.92.825v.002c-8.453 3.19-18.406 1.476-25.222-5.164z"/>
        <path fill="#3CB0CB" d="M54.57 42.162c-.005-3.235-2.703-5.862-6.029-5.865a6.098 6.098 0 0 0-3.608 1.176 6.099 6.099 0 0 0-3.615-1.184c-3.323-.002-6.016 2.62-6.01 5.854.007 6.004 9.644 12.313 9.644 12.313s9.623-6.432 9.619-12.294zM34.277 30.476c.55.536.55 1.407 0 1.943a1.44 1.44 0 0 1-1.996 0l-1.995-1.943a1.349 1.349 0 0 1 0-1.942 1.44 1.44 0 0 1 1.995 0l1.996 1.942zM59.565 57.437c.55.536.55 1.406 0 1.942a1.439 1.439 0 0 1-1.994 0l-1.998-1.942a1.351 1.351 0 0 1 0-1.944 1.442 1.442 0 0 1 1.998 0l1.994 1.944zM31.075 55.493a1.442 1.442 0 0 1 1.998 0c.55.536.55 1.406 0 1.942l-1.998 1.942a1.433 1.433 0 0 1-1.994 0 1.349 1.349 0 0 1 0-1.942l1.994-1.942zM57.57 29.706a1.44 1.44 0 0 1 1.995 0c.55.536.55 1.407 0 1.942l-1.996 1.943a1.44 1.44 0 0 1-1.995 0 1.349 1.349 0 0 1 0-1.943l1.995-1.942z"/>
    </g>
</svg>
