<svg width="42" height="16" viewBox="0 0 42 16" fill="none" xmlns="http://www.w3.org/2000/svg">
<path d="M17.735 7.97746V5.2507H19.1433C19.9791 5.2507 20.4829 5.78028 20.4829 6.60282C20.4829 7.43662 19.9791 7.97746 19.1204 7.97746H17.735Z" fill="#EDBD3C"/>
<path d="M24.5092 10.7493V5.2507H25.7229C27.3487 5.2507 28.4249 6.20845 28.4249 7.98873C28.4249 9.79155 27.3716 10.7493 25.7229 10.7493H24.5092Z" fill="#EDBD3C"/>
<path fill-rule="evenodd" clip-rule="evenodd" d="M0 2.66667C0 1.19391 1.21316 0 2.70968 0H39.2903C40.7868 0 42 1.19391 42 2.66667V13.3333C42 14.8061 40.7868 16 39.2903 16H2.70968C1.21316 16 0 14.8061 0 13.3333V2.66667ZM17.735 12H16.2581V4H19.3952C20.9179 4 21.9827 5.04789 21.9827 6.60282C21.9827 8.15775 20.9179 9.23944 19.3952 9.23944H17.735V12ZM25.803 12H23.0323V4H25.803C28.3104 4 29.9477 5.46479 29.9477 7.98873C29.9477 10.5127 28.3104 12 25.803 12ZM30.8915 12H32.3684V8.7662H35.059V7.51549H32.3684V5.2507H35.5628V4H30.8915V12ZM5.41935 8.44445L9.03226 12L12.6452 8.44445H9.93548V4H8.12903V8.44445H5.41935Z" fill="#EDBD3C"/>
</svg>
