<svg width="64" height="64" viewBox="0 0 64 64" fill="none" xmlns="http://www.w3.org/2000/svg">
<path d="M43.4022 32.0058C43.4022 38.2972 38.2948 43.4019 32.0001 43.4019C25.7054 43.4019 20.5979 38.2972 20.5979 32.0058C20.5979 25.7144 25.7054 20.6096 32.0001 20.6096C38.2948 20.6096 43.4022 25.7144 43.4022 32.0058Z" fill="#76A8E5"/>
<path d="M31.1935 27.8411C31.1935 29.4307 29.8943 30.7293 28.3038 30.7293C26.7133 30.7293 25.4141 29.4307 25.4141 27.8411C25.4141 26.2515 26.7133 24.9529 28.3038 24.9529C29.8943 24.9529 31.1935 26.2515 31.1935 27.8411Z" fill="#A6CBFF"/>
<path d="M38.1155 28.1994C38.1155 28.2441 38.1155 28.2889 38.0931 28.3337C37.6003 33.2593 33.6129 37.2223 28.6846 37.6924C28.3262 37.7372 27.9678 37.7372 27.6094 37.7372C25.2797 37.7372 24.518 40.8941 26.5789 42.0136C28.4606 43.0211 30.6783 43.536 33.008 43.3345C38.3619 42.8644 42.7301 38.588 43.3126 33.237C43.5366 31.1771 43.2006 29.2293 42.4613 27.4829C41.5205 25.3111 38.3171 25.8261 38.1155 28.1994Z" fill="#5A77C3"/>
<path d="M32 63.9999C31.3727 63.9999 30.7455 63.7537 30.2751 63.2835L23.8236 56.8353C22.8827 55.895 22.8827 54.3501 23.8236 53.3874C24.7644 52.447 26.3101 52.447 27.2733 53.3874L32 58.1115L36.7266 53.3874C37.6674 52.447 39.2131 52.447 40.1764 53.3874C41.1172 54.3277 41.1172 55.8726 40.1764 56.8353L33.7249 63.2835C33.232 63.7537 32.6048 63.9999 32 63.9999Z" fill="#B1697B"/>
<path d="M8.88205 40.8941C8.25481 40.8941 7.62758 40.6478 7.15716 40.1776L0.705635 33.7295C-0.235212 32.7892 -0.235212 31.2443 0.705635 30.2816L7.15716 23.8334C8.09801 22.8931 9.64368 22.8931 10.6069 23.8334C11.5478 24.7738 11.5478 26.3187 10.6069 27.2814L5.8803 32.0055L10.6069 36.7297C11.5478 37.67 11.5478 39.2149 10.6069 40.1776C10.1141 40.6478 9.48688 40.8941 8.88205 40.8941Z" fill="#865882"/>
<path d="M25.5484 11.3178C24.9212 11.3178 24.294 11.0715 23.8236 10.6013C22.8827 9.66099 22.8827 8.11613 23.8236 7.15339L30.2751 0.705264C31.2159 -0.235088 32.7616 -0.235088 33.7249 0.705264L40.1764 7.15339C41.1172 8.09374 41.1172 9.63861 40.1764 10.6013C39.2355 11.5417 37.6898 11.5417 36.7266 10.6013L32 5.8772L27.2733 10.6013C26.8029 11.0715 26.1757 11.3178 25.5484 11.3178Z" fill="#614A8A"/>
<path d="M55.118 40.8719C54.4908 40.8719 53.8636 40.6256 53.3931 40.1554C52.4523 39.2151 52.4523 37.6702 53.3931 36.7075L58.1198 31.9833L53.3931 27.2592C52.4523 26.3188 52.4523 24.774 53.3931 23.8112C54.334 22.8709 55.8797 22.8709 56.8429 23.8112L63.2944 30.2593C64.2353 31.1997 64.2353 32.7446 63.2944 33.7073L56.8429 40.1554C56.3725 40.648 55.7453 40.8719 55.118 40.8719Z" fill="#865882"/>
</svg>
