<svg width="128" height="128" viewBox="0 0 128 128" fill="none" xmlns="http://www.w3.org/2000/svg">
<path opacity="0.1" d="M63.9989 123.978C97.1436 123.978 124.013 97.1171 124.013 63.9819C124.013 30.8467 97.1436 3.98535 63.9989 3.98535C30.8542 3.98535 3.98511 30.8467 3.98511 63.9819C3.98511 97.1171 30.8542 123.978 63.9989 123.978Z" fill="#3F3063"/>
<path d="M64 128C28.7151 128 0 99.2932 0 63.9816C0 28.7068 28.7151 0 64 0C99.2849 0 128 28.7068 128 63.9816C128.037 99.2932 99.3218 128 64 128ZM64 8.00692C33.1073 8.00692 8.00922 33.1346 8.00922 63.9816C8.00922 94.8654 33.1442 119.956 64 119.956C94.8558 119.956 119.991 94.8285 119.991 63.9816C120.028 33.1346 94.8927 8.00692 64 8.00692Z" fill="#614A8A"/>
<path d="M64 105.049C86.6876 105.049 105.08 86.6622 105.08 63.9811C105.08 41.3 86.6876 22.9133 64 22.9133C41.3124 22.9133 22.9204 41.3 22.9204 63.9811C22.9204 86.6622 41.3124 105.049 64 105.049Z" fill="#6091D8"/>
<path d="M95.8891 38.0793C92.1613 33.5039 84.8903 37.0092 86.1452 42.8023C86.7727 45.7172 87.0679 48.7798 86.9572 51.9161C86.9572 51.953 86.9572 51.953 86.9572 51.9899C86.8465 55.237 84.1152 57.783 80.8672 57.783H73.2271C69.6469 57.783 66.7311 60.6979 66.7311 64.277C66.7311 68.0038 68.6873 69.6642 71.3447 70.3653C75.3678 71.4353 76.512 76.5642 73.264 79.1839C67.3955 83.9438 60.0137 86.9326 51.9676 87.3015C48.978 87.4491 46.0622 87.2278 43.294 86.6743C37.5731 85.5673 34.2882 92.9839 38.9018 96.563C45.9145 101.987 54.7358 105.197 64.3321 105.123C86.2559 104.939 104.378 87.2646 105.043 65.3471C105.375 54.9418 101.868 45.4589 95.8891 38.0793Z" fill="#5A77C3"/>
<path d="M98.5836 53.0963C98.5466 53.0963 98.5097 53.0963 98.5097 53.1332C96.2214 53.7973 94.8189 56.085 95.2248 58.4465C95.7047 61.1032 95.8523 63.8706 95.5939 66.7117C94.3021 82.0614 81.9377 94.3854 66.6205 95.64C64.5167 95.8245 62.4498 95.7875 60.4567 95.5662C57.9469 95.271 55.6585 97.0052 55.2895 99.5143C54.9204 102.134 56.7658 104.532 59.3494 104.828C60.8627 105.012 62.4129 105.086 63.963 105.086C86.662 105.086 105.043 86.7106 105.043 64.0182C105.043 61.546 104.821 59.1107 104.378 56.7123C103.935 54.0187 101.241 52.3583 98.5836 53.0963Z" fill="#5660A4"/>
<path d="M29.4904 71.2137C29.4535 71.2137 29.4166 71.2137 29.3797 71.2137C26.2793 71.2875 24.1386 74.387 25.1351 77.3388C25.7257 79.1099 26.4639 80.8073 27.3128 82.4677C28.4569 84.6816 31.1144 85.6778 33.4027 84.6447C33.4396 84.6447 33.4765 84.6078 33.4765 84.6078C35.8756 83.5008 36.8722 80.6228 35.6542 78.2613C35.0267 77.0067 34.4731 75.6784 33.9933 74.3501C33.3658 72.3945 31.5204 71.1768 29.4904 71.2137Z" fill="#76A8E5"/>
<path d="M60.8997 80.0325H59.0542C56.1754 80.0325 53.8501 77.7079 53.8501 74.8298C53.8501 71.9518 56.1754 69.6272 59.0542 69.6272H60.8997C63.7786 69.6272 66.1038 71.9518 66.1038 74.8298C66.1038 77.7079 63.7786 80.0325 60.8997 80.0325Z" fill="#5A77C3"/>
<path d="M62.5974 46.1601H61.3425C59.3864 46.1601 57.8362 44.5735 57.8362 42.6548C57.8362 40.6991 59.4233 39.1494 61.3425 39.1494H62.5974C64.5536 39.1494 66.1038 40.736 66.1038 42.6548C66.1038 44.5735 64.5536 46.1601 62.5974 46.1601Z" fill="#76A8E5"/>
<path d="M46.948 73.1325H45.6931C43.7369 73.1325 42.1868 71.5459 42.1868 69.6272C42.1868 67.6716 43.7738 66.1218 45.6931 66.1218H46.948C48.9042 66.1218 50.4544 67.7085 50.4544 69.6272C50.4544 71.5459 48.8673 73.1325 46.948 73.1325Z" fill="#5A77C3"/>
<path d="M75.4416 24.5369C71.8245 23.5037 67.986 22.9133 64.0368 22.9133C43.7738 22.9133 26.9434 37.5988 23.5847 56.8966C23.0679 59.7747 25.2825 62.3944 28.1983 62.3576C28.2352 62.3576 28.2721 62.3576 28.309 62.3576C30.5235 62.3207 32.4059 60.734 32.8119 58.557C33.181 56.4907 33.7346 54.4613 34.4728 52.5426C35.58 49.7015 38.3482 47.8565 41.3747 47.8565H45.8776C48.1291 47.8565 49.9745 46.0485 50.0114 43.7977C50.0483 42.2111 49.4578 41.2149 48.6827 40.6245C47.1325 39.4068 47.2432 37.0823 48.978 36.1229C53.4808 33.6876 58.6112 32.2855 64.0737 32.2855C67.174 32.2855 70.1267 32.7283 72.9687 33.54C75.2202 34.2042 77.6192 33.171 78.6158 30.994C79.7599 28.3374 78.2467 25.3855 75.4416 24.5369Z" fill="#76A8E5"/>
<path d="M44.549 27.8208C42.3344 29.0015 40.2306 30.4037 38.3114 31.9534C36.2814 33.5769 35.9861 36.5657 37.647 38.5582C37.6839 38.5951 37.6839 38.5951 37.7208 38.632C39.3448 40.5507 42.2237 40.809 44.1799 39.2224C45.6562 38.0416 47.2433 36.9716 48.978 36.0491C50.9711 34.9791 51.8569 32.6176 51.0818 30.5144C51.0818 30.4775 51.0449 30.4406 51.0449 30.4406C50.1222 27.747 47.0588 26.4925 44.549 27.8208Z" fill="#A6CBFF"/>
</svg>
