<svg xmlns="http://www.w3.org/2000/svg" width="56" height="56" viewBox="0 0 56 56">
    <g fill="none" fill-rule="evenodd">
        <path fill="#CEEAF2" d="M13.63 37.023a8.047 8.047 0 0 1-3.237-2.295 4.185 4.185 0 0 1-2.305.749 4.41 4.41 0 0 1-2.24-.703c-.02.024-.04.043-.06.068a4.82 4.82 0 0 1 2.403 4.16v5.169h7.349v-4.516a2.734 2.734 0 0 0-1.91-2.632zM34.739 46.723a9.706 9.706 0 0 1-3.906-2.768 5.048 5.048 0 0 1-2.78.903 5.32 5.32 0 0 1-2.7-.848c-.025.03-.05.053-.074.083a5.815 5.815 0 0 1 2.898 5.018v6.234h8.864v-5.446a3.298 3.298 0 0 0-2.302-3.176zM53.456 37.023a8.047 8.047 0 0 1-3.238-2.295 4.185 4.185 0 0 1-2.305.749 4.41 4.41 0 0 1-2.24-.703c-.02.024-.04.043-.06.068a4.82 4.82 0 0 1 2.402 4.16v5.169h7.35v-4.516a2.734 2.734 0 0 0-1.91-2.632zM23.716 25.056a4.274 4.274 0 0 0 8.529 0h-8.529z"/>
        <path fill="#3DAFCC" d="M34.213 18.607v-4.822a6.349 6.349 0 0 0-6.232-6.459 6.349 6.349 0 0 0-6.233 6.46v4.821l-3.57 4.298a1.372 1.372 0 0 0 1.084 2.151H36.7a1.372 1.372 0 0 0 1.084-2.15l-3.571-4.299z"/>
        <path fill="#1F282C" fill-rule="nonzero" d="M27.98 45.41a5.408 5.408 0 0 1-5.401-5.402v-1.334a5.402 5.402 0 1 1 10.804 0v1.334a5.408 5.408 0 0 1-5.403 5.401zm0-10.867a4.135 4.135 0 0 0-4.13 4.13v1.335a4.13 4.13 0 0 0 8.261 0v-1.334a4.136 4.136 0 0 0-4.13-4.131z"/>
        <path fill="#1F282C" d="M27.856 55.981H18.92a.636.636 0 0 1-.636-.636v-5.49a3.994 3.994 0 0 1 2.76-3.806 6.199 6.199 0 0 0 3.688-2.44.635.635 0 0 1 1.093.649 7.331 7.331 0 0 1-4.455 3.018 2.714 2.714 0 0 0-1.814 2.578v4.855h8.3a.636.636 0 0 1 0 1.272z"/>
        <path fill="#1F282C" d="M37.042 55.981h-8.936a.636.636 0 1 1 0-1.272h8.3v-4.855a2.724 2.724 0 0 0-1.883-2.595.636.636 0 1 1 .395-1.21 3.994 3.994 0 0 1 2.76 3.805v5.491a.636.636 0 0 1-.636.636zM32.573 41.232H27.98a.636.636 0 1 1 0-1.271h4.593a.636.636 0 1 1 0 1.271z"/>
        <path fill="#1F282C" fill-rule="nonzero" d="M8.088 36.113a4.56 4.56 0 0 1-4.556-4.556V30.46a4.556 4.556 0 1 1 9.112 0v1.097a4.56 4.56 0 0 1-4.556 4.556zm0-8.937a3.287 3.287 0 0 0-3.284 3.284v1.097a3.284 3.284 0 1 0 6.568 0V30.46a3.287 3.287 0 0 0-3.284-3.284z"/>
        <path fill="#1F282C" d="M7.985 44.807H.635A.636.636 0 0 1 0 44.17v-4.516a3.398 3.398 0 0 1 2.347-3.237 6.275 6.275 0 0 0 2.964-1.986.636.636 0 0 1 1.073.683 7.46 7.46 0 0 1-3.652 2.516 2.126 2.126 0 0 0-1.46 2.024v3.88h6.713a.636.636 0 1 1 0 1.272z"/>
        <path fill="#1F282C" d="M15.54 44.807H8.191a.636.636 0 0 1 0-1.272h6.713v-3.88a2.13 2.13 0 0 0-1.47-2.027.636.636 0 0 1 .395-1.21 3.4 3.4 0 0 1 2.347 3.237v4.516a.636.636 0 0 1-.636.636zM11.987 32.594H8.238a.636.636 0 0 1 0-1.272h3.749a.636.636 0 0 1 0 1.272z"/>
        <path fill="#1F282C" fill-rule="nonzero" d="M47.913 36.113a4.56 4.56 0 0 1-4.555-4.556V30.46a4.556 4.556 0 0 1 9.111 0v1.097a4.56 4.56 0 0 1-4.556 4.556zm0-8.937a3.287 3.287 0 0 0-3.284 3.284v1.097a3.284 3.284 0 1 0 6.568 0V30.46a3.287 3.287 0 0 0-3.284-3.284z"/>
        <path fill="#1F282C" d="M47.81 44.807h-7.349a.636.636 0 0 1-.636-.636v-4.516a3.398 3.398 0 0 1 2.348-3.237 6.275 6.275 0 0 0 2.963-1.986.636.636 0 0 1 1.073.683 7.46 7.46 0 0 1-3.651 2.516 2.126 2.126 0 0 0-1.46 2.024v3.88h6.712a.636.636 0 1 1 0 1.272z"/>
        <path fill="#1F282C" d="M55.364 44.807h-7.349a.636.636 0 0 1 0-1.272h6.713v-3.88a2.127 2.127 0 0 0-1.47-2.027.636.636 0 0 1 .395-1.21A3.398 3.398 0 0 1 56 39.655v4.516a.636.636 0 0 1-.636.636zM51.662 32.594h-3.749a.636.636 0 0 1 0-1.272h3.749a.636.636 0 0 1 0 1.272zM36.7 25.692H19.261a1.925 1.925 0 0 1-1.716-1.042 2.037 2.037 0 0 1 .104-2.099l3.61-4.35a.636.636 0 1 1 .98.812l-3.573 4.298c-.13.23-.129.511.002.74a.668.668 0 0 0 .593.37h17.44a.671.671 0 0 0 .593-.37.761.761 0 0 0-.037-.792l-3.534-4.246a.636.636 0 0 1 .979-.813l3.572 4.299c.45.633.504 1.464.143 2.151a1.925 1.925 0 0 1-1.717 1.042z"/>
        <path fill="#1F282C" d="M34.213 19.242a.636.636 0 0 1-.636-.635v-4.822a5.6 5.6 0 1 0-11.192 0v4.186h7.8a.636.636 0 0 1 0 1.271h-8.436a.636.636 0 0 1-.636-.635v-4.822a6.871 6.871 0 1 1 13.735 0v4.822a.636.636 0 0 1-.635.635z"/>
        <path fill="#1F282C" fill-rule="nonzero" d="M27.98 29.67a4.943 4.943 0 0 1-4.898-4.566.638.638 0 0 1 .634-.684h8.53a.638.638 0 0 1 .634.684 4.943 4.943 0 0 1-4.9 4.566zm-3.514-3.978a3.635 3.635 0 0 0 7.029 0h-7.029z"/>
        <path fill="#1F282C" d="M29.704 5.344a.636.636 0 0 1-.636-.636 1.091 1.091 0 1 0-2.175 0 .636.636 0 1 1-1.271 0 2.361 2.361 0 1 1 4.718 0 .636.636 0 0 1-.636.636zM14.171 17.22a.635.635 0 0 1-.63-.56A14.553 14.553 0 0 1 20.06 2.716a.636.636 0 0 1 .693 1.066 13.24 13.24 0 0 0-6.044 11.132c0 .532.032 1.064.095 1.593a.634.634 0 0 1-.633.711zM9.565 17.22a.637.637 0 0 1-.632-.575A17.826 17.826 0 0 1 16.71.13a.636.636 0 0 1 .712 1.054 16.559 16.559 0 0 0-7.224 15.337.638.638 0 0 1-.634.698zM41.79 17.22a.634.634 0 0 1-.632-.71c.062-.53.094-1.062.094-1.595A13.24 13.24 0 0 0 35.21 3.783a.636.636 0 0 1 .693-1.066 14.505 14.505 0 0 1 6.622 12.198c0 .583-.035 1.165-.104 1.743a.635.635 0 0 1-.63.561zM46.397 17.22l-.064-.003a.638.638 0 0 1-.57-.696 16.553 16.553 0 0 0-7.225-15.338A.636.636 0 1 1 39.25.13a17.825 17.825 0 0 1 7.779 16.515.637.637 0 0 1-.632.574z"/>
    </g>
</svg>
