<svg xmlns="http://www.w3.org/2000/svg" width="63" height="63" viewBox="0 0 63 63">
    <g fill="none" fill-rule="evenodd">
        <path fill="#FFF" d="M61.51 31.291L31.5.985 1.133 31.291h11.126v30.993h38.122V31.291z"/>
        <path fill="#CEEAF2" d="M37.97 31.706v10.568H31.5v-4.099a6.47 6.47 0 0 1 6.47-6.469zM31.5 18.29c-.06 0-.117.016-.177.019a4.056 4.056 0 0 1 1.114 2.788v.588a4.074 4.074 0 0 1-3.905 4.065 4.073 4.073 0 0 0 7.05-2.79v-.586A4.082 4.082 0 0 0 31.5 18.29zM22.63 30.49l-.246.207a13.88 13.88 0 0 1-7.096-8.586 3.207 3.207 0 0 0-.553 1.907A13.89 13.89 0 0 0 25.03 37.433V32.06a8.755 8.755 0 0 1-2.401-1.569z"/>
        <path fill="#CEEAF2" d="M47.713 22.11a13.879 13.879 0 0 1-7.096 8.587l-.248-.207a8.764 8.764 0 0 1-2.4 1.566v5.377h.001c.857-.228 1.69-.539 2.486-.927l2.809-1.817.2-.17 2.012-2.153a13.821 13.821 0 0 0 2.79-8.348 3.205 3.205 0 0 0-.554-1.907z"/>
        <path fill="#3DAFCC" d="M25.788 42.274h11.426v20.01H25.788z"/>
        <path fill="#1F282C" d="M9.658 7.278a.715.715 0 0 1-.715-.716v-2.39a.716.716 0 0 1 1.431 0v2.39a.716.716 0 0 1-.716.716zM14.873 10.102h-2.39a.716.716 0 0 1 0-1.431h2.39a.716.716 0 1 1 0 1.431zM9.658 15.317a.716.716 0 0 1-.715-.716V12.21a.716.716 0 1 1 1.431 0v2.39a.716.716 0 0 1-.716.717zM6.835 10.102h-2.39a.716.716 0 0 1 0-1.431h2.39a.716.716 0 1 1 0 1.431zM53.827 7.278a.715.715 0 0 1-.716-.716v-2.39a.716.716 0 1 1 1.432 0v2.39a.715.715 0 0 1-.716.716zM59.04 10.102h-2.39a.716.716 0 0 1 0-1.431h2.39a.716.716 0 0 1 0 1.431zM53.827 15.317a.716.716 0 0 1-.716-.716V12.21a.716.716 0 1 1 1.432 0v2.39a.716.716 0 0 1-.716.717zM51.002 10.102h-2.39a.716.716 0 0 1 0-1.431h2.39a.716.716 0 1 1 0 1.431zM42.522 12.453a.714.714 0 0 1-.506-.21L31.5 1.728 20.986 12.243a.716.716 0 0 1-1.013-1.012L30.995.21a.716.716 0 0 1 1.012 0l11.021 11.02a.716.716 0 0 1-.506 1.223zM50.521 63a.715.715 0 0 1-.716-.716V31.292a.715.715 0 0 1 .716-.716h9.827l-8.13-8.13a.716.716 0 1 1 1.013-1.012l9.352 9.352a.716.716 0 0 1-.507 1.222H51.237v30.276a.715.715 0 0 1-.716.716zM12.479 63a.715.715 0 0 1-.716-.716V32.008H.923a.716.716 0 0 1-.506-1.222l9.353-9.352a.716.716 0 0 1 1.013 1.012l-8.131 8.13h9.827a.715.715 0 0 1 .716.716v30.992a.715.715 0 0 1-.716.716zM37.97 42.99H25.03a.716.716 0 0 1-.715-.716V31.706a.716.716 0 0 1 1.432 0v9.852h11.506v-9.852a.716.716 0 1 1 1.432 0v10.568a.716.716 0 0 1-.716.715z"/>
        <path fill="#1F282C" d="M25.03 32.421a.704.704 0 0 1-.184-.023A14.612 14.612 0 0 1 14.018 18.29a.716.716 0 1 1 1.432 0 13.177 13.177 0 0 0 9.766 12.722.716.716 0 0 1-.185 1.408zM37.97 32.421a.716.716 0 0 1-.184-1.408 12.97 12.97 0 0 0 2.356-.878.715.715 0 1 1 .626 1.287c-.838.41-1.714.736-2.616.976a.694.694 0 0 1-.183.023zM43.264 29.678a.716.716 0 0 1-.458-1.265l.187-.161a.716.716 0 0 1 .942 1.08l-.212.18a.713.713 0 0 1-.459.166zM45.476 27.354a.716.716 0 0 1-.572-1.146 13.043 13.043 0 0 0 2.646-7.917.716.716 0 1 1 1.432 0 14.465 14.465 0 0 1-2.934 8.778.714.714 0 0 1-.572.285zM34.513 27.76H31.5a.716.716 0 0 1 0-1.432h3.012a8.046 8.046 0 0 0 8.035-8.037.716.716 0 1 1 1.432 0 9.479 9.479 0 0 1-9.467 9.469zM25.03 27.048a.703.703 0 0 1-.283-.059 9.475 9.475 0 0 1-5.727-8.698.716.716 0 1 1 1.432 0 8.042 8.042 0 0 0 4.863 7.384.716.716 0 0 1-.284 1.373z"/>
        <path fill="#1F282C" d="M19.736 19.007a.715.715 0 0 1-.716-.716c.001-2.28-2.093-2.635-3-1.69a2.39 2.39 0 0 0-.57 1.69.716.716 0 1 1-1.432 0 3.24 3.24 0 1 1 6.434 0 .715.715 0 0 1-.716.716zM48.266 19.007a.716.716 0 0 1-.716-.716 2.39 2.39 0 0 0-.57-1.69c-.902-.945-3-.59-3 1.69a.716.716 0 1 1-1.432 0 3.33 3.33 0 0 1 3.251-3.62 3.04 3.04 0 0 1 2.215.94 3.736 3.736 0 0 1 .968 2.68.715.715 0 0 1-.716.716z"/>
        <path fill="#1F282C" fill-rule="nonzero" d="M31.5 27.76a4.805 4.805 0 0 1-4.798-4.8v-.586a4.798 4.798 0 0 1 9.596 0v.587a4.804 4.804 0 0 1-4.797 4.799zm0-8.753a3.37 3.37 0 0 0-3.366 3.367v.587a3.366 3.366 0 0 0 6.732 0v-.587a3.37 3.37 0 0 0-3.365-3.367z"/>
        <path fill="#1F282C" d="M37.213 63a.715.715 0 0 1-.716-.716V42.99h-9.994v19.295a.716.716 0 1 1-1.432 0v-20.01a.716.716 0 0 1 .716-.716h11.426a.716.716 0 0 1 .716.716v20.01a.716.716 0 0 1-.716.716z"/>
        <path fill="#1F282C" d="M31.5 63a.715.715 0 0 1-.715-.716V46.948a.716.716 0 1 1 1.432 0v15.336A.715.715 0 0 1 31.5 63z"/>
        <path fill="#1F282C" d="M60.645 63H25.787a.716.716 0 1 1 0-1.432h34.858a.716.716 0 1 1 0 1.432zM19.736 63H2.356a.716.716 0 1 1 0-1.432h17.38a.716.716 0 0 1 0 1.432z"/>
    </g>
</svg>
