<svg xmlns="http://www.w3.org/2000/svg" width="56" height="56" viewBox="0 0 56 56">
    <g fill="none" fill-rule="evenodd">
        <path fill="#CEEAF2" d="M55.364 32.393v-8.786l-7.406-.854a20.485 20.485 0 0 0-2.133-5.156l4.63-5.84-2.914-2.915-9.433 9.433c5.309 5.504 5.23 14.247-.178 19.654-5.408 5.408-14.15 5.487-19.655.18L8.843 47.54l2.39 2.39 6.364-4.105a20.517 20.517 0 0 0 5.156 2.133l.855 7.406h8.785l.855-7.406a20.519 20.519 0 0 0 5.156-2.133l5.84 4.63 6.212-6.212-4.631-5.84a17.524 17.524 0 0 0 2.133-5.155l7.406-.855z"/>
        <path fill="#1F282C" d="M32.394 56h-8.786a.637.637 0 0 1-.633-.563l-.805-6.979a21.235 21.235 0 0 1-4.553-1.888l-6.04 3.894a.634.634 0 0 1-.795-.084l-5.33-5.331a.635.635 0 0 1-.074-.812l4.047-5.865a21.147 21.147 0 0 1-1.883-4.54l-6.979-.806A.637.637 0 0 1 0 32.394v-8.786c0-.324.242-.595.563-.633l6.979-.805a21.092 21.092 0 0 1 1.868-4.515l-4.364-5.502a.635.635 0 0 1 .049-.845l6.213-6.213a.638.638 0 0 1 .845-.049l5.502 4.364a21.198 21.198 0 0 1 4.515-1.868l.805-6.979A.637.637 0 0 1 23.608 0h8.786c.323 0 .595.242.632.563l.806 6.979a21.198 21.198 0 0 1 4.514 1.868l5.502-4.364a.635.635 0 0 1 .845.049l6.212 6.213c.23.228.25.592.049.845l-4.363 5.502a21.258 21.258 0 0 1 1.867 4.515l6.979.805c.32.038.563.31.563.633v8.786a.637.637 0 0 1-.563.632l-7.405.855a.637.637 0 1 1-.147-1.265l6.842-.79v-7.652l-6.842-.789a.638.638 0 0 1-.542-.471 19.983 19.983 0 0 0-2.067-4.996.635.635 0 0 1 .051-.716l4.277-5.396-5.41-5.41-5.394 4.278a.635.635 0 0 1-.716.05 19.871 19.871 0 0 0-4.997-2.066.638.638 0 0 1-.47-.542l-.79-6.843h-7.653l-.789 6.843a.638.638 0 0 1-.471.542 19.872 19.872 0 0 0-4.996 2.067.633.633 0 0 1-.716-.05l-5.396-4.279-5.41 5.41 4.278 5.396c.163.205.183.49.05.717a19.832 19.832 0 0 0-2.066 4.995.638.638 0 0 1-.542.471l-6.843.79v7.652l6.843.79c.26.03.475.217.542.47a19.871 19.871 0 0 0 2.067 4.997.636.636 0 0 1-.026.682l-3.972 5.758 4.592 4.593 5.934-3.826a.634.634 0 0 1 .665-.015 19.983 19.983 0 0 0 4.996 2.067c.254.067.44.282.471.542l.79 6.842h7.652l.79-6.842a.638.638 0 0 1 .47-.542 19.983 19.983 0 0 0 4.997-2.067.634.634 0 0 1 .716.051l5.395 4.277 5.409-5.41-4.277-5.395a.636.636 0 1 1 .997-.79l4.63 5.84a.635.635 0 0 1-.049.844l-6.212 6.212a.637.637 0 0 1-.845.049l-5.502-4.363a21.258 21.258 0 0 1-4.514 1.867l-.806 6.979a.637.637 0 0 1-.632.563z"/>
        <path fill="#3DAFCC" d="M17.688 18.859l-1.84 1.696-1.46 2.696.152 3.349 1.477 2.518 4.435 4.594 5.269 5.299 2.192 1.51 2.855 1.096 1.562.067 2.592-1.12 2.104-2.03.51-1.466-.83-1.447-1.172-1.927-1.402-1.078-1.542-.158c-2.057.517-2.372 3.078-5.588 1.184l-4.483-4.51a2.672 2.672 0 0 1 .054-3.763 3.06 3.06 0 0 0 .844-2.057s-.18-1.283-.222-1.344c-.043-.06-2.244-2.892-2.244-2.892l-2.102-.465-1.161.248z"/>
        <path fill="#1F282C" d="M31.732 42.324a7.733 7.733 0 0 1-1.051-.077 12.753 12.753 0 0 1-5.967-3.305l-.41-.413c-3.463-3.508-8.14-8.257-8.771-8.999-.38-.447-3.636-4.492-.752-8.637a11.396 11.396 0 0 1 3.057-3.115c1.792-.907 3.101.125 4.51 1.948l.24.308c1.214 1.556 2.36 3.027 1.154 4.67a.637.637 0 0 1-1.027-.753c.582-.793.152-1.49-1.13-3.134l-.243-.313c-1.58-2.04-2.235-1.939-2.93-1.59a10.589 10.589 0 0 0-2.587 2.705c-2.291 3.294.162 6.48.677 7.086.674.793 6.722 6.917 8.709 8.929l.408.414a11.414 11.414 0 0 0 5.236 2.94c1.045.19 2.123.009 3.048-.513a10.118 10.118 0 0 0 2.71-2.463c.916-1.476-.742-3.177-1.499-3.84-1.368-1.2-2.316-1.758-3.112-1.054a.637.637 0 0 1-.845-.952c1.79-1.59 3.82.193 4.798 1.05 2.113 1.852 2.746 3.846 1.738 5.467a11.247 11.247 0 0 1-3.2 2.92 5.614 5.614 0 0 1-2.76.721z"/>
        <path fill="#1F282C" d="M31.427 37.145a.663.663 0 0 1-.097-.007 8.231 8.231 0 0 1-3.959-2.313l-6.175-6.066a8.735 8.735 0 0 1-2.359-3.647.636.636 0 0 1 1.237-.299 7.743 7.743 0 0 0 2.023 3.048l6.158 6.048a7.201 7.201 0 0 0 3.274 1.972.636.636 0 0 1-.102 1.264zM40.623 34.748a.636.636 0 0 1-.573-.915A13.261 13.261 0 0 0 41.4 28c-.008-7.398-6.002-13.392-13.4-13.4-1.907 0-3.792.41-5.526 1.206a.636.636 0 1 1-.527-1.158c1.9-.871 3.964-1.322 6.053-1.322 8.1.01 14.665 6.574 14.674 14.674 0 2.215-.505 4.4-1.478 6.39a.637.637 0 0 1-.573.358z"/>
    </g>
</svg>
