<svg xmlns="http://www.w3.org/2000/svg" width="56" height="60" viewBox="0 0 56 60">
    <g fill="none" fill-rule="nonzero">
        <path fill="#3CB0CB" d="M37 5.486v6.446C44.655 15.38 50 23.075 50 32c0 12.131-9.869 22-22 22-10.051 0-18.542-6.777-21.162-16H.651C3.399 50.579 14.597 60 28 60c15.464 0 28-12.536 28-28 0-12.314-7.953-22.764-19-26.514zM28 42c-3.261 0-6.154-1.576-7.98-4h-6.841C15.558 43.855 21.3 48 28 48c8.822 0 16-7.178 16-16 0-5.486-2.778-10.335-7-13.219v8.889A9.92 9.92 0 0 1 38 32c0 5.514-4.486 10-10 10z"/>
        <path fill="#FFF" d="M25 0v4.162C10.968 5.665.001 17.572 0 32h18c0-4.469 2.948-8.262 7-9.539V32a3 3 0 1 0 6 0V0h-6z"/>
    </g>
</svg>
