<svg width="24" height="25" viewBox="0 0 24 25" fill="none" xmlns="http://www.w3.org/2000/svg">
<path d="M9 23H11V24H13V23H15V21H9V23Z" fill="#F2C43F"/>
<path d="M12 5C8.141 5 5 8.14 5 12C5 14.714 6.581 17.17 9 18.319V19C9 19.552 9.447 20 10 20H14C14.553 20 15 19.552 15 19V18.319C17.419 17.17 19 14.715 19 12C19 8.14 15.859 5 12 5ZM13.666 16.709C13.268 16.85 13 17.228 13 17.651V18H11V17.651C11 17.227 10.732 16.85 10.334 16.709C8.34 16.003 7 14.11 7 12C7 9.243 9.243 7 12 7C14.757 7 17 9.243 17 12C17 14.11 15.66 16.003 13.666 16.709Z" fill="#F2C43F"/>
<path d="M13 0H11V4H13V0Z" fill="#F2C43F"/>
<path d="M4 11H0V13H4V11Z" fill="#F2C43F"/>
<path d="M24 11H20V13H24V11Z" fill="#F2C43F"/>
<path d="M21.7057 3.70577L20.292 2.29248L17.2922 5.29313L18.7059 6.70642L21.7057 3.70577Z" fill="#F2C43F"/>
<path d="M6.70726 5.29319L3.70703 2.29297L2.29354 3.70646L5.29376 6.70669L6.70726 5.29319Z" fill="#F2C43F"/>
</svg>
