<svg xmlns="http://www.w3.org/2000/svg" width="62" height="62" viewBox="0 0 62 62">
    <g fill="none" fill-rule="evenodd" transform="translate(-1)">
        <rect width="19.079" height="60.288" x="43.195" y=".787" fill="#FFF" rx="3.479"/>
        <path fill="#FFF" d="M55.446 44.312a27.53 27.53 0 0 1-24.147 14.515 31.924 31.924 0 0 1-11.884-2.244 44.494 44.494 0 0 1-5.217-2.688c-.007-.005-.016-.004-.023-.008a16.31 16.31 0 0 1-4.235-3.474A27.172 27.172 0 0 1 2.11 30.67c0-18.486 14.684-28.158 29.19-28.158a27.531 27.531 0 0 1 24.146 14.514v27.286z"/>
        <path fill="#CEEAF2" d="M51.693 6.003l-6.69-4.34-1.109 1.264-.582 1.577.38 1.334 6.26 4.276s1.122-1.139 1.14-1.207c.016-.068.601-2.904.601-2.904zM51.693 55.597l-6.69 4.34-1.109-1.264-.582-1.577.38-1.334 6.26-4.276s1.122 1.139 1.14 1.207c.016.068.601 2.904.601 2.904zM34.032 2.766s-10.066.9-15.327 5.519A29.15 29.15 0 0 0 9.211 30.32c.393 8.86 2.421 17.169 10.399 23.644a24.08 24.08 0 0 0 12.648 4.73l2.197.093a32.715 32.715 0 0 1-19.634-4.368C4.628 48.566 2.125 36.606 2.111 30.233 2.095 23.86 3.972 8.098 25.58 2.927c2.782-.586 5.65-.64 8.452-.16z"/>
        <path fill="#CEEAF2" fill-rule="nonzero" d="M34.455 9.69c-10.044 0-18.186 9.456-18.186 21.12 0 11.665 8.142 21.121 18.186 21.121 10.043 0 18.186-9.456 18.186-21.12 0-11.665-8.143-21.12-18.186-21.12zm-.423 38.3c-7.668 0-13.883-7.691-13.883-17.18 0-9.488 6.215-17.18 13.883-17.18 7.667 0 13.882 7.692 13.882 17.18 0 9.489-6.215 17.18-13.882 17.18z"/>
        <path fill="#3DAFCC" d="M52.8 13.248l2.646 3.708V8.579a2.805 2.805 0 0 0-5.611 0v1.762l2.966 2.907zM53.354 47.618l-3.519 3.867v1.536a2.805 2.805 0 0 0 5.61 0v-8.14l-2.091 2.737z"/>
        <path fill="#1F282C" d="M34 59.405a23.504 23.504 0 0 1-16.694-6.5A31.032 31.032 0 0 1 8.501 30.8a35.367 35.367 0 0 1 1.39-9.76 32.264 32.264 0 0 1 1.169-3.324c4.155-9.995 12.684-15.5 24.018-15.5a.71.71 0 0 1 0 1.42c-13.743 0-19.934 7.954-22.706 14.625a30.28 30.28 0 0 0-1.115 3.176A33.895 33.895 0 0 0 9.92 30.8a29.59 29.59 0 0 0 8.37 21.08 21.964 21.964 0 0 0 16.759 6.084.68.68 0 0 1 .738.682.712.712 0 0 1-.682.738c-.37.014-.74.02-1.106.02z"/>
        <path fill="#1F282C" d="M31.232 59.687a32.411 32.411 0 0 1-12.095-2.29 43.9 43.9 0 0 1-5.286-2.726.71.71 0 1 1 .735-1.215 43.232 43.232 0 0 0 5.078 2.623 31.013 31.013 0 0 0 11.568 2.188A26.79 26.79 0 0 0 54.736 44.11V17.49A26.79 26.79 0 0 0 31.232 3.333C17.113 3.333 2.82 12.768 2.82 30.8a26.539 26.539 0 0 0 7.621 19.26.71.71 0 1 1-1.004 1.004A27.927 27.927 0 0 1 1.4 30.8c0-14.356 10.248-28.887 29.832-28.887a28.21 28.21 0 0 1 24.84 15.065.719.719 0 0 1 .084.335v26.974a.719.719 0 0 1-.084.335 28.21 28.21 0 0 1-24.84 15.065z"/>
        <path fill="#1F282C" d="M57.967 61.542H47.635a5.04 5.04 0 0 1-5.033-5.035.71.71 0 0 1 1.42 0 3.618 3.618 0 0 0 3.613 3.615h10.332a3.618 3.618 0 0 0 3.613-3.615v-2.543a.71.71 0 1 1 1.42 0v2.543a5.04 5.04 0 0 1-5.033 5.035zM62.29 47.257a.71.71 0 0 1-.71-.71V5.093a3.618 3.618 0 0 0-3.613-3.615H47.635a3.618 3.618 0 0 0-3.613 3.615.71.71 0 1 1-1.42 0A5.04 5.04 0 0 1 47.635.058h10.332A5.04 5.04 0 0 1 63 5.093v41.454a.71.71 0 0 1-.71.71z"/>
        <path fill="#1F282C" d="M52.8 56.536a3.499 3.499 0 0 1-2.024-.639.71.71 0 0 1 .815-1.162 2.106 2.106 0 0 0 3.315-1.724V8.589a2.107 2.107 0 0 0-3.384-1.674.71.71 0 1 1-.863-1.126 3.49 3.49 0 0 1 2.142-.725 3.529 3.529 0 0 1 3.525 3.525v44.422a3.529 3.529 0 0 1-3.525 3.525z"/>
        <path fill="#1F282C" d="M51.184 23.748a.71.71 0 0 1-.673-.483 20.186 20.186 0 0 0-6.886-9.754.71.71 0 1 1 .846-1.14 21.617 21.617 0 0 1 7.385 10.44.71.71 0 0 1-.672.937zM34.455 52.62a.71.71 0 1 1 0-1.42c.67 0 1.34-.046 2.004-.136a16.615 16.615 0 0 0 11.126-7.012.71.71 0 0 1 1.15.832 18.01 18.01 0 0 1-12.084 7.586c-.728.1-1.462.15-2.196.15zM22.144 46.69a.71.71 0 0 1-.533-.24 22.924 22.924 0 0 1-5.287-11.273 25.41 25.41 0 0 1-.377-4.377.71.71 0 0 1 1.42 0c0 1.385.118 2.768.355 4.133a21.507 21.507 0 0 0 4.954 10.576.71.71 0 0 1-.532 1.18zM19.764 19.332a.71.71 0 0 1-.609-1.076 18.295 18.295 0 0 1 13.651-9.191.71.71 0 0 1 .144 1.412 16.893 16.893 0 0 0-12.577 8.51.71.71 0 0 1-.61.345zM13.182 15.686H6.868a.71.71 0 0 1 0-1.42h6.314a.71.71 0 0 1 0 1.42zM10.39 22.015H3.887a.71.71 0 0 1 0-1.42h6.503a.71.71 0 0 1 0 1.42zM9.362 28.345H6.156a.71.71 0 0 1 0-1.42h3.206a.71.71 0 0 1 0 1.42zM9.37 34.675H2.264a.71.71 0 0 1 0-1.42H9.37a.71.71 0 1 1 0 1.42zM10.631 41.005H3.598a.71.71 0 0 1 0-1.42h7.033a.71.71 0 0 1 0 1.42zM13.342 47.334h-2.298a.71.71 0 1 1 0-1.42h2.298a.71.71 0 0 1 0 1.42z"/>
    </g>
</svg>
