<svg width="200" height="208" viewBox="0 0 200 208" fill="none" xmlns="http://www.w3.org/2000/svg">
<path d="M94.184 208C94.1174 208 94.0508 208 93.9843 208C93.0302 207.934 92.0762 207.868 91.1222 207.781C89.3472 207.627 88.0603 206.092 88.2157 204.338C88.371 202.584 89.9019 201.291 91.699 201.466C92.5865 201.554 93.4962 201.62 94.3836 201.664C96.1586 201.773 97.512 203.286 97.4011 205.018C97.2901 206.706 95.8702 208 94.184 208ZM115.128 206.991C113.575 206.991 112.2 205.873 111.956 204.317C111.689 202.584 112.888 200.962 114.64 200.699C115.528 200.567 116.393 200.414 117.281 200.239C119.033 199.932 120.697 201.05 121.03 202.782C121.363 204.514 120.209 206.158 118.457 206.487C117.502 206.662 116.571 206.816 115.639 206.969C115.461 206.991 115.284 206.991 115.128 206.991ZM70.8654 203.703C70.5326 203.703 70.222 203.659 69.8892 203.549C68.9796 203.264 68.0699 202.957 67.1602 202.65C65.4962 202.08 64.6087 200.26 65.1856 198.616C65.7625 196.972 67.604 196.095 69.268 196.665C70.1111 196.95 70.9542 197.235 71.8195 197.498C73.5057 198.024 74.4376 199.8 73.9051 201.488C73.4835 202.848 72.2189 203.703 70.8654 203.703ZM137.937 200.567C136.694 200.567 135.496 199.844 134.986 198.616C134.298 196.994 135.075 195.13 136.694 194.45C137.515 194.1 138.336 193.749 139.135 193.376C140.754 192.653 142.662 193.354 143.395 194.933C144.127 196.533 143.417 198.419 141.797 199.142C140.932 199.537 140.044 199.91 139.179 200.282C138.78 200.48 138.358 200.567 137.937 200.567ZM49.2775 193.946C48.7007 193.946 48.1238 193.793 47.5913 193.486C46.7704 192.981 45.9717 192.477 45.1729 191.973C43.6864 191.008 43.2649 189.035 44.2411 187.588C45.2173 186.119 47.192 185.702 48.6785 186.667C49.4328 187.149 50.1872 187.632 50.9415 188.092C52.4503 189.013 52.9162 190.964 51.9843 192.455C51.4297 193.398 50.3647 193.946 49.2775 193.946ZM158.482 188.838C157.506 188.838 156.552 188.399 155.93 187.588C154.865 186.185 155.132 184.212 156.552 183.137C157.262 182.611 157.972 182.063 158.659 181.515C160.035 180.419 162.076 180.638 163.185 181.997C164.295 183.357 164.073 185.374 162.697 186.47C161.965 187.062 161.211 187.632 160.456 188.202C159.835 188.64 159.147 188.838 158.482 188.838ZM30.7736 179.3C29.9305 179.3 29.1096 178.993 28.4883 178.358C27.8227 177.678 27.1571 176.998 26.5137 176.297C25.3156 175.003 25.3822 173.008 26.6912 171.824C28.0002 170.64 30.0192 170.706 31.2395 172C31.8386 172.635 32.4598 173.293 33.081 173.907C34.3235 175.157 34.3013 177.174 33.0367 178.402C32.3932 179.015 31.5723 179.3 30.7736 179.3ZM175.477 172.526C174.767 172.526 174.057 172.306 173.458 171.824C172.082 170.728 171.861 168.733 172.97 167.351C173.525 166.672 174.079 165.97 174.612 165.269C175.677 163.865 177.696 163.602 179.116 164.655C180.536 165.707 180.802 167.702 179.737 169.105C179.16 169.851 178.561 170.596 177.984 171.342C177.363 172.131 176.431 172.526 175.477 172.526ZM16.3964 160.686C15.2871 160.686 14.2221 160.116 13.6231 159.108C13.1349 158.297 12.669 157.463 12.2253 156.652C11.3822 155.118 11.959 153.188 13.5121 152.355C15.0652 151.522 17.0177 152.092 17.8608 153.627C18.2823 154.394 18.7261 155.183 19.1698 155.929C20.0573 157.442 19.547 159.393 18.0161 160.27C17.5058 160.533 16.9511 160.686 16.3964 160.686ZM187.99 152.618C187.547 152.618 187.081 152.53 186.637 152.333C185.017 151.588 184.33 149.702 185.084 148.124C185.461 147.312 185.816 146.523 186.171 145.712C186.881 144.089 188.767 143.366 190.387 144.046C192.006 144.725 192.783 146.611 192.073 148.211C191.696 149.088 191.296 149.943 190.897 150.798C190.364 151.938 189.211 152.618 187.99 152.618ZM7.0779 139.134C5.68012 139.134 4.39328 138.235 3.99391 136.832C3.72767 135.933 3.46142 135.034 3.21737 134.114C2.77363 132.425 3.79423 130.693 5.52481 130.233C7.23321 129.794 8.98598 130.803 9.42972 132.513C9.65159 133.368 9.89565 134.223 10.1397 135.078C10.6278 136.767 9.65159 138.52 7.94319 139.003C7.65476 139.091 7.36633 139.134 7.0779 139.134ZM195.268 130.299C195.068 130.299 194.868 130.277 194.669 130.233C192.916 129.904 191.784 128.238 192.117 126.528C192.295 125.651 192.45 124.796 192.583 123.919C192.872 122.187 194.513 121.003 196.266 121.288C198.019 121.573 199.217 123.195 198.929 124.927C198.773 125.87 198.618 126.791 198.441 127.734C198.13 129.246 196.777 130.299 195.268 130.299ZM3.28393 115.982C1.57553 115.982 0.133378 114.644 0.0668174 112.934C0.0224435 111.992 0.000256501 111.049 0.000256501 110.106C-0.0219305 108.352 1.39804 106.927 3.17299 106.905C4.97014 106.993 6.39011 108.286 6.41229 110.04C6.41229 110.917 6.43448 111.794 6.47885 112.693C6.54541 114.447 5.16982 115.916 3.39486 115.982C3.35049 115.982 3.3283 115.982 3.28393 115.982ZM196.799 106.905C195.112 106.905 193.693 105.612 193.604 103.923C193.559 103.046 193.493 102.169 193.404 101.27C193.249 99.5164 194.558 97.9817 196.311 97.8282C198.063 97.6967 199.639 98.9683 199.794 100.722C199.883 101.665 199.949 102.608 199.994 103.551C200.105 105.305 198.751 106.795 196.976 106.905C196.91 106.905 196.843 106.905 196.799 106.905ZM5.30294 92.6321C5.08107 92.6321 4.8592 92.6102 4.63733 92.5663C2.90675 92.1936 1.7974 90.5273 2.15239 88.7953C2.35208 87.8744 2.57395 86.9536 2.79582 86.0328C3.21737 84.3226 4.94795 83.2922 6.67854 83.6868C8.40912 84.1034 9.45191 85.8135 9.05254 87.5236C8.85286 88.3787 8.65318 89.2557 8.45349 90.1108C8.12069 91.6016 6.78947 92.6321 5.30294 92.6321ZM192.517 83.8403C191.141 83.8403 189.876 82.9633 189.455 81.604C189.189 80.7489 188.9 79.9158 188.612 79.0826C188.035 77.4164 188.922 75.6185 190.609 75.0485C192.295 74.4784 194.114 75.3554 194.691 77.0217C195.002 77.9206 195.29 78.8195 195.578 79.7184C196.111 81.3847 195.157 83.1825 193.471 83.6868C193.16 83.7964 192.827 83.8403 192.517 83.8403ZM13.0462 70.4662C12.5803 70.4662 12.0922 70.3566 11.6484 70.1374C10.051 69.37 9.38535 67.4625 10.1619 65.884C10.5834 65.0289 11.005 64.1958 11.4487 63.3626C12.2697 61.806 14.2221 61.214 15.7752 62.0252C17.3505 62.8364 17.9495 64.7658 17.1286 66.3005C16.707 67.0898 16.3077 67.8791 15.9083 68.6684C15.3758 69.8085 14.2221 70.4662 13.0462 70.4662ZM182.732 62.5076C181.645 62.5076 180.602 61.9594 179.981 60.9948C179.515 60.2493 179.049 59.5039 178.561 58.7584C177.585 57.2895 178.006 55.3162 179.493 54.3735C180.979 53.4088 182.976 53.8254 183.93 55.2943C184.441 56.0836 184.951 56.8729 185.461 57.6841C186.393 59.175 185.905 61.1263 184.396 62.0471C183.886 62.3541 183.309 62.5076 182.732 62.5076ZM25.959 50.8217C25.2268 50.8217 24.4947 50.5805 23.8956 50.0762C22.5422 48.9581 22.3647 46.941 23.4963 45.6036C24.1175 44.8801 24.7387 44.1785 25.36 43.455C26.5359 42.1395 28.5771 42.0299 29.8861 43.1919C31.2173 44.3539 31.3283 46.371 30.1524 47.6645C29.5533 48.3223 28.9764 49.0019 28.3996 49.6597C27.8005 50.427 26.8909 50.8217 25.959 50.8217ZM167.978 44.1785C167.157 44.1785 166.358 43.8716 165.737 43.2796C165.094 42.6657 164.45 42.0518 163.807 41.4379C162.498 40.254 162.431 38.2369 163.629 36.9653C164.827 35.6717 166.868 35.6059 168.178 36.7899C168.887 37.4257 169.575 38.0834 170.241 38.7412C171.506 39.969 171.528 41.986 170.285 43.2357C169.642 43.8496 168.821 44.1785 167.978 44.1785ZM43.3314 34.8605C42.333 34.8605 41.3568 34.4001 40.7355 33.545C39.6928 32.1199 40.0256 30.1467 41.4677 29.1162C42.2443 28.5681 43.0208 28.02 43.7973 27.4938C45.2617 26.5072 47.2585 26.8799 48.2569 28.3269C49.2553 29.774 48.8782 31.7472 47.4138 32.7338C46.6817 33.2381 45.9495 33.7423 45.2173 34.2466C44.6404 34.6632 43.9748 34.8605 43.3314 34.8605ZM149.141 29.9274C148.586 29.9274 148.032 29.7959 147.521 29.489C146.745 29.0505 145.968 28.612 145.192 28.1735C143.639 27.3184 143.062 25.389 143.927 23.8543C144.792 22.3196 146.745 21.7495 148.298 22.6046C149.141 23.065 149.962 23.5254 150.783 24.0078C152.314 24.8848 152.824 26.8361 151.937 28.3489C151.315 29.3574 150.25 29.9274 149.141 29.9274ZM127.398 20.6094C127.087 20.6094 126.799 20.5656 126.488 20.4779C125.623 20.2367 124.758 19.9956 123.892 19.7544C122.184 19.3159 121.163 17.5619 121.607 15.8737C122.051 14.1855 123.804 13.1551 125.534 13.6155C126.466 13.8566 127.376 14.1197 128.308 14.3828C130.016 14.8871 130.992 16.6411 130.482 18.3293C130.06 19.7105 128.773 20.6094 127.398 20.6094ZM103.991 16.7946C103.946 16.7946 103.902 16.7946 103.857 16.7946C102.948 16.7507 102.06 16.7288 101.173 16.7069C99.3979 16.6849 97.9779 15.2598 98.0001 13.5058C98.0223 11.7519 99.4866 10.3487 101.239 10.3706C102.193 10.3706 103.147 10.4145 104.102 10.4364C105.876 10.5022 107.252 11.9711 107.186 13.7251C107.119 15.4571 105.699 16.7946 103.991 16.7946Z" fill="#614A8A"/>
<path opacity="0.5" d="M50.964 188.07C50.2096 187.61 49.4552 187.127 48.7009 186.645C47.2143 185.68 45.2174 186.097 44.2633 187.566C43.2871 189.035 43.7086 191.008 45.1952 191.951C45.994 192.477 46.8149 192.981 47.6137 193.464C48.1462 193.792 48.723 193.946 49.2999 193.946C50.3871 193.946 51.4299 193.42 52.029 192.433C52.9609 190.942 52.4949 188.969 50.964 188.07Z" fill="#D47776"/>
<path opacity="0.5" d="M71.8198 197.498C70.9767 197.235 70.1114 196.95 69.2682 196.665C67.6042 196.095 65.7626 196.95 65.1857 198.616C64.6088 200.261 65.4742 202.08 67.1604 202.651C68.0479 202.957 68.9798 203.264 69.8895 203.549C70.2223 203.659 70.5329 203.703 70.8658 203.703C72.2192 203.703 73.4839 202.848 73.9276 201.489C74.4602 199.822 73.5061 198.046 71.8198 197.498Z" fill="#D47776"/>
<path opacity="0.5" d="M31.2176 172C30.0195 170.706 27.9782 170.64 26.6691 171.824C25.36 173.008 25.2935 175.025 26.4916 176.319C27.1351 176.999 27.8007 177.7 28.4663 178.38C29.0876 179.016 29.9307 179.344 30.7738 179.344C31.5726 179.344 32.3935 179.038 33.0148 178.446C34.2795 177.218 34.3017 175.201 33.0592 173.951C32.4379 173.271 31.8167 172.635 31.2176 172Z" fill="#D47776"/>
<path opacity="0.8" d="M94.3838 201.663C93.4963 201.619 92.6088 201.554 91.6991 201.466C89.9241 201.313 88.3709 202.606 88.2156 204.338C88.0603 206.092 89.3694 207.627 91.1222 207.78C92.0763 207.868 93.0526 207.934 93.9844 208C94.051 208 94.1176 208 94.1841 208C95.8704 208 97.2904 206.706 97.3791 205.018C97.4901 203.264 96.1366 201.773 94.3838 201.663Z" fill="#D47776"/>
<path opacity="0.3" d="M17.861 153.605C17.0179 152.07 15.0654 151.5 13.5122 152.333C11.9591 153.166 11.3822 155.096 12.2254 156.63C12.6691 157.463 13.1572 158.275 13.6232 159.108C14.2223 160.116 15.2873 160.686 16.3966 160.686C16.9513 160.686 17.506 160.555 18.0163 160.248C19.5473 159.371 20.0576 157.42 19.1701 155.907C18.7263 155.139 18.2826 154.372 17.861 153.605Z" fill="#D47776"/>
<path opacity="0.3" d="M190.387 144.023C188.767 143.322 186.859 144.067 186.171 145.69C185.816 146.501 185.461 147.312 185.084 148.123C184.33 149.724 185.04 151.609 186.659 152.333C187.103 152.53 187.547 152.618 188.013 152.618C189.233 152.618 190.387 151.938 190.919 150.776C191.319 149.921 191.718 149.044 192.095 148.189C192.783 146.589 192.029 144.703 190.387 144.023Z" fill="#D47776"/>
<path opacity="0.3" d="M196.244 121.288C194.492 121.003 192.85 122.187 192.561 123.919C192.428 124.796 192.273 125.673 192.095 126.528C191.763 128.26 192.916 129.904 194.647 130.233C194.847 130.277 195.046 130.299 195.246 130.299C196.755 130.299 198.108 129.246 198.397 127.712C198.574 126.791 198.752 125.848 198.885 124.905C199.195 123.195 197.997 121.573 196.244 121.288Z" fill="#D47776"/>
<path opacity="0.5" d="M179.138 164.677C177.718 163.625 175.721 163.888 174.634 165.291C174.102 165.993 173.547 166.694 172.992 167.374C171.883 168.733 172.105 170.729 173.48 171.847C174.079 172.329 174.789 172.548 175.499 172.548C176.431 172.548 177.363 172.154 178.007 171.364C178.606 170.641 179.205 169.873 179.782 169.128C180.824 167.725 180.536 165.73 179.138 164.677Z" fill="#D47776"/>
<path opacity="0.8" d="M139.135 193.398C138.336 193.771 137.493 194.121 136.672 194.472C135.03 195.152 134.276 197.015 134.964 198.638C135.474 199.844 136.672 200.567 137.915 200.567C138.336 200.567 138.758 200.479 139.157 200.326C140.045 199.953 140.91 199.581 141.775 199.186C143.395 198.462 144.105 196.577 143.351 194.976C142.663 193.376 140.755 192.674 139.135 193.398Z" fill="#D47776"/>
<path opacity="0.8" d="M158.637 181.515C157.949 182.063 157.239 182.611 156.529 183.137C155.109 184.19 154.843 186.185 155.908 187.588C156.529 188.421 157.506 188.838 158.482 188.838C159.148 188.838 159.835 188.618 160.412 188.202C161.167 187.632 161.921 187.04 162.675 186.47C164.051 185.374 164.273 183.378 163.164 182.019C162.054 180.638 160.035 180.419 158.637 181.515Z" fill="#D47776"/>
<path opacity="0.8" d="M117.259 200.239C116.371 200.392 115.484 200.546 114.618 200.699C112.865 200.962 111.667 202.607 111.956 204.339C112.2 205.895 113.575 207.013 115.129 207.013C115.306 207.013 115.461 206.991 115.639 206.97C116.571 206.816 117.525 206.663 118.457 206.487C120.21 206.158 121.341 204.514 121.03 202.782C120.675 201.05 119.011 199.91 117.259 200.239Z" fill="#D47776"/>
<path d="M60.7703 52.8599C59.9938 52.8599 59.2172 52.4872 58.7513 51.7856C58.0191 50.6894 58.3298 49.2205 59.4391 48.497C84.1332 32.3171 116.038 32.3171 140.732 48.497C141.842 49.2205 142.152 50.6894 141.42 51.7856C140.688 52.8818 139.179 53.1888 138.092 52.4653C115.017 37.3596 85.1982 37.3596 62.1016 52.4653C61.68 52.7284 61.2141 52.8599 60.7703 52.8599Z" fill="#614A8A"/>
<path d="M159.569 150.513C159.103 150.513 158.659 150.381 158.238 150.118C157.128 149.395 156.818 147.926 157.55 146.83C172.837 124.028 172.837 94.5611 157.55 71.7375C156.818 70.6413 157.128 69.1723 158.238 68.4488C159.347 67.7253 160.834 68.0322 161.566 69.1284C177.94 93.5306 177.94 125.08 161.566 149.461C161.122 150.14 160.345 150.513 159.569 150.513Z" fill="#614A8A"/>
<path d="M40.6025 150.513C39.8259 150.513 39.0494 150.141 38.5835 149.439C22.2317 125.037 22.2095 93.5091 38.5835 69.085C39.3156 67.9887 40.8021 67.6818 41.9115 68.4053C43.0208 69.1288 43.3315 70.5978 42.5993 71.694C27.3125 94.4957 27.3125 123.984 42.5993 146.786C43.3315 147.882 43.0208 149.351 41.9115 150.075C41.5121 150.382 41.0462 150.513 40.6025 150.513Z" fill="#614A8A"/>
<path d="M159.569 150.513C159.103 150.513 158.659 150.382 158.238 150.119C157.128 149.395 156.818 147.926 157.55 146.83C162.01 140.187 165.205 132.886 167.068 125.124C167.379 123.853 168.688 123.064 169.975 123.37C171.262 123.677 172.061 124.949 171.75 126.243C169.753 134.552 166.314 142.357 161.544 149.461C161.122 150.141 160.346 150.513 159.569 150.513Z" fill="#865882"/>
<path d="M40.6026 150.513C39.826 150.513 39.0494 150.14 38.5835 149.439C36.3203 146.062 34.3235 142.467 32.6594 138.761C32.1269 137.555 32.6594 136.152 33.8797 135.626C35.1 135.1 36.52 135.648 37.0525 136.832C38.6057 140.296 40.4694 143.651 42.5773 146.808C43.3095 147.904 42.9988 149.373 41.8895 150.096C41.5123 150.381 41.0463 150.513 40.6026 150.513Z" fill="#865882"/>
<path d="M100.086 182.172C85.9304 182.172 71.7751 178.138 59.4391 170.048C58.3298 169.324 58.0191 167.855 58.7513 166.759C59.4835 165.663 60.97 165.356 62.0794 166.08C85.1538 181.185 114.995 181.185 138.07 166.08C139.179 165.356 140.666 165.663 141.398 166.759C142.13 167.855 141.819 169.324 140.71 170.048C128.396 178.138 114.241 182.172 100.086 182.172Z" fill="#614A8A"/>
<path d="M100.086 182.172C85.9304 182.172 71.7751 178.138 59.4391 170.048C58.3298 169.324 58.0191 167.855 58.7513 166.759C59.4835 165.663 60.97 165.356 62.0794 166.08C85.1538 181.185 114.995 181.185 138.07 166.08C139.179 165.356 140.666 165.663 141.398 166.759C142.13 167.855 141.819 169.324 140.71 170.048C128.396 178.138 114.241 182.172 100.086 182.172Z" fill="#865882"/>
<path d="M100.152 182.106C98.7544 182.106 97.3567 182.062 95.9589 181.997C94.6277 181.931 93.6071 180.791 93.6958 179.497C93.7624 178.182 94.9161 177.195 96.2251 177.261C105.433 177.787 114.485 176.494 123.138 173.468C124.38 173.03 125.778 173.687 126.222 174.915C126.666 176.143 126 177.524 124.758 177.963C116.815 180.703 108.561 182.106 100.152 182.106Z" fill="#B1697B"/>
<path d="M100.086 168.009C132.913 168.009 159.525 141.712 159.525 109.273C159.525 76.8335 132.913 50.5364 100.086 50.5364C67.2584 50.5364 40.6467 76.8335 40.6467 109.273C40.6467 141.712 67.2584 168.009 100.086 168.009Z" fill="#76A8E5"/>
<path d="M130.437 58.7581C121.563 53.5401 111.179 50.5364 100.086 50.5364C94.0508 50.5364 88.2378 51.4134 82.7576 53.0796C93.5849 53.1454 103.769 57.355 111.423 64.919C113.62 67.0895 115.506 69.4355 117.125 71.9568C120.631 77.4161 116.637 84.5635 110.092 84.5635H106.786C103.835 84.5635 101.35 86.9314 101.395 89.8474C101.439 92.6537 103.769 94.9339 106.631 94.9339H112.089C118.612 94.9339 123.138 101.336 120.919 107.387C118.9 112.846 115.683 117.845 111.423 122.077C103.968 129.465 93.8511 133.719 83.3123 133.916C72.0857 134.135 61.4803 129.904 53.5595 122.077C46.8369 115.433 42.7323 106.883 41.8005 97.6745C41.0461 101.424 40.6467 105.282 40.6467 109.251C40.6467 122.252 44.9288 134.267 52.1618 143.979C62.989 158.537 80.4058 167.965 100.086 167.965C132.967 167.965 159.68 141.414 159.525 108.922C159.391 87.611 147.765 68.9531 130.437 58.7581Z" fill="#6091D8"/>
<path d="M53.9149 139.134C53.9371 139.112 53.9593 139.112 54.0037 139.091C56.3112 137.929 57.1765 135.122 55.9562 132.886C55.1574 131.439 54.4474 129.948 53.804 128.435C52.8721 126.243 50.3649 125.146 48.0796 125.936C48.0574 125.936 48.013 125.958 47.9908 125.958C45.5058 126.813 44.2633 129.575 45.2839 131.987C46.0383 133.785 46.9036 135.539 47.8355 137.227C48.9893 139.376 51.6962 140.231 53.9149 139.134Z" fill="#A6CBFF"/>
<path d="M141.819 67.4617C136.561 62.3533 128.063 68.0537 130.97 74.7627C133.765 81.1866 135.296 88.2683 135.252 95.7008C135.252 95.7665 135.252 95.8542 135.252 95.92C135.119 107.474 125.556 116.748 113.864 116.748H94.8716C91.0333 116.748 87.9271 119.818 87.9271 123.611C87.9271 127.404 91.0333 130.473 94.8716 130.473H104.146C110.336 130.473 112.444 138.695 106.964 141.545C99.3756 145.514 90.7005 147.684 81.5373 147.531C77.1664 147.465 72.9065 146.851 68.8463 145.799C62.7449 144.198 58.8844 152.025 63.8764 155.84C73.9049 163.47 86.4628 167.986 100.086 167.986C132.9 167.986 159.769 141.238 159.524 108.812C159.391 92.6313 152.647 78.0075 141.819 67.4617Z" fill="#5A77C3"/>
<path d="M87.8829 104.8H73.9717C69.4455 104.8 65.7847 101.182 65.7847 96.7096C65.7847 92.2371 69.4455 88.6196 73.9717 88.6196H87.8829C92.409 88.6196 96.0699 92.2371 96.0699 96.7096C96.0921 101.182 92.409 104.8 87.8829 104.8Z" fill="#5A77C3"/>
<path d="M133.145 135.1H127.753C125.135 135.1 123.005 132.995 123.005 130.408C123.005 127.821 125.135 125.716 127.753 125.716H133.145C135.763 125.716 137.893 127.821 137.893 130.408C137.893 133.017 135.763 135.1 133.145 135.1Z" fill="#5660A4"/>
<path d="M94.6281 109.491H89.2587C86.6405 109.491 84.5105 107.386 84.5105 104.799C84.5105 102.212 86.6405 100.107 89.2587 100.107H94.6281C97.2462 100.107 99.3762 102.212 99.3762 104.799C99.3762 107.386 97.2462 109.491 94.6281 109.491Z" fill="#A6CBFF"/>
<path d="M103.192 79.74H99.6644C97.9337 79.74 96.5581 78.3587 96.5581 76.6705C96.5581 74.9604 97.9559 73.6011 99.6644 73.6011H103.192C104.923 73.6011 106.298 74.9823 106.298 76.6705C106.321 78.3807 104.923 79.74 103.192 79.74Z" fill="#A6CBFF"/>
<path d="M111.623 51.6545C107.895 50.931 104.035 50.5364 100.086 50.5364C67.2711 50.5364 40.6467 76.8241 40.6467 109.273C40.6467 110.939 40.7133 112.605 40.8464 114.228C41.0683 116.705 43.176 118.678 45.7054 118.547C48.3456 118.415 50.3203 116.157 50.0984 113.57C49.9653 112.145 49.9209 110.698 49.9209 109.251C49.9209 106.817 50.0984 104.405 50.4534 102.016C50.7862 99.6915 52.8052 97.9595 55.1792 97.9595H57.886C60.4375 97.9595 62.634 96.0082 62.7671 93.4869C62.9003 90.7901 60.7259 88.5757 58.0191 88.5757C56.3551 88.5757 55.2901 86.8217 56.0889 85.3747C56.7323 84.2127 57.4423 83.0507 58.1966 81.9325H77.2996C79.6514 81.9325 81.5373 80.047 81.5373 77.7449C81.5373 75.4209 79.6292 73.5573 77.2996 73.5573H75.569C71.9747 73.5573 70.6879 68.9312 73.7275 67.0676C81.4264 62.3757 90.3456 59.7667 99.5088 59.6571C103.059 59.6132 106.542 59.9421 109.914 60.5998C112.178 61.0383 114.441 59.7886 115.195 57.5961C116.149 54.9432 114.463 52.2027 111.623 51.6545Z" fill="#A6CBFF"/>
<path d="M84.3331 143.957H80.8052C79.0746 143.957 77.699 142.576 77.699 140.888C77.699 139.178 79.0968 137.818 80.8052 137.818H84.3331C86.0637 137.818 87.4394 139.2 87.4394 140.888C87.4615 142.598 86.0637 143.957 84.3331 143.957Z" fill="#5A77C3"/>
<path d="M103.192 155.863H99.6644C97.9337 155.863 96.5581 154.481 96.5581 152.793C96.5581 151.083 97.9559 149.724 99.6644 149.724H103.192C104.923 149.724 106.298 151.105 106.298 152.793C106.321 154.481 104.923 155.863 103.192 155.863Z" fill="#6091D8"/>
<path d="M124.98 91.8428H123.804C122.073 91.8428 120.698 90.4615 120.698 88.7733C120.698 87.0632 122.095 85.7039 123.804 85.7039H124.98C126.71 85.7039 128.086 87.0851 128.086 88.7733C128.086 90.4615 126.688 91.8428 124.98 91.8428Z" fill="#76A8E5"/>
<path d="M68.4696 118.657H63.078C60.4598 118.657 58.3298 116.552 58.3298 113.965C58.3298 111.378 60.4598 109.273 63.078 109.273H68.4696C71.0877 109.273 73.2178 111.378 73.2178 113.965C73.2178 116.552 71.0877 118.657 68.4696 118.657Z" fill="#6091D8"/>
<path d="M159.502 108.264C159.48 106.598 159.369 104.931 159.214 103.309C158.97 100.832 156.796 98.9022 154.288 99.0557C151.648 99.2311 149.718 101.533 149.984 104.098C150.14 105.523 150.228 106.97 150.25 108.418V108.439C150.273 110.193 148.83 111.619 147.056 111.619H142.707C140.555 111.619 138.691 113.263 138.602 115.368C138.491 117.626 140.333 119.511 142.596 119.511C146.079 119.511 148.475 122.932 147.3 126.155C144.815 132.951 140.799 139.2 135.43 144.462C126.355 153.341 114.13 158.494 101.373 158.8C97.8892 158.888 94.4724 158.625 91.1222 158.033C88.9922 157.66 86.8845 158.757 86.0413 160.73C84.8654 163.427 86.5517 166.518 89.4803 167.044C93.2521 167.724 97.157 168.053 101.151 167.987C133.921 167.439 160.079 140.691 159.502 108.264Z" fill="#5660A4"/>
<path d="M82.1363 57.8377C82.1141 57.7938 82.0919 57.7719 82.0919 57.728C81.0492 55.5136 78.4089 54.527 76.1458 55.5136C63.7877 60.8852 53.6482 70.3128 47.4137 82.0645C46.5262 83.7307 46.7703 85.7697 48.0349 87.1729L48.1015 87.2387C50.2314 89.6285 54.1142 89.1242 55.6007 86.2959C55.9113 85.7259 56.2219 85.1778 56.5325 84.6077C57.4866 82.9853 59.2394 81.9548 61.1253 81.9548H63.0333C65.3852 81.9548 67.271 80.0693 67.271 77.7672C67.271 76.6491 66.8273 75.6405 66.1173 74.8951C65.4961 74.2593 65.5848 73.2507 66.2283 72.6588C70.2663 68.9973 74.8812 66.0594 79.8289 63.8889C82.2029 62.8803 83.2235 60.1398 82.1363 57.8377Z" fill="#D2E9FF"/>
<path d="M44.9068 108.615C44.929 108.615 44.9734 108.615 44.9956 108.637C47.5694 108.944 49.8769 107.102 50.1209 104.559C50.2762 102.914 50.5203 101.292 50.8531 99.6914C51.3191 97.3454 49.8547 95.0653 47.5028 94.4514C47.4806 94.4514 47.4362 94.4294 47.414 94.4294C44.8625 93.7717 42.2665 95.3722 41.7562 97.9374C41.379 99.8448 41.0906 101.774 40.9131 103.682C40.669 106.115 42.444 108.308 44.9068 108.615Z" fill="#D2E9FF"/>
<path opacity="0.1" d="M86.1976 15.4128C86.1976 22.6918 80.2291 28.6115 72.8406 28.6115C65.4743 28.6115 59.4836 22.7137 59.4836 15.4128C59.4836 8.13379 65.4521 2.21411 72.8406 2.21411C80.2069 2.23604 86.1976 8.13379 86.1976 15.4128Z" fill="#413264"/>
<path d="M72.8401 30.8261C64.2316 30.8261 57.2427 23.9198 57.2427 15.4131C57.2427 6.90628 64.2316 0 72.8401 0C81.4487 0 88.4376 6.90628 88.4376 15.4131C88.4376 23.9198 81.4487 30.8261 72.8401 30.8261ZM72.8401 4.45071C66.7165 4.45071 61.7466 9.36185 61.7466 15.4131C61.7466 21.4643 66.7165 26.3754 72.8401 26.3754C78.9637 26.3754 83.9336 21.4643 83.9336 15.4131C83.9336 9.38377 78.9637 4.45071 72.8401 4.45071Z" fill="#614A8A"/>
<path d="M59.4836 17.6494C58.2411 17.6494 57.2205 16.6628 57.2205 15.4131C57.2426 6.90629 64.2318 0 72.8406 0C74.0831 0 75.1037 1.00854 75.1037 2.23632C75.1037 3.46411 74.1053 4.47265 72.8406 4.47265C66.7168 4.47265 61.7467 9.38379 61.7467 15.435C61.7467 16.6409 60.7483 17.6494 59.4836 17.6494Z" fill="#7E64AF"/>
</svg>
