<svg xmlns="http://www.w3.org/2000/svg" width="56" height="56" viewBox="0 0 56 56">
    <g fill="none" fill-rule="evenodd">
        <path fill="#CEEAF2" d="M27.5 42.248A12.878 12.878 0 0 1 25 42v8h5v-8c-.824.164-1.66.247-2.5.248z"/>
        <path fill="#FFF" fill-rule="nonzero" d="M28 0a9 9 0 0 1 9 9v9a9 9 0 0 1-18 0V9a9 9 0 0 1 9-9z"/>
        <path fill="#CEEAF2" d="M28 49.377V55h8a5.679 5.679 0 0 0-1.615-3.976 5.463 5.463 0 0 0-3.9-1.647h.126V41M34.866 3v3.212c0 2.459-1 4.818-2.782 6.557a9.62 9.62 0 0 1-6.718 2.716A9.584 9.584 0 0 1 19 13.08v14.646c0 3.313 1.81 6.374 4.75 8.03a9.702 9.702 0 0 0 9.5 0c2.94-1.656 4.75-4.717 4.75-8.03V9.869A9.142 9.142 0 0 0 34.866 3z"/>
        <path fill="#3DAFCC" d="M18 20h19v7.655c0 2.478-1 4.855-2.782 6.608A9.58 9.58 0 0 1 27.5 37c-5.247 0-9.5-4.184-9.5-9.345V20z"/>
        <path fill="#1F282C" fill-rule="nonzero" d="M28 38c-5.52-.006-9.994-4.477-10-9.995V9.995C18 4.475 22.477 0 28 0s10 4.475 10 9.995v18.01c-.006 5.518-4.48 9.989-10 9.995zm0-36.716c-4.811.005-8.71 3.902-8.716 8.71v18.011c0 4.811 3.903 8.711 8.716 8.711 4.813 0 8.716-3.9 8.716-8.71V9.994C36.71 5.186 32.81 1.289 28 1.284zM35.367 56H19.633a.619.619 0 0 1-.448-.194.678.678 0 0 1-.185-.468c.004-3.499 2.713-6.334 6.057-6.338h4.886c3.344.004 6.053 2.84 6.057 6.338a.678.678 0 0 1-.185.468.619.619 0 0 1-.448.194zm-15.06-1.324h14.385c-.32-2.49-2.349-4.349-4.75-4.352h-4.885c-2.4.003-4.43 1.862-4.75 4.352z"/>
        <path fill="#1F282C" fill-rule="nonzero" d="M30.407 50h-4.814a.585.585 0 0 1-.42-.179.62.62 0 0 1-.173-.431v-7.78c0-.181.079-.354.216-.47a.581.581 0 0 1 .49-.129 12.37 12.37 0 0 0 4.588 0 .581.581 0 0 1 .49.129.618.618 0 0 1 .216.47v7.78a.62.62 0 0 1-.174.431.585.585 0 0 1-.42.179zm-4.22-1.22h3.626v-6.453c-1.204.16-2.422.16-3.626 0v6.452z"/>
        <path fill="#1F282C" d="M28.5 41.999c-7.69.091-14.086-5.795-14.5-13.344a.618.618 0 0 1 .166-.451.64.64 0 0 1 .442-.203l.029-.001c.34 0 .621.264.636.598.384 6.88 6.218 12.238 13.227 12.148 7.009.09 12.843-5.268 13.227-12.148a.631.631 0 0 1 .636-.598l.029.001a.64.64 0 0 1 .442.203.618.618 0 0 1 .165.45C42.586 36.205 36.191 42.09 28.5 42z"/>
        <path fill="#1F282C" d="M28.626 34a.632.632 0 0 1-.626-.619.633.633 0 0 1 .59-.655c2.204-.138 3.975-1.901 4.16-4.14a.644.644 0 0 1 .674-.585c.166.013.32.093.427.222.108.129.16.296.147.464-.236 2.873-2.508 5.134-5.335 5.312l-.037.001zM33.351 21H18.649c-.358 0-.649-.224-.649-.5s.29-.5.649-.5h14.702c.358 0 .649.224.649.5s-.29.5-.649.5zM30.407 14h-4.814c-.327 0-.593-.224-.593-.5s.266-.5.593-.5h4.814c.327 0 .593.224.593.5s-.266.5-.593.5zM30.407 10h-4.814c-.327 0-.593-.224-.593-.5s.266-.5.593-.5h4.814c.327 0 .593.224.593.5s-.266.5-.593.5zM14.5 20a.446.446 0 0 1-.354-.197.805.805 0 0 1-.146-.476v-4.654c0-.372.224-.673.5-.673s.5.301.5.673v4.654c0 .179-.053.35-.146.476A.446.446 0 0 1 14.5 20zM9.5 25a.45.45 0 0 1-.354-.192.769.769 0 0 1-.146-.463v-13.69c0-.362.224-.655.5-.655s.5.293.5.655v13.69c0 .174-.053.34-.146.463A.45.45 0 0 1 9.5 25zM5.5 21a.46.46 0 0 1-.354-.177.672.672 0 0 1-.146-.426v-7.794c0-.333.224-.603.5-.603s.5.27.5.603v7.794c0 .16-.053.313-.146.426A.46.46 0 0 1 5.5 21zM.5 26a.45.45 0 0 1-.354-.19.754.754 0 0 1-.146-.457V6.647C0 6.29.224 6 .5 6s.5.29.5.647v18.706a.754.754 0 0 1-.146.458A.45.45 0 0 1 .5 26zM41.5 20a.446.446 0 0 1-.354-.197.805.805 0 0 1-.146-.476v-4.654c0-.372.224-.673.5-.673s.5.301.5.673v4.654c0 .179-.053.35-.146.476A.446.446 0 0 1 41.5 20zM46.5 25a.45.45 0 0 1-.354-.192.769.769 0 0 1-.146-.463v-13.69c0-.362.224-.655.5-.655s.5.293.5.655v13.69c0 .174-.053.34-.146.463A.45.45 0 0 1 46.5 25zM50.5 21a.46.46 0 0 1-.354-.177.672.672 0 0 1-.146-.426v-7.794c0-.333.224-.603.5-.603s.5.27.5.603v7.794c0 .16-.053.313-.146.426A.46.46 0 0 1 50.5 21zM55.5 26a.45.45 0 0 1-.354-.19.754.754 0 0 1-.146-.457V6.647c0-.357.224-.647.5-.647s.5.29.5.647v18.706a.754.754 0 0 1-.146.458.45.45 0 0 1-.354.189z"/>
    </g>
</svg>
