<svg id="Layer_1" data-name="Layer 1" xmlns="http://www.w3.org/2000/svg" viewBox="0 0 77 78"><defs><style>.cls-1{opacity:0.3;}.cls-2{fill:#3dafcc;}.cls-3{fill:#1f282c;}</style></defs><title>optimizatorArtboard 30</title><g class="cls-1"><rect class="cls-2" x="60.91" y="15.23" width="5.11" height="62.08"/></g><g class="cls-1"><rect class="cls-2" x="24.23" y="51.21" width="3.3" height="26.11"/></g><g class="cls-1"><polygon class="cls-2" points="27.53 45.57 16.99 45.57 14.33 45.57 11.68 45.57 11.68 77.31 16.99 77.31 16.99 51.21 27.53 51.21 27.53 45.57"/></g><g class="cls-1"><polygon class="cls-2" points="38.1 10.02 38.1 0.69 22.26 0.69 22.26 10.02 16.99 10.02 16.99 30.49 16.99 37.65 16.99 45.57 27.53 45.57 27.53 37.65 43.39 37.65 43.39 10.02 38.1 10.02"/></g><rect class="cls-2" x="4.09" y="39.89" width="7.58" height="5.68"/><rect class="cls-2" x="64.51" y="9.55" width="8.31" height="5.68"/><rect class="cls-2" x="48.79" y="31.96" width="6.72" height="5.68"/><path class="cls-3" d="M27.53,77.81a.5.5,0,0,1-.5-.5V37.65a.5.5,0,0,1,.5-.5H60.91a.5.5,0,0,1,.5.5.5.5,0,0,1-.5.5H28V77.31A.5.5,0,0,1,27.53,77.81Z"/><path class="cls-3" d="M76.14,77.81H17a.5.5,0,0,1-.5-.5.5.5,0,0,1,.5-.5H75.64V15.73H61.41V34a.5.5,0,0,1-1,0V15.23a.5.5,0,0,1,.5-.5H76.14a.51.51,0,0,1,.5.5V77.31A.5.5,0,0,1,76.14,77.81Z"/><path class="cls-3" d="M13.18,77.81H.86a.5.5,0,0,1-.5-.5V45.57a.51.51,0,0,1,.5-.5H27.53a.5.5,0,0,1,.5.5.5.5,0,0,1-.5.5H1.36V76.81H13.18a.51.51,0,0,1,.5.5A.5.5,0,0,1,13.18,77.81Z"/><path class="cls-3" d="M17,77.81a.5.5,0,0,1-.5-.5V51.21a.5.5,0,0,1,.5-.5h7.24a.5.5,0,0,1,.5.5.51.51,0,0,1-.5.5H17.49v25.6A.5.5,0,0,1,17,77.81Z"/><path class="cls-3" d="M17,42.35a.5.5,0,0,1-.5-.5V10a.5.5,0,0,1,.5-.5h4.77V.69a.5.5,0,0,1,.5-.5H38.1a.5.5,0,0,1,.5.5V9.52h4.79a.5.5,0,0,1,.5.5V37.65a.51.51,0,0,1-.5.5.5.5,0,0,1-.5-.5V10.52H38.1a.5.5,0,0,1-.5-.5V1.19H22.76V10a.5.5,0,0,1-.5.5H17.49V41.85A.5.5,0,0,1,17,42.35Z"/><path class="cls-3" d="M72.82,15.73H64.51a.5.5,0,0,1-.5-.5V9.55a.5.5,0,0,1,.5-.5h8.31a.5.5,0,0,1,.5.5v5.68A.5.5,0,0,1,72.82,15.73Zm-7.81-1h7.31V10.05H65Z"/><path class="cls-3" d="M11.68,46.07H4.09a.5.5,0,0,1-.5-.5V39.89a.5.5,0,0,1,.5-.5h7.59a.5.5,0,0,1,.5.5v5.68A.5.5,0,0,1,11.68,46.07Zm-7.09-1h6.59V40.39H4.59Z"/><path class="cls-3" d="M55.51,38.15H48.79a.5.5,0,0,1-.5-.5V32a.5.5,0,0,1,.5-.5h6.72a.51.51,0,0,1,.5.5v5.69A.51.51,0,0,1,55.51,38.15Zm-6.22-1H55V32.46H49.29Z"/><path class="cls-3" d="M52.15,32.46a.5.5,0,0,1-.5-.5V29a.5.5,0,0,1,.5-.5.51.51,0,0,1,.5.5V32A.5.5,0,0,1,52.15,32.46Z"/><path class="cls-3" d="M23,42.35a.5.5,0,0,1-.5-.5V15.23a.5.5,0,0,1,.5-.5.51.51,0,0,1,.5.5V41.85A.5.5,0,0,1,23,42.35Z"/><path class="cls-3" d="M27.53,10.72a.5.5,0,0,1-.5-.5V5.82a.5.5,0,0,1,.5-.5.5.5,0,0,1,.5.5v4.4A.5.5,0,0,1,27.53,10.72Z"/><path class="cls-3" d="M33.09,10.72a.5.5,0,0,1-.5-.5V5.82a.5.5,0,0,1,.5-.5.5.5,0,0,1,.5.5v4.4A.5.5,0,0,1,33.09,10.72Z"/><path class="cls-3" d="M34.09,77.81a.5.5,0,0,1-.5-.5V43.06a.51.51,0,0,1,.5-.5.5.5,0,0,1,.5.5V77.31A.5.5,0,0,1,34.09,77.81Z"/><path class="cls-3" d="M40.85,77.81a.5.5,0,0,1-.5-.5V43.06a.5.5,0,0,1,.5-.5.51.51,0,0,1,.5.5V77.31A.5.5,0,0,1,40.85,77.81Z"/><path class="cls-3" d="M47.6,77.81a.5.5,0,0,1-.5-.5V43.06a.5.5,0,0,1,.5-.5.51.51,0,0,1,.5.5V77.31A.5.5,0,0,1,47.6,77.81Z"/><path class="cls-3" d="M54.35,77.81a.5.5,0,0,1-.5-.5V43.06a.5.5,0,0,1,.5-.5.51.51,0,0,1,.5.5V77.31A.5.5,0,0,1,54.35,77.81Z"/><path class="cls-3" d="M60.91,77.81a.5.5,0,0,1-.5-.5V37.65a.5.5,0,0,1,1,0V77.31A.5.5,0,0,1,60.91,77.81Z"/><path class="cls-3" d="M6.39,58.21a.51.51,0,0,1-.5-.5V53a.5.5,0,0,1,.5-.5.5.5,0,0,1,.5.5v4.75A.5.5,0,0,1,6.39,58.21Z"/><path class="cls-3" d="M6.39,70.28a.5.5,0,0,1-.5-.5V65a.5.5,0,0,1,.5-.5.5.5,0,0,1,.5.5v4.74A.5.5,0,0,1,6.39,70.28Z"/><path class="cls-3" d="M11.68,58.21a.5.5,0,0,1-.5-.5V53a.5.5,0,0,1,.5-.5.5.5,0,0,1,.5.5v4.75A.51.51,0,0,1,11.68,58.21Z"/><path class="cls-3" d="M11.68,70.28a.5.5,0,0,1-.5-.5V65a.5.5,0,0,1,.5-.5.5.5,0,0,1,.5.5v4.74A.5.5,0,0,1,11.68,70.28Z"/><path class="cls-3" d="M66,24.87a.5.5,0,0,1-.5-.5V21.12a.5.5,0,0,1,1,0v3.25A.5.5,0,0,1,66,24.87Z"/><path class="cls-3" d="M71.31,24.87a.5.5,0,0,1-.5-.5V21.12a.5.5,0,0,1,.5-.5.5.5,0,0,1,.5.5v3.25A.51.51,0,0,1,71.31,24.87Z"/><path class="cls-3" d="M66,43.53a.5.5,0,0,1-.5-.5V39.78a.5.5,0,0,1,1,0V43A.5.5,0,0,1,66,43.53Z"/><path class="cls-3" d="M71.31,43.53a.5.5,0,0,1-.5-.5V39.78a.5.5,0,0,1,.5-.5.51.51,0,0,1,.5.5V43A.5.5,0,0,1,71.31,43.53Z"/><path class="cls-3" d="M66,52.87a.5.5,0,0,1-.5-.5V49.12a.5.5,0,1,1,1,0v3.25A.5.5,0,0,1,66,52.87Z"/><path class="cls-3" d="M71.31,52.87a.5.5,0,0,1-.5-.5V49.12a.5.5,0,0,1,.5-.5.5.5,0,0,1,.5.5v3.25A.51.51,0,0,1,71.31,52.87Z"/><path class="cls-3" d="M66,62.2a.5.5,0,0,1-.5-.5V58.45a.5.5,0,0,1,1,0V61.7A.5.5,0,0,1,66,62.2Z"/><path class="cls-3" d="M71.31,62.2a.5.5,0,0,1-.5-.5V58.45a.5.5,0,0,1,.5-.5.5.5,0,0,1,.5.5V61.7A.5.5,0,0,1,71.31,62.2Z"/><path class="cls-3" d="M66,71.53a.5.5,0,0,1-.5-.5V67.78a.5.5,0,0,1,1,0V71A.5.5,0,0,1,66,71.53Z"/><path class="cls-3" d="M71.31,71.53a.5.5,0,0,1-.5-.5V67.78a.5.5,0,0,1,.5-.5.51.51,0,0,1,.5.5V71A.5.5,0,0,1,71.31,71.53Z"/><path class="cls-3" d="M66,34.2a.5.5,0,0,1-.5-.5V30.45a.5.5,0,0,1,1,0V33.7A.5.5,0,0,1,66,34.2Z"/><path class="cls-3" d="M71.31,34.2a.5.5,0,0,1-.5-.5V30.45a.5.5,0,0,1,.5-.5.51.51,0,0,1,.5.5V33.7A.5.5,0,0,1,71.31,34.2Z"/><path class="cls-3" d="M27.53,57.64h-6.6a.5.5,0,0,1-.5-.5.5.5,0,0,1,.5-.5h6.6a.5.5,0,0,1,.5.5A.5.5,0,0,1,27.53,57.64Z"/><path class="cls-3" d="M27.53,64.57h-6.6a.5.5,0,0,1,0-1h6.6a.5.5,0,1,1,0,1Z"/><path class="cls-3" d="M27.53,71.5h-6.6a.5.5,0,0,1-.5-.5.5.5,0,0,1,.5-.5h6.6a.5.5,0,0,1,.5.5A.5.5,0,0,1,27.53,71.5Z"/><path class="cls-3" d="M30.31,34.15a.51.51,0,0,1-.5-.5V15.23a.51.51,0,0,1,.5-.5.5.5,0,0,1,.5.5V33.65A.5.5,0,0,1,30.31,34.15Z"/><path class="cls-3" d="M37.66,34.15a.5.5,0,0,1-.5-.5V15.23a.5.5,0,0,1,.5-.5.51.51,0,0,1,.5.5V33.65A.51.51,0,0,1,37.66,34.15Z"/></svg>