<svg id="Layer_1" data-name="Layer 1" xmlns="http://www.w3.org/2000/svg" viewBox="0 0 87 77"><defs><style>.cls-1{opacity:0.3;}.cls-2{fill:#3dafcc;}.cls-3{fill:#1f282c;}</style></defs><title>optimizatorArtboard 31</title><g class="cls-1"><path class="cls-2" d="M17.07,6.81h0V17.72l-5,2.7V11.81A5,5,0,0,1,17.07,6.81Z"/></g><g class="cls-1"><path class="cls-2" d="M36.74,6.81h0V17.72l5,2.7V11.81A5,5,0,0,0,36.74,6.81Z"/></g><g class="cls-1"><path class="cls-2" d="M86.26,58.91H18.74v4H33.5V73.46a3,3,0,0,0,3,3h1.58a3,3,0,0,0,3-3V62.94H63.94V73.46a3,3,0,0,0,3,3h1.58a3,3,0,0,0,3-3V62.94H86.26Z"/></g><rect class="cls-2" x="25.94" y="47.05" width="7.56" height="23.71" rx="2.46" ry="2.46" transform="matrix(-1, 0, 0, -1, 59.44, 117.82)"/><rect class="cls-2" x="71.5" y="47.05" width="7.56" height="23.71" rx="2.46" ry="2.46"/><path class="cls-3" d="M31,71.27H28.4a3,3,0,0,1-3-3V49.51a3,3,0,0,1,3-3H31a3,3,0,0,1,3,3v18.8A3,3,0,0,1,31,71.27ZM28.4,47.55a2,2,0,0,0-2,2v18.8a2,2,0,0,0,2,2H31a2,2,0,0,0,2-2V49.51a2,2,0,0,0-2-2Z"/><path class="cls-3" d="M10.76,63.18a26.64,26.64,0,0,1,.79-43l0,0V5.83A5.8,5.8,0,0,1,17.35.05H36.47a5.79,5.79,0,0,1,5.77,5.78V20.16a26.7,26.7,0,0,1,9.88,30.51l-.95-.32a25.69,25.69,0,0,0-9.71-29.52l-.22-.15V5.83a4.78,4.78,0,0,0-4.77-4.78H17.35a4.79,4.79,0,0,0-4.78,4.78V20.68l-.44.31a25.66,25.66,0,0,0-.77,41.4ZM37.24,18.47l-.68-.28a25.77,25.77,0,0,0-19.3,0l-.69.28V7.2a1.94,1.94,0,0,1,1.94-1.94h16.8A1.93,1.93,0,0,1,37.24,7.2ZM18.51,6.26a.94.94,0,0,0-.94.94V17a26.78,26.78,0,0,1,18.67,0V7.2a.93.93,0,0,0-.93-.94Z"/><path class="cls-3" d="M68.51,77H66.93a3.49,3.49,0,0,1-3.49-3.49V44.37a3.49,3.49,0,0,1,3.49-3.49h1.58A3.49,3.49,0,0,1,72,44.37V73.46A3.49,3.49,0,0,1,68.51,77ZM66.93,41.88a2.49,2.49,0,0,0-2.49,2.49V73.46A2.5,2.5,0,0,0,66.93,76h1.58A2.5,2.5,0,0,0,71,73.46V44.37a2.49,2.49,0,0,0-2.49-2.49Z"/><path class="cls-3" d="M76.6,71.27H74a3,3,0,0,1-3-3V49.51a3,3,0,0,1,3-3H76.6a3,3,0,0,1,3,3v18.8A3,3,0,0,1,76.6,71.27ZM74,47.55a2,2,0,0,0-2,2v18.8a2,2,0,0,0,2,2H76.6a2,2,0,0,0,2-2V49.51a2,2,0,0,0-2-2Z"/><path class="cls-3" d="M38.07,77H36.49A3.49,3.49,0,0,1,33,73.46V44.37a3.49,3.49,0,0,1,3.49-3.49h1.58a3.49,3.49,0,0,1,3.49,3.49V73.46A3.49,3.49,0,0,1,38.07,77ZM36.49,41.88A2.49,2.49,0,0,0,34,44.37V73.46A2.5,2.5,0,0,0,36.49,76h1.58a2.5,2.5,0,0,0,2.49-2.49V44.37a2.49,2.49,0,0,0-2.49-2.49Z"/><path class="cls-3" d="M26.44,63.44h-8.2V54.38h8.2Zm-7.2-1h6.2V55.38h-6.2Z"/><path class="cls-3" d="M86.76,63.44h-8.2V54.38h8.2Zm-7.2-1h6.2V55.38h-6.2Z"/><path class="cls-3" d="M64.44,63.44H40.56V54.38H64.44Zm-22.88-1H63.44V55.38H41.56Z"/><rect class="cls-3" x="21.84" y="54.88" width="1" height="4.03"/><rect class="cls-3" x="82.16" y="54.88" width="1" height="4.03"/></svg>