<svg id="Layer_1" data-name="Layer 1" xmlns="http://www.w3.org/2000/svg" viewBox="0 0 71 77"><defs><style>.cls-1{opacity:0.3;}.cls-2{fill:#3dafcc;}.cls-3{fill:#1f282c;}</style></defs><title>optimizatorArtboard 32</title><g class="cls-1"><path class="cls-2" d="M65.23,10.72V76.25l4.92-12.18V15.64A4.92,4.92,0,0,0,65.23,10.72Z"/></g><polygon class="cls-2" points="62.36 69.13 68.11 69.13 65.23 76.25 62.36 69.13"/><g class="cls-1"><path class="cls-2" d="M51.59,10.72H40.26a12.76,12.76,0,0,1,.09,4.86h9.49V71.39H5.35V15.58h9.48a13.5,13.5,0,0,1-.19-2.13,13,13,0,0,1,.3-2.73H3.61A3.11,3.11,0,0,0,.5,13.83V73.14a3.11,3.11,0,0,0,3.11,3.11h48a3.11,3.11,0,0,0,3.11-3.11V13.83A3.11,3.11,0,0,0,51.59,10.72Z"/></g><polygon class="cls-2" points="35.43 10.91 30.15 10.91 30.15 5.63 25.05 5.63 25.05 10.91 19.77 10.91 19.77 16 25.05 16 25.05 21.28 30.15 21.28 30.15 18.37 30.15 16 35.43 16 35.43 10.91"/><path class="cls-3" d="M27.6,26.91A13.46,13.46,0,1,1,41.05,13.45,13.48,13.48,0,0,1,27.6,26.91ZM27.6,1A12.46,12.46,0,1,0,40.05,13.45,12.47,12.47,0,0,0,27.6,1Z"/><path class="cls-3" d="M30.15,21.78h-5.1a.5.5,0,0,1-.5-.5V16.5H19.77a.5.5,0,0,1-.5-.5V10.91a.5.5,0,0,1,.5-.5h4.78V5.63a.5.5,0,0,1,.5-.5h5.1a.5.5,0,0,1,.5.5v4.78h4.78a.5.5,0,0,1,.5.5V16a.5.5,0,0,1-.5.5H30.65v4.78A.5.5,0,0,1,30.15,21.78Zm-4.6-1h4.1V16a.5.5,0,0,1,.5-.5h4.78V11.41H30.15a.5.5,0,0,1-.5-.5V6.13h-4.1v4.78a.5.5,0,0,1-.5.5H20.27V15.5h4.78a.5.5,0,0,1,.5.5Z"/><path class="cls-3" d="M70.15,64.57a.5.5,0,0,1-.5-.5V15.64a4.42,4.42,0,1,0-8.83,0V64.07a.5.5,0,0,1-1,0V15.64a5.42,5.42,0,1,1,10.83,0V64.07A.5.5,0,0,1,70.15,64.57Z"/><path class="cls-3" d="M65.23,76.75a.51.51,0,0,1-.46-.32L59.86,64.26a.49.49,0,0,1,.27-.65.5.5,0,0,1,.65.27l4.45,11,4.34-10.75-1.88-2.22-2.07,2.45a.5.5,0,0,1-.39.18h0a.49.49,0,0,1-.38-.18l-1.71-2a.5.5,0,0,1,.77-.65l1.32,1.58,2.08-2.46a.5.5,0,0,1,.76,0l2.46,2.91a.5.5,0,0,1,.08.51L65.7,76.43A.51.51,0,0,1,65.23,76.75Z"/><path class="cls-3" d="M70.15,20.37H63.23a.5.5,0,0,1,0-1h6.92a.5.5,0,0,1,0,1Z"/><path class="cls-3" d="M70.15,26.92H63.23a.51.51,0,0,1-.5-.5.5.5,0,0,1,.5-.5h6.92a.5.5,0,0,1,.5.5A.51.51,0,0,1,70.15,26.92Z"/><path class="cls-3" d="M65.23,58.38a.51.51,0,0,1-.5-.5V26.42a.5.5,0,0,1,.5-.5.5.5,0,0,1,.5.5V57.88A.5.5,0,0,1,65.23,58.38Z"/><path class="cls-3" d="M13.67,40.25H11.49a.5.5,0,0,1-.5-.5V31.4a.5.5,0,0,1,.5-.5h8.34a.5.5,0,0,1,.5.5.5.5,0,0,1-.5.5H12v7.35h1.68a.5.5,0,0,1,.5.5A.5.5,0,0,1,13.67,40.25Z"/><path class="cls-3" d="M18,39.68a.53.53,0,0,1-.36-.15L14.79,36.7A.5.5,0,1,1,15.5,36L18,38.47l6.27-6.28a.5.5,0,0,1,.71.71l-6.63,6.63A.51.51,0,0,1,18,39.68Z"/><path class="cls-3" d="M37.31,33.52h-6.8A.5.5,0,0,1,30,33a.5.5,0,0,1,.5-.5h6.8a.5.5,0,0,1,.5.5A.51.51,0,0,1,37.31,33.52Z"/><path class="cls-3" d="M43.88,33.52H41a.5.5,0,0,1-.5-.5.5.5,0,0,1,.5-.5h2.91a.5.5,0,0,1,.5.5A.5.5,0,0,1,43.88,33.52Z"/><path class="cls-3" d="M42.16,38.78H30.51a.5.5,0,0,1-.5-.5.5.5,0,0,1,.5-.5H42.16a.5.5,0,0,1,.5.5A.5.5,0,0,1,42.16,38.78Z"/><path class="cls-3" d="M13.67,53.38H11.49a.5.5,0,0,1-.5-.5V44.54a.5.5,0,0,1,.5-.5h8.34a.5.5,0,0,1,.5.5.5.5,0,0,1-.5.5H12v7.34h1.68a.5.5,0,0,1,0,1Z"/><path class="cls-3" d="M18,52.81a.54.54,0,0,1-.36-.14l-2.83-2.83a.51.51,0,0,1,0-.71.5.5,0,0,1,.71,0L18,51.6l6.27-6.27a.5.5,0,0,1,.71,0A.51.51,0,0,1,25,46l-6.63,6.63A.54.54,0,0,1,18,52.81Z"/><path class="cls-3" d="M37.31,46.65h-6.8a.5.5,0,1,1,0-1h6.8a.5.5,0,0,1,0,1Z"/><path class="cls-3" d="M43.88,46.65H41a.5.5,0,0,1,0-1h2.91a.5.5,0,0,1,0,1Z"/><path class="cls-3" d="M42.16,51.91H30.51a.5.5,0,0,1-.5-.5.5.5,0,0,1,.5-.5H42.16a.5.5,0,0,1,.5.5A.5.5,0,0,1,42.16,51.91Z"/><path class="cls-3" d="M13.67,66.51H11.49A.5.5,0,0,1,11,66V57.67a.5.5,0,0,1,.5-.5h8.34a.5.5,0,0,1,.5.5.5.5,0,0,1-.5.5H12v7.34h1.68a.5.5,0,0,1,.5.5A.5.5,0,0,1,13.67,66.51Z"/><path class="cls-3" d="M18,66a.53.53,0,0,1-.36-.15L14.79,63a.5.5,0,1,1,.71-.71L18,64.74l6.27-6.28a.5.5,0,1,1,.71.71L18.33,65.8A.51.51,0,0,1,18,66Z"/><path class="cls-3" d="M37.31,59.79h-6.8a.5.5,0,0,1-.5-.5.5.5,0,0,1,.5-.5h6.8a.5.5,0,0,1,.5.5A.51.51,0,0,1,37.31,59.79Z"/><path class="cls-3" d="M43.88,59.79H41a.5.5,0,0,1-.5-.5.5.5,0,0,1,.5-.5h2.91a.5.5,0,0,1,.5.5A.5.5,0,0,1,43.88,59.79Z"/><path class="cls-3" d="M42.16,65.05H30.51a.5.5,0,0,1-.5-.5.5.5,0,0,1,.5-.5H42.16a.5.5,0,0,1,.5.5A.5.5,0,0,1,42.16,65.05Z"/><path class="cls-3" d="M51.59,76.75h-48A3.61,3.61,0,0,1,0,73.14V13.83a3.61,3.61,0,0,1,3.61-3.61H14.94a.51.51,0,0,1,.39.19.53.53,0,0,1,.1.42,12.37,12.37,0,0,0-.29,2.62,11.76,11.76,0,0,0,.19,2.05.52.52,0,0,1-.5.58h-9V70.89H49.34V16.08h-9a.55.55,0,0,1-.4-.18.54.54,0,0,1-.12-.41,12,12,0,0,0-.08-4.66.53.53,0,0,1,.1-.42.51.51,0,0,1,.39-.19H51.59a3.61,3.61,0,0,1,3.61,3.61V73.14A3.61,3.61,0,0,1,51.59,76.75Zm-48-65.53A2.61,2.61,0,0,0,1,13.83V73.14a2.61,2.61,0,0,0,2.61,2.61h48a2.61,2.61,0,0,0,2.61-2.61V13.83a2.61,2.61,0,0,0-2.61-2.61H40.86a13.48,13.48,0,0,1,.07,3.86h8.91a.5.5,0,0,1,.5.5V71.39a.5.5,0,0,1-.5.5H5.35a.5.5,0,0,1-.5-.5V15.58a.5.5,0,0,1,.5-.5h8.9a13.39,13.39,0,0,1-.11-1.63,14.19,14.19,0,0,1,.19-2.23Z"/><path class="cls-3" d="M68.11,69.63H62.36a.5.5,0,0,1-.5-.5.5.5,0,0,1,.5-.5h5.75a.5.5,0,0,1,.5.5A.51.51,0,0,1,68.11,69.63Z"/></svg>