<svg xmlns="http://www.w3.org/2000/svg" width="67" height="66" viewBox="0 0 67 66">
    <g fill="none" fill-rule="evenodd">
        <path fill="#FFF" d="M44.5 45c1.733 0 19.5 4.5 21-4 .278-1.573-1.5-6-3-6.5-1.858-.62-4-.766-4-1.5 0-.677-2-5-5.5-5.5-2.363-.338-4.5 1-5.5 2-1.17 1.17-1.24 4.5-3 4.5a5.5 5.5 0 0 0 0 11zM7.5 64c1.733 0 19.5 4.5 21-4 .278-1.573-1.5-6-3-6.5-1.858-.62-4-.766-4-1.5 0-.677-2-5-5.5-5.5-2.363-.338-4.5 1-5.5 2-1.17 1.17-1.24 4.5-3 4.5a5.5 5.5 0 0 0 0 11zM20 17.5c1.733 0 37 6.5 38.5-2 .04-.229-5.655-7.827-8.5-9-4.077-1.68-5.744 2.762-5.5 1C45.258 2.033 34.97 1.323 34 1c-1.858-.62-7 2.234-7 1.5 0-.677-3.5 4.5-7 4-2.363-.338-4.5 1-5.5 2-1.17 1.17-1.24 4.5-3 4.5A5.5 5.5 0 0 0 6 18.5c0 3.038 10.962-1 14-1z"/>
        <path fill="#3DAFCC" fill-rule="nonzero" d="M11.315 14.745a8.895 8.895 0 0 1 .765-3.63c-6.63.645-10.83 1.77-10.83 3.63 0 1.86 4.2 3 10.83 3.63a8.895 8.895 0 0 1-.765-3.63zM54.89 11.115a8.445 8.445 0 0 1 .225 7.23c6.51-.645 10.635-1.755 10.635-3.6 0-1.845-4.215-2.985-10.86-3.63z"/>
        <path fill="#CEEAF2" fill-rule="nonzero" d="M33.5 19.125c-17.805 0-32.25-.915-32.25-4.38v8.535l27 14.295v8.085l2.34 1.68 1.05.75 7.11 5.07v-8.01-4.665c0-7.965 7.11-7.26 7.11-7.26a6.54 6.54 0 0 1 4.14-5.31 8.25 8.25 0 0 1 6.51.255l9.24-4.89v-8.535c0 3.465-14.445 4.38-32.25 4.38z"/>
        <path fill="#1F282C" fill-rule="nonzero" d="M56.525 28.92a.77.77 0 0 1-.345-1.5L65 22.83v-8.085a.75.75 0 1 1 1.5 0v8.535a.72.72 0 0 1-.405.66l-9.225 4.89a.69.69 0 0 1-.345.09zM38.75 53.91a.78.78 0 0 1-.435-.135l-10.5-7.5a.735.735 0 0 1-.315-.615v-7.635L.905 24a.72.72 0 0 1-.405-.72v-8.535a.75.75 0 1 1 1.5 0v8.085l26.595 14.085a.72.72 0 0 1 .405.66v7.71l9 6.42V40.5a.75.75 0 1 1 1.5 0v12.69a.75.75 0 0 1-.405.675.69.69 0 0 1-.345.045z"/>
        <path fill="#CEEAF2" fill-rule="nonzero" d="M24.62 52.89a6.465 6.465 0 0 1-6.42 7.62H4.265a6.375 6.375 0 0 1-2.91-.72 6.525 6.525 0 0 0 6.42 5.46h13.95a6.51 6.51 0 0 0 2.895-12.36z"/>
        <path fill="#1F282C" fill-rule="nonzero" d="M21.725 66H7.775a7.29 7.29 0 0 1 0-14.565 7.245 7.245 0 0 1 14.16 0A7.29 7.29 0 0 1 21.725 66zM7.775 52.935a5.79 5.79 0 0 0 0 11.565h13.95a5.79 5.79 0 0 0 0-11.565h-.42a.765.765 0 0 1-.75-.66 5.745 5.745 0 0 0-11.415 0 .75.75 0 0 1-.735.66h-.63z"/>
        <path fill="#CEEAF2" fill-rule="nonzero" d="M62.12 33.915c.066.356.101.718.105 1.08A6.525 6.525 0 0 1 55.7 41.52H41.765a6.555 6.555 0 0 1-2.91-.705 6.54 6.54 0 0 0 6.42 5.46h13.95a6.51 6.51 0 0 0 2.895-12.36z"/>
        <path fill="#1F282C" fill-rule="nonzero" d="M59.225 47.01h-13.95a7.275 7.275 0 1 1 0-14.55 7.23 7.23 0 0 1 14.16 0 7.276 7.276 0 0 1-.21 14.55zm-13.95-13.05a5.775 5.775 0 0 0 0 11.55h13.95a5.775 5.775 0 0 0 0-11.55h-.42a.765.765 0 0 1-.75-.66 5.745 5.745 0 0 0-11.415 0 .75.75 0 0 1-.735.66h-.63zM20 15.495a.75.75 0 0 1-.75-.72v-.48A14.295 14.295 0 0 1 45.185 6a.75.75 0 0 1-.18 1.05A.735.735 0 0 1 44 6.93a12.795 12.795 0 0 0-23.295 7.365 3.93 3.93 0 0 0 0 .42.765.765 0 0 1-.72.78H20z"/>
        <path fill="#1F282C" fill-rule="nonzero" d="M55.76 15.495a.75.75 0 0 1-.75-.75 7.56 7.56 0 0 0-15.12 0 .75.75 0 1 1-1.5 0 9.06 9.06 0 0 1 18.12 0 .75.75 0 0 1-.75.75zM25.85 11.34a.75.75 0 0 1-.66-1.095 9.705 9.705 0 0 1 8.58-5.415c1.128 0 2.247.21 3.3.615a.75.75 0 0 1 .435.96.75.75 0 0 1-.975.435 7.89 7.89 0 0 0-2.76-.51 8.205 8.205 0 0 0-7.245 4.605.765.765 0 0 1-.675.405zM11.255 15.495a.75.75 0 0 1-.75-.72v-.48a9 9 0 0 1 9-9 8.912 8.912 0 0 1 3.135.555.752.752 0 0 1-.525 1.41 7.305 7.305 0 0 0-2.61-.465 7.5 7.5 0 0 0-7.5 7.5 3.66 3.66 0 0 0 0 .405.765.765 0 0 1-.72.795h-.03zM10.685 40.875a.75.75 0 0 1-.75-.75V34.5a.765.765 0 0 1 .75-.75.75.75 0 0 1 .75.75v5.625a.75.75 0 0 1-.75.75z"/>
        <path fill="#1F282C" fill-rule="nonzero" d="M13.505 38.07H7.88a.765.765 0 0 1-.75-.75.75.75 0 0 1 .75-.75h5.625a.75.75 0 0 1 .75.75.765.765 0 0 1-.75.75zM52.235 61.5a.75.75 0 0 1-.75-.75v-5.58a.75.75 0 1 1 1.5 0v5.61a.75.75 0 0 1-.75.72z"/>
        <path fill="#1F282C" fill-rule="nonzero" d="M55.04 58.725h-5.625a.75.75 0 1 1 0-1.5h5.625a.75.75 0 1 1 0 1.5zM33.5 62.595a.75.75 0 0 1-.75-.75V54.66a.75.75 0 1 1 1.5 0v7.185a.75.75 0 0 1-.75.75zM38.75 65.595a.75.75 0 0 1-.75-.75V57.66a.75.75 0 1 1 1.5 0v7.185a.75.75 0 0 1-.75.75zM33.5 19.875c-28.995 0-33-2.46-33-5.13 0-2.25 3.48-3.585 11.295-4.365a.795.795 0 0 1 .825.675.765.765 0 0 1-.675.825C2.48 12.81 2 14.43 2 14.745c0 1.095 3.075 3.63 31.5 3.63S65 15.84 65 14.745c0-.315-.495-1.95-10.155-2.895a.735.735 0 0 1-.675-.81.795.795 0 0 1 .825-.675c7.95.765 11.505 2.115 11.505 4.38 0 2.67-4.005 5.13-33 5.13z"/>
    </g>
</svg>
