<svg xmlns="http://www.w3.org/2000/svg" width="38" height="31" viewBox="0 0 38 31">
    <g fill="none" fill-rule="evenodd">
        <path fill="#1EB0CD" d="M20.04 14.652l4.43 4.054c2.012-2.358 2.004-5.76-.119-8.144l-4.311 4.09z"/>
        <path fill="#FFF" fill-rule="nonzero" d="M17.21 19.301l1.813-1.689 1.812 1.689H17.21zm1.8-3.672l-5.724 5.43c3.435 2.56 8.286 2.47 11.586-.066l-5.862-5.364z"/>
        <path fill="#1EB0CD" d="M23.368 9.663c-2.744-2.039-6.752-1.854-9.265.53-2.513 2.383-2.639 6.12-.402 8.64l9.667-9.17z"/>
        <g fill="#F2C400" fill-rule="nonzero">
            <path d="M12.308.944a5.809 5.809 0 0 1 .65.132C11.516 3.884 8.727 5.673 6.006 6.87c0 0-.005-.04-.01-.113a2.779 2.779 0 0 1-.01-.317c.002-.136.008-.301.024-.493.007-.097.023-.196.04-.302.017-.106.037-.218.061-.335l.039-.18c.015-.06.033-.12.051-.182.037-.124.078-.252.123-.384.044-.133.102-.263.162-.398.061-.134.127-.272.2-.409.077-.134.16-.27.249-.407.044-.067.089-.137.138-.204a7.366 7.366 0 0 1 .319-.394c.057-.065.112-.131.175-.192a8.22 8.22 0 0 1 .39-.362c.066-.06.137-.114.21-.166a8.108 8.108 0 0 1 .433-.3c.073-.045.15-.086.224-.127.15-.08.3-.156.45-.225a9.468 9.468 0 0 1 .674-.247 9.658 9.658 0 0 1 .649-.15 2.26 2.26 0 0 1 .206-.032 8.012 8.012 0 0 1 .579-.052c.243-.007.465.004.658.016l.139.011.13.018zM1.763 10.13a7.186 7.186 0 0 1-.14-.885 6.464 6.464 0 0 1-.012-.743 6.035 6.035 0 0 1 .293-1.624c.028-.093.058-.184.094-.272.07-.178.145-.353.226-.525l.06-.128.066-.124a10.7 10.7 0 0 1 .137-.244c.095-.16.185-.32.292-.466.103-.149.209-.292.315-.43l.08-.103.083-.098a11.327 11.327 0 0 1 .5-.543c.115-.108.227-.212.336-.308l.161-.141.079-.068.08-.062a12.77 12.77 0 0 1 .577-.42 8.28 8.28 0 0 1 .243-.15c.296-.175.473-.262.473-.262s-.009.171-.042.461c-.016.146-.038.32-.067.517-.024.2-.053.425-.09.664-.04.237-.075.5-.12.771-.023.136-.052.271-.074.414a12.45 12.45 0 0 1-.125.652c-.017.073-.029.15-.045.224-.03.15-.064.302-.103.453-.02.075-.038.152-.055.23a9.516 9.516 0 0 1-.059.231c-.04.155-.09.307-.133.466-.046.157-.095.31-.15.46-.052.15-.1.3-.155.444a7.768 7.768 0 0 1-.084.215c-.03.07-.053.143-.081.213-.055.14-.112.277-.172.41-.058.133-.11.266-.169.394-.056.128-.12.25-.172.374-.054.122-.11.24-.166.354l-.084.168-.076.164a11.998 11.998 0 0 1-.227.448c-.024.046-.045.091-.067.135a11.03 11.03 0 0 1-.237.454c-.036.062-.065.12-.091.169l-.068.125-.06.105s-.098-.122-.246-.353a4.856 4.856 0 0 1-.239-.43 6.023 6.023 0 0 1-.261-.59 7.55 7.55 0 0 1-.225-.746zm.038 8.396a6.767 6.767 0 0 1-.464-.49c-.081-.093-.153-.193-.23-.297a6.99 6.99 0 0 1-.222-.329 5.203 5.203 0 0 1-.398-.759 5.155 5.155 0 0 1-.295-.887 7.87 7.87 0 0 1-.055-.237 8.139 8.139 0 0 1-.09-.713c-.015-.158-.013-.314-.012-.47.002-.154.008-.306.016-.456.025-.3.07-.587.119-.858.059-.27.127-.522.195-.753a8.16 8.16 0 0 1 .228-.62c.038-.09.073-.175.109-.252a9.57 9.57 0 0 1 .105-.211c.13-.253.216-.392.216-.392s.078.124.194.344c.059.11.128.244.202.397.076.154.164.328.25.518.168.378.368.822.54 1.303.094.242.174.493.253.754.042.13.08.262.115.397s.063.271.098.41a6.7 6.7 0 0 1 .082.413l.032.204a7.286 7.286 0 0 1 .08.6l.008.097.01.097a7.863 7.863 0 0 1 .04.565c.002.061.007.122.01.181l.009.178c.01.233.004.457.01.662.002.207-.002.398-.01.569a9.802 9.802 0 0 1-.034.735c-.007.068-.009.104-.009.104s-.032-.015-.088-.046a5.8 5.8 0 0 1-1.015-.758zm2.873 5.931a3.65 3.65 0 0 1-.425-.152 5.566 5.566 0 0 1-.485-.232c-.085-.047-.174-.095-.26-.15a5.945 5.945 0 0 1-.651-.494 5.082 5.082 0 0 1-.608-.675 6.043 6.043 0 0 1-.396-.638 6.636 6.636 0 0 1-.283-.66 3.41 3.41 0 0 1-.103-.326 8.501 8.501 0 0 1-.146-.62 8.75 8.75 0 0 1-.086-.791c-.007-.152-.003-.284 0-.393.006-.219.02-.344.02-.344s.099.06.26.173a8.275 8.275 0 0 1 .45.341c.061.047.124.096.189.149.26.21.536.465.831.754a7.101 7.101 0 0 1 .32.345l.109.121c.145.164.28.34.41.526.137.184.257.371.363.56.112.186.215.37.303.555.042.093.088.182.131.27.043.09.082.177.119.263.038.086.07.172.104.254.036.08.069.16.1.237.06.154.11.3.155.428.048.127.087.241.118.336.061.19.089.305.089.305s-.109-.013-.295-.054a4.973 4.973 0 0 1-.333-.088zm3.816 3.715a4.145 4.145 0 0 1-.636.014 3.352 3.352 0 0 1-.425-.049 4.65 4.65 0 0 1-.478-.108 4.212 4.212 0 0 1-.762-.316 4.774 4.774 0 0 1-.496-.33c-.077-.062-.156-.123-.226-.19a5.724 5.724 0 0 1-.394-.41 2.648 2.648 0 0 1-.169-.21 6.056 6.056 0 0 1-.282-.418l-.06-.099a5.858 5.858 0 0 1-.349-.746c-.058-.163-.083-.26-.083-.26s.09.015.241.052c.15.04.37.093.621.176.126.04.26.088.399.143.14.054.29.112.44.18.074.034.149.07.224.108l.113.06.116.06c.154.082.308.175.457.28.151.103.298.207.431.32.067.056.13.114.194.17a5.342 5.342 0 0 1 .358.338c.055.057.106.115.16.168.105.109.2.215.286.318l.122.148a5.765 5.765 0 0 1 .435.567l-.063.012c-.04.006-.099.014-.174.022zm3.377 1.588a5.142 5.142 0 0 1 .348.26s-.06.033-.173.079a3.229 3.229 0 0 1-2.09.13 1.934 1.934 0 0 1-.226-.075 3.926 3.926 0 0 1-.616-.3 5.031 5.031 0 0 1-.497-.363c-.05-.04-.092-.082-.135-.122-.17-.162-.3-.308-.388-.412-.044-.053-.075-.099-.096-.128l-.033-.047s.072-.012.196-.022a5.917 5.917 0 0 1 1.633.07c.136.03.28.057.42.1.56.172 1.05.435 1.41.67.09.06.174.11.247.16zM9.606 7.524a5.335 5.335 0 0 1-.2.38l-.03.052a3.41 3.41 0 0 0-.029.055l-.06.112a5.094 5.094 0 0 1-.137.228c-.047.08-.093.163-.145.244a4.49 4.49 0 0 1-.08.123c-.015.02-.03.04-.043.062l-.041.064a4.133 4.133 0 0 1-.177.256c-.066.083-.124.175-.193.26a3.357 3.357 0 0 1-.105.13l-.055.064-.053.067c-.072.089-.15.176-.234.262-.042.042-.082.086-.124.13a3.88 3.88 0 0 1-.13.13c-.185.17-.363.338-.562.49-.05.038-.097.077-.145.115a6.569 6.569 0 0 1-.146.113c-.097.074-.2.145-.299.215-.192.143-.395.275-.589.4-.189.128-.377.246-.557.354-.178.109-.34.21-.492.297-.15.088-.29.163-.399.226-.22.126-.358.193-.358.193s-.007-.038-.016-.109l-.015-.13a2.017 2.017 0 0 1-.013-.177 8.323 8.323 0 0 1-.003-.475c.002-.046.002-.094.005-.143l.014-.148c.01-.102.023-.21.037-.32l.025-.172.037-.174c.026-.118.055-.24.088-.364.03-.125.077-.248.121-.376.048-.126.095-.256.153-.384.06-.126.125-.254.194-.38.035-.064.068-.129.109-.19.04-.062.08-.123.123-.184.085-.122.17-.245.269-.36.1-.114.204-.226.313-.333.106-.11.227-.203.343-.295.059-.045.118-.09.177-.131.058-.043.117-.083.18-.12a5.97 5.97 0 0 1 .369-.203c.061-.03.12-.061.183-.087a6.134 6.134 0 0 1 .55-.198c.117-.036.24-.06.355-.084a4.07 4.07 0 0 1 .655-.083c.206-.01.39-.008.554.002.167.014.312.034.43.054.235.04.368.08.368.08s-.046.12-.142.309c-.023.047-.05.098-.08.153zm-4.57 10.44c-.103.156-.191.298-.276.423a10.306 10.306 0 0 1-.387.54L4.315 19s-.021-.027-.053-.082a6.018 6.018 0 0 1-.32-.612 8.253 8.253 0 0 1-.187-.505 4.65 4.65 0 0 1-.16-.614c-.01-.055-.02-.111-.032-.168a1.986 1.986 0 0 1-.025-.173 7.029 7.029 0 0 1-.042-.638c0-.032.002-.063.003-.095a6.41 6.41 0 0 1 .048-.576c.01-.064.024-.13.037-.194.028-.13.06-.258.098-.387.034-.128.085-.251.136-.371a5.16 5.16 0 0 1 .163-.345c.119-.221.259-.423.397-.605.293-.364.603-.65.904-.86.148-.106.285-.196.415-.27.13-.072.247-.13.345-.175.196-.089.314-.128.314-.128a3.818 3.818 0 0 0 .049.479l.015.19c.01.136.012.286.016.448.007.163.005.337-.004.52 0 .184-.015.375-.036.573-.008.1-.02.2-.034.303-.014.102-.038.205-.053.31a3.978 3.978 0 0 1-.113.48 3.548 3.548 0 0 1-.043.163c-.063.218-.152.431-.232.637-.084.207-.189.409-.28.602a7.458 7.458 0 0 1-.15.284c-.051.093-.108.185-.155.273-.099.177-.201.344-.3.5zm-.226 3.72a4.556 4.556 0 0 1-.125-.62 3.907 3.907 0 0 1 .004-.771 4.01 4.01 0 0 1 .08-.427c.081-.36.226-.68.36-.938.035-.064.069-.125.103-.182a4.975 4.975 0 0 1 .29-.414c.109-.137.18-.209.18-.209s.057.082.14.228c.043.072.089.161.143.262.057.1.116.213.174.337.24.499.49 1.152.578 1.9a4.15 4.15 0 0 1 .027.695c0 .045 0 .09-.002.134a5.126 5.126 0 0 1-.044.527c-.011.086-.019.168-.03.25-.023.161-.05.317-.08.462-.03.147-.054.277-.082.396a7.622 7.622 0 0 1-.077.31c-.046.174-.082.275-.082.275s-.087-.064-.228-.188a5.961 5.961 0 0 1-.248-.23 5.645 5.645 0 0 1-.44-.518c-.05-.069-.097-.143-.146-.218a6.08 6.08 0 0 1-.143-.238 2.521 2.521 0 0 1-.133-.257 4.93 4.93 0 0 1-.219-.565zm4.538 4.754a5.733 5.733 0 0 1 .074.746l.002.06s-.022-.006-.06-.02a4.907 4.907 0 0 1-.557-.251 5.362 5.362 0 0 1-.493-.326c-.059-.043-.114-.092-.17-.143a5.07 5.07 0 0 1-.336-.332 2.893 2.893 0 0 1-.152-.194 3.084 3.084 0 0 1-.27-.43 3.439 3.439 0 0 1-.217-.58 4.183 4.183 0 0 1-.063-.343 3.363 3.363 0 0 1-.031-.424c.002-.137.01-.265.024-.382a3.12 3.12 0 0 1 .11-.56c.04-.135.072-.21.072-.21s.067.045.172.133c.107.085.26.205.42.363l.06.06.065.062a4.473 4.473 0 0 1 .261.277c.043.05.085.103.13.155.089.105.174.219.253.343.038.063.08.122.119.187.038.064.075.13.11.2.034.07.065.14.095.21.032.069.06.138.087.207.053.14.094.282.132.42.04.135.072.269.098.4.027.129.045.259.065.372zm2.991 2.028a4.681 4.681 0 0 1 .248.6s-.07-.001-.19-.014a4.159 4.159 0 0 1-.215-.03c-.082-.014-.176-.029-.272-.059-.39-.107-.899-.318-1.286-.718a2.274 2.274 0 0 1-.446-.631 2.522 2.522 0 0 1-.214-.612c-.04-.186-.06-.34-.065-.453-.005-.113-.001-.179-.001-.179l.045.015.122.044c.106.036.253.092.417.172.042.02.083.043.128.064a3.251 3.251 0 0 1 .413.235c.045.032.094.062.141.095a2.51 2.51 0 0 1 .28.222l.134.128c.353.353.595.778.761 1.121zM31.236 6.87c-2.721-1.196-5.51-2.986-6.954-5.794 0 0 .15-.044.423-.094.068-.012.144-.025.228-.037.041-.006.085-.013.13-.018l.14-.011c.192-.012.414-.023.657-.016a8.48 8.48 0 0 1 .579.051c.068.008.138.017.206.032a8.618 8.618 0 0 1 .65.15 8.315 8.315 0 0 1 .674.247c.148.07.298.145.449.226.074.041.151.081.224.127a8.745 8.745 0 0 1 .434.3c.071.052.143.106.21.166.135.118.265.239.389.362.063.06.118.127.175.192a8.794 8.794 0 0 1 .319.394c.05.066.093.136.138.204.09.137.172.272.25.407.072.137.138.275.199.409.06.135.118.264.162.398a8.252 8.252 0 0 1 .174.566l.039.18c.024.116.044.228.061.334.018.106.033.205.04.302.016.192.022.358.024.494.004.134-.003.243-.01.317-.005.073-.01.112-.01.112zm.408-3.356a12.84 12.84 0 0 1-.065-.516c-.033-.29-.042-.462-.042-.462s.176.087.472.263c.074.044.156.094.244.15a11.085 11.085 0 0 1 .577.419l.08.063.078.067.161.14c.11.098.222.2.336.31.112.11.22.23.333.353l.167.19.084.098.08.102c.106.138.211.282.315.43.107.147.197.306.292.466.046.08.092.162.136.244l.067.124.06.128c.079.172.154.347.224.525.036.088.066.18.095.272.028.091.056.184.081.277a6.035 6.035 0 0 1 .212 1.347c.002.086.004.171.004.255-.001.168-.004.33-.017.488a7.186 7.186 0 0 1-.14.886 7.44 7.44 0 0 1-.224.745 6.273 6.273 0 0 1-.5 1.02 4.17 4.17 0 0 1-.247.353l-.06-.105-.067-.125c-.026-.05-.055-.106-.091-.17-.07-.125-.151-.278-.238-.453-.022-.043-.043-.09-.067-.135l-.074-.142a11.998 11.998 0 0 1-.229-.47l-.084-.167a10.333 10.333 0 0 1-.166-.355c-.052-.123-.116-.246-.172-.374-.058-.127-.111-.26-.169-.394a8.7 8.7 0 0 1-.171-.41c-.028-.07-.052-.142-.082-.213a8.31 8.31 0 0 1-.084-.214c-.056-.145-.103-.295-.155-.445a7.604 7.604 0 0 1-.15-.46c-.041-.159-.093-.31-.133-.466a7.614 7.614 0 0 1-.058-.231c-.018-.078-.036-.155-.056-.23a9.494 9.494 0 0 1-.103-.453c-.016-.074-.028-.151-.044-.224l-.046-.219a12.45 12.45 0 0 1-.08-.432c-.022-.144-.05-.278-.073-.415-.046-.27-.08-.534-.12-.77-.037-.24-.066-.465-.09-.665zm5.562 10.832c0 .155.004.311-.011.47a8.178 8.178 0 0 1-.09.713 8.167 8.167 0 0 1-.055.237c-.079.315-.17.613-.295.887-.121.275-.247.53-.398.76a6.99 6.99 0 0 1-.223.329c-.077.104-.148.203-.23.295a6.936 6.936 0 0 1-.463.491 4.627 4.627 0 0 1-.429.365 5.99 5.99 0 0 1-.586.393 1.415 1.415 0 0 1-.088.046s-.002-.036-.009-.104a9.803 9.803 0 0 1-.044-1.304c.007-.206 0-.43.01-.663a131.66 131.66 0 0 0 .019-.358 7.904 7.904 0 0 1 .04-.565l.01-.097.01-.098a7.196 7.196 0 0 1 .079-.599l.031-.204a6.7 6.7 0 0 1 .082-.413c.036-.14.063-.276.098-.41.035-.135.073-.267.115-.398.079-.26.16-.51.253-.753.172-.481.372-.925.54-1.304.087-.189.175-.363.25-.517.075-.153.143-.287.202-.397.117-.22.195-.345.195-.345s.085.14.216.392c.033.064.068.134.105.211.036.078.07.162.108.253.073.182.157.39.228.62.069.23.138.483.196.753.049.27.093.558.118.857.01.15.015.303.016.457zm-1.215 4.638s.014.125.02.345c.002.108.006.241-.001.393a8.462 8.462 0 0 1-.086.792 8.566 8.566 0 0 1-.146.62c-.03.107-.062.216-.104.325-.08.219-.173.44-.283.66a6.084 6.084 0 0 1-.395.638 5.12 5.12 0 0 1-.608.675 6.38 6.38 0 0 1-.394.315 5.945 5.945 0 0 1-.258.179c-.085.055-.175.103-.26.15-.17.092-.332.168-.484.232a4.908 4.908 0 0 1-.758.238c-.187.042-.295.054-.295.054s.028-.115.09-.305a8.07 8.07 0 0 1 .117-.335c.045-.13.095-.275.156-.428.03-.077.063-.157.099-.238.034-.082.066-.168.104-.254.037-.086.076-.174.119-.262.042-.089.089-.178.131-.27.088-.185.19-.37.303-.556a5.31 5.31 0 0 1 .362-.56 5.952 5.952 0 0 1 .52-.646 5.872 5.872 0 0 1 .32-.345 11.607 11.607 0 0 1 1.47-1.245c.161-.113.26-.172.26-.172zm-3.742 6.295c.25-.082.472-.136.62-.174.152-.038.242-.053.242-.053s-.026.097-.083.26a5.858 5.858 0 0 1-.349.746l-.06.1a6.301 6.301 0 0 1-.283.416 2.648 2.648 0 0 1-.168.212 5.64 5.64 0 0 1-.395.409 4.536 4.536 0 0 1-.722.52 4.118 4.118 0 0 1-.761.317 4.65 4.65 0 0 1-.478.107c-.152.025-.291.045-.426.05a4.288 4.288 0 0 1-.81-.038c-.04-.006-.062-.012-.062-.012l.038-.055a4.93 4.93 0 0 1 .285-.379l.112-.132.122-.149c.086-.102.181-.209.286-.317.054-.054.104-.112.16-.169a5.593 5.593 0 0 1 .358-.338c.064-.055.127-.114.194-.17.133-.112.28-.217.43-.32a4.266 4.266 0 0 1 .574-.34l.113-.06a6.95 6.95 0 0 1 .664-.288c.139-.055.273-.102.399-.143zm-3.68 3.454c.21.002.391.017.514.028.124.01.196.022.196.022l-.032.047c-.022.03-.053.075-.097.128-.088.105-.219.25-.388.412-.042.04-.086.083-.134.122a5.031 5.031 0 0 1-.497.362c-.061.04-.126.076-.194.11a4.383 4.383 0 0 1-.422.191 1.885 1.885 0 0 1-.227.075 3.233 3.233 0 0 1-2.09-.13c-.112-.046-.173-.08-.173-.08s.057-.05.16-.126c.052-.038.116-.084.189-.133.072-.05.157-.1.246-.16.361-.235.85-.498 1.41-.67.14-.043.284-.07.42-.1.137-.028.271-.048.402-.062.265-.024.506-.037.717-.036zm1.755-17.871a7.144 7.144 0 0 1-.147-.114c-.048-.038-.095-.078-.145-.115-.2-.152-.377-.32-.562-.49a3.531 3.531 0 0 1-.13-.13c-.042-.044-.082-.089-.125-.13a3.905 3.905 0 0 1-.233-.262l-.053-.067-.056-.064a3.798 3.798 0 0 1-.105-.13c-.068-.085-.126-.177-.192-.26a4.133 4.133 0 0 1-.177-.256c-.014-.022-.028-.043-.04-.065-.015-.02-.03-.04-.043-.061a5.214 5.214 0 0 1-.08-.123c-.053-.082-.1-.165-.146-.244a4.875 4.875 0 0 1-.137-.229l-.06-.111-.029-.055-.03-.052a5.83 5.83 0 0 1-.2-.38l-.08-.153a3.695 3.695 0 0 1-.142-.31s.133-.039.37-.079c.117-.02.261-.04.429-.053.164-.01.348-.012.554-.003.207.007.423.038.655.083.115.024.238.048.355.085a5.813 5.813 0 0 1 .55.198c.063.025.122.056.183.087.122.062.245.13.369.203.063.037.122.077.18.12.059.041.118.085.177.13.116.092.238.186.343.295.109.108.213.22.313.334.099.115.184.238.27.36l.122.183c.04.062.073.127.109.19.069.127.134.254.194.381.058.127.105.257.153.384.044.127.091.25.121.376.033.124.062.246.088.364l.037.174.024.17a8.274 8.274 0 0 1 .052.47c.003.048.003.096.005.142.004.184.001.344-.003.475a1.889 1.889 0 0 1-.013.177l-.015.13-.016.11s-.137-.067-.358-.193c-.11-.063-.25-.138-.4-.226-.151-.088-.313-.189-.49-.297-.18-.108-.37-.226-.558-.354a10.971 10.971 0 0 1-.59-.4c-.098-.07-.2-.141-.298-.215zm2.546 8.067a10.52 10.52 0 0 1-.387-.539c-.085-.127-.173-.268-.276-.424a9.735 9.735 0 0 1-.3-.5c-.047-.087-.104-.179-.155-.272a7.458 7.458 0 0 1-.15-.284c-.092-.194-.196-.395-.28-.602-.08-.206-.17-.419-.232-.638a3.547 3.547 0 0 1-.044-.163 4.105 4.105 0 0 1-.113-.48c-.014-.104-.039-.207-.052-.31a4.094 4.094 0 0 1-.034-.302 5.15 5.15 0 0 1-.036-.573 5.494 5.494 0 0 1-.004-.52c.004-.163.005-.312.016-.448l.015-.19a4.76 4.76 0 0 1 .01-.163c.017-.197.038-.316.038-.316s.119.04.314.128c.098.045.215.103.346.175a4.686 4.686 0 0 1 1.318 1.13c.139.182.279.384.398.604.057.111.112.226.163.346.05.12.101.243.136.371.038.128.07.258.098.387.013.065.027.129.036.194.009.064.016.129.023.193.012.129.021.257.026.383 0 .032.002.063.003.095l-.003.093a8.943 8.943 0 0 1-.04.545 1.82 1.82 0 0 1-.025.173l-.032.168a4.65 4.65 0 0 1-.16.614 8.253 8.253 0 0 1-.187.505 7.05 7.05 0 0 1-.32.612.886.886 0 0 1-.052.082l-.058-.074zm-2.39 2.751a14.172 14.172 0 0 1-.007-.273c-.003-.185.01-.37.032-.558.086-.748.338-1.4.577-1.899.058-.124.118-.237.174-.338.055-.1.1-.189.143-.261.083-.146.14-.228.14-.228s.072.072.18.208a4.344 4.344 0 0 1 .29.415 3.852 3.852 0 0 1 .52 1.4c.009.049.016.097.023.147a4.125 4.125 0 0 1 .005.772c-.028.212-.071.42-.126.62a4.93 4.93 0 0 1-.218.566 2.48 2.48 0 0 1-.133.257 6.399 6.399 0 0 1-.144.237c-.048.076-.096.15-.146.218a6.127 6.127 0 0 1-.439.52 6.237 6.237 0 0 1-.248.23c-.141.123-.229.187-.229.187s-.035-.102-.081-.275a7.622 7.622 0 0 1-.077-.31c-.028-.12-.051-.25-.083-.396a7.561 7.561 0 0 1-.079-.463c-.012-.082-.02-.163-.03-.249a5.79 5.79 0 0 1-.044-.527zm-.52 1.37s.031.076.07.21c.044.137.084.326.11.56.014.118.023.246.025.382a3.369 3.369 0 0 1-.07.651c-.007.039-.015.078-.024.116a3.221 3.221 0 0 1-.218.58 3.084 3.084 0 0 1-.269.43c-.05.067-.1.134-.153.194a4.467 4.467 0 0 1-.335.333c-.056.05-.112.1-.17.142a5.295 5.295 0 0 1-.493.326 6.57 6.57 0 0 1-.395.187 4.04 4.04 0 0 1-.163.065c-.037.014-.06.02-.06.02l.003-.06a6.182 6.182 0 0 1 .075-.746c.02-.114.038-.244.065-.373.026-.13.059-.265.098-.4.038-.138.08-.28.132-.42a3.09 3.09 0 0 1 .087-.206c.03-.07.06-.142.095-.21.034-.07.071-.136.11-.2.038-.065.081-.125.119-.188.078-.124.164-.238.252-.343.046-.051.088-.104.13-.155a3.508 3.508 0 0 1 .262-.277l.065-.061.06-.06c.16-.158.312-.279.42-.364.105-.087.172-.133.172-.133zm-4.628 5.915c-.098.03-.191.044-.273.059a3.754 3.754 0 0 1-.215.03c-.12.013-.19.014-.19.014s.02-.066.06-.174a4.67 4.67 0 0 1 .188-.426c.167-.344.408-.768.761-1.121l.135-.129a2.603 2.603 0 0 1 .28-.222c.047-.032.095-.062.14-.095a3.072 3.072 0 0 1 .414-.235c.044-.02.086-.044.127-.064.164-.08.311-.136.418-.172l.122-.044.044-.015s.004.066 0 .18a2.769 2.769 0 0 1-.066.452 2.54 2.54 0 0 1-.214.612 2.244 2.244 0 0 1-.446.631c-.387.4-.895.612-1.285.719z"/>
        </g>
    </g>
</svg>
