<svg xmlns="http://www.w3.org/2000/svg" width="43" height="64" viewBox="0 0 43 64">
    <g fill="none" fill-rule="evenodd">
        <path fill="#1F282C" fill-rule="nonzero" d="M42.791.44a1.072 1.072 0 0 0-.868-.44H27.948a1.07 1.07 0 0 0-1.03.766L22.44 15.904 17.142.717A1.077 1.077 0 0 0 16.125 0H1.075C.727 0 .402.166.2.448c-.202.28-.254.64-.14.966L9.494 28.56a1.078 1.078 0 0 0 1.622.535c3.599-2.427 7.93-3.592 12.224-3.44 3.326.125 6.597 1.034 9.501 2.715a1.091 1.091 0 0 0 .927.075c.305-.115.54-.36.638-.67l8.545-26.377a1.078 1.078 0 0 0-.16-.958z"/>
        <path fill="#FFF" d="M22.573 27.733c10.077 0 18.275 8.135 18.275 18.134S32.65 64 22.573 64C12.496 64 4.298 55.866 4.298 45.867c0-10 8.198-18.134 18.275-18.134zM23.65 54.4V37.333c0-.43-.262-.821-.664-.985a1.072 1.072 0 0 0-1.172.23l-4.3 4.267a1.062 1.062 0 0 0 0 1.508c.42.416 1.1.416 1.52 0l2.464-2.445V54.4c0 .589.481 1.067 1.075 1.067.593 0 1.075-.478 1.077-1.067z"/>
    </g>
</svg>
