<svg xmlns="http://www.w3.org/2000/svg" width="90" height="90" viewBox="0 0 90 90">
    <path fill="#1EB0CD" fill-rule="nonzero" d="M89.65 87.184L79.11 69.601c4.448-6.346 7.087-14.053 7.087-22.378 0-21.538-17.503-39.058-39.02-39.058-10.089 0-19.264 3.887-26.195 10.207l-1.676-1.677v-6.67c0-.495-.197-.967-.542-1.317l-7.432-7.44a1.86 1.86 0 0 0-3.174 1.318v5.58H2.584c-.75 0-1.43.453-1.717 1.149-.29.695-.13 1.491.401 2.027l7.433 7.44c.349.345.82.543 1.315.543h6.663l1.669 1.67L28.853 31.51l2.627 2.63 7.953 7.96 2.728 2.73 3.7 3.705 2.788 2.79c.305.305.453.695.502 1.097 2.1-.8 3.6-2.823 3.6-5.2a5.584 5.584 0 0 0-5.574-5.58c-.854 0-1.635.242-2.356.592l-2.716-2.72c1.464-.974 3.185-1.592 5.072-1.592 5.121 0 9.29 4.174 9.29 9.3s-4.169 9.3-9.29 9.3c-5.12 0-9.29-4.174-9.29-9.3 0-.44.07-.86.13-1.28l-8.673-8.682a20.31 20.31 0 0 0-2.605 9.962c0 11.282 9.167 20.458 20.438 20.458 11.271 0 20.44-9.176 20.44-20.458 0-11.282-9.169-20.459-20.44-20.459-4.968 0-9.505 1.804-13.05 4.765l-2.624-2.626c4.225-3.63 9.684-5.859 15.674-5.859 13.319 0 24.155 10.847 24.155 24.179 0 13.331-10.836 24.178-24.155 24.178-13.318 0-24.154-10.847-24.154-24.178 0-4.646 1.337-8.976 3.62-12.666l-10.674-10.68c-4.879 6.521-7.81 14.586-7.81 23.346 0 8.325 2.638 16.032 7.086 22.378L4.705 87.184a1.863 1.863 0 0 0 .636 2.552c.301.178.632.264.959.264a1.85 1.85 0 0 0 1.594-.904l9.807-16.36c7.161 8.277 17.707 13.544 29.476 13.544 11.77 0 22.316-5.267 29.477-13.543l9.807 16.36c.349.583.966.903 1.598.903.323 0 .654-.086.955-.264a1.864 1.864 0 0 0 .635-2.552z"/>
</svg>
