<svg xmlns="http://www.w3.org/2000/svg" width="64" height="64" viewBox="0 0 64 64">
    <g fill="none" fill-rule="evenodd">
        <path fill="#1F282C" fill-rule="nonzero" d="M58.357 33.032c-.66 0-1.101-.44-1.101-1.1 0-.661.44-1.102 1.101-1.102h5.505C63.202 14.094 49.77.66 33.032 0v7.708c0 .66-.44 1.1-1.1 1.1-.661 0-1.102-.44-1.102-1.1V0C14.094.66.66 14.094 0 30.83h5.505c.661 0 1.101.44 1.101 1.101 0 .66-.44 1.101-1.1 1.101H0c.66 16.737 14.094 30.17 30.83 30.83v-7.707c0-.66.44-1.101 1.101-1.101.66 0 1.101.44 1.101 1.1v7.708c16.737-.66 30.17-14.093 30.83-30.83h-5.505z"/>
        <text fill="#FFF" font-family="MuseoSansCyrl-700, Museo Sans Cyrl" font-size="20.645" font-weight="500">
            <tspan x="15.488" y="37.581">96</tspan> <tspan x="40.428" y="37.581" font-size="16.516">%</tspan>
        </text>
    </g>
</svg>
