<svg xmlns="http://www.w3.org/2000/svg" width="63" height="64" viewBox="0 0 63 64">
    <g fill="none" fill-rule="evenodd">
        <path fill="#1F282C" fill-rule="nonzero" d="M62.033 48.25c.534 0 .967-.504.967-1.125v-36c0-.621-.433-1.125-.967-1.125H5.967C5.433 10 5 10.504 5 11.125v36c0 .62.433 1.125.967 1.125H16.6v4.5h-2.9c-1.955 0-3.77 1.109-4.864 2.983l-3.677 6.525c-.292.52-.169 1.217.278 1.557.448.342 1.048.196 1.338-.324l3.667-6.51C11.167 55.74 12.385 55 13.7 55h40.85c1.314 0 2.53.742 3.23 1.937l3.428 6.525c.182.346.5.538.825.538a.855.855 0 0 0 .503-.165c.456-.324.6-1.017.32-1.548l-3.452-6.57c-1.087-1.858-2.902-2.967-4.857-2.967H51.4v-4.5h10.633zm-12.566 4.5H18.533v-4.5h30.934v4.5z"/>
        <rect width="57" height="38" x="2" y="2" fill="#FFF" rx="1.371"/>
        <rect width="57" height="38" fill="#1EB0CD" rx="1.371"/>
    </g>
</svg>
