<svg xmlns="http://www.w3.org/2000/svg" width="253" height="64" viewBox="0 0 253 64">
    <g fill="none" fill-rule="evenodd">
        <path fill="#1F282C" d="M87.163 17.601c3.727-.034 7.744 1.144 10.534 3.83l-2.45 3.907c-2.02-1.722-5.036-2.989-7.8-2.964-6.251.057-9.496 4.66-9.449 9.96.048 5.383 3.498 10.248 9.669 10.192 3.044-.028 6.077-1.553 8.22-3.718l2.76 3.74c-2.422 2.53-6.05 4.708-11.138 4.754-8.936.082-14.764-6.38-14.84-14.838-.074-8.336 5.92-14.785 14.494-14.863M108.95 43.182c2.846-.026 4.663-2.956 4.64-5.465l-.005-.567-.881.008c-2.565.024-6.889.427-6.863 3.341.013 1.376 1.066 2.702 3.11 2.683m3.681-9.544l.882-.008-.003-.283c-.023-2.711-1.755-3.626-3.879-3.607-2.003.018-4.04.887-5.672 2.035l-1.916-3.666c1.67-1.391 4.946-2.594 7.99-2.622 5.33-.049 8.523 2.917 8.569 8.137l.115 12.91-4.728.042-.016-1.74c-.007-.85.108-1.498.108-1.498h-.08c-1.224 2.197-3.654 3.757-6.419 3.782-3.686.034-6.753-2.367-6.786-6.13-.056-6.191 7.308-7.311 11.835-7.352M123.67 17.755l5.05-.046.192 21.527c.02 2.266.786 2.827 2.108 2.815.2-.003.481-.005.761-.048l.04 4.491c-.36.044-.92.13-1.602.137-2.804.025-6.297-.672-6.35-6.58l-.199-22.296zM135.25 17.65l5.05-.047.19 21.528c.02 2.266.788 2.826 2.11 2.814.2-.002.48-.004.761-.047l.04 4.491c-.36.044-.92.13-1.602.136-2.805.026-6.297-.671-6.35-6.579l-.199-22.297zM147.943 29.998l-2.645.024-.036-4.087 2.764-.025-.053-5.908 4.97-.045.052 5.908 4.648-.043.037 4.087-4.649.042.073 8.054c.03 3.399 2.68 3.86 4.082 3.847.28-.002.52-.004.92-.089l.04 4.492c-.4.044-.88.13-1.561.135-2.845.027-8.503-.772-8.565-7.692l-.077-8.7zM171.774 42.165c3.326-.03 6.068-2.645 6.033-6.49-.033-3.804-2.821-6.409-6.147-6.378-3.326.03-6.027 2.685-5.993 6.489.034 3.844 2.781 6.409 6.107 6.379m-.193-17.239c6.25-.056 11.3 4.39 11.355 10.702.057 6.354-4.912 10.85-11.123 10.907-6.21.056-11.258-4.35-11.315-10.702-.057-6.313 4.912-10.85 11.083-10.907M186.851 25.273l5.088-.046.11 12.22c.022 2.51.678 4.204 3.203 4.18 3.687-.033 5.7-3.33 5.668-7.012l-.085-9.469 5.05-.046.183 20.637-4.888.045-.022-2.428a8.727 8.727 0 0 1 .108-1.417h-.08c-.943 2.114-3.568 4.363-7.054 4.395-4.408.04-7.113-2.161-7.162-7.786l-.119-13.273zM221.226 24.475c2.765-.025 5.898.877 7.88 3.004l-2.252 3.54c-1.293-1.282-3.305-2.195-5.309-2.177-3.766.035-6.185 2.93-6.154 6.45.032 3.48 2.503 6.453 6.43 6.417 2.164-.02 4.477-1.174 5.987-2.685l1.995 3.624c-1.905 2.081-5.099 3.406-8.384 3.436-6.772.06-11.142-4.715-11.196-10.704-.052-5.868 4.231-10.844 11.003-10.905M233.258 16.757l5.09-.047.09 10.036a11.868 11.868 0 0 1-.105 1.741h.08c.984-1.992 3.529-4.201 7.055-4.233 4.527-.041 7.153 2.323 7.202 7.785l.118 13.273-5.088.047-.11-12.221c-.022-2.509-.678-4.203-3.243-4.18-3.566.033-5.864 2.968-5.829 6.893l.086 9.59-5.089.047-.257-28.731zM31.775 27.79L49.538 45.41c8.07-10.246 8.039-25.038-.475-35.395L31.775 27.79z"/>
        <path fill="#FFF" d="M20.428 47.997l7.269-7.34 7.268 7.34H20.428zm7.217-15.96l-22.95 23.6c13.773 11.127 33.224 10.738 46.454-.288L27.645 32.037z"/>
        <path fill="#1F282C" d="M45.121 6.103C34.118-2.757 18.044-1.955 7.97 8.406c-10.076 10.36-10.58 26.605-1.61 37.556L45.121 6.103z"/>
    </g>
</svg>
