<svg xmlns="http://www.w3.org/2000/svg" width="62" height="55" viewBox="0 0 62 55">
    <g fill="none" fill-rule="evenodd">
        <path fill="#1EB0CD" fill-rule="nonzero" d="M60.931 0H1.069C.428 0 0 .423 0 1.058c0 .634.428 1.057 1.069 1.057h1.069v37.02c0 .634.428 1.057 1.069 1.057H29.93v8.673c-1.283.423-2.138 1.693-2.138 2.962C27.793 53.519 29.29 55 31 55c1.71 0 3.207-1.48 3.207-3.173 0-1.48-.855-2.539-2.138-2.962v-8.673h26.724c.641 0 1.07-.423 1.07-1.057V2.115h1.068c.641 0 1.069-.423 1.069-1.057C62 .423 61.572 0 60.931 0zM10.69 30.673c0 .635-.428 1.058-1.07 1.058-.64 0-1.068-.423-1.068-1.058v-8.461c0-.635.427-1.058 1.069-1.058.641 0 1.069.423 1.069 1.058v8.461zm4.276 0c0 .635-.428 1.058-1.07 1.058-.64 0-1.068-.423-1.068-1.058V15.865c0-.634.427-1.057 1.069-1.057.64 0 1.069.423 1.069 1.057v14.808zm4.275 0c0 .635-.427 1.058-1.069 1.058-.641 0-1.069-.423-1.069-1.058V9.52c0-.634.428-1.057 1.07-1.057.64 0 1.068.423 1.068 1.057v21.154z"/>
        <path fill="#1F282C" d="M37.5 31C31.227 31 26 25.773 26 19.5S31.227 8 37.5 8c.627 0 1.045.418 1.045 1.045v9.41h9.41c.627 0 1.045.418 1.045 1.045C49 25.773 43.773 31 37.5 31z"/>
        <path fill="#1F282C" d="M52.917 17H42.083c-.65 0-1.083-.433-1.083-1.083V5.083C41 4.433 41.433 4 42.083 4 48.583 4 54 9.417 54 15.917c0 .65-.433 1.083-1.083 1.083z"/>
    </g>
</svg>
