<svg xmlns="http://www.w3.org/2000/svg" width="64" height="64" viewBox="0 0 64 64">
    <g fill="none" fill-rule="nonzero">
        <path fill="#1F282C" d="M62.933 57.6H6.4V1.067C6.4.427 5.973 0 5.333 0c-.64 0-1.066.427-1.066 1.067V57.6h-3.2C.427 57.6 0 58.027 0 58.667c0 .64.427 1.066 1.067 1.066h3.2v3.2c0 .64.426 1.067 1.066 1.067.64 0 1.067-.427 1.067-1.067v-3.2h56.533c.64 0 1.067-.426 1.067-1.066 0-.64-.427-1.067-1.067-1.067z"/>
        <path fill="#1EB0CD" d="M13.867 51.2H22.4c.64 0 1.067-.427 1.067-1.067v-25.6c0-.64-.427-1.066-1.067-1.066h-8.533c-.64 0-1.067.426-1.067 1.066v25.6c0 .64.427 1.067 1.067 1.067zM48 51.2h8.533c.64 0 1.067-.427 1.067-1.067V16c0-.64-.427-1.067-1.067-1.067H48c-.64 0-1.067.427-1.067 1.067v34.133c0 .64.427 1.067 1.067 1.067zM30.933 51.2h8.534c.64 0 1.066-.427 1.066-1.067V3.2c0-.64-.426-1.067-1.066-1.067h-8.534c-.64 0-1.066.427-1.066 1.067v46.933c0 .64.426 1.067 1.066 1.067z"/>
    </g>
</svg>
