<svg xmlns="http://www.w3.org/2000/svg" width="48" height="51" viewBox="0 0 48 51">
    <g fill="none" fill-rule="nonzero">
        <path fill="#1EB0CD" d="M31.714 4.663v5.48c6.562 2.93 11.143 9.47 11.143 17.057 0 10.311-8.459 18.7-18.857 18.7-8.615 0-15.893-5.76-18.139-13.6H.558C2.913 42.992 12.512 51 24 51c13.255 0 24-10.656 24-23.8 0-10.467-6.817-19.35-16.286-22.537zM24 35.7a8.575 8.575 0 0 1-6.84-3.4h-5.864c2.04 4.977 6.961 8.5 12.704 8.5 7.562 0 13.714-6.101 13.714-13.6 0-4.663-2.38-8.785-6-11.236v7.556a8.374 8.374 0 0 1 .857 3.68c0 4.687-3.845 8.5-8.571 8.5z"/>
        <path fill="#1F282C" d="M21.429 0v3.538C9.4 4.815 0 14.936 0 27.2h15.429c0-3.799 2.526-7.023 6-8.108V27.2A2.56 2.56 0 0 0 24 29.75a2.56 2.56 0 0 0 2.571-2.55V0H21.43z"/>
    </g>
</svg>
