<svg id="Layer_1" data-name="Layer 1" xmlns="http://www.w3.org/2000/svg" viewBox="0 0 960 320"><defs><style>.cls-1{fill:#3dafcc;}.cls-2{fill:#3d454d;}.cls-3{fill:#e0af22;}.cls-4{fill:#ca75ed;}.cls-5{fill:#1f282c;}.cls-6{fill:#d788f7;}.cls-7{fill:#f2c43f;}.cls-8{fill:#3cb0cb;}</style></defs><title>1Artboard 1</title><polygon class="cls-1" points="623 294.47 617 294.47 617 292.47 621 292.47 621 288.47 623 288.47 623 294.47"/><path class="cls-1" d="M606.65,294.47H596.3v-2h10.35Zm-20.7,0H575.6v-2H586Zm-20.69,0H554.91v-2h10.35Zm-20.7,0H534.21v-2h10.35Zm-20.7,0H513.51v-2h10.35Zm-20.7,0H492.81v-2h10.35Zm-20.7,0H472.12v-2h10.34Zm-20.69,0H451.42v-2h10.35Zm-20.7,0H430.72v-2h10.35Z"/><polygon class="cls-1" points="420.37 294.47 414.37 294.47 414.37 288.47 416.37 288.47 416.37 292.47 420.37 292.47 420.37 294.47"/><path class="cls-1" d="M416.37,278.32h-2V268.17h2Zm0-20.29h-2V247.88h2Zm0-20.3h-2V227.58h2Zm0-20.3h-2V207.28h2Zm0-20.29h-2V187h2Zm0-20.3h-2V166.69h2Zm0-20.3h-2V146.39h2Zm0-20.29h-2V126.1h2Zm0-20.3h-2V105.8h2Zm0-20.3h-2V85.5h2Zm0-20.3h-2V65.21h2Zm0-20.29h-2V44.91h2Z"/><polygon class="cls-1" points="416.37 34.76 414.37 34.76 414.37 28.76 420.37 28.76 420.37 30.76 416.37 30.76 416.37 34.76"/><path class="cls-1" d="M606.65,30.76H596.3v-2h10.35Zm-20.7,0H575.6v-2H586Zm-20.7,0H554.91v-2h10.34Zm-20.69,0H534.21v-2h10.35Zm-20.7,0H513.51v-2h10.35Zm-20.7,0H492.81v-2h10.35Zm-20.7,0H472.11v-2h10.35Zm-20.69,0H451.42v-2h10.35Zm-20.7,0H430.72v-2h10.35Z"/><polygon class="cls-1" points="623 34.76 621 34.76 621 30.76 617 30.76 617 28.76 623 28.76 623 34.76"/><path class="cls-1" d="M623,278.32h-2V268.17h2ZM623,258h-2V247.88h2Zm0-20.3h-2V227.58h2Zm0-20.3h-2V207.28h2Zm0-20.29h-2V187h2Zm0-20.3h-2V166.69h2Zm0-20.3h-2V146.39h2Zm0-20.29h-2V126.1h2Zm0-20.3h-2V105.8h2Zm0-20.3h-2V85.5h2Zm0-20.29h-2V65.21h2Zm0-20.3h-2V44.91h2Z"/><polygon class="cls-2" points="670.07 169.73 668.64 168.34 675.17 161.62 668.64 154.9 670.07 153.5 677.96 161.62 670.07 169.73"/><rect class="cls-2" x="640.5" y="160.94" width="35.75" height="2"/><polygon class="cls-2" points="662.34 114.03 662.31 112.03 671.68 111.89 671.82 102.52 673.82 102.55 673.66 113.87 662.34 114.03"/><rect class="cls-2" x="655.29" y="74.43" width="2" height="45.06" transform="translate(123.66 492.46) rotate(-45)"/><polygon class="cls-2" points="671.82 220.71 671.68 211.34 662.31 211.21 662.34 209.21 673.66 209.37 673.82 220.69 671.82 220.71"/><rect class="cls-2" x="633.76" y="225.28" width="45.06" height="2" transform="translate(32.22 530.34) rotate(-45)"/><circle class="cls-2" cx="48.54" cy="45.59" r="11.68"/><path class="cls-2" d="M68.66,66.66a12.62,12.62,0,0,0-4.5-5.27,15.14,15.14,0,0,0-6.64-2.59,2.47,2.47,0,0,0-1.08.07,2.55,2.55,0,0,0-.72.43,11.4,11.4,0,0,1-7.18,2.21,11.36,11.36,0,0,1-7.17-2.21,2.06,2.06,0,0,0-1.81-.5,15.06,15.06,0,0,0-6.63,2.59,12.54,12.54,0,0,0-4.5,5.27c-.26.56-.35.65-.35,1a1.4,1.4,0,0,0,.33.87,23.8,23.8,0,0,0,40.26,0,1.34,1.34,0,0,0,.33-.87C69,67.31,68.91,67.22,68.66,66.66Z"/><polygon class="cls-2" points="131.09 64.89 129.65 63.5 136.19 56.78 129.65 50.06 131.09 48.66 138.98 56.78 131.09 64.89"/><rect class="cls-2" x="101.52" y="56.1" width="35.75" height="2"/><polygon class="cls-2" points="389.4 64.89 387.96 63.5 394.5 56.78 387.96 50.06 389.4 48.66 397.29 56.78 389.4 64.89"/><rect class="cls-2" x="359.83" y="56.1" width="35.75" height="2"/><path class="cls-2" d="M430.87,57.89h4.36v-4.8h1.6v4.8h4.35v1.52h-4.35v4.8h-1.6v-4.8h-4.36Z"/><path class="cls-2" d="M447.43,53.38a8,8,0,0,1,.78-1.26v0a7.72,7.72,0,0,1-1,0h-6.17V50.44h9.21v1.33l-6.2,12.44h-2Z"/><path class="cls-2" d="M456.65,57.58a14.39,14.39,0,0,1,2.26-7.71h1.66a15,15,0,0,0-2.2,7.73,17.53,17.53,0,0,0,2.2,8.46h-1.66A16.74,16.74,0,0,1,456.65,57.58Z"/><path class="cls-2" d="M461.17,59.31l6.38-8.87h2.18V58.9h1.87v1.62h-1.87v3.69h-1.89V60.52h-6.67Zm6.67-.41v-5c0-.64.08-1.38.08-1.38h0a7.62,7.62,0,0,1-.68,1.15l-3.9,5.22v0Z"/><path class="cls-2" d="M474.31,62.2a4.8,4.8,0,0,0,2,.47c2.53,0,3.84-2.34,4.13-4.63h0a3.91,3.91,0,0,1-3,1.29A4.28,4.28,0,0,1,473,54.81a4.34,4.34,0,0,1,4.43-4.6c2.94,0,5.15,2.55,5.15,6.49,0,3.53-1.93,7.74-6.2,7.74a6.33,6.33,0,0,1-2.68-.56Zm6.24-6.42c0-1.79-1.37-3.8-3.12-3.8a2.54,2.54,0,0,0-2.52,2.83,2.7,2.7,0,0,0,2.81,2.9C479.28,57.71,480.55,56.76,480.55,55.78Z"/><path class="cls-2" d="M485.51,61.13a3.89,3.89,0,0,0,3,1.48,2.84,2.84,0,0,0,3-2.79A2.9,2.9,0,0,0,488.42,57a4.34,4.34,0,0,0-2.32.68L485,57.26l.68-6.82h7v1.68h-5.28L487,55a3.59,3.59,0,0,1-.11.7h0a4.68,4.68,0,0,1,1.79-.41,4.5,4.5,0,0,1,4.8,4.51,4.66,4.66,0,0,1-4.88,4.62,5.47,5.47,0,0,1-4.23-1.91Z"/><path class="cls-2" d="M496.87,57.6a15,15,0,0,0-2.2-7.73h1.65a14.31,14.31,0,0,1,2.27,7.71,16.65,16.65,0,0,1-2.27,8.48h-1.65A17.53,17.53,0,0,0,496.87,57.6Z"/><path class="cls-2" d="M505.6,62.53h3V53.64c0-.43,0-.84,0-.84h0a3.83,3.83,0,0,1-.66.8l-1.29,1.25-1.17-1.21,3.3-3.2h1.72V62.53h3v1.68H505.6Z"/><path class="cls-2" d="M515.25,63.15c0-4.89,6.77-5.61,6.77-8.85a2.29,2.29,0,0,0-2.5-2.28,3.39,3.39,0,0,0-2.79,1.75l-1.42-1a4.94,4.94,0,0,1,4.37-2.61c2.51,0,4.33,1.57,4.33,3.95,0,4.53-6.57,5.23-6.65,8.37h6.86v1.68h-8.87A6.75,6.75,0,0,1,515.25,63.15Z"/><path class="cls-2" d="M527.15,61.11a4.77,4.77,0,0,0,3.33,1.5,2.64,2.64,0,0,0,2.81-2.52c0-1.69-1.5-2.53-3.22-2.53h-.93l-.45-1,3-3.53a6.41,6.41,0,0,1,.86-.89v0a9,9,0,0,1-1.17.06h-4.66V50.44H535v1.23L531.21,56c1.81.17,4,1.34,4,4a4.46,4.46,0,0,1-4.68,4.41,6.29,6.29,0,0,1-4.46-1.87Z"/><path class="cls-2" d="M537.67,57.81h5.7v1.68h-5.7Z"/><path class="cls-2" d="M545.5,59.31l6.38-8.87h2.18V58.9h1.88v1.62h-1.88v3.69h-1.89V60.52H545.5Zm6.67-.41v-5c0-.64.08-1.38.08-1.38h0a7.62,7.62,0,0,1-.68,1.15l-3.9,5.22v0Z"/><path class="cls-2" d="M558.42,61.13a3.87,3.87,0,0,0,3,1.48,2.84,2.84,0,0,0,3-2.79A2.89,2.89,0,0,0,561.32,57a4.37,4.37,0,0,0-2.32.68l-1.13-.41.68-6.82h7v1.68h-5.28l-.31,2.9a4,4,0,0,1-.12.7h0a4.68,4.68,0,0,1,1.79-.41,4.5,4.5,0,0,1,4.8,4.51,4.65,4.65,0,0,1-4.87,4.62,5.49,5.49,0,0,1-4.24-1.91Z"/><path class="cls-2" d="M568.88,57.81h5.69v1.68h-5.69Z"/><path class="cls-3" d="M579.43,57.16,575.1,50h3.95l1.55,2.92c.48.89.88,1.83.88,1.83h0a19.2,19.2,0,0,1,.87-1.83L584,50h3.95l-4.35,7.15,4.33,7H584l-1.63-3a19.64,19.64,0,0,1-.87-1.77h0s-.38.88-.88,1.77l-1.63,3h-3.85Z"/><path class="cls-3" d="M592.51,57.16,588.18,50h4l1.55,2.92c.48.89.88,1.83.88,1.83h0s.38-.92.88-1.83L597,50h4l-4.35,7.15,4.33,7H597.1l-1.63-3c-.5-.89-.88-1.77-.88-1.77h0s-.38.88-.88,1.77l-1.63,3H588.2Z"/><circle class="cls-2" cx="48.54" cy="149.89" r="11.68"/><path class="cls-2" d="M68.66,171a12.63,12.63,0,0,0-4.5-5.28,15.22,15.22,0,0,0-6.64-2.58,2,2,0,0,0-1.8.5,11.4,11.4,0,0,1-7.18,2.21,11.36,11.36,0,0,1-7.17-2.21,2.34,2.34,0,0,0-.72-.43,2.38,2.38,0,0,0-1.09-.07,15.15,15.15,0,0,0-6.63,2.58,12.56,12.56,0,0,0-4.5,5.28c-.26.56-.35.65-.35,1a1.46,1.46,0,0,0,.33.88,23.8,23.8,0,0,0,40.26,0A1.4,1.4,0,0,0,69,172C69,171.61,68.91,171.52,68.66,171Z"/><polygon class="cls-2" points="131.09 169.19 129.65 167.8 136.19 161.08 129.65 154.35 131.09 152.96 138.98 161.08 131.09 169.19"/><rect class="cls-2" x="101.52" y="160.4" width="35.75" height="2"/><polygon class="cls-2" points="389.4 169.19 387.96 167.8 394.5 161.08 387.96 154.35 389.4 152.96 397.29 161.08 389.4 169.19"/><rect class="cls-2" x="359.83" y="160.4" width="35.75" height="2"/><path class="cls-2" d="M430.88,162.19h4.37v-4.8h1.6v4.8h4.35v1.52h-4.35v4.79h-1.6v-4.79h-4.37Z"/><path class="cls-2" d="M447.45,157.68a8.53,8.53,0,0,1,.78-1.27v0s-.28,0-1,0h-6.16v-1.67h9.2v1.32l-6.2,12.44h-2Z"/><path class="cls-2" d="M456.67,161.87a14.38,14.38,0,0,1,2.26-7.7h1.66a14.83,14.83,0,0,0-2.21,7.72,17.44,17.44,0,0,0,2.21,8.47h-1.66A16.68,16.68,0,0,1,456.67,161.87Z"/><path class="cls-2" d="M461.19,163.61l6.37-8.87h2.19v8.46h1.87v1.62h-1.87v3.68h-1.89v-3.68h-6.67Zm6.67-.41v-5c0-.64.07-1.39.07-1.39h0a7.48,7.48,0,0,1-.68,1.16l-3.9,5.22v0Z"/><path class="cls-2" d="M474.32,166.5a4.81,4.81,0,0,0,2,.46c2.54,0,3.85-2.34,4.14-4.62h0a3.92,3.92,0,0,1-3,1.29A4.28,4.28,0,0,1,473,159.1a4.33,4.33,0,0,1,4.42-4.6c2.95,0,5.15,2.56,5.15,6.5,0,3.53-1.93,7.74-6.2,7.74a6.15,6.15,0,0,1-2.67-.57Zm6.24-6.42c0-1.79-1.36-3.8-3.12-3.8a2.54,2.54,0,0,0-2.51,2.82,2.7,2.7,0,0,0,2.81,2.91C479.3,162,480.56,161.05,480.56,160.08Z"/><path class="cls-2" d="M485.53,165.42a3.89,3.89,0,0,0,3,1.49,2.85,2.85,0,0,0,3-2.79,2.9,2.9,0,0,0-3.12-2.83,4.34,4.34,0,0,0-2.32.68l-1.14-.41.69-6.82h7v1.67h-5.29l-.31,2.91a4,4,0,0,1-.12.7h0a4.74,4.74,0,0,1,1.8-.41,4.5,4.5,0,0,1,4.79,4.51,4.65,4.65,0,0,1-4.87,4.62,5.45,5.45,0,0,1-4.23-1.91Z"/><path class="cls-2" d="M496.89,161.89a14.83,14.83,0,0,0-2.21-7.72h1.66a14.38,14.38,0,0,1,2.26,7.7,16.78,16.78,0,0,1-2.26,8.49h-1.66A17.55,17.55,0,0,0,496.89,161.89Z"/><path class="cls-2" d="M505.62,166.83h3v-8.89c0-.43,0-.84,0-.84h0a3.83,3.83,0,0,1-.66.8l-1.29,1.24-1.17-1.2,3.3-3.2h1.71v12.09h3v1.67h-7.93Z"/><path class="cls-2" d="M515.27,167.45c0-4.89,6.77-5.62,6.77-8.85a2.3,2.3,0,0,0-2.5-2.28,3.39,3.39,0,0,0-2.79,1.75l-1.42-.95a4.93,4.93,0,0,1,4.37-2.62c2.51,0,4.32,1.58,4.32,4,0,4.53-6.57,5.23-6.64,8.37h6.86v1.67h-8.87A6.63,6.63,0,0,1,515.27,167.45Z"/><path class="cls-2" d="M527.17,165.4a4.76,4.76,0,0,0,3.33,1.51,2.64,2.64,0,0,0,2.81-2.52c0-1.7-1.5-2.54-3.22-2.54h-.93l-.45-1,3-3.53a6.9,6.9,0,0,1,.86-.9v0a10.77,10.77,0,0,1-1.17,0h-4.66v-1.67H535V156l-3.75,4.32c1.82.18,4,1.35,4,4a4.46,4.46,0,0,1-4.68,4.41,6.31,6.31,0,0,1-4.47-1.87Z"/><path class="cls-2" d="M537.69,162.11h5.69v1.68h-5.69Z"/><path class="cls-2" d="M545.52,163.61l6.38-8.87h2.18v8.46H556v1.62h-1.87v3.68h-1.89v-3.68h-6.67Zm6.67-.41v-5c0-.64.08-1.39.08-1.39h0a7.48,7.48,0,0,1-.68,1.16l-3.9,5.22v0Z"/><path class="cls-2" d="M558.43,165.42a3.9,3.9,0,0,0,3,1.49,2.85,2.85,0,0,0,3-2.79,2.9,2.9,0,0,0-3.12-2.83A4.34,4.34,0,0,0,559,162l-1.13-.41.68-6.82h7v1.67h-5.28l-.32,2.91a3.59,3.59,0,0,1-.11.7h0a4.68,4.68,0,0,1,1.79-.41,4.5,4.5,0,0,1,4.8,4.51,4.66,4.66,0,0,1-4.88,4.62,5.47,5.47,0,0,1-4.23-1.91Z"/><path class="cls-2" d="M568.89,162.11h5.7v1.68h-5.7Z"/><path class="cls-4" d="M578.91,162.79l-4.6-8.23h3.88l1.58,3.36c.45,1,.84,2,.84,2h0s.39-1,.84-2l1.56-3.36h3.88l-4.6,8.23v5.71h-3.42Z"/><path class="cls-4" d="M592,162.79l-4.6-8.23h3.88l1.58,3.36c.45,1,.84,2,.84,2h0s.39-1,.83-2l1.56-3.36H600l-4.6,8.23v5.71H592Z"/><circle class="cls-2" cx="48.54" cy="254.19" r="11.68"/><path class="cls-2" d="M68.66,275.25a12.62,12.62,0,0,0-4.5-5.27,15.22,15.22,0,0,0-6.64-2.58,2.19,2.19,0,0,0-1.08.07,2.16,2.16,0,0,0-.72.43,11.46,11.46,0,0,1-7.18,2.21,11.42,11.42,0,0,1-7.17-2.21,2.16,2.16,0,0,0-.72-.43,2.25,2.25,0,0,0-1.09-.07A15.15,15.15,0,0,0,32.93,270a12.54,12.54,0,0,0-4.5,5.27c-.26.56-.35.65-.35,1a1.46,1.46,0,0,0,.33.88,23.8,23.8,0,0,0,40.26,0,1.4,1.4,0,0,0,.33-.88C69,275.9,68.91,275.81,68.66,275.25Z"/><polygon class="cls-2" points="131.09 273.49 129.65 272.1 136.19 265.37 129.65 258.65 131.09 257.26 138.98 265.37 131.09 273.49"/><rect class="cls-2" x="101.52" y="264.7" width="35.75" height="2"/><polygon class="cls-2" points="389.4 273.49 387.96 272.1 394.5 265.37 387.96 258.65 389.4 257.26 397.29 265.37 389.4 273.49"/><rect class="cls-2" x="359.83" y="264.7" width="35.75" height="2"/><path class="cls-2" d="M430.85,266.48h4.37v-4.79h1.6v4.79h4.34V268h-4.34v4.8h-1.6V268h-4.37Z"/><path class="cls-2" d="M447.41,262a8.53,8.53,0,0,1,.78-1.27v0a7.72,7.72,0,0,1-1,0h-6.16V259h9.2v1.33l-6.2,12.44h-2Z"/><path class="cls-2" d="M456.63,266.17a14.36,14.36,0,0,1,2.26-7.7h1.66a14.92,14.92,0,0,0-2.2,7.72,17.5,17.5,0,0,0,2.2,8.46h-1.66A16.74,16.74,0,0,1,456.63,266.17Z"/><path class="cls-2" d="M461.15,267.91l6.38-8.88h2.18v8.47h1.87v1.62h-1.87v3.68h-1.89v-3.68h-6.67Zm6.67-.41v-5c0-.65.08-1.39.08-1.39h0a7.62,7.62,0,0,1-.68,1.15l-3.9,5.23v0Z"/><path class="cls-2" d="M474.29,270.79a4.65,4.65,0,0,0,2,.47c2.53,0,3.84-2.34,4.13-4.62h0a3.94,3.94,0,0,1-3.05,1.29A4.28,4.28,0,0,1,473,263.4a4.34,4.34,0,0,1,4.43-4.6c2.95,0,5.15,2.55,5.15,6.49,0,3.53-1.93,7.75-6.2,7.75a6.12,6.12,0,0,1-2.67-.57Zm6.24-6.41c0-1.8-1.36-3.81-3.12-3.81a2.54,2.54,0,0,0-2.52,2.83,2.7,2.7,0,0,0,2.81,2.91C479.26,266.31,480.53,265.35,480.53,264.38Z"/><path class="cls-2" d="M485.5,269.72a3.85,3.85,0,0,0,3,1.48,2.84,2.84,0,0,0,3-2.79,2.89,2.89,0,0,0-3.12-2.82,4.34,4.34,0,0,0-2.32.68l-1.13-.41.68-6.83h7v1.68h-5.28l-.31,2.91a4,4,0,0,1-.12.7h0a4.67,4.67,0,0,1,6.59,4.09,4.66,4.66,0,0,1-4.87,4.63,5.5,5.5,0,0,1-4.24-1.92Z"/><path class="cls-2" d="M496.85,266.19a14.92,14.92,0,0,0-2.2-7.72h1.66a14.36,14.36,0,0,1,2.26,7.7,16.74,16.74,0,0,1-2.26,8.48h-1.66A17.5,17.5,0,0,0,496.85,266.19Z"/><path class="cls-2" d="M505.58,271.12h3.05v-8.89c0-.43,0-.84,0-.84h0a3.86,3.86,0,0,1-.67.8l-1.28,1.25-1.17-1.21,3.29-3.2h1.72v12.09h3v1.68h-7.94Z"/><path class="cls-2" d="M515.23,271.75c0-4.9,6.77-5.62,6.77-8.85a2.3,2.3,0,0,0-2.5-2.29,3.35,3.35,0,0,0-2.78,1.76l-1.43-1a4.94,4.94,0,0,1,4.37-2.61c2.52,0,4.33,1.58,4.33,4,0,4.52-6.57,5.22-6.65,8.36h6.87v1.68h-8.88A6.63,6.63,0,0,1,515.23,271.75Z"/><path class="cls-2" d="M527.13,269.7a4.77,4.77,0,0,0,3.34,1.5,2.62,2.62,0,0,0,2.8-2.51c0-1.7-1.5-2.54-3.21-2.54h-.94l-.45-1,3-3.53a5.86,5.86,0,0,1,.85-.9v0a9,9,0,0,1-1.17.06H526.7V259h8.23v1.23l-3.74,4.33c1.81.18,4,1.35,4,4a4.46,4.46,0,0,1-4.68,4.41,6.31,6.31,0,0,1-4.46-1.88Z"/><path class="cls-2" d="M537.66,266.41h5.69v1.67h-5.69Z"/><path class="cls-2" d="M545.49,267.91l6.37-8.88h2.19v8.47h1.87v1.62h-1.87v3.68h-1.89v-3.68h-6.67Zm6.67-.41v-5c0-.65.07-1.39.07-1.39h0a7.62,7.62,0,0,1-.68,1.15l-3.9,5.23v0Z"/><path class="cls-2" d="M558.4,269.72a3.87,3.87,0,0,0,3,1.48,2.84,2.84,0,0,0,3-2.79,2.89,2.89,0,0,0-3.12-2.82,4.37,4.37,0,0,0-2.32.68l-1.13-.41.69-6.83h7v1.68h-5.29l-.31,2.91a4,4,0,0,1-.12.7h0a4.68,4.68,0,0,1,6.59,4.09,4.65,4.65,0,0,1-4.87,4.63,5.46,5.46,0,0,1-4.23-1.92Z"/><path class="cls-2" d="M568.86,266.41h5.69v1.67h-5.69Z"/><path class="cls-2" d="M575.86,270.66l5.38-7.63a8.16,8.16,0,0,1,1.07-1.27v0a8.76,8.76,0,0,1-1.07.06h-5.13v-2.92h10.53V261l-5.4,7.67a7.53,7.53,0,0,1-1.07,1.27v0s.45-.05,1.07-.05h5.5v2.92H575.86Z"/><path class="cls-2" d="M588.19,270.66l5.38-7.63a7.81,7.81,0,0,1,1.08-1.27v0a9,9,0,0,1-1.08.06h-5.12v-2.92H599V261l-5.41,7.67a7.53,7.53,0,0,1-1.07,1.27v0s.45-.05,1.07-.05h5.5v2.92H588.19Z"/><path class="cls-5" d="M172.37,142c.28-.45.42-.65.42-.65v0a4,4,0,0,1-2.66-4,3.8,3.8,0,0,1,2.2-3.69,6.22,6.22,0,0,1,2.62-.38h4.33v14h-2v-5.58h-2.58l-3.29,5.58h-2.21Zm4.94-2V134.9h-2.22a3.73,3.73,0,0,0-1.83.32,2.6,2.6,0,0,0,1.35,4.74Z"/><path class="cls-5" d="M182.49,137.16h1.93v4.09h5.08v-4.09h1.92v10.05H189.5V142.9h-5.08v4.31h-1.93Z"/><path class="cls-5" d="M194.38,145.62c1.41-1.93,1.57-5.06,1.57-6.61v-1.85h6.79v8.46h1.43v4H202.4v-2.38H195v2.38h-1.81v-4Zm6.43,0v-6.89h-3v.54c0,1.5-.16,4.36-1.43,6.35Z"/><path class="cls-5" d="M210.46,136.92c2.83,0,4.34,2.13,4.34,4.71a5.84,5.84,0,0,1-.08.81h-7.3a3.32,3.32,0,0,0,3.45,3.34,4.51,4.51,0,0,0,3-1.18l.81,1.41a6,6,0,0,1-3.89,1.43,5.13,5.13,0,0,1-5.34-5.26A5,5,0,0,1,210.46,136.92Zm2.4,4.13a2.44,2.44,0,0,0-2.44-2.64,2.92,2.92,0,0,0-2.94,2.64Z"/><path class="cls-5" d="M217.12,137.16h1.93v4.05h1.41l2.74-4.05h2.18L222,141.94v0l3.75,5.23H223.5l-3-4.35h-1.45v4.35h-1.93Z"/><path class="cls-5" d="M231.79,136.92a5.26,5.26,0,0,1,3.77,1.47l-.91,1.35a4.09,4.09,0,0,0-2.78-1.15,3.43,3.43,0,0,0-3.49,3.57,3.48,3.48,0,0,0,3.55,3.62,4.52,4.52,0,0,0,3.1-1.35l.77,1.41a5.63,5.63,0,0,1-4,1.6,5.26,5.26,0,1,1,0-10.52Z"/><path class="cls-5" d="M242.88,145.5c2-2.74,2.21-6.37,2.21-9.43v-2.88h8.2V145.5h1.55V150h-1.77v-2.77H243.3V150h-1.82V145.5Zm8.44,0V134.9h-4.39v1.29c0,3.08-.33,6.79-2,9.31Z"/><path class="cls-5" d="M257,137.16h1.84v6c0,.53,0,1.25-.06,1.35h0a15.33,15.33,0,0,1,.9-1.35l4.32-6h1.87v10.05H264v-6c0-.48.06-1.17.06-1.33h0a15.25,15.25,0,0,1-.87,1.33l-4.35,6H257Z"/><path class="cls-5" d="M268.84,137.16h1.79v.89a4.88,4.88,0,0,1-.06.76h0a3.69,3.69,0,0,1,3.38-1.89c2.72,0,4.4,2.15,4.4,5.26s-1.9,5.26-4.54,5.26a3.69,3.69,0,0,1-3.12-1.7h0a4.3,4.3,0,0,1,.08.87v4.57h-1.93Zm4.71,8.62c1.59,0,2.9-1.29,2.9-3.58s-1.17-3.59-2.84-3.59c-1.51,0-2.9,1.07-2.9,3.61C270.71,144,271.7,145.78,273.55,145.78Z"/><path class="cls-5" d="M285.16,136.92c2.84,0,4.35,2.13,4.35,4.71a5.84,5.84,0,0,1-.08.81h-7.31a3.32,3.32,0,0,0,3.46,3.34,4.5,4.5,0,0,0,2.95-1.18l.82,1.41a6,6,0,0,1-3.89,1.43,5.13,5.13,0,0,1-5.34-5.26A4.94,4.94,0,0,1,285.16,136.92Zm2.4,4.13a2.44,2.44,0,0,0-2.44-2.64,2.92,2.92,0,0,0-2.94,2.64Z"/><path class="cls-5" d="M291.83,137.16h1.92v4.05h1.41l2.74-4.05h2.18l-3.35,4.78v0l3.75,5.23H298.2l-3-4.35h-1.45v4.35h-1.92Z"/><path class="cls-5" d="M304.61,138.81h-3.5v-1.65H310v1.65h-3.52v8.4h-1.9Z"/><rect class="cls-6" x="168.78" y="157.77" width="154.98" height="31.19"/><path class="cls-5" d="M192.78,165.22a7.12,7.12,0,0,1,7.28,7.19,7.29,7.29,0,1,1-14.57,0A7.13,7.13,0,0,1,192.78,165.22Zm0,12.23a4.79,4.79,0,0,0,4.64-5,4.65,4.65,0,1,0-9.29,0A4.8,4.8,0,0,0,192.78,177.45Z"/><path class="cls-5" d="M206.83,166.23l3.49-1.37.75,2-3.85,1.47c-1.72.71-2.86,1.64-3,3.39h0a4.15,4.15,0,0,1,3.34-1.47c2.6,0,4.33,1.85,4.33,4.65a4.68,4.68,0,0,1-5,4.84c-3.51,0-5.16-2.56-5.16-6.15C201.84,169.83,203.13,167.66,206.83,166.23Zm.08,11.48a2.74,2.74,0,0,0,0-5.46A2.56,2.56,0,0,0,204.4,175,2.52,2.52,0,0,0,206.91,177.71Z"/><path class="cls-5" d="M215.38,171.57h-2.66v-2.14h5.18v3.47h1.89c2.38,0,3.79,1.15,3.79,3.36,0,2-1.15,3.29-3.81,3.29h-4.39Zm4,6.26a1.51,1.51,0,0,0,1.71-1.59,1.54,1.54,0,0,0-1.73-1.63H217.9v3.22Z"/><path class="cls-5" d="M226.65,176.32a4.79,4.79,0,0,1,.46-.62v0a3.15,3.15,0,0,1-2.05-3c0-2.09,1.45-3.28,3.64-3.28h4.54v10.12h-2.52v-3.43h-1.31l-2.26,3.43h-2.72Zm4.07-1.95v-3.29h-1.31c-1.09,0-1.83.45-1.83,1.6a1.61,1.61,0,0,0,1.81,1.69Z"/><path class="cls-5" d="M235.94,169.43h4.7c2.05,0,3.42.91,3.42,2.62a2.43,2.43,0,0,1-1.33,2.22v0a2.32,2.32,0,0,1,1.78,2.33c0,2-1.64,2.93-3.77,2.93h-4.8Zm4.17,4.17a1.26,1.26,0,0,0,1.41-1.33c0-.74-.46-1.19-1.45-1.19h-1.61v2.52Zm.2,4.29c1.13,0,1.66-.58,1.66-1.35s-.57-1.37-1.66-1.37h-1.85v2.72Z"/><path class="cls-5" d="M245.66,177.43c1.25-.18,2.13-1.23,2.13-4.82v-3.18h7.38v10.12h-2.52v-8.08h-2.46v1.14c0,4.4-1.17,6.94-4.53,7Z"/><path class="cls-5" d="M262.42,169.19c2.89,0,4.48,2.13,4.48,4.81a8.09,8.09,0,0,1-.08,1h-7a2.88,2.88,0,0,0,3,2.68,4.82,4.82,0,0,0,2.9-1.11l1,1.8a6.36,6.36,0,0,1-4.07,1.45,5.21,5.21,0,0,1-5.46-5.3A5,5,0,0,1,262.42,169.19Zm2,4.05a2,2,0,0,0-2-2.14,2.43,2.43,0,0,0-2.45,2.14Z"/><path class="cls-5" d="M269,169.43h2.52v3.91h4.33v-3.91h2.52v10.12h-2.52v-4.09h-4.33v4.09H269Z"/><path class="cls-5" d="M281.07,169.43h2.4v5.42c0,.46,0,1.05-.06,1.21h0c.12-.26.5-.81.76-1.21l3.75-5.42h2.44v10.12H288v-5.4c0-.37,0-1,.06-1.21h0a11.26,11.26,0,0,1-.76,1.21l-3.75,5.4h-2.44Z"/><path class="cls-5" d="M297.64,169.19c2.9,0,4.49,2.13,4.49,4.81a8.09,8.09,0,0,1-.08,1h-7a2.88,2.88,0,0,0,3,2.68,4.84,4.84,0,0,0,2.9-1.11l1,1.8a6.36,6.36,0,0,1-4.07,1.45,5.2,5.2,0,0,1-5.46-5.3A5,5,0,0,1,297.64,169.19Zm2,4.05a2,2,0,0,0-2-2.14,2.42,2.42,0,0,0-2.44,2.14Z"/><path class="cls-5" d="M176.92,28.65a7.94,7.94,0,0,1,5.1,1.71l-1,1.45a6.62,6.62,0,0,0-4-1.37,5.11,5.11,0,0,0-5.26,5.4,5.17,5.17,0,0,0,5.15,5.5,5.65,5.65,0,0,0,4-1.75v-2h-2.27V35.86h4.07v7H181V42c0-.29,0-.59,0-.59h0a6.13,6.13,0,0,1-4.3,1.71,6.94,6.94,0,0,1-6.89-7.27A7.07,7.07,0,0,1,176.92,28.65Z"/><path class="cls-5" d="M190.13,32.62a5.27,5.27,0,1,1-5.4,5.25A5.24,5.24,0,0,1,190.13,32.62Zm0,8.86a3.6,3.6,0,1,0-3.45-3.61A3.48,3.48,0,0,0,190.15,41.48Z"/><path class="cls-5" d="M202.62,32.62a5.27,5.27,0,1,1-5.4,5.25A5.25,5.25,0,0,1,202.62,32.62Zm0,8.86a3.6,3.6,0,1,0-3.46-3.61A3.48,3.48,0,0,0,202.64,41.48Z"/><path class="cls-5" d="M214.07,45.41c1.74,0,3.17-.8,3.17-2.8V41.8a4,4,0,0,1,.06-.64h0a3.28,3.28,0,0,1-3,1.63c-2.8,0-4.49-2.24-4.49-5.12s1.59-5.05,4.39-5.05a3.58,3.58,0,0,1,3.17,1.53h.06a.71.71,0,0,1-.06-.29v-1h1.85v9.63c0,3.32-2.52,4.59-5.06,4.59a7.9,7.9,0,0,1-3.44-.84l.64-1.51A6.29,6.29,0,0,0,214.07,45.41Zm.55-4.29c1.39,0,2.66-.83,2.66-3.45s-1.27-3.38-2.84-3.38c-1.72,0-2.73,1.27-2.73,3.32S212.82,41.12,214.62,41.12Z"/><path class="cls-5" d="M222.14,28.89h1.91V39.83c0,1.19.5,1.43,1.09,1.43a2.18,2.18,0,0,0,.34,0V43a4.08,4.08,0,0,1-.64.06c-1.11,0-2.7-.32-2.7-2.86Z"/><path class="cls-5" d="M231.83,32.62c2.84,0,4.35,2.13,4.35,4.71a5.69,5.69,0,0,1-.08.81h-7.31a3.32,3.32,0,0,0,3.46,3.34,4.59,4.59,0,0,0,3-1.17l.81,1.41a6,6,0,0,1-3.89,1.43,5.13,5.13,0,0,1-5.34-5.26A4.94,4.94,0,0,1,231.83,32.62Zm2.4,4.13a2.45,2.45,0,0,0-2.44-2.64,2.93,2.93,0,0,0-2.94,2.64Z"/><path class="cls-5" d="M246.7,28.89h2.08l5,14h-2l-1.41-4h-5.28l-1.41,4h-2Zm3.15,8.36-1.55-4.43c-.23-.73-.55-2-.55-2h0s-.3,1.27-.54,2l-1.57,4.43Z"/><path class="cls-5" d="M259.32,32.62a3.55,3.55,0,0,1,3.11,1.65h0a5.66,5.66,0,0,1,0-.67V28.89h1.91v14h-1.83v-1a3.58,3.58,0,0,1,.06-.68h0a3.66,3.66,0,0,1-3.33,1.93c-2.7,0-4.43-2.15-4.43-5.26S256.66,32.62,259.32,32.62Zm.26,8.86c1.48,0,2.89-1.07,2.89-3.61,0-1.81-.93-3.56-2.85-3.56-1.57,0-2.88,1.29-2.88,3.58S257.91,41.48,259.58,41.48Z"/><path class="cls-5" d="M266.4,28.89h2.07l2.44,10.29c.18.75.28,1.48.28,1.48h0s.11-.71.31-1.48l2.76-10.29H276l2.74,10.29c.2.77.32,1.48.32,1.48h0a15,15,0,0,1,.25-1.48L282,28.89h2l-3.69,14h-2.25l-2.46-9.09c-.23-.92-.41-2-.41-2h-.08s-.18,1-.44,2l-2.44,9.09H270Z"/><path class="cls-5" d="M290,32.62a5.27,5.27,0,1,1-5.4,5.25A5.24,5.24,0,0,1,290,32.62Zm0,8.86a3.6,3.6,0,1,0-3.45-3.61A3.48,3.48,0,0,0,290,41.48Z"/><path class="cls-5" d="M297.74,32.86h1.87v1.81a4.25,4.25,0,0,1-.06.73h0a3.52,3.52,0,0,1,3.19-2.66,4.22,4.22,0,0,1,.52,0v1.91a3.6,3.6,0,0,0-.56,0c-2.16,0-3.07,2.14-3.07,4.09v4.17h-1.93Z"/><path class="cls-5" d="M308.9,32.62A3.55,3.55,0,0,1,312,34.27h0a5.66,5.66,0,0,1,0-.67V28.89h1.91v14h-1.83v-1a3.58,3.58,0,0,1,.06-.68h0a3.67,3.67,0,0,1-3.33,1.93c-2.7,0-4.43-2.15-4.43-5.26S306.24,32.62,308.9,32.62Zm.25,8.86c1.49,0,2.9-1.07,2.9-3.61,0-1.81-.93-3.56-2.86-3.56-1.57,0-2.88,1.29-2.88,3.58S307.49,41.48,309.15,41.48Z"/><path class="cls-5" d="M317,40.37a4.45,4.45,0,0,0,3,1.17c1,0,1.71-.48,1.71-1.31,0-1.93-5.16-1.41-5.16-4.71,0-1.9,1.64-2.9,3.61-2.9a4.81,4.81,0,0,1,3.25,1.12l-.77,1.39a4,4,0,0,0-2.54-.9c-1,0-1.71.4-1.71,1.25,0,2,5.18,1.39,5.18,4.71,0,1.71-1.47,3-3.61,3A5.43,5.43,0,0,1,316,41.68Z"/><rect class="cls-7" x="168.78" y="53.47" width="154.98" height="31.19"/><path class="cls-5" d="M192.78,60.92a7.12,7.12,0,0,1,7.28,7.19,7.29,7.29,0,1,1-14.57,0A7.13,7.13,0,0,1,192.78,60.92Zm0,12.23a4.79,4.79,0,0,0,4.64-5,4.65,4.65,0,1,0-9.29,0A4.8,4.8,0,0,0,192.78,73.15Z"/><path class="cls-5" d="M206.83,61.94l3.49-1.37.75,2-3.85,1.47c-1.72.71-2.86,1.65-3,3.39h0A4.15,4.15,0,0,1,207.64,66c2.6,0,4.33,1.85,4.33,4.65a4.68,4.68,0,0,1-5,4.84c-3.51,0-5.16-2.56-5.16-6.15C201.84,65.53,203.13,63.36,206.83,61.94Zm.08,11.47a2.74,2.74,0,0,0,0-5.46,2.56,2.56,0,0,0-2.54,2.72A2.51,2.51,0,0,0,206.91,73.41Z"/><path class="cls-5" d="M215.38,67.28h-2.66V65.13h5.18v3.48h1.89c2.38,0,3.79,1.15,3.79,3.35,0,2-1.15,3.3-3.81,3.3h-4.39Zm4,6.25a1.51,1.51,0,0,0,1.71-1.59,1.54,1.54,0,0,0-1.73-1.63H217.9v3.22Z"/><path class="cls-5" d="M226.65,72a4.79,4.79,0,0,1,.46-.62v0a3.14,3.14,0,0,1-2.05-3c0-2.09,1.45-3.28,3.64-3.28h4.54V75.26h-2.52V71.82h-1.31l-2.26,3.44h-2.72Zm4.07-2V66.78h-1.31c-1.09,0-1.83.46-1.83,1.61a1.61,1.61,0,0,0,1.81,1.68Z"/><path class="cls-5" d="M235.94,65.13h4.7c2.05,0,3.42.91,3.42,2.62A2.44,2.44,0,0,1,242.73,70v0a2.31,2.31,0,0,1,1.78,2.32c0,2-1.64,2.94-3.77,2.94h-4.8Zm4.17,4.17A1.26,1.26,0,0,0,241.52,68c0-.73-.46-1.19-1.45-1.19h-1.61V69.3Zm.2,4.29c1.13,0,1.66-.58,1.66-1.35s-.57-1.37-1.66-1.37h-1.85v2.72Z"/><path class="cls-5" d="M245.66,73.13c1.25-.18,2.13-1.23,2.13-4.82V65.13h7.38V75.26h-2.52V67.18h-2.46v1.13c0,4.4-1.17,7-4.53,7Z"/><path class="cls-5" d="M262.42,64.89c2.89,0,4.48,2.13,4.48,4.81a7.93,7.93,0,0,1-.08,1h-7a2.87,2.87,0,0,0,3,2.68,4.82,4.82,0,0,0,2.9-1.11l1,1.8a6.36,6.36,0,0,1-4.07,1.45,5.21,5.21,0,0,1-5.46-5.3A5,5,0,0,1,262.42,64.89Zm2,4a2,2,0,0,0-2-2.14,2.43,2.43,0,0,0-2.45,2.14Z"/><path class="cls-5" d="M269,65.13h2.52V69h4.33V65.13h2.52V75.26h-2.52V71.17h-4.33v4.09H269Z"/><path class="cls-5" d="M281.07,65.13h2.4v5.42c0,.46,0,1-.06,1.21h0c.12-.26.5-.81.76-1.21L288,65.13h2.44V75.26H288v-5.4c0-.38,0-1,.06-1.21h0a13.65,13.65,0,0,1-.76,1.21l-3.75,5.4h-2.44Z"/><path class="cls-5" d="M297.64,64.89c2.9,0,4.49,2.13,4.49,4.81a7.93,7.93,0,0,1-.08,1h-7a2.87,2.87,0,0,0,3,2.68,4.84,4.84,0,0,0,2.9-1.11l1,1.8a6.36,6.36,0,0,1-4.07,1.45,5.2,5.2,0,0,1-5.46-5.3A5,5,0,0,1,297.64,64.89Zm2,4a2,2,0,0,0-2-2.14,2.42,2.42,0,0,0-2.44,2.14Z"/><path class="cls-5" d="M223.2,244.39h2.05l3.23,7.58c.32.78.68,1.89.68,1.89h0s.37-1.11.69-1.89l3.24-7.58h2l1.13,14h-1.94l-.68-8.83a20.36,20.36,0,0,1,0-2.07h0s-.43,1.29-.75,2.07l-2.8,6.31H228.3l-2.78-6.31c-.31-.76-.75-2.11-.75-2.11h0s0,1.26,0,2.11L224,258.4h-2Z"/><path class="cls-5" d="M243.35,248.12c2.84,0,4.35,2.12,4.35,4.71a6,6,0,0,1-.08.81h-7.31a3.31,3.31,0,0,0,3.45,3.33,4.5,4.5,0,0,0,3-1.17l.82,1.41a6,6,0,0,1-3.89,1.43,5.13,5.13,0,0,1-5.34-5.26A4.93,4.93,0,0,1,243.35,248.12Zm2.4,4.13a2.44,2.44,0,0,0-2.44-2.64,2.92,2.92,0,0,0-2.94,2.64Z"/><path class="cls-5" d="M250,256.81c1.41-1.92,1.56-5.06,1.56-6.61v-1.84h6.79v8.45h1.43v4H258V258.4h-7.45v2.39h-1.81v-4Zm6.43,0v-6.88h-3v.53c0,1.51-.16,4.37-1.43,6.35Z"/><path class="cls-5" d="M261.8,248.36h1.85v6c0,.54,0,1.25-.06,1.35h0c.08-.18.56-.87.89-1.35l4.33-6h1.87v10h-1.87v-6c0-.48.06-1.17.06-1.33h0a15.25,15.25,0,0,1-.87,1.33l-4.35,6H261.8Z"/><path class="cls-5" d="M273.67,248.36h1.85v6c0,.54,0,1.25-.06,1.35h0c.08-.18.55-.87.89-1.35l4.33-6h1.87v10h-1.87v-6c0-.48.06-1.17.06-1.33h0c-.06.18-.56.85-.87,1.33l-4.35,6h-1.85Zm1.49-3.69v-.3h1.55v.28A1.3,1.3,0,0,0,278.1,246a1.33,1.33,0,0,0,1.41-1.33v-.26H281v.3a3,3,0,0,1-5.88,0Z"/><path class="cls-5" d="M285.54,248.36h1.93v4.09h5.08v-4.09h1.92v10h-1.92v-4.3h-5.08v4.3h-1.93Z"/><path class="cls-5" d="M302.61,252.15h.51V252a2,2,0,0,0-2.2-2.2,5,5,0,0,0-2.82,1l-.77-1.41a6.42,6.42,0,0,1,3.75-1.19c2.52,0,4,1.39,4,3.93v6.35h-1.81v-1a4.88,4.88,0,0,1,.06-.79h0a3.69,3.69,0,0,1-3.29,2,3.09,3.09,0,0,1-3.36-3C296.61,252.51,300.52,252.15,302.61,252.15Zm-2.18,5c1.68,0,2.69-1.7,2.69-3.19v-.38h-.49c-1.43,0-4.09.12-4.09,2A1.69,1.69,0,0,0,300.43,257.11Z"/><path class="cls-5" d="M309.2,255.07a4.87,4.87,0,0,1,.45-.62v0a3,3,0,0,1-2.18-2.92c0-2.06,1.47-3.15,3.59-3.15h4v10h-1.92v-3.63h-1.69L309,258.4h-2.12Zm3.95-1.71v-3.67h-1.61c-1.29,0-2.12.51-2.12,1.81a1.82,1.82,0,0,0,2.06,1.86Z"/><path class="cls-5" d="M222.23,272.17H224v.9a4.82,4.82,0,0,1-.06.75h0a3.66,3.66,0,0,1,3.37-1.88c2.72,0,4.41,2.14,4.41,5.26s-1.91,5.26-4.55,5.26a3.68,3.68,0,0,1-3.11-1.71h0a5,5,0,0,1,.07.87v4.57h-1.92Zm4.7,8.62c1.59,0,2.9-1.29,2.9-3.57s-1.17-3.6-2.84-3.6c-1.51,0-2.9,1.07-2.9,3.62C224.09,279,225.09,280.79,226.93,280.79Z"/><path class="cls-5" d="M238.54,271.94c2.84,0,4.35,2.12,4.35,4.7a5.69,5.69,0,0,1-.08.81h-7.3a3.31,3.31,0,0,0,3.45,3.34,4.59,4.59,0,0,0,3-1.17l.81,1.41a6,6,0,0,1-3.89,1.43,5.14,5.14,0,0,1-5.34-5.26A4.94,4.94,0,0,1,238.54,271.94Zm2.41,4.12a2.45,2.45,0,0,0-2.45-2.64,2.92,2.92,0,0,0-2.93,2.64Z"/><path class="cls-5" d="M245.21,272.17h1.93v4.05h1.41l2.74-4.05h2.18L250.12,277v0l3.75,5.22h-2.29l-3-4.35h-1.45v4.35h-1.93Z"/><path class="cls-5" d="M254.48,280.59c1.47-.22,2.26-1.69,2.26-5.32v-3.1h6.73v10.05h-1.92v-8.46h-3v1.51c0,4.55-1.15,6.89-4.11,7.05Z"/><path class="cls-5" d="M271.61,276h.51v-.19a2,2,0,0,0-2.2-2.21,5,5,0,0,0-2.82,1l-.77-1.41a6.35,6.35,0,0,1,3.75-1.19c2.52,0,4,1.39,4,3.93v6.35h-1.81v-1a5.1,5.1,0,0,1,.06-.8h0a3.7,3.7,0,0,1-3.29,2,3.09,3.09,0,0,1-3.36-3C265.61,276.32,269.52,276,271.61,276Zm-2.19,5c1.69,0,2.7-1.71,2.7-3.2v-.38h-.49c-1.43,0-4.09.12-4.09,2A1.69,1.69,0,0,0,269.42,280.93Z"/><path class="cls-5" d="M277.34,272.17h2.15l2.56,5.68c.28.6.55,1.35.55,1.35h0l.56-1.35,2.62-5.68h2.1l.88,10.05h-1.87l-.44-6c0-.59,0-1.72,0-1.72h0s-.25.69-.63,1.47l-2.38,5h-1.65l-2.38-5-.64-1.48h0s.06,1.13,0,1.72l-.44,6h-1.86Z"/><path class="cls-5" d="M296.54,276h.51v-.19a2,2,0,0,0-2.2-2.21,5,5,0,0,0-2.82,1l-.78-1.41a6.4,6.4,0,0,1,3.76-1.19c2.52,0,4,1.39,4,3.93v6.35h-1.81v-1a5.1,5.1,0,0,1,.06-.8h0a3.72,3.72,0,0,1-3.3,2,3.09,3.09,0,0,1-3.35-3C290.54,276.32,294.45,276,296.54,276Zm-2.19,5c1.69,0,2.7-1.71,2.7-3.2v-.38h-.5c-1.42,0-4.08.12-4.08,2A1.69,1.69,0,0,0,294.35,280.93Z"/><path class="cls-1" d="M203.78,269.54a1.24,1.24,0,0,0-.22-.18,6.86,6.86,0,0,0-8.49,1l-1.21,1.21V255.21a3.43,3.43,0,1,0-6.86,0v7.55a3.4,3.4,0,0,0-2.64-1.27,3.36,3.36,0,0,0-2,.65L175,266.41a3.44,3.44,0,0,0-1.71,3V275A11.08,11.08,0,0,0,192,283v0l11.74-11.75A1.24,1.24,0,0,0,203.78,269.54Z"/><rect class="cls-2" x="188.71" y="241.49" width="3.43" height="6.86"/><rect class="cls-2" x="181.44" y="244.5" width="3.43" height="6.86" transform="translate(-121.67 202.13) rotate(-45)"/><rect class="cls-2" x="176.71" y="253.5" width="6.86" height="3.43"/><rect class="cls-2" x="194.27" y="246.22" width="6.86" height="3.43" transform="translate(-117.41 212.41) rotate(-45)"/><rect class="cls-2" x="197.29" y="253.5" width="6.86" height="3.43"/><path class="cls-5" d="M773.48,44.29a9.23,9.23,0,0,0,0-11.7l-5.85,5.85Z"/><path class="cls-8" d="M772.2,45.56l-5.85-5.84-5.84,5.84-1.92,1.92a11.91,11.91,0,0,0,15.53,0Zm-5.86-3L768.75,45h-4.82Z"/><path class="cls-5" d="M766.35,29.22a9.22,9.22,0,0,0-7.12,15.07l13-13a9.22,9.22,0,0,0-5.85-2.09"/><path class="cls-5" d="M786.07,33.15a4.91,4.91,0,0,1,3.51,1.3l-.83,1.28a4.22,4.22,0,0,0-2.6-1A3.09,3.09,0,0,0,783,38a3.21,3.21,0,0,0,3.2,3.39,4.09,4.09,0,0,0,2.75-1.2l.91,1.24A5.1,5.1,0,0,1,786.1,43a4.91,4.91,0,0,1,0-9.82"/><path class="cls-5" d="M794.66,38.53h.23v-.09c0-.9-.56-1.21-1.31-1.21a3.66,3.66,0,0,0-1.88.66l-.64-1.22a4.63,4.63,0,0,1,2.68-.84,2.54,2.54,0,0,1,2.84,2.71v4.27H795v-.56a3.77,3.77,0,0,1,0-.48h0a2.21,2.21,0,0,1-2.07,1.2,2.14,2.14,0,0,1-2.32-2.12c0-2.17,2.93-2.32,4-2.32m-1.3,3.12a1.75,1.75,0,0,0,1.54-1.79v-.17h-.29c-.87,0-2.28.13-2.28,1.08a.91.91,0,0,0,1,.88"/><path class="cls-5" d="M798.21,33.31h1.69v7.12c0,.75.25.94.69.94a1.77,1.77,0,0,0,.26,0v1.49a4,4,0,0,1-.54,0c-.94,0-2.1-.24-2.1-2.2Z"/><path class="cls-5" d="M802,33.31h1.69v7.12c0,.75.25.94.69.94a1.77,1.77,0,0,0,.26,0v1.49a4,4,0,0,1-.54,0c-.93,0-2.1-.24-2.1-2.2Z"/><path class="cls-5" d="M806.16,37.45h-.88V36.1h.92v-2h1.66v2h1.55v1.35h-1.55V40.1a1.21,1.21,0,0,0,1.35,1.28,1.41,1.41,0,0,0,.31,0v1.49a2.92,2.92,0,0,1-.52,0c-1,0-2.84-.28-2.84-2.57Z"/><path class="cls-5" d="M814.15,35.83a3.57,3.57,0,1,1-3.75,3.57,3.59,3.59,0,0,1,3.75-3.57m0,5.7a2.13,2.13,0,1,0-2-2.13,2,2,0,0,0,2,2.13"/><path class="cls-5" d="M819.22,36h1.7v4c0,.83.21,1.39,1.06,1.39a2,2,0,0,0,1.91-2.3V36h1.7v6.82H824V42c0-.27,0-.49,0-.49h0A2.64,2.64,0,0,1,821.59,43c-1.46,0-2.37-.73-2.37-2.59Z"/><path class="cls-5" d="M830.64,35.83a3.47,3.47,0,0,1,2.62,1L832.51,38a2.67,2.67,0,0,0-1.78-.74,2,2,0,0,0-2.07,2.12,2.08,2.08,0,0,0,2.12,2.14,3.15,3.15,0,0,0,2-.87l.66,1.2A3.9,3.9,0,0,1,830.64,43a3.57,3.57,0,1,1,0-7.14"/><path class="cls-5" d="M834.72,33.31h1.7V36.6a5.18,5.18,0,0,1,0,.58h0a2.61,2.61,0,0,1,2.35-1.35c1.52,0,2.37.79,2.37,2.59v4.39h-1.68v-4c0-.83-.22-1.39-1.09-1.39a1.91,1.91,0,0,0-1.84,1.42,3.08,3.08,0,0,0-.11.88v3.13h-1.7Z"/><path class="cls-1" d="M704.43,63.06h8.62V73.71h-1.93v-9h-4.76v9h-1.93Z"/><path class="cls-1" d="M718.92,65.88a4,4,0,1,1-4.19,4A4,4,0,0,1,718.92,65.88Zm0,6.39a2.39,2.39,0,1,0-2.26-2.38A2.27,2.27,0,0,0,718.93,72.27Z"/><path class="cls-1" d="M723.78,72.11c.94-.14,1.6-.93,1.6-3.65v-2.4H731v7.65h-1.9v-6.1H727.2v.85c0,3.33-.89,5.25-3.42,5.33Z"/><path class="cls-1" d="M733,66.06h1.91v2.63h1.42c1.8,0,2.88.87,2.88,2.53,0,1.49-.88,2.49-2.89,2.49H733Zm3,6.35a1.13,1.13,0,0,0,1.27-1.2A1.15,1.15,0,0,0,736,70h-1.08v2.43Z"/><path class="cls-1" d="M740.73,71.55a3,3,0,0,0,1.93.87c.81,0,1.32-.39,1.32-1s-.36-1-1.27-1h-.93V69.12h.78c.67,0,1.18-.24,1.18-.88s-.37-.92-1.14-.92a3.25,3.25,0,0,0-1.84.63l-.62-1.21a4.61,4.61,0,0,1,2.82-.86c1.5,0,2.69.75,2.69,2.1a1.8,1.8,0,0,1-1,1.73v0a1.81,1.81,0,0,1,1.29,1.75c0,1.59-1.35,2.4-3,2.4a4.41,4.41,0,0,1-3-1.12Z"/><path class="cls-1" d="M751.2,65.88a4,4,0,1,1-4.19,4A4,4,0,0,1,751.2,65.88Zm0,6.39A2.39,2.39,0,1,0,749,69.89,2.27,2.27,0,0,0,751.21,72.27Z"/><path class="cls-1" d="M757,66.06h3.55c1.55,0,2.58.69,2.58,2a1.83,1.83,0,0,1-1,1.68v0a1.76,1.76,0,0,1,1.35,1.75c0,1.53-1.25,2.22-2.85,2.22H757Zm3.15,3.15a.94.94,0,0,0,1.06-1c0-.56-.34-.9-1.09-.9h-1.22v1.9Zm.15,3.24c.85,0,1.26-.43,1.26-1s-.44-1-1.26-1h-1.4v2Z"/><path class="cls-1" d="M768.93,68.91h.33v-.1c0-1-.65-1.35-1.44-1.35a3.9,3.9,0,0,0-2.13.73L765,66.83a5.25,5.25,0,0,1,3-1,2.85,2.85,0,0,1,3.18,3.05v4.78h-1.77v-.64a3,3,0,0,1,.05-.56h0A2.81,2.81,0,0,1,767,73.89a2.34,2.34,0,0,1-2.52-2.29C764.47,69.3,767.23,68.91,768.93,68.91Zm-1.41,3.53a1.94,1.94,0,0,0,1.75-2v-.21h-.33c-1,0-2.58.13-2.58,1.21A1,1,0,0,0,767.52,72.44Z"/><path class="cls-1" d="M774.81,67.68h-2.52V66.06h6.94v1.62H776.7v6h-1.89Z"/><path class="cls-1" d="M783.76,65.88a3.32,3.32,0,0,1,3.39,3.63,6.15,6.15,0,0,1-.06.74h-5.26a2.17,2.17,0,0,0,2.29,2,3.57,3.57,0,0,0,2.19-.84l.75,1.37A4.83,4.83,0,0,1,784,73.89a3.93,3.93,0,0,1-4.13-4A3.79,3.79,0,0,1,783.76,65.88Zm1.49,3.06a1.51,1.51,0,0,0-1.53-1.62,1.84,1.84,0,0,0-1.85,1.62Z"/><path class="cls-1" d="M788,72.11c1-.14,1.61-.93,1.61-3.65v-2.4h5.58v7.65H793.3v-6.1h-1.86v.85c0,3.33-.88,5.25-3.42,5.33Z"/><path class="cls-1" d="M797.25,66.06h1.81v4.1c0,.34,0,.79,0,.91h0c.09-.19.37-.61.57-.91l2.83-4.1h1.85v7.65h-1.82V69.63c0-.28,0-.72,0-.91h0a10.32,10.32,0,0,1-.57.91l-2.84,4.08h-1.84Z"/><path class="cls-1" d="M806.71,71.78h1.89l-1.45,3.51h-1.46Z"/><path class="cls-1" d="M817.75,65.88a3.32,3.32,0,0,1,3.39,3.63,6.15,6.15,0,0,1-.06.74h-5.26a2.17,2.17,0,0,0,2.29,2,3.57,3.57,0,0,0,2.19-.84l.75,1.37A4.83,4.83,0,0,1,818,73.89a3.93,3.93,0,0,1-4.13-4A3.79,3.79,0,0,1,817.75,65.88Zm1.49,3.06a1.51,1.51,0,0,0-1.53-1.62,1.84,1.84,0,0,0-1.85,1.62Z"/><path class="cls-1" d="M822.79,72.18a8.72,8.72,0,0,0,1-4.53V66.06h5.63v6.12h1.09v3.33h-1.72v-1.8h-5.19v1.8h-1.77V72.18Zm4.74,0V67.59h-1.9V68a8.59,8.59,0,0,1-.93,4.23Z"/><path class="cls-1" d="M831.91,66.06h1.82v4.1a8.37,8.37,0,0,1-.05.91h0c.09-.19.38-.61.57-.91l2.84-4.1H839v7.65h-1.81V69.63c0-.28,0-.72,0-.91h0a8.39,8.39,0,0,1-.57.91l-2.83,4.08h-1.85Z"/><path class="cls-1" d="M841,66.06h1.91v3h3.27v-3h1.9v7.65h-1.9V70.62h-3.27v3.09H841Z"/><path class="cls-1" d="M853.84,65.88a4,4,0,1,1-4.18,4A4,4,0,0,1,853.84,65.88Zm0,6.39a2.39,2.39,0,1,0-2.27-2.38A2.28,2.28,0,0,0,853.86,72.27Z"/><path class="cls-1" d="M859.63,66.06h3.56c1.54,0,2.58.69,2.58,2a1.82,1.82,0,0,1-1,1.68v0a1.75,1.75,0,0,1,1.35,1.75c0,1.53-1.24,2.22-2.85,2.22h-3.63Zm3.15,3.15a1,1,0,0,0,1.07-1c0-.56-.35-.9-1.1-.9h-1.21v1.9Zm.15,3.24c.86,0,1.26-.43,1.26-1s-.43-1-1.26-1h-1.39v2Z"/><path class="cls-1" d="M867.7,66.06h1.74v.57a5.09,5.09,0,0,1,0,.54h0a2.83,2.83,0,0,1,2.46-1.29c2.07,0,3.39,1.64,3.39,4s-1.48,4-3.49,4a2.78,2.78,0,0,1-2.21-1.08h0a4,4,0,0,1,.05.66v3.24H867.7Zm3.75,6.23c1,0,1.92-.86,1.92-2.37s-.78-2.4-1.89-2.4-1.93.72-1.93,2.41C869.55,71.12,870.21,72.29,871.45,72.29Z"/><path class="cls-1" d="M880.35,65.88a3.32,3.32,0,0,1,3.39,3.63,6.15,6.15,0,0,1-.06.74h-5.27a2.17,2.17,0,0,0,2.3,2,3.6,3.6,0,0,0,2.19-.84l.75,1.37a4.84,4.84,0,0,1-3.08,1.09,3.93,3.93,0,0,1-4.12-4A3.78,3.78,0,0,1,880.35,65.88Zm1.48,3.06a1.5,1.5,0,0,0-1.53-1.62,1.84,1.84,0,0,0-1.84,1.62Z"/><path class="cls-1" d="M885.7,66.06h2.16l1.62,4c.18.42.38,1,.38,1h0s.21-.54.37-1l1.65-4H894l.69,7.65H892.9l-.27-4.14c0-.51,0-1.3,0-1.3h0s-.21.57-.45,1.11l-1.5,3.37h-1.58l-1.5-3.36-.46-1.12h0s0,.79,0,1.3l-.27,4.14H885Z"/><path class="cls-1" d="M899.91,65.88a3.32,3.32,0,0,1,3.39,3.63,6.15,6.15,0,0,1-.06.74H898a2.17,2.17,0,0,0,2.3,2,3.6,3.6,0,0,0,2.19-.84l.75,1.37a4.84,4.84,0,0,1-3.08,1.09,3.93,3.93,0,0,1-4.12-4A3.78,3.78,0,0,1,899.91,65.88Zm1.48,3.06a1.5,1.5,0,0,0-1.53-1.62A1.84,1.84,0,0,0,898,68.94Z"/><path class="cls-1" d="M904.89,66.06h1.9v3h3.27v-3H912v7.65h-1.91V70.62h-3.27v3.09h-1.9Z"/><path class="cls-1" d="M914,66.06h1.9v3h3.27v-3h1.91v7.65h-1.91V70.62h-3.27v3.09H914Z"/><path class="cls-1" d="M926.85,65.88a4,4,0,1,1-4.19,4A4,4,0,0,1,926.85,65.88Zm0,6.39a2.39,2.39,0,1,0-2.26-2.38A2.27,2.27,0,0,0,926.86,72.27Z"/><path class="cls-1" d="M704.28,89.55a3,3,0,0,0,1.93.87c.81,0,1.32-.39,1.32-1s-.36-1-1.27-1h-.93V87.12h.78c.67,0,1.18-.24,1.18-.88s-.37-.92-1.14-.92a3.25,3.25,0,0,0-1.84.63l-.62-1.21a4.61,4.61,0,0,1,2.82-.86c1.5,0,2.69.75,2.69,2.1a1.8,1.8,0,0,1-1.05,1.73v0a1.81,1.81,0,0,1,1.29,1.75c0,1.59-1.35,2.4-3,2.4a4.41,4.41,0,0,1-2.95-1.12Z"/><path class="cls-1" d="M714.9,86.91h.33v-.1c0-1-.65-1.35-1.44-1.35a3.9,3.9,0,0,0-2.13.73L711,84.83a5.25,5.25,0,0,1,3-1,2.85,2.85,0,0,1,3.18,3.05v4.78h-1.77v-.64a3,3,0,0,1,0-.56h0A2.81,2.81,0,0,1,713,91.89a2.34,2.34,0,0,1-2.52-2.29C710.44,87.3,713.2,86.91,714.9,86.91Zm-1.41,3.53a1.94,1.94,0,0,0,1.75-2v-.21h-.33c-1,0-2.58.13-2.58,1.21A1,1,0,0,0,713.49,90.44Z"/><path class="cls-1" d="M719.07,84.06h1.81v6h2.39v-6h1.81v6h2.39v-6h1.81v7.65H719.07Z"/><path class="cls-1" d="M734.76,83.88a3.32,3.32,0,0,1,3.39,3.63,6.15,6.15,0,0,1-.06.74h-5.27a2.17,2.17,0,0,0,2.3,2,3.6,3.6,0,0,0,2.19-.84l.75,1.37A4.84,4.84,0,0,1,735,91.89a3.93,3.93,0,0,1-4.12-4A3.78,3.78,0,0,1,734.76,83.88Zm1.48,3.06a1.5,1.5,0,0,0-1.53-1.62,1.84,1.84,0,0,0-1.84,1.62Z"/><path class="cls-1" d="M739.8,90.18a8.72,8.72,0,0,0,1-4.53V84.06h5.62v6.12h1.1v3.33h-1.73v-1.8h-5.19v1.8h-1.77V90.18Zm4.74,0V85.59h-1.91V86a8.48,8.48,0,0,1-.93,4.23Z"/><path class="cls-1" d="M748.92,84.06h1.81v6h2.39v-6h1.81v6h2.39v-6h1.81v7.65H748.92Z"/><path class="cls-1" d="M761.17,84.06H763v4.1a8.37,8.37,0,0,1,0,.91h0c.09-.19.38-.61.57-.91l2.84-4.1h1.84v7.65h-1.81V87.63c0-.28,0-.72,0-.91h0a8.39,8.39,0,0,1-.57.91L763,91.71h-1.85Z"/><path class="cls-1" d="M773.7,83.88a3.32,3.32,0,0,1,3.39,3.63,6.15,6.15,0,0,1-.06.74h-5.27a2.17,2.17,0,0,0,2.3,2,3.6,3.6,0,0,0,2.19-.84L777,90.8a4.84,4.84,0,0,1-3.08,1.09,3.93,3.93,0,0,1-4.12-4A3.78,3.78,0,0,1,773.7,83.88Zm1.48,3.06a1.5,1.5,0,0,0-1.53-1.62,1.84,1.84,0,0,0-1.84,1.62Z"/><path class="cls-1" d="M782.43,84.06h1.9v3h3.27v-3h1.91v7.65H787.6V88.62h-3.27v3.09h-1.9Z"/><path class="cls-1" d="M795.42,86.91h.33v-.1c0-1-.65-1.35-1.44-1.35a3.9,3.9,0,0,0-2.13.73l-.71-1.36a5.25,5.25,0,0,1,3-1,2.85,2.85,0,0,1,3.18,3.05v4.78h-1.77v-.64a3,3,0,0,1,0-.56h0a2.81,2.81,0,0,1-2.42,1.38A2.34,2.34,0,0,1,791,89.6C791,87.3,793.72,86.91,795.42,86.91ZM794,90.44a1.94,1.94,0,0,0,1.75-2v-.21h-.33c-1,0-2.58.13-2.58,1.21A1,1,0,0,0,794,90.44Z"/><path class="cls-1" d="M807,83.88A4.1,4.1,0,0,1,810,85l-.86,1.31a2.91,2.91,0,0,0-2-.83,2.27,2.27,0,0,0-2.32,2.37,2.32,2.32,0,0,0,2.38,2.4,3.45,3.45,0,0,0,2.25-1l.74,1.35A4.43,4.43,0,0,1,807,91.89a4,4,0,1,1,0-8Z"/><path class="cls-1" d="M815.43,86.91h.33v-.1c0-1-.65-1.35-1.44-1.35a3.9,3.9,0,0,0-2.13.73l-.71-1.36a5.25,5.25,0,0,1,3-1,2.85,2.85,0,0,1,3.18,3.05v4.78h-1.77v-.64a3,3,0,0,1,.05-.56h0a2.81,2.81,0,0,1-2.42,1.38A2.34,2.34,0,0,1,811,89.6C811,87.3,813.73,86.91,815.43,86.91ZM814,90.44a1.94,1.94,0,0,0,1.75-2v-.21h-.33c-1,0-2.58.13-2.58,1.21A1,1,0,0,0,814,90.44Z"/><path class="cls-1" d="M819.6,84.06h1.81v4.1c0,.34,0,.79,0,.91h0c.09-.19.37-.61.57-.91l2.83-4.1h1.85v7.65h-1.82V87.63c0-.28,0-.72,0-.91h0a10.32,10.32,0,0,1-.57.91l-2.84,4.08H819.6Zm1.06-2.8v-.2h1.46v.2a.93.93,0,0,0,1,.94,1,1,0,0,0,1-1v-.18h1.44v.2a2.5,2.5,0,0,1-4.92,0Z"/><path class="cls-1" d="M830.47,85.68H828V84.06h6.95v1.62h-2.54v6h-1.89Z"/><path class="cls-1" d="M839.94,84.06h3.55c1.55,0,2.58.69,2.58,2a1.83,1.83,0,0,1-1,1.68v0a1.76,1.76,0,0,1,1.35,1.75c0,1.53-1.25,2.22-2.85,2.22h-3.63Zm3.15,3.15a.94.94,0,0,0,1.06-1c0-.56-.34-.9-1.09-.9h-1.22v1.9Zm.15,3.24c.85,0,1.26-.43,1.26-1s-.44-1-1.26-1h-1.4v2Z"/><path class="cls-1" d="M848,84.06h1.81v4.1c0,.34,0,.79,0,.91h0c.09-.19.37-.61.57-.91l2.83-4.1h1.85v7.65h-1.82V87.63c0-.28,0-.72,0-.91h0a10.32,10.32,0,0,1-.57.91l-2.84,4.08H848Z"/><path class="cls-1" d="M857.22,90.18a8.72,8.72,0,0,0,1-4.53V84.06h5.62v6.12H865v3.33h-1.73v-1.8H858v1.8h-1.77V90.18Zm4.74,0V85.59h-1.91V86a8.48,8.48,0,0,1-.93,4.23Z"/><path class="cls-1" d="M867.27,89.27a3.75,3.75,0,0,1,.34-.47h0a2.39,2.39,0,0,1-1.54-2.25,2.42,2.42,0,0,1,2.74-2.48h3.44v7.65h-1.91V89.12h-1l-1.71,2.59h-2Zm3.07-1.47V85.31h-1c-.82,0-1.38.34-1.38,1.21a1.22,1.22,0,0,0,1.37,1.28Z"/><path class="cls-1" d="M876.07,85.68h-2.52V84.06h7v1.62H878v6h-1.89Z"/><path class="cls-1" d="M704,102h2.34v.39a4.5,4.5,0,0,1,0,.49h0a2.88,2.88,0,0,1,2.34-1.06c2.1,0,3.48,1.65,3.48,4s-1.55,4-3.6,4a3,3,0,0,1-2-.73h0s0,.27,0,.66v2.89H704Zm4,5.76c.81,0,1.52-.66,1.52-1.85s-.62-1.9-1.52-1.9-1.51.57-1.51,1.9C706.53,106.83,707,107.75,708,107.75Z"/><path class="cls-1" d="M717.31,104.9h.23v-.14c0-.64-.53-.85-1.1-.85a4.1,4.1,0,0,0-2.13.73l-.9-1.83a6,6,0,0,1,3.27-1c2.13,0,3.45,1.18,3.45,3.15v4.75h-2.37v-.46a4,4,0,0,1,0-.48h0a2.83,2.83,0,0,1-2.29,1.12,2.36,2.36,0,0,1-2.52-2.35C713,105.47,715.41,104.9,717.31,104.9ZM716.25,108a1.42,1.42,0,0,0,1.32-1.37v-.21h-.24c-.8,0-1.82.21-1.82.92A.66.66,0,0,0,716.25,108Z"/><path class="cls-1" d="M722.17,107.13a3.1,3.1,0,0,0,1.86.81c.72,0,.93-.31.93-.67s-.13-.65-.84-.65h-.94v-1.71H724c.4,0,.78-.12.78-.6,0-.33-.15-.61-.81-.61a3.54,3.54,0,0,0-1.83.58l-.75-1.6a5.29,5.29,0,0,1,3.12-.87c1.59,0,2.85.81,2.85,2.14a1.87,1.87,0,0,1-1,1.74v0a1.89,1.89,0,0,1,1.2,1.71c0,1.64-1.37,2.46-3.2,2.46a5,5,0,0,1-3.22-1.14Z"/><path class="cls-1" d="M728.88,102h2.59v2.73h2.39V102h2.59v7.72h-2.59v-2.82h-2.39v2.82h-2.59Z"/><path class="cls-1" d="M738.19,102h2.6v2.41H742c2.16,0,3.06,1.11,3.06,2.67s-.9,2.64-3.06,2.64h-3.77Zm3.29,6a.89.89,0,0,0,.94-1,.92.92,0,0,0-1-1h-.64V108Zm4.42-6h2.6v7.72h-2.6Z"/><path class="cls-1" d="M753.82,101.81a3.43,3.43,0,0,1,3.57,3.73,7.36,7.36,0,0,1-.06.81h-4.87a1.71,1.71,0,0,0,1.8,1.38,4,4,0,0,0,2.13-.78l1,1.82a5.26,5.26,0,0,1-3.3,1.12,4,4,0,0,1-4.25-4A3.84,3.84,0,0,1,753.82,101.81Zm1,3.06a1.08,1.08,0,0,0-1.07-1.16,1.26,1.26,0,0,0-1.24,1.16Z"/><path class="cls-1" d="M762.49,102h2.6v2.73h2.38V102h2.6v7.72h-2.6v-2.82h-2.38v2.82h-2.6Z"/><path class="cls-1" d="M775.74,101.81a4.05,4.05,0,1,1-4.37,4.06A4.11,4.11,0,0,1,775.74,101.81Zm0,5.92a1.74,1.74,0,0,0,1.75-1.86,1.76,1.76,0,1,0-3.5,0A1.74,1.74,0,0,0,775.75,107.73Z"/><path class="cls-1" d="M781.84,102h3l1.14,3.39c.14.39.3.9.3.9h0s.19-.51.32-.9l1.14-3.39h3l.73,7.72H789l-.18-3.55c0-.6,0-1.32,0-1.32h0s-.23.66-.42,1.14l-1,2.7h-2.09l-1-2.7c-.17-.5-.45-1.14-.45-1.14h0s0,.72,0,1.32l-.18,3.55h-2.47Z"/><path class="cls-1" d="M796.46,101.81a3.43,3.43,0,0,1,3.57,3.73,7.36,7.36,0,0,1-.06.81H795.1a1.71,1.71,0,0,0,1.8,1.38A4,4,0,0,0,799,107l1,1.82a5.24,5.24,0,0,1-3.3,1.12,4,4,0,0,1-4.25-4A3.84,3.84,0,0,1,796.46,101.81Zm1,3.06a1.08,1.08,0,0,0-1.07-1.16,1.26,1.26,0,0,0-1.24,1.16Z"/><path class="cls-1" d="M801.38,102h2.34v.39a4.5,4.5,0,0,1,0,.49h0a2.89,2.89,0,0,1,2.34-1.06c2.1,0,3.48,1.65,3.48,4s-1.54,4-3.6,4a3,3,0,0,1-2-.73h0s0,.27,0,.66v2.89h-2.6Zm4,5.76c.81,0,1.51-.66,1.51-1.85s-.61-1.9-1.51-1.9-1.52.57-1.52,1.9C803.9,106.83,804.4,107.75,805.42,107.75Z"/><path class="cls-1" d="M814.69,104.9h.23v-.14c0-.64-.53-.85-1.1-.85a4.07,4.07,0,0,0-2.13.73l-.9-1.83a6,6,0,0,1,3.27-1c2.13,0,3.45,1.18,3.45,3.15v4.75h-2.37v-.46a4,4,0,0,1,0-.48h0a2.83,2.83,0,0,1-2.3,1.12,2.36,2.36,0,0,1-2.51-2.35C810.33,105.47,812.78,104.9,814.69,104.9ZM813.62,108a1.41,1.41,0,0,0,1.32-1.37v-.21h-.24c-.79,0-1.81.21-1.81.92A.66.66,0,0,0,813.62,108Z"/><path class="cls-1" d="M824.6,104.16h-2.34V102h7.29v2.17H827.2v5.55h-2.6Z"/><path class="cls-1" d="M834.15,101.81a3.43,3.43,0,0,1,3.56,3.73,7.34,7.34,0,0,1-.05.81h-4.88a1.72,1.72,0,0,0,1.8,1.38,4,4,0,0,0,2.13-.78l1,1.82a5.24,5.24,0,0,1-3.3,1.12,4,4,0,0,1-4.25-4A3.85,3.85,0,0,1,834.15,101.81Zm1,3.06a1.08,1.08,0,0,0-1.07-1.16,1.27,1.27,0,0,0-1.24,1.16Z"/><path class="cls-1" d="M838.43,107.52c.69-.09,1.46-.4,1.46-3.06V102h6.33v7.72h-2.6V104h-1.29v.44c0,3.15-.9,5.31-3.9,5.31Z"/><path class="cls-1" d="M851.54,101.81a3.43,3.43,0,0,1,3.57,3.73,7.36,7.36,0,0,1-.06.81h-4.87a1.72,1.72,0,0,0,1.8,1.38,4,4,0,0,0,2.13-.78l1,1.82a5.24,5.24,0,0,1-3.3,1.12,4,4,0,0,1-4.25-4A3.84,3.84,0,0,1,851.54,101.81Zm1,3.06a1.08,1.08,0,0,0-1.07-1.16,1.27,1.27,0,0,0-1.24,1.16Z"/><path class="cls-1" d="M860.26,101.81v-2.6h2.44v2.6a4,4,0,1,1,0,8.08v2.82h-2.44v-2.82a4,4,0,1,1,0-8.08Zm0,6v-4a1.87,1.87,0,0,0-1.71,2A1.85,1.85,0,0,0,860.26,107.85Zm4.15-2a1.87,1.87,0,0,0-1.71-2v4A1.85,1.85,0,0,0,864.41,105.87Z"/><path class="cls-1" d="M872.17,101.81a4.05,4.05,0,1,1-4.37,4.06A4.11,4.11,0,0,1,872.17,101.81Zm0,5.92a1.75,1.75,0,0,0,1.76-1.86,1.76,1.76,0,1,0-3.51,0A1.74,1.74,0,0,0,872.18,107.73Z"/><path class="cls-1" d="M877.87,102h2.59v2.73h2.39V102h2.59v7.72h-2.59v-2.82h-2.39v2.82h-2.59Z"/><path class="cls-1" d="M891.11,101.81a4.05,4.05,0,1,1-4.36,4.06A4.11,4.11,0,0,1,891.11,101.81Zm0,5.92a1.74,1.74,0,0,0,1.75-1.86,1.76,1.76,0,1,0-3.51,0A1.75,1.75,0,0,0,891.13,107.73Z"/><path class="cls-1" d="M896.81,102H901c1.54,0,2.62.69,2.62,2a1.94,1.94,0,0,1-.9,1.68v0a1.7,1.7,0,0,1,1.22,1.71c0,1.69-1.41,2.29-2.94,2.29h-4.22Zm3.57,3a.68.68,0,0,0,.69-.76.65.65,0,0,0-.72-.68h-.94V105Zm.17,3.06a.75.75,0,0,0,.82-.76.74.74,0,0,0-.81-.78h-1.15v1.54Z"/><path d="M709.29,31.72a5.68,5.68,0,0,1,3.93,1.46l-.93,1.44a4.73,4.73,0,0,0-2.91-1.13,3.43,3.43,0,0,0-3.57,3.66A3.56,3.56,0,0,0,709.39,41a4.54,4.54,0,0,0,3.09-1.35l1,1.4a5.69,5.69,0,0,1-4.18,1.72,5.3,5.3,0,0,1-5.51-5.55A5.31,5.31,0,0,1,709.29,31.72Z"/><path d="M718.77,37.75h.33v-.1c0-1-.65-1.35-1.44-1.35a3.9,3.9,0,0,0-2.13.73l-.71-1.36a5.25,5.25,0,0,1,3-1A2.85,2.85,0,0,1,721,37.77v4.78h-1.77v-.64a3,3,0,0,1,0-.56h0a2.81,2.81,0,0,1-2.42,1.38,2.34,2.34,0,0,1-2.52-2.29C714.31,38.14,717.07,37.75,718.77,37.75Zm-1.41,3.53a1.94,1.94,0,0,0,1.75-2v-.21h-.33c-1,0-2.58.13-2.58,1.21A1,1,0,0,0,717.36,41.28Z"/><path d="M722.94,34.9h1.81V39c0,.34,0,.79,0,.91h0c.09-.19.37-.61.57-.91l2.83-4.1H730v7.65h-1.82V38.47c0-.28,0-.72.05-.91h0a10.32,10.32,0,0,1-.57.91l-2.84,4.08h-1.84ZM724,32.1v-.2h1.46v.2a.93.93,0,0,0,1,.94,1,1,0,0,0,1-1V31.9h1.44v.2a2.5,2.5,0,0,1-4.92,0Z"/><path d="M733.81,36.52h-2.52V34.9h7v1.62H735.7v6h-1.89Z"/><path d="M742.63,37.53h3.26V34h1.54v3.56h3.24V39h-3.24v3.54h-1.54V39h-3.26Z"/><path class="cls-2" d="M703.6,161.54H708v-4.8h1.6v4.8h4.35v1.52h-4.35v4.8H708v-4.8H703.6Z"/><path class="cls-2" d="M720.17,157a8,8,0,0,1,.78-1.26v0a7.83,7.83,0,0,1-1,0h-6.16v-1.68H723v1.33l-6.2,12.44h-2Z"/><path class="cls-2" d="M729.39,161.23a14.39,14.39,0,0,1,2.26-7.71h1.66a14.86,14.86,0,0,0-2.2,7.73,17.53,17.53,0,0,0,2.2,8.46h-1.66A16.74,16.74,0,0,1,729.39,161.23Z"/><path class="cls-2" d="M733.91,163l6.38-8.87h2.18v8.46h1.87v1.62h-1.87v3.69h-1.89v-3.69h-6.67Zm6.67-.41v-5c0-.64.08-1.38.08-1.38h0a7.18,7.18,0,0,1-.69,1.15L736,162.51v0Z"/><path class="cls-2" d="M747.05,165.85a4.8,4.8,0,0,0,2,.47c2.53,0,3.84-2.34,4.13-4.63h0a3.91,3.91,0,0,1-3,1.29,4.28,4.28,0,0,1-4.35-4.52,4.35,4.35,0,0,1,4.43-4.61c2.94,0,5.15,2.56,5.15,6.5,0,3.53-1.93,7.74-6.21,7.74a6.18,6.18,0,0,1-2.67-.57Zm6.24-6.42c0-1.79-1.37-3.8-3.12-3.8a2.54,2.54,0,0,0-2.52,2.83,2.7,2.7,0,0,0,2.81,2.9C752,161.36,753.29,160.41,753.29,159.43Z"/><path class="cls-2" d="M758.25,164.78a3.89,3.89,0,0,0,3,1.48,2.84,2.84,0,0,0,3-2.79,2.9,2.9,0,0,0-3.12-2.83,4.34,4.34,0,0,0-2.32.68l-1.13-.41.68-6.82h7v1.68h-5.28l-.32,2.9a4.87,4.87,0,0,1-.11.7h0a4.68,4.68,0,0,1,1.79-.41,4.5,4.5,0,0,1,4.8,4.51,4.66,4.66,0,0,1-4.88,4.62,5.45,5.45,0,0,1-4.23-1.91Z"/><path class="cls-2" d="M769.61,161.25a15,15,0,0,0-2.2-7.73h1.65a14.31,14.31,0,0,1,2.26,7.71,16.64,16.64,0,0,1-2.26,8.48h-1.65A17.53,17.53,0,0,0,769.61,161.25Z"/><path class="cls-2" d="M778.34,166.18h3v-8.89c0-.43,0-.84,0-.84h0a3.83,3.83,0,0,1-.66.8l-1.29,1.25-1.17-1.21,3.3-3.2h1.71v12.09h3v1.68h-7.94Z"/><path class="cls-2" d="M788,166.8c0-4.89,6.77-5.61,6.77-8.85a2.3,2.3,0,0,0-2.5-2.28,3.39,3.39,0,0,0-2.79,1.75l-1.42-.95a4.93,4.93,0,0,1,4.37-2.62c2.51,0,4.33,1.58,4.33,4,0,4.53-6.57,5.23-6.65,8.37H797v1.68h-8.87A6.75,6.75,0,0,1,788,166.8Z"/><path class="cls-2" d="M799.89,164.76a4.81,4.81,0,0,0,3.33,1.5,2.64,2.64,0,0,0,2.81-2.52c0-1.7-1.5-2.53-3.22-2.53h-.93l-.45-1,3-3.53a6.41,6.41,0,0,1,.86-.89v0a9,9,0,0,1-1.17.06h-4.66v-1.68h8.23v1.23l-3.75,4.33c1.82.17,4,1.34,4,4a4.46,4.46,0,0,1-4.68,4.41,6.29,6.29,0,0,1-4.46-1.87Z"/><path class="cls-2" d="M810.41,161.46h5.7v1.68h-5.7Z"/><path class="cls-2" d="M818.24,163l6.38-8.87h2.18v8.46h1.88v1.62H826.8v3.69h-1.89v-3.69h-6.67Zm6.67-.41v-5c0-.64.08-1.38.08-1.38h0a7.62,7.62,0,0,1-.68,1.15l-3.9,5.22v0Z"/><path class="cls-2" d="M831.16,164.78a3.85,3.85,0,0,0,3,1.48,2.84,2.84,0,0,0,3-2.79,2.89,2.89,0,0,0-3.12-2.83,4.34,4.34,0,0,0-2.32.68l-1.13-.41.68-6.82h7v1.68H833l-.31,2.9a4,4,0,0,1-.12.7h0a4.68,4.68,0,0,1,1.79-.41,4.5,4.5,0,0,1,4.8,4.51,4.66,4.66,0,0,1-4.87,4.62,5.49,5.49,0,0,1-4.24-1.91Z"/><path class="cls-2" d="M841.62,161.46h5.69v1.68h-5.69Z"/><path class="cls-4" d="M849.87,160.86c0-4,1.29-7.18,5.25-7.18s5.24,3.18,5.24,7.18-1.28,7.23-5.24,7.23S849.87,164.85,849.87,160.86Zm7,0c0-2.27-.39-4.06-1.73-4.06s-1.74,1.79-1.74,4.06.39,4.11,1.74,4.11S856.85,163.14,856.85,160.86Z"/><path class="cls-4" d="M862.31,160.86c0-4,1.29-7.18,5.25-7.18s5.25,3.18,5.25,7.18-1.29,7.23-5.25,7.23S862.31,164.85,862.31,160.86Zm7,0c0-2.27-.38-4.06-1.73-4.06s-1.74,1.79-1.74,4.06.39,4.11,1.74,4.11S869.29,163.14,869.29,160.86Z"/><path d="M762.34,235.64a3.56,3.56,0,0,0,2.49,1.11,2,2,0,0,0,2.21-1.92,1.77,1.77,0,0,0-2-1.76h-1.31v-1.23h1a1.77,1.77,0,0,0,1.91-1.71,1.65,1.65,0,0,0-1.88-1.69,3.63,3.63,0,0,0-2.37.9l-.63-1.11a4.86,4.86,0,0,1,3.21-1.1c1.82,0,3.18,1.05,3.18,2.82a2.58,2.58,0,0,1-1.53,2.39v0a2.5,2.5,0,0,1,1.86,2.53c0,2-1.6,3.18-3.6,3.18a4.7,4.7,0,0,1-3.43-1.44Z"/><path d="M770.43,230.31h3.13c1.53,0,2.54.68,2.54,1.95a1.76,1.76,0,0,1-1.08,1.67h0a1.8,1.8,0,0,1,1.44,1.8c0,1.41-1.14,2.16-2.79,2.16h-3.24Zm2.88,3.21c.87,0,1.3-.45,1.3-1.15s-.43-1.05-1.35-1.05h-1.38v2.2Zm.13,3.36c1,0,1.55-.48,1.55-1.18s-.56-1.2-1.56-1.2h-1.55v2.38Z"/><path d="M781.81,230.13a4,4,0,1,1-4.08,4A4,4,0,0,1,781.81,230.13Zm0,6.69a2.72,2.72,0,1,0-2.61-2.73A2.63,2.63,0,0,0,781.83,236.82Z"/><path d="M787.66,230.31h1.46v3.09H793v-3.09h1.45v7.59H793v-3.25h-3.84v3.25h-1.46Z"/><path d="M800.25,230.13a4,4,0,1,1-4.08,4A4,4,0,0,1,800.25,230.13Zm0,6.69a2.72,2.72,0,1,0-2.61-2.73A2.63,2.63,0,0,0,800.26,236.82Z"/><path d="M806.1,230.31h1.45v3.06h1.07l2.07-3.06h1.65l-2.54,3.62v0l2.84,3.94h-1.73l-2.26-3.28h-1.1v3.28H806.1Z"/><path d="M762.24,248.31h6.63v7.59h-1.46v-6.34h-3.72v6.34h-1.45Z"/><path d="M774.43,248.13a3.24,3.24,0,0,1,3.29,3.56,4.49,4.49,0,0,1-.06.61h-5.52a2.49,2.49,0,0,0,2.61,2.52,3.42,3.42,0,0,0,2.23-.88l.62,1.06a4.53,4.53,0,0,1-2.94,1.08,3.87,3.87,0,0,1-4-4A3.73,3.73,0,0,1,774.43,248.13Zm1.82,3.12a1.85,1.85,0,0,0-1.85-2,2.2,2.2,0,0,0-2.22,2Z"/><path d="M779.47,248.31h1.35V249a4.19,4.19,0,0,1,0,.57h0a2.77,2.77,0,0,1,2.55-1.43c2,0,3.33,1.62,3.33,4s-1.44,4-3.44,4a2.77,2.77,0,0,1-2.35-1.29h0a3.35,3.35,0,0,1,.06.66v3.45h-1.46Zm3.56,6.51c1.2,0,2.19-1,2.19-2.7s-.89-2.71-2.15-2.71-2.19.81-2.19,2.73C780.88,253.49,781.63,254.82,783,254.82Z"/><path d="M791.8,248.13a3.24,3.24,0,0,1,3.29,3.56,4.49,4.49,0,0,1-.06.61h-5.52a2.49,2.49,0,0,0,2.61,2.52,3.42,3.42,0,0,0,2.23-.88L795,255a4.53,4.53,0,0,1-2.94,1.08,3.87,3.87,0,0,1-4-4A3.73,3.73,0,0,1,791.8,248.13Zm1.82,3.12a1.85,1.85,0,0,0-1.85-2,2.2,2.2,0,0,0-2.22,2Z"/><path d="M800.74,251.18h.39V251a1.48,1.48,0,0,0-1.66-1.67,3.76,3.76,0,0,0-2.13.74l-.59-1.07a4.85,4.85,0,0,1,2.84-.9,2.71,2.71,0,0,1,3,3v4.8h-1.37v-.76a3.38,3.38,0,0,1,0-.6h0a2.81,2.81,0,0,1-2.49,1.54,2.34,2.34,0,0,1-2.54-2.25C796.21,251.45,799.17,251.18,800.74,251.18Zm-1.65,3.75a2.28,2.28,0,0,0,2-2.42v-.28h-.37c-1.08,0-3.09.09-3.09,1.48A1.28,1.28,0,0,0,799.09,254.93Z"/><path d="M804.72,254.7c1.06-1.45,1.18-3.82,1.18-5v-1.4H811v6.39h1.08v3h-1.33v-1.8h-5.63v1.8h-1.36v-3Zm4.86,0v-5.2H807.3v.4a9.5,9.5,0,0,1-1.08,4.8Z"/><path d="M813.64,248.31H815V249a4.19,4.19,0,0,1,0,.57h0a2.77,2.77,0,0,1,2.55-1.43c2.05,0,3.33,1.62,3.33,4s-1.44,4-3.44,4a2.77,2.77,0,0,1-2.35-1.29h0a3.35,3.35,0,0,1,.06.66v3.45h-1.46Zm3.56,6.51c1.2,0,2.19-1,2.19-2.7s-.89-2.71-2.15-2.71-2.19.81-2.19,2.73C815.05,253.49,815.8,254.82,817.2,254.82Z"/><path d="M826,248.13a3.24,3.24,0,0,1,3.29,3.56,4.49,4.49,0,0,1-.06.61h-5.52a2.49,2.49,0,0,0,2.61,2.52,3.42,3.42,0,0,0,2.23-.88l.62,1.06a4.53,4.53,0,0,1-2.94,1.08,3.87,3.87,0,0,1-4-4A3.73,3.73,0,0,1,826,248.13Zm1.82,3.12a1.85,1.85,0,0,0-1.85-2,2.2,2.2,0,0,0-2.22,2Z"/><path d="M834.58,248.13a4,4,0,0,1,2.85,1.11l-.69,1a3.07,3.07,0,0,0-2.1-.87,2.6,2.6,0,0,0-2.64,2.7,2.63,2.63,0,0,0,2.69,2.73,3.38,3.38,0,0,0,2.34-1l.58,1.07a4.26,4.26,0,0,1-3,1.21,4,4,0,1,1,0-7.95Z"/><path d="M842.59,248.13a4,4,0,1,1-4.08,4A4,4,0,0,1,842.59,248.13Zm0,6.69a2.72,2.72,0,1,0-2.61-2.73A2.63,2.63,0,0,0,842.61,254.82Z"/><path d="M848.44,248.31h3.14c1.53,0,2.53.68,2.53,1.95a1.76,1.76,0,0,1-1.08,1.67h0a1.79,1.79,0,0,1,1.44,1.8c0,1.41-1.14,2.16-2.79,2.16h-3.24Zm2.88,3.21c.87,0,1.31-.45,1.31-1.15s-.44-1.05-1.35-1.05H849.9v2.2Zm.14,3.36c1,0,1.54-.48,1.54-1.18s-.55-1.2-1.56-1.2H849.9v2.38Z"/><path d="M856.24,248.31h1.46v2.75h1.48c1.58,0,2.76.72,2.76,2.44,0,1.43-.87,2.4-2.77,2.4h-2.93Zm2.73,6.54c1,0,1.5-.57,1.5-1.36s-.46-1.38-1.51-1.38H857.7v2.74Zm4.14-6.54h1.46v7.59h-1.46Z"/><path d="M866.82,248.31H870c1.53,0,2.54.68,2.54,1.95a1.76,1.76,0,0,1-1.08,1.67h0a1.8,1.8,0,0,1,1.44,1.8c0,1.41-1.14,2.16-2.79,2.16h-3.24Zm2.88,3.21c.87,0,1.3-.45,1.3-1.15s-.43-1.05-1.35-1.05h-1.38v2.2Zm.13,3.36c1,0,1.55-.48,1.55-1.18s-.56-1.2-1.56-1.2h-1.55v2.38Z"/><path d="M878.52,251.18h.39V251a1.48,1.48,0,0,0-1.67-1.67,3.78,3.78,0,0,0-2.13.74l-.58-1.07a4.82,4.82,0,0,1,2.83-.9,2.7,2.7,0,0,1,3,3v4.8H879v-.76a4.2,4.2,0,0,1,0-.6h0a2.78,2.78,0,0,1-2.49,1.54,2.33,2.33,0,0,1-2.53-2.25C874,251.45,876.94,251.18,878.52,251.18Zm-1.65,3.75a2.28,2.28,0,0,0,2-2.42v-.28h-.38c-1.08,0-3.09.09-3.09,1.48A1.29,1.29,0,0,0,876.87,254.93Z"/><path d="M885.82,248.13a3.24,3.24,0,0,1,3.29,3.56,4.49,4.49,0,0,1-.06.61h-5.52a2.49,2.49,0,0,0,2.61,2.52,3.42,3.42,0,0,0,2.23-.88L889,255a4.53,4.53,0,0,1-2.94,1.08,3.87,3.87,0,0,1-4-4A3.73,3.73,0,0,1,885.82,248.13Zm1.82,3.12a1.85,1.85,0,0,0-1.85-2,2.2,2.2,0,0,0-2.22,2Z"/><path d="M892.6,249.56H890v-1.25h6.74v1.25H894v6.34H892.6Z"/><path d="M901.43,248.13a4,4,0,0,1,2.86,1.11l-.7,1a3.06,3.06,0,0,0-2.09-.87,2.59,2.59,0,0,0-2.64,2.7,2.62,2.62,0,0,0,2.68,2.73,3.38,3.38,0,0,0,2.34-1l.58,1.07a4.25,4.25,0,0,1-3,1.21,4,4,0,1,1,0-7.95Z"/><path d="M907,253.38a3.29,3.29,0,0,1,.35-.46v0a2.26,2.26,0,0,1-1.65-2.2c0-1.56,1.11-2.39,2.71-2.39h3v7.59H910v-2.74h-1.28l-1.86,2.74h-1.6Zm3-1.29v-2.77H908.8c-1,0-1.6.39-1.6,1.36a1.38,1.38,0,0,0,1.56,1.41Z"/><path d="M762.24,266.31h3.13c1.53,0,2.54.68,2.54,1.95a1.76,1.76,0,0,1-1.08,1.67h0a1.8,1.8,0,0,1,1.44,1.8c0,1.41-1.14,2.16-2.79,2.16h-3.24Zm2.88,3.21c.87,0,1.3-.45,1.3-1.15s-.43-1.05-1.35-1.05h-1.38v2.2Zm.13,3.36c1,0,1.55-.48,1.55-1.18s-.56-1.2-1.56-1.2h-1.55v2.38Z"/><path d="M773.79,266.31h1.45v3.06h1.07l2.07-3.06H780l-2.54,3.62v0l2.84,3.94H778.6l-2.26-3.28h-1.1v3.28h-1.45Z"/><path d="M784.89,266.13a4,4,0,1,1-4.08,4A4,4,0,0,1,784.89,266.13Zm0,6.69a2.72,2.72,0,1,0-2.61-2.73A2.63,2.63,0,0,0,784.9,272.82Z"/><path d="M789.7,272.67c1.11-.16,1.71-1.27,1.71-4v-2.34h5.09v7.59H795v-6.39h-2.23v1.14c0,3.44-.87,5.21-3.11,5.33Z"/><path d="M797.92,272.67c1.11-.16,1.71-1.27,1.71-4v-2.34h5.09v7.59h-1.46v-6.39H801v1.14c0,3.44-.87,5.21-3.11,5.33Z"/><path d="M806.89,269h4.38v1.29h-4.38Z"/><path d="M813.45,266.31h1.45v6.33h3.62v-6.33H820v6.33h1.06v3.06h-1.33v-1.8h-6.27Z"/><path d="M825.82,266.13a3.24,3.24,0,0,1,3.29,3.56,4.49,4.49,0,0,1-.06.61h-5.52a2.49,2.49,0,0,0,2.61,2.52,3.42,3.42,0,0,0,2.23-.88L829,273a4.53,4.53,0,0,1-2.94,1.08,3.87,3.87,0,0,1-4-4A3.73,3.73,0,0,1,825.82,266.13Zm1.82,3.12a1.85,1.85,0,0,0-1.85-2,2.2,2.2,0,0,0-2.22,2Z"/><path d="M830.86,266.31h1.46v3.09h3.84v-3.09h1.45v7.59h-1.45v-3.25h-3.84v3.25h-1.46Z"/><path d="M841.69,267.56h-2.64v-1.25h6.74v1.25h-2.66v6.34h-1.44Z"/><path d="M847.21,266.31h1.35V267a4.19,4.19,0,0,1,0,.57h0a2.77,2.77,0,0,1,2.55-1.43c2,0,3.33,1.62,3.33,4s-1.44,4-3.44,4a2.77,2.77,0,0,1-2.35-1.29h0a3.35,3.35,0,0,1,.06.66v3.45h-1.46Zm3.56,6.51c1.2,0,2.19-1,2.19-2.7s-.89-2.71-2.15-2.71-2.19.81-2.19,2.73C848.62,271.49,849.37,272.82,850.77,272.82Z"/><path d="M705,190.24h1.93v6H714v-6H716V204H714v-6h-7.16v6H705Z"/><path d="M723.69,193.9a5.17,5.17,0,1,1-5.31,5.15A5.15,5.15,0,0,1,723.69,193.9Zm0,8.7a3.53,3.53,0,1,0-3.4-3.55A3.42,3.42,0,0,0,723.71,202.6Z"/><path d="M731.74,194.14h2.1l2.52,5.57c.27.59.54,1.33.54,1.33h0l.55-1.33,2.57-5.57h2.07L743,204h-1.83l-.43-5.87c0-.58,0-1.69,0-1.69h0s-.26.68-.63,1.44l-2.34,4.93h-1.62l-2.34-4.91-.62-1.46h0s.06,1.11,0,1.69l-.43,5.87h-1.83Z"/><path d="M749.83,193.9c2.79,0,4.27,2.09,4.27,4.62a5.56,5.56,0,0,1-.08.8h-7.17a3.24,3.24,0,0,0,3.39,3.28,4.46,4.46,0,0,0,2.9-1.15l.8,1.38a5.87,5.87,0,0,1-3.82,1.41,5,5,0,0,1-5.24-5.17A4.85,4.85,0,0,1,749.83,193.9Zm2.36,4.06a2.4,2.4,0,0,0-2.4-2.59A2.87,2.87,0,0,0,746.9,198Z"/><path d="M756.38,194.14h1.75V195a4.61,4.61,0,0,1-.06.74h0a3.64,3.64,0,0,1,3.32-1.85c2.67,0,4.33,2.11,4.33,5.17s-1.87,5.17-4.47,5.17a3.62,3.62,0,0,1-3.06-1.68h0a4.25,4.25,0,0,1,.08.86v4.48h-1.89ZM761,202.6c1.56,0,2.85-1.27,2.85-3.51s-1.15-3.53-2.79-3.53c-1.48,0-2.85,1.05-2.85,3.55C758.21,200.86,759.19,202.6,761,202.6Z"/><path d="M773,194.14h1.89v4h1.38l2.69-4h2.15l-3.3,4.7v0l3.69,5.12h-2.24l-3-4.27h-1.42V204H773Z"/><path d="M787.39,193.9a5.17,5.17,0,1,1-5.3,5.15A5.15,5.15,0,0,1,787.39,193.9Zm0,8.7a3.53,3.53,0,0,0,0-7.06,3.53,3.53,0,0,0,0,7.06Z"/><path d="M795.45,194.14h2.1l2.52,5.57c.27.59.54,1.33.54,1.33h0s.29-.72.55-1.33l2.57-5.57h2.07l.86,9.86h-1.84l-.42-5.87c0-.58,0-1.69,0-1.69h0s-.26.68-.63,1.44l-2.34,4.93h-1.62l-2.34-4.91c-.31-.72-.62-1.46-.62-1.46h0s.06,1.11,0,1.69l-.43,5.87h-1.83Z"/><path d="M809.23,194.14h8.62V204H816v-8.25h-4.84V204h-1.89Z"/><path d="M825.84,197.86h.51v-.19a1.93,1.93,0,0,0-2.17-2.17,4.93,4.93,0,0,0-2.77,1l-.76-1.39a6.31,6.31,0,0,1,3.69-1.17c2.47,0,3.9,1.37,3.9,3.86V204h-1.78v-1a4.83,4.83,0,0,1,.06-.78h0a3.63,3.63,0,0,1-3.23,2,3,3,0,0,1-3.3-2.93C820,198.21,823.79,197.86,825.84,197.86Zm-2.15,4.88c1.66,0,2.66-1.68,2.66-3.14v-.37h-.49c-1.4,0-4,.11-4,1.93A1.67,1.67,0,0,0,823.69,202.74Z"/><path d="M831,194.14h1.9v4h5v-4h1.89V204h-1.89v-4.23h-5V204H831Z"/><path d="M842.72,194.14h1.81V200c0,.52,0,1.22-.06,1.32h0c.08-.17.55-.86.88-1.32l4.25-5.89h1.84V204h-1.84v-5.89c0-.46.06-1.15.06-1.3h0a13.77,13.77,0,0,1-.86,1.3L844.53,204h-1.81Z"/><path d="M854.38,194.14h1.81V200c0,.52,0,1.22-.06,1.32h0c.08-.17.55-.86.88-1.32l4.25-5.89h1.83V204H861.3v-5.89c0-.46.06-1.15.06-1.3h0c-.06.17-.55.84-.86,1.3L856.19,204h-1.81Z"/><path d="M712.65,247.32h0a2.45,2.45,0,0,0-2.45,2.44v12a2.45,2.45,0,0,0,2.45,2.45h0a2.45,2.45,0,0,0,2.44-2.45v-12A2.45,2.45,0,0,0,712.65,247.32Z"/><path d="M734.47,247.32a2.45,2.45,0,0,0-2.44,2.44v12a2.45,2.45,0,0,0,2.44,2.45h0a2.45,2.45,0,0,0,2.45-2.45v-12a2.45,2.45,0,0,0-2.45-2.44Z"/><path class="cls-1" d="M744.06,253.58a4,4,0,0,0-2.33-3.64c0-.07,0-.15,0-.22a18,18,0,0,0-4.56-12c-.06.11-.12.22-.19.33a5,5,0,0,1-1.31,1.39,15.8,15.8,0,0,1,3.81,10.3c0,.16,0,.32,0,.48h0v11.4h.56a4,4,0,0,0,1.61-.34v2a3.5,3.5,0,0,1-3.5,3.49h-6.31a3.71,3.71,0,0,0-3.52-2.57h-1v7.38h1a3.71,3.71,0,0,0,3.52-2.57h6.35a5.73,5.73,0,0,0,5.7-5.69h0V258.7a3.68,3.68,0,0,0,.16-1.11Z"/><path d="M720,267.86a3.7,3.7,0,0,0,3.69,3.69h1v-7.38h-1A3.7,3.7,0,0,0,720,267.86Z"/><path d="M731.55,237.4a2.37,2.37,0,1,0,2.53-4,19.48,19.48,0,0,0-21,0,2.37,2.37,0,1,0,2.53,4,14.78,14.78,0,0,1,15.9,0Z"/><path class="cls-1" d="M711.52,239.42a5,5,0,0,1-1.31-1.39c-.07-.11-.13-.22-.19-.33a18,18,0,0,0-4.56,12,1.62,1.62,0,0,0,0,.22,4,4,0,0,0-2.33,3.64v4a4,4,0,0,0,4,4h.56V250.2h0c0-.16,0-.32,0-.48A15.8,15.8,0,0,1,711.52,239.42Z"/></svg>