<svg id="Layer_1" data-name="Layer 1" xmlns="http://www.w3.org/2000/svg" viewBox="0 0 320 500"><defs><style>.cls-1{fill:#3d454d;}.cls-2{fill:#ca75ed;}.cls-3{fill:#e0af22;}.cls-4{fill:#1f282c;}.cls-5{fill:#3cb0cb;}.cls-6{fill:#3dafcc;}.cls-7{fill:#f2c43f;}.cls-8{fill:#d788f7;}</style></defs><title>1Artboard 3 copy</title><rect class="cls-1" x="60.18" y="221.7" width="1" height="25.88"/><polygon class="cls-1" points="60.67 248.06 53.65 241.23 54.34 240.51 60.67 246.66 67 240.51 67.7 241.23 60.67 248.06"/><rect class="cls-1" x="159.98" y="221.7" width="1" height="25.88"/><polygon class="cls-1" points="160.47 248.06 153.45 241.23 154.14 240.51 160.47 246.66 166.8 240.51 167.5 241.23 160.47 248.06"/><rect class="cls-1" x="259.48" y="221.7" width="1" height="25.88"/><polygon class="cls-1" points="259.97 248.06 252.95 241.23 253.64 240.51 259.97 246.66 266.3 240.51 267 241.23 259.97 248.06"/><rect class="cls-1" x="159.83" y="313.49" width="1" height="25.88"/><polygon class="cls-1" points="160.32 339.85 153.3 333.02 153.99 332.3 160.32 338.45 166.65 332.3 167.35 333.02 160.32 339.85"/><polygon class="cls-1" points="191.43 340.01 190.73 339.3 217.47 313.07 218.17 313.79 191.43 340.01"/><polygon class="cls-1" points="200.53 340.12 190.73 339.99 190.59 330.19 191.59 330.18 191.72 339 200.54 339.12 200.53 340.12"/><rect class="cls-1" x="115.7" y="307.81" width="1" height="37.47" transform="translate(-198.37 181.02) rotate(-45.59)"/><polygon class="cls-1" points="120.13 340.12 120.12 339.12 128.94 339 129.07 330.18 130.07 330.19 129.93 339.99 120.13 340.12"/><path class="cls-1" d="M128.68,280.44h2.24V278h.82v2.46H134v.78h-2.23v2.46h-.82v-2.46h-2.24Z"/><path class="cls-1" d="M137.32,278.13a4.3,4.3,0,0,1,.4-.65v0a4.12,4.12,0,0,1-.5,0h-3.16v-.86h4.72v.68l-3.18,6.38h-1Z"/><path class="cls-1" d="M141.86,281.17l3.27-4.55h1.12V281h1v.83h-1v1.89h-1v-1.89h-3.42Zm3.42-.21v-2.58c0-.33,0-.71,0-.71h0a3.87,3.87,0,0,1-.35.59l-2,2.68v0Z"/><path class="cls-1" d="M148.72,282.65a2.42,2.42,0,0,0,1,.24c1.3,0,2-1.2,2.12-2.37h0a2,2,0,0,1-1.56.66,2.19,2.19,0,0,1-2.23-2.32,2.23,2.23,0,0,1,2.27-2.36c1.51,0,2.64,1.31,2.64,3.33,0,1.81-1,4-3.18,4a3.16,3.16,0,0,1-1.37-.29Zm3.2-3.29a1.9,1.9,0,0,0-1.6-1.95,1.3,1.3,0,0,0-1.29,1.45,1.38,1.38,0,0,0,1.44,1.49C151.27,280.35,151.92,279.86,151.92,279.36Z"/><path class="cls-1" d="M154.59,282.1a2,2,0,0,0,1.55.76,1.46,1.46,0,0,0,1.54-1.43,1.48,1.48,0,0,0-1.6-1.45,2.24,2.24,0,0,0-1.19.35l-.58-.21.35-3.5h3.57v.86h-2.71l-.16,1.49a2.15,2.15,0,0,1-.06.36h0a2.36,2.36,0,0,1,.92-.21,2.31,2.31,0,0,1,2.46,2.31,2.39,2.39,0,0,1-2.5,2.37,2.81,2.81,0,0,1-2.17-1Z"/><path class="cls-1" d="M162.37,282.63h1v1.05h-1Z"/><path class="cls-1" d="M164.9,282.63h1v1.05h-1Z"/><path class="cls-1" d="M167.43,282.63h1v1.05h-1Z"/><path class="cls-1" d="M172.37,282.63h1v1.05h-1Z"/><path class="cls-1" d="M174.89,282.63h1.05v1.05h-1.05Z"/><path class="cls-2" d="M181.39,280.75,179,276.53h2l.81,1.72c.23.49.43,1,.43,1h0s.2-.54.43-1l.8-1.72h2l-2.36,4.22v2.93h-1.75Z"/><path class="cls-2" d="M188.19,280.75l-2.36-4.22h2l.81,1.72c.23.49.43,1,.43,1h0s.2-.54.43-1l.8-1.72h2l-2.36,4.22v2.93h-1.75Z"/><path class="cls-1" d="M228.33,280.44h2.23V278h.82v2.46h2.23v.78h-2.23v2.46h-.82v-2.46h-2.23Z"/><path class="cls-1" d="M237,278.13a4.3,4.3,0,0,1,.4-.65v0a4.12,4.12,0,0,1-.5,0h-3.15v-.86h4.71v.68l-3.17,6.38h-1Z"/><path class="cls-1" d="M241.51,281.17l3.26-4.55h1.12V281h1v.83h-1v1.89h-1v-1.89h-3.41Zm3.41-.21v-2.58c0-.33,0-.71,0-.71h0a3.87,3.87,0,0,1-.35.59l-2,2.68v0Z"/><path class="cls-1" d="M248.37,282.65a2.42,2.42,0,0,0,1,.24c1.29,0,2-1.2,2.12-2.37h0a2,2,0,0,1-1.55.66,2.19,2.19,0,0,1-2.23-2.32A2.23,2.23,0,0,1,250,276.5c1.5,0,2.63,1.31,2.63,3.33,0,1.81-1,4-3.17,4a3.16,3.16,0,0,1-1.37-.29Zm3.19-3.29c0-.92-.69-1.95-1.59-1.95a1.3,1.3,0,0,0-1.29,1.45,1.38,1.38,0,0,0,1.44,1.49C250.92,280.35,251.56,279.86,251.56,279.36Z"/><path class="cls-1" d="M254.23,282.1a2,2,0,0,0,1.55.76,1.46,1.46,0,0,0,1.54-1.43,1.48,1.48,0,0,0-1.6-1.45,2.24,2.24,0,0,0-1.19.35l-.58-.21.35-3.5h3.57v.86h-2.71L255,279a2.15,2.15,0,0,1-.06.36h0a2.36,2.36,0,0,1,.92-.21,2.31,2.31,0,0,1,2.46,2.31,2.39,2.39,0,0,1-2.5,2.37,2.81,2.81,0,0,1-2.17-1Z"/><path class="cls-1" d="M262,282.63h1v1.05h-1Z"/><path class="cls-1" d="M264.54,282.63h1v1.05h-1Z"/><path class="cls-1" d="M267.07,282.63h1v1.05h-1Z"/><path class="cls-1" d="M272,282.63h1v1.05h-1Z"/><path class="cls-1" d="M274.54,282.63h1v1.05h-1Z"/><path class="cls-1" d="M279.15,282.58l2.76-3.91a4,4,0,0,1,.55-.65v0a4.71,4.71,0,0,1-.55,0h-2.63v-1.5h5.39v1.08l-2.76,3.93a4,4,0,0,1-.55.65v0a4.71,4.71,0,0,1,.55,0h2.81v1.5h-5.57Z"/><path class="cls-1" d="M285.58,282.58l2.76-3.91a4,4,0,0,1,.55-.65v0a4.71,4.71,0,0,1-.55,0h-2.63v-1.5h5.39v1.08l-2.76,3.93a4,4,0,0,1-.55.65v0a4.71,4.71,0,0,1,.55,0h2.81v1.5h-5.57Z"/><path class="cls-1" d="M28.83,280.44h2.23V278h.82v2.46h2.23v.78H31.88v2.46h-.82v-2.46H28.83Z"/><path class="cls-1" d="M37.46,278.13a4.3,4.3,0,0,1,.4-.65v0a4.12,4.12,0,0,1-.5,0H34.21v-.86h4.71v.68l-3.17,6.38h-1Z"/><path class="cls-1" d="M42,281.17l3.26-4.55h1.12V281h1v.83h-1v1.89h-1v-1.89H42Zm3.41-.21v-2.58c0-.33,0-.71,0-.71h0a3.87,3.87,0,0,1-.35.59l-2,2.68v0Z"/><path class="cls-1" d="M48.87,282.65a2.42,2.42,0,0,0,1,.24c1.29,0,2-1.2,2.12-2.37h0a2,2,0,0,1-1.55.66,2.19,2.19,0,0,1-2.23-2.32,2.23,2.23,0,0,1,2.27-2.36c1.5,0,2.63,1.31,2.63,3.33,0,1.81-1,4-3.17,4a3.16,3.16,0,0,1-1.37-.29Zm3.19-3.29c0-.92-.69-1.95-1.59-1.95a1.3,1.3,0,0,0-1.29,1.45,1.38,1.38,0,0,0,1.44,1.49C51.42,280.35,52.06,279.86,52.06,279.36Z"/><path class="cls-1" d="M54.73,282.1a2,2,0,0,0,1.55.76,1.46,1.46,0,0,0,1.54-1.43,1.48,1.48,0,0,0-1.6-1.45,2.24,2.24,0,0,0-1.19.35l-.58-.21.35-3.5h3.57v.86H55.66L55.5,279a2.15,2.15,0,0,1-.06.36h0a2.36,2.36,0,0,1,.92-.21,2.31,2.31,0,0,1,2.46,2.31,2.39,2.39,0,0,1-2.5,2.37,2.81,2.81,0,0,1-2.17-1Z"/><path class="cls-1" d="M62.51,282.63h1v1.05h-1Z"/><path class="cls-1" d="M65,282.63h1v1.05H65Z"/><path class="cls-1" d="M67.57,282.63h1v1.05h-1Z"/><path class="cls-1" d="M72.51,282.63h1v1.05h-1Z"/><path class="cls-1" d="M75,282.63h1v1.05H75Z"/><path class="cls-3" d="M81.53,280.13l-2.18-3.6h2l.78,1.47c.24.45.44.92.44.92h0s.19-.46.44-.92l.79-1.47h2l-2.18,3.6,2.18,3.55h-2l-.82-1.5c-.25-.45-.44-.89-.44-.89h0s-.19.44-.44.89l-.82,1.5H79.36Z"/><path class="cls-3" d="M88.12,280.13l-2.18-3.6h2l.78,1.47c.24.45.44.92.44.92h0s.19-.46.44-.92l.79-1.47h2l-2.19,3.6,2.18,3.55H90.43l-.82-1.5c-.25-.45-.44-.89-.44-.89h0s-.19.44-.44.89l-.82,1.5H86Z"/><rect class="cls-1" x="60.03" y="79.95" width="1" height="25.88"/><polygon class="cls-1" points="60.52 106.3 53.5 99.47 54.19 98.76 60.52 104.91 66.85 98.76 67.55 99.47 60.52 106.3"/><rect class="cls-1" x="159.83" y="79.95" width="1" height="25.88"/><polygon class="cls-1" points="160.32 106.3 153.3 99.47 153.99 98.76 160.32 104.91 166.65 98.76 167.35 99.47 160.32 106.3"/><rect class="cls-1" x="259.33" y="79.95" width="1" height="25.88"/><polygon class="cls-1" points="259.82 106.3 252.8 99.47 253.49 98.76 259.82 104.91 266.15 98.76 266.85 99.47 259.82 106.3"/><path class="cls-4" d="M34.92,333.82a6.63,6.63,0,0,0,0-8.4l-4.2,4.2Z"/><path class="cls-5" d="M34,334.74l-4.2-4.2-4.2,4.2-1.38,1.38a8.57,8.57,0,0,0,11.15,0Zm-4.21-2.18,1.73,1.75H28.05Z"/><path class="cls-4" d="M29.8,323a6.62,6.62,0,0,0-5.12,10.82L34,324.5a6.61,6.61,0,0,0-4.2-1.5"/><path class="cls-4" d="M44,325.82a3.55,3.55,0,0,1,2.52.93l-.6.93A3,3,0,0,0,44,327a2.22,2.22,0,0,0-2.29,2.34,2.3,2.3,0,0,0,2.3,2.44,3,3,0,0,0,2-.86l.65.89A3.66,3.66,0,0,1,44,332.88a3.53,3.53,0,0,1,0-7.06"/><path class="cls-4" d="M50.13,329.69h.16v-.07c0-.65-.4-.87-.94-.87a2.6,2.6,0,0,0-1.34.47l-.47-.87a3.3,3.3,0,0,1,1.93-.61,1.82,1.82,0,0,1,2,2v3.06H50.38v-.4a3.16,3.16,0,0,1,0-.35h0a1.59,1.59,0,0,1-1.49.87,1.54,1.54,0,0,1-1.66-1.53c0-1.56,2.1-1.66,2.9-1.66m-.93,2.24a1.26,1.26,0,0,0,1.1-1.29v-.12h-.21c-.62,0-1.63.09-1.63.77a.66.66,0,0,0,.74.64"/><path class="cls-4" d="M52.68,325.94h1.21v5.11c0,.54.18.67.5.67h.18v1.07a2.61,2.61,0,0,1-.38,0c-.68,0-1.51-.17-1.51-1.58Z"/><path class="cls-4" d="M55.41,325.94h1.21v5.11c0,.54.18.67.5.67h.18v1.07a2.61,2.61,0,0,1-.38,0c-.68,0-1.51-.17-1.51-1.58Z"/><path class="cls-4" d="M58.39,328.91h-.64v-1h.67v-1.42h1.19v1.42h1.11v1H59.61v1.9a.86.86,0,0,0,1,.92,1.12,1.12,0,0,0,.22,0v1.07a2,2,0,0,1-.38,0,1.79,1.79,0,0,1-2-1.85Z"/><path class="cls-4" d="M64.13,327.74a2.57,2.57,0,1,1-2.7,2.57,2.59,2.59,0,0,1,2.7-2.57m0,4.1a1.53,1.53,0,1,0-1.46-1.53,1.47,1.47,0,0,0,1.46,1.53"/><path class="cls-4" d="M67.77,327.86H69v2.9c0,.6.15,1,.76,1a1.47,1.47,0,0,0,1.37-1.65v-2.25h1.22v4.9H71.17v-.56a2.86,2.86,0,0,1,0-.34h0a1.89,1.89,0,0,1-1.7,1c-1,0-1.7-.53-1.7-1.87Z"/><path class="cls-4" d="M76,327.74a2.48,2.48,0,0,1,1.88.73l-.54.84a1.92,1.92,0,0,0-1.28-.53,1.46,1.46,0,0,0-1.49,1.52,1.49,1.49,0,0,0,1.53,1.54,2.23,2.23,0,0,0,1.44-.63l.48.87a2.81,2.81,0,0,1-2,.8,2.57,2.57,0,1,1,0-5.14"/><path class="cls-4" d="M78.9,325.94h1.22v2.36c0,.24,0,.42,0,.42h0a1.88,1.88,0,0,1,1.69-1c1.09,0,1.7.57,1.7,1.87v3.15H82.3v-2.9c0-.6-.15-1-.78-1a1.37,1.37,0,0,0-1.32,1,2.09,2.09,0,0,0-.08.63v2.25H78.9Z"/><path class="cls-6" d="M23.87,345.37h4.59V351h-1v-4.78H24.9V351h-1Z"/><path class="cls-6" d="M31.59,346.87A2.14,2.14,0,1,1,29.36,349,2.15,2.15,0,0,1,31.59,346.87Zm0,3.41A1.27,1.27,0,1,0,30.39,349,1.22,1.22,0,0,0,31.6,350.28Z"/><path class="cls-6" d="M34.19,350.19c.5-.07.85-.5.85-1.94V347h3V351H37v-3.25H36v.46c0,1.77-.47,2.79-1.82,2.84Z"/><path class="cls-6" d="M39.11,347h1v1.4h.76c1,0,1.54.46,1.54,1.35S41.94,351,40.87,351H39.11Zm1.6,3.38a.6.6,0,0,0,.68-.64.61.61,0,0,0-.69-.66h-.58v1.3Z"/><path class="cls-6" d="M43.22,349.89a1.61,1.61,0,0,0,1,.47c.43,0,.7-.21.7-.55s-.19-.51-.68-.51h-.49v-.7h.41c.36,0,.63-.13.63-.47s-.2-.49-.61-.49a1.81,1.81,0,0,0-1,.33l-.33-.64a2.49,2.49,0,0,1,1.51-.46c.8,0,1.43.4,1.43,1.12a1,1,0,0,1-.56.92v0a1,1,0,0,1,.69.93c0,.85-.72,1.28-1.61,1.28a2.38,2.38,0,0,1-1.58-.6Z"/><path class="cls-6" d="M48.81,346.87A2.14,2.14,0,1,1,46.58,349,2.15,2.15,0,0,1,48.81,346.87Zm0,3.41A1.27,1.27,0,1,0,47.61,349,1.21,1.21,0,0,0,48.82,350.28Z"/><path class="cls-6" d="M51.9,347h1.89c.83,0,1.38.37,1.38,1a1,1,0,0,1-.54.9h0a.92.92,0,0,1,.72.93c0,.82-.66,1.18-1.52,1.18H51.9Zm1.68,1.68a.5.5,0,0,0,.56-.54c0-.3-.18-.48-.58-.48h-.65v1Zm.08,1.72c.45,0,.67-.23.67-.54s-.23-.55-.67-.55h-.75v1.09Z"/><path class="cls-6" d="M58.26,348.49h.18v-.06c0-.54-.34-.72-.77-.72a2.11,2.11,0,0,0-1.13.39l-.38-.72a2.75,2.75,0,0,1,1.6-.51,1.52,1.52,0,0,1,1.7,1.62V351h-1v-.34a1.32,1.32,0,0,1,0-.29h0a1.49,1.49,0,0,1-1.29.73,1.25,1.25,0,0,1-1.34-1.22C55.89,348.7,57.36,348.49,58.26,348.49Zm-.75,1.88a1,1,0,0,0,.94-1.08v-.11h-.18c-.51,0-1.37.07-1.37.65A.56.56,0,0,0,57.51,350.37Z"/><path class="cls-6" d="M61.4,347.83H60.06V347h3.7v.86H62.41V351h-1Z"/><path class="cls-6" d="M66.18,346.87a1.77,1.77,0,0,1,1.8,1.94,2.66,2.66,0,0,1,0,.39H65.14a1.16,1.16,0,0,0,1.23,1.08,2,2,0,0,0,1.17-.45l.4.73a2.58,2.58,0,0,1-1.64.58A2.09,2.09,0,0,1,64.1,349,2,2,0,0,1,66.18,346.87ZM67,348.5a.8.8,0,0,0-.82-.86,1,1,0,0,0-1,.86Z"/><path class="cls-6" d="M68.45,350.19c.51-.07.86-.5.86-1.94V347h3V351h-1v-3.25h-1v.46c0,1.77-.47,2.79-1.82,2.84Z"/><path class="cls-6" d="M73.37,347h1v2.18a4.68,4.68,0,0,1,0,.49h0c0-.11.2-.33.3-.49L76.14,347h1V351h-1v-2.17c0-.15,0-.38,0-.49h0c0,.11-.2.33-.3.49L74.35,351h-1Z"/><path class="cls-6" d="M78.42,350h1l-.78,1.87h-.77Z"/><path class="cls-6" d="M25.55,356.47a1.77,1.77,0,0,1,1.81,1.94c0,.12,0,.26,0,.39H24.52a1.16,1.16,0,0,0,1.22,1.08,2,2,0,0,0,1.17-.45l.4.73a2.54,2.54,0,0,1-1.64.58,2.09,2.09,0,0,1-2.2-2.13A2,2,0,0,1,25.55,356.47Zm.79,1.63a.8.8,0,0,0-.81-.86,1,1,0,0,0-1,.86Z"/><path class="cls-6" d="M28.24,359.83a4.65,4.65,0,0,0,.55-2.42v-.84h3v3.26h.59v1.77h-.92v-1H28.68v1h-.94v-1.77Zm2.53,0v-2.45h-1v.19a4.59,4.59,0,0,1-.49,2.26Z"/><path class="cls-6" d="M33.11,356.57h1v2.18c0,.18,0,.42,0,.49h0c0-.11.21-.33.31-.49l1.51-2.18h1v4.07h-1v-2.17c0-.15,0-.38,0-.49h0a3.25,3.25,0,0,1-.3.49l-1.51,2.17h-1Z"/><path class="cls-6" d="M38,356.57h1v1.57h1.74v-1.57h1v4.07h-1V359H39v1.64H38Z"/><path class="cls-6" d="M44.8,356.47a2.14,2.14,0,1,1-2.23,2.14A2.15,2.15,0,0,1,44.8,356.47Zm0,3.41a1.28,1.28,0,1,0-1.21-1.27A1.21,1.21,0,0,0,44.81,359.88Z"/><path class="cls-6" d="M47.89,356.57h1.9c.82,0,1.37.37,1.37,1.05a1,1,0,0,1-.54.9h0a.92.92,0,0,1,.72.93c0,.82-.66,1.18-1.52,1.18H47.89Zm1.68,1.68a.51.51,0,0,0,.57-.54c0-.3-.19-.48-.59-.48h-.64v1Zm.08,1.72c.46,0,.67-.23.67-.54s-.23-.55-.67-.55h-.74V360Z"/><path class="cls-6" d="M52.19,356.57h.93v.3c0,.15,0,.29,0,.29h0a1.49,1.49,0,0,1,1.31-.69c1.11,0,1.81.87,1.81,2.14a1.92,1.92,0,0,1-1.86,2.13,1.5,1.5,0,0,1-1.18-.57h0a2.73,2.73,0,0,1,0,.35v1.72h-1Zm2,3.31c.56,0,1-.45,1-1.26s-.42-1.28-1-1.28-1,.39-1,1.29A1.12,1.12,0,0,0,54.19,359.88Z"/><path class="cls-6" d="M58.94,356.47a1.77,1.77,0,0,1,1.8,1.94,2.66,2.66,0,0,1,0,.39H57.9a1.16,1.16,0,0,0,1.23,1.08,2,2,0,0,0,1.17-.45l.4.73a2.58,2.58,0,0,1-1.64.58,2.09,2.09,0,0,1-2.2-2.13A2,2,0,0,1,58.94,356.47Zm.79,1.63a.8.8,0,0,0-.82-.86,1,1,0,0,0-1,.86Z"/><path class="cls-6" d="M61.79,356.57H63l.86,2.1c.09.22.2.52.2.52h0s.11-.29.19-.52l.88-2.1h1.14l.37,4.07h-1l-.14-2.2c0-.27,0-.7,0-.7h0s-.11.31-.24.59l-.8,1.8H63.6l-.8-1.79c-.11-.28-.25-.6-.25-.6h0s0,.43,0,.7l-.14,2.2h-1Z"/><path class="cls-6" d="M69.37,356.47a1.77,1.77,0,0,1,1.81,1.94,2.72,2.72,0,0,1,0,.39h-2.8a1.15,1.15,0,0,0,1.22,1.08,2,2,0,0,0,1.17-.45l.4.73a2.58,2.58,0,0,1-1.64.58,2.09,2.09,0,0,1-2.2-2.13A2,2,0,0,1,69.37,356.47Zm.79,1.63a.8.8,0,0,0-.81-.86,1,1,0,0,0-1,.86Z"/><path class="cls-6" d="M72,356.57h1v1.57h1.75v-1.57h1v4.07h-1V359H73v1.64H72Z"/><path class="cls-6" d="M76.89,356.57h1v1.57h1.74v-1.57h1v4.07h-1V359H77.91v1.64h-1Z"/><path class="cls-6" d="M83.74,356.47a2.14,2.14,0,1,1-2.23,2.14A2.15,2.15,0,0,1,83.74,356.47Zm0,3.41a1.28,1.28,0,1,0-1.21-1.27A1.21,1.21,0,0,0,83.75,359.88Z"/><path class="cls-6" d="M23.79,369.09a1.56,1.56,0,0,0,1,.47c.43,0,.7-.21.7-.55s-.19-.51-.68-.51h-.49v-.7h.41c.36,0,.63-.13.63-.47s-.2-.49-.6-.49a1.82,1.82,0,0,0-1,.33l-.33-.64a2.49,2.49,0,0,1,1.51-.46c.8,0,1.43.4,1.43,1.12a1,1,0,0,1-.56.92v0a1,1,0,0,1,.69.93c0,.85-.72,1.28-1.61,1.28a2.38,2.38,0,0,1-1.58-.6Z"/><path class="cls-6" d="M29.45,367.69h.17v-.06a.66.66,0,0,0-.76-.72,2.14,2.14,0,0,0-1.14.39l-.37-.72a2.72,2.72,0,0,1,1.6-.51,1.51,1.51,0,0,1,1.69,1.62v2.56H29.7v-.35a2,2,0,0,1,0-.29h0a1.5,1.5,0,0,1-1.29.73,1.25,1.25,0,0,1-1.35-1.22C27.07,367.89,28.54,367.69,29.45,367.69Zm-.75,1.88a1,1,0,0,0,.93-1.08v-.11h-.17c-.51,0-1.38.07-1.38.65A.56.56,0,0,0,28.7,369.57Z"/><path class="cls-6" d="M31.67,366.17h1v3.21h1.27v-3.21h1v3.21h1.27v-3.21h1v4.08H31.67Z"/><path class="cls-6" d="M40,366.07A1.77,1.77,0,0,1,41.85,368c0,.12,0,.26,0,.39H39a1.15,1.15,0,0,0,1.22,1.08A2,2,0,0,0,41.4,369l.4.73a2.64,2.64,0,0,1-1.64.58,2.09,2.09,0,0,1-2.2-2.13A2,2,0,0,1,40,366.07Zm.79,1.63a.8.8,0,0,0-.81-.86,1,1,0,0,0-1,.86Z"/><path class="cls-6" d="M42.73,369.43a4.62,4.62,0,0,0,.54-2.41v-.85h3v3.26h.59v1.78h-.92v-1H43.17v1h-.94v-1.78Zm2.53,0V367h-1v.19a4.59,4.59,0,0,1-.49,2.26Z"/><path class="cls-6" d="M47.59,366.17h1v3.21h1.27v-3.21h1v3.21h1.27v-3.21h1v4.08H47.59Z"/><path class="cls-6" d="M54.13,366.17h1v2.18a4.68,4.68,0,0,1,0,.49h0c0-.11.2-.33.3-.49l1.51-2.18h1v4.08h-1v-2.18c0-.15,0-.38,0-.49h0a4.64,4.64,0,0,1-.31.49l-1.51,2.18h-1Z"/><path class="cls-6" d="M60.81,366.07A1.77,1.77,0,0,1,62.62,368a2.72,2.72,0,0,1,0,.39h-2.8A1.15,1.15,0,0,0,61,369.48a2,2,0,0,0,1.17-.45l.4.73a2.64,2.64,0,0,1-1.64.58,2.09,2.09,0,0,1-2.2-2.13A2,2,0,0,1,60.81,366.07Zm.79,1.63a.8.8,0,0,0-.81-.86,1,1,0,0,0-1,.86Z"/><path class="cls-6" d="M65.47,366.17h1v1.57h1.74v-1.57h1v4.08h-1V368.6H66.48v1.65h-1Z"/><path class="cls-6" d="M72.39,367.69h.18v-.06c0-.54-.35-.72-.77-.72a2.08,2.08,0,0,0-1.13.39l-.38-.72a2.75,2.75,0,0,1,1.6-.51,1.51,1.51,0,0,1,1.69,1.62v2.56h-.94v-.35a2,2,0,0,1,0-.29h0a1.5,1.5,0,0,1-1.29.73A1.25,1.25,0,0,1,70,369.12C70,367.89,71.49,367.69,72.39,367.69Zm-.75,1.88a1,1,0,0,0,.94-1.08v-.11H72.4c-.51,0-1.37.07-1.37.65A.55.55,0,0,0,71.64,369.57Z"/><path class="cls-6" d="M25.69,375.67a2.2,2.2,0,0,1,1.57.61l-.46.69a1.59,1.59,0,0,0-1.06-.43,1.2,1.2,0,0,0-1.23,1.26,1.23,1.23,0,0,0,1.27,1.28,1.88,1.88,0,0,0,1.2-.52l.39.72a2.36,2.36,0,0,1-1.68.66,2.14,2.14,0,1,1,0-4.27Z"/><path class="cls-6" d="M30.17,377.29h.17v-.06a.67.67,0,0,0-.76-.72,2.14,2.14,0,0,0-1.14.39l-.37-.72a2.71,2.71,0,0,1,1.59-.51,1.52,1.52,0,0,1,1.7,1.62v2.56h-.94v-.35a2,2,0,0,1,0-.29h0a1.47,1.47,0,0,1-1.28.73,1.25,1.25,0,0,1-1.35-1.22C27.79,377.49,29.27,377.29,30.17,377.29Zm-.75,1.88a1,1,0,0,0,.93-1.08V378h-.17c-.52,0-1.38.07-1.38.65A.56.56,0,0,0,29.42,379.17Z"/><path class="cls-6" d="M32.39,375.77h1V378c0,.18,0,.42,0,.49h0a4.64,4.64,0,0,1,.31-.49l1.51-2.18h1v4.08h-1v-2.18c0-.15,0-.38,0-.49h0c0,.11-.2.33-.3.49l-1.51,2.18h-1Zm.57-1.5v-.1h.78v.1a.5.5,0,0,0,.53.51.51.51,0,0,0,.55-.52v-.09h.76v.1a1.33,1.33,0,0,1-2.62,0Z"/><path class="cls-6" d="M38.19,376.63H36.85v-.86h3.7v.86H39.2v3.22h-1Z"/><path class="cls-6" d="M43.24,375.77h1.9c.82,0,1.37.36,1.37,1.05a1,1,0,0,1-.53.9h0a.93.93,0,0,1,.72.93c0,.82-.67,1.19-1.52,1.19H43.24Zm1.68,1.68a.51.51,0,0,0,.57-.54c0-.29-.19-.48-.59-.48h-.64v1Zm.08,1.72c.46,0,.67-.23.67-.54s-.23-.55-.67-.55h-.74v1.09Z"/><path class="cls-6" d="M47.54,375.77h1V378c0,.18,0,.42,0,.49h0c0-.11.21-.33.31-.49l1.51-2.18h1v4.08h-1v-2.18c0-.15,0-.38,0-.49h0c-.05.11-.2.33-.3.49l-1.51,2.18h-1Z"/><path class="cls-6" d="M52.46,379a4.72,4.72,0,0,0,.54-2.41v-.85h3V379h.58v1.77h-.92v-.95H52.9v.95H52V379ZM55,379v-2.45H54v.2a4.48,4.48,0,0,1-.5,2.25Z"/><path class="cls-6" d="M57.82,378.54a1.78,1.78,0,0,1,.18-.25h0a1.27,1.27,0,0,1-.82-1.2,1.29,1.29,0,0,1,1.46-1.32h1.83v4.08h-1v-1.39h-.53L58,379.85h-1.1Zm1.64-.78v-1.33h-.53c-.44,0-.74.19-.74.65a.65.65,0,0,0,.73.68Z"/><path class="cls-6" d="M62.51,376.63H61.17v-.86h3.7v.86H63.52v3.22h-1Z"/><path class="cls-6" d="M23.64,385.33h1.25v.21a2,2,0,0,1,0,.26h0a1.52,1.52,0,0,1,1.25-.57A1.91,1.91,0,0,1,28,387.39a2,2,0,0,1-1.92,2.15,1.55,1.55,0,0,1-1-.39h0a2.73,2.73,0,0,1,0,.35V391H23.64Zm2.15,3.07c.43,0,.81-.35.81-1s-.33-1-.81-1-.81.3-.81,1C25,387.91,25.25,388.4,25.79,388.4Z"/><path class="cls-6" d="M30.74,386.88h.12v-.07c0-.35-.28-.46-.59-.46a2.19,2.19,0,0,0-1.13.39l-.48-1a3.18,3.18,0,0,1,1.74-.54,1.63,1.63,0,0,1,1.84,1.68v2.54H31v-.25c0-.14,0-.26,0-.26h0a1.51,1.51,0,0,1-1.23.6,1.26,1.26,0,0,1-1.34-1.25C28.41,387.18,29.72,386.88,30.74,386.88Zm-.57,1.63a.75.75,0,0,0,.7-.73v-.11h-.12c-.43,0-1,.11-1,.49A.35.35,0,0,0,30.17,388.51Z"/><path class="cls-6" d="M33.33,388.07a1.67,1.67,0,0,0,1,.43c.39,0,.5-.17.5-.36s-.07-.34-.45-.34h-.5v-.91h.41c.22,0,.42-.07.42-.32s-.08-.33-.43-.33a1.84,1.84,0,0,0-1,.31l-.4-.85a2.78,2.78,0,0,1,1.66-.47c.85,0,1.52.43,1.52,1.15a1,1,0,0,1-.51.92v0a1,1,0,0,1,.64.91c0,.87-.73,1.31-1.7,1.31a2.66,2.66,0,0,1-1.72-.61Z"/><path class="cls-6" d="M36.91,385.33h1.38v1.45h1.27v-1.45H41v4.12H39.56v-1.51H38.29v1.51H36.91Z"/><path class="cls-6" d="M41.88,385.33h1.38v1.29h.62c1.15,0,1.63.59,1.63,1.42s-.48,1.41-1.63,1.41h-2Zm1.74,3.21a.48.48,0,0,0,.51-.51.49.49,0,0,0-.53-.52h-.34v1ZM46,385.33h1.39v4.12H46Z"/><path class="cls-6" d="M50.21,385.23a1.83,1.83,0,0,1,1.9,2,3,3,0,0,1,0,.43h-2.6a.92.92,0,0,0,1,.74,2.09,2.09,0,0,0,1.14-.42l.51,1a2.78,2.78,0,0,1-1.76.6,2.13,2.13,0,0,1-2.26-2.16A2,2,0,0,1,50.21,385.23Zm.53,1.63a.57.57,0,0,0-.56-.61.69.69,0,0,0-.67.61Z"/><path class="cls-6" d="M54.83,385.33h1.39v1.45h1.27v-1.45h1.38v4.12H57.49v-1.51H56.22v1.51H54.83Z"/><path class="cls-6" d="M61.9,385.23a2.16,2.16,0,1,1-2.33,2.17A2.19,2.19,0,0,1,61.9,385.23Zm0,3.16a.93.93,0,0,0,.94-1,.94.94,0,1,0-1.87,0A.93.93,0,0,0,61.9,388.39Z"/><path class="cls-6" d="M65.15,385.33h1.6l.61,1.8.16.48h0s.09-.27.17-.48l.6-1.8h1.59l.4,4.12H69l-.1-1.9c0-.32,0-.7,0-.7h0s-.12.35-.23.61l-.54,1.43H67l-.54-1.43c-.09-.27-.24-.61-.24-.61h0s0,.38,0,.7l-.1,1.9H64.76Z"/><path class="cls-6" d="M73,385.23a1.83,1.83,0,0,1,1.91,2,3,3,0,0,1,0,.43h-2.6a.92.92,0,0,0,1,.74,2.09,2.09,0,0,0,1.14-.42l.51,1a2.78,2.78,0,0,1-1.76.6,2.13,2.13,0,0,1-2.26-2.16A2,2,0,0,1,73,385.23Zm.54,1.63a.57.57,0,0,0-.57-.61.67.67,0,0,0-.66.61Z"/><path class="cls-6" d="M75.58,385.33h1.24v.21c0,.13,0,.26,0,.26h0a1.55,1.55,0,0,1,1.25-.57,1.92,1.92,0,0,1,1.86,2.16A2,2,0,0,1,78,389.54a1.57,1.57,0,0,1-1.05-.39h0s0,.14,0,.35V391H75.58Zm2.15,3.07c.43,0,.81-.35.81-1s-.33-1-.81-1-.81.3-.81,1C76.92,387.91,77.19,388.4,77.73,388.4Z"/><path class="cls-6" d="M82.67,386.88h.12v-.07c0-.35-.28-.46-.58-.46a2.23,2.23,0,0,0-1.14.39l-.48-1a3.24,3.24,0,0,1,1.75-.54,1.63,1.63,0,0,1,1.84,1.68v2.54H82.91v-.25a1.77,1.77,0,0,1,0-.26h0a1.49,1.49,0,0,1-1.22.6,1.26,1.26,0,0,1-1.34-1.25C80.35,387.18,81.66,386.88,82.67,386.88Zm-.56,1.63a.75.75,0,0,0,.7-.73v-.11h-.13c-.42,0-1,.11-1,.49A.36.36,0,0,0,82.11,388.51Z"/><path class="cls-6" d="M24.54,396.09H23.3v-1.16h3.88v1.16H25.93v3H24.54Z"/><path class="cls-6" d="M29.63,394.83a1.83,1.83,0,0,1,1.91,2,3,3,0,0,1,0,.43H28.91a.92.92,0,0,0,1,.74,2.09,2.09,0,0,0,1.13-.42l.51,1a2.78,2.78,0,0,1-1.76.6A2.13,2.13,0,0,1,27.49,397,2.05,2.05,0,0,1,29.63,394.83Zm.54,1.63a.57.57,0,0,0-.57-.61.66.66,0,0,0-.66.61Z"/><path class="cls-6" d="M31.92,397.88c.37-.05.78-.22.78-1.63v-1.32h3.37V399H34.69v-3H34v.23c0,1.68-.48,2.84-2.08,2.84Z"/><path class="cls-6" d="M38.91,394.83a1.82,1.82,0,0,1,1.9,2,3,3,0,0,1,0,.43H38.19a.91.91,0,0,0,1,.74,2.09,2.09,0,0,0,1.14-.42l.51,1a2.78,2.78,0,0,1-1.76.6A2.13,2.13,0,0,1,36.77,397,2.05,2.05,0,0,1,38.91,394.83Zm.54,1.63a.57.57,0,0,0-.57-.61.66.66,0,0,0-.66.61Z"/><path class="cls-6" d="M43.56,394.83v-1.38h1.3v1.38a2.16,2.16,0,1,1,0,4.31v1.5h-1.3v-1.5a2.16,2.16,0,1,1,0-4.31Zm0,3.22v-2.13a1,1,0,0,0-.91,1.08A1,1,0,0,0,43.56,398.05ZM45.78,397a1,1,0,0,0-.92-1.08v2.13A1,1,0,0,0,45.78,397Z"/><path class="cls-6" d="M49.91,394.83a2.16,2.16,0,1,1,0,4.31,2.16,2.16,0,1,1,0-4.31Zm0,3.16a.94.94,0,0,0,.94-1A.94.94,0,1,0,49,397,.94.94,0,0,0,49.92,398Z"/><path class="cls-6" d="M53,394.93h1.39v1.45h1.27v-1.45H57V399H55.61v-1.5H54.34V399H53Z"/><path class="cls-6" d="M60,394.83A2.16,2.16,0,1,1,57.69,397,2.19,2.19,0,0,1,60,394.83ZM60,398a.93.93,0,0,0,.94-1,.94.94,0,1,0-1.87,0A.93.93,0,0,0,60,398Z"/><path class="cls-6" d="M63.06,394.93H65.3c.83,0,1.4.36,1.4,1.08a1,1,0,0,1-.48.89h0a.9.9,0,0,1,.65.91c0,.91-.75,1.22-1.57,1.22H63.06Zm1.9,1.62a.37.37,0,0,0,.37-.41.35.35,0,0,0-.39-.36h-.5v.77Zm.09,1.63a.41.41,0,0,0,.44-.41.39.39,0,0,0-.43-.41h-.62v.82Z"/><path d="M27.23,298.34a3.79,3.79,0,0,1,2.62,1l-.62,1a3.16,3.16,0,0,0-1.94-.75A2.28,2.28,0,0,0,24.92,302a2.36,2.36,0,0,0,2.38,2.53,3,3,0,0,0,2.06-.9l.68.93a3.81,3.81,0,0,1-2.79,1.15,3.67,3.67,0,0,1,0-7.33Z"/><path d="M33.55,302.36h.23v-.07a.84.84,0,0,0-1-.9,2.61,2.61,0,0,0-1.42.49l-.47-.91a3.5,3.5,0,0,1,2-.63,1.89,1.89,0,0,1,2.11,2v3.18H33.87v-.43a3.31,3.31,0,0,1,0-.37h0a1.87,1.87,0,0,1-1.61.92,1.56,1.56,0,0,1-1.68-1.53C30.59,302.62,32.43,302.36,33.55,302.36Zm-.93,2.34a1.3,1.3,0,0,0,1.17-1.34v-.14h-.22c-.64,0-1.72.09-1.72.81A.69.69,0,0,0,32.62,304.7Z"/><path d="M36.34,300.46h1.2v2.72c0,.24,0,.53,0,.61h0a5.52,5.52,0,0,1,.38-.61l1.88-2.72H41v5.09H39.82v-2.72c0-.18,0-.47,0-.6h0a6.17,6.17,0,0,1-.38.6l-1.88,2.72H36.34Zm.71-1.87v-.13h1v.13a.62.62,0,0,0,.67.63.63.63,0,0,0,.68-.64v-.12h1v.13a1.66,1.66,0,0,1-3.27,0Z"/><path d="M43.59,301.54H41.91v-1.08h4.62v1.08H44.84v4H43.59Z"/><path d="M23.39,313.21h2.17v-2.37h1v2.37h2.16v1H26.58v2.36h-1v-2.36H23.39Z"/><polygon class="cls-6" points="306.68 269.25 305.68 269.25 305.68 264.75 301.18 264.75 301.18 263.75 306.68 263.75 306.68 269.25"/><path class="cls-6" d="M291.44,264.75h-9.73v-1h9.73Zm-19.47,0h-9.74v-1H272Zm-19.47,0h-9.74v-1h9.74Zm-19.48,0h-9.73v-1H233Zm-19.47,0h-9.74v-1h9.74Zm-19.47,0h-9.74v-1h9.74Zm-19.48,0h-9.73v-1h9.73Zm-19.47,0H145.4v-1h9.73Zm-19.47,0h-9.74v-1h9.74Zm-19.47,0h-9.74v-1h9.74Zm-19.48,0H87v-1h9.73Zm-19.47,0H67.5v-1h9.74Zm-19.47,0H48v-1h9.74Zm-19.47,0H28.56v-1H38.3Z"/><polygon class="cls-6" points="14.32 269.25 13.32 269.25 13.32 263.75 18.82 263.75 18.82 264.75 14.32 264.75 14.32 269.25"/><path class="cls-6" d="M14.32,395.94h-1V385.38h1Zm0-21.11h-1V364.27h1Zm0-21.12h-1V343.16h1Zm0-21.11h-1V322h1Zm0-21.12h-1V300.93h1Zm0-21.11h-1V279.81h1Z"/><polygon class="cls-6" points="18.82 412 13.32 412 13.32 406.5 14.32 406.5 14.32 411 18.82 411 18.82 412"/><path class="cls-6" d="M78.39,412H68.46v-1h9.93Zm-19.85,0H48.61v-1h9.93Zm-19.86,0H28.75v-1h9.93Z"/><polygon class="cls-6" points="93.82 412 88.32 412 88.32 411 92.82 411 92.82 406.5 93.82 406.5 93.82 412"/><path class="cls-6" d="M93.82,397h-1v-9.47h1Zm0-18.95h-1v-9.48h1Zm0-18.95h-1v-9.48h1Zm0-19h-1v-9.48h1Zm0-19h-1v-9.48h1Z"/><polygon class="cls-6" points="93.82 302.25 92.82 302.25 92.82 296.75 98.32 296.75 98.32 297.75 93.82 297.75 93.82 302.25"/><path class="cls-6" d="M291.52,297.75h-9.66v-1h9.66Zm-19.32,0h-9.66v-1h9.66Zm-19.32,0h-9.66v-1h9.66Zm-19.32,0H223.9v-1h9.66Zm-19.32,0h-9.66v-1h9.66Zm-19.32,0h-9.66v-1h9.66Zm-19.32,0h-9.66v-1h9.66Zm-19.32,0h-9.66v-1h9.66Zm-19.32,0H127.3v-1H137Zm-19.32,0H108v-1h9.66Z"/><polygon class="cls-6" points="306.68 297.75 301.18 297.75 301.18 296.75 305.68 296.75 305.68 292.25 306.68 292.25 306.68 297.75"/><rect class="cls-6" x="305.68" y="276.92" width="1" height="7.67"/><path d="M126.45,147.3l.21-.33v0a2,2,0,0,1-1.34-2,1.92,1.92,0,0,1,1.11-1.86,3.15,3.15,0,0,1,1.32-.19h2.18v7.06h-1v-2.81h-1.3L126,149.93h-1.11Zm2.49-1v-2.55h-1.12a1.87,1.87,0,0,0-.92.16,1.31,1.31,0,0,0,.68,2.39Z"/><path d="M131.55,144.87h1v2.06h2.56v-2.06h1v5.06h-1v-2.17h-2.56v2.17h-1Z"/><path d="M137.54,149.13a6.12,6.12,0,0,0,.79-3.33v-.93h3.42v4.26h.71v2h-.88v-1.2h-3.75v1.2h-.91v-2Zm3.24,0v-3.47h-1.52v.27a6.34,6.34,0,0,1-.72,3.2Z"/><path d="M145.64,144.75a2.16,2.16,0,0,1,2.19,2.37c0,.13,0,.27,0,.41h-3.68a1.67,1.67,0,0,0,1.74,1.68,2.29,2.29,0,0,0,1.49-.59l.41.71a3,3,0,0,1-2,.72,2.59,2.59,0,0,1-2.69-2.65A2.49,2.49,0,0,1,145.64,144.75Zm1.21,2.08a1.23,1.23,0,0,0-1.23-1.33,1.47,1.47,0,0,0-1.48,1.33Z"/><path d="M149,144.87h1v2h.71l1.37-2h1.1l-1.69,2.41v0l1.9,2.63h-1.15l-1.51-2.19H150v2.19h-1Z"/><path d="M156.39,144.75a2.65,2.65,0,0,1,1.9.74l-.46.68a2.05,2.05,0,0,0-1.4-.58,1.73,1.73,0,0,0-1.76,1.8,1.75,1.75,0,0,0,1.79,1.82,2.28,2.28,0,0,0,1.56-.68l.39.71a2.84,2.84,0,0,1-2,.81,2.65,2.65,0,1,1,0-5.3Z"/><path d="M162,149.07a8.19,8.19,0,0,0,1.11-4.75v-1.45h4.12v6.2H168v2.26h-.89v-1.4h-4.91v1.4h-.92v-2.26Zm4.24,0v-5.34H164v.65a9,9,0,0,1-1,4.69Z"/><path d="M169.08,144.87H170v3c0,.27,0,.63,0,.68h0c0-.09.28-.44.45-.68l2.17-3h.94v5.06h-.94v-3c0-.24,0-.59,0-.67h0a5.54,5.54,0,0,1-.43.67l-2.19,3h-.93Z"/><path d="M175.06,144.87h.9v.45a2.44,2.44,0,0,1,0,.38h0a1.85,1.85,0,0,1,1.7-.95c1.37,0,2.22,1.08,2.22,2.65a2.36,2.36,0,0,1-2.29,2.65,1.86,1.86,0,0,1-1.57-.86h0a2.24,2.24,0,0,1,0,.44v2.3h-1Zm2.37,4.34c.8,0,1.45-.65,1.45-1.8s-.58-1.81-1.42-1.81-1.46.54-1.46,1.82C176,148.32,176.5,149.21,177.43,149.21Z"/><path d="M183.28,144.75a2.15,2.15,0,0,1,2.18,2.37,2.93,2.93,0,0,1,0,.41h-3.68a1.67,1.67,0,0,0,1.74,1.68,2.24,2.24,0,0,0,1.48-.59l.41.71a3,3,0,0,1-1.95.72,2.59,2.59,0,0,1-2.69-2.65A2.49,2.49,0,0,1,183.28,144.75Zm1.21,2.08a1.23,1.23,0,0,0-1.23-1.33,1.47,1.47,0,0,0-1.48,1.33Z"/><path d="M186.64,144.87h1v2h.71l1.38-2h1.09l-1.68,2.41v0l1.88,2.63h-1.14l-1.51-2.19h-.73v2.19h-1Z"/><path d="M193.08,145.7h-1.76v-.83h4.48v.83H194v4.23h-1Z"/><rect class="cls-7" x="21.72" y="160.17" width="77.6" height="28.16"/><path d="M25.45,142.75a4,4,0,0,1,2.56.86l-.5.73a3.3,3.3,0,0,0-2-.69,2.75,2.75,0,0,0-.06,5.49,2.82,2.82,0,0,0,2-.88v-1H26.31v-.86h2.05v3.55h-.87v-.44c0-.15,0-.3,0-.3h0a3.08,3.08,0,0,1-2.16.86,3.49,3.49,0,0,1-3.47-3.66A3.56,3.56,0,0,1,25.45,142.75Z"/><path d="M32.11,144.75a2.65,2.65,0,1,1-2.72,2.64A2.63,2.63,0,0,1,32.11,144.75Zm0,4.46a1.81,1.81,0,1,0-1.74-1.82A1.75,1.75,0,0,0,32.12,149.21Z"/><path d="M38.4,144.75a2.65,2.65,0,1,1-2.72,2.64A2.63,2.63,0,0,1,38.4,144.75Zm0,4.46a1.81,1.81,0,1,0-1.74-1.82A1.75,1.75,0,0,0,38.41,149.21Z"/><path d="M44.17,151.19c.88,0,1.6-.4,1.6-1.41v-.41a2,2,0,0,1,0-.32h0a1.66,1.66,0,0,1-1.52.82A2.32,2.32,0,0,1,42,147.29a2.25,2.25,0,0,1,2.21-2.54,1.81,1.81,0,0,1,1.6.77h0a.36.36,0,0,1,0-.15v-.5h.93v4.85A2.27,2.27,0,0,1,44.19,152a4,4,0,0,1-1.73-.42l.32-.76A3.2,3.2,0,0,0,44.17,151.19Zm.28-2.16c.7,0,1.34-.42,1.34-1.74s-.64-1.7-1.43-1.7-1.38.64-1.38,1.67S43.54,149,44.45,149Z"/><path d="M48.24,142.87h1v5.51c0,.6.25.72.55.72h.17V150a2,2,0,0,1-.32,0c-.56,0-1.36-.16-1.36-1.44Z"/><path d="M53.12,144.75a2.16,2.16,0,0,1,2.18,2.37,3,3,0,0,1,0,.41H51.59a1.67,1.67,0,0,0,1.74,1.68,2.24,2.24,0,0,0,1.48-.59l.41.71a3,3,0,0,1-1.95.72,2.59,2.59,0,0,1-2.69-2.65A2.49,2.49,0,0,1,53.12,144.75Zm1.21,2.08a1.24,1.24,0,0,0-1.23-1.33,1.47,1.47,0,0,0-1.48,1.33Z"/><path d="M60.61,142.87h1l2.52,7.06h-1l-.71-2H59.8l-.71,2h-1Zm1.59,4.21-.78-2.23c-.12-.37-.28-1-.28-1h0s-.15.64-.27,1l-.79,2.23Z"/><path d="M67,144.75a1.81,1.81,0,0,1,1.57.83h0s0-.15,0-.34v-2.37h.95v7.06h-.91v-.51a2.66,2.66,0,0,1,0-.34h0a1.83,1.83,0,0,1-1.67,1c-1.36,0-2.23-1.08-2.23-2.65A2.36,2.36,0,0,1,67,144.75Zm.13,4.46c.75,0,1.45-.54,1.45-1.82,0-.91-.47-1.79-1.43-1.79-.79,0-1.45.65-1.45,1.8S66.26,149.21,67.1,149.21Z"/><path d="M70.54,142.87h1l1.23,5.18c.09.38.14.75.14.75h0s.06-.36.16-.75l1.38-5.18h.87l1.38,5.18c.1.39.16.75.16.75h0a6.93,6.93,0,0,1,.13-.75l1.31-5.18h1l-1.86,7.06H76.41l-1.24-4.58c-.12-.46-.21-1-.21-1h0s-.09.53-.21,1l-1.23,4.58H72.34Z"/><path d="M82.43,144.75a2.65,2.65,0,1,1-2.72,2.64A2.64,2.64,0,0,1,82.43,144.75Zm0,4.46a1.81,1.81,0,1,0-1.74-1.82A1.75,1.75,0,0,0,82.44,149.21Z"/><path d="M86.33,144.87h.94v.91a2.23,2.23,0,0,1,0,.37h0a1.78,1.78,0,0,1,1.61-1.34l.25,0v1l-.27,0c-1.09,0-1.55,1.08-1.55,2.06v2.1h-1Z"/><path d="M92,144.75a1.79,1.79,0,0,1,1.57.83h0a2.86,2.86,0,0,1,0-.34v-2.37h1v7.06h-.91v-.51a2.66,2.66,0,0,1,0-.34h0a1.85,1.85,0,0,1-1.68,1c-1.36,0-2.23-1.08-2.23-2.65A2.36,2.36,0,0,1,92,144.75Zm.13,4.46c.75,0,1.46-.54,1.46-1.82,0-.91-.47-1.79-1.44-1.79-.79,0-1.45.65-1.45,1.8S91.24,149.21,92.08,149.21Z"/><path d="M96,148.65a2.22,2.22,0,0,0,1.49.59c.51,0,.86-.24.86-.66,0-1-2.6-.71-2.6-2.37,0-1,.83-1.46,1.82-1.46a2.44,2.44,0,0,1,1.64.56l-.39.7a2,2,0,0,0-1.28-.45c-.49,0-.86.2-.86.63,0,1,2.6.7,2.6,2.37,0,.86-.73,1.49-1.81,1.49a2.74,2.74,0,0,1-1.93-.74Z"/><path d="M34.83,169.71a3.59,3.59,0,0,1,3.67,3.62,3.67,3.67,0,1,1-7.33,0A3.58,3.58,0,0,1,34.83,169.71Zm0,6.16a2.42,2.42,0,0,0,2.34-2.54,2.34,2.34,0,1,0-4.67,0A2.42,2.42,0,0,0,34.83,175.87Z"/><path d="M41.92,170.22l1.75-.69.38,1-1.93.74c-.87.36-1.44.83-1.49,1.71h0a2.08,2.08,0,0,1,1.68-.74,2.13,2.13,0,0,1,2.17,2.34A2.35,2.35,0,0,1,42,177.05c-1.77,0-2.6-1.29-2.6-3.1A3.46,3.46,0,0,1,41.92,170.22ZM42,176a1.38,1.38,0,0,0,0-2.75,1.29,1.29,0,0,0-1.28,1.37A1.26,1.26,0,0,0,42,176Z"/><path d="M46.23,172.91H44.89v-1.08H47.5v1.75h1c1.2,0,1.9.58,1.9,1.69s-.57,1.66-1.91,1.66H46.23Zm2,3.15a.76.76,0,0,0,.86-.8.77.77,0,0,0-.87-.82H47.5v1.62Z"/><path d="M51.91,175.3a2.39,2.39,0,0,1,.23-.31h0a1.59,1.59,0,0,1-1-1.5,1.62,1.62,0,0,1,1.83-1.65h2.28v5.1H54V175.2H53.3l-1.14,1.73H50.79Zm2.05-1v-1.66H53.3c-.55,0-.92.23-.92.81a.81.81,0,0,0,.91.85Z"/><path d="M56.59,171.83H59c1,0,1.71.46,1.71,1.32a1.22,1.22,0,0,1-.67,1.12h0a1.17,1.17,0,0,1,.9,1.17c0,1-.82,1.48-1.89,1.48H56.59Zm2.1,2.1a.63.63,0,0,0,.71-.67c0-.37-.23-.6-.73-.6h-.81v1.27Zm.1,2.16c.57,0,.83-.29.83-.68s-.29-.69-.83-.69h-.93v1.37Z"/><path d="M61.49,175.86c.63-.09,1.07-.62,1.07-2.43v-1.6h3.71v5.1H65v-4.07H63.77v.57c0,2.22-.59,3.5-2.28,3.55Z"/><path d="M69.93,171.71a2.21,2.21,0,0,1,2.25,2.42,4,4,0,0,1,0,.49h-3.5A1.44,1.44,0,0,0,70.17,176a2.41,2.41,0,0,0,1.45-.56l.5.91a3.22,3.22,0,0,1-2,.73,2.62,2.62,0,0,1-2.75-2.67A2.52,2.52,0,0,1,69.93,171.71Zm1,2a1,1,0,0,0-1-1.08,1.22,1.22,0,0,0-1.23,1.08Z"/><path d="M73.25,171.83h1.27v2H76.7v-2H78v5.1H76.7v-2.06H74.52v2.06H73.25Z"/><path d="M79.33,171.83h1.21v2.73c0,.23,0,.53,0,.61h0c.06-.13.25-.41.38-.61l1.88-2.73H84v5.1h-1.2v-2.72c0-.19,0-.48,0-.61h0a6.17,6.17,0,0,1-.38.61l-1.89,2.72H79.33Z"/><path d="M87.68,171.71a2.21,2.21,0,0,1,2.25,2.42,4,4,0,0,1,0,.49h-3.5A1.44,1.44,0,0,0,87.92,176a2.41,2.41,0,0,0,1.45-.56l.5.91a3.22,3.22,0,0,1-2,.73,2.62,2.62,0,0,1-2.75-2.67A2.52,2.52,0,0,1,87.68,171.71Zm1,2a1,1,0,0,0-1-1.08,1.22,1.22,0,0,0-1.23,1.08Z"/><rect class="cls-8" x="121.52" y="160.17" width="77.6" height="28.16"/><path d="M134.63,169.71a3.59,3.59,0,0,1,3.67,3.62,3.67,3.67,0,1,1-7.33,0A3.58,3.58,0,0,1,134.63,169.71Zm0,6.16a2.42,2.42,0,0,0,2.34-2.54,2.34,2.34,0,1,0-4.67,0A2.42,2.42,0,0,0,134.63,175.87Z"/><path d="M141.72,170.22l1.75-.69.38,1-1.93.74c-.87.36-1.44.83-1.49,1.71h0a2.07,2.07,0,0,1,1.67-.74,2.13,2.13,0,0,1,2.18,2.34,2.35,2.35,0,0,1-2.49,2.44c-1.77,0-2.6-1.29-2.6-3.1A3.46,3.46,0,0,1,141.72,170.22Zm0,5.78a1.38,1.38,0,0,0,0-2.75,1.29,1.29,0,0,0-1.28,1.37A1.26,1.26,0,0,0,141.76,176Z"/><path d="M146,172.91h-1.34v-1.08h2.61v1.75h.95c1.2,0,1.9.58,1.9,1.69s-.57,1.66-1.91,1.66H146Zm2,3.15a.76.76,0,0,0,.86-.8.77.77,0,0,0-.87-.82h-.72v1.62Z"/><path d="M151.71,175.3a2.39,2.39,0,0,1,.23-.31h0a1.59,1.59,0,0,1-1-1.5,1.62,1.62,0,0,1,1.83-1.65H155v5.1h-1.26V175.2h-.66L152,176.93h-1.37Zm2-1v-1.66h-.66c-.55,0-.92.23-.92.81a.81.81,0,0,0,.91.85Z"/><path d="M156.39,171.83h2.36c1,0,1.72.46,1.72,1.32a1.22,1.22,0,0,1-.67,1.12h0a1.17,1.17,0,0,1,.9,1.17c0,1-.82,1.48-1.89,1.48h-2.42Zm2.1,2.1a.64.64,0,0,0,.71-.67c0-.37-.24-.6-.73-.6h-.81v1.27Zm.1,2.16c.57,0,.83-.29.83-.68s-.29-.69-.83-.69h-.93v1.37Z"/><path d="M161.29,175.86c.63-.09,1.07-.62,1.07-2.43v-1.6h3.71v5.1H164.8v-4.07h-1.23v.57c0,2.22-.59,3.5-2.28,3.55Z"/><path d="M169.73,171.71a2.21,2.21,0,0,1,2.25,2.42,4,4,0,0,1,0,.49h-3.5A1.44,1.44,0,0,0,170,176a2.41,2.41,0,0,0,1.46-.56l.5.91a3.22,3.22,0,0,1-2,.73,2.62,2.62,0,0,1-2.75-2.67A2.52,2.52,0,0,1,169.73,171.71Zm1,2a1,1,0,0,0-1-1.08,1.22,1.22,0,0,0-1.23,1.08Z"/><path d="M173.05,171.83h1.27v2h2.18v-2h1.26v5.1H176.5v-2.06h-2.18v2.06h-1.27Z"/><path d="M179.13,171.83h1.21v2.73c0,.23,0,.53,0,.61h0c.06-.13.25-.41.38-.61l1.88-2.73h1.23v5.1h-1.2v-2.72c0-.19,0-.48,0-.61h0a4.51,4.51,0,0,1-.37.61l-1.89,2.72h-1.23Z"/><path d="M187.48,171.71a2.21,2.21,0,0,1,2.25,2.42,4,4,0,0,1,0,.49h-3.5a1.44,1.44,0,0,0,1.52,1.35,2.41,2.41,0,0,0,1.46-.56l.5.91a3.23,3.23,0,0,1-2,.73,2.62,2.62,0,0,1-2.74-2.67A2.52,2.52,0,0,1,187.48,171.71Zm1,2a1,1,0,0,0-1-1.08,1.22,1.22,0,0,0-1.23,1.08Z"/><path d="M236.92,172.89h1l1.63,3.82c.16.39.34.95.34.95h0s.19-.56.35-.95l1.63-3.82h1l.57,7.06h-1l-.34-4.45a10.28,10.28,0,0,1,0-1h0s-.22.65-.38,1l-1.41,3.18h-.88l-1.4-3.18c-.16-.38-.38-1.06-.38-1.06h0s0,.63,0,1.06l-.34,4.45h-1Z"/><path d="M247.07,174.77a2.16,2.16,0,0,1,2.19,2.37,3,3,0,0,1,0,.41h-3.68a1.67,1.67,0,0,0,1.74,1.68,2.29,2.29,0,0,0,1.49-.59l.41.71a3,3,0,0,1-2,.72,2.59,2.59,0,0,1-2.69-2.65A2.49,2.49,0,0,1,247.07,174.77Zm1.21,2.08a1.23,1.23,0,0,0-1.23-1.33,1.47,1.47,0,0,0-1.48,1.33Z"/><path d="M250.42,179.15a6.12,6.12,0,0,0,.79-3.33v-.93h3.42v4.26h.72v2h-.89V180h-3.75v1.2h-.91v-2Zm3.24,0v-3.47h-1.52V176a6.34,6.34,0,0,1-.72,3.2Z"/><path d="M256.37,174.89h.93v3c0,.27,0,.63,0,.68h0c0-.09.28-.44.45-.68l2.18-3h.94V180h-.94v-3c0-.24,0-.59,0-.67h0a7.87,7.87,0,0,1-.44.67l-2.19,3h-.93Z"/><path d="M262.35,174.89h.93v3c0,.27,0,.63,0,.68h0c0-.09.28-.44.45-.68l2.18-3h.94V180h-.94v-3c0-.24,0-.59,0-.67h0a7.87,7.87,0,0,1-.44.67l-2.19,3h-.93Zm.75-1.86v-.15h.78V173a.66.66,0,0,0,.7.66.67.67,0,0,0,.71-.67v-.13h.77V173a1.5,1.5,0,0,1-3,0Z"/><path d="M268.33,174.89h1V177h2.56v-2.06h1V180h-1v-2.17H269.3V180h-1Z"/><path d="M276.93,176.8h.26v-.1a1,1,0,0,0-1.11-1.11,2.54,2.54,0,0,0-1.42.49l-.39-.71a3.22,3.22,0,0,1,1.89-.6,1.8,1.8,0,0,1,2,2V180h-.91v-.51a2.55,2.55,0,0,1,0-.4h0a1.87,1.87,0,0,1-1.66,1,1.56,1.56,0,0,1-1.69-1.5C273.91,177,275.88,176.8,276.93,176.8Zm-1.1,2.5a1.52,1.52,0,0,0,1.36-1.61v-.19h-.25c-.72,0-2.06.06-2.06,1A.85.85,0,0,0,275.83,179.3Z"/><path d="M280.25,178.27a2.19,2.19,0,0,1,.23-.31h0a1.51,1.51,0,0,1-1.1-1.47c0-1,.74-1.59,1.81-1.59h2V180h-1v-1.83h-.85L280.15,180h-1.07Zm2-.86v-1.85h-.81c-.65,0-1.07.26-1.07.91a.92.92,0,0,0,1,.94Z"/><path d="M240.52,186.89h.9v.45a2.44,2.44,0,0,1,0,.38h0a1.85,1.85,0,0,1,1.7-.95c1.37,0,2.22,1.08,2.22,2.65a2.36,2.36,0,0,1-2.29,2.65,1.86,1.86,0,0,1-1.57-.86h0a2.24,2.24,0,0,1,0,.44V194h-1Zm2.37,4.34c.8,0,1.46-.65,1.46-1.8s-.59-1.81-1.43-1.81-1.46.54-1.46,1.82C241.46,190.34,242,191.23,242.89,191.23Z"/><path d="M248.74,186.77a2.16,2.16,0,0,1,2.19,2.37,3,3,0,0,1,0,.41h-3.68a1.67,1.67,0,0,0,1.74,1.68,2.29,2.29,0,0,0,1.49-.59l.41.71a3,3,0,0,1-2,.72,2.59,2.59,0,0,1-2.69-2.65A2.49,2.49,0,0,1,248.74,186.77Zm1.21,2.08a1.23,1.23,0,0,0-1.23-1.33,1.47,1.47,0,0,0-1.48,1.33Z"/><path d="M252.1,186.89h1v2h.71l1.38-2h1.1l-1.69,2.41v0l1.89,2.63h-1.15l-1.51-2.19h-.73V192h-1Z"/><path d="M256.77,191.13c.74-.11,1.14-.85,1.14-2.68v-1.56h3.39V192h-1v-4.26h-1.49v.76c0,2.29-.58,3.47-2.07,3.55Z"/><path d="M265.4,188.8h.26v-.1a1,1,0,0,0-1.11-1.11,2.54,2.54,0,0,0-1.42.49l-.39-.71a3.22,3.22,0,0,1,1.89-.6,1.8,1.8,0,0,1,2,2V192h-.91v-.51a2.55,2.55,0,0,1,0-.4h0a1.87,1.87,0,0,1-1.66,1,1.56,1.56,0,0,1-1.69-1.5C262.38,189,264.35,188.8,265.4,188.8Zm-1.1,2.5a1.52,1.52,0,0,0,1.36-1.61v-.19h-.25c-.72,0-2.06.06-2.06,1A.85.85,0,0,0,264.3,191.3Z"/><path d="M268.29,186.89h1.08l1.29,2.86c.14.3.28.68.28.68h0l.28-.68,1.32-2.86h1.06l.44,5.06h-.94l-.22-3c0-.3,0-.87,0-.87h0s-.13.35-.32.74l-1.2,2.53h-.83l-1.2-2.52-.32-.75h0s0,.57,0,.87l-.22,3h-.94Z"/><path d="M278,188.8h.26v-.1a1,1,0,0,0-1.11-1.11,2.54,2.54,0,0,0-1.42.49l-.39-.71a3.22,3.22,0,0,1,1.89-.6,1.8,1.8,0,0,1,2,2V192h-.91v-.51a2.55,2.55,0,0,1,0-.4h0a1.87,1.87,0,0,1-1.66,1,1.56,1.56,0,0,1-1.69-1.5C274.94,189,276.91,188.8,278,188.8Zm-1.1,2.5a1.52,1.52,0,0,0,1.36-1.61v-.19H278c-.72,0-2.06.06-2.06,1A.85.85,0,0,0,276.86,191.3Z"/><path class="cls-6" d="M270,152.4a.61.61,0,0,0-.16-.12,4.63,4.63,0,0,0-5.74.65l-.82.82v-11a2.32,2.32,0,1,0-4.64,0v5.1a2.29,2.29,0,0,0-1.78-.86,2.34,2.34,0,0,0-1.35.44l-5,2.89a2.33,2.33,0,0,0-1.16,2v3.82a7.5,7.5,0,0,0,12.69,5.43h0l7.95-7.95A.84.84,0,0,0,270,152.4Z"/><rect class="cls-1" x="259.82" y="133.43" width="2.32" height="4.64"/><rect class="cls-1" x="254.9" y="135.46" width="2.32" height="4.64" transform="translate(-22.43 221.42) rotate(-45)"/><rect class="cls-1" x="251.7" y="141.55" width="4.64" height="2.32"/><rect class="cls-1" x="263.58" y="136.62" width="4.64" height="2.32" transform="translate(-19.55 228.38) rotate(-45)"/><rect class="cls-1" x="265.62" y="141.55" width="4.64" height="2.32"/><circle class="cls-1" cx="60.82" cy="27.83" r="8.41"/><path class="cls-1" d="M75.31,43a9.09,9.09,0,0,0-3.25-3.8,10.94,10.94,0,0,0-4.77-1.86,1.48,1.48,0,0,0-1.3.36,8.18,8.18,0,0,1-5.17,1.59,8.15,8.15,0,0,1-5.16-1.59,1.48,1.48,0,0,0-1.3-.36,11,11,0,0,0-4.78,1.86A9,9,0,0,0,46.34,43c-.18.4-.25.47-.25.72a1,1,0,0,0,.24.63,17.14,17.14,0,0,0,29,0,1,1,0,0,0,.23-.63C75.55,43.47,75.49,43.4,75.31,43Z"/><circle class="cls-1" cx="160.32" cy="27.83" r="8.41"/><path class="cls-1" d="M174.81,43a9.09,9.09,0,0,0-3.25-3.8,10.94,10.94,0,0,0-4.77-1.86,1.48,1.48,0,0,0-1.3.36,9.18,9.18,0,0,1-10.33,0,1.48,1.48,0,0,0-1.3-.36,11,11,0,0,0-4.78,1.86,9,9,0,0,0-3.24,3.8c-.18.4-.25.47-.25.72a1,1,0,0,0,.24.63,17.14,17.14,0,0,0,29,0,1,1,0,0,0,.23-.63C175.05,43.47,175,43.4,174.81,43Z"/><circle class="cls-1" cx="259.82" cy="27.83" r="8.41"/><path class="cls-1" d="M274.31,43a9.09,9.09,0,0,0-3.25-3.8,10.94,10.94,0,0,0-4.77-1.86,1.48,1.48,0,0,0-1.3.36,9.18,9.18,0,0,1-10.33,0,1.48,1.48,0,0,0-1.3-.36,11,11,0,0,0-4.78,1.86,9,9,0,0,0-3.24,3.8c-.18.4-.25.47-.25.72a1,1,0,0,0,.24.63,17.14,17.14,0,0,0,29,0,1,1,0,0,0,.23-.63C274.55,43.47,274.49,43.4,274.31,43Z"/><path class="cls-1" d="M128.79,392.71H131v-2.46h.82v2.46h2.23v.78h-2.23V396H131v-2.46h-2.24Z"/><path class="cls-1" d="M137.43,390.4a5.08,5.08,0,0,1,.4-.65v0a4.12,4.12,0,0,1-.5,0h-3.16v-.85h4.72v.68L135.71,396h-1Z"/><path class="cls-1" d="M142,393.44l3.27-4.54h1.12v4.33h1v.83h-1V396h-1v-1.89H142Zm3.42-.21v-2.58c0-.33,0-.71,0-.71h0a3.87,3.87,0,0,1-.35.59l-2,2.68v0Z"/><path class="cls-1" d="M148.83,394.92a2.46,2.46,0,0,0,1,.24c1.3,0,2-1.2,2.12-2.37h0a2,2,0,0,1-1.56.66,2.19,2.19,0,0,1-2.22-2.32,2.22,2.22,0,0,1,2.26-2.35c1.51,0,2.64,1.3,2.64,3.32,0,1.81-1,4-3.18,4a3.11,3.11,0,0,1-1.36-.29Zm3.2-3.29a1.9,1.9,0,0,0-1.6-1.95,1.3,1.3,0,0,0-1.29,1.45,1.38,1.38,0,0,0,1.44,1.49C151.38,392.62,152,392.13,152,391.63Z"/><path class="cls-1" d="M154.7,394.37a2,2,0,0,0,1.55.76,1.46,1.46,0,0,0,1.54-1.43,1.48,1.48,0,0,0-1.6-1.45,2.24,2.24,0,0,0-1.19.35l-.58-.21.35-3.49h3.57v.85h-2.71l-.16,1.49a2.15,2.15,0,0,1-.06.36h0a2.36,2.36,0,0,1,.92-.21,2.31,2.31,0,0,1,2.46,2.31,2.39,2.39,0,0,1-2.5,2.37,2.81,2.81,0,0,1-2.17-1Z"/><path class="cls-1" d="M162.48,394.9h1V396h-1Z"/><path class="cls-1" d="M165,394.9h1V396h-1Z"/><path class="cls-1" d="M167.54,394.9h1V396h-1Z"/><path class="cls-1" d="M172.48,394.9h1V396h-1Z"/><path class="cls-1" d="M175,394.9h1V396h-1Z"/><path class="cls-2" d="M179.74,392.36c0-2.05.66-3.67,2.69-3.67s2.68,1.62,2.68,3.67-.66,3.71-2.68,3.71S179.74,394.41,179.74,392.36Zm3.57,0c0-1.16-.19-2.08-.88-2.08s-.89.92-.89,2.08.2,2.11.89,2.11S183.31,393.53,183.31,392.36Z"/><path class="cls-2" d="M186.22,392.36c0-2.05.66-3.67,2.69-3.67s2.69,1.62,2.69,3.67-.66,3.71-2.69,3.71S186.22,394.41,186.22,392.36Zm3.58,0c0-1.16-.2-2.08-.89-2.08s-.89.92-.89,2.08.2,2.11.89,2.11S189.8,393.53,189.8,392.36Z"/><path d="M119.85,368.7h1v3.1h3.66v-3.1h1v7.06h-1v-3.1h-3.66v3.1h-1Z"/><path d="M129.46,370.58a2.65,2.65,0,1,1-2.72,2.64A2.65,2.65,0,0,1,129.46,370.58Zm0,4.46a1.81,1.81,0,1,0-1.74-1.82A1.75,1.75,0,0,0,129.47,375Z"/><path d="M133.59,370.7h1.08l1.29,2.86c.14.3.28.68.28.68h0l.28-.68,1.32-2.86h1l.44,5.06h-.94l-.21-3c0-.3,0-.87,0-.87h0s-.14.35-.32.74l-1.2,2.53h-.83l-1.2-2.52-.32-.75h0s0,.57,0,.87l-.22,3h-.94Z"/><path d="M142.87,370.58a2.16,2.16,0,0,1,2.18,2.37,2.93,2.93,0,0,1,0,.41h-3.68a1.67,1.67,0,0,0,1.74,1.68,2.24,2.24,0,0,0,1.48-.59l.41.71a3,3,0,0,1-1.95.72,2.59,2.59,0,0,1-2.69-2.65A2.49,2.49,0,0,1,142.87,370.58Zm1.21,2.08a1.24,1.24,0,0,0-1.23-1.33,1.47,1.47,0,0,0-1.48,1.33Z"/><path d="M146.23,370.7h.9v.45a2.44,2.44,0,0,1,0,.38h0a1.85,1.85,0,0,1,1.69-.95c1.37,0,2.22,1.08,2.22,2.65a2.36,2.36,0,0,1-2.28,2.65,1.86,1.86,0,0,1-1.57-.86h0a2.24,2.24,0,0,1,0,.44v2.3h-1ZM148.6,375c.79,0,1.45-.65,1.45-1.8s-.59-1.81-1.43-1.81-1.45.54-1.45,1.82C147.17,374.15,147.67,375,148.6,375Z"/><path d="M154.74,370.7h1v2h.71l1.37-2h1.1l-1.68,2.41v0l1.89,2.63H158l-1.51-2.19h-.73v2.19h-1Z"/><path d="M162.14,370.58a2.65,2.65,0,1,1-2.72,2.64A2.65,2.65,0,0,1,162.14,370.58Zm0,4.46a1.81,1.81,0,1,0-1.74-1.82A1.75,1.75,0,0,0,162.15,375Z"/><path d="M166.27,370.7h1.08l1.29,2.86c.14.3.28.68.28.68h0l.27-.68,1.33-2.86h1.05l.44,5.06h-.94l-.21-3c0-.3,0-.87,0-.87h0s-.14.35-.33.74l-1.19,2.53h-.83l-1.2-2.52-.32-.75h0s0,.57,0,.87l-.22,3h-.94Z"/><path d="M173.34,370.7h4.41v5.06h-1v-4.23h-2.48v4.23h-1Z"/><path d="M181.86,372.61h.26v-.1A1,1,0,0,0,181,371.4a2.54,2.54,0,0,0-1.42.49l-.39-.71a3.22,3.22,0,0,1,1.89-.6,1.79,1.79,0,0,1,2,2v3.2h-.9v-.51a2.55,2.55,0,0,1,0-.4h0a1.88,1.88,0,0,1-1.66,1,1.56,1.56,0,0,1-1.69-1.5C178.84,372.79,180.81,372.61,181.86,372.61Zm-1.1,2.5a1.52,1.52,0,0,0,1.36-1.61v-.19h-.25c-.72,0-2.06.06-2.06,1A.85.85,0,0,0,180.76,375.11Z"/><path d="M184.52,370.7h1v2.06H188V370.7h1v5.06h-1v-2.17h-2.55v2.17h-1Z"/><path d="M190.52,370.7h.93v3c0,.27,0,.63,0,.68h0c0-.09.28-.44.45-.68l2.17-3H195v5.06h-.94v-3c0-.24,0-.59,0-.67h0a7.87,7.87,0,0,1-.44.67l-2.18,3h-.93Z"/><path d="M196.5,370.7h.93v3c0,.27,0,.63,0,.68h0c0-.09.28-.44.45-.68l2.17-3H201v5.06H200v-3c0-.24,0-.59,0-.67h0c0,.09-.28.43-.43.67l-2.19,3h-.93Z"/><path d="M147.19,458.45a1.9,1.9,0,0,0,1.33.59,1,1,0,0,0,1.18-1,.94.94,0,0,0-1.06-.94h-.7v-.65h.56a1,1,0,0,0,1-.91.88.88,0,0,0-1-.91,1.92,1.92,0,0,0-1.26.48l-.34-.59a2.55,2.55,0,0,1,1.71-.58,1.52,1.52,0,0,1,1.7,1.5,1.37,1.37,0,0,1-.82,1.27v0a1.33,1.33,0,0,1,1,1.35,1.74,1.74,0,0,1-1.92,1.69,2.51,2.51,0,0,1-1.83-.77Z"/><path d="M151.5,455.61h1.68c.81,0,1.35.36,1.35,1a1,1,0,0,1-.58.89h0a1,1,0,0,1,.77,1c0,.75-.61,1.15-1.49,1.15H151.5Zm1.54,1.71c.46,0,.7-.24.7-.61s-.24-.56-.72-.56h-.74v1.17Zm.07,1.79c.56,0,.83-.25.83-.63s-.3-.64-.84-.64h-.82v1.27Z"/><path d="M157.58,455.52a2.12,2.12,0,1,1-2.18,2.11A2.11,2.11,0,0,1,157.58,455.52Zm0,3.56a1.45,1.45,0,1,0-1.39-1.45A1.4,1.4,0,0,0,157.58,459.08Z"/><path d="M160.7,455.61h.77v1.65h2.05v-1.65h.77v4.05h-.77v-1.74h-2.05v1.74h-.77Z"/><path d="M167.41,455.52a2.12,2.12,0,1,1-2.18,2.11A2.11,2.11,0,0,1,167.41,455.52Zm0,3.56a1.45,1.45,0,1,0-1.4-1.45A1.41,1.41,0,0,0,167.42,459.08Z"/><path d="M170.53,455.61h.77v1.63h.57l1.1-1.63h.88l-1.35,1.93h0l1.51,2.11h-.92l-1.2-1.75h-.59v1.75h-.77Z"/><path d="M120.53,465.21h3.53v4.05h-.78v-3.38h-2v3.38h-.77Z"/><path d="M127,465.12a1.72,1.72,0,0,1,1.75,1.89c0,.1,0,.22,0,.33h-2.94a1.33,1.33,0,0,0,1.39,1.34,1.82,1.82,0,0,0,1.19-.47l.33.57a2.44,2.44,0,0,1-1.57.57,2.07,2.07,0,0,1-2.15-2.12A2,2,0,0,1,127,465.12Zm1,1.66a1,1,0,0,0-1-1.07,1.18,1.18,0,0,0-1.18,1.07Z"/><path d="M129.72,465.21h.72v.36a1.65,1.65,0,0,1,0,.31h0a1.47,1.47,0,0,1,1.36-.76c1.09,0,1.77.86,1.77,2.11a1.89,1.89,0,0,1-1.83,2.12,1.48,1.48,0,0,1-1.25-.68h0a1.84,1.84,0,0,1,0,.35v1.84h-.77Zm1.89,3.47c.64,0,1.17-.52,1.17-1.44s-.47-1.45-1.14-1.45-1.17.44-1.17,1.46C130.47,468,130.87,468.68,131.61,468.68Z"/><path d="M136.29,465.12A1.72,1.72,0,0,1,138,467a1.93,1.93,0,0,1,0,.33h-2.94a1.33,1.33,0,0,0,1.39,1.34,1.82,1.82,0,0,0,1.19-.47l.33.57a2.42,2.42,0,0,1-1.57.57,2.07,2.07,0,0,1-2.15-2.12A2,2,0,0,1,136.29,465.12Zm1,1.66a1,1,0,0,0-1-1.07,1.19,1.19,0,0,0-1.19,1.07Z"/><path d="M141.06,466.74h.21v-.08a.79.79,0,0,0-.89-.89,2,2,0,0,0-1.13.39l-.32-.57a2.61,2.61,0,0,1,1.51-.47,1.43,1.43,0,0,1,1.6,1.58v2.56h-.72v-.41a2.52,2.52,0,0,1,0-.32h0a1.48,1.48,0,0,1-1.32.82,1.24,1.24,0,0,1-1.35-1.2C138.65,466.88,140.22,466.74,141.06,466.74Zm-.88,2a1.22,1.22,0,0,0,1.09-1.29v-.15h-.2c-.58,0-1.65.05-1.65.79A.69.69,0,0,0,140.18,468.74Z"/><path d="M143.18,468.62a4.88,4.88,0,0,0,.63-2.66v-.75h2.74v3.41h.57v1.6h-.71v-1h-3v1h-.72v-1.6Zm2.59,0v-2.78h-1.21v.22a5.09,5.09,0,0,1-.58,2.56Z"/><path d="M147.94,465.21h.72v.36a2.45,2.45,0,0,1,0,.31h0a1.48,1.48,0,0,1,1.36-.76c1.1,0,1.78.86,1.78,2.11a1.89,1.89,0,0,1-1.83,2.12,1.48,1.48,0,0,1-1.26-.68h0a1.84,1.84,0,0,1,0,.35v1.84h-.78Zm1.9,3.47c.64,0,1.16-.52,1.16-1.44s-.47-1.45-1.14-1.45-1.17.44-1.17,1.46C148.69,468,149.09,468.68,149.84,468.68Z"/><path d="M154.52,465.12a1.72,1.72,0,0,1,1.75,1.89c0,.1,0,.22,0,.33h-3a1.34,1.34,0,0,0,1.39,1.34,1.82,1.82,0,0,0,1.2-.47l.32.57a2.39,2.39,0,0,1-1.56.57,2.07,2.07,0,0,1-2.15-2.12A2,2,0,0,1,154.52,465.12Zm1,1.66a1,1,0,0,0-1-1.07,1.18,1.18,0,0,0-1.18,1.07Z"/><path d="M159.11,465.12a2.13,2.13,0,0,1,1.52.59l-.37.54a1.65,1.65,0,0,0-1.12-.46,1.38,1.38,0,0,0-1.41,1.44,1.4,1.4,0,0,0,1.43,1.45,1.83,1.83,0,0,0,1.25-.54l.31.57a2.25,2.25,0,0,1-1.61.64,2.12,2.12,0,1,1,0-4.23Z"/><path d="M163.38,465.12a2.12,2.12,0,1,1-2.17,2.11A2.1,2.1,0,0,1,163.38,465.12Zm0,3.56a1.45,1.45,0,0,0,0-2.89,1.45,1.45,0,0,0,0,2.89Z"/><path d="M166.5,465.21h1.67c.82,0,1.35.36,1.35,1a.94.94,0,0,1-.57.89h0a1,1,0,0,1,.76,1c0,.75-.6,1.15-1.48,1.15H166.5Zm1.54,1.71c.46,0,.69-.24.69-.61s-.23-.56-.72-.56h-.73v1.17Zm.07,1.79c.56,0,.82-.25.82-.63s-.29-.64-.83-.64h-.82v1.27Z"/><path d="M170.66,465.21h.78v1.46h.79c.84,0,1.47.39,1.47,1.31,0,.76-.46,1.28-1.48,1.28h-1.56Zm1.46,3.49c.56,0,.8-.31.8-.73a.7.7,0,0,0-.81-.74h-.67v1.47Zm2.2-3.49h.78v4.05h-.78Z"/><path d="M176.3,465.21H178c.82,0,1.35.36,1.35,1a.94.94,0,0,1-.57.89h0a1,1,0,0,1,.76,1c0,.75-.6,1.15-1.48,1.15H176.3Zm1.54,1.71c.46,0,.69-.24.69-.61s-.23-.56-.72-.56h-.73v1.17Zm.07,1.79c.56,0,.82-.25.82-.63s-.29-.64-.83-.64h-.82v1.27Z"/><path d="M182.54,466.74h.21v-.08a.79.79,0,0,0-.89-.89,2.06,2.06,0,0,0-1.14.39l-.31-.57a2.61,2.61,0,0,1,1.51-.47,1.43,1.43,0,0,1,1.6,1.58v2.56h-.72v-.41a2.52,2.52,0,0,1,0-.32h0a1.48,1.48,0,0,1-1.32.82,1.25,1.25,0,0,1-1.36-1.2C180.12,466.88,181.7,466.74,182.54,466.74Zm-.88,2a1.22,1.22,0,0,0,1.09-1.29v-.15h-.2c-.58,0-1.65.05-1.65.79A.69.69,0,0,0,181.66,468.74Z"/><path d="M186.44,465.12a1.72,1.72,0,0,1,1.75,1.89c0,.1,0,.22,0,.33h-2.95a1.34,1.34,0,0,0,1.39,1.34,1.78,1.78,0,0,0,1.19-.47l.33.57a2.39,2.39,0,0,1-1.56.57,2.07,2.07,0,0,1-2.15-2.12A2,2,0,0,1,186.44,465.12Zm1,1.66a1,1,0,0,0-1-1.07,1.18,1.18,0,0,0-1.18,1.07Z"/><path d="M190.05,465.88h-1.41v-.67h3.59v.67h-1.41v3.38h-.77Z"/><path d="M194.76,465.12a2.1,2.1,0,0,1,1.52.59l-.36.54a1.67,1.67,0,0,0-1.13-.46,1.38,1.38,0,0,0-1.4,1.44,1.4,1.4,0,0,0,1.43,1.45,1.85,1.85,0,0,0,1.25-.54l.31.57a2.29,2.29,0,0,1-1.62.64,2.12,2.12,0,1,1,0-4.23Z"/><path d="M197.75,467.91a2.07,2.07,0,0,1,.18-.24h0a1.21,1.21,0,0,1-.88-1.18c0-.83.59-1.27,1.45-1.27h1.62v4.05h-.78v-1.47h-.68l-1,1.47h-.86Zm1.59-.68v-1.48h-.65c-.52,0-.85.21-.85.72a.74.74,0,0,0,.83.76Z"/><path d="M135.86,474.81h1.67c.81,0,1.35.36,1.35,1a1,1,0,0,1-.58.89h0a1,1,0,0,1,.77,1c0,.75-.61,1.15-1.49,1.15h-1.72Zm1.53,1.71c.47,0,.7-.24.7-.61s-.23-.56-.72-.56h-.74v1.17Zm.07,1.79c.56,0,.83-.25.83-.63s-.3-.64-.83-.64h-.83v1.27Z"/><path d="M142,474.81h.77v1.63h.57l1.1-1.63h.88L144,476.74h0l1.51,2.11h-.92l-1.2-1.75h-.59v1.75H142Z"/><path d="M147.94,474.71a2.12,2.12,0,1,1-2.18,2.12A2.12,2.12,0,0,1,147.94,474.71Zm0,3.57a1.45,1.45,0,0,0,0-2.89,1.45,1.45,0,0,0,0,2.89Z"/><path d="M150.51,478.2c.59-.09.91-.68.91-2.14v-1.25h2.71v4.05h-.78v-3.41h-1.19v.61c0,1.83-.46,2.77-1.65,2.84Z"/><path d="M154.89,478.2c.59-.09.91-.68.91-2.14v-1.25h2.71v4.05h-.77v-3.41h-1.2v.61c0,1.83-.46,2.77-1.65,2.84Z"/><path d="M159.67,476.23H162v.69h-2.34Z"/><path d="M163.17,474.81h.77v3.38h1.93v-3.38h.79v3.38h.56v1.63h-.71v-1h-3.34Z"/><path d="M169.77,474.71a1.73,1.73,0,0,1,1.75,1.9c0,.1,0,.22,0,.33h-3a1.34,1.34,0,0,0,1.4,1.34,1.82,1.82,0,0,0,1.19-.47l.33.57a2.44,2.44,0,0,1-1.57.57,2.07,2.07,0,0,1-2.15-2.12A2,2,0,0,1,169.77,474.71Zm1,1.67a1,1,0,0,0-1-1.07,1.18,1.18,0,0,0-1.18,1.07Z"/><path d="M172.46,474.81h.77v1.65h2.05v-1.65h.77v4.05h-.77v-1.74h-2.05v1.74h-.77Z"/><path d="M178.23,475.47h-1.4v-.66h3.59v.66H179v3.39h-.77Z"/><path d="M181.18,474.81h.72v.36a1.48,1.48,0,0,1,0,.3h0a1.49,1.49,0,0,1,1.36-.76c1.09,0,1.77.87,1.77,2.12a1.89,1.89,0,0,1-1.83,2.12,1.48,1.48,0,0,1-1.25-.68h0a1.84,1.84,0,0,1,0,.35v1.84h-.77Zm1.89,3.47c.64,0,1.17-.52,1.17-1.44s-.47-1.45-1.14-1.45-1.17.44-1.17,1.46C181.93,477.57,182.33,478.28,183.07,478.28Z"/><path d="M151.56,424.22h0a2,2,0,0,0-2,2v9.57a2,2,0,0,0,2,2h0a2,2,0,0,0,2-2v-9.57A2,2,0,0,0,151.56,424.22Z"/><path d="M169,424.22a2,2,0,0,0-2,2v9.57a2,2,0,0,0,2,2h0a2,2,0,0,0,2-2v-9.57a2,2,0,0,0-2-2Z"/><path class="cls-6" d="M176.69,429.23a3.21,3.21,0,0,0-1.86-2.91v-.17a14.45,14.45,0,0,0-3.64-9.62l-.15.26a4,4,0,0,1-1,1.12,12.63,12.63,0,0,1,3,8.24v.39h0v9.11h.45a3.27,3.27,0,0,0,1.29-.27V437a2.8,2.8,0,0,1-2.8,2.79h-5.05a3,3,0,0,0-2.81-2.05h-.8v5.9h.8a3,3,0,0,0,2.81-2.05H172a4.59,4.59,0,0,0,4.55-4.56h0v-3.66a3,3,0,0,0,.13-.9Z"/><path d="M157.43,440.66a3,3,0,0,0,3,2.95h.8v-5.9h-.8A3,3,0,0,0,157.43,440.66Z"/><path d="M166.69,416.29a1.84,1.84,0,0,0,1,.29,1.89,1.89,0,0,0,1-3.49,15.61,15.61,0,0,0-16.76,0,1.89,1.89,0,0,0,2,3.2,11.82,11.82,0,0,1,12.73,0Z"/><path class="cls-6" d="M150.66,417.91a4,4,0,0,1-1-1.12l-.15-.26a14.41,14.41,0,0,0-3.65,9.62v.17a3.23,3.23,0,0,0-1.86,2.91v3.21a3.22,3.22,0,0,0,3.21,3.21h.45v-9.11h0c0-.13,0-.26,0-.39A12.64,12.64,0,0,1,150.66,417.91Z"/></svg>