<svg xmlns="http://www.w3.org/2000/svg" width="72" height="90" viewBox="0 0 72 90">
    <g fill="#1EB0CD" fill-rule="nonzero">
        <path d="M34.125 33.626v-15H21.214c-1.189 4.53-1.901 9.634-2.04 15h14.951zM34.125 14.876V.124c-4.781 1.177-9.019 6.78-11.764 14.752h11.764zM34.125 37.376H19.17c.139 5.367.855 10.47 2.04 15h12.915v-15zM15.424 37.376H.469c.285 5.4 1.732 10.497 4.166 15h12.686c-1.11-4.563-1.77-9.622-1.897-15zM52.83 33.626c-.139-5.366-.855-10.47-2.04-15H37.875v15H52.83zM17.321 18.626H4.635c-2.434 4.504-3.885 9.6-4.166 15H15.42c.131-5.377.791-10.436 1.901-15zM37.875.124v14.752h11.764C46.894 6.904 42.656 1.301 37.875.124zM54.679 52.376h12.686c2.434-4.503 3.885-9.6 4.166-15H56.58c-.131 5.378-.791 10.437-1.901 15zM34.125 70.879V56.126H22.361c2.745 7.973 6.983 13.575 11.764 14.753zM18.367 56.126H7.005c4.496 6.3 10.969 11.096 18.529 13.425-2.948-3.258-5.404-7.867-7.166-13.425zM53.633 14.876h11.362C60.499 8.576 54.026 3.78 46.466 1.451c2.948 3.259 5.404 7.868 7.166 13.425zM53.633 56.126c-1.763 5.558-4.22 10.167-7.167 13.425 7.56-2.329 14.033-7.125 18.529-13.425H53.632zM18.367 14.876C20.13 9.32 22.587 4.71 25.535 1.451 17.974 3.78 11.5 8.576 7.005 14.876h11.363zM37.875 56.126V70.88c4.781-1.178 9.019-6.78 11.764-14.753H37.875zM54.679 18.626c1.11 4.564 1.77 9.623 1.897 15h14.952c-.285-5.4-1.733-10.496-4.167-15H54.68zM37.875 37.376v15h12.911c1.189-4.53 1.901-9.633 2.04-15H37.875zM43.5 78.626h-1.875v-1.875c0-1.035-.84-1.875-1.875-1.875h-7.5c-1.035 0-1.875.84-1.875 1.875v1.875H28.5c-1.035 0-1.875.84-1.875 1.875v7.5c0 1.035.84 1.875 1.875 1.875h15c1.035 0 1.875-.84 1.875-1.875v-7.5c0-1.035-.84-1.875-1.875-1.875z"/>
        <path d="M62.25 86.126H43.5a1.876 1.876 0 0 1 0-3.75h18.75a1.876 1.876 0 0 1 0 3.75zM28.5 86.126H9.75a1.876 1.876 0 0 1 0-3.75H28.5a1.876 1.876 0 0 1 0 3.75z"/>
    </g>
</svg>
