<svg xmlns="http://www.w3.org/2000/svg" width="87" height="89" viewBox="0 0 87 89">
    <g fill="#1EB0CD" fill-rule="nonzero">
        <path d="M43.5 88.305C19.513 88.305 0 68.523 0 44.207 0 19.89 19.513.109 43.5.109S87 19.89 87 44.207c0 24.316-19.513 44.098-43.5 44.098zm0-84.522c-21.986 0-39.875 18.136-39.875 40.424S21.515 84.63 43.5 84.63c21.986 0 39.875-18.135 39.875-40.423S65.485 3.783 43.5 3.783z"/>
        <path d="M79.41 52.32c-1.4-1.965-4.427-2.535-7.356-3.083-1.548-.29-3.302-.617-4.038-1.08-.236-.15-.79-.838-1.153-1.293-.82-1.015-1.66-2.07-2.73-2.518-1.439-.606-3.813-.452-6.354-.125-2.034.254-4.19.265-4.52.125-1.617-.68-4.564-2.462-6.84-4.424-1.995-1.716-2.752-2.922-2.984-3.602.456.063 1.022.188 1.577.31 1.823.403 3.722.683 4.883-.049 2.61-1.635 4.038-5.71 5.419-9.646.765-2.172 1.551-4.417 2.342-5.53.145-.18.732-.6 1.12-.875 1.403-1 3.143-2.246 2.83-4.182-.38-2.396-3.138-3.238-5.574-3.98-.903-.276-2.034-.618-2.4-.89-.181-.146-.61-.738-.892-1.131-.979-1.356-2.08-2.892-3.795-2.892-1.628 0-2.574 1.484-3.335 2.679-.138.22-.334.521-.508.768-.598-.508-1.442-1.603-1.736-2.312-.316-.768-.12-3.035-.004-4.388.076-.867.142-1.66.142-2.26a1.84 1.84 0 0 0-.787-1.514 1.811 1.811 0 0 0-1.678-.202L17.476 9.413c-.7.272-1.16.956-1.16 1.716 0 2.444 2.694 2.716 4.307 2.878.55.055 1.464.15 1.475.033.497.698.12 3.421-.101 5.05-.272 1.987-.53 3.861-.193 5.32.53 2.297 2.643 6.21 3.919 8.004 1.889 2.657 5.579 5.387 9.487 8.28 5.14 3.803 11.495 8.503 11.897 12.318-.247.205-.682.488-.964.672-1.175.772-2.643 1.73-2.643 3.38 0 3.11 3.284 5.443 6.46 7.703 1.827 1.298 4.096 2.91 4.553 4.024.493 1.206.384 4.62-.062 6.115-.609 2.043-4.484 7.218-6.786 10.003a1.856 1.856 0 0 0 .015 2.381 1.803 1.803 0 0 0 2.323.364l28.884-18c.439-.271.74-.72.834-1.23.53-2.929 2.073-12.748-.312-16.103z"/>
    </g>
</svg>
