<svg xmlns="http://www.w3.org/2000/svg" width="96" height="56" viewBox="0 0 96 56">
    <g fill="#1EB0CD" fill-rule="nonzero">
        <path d="M23.2 4.4C20 1.2 6.4.4 2 0c-.4 0-.8 0-1.2.4C.4.8 0 1.6 0 2v36c0 1.2.8 2 2 2h12c.8 0 1.6-.4 2-1.2 0-1.2 7.2-22.4 8-32.8 0-.4 0-1.2-.8-1.6zM55.2 10C48 6.8 44.8 8.4 38.4 14.8c-2.8 2.8-4.8 6.8-4.4 8.4 0 .4 0 .4.8.8 2 .8 4.8 1.2 7.6-3.2.4-.4.8-.8 1.6-.8 1.2 0 1.6-.4 2.8-.8.8-.4 1.6-.8 2.8-1.2h.8c.4 0 1.2.4 1.6.4 2 2 5.6 4.8 9.2 8 5.6 4.4 11.2 9.2 14 12.8h.4C72.8 31.2 68 17.6 66 14c-4-1.2-7.6-2.8-10.8-4zM94 4C78.4 4 69.6 8 69.2 8L68 9.2c0 .4 0 1.2.4 1.6 2.4 4 10.4 26 11.6 31.6.4.8 1.2 1.6 2 1.6h12c1.2 0 2-.8 2-2V6c0-1.2-.8-2-2-2z"/>
        <path d="M58 29.6c-3.2-2.8-6.4-5.2-8.8-7.2-.4.4-1.2.4-1.2.8-1.2.4-1.6.8-3.2.8-3.2 4-7.2 5.6-11.6 4-2-.4-3.2-2-3.6-3.6-.8-4 2.8-9.6 5.6-12.4h-8c-1.6 8-4.4 18.4-6.4 24 1.6 1.6 3.2 3.6 4.4 4.4 7.6 6.4 16.4 12.8 18 14 1.2.8 3.6 1.6 4.8 1.6h1.2l-6.4-6.4c-.8-.8-.8-2 0-2.8.8-.8 2-.8 2.8 0l8 8c.8.8 1.6.4 2.4.4 1.2-.4 1.6-1.2 2-2.4l-9.2-9.2c-.8-.8-.8-2 0-2.8.8-.8 2-.8 2.8 0l10 10c.4.4 2 .4 3.2 0 .4-.4 1.2-.8 1.6-1.6L55.2 38c-.8-.8-.8-2 0-2.8.8-.8 2-.8 2.8 0l11.6 11.6c.8.4 1.6 0 2.4-.4.4-.4 1.2-1.6.4-3.2-1.6-3.6-8.4-8.8-14.4-13.6z"/>
    </g>
</svg>
