<svg xmlns="http://www.w3.org/2000/svg" width="62" height="63" viewBox="0 0 62 63">
    <g fill="none" fill-rule="evenodd">
        <path fill="#1EB0CD" fill-rule="nonzero" d="M61.793 50.82L41.953 31l1.24-1.239a.997.997 0 0 0 0-1.445l-2.48-2.477.62-.62c1.447-1.445 2.067-3.096 2.067-5.16 0-2.065-.827-3.717-2.067-5.162L30.38 3.955C28.313 2.097 25.833.858 22.94.858c-2.893 0-5.373 1.239-7.233 3.303L3.1 16.755C1.033 18.613 0 21.297 0 23.98s1.033 5.367 3.1 7.432l10.953 10.942c1.447 1.445 3.1 2.064 5.167 2.064 2.067 0 3.72-.825 5.167-2.064l.62-.62 2.273 2.271a1 1 0 0 0 1.447 0l1.24-1.238 3.1 3.097v3.716c0 .619.413 1.032 1.033 1.032h3.72l5.58 4.955v4.335c0 .62.413 1.032 1.033 1.032h3.72l2.894 1.859c.206.206.413.206.62.206h9.3c.62 0 1.033-.413 1.033-1.032V51.645c0-.206-.207-.62-.207-.826zm-6.2 5.78c-.206.206-.62.206-.826.206-.207 0-.62 0-.827-.206l-18.6-18.58a.997.997 0 0 1 0-1.446 1 1 0 0 1 1.447 0l18.6 18.58c.413.207.413 1.033.206 1.446z"/>
        <path fill="#1F282C" d="M25.818 31.97l-4.59.607-.476-7.327-.07-.076-6.48 3.43-1.975-4.164 6.822-2.759-5.306-5.084 3.439-3.206 4.701 5.647 3.301-6.61 3.945 2.184-3.837 6.264.07.075 7.239 1.02-.888 4.502-7.106-1.71-.075.07z"/>
    </g>
</svg>
