<svg xmlns="http://www.w3.org/2000/svg" width="64" height="64" viewBox="0 0 64 64">
    <g fill="none" fill-rule="nonzero">
        <path fill="#1EB0CD" d="M58.667 23.467H18.133c-2.986 0-5.333 2.346-5.333 5.333v20.267H64V28.8c0-2.987-2.347-5.333-5.333-5.333z"/>
        <path fill="#1F282C" d="M12.8 52.267c0 2.986 2.347 5.333 5.333 5.333H38.4v4.267h-9.6c-.64 0-1.067.426-1.067 1.066 0 .64.427 1.067 1.067 1.067h21.333c.64 0 1.067-.427 1.067-1.067 0-.64-.427-1.066-1.067-1.066h-9.6V57.6h18.134c2.986 0 5.333-2.347 5.333-5.333V51.2H12.8v1.067z"/>
        <path fill="#24B0CB" d="M25.6 0v10.667h8.533C32.213 4.907 29.227.64 25.6 0zM23.467 10.667V0C19.84.64 16.64 4.907 14.72 10.667h8.747zM0 23.467h10.667c0-3.84.426-7.467 1.28-10.667h-8.96A25.69 25.69 0 0 0 0 23.467zM0 25.6a25.69 25.69 0 0 0 2.987 10.667h7.68V28.8c0-.427 0-.853.213-1.28V25.6H0zM34.773 12.8H25.6v8.533h10.667c-.214-2.986-.64-5.973-1.494-8.533zM4.267 10.667h8.32C13.867 6.4 15.573 3.2 17.92.853 12.373 2.56 7.467 5.973 4.267 10.667zM8.96 43.307c.213.213.427.213.64.213h.427c.426-.213.64-.64.64-1.067v-4.266h-6.4c1.28 1.92 2.773 3.626 4.693 5.12zM12.8 23.467c1.493-1.28 3.2-2.134 5.333-2.134h5.334V12.8H14.08c-.853 3.2-1.28 6.827-1.28 10.667zM44.8 10.667C41.6 5.973 36.693 2.56 31.147.853 33.493 3.2 35.2 6.4 36.48 10.667h8.32zM38.4 21.333h9.173c.64 0 1.067-.426 1.067-1.066 0-.214 0-.427-.213-.427-.427-2.56-1.28-4.907-2.347-7.04h-8.96c.64 2.56 1.067 5.333 1.28 8.533z"/>
    </g>
</svg>
