<svg xmlns="http://www.w3.org/2000/svg" width="64" height="58" viewBox="0 0 64 58">
    <g fill="none" fill-rule="nonzero">
        <path fill="#1EB0CD" d="M55.893 39.071L42.453 21.93c-.213-.215-.426-.429-.853-.429h-1.067v-3.214c0-.643-.426-1.072-1.066-1.072-.64 0-1.067.429-1.067 1.072V21.5H25.6v-3.214c0-.643-.427-1.072-1.067-1.072-.64 0-1.066.429-1.066 1.072V21.5H22.4c-.427 0-.64.214-.853.429L8.107 39.07s0 .215-.214.215C6.827 41.214 6.4 43.57 6.4 45.714v11.143c0 .643.427 1.072 1.067 1.072h49.066c.64 0 1.067-.429 1.067-1.072V45.714c0-2.143-.427-4.5-1.707-6.643.214 0 .214 0 0 0zm-29.226 1.715h-2.134c-.64 0-1.066-.429-1.066-1.072s.426-1.071 1.066-1.071h2.134c.64 0 1.066.428 1.066 1.071s-.426 1.072-1.066 1.072zm0-4.286h-2.134c-.64 0-1.066-.429-1.066-1.071 0-.643.426-1.072 1.066-1.072h2.134c.64 0 1.066.429 1.066 1.072 0 .642-.426 1.071-1.066 1.071zm0-4.286h-2.134c-.64 0-1.066-.428-1.066-1.071s.426-1.072 1.066-1.072h2.134c.64 0 1.066.429 1.066 1.072s-.426 1.071-1.066 1.071zm6.4 8.572h-2.134c-.64 0-1.066-.429-1.066-1.072s.426-1.071 1.066-1.071h2.134c.64 0 1.066.428 1.066 1.071s-.426 1.072-1.066 1.072zm0-4.286h-2.134c-.64 0-1.066-.429-1.066-1.071 0-.643.426-1.072 1.066-1.072h2.134c.64 0 1.066.429 1.066 1.072 0 .642-.426 1.071-1.066 1.071zm0-4.286h-2.134c-.64 0-1.066-.428-1.066-1.071s.426-1.072 1.066-1.072h2.134c.64 0 1.066.429 1.066 1.072s-.426 1.071-1.066 1.071zm6.4 8.572h-2.134c-.64 0-1.066-.429-1.066-1.072s.426-1.071 1.066-1.071h2.134c.64 0 1.066.428 1.066 1.071s-.426 1.072-1.066 1.072zm0-4.286h-2.134c-.64 0-1.066-.429-1.066-1.071 0-.643.426-1.072 1.066-1.072h2.134c.64 0 1.066.429 1.066 1.072 0 .642-.426 1.071-1.066 1.071zm0-4.286h-2.134c-.64 0-1.066-.428-1.066-1.071s.426-1.072 1.066-1.072h2.134c.64 0 1.066.429 1.066 1.072s-.426 1.071-1.066 1.071z"/>
        <path fill="#000" d="M62.933 12.071C54.827 4.357 43.947.071 32 .071h-.427c-11.946 0-21.973 3.858-30.506 12C.427 12.93 0 13.786 0 14.857c0 1.072.427 1.929 1.067 2.572l6.186 7.714c.64.643 1.707 1.071 2.56 1.071 1.067 0 1.92-.428 2.56-1.071 1.707-1.5 3.84-2.572 5.974-3.643l1.28-.643c1.28-.643 1.706-2.143 1.706-3.428v-9C24.96 7.357 27.947 6.5 31.787 6.5H32c3.413 0 6.827.643 10.667 1.929v8.357c0 1.714.64 3 1.706 3.643l1.494.642C48 22.143 50.56 23.43 52.053 24.93c1.494 1.285 3.627 1.285 5.12-.215l5.547-7.285c.853-.858 1.28-1.715 1.28-2.786 0-.857-.427-1.714-1.067-2.572z"/>
    </g>
</svg>
