<svg xmlns="http://www.w3.org/2000/svg" width="48" height="51" viewBox="0 0 48 51">
    <g fill="none" fill-rule="nonzero">
        <path fill="#1F282C" d="M6.51 6.25L24 23.592 41.49 6.25A27.453 27.453 0 0 0 24 0 27.453 27.453 0 0 0 6.51 6.25z"/>
        <path fill="#1EB0CD" d="M42.688 42.126a23.575 23.575 0 0 0 5.173-12.376H30.208l12.48 12.376zm5.173-17.476a23.583 23.583 0 0 0-5.173-12.377L30.208 24.65h17.653zM0 27.2C0 40.344 10.745 51 24 51c5.7 0 10.935-1.975 15.051-5.267l-33.74-33.46A23.574 23.574 0 0 0 0 27.2z"/>
    </g>
</svg>
