<svg xmlns="http://www.w3.org/2000/svg" width="64" height="64" viewBox="0 0 64 64">
    <g fill="none" fill-rule="nonzero">
        <path fill="#1F282C" d="M62.933 11.947C54.827 4.267 43.947 0 32 0h-.427C19.627 0 9.6 3.84 1.067 11.947.427 12.8 0 13.653 0 14.507c0 1.066.427 2.133 1.067 2.56l6.186 7.68c.64.64 1.707 1.066 2.56 1.066 1.067 0 1.92-.426 2.56-1.066 1.707-1.494 3.84-2.56 5.974-3.627l1.28-.64c1.28-.64 1.706-2.133 1.706-3.413V8.32C24.96 7.04 27.947 6.4 31.787 6.4H32c3.413 0 6.827.64 10.667 1.92v8.32c0 1.707.64 2.987 1.706 3.627l1.494.64c2.133 1.066 4.693 2.346 6.186 3.84 1.494 1.28 3.627 1.28 5.12-.214l5.547-7.253c.853-.853 1.28-1.707 1.28-2.773 0-.854-.427-1.707-1.067-2.56z"/>
        <circle cx="18.133" cy="33.067" r="5.333" fill="#1EB0CD"/>
        <circle cx="33.067" cy="33.067" r="5.333" fill="#1EB0CD"/>
        <circle cx="48" cy="33.067" r="5.333" fill="#1EB0CD"/>
        <circle cx="18.133" cy="45.867" r="5.333" fill="#1EB0CD"/>
        <circle cx="33.067" cy="45.867" r="5.333" fill="#1EB0CD"/>
        <circle cx="48" cy="45.867" r="5.333" fill="#1EB0CD"/>
        <circle cx="18.133" cy="58.667" r="5.333" fill="#1EB0CD"/>
        <circle cx="33.067" cy="58.667" r="5.333" fill="#1EB0CD"/>
        <circle cx="48" cy="58.667" r="5.333" fill="#1EB0CD"/>
    </g>
</svg>
