<svg xmlns="http://www.w3.org/2000/svg" width="48" height="54" viewBox="0 0 48 54">
    <g fill="none" fill-rule="nonzero">
        <path fill="#1F282C" d="M41.263 53.969c0-3.728-3.016-6.75-6.737-6.75H12.632c-3.72 0-6.737 3.022-6.737 6.75h35.368z"/>
        <path fill="#1EB0CD" d="M23.592.031C10.57.031.013 10.608.013 23.656c0 7.523 3.526 14.206 8.995 18.532h29.17c5.468-4.326 8.994-11.009 8.994-18.532 0-13.048-10.558-23.625-23.58-23.625zm-7.414 31.521l-2.122 5.07-2.123-5.07-5.059-2.126 5.06-2.126 2.122-5.07 2.122 5.07 5.06 2.126-5.06 2.126zM33.69 20.307l-2.838 6.778-2.836-6.778-6.765-2.843 6.765-2.843 2.836-6.778 2.838 6.778 6.765 2.843-6.765 2.843z"/>
    </g>
</svg>
