<svg id="Layer_1" data-name="Layer 1" xmlns="http://www.w3.org/2000/svg" viewBox="0 0 960 320"><defs><style>.cls-1{fill:#3dafcc;}.cls-2{fill:#3d454d;}.cls-3{fill:#1f282c;}.cls-4{fill:#ca75ed;}.cls-5{fill:#3cb0cb;}</style></defs><title>1Artboard 2</title><polygon class="cls-1" points="698.99 292.33 692.99 292.33 692.99 290.33 696.99 290.33 696.99 286.33 698.99 286.33 698.99 292.33"/><path class="cls-1" d="M682.86,292.33H672.73v-2h10.13Zm-20.26,0H652.47v-2H662.6Zm-20.26,0H632.21v-2h10.13Z"/><polygon class="cls-1" points="622.08 292.33 616.08 292.33 616.08 286.33 618.08 286.33 618.08 290.33 622.08 290.33 622.08 292.33"/><path class="cls-1" d="M618.08,276.28h-2v-10h2Zm0-20.11h-2V246.12h2Zm0-20.1h-2V226h2Zm0-20.11h-2V205.91h2Zm0-20.11h-2v-10h2Zm0-20.1h-2V165.69h2Zm0-20.11h-2v-10h2Zm0-20.11h-2v-10h2Zm0-20.1h-2V105.37h2Zm0-20.11h-2v-10h2Zm0-20.11h-2v-10h2Zm0-20.1h-2V45.05h2Z"/><polygon class="cls-1" points="618.08 35 616.08 35 616.08 29 622.08 29 622.08 31 618.08 31 618.08 35"/><path class="cls-1" d="M682.86,31H672.73V29h10.13ZM662.6,31H652.47V29H662.6Zm-20.26,0H632.21V29h10.13Z"/><polygon class="cls-1" points="698.99 35 696.99 35 696.99 31 692.99 31 692.99 29 698.99 29 698.99 35"/><path class="cls-1" d="M699,276.28h-2v-10h2Zm0-20.11h-2V246.12h2Zm0-20.1h-2V226h2ZM699,216h-2V205.91h2Zm0-20.11h-2v-10h2Zm0-20.1h-2V165.69h2Zm0-20.11h-2v-10h2Zm0-20.11h-2v-10h2Zm0-20.1h-2V105.37h2Zm0-20.11h-2v-10h2Zm0-20.11h-2v-10h2Zm0-20.1h-2V45.05h2Z"/><polygon class="cls-2" points="670.07 168.09 668.64 166.69 675.17 159.97 668.64 153.25 670.07 151.85 677.96 159.97 670.07 168.09"/><rect class="cls-2" x="640.5" y="159.29" width="35.75" height="2"/><polygon class="cls-2" points="662.34 112.38 662.31 110.38 671.68 110.25 671.82 100.87 673.82 100.9 673.66 112.22 662.34 112.38"/><rect class="cls-2" x="655.29" y="72.78" width="2" height="45.06" transform="translate(124.83 491.98) rotate(-45)"/><polygon class="cls-2" points="671.82 219.07 671.68 209.69 662.31 209.56 662.34 207.56 673.66 207.72 673.82 219.04 671.82 219.07"/><rect class="cls-2" x="633.76" y="223.63" width="45.06" height="2" transform="translate(33.39 529.86) rotate(-45)"/><path d="M241.25,35.86h1.93v6h7.16v-6h1.91V49.62h-1.91v-6h-7.16v6h-1.93Z"/><path d="M260.46,43.48h.5v-.19a1.92,1.92,0,0,0-2.16-2.17,4.91,4.91,0,0,0-2.77,1l-.76-1.39A6.3,6.3,0,0,1,259,39.52c2.48,0,3.9,1.37,3.9,3.86v6.24h-1.77v-1a4.83,4.83,0,0,1,.06-.78h0a3.66,3.66,0,0,1-3.24,2,3,3,0,0,1-3.29-2.93C254.57,43.83,258.41,43.48,260.46,43.48Zm-2.15,4.88c1.66,0,2.65-1.68,2.65-3.14v-.37h-.49c-1.4,0-4,.11-4,1.93A1.66,1.66,0,0,0,258.31,48.36Z"/><path d="M265.64,39.76h1.75v.87a5.76,5.76,0,0,1-.05.75h0a3.61,3.61,0,0,1,3.31-1.86c2.67,0,4.33,2.11,4.33,5.17s-1.87,5.17-4.47,5.17a3.64,3.64,0,0,1-3.06-1.68h0a4.25,4.25,0,0,1,.08.86v4.48h-1.89Zm4.62,8.46c1.56,0,2.85-1.27,2.85-3.51s-1.15-3.53-2.79-3.53c-1.48,0-2.85,1-2.85,3.55C267.47,46.48,268.45,48.22,270.26,48.22Z"/><path d="M277.71,52.1a2,2,0,0,0,1.79-1.46l.49-1.13-4.14-9.75H278l2.48,6.45c.19.49.37,1.19.37,1.19h0s.15-.66.33-1.17l2.4-6.47h2L281,51.4a3.34,3.34,0,0,1-3.2,2.32,3.41,3.41,0,0,1-1.89-.61l.67-1.44A2.1,2.1,0,0,0,277.71,52.1Z"/><path d="M289.54,44.55v0l-2.91-4.75h2l2.42,4h1.41v-4h1.79v4h1.4l2.44-4h2l-2.89,4.75v0l3.18,5.07h-2.12l-2.58-4.21h-1.42v4.21h-1.79V45.41h-1.41l-2.59,4.21h-2.11Z"/><path d="M302.15,39.76H304v4h5v-4h1.89v9.86H309V45.39h-5v4.23h-1.89Z"/><path d="M318.92,43.48h.51v-.19a1.93,1.93,0,0,0-2.17-2.17,4.93,4.93,0,0,0-2.77,1l-.76-1.39a6.31,6.31,0,0,1,3.69-1.17c2.47,0,3.9,1.37,3.9,3.86v6.24h-1.78v-1a4.83,4.83,0,0,1,.06-.78h0a3.63,3.63,0,0,1-3.23,2,3,3,0,0,1-3.3-2.93C313,43.83,316.87,43.48,318.92,43.48Zm-2.15,4.88c1.66,0,2.66-1.68,2.66-3.14v-.37h-.49c-1.4,0-4,.11-4,1.93A1.67,1.67,0,0,0,316.77,48.36Z"/><path d="M325.39,46.35a4.15,4.15,0,0,1,.45-.61v0a2.93,2.93,0,0,1-2.15-2.86c0-2,1.45-3.1,3.53-3.1h3.94v9.86h-1.89V46.05h-1.66l-2.41,3.57h-2.09Zm3.88-1.68V41.06h-1.58c-1.27,0-2.09.51-2.09,1.78a1.79,1.79,0,0,0,2,1.83Z"/><path d="M240.9,63.15h1.76V64a4.61,4.61,0,0,1-.06.74h0A3.6,3.6,0,0,1,246,62.92c2.67,0,4.33,2.1,4.33,5.16s-1.87,5.17-4.47,5.17a3.64,3.64,0,0,1-3.06-1.67h0a4.21,4.21,0,0,1,.08.85v4.49H240.9Zm4.62,8.46c1.56,0,2.85-1.26,2.85-3.51s-1.15-3.53-2.79-3.53c-1.48,0-2.85,1.06-2.85,3.55C242.73,69.88,243.71,71.61,245.52,71.61Z"/><path d="M256.93,62.92c2.78,0,4.27,2.08,4.27,4.62a5.85,5.85,0,0,1-.08.8h-7.18a3.26,3.26,0,0,0,3.4,3.27,4.41,4.41,0,0,0,2.9-1.15l.8,1.39a5.88,5.88,0,0,1-3.82,1.4A5,5,0,0,1,252,68.08,4.85,4.85,0,0,1,256.93,62.92Zm2.36,4a2.41,2.41,0,0,0-2.4-2.59A2.86,2.86,0,0,0,254,67Z"/><path d="M263.48,63.15h1.89v4h1.38l2.69-4h2.15l-3.3,4.7v0L272,73h-2.24l-2.95-4.27h-1.42V73h-1.89Z"/><path d="M272.58,71.42c1.44-.22,2.22-1.66,2.22-5.23v-3h6.61V73h-1.89V64.71h-2.9v1.48c0,4.47-1.14,6.77-4,6.93Z"/><path d="M289.4,66.88h.51v-.2a1.92,1.92,0,0,0-2.16-2.16,5,5,0,0,0-2.77,1l-.76-1.38a6.23,6.23,0,0,1,3.68-1.17c2.48,0,3.9,1.36,3.9,3.86V73H290V72a5,5,0,0,1,.06-.78h0a3.66,3.66,0,0,1-3.24,2,3,3,0,0,1-3.3-2.92C283.51,67.23,287.36,66.88,289.4,66.88Zm-2.14,4.87c1.66,0,2.65-1.68,2.65-3.14v-.37h-.49c-1.4,0-4,.12-4,1.93A1.66,1.66,0,0,0,287.26,71.75Z"/><path d="M295,63.15h2.1l2.52,5.58c.27.58.55,1.32.55,1.32h0l.55-1.32,2.57-5.58h2.07l.86,9.87h-1.83L304,67.15c0-.59,0-1.7,0-1.7h0s-.26.68-.63,1.44L301,71.83h-1.62l-2.34-4.92-.62-1.46h0s.06,1.11,0,1.7L296,73h-1.83Z"/><path d="M313.89,66.88h.51v-.2a1.92,1.92,0,0,0-2.17-2.16,5,5,0,0,0-2.77,1l-.76-1.38a6.24,6.24,0,0,1,3.69-1.17c2.47,0,3.9,1.36,3.9,3.86V73h-1.78V72a5,5,0,0,1,.06-.78h0a3.63,3.63,0,0,1-3.23,2,3,3,0,0,1-3.3-2.92C308,67.23,311.84,66.88,313.89,66.88Zm-2.15,4.87c1.66,0,2.66-1.68,2.66-3.14v-.37h-.49c-1.41,0-4,.12-4,1.93A1.67,1.67,0,0,0,311.74,71.75Z"/><circle class="cls-2" cx="48.54" cy="43.94" r="11.68"/><path class="cls-2" d="M68.66,65a12.62,12.62,0,0,0-4.5-5.27,15.26,15.26,0,0,0-6.64-2.59,2.13,2.13,0,0,0-1.8.5,11.47,11.47,0,0,1-7.18,2.22,11.42,11.42,0,0,1-7.17-2.22,2.32,2.32,0,0,0-.72-.42,2.36,2.36,0,0,0-1.09-.08,15.19,15.19,0,0,0-6.63,2.59A12.54,12.54,0,0,0,28.43,65c-.26.56-.35.65-.35,1a1.46,1.46,0,0,0,.33.88,23.81,23.81,0,0,0,40.26,0A1.4,1.4,0,0,0,69,66C69,65.66,68.91,65.57,68.66,65Z"/><polygon class="cls-2" points="131.09 63.25 129.66 61.85 136.19 55.13 129.66 48.41 131.09 47.02 138.98 55.13 131.09 63.25"/><rect class="cls-2" x="101.52" y="54.45" width="35.75" height="2"/><polygon class="cls-2" points="389.4 63.25 387.96 61.85 394.5 55.13 387.96 48.41 389.4 47.02 397.29 55.13 389.4 63.25"/><rect class="cls-2" x="359.83" y="54.45" width="35.75" height="2"/><path class="cls-1" d="M211.84,44.55H173.06a2.75,2.75,0,0,0-2.75,2.74V64.05a2.75,2.75,0,0,0,2.75,2.74h38.78a2.75,2.75,0,0,0,2.75-2.74V47.29A2.75,2.75,0,0,0,211.84,44.55ZM175.39,54a.92.92,0,0,1,.92-.91h6.59a.91.91,0,0,1,.91.91v1.19a.92.92,0,0,1-.91.92h-6.59a.92.92,0,0,1-.92-.92ZM192,61a.91.91,0,0,1-.91.91H176.31a.92.92,0,0,1-.92-.91V59.79a.92.92,0,0,1,.92-.92h14.74a.92.92,0,0,1,.91.92Zm14.22-5a3.53,3.53,0,1,1,3.53-3.53A3.53,3.53,0,0,1,206.18,55.94Z"/><path class="cls-3" d="M180.43,34h-6.92a.92.92,0,0,0-.92.91v3.42a.92.92,0,0,0,.92.91h2v1.56a.91.91,0,0,0,.91.91h1a.92.92,0,0,0,.92-.91V39.28h2a.91.91,0,0,0,.91-.91V35A.91.91,0,0,0,180.43,34Z"/><path class="cls-3" d="M211.39,34h-6.92a.91.91,0,0,0-.91.91v3.42a.91.91,0,0,0,.91.91h2v1.56a.92.92,0,0,0,.92.91h1a.91.91,0,0,0,.91-.91V39.28h2a.92.92,0,0,0,.92-.91V35A.92.92,0,0,0,211.39,34Z"/><path class="cls-3" d="M195.91,34H189a.91.91,0,0,0-.91.91v3.42a.91.91,0,0,0,.91.91h2v1.56a.92.92,0,0,0,.92.91h1a.92.92,0,0,0,.92-.91V39.28h2a.91.91,0,0,0,.91-.91V35A.91.91,0,0,0,195.91,34Z"/><path class="cls-3" d="M194.42,69.68h-4.85v7.58a.91.91,0,0,0,.91.91h3.94a.91.91,0,0,0,.91-.91V69.68Z"/><path class="cls-2" d="M431.25,56.24h4.37v-4.8h1.6v4.8h4.35v1.52h-4.35v4.8h-1.6v-4.8h-4.37Z"/><path class="cls-2" d="M447.82,51.74a8.53,8.53,0,0,1,.78-1.27v0a7.83,7.83,0,0,1-1,0h-6.16V48.79h9.21v1.33l-6.21,12.44h-2Z"/><path class="cls-2" d="M457,55.93a14.36,14.36,0,0,1,2.26-7.7H461A14.81,14.81,0,0,0,458.75,56,17.54,17.54,0,0,0,461,64.41H459.3A16.74,16.74,0,0,1,457,55.93Z"/><path class="cls-2" d="M461.56,57.66l6.38-8.87h2.18v8.46H472v1.62h-1.87v3.69h-1.89V58.87h-6.67Zm6.67-.41v-5c0-.64.08-1.38.08-1.38h0a7.18,7.18,0,0,1-.69,1.15l-3.9,5.22v0Z"/><path class="cls-2" d="M474.7,60.55a4.76,4.76,0,0,0,2,.47c2.53,0,3.84-2.34,4.13-4.62h0a3.9,3.9,0,0,1-3,1.28,4.28,4.28,0,0,1-4.35-4.52,4.34,4.34,0,0,1,4.43-4.6c2.94,0,5.15,2.55,5.15,6.49,0,3.53-1.94,7.74-6.21,7.74a6.16,6.16,0,0,1-2.67-.56Zm6.24-6.42c0-1.79-1.37-3.8-3.12-3.8a2.54,2.54,0,0,0-2.52,2.83,2.69,2.69,0,0,0,2.81,2.9C479.67,56.06,480.94,55.11,480.94,54.13Z"/><path class="cls-2" d="M485.9,59.48a3.89,3.89,0,0,0,3,1.48,2.84,2.84,0,0,0,3-2.79,2.9,2.9,0,0,0-3.12-2.83,4.35,4.35,0,0,0-2.32.69l-1.13-.41.68-6.83h7v1.68h-5.28l-.32,2.9a5.22,5.22,0,0,1-.11.71h0a4.67,4.67,0,0,1,6.59,4.09A4.66,4.66,0,0,1,489,62.79a5.45,5.45,0,0,1-4.23-1.91Z"/><path class="cls-2" d="M497.26,56a14.81,14.81,0,0,0-2.21-7.72h1.66a14.27,14.27,0,0,1,2.26,7.7,16.64,16.64,0,0,1-2.26,8.48h-1.66A17.43,17.43,0,0,0,497.26,56Z"/><path class="cls-2" d="M506,60.88h3V52c0-.43,0-.84,0-.84h0a3.83,3.83,0,0,1-.66.8l-1.29,1.25L505.89,52l3.3-3.2h1.71V60.88h3v1.68H506Z"/><path class="cls-2" d="M515.64,61.5c0-4.89,6.77-5.61,6.77-8.85a2.3,2.3,0,0,0-2.5-2.28,3.39,3.39,0,0,0-2.79,1.75l-1.42-.95a4.94,4.94,0,0,1,4.37-2.61c2.51,0,4.33,1.58,4.33,4,0,4.52-6.57,5.22-6.65,8.36h6.86v1.68h-8.87A6.65,6.65,0,0,1,515.64,61.5Z"/><path class="cls-2" d="M527.54,59.46a4.77,4.77,0,0,0,3.33,1.5,2.63,2.63,0,0,0,2.81-2.52c0-1.69-1.5-2.53-3.22-2.53h-.93l-.45-1,3-3.53a6.19,6.19,0,0,1,.86-.9v0a9,9,0,0,1-1.17.06h-4.66V48.79h8.23V50l-3.75,4.33c1.82.17,4,1.34,4,4A4.45,4.45,0,0,1,531,62.79a6.29,6.29,0,0,1-4.46-1.87Z"/><path class="cls-2" d="M538.06,56.16h5.7v1.68h-5.7Z"/><path class="cls-2" d="M545.89,57.66l6.38-8.87h2.18v8.46h1.88v1.62h-1.88v3.69h-1.89V58.87h-6.67Zm6.67-.41v-5c0-.64.08-1.38.08-1.38h0a7.62,7.62,0,0,1-.68,1.15L548,57.21v0Z"/><path class="cls-2" d="M558.81,59.48a3.85,3.85,0,0,0,3,1.48,2.84,2.84,0,0,0,3-2.79,2.89,2.89,0,0,0-3.12-2.83,4.35,4.35,0,0,0-2.32.69l-1.13-.41.68-6.83h7v1.68h-5.28l-.31,2.9a4.29,4.29,0,0,1-.12.71h0a4.67,4.67,0,0,1,6.59,4.09A4.66,4.66,0,0,1,562,62.79a5.49,5.49,0,0,1-4.24-1.91Z"/><path class="cls-2" d="M569.26,56.16H575v1.68h-5.7Z"/><path class="cls-4" d="M577.52,55.56c0-4,1.29-7.18,5.25-7.18S588,51.56,588,55.56s-1.28,7.23-5.24,7.23S577.52,59.56,577.52,55.56Zm7,0c0-2.26-.39-4.06-1.73-4.06S581,53.3,581,55.56s.39,4.11,1.74,4.11S584.5,57.84,584.5,55.56Z"/><path class="cls-4" d="M589.76,59.63h3V53.82c0-.52,0-1.07,0-1.07h0a2.54,2.54,0,0,1-.54.74l-.84.76-2-2.11,3.76-3.52h2.95v11h3v2.93h-9.28Z"/><circle class="cls-2" cx="48.54" cy="148.24" r="11.68"/><path class="cls-2" d="M68.66,169.31a12.62,12.62,0,0,0-4.5-5.27,15.14,15.14,0,0,0-6.64-2.59,2.47,2.47,0,0,0-1.08.07,2.55,2.55,0,0,0-.72.43,11.4,11.4,0,0,1-7.18,2.21A11.36,11.36,0,0,1,41.37,162a2.06,2.06,0,0,0-1.81-.5A15.06,15.06,0,0,0,32.93,164a12.54,12.54,0,0,0-4.5,5.27c-.26.56-.35.65-.35,1a1.4,1.4,0,0,0,.33.87,23.8,23.8,0,0,0,40.26,0,1.34,1.34,0,0,0,.33-.87C69,170,68.91,169.87,68.66,169.31Z"/><polygon class="cls-2" points="131.09 167.55 129.66 166.15 136.19 159.43 129.66 152.71 131.09 151.31 138.98 159.43 131.09 167.55"/><rect class="cls-2" x="101.52" y="158.75" width="35.75" height="2"/><polygon class="cls-2" points="389.4 167.55 387.96 166.15 394.5 159.43 387.96 152.71 389.4 151.31 397.29 159.43 389.4 167.55"/><rect class="cls-2" x="359.83" y="158.75" width="35.75" height="2"/><path d="M241.25,140.15h10.84v13.77h-1.93V141.83h-7v12.09h-1.93Z"/><path d="M259.48,143.82c2.79,0,4.27,2.09,4.27,4.62a5.56,5.56,0,0,1-.08.8H256.5a3.25,3.25,0,0,0,3.39,3.28,4.44,4.44,0,0,0,2.9-1.15l.8,1.38a5.87,5.87,0,0,1-3.82,1.41,5,5,0,0,1-5.24-5.17A4.85,4.85,0,0,1,259.48,143.82Zm2.36,4.06a2.4,2.4,0,0,0-2.4-2.6,2.88,2.88,0,0,0-2.89,2.6Z"/><path d="M265.41,147.27v-3.22h1.85V147c0,1,.35,1.85,2,1.85a3.91,3.91,0,0,0,2.18-.7v-4.1h1.89v9.87h-1.89v-3.57c0-.27,0-.58,0-.58h0a5.49,5.49,0,0,1-2.67.72C266.61,150.49,265.41,149.38,265.41,147.27Z"/><path d="M281.29,147.78h.51v-.2a1.92,1.92,0,0,0-2.16-2.16,4.91,4.91,0,0,0-2.77,1l-.76-1.39a6.3,6.3,0,0,1,3.68-1.17c2.48,0,3.9,1.37,3.9,3.86v6.24h-1.77v-1a4.83,4.83,0,0,1,.06-.78h0a3.66,3.66,0,0,1-3.24,2,3,3,0,0,1-3.29-2.93C275.41,148.13,279.25,147.78,281.29,147.78Zm-2.14,4.87c1.66,0,2.65-1.67,2.65-3.14v-.37h-.49c-1.4,0-4,.12-4,1.93A1.66,1.66,0,0,0,279.15,152.65Z"/><path d="M288.72,145.67h-3.43v-1.62H294v1.62h-3.45v8.25h-1.87Z"/><path d="M295.89,144.05h1.9v4h5v-4h1.89v9.87h-1.89v-4.23h-5v4.23h-1.9Z"/><path d="M312.66,147.78h.51v-.2a1.93,1.93,0,0,0-2.17-2.16,4.88,4.88,0,0,0-2.76,1l-.77-1.39a6.33,6.33,0,0,1,3.69-1.17c2.48,0,3.9,1.37,3.9,3.86v6.24h-1.77v-1a5.77,5.77,0,0,1,0-.78h0a3.63,3.63,0,0,1-3.23,2,3,3,0,0,1-3.3-2.93C306.77,148.13,310.61,147.78,312.66,147.78Zm-2.14,4.87c1.65,0,2.65-1.67,2.65-3.14v-.37h-.49c-1.4,0-4,.12-4,1.93A1.67,1.67,0,0,0,310.52,152.65Z"/><path d="M319.13,150.65a4.33,4.33,0,0,1,.45-.61v0a2.93,2.93,0,0,1-2.14-2.86c0-2,1.44-3.11,3.53-3.11h3.93v9.87H323v-3.57h-1.65l-2.42,3.57h-2.09ZM323,149v-3.61h-1.58c-1.26,0-2.08.51-2.08,1.78a1.79,1.79,0,0,0,2,1.83Z"/><path d="M240.9,167.45h8.62v9.87h-1.89v-8.25h-4.84v8.25H240.9Z"/><path d="M252.44,167.45h1.76v.88a4.61,4.61,0,0,1-.06.74h0a3.61,3.61,0,0,1,3.31-1.86c2.67,0,4.33,2.11,4.33,5.17s-1.87,5.17-4.46,5.17a3.63,3.63,0,0,1-3.07-1.68h0a4.25,4.25,0,0,1,.08.86v4.49h-1.89Zm4.62,8.46c1.56,0,2.85-1.27,2.85-3.51s-1.15-3.53-2.79-3.53c-1.48,0-2.85,1-2.85,3.55C254.27,174.18,255.25,175.91,257.06,175.91Z"/><path d="M268.82,167.21a5.17,5.17,0,1,1-5.31,5.15A5.15,5.15,0,0,1,268.82,167.21Zm0,8.7a3.53,3.53,0,1,0-3.4-3.55A3.42,3.42,0,0,0,268.84,175.91Z"/><path d="M276.15,175.76c1.38-1.9,1.54-5,1.54-6.5v-1.81h6.67v8.31h1.4v3.9H284v-2.34h-7.32v2.34h-1.77v-3.9Zm6.32,0V169h-3v.53c0,1.48-.15,4.29-1.4,6.24Z"/><path d="M288.12,179.79a2,2,0,0,0,1.79-1.46l.49-1.13-4.14-9.75h2.13l2.48,6.45c.19.49.37,1.19.37,1.19h0s.15-.66.33-1.17l2.4-6.47h2l-4.64,11.64a3.34,3.34,0,0,1-3.2,2.32,3.44,3.44,0,0,1-1.89-.6l.67-1.45A2.1,2.1,0,0,0,288.12,179.79Z"/><path d="M297.9,167.45h1.89v4h1.39l2.69-4H306l-3.3,4.7v0l3.69,5.13h-2.25L301.22,173h-1.43v4.28H297.9Z"/><path d="M308.08,167.45H310v8.23h4.7v-8.23h1.91v8.23H318v4h-1.74v-2.34h-8.15Z"/><path d="M320,167.45h1.81v5.89c0,.52,0,1.23,0,1.32h0c.08-.17.55-.85.88-1.32l4.25-5.89h1.84v9.87h-1.84v-5.89c0-.47.06-1.15.06-1.31h0a13.6,13.6,0,0,1-.86,1.31l-4.27,5.89H320Z"/><path d="M332.92,174a4.58,4.58,0,0,1,.44-.61h0a3,3,0,0,1-2.14-2.87c0-2,1.44-3.1,3.53-3.1h3.94v9.87H336.8v-3.57h-1.66l-2.42,3.57h-2.09Zm3.88-1.68v-3.61h-1.58c-1.27,0-2.09.51-2.09,1.78a1.79,1.79,0,0,0,2,1.83Z"/><path d="M206.41,153.18H203s0,0,0,0v3.52s0,0,0,0h3.4s0,0,0,0v-3.52S206.43,153.18,206.41,153.18Z"/><path d="M194.59,142.79h-6.23a.55.55,0,0,0-.55.55v17.95a.55.55,0,0,0,.55.55h6.23a.55.55,0,0,0,.55-.55V143.34A.55.55,0,0,0,194.59,142.79Z"/><path class="cls-1" d="M211,134.39H182.81a3.53,3.53,0,0,0-3.52,3.52v19.37h0v16.25a2.22,2.22,0,0,1-4.43,0v-7.31h0v-8.94h-4.47v15a8.31,8.31,0,0,0,8.3,8.31H211a3.53,3.53,0,0,0,3.52-3.53V137.91A3.53,3.53,0,0,0,211,134.39Zm-25.9,9a3.26,3.26,0,0,1,3.26-3.26h6.23a3.26,3.26,0,0,1,3.26,3.26v17.95a3.26,3.26,0,0,1-3.26,3.26h-6.23a3.26,3.26,0,0,1-3.26-3.26Zm1.36,24.25h14.89a1.36,1.36,0,1,1,0,2.72H186.46a1.36,1.36,0,1,1,0-2.72Zm21.15,7.7H186.46a1.36,1.36,0,1,1,0-2.71h21.15a1.36,1.36,0,0,1,0,2.71Zm0-10.8h-6.26a1.36,1.36,0,0,1,0-2.71h6.26a1.36,1.36,0,0,1,0,2.71Zm1.35-7.75a2.75,2.75,0,0,1-2.74,2.75h-3a2.75,2.75,0,0,1-2.74-2.75v-3.52a2.75,2.75,0,0,1,2.74-2.75h3a2.75,2.75,0,0,1,2.74,2.75Zm-1.35-8.69h-5.79a1.36,1.36,0,1,1,0-2.71h5.79a1.36,1.36,0,0,1,0,2.71Zm0-5.26h-5.79a1.36,1.36,0,1,1,0-2.71h5.79a1.36,1.36,0,0,1,0,2.71Z"/><path class="cls-2" d="M430.86,160.54h4.37v-4.8h1.6v4.8h4.35v1.52h-4.35v4.8h-1.6v-4.8h-4.37Z"/><path class="cls-2" d="M447.43,156a7.23,7.23,0,0,1,.78-1.26v0a8,8,0,0,1-1,0h-6.16v-1.68h9.2v1.33l-6.2,12.44h-2Z"/><path class="cls-2" d="M456.64,160.23a14.31,14.31,0,0,1,2.27-7.71h1.65a15,15,0,0,0-2.2,7.73,17.53,17.53,0,0,0,2.2,8.46h-1.65A16.65,16.65,0,0,1,456.64,160.23Z"/><path class="cls-2" d="M461.17,162l6.37-8.87h2.19v8.46h1.87v1.62h-1.87v3.69h-1.9v-3.69h-6.66Zm6.66-.41v-5c0-.64.08-1.38.08-1.38h0a7.62,7.62,0,0,1-.68,1.15l-3.9,5.22v0Z"/><path class="cls-2" d="M474.3,164.85a4.8,4.8,0,0,0,2,.47c2.54,0,3.84-2.34,4.14-4.63h0a3.92,3.92,0,0,1-3,1.29,4.27,4.27,0,0,1-4.35-4.52,4.34,4.34,0,0,1,4.42-4.61c3,0,5.15,2.56,5.15,6.5,0,3.53-1.93,7.74-6.2,7.74a6.15,6.15,0,0,1-2.67-.57Zm6.24-6.42c0-1.79-1.36-3.8-3.12-3.8a2.53,2.53,0,0,0-2.51,2.83,2.7,2.7,0,0,0,2.81,2.9C479.28,160.36,480.54,159.41,480.54,158.43Z"/><path class="cls-2" d="M485.51,163.78a3.87,3.87,0,0,0,3,1.48,2.84,2.84,0,0,0,3-2.79,2.89,2.89,0,0,0-3.12-2.83,4.37,4.37,0,0,0-2.32.68l-1.13-.41.68-6.82h7v1.68h-5.29l-.31,2.9a4,4,0,0,1-.12.7h0a4.69,4.69,0,0,1,1.8-.41,4.5,4.5,0,0,1,4.79,4.51,4.65,4.65,0,0,1-4.87,4.62,5.45,5.45,0,0,1-4.23-1.91Z"/><path class="cls-2" d="M496.86,160.25a15,15,0,0,0-2.2-7.73h1.66a14.39,14.39,0,0,1,2.26,7.71,16.74,16.74,0,0,1-2.26,8.48h-1.66A17.53,17.53,0,0,0,496.86,160.25Z"/><path class="cls-2" d="M505.6,165.18h3v-8.89c0-.43,0-.84,0-.84h0a4.33,4.33,0,0,1-.66.8l-1.29,1.25-1.17-1.21,3.29-3.2h1.72v12.09h3v1.68H505.6Z"/><path class="cls-2" d="M515.25,165.8c0-4.89,6.76-5.61,6.76-8.85a2.29,2.29,0,0,0-2.49-2.28,3.38,3.38,0,0,0-2.79,1.75l-1.42-.95a4.93,4.93,0,0,1,4.36-2.62c2.52,0,4.33,1.58,4.33,4,0,4.53-6.57,5.23-6.65,8.37h6.87v1.68h-8.88A8.12,8.12,0,0,1,515.25,165.8Z"/><path class="cls-2" d="M527.14,163.76a4.84,4.84,0,0,0,3.34,1.5,2.64,2.64,0,0,0,2.81-2.52c0-1.7-1.5-2.53-3.22-2.53h-.94l-.45-1,3-3.53a6.41,6.41,0,0,1,.86-.89v0a9,9,0,0,1-1.17.06h-4.66v-1.68h8.22v1.23l-3.74,4.33c1.81.17,4,1.34,4,4a4.46,4.46,0,0,1-4.68,4.41,6.31,6.31,0,0,1-4.47-1.87Z"/><path class="cls-2" d="M537.67,160.46h5.69v1.68h-5.69Z"/><path class="cls-2" d="M545.5,162l6.38-8.87h2.18v8.46h1.87v1.62h-1.87v3.69h-1.89v-3.69H545.5Zm6.67-.41v-5c0-.64.08-1.38.08-1.38h0a7.18,7.18,0,0,1-.69,1.15l-3.9,5.22v0Z"/><path class="cls-2" d="M558.41,163.78a3.89,3.89,0,0,0,3,1.48,2.84,2.84,0,0,0,3-2.79,2.9,2.9,0,0,0-3.12-2.83,4.34,4.34,0,0,0-2.32.68l-1.13-.41.68-6.82h7v1.68h-5.28l-.32,2.9a4.87,4.87,0,0,1-.11.7h0a4.78,4.78,0,0,1,1.8-.41,4.5,4.5,0,0,1,4.8,4.51,4.66,4.66,0,0,1-4.88,4.62,5.45,5.45,0,0,1-4.23-1.91Z"/><path class="cls-2" d="M568.87,160.46h5.7v1.68h-5.7Z"/><path class="cls-4" d="M577.13,159.86c0-4,1.29-7.18,5.24-7.18s5.25,3.18,5.25,7.18-1.29,7.23-5.25,7.23S577.13,163.85,577.13,159.86Zm7,0c0-2.27-.39-4.06-1.74-4.06s-1.73,1.79-1.73,4.06S581,164,582.37,164,584.11,162.14,584.11,159.86Z"/><path class="cls-4" d="M590.85,162.62a4.4,4.4,0,0,0,2.83,1.25,1.81,1.81,0,0,0,2-1.71c0-1.1-1-1.74-2.22-1.74a4.29,4.29,0,0,0-1.88.47l-1.81-.68.57-7.3h7.8v2.93h-4.84l-.08,1.28a4.31,4.31,0,0,1-.08.55h0a4.88,4.88,0,0,1,1-.13c3.31,0,5,2.06,5,4.58a4.88,4.88,0,0,1-5.17,5,6.9,6.9,0,0,1-4.76-1.83Z"/><path d="M241.25,256.15h5.05a4.09,4.09,0,0,1,4.31,4.31,4.14,4.14,0,0,1-4.31,4.37h-3.12v5.09h-1.93Zm4.74,7a2.49,2.49,0,0,0,2.67-2.69,2.45,2.45,0,0,0-2.65-2.63h-2.83v5.32Z"/><path d="M257.51,263.77H258v-.19a1.93,1.93,0,0,0-2.17-2.17,4.93,4.93,0,0,0-2.77,1l-.76-1.38a6.24,6.24,0,0,1,3.69-1.17c2.48,0,3.9,1.36,3.9,3.86v6.24h-1.77v-1a5.77,5.77,0,0,1,.05-.78h0a3.63,3.63,0,0,1-3.23,2,3,3,0,0,1-3.3-2.92C251.62,264.12,255.46,263.77,257.51,263.77Zm-2.14,4.88c1.65,0,2.65-1.68,2.65-3.14v-.37h-.49c-1.4,0-4,.12-4,1.93A1.67,1.67,0,0,0,255.37,268.65Z"/><path d="M262.68,268.36c1.38-1.9,1.54-5,1.54-6.5v-1.81h6.67v8.31h1.4v3.9h-1.74v-2.34h-7.31v2.34h-1.77v-3.9Zm6.31,0v-6.77h-3v.53a12.43,12.43,0,0,1-1.4,6.24Z"/><path d="M274.28,260.05h1.81v5.89c0,.52,0,1.23-.06,1.32h0c.08-.17.55-.85.88-1.32l4.25-5.89H283v9.87H281.2V264c0-.47.06-1.15.06-1.31h0c-.06.18-.55.84-.86,1.31l-4.27,5.89h-1.81Z"/><path d="M290.59,259.82a5.17,5.17,0,1,1-5.3,5.14A5.14,5.14,0,0,1,290.59,259.82Zm0,8.69a3.53,3.53,0,0,0,0-7.06,3.53,3.53,0,0,0,0,7.06Z"/><circle class="cls-2" cx="48.54" cy="252.54" r="11.68"/><path class="cls-2" d="M68.66,273.61a12.69,12.69,0,0,0-4.5-5.28,15.22,15.22,0,0,0-6.64-2.58,2,2,0,0,0-1.8.5,11.4,11.4,0,0,1-7.18,2.21,11.36,11.36,0,0,1-7.17-2.21,2.34,2.34,0,0,0-.72-.43,2.38,2.38,0,0,0-1.09-.07,15.15,15.15,0,0,0-6.63,2.58,12.62,12.62,0,0,0-4.5,5.28c-.26.56-.35.65-.35,1a1.46,1.46,0,0,0,.33.88,23.8,23.8,0,0,0,40.26,0,1.4,1.4,0,0,0,.33-.88C69,274.26,68.91,274.17,68.66,273.61Z"/><polygon class="cls-2" points="131.09 271.84 129.66 270.45 136.19 263.73 129.66 257 131.09 255.61 138.98 263.73 131.09 271.84"/><rect class="cls-2" x="101.52" y="263.05" width="35.75" height="2"/><polygon class="cls-2" points="389.4 271.84 387.96 270.45 394.5 263.73 387.96 257 389.4 255.61 397.29 263.73 389.4 271.84"/><rect class="cls-2" x="359.83" y="263.05" width="35.75" height="2"/><path class="cls-2" d="M430.53,264.84h4.37V260h1.6v4.8h4.35v1.52H436.5v4.79h-1.6v-4.79h-4.37Z"/><path class="cls-2" d="M447.1,260.33a8.53,8.53,0,0,1,.78-1.27v0a7.83,7.83,0,0,1-1,0h-6.16v-1.67H450v1.32l-6.2,12.44h-2Z"/><path class="cls-2" d="M456.32,264.52a14.38,14.38,0,0,1,2.26-7.7h1.66a14.82,14.82,0,0,0-2.2,7.72,17.57,17.57,0,0,0,2.2,8.47h-1.66A16.78,16.78,0,0,1,456.32,264.52Z"/><path class="cls-2" d="M460.84,266.26l6.38-8.87h2.18v8.46h1.87v1.62H469.4v3.68h-1.89v-3.68h-6.67Zm6.67-.41v-5c0-.65.08-1.39.08-1.39h0a6.74,6.74,0,0,1-.69,1.15l-3.9,5.23v0Z"/><path class="cls-2" d="M474,269.15a4.81,4.81,0,0,0,2,.46c2.53,0,3.84-2.34,4.13-4.62h0a3.91,3.91,0,0,1-3,1.29,4.28,4.28,0,0,1-4.35-4.53,4.34,4.34,0,0,1,4.43-4.6c2.94,0,5.15,2.56,5.15,6.5,0,3.53-1.94,7.74-6.21,7.74a6.18,6.18,0,0,1-2.67-.57Zm6.24-6.42c0-1.79-1.37-3.8-3.12-3.8a2.54,2.54,0,0,0-2.52,2.82,2.7,2.7,0,0,0,2.81,2.91C479,264.66,480.22,263.71,480.22,262.73Z"/><path class="cls-2" d="M485.18,268.07a3.89,3.89,0,0,0,3,1.48,2.84,2.84,0,0,0,3-2.78,2.9,2.9,0,0,0-3.12-2.83,4.34,4.34,0,0,0-2.32.68l-1.13-.41.68-6.82h7v1.67H487l-.32,2.91a4.87,4.87,0,0,1-.11.7h0a4.68,4.68,0,0,1,1.79-.41,4.5,4.5,0,0,1,4.8,4.51,4.66,4.66,0,0,1-4.88,4.62,5.49,5.49,0,0,1-4.23-1.91Z"/><path class="cls-2" d="M496.54,264.54a14.83,14.83,0,0,0-2.21-7.72H496a14.3,14.3,0,0,1,2.26,7.7A16.68,16.68,0,0,1,496,273h-1.66A17.47,17.47,0,0,0,496.54,264.54Z"/><path class="cls-2" d="M505.27,269.48h3v-8.9c0-.42,0-.83,0-.83h0a3.83,3.83,0,0,1-.66.8l-1.29,1.24-1.17-1.21,3.3-3.19h1.71v12.09h3v1.67h-7.94Z"/><path class="cls-2" d="M514.92,270.1c0-4.89,6.77-5.62,6.77-8.85a2.3,2.3,0,0,0-2.5-2.28,3.39,3.39,0,0,0-2.79,1.75l-1.42-1a4.93,4.93,0,0,1,4.37-2.62c2.51,0,4.33,1.58,4.33,4,0,4.53-6.57,5.23-6.65,8.37h6.86v1.67H515A6.63,6.63,0,0,1,514.92,270.1Z"/><path class="cls-2" d="M526.82,268.05a4.77,4.77,0,0,0,3.33,1.5A2.63,2.63,0,0,0,533,267c0-1.7-1.5-2.54-3.22-2.54h-.93l-.45-1,3-3.53a6.9,6.9,0,0,1,.86-.9v0a9,9,0,0,1-1.17.06h-4.66v-1.67h8.23v1.23l-3.75,4.32c1.82.18,4,1.35,4,4a4.46,4.46,0,0,1-4.68,4.41,6.33,6.33,0,0,1-4.46-1.87Z"/><path class="cls-2" d="M537.34,264.76H543v1.67h-5.7Z"/><path class="cls-2" d="M545.17,266.26l6.38-8.87h2.18v8.46h1.88v1.62h-1.88v3.68h-1.89v-3.68h-6.67Zm6.67-.41v-5c0-.65.08-1.39.08-1.39h0a7.12,7.12,0,0,1-.68,1.15l-3.9,5.23v0Z"/><path class="cls-2" d="M558.09,268.07a3.85,3.85,0,0,0,3,1.48,2.83,2.83,0,0,0,3-2.78,2.89,2.89,0,0,0-3.12-2.83,4.34,4.34,0,0,0-2.32.68l-1.13-.41.68-6.82h7v1.67H559.9l-.31,2.91a4,4,0,0,1-.12.7h0a4.68,4.68,0,0,1,1.79-.41,4.5,4.5,0,0,1,4.8,4.51,4.66,4.66,0,0,1-4.87,4.62,5.52,5.52,0,0,1-4.24-1.91Z"/><path class="cls-2" d="M568.54,264.76h5.7v1.67h-5.7Z"/><path class="cls-4" d="M576.8,264.15c0-4,1.29-7.17,5.25-7.17s5.24,3.18,5.24,7.17-1.28,7.24-5.24,7.24S576.8,268.15,576.8,264.15Zm7,0c0-2.26-.39-4-1.73-4s-1.74,1.79-1.74,4,.39,4.12,1.74,4.12S583.78,266.43,583.78,264.15Z"/><path class="cls-4" d="M590.48,267.86a5,5,0,0,0,1.91.41,3,3,0,0,0,3-2.3h0a4,4,0,0,1-1.91.48,4.56,4.56,0,0,1-4.56-4.77,4.62,4.62,0,0,1,4.75-4.7c2.81,0,5.66,2.12,5.66,6.67,0,3.78-2.32,7.74-6.65,7.74a7.25,7.25,0,0,1-3.08-.61Zm5.3-5a2.58,2.58,0,0,0-2.15-2.77,1.46,1.46,0,0,0-1.4,1.56,2,2,0,0,0,2.11,2C595.12,263.71,595.78,263.51,595.78,262.87Z"/><path d="M203.11,268.06a4,4,0,1,0,4,4A4,4,0,0,0,203.11,268.06Z"/><rect x="201.78" y="257.4" width="5.33" height="2.66"/><rect x="177.71" y="257.4" width="16.08" height="2.66"/><path class="cls-1" d="M211.1,249.41H183V248a4,4,0,0,0-8,0v1.42h-1.33a4,4,0,0,0-4,4v26.73a4,4,0,0,0,4,4H211.1a4.09,4.09,0,0,0,4.09-4V253.41A4.08,4.08,0,0,0,211.1,249.41Zm-33.39,28a1.34,1.34,0,0,1-2.67,0V266.73a1.34,1.34,0,0,1,2.67,0Zm5.33,0a1.34,1.34,0,0,1-2.67,0V266.73a1.34,1.34,0,0,1,2.67,0Zm5.32,0a1.33,1.33,0,0,1-2.66,0V266.73a1.33,1.33,0,1,1,2.66,0Zm5.42,0a1.33,1.33,0,1,1-2.66,0V266.73a1.33,1.33,0,1,1,2.66,0Zm1.33-14.66H176.37A1.33,1.33,0,0,1,175,261.4v-5.33a1.33,1.33,0,0,1,1.33-1.33h18.74a1.33,1.33,0,0,1,1.34,1.33v5.33A1.33,1.33,0,0,1,195.11,262.73Zm8,16a6.66,6.66,0,1,1,6.66-6.66A6.66,6.66,0,0,1,203.11,278.72Zm6.66-17.32a1.33,1.33,0,0,1-1.33,1.33h-8a1.33,1.33,0,0,1-1.33-1.33v-5.33a1.33,1.33,0,0,1,1.33-1.33h8a1.33,1.33,0,0,1,1.33,1.33Z"/><path d="M215.15,239.7a1.33,1.33,0,0,0-1.6-1l-28.47,6.53a6.43,6.43,0,0,1,.6,2.59l28.47-6.53A1.32,1.32,0,0,0,215.15,239.7Z"/><path class="cls-2" d="M719.6,160.54H724v-4.8h1.6v4.8h4.35v1.52h-4.35v4.8H724v-4.8H719.6Z"/><path class="cls-2" d="M736.17,156a8,8,0,0,1,.78-1.26v0a7.83,7.83,0,0,1-1,0h-6.16v-1.68H739v1.33l-6.2,12.44h-2Z"/><path class="cls-2" d="M745.39,160.23a14.39,14.39,0,0,1,2.26-7.71h1.66a14.86,14.86,0,0,0-2.2,7.73,17.53,17.53,0,0,0,2.2,8.46h-1.66A16.74,16.74,0,0,1,745.39,160.23Z"/><path class="cls-2" d="M749.91,162l6.38-8.87h2.18v8.46h1.87v1.62h-1.87v3.69h-1.89v-3.69h-6.67Zm6.67-.41v-5c0-.64.08-1.38.08-1.38h0a7.18,7.18,0,0,1-.69,1.15L752,161.51v0Z"/><path class="cls-2" d="M763.05,164.85a4.8,4.8,0,0,0,2,.47c2.53,0,3.84-2.34,4.13-4.63h0a3.91,3.91,0,0,1-3,1.29,4.28,4.28,0,0,1-4.35-4.52,4.35,4.35,0,0,1,4.43-4.61c2.94,0,5.15,2.56,5.15,6.5,0,3.53-1.93,7.74-6.21,7.74a6.18,6.18,0,0,1-2.67-.57Zm6.24-6.42c0-1.79-1.37-3.8-3.12-3.8a2.54,2.54,0,0,0-2.52,2.83,2.7,2.7,0,0,0,2.81,2.9C768,160.36,769.29,159.41,769.29,158.43Z"/><path class="cls-2" d="M774.25,163.78a3.89,3.89,0,0,0,3,1.48,2.84,2.84,0,0,0,3-2.79,2.9,2.9,0,0,0-3.12-2.83,4.34,4.34,0,0,0-2.32.68l-1.13-.41.68-6.82h7v1.68h-5.28l-.32,2.9a4.87,4.87,0,0,1-.11.7h0a4.68,4.68,0,0,1,1.79-.41,4.5,4.5,0,0,1,4.8,4.51,4.66,4.66,0,0,1-4.88,4.62,5.45,5.45,0,0,1-4.23-1.91Z"/><path class="cls-2" d="M785.61,160.25a15,15,0,0,0-2.2-7.73h1.65a14.31,14.31,0,0,1,2.26,7.71,16.64,16.64,0,0,1-2.26,8.48h-1.65A17.53,17.53,0,0,0,785.61,160.25Z"/><path class="cls-2" d="M794.34,165.18h3v-8.89c0-.43,0-.84,0-.84h0a3.83,3.83,0,0,1-.66.8l-1.29,1.25-1.17-1.21,3.3-3.2h1.71v12.09h3v1.68h-7.94Z"/><path class="cls-2" d="M804,165.8c0-4.89,6.77-5.61,6.77-8.85a2.3,2.3,0,0,0-2.5-2.28,3.39,3.39,0,0,0-2.79,1.75l-1.42-.95a4.93,4.93,0,0,1,4.37-2.62c2.51,0,4.33,1.58,4.33,4,0,4.53-6.57,5.23-6.65,8.37H813v1.68h-8.87A6.75,6.75,0,0,1,804,165.8Z"/><path class="cls-2" d="M815.89,163.76a4.81,4.81,0,0,0,3.33,1.5,2.64,2.64,0,0,0,2.81-2.52c0-1.7-1.5-2.53-3.22-2.53h-.93l-.45-1,3-3.53a6.41,6.41,0,0,1,.86-.89v0a9,9,0,0,1-1.17.06h-4.66v-1.68h8.23v1.23l-3.75,4.33c1.82.17,4,1.34,4,4a4.46,4.46,0,0,1-4.68,4.41,6.29,6.29,0,0,1-4.46-1.87Z"/><path class="cls-2" d="M826.41,160.46h5.7v1.68h-5.7Z"/><path class="cls-2" d="M834.24,162l6.38-8.87h2.18v8.46h1.88v1.62H842.8v3.69h-1.89v-3.69h-6.67Zm6.67-.41v-5c0-.64.08-1.38.08-1.38h0a7.62,7.62,0,0,1-.68,1.15l-3.9,5.22v0Z"/><path class="cls-2" d="M847.16,163.78a3.85,3.85,0,0,0,3,1.48,2.84,2.84,0,0,0,3-2.79,2.89,2.89,0,0,0-3.12-2.83,4.34,4.34,0,0,0-2.32.68l-1.13-.41.68-6.82h7v1.68H849l-.31,2.9a4,4,0,0,1-.12.7h0a4.68,4.68,0,0,1,1.79-.41,4.5,4.5,0,0,1,4.8,4.51,4.66,4.66,0,0,1-4.87,4.62,5.49,5.49,0,0,1-4.24-1.91Z"/><path class="cls-2" d="M857.62,160.46h5.69v1.68h-5.69Z"/><path class="cls-4" d="M865.87,159.86c0-4,1.29-7.18,5.25-7.18s5.24,3.18,5.24,7.18-1.28,7.23-5.24,7.23S865.87,163.85,865.87,159.86Zm7,0c0-2.27-.39-4.06-1.73-4.06s-1.74,1.79-1.74,4.06.39,4.11,1.74,4.11S872.85,162.14,872.85,159.86Z"/><path class="cls-4" d="M878.31,159.86c0-4,1.29-7.18,5.25-7.18s5.25,3.18,5.25,7.18-1.29,7.23-5.25,7.23S878.31,163.85,878.31,159.86Zm7,0c0-2.27-.38-4.06-1.73-4.06s-1.74,1.79-1.74,4.06.39,4.11,1.74,4.11S885.29,162.14,885.29,159.86Z"/><path class="cls-3" d="M735.48,45.06a9.22,9.22,0,0,0,0-11.69l-5.85,5.85Z"/><path class="cls-5" d="M734.2,46.34l-5.85-5.84-5.84,5.84-1.92,1.92a11.91,11.91,0,0,0,15.53,0Zm-5.86-3,2.41,2.42h-4.82Z"/><path class="cls-3" d="M728.35,30a9.22,9.22,0,0,0-7.12,15.06l13-13A9.17,9.17,0,0,0,728.35,30"/><path class="cls-3" d="M748.07,33.93a4.91,4.91,0,0,1,3.51,1.3l-.83,1.28a4.22,4.22,0,0,0-2.6-1A3.09,3.09,0,0,0,745,38.77a3.21,3.21,0,0,0,3.2,3.4,4.09,4.09,0,0,0,2.75-1.2l.91,1.24a5.1,5.1,0,0,1-3.73,1.54,4.91,4.91,0,0,1,0-9.82"/><path class="cls-3" d="M756.66,39.31h.23v-.1c0-.89-.56-1.2-1.31-1.2a3.66,3.66,0,0,0-1.88.66l-.64-1.22a4.63,4.63,0,0,1,2.68-.84,2.54,2.54,0,0,1,2.84,2.71v4.27H757V43a3.77,3.77,0,0,1,0-.48h0a2.21,2.21,0,0,1-2.07,1.2,2.15,2.15,0,0,1-2.32-2.13c0-2.16,2.93-2.31,4-2.31m-1.3,3.12a1.76,1.76,0,0,0,1.54-1.8v-.16h-.29c-.87,0-2.28.12-2.28,1.07a.91.91,0,0,0,1,.89"/><path class="cls-3" d="M760.21,34.09h1.69v7.12c0,.75.25.94.69.94a1.77,1.77,0,0,0,.26,0v1.49a4,4,0,0,1-.54,0c-.94,0-2.1-.24-2.1-2.2Z"/><path class="cls-3" d="M764,34.09h1.69v7.12c0,.75.25.94.69.94a1.77,1.77,0,0,0,.26,0v1.49a4,4,0,0,1-.54,0c-.93,0-2.1-.24-2.1-2.2Z"/><path class="cls-3" d="M768.16,38.22h-.88V36.87h.92v-2h1.66v2h1.55v1.35h-1.55v2.65a1.21,1.21,0,0,0,1.35,1.29,1.41,1.41,0,0,0,.31,0v1.49a2.92,2.92,0,0,1-.52,0c-1,0-2.84-.28-2.84-2.57Z"/><path class="cls-3" d="M776.15,36.61a3.57,3.57,0,1,1-3.75,3.57,3.59,3.59,0,0,1,3.75-3.57m0,5.7a2.13,2.13,0,1,0-2-2.13,2,2,0,0,0,2,2.13"/><path class="cls-3" d="M781.22,36.77h1.7v4c0,.83.21,1.39,1.06,1.39a2.05,2.05,0,0,0,1.91-2.3V36.77h1.7v6.82H786v-.78c0-.26,0-.48,0-.48h0a2.64,2.64,0,0,1-2.37,1.42c-1.46,0-2.37-.73-2.37-2.59Z"/><path class="cls-3" d="M792.64,36.61a3.47,3.47,0,0,1,2.62,1l-.75,1.17a2.67,2.67,0,0,0-1.78-.74,2,2,0,0,0-2.07,2.12,2.08,2.08,0,0,0,2.12,2.14,3.15,3.15,0,0,0,2-.87l.66,1.2a3.9,3.9,0,0,1-2.81,1.11,3.57,3.57,0,1,1,0-7.14"/><path class="cls-3" d="M796.72,34.09h1.7v3.29a5.18,5.18,0,0,1,0,.58h0a2.61,2.61,0,0,1,2.35-1.35c1.52,0,2.37.78,2.37,2.59v4.39h-1.68v-4c0-.83-.22-1.39-1.09-1.39a1.91,1.91,0,0,0-1.84,1.42,3,3,0,0,0-.11.88v3.13h-1.7Z"/><path class="cls-1" d="M725.29,61.14a5.68,5.68,0,0,1,3.93,1.46L728.29,64a4.73,4.73,0,0,0-2.91-1.13,3.43,3.43,0,0,0-3.57,3.66,3.56,3.56,0,0,0,3.58,3.81A4.54,4.54,0,0,0,728.48,69l1,1.4a5.69,5.69,0,0,1-4.18,1.72,5.51,5.51,0,0,1,0-11Z"/><path class="cls-1" d="M734.14,61.91l2.64-1,.57,1.55-2.91,1.11c-1.31.54-2.16,1.24-2.24,2.56h0A3.13,3.13,0,0,1,734.75,65,3.2,3.2,0,0,1,738,68.49a3.53,3.53,0,0,1-3.75,3.66c-2.65,0-3.9-1.93-3.9-4.65C730.37,64.62,731.35,63,734.14,61.91Zm.06,8.67a2.07,2.07,0,0,0,0-4.13,1.93,1.93,0,0,0-1.92,2.06A1.9,1.9,0,0,0,734.2,70.58Z"/><path class="cls-1" d="M743.36,64.14a4,4,0,1,1-4.18,4A4,4,0,0,1,743.36,64.14Zm0,6.39a2.39,2.39,0,1,0-2.27-2.38A2.28,2.28,0,0,0,743.38,70.53Z"/><path class="cls-1" d="M749.15,64.32h1.74v.57a5.09,5.09,0,0,1,0,.54h0a2.83,2.83,0,0,1,2.46-1.29c2.07,0,3.39,1.64,3.39,4s-1.48,4-3.49,4A2.78,2.78,0,0,1,751,71.07h0a4,4,0,0,1,0,.66V75h-1.91Zm3.75,6.23c1.05,0,1.92-.86,1.92-2.37s-.78-2.4-1.89-2.4S751,66.5,751,68.19C751,69.38,751.66,70.55,752.9,70.55Z"/><path class="cls-1" d="M762.23,70.44a8.72,8.72,0,0,0,1-4.53V64.32h5.63v6.12H770v3.33h-1.72V72h-5.19v1.8h-1.77V70.44Zm4.74,0V65.85h-1.9v.36a8.59,8.59,0,0,1-.93,4.23Z"/><path class="cls-1" d="M775.22,67.17h.33v-.1c0-1-.64-1.35-1.44-1.35a3.93,3.93,0,0,0-2.13.73l-.7-1.36a5.25,5.25,0,0,1,3-1,2.85,2.85,0,0,1,3.18,3V72h-1.77v-.64a3.78,3.78,0,0,1,0-.56h0a2.79,2.79,0,0,1-2.41,1.38,2.34,2.34,0,0,1-2.52-2.29C770.77,67.56,773.53,67.17,775.22,67.17Zm-1.41,3.53a1.94,1.94,0,0,0,1.76-2v-.21h-.33c-1,0-2.58.13-2.58,1.21A1,1,0,0,0,773.81,70.7Z"/><path class="cls-1" d="M779.39,64.32h1.91v3h3.27v-3h1.9V72h-1.9V68.88H781.3V72h-1.91Z"/><path class="cls-1" d="M788.51,64.32h1.91v3h3.27v-3h1.9V72h-1.9V68.88h-3.27V72h-1.91Z"/><path class="cls-1" d="M797.63,64.32h1.91V67h1.36c1.8,0,2.88.87,2.88,2.53,0,1.49-.88,2.49-2.89,2.49h-3.26Zm3,6.35a1.13,1.13,0,0,0,1.27-1.2,1.15,1.15,0,0,0-1.3-1.23h-1v2.43Zm4.24-6.35h1.91V72h-1.91Z"/><path class="cls-1" d="M810.5,68.1,808,64.32h2.16l1.19,2.09c.1.19.24.48.24.48h0l.25-.48,1.19-2.09h2.16L812.8,68.1,815.33,72H813.2l-1.32-2.22c-.1-.16-.22-.4-.22-.4h0a4.34,4.34,0,0,1-.21.4L810.1,72H808Z"/><path class="cls-1" d="M820.31,64.32h3.56c1.54,0,2.58.69,2.58,2a1.82,1.82,0,0,1-1,1.68v0a1.75,1.75,0,0,1,1.35,1.75c0,1.53-1.24,2.22-2.85,2.22h-3.63Zm3.15,3.15a1,1,0,0,0,1.07-1c0-.56-.35-.9-1.1-.9h-1.21v1.9Zm.15,3.24c.86,0,1.26-.43,1.26-1s-.43-1-1.26-1h-1.39v2Z"/><path class="cls-1" d="M835.82,64.14a4.06,4.06,0,0,1,2.94,1.14l-.85,1.31a2.91,2.91,0,0,0-2-.83,2.28,2.28,0,0,0-2.33,2.37,2.32,2.32,0,0,0,2.39,2.4,3.45,3.45,0,0,0,2.25-1l.73,1.35a4.43,4.43,0,0,1-3.15,1.24,4,4,0,1,1,0-8Z"/><path class="cls-1" d="M840.35,64.32h1.82v4.1a8.37,8.37,0,0,1,0,.91h0c.09-.19.38-.61.57-.91l2.84-4.1h1.84V72h-1.81V67.89c0-.28,0-.72,0-.91h0a8.39,8.39,0,0,1-.57.91L842.2,72h-1.85Z"/><path class="cls-1" d="M853.13,64.14a4.06,4.06,0,0,1,2.94,1.14l-.85,1.31a2.91,2.91,0,0,0-2-.83,2.28,2.28,0,0,0-2.33,2.37,2.32,2.32,0,0,0,2.39,2.4,3.45,3.45,0,0,0,2.25-1l.73,1.35a4.43,4.43,0,0,1-3.15,1.24,4,4,0,1,1,0-8Z"/><path class="cls-1" d="M859.45,65.94h-2.52V64.32h6.94v1.62h-2.53v6h-1.89Z"/><path class="cls-1" d="M868.4,64.14a3.32,3.32,0,0,1,3.39,3.63,6.15,6.15,0,0,1-.06.74h-5.26a2.17,2.17,0,0,0,2.29,2,3.57,3.57,0,0,0,2.19-.84l.75,1.37a4.83,4.83,0,0,1-3.07,1.09,3.93,3.93,0,0,1-4.13-4A3.79,3.79,0,0,1,868.4,64.14Zm1.49,3.06a1.51,1.51,0,0,0-1.53-1.62,1.84,1.84,0,0,0-1.85,1.62Z"/><path class="cls-1" d="M873.76,64.32h2.16l1.62,4c.18.42.37,1,.37,1h0l.38-1,1.65-4h2.13l.69,7.65H881l-.27-4.14c0-.51,0-1.3,0-1.3h0s-.21.57-.45,1.11L878.72,71h-1.57l-1.5-3.36c-.21-.52-.47-1.12-.47-1.12h0s.05.79,0,1.3L874.9,72h-1.83Z"/><path class="cls-1" d="M885,73.52a1.46,1.46,0,0,0,1.33-1l.29-.68-3.23-7.53h2.15l1.6,4.41a10.28,10.28,0,0,1,.29,1h0s.13-.6.25-1l1.5-4.44h2.07l-3.4,8.81a2.89,2.89,0,0,1-2.76,2,2.94,2.94,0,0,1-1.59-.49l.63-1.43A1.64,1.64,0,0,0,885,73.52Z"/><path class="cls-1" d="M724,85.17h.33v-.1c0-1-.65-1.35-1.44-1.35a3.9,3.9,0,0,0-2.13.73l-.71-1.36a5.25,5.25,0,0,1,3-1,2.85,2.85,0,0,1,3.18,3V90h-1.77v-.64a3,3,0,0,1,0-.56h0a2.81,2.81,0,0,1-2.42,1.38,2.34,2.34,0,0,1-2.52-2.29C719.57,85.56,722.33,85.17,724,85.17Zm-1.41,3.53a1.94,1.94,0,0,0,1.75-2v-.21H724c-1,0-2.58.13-2.58,1.21A1,1,0,0,0,722.62,88.7Z"/><path class="cls-1" d="M728.2,82.32h1.9v3h3.27v-3h1.91V90h-1.91V86.88H730.1V90h-1.9Z"/><path class="cls-1" d="M741.19,85.17h.33v-.1c0-1-.65-1.35-1.44-1.35a3.9,3.9,0,0,0-2.13.73l-.71-1.36a5.25,5.25,0,0,1,3-1,2.85,2.85,0,0,1,3.18,3V90h-1.77v-.64a3,3,0,0,1,.05-.56h0a2.81,2.81,0,0,1-2.42,1.38,2.34,2.34,0,0,1-2.52-2.29C736.73,85.56,739.49,85.17,741.19,85.17Zm-1.41,3.53a1.94,1.94,0,0,0,1.75-2v-.21h-.33c-1,0-2.58.13-2.58,1.21A1,1,0,0,0,739.78,88.7Z"/><path class="cls-1" d="M744.64,88.37c.94-.14,1.6-.93,1.6-3.65v-2.4h5.58V90h-1.9v-6.1h-1.86v.85c0,3.33-.89,5.25-3.42,5.33Z"/><path class="cls-1" d="M753.86,82.32h1.82v4.1a8.37,8.37,0,0,1,0,.91h0c.09-.19.38-.61.57-.91l2.84-4.1h1.84V90H759.1V85.89c0-.28,0-.72,0-.91h0a8.39,8.39,0,0,1-.57.91L755.71,90h-1.85Z"/><path class="cls-1" d="M764.74,83.94h-2.52V82.32h6.94v1.62h-2.53v6h-1.89Z"/><path class="cls-1" d="M770.45,82.32h1.82v4.1a8.37,8.37,0,0,1,0,.91h0c.09-.19.38-.61.57-.91l2.84-4.1h1.84V90h-1.81V85.89c0-.28,0-.72,0-.91h0a8.39,8.39,0,0,1-.57.91L772.3,90h-1.85Z"/><path class="cls-1" d="M779.54,82.32h1.91v2.93h.93l1.86-2.93h2.11L783.92,86v0l2.73,4h-2.2l-2-3.1h-1V90h-1.91Z"/><path class="cls-1" d="M787.78,82.32h1.81v4.1c0,.34,0,.79,0,.91h0c.09-.19.37-.61.57-.91l2.83-4.1h1.85V90H793V85.89c0-.28,0-.72,0-.91h0a10.32,10.32,0,0,1-.57.91L789.62,90h-1.84Z"/><path d="M778.34,234.64a3.56,3.56,0,0,0,2.49,1.11,2,2,0,0,0,2.21-1.92,1.77,1.77,0,0,0-2-1.76h-1.31v-1.23h1a1.77,1.77,0,0,0,1.91-1.71,1.65,1.65,0,0,0-1.88-1.69,3.63,3.63,0,0,0-2.37.9l-.63-1.11a4.86,4.86,0,0,1,3.21-1.1c1.82,0,3.18,1.05,3.18,2.82a2.58,2.58,0,0,1-1.53,2.39v0a2.5,2.5,0,0,1,1.86,2.53c0,2-1.6,3.18-3.6,3.18a4.7,4.7,0,0,1-3.43-1.44Z"/><path d="M786.43,229.31h3.13c1.53,0,2.54.68,2.54,1.95a1.76,1.76,0,0,1-1.08,1.67h0a1.8,1.8,0,0,1,1.44,1.8c0,1.41-1.14,2.16-2.79,2.16h-3.24Zm2.88,3.21c.87,0,1.3-.45,1.3-1.15s-.43-1.05-1.35-1.05h-1.38v2.2Zm.13,3.36c1,0,1.55-.48,1.55-1.18s-.56-1.2-1.56-1.2h-1.55v2.38Z"/><path d="M797.81,229.13a4,4,0,1,1-4.08,4A4,4,0,0,1,797.81,229.13Zm0,6.69a2.72,2.72,0,1,0-2.61-2.73A2.63,2.63,0,0,0,797.83,235.82Z"/><path d="M803.66,229.31h1.46v3.09H809v-3.09h1.45v7.59H809v-3.25h-3.84v3.25h-1.46Z"/><path d="M816.25,229.13a4,4,0,1,1-4.08,4A4,4,0,0,1,816.25,229.13Zm0,6.69a2.72,2.72,0,1,0-2.61-2.73A2.63,2.63,0,0,0,816.26,235.82Z"/><path d="M822.1,229.31h1.45v3.06h1.07l2.07-3.06h1.65l-2.54,3.62v0l2.84,3.94h-1.73l-2.26-3.28h-1.1v3.28H822.1Z"/><path d="M778.24,247.31h6.63v7.59h-1.46v-6.34h-3.72v6.34h-1.45Z"/><path d="M790.43,247.13a3.24,3.24,0,0,1,3.29,3.56,4.49,4.49,0,0,1-.06.61h-5.52a2.49,2.49,0,0,0,2.61,2.52,3.42,3.42,0,0,0,2.23-.88l.62,1.06a4.53,4.53,0,0,1-2.94,1.08,3.87,3.87,0,0,1-4-4A3.73,3.73,0,0,1,790.43,247.13Zm1.82,3.12a1.85,1.85,0,0,0-1.85-2,2.2,2.2,0,0,0-2.22,2Z"/><path d="M795.47,247.31h1.35V248a4.19,4.19,0,0,1,0,.57h0a2.77,2.77,0,0,1,2.55-1.43c2,0,3.33,1.62,3.33,4s-1.44,4-3.44,4a2.77,2.77,0,0,1-2.35-1.29h0a3.35,3.35,0,0,1,.06.66v3.45h-1.46Zm3.56,6.51c1.2,0,2.19-1,2.19-2.7s-.89-2.71-2.15-2.71-2.19.81-2.19,2.73C796.88,252.49,797.63,253.82,799,253.82Z"/><path d="M807.8,247.13a3.24,3.24,0,0,1,3.29,3.56,4.49,4.49,0,0,1-.06.61h-5.52a2.49,2.49,0,0,0,2.61,2.52,3.42,3.42,0,0,0,2.23-.88L811,254a4.53,4.53,0,0,1-2.94,1.08,3.87,3.87,0,0,1-4-4A3.73,3.73,0,0,1,807.8,247.13Zm1.82,3.12a1.85,1.85,0,0,0-1.85-2,2.2,2.2,0,0,0-2.22,2Z"/><path d="M816.74,250.18h.39V250a1.48,1.48,0,0,0-1.66-1.67,3.76,3.76,0,0,0-2.13.74l-.59-1.07a4.85,4.85,0,0,1,2.84-.9,2.71,2.71,0,0,1,3,3v4.8h-1.37v-.76a3.38,3.38,0,0,1,0-.6h0a2.81,2.81,0,0,1-2.49,1.54,2.34,2.34,0,0,1-2.54-2.25C812.21,250.45,815.17,250.18,816.74,250.18Zm-1.65,3.75a2.28,2.28,0,0,0,2-2.42v-.28h-.37c-1.08,0-3.09.09-3.09,1.48A1.28,1.28,0,0,0,815.09,253.93Z"/><path d="M820.72,253.7c1.06-1.45,1.18-3.82,1.18-5v-1.4H827v6.39h1.08v3h-1.33v-1.8h-5.63v1.8h-1.36v-3Zm4.86,0v-5.2H823.3v.4a9.5,9.5,0,0,1-1.08,4.8Z"/><path d="M829.64,247.31H831V248a4.19,4.19,0,0,1,0,.57h0a2.77,2.77,0,0,1,2.55-1.43c2.05,0,3.33,1.62,3.33,4s-1.44,4-3.44,4a2.77,2.77,0,0,1-2.35-1.29h0a3.35,3.35,0,0,1,.06.66v3.45h-1.46Zm3.56,6.51c1.2,0,2.19-1,2.19-2.7s-.89-2.71-2.15-2.71-2.19.81-2.19,2.73C831.05,252.49,831.8,253.82,833.2,253.82Z"/><path d="M842,247.13a3.24,3.24,0,0,1,3.29,3.56,4.49,4.49,0,0,1-.06.61h-5.52a2.49,2.49,0,0,0,2.61,2.52,3.42,3.42,0,0,0,2.23-.88l.62,1.06a4.53,4.53,0,0,1-2.94,1.08,3.87,3.87,0,0,1-4-4A3.73,3.73,0,0,1,842,247.13Zm1.82,3.12a1.85,1.85,0,0,0-1.85-2,2.2,2.2,0,0,0-2.22,2Z"/><path d="M850.58,247.13a4,4,0,0,1,2.85,1.11l-.69,1a3.07,3.07,0,0,0-2.1-.87,2.6,2.6,0,0,0-2.64,2.7,2.63,2.63,0,0,0,2.69,2.73,3.38,3.38,0,0,0,2.34-1l.58,1.07a4.26,4.26,0,0,1-3,1.21,4,4,0,1,1,0-8Z"/><path d="M858.59,247.13a4,4,0,1,1-4.08,4A4,4,0,0,1,858.59,247.13Zm0,6.69a2.72,2.72,0,1,0-2.61-2.73A2.63,2.63,0,0,0,858.61,253.82Z"/><path d="M864.44,247.31h3.14c1.53,0,2.53.68,2.53,1.95a1.76,1.76,0,0,1-1.08,1.67h0a1.79,1.79,0,0,1,1.44,1.8c0,1.41-1.14,2.16-2.79,2.16h-3.24Zm2.88,3.21c.87,0,1.31-.45,1.31-1.15s-.44-1.05-1.35-1.05H865.9v2.2Zm.14,3.36c1,0,1.54-.48,1.54-1.18s-.55-1.2-1.56-1.2H865.9v2.38Z"/><path d="M872.24,247.31h1.46v2.75h1.48c1.58,0,2.76.72,2.76,2.44,0,1.43-.87,2.4-2.77,2.4h-2.93Zm2.73,6.54c1,0,1.5-.57,1.5-1.36s-.46-1.38-1.51-1.38H873.7v2.74Zm4.14-6.54h1.46v7.59h-1.46Z"/><path d="M882.82,247.31H886c1.53,0,2.54.68,2.54,1.95a1.76,1.76,0,0,1-1.08,1.67h0a1.8,1.8,0,0,1,1.44,1.8c0,1.41-1.14,2.16-2.79,2.16h-3.24Zm2.88,3.21c.87,0,1.3-.45,1.3-1.15s-.43-1.05-1.35-1.05h-1.38v2.2Zm.13,3.36c1,0,1.55-.48,1.55-1.18s-.56-1.2-1.56-1.2h-1.55v2.38Z"/><path d="M894.52,250.18h.39V250a1.48,1.48,0,0,0-1.67-1.67,3.78,3.78,0,0,0-2.13.74l-.58-1.07a4.82,4.82,0,0,1,2.83-.9,2.7,2.7,0,0,1,3,3v4.8H895v-.76a4.2,4.2,0,0,1,0-.6h0a2.78,2.78,0,0,1-2.49,1.54,2.33,2.33,0,0,1-2.53-2.25C890,250.45,892.94,250.18,894.52,250.18Zm-1.65,3.75a2.28,2.28,0,0,0,2-2.42v-.28h-.38c-1.08,0-3.09.09-3.09,1.48A1.29,1.29,0,0,0,892.87,253.93Z"/><path d="M901.82,247.13a3.24,3.24,0,0,1,3.29,3.56,4.49,4.49,0,0,1-.06.61h-5.52a2.49,2.49,0,0,0,2.61,2.52,3.42,3.42,0,0,0,2.23-.88L905,254a4.53,4.53,0,0,1-2.94,1.08,3.87,3.87,0,0,1-4-4A3.73,3.73,0,0,1,901.82,247.13Zm1.82,3.12a1.85,1.85,0,0,0-1.85-2,2.2,2.2,0,0,0-2.22,2Z"/><path d="M908.6,248.56H906v-1.25h6.74v1.25H910v6.34H908.6Z"/><path d="M917.43,247.13a4,4,0,0,1,2.86,1.11l-.7,1a3.06,3.06,0,0,0-2.09-.87,2.59,2.59,0,0,0-2.64,2.7,2.62,2.62,0,0,0,2.68,2.73,3.38,3.38,0,0,0,2.34-1l.58,1.07a4.25,4.25,0,0,1-3,1.21,4,4,0,1,1,0-8Z"/><path d="M923,252.38a3.29,3.29,0,0,1,.35-.46v0a2.26,2.26,0,0,1-1.65-2.2c0-1.56,1.11-2.39,2.71-2.39h3v7.59H926v-2.74h-1.28l-1.86,2.74h-1.6Zm3-1.29v-2.77H924.8c-1,0-1.6.39-1.6,1.36a1.38,1.38,0,0,0,1.56,1.41Z"/><path d="M778.24,265.31h3.13c1.53,0,2.54.68,2.54,1.95a1.76,1.76,0,0,1-1.08,1.67h0a1.8,1.8,0,0,1,1.44,1.8c0,1.41-1.14,2.16-2.79,2.16h-3.24Zm2.88,3.21c.87,0,1.3-.45,1.3-1.15s-.43-1.05-1.35-1.05h-1.38v2.2Zm.13,3.36c1,0,1.55-.48,1.55-1.18s-.56-1.2-1.56-1.2h-1.55v2.38Z"/><path d="M789.79,265.31h1.45v3.06h1.07l2.07-3.06H796l-2.54,3.62v0l2.84,3.94H794.6l-2.26-3.28h-1.1v3.28h-1.45Z"/><path d="M800.89,265.13a4,4,0,1,1-4.08,4A4,4,0,0,1,800.89,265.13Zm0,6.69a2.72,2.72,0,1,0-2.61-2.73A2.63,2.63,0,0,0,800.9,271.82Z"/><path d="M805.7,271.67c1.11-.16,1.71-1.27,1.71-4v-2.34h5.09v7.59H811v-6.39h-2.23v1.14c0,3.44-.87,5.21-3.11,5.33Z"/><path d="M813.92,271.67c1.11-.16,1.71-1.27,1.71-4v-2.34h5.09v7.59h-1.46v-6.39H817v1.14c0,3.44-.87,5.21-3.11,5.33Z"/><path d="M822.89,268h4.38v1.29h-4.38Z"/><path d="M829.45,265.31h1.45v6.33h3.62v-6.33H836v6.33h1.06v3.06h-1.33v-1.8h-6.27Z"/><path d="M841.82,265.13a3.24,3.24,0,0,1,3.29,3.56,4.49,4.49,0,0,1-.06.61h-5.52a2.49,2.49,0,0,0,2.61,2.52,3.42,3.42,0,0,0,2.23-.88L845,272a4.53,4.53,0,0,1-2.94,1.08,3.87,3.87,0,0,1-4-4A3.73,3.73,0,0,1,841.82,265.13Zm1.82,3.12a1.85,1.85,0,0,0-1.85-2,2.2,2.2,0,0,0-2.22,2Z"/><path d="M846.86,265.31h1.46v3.09h3.84v-3.09h1.45v7.59h-1.45v-3.25h-3.84v3.25h-1.46Z"/><path d="M857.69,266.56h-2.64v-1.25h6.74v1.25h-2.66v6.34h-1.44Z"/><path d="M863.21,265.31h1.35V266a4.19,4.19,0,0,1,0,.57h0a2.77,2.77,0,0,1,2.55-1.43c2,0,3.33,1.62,3.33,4s-1.44,4-3.44,4a2.77,2.77,0,0,1-2.35-1.29h0a3.35,3.35,0,0,1,.06.66v3.45h-1.46Zm3.56,6.51c1.2,0,2.19-1,2.19-2.7s-.89-2.71-2.15-2.71-2.19.81-2.19,2.73C864.62,270.49,865.37,271.82,866.77,271.82Z"/><path d="M721,189.24h1.93v6H730v-6H732V203H730v-6h-7.16v6H721Z"/><path d="M739.69,192.9a5.17,5.17,0,1,1-5.31,5.15A5.15,5.15,0,0,1,739.69,192.9Zm0,8.7a3.53,3.53,0,1,0-3.4-3.55A3.42,3.42,0,0,0,739.71,201.6Z"/><path d="M747.74,193.14h2.1l2.52,5.57c.27.59.54,1.33.54,1.33h0l.55-1.33,2.57-5.57h2.07L759,203h-1.83l-.43-5.87c0-.58,0-1.69,0-1.69h0s-.26.68-.63,1.44l-2.34,4.93h-1.62l-2.34-4.91-.62-1.46h0s.06,1.11,0,1.69l-.43,5.87h-1.83Z"/><path d="M765.83,192.9c2.79,0,4.27,2.09,4.27,4.62a5.56,5.56,0,0,1-.08.8h-7.17a3.24,3.24,0,0,0,3.39,3.28,4.46,4.46,0,0,0,2.9-1.15l.8,1.38a5.87,5.87,0,0,1-3.82,1.41,5,5,0,0,1-5.24-5.17A4.85,4.85,0,0,1,765.83,192.9Zm2.36,4.06a2.4,2.4,0,0,0-2.4-2.59A2.87,2.87,0,0,0,762.9,197Z"/><path d="M772.38,193.14h1.75V194a4.61,4.61,0,0,1-.06.74h0a3.64,3.64,0,0,1,3.32-1.85c2.67,0,4.33,2.11,4.33,5.17s-1.87,5.17-4.47,5.17a3.62,3.62,0,0,1-3.06-1.68h0a4.25,4.25,0,0,1,.08.86v4.48h-1.89ZM777,201.6c1.56,0,2.85-1.27,2.85-3.51s-1.15-3.53-2.79-3.53c-1.48,0-2.85,1.05-2.85,3.55C774.21,199.86,775.19,201.6,777,201.6Z"/><path d="M789,193.14h1.89v4h1.38l2.69-4h2.15l-3.3,4.7v0l3.69,5.12h-2.24l-3-4.27h-1.42V203H789Z"/><path d="M803.39,192.9a5.17,5.17,0,1,1-5.3,5.15A5.15,5.15,0,0,1,803.39,192.9Zm0,8.7a3.53,3.53,0,0,0,0-7.06,3.53,3.53,0,0,0,0,7.06Z"/><path d="M811.45,193.14h2.1l2.52,5.57c.27.59.54,1.33.54,1.33h0s.29-.72.55-1.33l2.57-5.57h2.07l.86,9.86h-1.84l-.42-5.87c0-.58,0-1.69,0-1.69h0s-.26.68-.63,1.44l-2.34,4.93h-1.62l-2.34-4.91c-.31-.72-.62-1.46-.62-1.46h0s.06,1.11,0,1.69l-.43,5.87h-1.83Z"/><path d="M825.23,193.14h8.62V203H832v-8.25h-4.84V203h-1.89Z"/><path d="M841.84,196.86h.51v-.19a1.93,1.93,0,0,0-2.17-2.17,4.93,4.93,0,0,0-2.77,1l-.76-1.39a6.31,6.31,0,0,1,3.69-1.17c2.47,0,3.9,1.37,3.9,3.86V203h-1.78v-1a4.83,4.83,0,0,1,.06-.78h0a3.63,3.63,0,0,1-3.23,2,3,3,0,0,1-3.3-2.93C836,197.21,839.79,196.86,841.84,196.86Zm-2.15,4.88c1.66,0,2.66-1.68,2.66-3.14v-.37h-.49c-1.4,0-4,.11-4,1.93A1.67,1.67,0,0,0,839.69,201.74Z"/><path d="M847,193.14h1.9v4h5v-4h1.89V203h-1.89v-4.23h-5V203H847Z"/><path d="M858.72,193.14h1.81V199c0,.52,0,1.22-.06,1.32h0c.08-.17.55-.86.88-1.32l4.25-5.89h1.84V203h-1.84v-5.89c0-.46.06-1.15.06-1.3h0a13.77,13.77,0,0,1-.86,1.3L860.53,203h-1.81Z"/><path d="M870.38,193.14h1.81V199c0,.52,0,1.22-.06,1.32h0c.08-.17.55-.86.88-1.32l4.25-5.89h1.83V203H877.3v-5.89c0-.46.06-1.15.06-1.3h0c-.06.17-.55.84-.86,1.3L872.19,203h-1.81Z"/><path d="M728.65,246.32h0a2.45,2.45,0,0,0-2.45,2.44v12a2.45,2.45,0,0,0,2.45,2.45h0a2.45,2.45,0,0,0,2.44-2.45v-12A2.45,2.45,0,0,0,728.65,246.32Z"/><path d="M750.47,246.32a2.45,2.45,0,0,0-2.44,2.44v12a2.45,2.45,0,0,0,2.44,2.45h0a2.45,2.45,0,0,0,2.45-2.45v-12a2.45,2.45,0,0,0-2.45-2.44Z"/><path class="cls-1" d="M760.06,252.58a4,4,0,0,0-2.33-3.64c0-.07,0-.15,0-.22a18,18,0,0,0-4.56-12c-.06.11-.12.22-.19.33a5,5,0,0,1-1.31,1.39,15.8,15.8,0,0,1,3.81,10.3c0,.16,0,.32,0,.48h0v11.4h.56a4,4,0,0,0,1.61-.34v2a3.5,3.5,0,0,1-3.5,3.49h-6.31a3.71,3.71,0,0,0-3.52-2.57h-1v7.38h1a3.71,3.71,0,0,0,3.52-2.57h6.35a5.73,5.73,0,0,0,5.7-5.69h0V257.7a3.68,3.68,0,0,0,.16-1.11Z"/><path d="M736,266.86a3.7,3.7,0,0,0,3.69,3.69h1v-7.38h-1A3.7,3.7,0,0,0,736,266.86Z"/><path d="M747.55,236.4a2.37,2.37,0,1,0,2.53-4,19.48,19.48,0,0,0-21,0,2.37,2.37,0,1,0,2.53,4,14.78,14.78,0,0,1,15.9,0Z"/><path class="cls-1" d="M727.52,238.42a5,5,0,0,1-1.31-1.39c-.07-.11-.13-.22-.19-.33a18,18,0,0,0-4.56,12,1.62,1.62,0,0,0,0,.22,4,4,0,0,0-2.33,3.64v4a4,4,0,0,0,4,4h.56V249.2h0c0-.16,0-.32,0-.48A15.8,15.8,0,0,1,727.52,238.42Z"/></svg>