<svg id="Layer_1" data-name="Layer 1" xmlns="http://www.w3.org/2000/svg" viewBox="0 0 320 500"><defs><style>.cls-1{fill:#3d454d;}.cls-2{fill:#3dafcc;}.cls-3{fill:#1f282c;}.cls-4{fill:#ca75ed;}.cls-5{fill:#3cb0cb;}</style></defs><title>1Artboard 3</title><circle class="cls-1" cx="60.82" cy="27.83" r="8.41"/><path class="cls-1" d="M75.31,43a9.09,9.09,0,0,0-3.25-3.8,10.94,10.94,0,0,0-4.77-1.86,1.48,1.48,0,0,0-1.3.36,8.18,8.18,0,0,1-5.17,1.59,8.15,8.15,0,0,1-5.16-1.59,1.48,1.48,0,0,0-1.3-.36,11,11,0,0,0-4.78,1.86A9,9,0,0,0,46.34,43c-.18.4-.25.47-.25.72a1,1,0,0,0,.24.63,17.14,17.14,0,0,0,29,0,1,1,0,0,0,.23-.63C75.55,43.47,75.49,43.4,75.31,43Z"/><circle class="cls-1" cx="160.32" cy="27.83" r="8.41"/><path class="cls-1" d="M174.81,43a9.09,9.09,0,0,0-3.25-3.8,10.94,10.94,0,0,0-4.77-1.86,1.48,1.48,0,0,0-1.3.36,9.18,9.18,0,0,1-10.33,0,1.48,1.48,0,0,0-1.3-.36,11,11,0,0,0-4.78,1.86,9,9,0,0,0-3.24,3.8c-.18.4-.25.47-.25.72a1,1,0,0,0,.24.63,17.14,17.14,0,0,0,29,0,1,1,0,0,0,.23-.63C175.05,43.47,175,43.4,174.81,43Z"/><circle class="cls-1" cx="259.82" cy="27.83" r="8.41"/><path class="cls-1" d="M274.31,43a9.09,9.09,0,0,0-3.25-3.8,10.94,10.94,0,0,0-4.77-1.86,1.48,1.48,0,0,0-1.3.36,9.18,9.18,0,0,1-10.33,0,1.48,1.48,0,0,0-1.3-.36,11,11,0,0,0-4.78,1.86,9,9,0,0,0-3.24,3.8c-.18.4-.25.47-.25.72a1,1,0,0,0,.24.63,17.14,17.14,0,0,0,29,0,1,1,0,0,0,.23-.63C274.55,43.47,274.49,43.4,274.31,43Z"/><rect class="cls-1" x="60.03" y="226.44" width="1" height="25.88"/><polygon class="cls-1" points="60.52 252.8 53.5 245.97 54.19 245.25 60.52 251.41 66.85 245.25 67.55 245.97 60.52 252.8"/><rect class="cls-1" x="159.83" y="226.44" width="1" height="25.88"/><polygon class="cls-1" points="160.32 252.8 153.3 245.97 153.99 245.25 160.32 251.41 166.65 245.25 167.35 245.97 160.32 252.8"/><rect class="cls-1" x="259.33" y="226.44" width="1" height="25.88"/><polygon class="cls-1" points="259.82 252.8 252.8 245.97 253.49 245.25 259.82 251.41 266.15 245.25 266.85 245.97 259.82 252.8"/><rect class="cls-1" x="159.84" y="315.19" width="1" height="25.88"/><polygon class="cls-1" points="160.33 341.54 153.31 334.71 154 334 160.33 340.15 166.66 334 167.36 334.71 160.33 341.54"/><rect class="cls-1" x="185.72" y="327.62" width="37.45" height="1" transform="translate(-171.21 236.78) rotate(-44.41)"/><polygon class="cls-1" points="200.53 341.71 190.73 341.57 190.59 331.77 191.59 331.76 191.72 340.58 200.54 340.71 200.53 341.71"/><rect class="cls-1" x="115.7" y="309.39" width="1" height="37.47" transform="translate(-199.5 181.49) rotate(-45.59)"/><polygon class="cls-1" points="120.13 341.71 120.12 340.71 128.95 340.58 129.07 331.76 130.07 331.77 129.93 341.57 120.13 341.71"/><path class="cls-2" d="M76.34,139.51h-31a2.2,2.2,0,0,0-2.2,2.19v13.41a2.2,2.2,0,0,0,2.2,2.19h31a2.19,2.19,0,0,0,2.19-2.19V141.7A2.2,2.2,0,0,0,76.34,139.51Zm-29.16,7.58a.73.73,0,0,1,.73-.73h5.27a.73.73,0,0,1,.73.73V148a.73.73,0,0,1-.73.73H47.91a.73.73,0,0,1-.73-.73Zm13.25,5.56a.74.74,0,0,1-.73.74H47.91a.74.74,0,0,1-.73-.74v-1a.73.73,0,0,1,.73-.73H59.7a.73.73,0,0,1,.73.73Zm11.37-4a2.83,2.83,0,1,1,2.83-2.83A2.83,2.83,0,0,1,71.8,148.63Z"/><path class="cls-3" d="M51.2,131.1H45.67a.73.73,0,0,0-.73.73v2.73a.74.74,0,0,0,.73.74H47.3v1.24a.73.73,0,0,0,.73.73h.81a.73.73,0,0,0,.73-.73V135.3H51.2a.74.74,0,0,0,.74-.74v-2.73A.74.74,0,0,0,51.2,131.1Z"/><path class="cls-3" d="M76,131.1H70.44a.73.73,0,0,0-.73.73v2.73a.74.74,0,0,0,.73.74h1.63v1.24a.74.74,0,0,0,.74.73h.8a.73.73,0,0,0,.73-.73V135.3H76a.74.74,0,0,0,.73-.74v-2.73A.73.73,0,0,0,76,131.1Z"/><path class="cls-3" d="M63.59,131.1H58.06a.74.74,0,0,0-.74.73v2.73a.74.74,0,0,0,.74.74h1.63v1.24a.73.73,0,0,0,.73.73h.81a.73.73,0,0,0,.73-.73V135.3h1.63a.74.74,0,0,0,.73-.74v-2.73A.73.73,0,0,0,63.59,131.1Z"/><path class="cls-3" d="M62.4,159.61H58.52v6.07a.73.73,0,0,0,.73.73H62.4a.73.73,0,0,0,.73-.73v-6.07Z"/><path d="M171.49,145.3h-2.72a0,0,0,0,0,0,0v2.82a0,0,0,0,0,0,0h2.72a0,0,0,0,0,0,0v-2.82A0,0,0,0,0,171.49,145.3Z"/><path d="M162,137h-5a.44.44,0,0,0-.44.43v14.37a.44.44,0,0,0,.44.43h5a.43.43,0,0,0,.43-.43V137.42A.43.43,0,0,0,162,137Z"/><path class="cls-2" d="M175.16,130.26H152.61a2.83,2.83,0,0,0-2.82,2.82v15.5h0v13a1.77,1.77,0,0,1-3.54,0v-5.85h0v-7.15h-3.57v2.31c0,.05,0,.11,0,.16v9.56a6.65,6.65,0,0,0,6.65,6.64h25.85a2.82,2.82,0,0,0,2.82-2.82V133.08A2.82,2.82,0,0,0,175.16,130.26Zm-20.71,7.16a2.6,2.6,0,0,1,2.6-2.6h5a2.61,2.61,0,0,1,2.6,2.6v14.37a2.61,2.61,0,0,1-2.6,2.6h-5a2.6,2.6,0,0,1-2.6-2.6Zm1.08,19.41h11.91a1.09,1.09,0,1,1,0,2.17H155.53a1.09,1.09,0,0,1,0-2.17ZM172.45,163H155.53a1.09,1.09,0,0,1,0-2.17h16.92a1.09,1.09,0,0,1,0,2.17Zm0-8.64h-5a1.09,1.09,0,0,1,0-2.17h5a1.09,1.09,0,0,1,0,2.17Zm1.08-6.2a2.19,2.19,0,0,1-2.19,2.19h-2.41a2.2,2.2,0,0,1-2.2-2.19v-2.82a2.21,2.21,0,0,1,2.2-2.2h2.41a2.2,2.2,0,0,1,2.19,2.2Zm-1.08-7h-4.64a1.08,1.08,0,0,1,0-2.16h4.64a1.08,1.08,0,1,1,0,2.16Zm0-4.2h-4.64a1.09,1.09,0,0,1,0-2.17h4.64a1.09,1.09,0,0,1,0,2.17Z"/><path d="M268.35,154.08a3.2,3.2,0,1,0,3.2,3.2A3.21,3.21,0,0,0,268.35,154.08Z"/><rect x="267.28" y="145.56" width="4.26" height="2.13"/><rect x="248.03" y="145.56" width="12.86" height="2.13"/><path class="cls-2" d="M274.74,139.16H252.29V138a3.2,3.2,0,1,0-6.39,0v1.13h-1.07a3.21,3.21,0,0,0-3.2,3.2v21.39a3.21,3.21,0,0,0,3.2,3.2h29.91a3.26,3.26,0,0,0,3.27-3.2V142.36A3.26,3.26,0,0,0,274.74,139.16ZM248,161.55a1.07,1.07,0,0,1-2.13,0V153a1.07,1.07,0,1,1,2.13,0Zm4.26,0a1.07,1.07,0,0,1-2.13,0V153a1.07,1.07,0,1,1,2.13,0Zm4.26,0a1.07,1.07,0,0,1-2.13,0V153a1.07,1.07,0,1,1,2.13,0Zm4.34,0a1.07,1.07,0,0,1-2.13,0V153a1.07,1.07,0,1,1,2.13,0ZM262,149.82H247a1.05,1.05,0,0,1-1.06-1.06v-4.27a1.05,1.05,0,0,1,1.06-1.06h15a1.06,1.06,0,0,1,1.07,1.06v4.27A1.06,1.06,0,0,1,262,149.82Zm6.4,12.79a5.33,5.33,0,1,1,5.33-5.33A5.33,5.33,0,0,1,268.35,162.61Zm5.33-13.85a1.06,1.06,0,0,1-1.07,1.06h-6.39a1.06,1.06,0,0,1-1.07-1.06v-4.27a1.06,1.06,0,0,1,1.07-1.06h6.39a1.06,1.06,0,0,1,1.07,1.06Z"/><path d="M278,131.39a1.06,1.06,0,0,0-1.27-.8l-22.78,5.23a5.28,5.28,0,0,1,.48,2.07l22.78-5.22A1.05,1.05,0,0,0,278,131.39Z"/><path d="M37.85,179.22h1v3.1h3.67v-3.1h1v7.05h-1v-3.09H38.84v3.09h-1Z"/><path d="M47.7,183.12H48V183a1,1,0,0,0-1.11-1.11,2.54,2.54,0,0,0-1.42.49L45,181.7a3.22,3.22,0,0,1,1.89-.6,1.8,1.8,0,0,1,2,2v3.19H48v-.51a2.55,2.55,0,0,1,0-.4h0a1.87,1.87,0,0,1-1.66,1,1.56,1.56,0,0,1-1.69-1.5C44.68,183.3,46.65,183.12,47.7,183.12Zm-1.1,2.5A1.52,1.52,0,0,0,48,184v-.19h-.25c-.72,0-2.06.06-2.06,1A.85.85,0,0,0,46.6,185.62Z"/><path d="M50.36,181.22h.9v.45a2.44,2.44,0,0,1,0,.38h0a1.85,1.85,0,0,1,1.7-1c1.37,0,2.22,1.08,2.22,2.64a2.36,2.36,0,0,1-2.29,2.65,1.86,1.86,0,0,1-1.57-.86h0a2.24,2.24,0,0,1,0,.44v2.3h-1Zm2.37,4.33c.8,0,1.46-.65,1.46-1.8s-.59-1.8-1.43-1.8-1.46.54-1.46,1.81C51.3,184.66,51.8,185.55,52.73,185.55Z"/><path d="M56.55,187.54a1,1,0,0,0,.92-.75l.25-.58-2.12-5h1.09l1.27,3.3a5.8,5.8,0,0,1,.19.61h0s.08-.34.17-.6l1.23-3.31h1l-2.38,6a1.72,1.72,0,0,1-1.64,1.19,1.76,1.76,0,0,1-1-.31l.34-.74A1.09,1.09,0,0,0,56.55,187.54Z"/><path d="M62.62,183.67v0l-1.49-2.43h1l1.24,2.07h.72v-2.07H65v2.07h.72L67,181.22h1l-1.48,2.43v0l1.63,2.6H67.09l-1.32-2.15H65v2.15h-.92v-2.15H63.4l-1.33,2.15H61Z"/><path d="M69.09,181.22h1v2.06h2.56v-2.06h1v5.05h-1V184.1H70.06v2.17h-1Z"/><path d="M77.69,183.12H78V183a1,1,0,0,0-1.11-1.11,2.54,2.54,0,0,0-1.42.49L75,181.7a3.22,3.22,0,0,1,1.89-.6,1.8,1.8,0,0,1,2,2v3.19H78v-.51a2.55,2.55,0,0,1,0-.4h0a1.87,1.87,0,0,1-1.66,1,1.56,1.56,0,0,1-1.69-1.5C74.67,183.3,76.64,183.12,77.69,183.12Zm-1.1,2.5A1.52,1.52,0,0,0,78,184v-.19H77.7c-.72,0-2.06.06-2.06,1A.85.85,0,0,0,76.59,185.62Z"/><path d="M81,184.59a1.78,1.78,0,0,1,.23-.3v0a1.5,1.5,0,0,1-1.1-1.47c0-1,.74-1.58,1.81-1.58h2v5.05H83v-1.83h-.85l-1.24,1.83H79.84Zm2-.86v-1.84h-.81c-.65,0-1.07.26-1.07.9a.92.92,0,0,0,1,.94Z"/><path d="M41.52,193.22h.9v.45a2.44,2.44,0,0,1,0,.38h0a1.85,1.85,0,0,1,1.7-1c1.37,0,2.22,1.08,2.22,2.64A2.36,2.36,0,0,1,44,198.39a1.86,1.86,0,0,1-1.57-.86h0a2.24,2.24,0,0,1,0,.44v2.3h-1Zm2.37,4.33c.8,0,1.46-.65,1.46-1.8s-.59-1.8-1.43-1.8-1.46.54-1.46,1.81C42.46,196.66,43,197.55,43.89,197.55Z"/><path d="M49.74,193.1a2.16,2.16,0,0,1,2.19,2.36,3.29,3.29,0,0,1,0,.42H48.21A1.67,1.67,0,0,0,50,197.55a2.29,2.29,0,0,0,1.49-.59l.41.71a3,3,0,0,1-2,.72,2.59,2.59,0,0,1-2.69-2.65A2.48,2.48,0,0,1,49.74,193.1ZM51,195.18a1.23,1.23,0,0,0-1.23-1.33,1.47,1.47,0,0,0-1.48,1.33Z"/><path d="M53.1,193.22h1v2h.71l1.38-2h1.1l-1.69,2.4v0l1.89,2.63H56.31l-1.51-2.19h-.73v2.19h-1Z"/><path d="M57.77,197.45c.74-.11,1.14-.85,1.14-2.67v-1.56H62.3v5.05h-1V194H59.84v.76c0,2.28-.58,3.46-2.07,3.54Z"/><path d="M66.4,195.12h.26V195a1,1,0,0,0-1.11-1.11,2.54,2.54,0,0,0-1.42.49l-.39-.71a3.22,3.22,0,0,1,1.89-.6,1.8,1.8,0,0,1,2,2v3.19h-.91v-.51a2.55,2.55,0,0,1,0-.4h0a1.87,1.87,0,0,1-1.66,1,1.56,1.56,0,0,1-1.69-1.5C63.38,195.3,65.35,195.12,66.4,195.12Zm-1.1,2.5A1.52,1.52,0,0,0,66.66,196v-.19h-.25c-.72,0-2.06.06-2.06,1A.85.85,0,0,0,65.3,197.62Z"/><path d="M69.29,193.22h1.08l1.29,2.85c.14.31.28.68.28.68h0l.28-.68,1.32-2.85h1.06l.44,5.05h-.94l-.22-3c0-.31,0-.87,0-.87h0s-.13.35-.32.73l-1.2,2.53h-.83l-1.2-2.52L70,194.4h0s0,.56,0,.87l-.22,3h-.94Z"/><path d="M79,195.12h.26V195a1,1,0,0,0-1.11-1.11,2.54,2.54,0,0,0-1.42.49l-.39-.71a3.22,3.22,0,0,1,1.89-.6,1.8,1.8,0,0,1,2,2v3.19h-.91v-.51a2.55,2.55,0,0,1,0-.4h0a1.87,1.87,0,0,1-1.66,1,1.56,1.56,0,0,1-1.69-1.5C75.94,195.3,77.91,195.12,79,195.12Zm-1.1,2.5A1.52,1.52,0,0,0,79.22,196v-.19H79c-.72,0-2.06.06-2.06,1A.85.85,0,0,0,77.86,197.62Z"/><path d="M140.21,179.22h5.55v7.05h-1v-6.19H141.2v6.19h-1Z"/><path d="M149.56,181.1a2.16,2.16,0,0,1,2.19,2.36,3.29,3.29,0,0,1,0,.42H148a1.67,1.67,0,0,0,1.74,1.67,2.29,2.29,0,0,0,1.49-.59l.41.71a3,3,0,0,1-2,.72,2.59,2.59,0,0,1-2.69-2.65A2.48,2.48,0,0,1,149.56,181.1Zm1.21,2.08a1.23,1.23,0,0,0-1.23-1.33,1.47,1.47,0,0,0-1.48,1.33Z"/><path d="M152.6,182.87v-1.65h1v1.51c0,.49.18.94,1,.94a2,2,0,0,0,1.12-.36v-2.09h1v5.05h-1v-1.83c0-.14,0-.3,0-.3h0a2.83,2.83,0,0,1-1.37.37A1.5,1.5,0,0,1,152.6,182.87Z"/><path d="M160.75,183.12H161V183a1,1,0,0,0-1.11-1.11,2.54,2.54,0,0,0-1.42.49l-.39-.71a3.22,3.22,0,0,1,1.89-.6,1.8,1.8,0,0,1,2,2v3.19h-.91v-.51a2.55,2.55,0,0,1,0-.4h0a1.87,1.87,0,0,1-1.66,1,1.56,1.56,0,0,1-1.69-1.5C157.73,183.3,159.7,183.12,160.75,183.12Zm-1.1,2.5A1.52,1.52,0,0,0,161,184v-.19h-.25c-.72,0-2.06.06-2.06,1A.85.85,0,0,0,159.65,185.62Z"/><path d="M164.56,182.05H162.8v-.83h4.48v.83h-1.76v4.22h-1Z"/><path d="M168.24,181.22h1v2.06h2.56v-2.06h1v5.05h-1V184.1h-2.56v2.17h-1Z"/><path d="M176.84,183.12h.26V183a1,1,0,0,0-1.11-1.11,2.54,2.54,0,0,0-1.42.49l-.39-.71a3.22,3.22,0,0,1,1.89-.6,1.79,1.79,0,0,1,2,2v3.19h-.9v-.51a2.55,2.55,0,0,1,0-.4h0a1.87,1.87,0,0,1-1.66,1,1.56,1.56,0,0,1-1.69-1.5C173.82,183.3,175.79,183.12,176.84,183.12Zm-1.1,2.5A1.52,1.52,0,0,0,177.1,184v-.19h-.25c-.72,0-2.06.06-2.06,1A.85.85,0,0,0,175.74,185.62Z"/><path d="M180.16,184.59a1.78,1.78,0,0,1,.23-.3v0a1.5,1.5,0,0,1-1.1-1.47c0-1,.74-1.58,1.81-1.58h2v5.05h-1v-1.83h-.85l-1.24,1.83H179Zm2-.86v-1.84h-.81c-.65,0-1.07.26-1.07.9a.92.92,0,0,0,1,.94Z"/><path d="M135.24,193.22h4.42v5.05h-1v-4.22h-2.48v4.22h-1Z"/><path d="M141.16,193.22h.9v.45a2.44,2.44,0,0,1,0,.38h0a1.85,1.85,0,0,1,1.7-1c1.37,0,2.22,1.08,2.22,2.64a2.36,2.36,0,0,1-2.29,2.65,1.86,1.86,0,0,1-1.57-.86h0a2.24,2.24,0,0,1,0,.44v2.3h-1Zm2.37,4.33c.8,0,1.46-.65,1.46-1.8s-.59-1.8-1.43-1.8-1.46.54-1.46,1.81C142.1,196.66,142.6,197.55,143.53,197.55Z"/><path d="M149.56,193.1a2.65,2.65,0,1,1-2.72,2.63A2.64,2.64,0,0,1,149.56,193.1Zm0,4.45a1.81,1.81,0,0,0,0-3.61,1.81,1.81,0,0,0,0,3.61Z"/><path d="M153.32,197.47a6.09,6.09,0,0,0,.79-3.32v-.93h3.42v4.25h.72v2h-.89v-1.2h-3.75v1.2h-.91v-2Zm3.24,0V194H155v.27a6.3,6.3,0,0,1-.72,3.19Z"/><path d="M159.46,199.54a1,1,0,0,0,.92-.75l.25-.58-2.12-5h1.09l1.27,3.3a5.8,5.8,0,0,1,.19.61h0s.08-.34.17-.6l1.23-3.31h1.05l-2.38,6a1.72,1.72,0,0,1-1.64,1.19,1.76,1.76,0,0,1-1-.31l.34-.74A1.09,1.09,0,0,0,159.46,199.54Z"/><path d="M164.48,193.22h1v2h.71l1.38-2h1.1l-1.69,2.4v0l1.89,2.63h-1.15l-1.51-2.19h-.73v2.19h-1Z"/><path d="M169.7,193.22h1v4.21h2.41v-4.21h1v4.21h.71v2h-.89v-1.2H169.7Z"/><path d="M175.8,193.22h.93v3c0,.27,0,.63,0,.68h0c0-.09.28-.44.45-.68l2.18-3h.94v5.05h-.94v-3c0-.23,0-.58,0-.66h0a6.66,6.66,0,0,1-.44.66l-2.19,3h-.93Z"/><path d="M182.44,196.59a1.78,1.78,0,0,1,.23-.3v0a1.5,1.5,0,0,1-1.1-1.47c0-1,.74-1.58,1.81-1.58h2v5.05h-1v-1.83h-.85l-1.24,1.83h-1.07Zm2-.86v-1.84h-.81c-.65,0-1.07.26-1.07.9a.92.92,0,0,0,1,.94Z"/><path d="M247.31,185.22h2.59a2.09,2.09,0,0,1,2.2,2.21,2.12,2.12,0,0,1-2.2,2.24h-1.6v2.6h-1Zm2.43,3.58a1.27,1.27,0,0,0,1.37-1.37,1.26,1.26,0,0,0-1.36-1.35H248.3v2.72Z"/><path d="M255.65,189.12h.26V189a1,1,0,0,0-1.11-1.11,2.54,2.54,0,0,0-1.42.49l-.39-.71a3.22,3.22,0,0,1,1.89-.6,1.8,1.8,0,0,1,2,2v3.19H256v-.51a2.55,2.55,0,0,1,0-.4h0a1.87,1.87,0,0,1-1.66,1,1.56,1.56,0,0,1-1.69-1.5C252.63,189.3,254.6,189.12,255.65,189.12Zm-1.1,2.5a1.52,1.52,0,0,0,1.36-1.61v-.19h-.25c-.72,0-2.06.06-2.06,1A.85.85,0,0,0,254.55,191.62Z"/><path d="M258.3,191.47a6.09,6.09,0,0,0,.79-3.32v-.93h3.41v4.25h.72v2h-.89v-1.2h-3.74v1.2h-.91v-2Zm3.24,0V188H260v.27a6.3,6.3,0,0,1-.72,3.19Z"/><path d="M264.25,187.22h.93v3c0,.27,0,.63,0,.68h0c0-.09.28-.44.45-.68l2.18-3h.94v5.05h-.94v-3c0-.23,0-.58,0-.66h0a6.66,6.66,0,0,1-.44.66l-2.19,3h-.93Z"/><path d="M272.62,187.1a2.65,2.65,0,1,1-2.72,2.63A2.63,2.63,0,0,1,272.62,187.1Zm0,4.45a1.81,1.81,0,0,0,0-3.61,1.81,1.81,0,0,0,0,3.61Z"/><path class="cls-1" d="M29.79,283.6H32v-2.45h.82v2.45h2.23v.78H32.85v2.46H32v-2.46H29.79Z"/><path class="cls-1" d="M38.43,281.3a4.3,4.3,0,0,1,.4-.65v0a4.12,4.12,0,0,1-.5,0H35.17v-.86h4.72v.68l-3.18,6.37h-1Z"/><path class="cls-1" d="M43,284.33l3.27-4.54h1.12v4.33h1V285h-1v1.89h-1V285H43Zm3.42-.21v-2.57c0-.33,0-.71,0-.71h0a3.87,3.87,0,0,1-.35.59l-2,2.67v0Z"/><path class="cls-1" d="M49.83,285.81a2.42,2.42,0,0,0,1,.24c1.3,0,2-1.2,2.12-2.37h0a2,2,0,0,1-1.56.66A2.19,2.19,0,0,1,49.15,282a2.23,2.23,0,0,1,2.27-2.36c1.51,0,2.64,1.31,2.64,3.33,0,1.8-1,4-3.18,4a3.16,3.16,0,0,1-1.37-.29Zm3.2-3.28a1.9,1.9,0,0,0-1.6-1.95A1.3,1.3,0,0,0,50.14,282a1.38,1.38,0,0,0,1.44,1.48C52.38,283.51,53,283,53,282.53Z"/><path class="cls-1" d="M55.7,285.26a2,2,0,0,0,1.55.76,1.46,1.46,0,0,0,1.54-1.43,1.48,1.48,0,0,0-1.6-1.44,2.24,2.24,0,0,0-1.19.35l-.58-.21.35-3.5h3.57v.86H56.63l-.16,1.49a2.15,2.15,0,0,1-.06.36h0a2.36,2.36,0,0,1,.92-.21,2.3,2.3,0,0,1,2.46,2.3,2.39,2.39,0,0,1-2.5,2.37,2.81,2.81,0,0,1-2.17-1Z"/><path class="cls-1" d="M63.48,285.79h1v1h-1Z"/><path class="cls-1" d="M66,285.79h1v1H66Z"/><path class="cls-1" d="M68.54,285.79h1v1h-1Z"/><path class="cls-1" d="M73.48,285.79h1v1h-1Z"/><path class="cls-1" d="M76,285.79h1v1H76Z"/><path class="cls-4" d="M80.74,283.25c0-2,.66-3.67,2.68-3.67s2.69,1.63,2.69,3.67S85.45,287,83.42,287,80.74,285.3,80.74,283.25Zm3.57,0c0-1.15-.2-2.07-.89-2.07s-.88.92-.88,2.07.19,2.11.88,2.11S84.31,284.42,84.31,283.25Z"/><path class="cls-4" d="M87.12,285.34h1.52v-3c0-.27,0-.55,0-.55h0a1.35,1.35,0,0,1-.28.38l-.43.38-1-1.07,1.93-1.81h1.51v5.64h1.53v1.5H87.12Z"/><path class="cls-1" d="M129.1,283.6h2.23v-2.45h.82v2.45h2.23v.78h-2.23v2.46h-.82v-2.46H129.1Z"/><path class="cls-1" d="M137.73,281.3a4.3,4.3,0,0,1,.4-.65v0a4.12,4.12,0,0,1-.5,0h-3.15v-.86h4.71v.68L136,286.84h-1Z"/><path class="cls-1" d="M142.27,284.33l3.27-4.54h1.12v4.33h1V285h-1v1.89h-1V285h-3.42Zm3.42-.21v-2.57c0-.33,0-.71,0-.71h0a3.87,3.87,0,0,1-.35.59l-2,2.67v0Z"/><path class="cls-1" d="M149.14,285.81a2.42,2.42,0,0,0,1,.24c1.29,0,2-1.2,2.11-2.37h0a2,2,0,0,1-1.55.66,2.19,2.19,0,0,1-2.23-2.31,2.22,2.22,0,0,1,2.26-2.36c1.51,0,2.64,1.31,2.64,3.33,0,1.8-1,4-3.17,4a3.13,3.13,0,0,1-1.37-.29Zm3.19-3.28a1.9,1.9,0,0,0-1.6-1.95,1.31,1.31,0,0,0-1.29,1.45,1.38,1.38,0,0,0,1.44,1.48C151.68,283.51,152.33,283,152.33,282.53Z"/><path class="cls-1" d="M155,285.26a2,2,0,0,0,1.55.76,1.46,1.46,0,0,0,1.54-1.43,1.48,1.48,0,0,0-1.6-1.44,2.24,2.24,0,0,0-1.19.35l-.58-.21.35-3.5h3.57v.86h-2.71l-.16,1.49a2.15,2.15,0,0,1-.06.36h0a2.36,2.36,0,0,1,.92-.21,2.3,2.3,0,0,1,2.46,2.3,2.39,2.39,0,0,1-2.5,2.37,2.81,2.81,0,0,1-2.17-1Z"/><path class="cls-1" d="M162.78,285.79h1v1h-1Z"/><path class="cls-1" d="M165.31,285.79h1v1h-1Z"/><path class="cls-1" d="M167.84,285.79h1v1h-1Z"/><path class="cls-1" d="M172.78,285.79h1v1h-1Z"/><path class="cls-1" d="M175.31,285.79h1v1h-1Z"/><path class="cls-4" d="M180,283.25c0-2,.66-3.67,2.69-3.67s2.68,1.63,2.68,3.67-.66,3.71-2.68,3.71S180,285.3,180,283.25Zm3.57,0c0-1.15-.19-2.07-.88-2.07s-.89.92-.89,2.07.2,2.11.89,2.11S183.61,284.42,183.61,283.25Z"/><path class="cls-4" d="M187.18,284.67a2.28,2.28,0,0,0,1.45.64.93.93,0,0,0,1-.88c0-.55-.49-.89-1.14-.89a2.05,2.05,0,0,0-1,.25l-.93-.36.29-3.73h4v1.5h-2.48l0,.66a2.32,2.32,0,0,1,0,.28h0a2.52,2.52,0,0,1,.52-.07,2.3,2.3,0,0,1,2.56,2.34,2.5,2.5,0,0,1-2.65,2.55,3.54,3.54,0,0,1-2.44-.94Z"/><path class="cls-1" d="M228.43,283.6h2.24v-2.45h.82v2.45h2.22v.78h-2.22v2.46h-.82v-2.46h-2.24Z"/><path class="cls-1" d="M237.07,281.3a4.93,4.93,0,0,1,.39-.65v0a3.81,3.81,0,0,1-.49,0h-3.16v-.86h4.71v.68l-3.17,6.37h-1Z"/><path class="cls-1" d="M241.61,284.33l3.27-4.54H246v4.33H247V285H246v1.89h-1V285h-3.42Zm3.42-.21v-2.57c0-.33,0-.71,0-.71h0a3.87,3.87,0,0,1-.35.59l-2,2.67v0Z"/><path class="cls-1" d="M248.47,285.81a2.42,2.42,0,0,0,1,.24c1.3,0,2-1.2,2.12-2.37h0a2,2,0,0,1-1.56.66,2.19,2.19,0,0,1-2.23-2.31,2.23,2.23,0,0,1,2.27-2.36c1.51,0,2.64,1.31,2.64,3.33,0,1.8-1,4-3.18,4a3.16,3.16,0,0,1-1.37-.29Zm3.2-3.28a1.9,1.9,0,0,0-1.6-1.95,1.3,1.3,0,0,0-1.29,1.45,1.38,1.38,0,0,0,1.44,1.48C251,283.51,251.67,283,251.67,282.53Z"/><path class="cls-1" d="M254.33,285.26a2,2,0,0,0,1.55.76,1.46,1.46,0,0,0,1.54-1.43,1.48,1.48,0,0,0-1.6-1.44,2.24,2.24,0,0,0-1.19.35l-.58-.21.35-3.5H258v.86h-2.71l-.16,1.49a2.15,2.15,0,0,1-.06.36h0a2.36,2.36,0,0,1,.92-.21,2.3,2.3,0,0,1,2.46,2.3,2.39,2.39,0,0,1-2.5,2.37,2.81,2.81,0,0,1-2.17-1Z"/><path class="cls-1" d="M262.11,285.79h1v1h-1Z"/><path class="cls-1" d="M264.64,285.79h1v1h-1Z"/><path class="cls-1" d="M267.17,285.79h1v1h-1Z"/><path class="cls-1" d="M272.11,285.79h1v1h-1Z"/><path class="cls-1" d="M274.64,285.79h1v1h-1Z"/><path class="cls-4" d="M279.37,283.25c0-2,.66-3.67,2.69-3.67s2.69,1.63,2.69,3.67-.66,3.71-2.69,3.71S279.37,285.3,279.37,283.25Zm3.58,0c0-1.15-.2-2.07-.89-2.07s-.89.92-.89,2.07.2,2.11.89,2.11S283,284.42,283,283.25Z"/><path class="cls-4" d="M286.49,285.15a2.56,2.56,0,0,0,1,.21,1.56,1.56,0,0,0,1.54-1.18h0a2,2,0,0,1-1,.25,2.34,2.34,0,0,1-2.34-2.44,2.37,2.37,0,0,1,2.44-2.41c1.43,0,2.89,1.09,2.89,3.42,0,1.93-1.18,4-3.4,4a3.72,3.72,0,0,1-1.58-.31Zm2.72-2.55a1.33,1.33,0,0,0-1.1-1.42.75.75,0,0,0-.72.8,1,1,0,0,0,1.08,1C288.87,283,289.21,282.92,289.21,282.6Z"/><path class="cls-2" d="M26.46,326.27a3,3,0,0,1,2.09.78l-.5.77a2.47,2.47,0,0,0-1.55-.6,1.83,1.83,0,0,0-1.9,1.95,1.9,1.9,0,0,0,1.91,2,2.45,2.45,0,0,0,1.65-.72l.54.74a3,3,0,0,1-2.23.92,2.94,2.94,0,0,1,0-5.87Z"/><path class="cls-2" d="M31.18,326.68l1.4-.55.31.82-1.55.59c-.7.29-1.16.67-1.19,1.37h0a1.65,1.65,0,0,1,1.34-.59,1.71,1.71,0,0,1,1.75,1.87,1.88,1.88,0,0,1-2,1.95c-1.42,0-2.08-1-2.08-2.48A2.77,2.77,0,0,1,31.18,326.68Zm0,4.62a1.1,1.1,0,0,0,0-2.2,1,1,0,0,0-1,1.1A1,1,0,0,0,31.21,331.3Z"/><path class="cls-2" d="M36.1,327.87A2.14,2.14,0,1,1,33.86,330,2.15,2.15,0,0,1,36.1,327.87Zm0,3.41A1.27,1.27,0,1,0,34.9,330,1.21,1.21,0,0,0,36.1,331.28Z"/><path class="cls-2" d="M39.19,328h.92v.3c0,.15,0,.29,0,.29h0a1.5,1.5,0,0,1,1.31-.69c1.11,0,1.81.87,1.81,2.14a1.92,1.92,0,0,1-1.86,2.13,1.5,1.5,0,0,1-1.18-.57h0a2.73,2.73,0,0,1,0,.35v1.72h-1Zm2,3.32c.56,0,1-.46,1-1.27s-.42-1.28-1-1.28-1,.39-1,1.29C40.17,330.66,40.52,331.29,41.18,331.29Z"/><path class="cls-2" d="M46.16,331.23a4.64,4.64,0,0,0,.54-2.42V328h3v3.26h.59V333h-.92v-1H46.6v1h-.94v-1.77Zm2.53,0v-2.45h-1V329a4.59,4.59,0,0,1-.49,2.26Z"/><path class="cls-2" d="M53.09,329.49h.17v-.06a.66.66,0,0,0-.76-.72,2.14,2.14,0,0,0-1.14.39l-.38-.72a2.77,2.77,0,0,1,1.6-.51,1.52,1.52,0,0,1,1.7,1.62V332h-.94v-.34a2,2,0,0,1,0-.29h0a1.47,1.47,0,0,1-1.28.73,1.25,1.25,0,0,1-1.35-1.22C50.71,329.69,52.18,329.49,53.09,329.49Zm-.75,1.88a1,1,0,0,0,.93-1.08v-.11H53.1c-.52,0-1.38.07-1.38.65A.56.56,0,0,0,52.34,331.37Z"/><path class="cls-2" d="M55.31,328h1v1.57h1.74V328h1V332h-1V330.4H56.33V332h-1Z"/><path class="cls-2" d="M60.18,328h1v1.57h1.75V328h1V332h-1V330.4H61.19V332h-1Z"/><path class="cls-2" d="M65,328h1v1.4h.72c1,0,1.54.46,1.54,1.35S67.85,332,66.78,332H65Zm1.58,3.38a.61.61,0,0,0,.68-.64.62.62,0,0,0-.7-.66h-.54v1.3ZM68.88,328h1V332h-1Z"/><path class="cls-2" d="M71.9,330l-1.31-2h1.16l.63,1.11.12.25h0l.14-.25.63-1.11h1.15l-1.31,2L74.48,332H73.34l-.7-1.18a2.33,2.33,0,0,1-.12-.21h0a1.46,1.46,0,0,1-.11.21l-.7,1.18H70.56Z"/><path class="cls-2" d="M77.14,328H79c.83,0,1.38.36,1.38,1a1,1,0,0,1-.54.9h0a.92.92,0,0,1,.72.93c0,.82-.66,1.18-1.52,1.18H77.14Zm1.68,1.68a.5.5,0,0,0,.56-.54c0-.3-.18-.48-.58-.48h-.65v1Zm.08,1.72c.45,0,.67-.23.67-.54s-.23-.55-.67-.55h-.75v1.09Z"/><path class="cls-2" d="M25.69,337.47a2.2,2.2,0,0,1,1.57.61l-.46.69a1.6,1.6,0,0,0-1.06-.44,1.22,1.22,0,0,0-1.24,1.27,1.24,1.24,0,0,0,1.28,1.28,1.88,1.88,0,0,0,1.2-.52l.39.72a2.36,2.36,0,0,1-1.68.66,2.14,2.14,0,1,1,0-4.27Z"/><path class="cls-2" d="M28.1,337.57h1v2.18c0,.18,0,.42,0,.49h0a4.64,4.64,0,0,1,.31-.49l1.51-2.18h1v4.08h-1v-2.18c0-.15,0-.38,0-.49h0c0,.11-.2.33-.3.49l-1.51,2.18h-1Z"/><path class="cls-2" d="M34.92,337.47a2.2,2.2,0,0,1,1.57.61l-.46.69a1.57,1.57,0,0,0-1.05-.44,1.21,1.21,0,0,0-1.24,1.27A1.23,1.23,0,0,0,35,340.88a1.88,1.88,0,0,0,1.2-.52l.39.72a2.36,2.36,0,0,1-1.68.66,2.14,2.14,0,1,1,0-4.27Z"/><path class="cls-2" d="M38.29,338.43H36.94v-.86h3.71v.86H39.3v3.22h-1Z"/><path class="cls-2" d="M43.06,337.47a1.77,1.77,0,0,1,1.81,1.94c0,.12,0,.26,0,.39H42a1.16,1.16,0,0,0,1.23,1.08,1.93,1.93,0,0,0,1.16-.45l.4.73a2.54,2.54,0,0,1-1.64.58,2.09,2.09,0,0,1-2.2-2.13A2,2,0,0,1,43.06,337.47Zm.79,1.63a.79.79,0,0,0-.81-.86,1,1,0,0,0-1,.86Z"/><path class="cls-2" d="M45.92,337.57h1.15l.87,2.1c.09.22.2.52.2.52h0l.2-.52.88-2.1h1.14l.36,4.08h-1l-.15-2.21c0-.27,0-.7,0-.7h0s-.12.31-.24.59l-.8,1.8h-.84l-.8-1.79c-.11-.28-.25-.6-.25-.6h0a6.28,6.28,0,0,1,0,.7l-.14,2.21h-1Z"/><path class="cls-2" d="M51.94,342.47a.78.78,0,0,0,.71-.53l.15-.36-1.72-4h1.15l.85,2.35a4.52,4.52,0,0,1,.15.55h0s.07-.32.13-.54l.8-2.36h1.11l-1.82,4.69A1.53,1.53,0,0,1,52,343.32a1.59,1.59,0,0,1-.85-.26l.34-.76A.86.86,0,0,0,51.94,342.47Z"/><path class="cls-2" d="M25.78,348.69H26v-.06c0-.54-.34-.72-.77-.72a2.08,2.08,0,0,0-1.13.39l-.38-.72a2.75,2.75,0,0,1,1.6-.51,1.52,1.52,0,0,1,1.7,1.62v2.56H26v-.35a1.32,1.32,0,0,1,0-.29h0a1.5,1.5,0,0,1-1.29.73,1.25,1.25,0,0,1-1.34-1.22C23.41,348.89,24.88,348.69,25.78,348.69ZM25,350.57a1,1,0,0,0,.94-1.08v-.11h-.18c-.51,0-1.37.07-1.37.65A.55.55,0,0,0,25,350.57Z"/><path class="cls-2" d="M28,347.17h1v1.57h1.75v-1.57h1v4.08h-1V349.6H29v1.65H28Z"/><path class="cls-2" d="M34.94,348.69h.17v-.06c0-.54-.34-.72-.77-.72a2.11,2.11,0,0,0-1.13.39l-.38-.72a2.75,2.75,0,0,1,1.6-.51,1.52,1.52,0,0,1,1.7,1.62v2.56h-1v-.35a1.32,1.32,0,0,1,0-.29h0a1.49,1.49,0,0,1-1.29.73,1.25,1.25,0,0,1-1.34-1.22C32.56,348.89,34,348.69,34.94,348.69Zm-.76,1.88a1,1,0,0,0,.94-1.08v-.11h-.18c-.51,0-1.37.07-1.37.65A.56.56,0,0,0,34.18,350.57Z"/><path class="cls-2" d="M36.78,350.39c.5-.07.85-.5.85-1.94v-1.28h3v4.08h-1V348h-1v.46c0,1.77-.47,2.8-1.82,2.84Z"/><path class="cls-2" d="M41.7,347.17h1v2.18c0,.18,0,.42,0,.49h0a4.35,4.35,0,0,1,.3-.49l1.51-2.18h1v4.08h-1v-2.18c0-.15,0-.38,0-.49h0a4.64,4.64,0,0,1-.31.49l-1.51,2.18h-1Z"/><path class="cls-2" d="M47.5,348H46.15v-.86h3.7V348H48.5v3.22h-1Z"/><path class="cls-2" d="M50.55,347.17h1v2.18c0,.18,0,.42,0,.49h0a4.64,4.64,0,0,1,.31-.49l1.51-2.18h1v4.08h-1v-2.18c0-.15,0-.38,0-.49h0a4.35,4.35,0,0,1-.3.49l-1.51,2.18h-1Z"/><path class="cls-2" d="M55.39,347.17h1v1.56h.49l1-1.56H59l-1.29,1.94v0l1.45,2.12H58l-1.07-1.66h-.53v1.66h-1Z"/><path class="cls-2" d="M59.78,347.17h1v2.18c0,.18,0,.42,0,.49h0a4.64,4.64,0,0,1,.31-.49l1.51-2.18h1v4.08h-1v-2.18c0-.15,0-.38,0-.49h0c0,.11-.2.33-.3.49l-1.51,2.18h-1Z"/><path class="cls-3" d="M34.92,316.35a6.63,6.63,0,0,0,0-8.4l-4.2,4.2Z"/><path class="cls-5" d="M34,317.26l-4.2-4.2-4.2,4.2-1.38,1.38a8.54,8.54,0,0,0,11.15,0Zm-4.21-2.17,1.73,1.74H28.05Z"/><path class="cls-3" d="M29.8,305.53a6.62,6.62,0,0,0-5.12,10.81L34,307a6.61,6.61,0,0,0-4.2-1.5"/><path class="cls-3" d="M44,308.35a3.55,3.55,0,0,1,2.52.93l-.6.92a3,3,0,0,0-1.86-.72,2.23,2.23,0,0,0-2.29,2.35,2.31,2.31,0,0,0,2.3,2.44,2.94,2.94,0,0,0,2-.87l.65.9A3.67,3.67,0,0,1,44,315.4a3.53,3.53,0,0,1,0-7"/><path class="cls-3" d="M50.13,312.21h.16v-.07c0-.64-.4-.86-.94-.86a2.6,2.6,0,0,0-1.34.47l-.47-.87a3.3,3.3,0,0,1,1.93-.61,1.82,1.82,0,0,1,2,2v3.07H50.38v-.41a2.86,2.86,0,0,1,0-.34h0a1.59,1.59,0,0,1-1.49.86,1.54,1.54,0,0,1-1.66-1.53c0-1.55,2.1-1.66,2.9-1.66m-.93,2.24a1.26,1.26,0,0,0,1.1-1.29v-.11h-.21c-.62,0-1.63.08-1.63.77a.65.65,0,0,0,.74.63"/><path class="cls-3" d="M52.68,308.46h1.21v5.12c0,.53.18.67.5.67h.18v1.07s-.18,0-.38,0c-.68,0-1.51-.17-1.51-1.57Z"/><path class="cls-3" d="M55.41,308.46h1.21v5.12c0,.53.18.67.5.67h.18v1.07s-.18,0-.38,0c-.68,0-1.51-.17-1.51-1.57Z"/><path class="cls-3" d="M58.39,311.43h-.64v-1h.67v-1.41h1.19v1.41h1.11v1H59.61v1.91a.87.87,0,0,0,1,.92,1.12,1.12,0,0,0,.22,0v1.07a3,3,0,0,1-.38,0,1.78,1.78,0,0,1-2-1.84Z"/><path class="cls-3" d="M64.13,310.27a2.57,2.57,0,1,1-2.7,2.57,2.59,2.59,0,0,1,2.7-2.57m0,4.09a1.53,1.53,0,1,0-1.46-1.52,1.46,1.46,0,0,0,1.46,1.52"/><path class="cls-3" d="M67.77,310.39H69v2.9c0,.59.15,1,.76,1a1.48,1.48,0,0,0,1.37-1.66v-2.24h1.22v4.9H71.17v-.56a3.16,3.16,0,0,1,0-.35h0a1.89,1.89,0,0,1-1.7,1c-1,0-1.7-.53-1.7-1.86Z"/><path class="cls-3" d="M76,310.27a2.48,2.48,0,0,1,1.88.73l-.54.84a1.92,1.92,0,0,0-1.28-.53,1.46,1.46,0,0,0-1.49,1.52,1.49,1.49,0,0,0,1.53,1.53,2.24,2.24,0,0,0,1.44-.62l.48.86a2.81,2.81,0,0,1-2,.8,2.57,2.57,0,1,1,0-5.13"/><path class="cls-3" d="M78.9,308.46h1.22v2.37a3.89,3.89,0,0,1,0,.41h0a1.89,1.89,0,0,1,1.69-1c1.09,0,1.7.57,1.7,1.86v3.16H82.3v-2.91c0-.59-.15-1-.78-1a1.38,1.38,0,0,0-1.32,1,2.2,2.2,0,0,0-.08.64v2.25H78.9Z"/><path class="cls-1" d="M128.79,392.71H131v-2.46h.82v2.46h2.23v.78h-2.23V396H131v-2.46h-2.24Z"/><path class="cls-1" d="M137.43,390.4a5.08,5.08,0,0,1,.4-.65v0a4.12,4.12,0,0,1-.5,0h-3.16v-.85h4.72v.68L135.71,396h-1Z"/><path class="cls-1" d="M142,393.44l3.27-4.54h1.12v4.33h1v.83h-1V396h-1v-1.89H142Zm3.42-.21v-2.58c0-.33,0-.71,0-.71h0a3.87,3.87,0,0,1-.35.59l-2,2.68v0Z"/><path class="cls-1" d="M148.83,394.92a2.46,2.46,0,0,0,1,.24c1.3,0,2-1.2,2.12-2.37h0a2,2,0,0,1-1.56.66,2.19,2.19,0,0,1-2.22-2.32,2.22,2.22,0,0,1,2.26-2.35c1.51,0,2.64,1.3,2.64,3.32,0,1.81-1,4-3.18,4a3.11,3.11,0,0,1-1.36-.29Zm3.2-3.29a1.9,1.9,0,0,0-1.6-1.95,1.3,1.3,0,0,0-1.29,1.45,1.38,1.38,0,0,0,1.44,1.49C151.38,392.62,152,392.13,152,391.63Z"/><path class="cls-1" d="M154.7,394.37a2,2,0,0,0,1.55.76,1.46,1.46,0,0,0,1.54-1.43,1.48,1.48,0,0,0-1.6-1.45,2.24,2.24,0,0,0-1.19.35l-.58-.21.35-3.49h3.57v.85h-2.71l-.16,1.49a2.15,2.15,0,0,1-.06.36h0a2.36,2.36,0,0,1,.92-.21,2.31,2.31,0,0,1,2.46,2.31,2.39,2.39,0,0,1-2.5,2.37,2.81,2.81,0,0,1-2.17-1Z"/><path class="cls-1" d="M162.48,394.9h1V396h-1Z"/><path class="cls-1" d="M165,394.9h1V396h-1Z"/><path class="cls-1" d="M167.54,394.9h1V396h-1Z"/><path class="cls-1" d="M172.48,394.9h1V396h-1Z"/><path class="cls-1" d="M175,394.9h1V396h-1Z"/><path class="cls-4" d="M179.74,392.36c0-2.05.66-3.67,2.69-3.67s2.68,1.62,2.68,3.67-.66,3.71-2.68,3.71S179.74,394.41,179.74,392.36Zm3.57,0c0-1.16-.19-2.08-.88-2.08s-.89.92-.89,2.08.2,2.11.89,2.11S183.31,393.53,183.31,392.36Z"/><path class="cls-4" d="M186.22,392.36c0-2.05.66-3.67,2.69-3.67s2.69,1.62,2.69,3.67-.66,3.71-2.69,3.71S186.22,394.41,186.22,392.36Zm3.58,0c0-1.16-.2-2.08-.89-2.08s-.89.92-.89,2.08.2,2.11.89,2.11S189.8,393.53,189.8,392.36Z"/><path d="M119.85,368.7h1v3.1h3.66v-3.1h1v7.06h-1v-3.1h-3.66v3.1h-1Z"/><path d="M129.46,370.58a2.65,2.65,0,1,1-2.72,2.64A2.64,2.64,0,0,1,129.46,370.58Zm0,4.46a1.81,1.81,0,1,0-1.74-1.82A1.75,1.75,0,0,0,129.47,375Z"/><path d="M133.59,370.7h1.08l1.29,2.86c.14.3.28.68.28.68h0l.28-.68,1.31-2.86h1.06l.44,5.06h-.94l-.22-3c0-.3,0-.87,0-.87h0a7.69,7.69,0,0,1-.33.74l-1.19,2.53h-.83l-1.2-2.52-.32-.75h0s0,.57,0,.87l-.22,3h-.94Z"/><path d="M142.87,370.58a2.16,2.16,0,0,1,2.19,2.37c0,.13,0,.27,0,.41h-3.68a1.67,1.67,0,0,0,1.74,1.68,2.24,2.24,0,0,0,1.48-.59l.42.71a3,3,0,0,1-2,.72,2.59,2.59,0,0,1-2.69-2.65A2.49,2.49,0,0,1,142.87,370.58Zm1.21,2.08a1.23,1.23,0,0,0-1.23-1.33,1.47,1.47,0,0,0-1.48,1.33Z"/><path d="M146.23,370.7h.9v.45a2.44,2.44,0,0,1,0,.38h0a1.85,1.85,0,0,1,1.69-.95c1.37,0,2.22,1.08,2.22,2.65a2.36,2.36,0,0,1-2.28,2.65,1.86,1.86,0,0,1-1.57-.86h0a2.24,2.24,0,0,1,0,.44v2.3h-1ZM148.6,375c.8,0,1.45-.65,1.45-1.8s-.58-1.81-1.42-1.81-1.46.54-1.46,1.82C147.17,374.15,147.67,375,148.6,375Z"/><path d="M154.74,370.7h1v2h.71l1.38-2h1.1l-1.69,2.41v0l1.89,2.63H158l-1.51-2.19h-.73v2.19h-1Z"/><path d="M162.14,370.58a2.65,2.65,0,1,1-2.72,2.64A2.63,2.63,0,0,1,162.14,370.58Zm0,4.46a1.81,1.81,0,1,0-1.74-1.82A1.75,1.75,0,0,0,162.15,375Z"/><path d="M166.27,370.7h1.08l1.29,2.86c.14.3.28.68.28.68h0l.28-.68,1.31-2.86h1.06l.44,5.06h-.94l-.22-3c0-.3,0-.87,0-.87h0s-.13.35-.32.74l-1.19,2.53h-.83l-1.2-2.52-.32-.75h0s0,.57,0,.87l-.22,3h-.94Z"/><path d="M173.34,370.7h4.41v5.06h-1v-4.23h-2.47v4.23h-1Z"/><path d="M181.86,372.61h.26v-.1A1,1,0,0,0,181,371.4a2.54,2.54,0,0,0-1.42.49l-.39-.71a3.22,3.22,0,0,1,1.89-.6,1.8,1.8,0,0,1,2,2v3.2h-.9v-.51a2.55,2.55,0,0,1,0-.4h0a1.87,1.87,0,0,1-1.66,1,1.56,1.56,0,0,1-1.69-1.5C178.84,372.79,180.81,372.61,181.86,372.61Zm-1.1,2.5a1.52,1.52,0,0,0,1.36-1.61v-.19h-.25c-.72,0-2.06.06-2.06,1A.85.85,0,0,0,180.76,375.11Z"/><path d="M184.52,370.7h1v2.06H188V370.7h1v5.06h-1v-2.17h-2.55v2.17h-1Z"/><path d="M190.52,370.7h.93v3c0,.27,0,.63,0,.68h0c0-.09.28-.44.45-.68l2.17-3H195v5.06h-.94v-3c0-.24,0-.59,0-.67h0c0,.09-.28.43-.43.67l-2.19,3h-.93Z"/><path d="M196.5,370.7h.93v3c0,.27,0,.63,0,.68h0c0-.09.28-.44.45-.68l2.17-3H201v5.06H200v-3c0-.24,0-.59,0-.67h0a7.87,7.87,0,0,1-.44.67l-2.18,3h-.93Z"/><path d="M147.19,458.45a1.9,1.9,0,0,0,1.33.59,1,1,0,0,0,1.18-1,.94.94,0,0,0-1.06-.94h-.7v-.65h.56a1,1,0,0,0,1-.91.88.88,0,0,0-1-.91,1.92,1.92,0,0,0-1.26.48l-.34-.59a2.55,2.55,0,0,1,1.71-.58,1.52,1.52,0,0,1,1.7,1.5,1.37,1.37,0,0,1-.82,1.27v0a1.33,1.33,0,0,1,1,1.35,1.74,1.74,0,0,1-1.92,1.69,2.51,2.51,0,0,1-1.83-.77Z"/><path d="M151.5,455.61h1.68c.81,0,1.35.36,1.35,1a1,1,0,0,1-.58.89h0a1,1,0,0,1,.77,1c0,.75-.61,1.15-1.49,1.15H151.5Zm1.54,1.71c.46,0,.7-.24.7-.61s-.24-.56-.72-.56h-.74v1.17Zm.07,1.79c.56,0,.83-.25.83-.63s-.3-.64-.84-.64h-.82v1.27Z"/><path d="M157.58,455.52a2.12,2.12,0,1,1-2.18,2.11A2.11,2.11,0,0,1,157.58,455.52Zm0,3.56a1.45,1.45,0,1,0-1.39-1.45A1.4,1.4,0,0,0,157.58,459.08Z"/><path d="M160.7,455.61h.77v1.65h2.05v-1.65h.77v4.05h-.77v-1.74h-2.05v1.74h-.77Z"/><path d="M167.41,455.52a2.12,2.12,0,1,1-2.18,2.11A2.11,2.11,0,0,1,167.41,455.52Zm0,3.56a1.45,1.45,0,1,0-1.4-1.45A1.41,1.41,0,0,0,167.42,459.08Z"/><path d="M170.53,455.61h.77v1.63h.57l1.1-1.63h.88l-1.35,1.93h0l1.51,2.11h-.92l-1.2-1.75h-.59v1.75h-.77Z"/><path d="M120.53,465.21h3.53v4.05h-.78v-3.38h-2v3.38h-.77Z"/><path d="M127,465.12a1.72,1.72,0,0,1,1.75,1.89c0,.1,0,.22,0,.33h-2.94a1.33,1.33,0,0,0,1.39,1.34,1.82,1.82,0,0,0,1.19-.47l.33.57a2.44,2.44,0,0,1-1.57.57,2.07,2.07,0,0,1-2.15-2.12A2,2,0,0,1,127,465.12Zm1,1.66a1,1,0,0,0-1-1.07,1.18,1.18,0,0,0-1.18,1.07Z"/><path d="M129.72,465.21h.72v.36a1.65,1.65,0,0,1,0,.31h0a1.47,1.47,0,0,1,1.36-.76c1.09,0,1.77.86,1.77,2.11a1.89,1.89,0,0,1-1.83,2.12,1.48,1.48,0,0,1-1.25-.68h0a1.84,1.84,0,0,1,0,.35v1.84h-.77Zm1.89,3.47c.64,0,1.17-.52,1.17-1.44s-.47-1.45-1.14-1.45-1.17.44-1.17,1.46C130.47,468,130.87,468.68,131.61,468.68Z"/><path d="M136.29,465.12A1.72,1.72,0,0,1,138,467a1.93,1.93,0,0,1,0,.33h-2.94a1.33,1.33,0,0,0,1.39,1.34,1.82,1.82,0,0,0,1.19-.47l.33.57a2.42,2.42,0,0,1-1.57.57,2.07,2.07,0,0,1-2.15-2.12A2,2,0,0,1,136.29,465.12Zm1,1.66a1,1,0,0,0-1-1.07,1.19,1.19,0,0,0-1.19,1.07Z"/><path d="M141.06,466.74h.21v-.08a.79.79,0,0,0-.89-.89,2,2,0,0,0-1.13.39l-.32-.57a2.61,2.61,0,0,1,1.51-.47,1.43,1.43,0,0,1,1.6,1.58v2.56h-.72v-.41a2.52,2.52,0,0,1,0-.32h0a1.48,1.48,0,0,1-1.32.82,1.24,1.24,0,0,1-1.35-1.2C138.65,466.88,140.22,466.74,141.06,466.74Zm-.88,2a1.22,1.22,0,0,0,1.09-1.29v-.15h-.2c-.58,0-1.65.05-1.65.79A.69.69,0,0,0,140.18,468.74Z"/><path d="M143.18,468.62a4.88,4.88,0,0,0,.63-2.66v-.75h2.74v3.41h.57v1.6h-.71v-1h-3v1h-.72v-1.6Zm2.59,0v-2.78h-1.21v.22a5.09,5.09,0,0,1-.58,2.56Z"/><path d="M147.94,465.21h.72v.36a2.45,2.45,0,0,1,0,.31h0a1.48,1.48,0,0,1,1.36-.76c1.1,0,1.78.86,1.78,2.11a1.89,1.89,0,0,1-1.83,2.12,1.48,1.48,0,0,1-1.26-.68h0a1.84,1.84,0,0,1,0,.35v1.84h-.78Zm1.9,3.47c.64,0,1.16-.52,1.16-1.44s-.47-1.45-1.14-1.45-1.17.44-1.17,1.46C148.69,468,149.09,468.68,149.84,468.68Z"/><path d="M154.52,465.12a1.72,1.72,0,0,1,1.75,1.89c0,.1,0,.22,0,.33h-3a1.34,1.34,0,0,0,1.39,1.34,1.82,1.82,0,0,0,1.2-.47l.32.57a2.39,2.39,0,0,1-1.56.57,2.07,2.07,0,0,1-2.15-2.12A2,2,0,0,1,154.52,465.12Zm1,1.66a1,1,0,0,0-1-1.07,1.18,1.18,0,0,0-1.18,1.07Z"/><path d="M159.11,465.12a2.13,2.13,0,0,1,1.52.59l-.37.54a1.65,1.65,0,0,0-1.12-.46,1.38,1.38,0,0,0-1.41,1.44,1.4,1.4,0,0,0,1.43,1.45,1.83,1.83,0,0,0,1.25-.54l.31.57a2.25,2.25,0,0,1-1.61.64,2.12,2.12,0,1,1,0-4.23Z"/><path d="M163.38,465.12a2.12,2.12,0,1,1-2.17,2.11A2.1,2.1,0,0,1,163.38,465.12Zm0,3.56a1.45,1.45,0,0,0,0-2.89,1.45,1.45,0,0,0,0,2.89Z"/><path d="M166.5,465.21h1.67c.82,0,1.35.36,1.35,1a.94.94,0,0,1-.57.89h0a1,1,0,0,1,.76,1c0,.75-.6,1.15-1.48,1.15H166.5Zm1.54,1.71c.46,0,.69-.24.69-.61s-.23-.56-.72-.56h-.73v1.17Zm.07,1.79c.56,0,.82-.25.82-.63s-.29-.64-.83-.64h-.82v1.27Z"/><path d="M170.66,465.21h.78v1.46h.79c.84,0,1.47.39,1.47,1.31,0,.76-.46,1.28-1.48,1.28h-1.56Zm1.46,3.49c.56,0,.8-.31.8-.73a.7.7,0,0,0-.81-.74h-.67v1.47Zm2.2-3.49h.78v4.05h-.78Z"/><path d="M176.3,465.21H178c.82,0,1.35.36,1.35,1a.94.94,0,0,1-.57.89h0a1,1,0,0,1,.76,1c0,.75-.6,1.15-1.48,1.15H176.3Zm1.54,1.71c.46,0,.69-.24.69-.61s-.23-.56-.72-.56h-.73v1.17Zm.07,1.79c.56,0,.82-.25.82-.63s-.29-.64-.83-.64h-.82v1.27Z"/><path d="M182.54,466.74h.21v-.08a.79.79,0,0,0-.89-.89,2.06,2.06,0,0,0-1.14.39l-.31-.57a2.61,2.61,0,0,1,1.51-.47,1.43,1.43,0,0,1,1.6,1.58v2.56h-.72v-.41a2.52,2.52,0,0,1,0-.32h0a1.48,1.48,0,0,1-1.32.82,1.25,1.25,0,0,1-1.36-1.2C180.12,466.88,181.7,466.74,182.54,466.74Zm-.88,2a1.22,1.22,0,0,0,1.09-1.29v-.15h-.2c-.58,0-1.65.05-1.65.79A.69.69,0,0,0,181.66,468.74Z"/><path d="M186.44,465.12a1.72,1.72,0,0,1,1.75,1.89c0,.1,0,.22,0,.33h-2.95a1.34,1.34,0,0,0,1.39,1.34,1.78,1.78,0,0,0,1.19-.47l.33.57a2.39,2.39,0,0,1-1.56.57,2.07,2.07,0,0,1-2.15-2.12A2,2,0,0,1,186.44,465.12Zm1,1.66a1,1,0,0,0-1-1.07,1.18,1.18,0,0,0-1.18,1.07Z"/><path d="M190.05,465.88h-1.41v-.67h3.59v.67h-1.41v3.38h-.77Z"/><path d="M194.76,465.12a2.1,2.1,0,0,1,1.52.59l-.36.54a1.67,1.67,0,0,0-1.13-.46,1.38,1.38,0,0,0-1.4,1.44,1.4,1.4,0,0,0,1.43,1.45,1.85,1.85,0,0,0,1.25-.54l.31.57a2.29,2.29,0,0,1-1.62.64,2.12,2.12,0,1,1,0-4.23Z"/><path d="M197.75,467.91a2.07,2.07,0,0,1,.18-.24h0a1.21,1.21,0,0,1-.88-1.18c0-.83.59-1.27,1.45-1.27h1.62v4.05h-.78v-1.47h-.68l-1,1.47h-.86Zm1.59-.68v-1.48h-.65c-.52,0-.85.21-.85.72a.74.74,0,0,0,.83.76Z"/><path d="M135.86,474.81h1.67c.81,0,1.35.36,1.35,1a1,1,0,0,1-.58.89h0a1,1,0,0,1,.77,1c0,.75-.61,1.15-1.49,1.15h-1.72Zm1.53,1.71c.47,0,.7-.24.7-.61s-.23-.56-.72-.56h-.74v1.17Zm.07,1.79c.56,0,.83-.25.83-.63s-.3-.64-.83-.64h-.83v1.27Z"/><path d="M142,474.81h.77v1.63h.57l1.1-1.63h.88L144,476.74h0l1.51,2.11h-.92l-1.2-1.75h-.59v1.75H142Z"/><path d="M147.94,474.71a2.12,2.12,0,1,1-2.18,2.12A2.12,2.12,0,0,1,147.94,474.71Zm0,3.57a1.45,1.45,0,0,0,0-2.89,1.45,1.45,0,0,0,0,2.89Z"/><path d="M150.51,478.2c.59-.09.91-.68.91-2.14v-1.25h2.71v4.05h-.78v-3.41h-1.19v.61c0,1.83-.46,2.77-1.65,2.84Z"/><path d="M154.89,478.2c.59-.09.91-.68.91-2.14v-1.25h2.71v4.05h-.77v-3.41h-1.2v.61c0,1.83-.46,2.77-1.65,2.84Z"/><path d="M159.67,476.23H162v.69h-2.34Z"/><path d="M163.17,474.81h.77v3.38h1.93v-3.38h.79v3.38h.56v1.63h-.71v-1h-3.34Z"/><path d="M169.77,474.71a1.73,1.73,0,0,1,1.75,1.9c0,.1,0,.22,0,.33h-3a1.34,1.34,0,0,0,1.4,1.34,1.82,1.82,0,0,0,1.19-.47l.33.57a2.44,2.44,0,0,1-1.57.57,2.07,2.07,0,0,1-2.15-2.12A2,2,0,0,1,169.77,474.71Zm1,1.67a1,1,0,0,0-1-1.07,1.18,1.18,0,0,0-1.18,1.07Z"/><path d="M172.46,474.81h.77v1.65h2.05v-1.65h.77v4.05h-.77v-1.74h-2.05v1.74h-.77Z"/><path d="M178.23,475.47h-1.4v-.66h3.59v.66H179v3.39h-.77Z"/><path d="M181.18,474.81h.72v.36a1.48,1.48,0,0,1,0,.3h0a1.49,1.49,0,0,1,1.36-.76c1.09,0,1.77.87,1.77,2.12a1.89,1.89,0,0,1-1.83,2.12,1.48,1.48,0,0,1-1.25-.68h0a1.84,1.84,0,0,1,0,.35v1.84h-.77Zm1.89,3.47c.64,0,1.17-.52,1.17-1.44s-.47-1.45-1.14-1.45-1.17.44-1.17,1.46C181.93,477.57,182.33,478.28,183.07,478.28Z"/><path d="M151.56,424.22h0a2,2,0,0,0-2,2v9.57a2,2,0,0,0,2,2h0a2,2,0,0,0,2-2v-9.57A2,2,0,0,0,151.56,424.22Z"/><path d="M169,424.22a2,2,0,0,0-2,2v9.57a2,2,0,0,0,2,2h0a2,2,0,0,0,2-2v-9.57a2,2,0,0,0-2-2Z"/><path class="cls-2" d="M176.69,429.23a3.21,3.21,0,0,0-1.86-2.91v-.17a14.45,14.45,0,0,0-3.64-9.62l-.15.26a4,4,0,0,1-1,1.12,12.63,12.63,0,0,1,3,8.24v.39h0v9.11h.45a3.27,3.27,0,0,0,1.29-.27V437a2.8,2.8,0,0,1-2.8,2.79h-5.05a3,3,0,0,0-2.81-2.05h-.8v5.9h.8a3,3,0,0,0,2.81-2.05H172a4.59,4.59,0,0,0,4.55-4.56h0v-3.66a3,3,0,0,0,.13-.9Z"/><path d="M157.43,440.66a3,3,0,0,0,3,2.95h.8v-5.9h-.8A3,3,0,0,0,157.43,440.66Z"/><path d="M166.69,416.29a1.84,1.84,0,0,0,1,.29,1.89,1.89,0,0,0,1-3.49,15.61,15.61,0,0,0-16.76,0,1.89,1.89,0,0,0,2,3.2,11.82,11.82,0,0,1,12.73,0Z"/><path class="cls-2" d="M150.66,417.91a4,4,0,0,1-1-1.12l-.15-.26a14.41,14.41,0,0,0-3.65,9.62v.17a3.23,3.23,0,0,0-1.86,2.91v3.21a3.22,3.22,0,0,0,3.21,3.21h.45v-9.11h0c0-.13,0-.26,0-.39A12.64,12.64,0,0,1,150.66,417.91Z"/><polygon class="cls-2" points="306.68 361.1 301.18 361.1 301.18 360.1 305.68 360.1 305.68 355.6 306.68 355.6 306.68 361.1"/><path class="cls-2" d="M291.44,361.1H281.7v-1h9.74Zm-19.47,0h-9.74v-1H272Zm-19.47,0h-9.74v-1h9.74Zm-19.48,0h-9.73v-1H233Zm-19.47,0h-9.74v-1h9.74Zm-19.47,0h-9.74v-1h9.74Zm-19.48,0h-9.73v-1h9.73Zm-19.47,0H145.4v-1h9.73Zm-19.47,0h-9.74v-1h9.74Zm-19.47,0h-9.74v-1h9.74Zm-19.48,0H87v-1h9.73Zm-19.47,0H67.5v-1h9.74Zm-19.47,0H48v-1h9.74Zm-19.47,0H28.56v-1H38.3Z"/><polygon class="cls-2" points="18.82 361.1 13.32 361.1 13.32 355.6 14.32 355.6 14.32 360.1 18.82 360.1 18.82 361.1"/><path class="cls-2" d="M14.32,345h-1V334.36h1Zm0-21.24h-1V313.12h1Z"/><polygon class="cls-2" points="14.32 302.5 13.32 302.5 13.32 297 18.82 297 18.82 298 14.32 298 14.32 302.5"/><path class="cls-2" d="M291.44,298H281.7v-1h9.74ZM272,298h-9.74v-1H272Zm-19.47,0h-9.74v-1h9.74ZM233,298h-9.73v-1H233Zm-19.47,0h-9.74v-1h9.74Zm-19.47,0h-9.74v-1h9.74Zm-19.48,0h-9.73v-1h9.73Zm-19.47,0H145.4v-1h9.73Zm-19.47,0h-9.74v-1h9.74Zm-19.47,0h-9.74v-1h9.74Zm-19.48,0H87v-1h9.73Zm-19.47,0H67.5v-1h9.74Zm-19.47,0H48v-1h9.74ZM38.3,298H28.56v-1H38.3Z"/><polygon class="cls-2" points="306.68 302.5 305.68 302.5 305.68 298 301.18 298 301.18 297 306.68 297 306.68 302.5"/><path class="cls-2" d="M306.68,345h-1V334.36h1Zm0-21.24h-1V313.12h1Z"/><rect class="cls-1" x="60.03" y="78.37" width="1" height="25.88"/><polygon class="cls-1" points="60.52 104.72 53.5 97.89 54.19 97.17 60.52 103.33 66.85 97.17 67.55 97.89 60.52 104.72"/><rect class="cls-1" x="159.83" y="78.37" width="1" height="25.88"/><polygon class="cls-1" points="160.32 104.72 153.3 97.89 153.99 97.17 160.32 103.33 166.65 97.17 167.35 97.89 160.32 104.72"/><rect class="cls-1" x="259.33" y="78.37" width="1" height="25.88"/><polygon class="cls-1" points="259.82 104.72 252.8 97.89 253.49 97.17 259.82 103.33 266.15 97.17 266.85 97.89 259.82 104.72"/></svg>