<svg xmlns="http://www.w3.org/2000/svg" width="62" height="82" viewBox="0 0 62 82">
    <g fill="none" fill-rule="evenodd">
        <path fill="#FFF" d="M8 15h46v62H8z"/>
        <path fill="#CEEAF2" d="M14.5 12h33v6h-33z"/>
        <path fill="#CEEAF2" d="M47.923 9v5.891h6.663V76.11H7.414V14.89h6.663V9H1.5v73h59V9z"/>
        <circle cx="38.5" cy="59" r="3" fill="#3DAFCC"/>
        <circle cx="2.96" cy="2.979" r="2.871" fill="#3DAFCC" opacity=".3" transform="translate(20.5 64)"/>
        <path fill="#3DAFCC" d="M29.988 23c-3.006 0-5.95.857-8.488 2.472L29.988 39h15.508a15.662 15.662 0 0 0-4.407-11.267A15.551 15.551 0 0 0 29.988 23z"/>
        <path fill="#3DAFCC" d="M20.945 50.9l6.324-8.255 2.677-3.495-7.863-12.548a14.82 14.82 0 0 0-6.895 11.85A14.833 14.833 0 0 0 20.945 50.9z" opacity=".3"/>
        <path fill="#1F282C" d="M1.318 52a.809.809 0 0 1-.579-.245.846.846 0 0 1-.239-.592V8.837c0-.222.086-.435.24-.592A.809.809 0 0 1 1.318 8h7.364c.452 0 .818.375.818.837a.828.828 0 0 1-.818.836H2.136v41.49a.846.846 0 0 1-.24.592.809.809 0 0 1-.578.245zM60.65 82H1.35a.857.857 0 0 1-.601-.244.826.826 0 0 1-.249-.59V60.024c0-.46.38-.834.85-.834.468 0 .848.374.848.834v20.308h57.604V9.668h-6.794a.842.842 0 0 1-.849-.834c0-.46.38-.834.85-.834h7.642c.225 0 .441.088.6.244.16.157.25.369.249.59v72.332c0 .221-.09.433-.249.59a.857.857 0 0 1-.6.244z"/>
        <path fill="#1F282C" d="M54.653 77H7.347a.849.849 0 0 1-.599-.247.84.84 0 0 1-.248-.596V14.843a.84.84 0 0 1 .248-.596.849.849 0 0 1 .6-.247h6.683c.468 0 .847.377.847.843 0 .466-.38.843-.847.843H8.194v59.628h45.611V15.686H47.97a.845.845 0 0 1-.847-.843c0-.466.38-.843.847-.843h6.684c.224 0 .44.089.599.247a.84.84 0 0 1 .248.596v61.314a.84.84 0 0 1-.248.596.849.849 0 0 1-.6.247z"/>
        <path fill="#1F282C" fill-rule="nonzero" d="M47.668 18H14.332a.83.83 0 0 1-.832-.835V5.195a.836.836 0 0 1 .832-.835h10.404A6.688 6.688 0 0 1 31 0a6.688 6.688 0 0 1 6.264 4.36h10.404a.83.83 0 0 1 .832.835v11.97a.836.836 0 0 1-.832.835zm-32.504-1.67h31.672V6.03H36.66a.832.832 0 0 1-.803-.615A5.03 5.03 0 0 0 31 1.67a5.03 5.03 0 0 0-4.858 3.745.832.832 0 0 1-.803.615H15.164v10.3z"/>
        <path fill="#1F282C" d="M30.272 52a12.142 12.142 0 0 1-7.452-2.536.818.818 0 0 1-.149-1.15.826.826 0 0 1 1.155-.149 10.503 10.503 0 0 0 6.446 2.197c5.842-.007 10.577-4.723 10.583-10.543a.82.82 0 0 1 .823-.819.82.82 0 0 1 .822.82c-.007 6.723-5.478 12.172-12.228 12.18z"/>
        <path fill="#1F282C" d="M20.932 51a.813.813 0 0 1-.5-.175c-3.94-3.122-6.149-8.04-5.915-13.164.233-5.124 2.88-9.806 7.085-12.53a.805.805 0 0 1 1.13.264l7.642 12.551a.864.864 0 0 1-.257 1.169.804.804 0 0 1-1.13-.265l-7.191-11.813c-3.368 2.486-5.447 6.43-5.641 10.703-.195 4.273 1.516 8.402 4.643 11.204l5.63-7.567a.808.808 0 0 1 .758-.323c.29.04.538.236.65.516.112.28.07.6-.108.84l-6.145 8.259a.817.817 0 0 1-.65.331z"/>
        <path fill="#1F282C" fill-rule="nonzero" d="M45.653 40H29.941a.837.837 0 0 1-.712-.397l-8.6-13.782a.856.856 0 0 1 .264-1.172A16.84 16.84 0 0 1 29.941 22a16.529 16.529 0 0 1 11.85 5.064 16.834 16.834 0 0 1 4.704 12.086.853.853 0 0 1-.246.601.838.838 0 0 1-.596.249zm-15.246-1.7H44.79c-.229-8.114-6.803-14.579-14.847-14.6a15.15 15.15 0 0 0-7.427 1.954L30.407 38.3z"/>
        <path fill="#1F282C" d="M46.625 59.949h-4.25c-.483 0-.875-.425-.875-.949s.392-.949.875-.949h4.25c.483 0 .875.425.875.949s-.392.949-.875.949zM30.681 59.949H15.319c-.452 0-.819-.425-.819-.949s.367-.949.819-.949h15.362c.452 0 .819.425.819.949s-.367.949-.819.949zM45.69 67.949H31.31c-.447 0-.81-.425-.81-.949s.363-.949.81-.949h14.38c.447 0 .81.425.81.949s-.363.949-.81.949zM19.714 67.949h-4.428c-.434 0-.786-.425-.786-.949s.352-.949.786-.949h4.428c.434 0 .786.425.786.949s-.352.949-.786.949z"/>
        <path fill="#1F282C" fill-rule="nonzero" d="M39 62a3.5 3.5 0 1 1 0-7 3.5 3.5 0 0 1 0 7zm0-5.43a1.93 1.93 0 1 0 0 3.86 1.93 1.93 0 0 0 0-3.86zM22.998 70a3.5 3.5 0 1 1 .004-7 3.5 3.5 0 0 1-.004 7zm0-5.43a1.93 1.93 0 1 0 .004 3.86 1.93 1.93 0 0 0-.004-3.86z"/>
        <path fill="#1F282C" d="M30.5 10a1.04 1.04 0 0 1-.671-.236.75.75 0 0 1-.278-.57V6.806c0-.446.425-.807.949-.807s.949.361.949.807v2.386c0 .214-.1.42-.278.57A1.04 1.04 0 0 1 30.5 10z"/>
    </g>
</svg>
