<svg xmlns="http://www.w3.org/2000/svg" width="60" height="64" viewBox="0 0 60 64">
    <g fill="none" fill-rule="evenodd">
        <path fill="#1EB0CD" d="M38.011 5.438v6.142c9.363 3.298 16.09 12.178 16.09 22.593 0 13.217-10.827 23.968-24.135 23.968-11.463 0-21.08-7.981-23.526-18.642H.42C2.95 53.43 15.21 64 29.966 64 46.553 64 60 50.646 60 34.173 60 20.47 50.69 8.932 38.011 5.438m5.363 28.735c0 7.342-6.015 13.316-13.408 13.316a13.428 13.428 0 0 1-12.285-7.99H11.98c2.314 7.692 9.5 13.316 17.986 13.316 10.35 0 18.771-8.363 18.771-18.642 0-7.42-4.39-13.841-10.726-16.839v6.194c3.254 2.432 5.363 6.299 5.363 10.645"/>
        <path fill="#1F282C" d="M27.187 0v4.367C11.972 5.715 0 18.462 0 33.95h16.525c0-6.404 4.586-11.762 10.662-12.994v12.994a2.66 2.66 0 0 0 2.665 2.652 2.66 2.66 0 0 0 2.665-2.652V0h-5.33z"/>
    </g>
</svg>
