<svg xmlns="http://www.w3.org/2000/svg" width="68" height="68" viewBox="0 0 68 68">
    <g fill="none" fill-rule="evenodd">
        <path fill="#FFF" d="M10 9h57v37H44.5c-1.855 7.638-4.355 12.804-7.5 15.5-3.145 2.696-8.811 4.529-17 5.5-6.427-2.202-10.76-4.535-13-7S2.581 52.702.463 45.5c1.209-5.393 2.554-9.45 4.037-12.17C5.983 30.61 7.816 28.833 10 28V9z"/>
        <path fill="#3DAFCC" d="M53.823 16.462h4.378v23.477h-4.378zM40.423 33.239l-4.378-4.438V16.462h4.378zM22.408 45.592l15.364 15.22a21.557 21.557 0 0 0 6.266-15.22h-21.63z"/>
        <path fill="#CEEAF2" d="M22.408 23.961v21.631h21.63a21.63 21.63 0 0 0-21.63-21.63zM13.68.777h50.036a3.507 3.507 0 0 1 3.507 3.506V9.64h-57.05V4.283A3.507 3.507 0 0 1 13.68.777z"/>
        <path fill="#1F282C" d="M63.516 46.384H47.72a.777.777 0 1 1 0-1.554h15.797a2.933 2.933 0 0 0 2.93-2.93V4.484a2.933 2.933 0 0 0-2.93-2.93H13.881a2.934 2.934 0 0 0-2.932 2.93v23.318a.777.777 0 1 1-1.554 0V4.484A4.49 4.49 0 0 1 13.881 0h49.635A4.49 4.49 0 0 1 68 4.484V41.9a4.49 4.49 0 0 1-4.484 4.484z"/>
        <path fill="#1F282C" d="M67.091 10.417H15.685a.777.777 0 1 1 0-1.554H67.09a.777.777 0 1 1 0 1.554zM23.528 15.673h-7.843a.777.777 0 0 1 0-1.554h7.843a.777.777 0 0 1 0 1.554zM19.607 20.155h-3.922a.777.777 0 1 1 0-1.554h3.922a.777.777 0 1 1 0 1.554zM17.172 5.984h-1.487a.777.777 0 1 1 0-1.553h1.487a.777.777 0 0 1 0 1.553zM22.645 5.984h-1.487a.777.777 0 1 1 0-1.553h1.487a.777.777 0 0 1 0 1.553zM28.116 5.984h-1.485a.777.777 0 1 1 0-1.553h1.485a.777.777 0 1 1 0 1.553zM62.314 5.984h-1.487a.777.777 0 1 1 0-1.553h1.487a.777.777 0 0 1 0 1.553z"/>
        <path fill="#1F282C" fill-rule="nonzero" d="M22.408 68a22.407 22.407 0 1 1 22.407-22.408C44.8 57.962 34.777 67.985 22.408 68zm0-43.261a20.854 20.854 0 1 0 20.853 20.853c-.013-11.511-9.342-20.84-20.853-20.853z"/>
        <path fill="#1F282C" fill-rule="nonzero" d="M44.038 46.369h-21.63a.776.776 0 0 1-.777-.777V23.96a.776.776 0 0 1 .777-.776c12.37.014 22.394 10.038 22.407 22.408a.776.776 0 0 1-.777.777zm-20.853-1.554h20.062c-.42-10.901-9.16-19.642-20.062-20.064v20.064z"/>
        <path fill="#1F282C" d="M37.771 61.588a.773.773 0 0 1-.546-.225l-10.99-10.887a.777.777 0 0 1 1.093-1.105l10.428 10.33a20.711 20.711 0 0 0 5.505-14.11.777.777 0 1 1 1.554 0 22.264 22.264 0 0 1-6.491 15.766.776.776 0 0 1-.553.23z"/>
        <path fill="#1F282C" fill-rule="nonzero" d="M58.201 40.715h-4.378a.776.776 0 0 1-.776-.777V16.462a.776.776 0 0 1 .776-.777h4.378a.776.776 0 0 1 .777.777v23.476a.776.776 0 0 1-.777.777zm-3.6-1.554h2.823V17.24H54.6V39.16z"/>
        <path fill="#1F282C" d="M49.312 40.715a.776.776 0 0 1-.777-.777V24.404H45.71v8.022a.777.777 0 1 1-1.554 0v-8.8a.776.776 0 0 1 .777-.776h4.38a.776.776 0 0 1 .776.777v16.311a.776.776 0 0 1-.777.777zM40.422 25.59a.776.776 0 0 1-.777-.777V17.24h-2.823v5.983a.777.777 0 0 1-1.554 0v-6.76a.776.776 0 0 1 .777-.777h4.377a.776.776 0 0 1 .777.777v8.351a.776.776 0 0 1-.777.777zM31.534 22.656a.776.776 0 0 1-.777-.777v-2.214h-2.824v.622a.777.777 0 1 1-1.554 0v-1.399a.776.776 0 0 1 .777-.777h4.378a.776.776 0 0 1 .776.777v2.99a.776.776 0 0 1-.776.778z"/>
        <path fill="#1F282C" d="M62.314 40.715H47.72a.777.777 0 0 1 0-1.554h14.595a.777.777 0 1 1 0 1.554z"/>
    </g>
</svg>
