<svg xmlns="http://www.w3.org/2000/svg" width="49" height="64" viewBox="0 0 49 64">
    <g fill="none" fill-rule="nonzero">
        <path fill="#1EB0CD" d="M28.75 64c-.212 0-.637 0-.85-.213a1.034 1.034 0 0 1 0-1.494l17-17.066a6.456 6.456 0 0 0 0-9.174c-2.55-2.56-6.587-2.56-9.137 0L14.725 57.387c-3.4 3.413-8.713 3.413-12.112 0-3.4-3.414-3.4-8.747 0-12.16l9.562-9.6a1.024 1.024 0 0 1 1.487 0 1.034 1.034 0 0 1 0 1.493L4.1 46.72a6.456 6.456 0 0 0 0 9.173c2.55 2.56 6.588 2.56 9.138 0L34.275 34.56c3.4-3.413 8.712-3.413 12.113 0 3.4 3.413 3.4 8.747 0 12.16l-17 17.067c0 .213-.426.213-.638.213z"/>
        <path fill="#1F282C" d="M16 36.267c-.213 0-.637 0-.85-.214l-2.125-2.133a1.034 1.034 0 0 1 0-1.493 1.024 1.024 0 0 1 1.487 0l2.125 2.133a1.034 1.034 0 0 1 0 1.493c0 .214-.425.214-.637.214zM21.313 35.2c-.213 0-.638 0-.85-.213l-6.376-6.4a1.034 1.034 0 0 1 0-1.494 1.024 1.024 0 0 1 1.488 0l6.375 6.4a1.034 1.034 0 0 1 0 1.494c0 .213-.425.213-.637.213zM26.625 34.133c-.212 0-.637 0-.85-.213L15.15 23.253a1.034 1.034 0 0 1 0-1.493 1.024 1.024 0 0 1 1.487 0l10.625 10.667a1.034 1.034 0 0 1 0 1.493c0 .213-.425.213-.637.213z"/>
        <g fill="#1F282C">
            <path d="M33 13.302l2.704 2.705-4.827 4.827-2.705-2.704z"/>
            <path d="M48.725 10.88l-2.55-2.347L43.2 11.52c-.213.213-.425.213-.85.213s-.638 0-.85-.213a1.034 1.034 0 0 1 0-1.493l2.975-2.987-.425-.64-2.975 2.987c-.213.213-.425.213-.85.213s-.638 0-.85-.213a1.034 1.034 0 0 1 0-1.494l2.975-2.986-.425-.64-2.975 2.986c-.213.214-.425.214-.85.214s-.638 0-.85-.214a1.034 1.034 0 0 1 0-1.493l2.975-2.987L37.887.427c0-.214-.425-.427-.637-.427-.213 0-.638.213-.85.427-2.125 2.133-4.463 4.693-5.525 5.76l-1.488-1.494a1.024 1.024 0 0 0-1.487 0L17.275 15.36c-.213.213-.213.427-.213.853V19.2c0 .213.213.64.213.853l11.687 11.734c.213.213.425.213.85.213H33c.212 0 .637-.213.85-.213L44.475 21.12a1.034 1.034 0 0 0 0-1.493l-1.275-1.28 5.525-5.547c.212-.64.212-1.493 0-1.92zM38.1 16.853l-6.375 6.4c-.213.214-.637.214-.85.214-.213 0-.637 0-.85-.214L28.75 21.76l-1.275 1.28c-.213.427-.637.427-.85.427-.213 0-.637 0-.85-.214a1.034 1.034 0 0 1 0-1.493l1.275-1.28-1.275-1.28a1.034 1.034 0 0 1 0-1.493l6.375-6.4a1.024 1.024 0 0 1 1.487 0l4.25 4.266c.425 0 .425.854.213 1.28z"/>
        </g>
    </g>
</svg>
