<svg xmlns="http://www.w3.org/2000/svg" width="54" height="64" viewBox="0 0 54 64">
    <g fill="none" fill-rule="evenodd">
        <path d="M-5 0h64v64H-5z"/>
        <g fill-rule="nonzero">
            <path fill="#1F282C" d="M8.333 18.667a5.27 5.27 0 0 0 2.664-.739l10.672 6.101A5.329 5.329 0 0 0 27 29.333 5.334 5.334 0 0 0 32.333 24c0-.475-.082-.923-.197-1.365l12.165-12.166c.438.118.891.198 1.366.198a5.334 5.334 0 1 0-5.333-5.333c0 .474.082.927.197 1.365L28.365 18.864A5.48 5.48 0 0 0 27 18.669a5.27 5.27 0 0 0-2.664.739l-10.672-6.096A5.332 5.332 0 0 0 3 13.333a5.335 5.335 0 0 0 5.333 5.334zM.333 58.667h53.333V64H.333z"/>
            <path fill="#1EB0CD" d="M21.666 40h10.667v16H21.666zM37.666 24h10.667v32H37.666zM5.666 34.667h10.667V56H5.666z"/>
        </g>
    </g>
</svg>
