<svg xmlns="http://www.w3.org/2000/svg" width="64" height="64" viewBox="0 0 64 64">
    <g fill="none" fill-rule="nonzero">
        <path fill="#1F282C" d="M54.667 0H9.333C4.187 0 0 4.187 0 9.333v45.334C0 59.813 4.187 64 9.333 64h45.334C59.813 64 64 59.813 64 54.667V9.333C64 4.187 59.813 0 54.667 0zM9.333 5.333a1.334 1.334 0 1 1 0 2.668 1.334 1.334 0 0 1 0-2.668zm12 1.334a1.334 1.334 0 1 1-2.667-.001 1.334 1.334 0 0 1 2.667 0zm-5.333 0a1.334 1.334 0 1 1-2.668-.001 1.334 1.334 0 0 1 2.668 0zm38.667 54.666H9.333a6.676 6.676 0 0 1-6.666-6.666V13.333h58.666v41.334a6.676 6.676 0 0 1-6.666 6.666z"/>
        <path fill="#1EB0CD" d="M46.283 38.427c.032-.36.05-.726.05-1.094 0-.373-.018-.744-.05-1.114l3.117-2.446c.837-.706 1.04-1.89.493-2.802l-3.477-6.011c-.541-.901-1.595-1.341-2.707-.923l-3.618 1.456a14.034 14.034 0 0 0-1.896-1.109l-.552-3.915a2.242 2.242 0 0 0-2.176-1.802h-6.934c-1.074 0-1.992.776-2.186 1.89l-.542 3.859c-.669.325-1.304.696-1.893 1.104l-3.648-1.467a2.242 2.242 0 0 0-2.69.95l-3.457 5.973c-.557.928-.354 2.115.52 2.85l3.08 2.414c-.032.363-.05.728-.05 1.093 0 .374.018.744.05 1.115L14.6 40.893c-.837.707-1.04 1.891-.493 2.803l3.477 6.01c.539.902 1.592 1.337 2.707.923l3.618-1.456c.606.422 1.232.787 1.896 1.11l.55 3.912A2.25 2.25 0 0 0 28.533 56h6.934c1.074 0 1.992-.776 2.186-1.89l.542-3.86c.669-.327 1.301-.695 1.893-1.103l3.653 1.469c.251.093.512.141.779.141.784 0 1.493-.402 1.907-1.093l3.456-5.973c.557-.928.354-2.115-.52-2.851l-3.08-2.413zM32 34.667a2.671 2.671 0 0 1 2.667 2.666A2.671 2.671 0 0 1 32 40a2.671 2.671 0 0 1-2.667-2.667A2.671 2.671 0 0 1 32 34.667z"/>
    </g>
</svg>
