<svg xmlns="http://www.w3.org/2000/svg" width="59" height="64" viewBox="0 0 59 64">
    <g fill="none" fill-rule="nonzero">
        <path fill="#1EB0CD" d="M52.295 0H30.841c-5.176 0-9.386 4.187-9.386 9.333v25.334h26.818v-28c0-2.206 1.805-4 4.022-4 .74 0 1.341-.598 1.341-1.334 0-.736-.6-1.333-1.34-1.333zM41.568 26.667H28.16c-.74 0-1.34-.598-1.34-1.334 0-.736.6-1.333 1.34-1.333h13.41c.74 0 1.34.597 1.34 1.333s-.6 1.334-1.34 1.334zm0-8H28.16c-.74 0-1.34-.598-1.34-1.334 0-.736.6-1.333 1.34-1.333h13.41c.74 0 1.34.597 1.34 1.333s-.6 1.334-1.34 1.334zm0-8H28.16c-.74 0-1.34-.598-1.34-1.334 0-.736.6-1.333 1.34-1.333h13.41c.74 0 1.34.597 1.34 1.333s-.6 1.334-1.34 1.334z"/>
        <path fill="#1F282C" d="M41.568 37.333H17.432c-5.176 0-9.387 4.187-9.387 9.334v8c0 3.674-3.009 6.666-6.704 6.666-.74 0-1.341.598-1.341 1.334C0 63.403.6 64 1.34 64h26.82c5.175 0 9.385-4.187 9.385-9.333V44c0-2.205 1.805-4 4.023-4 .74 0 1.341-.597 1.341-1.333s-.6-1.334-1.34-1.334zM30.841 56H14.75c-.74 0-1.34-.597-1.34-1.333s.6-1.334 1.34-1.334h16.09c.741 0 1.342.598 1.342 1.334 0 .736-.6 1.333-1.341 1.333zm0-8H14.75c-.74 0-1.34-.597-1.34-1.333s.6-1.334 1.34-1.334h16.09c.741 0 1.342.598 1.342 1.334 0 .736-.6 1.333-1.341 1.333z"/>
        <path fill="#000" d="M45.59 38.701a6.65 6.65 0 0 0-4.022-1.368h-2.682c-.74 0-1.34.598-1.34 1.334 0 .736.6 1.333 1.34 1.333h2.682c2.218 0 4.023 1.795 4.023 4v1.333h-5.364V48h6.705c.74 0 1.34-.597 1.34-1.333V44c0-2.168-1.064-4.08-2.681-5.299z"/>
        <path fill="#1EB0CD" d="M52.295 0c-.74 0-1.34.597-1.34 1.333s.6 1.334 1.34 1.334c2.218 0 4.023 1.794 4.023 4V8h-5.363v2.667h6.704c.74 0 1.341-.598 1.341-1.334V6.667C59 2.992 55.991 0 52.295 0z"/>
    </g>
</svg>
