<svg xmlns="http://www.w3.org/2000/svg" width="54" height="46" viewBox="0 0 54 46">
    <g fill="none" fill-rule="evenodd">
        <path d="M-5-10h64v64H-5z"/>
        <g fill-rule="nonzero">
            <path fill="#1EB0CD" d="M27 16.667C12.296 16.667.333 28.629.333 43.333A2.668 2.668 0 0 0 3 46h48a2.668 2.668 0 0 0 2.667-2.667c0-14.704-11.963-26.666-26.667-26.666z"/>
            <path fill="#1F282C" d="M27 14c8.29 0 16.243 3.565 21.816 9.779l3.97-3.56c-4.535-5.059-10.42-8.584-16.842-10.315A5.306 5.306 0 0 0 37.667 6c0-2.95-2.39-5.333-5.334-5.333A5.332 5.332 0 0 0 27 6c0 .992.288 1.912.763 2.707-.256-.006-.507-.04-.763-.04s-.507.034-.763.04A5.259 5.259 0 0 0 27 6C27 3.05 24.61.667 21.667.667A5.332 5.332 0 0 0 16.333 6c0 1.547.67 2.928 1.723 3.904-6.421 1.73-12.307 5.259-16.843 10.317l3.971 3.56C10.757 17.565 18.709 14 27 14z"/>
        </g>
    </g>
</svg>
