<svg xmlns="http://www.w3.org/2000/svg" width="64" height="30" viewBox="0 0 64 30">
    <g fill="none" fill-rule="nonzero">
        <path fill="#1EB0CD" d="M63.397 2.23a3.973 3.973 0 0 0-3.4-1.897H24.94a6.627 6.627 0 0 0-5.963 3.686L9.048 23.877a3.976 3.976 0 0 0 .173 3.891 3.974 3.974 0 0 0 3.403 1.899H47.68a6.627 6.627 0 0 0 5.963-3.686l9.93-19.861a3.962 3.962 0 0 0-.176-3.89zM31.16 18.903l-13.333 5.333a1.334 1.334 0 0 1-.99-2.475l13.334-5.333a1.327 1.327 0 0 1 1.73.744 1.329 1.329 0 0 1-.741 1.731zM47.733 23.8a1.336 1.336 0 0 1-1.866.267l-5.334-4a1.335 1.335 0 0 1-.269-1.867 1.336 1.336 0 0 1 1.867-.267l5.333 4c.59.443.71 1.278.27 1.867zm7.55-15.619L41.36 15.445a9.495 9.495 0 0 1-4.024.902 9.26 9.26 0 0 1-5.707-1.968l-7.181-6.382a1.331 1.331 0 0 1-.112-1.882 1.331 1.331 0 0 1 1.883-.112l7.117 6.33c1.915 1.488 4.565 1.784 6.845.723l13.867-7.237a1.337 1.337 0 0 1 1.8.565 1.33 1.33 0 0 1-.565 1.797z"/>
        <path fill="#1F282C" d="M12 5.667H1.333a1.332 1.332 0 1 1 0-2.667H12a1.334 1.334 0 0 1 0 2.667zM1.333 27a1.26 1.26 0 0 1-.936-.4A1.258 1.258 0 0 1 0 25.667c0-.347.133-.667.373-.934.56-.533 1.414-.506 1.894-.026.266.266.4.613.4.96 0 .373-.163.72-.4.96-.238.24-.587.373-.934.373zM6.667 16.333H1.333a1.332 1.332 0 1 1 0-2.666h5.334a1.334 1.334 0 0 1 0 2.666z"/>
    </g>
</svg>
