<svg xmlns="http://www.w3.org/2000/svg" width="64" height="64" viewBox="0 0 64 64">
    <g fill="none" fill-rule="nonzero">
        <path fill="#1F282C" d="M6.667 64a1.334 1.334 0 0 1-1.334-1.333V1.333a1.334 1.334 0 0 1 2.667 0v61.334C8 63.403 7.403 64 6.667 64z"/>
        <path fill="#1F282C" d="M62.667 58.667H1.333a1.334 1.334 0 0 1 0-2.667h61.334a1.334 1.334 0 0 1 0 2.667z"/>
        <path fill="#1EB0CD" d="M20 45.333a6.676 6.676 0 0 1-6.667-6.666A6.676 6.676 0 0 1 20 32a6.676 6.676 0 0 1 6.667 6.667A6.676 6.676 0 0 1 20 45.333zM36 29.333a6.676 6.676 0 0 1-6.667-6.666A6.676 6.676 0 0 1 36 16a6.676 6.676 0 0 1 6.667 6.667A6.676 6.676 0 0 1 36 29.333zM54.667 18.667A6.676 6.676 0 0 1 48 12a6.676 6.676 0 0 1 6.667-6.667A6.676 6.676 0 0 1 61.333 12a6.676 6.676 0 0 1-6.666 6.667z"/>
        <path fill="#1F282C" d="M20 53.333A1.334 1.334 0 0 1 18.667 52v-2.667a1.334 1.334 0 0 1 2.666 0V52c0 .736-.597 1.333-1.333 1.333zM36 53.333A1.334 1.334 0 0 1 34.667 52V33.333a1.334 1.334 0 0 1 2.666 0V52c0 .736-.597 1.333-1.333 1.333zM54.667 53.333A1.334 1.334 0 0 1 53.333 52V22.667a1.334 1.334 0 0 1 2.667 0V52c0 .736-.597 1.333-1.333 1.333z"/>
        <path fill="#1EB0CD" d="M24 36a1.334 1.334 0 0 1-.944-2.275l8-8a1.334 1.334 0 0 1 1.885 1.886l-8 8c-.258.258-.6.389-.941.389zM41.333 21.333a1.333 1.333 0 0 1-.741-2.442l8-5.334a1.33 1.33 0 0 1 1.848.371c.408.613.243 1.44-.37 1.848l-8 5.333c-.225.152-.48.224-.737.224z"/>
    </g>
</svg>
