<svg xmlns="http://www.w3.org/2000/svg" xmlns:xlink="http://www.w3.org/1999/xlink" width="120" height="120" viewBox="0 0 120 120"><defs><path id="2d09a" d="M246 263h-76c-5.6 0-10 4.4-10 10v38h96v-38c0-5.6-4.4-10-10-10z"/><path id="2d09b" d="M160 317c0 5.6 4.4 10 10 10h38v8h-18c-1.2 0-2 .8-2 2s.8 2 2 2h40c1.2 0 2-.8 2-2s-.8-2-2-2h-18v-8h34c5.6 0 10-4.4 10-10v-2h-96z"/><path id="2d09c" d="M184 219v20h16c-3.6-10.8-9.2-18.8-16-20z"/><path id="2d09d" d="M180 239v-20c-6.8 1.2-12.8 9.2-16.4 20z"/><path id="2d09e" d="M136 263h20c0-7.2.8-14 2.4-20h-16.8c-3.2 6-5.2 12.8-5.6 20z"/><path id="2d09f" d="M136 267c.4 7.2 2.4 14 5.6 20H156v-14c0-.8 0-1.6.4-2.4V267z"/><path id="2d09g" d="M201.2 243H184v16h20c-.4-5.6-1.2-11.2-2.8-16z"/><path id="2d09h" d="M144 239h15.6c2.4-8 5.6-14 10-18.4-10.4 3.2-19.6 9.6-25.6 18.4z"/><path id="2d09i" d="M152.8 300.2c.4.4.8.4 1.2.4h.8c.8-.4 1.2-1.2 1.2-2v-8h-12c2.4 3.6 5.2 6.8 8.8 9.6z"/><path id="2d09j" d="M160 263c2.8-2.4 6-4 10-4h10v-16h-17.6c-1.6 6-2.4 12.8-2.4 20z"/><path id="2d09k" d="M220 239c-6-8.8-15.2-15.2-25.6-18.4 4.4 4.4 7.6 10.4 10 18.4z"/><path id="2d09l" d="M208 259h17.2c1.2 0 2-.8 2-2 0-.4 0-.8-.4-.8-.8-4.8-2.4-9.2-4.4-13.2h-16.8a90 90 0 0 1 2.4 16z"/></defs><g><g transform="translate(-136 -219)"><g><use fill="#1eb0cd" xlink:href="#2d09a"/></g><g><use fill="#1f282c" xlink:href="#2d09b"/></g><g><use fill="#24b0cb" xlink:href="#2d09c"/></g><g><use fill="#24b0cb" xlink:href="#2d09d"/></g><g><use fill="#24b0cb" xlink:href="#2d09e"/></g><g><use fill="#24b0cb" xlink:href="#2d09f"/></g><g><use fill="#24b0cb" xlink:href="#2d09g"/></g><g><use fill="#24b0cb" xlink:href="#2d09h"/></g><g><use fill="#24b0cb" xlink:href="#2d09i"/></g><g><use fill="#24b0cb" xlink:href="#2d09j"/></g><g><use fill="#24b0cb" xlink:href="#2d09k"/></g><g><use fill="#24b0cb" xlink:href="#2d09l"/></g></g></g></svg>