<svg xmlns="http://www.w3.org/2000/svg" xmlns:xlink="http://www.w3.org/1999/xlink" width="96" height="96" viewBox="0 0 96 96"><defs><path id="id7ea" d="M602.54 1398.55c-1 0-1.66-.66-1.66-1.65 0-1 .66-1.65 1.66-1.65h8.25a48.2 48.2 0 0 0-46.24-46.25v11.56c0 1-.66 1.65-1.65 1.65-1 0-1.65-.66-1.65-1.65V1349a48.2 48.2 0 0 0-46.25 46.25h8.26c.99 0 1.65.66 1.65 1.65 0 .99-.66 1.65-1.65 1.65H515a48.2 48.2 0 0 0 46.25 46.24v-11.56c0-.99.66-1.65 1.65-1.65.99 0 1.65.66 1.65 1.65v11.56a48.2 48.2 0 0 0 46.24-46.24z"/></defs><g><g transform="translate(-515 -1349)"><g><use fill="#1f282c" xlink:href="#id7ea"/></g><g><g fill="#fff" font-family="'Museo Sans Cyrl 700','MuseoSansCyrl-700'" font-size="31"><text dominant-baseline="text-before-edge" font-family="Helvetica, Arial, sans-serif" transform="translate(537 1376)"><tspan>96</tspan><tspan font-size="25">%</tspan></text></g></g></g></g></svg>