<svg xmlns="http://www.w3.org/2000/svg" xmlns:xlink="http://www.w3.org/1999/xlink" width="96" height="87" viewBox="0 0 96 87"><defs><path id="m9v1a" d="M1012.2 1398.32h-3.2c-.96 0-1.6-.64-1.6-1.6 0-.97.64-1.61 1.6-1.61h3.2c.96 0 1.6.64 1.6 1.6 0 .97-.64 1.61-1.6 1.61zm0 6.44h-3.2c-.96 0-1.6-.65-1.6-1.61 0-.97.64-1.62 1.6-1.62h3.2c.96 0 1.6.65 1.6 1.62 0 .96-.64 1.6-1.6 1.6zm0 6.43h-3.2c-.96 0-1.6-.65-1.6-1.61 0-.97.64-1.62 1.6-1.62h3.2c.96 0 1.6.65 1.6 1.62 0 .96-.64 1.6-1.6 1.6zm-9.6-12.87h-3.2c-.96 0-1.6-.64-1.6-1.6 0-.97.64-1.61 1.6-1.61h3.2c.96 0 1.6.64 1.6 1.6 0 .97-.64 1.61-1.6 1.61zm0 6.44h-3.2c-.96 0-1.6-.65-1.6-1.61 0-.97.64-1.62 1.6-1.62h3.2c.96 0 1.6.65 1.6 1.62 0 .96-.64 1.6-1.6 1.6zm0 6.43h-3.2c-.96 0-1.6-.65-1.6-1.61 0-.97.64-1.62 1.6-1.62h3.2c.96 0 1.6.65 1.6 1.62 0 .96-.64 1.6-1.6 1.6zm-9.6-12.87h-3.2c-.96 0-1.6-.64-1.6-1.6 0-.97.64-1.61 1.6-1.61h3.2c.96 0 1.6.64 1.6 1.6 0 .97-.64 1.61-1.6 1.61zm0 6.44h-3.2c-.96 0-1.6-.65-1.6-1.61 0-.97.64-1.62 1.6-1.62h3.2c.96 0 1.6.65 1.6 1.62 0 .96-.64 1.6-1.6 1.6zm0 6.43h-3.2c-.96 0-1.6-.65-1.6-1.61 0-.97.64-1.62 1.6-1.62h3.2c.96 0 1.6.65 1.6 1.62 0 .96-.64 1.6-1.6 1.6zm43.84-2.58l-20.16-25.72c-.32-.32-.64-.64-1.28-.64h-1.6v-4.82c0-.97-.64-1.61-1.6-1.61-.96 0-1.6.64-1.6 1.6v4.83h-19.2v-4.82c0-.97-.64-1.61-1.6-1.61-.96 0-1.6.64-1.6 1.6v4.83h-1.6c-.64 0-.96.32-1.28.64l-20.16 25.72s0 .32-.32.32c-1.6 2.89-2.24 6.43-2.24 9.64v16.71c0 .97.64 1.61 1.6 1.61h73.6c.96 0 1.6-.64 1.6-1.6v-16.72c0-3.21-.64-6.75-2.56-9.96.32 0 .32 0 0 0z"/><path id="m9v1b" d="M1047.4 1368.11c-12.16-11.57-28.48-18-46.4-18h-.64c-17.92 0-32.96 5.79-45.76 18a6.79 6.79 0 0 0-1.6 4.18c0 1.6.64 2.9 1.6 3.86l9.28 11.57a5.9 5.9 0 0 0 3.84 1.6c1.6 0 2.88-.64 3.84-1.6 2.56-2.25 5.76-3.86 8.96-5.47l1.92-.96c1.92-.97 2.56-3.22 2.56-5.14v-13.5c5.44-1.61 9.92-2.9 15.68-2.9h.32c5.12 0 10.24.97 16 2.9v12.53c0 2.57.96 4.5 2.56 5.47l2.24.96c3.2 1.6 7.04 3.54 9.28 5.79a5.5 5.5 0 0 0 7.68-.33l8.32-10.92c1.28-1.29 1.92-2.58 1.92-4.18 0-1.29-.64-2.57-1.6-3.86z"/></defs><g><g transform="translate(-953 -1350)"><g><use fill="#1eb0cd" xlink:href="#m9v1a"/></g><g><use fill="#1f282c" xlink:href="#m9v1b"/></g></g></g></svg>