<svg xmlns="http://www.w3.org/2000/svg" xmlns:xlink="http://www.w3.org/1999/xlink" width="128" height="128" viewBox="0 0 128 128"><defs><path id="a9nqa" d="M136 1950a64 64 0 1 1 128 0 64 64 0 0 1-128 0z"/><path id="a9nqc" d="M220.65 1966.12l-10.22-2.55-.87-3.48c2.74-2.7 4.6-6.43 5.16-10.24a4 4 0 0 0 2.9-3.35l.66-5.34a3.99 3.99 0 0 0-2.55-4.23l.24-5.02 1-1c1.5-1.6 2.75-4.33.14-8.3-2-3.06-5.4-4.61-10.1-4.61-1.85 0-6.12 0-10.1 2.67-11.36.24-12.91 5.52-12.91 10.66 0 1.2.3 3.9.48 5.52a3.98 3.98 0 0 0-2.76 4.32l.67 5.33a4.01 4.01 0 0 0 3.2 3.43 18.5 18.5 0 0 0 4.9 9.93l-.92 3.71-10.22 2.56a14.96 14.96 0 0 0-11.35 14.54c0 .73.6 1.33 1.33 1.33h61.34c.73 0 1.33-.6 1.33-1.34 0-6.89-4.67-12.87-11.35-14.54z"/><clipPath id="a9nqb"><use fill="#fff" xlink:href="#a9nqa"/></clipPath></defs><g><g transform="translate(-136 -1886)"><g><use fill="#fff" fill-opacity="0" stroke="#1eb0cd" stroke-miterlimit="50" stroke-width="4" clip-path="url(&quot;#a9nqb&quot;)" xlink:href="#a9nqa"/></g><g><g><use fill="#1eb0cd" xlink:href="#a9nqc"/></g></g></g></g></svg>