<svg xmlns="http://www.w3.org/2000/svg" xmlns:xlink="http://www.w3.org/1999/xlink" width="48" height="48" viewBox="0 0 48 48"><defs><path id="ubdga" d="M861.49 1013.09l-7.67-1.92-.65-2.6a13.79 13.79 0 0 0 3.87-7.68 3 3 0 0 0 2.17-2.52l.5-4a2.99 2.99 0 0 0-1.91-3.17l.18-3.77.75-.75c1.12-1.2 2.06-3.25.1-6.23-1.5-2.29-4.04-3.45-7.57-3.45-1.4 0-4.6 0-7.58 2-8.52.18-9.68 4.14-9.68 8 0 .9.22 2.92.36 4.14a2.98 2.98 0 0 0-2.07 3.23l.5 4a3 3 0 0 0 2.4 2.58 13.88 13.88 0 0 0 3.68 7.44l-.7 2.79-7.65 1.91A11.22 11.22 0 0 0 822 1024a1 1 0 0 0 1 1h46a1 1 0 0 0 1-1c0-5.17-3.5-9.66-8.51-10.91z"/></defs><g><g transform="translate(-822 -977)"><use fill="#8f9496" xlink:href="#ubdga"/></g></g></svg>