<svg xmlns="http://www.w3.org/2000/svg" width="246" height="227" viewBox="0 0 246 227">
    <defs>
        <linearGradient id="a" x1="19.081%" x2="80.919%" y1="89.19%" y2="10.81%">
            <stop offset="15.426%" stop-color="#FFF" stop-opacity="0"/>
            <stop offset="24.369%" stop-color="#FFF" stop-opacity=".025"/>
            <stop offset="36.639%" stop-color="#FFF" stop-opacity=".094"/>
            <stop offset="50.843%" stop-color="#FFF" stop-opacity=".207"/>
            <stop offset="66.492%" stop-color="#FFF" stop-opacity=".366"/>
            <stop offset="83.244%" stop-color="#FFF" stop-opacity=".568"/>
            <stop offset="100%" stop-color="#FFF" stop-opacity=".8"/>
        </linearGradient>
    </defs>
    <g fill="none" fill-rule="evenodd">
        <path fill="#97D8E8" fill-rule="nonzero" d="M38.677 154.258h-4.149v-4.146h4.15zM243.227 175.321l2.194-1.264-.203-1.65-2.894.24zM121.369.615l-2.05 1.182 3.389 2.942 1.02-2.84z"/>
        <path fill="#97D8E8" fill-rule="nonzero" d="M241.831 68.421L124.3.616a2.897 2.897 0 0 0-2.447-.225c-.168.06-.33.135-.485.224a2.904 2.904 0 0 0-1.468 2.54v98.57c0 .463.246.89.647 1.12l123.512 71.257a1.295 1.295 0 0 0 1.941-1.12V75.637a8.33 8.33 0 0 0-4.169-7.216z"/>
        <path fill="#1F282D" fill-rule="nonzero" d="M239.783 69.603L122.252 1.798a2.897 2.897 0 0 0-2.447-.226c-.168.06-.33.136-.485.225a2.904 2.904 0 0 0-1.469 2.54v98.57c0 .462.247.89.647 1.12l123.513 71.256a1.295 1.295 0 0 0 1.94-1.12V76.818a8.33 8.33 0 0 0-4.168-7.215z"/>
        <path fill="#3DAFCC" fill-rule="nonzero" d="M122.157 96.93V9.272l117.49 67.782v87.658z"/>
        <path fill="#97D8E8" fill-rule="nonzero" d="M241.506 176.22l-122.834-70.865a1.636 1.636 0 0 0-1.64.002L35.34 152.772a1.636 1.636 0 0 0 .004 2.828L157.4 226.017c.988.57 2.206.569 3.192-.004l80.918-46.965a1.636 1.636 0 0 0-.004-2.828z"/>
        <path fill="#97D8E8" fill-rule="nonzero" d="M239.311 173.222h2.987v4.448h-2.987z"/>
        <path fill="#C8F1FA" fill-rule="nonzero" d="M241.506 172.09l-122.834-70.865a1.637 1.637 0 0 0-1.64.002L35.34 148.643a1.636 1.636 0 0 0 .004 2.828l122.416 70.624c.766.442 1.71.44 2.475-.003l81.276-47.173a1.636 1.636 0 0 0-.004-2.829z"/>
        <path fill="#98DAEB" fill-rule="nonzero" d="M222.978 169.333l-100.02-57.703c-.346-.2-.772-.2-1.118.002l-40.32 23.402a1.116 1.116 0 0 0 .002 1.93l100.02 57.702c.345.2.772.2 1.118-.001l40.32-23.402a1.116 1.116 0 0 0-.002-1.93z"/>
        <path fill="#98DAEB" fill-rule="nonzero" d="M215.026 171.399l-91.966-53.056-36.33 20.77 91.967 53.057z"/>
        <path fill="#98DAEB" fill-rule="nonzero" d="M219.832 171.754c.659-.38.622-1.024-.08-1.429l-96.346-55.583a2.75 2.75 0 0 0-2.473-.045L85.53 135.12c-.658.38-.624 1.022.077 1.427l96.347 55.584c.771.406 1.69.423 2.476.046l35.402-20.424z"/>
        <path fill="#515C66" fill-rule="nonzero" d="M121.798 123.103a.656.656 0 0 1-.591 0l-4.523-2.609a.18.18 0 0 1 0-.341l4.521-2.609a.655.655 0 0 1 .592 0l4.523 2.61a.18.18 0 0 1 0 .34l-4.522 2.609zM125.11 132.576a.653.653 0 0 1-.593 0l-4.523-2.608c-.162-.094-.161-.246.004-.341l4.522-2.61a.653.653 0 0 1 .588 0l4.522 2.61a.18.18 0 0 1 .003.34l-4.523 2.609zM120.107 137.254a.652.652 0 0 1-.59 0l-4.523-2.61a.18.18 0 0 1-.001-.34l4.523-2.61a.66.66 0 0 1 .59 0l4.522 2.61a.18.18 0 0 1 .002.34l-4.523 2.61zM110.343 139.184a.655.655 0 0 1-.59 0l-4.523-2.61a.18.18 0 0 1 .001-.34l4.522-2.608a.66.66 0 0 1 .591-.001l4.523 2.609a.18.18 0 0 1-.002.34l-4.522 2.61zM94.772 138.695a.654.654 0 0 1-.59 0l-4.523-2.61a.18.18 0 0 1 0-.34l5.309-3.064a.66.66 0 0 1 .59 0l4.523 2.61a.18.18 0 0 1 0 .34l-5.309 3.064zM101.308 142.465a.654.654 0 0 1-.592 0l-4.52-2.608a.18.18 0 0 1 0-.34l5.31-3.064a.662.662 0 0 1 .59 0l4.52 2.608a.18.18 0 0 1 .001.341l-5.309 3.063zM107.847 146.238a.656.656 0 0 1-.592 0l-4.523-2.61a.18.18 0 0 1 .001-.34l5.31-3.063a.66.66 0 0 1 .59 0l4.522 2.608a.18.18 0 0 1 .001.342l-5.31 3.063zM163.684 178.451a.66.66 0 0 1-.593 0l-4.523-2.61a.18.18 0 0 1 .002-.34l5.31-3.063a.66.66 0 0 1 .589-.001l4.522 2.61a.182.182 0 0 1 .003.341l-5.31 3.063zM170.159 182.276a.654.654 0 0 1-.591 0l-4.52-2.607c-.164-.095-.166-.249-.003-.343l2.36-1.361a.66.66 0 0 1 .594.002l4.52 2.607a.18.18 0 0 1 0 .341l-2.36 1.361zM183.269 189.84a.656.656 0 0 1-.592 0l-4.52-2.609a.181.181 0 0 1-.003-.342l2.36-1.361a.663.663 0 0 1 .593 0l4.52 2.609a.18.18 0 0 1 .001.341l-2.36 1.361zM116.048 150.969a.653.653 0 0 1-.59.001l-6.146-3.546a.18.18 0 0 1 .002-.34l5.31-3.063a.658.658 0 0 1 .588 0l6.147 3.545a.18.18 0 0 1-.002.34l-5.31 3.063zM157.085 174.644a.653.653 0 0 1-.591 0l-6.144-3.545a.18.18 0 0 1-.001-.341l5.309-3.063a.666.666 0 0 1 .592 0l6.144 3.545a.18.18 0 0 1 0 .341l-5.309 3.063zM148.21 169.524a.658.658 0 0 1-.593-.001l-29.43-16.979a.18.18 0 0 1 0-.341l5.31-3.063a.666.666 0 0 1 .59 0l29.43 16.979a.181.181 0 0 1 .003.342l-5.31 3.063zM116.897 142.965a.654.654 0 0 1-.59 0l-4.522-2.609a.18.18 0 0 1 0-.34l4.523-2.609a.661.661 0 0 1 .59 0l4.524 2.608a.18.18 0 0 1-.003.341l-4.522 2.609zM123.452 146.746a.656.656 0 0 1-.589.002l-4.522-2.61a.18.18 0 0 1 0-.34l4.521-2.61a.658.658 0 0 1 .592 0l4.523 2.61a.18.18 0 0 1-.003.34l-4.522 2.608zM130.007 150.529a.656.656 0 0 1-.591-.001l-4.522-2.609a.18.18 0 0 1-.001-.341l4.522-2.61a.664.664 0 0 1 .593 0l4.522 2.61a.18.18 0 0 1 0 .342l-4.523 2.609zM136.562 154.31a.658.658 0 0 1-.59 0l-4.521-2.608a.18.18 0 0 1-.002-.342l4.522-2.609a.662.662 0 0 1 .593 0l4.522 2.61a.18.18 0 0 1-.002.34l-4.522 2.609zM143.117 158.092a.656.656 0 0 1-.59 0l-4.522-2.61a.18.18 0 0 1 0-.34l4.523-2.608a.658.658 0 0 1 .59-.001l4.523 2.609a.18.18 0 0 1-.002.34l-4.522 2.61zM149.672 161.873a.655.655 0 0 1-.59 0l-4.523-2.609a.18.18 0 0 1 0-.34l4.522-2.61a.658.658 0 0 1 .592 0l4.523 2.61a.18.18 0 0 1-.002.34l-4.522 2.61zM156.228 165.655a.66.66 0 0 1-.593-.001l-4.522-2.608a.18.18 0 0 1 .001-.34l4.523-2.61a.658.658 0 0 1 .59 0l4.521 2.608a.181.181 0 0 1 .002.343l-4.522 2.608zM162.782 169.436a.657.657 0 0 1-.592 0l-4.521-2.609a.181.181 0 0 1-.002-.341l4.523-2.609a.664.664 0 0 1 .593 0l4.521 2.609a.18.18 0 0 1 0 .342l-4.522 2.608zM169.336 173.218a.653.653 0 0 1-.59 0l-4.522-2.609a.18.18 0 0 1 0-.34l4.522-2.61a.657.657 0 0 1 .592 0l4.522 2.609a.18.18 0 0 1-.002.34l-4.522 2.61zM175.89 177a.658.658 0 0 1-.59 0l-4.521-2.61a.18.18 0 0 1-.001-.34l4.522-2.61a.66.66 0 0 1 .592 0l4.522 2.609a.18.18 0 0 1-.001.341L175.89 177zM190.45 185.399a.657.657 0 0 1-.59 0l-12.322-7.109a.18.18 0 0 1 0-.34l4.522-2.61a.658.658 0 0 1 .592 0l12.321 7.108a.18.18 0 0 1 0 .342l-4.523 2.609zM126.66 141.034a.645.645 0 0 1-.587.001l-4.525-2.61a.179.179 0 0 1 .001-.34l4.523-2.609a.655.655 0 0 1 .587 0l4.525 2.61a.179.179 0 0 1 0 .339l-4.524 2.61zM133.216 144.816a.652.652 0 0 1-.59 0l-4.523-2.61c-.161-.093-.162-.244.002-.338l4.523-2.61a.652.652 0 0 1 .586 0l4.523 2.61a.18.18 0 0 1 .002.339l-4.523 2.61zM139.77 148.597a.645.645 0 0 1-.589 0l-4.523-2.609a.18.18 0 0 1 0-.34l4.523-2.61a.654.654 0 0 1 .588.002l4.524 2.609a.179.179 0 0 1 0 .339l-4.524 2.61zM146.326 152.38a.652.652 0 0 1-.59 0l-4.524-2.61a.179.179 0 0 1 .002-.34l4.523-2.61a.654.654 0 0 1 .586 0l4.525 2.61a.18.18 0 0 1 0 .34l-4.522 2.61zM152.88 156.161a.653.653 0 0 1-.59 0l-4.521-2.61a.18.18 0 0 1-.002-.34l4.523-2.61a.663.663 0 0 1 .59.002l4.522 2.609a.18.18 0 0 1 .002.34l-4.523 2.61zM159.435 159.942a.65.65 0 0 1-.59 0l-4.521-2.608a.18.18 0 0 1-.001-.34l4.523-2.61a.655.655 0 0 1 .589 0l4.521 2.61a.18.18 0 0 1 .002.339l-4.523 2.61zM165.989 163.723a.647.647 0 0 1-.59 0l-4.522-2.609a.18.18 0 0 1 0-.34l4.524-2.609a.654.654 0 0 1 .588 0l4.522 2.61a.18.18 0 0 1 0 .339l-4.522 2.61zM172.544 167.505a.652.652 0 0 1-.589 0l-4.523-2.609a.18.18 0 0 1 0-.34l4.524-2.61a.655.655 0 0 1 .588.001l4.522 2.61a.18.18 0 0 1 .001.339l-4.523 2.61zM179.1 171.288a.652.652 0 0 1-.59 0l-4.524-2.61a.18.18 0 0 1 0-.34l4.524-2.61a.653.653 0 0 1 .587 0l4.525 2.61a.18.18 0 0 1 .001.34l-4.523 2.61zM185.653 175.068a.65.65 0 0 1-.589 0l-4.52-2.608c-.165-.095-.167-.247-.003-.341l4.523-2.61a.656.656 0 0 1 .59.002l4.521 2.609a.18.18 0 0 1 0 .338l-4.522 2.61zM192.208 178.85a.65.65 0 0 1-.589 0l-4.524-2.61c-.162-.093-.162-.244.002-.339l4.523-2.61a.652.652 0 0 1 .586 0l4.524 2.61a.18.18 0 0 1 0 .34l-4.522 2.609zM131.665 136.357a.656.656 0 0 1-.594.002l-4.522-2.61a.18.18 0 0 1 .002-.342l4.522-2.609a.658.658 0 0 1 .59.001l4.522 2.61a.18.18 0 0 1 .002.34l-4.522 2.608zM138.22 140.139a.656.656 0 0 1-.594.001l-4.523-2.61c-.162-.093-.161-.246.004-.34l4.522-2.61a.655.655 0 0 1 .588 0l4.523 2.61a.18.18 0 0 1 .002.34l-4.522 2.609zM144.774 143.92a.655.655 0 0 1-.593.001l-4.523-2.609c-.16-.092-.16-.245.005-.34l4.522-2.61a.654.654 0 0 1 .587 0l4.523 2.61a.18.18 0 0 1 .001.34l-4.522 2.608zM151.327 147.701a.656.656 0 0 1-.591.002l-4.522-2.609a.18.18 0 0 1 .002-.342l4.522-2.61a.656.656 0 0 1 .59.002l4.522 2.609a.18.18 0 0 1 0 .34l-4.523 2.608zM157.883 151.483a.655.655 0 0 1-.594.001l-4.522-2.609c-.161-.093-.16-.246.004-.34l4.523-2.61a.654.654 0 0 1 .587 0l4.522 2.609a.18.18 0 0 1 .003.34l-4.523 2.61zM164.437 155.264a.651.651 0 0 1-.592.002l-4.523-2.61a.18.18 0 0 1 .002-.341l4.523-2.61a.656.656 0 0 1 .59.002l4.522 2.609a.18.18 0 0 1 0 .339l-4.522 2.609zM170.992 159.046a.652.652 0 0 1-.592.002l-4.524-2.61c-.16-.093-.16-.246.004-.341l4.523-2.61a.655.655 0 0 1 .587 0l4.524 2.61a.18.18 0 0 1 0 .34l-4.522 2.609zM177.548 162.828a.656.656 0 0 1-.594 0l-4.523-2.608c-.162-.094-.161-.247.003-.342l4.523-2.609a.655.655 0 0 1 .588 0l4.522 2.61a.18.18 0 0 1 .003.34l-4.522 2.61zM184.1 166.609a.655.655 0 0 1-.59.002l-4.522-2.609c-.164-.094-.163-.247.002-.342l4.523-2.609a.653.653 0 0 1 .589 0l4.522 2.61a.18.18 0 0 1 0 .339l-4.523 2.609zM190.657 170.391a.656.656 0 0 1-.594 0l-4.522-2.608a.18.18 0 0 1 .003-.342l4.523-2.609a.658.658 0 0 1 .588 0l4.522 2.61a.18.18 0 0 1 .003.34l-4.523 2.61zM197.21 174.172a.655.655 0 0 1-.59.002l-4.524-2.61c-.163-.093-.162-.246.003-.341l4.522-2.61a.654.654 0 0 1 .59.001l4.522 2.61a.18.18 0 0 1 0 .339l-4.522 2.609zM118.473 128.747a.656.656 0 0 1-.594 0l-7.668-4.423a.18.18 0 0 1 .002-.342l4.523-2.61a.656.656 0 0 1 .59.002l7.667 4.424a.18.18 0 0 1 .002.34l-4.522 2.609zM210.237 174.125a.656.656 0 0 1-.591 0l-7.669-4.424a.18.18 0 0 1 .002-.341l4.52-2.608a.658.658 0 0 1 .591 0l7.669 4.423a.18.18 0 0 1 0 .341l-4.522 2.609zM113.43 133.401a.648.648 0 0 1-.59 0l-9.142-5.274c-.164-.095-.166-.246-.002-.341l4.523-2.61a.656.656 0 0 1 .59.002l9.141 5.274a.18.18 0 0 1 .002.34l-4.523 2.61zM103.748 135.38a.657.657 0 0 1-.59-.001l-6.096-3.517a.18.18 0 0 1 0-.34l4.521-2.61a.658.658 0 0 1 .593 0l6.095 3.517a.18.18 0 0 1 0 .341l-4.523 2.61zM128.352 126.884a.654.654 0 0 1-.593 0l-4.52-2.608a.18.18 0 0 1 .001-.341l4.521-2.608a.655.655 0 0 1 .592 0l4.52 2.607a.18.18 0 0 1 0 .342l-4.52 2.608zM134.907 130.666a.655.655 0 0 1-.591 0l-4.523-2.61a.18.18 0 0 1 .003-.34l4.52-2.607a.653.653 0 0 1 .59-.002l4.523 2.61a.18.18 0 0 1 0 .34l-4.522 2.609zM141.464 134.448a.662.662 0 0 1-.594 0l-4.523-2.61a.18.18 0 0 1 .002-.34l4.52-2.609a.654.654 0 0 1 .592 0l4.522 2.608a.181.181 0 0 1 .002.343l-4.52 2.608zM148.017 138.229a.657.657 0 0 1-.592 0l-4.523-2.61a.18.18 0 0 1 0-.34l4.521-2.609a.656.656 0 0 1 .592 0l4.523 2.609a.18.18 0 0 1 0 .342l-4.521 2.608zM154.57 142.009a.65.65 0 0 1-.59.001l-4.523-2.609a.18.18 0 0 1 .001-.34l4.521-2.609a.654.654 0 0 1 .59 0l4.523 2.608c.164.095.162.246-.002.34l-4.52 2.609zM161.126 145.792a.657.657 0 0 1-.592 0l-4.52-2.608a.18.18 0 0 1 0-.341l4.521-2.609a.654.654 0 0 1 .593 0l4.52 2.608a.18.18 0 0 1-.001.342l-4.52 2.608zM167.679 149.572a.65.65 0 0 1-.59.001l-4.521-2.608a.18.18 0 0 1 0-.342l4.52-2.608a.654.654 0 0 1 .593 0l4.521 2.609c.164.094.161.245-.002.34l-4.521 2.608zM174.235 153.354a.655.655 0 0 1-.593 0l-4.522-2.609a.18.18 0 0 1 .001-.34l4.521-2.609a.654.654 0 0 1 .591 0l4.522 2.608a.18.18 0 0 1 0 .342l-4.52 2.608zM180.788 157.135a.651.651 0 0 1-.589.002l-4.522-2.61a.18.18 0 0 1 0-.34l4.52-2.609a.654.654 0 0 1 .593 0l4.522 2.609c.162.094.16.245-.003.34l-4.521 2.608zM187.345 160.918a.656.656 0 0 1-.59 0l-4.525-2.61a.18.18 0 0 1 .003-.34l4.52-2.608a.653.653 0 0 1 .59-.001l4.525 2.61a.18.18 0 0 1-.002.34l-4.521 2.609zM193.9 164.7a.656.656 0 0 1-.592 0l-4.522-2.61a.18.18 0 0 1 0-.342l4.52-2.608a.656.656 0 0 1 .593 0l4.522 2.61a.18.18 0 0 1 0 .341L193.9 164.7zM200.453 168.48a.652.652 0 0 1-.59.002l-4.525-2.611c-.16-.093-.16-.246.003-.34l4.521-2.608a.652.652 0 0 1 .59-.002l4.525 2.61c.161.094.16.246-.004.34l-4.52 2.609zM173.806 181.837l-2.127 1.227a.208.208 0 0 0-.123.169.21.21 0 0 0 .122.171l4.523 2.61c.091.048.193.072.295.07a.592.592 0 0 0 .296-.07l2.127-1.227-5.113-2.95zM180.008 184.158l2.094-1.208a.204.204 0 0 0 .119-.17.208.208 0 0 0-.12-.17l-4.523-2.61a.618.618 0 0 0-.298-.07.602.602 0 0 0-.292.07l-2.093 1.208 5.113 2.95zM203.639 172.49a.649.649 0 0 0-.587 0l-4.522 2.61a.18.18 0 0 0-.005.34l1.18.681-5.93 3.421a.18.18 0 0 0 .001.34l3.047 1.759c.09.048.192.073.295.071a.59.59 0 0 0 .296-.07l10.75-6.202a.202.202 0 0 0 .12-.17.205.205 0 0 0-.122-.17l-4.523-2.61z"/>
        <path fill="#3DAFCC" fill-rule="nonzero" d="M81.382 136.856c.043-.04.089-.075.137-.107l40.321-23.402c.346-.2.772-.201 1.119-.002l100.02 57.703c.049.032.095.068.139.108a1.108 1.108 0 0 0-.14-1.823l-100.02-57.703c-.346-.2-.772-.2-1.118.002l-40.32 23.402a1.109 1.109 0 0 0-.138 1.822z"/>
        <path fill="#98DAEB" fill-rule="nonzero" d="M144.376 177.465l-33.518-19.337a.447.447 0 0 0-.447 0l-26.83 15.573a.446.446 0 0 0 .001.771L117.1 193.81c.139.08.31.08.448-.001l26.83-15.572a.446.446 0 0 0-.002-.772z"/>
        <path fill="#3DAFCC" fill-rule="nonzero" d="M83.582 174.472l.412.238 26.417-15.333a.447.447 0 0 1 .447 0l33.107 19.1.412-.24a.446.446 0 0 0 0-.772l-33.519-19.337a.447.447 0 0 0-.447 0l-26.83 15.573a.446.446 0 0 0 .001.771z"/>
        <path fill="url(#a)" fill-rule="nonzero" d="M122.157 9.272L0 61.342V169l45.842 26.447 8.48-11.88 4.08.628.366-5.265 14.875-.132-.363 6.267 4.848-3.664a5.666 5.666 0 0 1 2.711.469l2.394-1.09 24.1-12.176 20.111-8.845 1.201 3.86-17.514 11.458-16.19 10.598 19.62-6.737 27.057-10.093 1.046 2.375 1.904 1.429c-5.487 3.06-29.524 15.97-29.524 15.97l-22.677 11.687c.019.488.025.987.002 1.507l-13.01 4.559 16.215 5.62-.392.895a14.134 14.134 0 0 1 5.228 2.055 1.07 1.07 0 0 1-.511 1.978 8.874 8.874 0 0 1-5.75-.972 1.468 1.468 0 0 1-.233-.17l-.35.8-14.336-1.87 38.26 23.073 122.156-73.07V77.054L122.156 9.272z"/>
        <path fill="#FFF" fill-rule="nonzero" d="M122.157 96.93V20.276l117.49 67.78v76.656z"/>
        <path fill="#3DAFCC" fill-rule="nonzero" d="M122.157 20.276V9.272l117.49 67.782v11.003z"/>
        <path fill="#98DAEB" fill-rule="nonzero" d="M163.422 87.677l28.553 16.384v5.217l-28.553-16.384z"/>
        <path fill="#C8F1FA" fill-rule="nonzero" d="M163.422 97.112l28.553 16.384v5.217l-28.553-16.384zM163.422 106.546l28.553 16.385v5.217l-28.553-16.385z"/>
        <path stroke="#3DAFCC" stroke-width="2.04" d="M129.893 58.241s1.468-7.665 7.329-5.598c5.86 2.067 8.643 10.6 15.72 14.147 8.385 4.202 11.294-11.207 17.078-8.744 5.784 2.463 3.961 11.264 15.413 13.365 9.151 1.68 2.964 14.818 8.49 19.804 4.755 4.29 5.686-2.786 12.5.233"/>
        <path stroke="#CA75ED" stroke-width="2.04" d="M129.893 58.241c4.468-5.296 9.925 2.912 14.011-.756 3.768-3.382 3.697-8.093 9.916-4.58 6.621 3.74 6.055 14.802 11.712 16.254 10.104 2.592 6.674 11.101 11.037 14.076 7.06 4.815 15.343-12.151 30.567-5.415"/>
        <path fill="#3DAFCC" fill-rule="nonzero" d="M132.984 73.06l9.571 14.058V73.156c6.683 3.855 12.1 13.232 12.1 20.942 0 7.712-5.417 10.837-12.1 6.981-6.682-3.855-12.1-13.23-12.1-20.942 0-3.216.945-5.63 2.53-7.077z"/>
        <path fill="#F2C43F" fill-rule="nonzero" d="M138.02 69.462v-.002z"/>
        <path fill="#CA75ED" fill-rule="nonzero" d="M138.021 69.461v-.001a8.354 8.354 0 0 1 2.27.928v9.139l-6.265-9.202a4.27 4.27 0 0 1 3.995-.864z"/>
        <path fill="#FFF" fill-rule="nonzero" d="M60.44 200.23a5.927 5.927 0 0 1-.303.03 4.518 4.518 0 0 0-1.003.128 4.138 4.138 0 0 0-1.275.816 2.863 2.863 0 0 1-2.63.77 2.2 2.2 0 0 1-1.261-2.04 4.694 4.694 0 0 1 .388-1.916c.228-.53.306-.489.857-.535.963-.021 1.924-.09 2.88-.207.932-.178 1.239-.699 2.246-.78 1.436-.118 2.404.182 2.517 1.12a2.602 2.602 0 0 1-.854 2.071 3.428 3.428 0 0 1-1.561.544zM69.752 207.336a2.357 2.357 0 0 0 2.362 3.726 10.53 10.53 0 0 0 1.597-.614 9.971 9.971 0 0 1 3.472-.366 7.729 7.729 0 0 0 3.752-.71c.93-.514 2.356-1.103 2.399-2.461a1.06 1.06 0 0 0-.966-1.062c-2.51-.252-5.384-.373-7.794-.747a4.879 4.879 0 0 0-2.956.743c-.353.171-1.144.822-1.534.822-.108.228-.223.45-.332.669z"/>
        <path fill="#1B788F" fill-rule="nonzero" d="M54.183 137.636l.15 6.607-.502 28.346.135 25.58c1.26 1.368 5.503.547 5.745-.475l2.5-23.88 2.11-20.744 2.989 21.433 1.934 32.455c.333 1.386 2.177 1.126 3.745 1.126 2.054 0 2.477-.731 2.96-1.456.484-.724.745-36.095.745-36.095l.353-31.408a19.47 19.47 0 0 0-12.584-6.949c-3.127-.318-6.65 6.797-10.28 5.46z"/>
        <path fill="#FFC296" fill-rule="nonzero" d="M75.511 78.184l.135 1.518c.014.157.007.316-.022.47l-.19 1.05c-.066.366-.015.743.146 1.079l.3.624c.166.345.215.734.14 1.108l-.672 3.392-.402 2.027a1.768 1.768 0 0 1-1.735 1.424c-.769 0-1.45.496-1.684 1.228l-.742 2.312a1.764 1.764 0 0 1-2.219 1.146c-2.102-.67-5.413-1.762-5.275-1.945.176-.236.664-4.359.778-5.34.017-.141.05-.28.102-.413l3.45-9.134c.21-.555.684-.968 1.263-1.1l4.474-1.013a1.77 1.77 0 0 1 2.153 1.567z"/>
        <path fill="#3DAFCC" fill-rule="nonzero" d="M54.75 114.332l-13.357 7.636 7.72 14.117 12.038-7.279z"/>
        <path fill="#FFC296" fill-rule="nonzero" d="M91.291 138.374c.42-.236.942-.196 1.322.1a9.31 9.31 0 0 1 3.55 4.99 1.12 1.12 0 0 1-.679 1.506 1.116 1.116 0 0 1-.96-.117c-1.066-.684-3.689-2.51-4.596-4.455a1.132 1.132 0 0 1 .427-1.445l.936-.58z"/>
        <path fill="#1F282D" fill-rule="nonzero" d="M62.44 92.34l-.884 1.838c-1.942 1.468-6.031 1.865-7.646 2.914-1.615 1.049-10.16 18.553-10.16 18.553l2.46 3.57 7.896-4.515a73.209 73.209 0 0 1 1.281 10.417c.075 4.332-2.8 14.017-2.8 14.017 1.632 4.124 6.787 4.286 6.787 4.286l1.512-6.14s1.134 6.97 1.623 7.07c4.787.996 9.917 2.136 15.91-1.092l-1.634-14.382s12.106 12.747 12.735 12.756c1.942.025 3.213-1.358 3.422-3.996.095-1.207-10.268-14.74-12.446-18.976-2.177-4.235-1.052-16.076-1.593-17.163-.541-1.087-5.877-3.542-6.823-4.782l.11-1.985-9.75-2.39z"/>
        <path fill="#B5921B" fill-rule="nonzero" d="M73.453 71.118l-9.508 2.312a3.374 3.374 0 0 0-2.538 2.762 9.778 9.778 0 0 0 .065 6.337c.655 2.51 1.879 2.826 2.09 4.45.21 1.624.886 2.657 2.037 2.82l2.646-.21a2.252 2.252 0 0 0 1.95-1.508l.458-1.322c.16-.45.169-.942.024-1.398-.325-1-.729-2.927.575-3.844 1.806-1.27 1.97 2.8 1.97 2.8a2.691 2.691 0 0 0 1.259-1.977l.151-3.29c.017-.411.149-.81.38-1.15a4.687 4.687 0 0 0 1.353-2.239c.217-1.188-.365-2.851-1.568-2.968a1.159 1.159 0 0 0-1.344-1.575z"/>
        <path fill="#3DAFCC" fill-rule="nonzero" d="M207.126 121.537a2.634 2.634 0 0 0 3.423-.326l1.099-1.145c.294 7.009-1.39 7.592-2.113 12.796-.667 4.791-.092 8.812.492 15.004l13.607 7.739c.031-.165.044-.333.037-.501-.296-8.448 2.447-12.46 2.114-19.357a18.126 18.126 0 0 0-.427-3.172c.086.067.18.124.28.169.499.206 1.072.108 1.474-.252l6.386-5.713a4.416 4.416 0 0 0 .995-5.289l-5.854-11.546a8.871 8.871 0 0 0-3.445-3.653l-1.745-1.017-7.124-1.668-1.567.526a4.32 4.32 0 0 0-2.824 3.123c-.761 3.255-1.954 6.584-1.954 6.584l-1.89 4.117-5.33-2.714a.918.918 0 0 0-1.204.336 2.036 2.036 0 0 0-.342 1.597c.2.608 5.912 4.362 5.912 4.362zm18.66-6.697l4.816 7.82a1.35 1.35 0 0 1-.142 1.606l-5.33 5.982c-.135.159-.232.346-.284.548-1.128-3.209-2.844-4.94-2.844-7.61 0-3.781 3.784-8.346 3.784-8.346z"/>
        <path fill="#FB9" fill-rule="nonzero" d="M201.893 115.247a10.271 10.271 0 0 0-4.526-1.922c-.167.048-.165.307-.114.476.333.314.7.588 1.096.816.333.39-.156.772-.817.742-.662-.031-2.747-.342-2.747-.342a.404.404 0 0 0-.375.625 4.315 4.315 0 0 0 2.806 1.978 6.303 6.303 0 0 0 3.748-.445l1.391.056-.462-1.984z"/>
        <path fill="#238BA6" fill-rule="nonzero" d="M215.738 103.38l-2.487 7.936 1.265-.508 1.697-.38 2.035 1.742.606-2.819-2.301-1.52-.228-4.225zM223.449 105.274l1.745 1.017a8.871 8.871 0 0 1 3.445 3.653l5.854 11.546a4.416 4.416 0 0 1-.995 5.29l-6.386 5.712c-.402.36-.975.458-1.475.252a1.384 1.384 0 0 1-.279-.169c.034.15.065.307.096.463l-.43-.255 7.96-7.896.594-1.26h-1.41l.965-.742-5.896-11.43a13.875 13.875 0 0 0-4.482-5.082l-.902-.619v-.854l1.596.374z"/>
        <path fill="#B5921B" fill-rule="nonzero" d="M219.033 106.868l1.827-.644c4.37-1.729 5.818-4.941 5.483-10.404-.174-2.832-.66-5.434-1.888-7.13a5.988 5.988 0 0 0-3.873-2.297c-1.043-.252-1.809-1.07-5.013.364-3.358 1.503-4.302 5.478-3.81 8.43.493 2.95.56 4.32.187 6.009a24.963 24.963 0 0 1-1.52 4.294c2.596.517 5.899-1.884 5.899-1.884l2.708 3.262z"/>
        <path fill="#FB9" fill-rule="nonzero" d="M218.83 90.648c.574 2.28 2.17 2.428 1.843 8.314l-.11 1.776a17.142 17.142 0 0 1-1.277 5.521l-.253.61-1.818.963-.835-4.838a1.737 1.737 0 0 1-.764 0c-.598-.124-.792-.667-1.196-1.383a10.709 10.709 0 0 1-1.104-2.984 8.286 8.286 0 0 1-.158-3.346 3.8 3.8 0 0 0-.284-1.613c4.718-.574 5.955-3.02 5.955-3.02z"/>
        <path fill="#FFF" fill-rule="nonzero" d="M222.89 105.143a6.35 6.35 0 0 1-.22 1.429c-.112 0-4.422 5.598-4.422 5.598l-1.339-3.976-2.393 2.614 1.252-6.424.612-1.39.835 4.838 1.818-.964 3.856-1.725z"/>
        <path fill="#DB906B" fill-rule="nonzero" d="M220.59 100.299a15.912 15.912 0 0 1-.18 1.845c-.047.204-3.599 3.346-3.599 3.346l-.43-2.496a9.052 9.052 0 0 0 4.21-2.695z"/>
        <path fill="#238BA6" fill-rule="nonzero" d="M201.874 116.828l5.473 3.133a.98.98 0 0 0 1.23-.212l.95-1.107a.978.978 0 0 0 .22-.814l-.456-2.489.636-1.385c.103-.237.426-1.543.426-1.543a9.188 9.188 0 0 0-.175 1.753c.06.831.44 1.606 1.06 2.162.65.741.362 2.086.41 3.74l-1.1 1.145a2.634 2.634 0 0 1-3.422.326s-5.713-3.754-5.912-4.362a1.259 1.259 0 0 1-.056-.446.962.962 0 0 1 .716.1zM221.037 117.717c1.572-1.29 1.206-3.211 3.08-5.547l1.67 2.67s-3.785 4.565-3.785 8.346c.222 1.584.72 3.116 1.469 4.528a5.256 5.256 0 0 1-4.024 1.918c-.682-3.17-.653-6.45.085-9.607a4.517 4.517 0 0 1-3.319-2.308s3.043 1.46 4.824 0z"/>
        <path fill="#1F282D" fill-rule="nonzero" d="M223.634 155.604c.03-.165.043-.332.037-.5-.296-8.448 2.447-12.46 2.114-19.357a12.943 12.943 0 0 0-.384-3.076c-.08-.321-.46-.38-.673-.949a1.333 1.333 0 0 1 .115-1.03 22.815 22.815 0 0 0-1.372-2.978s-5.24 5.645-12.667 0a28.822 28.822 0 0 0-1.27 5.148c-.666 4.791-.091 8.812.493 15.004l13.607 7.738z"/>
        <path fill="#FB9" fill-rule="nonzero" d="M219.182 129.206c.152-.27.677-.309 1.402-.303.788.007.92-.203 1.553.266l1.117 1.103c.38.498 1.064.648 1.619.356-.069.14-.114.29-.134.443l-.008.07a1.414 1.414 0 0 0 .733 1.407s-.061-.085-.44.235c-.482.41-1.492 1.195-2.424.18a14.334 14.334 0 0 0-2.76-2.51c-.621-.384-.9-.82-.658-1.247z"/>
    </g>
</svg>
