<svg xmlns="http://www.w3.org/2000/svg" width="32" height="32" viewBox="0 0 32 32">
    <g fill="#3CB0CB" fill-rule="evenodd">
        <rect width="2" height="5" x="24" rx="1"/>
        <path d="M7 0c.552 0 1 .546 1 1.219V3.78C8 4.454 7.552 5 7 5s-1-.546-1-1.219V1.22C6 .546 6.448 0 7 0z"/>
        <path fill-rule="nonzero" d="M30.093 3h-2.2v1.216a2.53 2.53 0 0 1-.888 1.917 2.638 2.638 0 0 1-2.056.609c-1.313-.199-2.277-1.316-2.257-2.62V3H9.305v1.216a2.53 2.53 0 0 1-.888 1.916 2.638 2.638 0 0 1-2.054.61C5.051 6.545 4.087 5.43 4.107 4.127V3h-2.2c-.506 0-.991.197-1.349.547A1.85 1.85 0 0 0 0 4.87V30.13c0 .496.2.971.558 1.322.358.35.843.547 1.349.547h28.186c.506 0 .991-.197 1.349-.547A1.85 1.85 0 0 0 32 30.13V4.87c0-.496-.2-.971-.558-1.322A1.926 1.926 0 0 0 30.093 3zm-.582 26.11c0 .248-.206.45-.46.45H2.949a.456.456 0 0 1-.46-.45V11.54c0-.249.206-.45.46-.45h26.102c.254 0 .46.201.46.45v17.57z"/>
        <rect width="4" height="4" x="6" y="15" rx="2"/>
        <rect width="4" height="4" x="14" y="15" rx="2"/>
        <rect width="4" height="4" x="22" y="15" rx="2"/>
        <rect width="4" height="4" x="6" y="22" rx="2"/>
        <rect width="4" height="4" x="14" y="22" rx="2"/>
        <rect width="4" height="4" x="22" y="22" rx="2"/>
    </g>
</svg>
