<svg xmlns="http://www.w3.org/2000/svg" width="48" height="48" viewBox="0 0 48 48">
    <path fill="#1EB0CD" fill-rule="evenodd" d="M24.003 0C37.253 0 48 10.747 48 24.003 48 37.253 37.253 48 24.003 48 10.747 48 0 37.253 0 24.003 0 10.747 10.747 0 24.003 0zm11.231 19.982a11.262 11.262 0 0 0 2.764-2.873c-.993.441-2.06.74-3.181.874a5.565 5.565 0 0 0 2.435-3.071 11.072 11.072 0 0 1-3.517 1.347 5.526 5.526 0 0 0-4.044-1.753 5.545 5.545 0 0 0-5.539 5.551c0 .435.05.859.144 1.265a15.715 15.715 0 0 1-11.417-5.8 5.534 5.534 0 0 0-.75 2.79c0 1.927.977 3.626 2.464 4.621a5.508 5.508 0 0 1-2.509-.694v.07c0 2.69 1.909 4.933 4.443 5.443a5.546 5.546 0 0 1-2.502.095 5.546 5.546 0 0 0 5.175 3.855 11.097 11.097 0 0 1-6.88 2.377c-.447 0-.888-.027-1.321-.078a15.65 15.65 0 0 0 8.491 2.494c10.189 0 15.76-8.459 15.76-15.795 0-.24-.005-.48-.016-.718z"/>
</svg>
