<svg xmlns="http://www.w3.org/2000/svg" width="48" height="48" viewBox="0 0 48 48">
    <path fill="#8F9496" fill-rule="evenodd" d="M24.003 0C10.747 0 0 10.747 0 24.003 0 37.253 10.747 48 24.003 48 37.253 48 48 37.253 48 24.003 48 10.747 37.253 0 24.003 0zM35.68 34.15c0 .707-.348 1.46-1.05 1.46h-5.904v-8.85h3.003l.455-3.793h-3.458v-2.264c0-1.011.272-1.529 1.726-1.529h2.067v-3.307c-.632-.044-1.612-.139-2.895-.139-2.668 0-4.69 1.631-4.69 4.628v2.611h-3.161v3.793h3.16v8.85H13.983c-.708 0-1.062-.753-1.062-1.46V13.502c0-.708.354-1.283 1.062-1.283H34.63c.701 0 1.05.575 1.05 1.283v20.646z"/>
</svg>
