<svg width="52" height="31" viewBox="0 0 52 31" fill="none" xmlns="http://www.w3.org/2000/svg">
<path opacity="0.5" fill-rule="evenodd" clip-rule="evenodd" d="M50.8068 2.09912C51.1682 0.889117 50.8068 0 49.0864 0H43.3976C41.9511 0 41.2843 0.768067 40.9226 1.61502C40.9226 1.61502 38.0296 8.69343 33.9314 13.2913C32.6055 14.6223 32.0027 15.0458 31.2795 15.0458C30.9179 15.0458 30.3755 14.6223 30.3755 13.4124V2.09912C30.3755 0.647118 29.9747 0 28.7692 0H19.8296C18.9257 0 18.3821 0.673906 18.3821 1.31259C18.3821 2.68906 20.4311 3.00649 20.6423 6.87849V15.2879C20.6423 17.1316 20.3106 17.4659 19.5874 17.4659C17.6588 17.4659 12.9677 10.3558 10.1854 2.22007C9.64009 0.638759 9.0932 0 7.63929 0H1.95047C0.325095 0 0 0.768067 0 1.61502C0 3.12754 1.92864 10.6294 8.98005 20.5512C13.681 27.327 20.3042 31 26.3311 31C29.9472 31 30.3946 30.1842 30.3946 28.779V23.6579C30.3946 22.0263 30.7371 21.7007 31.8822 21.7007C32.726 21.7007 34.1725 22.1242 37.5476 25.3911C41.4048 29.263 42.0407 31 44.2103 31H49.8991C51.5245 31 52.3372 30.1842 51.8683 28.5743C51.3553 26.9698 49.5137 24.6418 47.0701 21.8822C45.7441 20.3092 43.7553 18.6153 43.1525 17.7682C42.3088 16.6793 42.5499 16.1952 43.1525 15.2273C43.1525 15.2273 50.0835 5.42649 50.8068 2.09912Z" fill="white"/>
</svg>
