<svg width="140" height="37" viewBox="0 0 140 37" fill="none" xmlns="http://www.w3.org/2000/svg">
<path d="M87.1996 25.0174C88.4011 24.6675 89.1055 23.6353 89.1055 22.2248C89.1055 21.3595 88.8698 20.6798 88.3943 20.1711C87.0083 18.6894 84.6511 19.33 84.0639 21.3487C83.8228 22.1764 83.8241 22.2396 84.0746 23.1427C84.2996 23.9502 85.0108 24.7873 85.5752 24.9098C85.7422 24.9461 85.9887 25.0228 86.1234 25.0807C86.4614 25.2247 86.4938 25.2233 87.1996 25.0174ZM85.0202 31.5447C83.7581 31.1328 82.6172 30.1612 82.0192 28.9903C81.8481 28.6538 81.9343 28.5852 83.0644 28.1505C83.8605 27.845 84.1151 27.8113 84.1151 28.0105C84.1151 28.2999 84.872 29.0778 85.392 29.3227C86.4305 29.8099 87.7963 29.5179 88.4442 28.6686C88.7432 28.277 89.0099 27.2353 88.9614 26.6472L88.9358 26.335L88.4428 26.6782C87.7424 27.1654 86.584 27.3807 85.6371 27.1977C84.5043 26.9796 83.7878 26.6015 83.0281 25.8263C82.2266 25.0067 81.8805 24.3432 81.6286 23.1386C81.1248 20.7242 82.659 18.1416 85.0512 17.3731C86.2661 16.9828 87.9714 17.2345 88.6906 17.9088L88.9668 18.1685L89.0058 17.8213L89.0449 17.4741H90.1413H91.2364L91.2728 22.3392C91.3105 27.4507 91.2552 28.1505 90.7232 29.2379C90.1979 30.3146 89.1782 31.1624 87.9269 31.5635C87.1349 31.8206 85.8338 31.8098 85.0202 31.5447Z" fill="#7F7F7F"/>
<path d="M66.3717 24.6303C67.3146 23.9776 67.7739 22.5591 67.4412 21.3317C67.1637 20.3075 65.9851 19.3614 64.9884 19.3614C63.3788 19.3614 62.2083 20.5484 62.2015 22.1863C62.1961 23.4918 63.0057 24.6963 64.0724 24.9708C64.7634 25.1485 65.8558 24.987 66.3717 24.6303ZM63.9297 27.1941C62.0022 26.8509 60.6027 25.5926 59.944 23.6115C59.6396 22.6964 59.7407 21.1097 60.1609 20.212C61.0661 18.278 62.7875 17.1691 64.8698 17.1758C68.8393 17.1893 71.187 21.216 69.3215 24.812C68.7881 25.8402 67.2661 26.9371 66.0646 27.1578C64.9897 27.3543 64.8469 27.357 63.9297 27.1941Z" fill="#7F7F7F"/>
<path d="M98.3564 21.7553C98.8063 21.5547 98.6406 21.6099 98.7188 21.6072C98.7982 21.6059 99.3047 21.3879 99.7384 21.186C100.172 20.9855 100.615 20.8213 100.72 20.8213C100.827 20.8213 100.2 21.0904 100.2 21.0379C100.2 20.9855 101.215 20.5265 101.584 20.4014C102.236 20.1806 102.248 20.1672 102.04 19.9384C101.427 19.2615 100.187 19.1269 99.3626 19.6464C98.6932 20.0676 98.1598 20.7849 98.0574 21.4C97.9658 21.9504 97.9214 21.9477 98.3564 21.7553ZM99.636 27.191C97.7112 26.7402 96.4492 25.5249 95.8107 23.5089C95.6369 22.9625 95.6437 21.3757 95.8201 20.8293C96.5663 18.5266 98.2635 17.1714 100.4 17.1714C101.62 17.1714 102.628 17.5859 103.503 18.4459C104.129 19.0609 104.932 20.4067 104.932 20.8388C104.932 21.1187 104.787 21.2021 103.289 21.7903C102.085 22.2626 101.503 22.5009 100.549 22.9113C100.382 22.984 100.136 23.0876 100.001 23.1415C99.8677 23.1953 99.5108 23.346 99.2091 23.4739C98.9073 23.6031 98.5841 23.7323 98.4911 23.7605C98.1988 23.8507 99.205 24.7901 99.7573 24.9422C100.842 25.2423 101.797 25.035 102.554 24.3392C102.839 24.0768 103.127 23.8615 103.196 23.8615C103.402 23.8615 104.927 24.8857 104.93 25.0256C104.934 25.284 103.865 26.2597 103.158 26.642C102.51 26.9932 101.025 27.4104 100.549 27.3754C100.45 27.3687 100.039 27.2866 99.636 27.191Z" fill="#7F7F7F"/>
<path d="M50.4513 27.1417C48.9656 26.9048 47.5311 26.1189 46.2771 24.8538C45.3962 23.9669 44.817 23.0288 44.3321 21.7046C44.0236 20.8621 44.0303 18.0856 44.3428 17.2324C45.3315 14.5394 47.2253 12.7306 49.9031 11.9245C50.7543 11.6674 53.459 11.7037 54.2254 11.9823C55.3865 12.4036 56.8075 13.2245 57.2049 13.7023C57.3503 13.8772 57.2763 13.997 56.5934 14.6861C56.165 15.1167 55.7865 15.4707 55.7515 15.4707C55.7165 15.4707 55.5279 15.3334 55.3326 15.1665C54.3237 14.2998 52.3841 13.8409 50.9146 14.1222C49.2417 14.4425 47.853 15.5003 47.0745 17.052C46.6838 17.8286 46.4306 17.873 46.4306 19.4853C46.4306 21.0168 46.6987 21.1756 47.0058 21.8311C47.1876 22.2173 47.6483 22.862 48.0294 23.2617C49.4222 24.7205 51.4574 25.2952 53.4051 24.7771C54.4975 24.4877 54.9649 24.2374 55.6478 23.5806C56.2445 23.0073 56.6324 22.2954 56.7712 21.5256L56.852 21.072L54.3817 21.037L51.9114 21.0047V19.8689V18.733L55.4417 18.7437C57.384 18.7491 59.0057 18.7545 59.0475 18.7545C59.0893 18.7545 59.1809 19.0479 59.2536 19.4072C59.5243 20.7571 59.0273 22.8001 58.0723 24.2589C57.2857 25.4608 56.4438 26.1094 54.6524 26.8941C53.9075 27.2171 51.7349 27.3463 50.4513 27.1417Z" fill="#7F7F7F"/>
<path d="M76.6018 24.9381C77.1689 24.7967 77.9286 24.0835 78.2074 23.4334C78.3192 23.1723 78.4983 22.6703 78.4727 22.1697C78.435 21.4537 78.2828 20.9437 78.1319 20.762C77.4975 19.9948 77.1648 19.7136 76.7001 19.5494C75.6576 19.182 74.6878 19.3825 73.9039 20.1281C72.371 21.587 72.9583 24.2934 74.9558 24.969C75.5283 25.1628 75.7209 25.1588 76.6018 24.9381ZM74.5019 27.1439C73.2088 26.8707 71.8592 25.8438 71.2463 24.6675C70.2253 22.7067 70.4853 20.4322 71.909 18.8576C73.9402 16.6114 77.5204 16.6128 79.5893 18.8603C81.37 20.7943 81.1855 24.3042 79.2149 25.9891C78.2761 26.7926 77.3615 27.1546 76.1304 27.2098C75.5323 27.2354 74.7996 27.2071 74.5019 27.1439Z" fill="#7F7F7F"/>
<path d="M92.5147 19.6047V12.1758L93.7014 12.2108L94.888 12.2458V19.6061V26.965L93.7014 27L92.5147 27.035V19.6047Z" fill="#7F7F7F"/>
<path d="M118.394 20.8576C118.351 20.7432 117.845 19.361 117.273 17.7864C116.7 16.2104 116.189 14.8767 116.137 14.8215C116.055 14.7341 115.08 17.2602 115.001 17.7675C114.983 17.8752 114.935 18.0192 114.892 18.0878C114.777 18.2709 113.819 20.836 113.819 20.9598C113.819 21.0177 114.866 21.0648 116.146 21.0648C118.286 21.0648 118.466 21.0473 118.394 20.8576ZM109.56 26.7213C109.56 26.6554 110.06 25.2867 110.669 23.6811C111.278 22.0755 112.01 20.1322 112.296 19.3623C113.07 17.2777 114.289 14.0517 114.622 13.1985C114.784 12.7853 114.916 12.3883 114.916 12.3169C114.916 12.2322 115.323 12.1851 116.059 12.1851C117.036 12.1851 117.215 12.216 117.285 12.3977C117.607 13.2267 121.714 24.1091 121.979 24.8358C122.162 25.3378 122.401 25.9609 122.51 26.2193C122.619 26.4777 122.708 26.7105 122.708 26.7361C122.708 26.7617 122.219 26.7819 121.621 26.7819H120.534L120.271 26.082C120.127 25.6971 119.816 24.8223 119.579 24.136L119.148 22.8884H116.129H113.111L112.917 23.4065C112.811 23.6905 112.49 24.5707 112.204 25.3634L111.686 26.8034L110.623 26.8236C109.981 26.8344 109.559 26.794 109.56 26.7213ZM135.834 27.0107C134.672 26.8693 133.699 26.1857 133.137 25.1171C132.922 24.7053 132.961 24.6339 133.514 24.4119C133.799 24.2975 134.067 24.1481 134.11 24.0781C134.157 24.0014 134.278 24.0606 134.414 24.2288C135.446 25.4926 135.678 25.6218 136.792 25.541C137.466 25.4926 137.578 25.4441 137.888 25.074C138.557 24.2733 138.078 23.7618 136.196 23.2679C134.086 22.7148 133.24 22.0055 133.24 20.7862C133.24 19.789 133.609 19.2143 134.558 18.7325C135.298 18.357 135.443 18.3274 136.52 18.3274C137.554 18.3274 137.753 18.3651 138.322 18.6639C138.991 19.0151 139.84 20.0016 139.727 20.295C139.693 20.3825 139.622 20.4255 139.568 20.3932C139.514 20.3596 139.205 20.4457 138.883 20.5843C138.49 20.7526 138.281 20.7903 138.252 20.7001C138.183 20.4955 137.729 20.0945 137.329 19.8845C136.852 19.6342 135.775 19.7257 135.334 20.0527C135.128 20.2062 134.991 20.435 134.968 20.6664C134.914 21.2061 135.323 21.4632 136.84 21.8427C138.72 22.3137 139.169 22.5775 139.63 23.4859C139.956 24.1279 139.844 25.2826 139.399 25.8654C138.672 26.8222 137.465 27.2085 135.834 27.0107ZM128.884 25.148C129.173 24.9556 129.51 24.572 129.712 24.1992C129.995 23.6784 130.053 23.4281 130.05 22.7148C130.047 21.6381 129.8 21.0217 129.13 20.4242C128.102 19.5077 126.874 19.5104 125.885 20.4323C125.277 20.9989 125.01 21.6247 124.999 22.5075C124.983 23.883 125.518 24.8654 126.541 25.3472C127.223 25.6662 128.228 25.5814 128.884 25.148ZM126.61 26.9999C125.391 26.8128 124.32 25.9327 123.698 24.6057C123.422 24.0175 123.377 23.7605 123.377 22.7673C123.377 21.2438 123.721 20.2775 124.553 19.466C125.45 18.5898 126.095 18.3261 127.335 18.3301C128.474 18.3328 129.162 18.5898 129.766 19.2372L130.073 19.5669L130.012 17.1606L129.952 14.7556L130.79 14.7166C131.273 14.6937 131.646 14.7287 131.673 14.8C131.699 14.8673 131.706 17.5966 131.688 20.8656L131.656 26.8101H130.864L130.072 26.8088L130.115 26.2853L130.158 25.7617L129.695 26.1682C128.834 26.9245 127.848 27.191 126.61 26.9999Z" fill="#7F7F7F"/>
<path d="M3.40948 36.094C0.163136 34.2231 -0.959431 30.0407 0.914758 26.7995L14.3919 3.49787C16.266 0.257232 20.4564 -0.863935 23.7027 1.00753C26.949 2.87843 28.0722 7.06137 26.1974 10.302L12.7203 33.6036C10.8461 36.8443 6.65639 37.9649 3.40948 36.094Z" fill="#E9E9E9"/>
<path d="M37.2519 35.9926C34.0056 37.8635 29.8153 36.743 27.9411 33.5023L14.464 10.2007C12.5898 6.96005 13.7124 2.7771 16.9587 0.906205C20.2056 -0.964691 24.3953 0.155903 26.2695 3.39654L39.7466 26.6982C41.6208 29.9394 40.4983 34.1217 37.2519 35.9926Z" fill="#B9B9B9"/>
<path d="M6.91057 36.9995C10.7272 36.9995 13.8211 33.911 13.8211 30.1011C13.8211 26.2912 10.7272 23.2026 6.91057 23.2026C3.09397 23.2026 0 26.2912 0 30.1011C0 33.911 3.09397 36.9995 6.91057 36.9995Z" fill="#C9C9C9"/>
</svg>
