<svg width="143" height="32" viewBox="0 0 143 32" fill="none" xmlns="http://www.w3.org/2000/svg">
<g opacity="0.5">
<path d="M71.2478 10.0527C72.9692 10.0274 74.6321 10.677 75.8806 11.8624L78.2965 9.52791C77.3742 8.597 76.2761 7.85849 75.0661 7.35523C73.8561 6.85197 72.5583 6.59397 71.2478 6.59621C64.3076 6.59621 61.0411 11.6996 61.0682 16.7215C61.0954 21.7434 64.1176 26.6296 71.2478 26.6296C72.5919 26.6634 73.9292 26.4288 75.1815 25.9394C76.4338 25.4499 77.5759 24.7156 78.5409 23.7793L76.0706 21.2638C74.7664 22.5039 73.0383 23.1996 71.2387 23.2092C66.4973 23.2092 64.6514 19.8884 64.6243 16.7034C64.5971 13.5183 66.6059 10.0527 71.2478 10.0527Z" fill="white"/>
<path d="M103.153 13.3378C103.153 10.0171 100.764 7.00391 96.2397 7.00391C93.1903 7.00391 90.15 7.00391 87.1007 7.00391V26.1776H90.7201V19.7532H94.2038L99.8048 26.1776H104.058V25.9333L98.2394 19.3732C101.913 18.6403 103.153 15.971 103.153 13.3378ZM90.7291 16.4958V10.3518H96.2397C96.6632 10.3107 97.0907 10.36 97.4937 10.4965C97.8968 10.6329 98.2662 10.8535 98.5776 11.1435C98.889 11.4335 99.1352 11.7864 99.3 12.1787C99.4648 12.571 99.5443 12.9939 99.5333 13.4193C99.5471 13.8458 99.4695 14.2704 99.3058 14.6645C99.1422 15.0586 98.8961 15.4132 98.5843 15.7045C98.2724 15.9959 97.9019 16.2172 97.4975 16.3536C97.0931 16.4901 96.6643 16.5385 96.2397 16.4958H90.7291Z" fill="white"/>
<path d="M9.59139 12.5318C9.60822 12.5212 9.62208 12.5065 9.63169 12.4891C9.6413 12.4717 9.64633 12.4521 9.64633 12.4322C9.64633 12.4124 9.6413 12.3928 9.63169 12.3754C9.62208 12.358 9.60822 12.3433 9.59139 12.3327C9.41318 12.22 9.22547 12.1232 9.03039 12.0432C8.45251 11.8235 7.83888 11.7131 7.22069 11.7174C6.44182 11.712 5.67173 11.8821 4.96762 12.2151C4.41139 12.441 3.92009 12.8017 3.53796 13.2647V11.8803H0V26.2402H3.61939V17.5808C3.5839 17.248 3.61873 16.9115 3.72163 16.593C3.82453 16.2745 3.9932 15.9812 4.21672 15.7321C4.44023 15.483 4.7136 15.2837 5.0191 15.147C5.3246 15.0103 5.65541 14.9393 5.9901 14.9387C6.57154 14.9258 7.1344 15.1438 7.55549 15.5449C7.57172 15.5576 7.59078 15.566 7.61103 15.5697C7.63127 15.5733 7.6521 15.5719 7.67169 15.5657C7.69129 15.5594 7.70908 15.5485 7.72352 15.5339C7.73795 15.5192 7.7486 15.5013 7.75455 15.4816C8.08466 14.3484 8.72013 13.3279 9.59139 12.5318Z" fill="white"/>
<path d="M35.4792 11.763C34.0549 11.7409 32.6348 11.9238 31.2626 12.3059C31.2326 12.3144 31.2072 12.3343 31.1919 12.3615C31.1767 12.3886 31.1728 12.4207 31.1811 12.4507C31.4817 13.5136 31.9891 14.5068 32.6741 15.3734C32.7046 15.412 32.7482 15.438 32.7967 15.4463C32.8451 15.4547 32.8949 15.4448 32.9365 15.4186C33.7511 14.9239 34.7011 14.699 35.6511 14.7762C37.5784 14.7762 38.3656 15.4367 38.3656 17.0292V17.7441H35.0086C31.9864 17.7441 30.1134 19.3366 30.1134 21.9245C30.1134 24.7295 31.9231 26.3763 34.9543 26.3763C35.6482 26.3972 36.3396 26.2836 36.9903 26.0415C37.5571 25.8111 38.0644 25.4554 38.4742 25.001V26.2406H41.9669V16.7849C41.9669 13.4279 40.0667 11.763 35.4792 11.763ZM38.3928 20.9744C38.3928 22.7841 37.6508 23.4808 35.8049 23.4808C34.2938 23.4808 33.5518 22.9288 33.5518 21.834C33.5518 20.7391 34.2938 20.2143 35.5606 20.2143H38.3928V20.9744Z" fill="white"/>
<path d="M28.738 23.3182C28.7296 23.2816 28.7089 23.2489 28.6792 23.2258C28.6495 23.2027 28.6127 23.1906 28.5751 23.1916H28.0503C27.2269 23.1916 26.8107 22.7482 26.8107 21.8976V15.0208H30.3848C30.4057 15.0198 30.426 15.0137 30.4439 15.003C30.4619 14.9923 30.4769 14.9773 30.4876 14.9594C30.4984 14.9415 30.5045 14.9212 30.5055 14.9003C30.5065 14.8795 30.5024 14.8587 30.4934 14.8398C30.0719 14.0682 29.7467 13.2476 29.5252 12.3967C29.519 12.3704 29.5039 12.3471 29.4825 12.3306C29.461 12.3141 29.4346 12.3055 29.4076 12.3062H26.8016V8.0625H23.1822V12.2972H20.5944C20.5716 12.298 20.5494 12.3049 20.5303 12.3172C20.5111 12.3295 20.4956 12.3468 20.4854 12.3671C20.4752 12.3875 20.4707 12.4103 20.4724 12.433C20.474 12.4557 20.4818 12.4776 20.4948 12.4963C21.0887 13.2027 21.521 14.0303 21.7616 14.9213C21.7675 14.9485 21.7823 14.973 21.8035 14.991C21.8248 15.009 21.8514 15.0194 21.8792 15.0208H23.2184V22.2053C23.189 22.756 23.2768 23.3066 23.4759 23.8209C23.675 24.3351 23.9808 24.8013 24.3733 25.1887C24.7658 25.576 25.236 25.8758 25.7528 26.0681C26.2697 26.2604 26.8214 26.3409 27.3717 26.3042C28.2701 26.3218 29.1637 26.1683 30.0048 25.8518C30.0234 25.8394 30.0388 25.8226 30.0493 25.8029C30.0599 25.7832 30.0655 25.7611 30.0655 25.7387C30.0655 25.7163 30.0599 25.6943 30.0493 25.6745C30.0388 25.6548 30.0234 25.638 30.0048 25.6256C29.3859 24.982 28.9488 24.1858 28.738 23.3182Z" fill="white"/>
<path d="M14.8938 11.7632C11.0391 11.7632 8.65033 14.5682 8.65033 19.0563C8.65033 23.9243 10.9034 26.4308 15.31 26.4308C16.3147 26.444 17.3127 26.2659 18.2508 25.906C19.1508 25.5301 19.9616 24.969 20.6305 24.2591C20.6426 24.2473 20.6521 24.2333 20.6587 24.2177C20.6652 24.2022 20.6685 24.1855 20.6685 24.1687C20.6685 24.1518 20.6652 24.1351 20.6587 24.1196C20.6521 24.104 20.6426 24.09 20.6305 24.0782L18.6399 22.1327C18.6165 22.1111 18.5858 22.0991 18.5539 22.0991C18.522 22.0991 18.4913 22.1111 18.4679 22.1327C18.082 22.5479 17.6135 22.8777 17.0926 23.1009C16.567 23.302 16.0085 23.4033 15.4457 23.3995C13.3555 23.3995 12.2878 22.359 12.1702 20.2054H20.7391C20.8447 20.2054 20.946 20.1635 21.0206 20.0888C21.0953 20.0141 21.1372 19.9129 21.1372 19.8073V18.6129C21.1372 14.4777 18.6941 11.7632 14.8938 11.7632ZM12.1792 17.7623C12.2607 15.835 13.256 14.7401 14.8938 14.7401C16.5316 14.7401 17.5088 15.8169 17.6083 17.7623H12.1792Z" fill="white"/>
<path d="M47.6041 11.8804H44.0209V26.2132H47.6041V11.8804Z" fill="white"/>
<path d="M45.8125 5.61034C45.2189 5.60792 44.6486 5.8408 44.2263 6.25799C43.804 6.67518 43.5642 7.24268 43.5594 7.83626C43.5666 8.43622 43.8119 9.00874 44.2412 9.42788C44.6705 9.84701 45.2488 10.0784 45.8487 10.0712C46.4487 10.064 47.0212 9.81881 47.4403 9.38949C47.8595 8.96016 48.0909 8.38193 48.0837 7.78197C48.0695 7.19317 47.8224 6.634 47.3967 6.22696C46.971 5.81993 46.4014 5.59819 45.8125 5.61034Z" fill="white"/>
<path d="M53.3137 6.62354H49.7395V26.2135H53.3137V6.62354Z" fill="white"/>
<path d="M78.4051 29.1538L76.3964 28.249C76.3384 28.2196 76.2727 28.2087 76.2083 28.2179C76.144 28.2271 76.084 28.2559 76.0365 28.3004C75.9891 28.3449 75.9565 28.4029 75.9432 28.4665C75.9298 28.5302 75.9364 28.5964 75.962 28.6562L76.7674 29.7058C74.8269 30.5398 72.7253 30.932 70.6146 30.8541C68.5039 30.7762 66.437 30.2302 64.5632 29.2555C62.6895 28.2807 61.0558 26.9017 59.7804 25.2181C58.505 23.5346 57.6198 21.5886 57.1887 19.5209C56.7577 17.4533 56.7916 15.3156 57.288 13.2627C57.7845 11.2098 58.731 9.29285 60.0592 7.65061C61.3874 6.00837 63.064 4.68189 64.9677 3.76711C66.8715 2.85234 68.9547 2.37215 71.0668 2.36128C72.9305 2.36104 74.7757 2.73009 76.4959 3.4471C76.5375 3.46502 76.5822 3.47455 76.6275 3.47515C76.6727 3.47575 76.7177 3.4674 76.7597 3.45059C76.8017 3.43378 76.84 3.40883 76.8724 3.37717C76.9048 3.34552 76.9306 3.30778 76.9483 3.26613C76.9849 3.18086 76.9864 3.08464 76.9525 2.99827C76.9186 2.91191 76.8521 2.84235 76.7674 2.80466C74.7258 1.9581 72.522 1.57476 70.3146 1.68224C68.1071 1.78972 65.951 2.38535 64.0013 3.42624C62.0517 4.46713 60.3572 5.92738 59.0397 7.70184C57.7223 9.4763 56.8147 11.5208 56.3823 13.6882C55.9499 15.8555 56.0035 18.0918 56.5392 20.236C57.0749 22.3801 58.0794 24.3788 59.4804 26.0882C60.8813 27.7975 62.6439 29.1749 64.6411 30.1212C66.6383 31.0675 68.8205 31.5591 71.0306 31.5607C73.0789 31.5656 75.106 31.1466 76.9845 30.3302L77.1655 31.6784C77.1667 31.7648 77.2022 31.8471 77.2641 31.9074C77.326 31.9676 77.4094 32.0008 77.4958 31.9996C77.5821 31.9984 77.6645 31.9629 77.7248 31.901C77.785 31.839 77.8182 31.7557 77.817 31.6693L78.577 29.5791C78.5948 29.5401 78.6044 29.4978 78.6053 29.4549C78.6061 29.412 78.5983 29.3694 78.5822 29.3296C78.5662 29.2899 78.5422 29.2538 78.5117 29.2236C78.4813 29.1933 78.445 29.1696 78.4051 29.1538Z" fill="white"/>
<path d="M110.165 14.749C110.122 14.7011 110.065 14.6675 110.003 14.6527C109.94 14.6379 109.874 14.6427 109.814 14.6663C109.754 14.6899 109.703 14.7313 109.667 14.7849C109.631 14.8385 109.612 14.9017 109.613 14.9662L109.957 16.2601H107.17C107.137 16.2601 107.104 16.2468 107.081 16.223C107.057 16.1993 107.044 16.167 107.044 16.1334V3.46557C107.044 3.26879 106.965 3.08006 106.826 2.94091C106.687 2.80177 106.498 2.72359 106.302 2.72359H104.727C104.694 2.72359 104.661 2.71025 104.638 2.68649C104.614 2.66273 104.6 2.63051 104.6 2.59692V0.904849C104.6 0.840054 104.626 0.777913 104.672 0.732096C104.718 0.686279 104.78 0.660539 104.845 0.660539H122.155C122.187 0.660539 122.218 0.666859 122.248 0.679136C122.278 0.691414 122.305 0.70941 122.327 0.732096C122.35 0.754782 122.368 0.781714 122.38 0.811355C122.393 0.840996 122.399 0.872765 122.399 0.904849V9.59139L121.105 9.24755C121.04 9.24649 120.977 9.26514 120.924 9.30101C120.87 9.33687 120.829 9.38825 120.805 9.44826C120.781 9.50827 120.777 9.57405 120.791 9.63682C120.806 9.69959 120.84 9.75635 120.888 9.79951L122.526 11.3016C122.585 11.355 122.663 11.3845 122.743 11.3845C122.823 11.3845 122.9 11.355 122.96 11.3016L124.598 9.79951C124.646 9.75635 124.679 9.69959 124.694 9.63682C124.709 9.57405 124.704 9.50827 124.68 9.44826C124.657 9.38825 124.615 9.33687 124.562 9.30101C124.508 9.26514 124.445 9.24649 124.38 9.24755L123.087 9.59139V0.741976C123.087 0.545192 123.008 0.356467 122.869 0.21732C122.73 0.0781722 122.541 0 122.345 0L104.655 0C104.458 0 104.269 0.0781722 104.13 0.21732C103.991 0.356467 103.913 0.545192 103.913 0.741976V2.61501C103.913 2.64861 103.899 2.68083 103.876 2.70459C103.852 2.72834 103.82 2.74169 103.786 2.74169H81.2735C81.0767 2.74169 80.888 2.81986 80.7488 2.95901C80.6097 3.09816 80.5315 3.28688 80.5315 3.48367V16.1515C80.5315 16.1851 80.5182 16.2174 80.4944 16.2411C80.4706 16.2649 80.4384 16.2782 80.4048 16.2782H72.3155C72.2313 15.9771 72.0409 15.7166 71.7795 15.5449C71.518 15.3733 71.2033 15.3022 70.8935 15.3447C70.5837 15.3871 70.2998 15.5404 70.0942 15.7761C69.8886 16.0117 69.7754 16.3139 69.7754 16.6266C69.7754 16.9393 69.8886 17.2414 70.0942 17.4771C70.2998 17.7128 70.5837 17.866 70.8935 17.9085C71.2033 17.951 71.518 17.8799 71.7795 17.7082C72.0409 17.5366 72.2313 17.2761 72.3155 16.975H81.8616C81.8952 16.975 81.9274 16.9883 81.9512 17.0121C81.975 17.0358 81.9883 17.068 81.9883 17.1016V29.86C81.9883 30.0568 82.0665 30.2455 82.2056 30.3847C82.3448 30.5238 82.5335 30.602 82.7303 30.602H107.677C107.874 30.602 108.062 30.5238 108.202 30.3847C108.341 30.2455 108.419 30.0568 108.419 29.86V17.0745C108.419 17.0409 108.432 17.0087 108.456 16.9849C108.48 16.9612 108.512 16.9478 108.546 16.9478H109.984L109.64 18.2417C109.639 18.3062 109.658 18.3695 109.694 18.4231C109.73 18.4767 109.781 18.518 109.841 18.5417C109.901 18.5653 109.967 18.57 110.03 18.5552C110.093 18.5404 110.149 18.5068 110.192 18.4589L111.694 16.8211C111.747 16.7629 111.776 16.6871 111.776 16.6085C111.776 16.5299 111.747 16.4541 111.694 16.3959L110.165 14.749ZM107.677 29.67C107.678 29.7028 107.673 29.7356 107.661 29.7663C107.649 29.7969 107.631 29.825 107.609 29.8486C107.586 29.8723 107.559 29.8911 107.528 29.9039C107.498 29.9168 107.466 29.9234 107.433 29.9233H82.9294C82.8965 29.9234 82.864 29.9168 82.8337 29.9039C82.8035 29.8911 82.7761 29.8723 82.7533 29.8486C82.7305 29.825 82.7127 29.7969 82.701 29.7663C82.6892 29.7356 82.6838 29.7028 82.685 29.67V17.0745C82.685 17.0409 82.6984 17.0087 82.7221 16.9849C82.7459 16.9612 82.7781 16.9478 82.8117 16.9478H84.5309L84.1509 18.2417C84.1498 18.3062 84.1685 18.3695 84.2044 18.4231C84.2402 18.4767 84.2916 18.518 84.3516 18.5417C84.4116 18.5653 84.4774 18.57 84.5402 18.5552C84.6029 18.5404 84.6597 18.5068 84.7029 18.4589L86.2049 16.8211C86.2577 16.7629 86.2869 16.6871 86.2869 16.6085C86.2869 16.5299 86.2577 16.4541 86.2049 16.3959L84.7391 14.749C84.6959 14.7011 84.6391 14.6675 84.5764 14.6527C84.5136 14.6379 84.4478 14.6427 84.3878 14.6663C84.3278 14.6899 84.2764 14.7313 84.2405 14.7849C84.2047 14.8385 84.186 14.9017 84.1871 14.9662L84.5219 16.2873H81.3549C81.3213 16.2873 81.2891 16.2739 81.2653 16.2502C81.2416 16.2264 81.2282 16.1942 81.2282 16.1606V3.69178C81.2279 3.63946 81.2433 3.58825 81.2723 3.54471C81.3013 3.50118 81.3427 3.46732 81.3911 3.44747H106.021C106.247 3.44747 106.356 3.55605 106.356 3.69178V16.1334C106.356 16.167 106.343 16.1993 106.319 16.223C106.295 16.2468 106.263 16.2601 106.229 16.2601H103.451C103.417 16.3816 103.371 16.4997 103.316 16.613C103.253 16.7382 103.177 16.8565 103.089 16.9659H107.614C107.647 16.9659 107.679 16.9793 107.703 17.003C107.727 17.0268 107.74 17.059 107.74 17.0926L107.677 29.67Z" fill="white"/>
<path d="M137.211 17.9067C137.152 17.8533 137.074 17.8237 136.994 17.8237C136.914 17.8237 136.837 17.8533 136.777 17.9067L135.139 19.4087C135.091 19.4519 135.058 19.5086 135.043 19.5714C135.028 19.6342 135.033 19.7 135.056 19.76C135.08 19.82 135.121 19.8714 135.175 19.9072C135.229 19.9431 135.292 19.9617 135.356 19.9607L136.65 19.6168V29.8597C136.65 29.9245 136.625 29.9867 136.579 30.0325C136.533 30.0783 136.471 30.104 136.406 30.104H123.385C123.32 30.104 123.258 30.0783 123.212 30.0325C123.167 29.9867 123.141 29.9245 123.141 29.8597V22.6209C123.141 22.5297 123.105 22.4423 123.04 22.3778C122.976 22.3133 122.888 22.2771 122.797 22.2771C122.707 22.2794 122.62 22.3164 122.556 22.3803C122.492 22.4443 122.455 22.5305 122.453 22.6209V30.0316C122.453 30.2284 122.531 30.4172 122.671 30.5563C122.81 30.6955 122.998 30.7736 123.195 30.7736H136.632C136.829 30.7736 137.018 30.6955 137.157 30.5563C137.296 30.4172 137.374 30.2284 137.374 30.0316V19.6168L138.668 19.9607C138.733 19.9617 138.796 19.9431 138.849 19.9072C138.903 19.8714 138.944 19.82 138.968 19.76C138.992 19.7 138.996 19.6342 138.982 19.5714C138.967 19.5086 138.933 19.4519 138.885 19.4087L137.211 17.9067Z" fill="white"/>
<path d="M142.658 16.3872L141.156 14.7494C141.113 14.7015 141.056 14.6679 140.994 14.6531C140.931 14.6383 140.865 14.6431 140.805 14.6667C140.745 14.6903 140.694 14.7316 140.658 14.7852C140.622 14.8388 140.603 14.9021 140.604 14.9666L140.948 16.2605H132.94V7.00391H128.796L122.788 15.2652L116.78 7.00391H112.608V26.241H116.228V12.243L122.345 20.6128H123.059L129.312 12.2701V26.241H132.931V16.9572H140.939L140.595 18.2512C140.594 18.3157 140.613 18.3789 140.649 18.4325C140.685 18.4861 140.736 18.5275 140.796 18.5511C140.856 18.5747 140.922 18.5794 140.985 18.5646C141.047 18.5498 141.104 18.5163 141.147 18.4683L142.64 16.8306C142.701 16.7738 142.737 16.6955 142.74 16.6126C142.743 16.5297 142.714 16.4487 142.658 16.3872Z" fill="white"/>
</g>
</svg>
