<svg width="115" height="38" viewBox="0 0 115 38" fill="none" xmlns="http://www.w3.org/2000/svg">
<path d="M36.956 37.9954C36.0202 37.7733 35.0737 37.5878 34.153 37.3225C31.8835 36.6669 29.8936 35.498 28.1963 34.0078C29.3751 32.7828 30.5282 31.5858 31.7307 30.3328C33.669 31.7282 35.8481 32.8561 38.3478 32.9014C39.6665 32.9251 41.0841 32.6965 42.2931 32.1875C44.1969 31.3853 44.3109 29.0539 42.4609 28.1438C40.9895 27.4192 39.2685 27.1992 37.6551 26.77C36.3795 26.4292 35.05 26.2373 33.8303 25.7607C30.853 24.5961 29.3171 22.323 29.3751 19.4395C29.4397 16.252 31.1456 13.61 34.0669 12.6331C38.8168 11.0458 43.1514 12.0767 47.0322 14.9364C45.8663 16.1592 44.7455 17.3324 43.5795 18.5574C41.5015 17.2289 39.1825 16.541 36.6161 17.0456C36.2009 17.1276 35.7793 17.2591 35.4028 17.4489C34.6391 17.8328 34.054 18.5186 34.2799 19.336C34.4541 19.9657 35.0242 20.768 35.5921 20.9513C37.0055 21.4107 38.5156 21.5854 39.9956 21.8334C41.9231 22.1569 43.7645 22.7025 45.393 23.824C47.869 25.5299 48.8521 27.9217 48.6327 30.8871C48.4111 33.8827 46.759 35.8021 44.0894 36.861C42.7728 37.3829 41.3487 37.6288 39.972 37.9997C38.9631 37.9954 37.9606 37.9954 36.956 37.9954Z" fill="#888C8E"/>
<path d="M114.399 33.251C113.208 36.4386 110.68 37.5622 107.524 37.8102C103.925 38.0927 100.571 37.284 97.2499 35.7463C97.9943 34.284 98.7042 32.8887 99.4614 31.4006C99.9583 31.6357 100.399 31.847 100.842 32.0541C103.093 33.1065 105.414 33.7212 107.924 33.2726C108.598 33.1518 109.359 32.962 109.279 32.2029C109.234 31.7737 108.589 31.2237 108.103 31.0598C106.784 30.6199 105.388 30.4128 104.054 30.0095C102.964 29.6796 101.869 29.2935 100.864 28.7652C97.8329 27.1671 97.2714 23.4921 99.627 20.9731C100.941 19.5648 102.615 18.9308 104.495 18.7345C107.853 18.3851 110.934 19.2651 113.978 20.7661C113.263 22.1701 112.586 23.4986 111.906 24.8336C110.48 24.426 109.131 23.9321 107.739 23.6819C106.666 23.49 105.528 23.5266 104.435 23.628C104.043 23.6646 103.697 24.1844 103.331 24.4842C103.652 24.8163 103.912 25.3166 104.302 25.4525C105.549 25.8882 106.849 26.1707 108.118 26.5459C108.94 26.7897 109.751 27.0743 110.557 27.3698C112.386 28.0384 113.825 29.121 114.399 31.0943C114.399 31.8125 114.399 32.5328 114.399 33.251Z" fill="#4B4F51"/>
<path d="M0.600677 12.1157C2.26786 12.1157 3.93719 12.1157 5.66246 12.1157C5.66246 20.6949 5.66246 29.0628 5.66246 37.5643C3.93934 37.5643 2.27001 37.5643 0.600677 37.5643C0.600677 29.0822 0.600677 20.5979 0.600677 12.1157Z" fill="#4B4F51"/>
<path d="M41.2584 0.900879C41.9102 1.05185 42.5621 1.20712 43.2139 1.35593C44.055 1.54788 45.7566 3.39829 45.8383 4.21567C45.8448 4.28468 45.8491 4.35801 45.8319 4.42486C45.6985 4.96834 43.1063 6.74974 42.4997 6.66348C39.5805 6.24724 36.6957 6.3637 33.925 7.41184C29.6075 9.04659 26.9465 12.0487 26.5399 16.8063C26.5291 16.9378 26.4754 17.0651 26.4237 17.2699C25.4557 14.4275 26.0946 10.3406 28.0135 7.37302C30.3561 3.74552 33.7486 1.76139 37.9843 1.15752C38.2919 1.11439 38.5888 0.989302 38.89 0.900879C39.6816 0.900879 40.4689 0.900879 41.2584 0.900879Z" fill="#888C8E"/>
<path d="M67.7225 37.551C66.2769 37.551 64.7194 37.9134 63.4674 37.4497C62.2132 36.9838 61.3205 37.6869 60.2578 37.6502C58.9068 37.6006 57.5215 37.8034 56.2049 37.5791C53.2384 37.0744 51.4013 35.0924 51.0377 32.3082C50.6957 29.6857 52.0854 27.2098 54.6303 25.877C56.8503 24.7146 59.2016 24.8893 61.5636 25.161C62.0175 25.2128 62.4671 25.2883 62.9253 25.353C62.9425 24.197 62.3939 23.5996 61.1183 23.3386C59.3414 22.9763 57.629 23.261 55.9554 23.8821C55.4907 24.0546 55.0347 24.2574 54.484 24.486C53.8408 23.2179 53.2148 21.9842 52.5393 20.6471C55.1293 19.2474 57.7882 18.4754 60.6859 18.6932C61.3958 18.7471 62.1121 18.8614 62.8005 19.0382C66.0381 19.8729 67.6988 21.8333 67.7763 25.1783C67.8666 29.0905 67.8064 33.007 67.8064 36.9213C67.8107 37.0917 67.7633 37.2642 67.7225 37.551ZM62.9059 29.6986C62.0304 29.5886 61.1204 29.4053 60.2083 29.3773C59.2575 29.3492 58.2787 29.3708 57.3537 29.5628C56.5599 29.7267 55.9575 30.2982 55.8737 31.1997C55.7876 32.1443 56.3985 32.7417 57.1515 32.9746C58.0808 33.2636 59.1069 33.4706 60.0642 33.3908C62.8479 33.1579 63.2028 32.6403 62.9059 29.6986Z" fill="#4B4F51"/>
<path d="M96.1334 29.9293C91.9601 29.9293 87.9997 29.9293 84.0308 29.9293C84.3298 33.1988 87.6469 34.1542 91.063 32.0234C92.1429 32.8667 93.2379 33.7207 94.3565 34.5941C92.0569 37.5229 89.114 38.4028 85.685 37.6178C82.0151 36.7745 79.9542 34.2642 79.1518 30.682C78.6635 28.4994 78.8356 26.3234 79.6552 24.2271C81.0513 20.6578 84.5664 18.3523 88.1288 18.6521C91.8762 18.967 94.9266 21.775 95.6516 25.6785C95.9032 27.0329 95.9678 28.4239 96.1334 29.9293ZM90.9038 25.6785C90.5016 24.1063 89.1313 23.0884 87.5802 23.1358C86.0077 23.1854 84.7256 24.199 84.4115 25.6785C86.5563 25.6785 88.6903 25.6785 90.9038 25.6785Z" fill="#4B4F51"/>
<path d="M8.81183 19.1357C10.4618 19.1357 12.03 19.1357 13.6542 19.1357C13.7402 19.4182 13.8284 19.7072 13.936 20.0673C15.5107 18.9825 17.2058 18.4887 19.0429 18.6784C22.6742 19.0559 25.3438 21.9393 25.4879 25.8429C25.617 29.3237 25.5267 32.8132 25.531 36.2984C25.531 36.6564 25.531 37.0144 25.531 37.463C23.8659 37.463 22.2482 37.463 20.5036 37.463C20.5036 36.9432 20.5036 36.4493 20.5036 35.9555C20.5036 33.0095 20.5122 30.0613 20.4993 27.1153C20.4886 24.8983 19.1634 23.3972 17.2144 23.3605C15.2138 23.3217 13.8048 24.853 13.7983 27.0937C13.7897 30.1476 13.7962 33.2036 13.7962 36.2574C13.7962 36.6456 13.7962 37.0338 13.7962 37.4888C12.0989 37.4888 10.5005 37.4888 8.80753 37.4888C8.81183 31.4114 8.81183 25.3296 8.81183 19.1357Z" fill="#4B4F51"/>
<path d="M76.0283 37.495C74.346 37.495 72.7176 37.495 71.0224 37.495C71.0052 37.1262 70.9773 36.8113 70.9773 36.4965C70.9751 29.4528 70.9837 22.4092 70.96 15.3655C70.9579 14.6711 71.1106 14.2656 71.7969 13.9658C73.1994 13.3533 74.5526 12.6222 76.0283 11.8911C76.0283 20.466 76.0283 28.9201 76.0283 37.495Z" fill="#4B4F51"/>
</svg>
