<svg width="164" height="33" viewBox="0 0 164 33" fill="none" xmlns="http://www.w3.org/2000/svg">
<path d="M97.1127 24.4935C95.8285 24.4935 94.6762 24.4935 93.3901 24.4935C93.3901 21.7664 93.3901 19.1 93.3901 16.4355C93.3128 16.4089 93.2336 16.3823 93.1563 16.3558C92.9658 16.6006 92.7546 16.8321 92.5868 17.0921C91.2121 19.2233 89.8053 21.3356 88.4946 23.5048C87.9968 24.3303 87.4235 24.5998 86.4863 24.577C83.9178 24.5163 83.9159 24.5581 83.9178 22.0188C83.9178 18.5287 83.9197 15.0406 83.9216 11.5505C83.9216 11.1463 83.9216 10.7402 83.9216 10.2107C85.087 10.2107 86.1034 10.1499 87.1029 10.2543C87.3424 10.279 87.6969 10.8464 87.7064 11.171C87.7611 13.1788 87.729 15.1905 87.7347 17.2003C87.7347 17.5609 87.7724 17.9196 87.812 18.6066C88.1967 18.06 88.4117 17.7791 88.6021 17.4812C89.975 15.3499 91.3705 13.2301 92.6981 11.0704C93.111 10.3967 93.5881 10.1461 94.35 10.1936C95.242 10.2486 96.1415 10.2069 97.1146 10.2069C97.1127 15.0254 97.1127 19.7054 97.1127 24.4935Z" fill="#74797B"/>
<path d="M13.6211 32.3124C10.855 31.7396 8.27399 30.4619 6.24775 28.6623C1.04591 24.0424 -0.561738 16.7847 2.18628 10.3269C2.86112 8.74108 3.95823 7.13167 5.31758 5.73346L6.51601 4.50078L6.60054 11.7156C6.68144 18.6215 6.69967 18.9694 7.02635 19.8397C7.67988 21.5807 8.38051 22.6891 9.58664 23.8903C12.7023 26.9932 17.2723 27.7675 21.1573 25.8509C24.8089 24.0494 27.1109 20.1323 26.8434 16.1755C26.6637 13.5178 25.7699 11.5689 23.8402 9.62708C22.381 8.15878 20.6643 7.19969 18.7952 6.80862C16.8936 6.41074 16.9848 6.35259 16.9848 7.9622V9.35182L18.0273 9.54391C22.0648 10.2878 24.7351 14.2525 23.8935 18.2537C23.6247 19.5316 23.0252 20.6601 22.0628 21.6995C20.6003 23.2793 18.5426 24.0343 16.7459 24.0309C13.775 24.0252 11.2943 22.337 10.0919 19.8405C10.0919 19.8405 9.77698 19.1269 9.67577 18.6859C9.08052 16.0927 9.461 10.6338 9.461 10.6338L9.4149 2.652L9.8861 2.40834C10.1453 2.27432 10.3938 2.16467 10.4384 2.16467C10.4831 2.16467 10.5397 5.83072 10.5643 10.3114C10.5643 10.3114 9.99212 16.1851 10.6992 18.4359C10.8013 18.7607 10.9949 19.3161 10.9949 19.3161C11.6148 20.579 12.6083 21.6898 13.8991 22.3013C14.879 22.7654 15.3723 22.9754 16.822 22.9754C17.7691 22.9754 18.6082 22.6765 19.5737 22.2324C20.7118 21.709 22.0174 20.3211 22.4999 19.054C23.8292 15.5628 21.9782 11.8067 18.4124 10.7594C16.9551 10.3313 16.9848 10.3077 16.9848 11.8924V13.2766L17.6844 13.4637C20.2059 14.1381 20.9753 17.5178 18.9958 19.2545C18.2964 19.868 17.6662 20.1393 16.5639 20.1393C15.3859 20.1393 14.2552 19.4263 13.6739 18.3327C13.3247 17.6758 13.2952 17.0527 13.2952 16.7673C13.2952 14.1313 13.2381 9.39044 13.2381 9.39044L13.191 1.25817L13.553 1.16825C13.7521 1.1188 14.5568 0.996434 15.3413 0.896327C18.0018 0.556822 21.9378 1.42748 24.582 2.94042C28.1871 5.00307 30.9149 8.5464 32.0506 12.6419C32.4413 14.0507 32.4848 14.4603 32.4848 16.7265C32.4848 18.9826 32.4403 19.4058 32.0579 20.7838C30.5132 26.3501 26.5837 30.3292 20.9652 32.0169C19.7827 32.372 19.2288 32.4397 17.1422 32.4842C15.4584 32.5202 14.3671 32.4669 13.6211 32.3124Z" fill="#74797B"/>
<path d="M123.678 24.5735C123.678 19.7569 123.678 15.0997 123.678 10.3324C124.904 10.3324 126.114 10.3324 127.453 10.3324C127.453 12.9894 127.453 15.6235 127.453 18.5784C127.834 18.1172 128.032 17.9198 128.179 17.6921C129.554 15.5609 130.961 13.4486 132.269 11.2775C132.765 10.4558 133.331 10.1787 134.272 10.2015C136.869 10.2641 136.869 10.2205 136.867 12.8489C136.865 16.2631 136.863 19.6753 136.863 23.0895C136.863 23.5335 136.863 23.9795 136.863 24.4995C135.568 24.4995 134.416 24.4995 133.112 24.4995C133.112 21.8312 133.112 19.161 133.112 16.4927C133.024 16.4604 132.935 16.4301 132.848 16.3978C132.66 16.6369 132.449 16.8609 132.285 17.1152C130.91 19.2464 129.503 21.3568 128.192 23.5279C127.695 24.3534 127.121 24.6817 126.182 24.5868C125.405 24.5109 124.613 24.5735 123.678 24.5735Z" fill="#74797B"/>
<path d="M70.3062 10.2754C73.7063 10.2754 77.1139 10.2754 80.597 10.2754C80.597 11.3894 80.597 12.4256 80.597 13.6212C79.4938 13.6212 78.4509 13.6212 77.4062 13.6212C76.3596 13.6212 75.3149 13.6212 74.2211 13.6212C74.174 13.9951 74.1495 14.2513 74.108 14.5018C73.925 15.5741 74.404 15.8322 75.4205 15.8303C76.65 15.8284 77.9191 15.9138 79.0978 16.2345C80.9081 16.726 81.785 18.0792 81.8171 19.9637C81.851 22.0019 81.0118 23.4974 79.2109 24.0269C77.9701 24.3931 76.6236 24.4577 75.3186 24.5317C73.8911 24.6133 72.456 24.5412 71.0247 24.5545C70.5193 24.5583 70.1384 24.5013 70.1403 23.8428C70.1591 19.4456 70.1629 15.0465 70.1761 10.6493C70.1761 10.5449 70.2459 10.4405 70.3062 10.2754ZM74.2419 18.7016C73.9326 22.1822 73.876 21.7419 76.5425 21.6224C76.5802 21.6205 76.6161 21.6053 76.6519 21.5977C77.4703 21.4079 77.8758 20.8898 77.8399 20.0472C77.8041 19.2292 77.3119 18.7851 76.5538 18.7168C75.8108 18.6485 75.0565 18.7016 74.2419 18.7016Z" fill="#74797B"/>
<path d="M139.345 24.5791C139.345 19.7454 139.345 15.0654 139.345 10.2412C140.48 10.2412 141.563 10.1938 142.636 10.2811C142.858 10.3001 143.203 10.8144 143.215 11.1104C143.273 12.6514 143.241 14.1962 143.241 15.7392C143.333 15.779 143.426 15.8189 143.518 15.8606C144.18 14.9402 144.989 14.09 145.476 13.0822C146.66 10.6379 148.512 9.7459 151.11 10.2279C151.363 10.2754 151.629 10.2583 152.165 10.283C151.701 10.8846 151.354 11.3382 151.003 11.7879C149.794 13.3384 148.608 14.9079 147.361 16.4262C146.913 16.9727 146.93 17.3428 147.352 17.8913C148.989 20.0111 150.579 22.1689 152.366 24.5545C150.613 24.5545 149.1 24.5867 147.593 24.5222C147.356 24.5127 147.101 24.0933 146.914 23.8219C145.955 22.4175 145.017 20.9961 144.065 19.5841C143.884 19.3146 143.675 19.0622 143.233 18.8554C143.233 19.9751 143.233 21.0948 143.233 22.2145C143.232 24.5791 143.232 24.5791 140.829 24.5791C140.382 24.5791 139.935 24.5791 139.345 24.5791Z" fill="#74797B"/>
<path d="M110.841 10.323C113.302 10.323 115.718 10.1541 118.098 10.3705C120.476 10.5868 121.918 12.5264 121.926 14.965C121.933 17.4075 120.517 19.2218 118.156 19.6393C117.091 19.8272 115.991 19.8177 114.718 19.9107C114.718 21.0987 114.675 22.2982 114.734 23.4938C114.775 24.3535 114.464 24.6419 113.625 24.5831C112.731 24.5205 111.829 24.5698 110.839 24.5698C110.841 19.7874 110.841 15.1093 110.841 10.323ZM114.726 16.7452C115.586 16.6408 116.276 16.6598 116.895 16.4567C117.809 16.155 117.954 15.3503 117.777 14.5039C117.594 13.6328 116.627 13.2077 115.375 13.331C114.341 13.4335 114.803 14.2116 114.741 14.7164C114.671 15.3048 114.726 15.9083 114.726 16.7452Z" fill="#74797B"/>
<path d="M162.97 14.815C159.979 13.0349 158.22 13.0083 156.873 14.6271C155.644 16.1055 155.602 18.6656 156.783 20.1307C158.08 21.7401 159.977 21.7534 162.953 20.0757C162.953 21.2846 163.021 22.4081 162.912 23.5164C162.88 23.841 162.399 24.2433 162.035 24.3894C159.819 25.2909 157.596 25.1979 155.484 24.0934C152.11 22.3322 150.801 17.508 152.61 13.7314C154.216 10.376 158.346 8.88437 161.874 10.3495C162.666 10.6778 163.079 11.1162 162.989 12.0442C162.902 12.9305 162.97 13.8319 162.97 14.815Z" fill="#74797B"/>
<path d="M58.9198 19.9977C58.9198 21.2104 58.9953 22.2713 58.8802 23.3113C58.8387 23.6852 58.4069 24.171 58.0373 24.3247C55.7875 25.2584 53.5284 25.1655 51.3804 24.0173C48.0256 22.2239 46.7527 17.3617 48.5989 13.6192C50.2433 10.2848 54.4052 8.83675 57.9147 10.3569C58.6068 10.6567 59.0235 11.023 58.9443 11.877C58.8614 12.7994 58.9255 13.735 58.9255 14.737C55.7442 12.9891 54.0583 12.991 52.7608 14.6649C51.5671 16.204 51.5879 18.7547 52.808 20.1742C54.1469 21.7304 56.1081 21.7114 58.9198 19.9977Z" fill="#74797B"/>
<path d="M105.97 13.7104C105.97 16.969 105.929 20.1136 105.995 23.2564C106.017 24.3021 105.727 24.6892 104.675 24.5829C103.826 24.4975 102.962 24.5659 101.974 24.5659C101.974 20.8765 101.974 17.3314 101.974 13.6307C101.139 13.6307 100.435 13.6061 99.7321 13.6383C99.1229 13.6668 98.8174 13.4732 98.8476 12.8052C98.8834 12.0157 98.8552 11.2243 98.8552 10.3703C99.1795 10.3077 99.4247 10.2185 99.6698 10.2185C102.497 10.2109 105.325 10.2337 108.152 10.2033C108.888 10.1957 109.12 10.4424 109.129 11.1864C109.157 13.57 109.186 13.57 106.792 13.6383C106.574 13.6459 106.353 13.6763 105.97 13.7104Z" fill="#74797B"/>
<path d="M39.5 13.3612C39.5 12.2946 39.5 11.3192 39.5 10.1976C41.2726 10.1976 42.9943 10.1767 44.7123 10.2279C44.899 10.2336 45.2271 10.6663 45.229 10.9017C45.2573 15.185 45.2479 19.4683 45.2422 23.7517C45.2422 23.8655 45.2667 24.0174 45.2064 24.0857C44.3559 25.0517 43.247 24.3552 42.2664 24.4823C42.0835 24.507 41.6347 23.9244 41.629 23.615C41.58 20.7721 41.6026 17.9292 41.6007 15.0863C41.5989 13.3043 41.6969 13.4238 40.0563 13.4409C39.913 13.4447 39.7678 13.4011 39.5 13.3612Z" fill="#74797B"/>
<path d="M64.5187 19.7589C63.2665 19.7741 62.2124 18.7454 62.1784 17.4739C62.1445 16.2062 63.1515 15.1377 64.4169 15.0979C65.7275 15.0561 66.8269 16.1246 66.8194 17.4284C66.8099 18.6923 65.7728 19.7437 64.5187 19.7589Z" fill="#74797B"/>
</svg>
