<svg width="131" height="14" viewBox="0 0 131 14" fill="none" xmlns="http://www.w3.org/2000/svg">
<path opacity="0.5" d="M0.35 10H2.024L5.966 4.564C6.254 4.132 6.704 3.52 6.758 3.358H6.794C6.794 3.502 6.74 4.132 6.74 4.564V10H8.432V0.891999H6.74L2.816 6.328C2.51 6.76 2.078 7.39 2.006 7.552H1.97C1.988 7.462 2.024 6.814 2.024 6.328V0.891999H0.35V10ZM15.2298 10H16.9218L17.3178 4.582C17.3538 4.042 17.2998 3.016 17.2998 3.016H17.3358C17.3358 3.016 17.6238 3.7 17.9118 4.366L20.0718 8.902H21.5658L23.7258 4.348C24.0678 3.646 24.3018 3.016 24.3018 3.016H24.3378C24.3378 3.016 24.3018 4.042 24.3198 4.582L24.7158 10H26.4078L25.6158 0.891999H23.7078L21.3318 6.04C21.0978 6.598 20.8278 7.264 20.8278 7.264H20.7918C20.7918 7.264 20.5398 6.58 20.2878 6.04L17.9658 0.891999H16.0218L15.2298 10ZM28.7563 10H30.5023V6.094H35.1103V10H36.8563V0.891999H35.1103V4.6H30.5023V0.891999H28.7563V10ZM38.9552 5.428C38.9552 8.2 41.1512 10.216 43.8692 10.216C46.5692 10.216 48.7652 8.2 48.7652 5.428C48.7652 2.674 46.5692 0.676 43.8512 0.676C41.1512 0.676 38.9552 2.674 38.9552 5.428ZM40.7372 5.428C40.7372 3.538 42.1412 2.188 43.8692 2.188C45.5792 2.188 47.0012 3.538 47.0012 5.428C47.0012 7.336 45.5792 8.704 43.8692 8.704C42.1412 8.704 40.7372 7.336 40.7372 5.428ZM50.8695 10H52.6155V2.386H56.5755V0.891999H50.8695V10ZM57.3771 5.428C57.3771 8.2 59.5731 10.216 62.2911 10.216C64.9911 10.216 67.1871 8.2 67.1871 5.428C67.1871 2.674 64.9911 0.676 62.2731 0.676C59.5731 0.676 57.3771 2.674 57.3771 5.428ZM59.1591 5.428C59.1591 3.538 60.5631 2.188 62.2911 2.188C64.0011 2.188 65.4231 3.538 65.4231 5.428C65.4231 7.336 64.0011 8.704 62.2911 8.704C60.5631 8.704 59.1591 7.336 59.1591 5.428ZM75.5734 8.56C76.7254 6.76 76.8694 4.168 76.8694 2.8V2.314H79.6054V8.56H75.5734ZM72.6574 8.56V12.16H74.2954V10H81.0454V12.16H82.6474V8.56H81.3514V0.891999H75.1954V2.566C75.1954 3.97 75.0514 6.814 73.7734 8.56H72.6574ZM84.4789 13.6H86.2249V9.46C86.2249 8.992 86.1529 8.668 86.1529 8.668H86.1889C86.8189 9.64 87.8629 10.216 89.0149 10.216C91.4089 10.216 93.1369 8.344 93.1369 5.446C93.1369 2.62 91.6069 0.676 89.1409 0.676C87.8089 0.676 86.6569 1.288 86.0809 2.386H86.0449C86.0449 2.386 86.0989 2.08 86.0989 1.702V0.891999H84.4789V13.6ZM86.1709 5.482C86.1709 3.178 87.4309 2.206 88.7989 2.206C90.3109 2.206 91.3729 3.484 91.3729 5.464C91.3729 7.534 90.1849 8.704 88.7449 8.704C87.0709 8.704 86.1709 7.102 86.1709 5.482ZM94.5758 11.89L93.9638 13.222C93.9638 13.222 94.7018 13.78 95.7098 13.78C96.9878 13.78 98.1218 13.06 98.6618 11.638L102.946 0.891999H101.056L98.8418 6.868C98.6798 7.336 98.5358 7.948 98.5358 7.948H98.4998C98.4998 7.948 98.3378 7.3 98.1578 6.85L95.8718 0.891999H93.9098L97.7258 9.892L97.2758 10.936C96.9338 11.764 96.3398 12.286 95.6198 12.286C95.0798 12.286 94.5758 11.89 94.5758 11.89ZM104.659 10H106.405V2.386H110.365V0.891999H104.659V10ZM112.094 10H113.768L117.71 4.564C117.998 4.132 118.448 3.52 118.502 3.358H118.538C118.538 3.502 118.484 4.132 118.484 4.564V10H120.176V0.891999H118.484L114.56 6.328C114.254 6.76 113.822 7.39 113.75 7.552H113.714C113.732 7.462 113.768 6.814 113.768 6.328V0.891999H112.094V10ZM121.808 10H123.788L125.696 6.958C125.84 6.742 125.966 6.472 125.966 6.472H126.002C126.002 6.472 126.146 6.742 126.29 6.958L128.198 10H130.178L127.064 5.32L129.998 0.891999H128L126.308 3.664C126.182 3.898 126.002 4.204 126.002 4.204H125.966C125.966 4.204 125.804 3.898 125.678 3.664L123.986 0.891999H121.988L124.922 5.32L121.808 10Z" fill="white"/>
</svg>
