<svg width="83" height="48" viewBox="0 0 83 48" fill="none" xmlns="http://www.w3.org/2000/svg">
<g opacity="0.6">
<path d="M34.5984 26.3888C31.229 30.8874 28.3025 29.7836 25.9497 25.3286C24.9549 26.3416 23.8765 27.2674 22.7292 28.1026C20.2457 29.6602 17.5842 28.2006 17.4209 25.2451C17.3628 24.1522 17.4209 23.0411 17.37 21.9301C17.2684 21.5379 17.1013 21.1712 16.8726 20.8372C16.4986 21.026 15.9612 21.1204 15.7797 21.4254C15.3513 22.2242 14.9809 23.0556 14.6796 23.9089C14.2402 24.9618 13.8517 26.0475 13.387 27.0714C12.9113 28.1243 11.7495 28.6835 10.6275 28.4039C9.51285 28.295 8.66323 27.3546 8.67412 26.2326C8.59061 24.8166 8.75037 23.3824 8.67412 21.9591C8.58335 21.4907 8.42722 21.0332 8.20937 20.6084C7.82813 20.9243 7.27987 21.1567 7.0838 21.5597C6.33948 23.1755 5.67503 24.9219 4.93071 26.5776C4.70559 27.144 4.39334 27.6705 4.00121 28.1352C3.20242 29.0466 1.81543 29.141 0.904086 28.3422C0.533738 28.019 0.283209 27.5761 0.192438 27.0932C0.123451 26.8572 0.0798812 26.6175 0.0689886 26.3743C0.0689886 23.0593 -0.0399371 19.6826 0.0181566 16.3349C0.0472035 15.4453 0.337672 14.5812 0.845992 13.8514C1.3761 13.1651 2.12042 12.6713 2.95915 12.4426C4.23358 12.1013 4.86535 12.7076 4.92344 14.0983C4.97428 15.1657 4.92344 16.2441 4.92344 17.3189L5.47896 17.475C5.88562 17.0792 6.25597 16.6508 6.59001 16.1897C7.28713 15.0459 7.88985 13.8368 8.58698 12.6859C9.09167 11.6438 10.2826 11.1318 11.3864 11.4768C12.472 11.7273 13.1909 12.7657 13.042 13.8695V17.4641L13.5141 17.613C13.8481 17.3116 14.164 16.9848 14.4508 16.6363C15.4457 15.4526 16.3715 14.1999 17.3991 13.0489C17.8275 12.5588 18.3649 12.1739 18.964 11.9234C20.1658 11.3352 21.6109 11.8326 22.1991 13.0344C22.4242 13.4919 22.4968 14.0075 22.4096 14.5086C22.2426 16.9122 22.0938 19.3122 21.9631 21.7158C21.9594 22.1515 21.9812 22.5909 22.0284 23.023C23.8184 22.4456 25.1292 20.9062 25.416 19.0472C25.5394 17.0647 25.7791 15.0931 26.1349 13.1397C26.3237 11.9561 27.3004 11.052 28.495 10.9612C29.5661 10.7397 30.6698 11.1645 31.3125 12.0541C32.0387 13.0961 32.0677 14.4722 31.3779 15.5397C30.383 17.1954 30.4484 18.9927 30.6735 20.7646C30.7824 21.5416 31.2181 22.2314 31.868 22.6708C32.7721 23.1101 33.5237 22.3149 33.8795 21.5198C34.5149 19.8931 35.0704 18.2338 35.5352 16.5491C35.8838 15.38 36.0254 14.1455 36.363 12.9872C36.875 11.3715 38.0187 10.6598 39.3948 10.983C40.8508 11.3424 41.7875 12.7585 41.5479 14.2399C41.4499 15.0677 41.1267 15.812 40.9996 16.6181C40.6002 19.0544 40.2553 21.498 39.8632 24.0723C41.7367 23.4841 43.2253 22.9794 44.7503 22.5727C45.4656 22.4239 46.199 22.373 46.9288 22.4311C48.3049 22.4311 48.9512 23.1174 49.4123 24.675C50.9264 29.5876 54.2087 32.5286 59.2846 33.3818C66.5899 34.6163 73.5466 28.0626 72.8205 20.6847C72.7696 20.1945 72.7043 19.708 72.6716 19.2178C72.3775 17.878 73.2271 16.5527 74.5669 16.2586C75.9067 15.9645 77.2319 16.8142 77.526 18.154C77.5587 18.3101 77.5805 18.4662 77.5841 18.626C78.5863 25.3358 76.4731 30.9092 71.1067 35.0412C63.7143 40.6763 53.1521 39.2493 47.517 31.8569C47.0559 31.2505 46.6347 30.6115 46.2571 29.947C45.1207 27.9755 44.7576 27.8593 42.6952 28.8469C42.59 28.9086 42.4774 28.9631 42.3648 29.0139C40.3025 29.7836 39.5328 31.2324 39.3403 33.4617C39.068 36.9909 38.5125 40.4947 37.6847 43.9404C36.5736 48.3374 33.8832 49.118 30.2305 46.4239C25.7174 43.1344 24.8895 38.0511 28.3425 33.734C29.8347 32.0094 31.5195 30.4626 33.3712 29.1301C34.3225 28.5782 34.8163 27.4744 34.5984 26.3888ZM34.2571 34.6236L33.7452 34.3985C33.0372 35.3461 32.3836 36.3337 31.7918 37.354C31.3052 38.3452 31.5304 39.5398 32.3473 40.2878C32.8774 40.8578 33.4257 41.0176 33.5745 40.0046C33.8432 38.1855 34.003 36.4209 34.2571 34.6236Z" fill="white"/>
<path d="M69.1064 8.01694C68.8958 6.27776 69.6183 4.55673 71.0017 3.48563C72.0292 2.56702 72.9478 1.50681 73.9681 0.570045C74.3493 0.315885 74.7705 0.123449 75.2098 0C75.3914 0.381241 75.5185 0.784266 75.5911 1.20182C75.6419 2.66868 75.631 4.13555 75.5911 5.60968C75.5911 6.63722 76.0449 7.09107 77.0725 7.08381H81.5965C81.9741 7.14917 82.3409 7.27262 82.6822 7.4469C82.5841 7.85719 82.4207 8.24569 82.192 8.59788C80.9902 9.87231 79.7085 11.0814 78.4885 12.334C77.6498 13.2091 76.4371 13.6157 75.2425 13.4197C73.5723 13.1655 71.8985 13.8554 70.8927 15.2169C69.6074 16.6911 68.1006 17.9655 66.7499 19.3997C66.3687 19.8318 66.1617 20.3909 66.1617 20.9646C66.376 23.8221 64.2301 26.3092 61.3763 26.5198C58.5188 26.734 56.0316 24.5882 55.821 21.7343C55.8065 21.5564 55.8029 21.3749 55.8101 21.197C55.9082 18.3867 58.2682 16.1864 61.0785 16.2844C61.2201 16.288 61.3654 16.2989 61.507 16.3171C62.2259 16.4369 62.9593 16.1719 63.4386 15.62C64.8219 14.1785 66.2126 12.7371 67.7048 11.4045C68.7905 10.4787 69.4549 9.48381 69.1064 8.01694Z" fill="white"/>
<path d="M45.7889 14.3522C45.9305 13.9128 46.1084 13.488 46.319 13.0777C49.9063 6.90163 56.9829 3.63386 64.0123 4.91192C65.7261 5.24233 66.6955 6.40421 66.4486 7.84566C66.2017 9.28711 64.8982 10.1476 63.1336 9.82448C58.3009 8.93855 53.4174 11.0953 50.8177 15.2671C50.6035 15.6629 50.3529 16.0369 50.0734 16.3854C49.3871 17.1951 48.2434 17.4457 47.2812 16.9918C46.2936 16.5743 45.7708 15.7718 45.7889 14.3522Z" fill="white"/>
</g>
</svg>
