<svg width="150" height="30" viewBox="0 0 150 30" fill="none" xmlns="http://www.w3.org/2000/svg">
<g opacity="0.5">
<path d="M23.2556 18.8782C23.7065 18.8782 23.9319 19.4562 23.9319 20.6121C23.9319 21.2403 23.6689 22.0004 23.1429 22.8925C22.617 23.7845 21.9345 24.6012 21.0955 25.3425C20.2564 26.0838 19.3235 26.6931 18.2966 27.1706C17.2698 27.648 16.2679 27.8867 15.2912 27.8867C13.9638 27.8867 13.0746 26.7183 12.6238 24.3813C11.9726 25.4618 11.1211 26.3476 10.0692 27.0386C9.01725 27.7297 7.60844 28.0752 5.84273 28.0752C4.07702 28.0752 2.65568 27.5224 1.57872 26.4167C0.501765 25.3111 -0.0241917 23.9667 0.000853826 22.3836C0.000853826 18.1118 1.41593 14.7446 4.24608 12.282C5.44826 11.2517 6.56905 10.5733 7.60844 10.2466C8.64783 9.91994 9.74357 9.75661 10.8957 9.75661C12.0478 9.75661 12.987 9.95763 13.7133 10.3597C14.0639 9.63096 14.4647 9.2666 14.9155 9.2666C15.7921 9.2666 16.6248 9.64981 17.4138 10.4162C18.2027 11.1826 18.5972 11.9051 18.5972 12.5835C18.2465 13.4128 17.7331 14.4054 17.0569 15.5613C16.8565 16.7172 16.7563 18.3379 16.7563 20.4236C16.7563 22.5092 17.0193 23.5521 17.5453 23.5521C18.1964 23.5521 19.7743 22.2454 22.2789 19.6321C22.7297 19.1295 23.0553 18.8782 23.2556 18.8782ZM5.5234 21.1398C5.5234 23.0746 6.2372 24.0421 7.66479 24.0421C9.19257 24.017 10.4574 23.2003 11.4592 21.5921C11.8098 21.0392 12.0979 20.3608 12.3233 19.5567C12.3233 16.7423 12.5737 14.33 13.0746 12.3197C11.0459 12.7218 9.28023 13.7018 7.7775 15.2597C6.27477 16.8177 5.5234 18.7777 5.5234 21.1398Z" fill="white"/>
<path d="M39.8233 16.3149C39.8233 15.4857 39.3475 15.071 38.3957 15.071C37.7445 15.071 37.0182 15.7055 36.2168 16.9745C35.4153 18.2435 34.8393 19.6067 34.4886 21.0642V21.1395C34.4886 21.9939 34.6201 22.8734 34.8831 23.778C35.1461 24.6826 35.2776 25.3108 35.2776 25.6626C35.2776 26.517 34.2131 27.3588 32.0843 28.188C31.7587 28.3137 31.4706 28.3765 31.2202 28.3765C30.594 28.3765 30.162 28.0498 29.9241 27.3965C29.6861 26.7432 29.5672 25.8574 29.5672 24.7392C29.5672 23.621 29.5985 22.5656 29.6611 21.573C29.7237 20.5804 29.7863 19.6632 29.8489 18.8214C29.9115 17.9796 29.9742 17.2384 30.0368 16.5976C30.0994 15.9568 30.1307 15.4354 30.1307 15.0333C30.1307 14.179 29.7425 13.7518 28.9661 13.7518C28.1897 13.7518 27.288 14.6627 26.2612 16.4845C25.2343 18.3063 24.7209 19.7512 24.7209 20.8191C24.7209 21.8871 24.8523 22.8734 25.1153 23.778C25.3783 24.6826 25.5098 25.3108 25.5098 25.6626C25.5098 26.517 24.4454 27.3588 22.3165 28.188C21.9909 28.3137 21.7029 28.3765 21.4524 28.3765C20.8263 28.3765 20.3942 28.0498 20.1563 27.3965C19.9184 26.7432 19.7994 25.738 19.7994 24.3811C19.7994 20.8129 19.9372 18.2372 20.2127 16.6541C20.5883 14.3172 21.4399 12.1059 22.7673 10.0202C23.2181 9.31664 23.7065 8.96484 24.2325 8.96484C25.059 8.96484 25.8229 9.64331 26.5241 11.0002C26.7245 11.352 26.8748 11.6787 26.975 11.9802C28.1771 10.4725 29.5922 9.71869 31.2202 9.71869C32.2971 9.71869 33.2614 10.0768 34.1129 10.7929C34.9645 11.5091 35.3903 12.4074 35.3903 13.4879V13.9026C36.918 11.9928 38.7839 11.0379 40.9879 11.0379C42.3404 11.0379 43.3673 11.3897 44.0685 12.0933C44.7698 12.7969 45.1205 13.6638 45.1205 14.6941C45.1205 15.7244 45.0453 16.6541 44.895 17.4834C44.7448 18.3126 44.5757 19.0916 44.3879 19.8203C44.2 20.549 44.031 21.1961 43.8807 21.7615C43.7304 22.3269 43.6553 22.7666 43.6553 23.0807C43.6553 23.3948 43.7555 23.5519 43.9558 23.5519C44.3315 23.5519 44.7949 23.3131 45.3459 22.8357C45.8969 22.3583 46.4479 21.8368 46.9989 21.2715C47.5499 20.7061 48.057 20.1847 48.5204 19.7072C48.9837 19.2298 49.3031 18.9911 49.4784 18.9911C49.829 18.9911 50.0043 19.4182 50.0043 20.2726C50.0043 22.0316 49.1215 23.7403 47.3558 25.3988C45.5901 27.0573 43.7054 27.8865 41.7017 27.8865C39.8985 27.8865 38.9968 26.2406 38.9968 22.9488C38.9968 22.1195 39.1346 20.9762 39.4101 19.5188C39.6856 18.0613 39.8233 16.9934 39.8233 16.3149Z" fill="white"/>
<path d="M60.486 24.5692C58.5074 26.9062 56.1343 28.0746 53.3668 28.0746C50.5993 28.0746 48.5267 27.3647 47.1492 25.945C45.7717 24.5252 45.0955 22.76 45.1205 20.6492C45.0955 17.6589 46.0347 15.0833 47.9382 12.9222C49.8416 10.7612 52.3337 9.68066 55.4143 9.68066C56.8168 9.68066 57.9439 9.85656 58.7954 10.2084C60.2731 10.8114 61.012 11.3768 61.012 11.9045C61.012 12.3066 59.9788 12.5139 57.9126 12.5265C55.8463 12.539 54.1182 13.2552 52.7281 14.6749C51.3381 16.0947 50.6431 17.8851 50.6431 20.0461C50.6431 21.1769 50.9749 22.1255 51.6387 22.8919C52.3024 23.6583 53.2416 24.0415 54.4563 24.0415C55.671 24.0415 56.6791 23.7902 57.4805 23.2877C55.7023 22.0815 54.8132 20.3351 54.8132 18.0484C54.7881 16.8422 55.2202 15.7429 56.1093 14.7503C56.9984 13.7577 58.138 13.2552 59.528 13.2426C60.918 13.23 61.9136 13.6133 62.5147 14.3922C63.1158 15.1712 63.4163 16.1701 63.4163 17.3888C63.4163 18.6075 63.1283 19.8953 62.5523 21.2523H62.7777C63.8797 21.2271 64.8314 20.8377 65.6329 20.0838C65.9334 19.7823 66.1901 19.5184 66.403 19.2923C66.6159 19.0661 66.835 18.953 67.0605 18.953C67.4111 18.953 67.5864 19.3676 67.5864 20.1969C67.5864 21.7297 67.1356 22.8793 66.234 23.6458C65.3323 24.4122 64.3368 24.7954 63.2473 24.7954C62.1578 24.7954 61.2374 24.72 60.486 24.5692ZM60.1479 20.1969C60.5737 19.2923 60.7865 18.4128 60.7865 17.5584C60.7865 16.704 60.511 16.2769 59.96 16.2769C59.7346 16.2769 59.5468 16.4402 59.3965 16.7669C59.2462 17.0935 59.1711 17.4076 59.1711 17.7092C59.1711 18.7143 59.4967 19.5435 60.1479 20.1969Z" fill="white"/>
<path d="M149.341 24.2995C149.341 26.3851 147.657 28.0687 145.578 28.0687C143.506 28.0687 141.821 26.3788 141.821 24.2932C141.821 22.2075 143.506 20.5239 145.578 20.5239C147.663 20.5302 149.341 22.2201 149.341 24.2995Z" fill="white"/>
<path d="M106.833 19.5435C107.258 19.5435 107.471 20.1215 107.471 21.2774C107.471 21.9056 107.208 22.6657 106.682 23.5578C106.156 24.4499 105.474 25.2665 104.635 26.0078C103.796 26.7491 102.863 27.3585 101.836 27.8359C100.809 28.3133 99.8323 28.5521 98.9056 28.5521C97.979 28.5521 97.2526 28.3762 96.7267 28.0244C96.2007 27.6726 95.7875 27.1951 95.4869 26.592C95.0611 25.7377 94.7105 24.1106 94.435 21.7109C94.1595 19.3111 93.884 17.6338 93.6085 16.6789C92.9573 16.5533 92.3875 16.2957 91.8992 15.9062C91.4108 15.5167 91.1666 15.0393 91.1666 14.4739C91.1666 13.9085 91.4233 13.5002 91.9367 13.2489C92.4502 12.9976 93.0387 12.872 93.7024 12.872C94.3661 12.872 94.961 13.0353 95.4869 13.362C96.1882 12.784 96.758 12.0993 97.1963 11.3077C97.6346 10.5162 97.8537 9.44822 97.8537 8.10385C97.8537 6.75949 97.4029 5.68525 96.5013 4.88114C95.5996 4.07703 94.2785 3.67498 92.5378 3.67498C90.7971 3.67498 89.4635 3.81318 88.5368 4.0896C87.6101 4.36601 86.8149 4.66755 86.1512 4.99422C85.4875 5.32089 84.8989 5.62243 84.3855 5.89884C83.8721 6.17525 83.3899 6.31346 82.9391 6.31346C82.4883 6.31346 82.2629 6.16897 82.2629 5.87999C82.2629 5.59102 82.5008 5.11986 82.9767 4.46652C83.4525 3.81318 84.1538 3.15985 85.0805 2.50651C87.4097 0.873165 90.0395 0.062775 92.9698 0.0753392C95.9002 0.0879034 98.3171 0.647009 100.221 1.75266C102.45 3.05933 103.564 5.01935 103.564 7.6327C103.589 9.79374 103.026 11.5904 101.874 13.0227C100.721 14.455 99.2938 15.4853 97.5907 16.1135C97.9664 16.9428 98.2732 17.8348 98.5112 18.7897C98.7491 19.7446 98.9808 20.6241 99.2062 21.4282C99.4316 22.2323 99.6883 22.8982 99.9763 23.4259C100.264 23.9536 100.615 24.2174 101.028 24.2174C101.442 24.2174 101.942 23.9724 102.531 23.4824C103.12 22.9924 103.702 22.4584 104.278 21.8805C104.854 21.3025 105.374 20.7685 105.837 20.2785C106.3 19.7885 106.626 19.5435 106.833 19.5435ZM90.4903 5.97422C90.8159 5.97422 90.9787 6.40141 90.9787 7.25577C90.9787 8.11014 90.9286 8.91424 90.8285 9.66809C90.603 11.1255 90.315 12.4825 89.9644 13.7389C89.0627 17.1563 88.6119 19.1541 88.6119 19.732V25.2728C88.6119 26.6297 88.0985 27.5595 87.0716 28.0621C86.5958 28.2882 86.1387 28.5018 85.7004 28.7028C85.2621 28.9039 84.7674 29.0044 84.2164 29.0044C83.1645 29.0044 82.6386 27.7919 82.6386 25.367C82.6386 22.9422 83.2021 19.8828 84.3291 16.1889C85.4562 12.495 86.6333 9.68066 87.8606 7.74577C88.111 7.36885 88.4742 6.97936 88.95 6.5773C89.4259 6.17525 89.9393 5.97422 90.4903 5.97422Z" fill="white"/>
<path d="M139.179 19.5436C139.605 19.5436 139.818 20.1215 139.818 21.2774C139.818 21.9057 139.555 22.6658 139.029 23.5578C138.503 24.4499 137.82 25.2666 136.981 26.0079C136.142 26.7491 135.209 27.3585 134.182 27.836C133.155 28.3134 132.072 28.5521 130.933 28.5521C129.793 28.5521 128.904 28.1815 128.265 27.4402C127.627 26.6989 127.307 25.8697 127.307 24.9525C127.307 24.0353 127.458 22.9987 127.758 21.8428C128.059 20.6869 128.384 19.4808 128.735 18.2244C129.687 14.8823 130.175 12.5328 130.2 11.1758C130.2 10.5979 130.125 10.1519 129.975 9.83776C129.824 9.52366 129.536 9.3666 129.111 9.3666C128.359 9.3666 127.558 9.81891 126.706 10.7235C125.855 11.6282 125.053 12.7841 124.302 14.1912C122.574 17.4077 121.66 20.5487 121.559 23.6144C121.609 23.9662 121.66 24.318 121.71 24.6698C121.76 25.0216 121.785 25.3985 121.785 25.8006C121.785 26.6047 121.39 27.3397 120.601 28.0056C119.812 28.6715 118.93 29.0044 117.953 29.0044C117.377 29.0044 116.951 28.7217 116.675 28.1563C116.4 27.591 116.262 26.8936 116.262 26.0644C116.262 25.2352 116.45 24.1044 116.826 22.6721C117.201 21.2398 117.615 19.7195 118.065 18.1113C119.268 13.8646 119.881 10.6984 119.906 8.61275C119.906 7.55736 119.775 6.72813 119.512 6.12504C119.249 5.52196 118.742 5.22042 117.99 5.22042C116.638 5.22042 115.298 6.18787 113.971 8.12275C112.643 10.0576 111.453 13.0605 110.402 17.1313C110.126 18.1867 109.913 19.1038 109.763 19.8828L109.725 20.599C110.201 22.9108 110.439 24.4185 110.439 25.1221C110.439 26.5795 109.926 27.5595 108.899 28.0621C108.423 28.2883 107.966 28.5019 107.528 28.7029C107.089 28.9039 106.62 29.0044 106.119 29.0044C104.866 29.0044 104.24 27.8045 104.24 25.4048C104.24 23.005 104.904 18.3123 106.231 11.3266C106.707 8.81378 106.945 7.40659 106.945 7.10505C106.945 5.06965 106.432 4.05196 105.405 4.05196C105.054 4.05196 104.735 4.15247 104.447 4.3535C104.159 4.55452 103.871 4.76811 103.583 4.99427C103.295 5.22042 103.001 5.43402 102.7 5.63504C102.399 5.83607 102.055 5.93658 101.667 5.93658C101.279 5.93658 101.085 5.59735 101.085 4.91888C101.085 3.53682 101.723 2.40605 103.001 1.52655C104.228 0.621934 105.718 0.169623 107.471 0.169623C109.725 0.169623 111.053 1.22501 111.453 3.3358C111.554 3.96401 111.629 4.62991 111.679 5.3335C113.532 1.84066 115.874 0.0942383 118.704 0.0942383C121.785 0.0942383 123.55 1.57681 124.001 4.54196C124.152 5.39632 124.214 6.31351 124.189 7.29351V7.59505C125.817 5.3335 127.746 4.20273 129.975 4.20273C133.13 4.20273 134.708 6.11248 134.708 9.93199C134.708 11.5905 134.452 13.5316 133.938 15.7555C133.425 17.9794 133.049 19.575 132.811 20.5424C132.573 21.5099 132.454 22.2575 132.454 22.7851C132.454 23.74 132.786 24.2175 133.45 24.2175C134.113 24.2175 135.698 22.9108 138.202 20.2974C138.653 19.7949 138.979 19.5436 139.179 19.5436Z" fill="white"/>
<path d="M85.6691 14.5368C86.3015 14.5368 86.6208 15.1398 86.6208 16.3523C86.6208 17.5647 86.3516 18.8651 85.8006 20.2535C85.2559 21.6418 84.4294 22.9862 83.3211 24.274C82.2128 25.5618 80.7978 26.6675 79.0759 27.5784C77.354 28.4956 75.319 28.9479 72.9835 28.9479C70.6418 28.9479 68.6006 28.1626 66.8411 26.5984C65.0817 25.0279 64.2051 22.7663 64.2051 19.8074C64.2051 16.8486 64.6183 14.1724 65.4448 11.7664C66.2713 9.3666 67.3608 7.28723 68.7133 5.5408C70.0657 3.79438 71.606 2.43117 73.3279 1.45745C75.0498 0.483721 76.684 0 78.2306 0C80.9355 0 82.2942 1.21244 82.2942 3.63105C82.2942 5.01939 82.0375 6.13132 81.5303 6.96684C81.0169 7.80236 80.5035 8.21698 79.9775 8.21698C79.2762 8.21698 78.6564 7.94056 78.1304 7.38146C77.6044 6.82863 77.0221 6.53966 76.3897 6.52081C75.7573 6.50196 74.0355 6.45171 72.5766 8.80749C71.556 10.4534 71.7125 10.2901 71.3243 11.3957C70.5541 13.6196 70.097 15.3283 70.097 18.306C70.1346 19.7383 71.4057 21.9245 72.5327 22.6344C73.3029 23.1118 74.2296 23.5076 75.2752 23.3757C77.5356 23.093 78.8004 22.0187 79.7271 21.0262C80.5786 20.109 81.33 19.242 82.1377 18.306C82.9454 17.3763 83.6592 16.5093 84.2728 15.7178C84.8864 14.9388 85.3498 14.5368 85.6691 14.5368Z" fill="white"/>
</g>
</svg>
