<svg width="131" height="26" viewBox="0 0 131 26" fill="none" xmlns="http://www.w3.org/2000/svg">
<path d="M10.2497 4.66882C8.70767 4.66882 8.26019 5.3453 8.26019 6.82939V9.29691H12.3752L11.964 13.2843H8.26019V25.3805H3.32279V13.2843H-6.10352e-05V9.29691H3.32279V6.89793C3.32279 2.87779 4.9706 0.75 9.56333 0.75C10.5581 0.75 11.7221 0.818542 12.4417 0.916885V4.66882" fill="#8B9092"/>
<path d="M12.7169 16.8304C12.7169 12.3365 14.8756 8.95703 19.4019 8.95703C21.8691 8.95703 23.3778 10.2087 24.0974 11.7613V9.29378H28.8292V25.3744H24.0974V22.9426C23.411 24.4952 21.8691 25.7111 19.4019 25.7111C14.8756 25.7111 12.7169 22.3347 12.7169 17.8407V16.8304ZM17.6543 17.9122C17.6543 20.3112 18.5462 21.8966 20.8411 21.8966C22.8638 21.8966 23.8918 20.4453 23.8918 18.1476V16.5265C23.8918 14.2288 22.8638 12.7745 20.8411 12.7745C18.5462 12.7745 17.6543 14.3629 17.6543 16.7619V17.9122Z" fill="#8B9092"/>
<path d="M39.1092 8.95703C41.0291 8.95703 42.8462 9.36232 43.838 10.0388L42.7404 13.4838C41.9876 13.1113 40.754 12.7418 39.4508 12.7418C36.775 12.7418 35.611 14.2616 35.611 16.8632V17.8079C35.611 20.4095 36.775 21.9294 39.4508 21.9294C40.754 21.9294 41.9876 21.5569 42.7404 21.1873L43.838 24.6323C42.8462 25.3088 41.0261 25.7141 39.1092 25.7141C33.3161 25.7141 30.6766 22.6386 30.6766 17.7066V16.9645C30.6766 12.0325 33.3161 8.95703 39.1092 8.95703Z" fill="#8B9092"/>
<path d="M44.491 17.945V16.5265C44.491 11.9669 47.1306 8.95703 52.5124 8.95703C57.5859 8.95703 59.8112 11.9997 59.8112 16.4579V19.0238H49.4254C49.5282 21.2201 50.5229 22.2006 53.2653 22.2006C55.1157 22.2006 57.0719 21.8281 58.5111 21.2231L59.4 24.5668C58.0999 25.2432 55.4241 25.7499 53.0597 25.7499C46.8222 25.7499 44.491 22.6774 44.491 17.945ZM49.4254 15.85H55.3908V15.4447C55.3908 13.6864 54.6712 12.3037 52.5124 12.3037C50.2811 12.3037 49.4254 13.6894 49.4254 15.85Z" fill="#8B9092"/>
<path d="M78.1156 17.8437C78.1156 22.3377 75.9235 25.7172 71.3973 25.7172C68.9301 25.7172 67.2158 24.5013 66.5295 22.9457V25.3774H61.8672V1.22079L66.8046 0.782715V11.526C67.5242 10.1074 69.0994 8.96009 71.3973 8.96009C75.9235 8.96009 78.1156 12.3365 78.1156 16.8305V17.8437ZM73.1812 16.7292C73.1812 14.4643 72.2893 12.7776 69.9249 12.7776C67.9021 12.7776 66.8046 14.1961 66.8046 16.4938V18.1835C66.8046 20.4811 67.9021 21.8997 69.9249 21.8997C72.2893 21.8997 73.1812 20.2099 73.1812 17.9451V16.7292Z" fill="#8B9092"/>
<path d="M79.7604 17.7423V16.9318C79.7604 12.3037 82.4332 8.95703 87.8846 8.95703C93.333 8.95703 96.0088 12.3037 96.0088 16.9318V17.7423C96.0088 22.3734 93.333 25.7171 87.8846 25.7171C82.4332 25.7171 79.7604 22.3734 79.7604 17.7423ZM91.0714 16.595C91.0714 14.4672 90.1794 12.7775 87.8846 12.7775C85.5867 12.7775 84.6978 14.4672 84.6978 16.595V18.0821C84.6978 20.2099 85.5867 21.8996 87.8846 21.8996C90.1794 21.8996 91.0714 20.2099 91.0714 18.0821V16.595Z" fill="#8B9092"/>
<path d="M97.6505 17.7423V16.9318C97.6505 12.3037 100.323 8.95703 105.775 8.95703C111.223 8.95703 113.899 12.3037 113.899 16.9318V17.7423C113.899 22.3734 111.223 25.7171 105.775 25.7171C100.323 25.7171 97.6505 22.3734 97.6505 17.7423ZM108.965 16.595C108.965 14.4672 108.073 12.7775 105.778 12.7775C103.48 12.7775 102.591 14.4672 102.591 16.595V18.0821C102.591 20.2099 103.48 21.8996 105.778 21.8996C108.073 21.8996 108.965 20.2099 108.965 18.0821V16.595Z" fill="#8B9092"/>
<path d="M120.684 16.9646L125.552 9.29684H130.797L125.688 17.2358L131 25.3774H125.757L120.684 17.507V25.3774H115.749V1.22079L120.684 0.782715" fill="#8B9092"/>
</svg>
