<svg width="166" height="26" viewBox="0 0 166 26" fill="none" xmlns="http://www.w3.org/2000/svg">
<path d="M164.1 19.5181V10.5186H153.206V11.13C153.206 15.4695 152.856 17.4641 152.144 19.5181H150.719V25.6206H154.827L154.898 23.0739H161.571V25.6206H165.649L165.75 19.5181H164.1ZM159.671 19.5181H156.323C156.774 18.0637 157.136 16.4608 157.184 14.2288V14.0269H159.677V19.5181H159.671Z" fill="#6D7173"/>
<path d="M81.4122 9.7465C84.3863 9.7465 85.811 8.48206 86.1612 6.27967L82.7953 5.79883C82.6351 6.62992 82.2254 7.15232 81.4122 7.15232C80.5989 7.15232 80.1893 6.62992 80.029 5.79883L76.6631 6.27967C77.0133 8.47612 78.4262 9.7465 81.4122 9.7465Z" fill="#6D7173"/>
<path d="M66.2804 10.2393C62.2437 10.2393 59.3171 13.2371 59.3171 16.8108C59.3171 20.4201 62.214 23.3823 66.2329 23.3823C70.2696 23.3823 73.1785 20.3845 73.1785 16.8108C73.1844 13.1956 70.2815 10.2393 66.2804 10.2393ZM66.2804 19.6068C64.7192 19.6068 63.615 18.3246 63.615 16.8108C63.615 15.2673 64.636 14.0148 66.2389 14.0148C67.7823 14.0148 68.9043 15.297 68.9043 16.8108C68.8983 18.3483 67.8832 19.6068 66.2804 19.6068Z" fill="#6D7173"/>
<path d="M144.682 10.5192V12.0507C143.868 11.1069 142.758 10.2461 140.853 10.2461C137.879 10.2461 135.302 12.7394 135.302 16.8176C135.302 20.884 137.879 23.3595 140.882 23.3595C142.764 23.3595 143.827 22.4572 144.682 21.4064V23.0805H149.081V10.5192H144.682ZM142.218 19.6611C140.776 19.6611 139.642 18.4798 139.642 16.8236C139.642 15.0902 140.776 13.9266 142.218 13.9266C143.631 13.9266 144.765 15.1198 144.765 16.782C144.771 18.4857 143.631 19.6611 142.218 19.6611Z" fill="#6D7173"/>
<path d="M79.2988 16.8349C79.3107 16.0751 79.3107 15.1727 79.3107 14.5494V10.5127H75.0424V23.0681H79.1088L83.3058 16.7459C83.294 17.4582 83.2939 18.1884 83.2939 18.972V23.0621H87.5622V10.5186H83.4958L79.2988 16.8349Z" fill="#6D7173"/>
<path d="M122.676 12.9347C122.664 18.5565 121.845 19.1263 121.061 19.1263C120.942 19.1263 120.83 19.1263 120.349 19.067L120.147 22.9256L115.546 16.2235L120.034 10.5127H114.953L111.587 15.3508V10.5127H107.188V23.0681H111.587V17.7135L115.053 23.074H120.283C120.835 23.1631 121.667 23.2343 122.088 23.2343C124.753 23.2343 126.445 22.0114 126.576 14.4248V14.033H129.111V23.08H133.521V10.5186H122.711L122.676 12.9347Z" fill="#6D7173"/>
<path d="M99.0372 19.1381C96.8408 19.1381 95.1192 17.4759 95.1192 14.9114C95.1192 12.5784 96.7636 10.7144 99.1381 10.7144C100.551 10.7144 101.614 11.2962 102.504 12.5369L105.84 10.103C104.255 7.82933 102.011 6.49365 98.9363 6.49365C93.9676 6.49365 90.3879 10.2929 90.3879 14.9114C90.3879 19.8623 93.9972 23.3766 98.7166 23.3766C102.273 23.3766 104.309 21.8451 105.923 19.6605L102.528 17.185C101.643 18.4673 100.581 19.1381 99.0372 19.1381Z" fill="#6D7173"/>
<path d="M4.39404 23.8458C8.36546 23.8458 11.3693 18.6693 14.0644 13.0238C15.3585 10.2872 16.5695 7.41397 17.7805 4.986C19.1043 2.28496 20.4637 0.379395 22.1319 0.379395C23.5447 0.379395 24.8745 1.51917 26.1983 3.30602C28.9409 7.01623 31.3095 13.2969 31.3095 17.4167C31.3095 20.8657 29.5345 23.8399 25.8896 23.8399H4.39404V23.8458Z" fill="#8A8F91"/>
<path d="M14.0643 13.0236C11.3336 7.52061 10.0988 3.48389 7.6827 3.48389C6.18081 3.48389 4.49488 5.05702 2.9633 7.6334C1.32487 10.3701 0.0366821 14.2287 0.0366821 18.3841C0.0366821 21.6669 1.6395 23.8456 4.39396 23.8456C8.36538 23.8456 11.3692 18.6691 14.0643 13.0236Z" fill="#6D7173"/>
<path d="M52.4132 6.77344C52.4132 6.77344 49.819 12.3952 49.4569 13.1253C49.0947 13.8555 48.3646 15.5592 48.3646 15.5592C48.3646 15.5592 47.7947 14.2354 47.302 13.2025C46.8092 12.1696 44.3041 6.77937 44.3041 6.77937H41.4131L38.2965 23.0806H42.6835L44.1082 15.2031L48.0974 23.6208H48.608L52.5853 15.1318L54.01 23.0865H58.4207L55.3042 6.78531H52.4132V6.77344Z" fill="#6D7173"/>
</svg>
