<svg width="120" height="24" viewBox="0 0 120 24" fill="none" xmlns="http://www.w3.org/2000/svg">
<g opacity="0.5">
<path d="M31.1511 18.0656H30.0411V5.85547H23.5483V7.04865C23.5483 10.7674 23.4091 15.0962 22.1327 18.0656H21.2722V22.4951H23.2156V19.8418H29.2086V22.4951H31.152V18.0656H31.1511ZM40.5591 18.8981L40.0601 17.2331C39.5042 17.6218 38.5334 18.1768 37.3113 18.1768C35.5912 18.1768 34.7035 16.5117 34.7035 13.348H40.5311V12.1557C40.5311 7.41106 39.0052 5.66201 36.674 5.66201C33.7047 5.66201 32.4555 8.93601 32.4555 13.4321C32.4555 17.7338 34.2325 20.037 37.1179 20.037C38.5054 20.037 39.6705 19.5932 40.5582 18.899L40.5591 18.8981ZM17.8861 5.85547V11.7942H14.6682V5.85547H12.5033V19.8418H14.6682V13.5704H17.887V19.8418H20.023V5.85547H17.887H17.8861ZM48.6075 19.8418H50.9659L46.9977 12.4324L50.4669 5.85547H48.2722L44.9151 12.3212V5.85547H42.7502V19.8418H44.9151V12.8762L48.6067 19.8418H48.6075ZM56.0441 20.0361C57.3213 20.0361 58.2089 19.6194 58.9583 18.9813L58.4593 17.3723C57.9594 17.8161 57.155 18.2319 56.1001 18.2319C54.3519 18.2319 53.5194 16.2342 53.5194 12.7379C53.5194 9.21352 54.6294 7.46534 56.1833 7.46534C57.0709 7.46534 57.9034 7.93718 58.4856 8.43704L58.792 6.38246C58.1809 5.99466 57.4596 5.66113 56.2113 5.66113C52.9364 5.66113 51.2434 8.46417 51.2434 12.8482C51.2434 17.6218 53.0467 20.0352 56.0441 20.0352V20.0361ZM27.906 18.0665H24.1873C25.3525 15.0962 25.4916 10.7954 25.4916 7.85402V7.60365H27.906V18.0656V18.0665ZM36.6732 7.43733C37.9215 7.43733 38.3102 9.1855 38.3102 11.5719H34.7298C34.8698 9.07433 35.3408 7.43733 36.6732 7.43733Z" fill="white"/>
<path d="M71.2108 2.38212H67.2228C67.1857 4.45618 67.1363 6.29092 67.0744 7.88635C67.0126 9.46405 66.9199 10.8468 66.7962 12.0345C66.6849 13.2222 66.5427 14.2326 66.3696 15.0658C66.1964 15.8989 65.98 16.5992 65.7204 17.1664H71.2108V2.38212ZM72.6762 19.2937H64.7002L64.5332 23.4152H63.1235V17.1664H64.0139C64.3601 16.6346 64.6322 15.9078 64.83 14.986C65.0402 14.0465 65.2072 12.8854 65.3308 11.5027C65.4545 10.1199 65.541 8.49793 65.5905 6.6366C65.6523 4.77526 65.7018 2.64803 65.7389 0.254883H72.8431V17.1664H74.2529V23.4152H72.8431L72.6762 19.2937Z" fill="white"/>
<path d="M76.206 5.49321H77.727V14.2947L77.7085 15.9167L81.7707 5.49321H83.3288V19.2937H81.8078V11.4229L81.8449 8.92338L77.7827 19.2937H76.206V5.49321Z" fill="white"/>
<path d="M89.8308 17.5653C90.5356 17.5653 91.1107 17.1664 91.5558 16.3687C92.001 15.5533 92.2236 14.2237 92.2236 12.3801C92.2236 11.4583 92.1618 10.6695 92.0381 10.0136C91.9268 9.35769 91.7661 8.82588 91.5558 8.41816C91.3456 7.99271 91.0921 7.68249 90.7953 7.48749C90.5109 7.2925 90.1956 7.195 89.8493 7.195C89.4907 7.195 89.1568 7.2925 88.8477 7.48749C88.5509 7.68249 88.2912 7.98385 88.0686 8.39157C87.846 8.79929 87.6667 9.33996 87.5307 10.0136C87.4071 10.6695 87.3452 11.4583 87.3452 12.3801C87.3452 14.1706 87.5802 15.4824 88.0501 16.3155C88.5324 17.1487 89.1259 17.5653 89.8308 17.5653ZM90.109 19.5596C89.5278 19.5596 89.0023 19.3646 88.5324 18.9746C88.0625 18.5669 87.6729 17.9907 87.3638 17.2462V24.0002H85.8428V5.49321H87.2154L87.3081 7.72681C87.6049 6.96455 88.0006 6.36183 88.4953 5.91865C89.0023 5.45775 89.5835 5.2273 90.2389 5.2273C90.6964 5.2273 91.1416 5.36912 91.5744 5.65275C92.0072 5.91865 92.3844 6.3441 92.7059 6.92909C93.0397 7.49636 93.3056 8.23203 93.5035 9.1361C93.7013 10.0402 93.8003 11.1215 93.8003 12.3801C93.8003 13.6388 93.7013 14.7201 93.5035 15.6242C93.3056 16.5283 93.0336 17.2728 92.6873 17.8578C92.3534 18.4428 91.9639 18.8771 91.5187 19.1607C91.0736 19.4266 90.6037 19.5596 90.109 19.5596Z" fill="white"/>
<path d="M99.1634 7.195C98.5327 7.195 98.0071 7.49636 97.5867 8.09907C97.1663 8.70179 96.9066 9.70337 96.8076 11.1038H101.13C101.154 10.3947 101.123 9.792 101.037 9.29564C100.963 8.78156 100.833 8.37384 100.647 8.07248C100.474 7.77112 100.258 7.54954 99.9981 7.40772C99.7507 7.26591 99.4725 7.195 99.1634 7.195ZM102.521 18.2035C102.273 18.4871 101.896 18.7884 101.389 19.1075C100.895 19.4089 100.258 19.5596 99.4787 19.5596C96.6345 19.5596 95.2124 17.1664 95.2124 12.3801C95.2124 11.1924 95.3114 10.1554 95.5092 9.26905C95.7071 8.36498 95.9791 7.62044 96.3254 7.03545C96.684 6.43274 97.1044 5.9807 97.5867 5.67934C98.0813 5.37798 98.6131 5.2273 99.1819 5.2273C99.7755 5.2273 100.307 5.38684 100.777 5.70593C101.259 6.00729 101.655 6.47705 101.964 7.11523C102.273 7.73567 102.484 8.53338 102.595 9.50837C102.719 10.4834 102.719 11.6356 102.595 12.9651H96.7705C96.82 14.6137 97.0673 15.7926 97.5125 16.5017C97.97 17.2107 98.6564 17.5653 99.5714 17.5653C100.165 17.5653 100.672 17.4323 101.092 17.1664C101.513 16.8828 101.865 16.5726 102.15 16.2358L102.521 18.2035Z" fill="white"/>
<path d="M106.835 13.364H106.148V19.2937H104.627V5.49321H106.148V11.4495H106.872L109.765 5.49321H111.472L108.096 12.327L111.546 19.2937H109.71L106.835 13.364Z" fill="white"/>
<path d="M116.517 7.38113V19.2937H114.996V7.38113H112.474V5.49321H119.04V7.38113H116.517Z" fill="white"/>
<path d="M7.79192 12.2381V19.8419H9.9279V0H6.73706C3.60136 0 0.964651 2.08171 0.964651 6.24425C0.964651 9.21361 2.13069 10.8226 3.87887 11.7111L0.160156 19.8419H2.62967L6.01573 12.2381H7.79192ZM7.79192 10.4619H6.65389C4.79454 10.4619 3.26784 9.43509 3.26784 6.24425C3.26784 2.94223 4.93285 1.8042 6.65389 1.8042H7.79192V10.4619Z" fill="white"/>
</g>
</svg>
