<svg width="642" height="560" viewBox="0 0 642 560" fill="none" xmlns="http://www.w3.org/2000/svg">
<rect opacity="0.25" x="0.5" y="88.5" width="258" height="71" stroke="white"/>
<rect opacity="0.25" x="0.5" y="168.5" width="258" height="71" stroke="white"/>
<rect opacity="0.25" x="0.5" y="248.5" width="258" height="71" stroke="white"/>
<rect opacity="0.25" x="0.5" y="328.5" width="258" height="71" stroke="white"/>
<rect opacity="0.25" x="0.5" y="408.5" width="258" height="71" stroke="white"/>
<rect opacity="0.5" x="0.5" y="488.5" width="258" height="71" stroke="#EDBD3C"/>
<path d="M104.758 116H108.384C110.106 116 111.324 114.824 111.324 113.06C111.324 111.156 110.05 110.078 108.314 110.078H106.144V107.32H110.596V106.116H104.758V116ZM106.144 114.796V111.282H108.132C109.224 111.282 109.924 111.968 109.924 113.06C109.924 114.138 109.266 114.796 108.16 114.796H106.144ZM112.983 116H114.341V113.004H115.629C115.881 114.852 117.379 116.168 119.255 116.168C121.299 116.168 122.937 114.6 122.937 112.444C122.937 110.302 121.299 108.748 119.241 108.748C117.379 108.748 115.881 110.05 115.629 111.884H114.341V108.916H112.983V116ZM116.945 112.444C116.945 110.974 117.967 109.924 119.255 109.924C120.529 109.924 121.551 110.974 121.551 112.444C121.551 113.928 120.529 114.992 119.255 114.992C117.967 114.992 116.945 113.928 116.945 112.444ZM125.785 114.88C126.681 113.48 126.793 111.464 126.793 110.4V110.022H128.921V114.88H125.785ZM123.517 114.88V117.68H124.791V116H130.041V117.68H131.287V114.88H130.279V108.916H125.491V110.218C125.491 111.31 125.379 113.522 124.385 114.88H123.517ZM131.899 116H133.411L135.273 112.976H136.281V116H137.569V112.976H138.591L140.439 116H141.965L139.683 112.36V112.332L141.755 108.916H140.327L138.577 111.814H137.569V108.916H136.281V111.814H135.273L133.537 108.916H132.095L134.181 112.332V112.36L131.899 116ZM142.558 112.458C142.558 114.558 144.098 116.168 146.324 116.168C147.304 116.168 148.382 115.79 149.068 115.16L148.494 114.166C147.934 114.67 147.164 114.992 146.408 114.992C145.134 114.992 144.042 114.166 143.972 112.64H149.124C149.152 112.444 149.18 112.248 149.18 112.066C149.18 110.246 148.116 108.748 146.114 108.748C144.098 108.748 142.558 110.204 142.558 112.458ZM144.014 111.66C144.21 110.484 145.036 109.798 146.086 109.798C147.01 109.798 147.766 110.442 147.808 111.66H144.014ZM152.439 116H153.783V110.078H156.261V108.916H149.975V110.078H152.439V116Z" fill="#3DAFCC"/>
<path d="M319.644 130H321.408V118.84H325.782V117.292H315.27V118.84H319.644V130ZM325.108 125.428C325.108 128.2 327.304 130.216 330.022 130.216C332.722 130.216 334.918 128.2 334.918 125.428C334.918 122.674 332.722 120.676 330.004 120.676C327.304 120.676 325.108 122.674 325.108 125.428ZM326.89 125.428C326.89 123.538 328.294 122.188 330.022 122.188C331.732 122.188 333.154 123.538 333.154 125.428C333.154 127.336 331.732 128.704 330.022 128.704C328.294 128.704 326.89 127.336 326.89 125.428ZM335.786 130.09C338.468 129.946 339.512 127.822 339.512 123.7V122.332H342.194V130H343.94V120.892H337.838V123.7C337.838 126.994 337.118 128.326 335.786 128.524V130.09ZM346.637 130H350.183C352.487 130 353.531 128.83 353.531 127.12C353.531 125.05 352.109 124.186 350.219 124.186H348.383V120.892H346.637V130ZM348.383 128.74V125.446H349.949C351.209 125.446 351.749 126.13 351.749 127.102C351.749 128.056 351.209 128.74 349.949 128.74H348.383ZM355.409 130H357.155V126.058H358.469L361.187 130H363.257L359.855 125.266V125.23L362.897 120.892H360.917L358.433 124.564H357.155V120.892H355.409V130ZM363.832 125.428C363.832 128.2 366.028 130.216 368.746 130.216C371.446 130.216 373.642 128.2 373.642 125.428C373.642 122.674 371.446 120.676 368.728 120.676C366.028 120.676 363.832 122.674 363.832 125.428ZM365.614 125.428C365.614 123.538 367.018 122.188 368.746 122.188C370.456 122.188 371.878 123.538 371.878 125.428C371.878 127.336 370.456 128.704 368.746 128.704C367.018 128.704 365.614 127.336 365.614 125.428ZM379.652 125.446C379.652 128.182 381.65 130.216 384.53 130.216C385.952 130.216 387.338 129.64 388.166 128.758L387.464 127.48C386.762 128.218 385.664 128.704 384.656 128.704C382.766 128.704 381.434 127.282 381.434 125.428C381.434 123.574 382.766 122.188 384.602 122.188C385.556 122.188 386.51 122.62 387.122 123.232L387.95 122.008C387.086 121.09 385.736 120.676 384.53 120.676C381.668 120.676 379.652 122.746 379.652 125.446ZM393.961 125.428C393.961 128.2 396.157 130.216 398.875 130.216C401.575 130.216 403.771 128.2 403.771 125.428C403.771 122.674 401.575 120.676 398.857 120.676C396.157 120.676 393.961 122.674 393.961 125.428ZM395.743 125.428C395.743 123.538 397.147 122.188 398.875 122.188C400.585 122.188 402.007 123.538 402.007 125.428C402.007 127.336 400.585 128.704 398.875 128.704C397.147 128.704 395.743 127.336 395.743 125.428ZM407.429 128.56C408.581 126.76 408.725 124.168 408.725 122.8V122.314H411.461V128.56H407.429ZM404.513 128.56V132.16H406.151V130H412.901V132.16H414.503V128.56H413.207V120.892H407.051V122.566C407.051 123.97 406.907 126.814 405.629 128.56H404.513ZM416.334 130H418.08V126.094H422.688V130H424.434V120.892H422.688V124.6H418.08V120.892H416.334V130ZM426.533 125.428C426.533 128.2 428.729 130.216 431.447 130.216C434.147 130.216 436.343 128.2 436.343 125.428C436.343 122.674 434.147 120.676 431.429 120.676C428.729 120.676 426.533 122.674 426.533 125.428ZM428.315 125.428C428.315 123.538 429.719 122.188 431.447 122.188C433.157 122.188 434.579 123.538 434.579 125.428C434.579 127.336 433.157 128.704 431.447 128.704C429.719 128.704 428.315 127.336 428.315 125.428ZM442.462 119.848C443.866 119.848 445.126 119.02 445.126 117.544V117.274H443.74V117.508C443.74 118.318 443.092 118.714 442.462 118.714C441.832 118.714 441.202 118.318 441.202 117.526V117.274H439.798V117.544C439.798 119.02 441.076 119.848 442.462 119.848ZM438.448 130H440.122L444.064 124.564C444.352 124.132 444.802 123.52 444.856 123.358H444.892C444.892 123.502 444.838 124.132 444.838 124.564V130H446.53V120.892H444.838L440.914 126.328C440.608 126.76 440.176 127.39 440.104 127.552H440.068C440.086 127.462 440.122 126.814 440.122 126.328V120.892H438.448V130ZM453.705 130H455.451V126.058H456.765L459.483 130H461.553L458.151 125.266V125.23L461.193 120.892H459.213L456.729 124.564H455.451V120.892H453.705V130ZM462.129 125.428C462.129 128.2 464.325 130.216 467.043 130.216C469.743 130.216 471.939 128.2 471.939 125.428C471.939 122.674 469.743 120.676 467.025 120.676C464.325 120.676 462.129 122.674 462.129 125.428ZM463.911 125.428C463.911 123.538 465.315 122.188 467.043 122.188C468.753 122.188 470.175 123.538 470.175 125.428C470.175 127.336 468.753 128.704 467.043 128.704C465.315 128.704 463.911 127.336 463.911 125.428ZM474.043 130H475.789V126.094H480.397V130H482.143V120.892H480.397V124.6H475.789V120.892H474.043V130ZM487.032 130H488.76V122.386H491.946V120.892H483.864V122.386H487.032V130ZM492.768 125.446C492.768 128.146 494.748 130.216 497.61 130.216C498.87 130.216 500.256 129.73 501.138 128.92L500.4 127.642C499.68 128.29 498.69 128.704 497.718 128.704C496.08 128.704 494.676 127.642 494.586 125.68H501.21C501.246 125.428 501.282 125.176 501.282 124.942C501.282 122.602 499.914 120.676 497.34 120.676C494.748 120.676 492.768 122.548 492.768 125.446ZM494.64 124.42C494.892 122.908 495.954 122.026 497.304 122.026C498.492 122.026 499.464 122.854 499.518 124.42H494.64ZM503.381 130H505.127V126.058H506.441L509.159 130H511.229L507.827 125.266V125.23L510.869 120.892H508.889L506.405 124.564H505.127V120.892H503.381V130ZM511.805 125.446C511.805 128.182 513.803 130.216 516.683 130.216C518.105 130.216 519.491 129.64 520.319 128.758L519.617 127.48C518.915 128.218 517.817 128.704 516.809 128.704C514.919 128.704 513.587 127.282 513.587 125.428C513.587 123.574 514.919 122.188 516.755 122.188C517.709 122.188 518.663 122.62 519.275 123.232L520.103 122.008C519.239 121.09 517.889 120.676 516.683 120.676C513.821 120.676 511.805 122.746 511.805 125.446ZM524.403 130H526.131V122.386H529.317V120.892H521.235V122.386H524.403V130ZM531.032 130H532.778V126.094H537.386V130H539.132V120.892H537.386V124.6H532.778V120.892H531.032V130ZM541.231 125.428C541.231 128.2 543.427 130.216 546.145 130.216C548.845 130.216 551.041 128.2 551.041 125.428C551.041 122.674 548.845 120.676 546.127 120.676C543.427 120.676 541.231 122.674 541.231 125.428ZM543.013 125.428C543.013 123.538 544.417 122.188 546.145 122.188C547.855 122.188 549.277 123.538 549.277 125.428C549.277 127.336 547.855 128.704 546.145 128.704C544.417 128.704 543.013 127.336 543.013 125.428ZM557.159 119.848C558.563 119.848 559.823 119.02 559.823 117.544V117.274H558.437V117.508C558.437 118.318 557.789 118.714 557.159 118.714C556.529 118.714 555.899 118.318 555.899 117.526V117.274H554.495V117.544C554.495 119.02 555.773 119.848 557.159 119.848ZM553.145 130H554.819L558.761 124.564C559.049 124.132 559.499 123.52 559.553 123.358H559.589C559.589 123.502 559.535 124.132 559.535 124.564V130H561.227V120.892H559.535L555.611 126.328C555.305 126.76 554.873 127.39 554.801 127.552H554.765C554.783 127.462 554.819 126.814 554.819 126.328V120.892H553.145V130ZM567.809 125.446C567.809 128.182 569.807 130.216 572.687 130.216C574.109 130.216 575.495 129.64 576.323 128.758L575.621 127.48C574.919 128.218 573.821 128.704 572.813 128.704C570.923 128.704 569.591 127.282 569.591 125.428C569.591 123.574 570.923 122.188 572.759 122.188C573.713 122.188 574.667 122.62 575.279 123.232L576.107 122.008C575.243 121.09 573.893 120.676 572.687 120.676C569.825 120.676 567.809 122.746 567.809 125.446ZM578.211 130H579.885L583.827 124.564C584.115 124.132 584.565 123.52 584.619 123.358H584.655C584.655 123.502 584.601 124.132 584.601 124.564V130H586.293V120.892H584.601L580.677 126.328C580.371 126.76 579.939 127.39 579.867 127.552H579.831C579.849 127.462 579.885 126.814 579.885 126.328V120.892H578.211V130ZM588.375 125.446C588.375 128.182 590.373 130.216 593.253 130.216C594.675 130.216 596.061 129.64 596.889 128.758L596.187 127.48C595.485 128.218 594.387 128.704 593.379 128.704C591.489 128.704 590.157 127.282 590.157 125.428C590.157 123.574 591.489 122.188 593.325 122.188C594.279 122.188 595.233 122.62 595.845 123.232L596.673 122.008C595.809 121.09 594.459 120.676 593.253 120.676C590.391 120.676 588.375 122.746 588.375 125.446ZM600.974 130H602.702V122.386H605.888V120.892H597.806V122.386H600.974V130ZM606.709 125.446C606.709 128.146 608.689 130.216 611.551 130.216C612.811 130.216 614.197 129.73 615.079 128.92L614.341 127.642C613.621 128.29 612.631 128.704 611.659 128.704C610.021 128.704 608.617 127.642 608.527 125.68H615.151C615.187 125.428 615.223 125.176 615.223 124.942C615.223 122.602 613.855 120.676 611.281 120.676C608.689 120.676 606.709 122.548 606.709 125.446ZM608.581 124.42C608.833 122.908 609.895 122.026 611.245 122.026C612.433 122.026 613.405 122.854 613.459 124.42H608.581ZM616.945 130H618.637L619.033 124.582C619.069 124.042 619.015 123.016 619.015 123.016H619.051C619.051 123.016 619.339 123.7 619.627 124.366L621.787 128.902H623.281L625.441 124.348C625.783 123.646 626.017 123.016 626.017 123.016H626.053C626.053 123.016 626.017 124.042 626.035 124.582L626.431 130H628.123L627.331 120.892H625.423L623.047 126.04C622.813 126.598 622.543 127.264 622.543 127.264H622.507C622.507 127.264 622.255 126.58 622.003 126.04L619.681 120.892H617.737L616.945 130ZM638.715 130H640.461V120.892H638.715V130ZM630.471 130H633.981C636.267 130 637.311 128.83 637.311 127.12C637.311 125.05 635.889 124.186 633.999 124.186H632.217V120.892H630.471V130ZM632.217 128.74V125.446H633.729C634.989 125.446 635.547 126.13 635.547 127.102C635.547 128.056 635.007 128.74 633.747 128.74H632.217Z" fill="white"/>
<path d="M319.644 290H321.408V278.84H325.782V277.292H315.27V278.84H319.644V290ZM325.108 285.428C325.108 288.2 327.304 290.216 330.022 290.216C332.722 290.216 334.918 288.2 334.918 285.428C334.918 282.674 332.722 280.676 330.004 280.676C327.304 280.676 325.108 282.674 325.108 285.428ZM326.89 285.428C326.89 283.538 328.294 282.188 330.022 282.188C331.732 282.188 333.154 283.538 333.154 285.428C333.154 287.336 331.732 288.704 330.022 288.704C328.294 288.704 326.89 287.336 326.89 285.428ZM335.786 290.09C338.468 289.946 339.512 287.822 339.512 283.7V282.332H342.194V290H343.94V280.892H337.838V283.7C337.838 286.994 337.118 288.326 335.786 288.524V290.09ZM346.637 290H350.183C352.487 290 353.531 288.83 353.531 287.12C353.531 285.05 352.109 284.186 350.219 284.186H348.383V280.892H346.637V290ZM348.383 288.74V285.446H349.949C351.209 285.446 351.749 286.13 351.749 287.102C351.749 288.056 351.209 288.74 349.949 288.74H348.383ZM355.409 290H357.155V286.058H358.469L361.187 290H363.257L359.855 285.266V285.23L362.897 280.892H360.917L358.433 284.564H357.155V280.892H355.409V290ZM363.832 285.428C363.832 288.2 366.028 290.216 368.746 290.216C371.446 290.216 373.642 288.2 373.642 285.428C373.642 282.674 371.446 280.676 368.728 280.676C366.028 280.676 363.832 282.674 363.832 285.428ZM365.614 285.428C365.614 283.538 367.018 282.188 368.746 282.188C370.456 282.188 371.878 283.538 371.878 285.428C371.878 287.336 370.456 288.704 368.746 288.704C367.018 288.704 365.614 287.336 365.614 285.428ZM379.652 285.446C379.652 288.182 381.65 290.216 384.53 290.216C385.952 290.216 387.338 289.64 388.166 288.758L387.464 287.48C386.762 288.218 385.664 288.704 384.656 288.704C382.766 288.704 381.434 287.282 381.434 285.428C381.434 283.574 382.766 282.188 384.602 282.188C385.556 282.188 386.51 282.62 387.122 283.232L387.95 282.008C387.086 281.09 385.736 280.676 384.53 280.676C381.668 280.676 379.652 282.746 379.652 285.446ZM393.961 285.446C393.961 288.182 395.959 290.216 398.839 290.216C400.261 290.216 401.647 289.64 402.475 288.758L401.773 287.48C401.071 288.218 399.973 288.704 398.965 288.704C397.075 288.704 395.743 287.282 395.743 285.428C395.743 283.574 397.075 282.188 398.911 282.188C399.865 282.188 400.819 282.62 401.431 283.232L402.259 282.008C401.395 281.09 400.045 280.676 398.839 280.676C395.977 280.676 393.961 282.746 393.961 285.446ZM403.608 287.516C403.608 289.226 405.066 290.216 406.65 290.216C408 290.216 409.116 289.406 409.638 288.362H409.674C409.674 288.362 409.62 288.668 409.62 289.082V290H411.258V284.24C411.258 281.936 409.944 280.676 407.658 280.676C406.38 280.676 404.994 281.144 404.256 281.756L404.958 283.034C405.696 282.512 406.614 282.152 407.514 282.152C408.648 282.152 409.512 282.656 409.512 284.15V284.33H409.044C407.154 284.33 403.608 284.654 403.608 287.516ZM405.354 287.372C405.354 285.698 407.766 285.59 409.062 285.59H409.512V285.932C409.512 287.282 408.594 288.83 407.064 288.83C405.93 288.83 405.354 288.092 405.354 287.372ZM417.852 279.848C419.256 279.848 420.516 279.02 420.516 277.544V277.274H419.13V277.508C419.13 278.318 418.482 278.714 417.852 278.714C417.222 278.714 416.592 278.318 416.592 277.526V277.274H415.188V277.544C415.188 279.02 416.466 279.848 417.852 279.848ZM413.838 290H415.512L419.454 284.564C419.742 284.132 420.192 283.52 420.246 283.358H420.282C420.282 283.502 420.228 284.132 420.228 284.564V290H421.92V280.892H420.228L416.304 286.328C415.998 286.76 415.566 287.39 415.494 287.552H415.458C415.476 287.462 415.512 286.814 415.512 286.328V280.892H413.838V290ZM426.792 290H428.52V282.386H431.706V280.892H423.624V282.386H426.792V290ZM432.576 287.516C432.576 289.226 434.034 290.216 435.618 290.216C436.968 290.216 438.084 289.406 438.606 288.362H438.642C438.642 288.362 438.588 288.668 438.588 289.082V290H440.226V284.24C440.226 281.936 438.912 280.676 436.626 280.676C435.348 280.676 433.962 281.144 433.224 281.756L433.926 283.034C434.664 282.512 435.582 282.152 436.482 282.152C437.616 282.152 438.48 282.656 438.48 284.15V284.33H438.012C436.122 284.33 432.576 284.654 432.576 287.516ZM434.322 287.372C434.322 285.698 436.734 285.59 438.03 285.59H438.48V285.932C438.48 287.282 437.562 288.83 436.032 288.83C434.898 288.83 434.322 288.092 434.322 287.372Z" fill="white"/>
<path d="M316.674 370H318.456V364.42H325.062V370H326.826V357.292H325.062V362.872H318.456V357.292H316.674V370ZM329.08 365.446C329.08 368.146 331.06 370.216 333.922 370.216C335.182 370.216 336.568 369.73 337.45 368.92L336.712 367.642C335.992 368.29 335.002 368.704 334.03 368.704C332.392 368.704 330.988 367.642 330.898 365.68H337.522C337.558 365.428 337.594 365.176 337.594 364.942C337.594 362.602 336.226 360.676 333.652 360.676C331.06 360.676 329.08 362.548 329.08 365.446ZM330.952 364.42C331.204 362.908 332.266 362.026 333.616 362.026C334.804 362.026 335.776 362.854 335.83 364.42H330.952ZM339.694 370H341.368L345.31 364.564C345.598 364.132 346.048 363.52 346.102 363.358H346.138C346.138 363.502 346.084 364.132 346.084 364.564V370H347.776V360.892H346.084L342.16 366.328C341.854 366.76 341.422 367.39 341.35 367.552H341.314C341.332 367.462 341.368 366.814 341.368 366.328V360.892H339.694V370ZM349.57 368.884C350.326 369.604 351.514 370.216 352.918 370.216C354.79 370.216 356.41 369.262 356.41 367.39C356.41 366.22 355.69 365.536 354.772 365.248V365.212C355.492 364.906 356.104 364.276 356.104 363.142C356.104 361.522 354.754 360.676 353.026 360.676C351.586 360.676 350.56 361.144 349.858 361.666L350.506 362.836C351.208 362.314 351.928 362.044 352.72 362.044C353.728 362.044 354.34 362.512 354.34 363.358C354.34 364.276 353.638 364.672 352.612 364.672H351.658V365.932H352.774C354.052 365.932 354.646 366.436 354.646 367.318C354.646 368.308 353.8 368.812 352.756 368.812C351.658 368.812 350.794 368.164 350.38 367.732L349.57 368.884ZM358.52 370H362.408C364.388 370 365.756 369.1 365.756 367.408C365.756 366.4 365.162 365.518 364.028 365.248V365.23C364.856 364.87 365.324 364.114 365.324 363.232C365.324 361.702 364.118 360.892 362.282 360.892H358.52V370ZM360.266 364.744V362.098H361.922C363.02 362.098 363.542 362.53 363.542 363.358C363.542 364.204 363.02 364.744 361.976 364.744H360.266ZM360.266 368.776V365.914H362.12C363.326 365.914 363.992 366.454 363.992 367.354C363.992 368.2 363.398 368.776 362.138 368.776H360.266ZM367.277 365.446C367.277 368.146 369.257 370.216 372.119 370.216C373.379 370.216 374.765 369.73 375.647 368.92L374.909 367.642C374.189 368.29 373.199 368.704 372.227 368.704C370.589 368.704 369.185 367.642 369.095 365.68H375.719C375.755 365.428 375.791 365.176 375.791 364.942C375.791 362.602 374.423 360.676 371.849 360.676C369.257 360.676 367.277 362.548 367.277 365.446ZM369.149 364.42C369.401 362.908 370.463 362.026 371.813 362.026C373.001 362.026 373.973 362.854 374.027 364.42H369.149ZM377.297 365.446C377.297 368.182 379.295 370.216 382.175 370.216C383.597 370.216 384.983 369.64 385.811 368.758L385.109 367.48C384.407 368.218 383.309 368.704 382.301 368.704C380.411 368.704 379.079 367.282 379.079 365.428C379.079 363.574 380.411 362.188 382.247 362.188C383.201 362.188 384.155 362.62 384.767 363.232L385.595 362.008C384.731 361.09 383.381 360.676 382.175 360.676C379.313 360.676 377.297 362.746 377.297 365.446ZM389.896 370H391.624V362.386H394.81V360.892H386.728V362.386H389.896V370ZM396.524 370H398.27V366.094H402.878V370H404.624V360.892H402.878V364.6H398.27V360.892H396.524V370ZM406.723 365.428C406.723 368.2 408.919 370.216 411.637 370.216C414.337 370.216 416.533 368.2 416.533 365.428C416.533 362.674 414.337 360.676 411.619 360.676C408.919 360.676 406.723 362.674 406.723 365.428ZM408.505 365.428C408.505 363.538 409.909 362.188 411.637 362.188C413.347 362.188 414.769 363.538 414.769 365.428C414.769 367.336 413.347 368.704 411.637 368.704C409.909 368.704 408.505 367.336 408.505 365.428Z" fill="white"/>
<path d="M316.674 530H318.456V524.42H325.062V530H326.826V517.292H325.062V522.872H318.456V517.292H316.674V530ZM329.08 525.446C329.08 528.146 331.06 530.216 333.922 530.216C335.182 530.216 336.568 529.73 337.45 528.92L336.712 527.642C335.992 528.29 335.002 528.704 334.03 528.704C332.392 528.704 330.988 527.642 330.898 525.68H337.522C337.558 525.428 337.594 525.176 337.594 524.942C337.594 522.602 336.226 520.676 333.652 520.676C331.06 520.676 329.08 522.548 329.08 525.446ZM330.952 524.42C331.204 522.908 332.266 522.026 333.616 522.026C334.804 522.026 335.776 522.854 335.83 524.42H330.952ZM339.694 530H341.368L345.31 524.564C345.598 524.132 346.048 523.52 346.102 523.358H346.138C346.138 523.502 346.084 524.132 346.084 524.564V530H347.776V520.892H346.084L342.16 526.328C341.854 526.76 341.422 527.39 341.35 527.552H341.314C341.332 527.462 341.368 526.814 341.368 526.328V520.892H339.694V530ZM349.57 528.884C350.326 529.604 351.514 530.216 352.918 530.216C354.79 530.216 356.41 529.262 356.41 527.39C356.41 526.22 355.69 525.536 354.772 525.248V525.212C355.492 524.906 356.104 524.276 356.104 523.142C356.104 521.522 354.754 520.676 353.026 520.676C351.586 520.676 350.56 521.144 349.858 521.666L350.506 522.836C351.208 522.314 351.928 522.044 352.72 522.044C353.728 522.044 354.34 522.512 354.34 523.358C354.34 524.276 353.638 524.672 352.612 524.672H351.658V525.932H352.774C354.052 525.932 354.646 526.436 354.646 527.318C354.646 528.308 353.8 528.812 352.756 528.812C351.658 528.812 350.794 528.164 350.38 527.732L349.57 528.884ZM358.52 530H362.408C364.388 530 365.756 529.1 365.756 527.408C365.756 526.4 365.162 525.518 364.028 525.248V525.23C364.856 524.87 365.324 524.114 365.324 523.232C365.324 521.702 364.118 520.892 362.282 520.892H358.52V530ZM360.266 524.744V522.098H361.922C363.02 522.098 363.542 522.53 363.542 523.358C363.542 524.204 363.02 524.744 361.976 524.744H360.266ZM360.266 528.776V525.914H362.12C363.326 525.914 363.992 526.454 363.992 527.354C363.992 528.2 363.398 528.776 362.138 528.776H360.266ZM367.277 525.446C367.277 528.146 369.257 530.216 372.119 530.216C373.379 530.216 374.765 529.73 375.647 528.92L374.909 527.642C374.189 528.29 373.199 528.704 372.227 528.704C370.589 528.704 369.185 527.642 369.095 525.68H375.719C375.755 525.428 375.791 525.176 375.791 524.942C375.791 522.602 374.423 520.676 371.849 520.676C369.257 520.676 367.277 522.548 367.277 525.446ZM369.149 524.42C369.401 522.908 370.463 522.026 371.813 522.026C373.001 522.026 373.973 522.854 374.027 524.42H369.149ZM377.297 525.446C377.297 528.182 379.295 530.216 382.175 530.216C383.597 530.216 384.983 529.64 385.811 528.758L385.109 527.48C384.407 528.218 383.309 528.704 382.301 528.704C380.411 528.704 379.079 527.282 379.079 525.428C379.079 523.574 380.411 522.188 382.247 522.188C383.201 522.188 384.155 522.62 384.767 523.232L385.595 522.008C384.731 521.09 383.381 520.676 382.175 520.676C379.313 520.676 377.297 522.746 377.297 525.446ZM389.896 530H391.624V522.386H394.81V520.892H386.728V522.386H389.896V530ZM396.524 530H398.27V526.094H402.878V530H404.624V520.892H402.878V524.6H398.27V520.892H396.524V530ZM406.723 525.428C406.723 528.2 408.919 530.216 411.637 530.216C414.337 530.216 416.533 528.2 416.533 525.428C416.533 522.674 414.337 520.676 411.619 520.676C408.919 520.676 406.723 522.674 406.723 525.428ZM408.505 525.428C408.505 523.538 409.909 522.188 411.637 522.188C413.347 522.188 414.769 523.538 414.769 525.428C414.769 527.336 413.347 528.704 411.637 528.704C409.909 528.704 408.505 527.336 408.505 525.428Z" fill="white"/>
<path d="M322.644 450H324.408V438.84H328.782V437.292H318.27V438.84H322.644V450ZM328.108 445.428C328.108 448.2 330.304 450.216 333.022 450.216C335.722 450.216 337.918 448.2 337.918 445.428C337.918 442.674 335.722 440.676 333.004 440.676C330.304 440.676 328.108 442.674 328.108 445.428ZM329.89 445.428C329.89 443.538 331.294 442.188 333.022 442.188C334.732 442.188 336.154 443.538 336.154 445.428C336.154 447.336 334.732 448.704 333.022 448.704C331.294 448.704 329.89 447.336 329.89 445.428ZM338.786 450.09C341.468 449.946 342.512 447.822 342.512 443.7V442.332H345.194V450H346.94V440.892H340.838V443.7C340.838 446.994 340.118 448.326 338.786 448.524V450.09ZM349.637 450H353.183C355.487 450 356.531 448.83 356.531 447.12C356.531 445.05 355.109 444.186 353.219 444.186H351.383V440.892H349.637V450ZM351.383 448.74V445.446H352.949C354.209 445.446 354.749 446.13 354.749 447.102C354.749 448.056 354.209 448.74 352.949 448.74H351.383ZM358.409 450H360.155V446.058H361.469L364.187 450H366.257L362.855 445.266V445.23L365.897 440.892H363.917L361.433 444.564H360.155V440.892H358.409V450ZM366.832 445.428C366.832 448.2 369.028 450.216 371.746 450.216C374.446 450.216 376.642 448.2 376.642 445.428C376.642 442.674 374.446 440.676 371.728 440.676C369.028 440.676 366.832 442.674 366.832 445.428ZM368.614 445.428C368.614 443.538 370.018 442.188 371.746 442.188C373.456 442.188 374.878 443.538 374.878 445.428C374.878 447.336 373.456 448.704 371.746 448.704C370.018 448.704 368.614 447.336 368.614 445.428ZM383.246 450H384.992V442.386H389.456V450H391.202V440.892H383.246V450ZM393.305 445.428C393.305 448.2 395.501 450.216 398.219 450.216C400.919 450.216 403.115 448.2 403.115 445.428C403.115 442.674 400.919 440.676 398.201 440.676C395.501 440.676 393.305 442.674 393.305 445.428ZM395.087 445.428C395.087 443.538 396.491 442.188 398.219 442.188C399.929 442.188 401.351 443.538 401.351 445.428C401.351 447.336 399.929 448.704 398.219 448.704C396.491 448.704 395.087 447.336 395.087 445.428ZM411.915 450H413.643V442.386H416.829V440.892H408.747V442.386H411.915V450ZM418.543 453.6H420.289V449.46C420.289 448.992 420.217 448.668 420.217 448.668H420.253C420.883 449.64 421.927 450.216 423.079 450.216C425.473 450.216 427.201 448.344 427.201 445.446C427.201 442.62 425.671 440.676 423.205 440.676C421.873 440.676 420.721 441.288 420.145 442.386H420.109C420.109 442.386 420.163 442.08 420.163 441.702V440.892H418.543V453.6ZM420.235 445.482C420.235 443.178 421.495 442.206 422.863 442.206C424.375 442.206 425.437 443.484 425.437 445.464C425.437 447.534 424.249 448.704 422.809 448.704C421.135 448.704 420.235 447.102 420.235 445.482ZM428.598 447.516C428.598 449.226 430.056 450.216 431.64 450.216C432.99 450.216 434.106 449.406 434.628 448.362H434.664C434.664 448.362 434.61 448.668 434.61 449.082V450H436.248V444.24C436.248 441.936 434.934 440.676 432.648 440.676C431.37 440.676 429.984 441.144 429.246 441.756L429.948 443.034C430.686 442.512 431.604 442.152 432.504 442.152C433.638 442.152 434.502 442.656 434.502 444.15V444.33H434.034C432.144 444.33 428.598 444.654 428.598 447.516ZM430.344 447.372C430.344 445.698 432.756 445.59 434.052 445.59H434.502V445.932C434.502 447.282 433.584 448.83 432.054 448.83C430.92 448.83 430.344 448.092 430.344 447.372ZM438.829 450H440.575V446.094H445.183V450H446.929V440.892H445.183V444.6H440.575V440.892H438.829V450ZM448.739 448.884C449.495 449.604 450.683 450.216 452.087 450.216C453.959 450.216 455.579 449.262 455.579 447.39C455.579 446.22 454.859 445.536 453.941 445.248V445.212C454.661 444.906 455.273 444.276 455.273 443.142C455.273 441.522 453.923 440.676 452.195 440.676C450.755 440.676 449.729 441.144 449.027 441.666L449.675 442.836C450.377 442.314 451.097 442.044 451.889 442.044C452.897 442.044 453.509 442.512 453.509 443.358C453.509 444.276 452.807 444.672 451.781 444.672H450.827V445.932H451.943C453.221 445.932 453.815 446.436 453.815 447.318C453.815 448.308 452.969 448.812 451.925 448.812C450.827 448.812 449.963 448.164 449.549 447.732L448.739 448.884ZM456.934 447.516C456.934 449.226 458.392 450.216 459.976 450.216C461.326 450.216 462.442 449.406 462.964 448.362H463C463 448.362 462.946 448.668 462.946 449.082V450H464.584V444.24C464.584 441.936 463.27 440.676 460.984 440.676C459.706 440.676 458.32 441.144 457.582 441.756L458.284 443.034C459.022 442.512 459.94 442.152 460.84 442.152C461.974 442.152 462.838 442.656 462.838 444.15V444.33H462.37C460.48 444.33 456.934 444.654 456.934 447.516ZM458.68 447.372C458.68 445.698 461.092 445.59 462.388 445.59H462.838V445.932C462.838 447.282 461.92 448.83 460.39 448.83C459.256 448.83 458.68 448.092 458.68 447.372ZM467.164 450H468.91V446.058H470.224L472.942 450H475.012L471.61 445.266V445.23L474.652 440.892H472.672L470.188 444.564H468.91V440.892H467.164V450ZM476.569 450H484.093V452.16H485.695V448.488H484.417V440.892H482.653V448.488H478.315V440.892H476.569V450ZM487.555 450H489.229L493.171 444.564C493.459 444.132 493.909 443.52 493.963 443.358H493.999C493.999 443.502 493.945 444.132 493.945 444.564V450H495.637V440.892H493.945L490.021 446.328C489.715 446.76 489.283 447.39 489.211 447.552H489.175C489.193 447.462 489.229 446.814 489.229 446.328V440.892H487.555V450ZM497.395 450H499.321L501.553 446.706H503.083V450H504.829V440.892H501.193C499.267 440.892 497.935 441.882 497.935 443.754C497.935 445.14 498.871 446.112 499.915 446.4V446.418C499.915 446.418 499.699 446.652 499.501 446.976L497.395 450ZM501.571 445.428C500.509 445.428 499.699 444.87 499.699 443.736C499.699 442.566 500.455 442.098 501.625 442.098H503.083V445.428H501.571ZM507.146 450H508.838L509.234 444.582C509.27 444.042 509.216 443.016 509.216 443.016H509.252C509.252 443.016 509.54 443.7 509.828 444.366L511.988 448.902H513.482L515.642 444.348C515.984 443.646 516.218 443.016 516.218 443.016H516.254C516.254 443.016 516.218 444.042 516.236 444.582L516.632 450H518.324L517.532 440.892H515.624L513.248 446.04C513.014 446.598 512.744 447.264 512.744 447.264H512.708C512.708 447.264 512.456 446.58 512.204 446.04L509.882 440.892H507.938L507.146 450ZM524.578 445.446C524.578 448.182 526.576 450.216 529.456 450.216C530.878 450.216 532.264 449.64 533.092 448.758L532.39 447.48C531.688 448.218 530.59 448.704 529.582 448.704C527.692 448.704 526.36 447.282 526.36 445.428C526.36 443.574 527.692 442.188 529.528 442.188C530.482 442.188 531.436 442.62 532.048 443.232L532.876 442.008C532.012 441.09 530.662 440.676 529.456 440.676C526.594 440.676 524.578 442.746 524.578 445.446ZM538.887 445.446C538.887 448.182 540.885 450.216 543.765 450.216C545.187 450.216 546.573 449.64 547.401 448.758L546.699 447.48C545.997 448.218 544.899 448.704 543.891 448.704C542.001 448.704 540.669 447.282 540.669 445.428C540.669 443.574 542.001 442.188 543.837 442.188C544.791 442.188 545.745 442.62 546.357 443.232L547.185 442.008C546.321 441.09 544.971 440.676 543.765 440.676C540.903 440.676 538.887 442.746 538.887 445.446ZM548.533 447.516C548.533 449.226 549.991 450.216 551.575 450.216C552.925 450.216 554.041 449.406 554.563 448.362H554.599C554.599 448.362 554.545 448.668 554.545 449.082V450H556.183V444.24C556.183 441.936 554.869 440.676 552.583 440.676C551.305 440.676 549.919 441.144 549.181 441.756L549.883 443.034C550.621 442.512 551.539 442.152 552.439 442.152C553.573 442.152 554.437 442.656 554.437 444.15V444.33H553.969C552.079 444.33 548.533 444.654 548.533 447.516ZM550.279 447.372C550.279 445.698 552.691 445.59 553.987 445.59H554.437V445.932C554.437 447.282 553.519 448.83 551.989 448.83C550.855 448.83 550.279 448.092 550.279 447.372ZM562.778 439.848C564.182 439.848 565.442 439.02 565.442 437.544V437.274H564.056V437.508C564.056 438.318 563.408 438.714 562.778 438.714C562.148 438.714 561.518 438.318 561.518 437.526V437.274H560.114V437.544C560.114 439.02 561.392 439.848 562.778 439.848ZM558.764 450H560.438L564.38 444.564C564.668 444.132 565.118 443.52 565.172 443.358H565.208C565.208 443.502 565.154 444.132 565.154 444.564V450H566.846V440.892H565.154L561.23 446.328C560.924 446.76 560.492 447.39 560.42 447.552H560.384C560.402 447.462 560.438 446.814 560.438 446.328V440.892H558.764V450ZM571.718 450H573.446V442.386H576.632V440.892H568.55V442.386H571.718V450ZM577.502 447.516C577.502 449.226 578.96 450.216 580.544 450.216C581.894 450.216 583.01 449.406 583.532 448.362H583.568C583.568 448.362 583.514 448.668 583.514 449.082V450H585.152V444.24C585.152 441.936 583.838 440.676 581.552 440.676C580.274 440.676 578.888 441.144 578.15 441.756L578.852 443.034C579.59 442.512 580.508 442.152 581.408 442.152C582.542 442.152 583.406 442.656 583.406 444.15V444.33H582.938C581.048 444.33 577.502 444.654 577.502 447.516ZM579.248 447.372C579.248 445.698 581.66 445.59 582.956 445.59H583.406V445.932C583.406 447.282 582.488 448.83 580.958 448.83C579.824 448.83 579.248 448.092 579.248 447.372Z" fill="white"/>
<g opacity="0.5">
<path d="M305 439.002V437C305 435.898 304.104 435 303 435H287C285.897 435 285 435.898 285 437V439.002H305ZM291 436C291.553 436 292 436.448 292 437C292 437.553 291.553 438 291 438C290.447 438 290 437.553 290 437C290 436.448 290.447 436 291 436ZM288 436C288.553 436 289 436.448 289 437C289 437.553 288.553 438 288 438C287.447 438 287 437.553 287 437C287 436.448 287.447 436 288 436Z" fill="white"/>
<path d="M285 440.002V451C285 452.103 285.897 453 287 453H303C304.104 453 305 452.103 305 451V440.002H285Z" fill="white"/>
</g>
<path d="M74.5248 137.984C75.9648 139.472 78.0288 140.288 80.0208 140.288C83.5008 140.288 85.7808 137.744 85.7808 134.864C85.7808 131.552 83.0448 130.112 80.8128 129.896L85.4208 124.568V123.056H75.2928V125.12H81.0288C81.9648 125.12 82.4688 125.048 82.4688 125.048V125.096C82.4688 125.096 81.9408 125.528 81.4128 126.2L77.7168 130.544L78.2688 131.816H79.4208C81.5328 131.816 83.3808 132.848 83.3808 134.936C83.3808 136.76 81.7968 138.032 79.9248 138.032C78.2928 138.032 76.7328 137.168 75.8208 136.184L74.5248 137.984ZM88.5259 140H99.4459V137.936H90.9979C91.0939 134.072 99.1819 133.208 99.1819 127.64C99.1819 124.712 96.9499 122.768 93.8539 122.768C91.3579 122.768 89.4379 124.208 88.4779 125.984L90.2299 127.16C90.9499 125.936 92.2459 125 93.6619 125C95.4619 125 96.7339 126.152 96.7339 127.808C96.7339 131.792 88.4059 132.68 88.4059 138.704C88.4059 139.112 88.4539 139.544 88.5259 140ZM108.308 140.288C112.844 140.288 114.308 136.4 114.308 131.504C114.308 126.632 112.844 122.768 108.308 122.768C103.796 122.768 102.308 126.632 102.308 131.504C102.308 136.4 103.796 140.288 108.308 140.288ZM108.308 138.104C105.548 138.104 104.756 135.224 104.756 131.504C104.756 127.832 105.548 124.952 108.308 124.952C111.092 124.952 111.86 127.832 111.86 131.504C111.86 135.224 111.092 138.104 108.308 138.104ZM129.237 140.288C133.773 140.288 135.237 136.4 135.237 131.504C135.237 126.632 133.773 122.768 129.237 122.768C124.725 122.768 123.237 126.632 123.237 131.504C123.237 136.4 124.725 140.288 129.237 140.288ZM129.237 138.104C126.477 138.104 125.685 135.224 125.685 131.504C125.685 127.832 126.477 124.952 129.237 124.952C132.021 124.952 132.789 127.832 132.789 131.504C132.789 135.224 132.021 138.104 129.237 138.104ZM144.167 140.288C148.703 140.288 150.167 136.4 150.167 131.504C150.167 126.632 148.703 122.768 144.167 122.768C139.655 122.768 138.167 126.632 138.167 131.504C138.167 136.4 139.655 140.288 144.167 140.288ZM144.167 138.104C141.407 138.104 140.615 135.224 140.615 131.504C140.615 127.832 141.407 124.952 144.167 124.952C146.951 124.952 147.719 127.832 147.719 131.504C147.719 135.224 146.951 138.104 144.167 138.104ZM159.097 140.288C163.633 140.288 165.097 136.4 165.097 131.504C165.097 126.632 163.633 122.768 159.097 122.768C154.585 122.768 153.097 126.632 153.097 131.504C153.097 136.4 154.585 140.288 159.097 140.288ZM159.097 138.104C156.337 138.104 155.545 135.224 155.545 131.504C155.545 127.832 156.337 124.952 159.097 124.952C161.881 124.952 162.649 127.832 162.649 131.504C162.649 135.224 161.881 138.104 159.097 138.104ZM174.891 140V136.736H172.803V135.176H174.891V133.04H172.803V131.216H174.891V122.864H179.403C181.499 122.864 183.051 123.288 184.059 124.136C185.083 124.984 185.595 126.216 185.595 127.832C185.595 129.464 185.043 130.744 183.939 131.672C182.835 132.584 181.211 133.04 179.067 133.04H177.051V135.176H181.011V136.736H177.051V140H174.891ZM177.051 131.216H178.755C180.211 131.216 181.339 130.976 182.139 130.496C182.955 130.016 183.363 129.152 183.363 127.904C183.363 126.816 183.027 126.008 182.355 125.48C181.683 124.952 180.635 124.688 179.211 124.688H177.051V131.216Z" fill="white"/>
<path d="M105.94 191.002C105.94 193.9 107.942 196.168 111.008 196.168C112.758 196.168 113.99 195.44 114.83 194.6L114.088 193.606C113.29 194.404 112.156 194.894 111.05 194.894C108.754 194.894 107.368 193.088 107.368 190.988C107.368 188.902 108.726 187.208 111.022 187.208C112.044 187.208 113.15 187.642 113.878 188.286L114.578 187.25C113.626 186.34 112.24 185.948 110.966 185.948C108.026 185.948 105.94 188.132 105.94 191.002ZM115.727 192.458C115.727 194.558 117.267 196.168 119.493 196.168C120.473 196.168 121.551 195.79 122.237 195.16L121.663 194.166C121.103 194.67 120.333 194.992 119.577 194.992C118.303 194.992 117.211 194.166 117.141 192.64H122.293C122.321 192.444 122.349 192.248 122.349 192.066C122.349 190.246 121.285 188.748 119.283 188.748C117.267 188.748 115.727 190.204 115.727 192.458ZM117.183 191.66C117.379 190.484 118.205 189.798 119.255 189.798C120.179 189.798 120.935 190.442 120.977 191.66H117.183ZM123.52 192.458C123.52 194.586 125.074 196.168 127.314 196.168C128.42 196.168 129.498 195.72 130.142 195.034L129.596 194.04C129.05 194.614 128.196 194.992 127.412 194.992C125.942 194.992 124.906 193.886 124.906 192.444C124.906 191.002 125.942 189.924 127.37 189.924C128.112 189.924 128.854 190.26 129.33 190.736L129.974 189.784C129.302 189.07 128.252 188.748 127.314 188.748C125.088 188.748 123.52 190.358 123.52 192.458ZM130.984 192.458C130.984 194.586 132.538 196.168 134.778 196.168C135.884 196.168 136.962 195.72 137.606 195.034L137.06 194.04C136.514 194.614 135.66 194.992 134.876 194.992C133.406 194.992 132.37 193.886 132.37 192.444C132.37 191.002 133.406 189.924 134.834 189.924C135.576 189.924 136.318 190.26 136.794 190.736L137.438 189.784C136.766 189.07 135.716 188.748 134.778 188.748C132.552 188.748 130.984 190.358 130.984 192.458ZM139.075 196H140.377L143.443 191.772C143.667 191.436 144.017 190.96 144.059 190.834H144.087C144.087 190.946 144.045 191.436 144.045 191.772V196H145.361V188.916H144.045L140.993 193.144C140.755 193.48 140.419 193.97 140.363 194.096H140.335C140.349 194.026 140.377 193.522 140.377 193.144V188.916H139.075V196ZM147.443 196H148.745L151.811 191.772C152.035 191.436 152.385 190.96 152.427 190.834H152.455C152.455 190.946 152.413 191.436 152.413 191.772V196H153.729V188.916H152.413L149.361 193.144C149.123 193.48 148.787 193.97 148.731 194.096H148.703C148.717 194.026 148.745 193.522 148.745 193.144V188.916H147.443V196Z" fill="#3DAFCC"/>
<path d="M91.5348 215.176C91.5348 218.128 94.0788 220.288 97.4148 220.288C100.967 220.288 103.223 217.96 103.223 215.32C103.223 213.568 102.239 212.512 100.919 211.72C101.423 211.216 102.959 209.416 102.959 207.28C102.959 204.544 100.775 202.768 97.6308 202.768C94.0548 202.768 92.3508 204.928 92.3508 207.256C92.3508 208.792 93.1428 209.824 94.2468 210.592C93.5988 211.024 91.5348 212.608 91.5348 215.176ZM99.0948 210.808C96.9828 209.872 94.7028 209.176 94.7028 207.256C94.7028 205.96 95.7348 204.904 97.5828 204.904C99.3828 204.904 100.631 205.864 100.631 207.472C100.631 209.128 99.4548 210.424 99.0948 210.808ZM93.9588 214.984C93.9588 213.136 95.4708 212.008 96.0228 211.624C98.2308 212.68 100.799 213.352 100.799 215.272C100.799 217 99.1908 218.152 97.3908 218.152C95.6388 218.152 93.9588 216.88 93.9588 214.984ZM106.692 219.592C107.724 220.096 108.9 220.288 109.98 220.288C115.236 220.288 117.612 215.104 117.612 210.76C117.612 205.912 114.9 202.768 111.276 202.768C108.108 202.768 105.828 205.096 105.828 208.432C105.828 211.576 107.964 214 111.18 214C112.668 214 114.228 213.376 114.924 212.416H114.972C114.612 215.224 113.004 218.104 109.884 218.104C108.972 218.104 108.036 217.816 107.46 217.528L106.692 219.592ZM111.66 212.008C109.5 212.008 108.204 210.496 108.204 208.432C108.204 206.44 109.356 204.952 111.3 204.952C113.46 204.952 115.14 207.424 115.14 209.632C115.14 210.832 113.58 212.008 111.66 212.008ZM132.46 220.288C136.996 220.288 138.46 216.4 138.46 211.504C138.46 206.632 136.996 202.768 132.46 202.768C127.948 202.768 126.46 206.632 126.46 211.504C126.46 216.4 127.948 220.288 132.46 220.288ZM132.46 218.104C129.7 218.104 128.908 215.224 128.908 211.504C128.908 207.832 129.7 204.952 132.46 204.952C135.244 204.952 136.012 207.832 136.012 211.504C136.012 215.224 135.244 218.104 132.46 218.104ZM147.39 220.288C151.926 220.288 153.39 216.4 153.39 211.504C153.39 206.632 151.926 202.768 147.39 202.768C142.878 202.768 141.39 206.632 141.39 211.504C141.39 216.4 142.878 220.288 147.39 220.288ZM147.39 218.104C144.63 218.104 143.838 215.224 143.838 211.504C143.838 207.832 144.63 204.952 147.39 204.952C150.174 204.952 150.942 207.832 150.942 211.504C150.942 215.224 150.174 218.104 147.39 218.104ZM162.319 220.288C166.855 220.288 168.319 216.4 168.319 211.504C168.319 206.632 166.855 202.768 162.319 202.768C157.807 202.768 156.319 206.632 156.319 211.504C156.319 216.4 157.807 220.288 162.319 220.288ZM162.319 218.104C159.559 218.104 158.767 215.224 158.767 211.504C158.767 207.832 159.559 204.952 162.319 204.952C165.103 204.952 165.871 207.832 165.871 211.504C165.871 215.224 165.103 218.104 162.319 218.104Z" fill="white"/>
<path d="M107.491 274.824C108.261 275.678 109.507 276.168 110.697 276.168C112.559 276.168 114.057 275.034 114.057 273.2C114.057 271.982 113.357 271.128 112.321 270.834V270.806C113.021 270.456 113.749 269.784 113.749 268.58C113.749 266.928 112.475 265.948 110.781 265.948C109.941 265.948 108.835 266.102 107.785 266.97L108.373 268.006C109.101 267.39 109.885 267.166 110.585 267.166C111.803 267.166 112.335 267.894 112.335 268.748C112.335 269.686 111.551 270.344 110.557 270.344H109.577V271.492H110.795C111.873 271.492 112.643 272.094 112.643 273.13C112.643 274.25 111.789 274.922 110.585 274.922C109.661 274.922 108.779 274.446 108.261 273.886L107.491 274.824ZM115.218 274.068C115.218 275.398 116.352 276.168 117.584 276.168C118.634 276.168 119.502 275.538 119.908 274.726H119.936C119.936 274.726 119.894 274.964 119.894 275.286V276H121.168V271.52C121.168 269.728 120.146 268.748 118.368 268.748C117.374 268.748 116.296 269.112 115.722 269.588L116.268 270.582C116.842 270.176 117.556 269.896 118.256 269.896C119.138 269.896 119.81 270.288 119.81 271.45V271.59H119.446C117.976 271.59 115.218 271.842 115.218 274.068ZM116.576 273.956C116.576 272.654 118.452 272.57 119.46 272.57H119.81V272.836C119.81 273.886 119.096 275.09 117.906 275.09C117.024 275.09 116.576 274.516 116.576 273.956ZM123.175 276H124.533V272.934H125.555L127.669 276H129.279L126.633 272.318V272.29L128.999 268.916H127.459L125.527 271.772H124.533V268.916H123.175V276ZM129.833 274.068C129.833 275.398 130.967 276.168 132.199 276.168C133.249 276.168 134.117 275.538 134.523 274.726H134.551C134.551 274.726 134.509 274.964 134.509 275.286V276H135.783V271.52C135.783 269.728 134.761 268.748 132.983 268.748C131.989 268.748 130.911 269.112 130.337 269.588L130.883 270.582C131.457 270.176 132.171 269.896 132.871 269.896C133.753 269.896 134.425 270.288 134.425 271.45V271.59H134.061C132.591 271.59 129.833 271.842 129.833 274.068ZM131.191 273.956C131.191 272.654 133.067 272.57 134.075 272.57H134.425V272.836C134.425 273.886 133.711 275.09 132.521 275.09C131.639 275.09 131.191 274.516 131.191 273.956ZM137.104 275.132C137.692 275.692 138.616 276.168 139.708 276.168C141.164 276.168 142.424 275.426 142.424 273.97C142.424 273.06 141.864 272.528 141.15 272.304V272.276C141.71 272.038 142.186 271.548 142.186 270.666C142.186 269.406 141.136 268.748 139.792 268.748C138.672 268.748 137.874 269.112 137.328 269.518L137.832 270.428C138.378 270.022 138.938 269.812 139.554 269.812C140.338 269.812 140.814 270.176 140.814 270.834C140.814 271.548 140.268 271.856 139.47 271.856H138.728V272.836H139.596C140.59 272.836 141.052 273.228 141.052 273.914C141.052 274.684 140.394 275.076 139.582 275.076C138.728 275.076 138.056 274.572 137.734 274.236L137.104 275.132ZM150.478 276H151.836V268.916H150.478V276ZM144.066 276H146.796C148.574 276 149.386 275.09 149.386 273.76C149.386 272.15 148.28 271.478 146.81 271.478H145.424V268.916H144.066V276ZM145.424 275.02V272.458H146.6C147.58 272.458 148.014 272.99 148.014 273.746C148.014 274.488 147.594 275.02 146.614 275.02H145.424Z" fill="#3DAFCC"/>
<path d="M100.63 300H110.398V297.936H106.678V283.056H104.566L100.51 286.992L101.95 288.48L103.534 286.944C104.158 286.32 104.35 285.96 104.35 285.96H104.398C104.398 285.96 104.374 286.464 104.374 286.992V297.936H100.63V300ZM118.561 300H129.481V297.936H121.033C121.129 294.072 129.217 293.208 129.217 287.64C129.217 284.712 126.985 282.768 123.889 282.768C121.393 282.768 119.473 284.208 118.513 285.984L120.265 287.16C120.985 285.936 122.281 285 123.697 285C125.497 285 126.769 286.152 126.769 287.808C126.769 291.792 118.441 292.68 118.441 298.704C118.441 299.112 118.489 299.544 118.561 300ZM138.343 300.288C142.879 300.288 144.343 296.4 144.343 291.504C144.343 286.632 142.879 282.768 138.343 282.768C133.831 282.768 132.343 286.632 132.343 291.504C132.343 296.4 133.831 300.288 138.343 300.288ZM138.343 298.104C135.583 298.104 134.791 295.224 134.791 291.504C134.791 287.832 135.583 284.952 138.343 284.952C141.127 284.952 141.895 287.832 141.895 291.504C141.895 295.224 141.127 298.104 138.343 298.104ZM153.273 300.288C157.809 300.288 159.273 296.4 159.273 291.504C159.273 286.632 157.809 282.768 153.273 282.768C148.761 282.768 147.273 286.632 147.273 291.504C147.273 296.4 148.761 300.288 153.273 300.288ZM153.273 298.104C150.513 298.104 149.721 295.224 149.721 291.504C149.721 287.832 150.513 284.952 153.273 284.952C156.057 284.952 156.825 287.832 156.825 291.504C156.825 295.224 156.057 298.104 153.273 298.104Z" fill="white"/>
<path d="M105.995 351.002C105.995 353.9 107.997 356.168 111.063 356.168C112.813 356.168 114.045 355.44 114.885 354.6L114.143 353.606C113.345 354.404 112.211 354.894 111.105 354.894C108.809 354.894 107.423 353.088 107.423 350.988C107.423 348.902 108.781 347.208 111.077 347.208C112.099 347.208 113.205 347.642 113.933 348.286L114.633 347.25C113.681 346.34 112.295 345.948 111.021 345.948C108.081 345.948 105.995 348.132 105.995 351.002ZM117.766 354.88C118.662 353.48 118.774 351.464 118.774 350.4V350.022H120.902V354.88H117.766ZM115.498 354.88V357.68H116.772V356H122.022V357.68H123.268V354.88H122.26V348.916H117.472V350.218C117.472 351.31 117.36 353.522 116.366 354.88H115.498ZM124.149 352.458C124.149 354.558 125.689 356.168 127.915 356.168C128.895 356.168 129.973 355.79 130.659 355.16L130.085 354.166C129.525 354.67 128.755 354.992 127.999 354.992C126.725 354.992 125.633 354.166 125.563 352.64H130.715C130.743 352.444 130.771 352.248 130.771 352.066C130.771 350.246 129.707 348.748 127.705 348.748C125.689 348.748 124.149 350.204 124.149 352.458ZM125.605 351.66C125.801 350.484 126.627 349.798 127.677 349.798C128.601 349.798 129.357 350.442 129.399 351.66H125.605ZM131.634 356.07C133.72 355.958 134.532 354.306 134.532 351.1V350.036H136.618V356H137.976V348.916H133.23V351.1C133.23 353.662 132.67 354.698 131.634 354.852V356.07ZM140.073 356H141.431V352.934H142.453L144.567 356H146.177L143.531 352.318V352.29L145.897 348.916H144.357L142.425 351.772H141.431V348.916H140.073V356ZM147.388 356H148.69L151.756 351.772C151.98 351.436 152.33 350.96 152.372 350.834H152.4C152.4 350.946 152.358 351.436 152.358 351.772V356H153.674V348.916H152.358L149.306 353.144C149.068 353.48 148.732 353.97 148.676 354.096H148.648C148.662 354.026 148.69 353.522 148.69 353.144V348.916H147.388V356Z" fill="#3DAFCC"/>
<path d="M128.034 375.344H130.29V374.36C130.29 371.456 134.538 371.072 134.538 367.112C134.538 364.448 132.234 362.72 129.522 362.72C127.794 362.72 126.258 363.44 125.346 364.256L126.642 365.912C127.386 365.312 128.37 364.904 129.354 364.904C130.938 364.904 132.09 365.936 132.09 367.28C132.09 370.16 128.034 370.568 128.034 374.216V375.344ZM127.962 380H130.362V377.624H127.962V380Z" fill="white"/>
<path d="M103.713 436H107.255C108.991 436 110.447 435.048 110.447 433.186C110.447 432.08 109.859 431.1 108.809 430.792V430.764C109.565 430.372 110.041 429.602 110.041 428.636C110.041 427.04 108.851 426.116 107.171 426.116H103.713V436ZM105.099 430.274V427.32H107.157C108.095 427.32 108.627 427.908 108.627 428.776C108.627 429.644 108.067 430.274 107.171 430.274H105.099ZM105.099 434.796V431.422H107.325C108.361 431.422 109.019 432.108 109.019 433.102C109.019 434.124 108.389 434.796 107.325 434.796H105.099ZM118.541 436H119.899V428.916H118.541V436ZM112.129 436H114.859C116.637 436 117.449 435.09 117.449 433.76C117.449 432.15 116.343 431.478 114.873 431.478H113.487V428.916H112.129V436ZM113.487 435.02V432.458H114.663C115.643 432.458 116.077 432.99 116.077 433.746C116.077 434.488 115.657 435.02 114.677 435.02H113.487ZM122 438.8H123.358V435.58C123.358 435.216 123.302 434.964 123.302 434.964H123.33C123.82 435.72 124.632 436.168 125.528 436.168C127.39 436.168 128.734 434.712 128.734 432.458C128.734 430.26 127.544 428.748 125.626 428.748C124.59 428.748 123.694 429.224 123.246 430.078H123.218C123.218 430.078 123.26 429.84 123.26 429.546V428.916H122V438.8ZM123.316 432.486C123.316 430.694 124.296 429.938 125.36 429.938C126.536 429.938 127.362 430.932 127.362 432.472C127.362 434.082 126.438 434.992 125.318 434.992C124.016 434.992 123.316 433.746 123.316 432.486ZM129.853 437.47L129.377 438.506C129.377 438.506 129.951 438.94 130.735 438.94C131.729 438.94 132.611 438.38 133.031 437.274L136.363 428.916H134.893L133.171 433.564C133.045 433.928 132.933 434.404 132.933 434.404H132.905C132.905 434.404 132.779 433.9 132.639 433.55L130.861 428.916H129.335L132.303 435.916L131.953 436.728C131.687 437.372 131.225 437.778 130.665 437.778C130.245 437.778 129.853 437.47 129.853 437.47ZM139.628 433.536C140.328 433.536 141.098 433.298 141.546 433.018H141.574C141.574 433.018 141.56 433.242 141.56 433.438V436H142.918V428.916H141.56V431.856C141.266 432.066 140.692 432.36 139.992 432.36C138.83 432.36 138.578 431.73 138.578 431.03V428.916H137.248V431.226C137.248 432.738 138.116 433.536 139.628 433.536ZM145.024 436H146.382V432.934H147.404L149.518 436H151.128L148.482 432.318V432.29L150.848 428.916H149.308L147.376 431.772H146.382V428.916H145.024V436ZM151.682 434.068C151.682 435.398 152.816 436.168 154.048 436.168C155.098 436.168 155.966 435.538 156.372 434.726H156.4C156.4 434.726 156.358 434.964 156.358 435.286V436H157.632V431.52C157.632 429.728 156.61 428.748 154.832 428.748C153.838 428.748 152.76 429.112 152.186 429.588L152.732 430.582C153.306 430.176 154.02 429.896 154.72 429.896C155.602 429.896 156.274 430.288 156.274 431.45V431.59H155.91C154.44 431.59 151.682 431.842 151.682 434.068ZM153.04 433.956C153.04 432.654 154.916 432.57 155.924 432.57H156.274V432.836C156.274 433.886 155.56 435.09 154.37 435.09C153.488 435.09 153.04 434.516 153.04 433.956Z" fill="#3DAFCC"/>
<path d="M76.5192 455.176C76.5192 458.128 79.0632 460.288 82.3992 460.288C85.9512 460.288 88.2072 457.96 88.2072 455.32C88.2072 453.568 87.2232 452.512 85.9032 451.72C86.4072 451.216 87.9432 449.416 87.9432 447.28C87.9432 444.544 85.7592 442.768 82.6152 442.768C79.0392 442.768 77.3352 444.928 77.3352 447.256C77.3352 448.792 78.1272 449.824 79.2312 450.592C78.5832 451.024 76.5192 452.608 76.5192 455.176ZM84.0792 450.808C81.9672 449.872 79.6872 449.176 79.6872 447.256C79.6872 445.96 80.7192 444.904 82.5672 444.904C84.3672 444.904 85.6152 445.864 85.6152 447.472C85.6152 449.128 84.4392 450.424 84.0792 450.808ZM78.9432 454.984C78.9432 453.136 80.4552 452.008 81.0072 451.624C83.2152 452.68 85.7832 453.352 85.7832 455.272C85.7832 457 84.1752 458.152 82.3752 458.152C80.6232 458.152 78.9432 456.88 78.9432 454.984ZM91.0282 460H100.796V457.936H97.0762V443.056H94.9642L90.9082 446.992L92.3482 448.48L93.9322 446.944C94.5562 446.32 94.7482 445.96 94.7482 445.96H94.7962C94.7962 445.96 94.7722 446.464 94.7722 446.992V457.936H91.0282V460ZM102.696 457.936C103.968 459.472 105.912 460.288 107.904 460.288C111.312 460.288 113.904 457.84 113.904 454.6C113.904 451.528 111.576 449.056 108 449.056C107.184 449.056 106.2 449.344 105.792 449.56H105.744C105.744 449.56 105.84 449.224 105.888 448.696L106.272 445.12H112.776V443.056H104.208L103.368 451.456L104.76 451.96C105.552 451.432 106.632 451.12 107.616 451.12C109.8 451.12 111.456 452.56 111.456 454.6C111.456 456.664 109.752 458.032 107.76 458.032C106.008 458.032 104.76 457.096 104.04 456.208L102.696 457.936ZM128.507 460.288C133.043 460.288 134.507 456.4 134.507 451.504C134.507 446.632 133.043 442.768 128.507 442.768C123.995 442.768 122.507 446.632 122.507 451.504C122.507 456.4 123.995 460.288 128.507 460.288ZM128.507 458.104C125.747 458.104 124.955 455.224 124.955 451.504C124.955 447.832 125.747 444.952 128.507 444.952C131.291 444.952 132.059 447.832 132.059 451.504C132.059 455.224 131.291 458.104 128.507 458.104ZM143.437 460.288C147.973 460.288 149.437 456.4 149.437 451.504C149.437 446.632 147.973 442.768 143.437 442.768C138.925 442.768 137.437 446.632 137.437 451.504C137.437 456.4 138.925 460.288 143.437 460.288ZM143.437 458.104C140.677 458.104 139.885 455.224 139.885 451.504C139.885 447.832 140.677 444.952 143.437 444.952C146.221 444.952 146.989 447.832 146.989 451.504C146.989 455.224 146.221 458.104 143.437 458.104ZM158.366 460.288C162.902 460.288 164.366 456.4 164.366 451.504C164.366 446.632 162.902 442.768 158.366 442.768C153.854 442.768 152.366 446.632 152.366 451.504C152.366 456.4 153.854 460.288 158.366 460.288ZM158.366 458.104C155.606 458.104 154.814 455.224 154.814 451.504C154.814 447.832 155.606 444.952 158.366 444.952C161.15 444.952 161.918 447.832 161.918 451.504C161.918 455.224 161.15 458.104 158.366 458.104ZM174.16 460V456.736H172.072V455.176H174.16V453.04H172.072V451.216H174.16V442.864H178.672C180.768 442.864 182.32 443.288 183.328 444.136C184.352 444.984 184.864 446.216 184.864 447.832C184.864 449.464 184.312 450.744 183.208 451.672C182.104 452.584 180.48 453.04 178.336 453.04H176.32V455.176H180.28V456.736H176.32V460H174.16ZM176.32 451.216H178.024C179.48 451.216 180.608 450.976 181.408 450.496C182.224 450.016 182.632 449.152 182.632 447.904C182.632 446.816 182.296 446.008 181.624 445.48C180.952 444.952 179.904 444.688 178.48 444.688H176.32V451.216Z" fill="white"/>
<path d="M119.675 516H121.061V512.066H123.175L125.261 516H126.829L124.729 512.164C124.561 511.856 124.449 511.716 124.449 511.716V511.688C125.527 511.324 126.213 510.232 126.213 508.972C126.213 507.712 125.597 506.802 124.645 506.382C124.239 506.2 123.763 506.116 122.811 506.116H119.675V516ZM121.061 510.862V507.32H122.699C123.329 507.32 123.637 507.376 123.889 507.488C124.505 507.754 124.813 508.328 124.813 509.042C124.813 510.134 124.127 510.862 123.049 510.862H121.061ZM127.782 510.988C127.782 513.9 129.924 516.168 132.864 516.168C135.804 516.168 137.932 513.9 137.932 510.988C137.932 508.146 135.804 505.948 132.864 505.948C129.924 505.948 127.782 508.146 127.782 510.988ZM129.21 510.988C129.21 508.846 130.75 507.208 132.864 507.208C134.964 507.208 136.504 508.846 136.504 510.988C136.504 513.2 134.964 514.894 132.864 514.894C130.75 514.894 129.21 513.2 129.21 510.988ZM139.923 516H141.309V506.116H139.923V516Z" fill="#EDBD3C"/>
<path d="M128.034 535.344H130.29V534.36C130.29 531.456 134.538 531.072 134.538 527.112C134.538 524.448 132.234 522.72 129.522 522.72C127.794 522.72 126.258 523.44 125.346 524.256L126.642 525.912C127.386 525.312 128.37 524.904 129.354 524.904C130.938 524.904 132.09 525.936 132.09 527.28C132.09 530.16 128.034 530.568 128.034 534.216V535.344ZM127.962 540H130.362V537.624H127.962V540Z" fill="#EDBD3C"/>
<circle cx="295" cy="364" r="12" fill="#F9FAFA"/>
<path d="M293.356 366.291H296.644L297 358H293L293.356 366.291ZM293.244 370H296.756V367.483H293.244V370Z" fill="#1F282C"/>
<circle cx="295" cy="124" r="12" fill="#F9FAFA"/>
<path d="M293.356 126.291H296.644L297 118H293L293.356 126.291ZM293.244 130H296.756V127.483H293.244V130Z" fill="#1F282C"/>
<circle cx="295" cy="524" r="12" fill="#F9FAFA"/>
<path d="M293.356 526.291H296.644L297 518H293L293.356 526.291ZM293.244 530H296.756V527.483H293.244V530Z" fill="#1F282C"/>
<g opacity="0.5">
<path d="M305 279.002V277C305 275.898 304.104 275 303 275H287C285.897 275 285 275.898 285 277V279.002H305ZM291 276C291.553 276 292 276.448 292 277C292 277.553 291.553 278 291 278C290.447 278 290 277.553 290 277C290 276.448 290.447 276 291 276ZM288 276C288.553 276 289 276.448 289 277C289 277.553 288.553 278 288 278C287.447 278 287 277.553 287 277C287 276.448 287.447 276 288 276Z" fill="white"/>
<path d="M285 280.002V291C285 292.103 285.897 293 287 293H303C304.104 293 305 292.103 305 291V280.002H285Z" fill="white"/>
</g>
</svg>
