<svg width="279" height="644" viewBox="0 0 279 644" fill="none" xmlns="http://www.w3.org/2000/svg">
<rect opacity="0.25" x="10.5" y="0.5" width="258" height="70.996" stroke="white"/>
<path d="M27.612 95.7839H28.984V87.1039H32.386V85.8999H24.21V87.1039H27.612V95.7839ZM31.8614 92.2279C31.8614 94.3839 33.5694 95.9519 35.6834 95.9519C37.7834 95.9519 39.4914 94.3839 39.4914 92.2279C39.4914 90.0859 37.7834 88.5319 35.6694 88.5319C33.5694 88.5319 31.8614 90.0859 31.8614 92.2279ZM33.2474 92.2279C33.2474 90.7579 34.3394 89.7079 35.6834 89.7079C37.0134 89.7079 38.1194 90.7579 38.1194 92.2279C38.1194 93.7119 37.0134 94.7759 35.6834 94.7759C34.3394 94.7759 33.2474 93.7119 33.2474 92.2279ZM40.1667 95.8539C42.2527 95.7419 43.0647 94.0899 43.0647 90.8839V89.8199H45.1507V95.7839H46.5087V88.6999H41.7627V90.8839C41.7627 93.4459 41.2027 94.4819 40.1667 94.6359V95.8539ZM48.6066 95.7839H51.3646C53.1566 95.7839 53.9686 94.8739 53.9686 93.5439C53.9686 91.9339 52.8626 91.2619 51.3926 91.2619H49.9646V88.6999H48.6066V95.7839ZM49.9646 94.8039V92.2419H51.1826C52.1626 92.2419 52.5826 92.7739 52.5826 93.5299C52.5826 94.2719 52.1626 94.8039 51.1826 94.8039H49.9646ZM55.4289 95.7839H56.7869V92.7179H57.8089L59.9229 95.7839H61.5329L58.8869 92.1019V92.0739L61.2529 88.6999H59.7129L57.7809 91.5559H56.7869V88.6999H55.4289V95.7839ZM61.9806 92.2279C61.9806 94.3839 63.6886 95.9519 65.8026 95.9519C67.9026 95.9519 69.6106 94.3839 69.6106 92.2279C69.6106 90.0859 67.9026 88.5319 65.7886 88.5319C63.6886 88.5319 61.9806 90.0859 61.9806 92.2279ZM63.3666 92.2279C63.3666 90.7579 64.4586 89.7079 65.8026 89.7079C67.1326 89.7079 68.2386 90.7579 68.2386 92.2279C68.2386 93.7119 67.1326 94.7759 65.8026 94.7759C64.4586 94.7759 63.3666 93.7119 63.3666 92.2279ZM74.2853 92.2419C74.2853 94.3699 75.8393 95.9519 78.0793 95.9519C79.1853 95.9519 80.2633 95.5039 80.9073 94.8179L80.3613 93.8239C79.8153 94.3979 78.9613 94.7759 78.1773 94.7759C76.7073 94.7759 75.6713 93.6699 75.6713 92.2279C75.6713 90.7859 76.7073 89.7079 78.1353 89.7079C78.8773 89.7079 79.6193 90.0439 80.0953 90.5199L80.7393 89.5679C80.0673 88.8539 79.0173 88.5319 78.0793 88.5319C75.8533 88.5319 74.2853 90.1419 74.2853 92.2419ZM85.4142 92.2279C85.4142 94.3839 87.1222 95.9519 89.2362 95.9519C91.3362 95.9519 93.0442 94.3839 93.0442 92.2279C93.0442 90.0859 91.3362 88.5319 89.2222 88.5319C87.1222 88.5319 85.4142 90.0859 85.4142 92.2279ZM86.8002 92.2279C86.8002 90.7579 87.8922 89.7079 89.2362 89.7079C90.5662 89.7079 91.6722 90.7579 91.6722 92.2279C91.6722 93.7119 90.5662 94.7759 89.2362 94.7759C87.8922 94.7759 86.8002 93.7119 86.8002 92.2279ZM95.8891 94.6639C96.7851 93.2639 96.8971 91.2479 96.8971 90.1839V89.8059H99.0251V94.6639H95.8891ZM93.6211 94.6639V97.4639H94.8951V95.7839H100.145V97.4639H101.391V94.6639H100.383V88.6999H95.5951V90.0019C95.5951 91.0939 95.4831 93.3059 94.4891 94.6639H93.6211ZM102.816 95.7839H104.174V92.7459H107.758V95.7839H109.116V88.6999H107.758V91.5839H104.174V88.6999H102.816V95.7839ZM110.748 92.2279C110.748 94.3839 112.456 95.9519 114.57 95.9519C116.67 95.9519 118.378 94.3839 118.378 92.2279C118.378 90.0859 116.67 88.5319 114.556 88.5319C112.456 88.5319 110.748 90.0859 110.748 92.2279ZM112.134 92.2279C112.134 90.7579 113.226 89.7079 114.57 89.7079C115.9 89.7079 117.006 90.7579 117.006 92.2279C117.006 93.7119 115.9 94.7759 114.57 94.7759C113.226 94.7759 112.134 93.7119 112.134 92.2279ZM123.137 87.8879C124.229 87.8879 125.209 87.2439 125.209 86.0959V85.8859H124.131V86.0679C124.131 86.6979 123.627 87.0059 123.137 87.0059C122.647 87.0059 122.157 86.6979 122.157 86.0819V85.8859H121.065V86.0959C121.065 87.2439 122.059 87.8879 123.137 87.8879ZM120.015 95.7839H121.317L124.383 91.5559C124.607 91.2199 124.957 90.7439 124.999 90.6179H125.027C125.027 90.7299 124.985 91.2199 124.985 91.5559V95.7839H126.301V88.6999H124.985L121.933 92.9279C121.695 93.2639 121.359 93.7539 121.303 93.8799H121.275C121.289 93.8099 121.317 93.3059 121.317 92.9279V88.6999H120.015V95.7839ZM131.882 95.7839H133.24V92.7179H134.262L136.376 95.7839H137.986L135.34 92.1019V92.0739L137.706 88.6999H136.166L134.234 91.5559H133.24V88.6999H131.882V95.7839ZM138.434 92.2279C138.434 94.3839 140.142 95.9519 142.256 95.9519C144.356 95.9519 146.064 94.3839 146.064 92.2279C146.064 90.0859 144.356 88.5319 142.242 88.5319C140.142 88.5319 138.434 90.0859 138.434 92.2279ZM139.82 92.2279C139.82 90.7579 140.912 89.7079 142.256 89.7079C143.586 89.7079 144.692 90.7579 144.692 92.2279C144.692 93.7119 143.586 94.7759 142.256 94.7759C140.912 94.7759 139.82 93.7119 139.82 92.2279ZM147.7 95.7839H149.058V92.7459H152.642V95.7839H154V88.6999H152.642V91.5839H149.058V88.6999H147.7V95.7839ZM157.803 95.7839H159.147V89.8619H161.625V88.6999H155.339V89.8619H157.803V95.7839ZM162.264 92.2419C162.264 94.3419 163.804 95.9519 166.03 95.9519C167.01 95.9519 168.088 95.5739 168.774 94.9439L168.2 93.9499C167.64 94.4539 166.87 94.7759 166.114 94.7759C164.84 94.7759 163.748 93.9499 163.678 92.4239H168.83C168.858 92.2279 168.886 92.0319 168.886 91.8499C168.886 90.0299 167.822 88.5319 165.82 88.5319C163.804 88.5319 162.264 89.9879 162.264 92.2419ZM163.72 91.4439C163.916 90.2679 164.742 89.5819 165.792 89.5819C166.716 89.5819 167.472 90.2259 167.514 91.4439H163.72ZM170.519 95.7839H171.877V92.7179H172.899L175.013 95.7839H176.623L173.977 92.1019V92.0739L176.343 88.6999H174.803L172.871 91.5559H171.877V88.6999H170.519V95.7839ZM177.07 92.2419C177.07 94.3699 178.624 95.9519 180.864 95.9519C181.97 95.9519 183.048 95.5039 183.692 94.8179L183.146 93.8239C182.6 94.3979 181.746 94.7759 180.962 94.7759C179.492 94.7759 178.456 93.6699 178.456 92.2279C178.456 90.7859 179.492 89.7079 180.92 89.7079C181.662 89.7079 182.404 90.0439 182.88 90.5199L183.524 89.5679C182.852 88.8539 181.802 88.5319 180.864 88.5319C178.638 88.5319 177.07 90.1419 177.07 92.2419ZM186.869 95.7839H188.213V89.8619H190.691V88.6999H184.405V89.8619H186.869V95.7839ZM192.025 95.7839H193.383V92.7459H196.967V95.7839H198.325V88.6999H196.967V91.5839H193.383V88.6999H192.025V95.7839ZM199.957 92.2279C199.957 94.3839 201.665 95.9519 203.779 95.9519C205.879 95.9519 207.587 94.3839 207.587 92.2279C207.587 90.0859 205.879 88.5319 203.765 88.5319C201.665 88.5319 199.957 90.0859 199.957 92.2279ZM201.343 92.2279C201.343 90.7579 202.435 89.7079 203.779 89.7079C205.109 89.7079 206.215 90.7579 206.215 92.2279C206.215 93.7119 205.109 94.7759 203.779 94.7759C202.435 94.7759 201.343 93.7119 201.343 92.2279ZM212.346 87.8879C213.438 87.8879 214.418 87.2439 214.418 86.0959V85.8859H213.34V86.0679C213.34 86.6979 212.836 87.0059 212.346 87.0059C211.856 87.0059 211.366 86.6979 211.366 86.0819V85.8859H210.274V86.0959C210.274 87.2439 211.268 87.8879 212.346 87.8879ZM209.224 95.7839H210.526L213.592 91.5559C213.816 91.2199 214.166 90.7439 214.208 90.6179H214.236C214.236 90.7299 214.194 91.2199 214.194 91.5559V95.7839H215.51V88.6999H214.194L211.142 92.9279C210.904 93.2639 210.568 93.7539 210.512 93.8799H210.484C210.498 93.8099 210.526 93.3059 210.526 92.9279V88.6999H209.224V95.7839ZM220.629 92.2419C220.629 94.3699 222.183 95.9519 224.423 95.9519C225.529 95.9519 226.607 95.5039 227.251 94.8179L226.705 93.8239C226.159 94.3979 225.305 94.7759 224.521 94.7759C223.051 94.7759 222.015 93.6699 222.015 92.2279C222.015 90.7859 223.051 89.7079 224.479 89.7079C225.221 89.7079 225.963 90.0439 226.439 90.5199L227.083 89.5679C226.411 88.8539 225.361 88.5319 224.423 88.5319C222.197 88.5319 220.629 90.1419 220.629 92.2419ZM228.72 95.7839H230.022L233.088 91.5559C233.312 91.2199 233.662 90.7439 233.704 90.6179H233.732C233.732 90.7299 233.69 91.2199 233.69 91.5559V95.7839H235.006V88.6999H233.69L230.638 92.9279C230.4 93.2639 230.064 93.7539 230.008 93.8799H229.98C229.994 93.8099 230.022 93.3059 230.022 92.9279V88.6999H228.72V95.7839ZM236.625 92.2419C236.625 94.3699 238.179 95.9519 240.419 95.9519C241.525 95.9519 242.603 95.5039 243.247 94.8179L242.701 93.8239C242.155 94.3979 241.301 94.7759 240.517 94.7759C239.047 94.7759 238.011 93.6699 238.011 92.2279C238.011 90.7859 239.047 89.7079 240.475 89.7079C241.217 89.7079 241.959 90.0439 242.435 90.5199L243.079 89.5679C242.407 88.8539 241.357 88.5319 240.419 88.5319C238.193 88.5319 236.625 90.1419 236.625 92.2419ZM246.424 95.7839H247.768V89.8619H250.246V88.6999H243.96V89.8619H246.424V95.7839ZM250.885 92.2419C250.885 94.3419 252.425 95.9519 254.651 95.9519C255.631 95.9519 256.709 95.5739 257.395 94.9439L256.821 93.9499C256.261 94.4539 255.491 94.7759 254.735 94.7759C253.461 94.7759 252.369 93.9499 252.299 92.4239H257.451C257.479 92.2279 257.507 92.0319 257.507 91.8499C257.507 90.0299 256.443 88.5319 254.441 88.5319C252.425 88.5319 250.885 89.9879 250.885 92.2419ZM252.341 91.4439C252.537 90.2679 253.363 89.5819 254.413 89.5819C255.337 89.5819 256.093 90.2259 256.135 91.4439H252.341ZM258.846 95.7839H260.162L260.47 91.5699C260.498 91.1499 260.456 90.3519 260.456 90.3519H260.484C260.484 90.3519 260.708 90.8839 260.932 91.4019L262.612 94.9299H263.774L265.454 91.3879C265.72 90.8419 265.902 90.3519 265.902 90.3519H265.93C265.93 90.3519 265.902 91.1499 265.916 91.5699L266.224 95.7839H267.54L266.924 88.6999H265.44L263.592 92.7039C263.41 93.1379 263.2 93.6559 263.2 93.6559H263.172C263.172 93.6559 262.976 93.1239 262.78 92.7039L260.974 88.6999H259.462L258.846 95.7839ZM275.778 95.7839H277.136V88.6999H275.778V95.7839ZM269.366 95.7839H272.096C273.874 95.7839 274.686 94.8739 274.686 93.5439C274.686 91.9339 273.58 91.2619 272.11 91.2619H270.724V88.6999H269.366V95.7839ZM270.724 94.8039V92.2419H271.9C272.88 92.2419 273.314 92.7739 273.314 93.5299C273.314 94.2719 272.894 94.8039 271.914 94.8039H270.724Z" fill="white"/>
<circle cx="8" cy="90.9956" r="8" fill="#F9FAFA"/>
<path d="M6.90378 92.3315H9.09638L9.33341 86.7944H6.66675L6.90378 92.3315ZM6.82971 94.8087H9.17045V93.1273H6.82971V94.8087Z" fill="#1F282C"/>
<path d="M105.612 292.122H106.984V283.442H110.386V282.238H102.21V283.442H105.612V292.122ZM109.861 288.566C109.861 290.722 111.569 292.29 113.683 292.29C115.783 292.29 117.491 290.722 117.491 288.566C117.491 286.424 115.783 284.87 113.669 284.87C111.569 284.87 109.861 286.424 109.861 288.566ZM111.247 288.566C111.247 287.096 112.339 286.046 113.683 286.046C115.013 286.046 116.119 287.096 116.119 288.566C116.119 290.05 115.013 291.114 113.683 291.114C112.339 291.114 111.247 290.05 111.247 288.566ZM118.167 292.192C120.253 292.08 121.065 290.428 121.065 287.222V286.158H123.151V292.122H124.509V285.038H119.763V287.222C119.763 289.784 119.203 290.82 118.167 290.974V292.192ZM126.607 292.122H129.365C131.157 292.122 131.969 291.212 131.969 289.882C131.969 288.272 130.863 287.6 129.393 287.6H127.965V285.038H126.607V292.122ZM127.965 291.142V288.58H129.183C130.163 288.58 130.583 289.112 130.583 289.868C130.583 290.61 130.163 291.142 129.183 291.142H127.965ZM133.429 292.122H134.787V289.056H135.809L137.923 292.122H139.533L136.887 288.44V288.412L139.253 285.038H137.713L135.781 287.894H134.787V285.038H133.429V292.122ZM139.981 288.566C139.981 290.722 141.689 292.29 143.803 292.29C145.903 292.29 147.611 290.722 147.611 288.566C147.611 286.424 145.903 284.87 143.789 284.87C141.689 284.87 139.981 286.424 139.981 288.566ZM141.367 288.566C141.367 287.096 142.459 286.046 143.803 286.046C145.133 286.046 146.239 287.096 146.239 288.566C146.239 290.05 145.133 291.114 143.803 291.114C142.459 291.114 141.367 290.05 141.367 288.566ZM152.285 288.58C152.285 290.708 153.839 292.29 156.079 292.29C157.185 292.29 158.263 291.842 158.907 291.156L158.361 290.162C157.815 290.736 156.961 291.114 156.177 291.114C154.707 291.114 153.671 290.008 153.671 288.566C153.671 287.124 154.707 286.046 156.135 286.046C156.877 286.046 157.619 286.382 158.095 286.858L158.739 285.906C158.067 285.192 157.017 284.87 156.079 284.87C153.853 284.87 152.285 286.48 152.285 288.58ZM163.414 288.58C163.414 290.708 164.968 292.29 167.208 292.29C168.314 292.29 169.392 291.842 170.036 291.156L169.49 290.162C168.944 290.736 168.09 291.114 167.306 291.114C165.836 291.114 164.8 290.008 164.8 288.566C164.8 287.124 165.836 286.046 167.264 286.046C168.006 286.046 168.748 286.382 169.224 286.858L169.868 285.906C169.196 285.192 168.146 284.87 167.208 284.87C164.982 284.87 163.414 286.48 163.414 288.58ZM170.917 290.19C170.917 291.52 172.051 292.29 173.283 292.29C174.333 292.29 175.201 291.66 175.607 290.848H175.635C175.635 290.848 175.593 291.086 175.593 291.408V292.122H176.867V287.642C176.867 285.85 175.845 284.87 174.067 284.87C173.073 284.87 171.995 285.234 171.421 285.71L171.967 286.704C172.541 286.298 173.255 286.018 173.955 286.018C174.837 286.018 175.509 286.41 175.509 287.572V287.712H175.145C173.675 287.712 170.917 287.964 170.917 290.19ZM172.275 290.078C172.275 288.776 174.151 288.692 175.159 288.692H175.509V288.958C175.509 290.008 174.795 291.212 173.605 291.212C172.723 291.212 172.275 290.638 172.275 290.078ZM181.996 284.226C183.088 284.226 184.068 283.582 184.068 282.434V282.224H182.99V282.406C182.99 283.036 182.486 283.344 181.996 283.344C181.506 283.344 181.016 283.036 181.016 282.42V282.224H179.924V282.434C179.924 283.582 180.918 284.226 181.996 284.226ZM178.874 292.122H180.176L183.242 287.894C183.466 287.558 183.816 287.082 183.858 286.956H183.886C183.886 287.068 183.844 287.558 183.844 287.894V292.122H185.16V285.038H183.844L180.792 289.266C180.554 289.602 180.218 290.092 180.162 290.218H180.134C180.148 290.148 180.176 289.644 180.176 289.266V285.038H178.874V292.122ZM188.949 292.122H190.293V286.2H192.771V285.038H186.485V286.2H188.949V292.122ZM193.448 290.19C193.448 291.52 194.582 292.29 195.814 292.29C196.864 292.29 197.732 291.66 198.138 290.848H198.166C198.166 290.848 198.124 291.086 198.124 291.408V292.122H199.398V287.642C199.398 285.85 198.376 284.87 196.598 284.87C195.604 284.87 194.526 285.234 193.952 285.71L194.498 286.704C195.072 286.298 195.786 286.018 196.486 286.018C197.368 286.018 198.04 286.41 198.04 287.572V287.712H197.676C196.206 287.712 193.448 287.964 193.448 290.19ZM194.806 290.078C194.806 288.776 196.682 288.692 197.69 288.692H198.04V288.958C198.04 290.008 197.326 291.212 196.136 291.212C195.254 291.212 194.806 290.638 194.806 290.078Z" fill="white"/>
<g opacity="0.5">
<path d="M92.6666 283.801V282.464C92.6666 281.728 92.0693 281.129 91.3333 281.129H80.6666C79.9313 281.129 79.3333 281.728 79.3333 282.464V283.801H92.6666ZM83.3333 281.797C83.7019 281.797 83.9999 282.096 83.9999 282.464C83.9999 282.834 83.7019 283.132 83.3333 283.132C82.9646 283.132 82.6666 282.834 82.6666 282.464C82.6666 282.096 82.9646 281.797 83.3333 281.797ZM81.3333 281.797C81.7019 281.797 81.9999 282.096 81.9999 282.464C81.9999 282.834 81.7019 283.132 81.3333 283.132C80.9646 283.132 80.6666 282.834 80.6666 282.464C80.6666 282.096 80.9646 281.797 81.3333 281.797Z" fill="white"/>
<path d="M79.3333 284.469V291.814C79.3333 292.551 79.9313 293.15 80.6666 293.15H91.3333C92.0693 293.15 92.6666 292.551 92.6666 291.814V284.469H79.3333Z" fill="white"/>
</g>
<rect opacity="0.25" x="10.5" y="116.494" width="258" height="70.996" stroke="white"/>
<rect opacity="0.25" x="10.5" y="196.489" width="258" height="70.996" stroke="white"/>
<rect opacity="0.25" x="10.5" y="312.483" width="258" height="70.996" stroke="white"/>
<path d="M113.302 408.322H114.688V403.982H119.826V408.322H121.198V398.438H119.826V402.778H114.688V398.438H113.302V408.322ZM122.951 404.78C122.951 406.88 124.491 408.49 126.717 408.49C127.697 408.49 128.775 408.112 129.461 407.482L128.887 406.488C128.327 406.992 127.557 407.314 126.801 407.314C125.527 407.314 124.435 406.488 124.365 404.962H129.517C129.545 404.766 129.573 404.57 129.573 404.388C129.573 402.568 128.509 401.07 126.507 401.07C124.491 401.07 122.951 402.526 122.951 404.78ZM124.407 403.982C124.603 402.806 125.429 402.12 126.479 402.12C127.403 402.12 128.159 402.764 128.201 403.982H124.407ZM131.206 408.322H132.508L135.574 404.094C135.798 403.758 136.148 403.282 136.19 403.156H136.218C136.218 403.268 136.176 403.758 136.176 404.094V408.322H137.492V401.238H136.176L133.124 405.466C132.886 405.802 132.55 406.292 132.494 406.418H132.466C132.48 406.348 132.508 405.844 132.508 405.466V401.238H131.206V408.322ZM138.887 407.454C139.475 408.014 140.399 408.49 141.491 408.49C142.947 408.49 144.207 407.748 144.207 406.292C144.207 405.382 143.647 404.85 142.933 404.626V404.598C143.493 404.36 143.969 403.87 143.969 402.988C143.969 401.728 142.919 401.07 141.575 401.07C140.455 401.07 139.657 401.434 139.111 401.84L139.615 402.75C140.161 402.344 140.721 402.134 141.337 402.134C142.121 402.134 142.597 402.498 142.597 403.156C142.597 403.87 142.051 404.178 141.253 404.178H140.511V405.158H141.379C142.373 405.158 142.835 405.55 142.835 406.236C142.835 407.006 142.177 407.398 141.365 407.398C140.511 407.398 139.839 406.894 139.517 406.558L138.887 407.454ZM145.849 408.322H148.873C150.413 408.322 151.477 407.622 151.477 406.306C151.477 405.522 151.015 404.836 150.133 404.626V404.612C150.777 404.332 151.141 403.744 151.141 403.058C151.141 401.868 150.203 401.238 148.775 401.238H145.849V408.322ZM147.207 404.234V402.176H148.495C149.349 402.176 149.755 402.512 149.755 403.156C149.755 403.814 149.349 404.234 148.537 404.234H147.207ZM147.207 407.37V405.144H148.649C149.587 405.144 150.105 405.564 150.105 406.264C150.105 406.922 149.643 407.37 148.663 407.37H147.207ZM152.66 404.78C152.66 406.88 154.2 408.49 156.426 408.49C157.406 408.49 158.484 408.112 159.17 407.482L158.596 406.488C158.036 406.992 157.266 407.314 156.51 407.314C155.236 407.314 154.144 406.488 154.074 404.962H159.226C159.254 404.766 159.282 404.57 159.282 404.388C159.282 402.568 158.218 401.07 156.216 401.07C154.2 401.07 152.66 402.526 152.66 404.78ZM154.116 403.982C154.312 402.806 155.138 402.12 156.188 402.12C157.112 402.12 157.868 402.764 157.91 403.982H154.116ZM160.453 404.78C160.453 406.908 162.007 408.49 164.247 408.49C165.353 408.49 166.431 408.042 167.075 407.356L166.529 406.362C165.983 406.936 165.129 407.314 164.345 407.314C162.875 407.314 161.839 406.208 161.839 404.766C161.839 403.324 162.875 402.246 164.303 402.246C165.045 402.246 165.787 402.582 166.263 403.058L166.907 402.106C166.235 401.392 165.185 401.07 164.247 401.07C162.021 401.07 160.453 402.68 160.453 404.78ZM170.252 408.322H171.596V402.4H174.074V401.238H167.788V402.4H170.252V408.322ZM175.407 408.322H176.765V405.284H180.349V408.322H181.707V401.238H180.349V404.122H176.765V401.238H175.407V408.322ZM183.34 404.766C183.34 406.922 185.048 408.49 187.162 408.49C189.262 408.49 190.97 406.922 190.97 404.766C190.97 402.624 189.262 401.07 187.148 401.07C185.048 401.07 183.34 402.624 183.34 404.766ZM184.726 404.766C184.726 403.296 185.818 402.246 187.162 402.246C188.492 402.246 189.598 403.296 189.598 404.766C189.598 406.25 188.492 407.314 187.162 407.314C185.818 407.314 184.726 406.25 184.726 404.766Z" fill="white"/>
<circle cx="96" cy="402.978" r="8" fill="#F9FAFA"/>
<path d="M94.9038 403.869H97.0964L97.3334 398.332H94.6667L94.9038 403.869ZM94.8297 406.346H97.1704V404.665H94.8297V406.346Z" fill="#1F282C"/>
<path d="M113.302 638.966H114.688V634.626H119.826V638.966H121.198V629.082H119.826V633.422H114.688V629.082H113.302V638.966ZM122.951 635.424C122.951 637.524 124.491 639.134 126.717 639.134C127.697 639.134 128.775 638.756 129.461 638.126L128.887 637.132C128.327 637.636 127.557 637.958 126.801 637.958C125.527 637.958 124.435 637.132 124.365 635.606H129.517C129.545 635.41 129.573 635.214 129.573 635.032C129.573 633.212 128.509 631.714 126.507 631.714C124.491 631.714 122.951 633.17 122.951 635.424ZM124.407 634.626C124.603 633.45 125.429 632.764 126.479 632.764C127.403 632.764 128.159 633.408 128.201 634.626H124.407ZM131.206 638.966H132.508L135.574 634.738C135.798 634.402 136.148 633.926 136.19 633.8H136.218C136.218 633.912 136.176 634.402 136.176 634.738V638.966H137.492V631.882H136.176L133.124 636.11C132.886 636.446 132.55 636.936 132.494 637.062H132.466C132.48 636.992 132.508 636.488 132.508 636.11V631.882H131.206V638.966ZM138.887 638.098C139.475 638.658 140.399 639.134 141.491 639.134C142.947 639.134 144.207 638.392 144.207 636.936C144.207 636.026 143.647 635.494 142.933 635.27V635.242C143.493 635.004 143.969 634.514 143.969 633.632C143.969 632.372 142.919 631.714 141.575 631.714C140.455 631.714 139.657 632.078 139.111 632.484L139.615 633.394C140.161 632.988 140.721 632.778 141.337 632.778C142.121 632.778 142.597 633.142 142.597 633.8C142.597 634.514 142.051 634.822 141.253 634.822H140.511V635.802H141.379C142.373 635.802 142.835 636.194 142.835 636.88C142.835 637.65 142.177 638.042 141.365 638.042C140.511 638.042 139.839 637.538 139.517 637.202L138.887 638.098ZM145.849 638.966H148.873C150.413 638.966 151.477 638.266 151.477 636.95C151.477 636.166 151.015 635.48 150.133 635.27V635.256C150.777 634.976 151.141 634.388 151.141 633.702C151.141 632.512 150.203 631.882 148.775 631.882H145.849V638.966ZM147.207 634.878V632.82H148.495C149.349 632.82 149.755 633.156 149.755 633.8C149.755 634.458 149.349 634.878 148.537 634.878H147.207ZM147.207 638.014V635.788H148.649C149.587 635.788 150.105 636.208 150.105 636.908C150.105 637.566 149.643 638.014 148.663 638.014H147.207ZM152.66 635.424C152.66 637.524 154.2 639.134 156.426 639.134C157.406 639.134 158.484 638.756 159.17 638.126L158.596 637.132C158.036 637.636 157.266 637.958 156.51 637.958C155.236 637.958 154.144 637.132 154.074 635.606H159.226C159.254 635.41 159.282 635.214 159.282 635.032C159.282 633.212 158.218 631.714 156.216 631.714C154.2 631.714 152.66 633.17 152.66 635.424ZM154.116 634.626C154.312 633.45 155.138 632.764 156.188 632.764C157.112 632.764 157.868 633.408 157.91 634.626H154.116ZM160.453 635.424C160.453 637.552 162.007 639.134 164.247 639.134C165.353 639.134 166.431 638.686 167.075 638L166.529 637.006C165.983 637.58 165.129 637.958 164.345 637.958C162.875 637.958 161.839 636.852 161.839 635.41C161.839 633.968 162.875 632.89 164.303 632.89C165.045 632.89 165.787 633.226 166.263 633.702L166.907 632.75C166.235 632.036 165.185 631.714 164.247 631.714C162.021 631.714 160.453 633.324 160.453 635.424ZM170.252 638.966H171.596V633.044H174.074V631.882H167.788V633.044H170.252V638.966ZM175.407 638.966H176.765V635.928H180.349V638.966H181.707V631.882H180.349V634.766H176.765V631.882H175.407V638.966ZM183.34 635.41C183.34 637.566 185.048 639.134 187.162 639.134C189.262 639.134 190.97 637.566 190.97 635.41C190.97 633.268 189.262 631.714 187.148 631.714C185.048 631.714 183.34 633.268 183.34 635.41ZM184.726 635.41C184.726 633.94 185.818 632.89 187.162 632.89C188.492 632.89 189.598 633.94 189.598 635.41C189.598 636.894 188.492 637.958 187.162 637.958C185.818 637.958 184.726 636.894 184.726 635.41Z" fill="white"/>
<circle cx="96" cy="633.966" r="8" fill="#F2C400"/>
<path d="M94.9038 635.27H97.0964L97.3334 629.732H94.6667L94.9038 635.27ZM94.8297 637.747H97.1704V636.065H94.8297V637.747Z" fill="#1F282C"/>
<rect opacity="0.25" x="10.5" y="428.477" width="258" height="70.996" stroke="white"/>
<path d="M50.612 524.522H51.984V515.842H55.386V514.638H47.21V515.842H50.612V524.522ZM54.8614 520.966C54.8614 523.122 56.5694 524.69 58.6834 524.69C60.7834 524.69 62.4914 523.122 62.4914 520.966C62.4914 518.824 60.7834 517.27 58.6694 517.27C56.5694 517.27 54.8614 518.824 54.8614 520.966ZM56.2474 520.966C56.2474 519.496 57.3394 518.446 58.6834 518.446C60.0134 518.446 61.1194 519.496 61.1194 520.966C61.1194 522.45 60.0134 523.514 58.6834 523.514C57.3394 523.514 56.2474 522.45 56.2474 520.966ZM63.1667 524.592C65.2527 524.48 66.0647 522.828 66.0647 519.622V518.558H68.1507V524.522H69.5087V517.438H64.7627V519.622C64.7627 522.184 64.2027 523.22 63.1667 523.374V524.592ZM71.6066 524.522H74.3646C76.1566 524.522 76.9686 523.612 76.9686 522.282C76.9686 520.672 75.8626 520 74.3926 520H72.9646V517.438H71.6066V524.522ZM72.9646 523.542V520.98H74.1826C75.1626 520.98 75.5826 521.512 75.5826 522.268C75.5826 523.01 75.1626 523.542 74.1826 523.542H72.9646ZM78.4289 524.522H79.7869V521.456H80.8089L82.9229 524.522H84.5329L81.8869 520.84V520.812L84.2529 517.438H82.7129L80.7809 520.294H79.7869V517.438H78.4289V524.522ZM84.9806 520.966C84.9806 523.122 86.6886 524.69 88.8026 524.69C90.9026 524.69 92.6106 523.122 92.6106 520.966C92.6106 518.824 90.9026 517.27 88.7886 517.27C86.6886 517.27 84.9806 518.824 84.9806 520.966ZM86.3666 520.966C86.3666 519.496 87.4586 518.446 88.8026 518.446C90.1326 518.446 91.2386 519.496 91.2386 520.966C91.2386 522.45 90.1326 523.514 88.8026 523.514C87.4586 523.514 86.3666 522.45 86.3666 520.966ZM97.7473 524.522H99.1053V518.6H102.577V524.522H103.935V517.438H97.7473V524.522ZM105.57 520.966C105.57 523.122 107.278 524.69 109.392 524.69C111.492 524.69 113.2 523.122 113.2 520.966C113.2 518.824 111.492 517.27 109.378 517.27C107.278 517.27 105.57 518.824 105.57 520.966ZM106.956 520.966C106.956 519.496 108.048 518.446 109.392 518.446C110.722 518.446 111.828 519.496 111.828 520.966C111.828 522.45 110.722 523.514 109.392 523.514C108.048 523.514 106.956 522.45 106.956 520.966ZM120.045 524.522H121.389V518.6H123.867V517.438H117.581V518.6H120.045V524.522ZM125.2 527.322H126.558V524.102C126.558 523.738 126.502 523.486 126.502 523.486H126.53C127.02 524.242 127.832 524.69 128.728 524.69C130.59 524.69 131.934 523.234 131.934 520.98C131.934 518.782 130.744 517.27 128.826 517.27C127.79 517.27 126.894 517.746 126.446 518.6H126.418C126.418 518.6 126.46 518.362 126.46 518.068V517.438H125.2V527.322ZM126.516 521.008C126.516 519.216 127.496 518.46 128.56 518.46C129.736 518.46 130.562 519.454 130.562 520.994C130.562 522.604 129.638 523.514 128.518 523.514C127.216 523.514 126.516 522.268 126.516 521.008ZM133.021 522.59C133.021 523.92 134.155 524.69 135.387 524.69C136.437 524.69 137.305 524.06 137.711 523.248H137.739C137.739 523.248 137.697 523.486 137.697 523.808V524.522H138.971V520.042C138.971 518.25 137.949 517.27 136.171 517.27C135.177 517.27 134.099 517.634 133.525 518.11L134.071 519.104C134.645 518.698 135.359 518.418 136.059 518.418C136.941 518.418 137.613 518.81 137.613 519.972V520.112H137.249C135.779 520.112 133.021 520.364 133.021 522.59ZM134.379 522.478C134.379 521.176 136.255 521.092 137.263 521.092H137.613V521.358C137.613 522.408 136.899 523.612 135.709 523.612C134.827 523.612 134.379 523.038 134.379 522.478ZM140.978 524.522H142.336V521.484H145.92V524.522H147.278V517.438H145.92V520.322H142.336V517.438H140.978V524.522ZM148.686 523.654C149.274 524.214 150.198 524.69 151.29 524.69C152.746 524.69 154.006 523.948 154.006 522.492C154.006 521.582 153.446 521.05 152.732 520.826V520.798C153.292 520.56 153.768 520.07 153.768 519.188C153.768 517.928 152.718 517.27 151.374 517.27C150.254 517.27 149.456 517.634 148.91 518.04L149.414 518.95C149.96 518.544 150.52 518.334 151.136 518.334C151.92 518.334 152.396 518.698 152.396 519.356C152.396 520.07 151.85 520.378 151.052 520.378H150.31V521.358H151.178C152.172 521.358 152.634 521.75 152.634 522.436C152.634 523.206 151.976 523.598 151.164 523.598C150.31 523.598 149.638 523.094 149.316 522.758L148.686 523.654ZM155.06 522.59C155.06 523.92 156.194 524.69 157.426 524.69C158.476 524.69 159.344 524.06 159.75 523.248H159.778C159.778 523.248 159.736 523.486 159.736 523.808V524.522H161.01V520.042C161.01 518.25 159.988 517.27 158.21 517.27C157.216 517.27 156.138 517.634 155.564 518.11L156.11 519.104C156.684 518.698 157.398 518.418 158.098 518.418C158.98 518.418 159.652 518.81 159.652 519.972V520.112H159.288C157.818 520.112 155.06 520.364 155.06 522.59ZM156.418 522.478C156.418 521.176 158.294 521.092 159.302 521.092H159.652V521.358C159.652 522.408 158.938 523.612 157.748 523.612C156.866 523.612 156.418 523.038 156.418 522.478ZM163.017 524.522H164.375V521.456H165.397L167.511 524.522H169.121L166.475 520.84V520.812L168.841 517.438H167.301L165.369 520.294H164.375V517.438H163.017V524.522ZM170.331 524.522H176.183V526.202H177.429V523.346H176.435V517.438H175.063V523.346H171.689V517.438H170.331V524.522ZM178.876 524.522H180.178L183.244 520.294C183.468 519.958 183.818 519.482 183.86 519.356H183.888C183.888 519.468 183.846 519.958 183.846 520.294V524.522H185.162V517.438H183.846L180.794 521.666C180.556 522.002 180.22 522.492 180.164 522.618H180.136C180.15 522.548 180.178 522.044 180.178 521.666V517.438H178.876V524.522ZM186.529 524.522H188.027L189.763 521.96H190.953V524.522H192.311V517.438H189.483C187.985 517.438 186.949 518.208 186.949 519.664C186.949 520.742 187.677 521.498 188.489 521.722V521.736C188.489 521.736 188.321 521.918 188.167 522.17L186.529 524.522ZM189.777 520.966C188.951 520.966 188.321 520.532 188.321 519.65C188.321 518.74 188.909 518.376 189.819 518.376H190.953V520.966H189.777ZM194.113 524.522H195.429L195.737 520.308C195.765 519.888 195.723 519.09 195.723 519.09H195.751C195.751 519.09 195.975 519.622 196.199 520.14L197.879 523.668H199.041L200.721 520.126C200.987 519.58 201.169 519.09 201.169 519.09H201.197C201.197 519.09 201.169 519.888 201.183 520.308L201.491 524.522H202.807L202.191 517.438H200.707L198.859 521.442C198.677 521.876 198.467 522.394 198.467 522.394H198.439C198.439 522.394 198.243 521.862 198.047 521.442L196.241 517.438H194.729L194.113 524.522ZM207.672 520.98C207.672 523.108 209.226 524.69 211.466 524.69C212.572 524.69 213.65 524.242 214.294 523.556L213.748 522.562C213.202 523.136 212.348 523.514 211.564 523.514C210.094 523.514 209.058 522.408 209.058 520.966C209.058 519.524 210.094 518.446 211.522 518.446C212.264 518.446 213.006 518.782 213.482 519.258L214.126 518.306C213.454 517.592 212.404 517.27 211.466 517.27C209.24 517.27 207.672 518.88 207.672 520.98ZM218.801 520.98C218.801 523.108 220.355 524.69 222.595 524.69C223.701 524.69 224.779 524.242 225.423 523.556L224.877 522.562C224.331 523.136 223.477 523.514 222.693 523.514C221.223 523.514 220.187 522.408 220.187 520.966C220.187 519.524 221.223 518.446 222.651 518.446C223.393 518.446 224.135 518.782 224.611 519.258L225.255 518.306C224.583 517.592 223.533 517.27 222.595 517.27C220.369 517.27 218.801 518.88 218.801 520.98ZM226.304 522.59C226.304 523.92 227.438 524.69 228.67 524.69C229.72 524.69 230.588 524.06 230.994 523.248H231.022C231.022 523.248 230.98 523.486 230.98 523.808V524.522H232.254V520.042C232.254 518.25 231.232 517.27 229.454 517.27C228.46 517.27 227.382 517.634 226.808 518.11L227.354 519.104C227.928 518.698 228.642 518.418 229.342 518.418C230.224 518.418 230.896 518.81 230.896 519.972V520.112H230.532C229.062 520.112 226.304 520.364 226.304 522.59ZM227.662 522.478C227.662 521.176 229.538 521.092 230.546 521.092H230.896V521.358C230.896 522.408 230.182 523.612 228.992 523.612C228.11 523.612 227.662 523.038 227.662 522.478ZM237.383 516.626C238.475 516.626 239.455 515.982 239.455 514.834V514.624H238.377V514.806C238.377 515.436 237.873 515.744 237.383 515.744C236.893 515.744 236.403 515.436 236.403 514.82V514.624H235.311V514.834C235.311 515.982 236.305 516.626 237.383 516.626ZM234.261 524.522H235.563L238.629 520.294C238.853 519.958 239.203 519.482 239.245 519.356H239.273C239.273 519.468 239.231 519.958 239.231 520.294V524.522H240.547V517.438H239.231L236.179 521.666C235.941 522.002 235.605 522.492 235.549 522.618H235.521C235.535 522.548 235.563 522.044 235.563 521.666V517.438H234.261V524.522ZM244.336 524.522H245.68V518.6H248.158V517.438H241.872V518.6H244.336V524.522ZM248.835 522.59C248.835 523.92 249.969 524.69 251.201 524.69C252.251 524.69 253.119 524.06 253.525 523.248H253.553C253.553 523.248 253.511 523.486 253.511 523.808V524.522H254.785V520.042C254.785 518.25 253.763 517.27 251.985 517.27C250.991 517.27 249.913 517.634 249.339 518.11L249.885 519.104C250.459 518.698 251.173 518.418 251.873 518.418C252.755 518.418 253.427 518.81 253.427 519.972V520.112H253.063C251.593 520.112 248.835 520.364 248.835 522.59ZM250.193 522.478C250.193 521.176 252.069 521.092 253.077 521.092H253.427V521.358C253.427 522.408 252.713 523.612 251.523 523.612C250.641 523.612 250.193 523.038 250.193 522.478Z" fill="white"/>
<g opacity="0.5">
<path d="M37.6666 516.202V514.865C37.6666 514.129 37.0692 513.529 36.3332 513.529H25.6666C24.9313 513.529 24.3333 514.129 24.3333 514.865V516.202H37.6666ZM28.3333 514.197C28.7019 514.197 28.9999 514.496 28.9999 514.865C28.9999 515.234 28.7019 515.532 28.3333 515.532C27.9646 515.532 27.6666 515.234 27.6666 514.865C27.6666 514.496 27.9646 514.197 28.3333 514.197ZM26.3333 514.197C26.7019 514.197 26.9999 514.496 26.9999 514.865C26.9999 515.234 26.7019 515.532 26.3333 515.532C25.9646 515.532 25.6666 515.234 25.6666 514.865C25.6666 514.496 25.9646 514.197 26.3333 514.197Z" fill="white"/>
<path d="M24.3333 516.869V524.214C24.3333 524.951 24.9313 525.55 25.6666 525.55H36.3332C37.0692 525.55 37.6666 524.951 37.6666 524.214V516.869H24.3333Z" fill="white"/>
</g>
<rect opacity="0.5" x="10.5" y="544.47" width="258" height="70.996" stroke="#EDBD3C"/>
<path d="M114.758 28.6743H118.384C120.106 28.6743 121.324 27.4983 121.324 25.7343C121.324 23.8303 120.05 22.7523 118.314 22.7523H116.144V19.9943H120.596V18.7903H114.758V28.6743ZM116.144 27.4703V23.9563H118.132C119.224 23.9563 119.924 24.6423 119.924 25.7343C119.924 26.8123 119.266 27.4703 118.16 27.4703H116.144ZM122.983 28.6743H124.341V25.6783H125.629C125.881 27.5263 127.379 28.8423 129.255 28.8423C131.299 28.8423 132.937 27.2743 132.937 25.1183C132.937 22.9763 131.299 21.4223 129.241 21.4223C127.379 21.4223 125.881 22.7243 125.629 24.5583H124.341V21.5903H122.983V28.6743ZM126.945 25.1183C126.945 23.6483 127.967 22.5983 129.255 22.5983C130.529 22.5983 131.551 23.6483 131.551 25.1183C131.551 26.6023 130.529 27.6663 129.255 27.6663C127.967 27.6663 126.945 26.6023 126.945 25.1183ZM135.785 27.5543C136.681 26.1543 136.793 24.1383 136.793 23.0743V22.6963H138.921V27.5543H135.785ZM133.517 27.5543V30.3543H134.791V28.6743H140.041V30.3543H141.287V27.5543H140.279V21.5903H135.491V22.8923C135.491 23.9843 135.379 26.1963 134.385 27.5543H133.517ZM141.899 28.6743H143.411L145.273 25.6503H146.281V28.6743H147.569V25.6503H148.591L150.439 28.6743H151.965L149.683 25.0343V25.0063L151.755 21.5903H150.327L148.577 24.4883H147.569V21.5903H146.281V24.4883H145.273L143.537 21.5903H142.095L144.181 25.0063V25.0343L141.899 28.6743ZM152.558 25.1323C152.558 27.2323 154.098 28.8423 156.324 28.8423C157.304 28.8423 158.382 28.4643 159.068 27.8343L158.494 26.8403C157.934 27.3443 157.164 27.6663 156.408 27.6663C155.134 27.6663 154.042 26.8403 153.972 25.3143H159.124C159.152 25.1183 159.18 24.9223 159.18 24.7403C159.18 22.9203 158.116 21.4223 156.114 21.4223C154.098 21.4223 152.558 22.8783 152.558 25.1323ZM154.014 24.3343C154.21 23.1583 155.036 22.4723 156.086 22.4723C157.01 22.4723 157.766 23.1163 157.808 24.3343H154.014ZM162.439 28.6743H163.783V22.7523H166.261V21.5903H159.975V22.7523H162.439V28.6743Z" fill="#3DAFCC"/>
<path d="M84.5248 50.6852C85.9648 52.1732 88.0288 52.9892 90.0208 52.9892C93.5008 52.9892 95.7808 50.4452 95.7808 47.5652C95.7808 44.2532 93.0448 42.8132 90.8128 42.5972L95.4208 37.2692V35.7572H85.2928V37.8212H91.0288C91.9648 37.8212 92.4688 37.7492 92.4688 37.7492V37.7972C92.4688 37.7972 91.9408 38.2292 91.4128 38.9012L87.7168 43.2452L88.2688 44.5172H89.4208C91.5328 44.5172 93.3808 45.5492 93.3808 47.6372C93.3808 49.4612 91.7968 50.7332 89.9248 50.7332C88.2928 50.7332 86.7328 49.8692 85.8208 48.8852L84.5248 50.6852ZM98.5259 52.7012H109.446V50.6372H100.998C101.094 46.7732 109.182 45.9092 109.182 40.3412C109.182 37.4132 106.95 35.4692 103.854 35.4692C101.358 35.4692 99.4379 36.9092 98.4779 38.6852L100.23 39.8612C100.95 38.6372 102.246 37.7012 103.662 37.7012C105.462 37.7012 106.734 38.8532 106.734 40.5092C106.734 44.4932 98.4059 45.3812 98.4059 51.4052C98.4059 51.8132 98.4539 52.2452 98.5259 52.7012ZM118.308 52.9892C122.844 52.9892 124.308 49.1012 124.308 44.2052C124.308 39.3332 122.844 35.4692 118.308 35.4692C113.796 35.4692 112.308 39.3332 112.308 44.2052C112.308 49.1012 113.796 52.9892 118.308 52.9892ZM118.308 50.8052C115.548 50.8052 114.756 47.9252 114.756 44.2052C114.756 40.5332 115.548 37.6532 118.308 37.6532C121.092 37.6532 121.86 40.5332 121.86 44.2052C121.86 47.9252 121.092 50.8052 118.308 50.8052ZM139.237 52.9892C143.773 52.9892 145.237 49.1012 145.237 44.2052C145.237 39.3332 143.773 35.4692 139.237 35.4692C134.725 35.4692 133.237 39.3332 133.237 44.2052C133.237 49.1012 134.725 52.9892 139.237 52.9892ZM139.237 50.8052C136.477 50.8052 135.685 47.9252 135.685 44.2052C135.685 40.5332 136.477 37.6532 139.237 37.6532C142.021 37.6532 142.789 40.5332 142.789 44.2052C142.789 47.9252 142.021 50.8052 139.237 50.8052ZM154.167 52.9892C158.703 52.9892 160.167 49.1012 160.167 44.2052C160.167 39.3332 158.703 35.4692 154.167 35.4692C149.655 35.4692 148.167 39.3332 148.167 44.2052C148.167 49.1012 149.655 52.9892 154.167 52.9892ZM154.167 50.8052C151.407 50.8052 150.615 47.9252 150.615 44.2052C150.615 40.5332 151.407 37.6532 154.167 37.6532C156.951 37.6532 157.719 40.5332 157.719 44.2052C157.719 47.9252 156.951 50.8052 154.167 50.8052ZM169.097 52.9892C173.633 52.9892 175.097 49.1012 175.097 44.2052C175.097 39.3332 173.633 35.4692 169.097 35.4692C164.585 35.4692 163.097 39.3332 163.097 44.2052C163.097 49.1012 164.585 52.9892 169.097 52.9892ZM169.097 50.8052C166.337 50.8052 165.545 47.9252 165.545 44.2052C165.545 40.5332 166.337 37.6532 169.097 37.6532C171.881 37.6532 172.649 40.5332 172.649 44.2052C172.649 47.9252 171.881 50.8052 169.097 50.8052ZM184.891 52.7012V49.4372H182.803V47.8772H184.891V45.7412H182.803V43.9172H184.891V35.5652H189.403C191.499 35.5652 193.051 35.9892 194.059 36.8372C195.083 37.6852 195.595 38.9172 195.595 40.5332C195.595 42.1652 195.043 43.4452 193.939 44.3732C192.835 45.2852 191.211 45.7412 189.067 45.7412H187.051V47.8772H191.011V49.4372H187.051V52.7012H184.891ZM187.051 43.9172H188.755C190.211 43.9172 191.339 43.6772 192.139 43.1972C192.955 42.7172 193.363 41.8532 193.363 40.6052C193.363 39.5172 193.027 38.7092 192.355 38.1812C191.683 37.6532 190.635 37.3892 189.211 37.3892H187.051V43.9172Z" fill="white"/>
<path d="M115.94 139.876C115.94 142.774 117.942 145.042 121.008 145.042C122.758 145.042 123.99 144.314 124.83 143.474L124.088 142.48C123.29 143.278 122.156 143.768 121.05 143.768C118.754 143.768 117.368 141.962 117.368 139.862C117.368 137.776 118.726 136.082 121.022 136.082C122.044 136.082 123.15 136.516 123.878 137.16L124.578 136.124C123.626 135.214 122.24 134.822 120.966 134.822C118.026 134.822 115.94 137.006 115.94 139.876ZM125.727 141.332C125.727 143.432 127.267 145.042 129.493 145.042C130.473 145.042 131.551 144.664 132.237 144.034L131.663 143.04C131.103 143.544 130.333 143.866 129.577 143.866C128.303 143.866 127.211 143.04 127.141 141.514H132.293C132.321 141.318 132.349 141.122 132.349 140.94C132.349 139.12 131.285 137.622 129.283 137.622C127.267 137.622 125.727 139.078 125.727 141.332ZM127.183 140.534C127.379 139.358 128.205 138.672 129.255 138.672C130.179 138.672 130.935 139.316 130.977 140.534H127.183ZM133.52 141.332C133.52 143.46 135.074 145.042 137.314 145.042C138.42 145.042 139.498 144.594 140.142 143.908L139.596 142.914C139.05 143.488 138.196 143.866 137.412 143.866C135.942 143.866 134.906 142.76 134.906 141.318C134.906 139.876 135.942 138.798 137.37 138.798C138.112 138.798 138.854 139.134 139.33 139.61L139.974 138.658C139.302 137.944 138.252 137.622 137.314 137.622C135.088 137.622 133.52 139.232 133.52 141.332ZM140.984 141.332C140.984 143.46 142.538 145.042 144.778 145.042C145.884 145.042 146.962 144.594 147.606 143.908L147.06 142.914C146.514 143.488 145.66 143.866 144.876 143.866C143.406 143.866 142.37 142.76 142.37 141.318C142.37 139.876 143.406 138.798 144.834 138.798C145.576 138.798 146.318 139.134 146.794 139.61L147.438 138.658C146.766 137.944 145.716 137.622 144.778 137.622C142.552 137.622 140.984 139.232 140.984 141.332ZM149.075 144.874H150.377L153.443 140.646C153.667 140.31 154.017 139.834 154.059 139.708H154.087C154.087 139.82 154.045 140.31 154.045 140.646V144.874H155.361V137.79H154.045L150.993 142.018C150.755 142.354 150.419 142.844 150.363 142.97H150.335C150.349 142.9 150.377 142.396 150.377 142.018V137.79H149.075V144.874ZM157.443 144.874H158.745L161.811 140.646C162.035 140.31 162.385 139.834 162.427 139.708H162.455C162.455 139.82 162.413 140.31 162.413 140.646V144.874H163.729V137.79H162.413L159.361 142.018C159.123 142.354 158.787 142.844 158.731 142.97H158.703C158.717 142.9 158.745 142.396 158.745 142.018V137.79H157.443V144.874Z" fill="#3DAFCC"/>
<path d="M101.535 164.077C101.535 167.029 104.079 169.189 107.415 169.189C110.967 169.189 113.223 166.861 113.223 164.221C113.223 162.469 112.239 161.413 110.919 160.621C111.423 160.117 112.959 158.317 112.959 156.181C112.959 153.445 110.775 151.669 107.631 151.669C104.055 151.669 102.351 153.829 102.351 156.157C102.351 157.693 103.143 158.725 104.247 159.493C103.599 159.925 101.535 161.509 101.535 164.077ZM109.095 159.709C106.983 158.773 104.703 158.077 104.703 156.157C104.703 154.861 105.735 153.805 107.583 153.805C109.383 153.805 110.631 154.765 110.631 156.373C110.631 158.029 109.455 159.325 109.095 159.709ZM103.959 163.885C103.959 162.037 105.471 160.909 106.023 160.525C108.231 161.581 110.799 162.253 110.799 164.173C110.799 165.901 109.191 167.053 107.391 167.053C105.639 167.053 103.959 165.781 103.959 163.885ZM116.692 168.493C117.724 168.997 118.9 169.189 119.98 169.189C125.236 169.189 127.612 164.005 127.612 159.661C127.612 154.813 124.9 151.669 121.276 151.669C118.108 151.669 115.828 153.997 115.828 157.333C115.828 160.477 117.964 162.901 121.18 162.901C122.668 162.901 124.228 162.277 124.924 161.317H124.972C124.612 164.125 123.004 167.005 119.884 167.005C118.972 167.005 118.036 166.717 117.46 166.429L116.692 168.493ZM121.66 160.909C119.5 160.909 118.204 159.397 118.204 157.333C118.204 155.341 119.356 153.853 121.3 153.853C123.46 153.853 125.14 156.325 125.14 158.533C125.14 159.733 123.58 160.909 121.66 160.909ZM142.46 169.189C146.996 169.189 148.46 165.301 148.46 160.405C148.46 155.533 146.996 151.669 142.46 151.669C137.948 151.669 136.46 155.533 136.46 160.405C136.46 165.301 137.948 169.189 142.46 169.189ZM142.46 167.005C139.7 167.005 138.908 164.125 138.908 160.405C138.908 156.733 139.7 153.853 142.46 153.853C145.244 153.853 146.012 156.733 146.012 160.405C146.012 164.125 145.244 167.005 142.46 167.005ZM157.39 169.189C161.926 169.189 163.39 165.301 163.39 160.405C163.39 155.533 161.926 151.669 157.39 151.669C152.878 151.669 151.39 155.533 151.39 160.405C151.39 165.301 152.878 169.189 157.39 169.189ZM157.39 167.005C154.63 167.005 153.838 164.125 153.838 160.405C153.838 156.733 154.63 153.853 157.39 153.853C160.174 153.853 160.942 156.733 160.942 160.405C160.942 164.125 160.174 167.005 157.39 167.005ZM172.319 169.189C176.855 169.189 178.319 165.301 178.319 160.405C178.319 155.533 176.855 151.669 172.319 151.669C167.807 151.669 166.319 155.533 166.319 160.405C166.319 165.301 167.807 169.189 172.319 169.189ZM172.319 167.005C169.559 167.005 168.767 164.125 168.767 160.405C168.767 156.733 169.559 153.853 172.319 153.853C175.103 153.853 175.871 156.733 175.871 160.405C175.871 164.125 175.103 167.005 172.319 167.005Z" fill="white"/>
<path d="M117.491 223.835C118.261 224.689 119.507 225.179 120.697 225.179C122.559 225.179 124.057 224.045 124.057 222.211C124.057 220.993 123.357 220.139 122.321 219.845V219.817C123.021 219.467 123.749 218.795 123.749 217.591C123.749 215.939 122.475 214.959 120.781 214.959C119.941 214.959 118.835 215.113 117.785 215.981L118.373 217.017C119.101 216.401 119.885 216.177 120.585 216.177C121.803 216.177 122.335 216.905 122.335 217.759C122.335 218.697 121.551 219.355 120.557 219.355H119.577V220.503H120.795C121.873 220.503 122.643 221.105 122.643 222.141C122.643 223.261 121.789 223.933 120.585 223.933C119.661 223.933 118.779 223.457 118.261 222.897L117.491 223.835ZM125.218 223.079C125.218 224.409 126.352 225.179 127.584 225.179C128.634 225.179 129.502 224.549 129.908 223.737H129.936C129.936 223.737 129.894 223.975 129.894 224.297V225.011H131.168V220.531C131.168 218.739 130.146 217.759 128.368 217.759C127.374 217.759 126.296 218.123 125.722 218.599L126.268 219.593C126.842 219.187 127.556 218.907 128.256 218.907C129.138 218.907 129.81 219.299 129.81 220.461V220.601H129.446C127.976 220.601 125.218 220.853 125.218 223.079ZM126.576 222.967C126.576 221.665 128.452 221.581 129.46 221.581H129.81V221.847C129.81 222.897 129.096 224.101 127.906 224.101C127.024 224.101 126.576 223.527 126.576 222.967ZM133.175 225.011H134.533V221.945H135.555L137.669 225.011H139.279L136.633 221.329V221.301L138.999 217.927H137.459L135.527 220.783H134.533V217.927H133.175V225.011ZM139.833 223.079C139.833 224.409 140.967 225.179 142.199 225.179C143.249 225.179 144.117 224.549 144.523 223.737H144.551C144.551 223.737 144.509 223.975 144.509 224.297V225.011H145.783V220.531C145.783 218.739 144.761 217.759 142.983 217.759C141.989 217.759 140.911 218.123 140.337 218.599L140.883 219.593C141.457 219.187 142.171 218.907 142.871 218.907C143.753 218.907 144.425 219.299 144.425 220.461V220.601H144.061C142.591 220.601 139.833 220.853 139.833 223.079ZM141.191 222.967C141.191 221.665 143.067 221.581 144.075 221.581H144.425V221.847C144.425 222.897 143.711 224.101 142.521 224.101C141.639 224.101 141.191 223.527 141.191 222.967ZM147.104 224.143C147.692 224.703 148.616 225.179 149.708 225.179C151.164 225.179 152.424 224.437 152.424 222.981C152.424 222.071 151.864 221.539 151.15 221.315V221.287C151.71 221.049 152.186 220.559 152.186 219.677C152.186 218.417 151.136 217.759 149.792 217.759C148.672 217.759 147.874 218.123 147.328 218.529L147.832 219.439C148.378 219.033 148.938 218.823 149.554 218.823C150.338 218.823 150.814 219.187 150.814 219.845C150.814 220.559 150.268 220.867 149.47 220.867H148.728V221.847H149.596C150.59 221.847 151.052 222.239 151.052 222.925C151.052 223.695 150.394 224.087 149.582 224.087C148.728 224.087 148.056 223.583 147.734 223.247L147.104 224.143ZM160.478 225.011H161.836V217.927H160.478V225.011ZM154.066 225.011H156.796C158.574 225.011 159.386 224.101 159.386 222.771C159.386 221.161 158.28 220.489 156.81 220.489H155.424V217.927H154.066V225.011ZM155.424 224.031V221.469H156.6C157.58 221.469 158.014 222.001 158.014 222.757C158.014 223.499 157.594 224.031 156.614 224.031H155.424Z" fill="#3DAFCC"/>
<path d="M110.63 249.039H120.398V246.975H116.678V232.095H114.566L110.51 236.031L111.95 237.519L113.534 235.983C114.158 235.359 114.35 234.999 114.35 234.999H114.398C114.398 234.999 114.374 235.503 114.374 236.031V246.975H110.63V249.039ZM128.561 249.039H139.481V246.975H131.033C131.129 243.111 139.217 242.247 139.217 236.679C139.217 233.751 136.985 231.807 133.889 231.807C131.393 231.807 129.473 233.247 128.513 235.023L130.265 236.199C130.985 234.975 132.281 234.039 133.697 234.039C135.497 234.039 136.769 235.191 136.769 236.847C136.769 240.831 128.441 241.719 128.441 247.743C128.441 248.151 128.489 248.583 128.561 249.039ZM148.343 249.327C152.879 249.327 154.343 245.439 154.343 240.543C154.343 235.671 152.879 231.807 148.343 231.807C143.831 231.807 142.343 235.671 142.343 240.543C142.343 245.439 143.831 249.327 148.343 249.327ZM148.343 247.143C145.583 247.143 144.791 244.263 144.791 240.543C144.791 236.871 145.583 233.991 148.343 233.991C151.127 233.991 151.895 236.871 151.895 240.543C151.895 244.263 151.127 247.143 148.343 247.143ZM163.273 249.327C167.809 249.327 169.273 245.439 169.273 240.543C169.273 235.671 167.809 231.807 163.273 231.807C158.761 231.807 157.273 235.671 157.273 240.543C157.273 245.439 158.761 249.327 163.273 249.327ZM163.273 247.143C160.513 247.143 159.721 244.263 159.721 240.543C159.721 236.871 160.513 233.991 163.273 233.991C166.057 233.991 166.825 236.871 166.825 240.543C166.825 244.263 166.057 247.143 163.273 247.143Z" fill="white"/>
<path d="M115.995 336.213C115.995 339.111 117.997 341.379 121.063 341.379C122.813 341.379 124.045 340.651 124.885 339.811L124.143 338.817C123.345 339.615 122.211 340.105 121.105 340.105C118.809 340.105 117.423 338.299 117.423 336.199C117.423 334.113 118.781 332.419 121.077 332.419C122.099 332.419 123.205 332.853 123.933 333.497L124.633 332.461C123.681 331.551 122.295 331.159 121.021 331.159C118.081 331.159 115.995 333.343 115.995 336.213ZM127.766 340.091C128.662 338.691 128.774 336.675 128.774 335.611V335.233H130.902V340.091H127.766ZM125.498 340.091V342.891H126.772V341.211H132.022V342.891H133.268V340.091H132.26V334.127H127.472V335.429C127.472 336.521 127.36 338.733 126.366 340.091H125.498ZM134.149 337.669C134.149 339.769 135.689 341.379 137.915 341.379C138.895 341.379 139.973 341.001 140.659 340.371L140.085 339.377C139.525 339.881 138.755 340.203 137.999 340.203C136.725 340.203 135.633 339.377 135.563 337.851H140.715C140.743 337.655 140.771 337.459 140.771 337.277C140.771 335.457 139.707 333.959 137.705 333.959C135.689 333.959 134.149 335.415 134.149 337.669ZM135.605 336.871C135.801 335.695 136.627 335.009 137.677 335.009C138.601 335.009 139.357 335.653 139.399 336.871H135.605ZM141.634 341.281C143.72 341.169 144.532 339.517 144.532 336.311V335.247H146.618V341.211H147.976V334.127H143.23V336.311C143.23 338.873 142.67 339.909 141.634 340.063V341.281ZM150.073 341.211H151.431V338.145H152.453L154.567 341.211H156.177L153.531 337.529V337.501L155.897 334.127H154.357L152.425 336.983H151.431V334.127H150.073V341.211ZM157.388 341.211H158.69L161.756 336.983C161.98 336.647 162.33 336.171 162.372 336.045H162.4C162.4 336.157 162.358 336.647 162.358 336.983V341.211H163.674V334.127H162.358L159.306 338.355C159.068 338.691 158.732 339.181 158.676 339.307H158.648C158.662 339.237 158.69 338.733 158.69 338.355V334.127H157.388V341.211Z" fill="#3DAFCC"/>
<path d="M138.034 360.583H140.29V359.599C140.29 356.695 144.538 356.311 144.538 352.351C144.538 349.687 142.234 347.959 139.522 347.959C137.794 347.959 136.258 348.679 135.346 349.495L136.642 351.151C137.386 350.551 138.37 350.143 139.354 350.143C140.938 350.143 142.09 351.175 142.09 352.519C142.09 355.399 138.034 355.807 138.034 359.455V360.583ZM137.962 365.239H140.362V362.863H137.962V365.239Z" fill="white"/>
<path d="M113.713 457.412H117.255C118.991 457.412 120.447 456.46 120.447 454.598C120.447 453.492 119.859 452.512 118.809 452.204V452.176C119.565 451.784 120.041 451.014 120.041 450.048C120.041 448.452 118.851 447.528 117.171 447.528H113.713V457.412ZM115.099 451.686V448.732H117.157C118.095 448.732 118.627 449.32 118.627 450.188C118.627 451.056 118.067 451.686 117.171 451.686H115.099ZM115.099 456.208V452.834H117.325C118.361 452.834 119.019 453.52 119.019 454.514C119.019 455.536 118.389 456.208 117.325 456.208H115.099ZM128.541 457.412H129.899V450.328H128.541V457.412ZM122.129 457.412H124.859C126.637 457.412 127.449 456.502 127.449 455.172C127.449 453.562 126.343 452.89 124.873 452.89H123.487V450.328H122.129V457.412ZM123.487 456.432V453.87H124.663C125.643 453.87 126.077 454.402 126.077 455.158C126.077 455.9 125.657 456.432 124.677 456.432H123.487ZM132 460.212H133.358V456.992C133.358 456.628 133.302 456.376 133.302 456.376H133.33C133.82 457.132 134.632 457.58 135.528 457.58C137.39 457.58 138.734 456.124 138.734 453.87C138.734 451.672 137.544 450.16 135.626 450.16C134.59 450.16 133.694 450.636 133.246 451.49H133.218C133.218 451.49 133.26 451.252 133.26 450.958V450.328H132V460.212ZM133.316 453.898C133.316 452.106 134.296 451.35 135.36 451.35C136.536 451.35 137.362 452.344 137.362 453.884C137.362 455.494 136.438 456.404 135.318 456.404C134.016 456.404 133.316 455.158 133.316 453.898ZM139.853 458.882L139.377 459.918C139.377 459.918 139.951 460.352 140.735 460.352C141.729 460.352 142.611 459.792 143.031 458.686L146.363 450.328H144.893L143.171 454.976C143.045 455.34 142.933 455.816 142.933 455.816H142.905C142.905 455.816 142.779 455.312 142.639 454.962L140.861 450.328H139.335L142.303 457.328L141.953 458.14C141.687 458.784 141.225 459.19 140.665 459.19C140.245 459.19 139.853 458.882 139.853 458.882ZM149.628 454.948C150.328 454.948 151.098 454.71 151.546 454.43H151.574C151.574 454.43 151.56 454.654 151.56 454.85V457.412H152.918V450.328H151.56V453.268C151.266 453.478 150.692 453.772 149.992 453.772C148.83 453.772 148.578 453.142 148.578 452.442V450.328H147.248V452.638C147.248 454.15 148.116 454.948 149.628 454.948ZM155.024 457.412H156.382V454.346H157.404L159.518 457.412H161.128L158.482 453.73V453.702L160.848 450.328H159.308L157.376 453.184H156.382V450.328H155.024V457.412ZM161.682 455.48C161.682 456.81 162.816 457.58 164.048 457.58C165.098 457.58 165.966 456.95 166.372 456.138H166.4C166.4 456.138 166.358 456.376 166.358 456.698V457.412H167.632V452.932C167.632 451.14 166.61 450.16 164.832 450.16C163.838 450.16 162.76 450.524 162.186 451L162.732 451.994C163.306 451.588 164.02 451.308 164.72 451.308C165.602 451.308 166.274 451.7 166.274 452.862V453.002H165.91C164.44 453.002 161.682 453.254 161.682 455.48ZM163.04 455.368C163.04 454.066 164.916 453.982 165.924 453.982H166.274V454.248C166.274 455.298 165.56 456.502 164.37 456.502C163.488 456.502 163.04 455.928 163.04 455.368Z" fill="#3DAFCC"/>
<path d="M86.5192 476.615C86.5192 479.567 89.0632 481.727 92.3992 481.727C95.9512 481.727 98.2072 479.399 98.2072 476.759C98.2072 475.007 97.2232 473.951 95.9032 473.159C96.4072 472.655 97.9432 470.855 97.9432 468.719C97.9432 465.983 95.7592 464.207 92.6152 464.207C89.0392 464.207 87.3352 466.367 87.3352 468.695C87.3352 470.231 88.1272 471.263 89.2312 472.031C88.5832 472.463 86.5192 474.047 86.5192 476.615ZM94.0792 472.247C91.9672 471.311 89.6872 470.615 89.6872 468.695C89.6872 467.399 90.7192 466.343 92.5672 466.343C94.3672 466.343 95.6152 467.303 95.6152 468.911C95.6152 470.567 94.4392 471.863 94.0792 472.247ZM88.9432 476.423C88.9432 474.575 90.4552 473.447 91.0072 473.063C93.2152 474.119 95.7832 474.791 95.7832 476.711C95.7832 478.439 94.1752 479.591 92.3752 479.591C90.6232 479.591 88.9432 478.319 88.9432 476.423ZM101.028 481.439H110.796V479.375H107.076V464.495H104.964L100.908 468.431L102.348 469.919L103.932 468.383C104.556 467.759 104.748 467.399 104.748 467.399H104.796C104.796 467.399 104.772 467.903 104.772 468.431V479.375H101.028V481.439ZM112.696 479.375C113.968 480.911 115.912 481.727 117.904 481.727C121.312 481.727 123.904 479.279 123.904 476.039C123.904 472.967 121.576 470.495 118 470.495C117.184 470.495 116.2 470.783 115.792 470.999H115.744C115.744 470.999 115.84 470.663 115.888 470.135L116.272 466.559H122.776V464.495H114.208L113.368 472.895L114.76 473.399C115.552 472.871 116.632 472.559 117.616 472.559C119.8 472.559 121.456 473.999 121.456 476.039C121.456 478.103 119.752 479.471 117.76 479.471C116.008 479.471 114.76 478.535 114.04 477.647L112.696 479.375ZM138.507 481.727C143.043 481.727 144.507 477.839 144.507 472.943C144.507 468.071 143.043 464.207 138.507 464.207C133.995 464.207 132.507 468.071 132.507 472.943C132.507 477.839 133.995 481.727 138.507 481.727ZM138.507 479.543C135.747 479.543 134.955 476.663 134.955 472.943C134.955 469.271 135.747 466.391 138.507 466.391C141.291 466.391 142.059 469.271 142.059 472.943C142.059 476.663 141.291 479.543 138.507 479.543ZM153.437 481.727C157.973 481.727 159.437 477.839 159.437 472.943C159.437 468.071 157.973 464.207 153.437 464.207C148.925 464.207 147.437 468.071 147.437 472.943C147.437 477.839 148.925 481.727 153.437 481.727ZM153.437 479.543C150.677 479.543 149.885 476.663 149.885 472.943C149.885 469.271 150.677 466.391 153.437 466.391C156.221 466.391 156.989 469.271 156.989 472.943C156.989 476.663 156.221 479.543 153.437 479.543ZM168.366 481.727C172.902 481.727 174.366 477.839 174.366 472.943C174.366 468.071 172.902 464.207 168.366 464.207C163.854 464.207 162.366 468.071 162.366 472.943C162.366 477.839 163.854 481.727 168.366 481.727ZM168.366 479.543C165.606 479.543 164.814 476.663 164.814 472.943C164.814 469.271 165.606 466.391 168.366 466.391C171.15 466.391 171.918 469.271 171.918 472.943C171.918 476.663 171.15 479.543 168.366 479.543ZM184.16 481.439V478.175H182.072V476.615H184.16V474.479H182.072V472.655H184.16V464.303H188.672C190.768 464.303 192.32 464.727 193.328 465.575C194.352 466.423 194.864 467.655 194.864 469.271C194.864 470.903 194.312 472.183 193.208 473.111C192.104 474.023 190.48 474.479 188.336 474.479H186.32V476.615H190.28V478.175H186.32V481.439H184.16ZM186.32 472.655H188.024C189.48 472.655 190.608 472.415 191.408 471.935C192.224 471.455 192.632 470.591 192.632 469.343C192.632 468.255 192.296 467.447 191.624 466.919C190.952 466.391 189.904 466.127 188.48 466.127H186.32V472.655Z" fill="white"/>
<path d="M129.675 573.611H131.061V569.677H133.175L135.261 573.611H136.829L134.729 569.775C134.561 569.467 134.449 569.327 134.449 569.327V569.299C135.527 568.935 136.213 567.843 136.213 566.583C136.213 565.323 135.597 564.413 134.645 563.993C134.239 563.811 133.763 563.727 132.811 563.727H129.675V573.611ZM131.061 568.473V564.931H132.699C133.329 564.931 133.637 564.987 133.889 565.099C134.505 565.365 134.813 565.939 134.813 566.653C134.813 567.745 134.127 568.473 133.049 568.473H131.061ZM137.782 568.599C137.782 571.511 139.924 573.779 142.864 573.779C145.804 573.779 147.932 571.511 147.932 568.599C147.932 565.757 145.804 563.559 142.864 563.559C139.924 563.559 137.782 565.757 137.782 568.599ZM139.21 568.599C139.21 566.457 140.75 564.819 142.864 564.819C144.964 564.819 146.504 566.457 146.504 568.599C146.504 570.811 144.964 572.505 142.864 572.505C140.75 572.505 139.21 570.811 139.21 568.599ZM149.923 573.611H151.309V563.727H149.923V573.611Z" fill="#EDBD3C"/>
<path d="M138.034 592.983H140.29V591.999C140.29 589.095 144.538 588.711 144.538 584.751C144.538 582.087 142.234 580.359 139.522 580.359C137.794 580.359 136.258 581.079 135.346 581.895L136.642 583.551C137.386 582.951 138.37 582.543 139.354 582.543C140.938 582.543 142.09 583.575 142.09 584.919C142.09 587.799 138.034 588.207 138.034 591.855V592.983ZM137.962 597.639H140.362V595.263H137.962V597.639Z" fill="#EDBD3C"/>
</svg>
