<svg xmlns="http://www.w3.org/2000/svg" width="20" height="30" viewBox="0 0 20 30">
    <path fill="#1EB0CD" fill-rule="nonzero" d="M20 10.546C20 4.998 15.523.5 10 .5S0 4.998 0 10.546c0 .17.004.338.013.505-.009.167-.013.336-.013.505C0 17.104 10 29.5 10 29.5s10-12.396 10-17.944c0-.17-.004-.338-.013-.505.009-.167.013-.336.013-.505zm-10 5.096a4.64 4.64 0 0 1-4.287-2.878 4.677 4.677 0 0 1 1.006-5.08 4.625 4.625 0 0 1 5.057-1.01 4.662 4.662 0 0 1 2.864 4.306c0 2.575-2.077 4.662-4.64 4.662z"/>
</svg>
