<svg xmlns="http://www.w3.org/2000/svg" width="64" height="62" viewBox="0 0 64 62">
    <g fill="none" fill-rule="evenodd">
        <path fill="#1F282C" fill-rule="nonzero" d="M51.538 42.263a1.74 1.74 0 0 0 0-2.518l-.994-.958c3.26-7.175 1.86-15.842-4.231-21.712-6.093-5.87-15.082-7.22-22.523-4.079l-.994-.958a1.898 1.898 0 0 0-2.613 0L9.544 1.785a3.5 3.5 0 0 0-4.858 0L1.891 4.479a3.5 3.5 0 0 0 0 5.04l10.452 10.076a1.737 1.737 0 0 0 0 2.519l.994.958c-3.258 7.174-1.861 15.84 4.231 21.71 6.092 5.87 15.082 7.22 22.525 4.079l.994.958a1.902 1.902 0 0 0 2.613 0L54.335 60.07a3.5 3.5 0 0 0 4.858 0l2.797-2.695a3.5 3.5 0 0 0 0-5.04L51.537 42.263z"/>
        <path fill="#FFF" d="M20.183 42.263c-4.806-4.632-6.046-11.39-3.74-17.129h.002c.168-.429.37-.847.578-1.26.046-.092.085-.186.133-.279.172-.325.373-.64.571-.958.1-.157.187-.319.29-.474.194-.285.414-.557.628-.833.128-.166.242-.335.38-.497.36-.428.744-.843 1.158-1.24.412-.397.842-.77 1.284-1.115.177-.139.364-.256.545-.386.275-.198.547-.403.832-.583.17-.106.347-.194.519-.295.32-.186.637-.373.966-.535.1-.05.202-.089.303-.135.427-.2.858-.392 1.3-.552v-.002c5.953-2.223 12.965-1.028 17.77 3.605 4.806 4.631 6.044 11.389 3.738 17.127h-.002c-.174.442-.379.873-.595 1.3-.039.077-.07.155-.113.232-.183.346-.393.68-.604 1.015-.089.137-.165.282-.259.419-.205.304-.44.597-.669.89-.116.146-.216.3-.338.442a16.1 16.1 0 0 1-1.16 1.242c-.414.397-.845.77-1.288 1.118-.146.114-.301.21-.451.319-.307.224-.612.452-.931.652-.143.09-.29.164-.435.247-.347.205-.694.408-1.053.585-.077.037-.159.07-.236.106-.444.21-.893.408-1.353.576v.002c-5.955 2.224-12.968 1.029-17.77-3.604z"/>
        <path fill="#3CB0CB" d="M38.736 29.677c-.004-2.257-1.905-4.09-4.248-4.092-.955 0-1.835.307-2.542.82a4.325 4.325 0 0 0-2.547-.826c-2.341 0-4.238 1.828-4.234 4.085.004 4.188 6.794 8.59 6.794 8.59s6.78-4.487 6.777-8.577zM24.438 21.524a.935.935 0 0 1 0 1.355 1.022 1.022 0 0 1-1.406 0l-1.406-1.355a.935.935 0 0 1 0-1.355 1.022 1.022 0 0 1 1.406 0l1.406 1.355zM42.255 40.334a.934.934 0 0 1 0 1.354 1.021 1.021 0 0 1-1.405 0l-1.408-1.354a.936.936 0 0 1 0-1.357 1.023 1.023 0 0 1 1.408 0l1.405 1.357zM22.183 38.978a1.023 1.023 0 0 1 1.407 0 .934.934 0 0 1 0 1.354l-1.407 1.355a1.017 1.017 0 0 1-1.405 0 .934.934 0 0 1 0-1.355l1.405-1.354zM40.849 20.986a1.022 1.022 0 0 1 1.406 0 .935.935 0 0 1 0 1.356l-1.406 1.355a1.022 1.022 0 0 1-1.406 0 .935.935 0 0 1 0-1.355l1.406-1.356z"/>
    </g>
</svg>
