<svg xmlns="http://www.w3.org/2000/svg" width="96" height="96" viewBox="0 0 96 96">
    <g fill="none" fill-rule="evenodd">
        <path fill="#C4EDF5" d="M48 0c26.51 0 48 21.49 48 48S74.51 96 48 96 0 74.51 0 48 21.49 0 48 0"/>
        <path fill="#4EC5DE" d="M93.956 34.101l-16.06-16.06-2.966 11.37-17.452 7.585-31.876 30.779 27.912 27.912C77.426 92.952 96 72.645 96 48c0-4.833-.715-9.5-2.044-13.899"/>
        <path fill="#70E1F7" d="M78.749 47.39v1.656a31.735 31.735 0 0 1-2.93 11.591C70.852 70.827 60.407 77.96 48.307 77.96c-16.94 0-30.568-13.756-30.568-30.568a30.495 30.495 0 0 1 30.568-30.57c16.813 0 30.442 13.63 30.442 30.57"/>
        <path fill="#E6FBFF" d="M48.18 23.19c13.366 0 24.2 10.835 24.2 24.2 0 13.366-10.834 24.2-24.2 24.2s-24.2-10.834-24.2-24.2c0-13.365 10.834-24.2 24.2-24.2"/>
        <path fill="#70E1F7" d="M48.18 29.431c9.919 0 17.96 8.04 17.96 17.96 0 9.918-8.041 17.959-17.96 17.959-9.918 0-17.96-8.04-17.96-17.96 0-9.918 8.042-17.959 17.96-17.959"/>
        <path fill="#E6FBFF" d="M48.18 35.8c6.401 0 11.59 5.189 11.59 11.59 0 6.402-5.189 11.591-11.59 11.591s-11.59-5.19-11.59-11.59c0-6.402 5.189-11.591 11.59-11.591"/>
        <path fill="#70E1F7" d="M48.18 42.168a5.222 5.222 0 1 1 0 10.445 5.222 5.222 0 0 1 0-10.445"/>
        <path fill="#52CEE8" d="M59.762 46.957a11.561 11.561 0 0 1-.874 4.878l4.732 4.732a17.883 17.883 0 0 0 1.759-3.993l-5.617-5.617z"/>
        <path fill="#B5E8F2" d="M55.673 45.744c-.75.75-.75 2.126 0 2.876l3.215 3.214a11.551 11.551 0 0 0 .874-4.877l-1.213-1.213c-.75-.75-2.126-.75-2.876 0M65.379 52.574a17.883 17.883 0 0 1-1.76 3.993l4.517 4.516a24.123 24.123 0 0 0 2.078-3.673l-4.835-4.836z"/>
        <path fill="#52CEE8" d="M74.513 61.708l-4.298-4.299a24.164 24.164 0 0 1-2.08 3.673l3.587 3.587-.76 3.156a31.068 31.068 0 0 0 4.421-6.33l-.87.213z"/>
        <path fill="#4EC5DE" d="M74.93 29.411c-.75-.75-2.126-.75-2.876 0L55.673 45.793c-.75.75-.75 2.126 0 2.876s2.125.75 2.876 0L74.93 32.288c.75-.75.75-2.126 0-2.877"/>
        <path fill="#7CE3F7" d="M79.557 24.785l-7.378 7.253-1.626-6.628 7.378-7.378z"/>
        <path fill="#6BD2ED" d="M78.932 33.663l7.252-7.253-6.627-1.625-7.378 7.252z"/>
    </g>
</svg>
