<svg xmlns="http://www.w3.org/2000/svg" width="64" height="64" viewBox="0 0 64 64">
    <g fill="none" fill-rule="evenodd">
        <path fill="#FFF" d="M-678-790H645V247H-678z"/>
        <g fill="#1EB0CD" fill-rule="nonzero">
            <path d="M22.4 0v64h19.2V0H22.4zM32 54.4c-1.77 0-3.2-1.42-3.2-3.2 0-1.76 1.43-3.2 3.2-3.2 1.766 0 3.2 1.44 3.2 3.2 0 1.78-1.434 3.2-3.2 3.2zm3.2-9.6h-6.4V9.6h6.4v35.2zM0 0v64h19.2V0H0zm9.6 54.4c-1.77 0-3.2-1.42-3.2-3.2 0-1.76 1.43-3.2 3.2-3.2 1.766 0 3.2 1.44 3.2 3.2 0 1.78-1.434 3.2-3.2 3.2zm3.2-9.6H6.4V9.6h6.4v35.2zM44.8 0v64H64V0H44.8zm9.6 54.4c-1.77 0-3.2-1.42-3.2-3.2 0-1.76 1.43-3.2 3.2-3.2 1.766 0 3.2 1.44 3.2 3.2 0 1.78-1.434 3.2-3.2 3.2zm3.2-9.6h-6.4V9.6h6.4v35.2z"/>
        </g>
    </g>
</svg>
