<svg xmlns="http://www.w3.org/2000/svg" width="64" height="58" viewBox="0 0 64 58">
    <g fill="none" fill-rule="evenodd">
        <path fill="#FFF" d="M-90-74h1323V963H-90z"/>
        <g fill="#1EB0CD" fill-rule="nonzero">
            <path d="M0 16.12v35.436C0 55.11 2.87 58 6.4 58h51.2c3.533 0 6.4-2.89 6.4-6.444V16.12H0zm12.8 29c-1.77 0-3.2-1.443-3.2-3.221 0-1.78 1.43-3.223 3.2-3.223 1.77 0 3.2 1.444 3.2 3.223 0 1.778-1.43 3.222-3.2 3.222zm0-12.888c-1.77 0-3.2-1.444-3.2-3.222 0-1.779 1.43-3.223 3.2-3.223 1.77 0 3.2 1.444 3.2 3.223 0 1.778-1.43 3.222-3.2 3.222zM25.6 45.12c-1.77 0-3.2-1.444-3.2-3.222 0-1.78 1.43-3.223 3.2-3.223 1.77 0 3.2 1.444 3.2 3.223 0 1.778-1.43 3.222-3.2 3.222zm0-12.89c-1.77 0-3.2-1.443-3.2-3.221 0-1.779 1.43-3.223 3.2-3.223 1.77 0 3.2 1.444 3.2 3.223 0 1.778-1.43 3.222-3.2 3.222zm12.8 12.89c-1.77 0-3.2-1.444-3.2-3.222 0-1.78 1.43-3.223 3.2-3.223 1.77 0 3.2 1.444 3.2 3.223 0 1.778-1.43 3.222-3.2 3.222zm0-12.89c-1.77 0-3.2-1.443-3.2-3.221 0-1.779 1.43-3.223 3.2-3.223 1.77 0 3.2 1.444 3.2 3.223 0 1.778-1.43 3.222-3.2 3.222zm12.8 12.89c-1.77 0-3.2-1.444-3.2-3.222 0-1.78 1.43-3.223 3.2-3.223 1.77 0 3.2 1.444 3.2 3.223 0 1.778-1.43 3.222-3.2 3.222zm0-12.89c-1.77 0-3.2-1.443-3.2-3.221 0-1.779 1.43-3.223 3.2-3.223 1.77 0 3.2 1.444 3.2 3.223 0 1.778-1.43 3.222-3.2 3.222zM64 12.895v-6.45C64 2.89 61.133 0 57.6 0H6.4C2.87 0 0 2.89 0 6.444v6.451h64zM19.2 3.222c1.77 0 3.2 1.44 3.2 3.222a3.208 3.208 0 0 1-3.2 3.223c-1.77 0-3.2-1.44-3.2-3.223a3.208 3.208 0 0 1 3.2-3.222zm-9.6 0c1.77 0 3.2 1.44 3.2 3.222a3.208 3.208 0 0 1-3.2 3.223c-1.77 0-3.2-1.44-3.2-3.223a3.208 3.208 0 0 1 3.2-3.222z"/>
        </g>
    </g>
</svg>
