<svg xmlns="http://www.w3.org/2000/svg" width="64" height="58" viewBox="0 0 64 58">
    <g fill="none" fill-rule="evenodd">
        <path fill="#FFF" d="M-976-313H347V724H-976z"/>
        <g fill="#1EB0CD" fill-rule="nonzero">
            <path d="M0 38.676h8.275l5.463-5.5a3.18 3.18 0 0 1 4.524 0l7.072 7.121L35.901 27a3.187 3.187 0 0 1 4.765-.267L51.2 37.342l4.138-4.166a3.18 3.18 0 0 1 2.262-.944H64V16.118H0v22.558zM57.6 0H6.4C2.87 0 0 2.89 0 6.444v6.451h64v-6.45C64 2.89 61.133 0 57.6 0zm-48 9.667c-1.77 0-3.2-1.44-3.2-3.223a3.208 3.208 0 0 1 3.2-3.222c1.77 0 3.2 1.44 3.2 3.222a3.208 3.208 0 0 1-3.2 3.223zm9.6 0c-1.77 0-3.2-1.44-3.2-3.223a3.208 3.208 0 0 1 3.2-3.222c1.77 0 3.2 1.44 3.2 3.222a3.208 3.208 0 0 1-3.2 3.223z"/>
            <path d="M53.462 44.177a3.18 3.18 0 0 1-4.524 0L38.666 33.833 28.099 47.131a3.19 3.19 0 0 1-2.326 1.209c-.058.003-.115.003-.176.003-.848 0-1.661-.338-2.263-.944L16 40.01l-4.138 4.167a3.18 3.18 0 0 1-2.262.944H0v6.435C0 55.11 2.87 58 6.4 58h51.2c3.533 0 6.4-2.89 6.4-6.444v-12.88h-5.075l-5.463 5.5z"/>
        </g>
    </g>
</svg>
