<svg xmlns="http://www.w3.org/2000/svg" width="59" height="70" viewBox="0 0 59 70">
    <g fill="none" fill-rule="evenodd">
        <path fill="#FFF" d="M-979-68H344V969H-979z"/>
        <g fill="#1EB0CD" fill-rule="nonzero">
            <path d="M25.813 0h7.375v14.737h-7.375z"/>
            <path d="M51.625 18.421h-3.688V0h-7.374v18.421H18.436V0h-7.375v18.421H7.376C3.304 18.421 0 21.722 0 25.79v3.685c0 15.024 11.265 27.403 25.813 29.22V70h7.375V58.693C47.734 56.877 59 44.498 59 29.473V25.79c0-4.067-3.304-7.368-7.375-7.368zM29.5 44.211c-4.071 0-7.375-3.302-7.375-7.369s3.304-7.368 7.375-7.368 7.375 3.3 7.375 7.368c0 4.067-3.304 7.369-7.375 7.369z"/>
        </g>
    </g>
</svg>
