<svg xmlns="http://www.w3.org/2000/svg" width="59" height="70" viewBox="0 0 59 70">
    <g fill="none" fill-rule="evenodd">
        <path fill="#FFF" d="M-676-68H647V969H-676z"/>
        <g fill="#1EB0CD" fill-rule="nonzero">
            <path d="M50.15 26.019H8.85c-3.254 0-5.9 2.59-5.9 5.78v23.123c0 3.185 2.646 5.78 5.9 5.78h17.7v2.89H17.7v5.782h23.6v-5.781h-8.85v-2.89h17.7c3.257 0 5.9-2.596 5.9-5.781V31.799c0-3.19-2.643-5.78-5.9-5.78zm0 5.78l-.006 17.342H8.85V31.8h41.3z"/>
            <ellipse cx="8.85" cy="8.674" rx="5.9" ry="5.781"/>
            <path d="M8.85 14.457c-4.888 0-8.85 3.88-8.85 8.671h17.7c0-4.795-3.965-8.67-8.85-8.67z"/>
            <ellipse cx="29.5" cy="5.784" rx="5.9" ry="5.781"/>
            <path d="M29.5 11.567c-4.888 0-8.85 3.879-8.85 8.671h17.7c0-4.795-3.965-8.67-8.85-8.67z"/>
            <ellipse cx="50.15" cy="8.674" rx="5.9" ry="5.781"/>
            <path d="M50.15 14.457c-4.888 0-8.85 3.88-8.85 8.671H59c0-4.795-3.965-8.67-8.85-8.67z"/>
        </g>
    </g>
</svg>
