<svg xmlns="http://www.w3.org/2000/svg" width="67" height="61" viewBox="0 0 67 61">
    <g fill="none" fill-rule="evenodd">
        <path fill="#FFF" d="M-90-793h1323V244H-90z"/>
        <g fill="#1EB0CD" fill-rule="nonzero">
            <path d="M41.875 10.47c0-1.162.157-2.28.405-3.368H0v6.737h42.28c-.248-1.088-.405-2.207-.405-3.369zM41.875 50.891c0-1.162.157-2.28.405-3.368H0v6.737h42.28c-.248-1.088-.405-2.207-.405-3.369zM8.375 30.68c0-1.161.157-2.28.405-3.368H0v6.737h8.78c-.248-1.088-.405-2.206-.405-3.368zM38.12 27.312c.248 1.088.405 2.207.405 3.369 0 1.162-.157 2.28-.405 3.368H67v-6.737H38.12z"/>
            <ellipse cx="56.95" cy="10.47" rx="10.05" ry="10.105"/>
            <ellipse cx="23.45" cy="30.681" rx="10.05" ry="10.105"/>
            <ellipse cx="56.95" cy="50.891" rx="10.05" ry="10.105"/>
        </g>
    </g>
</svg>
