<svg xmlns="http://www.w3.org/2000/svg" width="78" height="64" viewBox="0 0 78 64">
    <g fill="none" fill-rule="evenodd">
        <path fill="#FFF" d="M-385-551H938V486H-385z"/>
        <g fill="#1EB0CD" fill-rule="nonzero">
            <path d="M32.5 35.2V32H0v3.2c0 8.826 7.29 16 16.25 16s16.25-7.174 16.25-16zM45.5 32v3.2c0 8.826 7.29 16 16.25 16S78 44.026 78 35.2V32H45.5z"/>
            <path d="M42.25 12.8h14.242l-8.125 16h7.263l6.12-12.045L67.87 28.8h7.263l-8.124-16H71.5V6.4H42.25V0h-6.5v6.4H6.5v6.4h4.492l-8.126 16h7.264l6.12-12.045L22.37 28.8h7.264l-8.125-16H35.75v44.8H26V64h26v-6.4h-9.75z"/>
        </g>
    </g>
</svg>
