<svg xmlns="http://www.w3.org/2000/svg" width="64" height="64" viewBox="0 0 64 64">
    <g fill="none" fill-rule="evenodd">
        <path fill="#FFF" d="M-385-792H938V245H-385z"/>
        <g fill="#1EB0CD" fill-rule="nonzero">
            <path d="M6.4 25.6H0V6.4C0 2.874 2.87 0 6.4 0h19.2v6.4H6.4v19.2zM64 25.6h-6.4V6.4H38.4V0h19.2C61.13 0 64 2.874 64 6.4v19.2zM25.6 64H6.4C2.87 64 0 61.126 0 57.6V38.4h6.4v19.2h19.2V64zM57.6 64H38.4v-6.4h19.2V38.4H64v19.2c0 3.526-2.87 6.4-6.4 6.4z"/>
            <path d="M44.8 28.8v-3.2c0-7.06-5.74-12.8-12.8-12.8-7.06 0-12.8 5.74-12.8 12.8v3.2H16v22.4h32V28.8h-3.2zM32 44.8c-2.65 0-4.8-2.15-4.8-4.8s2.15-4.8 4.8-4.8 4.8 2.15 4.8 4.8-2.15 4.8-4.8 4.8zm6.4-16H25.6v-3.2c0-3.526 2.87-6.4 6.4-6.4 3.53 0 6.4 2.874 6.4 6.4v3.2z"/>
        </g>
    </g>
</svg>
