<svg xmlns="http://www.w3.org/2000/svg" width="64" height="60" viewBox="0 0 64 60">
    <path fill="#1EB0CD" fill-rule="nonzero" d="M16.845 50h-.003v6.667c0 1.843-1.509 3.333-3.368 3.333H3.368C1.51 60 0 58.51 0 56.667V50c0-1.843 1.51-3.333 3.368-3.333h10.11c1.858 0 3.367 1.49 3.367 3.333zm23.576-23.333v30c0 1.843-1.509 3.333-3.368 3.333H26.947c-1.859 0-3.368-1.49-3.368-3.333v-30c0-1.844 1.509-3.334 3.368-3.334h10.106c1.859 0 3.368 1.49 3.368 3.334zM64 3.333v53.334C64 58.51 62.49 60 60.632 60H50.526c-1.86 0-3.368-1.49-3.368-3.333V3.333C47.158 1.49 48.667 0 50.526 0h10.106C62.49 0 64 1.49 64 3.333z"/>
</svg>
