<svg xmlns="http://www.w3.org/2000/svg" width="64" height="64" viewBox="0 0 64 64">
    <g fill="none" fill-rule="evenodd">
        <path fill="#FFF" d="M-976-792H347V245H-976z"/>
        <path fill="#1EB0CD" fill-rule="nonzero" d="M62.311.533a3.549 3.549 0 0 0-3.46-.156L32 13.802 5.145.373a3.552 3.552 0 0 0-3.456.16A3.545 3.545 0 0 0 0 3.555v46.223c0 1.482.92 2.809 2.304 3.331l28.444 10.667a3.603 3.603 0 0 0 2.504 0l28.444-10.667A3.556 3.556 0 0 0 64 49.778V3.555c0-1.234-.64-2.378-1.689-3.022zm-8.978 27.911l-14.222 7.111V24.89l14.222-7.111v10.666z"/>
    </g>
</svg>
