<svg xmlns="http://www.w3.org/2000/svg" width="64" height="60" viewBox="0 0 64 60">
    <path fill="#1EB0CD" fill-rule="nonzero" d="M43.336 27.85L31.732 16.357l4.362-4.317 6.893 6.827L59.317 0 64 3.97 43.336 27.85zM33.91 60C15.183 60 0 44.962 0 26.412V11.145c0-1.689 1.381-3.053 3.083-3.053h12.331c1.705 0 3.083 1.364 3.083 3.053v12.214c0 1.688-1.378 3.053-3.083 3.053h-3.083c.195 12.025 9.249 21.374 21.58 21.374v-3.053c0-1.689 1.378-3.054 3.083-3.054h12.332c1.704 0 3.082 1.365 3.082 3.054v12.214c0 1.688-1.378 3.053-3.082 3.053H33.91z"/>
</svg>
