<svg xmlns="http://www.w3.org/2000/svg" width="68" height="60" viewBox="0 0 68 60">
    <g fill="none" fill-rule="evenodd">
        <path fill="#FFF" d="M-976-551H347V486H-976z"/>
        <path fill="#1EB0CD" fill-rule="nonzero" d="M45.333 8.57H31.167c-.896 0-1.8.057-2.732.177L18.813.661A2.812 2.812 0 0 0 15.8.27a2.857 2.857 0 0 0-1.632 2.586v13.469a23.01 23.01 0 0 0-4.004 6.531h-7.33C1.27 22.856 0 24.14 0 25.713V40c0 1.578 1.27 2.858 2.833 2.858h8.727a22.864 22.864 0 0 0 11.107 9.723V60h5.666v-5.906c.935.12 1.879.192 2.834.192h14.166c.964 0 1.904-.08 2.834-.198V60h5.666v-7.397C62.13 49.203 68 40.997 68 31.428 68 18.828 57.831 8.57 45.333 8.57zm-25.5 17.143c-1.564 0-2.833-1.277-2.833-2.857C17 21.282 18.27 20 19.833 20c1.567 0 2.834 1.283 2.834 2.857 0 1.58-1.267 2.857-2.834 2.857zM48.167 20h-17v-5.714h17v5.714z"/>
    </g>
</svg>
