<svg xmlns="http://www.w3.org/2000/svg" width="50" height="70" viewBox="0 0 50 70">
    <g fill="none" fill-rule="evenodd">
        <path fill="#FFF" d="M-393-310H930V727H-393z"/>
        <path fill="#1EB0CD" fill-rule="nonzero" d="M48.166 26.659a13.18 13.18 0 0 0 .044-13.326C45.84 9.25 41.408 6.71 36.644 6.71c-.02 0-.04 0-.06.003A13.317 13.317 0 0 0 25 0c-4.865 0-9.24 2.61-11.59 6.713h-.046c-4.774 0-9.21 2.54-11.58 6.62a13.177 13.177 0 0 0 .051 13.333c-2.396 4.08-2.48 9.15-.05 13.332 2.027 3.497 5.575 5.847 9.549 6.46l-3.046 19.7a3.337 3.337 0 0 0 1.337 3.202 3.36 3.36 0 0 0 3.47.287l11.905-5.923 11.904 5.92a3.35 3.35 0 0 0 1.498.353c.697 0 1.387-.217 1.973-.637a3.33 3.33 0 0 0 1.337-3.203l-3.045-19.702c3.97-.61 7.515-2.96 9.542-6.453 2.435-4.19 2.352-9.26-.044-13.343zM26.5 57.014a3.365 3.365 0 0 0-2.999 0l-7.605 3.784 1.524-9.863a13.344 13.344 0 0 0 7.582 2.396h.003c2.788 0 5.401-.88 7.58-2.386l1.524 9.853-7.61-3.784zm5.203-28.682l3.35 10-10.05-6.667-10.052 6.667 3.35-10-6.7-6.666h10.05l3.351-10 3.35 10h10.052l-6.701 6.666z"/>
    </g>
</svg>
