<svg xmlns="http://www.w3.org/2000/svg" width="62" height="61" viewBox="0 0 62 61">
    <g fill="none" fill-rule="evenodd">
        <path fill="#FFF" d="M-90-314h1323V723H-90z"/>
        <g fill="#1EB0CD" fill-rule="nonzero">
            <path d="M45.926 25.417c.095-.837.154-1.683.154-2.542C46.08 10.263 35.745 0 23.04 0 10.335 0 0 10.263 0 22.875S10.337 45.75 23.04 45.75c4.736 0 9.142-1.428 12.805-3.868V30.5c0-2.796 2.304-5.083 5.12-5.083h4.961zM29.3 30.073l-8.819-5.838V10.167h5.12v11.348l6.54 4.329-2.84 4.229zM53.765 43.208h-5.12a2.552 2.552 0 0 1-2.56-2.541 2.552 2.552 0 0 1 2.56-2.542h10.24v-5.083h-5.12V30.5h-5.12v2.542c-4.234 0-7.68 3.42-7.68 7.625 0 4.204 3.446 7.625 7.68 7.625h5.12a2.552 2.552 0 0 1 2.56 2.541 2.552 2.552 0 0 1-2.56 2.542h-10.24v5.083h5.12V61h5.12v-2.542c4.234 0 7.68-3.42 7.68-7.625 0-4.204-3.443-7.625-7.68-7.625z"/>
        </g>
    </g>
</svg>
