<svg xmlns="http://www.w3.org/2000/svg" width="61" height="61" viewBox="0 0 61 61">
    <g fill="none" fill-rule="evenodd">
        <path fill="#FFF" d="M-91-552h1323V485H-91z"/>
        <g fill="#1EB0CD" fill-rule="nonzero">
            <path d="M48.8 36.619c-2.257 0-4.35.655-6.164 1.725l-5.667-5.669-4.313 4.313 5.67 5.662c-1.07 1.817-1.726 3.901-1.726 6.16C36.6 55.536 42.063 61 48.8 61c2.257 0 4.346-.652 6.161-1.725l-8.317-8.31 4.312-4.31 8.318 8.308C60.344 53.149 61 51.062 61 48.81c0-6.736-5.463-12.191-12.2-12.191zM12.2 24.429c2.257 0 4.346-.653 6.158-1.725l5.67 5.665 4.313-4.31-5.667-5.668c1.07-1.813 1.726-3.898 1.726-6.156C24.4 5.5 18.937.045 12.2.045 9.943.048 7.85.7 6.039 1.773l8.317 8.31-4.312 4.307-8.318-8.311C.656 7.895 0 9.979 0 12.235c0 6.726 5.463 12.194 12.2 12.194z"/>
            <path d="M25.663 39.667l23.768-23.75 2.419 2.413L61 6.14 54.9.045 42.7 9.187l2.419 2.417L21.35 35.357l-6.994-6.988-4.312 4.31 3.943 3.94L.894 49.702a3.043 3.043 0 0 0 0 4.31l6.1 6.095a3.048 3.048 0 0 0 4.312 0L24.4 47.024l3.944 3.937 4.312-4.31-6.993-6.984z"/>
        </g>
    </g>
</svg>
