<svg xmlns="http://www.w3.org/2000/svg" width="96" height="96" viewBox="0 0 96 96">
    <g fill="none" fill-rule="evenodd">
        <path fill="#B8E9F5" d="M96 47.76C96 21.384 74.51 0 48 0S0 21.384 0 47.76c0 26.38 21.49 47.762 48 47.762S96 74.14 96 47.76"/>
        <path fill="#4EC5DE" d="M95.984 49.012c-.041-.039-.08-.082-.122-.118L76.198 29.557l-4.025-2.81-4.8 2.865-8.793-8.798-30.867 14.66 4.552 4.529-1.007 4.274L47.63 60.568 26.2 77.919l17.498 17.41c1.417.126 2.852.15 4.302.193 26.089 0 47.316-20.709 47.984-46.51"/>
        <path fill="#84DCF0" d="M35.972 16.553c6.242 0 11.302 5.035 11.302 11.246 0 6.21-5.06 11.246-11.302 11.246S24.671 34.01 24.671 27.799c0-6.21 5.06-11.246 11.301-11.246M63.53 62.736l-1.676-.39H35.16l-1.675.39c-4.268.993-7.285 4.78-7.285 9.14v6.043a.61.61 0 0 0 .611.609h43.39a.61.61 0 0 0 .612-.609v-6.042c0-4.361-3.018-8.148-7.285-9.141"/>
        <path fill="#D6F5FC" d="M48.508 70.491a14.98 14.98 0 0 0 13.346-8.145l-3.53-.822a5.148 5.148 0 0 1-3.991-5.008v-5.872h-11.65v5.872a5.149 5.149 0 0 1-3.992 5.008l-3.53.822a14.979 14.979 0 0 0 13.347 8.145"/>
        <path fill="#44C6E6" d="M32.893 36.6h2.76v-4.854h-2.76z"/>
        <path fill="#5ECFEB" d="M32.982 33.672h2.671v11.38h-2.67c-1.27 0-2.3-1.024-2.3-2.289v-6.802a2.294 2.294 0 0 1 2.3-2.289"/>
        <path fill="#57BFD9" d="M33.683 45.053h2.413V33.672h-2.413z"/>
        <path fill="#5ECFEB" d="M63.551 45.052h-2.67v-11.38h2.67c1.27 0 2.3 1.025 2.3 2.288v6.804a2.295 2.295 0 0 1-2.3 2.288"/>
        <path fill="#57BFD9" d="M60.429 45.053h2.575V33.672h-2.575z"/>
        <path fill="#A9E4F2" d="M54.333 56.516v-5.871h-11.65v5.871c0 .179-.011.355-.03.53a12.606 12.606 0 0 0 5.613 1.31c2.204 0 4.273-.563 6.076-1.55a5.267 5.267 0 0 1-.01-.29"/>
        <path fill="#E6FAFF" d="M48.267 55.529c-6.967 0-12.614-5.62-12.614-12.55V32.716c0-6.93 5.647-12.55 12.614-12.55 6.966 0 12.613 5.62 12.613 12.55v10.261c0 6.932-5.647 12.55-12.613 12.55"/>
        <path fill="#5ECFEB" d="M48.16 48.443a6.32 6.32 0 0 1-4.486-1.849.91.91 0 0 1 0-1.29.92.92 0 0 1 1.297 0 4.491 4.491 0 0 0 3.189 1.314 4.49 4.49 0 0 0 3.189-1.314.92.92 0 0 1 1.297 0 .91.91 0 0 1 0 1.29 6.319 6.319 0 0 1-4.486 1.85"/>
        <path fill="#C8F0FA" d="M50.363 20.343c3.33 2.26 5.515 6.062 5.515 10.374v10.26c0 6.932-5.647 12.552-12.613 12.552-.715 0-1.415-.063-2.097-.176a12.598 12.598 0 0 0 7.099 2.176c6.966 0 12.613-5.619 12.613-12.55V32.718c0-6.22-4.549-11.381-10.517-12.375"/>
        <path fill="#9FE5F5" d="M62.412 44.736v1.27a3.326 3.326 0 0 1-3.336 3.318h-9.472c-.508 0-.952.382-.984.886a.95.95 0 0 0 .951 1.012h9.505c2.895 0 5.243-2.335 5.243-5.216v-1.27a.46.46 0 0 0-.462-.459h-.985a.46.46 0 0 0-.46.459"/>
        <path fill="#44C6E6" d="M35.15 24.233a14.75 14.75 0 0 0-1.948 4.826 14.73 14.73 0 0 0-.22 4.613 15.266 15.266 0 0 0 3.562-1.36c.327-.175 1.946-1.056 3.634-2.684l-5.029-5.395z"/>
        <path fill="#75D6ED" d="M64.34 31.336c-1.075-3.96-2.859-7.73-5.76-10.522-.94-.905-4.474-4.306-9.704-4.575 0 0-5.458-.28-10.17 3.71a15.47 15.47 0 0 0-1.95 1.985 18.493 18.493 0 0 0-1.607 2.299c4.386 6.245 10.966 10.216 18.324 10.216 1.812 0 5.598-.55 7.407-1.731l3.46-1.382z"/>
        <path fill="#5ECFEB" d="M58.58 20.814c-.94-.905-4.474-4.306-9.704-4.575 0 0-1.323-.067-3.227.34 3.934.94 6.565 3.473 7.357 4.235 2.902 2.792 4.685 6.562 5.759 10.522l-3.459 1.381c-1.149.75-3.093 1.246-4.825 1.507.98.146 1.98.225 2.992.225 1.812 0 5.598-.55 7.407-1.732l3.46-1.381c-1.075-3.96-2.859-7.73-5.76-10.522"/>
        <path fill="#3CB0CB" d="M43.265 36.224c.772 0 1.398.623 1.398 1.391s-.626 1.39-1.398 1.39a1.395 1.395 0 0 1-1.398-1.39c0-.768.625-1.391 1.398-1.391M52.772 36.224c.772 0 1.398.623 1.398 1.391s-.626 1.39-1.398 1.39a1.395 1.395 0 0 1-1.399-1.39c0-.768.626-1.391 1.399-1.391"/>
        <path fill="#5ECFEB" d="M29.096 67.298h-1.694a9.237 9.237 0 0 0-1.202 4.559v6.062a.61.61 0 0 0 .612.609h7.774V72.76c0-3.017-2.458-5.462-5.49-5.462M67.919 67.298h1.694a9.232 9.232 0 0 1 1.201 4.559v6.062a.61.61 0 0 1-.612.609H62.43V72.76c0-3.017 2.458-5.462 5.49-5.462"/>
        <path fill="#E6FAFF" d="M76.198 29.557L71.76 25.14l-4.439 4.417 1.297 1.29 2.225-2.214v27.69h1.834v-27.69l2.225 2.215z"/>
    </g>
</svg>
