<svg xmlns="http://www.w3.org/2000/svg" xmlns:xlink="http://www.w3.org/1999/xlink" width="64" height="64" viewBox="0 0 64 64"><defs><path id="rqdta" d="M856.33 4243.46a4 4 0 1 1 8 0 4 4 0 0 1-8 0z"/><path id="rqdtb" d="M860.34 4250.13a6.68 6.68 0 0 1 0-13.33 6.68 6.68 0 0 1 0 13.33zm13.83-11.35a1.32 1.32 0 0 0-.71-.78 1.31 1.31 0 0 0-1.07-.01c-.61.26-1.34.03-1.66-.52a1.3 1.3 0 0 1 .38-1.7 1.33 1.33 0 0 0 .2-1.95 14.49 14.49 0 0 0-8.1-4.73 1.34 1.34 0 0 0-1.59 1.17c-.07.69-.62 1.2-1.29 1.2-.66 0-1.21-.5-1.28-1.2a1.33 1.33 0 0 0-1.6-1.17 14.52 14.52 0 0 0-8.1 4.73 1.33 1.33 0 0 0 .2 1.95c.56.41.72 1.13.4 1.7-.33.55-1.06.77-1.67.52a1.33 1.33 0 0 0-1.79.8 14.57 14.57 0 0 0-.82 4.68c0 1.5.27 3.04.83 4.68.12.35.38.64.72.79.33.15.72.15 1.06 0a1.34 1.34 0 0 1 1.67.52 1.3 1.3 0 0 1-.39 1.7 1.33 1.33 0 0 0-.2 1.95 14.49 14.49 0 0 0 8.1 4.73 1.34 1.34 0 0 0 1.6-1.17c.06-.69.62-1.2 1.28-1.2s1.22.51 1.28 1.2a1.33 1.33 0 0 0 1.6 1.17 14.52 14.52 0 0 0 8.1-4.73 1.33 1.33 0 0 0-.2-1.95 1.3 1.3 0 0 1-.39-1.7 1.32 1.32 0 0 1 1.67-.51 1.34 1.34 0 0 0 1.78-.8c.55-1.64.82-3.17.82-4.68 0-1.51-.27-3.04-.83-4.69z"/><path id="rqdtc" d="M825.67 4210.13h-10.12l11.45-11.45v10.12c0 .73-.6 1.33-1.33 1.33zm32-16h-29.34c-.35 0-.69.14-.94.39l-16 16c-.25.25-.39.6-.39.94v40c0 .74.6 1.34 1.33 1.34H844a1.34 1.34 0 0 0 .95-2.28 3.94 3.94 0 0 1-.97-1.52 16.96 16.96 0 0 1-.97-5.54c0-1.8.32-3.61.97-5.54.3-.9.92-1.66 1.74-2.15.4-.24.64-.66.65-1.13.01-.95.37-1.87 1-2.59a17.14 17.14 0 0 1 9.58-5.58c.24-.05.5-.07.74-.07.73 0 1.32-.6 1.32-1.33v-29.6c0-.74-.6-1.34-1.33-1.34z"/></defs><g><g transform="translate(-811 -4194)"><g><g><use fill="#1f282c" xlink:href="#rqdta"/></g><g><use fill="#1f282c" xlink:href="#rqdtb"/></g></g><g><use fill="#1eb0cd" xlink:href="#rqdtc"/></g></g></g></svg>