<svg xmlns="http://www.w3.org/2000/svg" xmlns:xlink="http://www.w3.org/1999/xlink" width="63" height="62" viewBox="0 0 63 62"><defs><path id="7p5ca" d="M851.64 4447.47c-.41-.42-1.03-.62-1.45-.21a14.88 14.88 0 0 1-8.25 2.48 15.6 15.6 0 0 1-15.49-15.5c0-7.03 4.75-13.23 11.56-15.09.42-.2.83-.62.83-1.03v-12.6c0-.63-.41-1.04-1.03-1.04h-.42c-14.45 2.07-25.39 14.88-25.39 29.55a29.97 29.97 0 0 0 29.94 29.97c5.98 0 11.76-1.86 16.72-5.17.2-.2.41-.41.41-.62 0-.2 0-.62-.2-.82z"/><path id="7p5cb" d="M844 4416.47a15.6 15.6 0 0 1 15.49 15.5c0 .62.4 1.03 1.03 1.03h12.39c.61 0 1.03-.41 1.03-1.03A29.97 29.97 0 0 0 844 4402c-.62 0-1.03.41-1.03 1.03v12.4c0 .62.41 1.04 1.03 1.04z"/><path id="7p5cc" d="M872.9 4435.07h-12.38c-.62 0-1.03.41-1.03 1.03 0 4.96-2.69 8.48-4.75 10.54a1 1 0 0 0 0 1.45l8.26 9.3c.2.2.41.41.82.62h.21c.2 0 .41 0 .62-.2a29.73 29.73 0 0 0 9.5-21.7c-.21-.63-.62-1.04-1.24-1.04z"/></defs><g><g transform="translate(-812 -4402)"><g><use fill="#1eb0cd" xlink:href="#7p5ca"/></g><g><use xlink:href="#7p5cb"/></g><g><use xlink:href="#7p5cc"/></g></g></g></svg>