<svg xmlns="http://www.w3.org/2000/svg" xmlns:xlink="http://www.w3.org/1999/xlink" width="62" height="46" viewBox="0 0 62 46"><defs><path id="ecp1a" d="M873.56 4307.58h-42.67c-.73 0-1.33.6-1.33 1.33v4h38.67c.73 0 1.33.6 1.33 1.34v22.66h4c.74 0 1.33-.6 1.33-1.33v-26.67c0-.74-.6-1.33-1.33-1.33z"/><path id="ecp1b" d="M865.56 4315.58h-42.67c-.73 0-1.33.6-1.33 1.33v4h38.67c.73 0 1.33.6 1.33 1.34v22.66h4c.74 0 1.33-.6 1.33-1.33v-26.67c0-.74-.6-1.33-1.33-1.33z"/><path id="ecp1c" d="M829.56 4338.24a6.66 6.66 0 1 1 13.33 0 6.66 6.66 0 0 1-13.33 0z"/><path id="ecp1d" d="M853.56 4343.58c0 .73-.6 1.33-1.33 1.33-.74 0-1.34.6-1.34 1.34 0 .73-.6 1.33-1.33 1.33h-2.67a1.33 1.33 0 0 1 0-2.67h1.56a4.02 4.02 0 0 1 2.44-2.44v-8.45a4.02 4.02 0 0 1-2.44-2.44h-1.56a1.33 1.33 0 0 1 0-2.67h2.67c.74 0 1.33.6 1.33 1.34 0 .73.6 1.33 1.34 1.33.73 0 1.33.6 1.33 1.33zm-17.33 4a9.34 9.34 0 0 1 0-18.66 9.34 9.34 0 0 1 0 18.66zm-10.67 0h-2.67c-.73 0-1.33-.6-1.33-1.33 0-.74-.6-1.34-1.33-1.34-.74 0-1.34-.6-1.34-1.33v-10.67c0-.73.6-1.33 1.34-1.33.73 0 1.33-.6 1.33-1.33 0-.74.6-1.33 1.33-1.33h2.67a1.33 1.33 0 0 1 0 2.66H824a4.02 4.02 0 0 1-2.44 2.44v8.46c1.14.4 2.04 1.3 2.44 2.43h1.56a1.33 1.33 0 0 1 0 2.67zm32-24h-42.67c-.73 0-1.33.6-1.33 1.33v26.67c0 .74.6 1.33 1.33 1.33h42.67c.74 0 1.33-.6 1.33-1.33v-26.67c0-.74-.6-1.33-1.33-1.33z"/></defs><g><g transform="translate(-813 -4307)"><g><use xlink:href="#ecp1a"/></g><g><use xlink:href="#ecp1b"/></g><g><g><use fill="#1eb0cd" xlink:href="#ecp1c"/></g><g><use fill="#1eb0cd" xlink:href="#ecp1d"/></g></g></g></g></svg>