<svg xmlns="http://www.w3.org/2000/svg" xmlns:xlink="http://www.w3.org/1999/xlink" width="64" height="64" viewBox="0 0 64 64"><defs><path id="k93ra" d="M867 4136.23c-3.75 0-7.42-.58-10.9-1.73a4.83 4.83 0 0 0-4.75 1l-6.9 5.22c-7.92-4.23-13-9.3-17.16-17.16l5.07-6.74a4.84 4.84 0 0 0 1.19-4.9 34.75 34.75 0 0 1-1.75-10.92 4.8 4.8 0 0 0-4.8-4.8h-11.2a4.8 4.8 0 0 0-4.8 4.8c0 30.88 25.12 56 56 56a4.8 4.8 0 0 0 4.8-4.8v-11.17a4.8 4.8 0 0 0-4.8-4.8z"/><path id="k93rb" d="M874.88 4093.99a1.61 1.61 0 0 0-1.48-.99h-19.2a1.6 1.6 0 0 0 0 3.2h15.34l-29.27 29.27a1.6 1.6 0 0 0 2.26 2.26l29.27-29.27v15.34a1.6 1.6 0 0 0 3.2 0v-19.2c0-.2-.04-.42-.12-.61z"/></defs><g><g transform="translate(-811 -4093)"><g><use fill="#1eb0cd" xlink:href="#k93ra"/></g><g><use fill="#1f282c" xlink:href="#k93rb"/></g></g></g></svg>