<svg width="32" height="16" viewBox="0 0 32 16" fill="none" xmlns="http://www.w3.org/2000/svg">
<path d="M16.7817 11.7784L18.6388 13.6684C21.6928 16.7791 26.6534 16.7734 29.7018 13.6572C31.1821 12.1441 31.9964 10.1359 31.9964 7.99842C31.9964 5.86091 31.1821 3.84997 29.7018 2.33966C26.6561 -0.7766 21.6928 -0.779413 18.6416 2.32841L10.4426 10.6787C8.99819 12.1497 6.65131 12.1469 5.20962 10.6731C3.76518 9.19655 3.76518 6.79467 5.20962 5.32091C5.93047 4.58404 6.87967 4.2156 7.82887 4.2156C8.77533 4.2156 9.72178 4.58404 10.4426 5.3181L12.2915 7.19404L15.2189 4.21841L13.3563 2.32841C10.3023 -0.779413 5.33893 -0.7766 2.29047 2.33966C-0.763491 5.46154 -0.763491 10.5381 2.29047 13.66C3.8147 15.2181 5.82041 16 7.82612 16C9.82633 16 11.8265 15.2237 13.3535 13.6712L21.5524 5.32091C22.9969 3.84997 25.3438 3.85279 26.7855 5.32654C27.4843 6.04092 27.8695 6.99154 27.8695 8.00404C27.8695 9.01655 27.4843 9.96436 26.7855 10.6816C25.3438 12.1553 22.9969 12.1581 21.5524 10.6872L19.7063 8.80842L16.7817 11.7784Z" fill="#1BA7C6"/>
</svg>
