<svg width="200" height="64" viewBox="0 0 200 64" fill="none" xmlns="http://www.w3.org/2000/svg">
<rect opacity="0.1" x="0.5" y="0.5" width="199" height="63" stroke="white"/>
<g opacity="0.5">
<path d="M71.1511 38.0656H70.0411V25.8555H63.5483V27.0486C63.5483 30.7674 63.4091 35.0962 62.1327 38.0656H61.2722V42.4951H63.2156V39.8418H69.2086V42.4951H71.152V38.0656H71.1511ZM80.5591 38.8981L80.0601 37.2331C79.5042 37.6218 78.5334 38.1768 77.3113 38.1768C75.5912 38.1768 74.7035 36.5117 74.7035 33.348H80.5311V32.1557C80.5311 27.4111 79.0052 25.662 76.674 25.662C73.7047 25.662 72.4555 28.936 72.4555 33.4321C72.4555 37.7338 74.2325 40.037 77.1179 40.037C78.5054 40.037 79.6705 39.5932 80.5582 38.899L80.5591 38.8981ZM57.8861 25.8555V31.7942H54.6682V25.8555H52.5033V39.8418H54.6682V33.5704H57.887V39.8418H60.023V25.8555H57.887H57.8861ZM88.6075 39.8418H90.9659L86.9977 32.4324L90.4669 25.8555H88.2722L84.9151 32.3212V25.8555H82.7502V39.8418H84.9151V32.8762L88.6067 39.8418H88.6075ZM96.0441 40.0361C97.3213 40.0361 98.2089 39.6194 98.9583 38.9813L98.4593 37.3723C97.9594 37.8161 97.155 38.2319 96.1001 38.2319C94.3519 38.2319 93.5194 36.2342 93.5194 32.7379C93.5194 29.2135 94.6294 27.4653 96.1833 27.4653C97.0709 27.4653 97.9034 27.9372 98.4856 28.437L98.792 26.3825C98.1809 25.9947 97.4596 25.6611 96.2113 25.6611C92.9364 25.6611 91.2434 28.4642 91.2434 32.8482C91.2434 37.6218 93.0467 40.0352 96.0441 40.0352V40.0361ZM67.906 38.0665H64.1873C65.3525 35.0962 65.4916 30.7954 65.4916 27.854V27.6037H67.906V38.0656V38.0665ZM76.6732 27.4373C77.9215 27.4373 78.3102 29.1855 78.3102 31.5719H74.7298C74.8698 29.0743 75.3408 27.4373 76.6732 27.4373Z" fill="white"/>
<path d="M111.211 22.3821H107.223C107.186 24.4562 107.136 26.2909 107.074 27.8864C107.013 29.4641 106.92 30.8468 106.796 32.0345C106.685 33.2222 106.543 34.2326 106.37 35.0658C106.196 35.8989 105.98 36.5992 105.72 37.1664H111.211V22.3821ZM112.676 39.2937H104.7L104.533 43.4152H103.124V37.1664H104.014C104.36 36.6346 104.632 35.9078 104.83 34.986C105.04 34.0465 105.207 32.8854 105.331 31.5027C105.455 30.1199 105.541 28.4979 105.591 26.6366C105.652 24.7753 105.702 22.648 105.739 20.2549H112.843V37.1664H114.253V43.4152H112.843L112.676 39.2937Z" fill="white"/>
<path d="M116.206 25.4932H117.727V34.2947L117.709 35.9167L121.771 25.4932H123.329V39.2937H121.808V31.4229L121.845 28.9234L117.783 39.2937H116.206V25.4932Z" fill="white"/>
<path d="M129.831 37.5653C130.536 37.5653 131.111 37.1664 131.556 36.3687C132.001 35.5533 132.224 34.2237 132.224 32.3801C132.224 31.4583 132.162 30.6695 132.038 30.0136C131.927 29.3577 131.766 28.8259 131.556 28.4182C131.346 27.9927 131.092 27.6825 130.795 27.4875C130.511 27.2925 130.196 27.195 129.849 27.195C129.491 27.195 129.157 27.2925 128.848 27.4875C128.551 27.6825 128.291 27.9838 128.069 28.3916C127.846 28.7993 127.667 29.34 127.531 30.0136C127.407 30.6695 127.345 31.4583 127.345 32.3801C127.345 34.1706 127.58 35.4824 128.05 36.3155C128.532 37.1487 129.126 37.5653 129.831 37.5653ZM130.109 39.5596C129.528 39.5596 129.002 39.3646 128.532 38.9746C128.062 38.5669 127.673 37.9907 127.364 37.2462V44.0002H125.843V25.4932H127.215L127.308 27.7268C127.605 26.9645 128.001 26.3618 128.495 25.9187C129.002 25.4578 129.583 25.2273 130.239 25.2273C130.696 25.2273 131.142 25.3691 131.574 25.6528C132.007 25.9187 132.384 26.3441 132.706 26.9291C133.04 27.4964 133.306 28.232 133.504 29.1361C133.701 30.0402 133.8 31.1215 133.8 32.3801C133.8 33.6388 133.701 34.7201 133.504 35.6242C133.306 36.5283 133.034 37.2728 132.687 37.8578C132.353 38.4428 131.964 38.8771 131.519 39.1607C131.074 39.4266 130.604 39.5596 130.109 39.5596Z" fill="white"/>
<path d="M139.163 27.195C138.533 27.195 138.007 27.4964 137.587 28.0991C137.166 28.7018 136.907 29.7034 136.808 31.1038H141.13C141.154 30.3947 141.123 29.792 141.037 29.2956C140.963 28.7816 140.833 28.3738 140.647 28.0725C140.474 27.7711 140.258 27.5495 139.998 27.4077C139.751 27.2659 139.473 27.195 139.163 27.195ZM142.521 38.2035C142.273 38.4871 141.896 38.7884 141.389 39.1075C140.895 39.4089 140.258 39.5596 139.479 39.5596C136.635 39.5596 135.212 37.1664 135.212 32.3801C135.212 31.1924 135.311 30.1554 135.509 29.2691C135.707 28.365 135.979 27.6204 136.325 27.0355C136.684 26.4327 137.104 25.9807 137.587 25.6793C138.081 25.378 138.613 25.2273 139.182 25.2273C139.776 25.2273 140.307 25.3868 140.777 25.7059C141.259 26.0073 141.655 26.4771 141.964 27.1152C142.273 27.7357 142.484 28.5334 142.595 29.5084C142.719 30.4834 142.719 31.6356 142.595 32.9651H136.771C136.82 34.6137 137.067 35.7926 137.513 36.5017C137.97 37.2107 138.656 37.5653 139.571 37.5653C140.165 37.5653 140.672 37.4323 141.092 37.1664C141.513 36.8828 141.865 36.5726 142.15 36.2358L142.521 38.2035Z" fill="white"/>
<path d="M146.835 33.364H146.148V39.2937H144.627V25.4932H146.148V31.4495H146.872L149.765 25.4932H151.472L148.096 32.327L151.546 39.2937H149.71L146.835 33.364Z" fill="white"/>
<path d="M156.517 27.3811V39.2937H154.996V27.3811H152.474V25.4932H159.04V27.3811H156.517Z" fill="white"/>
<path d="M47.7919 32.2381V39.8419H49.9279V20H46.7371C43.6014 20 40.9647 22.0817 40.9647 26.2442C40.9647 29.2136 42.1307 30.8226 43.8789 31.7111L40.1602 39.8419H42.6297L46.0157 32.2381H47.7919ZM47.7919 30.4619H46.6539C44.7945 30.4619 43.2678 29.4351 43.2678 26.2442C43.2678 22.9422 44.9329 21.8042 46.6539 21.8042H47.7919V30.4619Z" fill="white"/>
</g>
</svg>
