<svg width="200" height="64" viewBox="0 0 200 64" fill="none" xmlns="http://www.w3.org/2000/svg">
<rect opacity="0.1" x="0.5" y="0.5" width="199" height="63" stroke="white"/>
<g opacity="0.6">
<path d="M93.5983 38.3888C90.2289 42.8874 87.3024 41.7836 84.9496 37.3286C83.9548 38.3416 82.8764 39.2674 81.729 40.1026C79.2455 41.6602 76.5841 40.2006 76.4207 37.2451C76.3626 36.1522 76.4207 35.0411 76.3699 33.9301C76.2682 33.5379 76.1012 33.1712 75.8725 32.8372C75.4985 33.026 74.9611 33.1204 74.7796 33.4254C74.3511 34.2242 73.9808 35.0556 73.6794 35.9089C73.2401 36.9618 72.8516 38.0475 72.3868 39.0714C71.9112 40.1243 70.7493 40.6835 69.6274 40.4039C68.5127 40.295 67.6631 39.3546 67.674 38.2326C67.5905 36.8166 67.7502 35.3824 67.674 33.9591C67.5832 33.4907 67.4271 33.0332 67.2092 32.6084C66.828 32.9243 66.2797 33.1567 66.0837 33.5597C65.3394 35.1755 64.6749 36.9219 63.9306 38.5776C63.7055 39.144 63.3932 39.6705 63.0011 40.1352C62.2023 41.0466 60.8153 41.141 59.904 40.3422C59.5336 40.019 59.2831 39.5761 59.1923 39.0932C59.1233 38.8572 59.0798 38.6175 59.0689 38.3743C59.0689 35.0593 58.9599 31.6826 59.018 28.3349C59.0471 27.4453 59.3375 26.5812 59.8459 25.8514C60.376 25.1651 61.1203 24.6713 61.959 24.4426C63.2335 24.1013 63.8652 24.7076 63.9233 26.0983C63.9742 27.1657 63.9233 28.2441 63.9233 29.3189L64.4788 29.475C64.8855 29.0792 65.2558 28.6508 65.5899 28.1897C66.287 27.0459 66.8897 25.8368 67.5869 24.6859C68.0915 23.6438 69.2825 23.1318 70.3862 23.4768C71.4719 23.7273 72.1908 24.7657 72.0419 25.8695V29.4641L72.5139 29.613C72.848 29.3116 73.1639 28.9848 73.4507 28.6363C74.4455 27.4526 75.3714 26.1999 76.3989 25.0489C76.8274 24.5588 77.3648 24.1739 77.9638 23.9234C79.1657 23.3352 80.6107 23.8326 81.1989 25.0344C81.424 25.4919 81.4967 26.0075 81.4095 26.5086C81.2425 28.9122 81.0936 31.3122 80.9629 33.7158C80.9593 34.1515 80.9811 34.5909 81.0283 35.023C82.8183 34.4456 84.129 32.9062 84.4159 31.0472C84.5393 29.0647 84.779 27.0931 85.1348 25.1397C85.3236 23.9561 86.3003 23.052 87.4948 22.9612C88.5659 22.7397 89.6697 23.1645 90.3124 24.0541C91.0386 25.0961 91.0676 26.4722 90.3777 27.5397C89.3829 29.1954 89.4482 30.9927 89.6734 32.7646C89.7823 33.5416 90.218 34.2314 90.8679 34.6708C91.772 35.1101 92.5236 34.3149 92.8794 33.5198C93.5148 31.8931 94.0703 30.2338 94.5351 28.5491C94.8836 27.38 95.0252 26.1455 95.3629 24.9872C95.8749 23.3715 97.0186 22.6598 98.3947 22.983C99.8506 23.3424 100.787 24.7585 100.548 26.2399C100.45 27.0677 100.127 27.812 99.9995 28.6181C99.6001 31.0544 99.2552 33.498 98.8631 36.0723C100.737 35.4841 102.225 34.9794 103.75 34.5727C104.465 34.4239 105.199 34.373 105.929 34.4311C107.305 34.4311 107.951 35.1174 108.412 36.675C109.926 41.5876 113.209 44.5286 118.285 45.3818C125.59 46.6163 132.547 40.0626 131.82 32.6847C131.77 32.1945 131.704 31.708 131.671 31.2178C131.377 29.878 132.227 28.5527 133.567 28.2586C134.907 27.9645 136.232 28.8142 136.526 30.154C136.559 30.3101 136.58 30.4662 136.584 30.626C137.586 37.3358 135.473 42.9092 130.107 47.0412C122.714 52.6763 112.152 51.2493 106.517 43.8569C106.056 43.2505 105.635 42.6115 105.257 41.947C104.121 39.9755 103.757 39.8593 101.695 40.8469C101.59 40.9086 101.477 40.9631 101.365 41.0139C99.3024 41.7836 98.5326 43.2324 98.3402 45.4617C98.0679 48.9909 97.5124 52.4947 96.6845 55.9404C95.5735 60.3374 92.883 61.118 89.2304 58.4239C84.7172 55.1344 83.8894 50.0511 87.3423 45.734C88.8346 44.0094 90.5193 42.4626 92.3711 41.1301C93.3224 40.5782 93.8162 39.4744 93.5983 38.3888ZM93.257 46.6236L92.7451 46.3985C92.037 47.3461 91.3835 48.3337 90.7917 49.354C90.3051 50.3452 90.5302 51.5398 91.3472 52.2878C91.8773 52.8578 92.4255 53.0176 92.5744 52.0046C92.8431 50.1855 93.0028 48.4209 93.257 46.6236Z" fill="white"/>
<path d="M128.106 20.0169C127.896 18.2778 128.618 16.5567 130.002 15.4856C131.029 14.567 131.948 13.5068 132.968 12.57C133.349 12.3159 133.77 12.1234 134.21 12C134.391 12.3812 134.518 12.7843 134.591 13.2018C134.642 14.6687 134.631 16.1356 134.591 17.6097C134.591 18.6372 135.045 19.0911 136.072 19.0838H140.596C140.974 19.1492 141.341 19.2726 141.682 19.4469C141.584 19.8572 141.421 20.2457 141.192 20.5979C139.99 21.8723 138.708 23.0814 137.488 24.334C136.65 25.2091 135.437 25.6157 134.242 25.4197C132.572 25.1655 130.898 25.8554 129.893 27.2169C128.607 28.6911 127.1 29.9655 125.75 31.3997C125.369 31.8318 125.162 32.3909 125.162 32.9646C125.376 35.8221 123.23 38.3092 120.376 38.5198C117.519 38.734 115.032 36.5882 114.821 33.7343C114.806 33.5564 114.803 33.3749 114.81 33.197C114.908 30.3867 117.268 28.1864 120.078 28.2844C120.22 28.288 120.365 28.2989 120.507 28.3171C121.226 28.4369 121.959 28.1719 122.438 27.62C123.822 26.1785 125.212 24.7371 126.705 23.4045C127.79 22.4787 128.455 21.4838 128.106 20.0169Z" fill="white"/>
<path d="M104.789 26.3522C104.93 25.9128 105.108 25.488 105.319 25.0777C108.906 18.9016 115.983 15.6339 123.012 16.9119C124.726 17.2423 125.695 18.4042 125.449 19.8457C125.202 21.2871 123.898 22.1476 122.134 21.8245C117.301 20.9385 112.417 23.0953 109.818 27.2671C109.603 27.6629 109.353 28.0369 109.073 28.3854C108.387 29.1951 107.243 29.4457 106.281 28.9918C105.293 28.5743 104.771 27.7718 104.789 26.3522Z" fill="white"/>
</g>
</svg>
