<svg width="200" height="64" viewBox="0 0 200 64" fill="none" xmlns="http://www.w3.org/2000/svg">
<rect opacity="0.1" x="0.5" y="0.5" width="199" height="63" stroke="white"/>
<g opacity="0.5">
<path d="M48.2556 35.8782C48.7065 35.8782 48.9319 36.4562 48.9319 37.6121C48.9319 38.2403 48.6689 39.0004 48.1429 39.8925C47.617 40.7845 46.9345 41.6012 46.0955 42.3425C45.2564 43.0838 44.3235 43.6931 43.2966 44.1706C42.2698 44.648 41.2679 44.8867 40.2912 44.8867C38.9638 44.8867 38.0746 43.7183 37.6238 41.3813C36.9726 42.4618 36.1211 43.3476 35.0692 44.0386C34.0173 44.7297 32.6084 45.0752 30.8427 45.0752C29.077 45.0752 27.6557 44.5224 26.5787 43.4167C25.5018 42.3111 24.9758 40.9667 25.0009 39.3836C25.0009 35.1118 26.4159 31.7446 29.2461 29.282C30.4483 28.2517 31.5691 27.5733 32.6084 27.2466C33.6478 26.9199 34.7436 26.7566 35.8957 26.7566C37.0478 26.7566 37.987 26.9576 38.7133 27.3597C39.0639 26.631 39.4647 26.2666 39.9155 26.2666C40.7921 26.2666 41.6248 26.6498 42.4138 27.4162C43.2027 28.1826 43.5972 28.9051 43.5972 29.5835C43.2465 30.4128 42.7331 31.4054 42.0569 32.5613C41.8565 33.7172 41.7563 35.3379 41.7563 37.4236C41.7563 39.5092 42.0193 40.5521 42.5453 40.5521C43.1964 40.5521 44.7743 39.2454 47.2789 36.6321C47.7297 36.1295 48.0553 35.8782 48.2556 35.8782ZM30.5234 38.1398C30.5234 40.0746 31.2372 41.0421 32.6648 41.0421C34.1926 41.017 35.4574 40.2003 36.4592 38.5921C36.8098 38.0392 37.0979 37.3608 37.3233 36.5567C37.3233 33.7423 37.5737 31.33 38.0746 29.3197C36.0459 29.7218 34.2802 30.7018 32.7775 32.2597C31.2748 33.8177 30.5234 35.7777 30.5234 38.1398Z" fill="white"/>
<path d="M64.8234 33.3149C64.8234 32.4857 64.3475 32.071 63.3958 32.071C62.7446 32.071 62.0183 32.7055 61.2168 33.9745C60.4153 35.2435 59.8393 36.6067 59.4887 38.0642V38.1395C59.4887 38.9939 59.6201 39.8734 59.8831 40.778C60.1461 41.6826 60.2776 42.3108 60.2776 42.6626C60.2776 43.517 59.2132 44.3588 57.0843 45.188C56.7587 45.3137 56.4707 45.3765 56.2202 45.3765C55.5941 45.3765 55.162 45.0498 54.9241 44.3965C54.6862 43.7432 54.5672 42.8574 54.5672 41.7392C54.5672 40.621 54.5985 39.5656 54.6611 38.573C54.7237 37.5804 54.7864 36.6632 54.849 35.8214C54.9116 34.9796 54.9742 34.2384 55.0368 33.5976C55.0994 32.9568 55.1307 32.4354 55.1307 32.0333C55.1307 31.179 54.7425 30.7518 53.9661 30.7518C53.1897 30.7518 52.2881 31.6627 51.2612 33.4845C50.2343 35.3063 49.7209 36.7512 49.7209 37.8191C49.7209 38.8871 49.8524 39.8734 50.1154 40.778C50.3783 41.6826 50.5098 42.3108 50.5098 42.6626C50.5098 43.517 49.4454 44.3588 47.3165 45.188C46.9909 45.3137 46.7029 45.3765 46.4524 45.3765C45.8263 45.3765 45.3943 45.0498 45.1563 44.3965C44.9184 43.7432 44.7994 42.738 44.7994 41.3811C44.7994 37.8129 44.9372 35.2372 45.2127 33.6541C45.5884 31.3172 46.4399 29.1059 47.7673 27.0202C48.2182 26.3166 48.7065 25.9648 49.2325 25.9648C50.059 25.9648 50.8229 26.6433 51.5242 28.0002C51.7245 28.352 51.8748 28.6787 51.975 28.9802C53.1772 27.4725 54.5922 26.7187 56.2202 26.7187C57.2972 26.7187 58.2614 27.0768 59.113 27.7929C59.9645 28.5091 60.3903 29.4074 60.3903 30.4879V30.9026C61.9181 28.9928 63.784 28.0379 65.988 28.0379C67.3404 28.0379 68.3673 28.3897 69.0686 29.0933C69.7698 29.7969 70.1205 30.6638 70.1205 31.6941C70.1205 32.7244 70.0454 33.6541 69.8951 34.4834C69.7448 35.3126 69.5757 36.0916 69.3879 36.8203C69.2001 37.549 69.031 38.1961 68.8807 38.7615C68.7305 39.3269 68.6553 39.7666 68.6553 40.0807C68.6553 40.3948 68.7555 40.5519 68.9559 40.5519C69.3316 40.5519 69.7949 40.3131 70.3459 39.8357C70.8969 39.3583 71.4479 38.8368 71.9989 38.2715C72.5499 37.7061 73.0571 37.1847 73.5204 36.7072C73.9838 36.2298 74.3031 35.9911 74.4784 35.9911C74.8291 35.9911 75.0044 36.4182 75.0044 37.2726C75.0044 39.0316 74.1215 40.7403 72.3558 42.3988C70.5901 44.0573 68.7054 44.8865 66.7018 44.8865C64.8985 44.8865 63.9969 43.2406 63.9969 39.9488C63.9969 39.1195 64.1346 37.9762 64.4101 36.5188C64.6856 35.0613 64.8234 33.9934 64.8234 33.3149Z" fill="white"/>
<path d="M85.486 41.5692C83.5074 43.9062 81.1343 45.0746 78.3668 45.0746C75.5993 45.0746 73.5267 44.3647 72.1492 42.945C70.7717 41.5252 70.0955 39.76 70.1205 37.6492C70.0955 34.6589 71.0347 32.0833 72.9382 29.9222C74.8416 27.7612 77.3337 26.6807 80.4143 26.6807C81.8168 26.6807 82.9439 26.8566 83.7954 27.2084C85.2731 27.8114 86.012 28.3768 86.012 28.9045C86.012 29.3066 84.9788 29.5139 82.9126 29.5265C80.8463 29.539 79.1182 30.2552 77.7281 31.6749C76.3381 33.0947 75.6431 34.8851 75.6431 37.0461C75.6431 38.1769 75.9749 39.1255 76.6387 39.8919C77.3024 40.6583 78.2416 41.0415 79.4563 41.0415C80.671 41.0415 81.6791 40.7902 82.4805 40.2877C80.7023 39.0815 79.8132 37.3351 79.8132 35.0484C79.7881 33.8422 80.2202 32.7429 81.1093 31.7503C81.9984 30.7577 83.138 30.2552 84.528 30.2426C85.918 30.23 86.9136 30.6133 87.5147 31.3922C88.1158 32.1712 88.4163 33.1701 88.4163 34.3888C88.4163 35.6075 88.1283 36.8953 87.5523 38.2523H87.7777C88.8797 38.2271 89.8314 37.8377 90.6329 37.0838C90.9334 36.7823 91.1901 36.5184 91.403 36.2923C91.6159 36.0661 91.835 35.953 92.0605 35.953C92.4111 35.953 92.5864 36.3676 92.5864 37.1969C92.5864 38.7297 92.1356 39.8793 91.234 40.6458C90.3323 41.4122 89.3368 41.7954 88.2473 41.7954C87.1578 41.7954 86.2374 41.72 85.486 41.5692ZM85.1479 37.1969C85.5737 36.2923 85.7865 35.4128 85.7865 34.5584C85.7865 33.704 85.511 33.2769 84.96 33.2769C84.7346 33.2769 84.5468 33.4402 84.3965 33.7669C84.2462 34.0935 84.1711 34.4076 84.1711 34.7092C84.1711 35.7143 84.4967 36.5435 85.1479 37.1969Z" fill="white"/>
<path d="M174.341 41.2995C174.341 43.3851 172.657 45.0687 170.578 45.0687C168.506 45.0687 166.821 43.3788 166.821 41.2932C166.821 39.2075 168.506 37.5239 170.578 37.5239C172.663 37.5302 174.341 39.2201 174.341 41.2995Z" fill="white"/>
<path d="M131.833 36.5435C132.258 36.5435 132.471 37.1215 132.471 38.2774C132.471 38.9056 132.208 39.6657 131.682 40.5578C131.156 41.4499 130.474 42.2665 129.635 43.0078C128.796 43.7491 127.863 44.3585 126.836 44.8359C125.809 45.3133 124.832 45.5521 123.906 45.5521C122.979 45.5521 122.253 45.3762 121.727 45.0244C121.201 44.6726 120.788 44.1951 120.487 43.592C120.061 42.7377 119.711 41.1106 119.435 38.7109C119.16 36.3111 118.884 34.6338 118.609 33.6789C117.957 33.5533 117.388 33.2957 116.899 32.9062C116.411 32.5167 116.167 32.0393 116.167 31.4739C116.167 30.9085 116.423 30.5002 116.937 30.2489C117.45 29.9976 118.039 29.872 118.702 29.872C119.366 29.872 119.961 30.0353 120.487 30.362C121.188 29.784 121.758 29.0993 122.196 28.3077C122.635 27.5162 122.854 26.4482 122.854 25.1039C122.854 23.7595 122.403 22.6852 121.501 21.8811C120.6 21.077 119.279 20.675 117.538 20.675C115.797 20.675 114.464 20.8132 113.537 21.0896C112.61 21.366 111.815 21.6675 111.151 21.9942C110.488 22.3209 109.899 22.6224 109.386 22.8988C108.872 23.1753 108.39 23.3135 107.939 23.3135C107.488 23.3135 107.263 23.169 107.263 22.88C107.263 22.591 107.501 22.1199 107.977 21.4665C108.453 20.8132 109.154 20.1598 110.081 19.5065C112.41 17.8732 115.04 17.0628 117.97 17.0753C120.9 17.0879 123.317 17.647 125.221 18.7527C127.45 20.0593 128.564 22.0193 128.564 24.6327C128.589 26.7937 128.026 28.5904 126.874 30.0227C125.722 31.455 124.294 32.4853 122.591 33.1135C122.966 33.9428 123.273 34.8348 123.511 35.7897C123.749 36.7446 123.981 37.6241 124.206 38.4282C124.432 39.2323 124.688 39.8982 124.976 40.4259C125.264 40.9536 125.615 41.2174 126.028 41.2174C126.442 41.2174 126.942 40.9724 127.531 40.4824C128.12 39.9924 128.702 39.4584 129.278 38.8805C129.854 38.3025 130.374 37.7685 130.837 37.2785C131.3 36.7885 131.626 36.5435 131.833 36.5435ZM115.49 22.9742C115.816 22.9742 115.979 23.4014 115.979 24.2558C115.979 25.1101 115.929 25.9142 115.829 26.6681C115.603 28.1255 115.315 29.4825 114.964 30.7389C114.063 34.1563 113.612 36.1541 113.612 36.732V42.2728C113.612 43.6297 113.099 44.5595 112.072 45.0621C111.596 45.2882 111.139 45.5018 110.7 45.7028C110.262 45.9039 109.767 46.0044 109.216 46.0044C108.165 46.0044 107.639 44.7919 107.639 42.367C107.639 39.9422 108.202 36.8828 109.329 33.1889C110.456 29.495 111.633 26.6807 112.861 24.7458C113.111 24.3688 113.474 23.9794 113.95 23.5773C114.426 23.1753 114.939 22.9742 115.49 22.9742Z" fill="white"/>
<path d="M164.179 36.5436C164.605 36.5436 164.818 37.1215 164.818 38.2774C164.818 38.9057 164.555 39.6658 164.029 40.5578C163.503 41.4499 162.82 42.2666 161.981 43.0079C161.142 43.7491 160.209 44.3585 159.182 44.836C158.156 45.3134 157.072 45.5521 155.933 45.5521C154.793 45.5521 153.904 45.1815 153.265 44.4402C152.627 43.6989 152.307 42.8697 152.307 41.9525C152.307 41.0353 152.458 39.9987 152.758 38.8428C153.059 37.6869 153.384 36.4808 153.735 35.2244C154.687 31.8823 155.175 29.5328 155.2 28.1758C155.2 27.5979 155.125 27.1519 154.975 26.8378C154.824 26.5237 154.536 26.3666 154.111 26.3666C153.359 26.3666 152.558 26.8189 151.706 27.7235C150.855 28.6282 150.053 29.7841 149.302 31.1912C147.574 34.4077 146.66 37.5487 146.559 40.6144C146.61 40.9662 146.66 41.318 146.71 41.6698C146.76 42.0216 146.785 42.3985 146.785 42.8006C146.785 43.6047 146.39 44.3397 145.601 45.0056C144.813 45.6715 143.93 46.0044 142.953 46.0044C142.377 46.0044 141.951 45.7217 141.676 45.1563C141.4 44.591 141.262 43.8936 141.262 43.0644C141.262 42.2352 141.45 41.1044 141.826 39.6721C142.202 38.2398 142.615 36.7195 143.066 35.1113C144.268 30.8646 144.881 27.6984 144.906 25.6128C144.906 24.5574 144.775 23.7281 144.512 23.125C144.249 22.522 143.742 22.2204 142.99 22.2204C141.638 22.2204 140.298 23.1879 138.971 25.1228C137.643 27.0576 136.454 30.0605 135.402 34.1313C135.126 35.1867 134.913 36.1038 134.763 36.8828L134.725 37.599C135.201 39.9108 135.439 41.4185 135.439 42.1221C135.439 43.5795 134.926 44.5595 133.899 45.0621C133.423 45.2883 132.966 45.5019 132.528 45.7029C132.089 45.9039 131.62 46.0044 131.119 46.0044C129.867 46.0044 129.24 44.8045 129.24 42.4048C129.24 40.005 129.904 35.3123 131.232 28.3266C131.707 25.8138 131.945 24.4066 131.945 24.1051C131.945 22.0697 131.432 21.052 130.405 21.052C130.054 21.052 129.735 21.1525 129.447 21.3535C129.159 21.5545 128.871 21.7681 128.583 21.9943C128.295 22.2204 128.001 22.434 127.7 22.635C127.4 22.8361 127.055 22.9366 126.667 22.9366C126.279 22.9366 126.085 22.5973 126.085 21.9189C126.085 20.5368 126.723 19.406 128.001 18.5266C129.228 17.6219 130.718 17.1696 132.471 17.1696C134.725 17.1696 136.053 18.225 136.454 20.3358C136.554 20.964 136.629 21.6299 136.679 22.3335C138.532 18.8407 140.874 17.0942 143.704 17.0942C146.785 17.0942 148.551 18.5768 149.001 21.542C149.152 22.3963 149.214 23.3135 149.189 24.2935V24.5951C150.817 22.3335 152.746 21.2027 154.975 21.2027C158.131 21.2027 159.708 23.1125 159.708 26.932C159.708 28.5905 159.452 30.5316 158.938 32.7555C158.425 34.9794 158.049 36.575 157.811 37.5424C157.573 38.5099 157.454 39.2575 157.454 39.7851C157.454 40.74 157.786 41.2175 158.45 41.2175C159.114 41.2175 160.698 39.9108 163.202 37.2974C163.653 36.7949 163.979 36.5436 164.179 36.5436Z" fill="white"/>
<path d="M110.669 31.5368C111.302 31.5368 111.621 32.1398 111.621 33.3523C111.621 34.5647 111.352 35.8651 110.801 37.2535C110.256 38.6418 109.429 39.9862 108.321 41.274C107.213 42.5618 105.798 43.6675 104.076 44.5784C102.354 45.4956 100.319 45.9479 97.9835 45.9479C95.6418 45.9479 93.6006 45.1626 91.8411 43.5984C90.0817 42.0279 89.2051 39.7663 89.2051 36.8074C89.2051 33.8486 89.6183 31.1724 90.4448 28.7664C91.2713 26.3666 92.3608 24.2872 93.7133 22.5408C95.0657 20.7944 96.606 19.4312 98.3279 18.4574C100.05 17.4837 101.684 17 103.231 17C105.936 17 107.294 18.2124 107.294 20.631C107.294 22.0194 107.038 23.1313 106.53 23.9668C106.017 24.8024 105.503 25.217 104.978 25.217C104.276 25.217 103.656 24.9406 103.13 24.3815C102.604 23.8286 102.022 23.5397 101.39 23.5208C100.757 23.502 99.0355 23.4517 97.5766 25.8075C96.556 27.4534 96.7125 27.2901 96.3243 28.3957C95.5541 30.6196 95.097 32.3283 95.097 35.306C95.1346 36.7383 96.4057 38.9245 97.5327 39.6344C98.3029 40.1118 99.2296 40.5076 100.275 40.3757C102.536 40.093 103.8 39.0187 104.727 38.0262C105.579 37.109 106.33 36.242 107.138 35.306C107.945 34.3763 108.659 33.5093 109.273 32.7178C109.886 31.9388 110.35 31.5368 110.669 31.5368Z" fill="white"/>
</g>
</svg>
