<svg width="200" height="64" viewBox="0 0 200 64" fill="none" xmlns="http://www.w3.org/2000/svg">
<rect opacity="0.1" x="0.5" y="0.5" width="199" height="63" stroke="white"/>
<path opacity="0.5" d="M35.35 38H37.024L40.966 32.564C41.254 32.132 41.704 31.52 41.758 31.358H41.794C41.794 31.502 41.74 32.132 41.74 32.564V38H43.432V28.892H41.74L37.816 34.328C37.51 34.76 37.078 35.39 37.006 35.552H36.97C36.988 35.462 37.024 34.814 37.024 34.328V28.892H35.35V38ZM50.2298 38H51.9218L52.3178 32.582C52.3538 32.042 52.2998 31.016 52.2998 31.016H52.3358C52.3358 31.016 52.6238 31.7 52.9118 32.366L55.0718 36.902H56.5658L58.7258 32.348C59.0678 31.646 59.3018 31.016 59.3018 31.016H59.3378C59.3378 31.016 59.3018 32.042 59.3198 32.582L59.7158 38H61.4078L60.6158 28.892H58.7078L56.3318 34.04C56.0978 34.598 55.8278 35.264 55.8278 35.264H55.7918C55.7918 35.264 55.5398 34.58 55.2878 34.04L52.9658 28.892H51.0218L50.2298 38ZM63.7563 38H65.5023V34.094H70.1103V38H71.8563V28.892H70.1103V32.6H65.5023V28.892H63.7563V38ZM73.9552 33.428C73.9552 36.2 76.1512 38.216 78.8692 38.216C81.5692 38.216 83.7652 36.2 83.7652 33.428C83.7652 30.674 81.5692 28.676 78.8512 28.676C76.1512 28.676 73.9552 30.674 73.9552 33.428ZM75.7372 33.428C75.7372 31.538 77.1412 30.188 78.8692 30.188C80.5792 30.188 82.0012 31.538 82.0012 33.428C82.0012 35.336 80.5792 36.704 78.8692 36.704C77.1412 36.704 75.7372 35.336 75.7372 33.428ZM85.8695 38H87.6155V30.386H91.5755V28.892H85.8695V38ZM92.3771 33.428C92.3771 36.2 94.5731 38.216 97.2911 38.216C99.9911 38.216 102.187 36.2 102.187 33.428C102.187 30.674 99.9911 28.676 97.2731 28.676C94.5731 28.676 92.3771 30.674 92.3771 33.428ZM94.1591 33.428C94.1591 31.538 95.5631 30.188 97.2911 30.188C99.0011 30.188 100.423 31.538 100.423 33.428C100.423 35.336 99.0011 36.704 97.2911 36.704C95.5631 36.704 94.1591 35.336 94.1591 33.428ZM110.573 36.56C111.725 34.76 111.869 32.168 111.869 30.8V30.314H114.605V36.56H110.573ZM107.657 36.56V40.16H109.295V38H116.045V40.16H117.647V36.56H116.351V28.892H110.195V30.566C110.195 31.97 110.051 34.814 108.773 36.56H107.657ZM119.479 41.6H121.225V37.46C121.225 36.992 121.153 36.668 121.153 36.668H121.189C121.819 37.64 122.863 38.216 124.015 38.216C126.409 38.216 128.137 36.344 128.137 33.446C128.137 30.62 126.607 28.676 124.141 28.676C122.809 28.676 121.657 29.288 121.081 30.386H121.045C121.045 30.386 121.099 30.08 121.099 29.702V28.892H119.479V41.6ZM121.171 33.482C121.171 31.178 122.431 30.206 123.799 30.206C125.311 30.206 126.373 31.484 126.373 33.464C126.373 35.534 125.185 36.704 123.745 36.704C122.071 36.704 121.171 35.102 121.171 33.482ZM129.576 39.89L128.964 41.222C128.964 41.222 129.702 41.78 130.71 41.78C131.988 41.78 133.122 41.06 133.662 39.638L137.946 28.892H136.056L133.842 34.868C133.68 35.336 133.536 35.948 133.536 35.948H133.5C133.5 35.948 133.338 35.3 133.158 34.85L130.872 28.892H128.91L132.726 37.892L132.276 38.936C131.934 39.764 131.34 40.286 130.62 40.286C130.08 40.286 129.576 39.89 129.576 39.89ZM139.659 38H141.405V30.386H145.365V28.892H139.659V38ZM147.094 38H148.768L152.71 32.564C152.998 32.132 153.448 31.52 153.502 31.358H153.538C153.538 31.502 153.484 32.132 153.484 32.564V38H155.176V28.892H153.484L149.56 34.328C149.254 34.76 148.822 35.39 148.75 35.552H148.714C148.732 35.462 148.768 34.814 148.768 34.328V28.892H147.094V38ZM156.808 38H158.788L160.696 34.958C160.84 34.742 160.966 34.472 160.966 34.472H161.002C161.002 34.472 161.146 34.742 161.29 34.958L163.198 38H165.178L162.064 33.32L164.998 28.892H163L161.308 31.664C161.182 31.898 161.002 32.204 161.002 32.204H160.966C160.966 32.204 160.804 31.898 160.678 31.664L158.986 28.892H156.988L159.922 33.32L156.808 38Z" fill="white"/>
</svg>
