<svg width="200" height="64" viewBox="0 0 200 64" fill="none" xmlns="http://www.w3.org/2000/svg">
<rect opacity="0.1" x="0.5" y="0.5" width="199" height="63" stroke="white"/>
<path opacity="0.5" fill-rule="evenodd" clip-rule="evenodd" d="M124.807 19.0991C125.168 17.8891 124.807 17 123.086 17H117.398C115.951 17 115.284 17.7681 114.923 18.615C114.923 18.615 112.03 25.6934 107.931 30.2913C106.605 31.6223 106.003 32.0458 105.279 32.0458C104.918 32.0458 104.375 31.6223 104.375 30.4124V19.0991C104.375 17.6471 103.975 17 102.769 17H93.8296C92.9257 17 92.3821 17.6739 92.3821 18.3126C92.3821 19.6891 94.4311 20.0065 94.6423 23.8785V32.2879C94.6423 34.1316 94.3106 34.4659 93.5874 34.4659C91.6588 34.4659 86.9677 27.3558 84.1854 19.2201C83.6401 17.6388 83.0932 17 81.6393 17H75.9505C74.3251 17 74 17.7681 74 18.615C74 20.1275 75.9286 27.6294 82.9801 37.5512C87.681 44.327 94.3042 48 100.331 48C103.947 48 104.395 47.1842 104.395 45.779V40.6579C104.395 39.0263 104.737 38.7007 105.882 38.7007C106.726 38.7007 108.172 39.1242 111.548 42.3911C115.405 46.263 116.041 48 118.21 48H123.899C125.524 48 126.337 47.1842 125.868 45.5743C125.355 43.9698 123.514 41.6418 121.07 38.8822C119.744 37.3092 117.755 35.6153 117.153 34.7682C116.309 33.6793 116.55 33.1952 117.153 32.2273C117.153 32.2273 124.084 22.4265 124.807 19.0991Z" fill="white"/>
</svg>
