<svg width="200" height="64" viewBox="0 0 200 64" fill="none" xmlns="http://www.w3.org/2000/svg">
<rect opacity="0.1" x="0.5" y="0.5" width="199" height="63" stroke="white"/>
<g opacity="0.5">
<path d="M100.248 26.0527C101.969 26.0274 103.632 26.677 104.881 27.8624L107.297 25.5279C106.374 24.597 105.276 23.8585 104.066 23.3552C102.856 22.852 101.558 22.594 100.248 22.5962C93.3076 22.5962 90.0411 27.6996 90.0683 32.7215C90.0954 37.7434 93.1176 42.6296 100.248 42.6296C101.592 42.6634 102.929 42.4288 104.182 41.9394C105.434 41.4499 106.576 40.7156 107.541 39.7793L105.071 37.2638C103.766 38.5039 102.038 39.1996 100.239 39.2092C95.4974 39.2092 93.6515 35.8884 93.6243 32.7034C93.5972 29.5183 95.606 26.0527 100.248 26.0527Z" fill="white"/>
<path d="M132.153 29.3378C132.153 26.0171 129.764 23.0039 125.24 23.0039C122.19 23.0039 119.15 23.0039 116.101 23.0039V42.1776H119.72V35.7532H123.204L128.805 42.1776H133.058V41.9333L127.24 35.3732C130.913 34.6403 132.153 31.971 132.153 29.3378ZM119.729 32.4958V26.3518H125.24C125.663 26.3107 126.091 26.36 126.494 26.4965C126.897 26.6329 127.266 26.8535 127.578 27.1435C127.889 27.4335 128.135 27.7864 128.3 28.1787C128.465 28.571 128.544 28.9939 128.533 29.4193C128.547 29.8458 128.47 30.2704 128.306 30.6645C128.142 31.0586 127.896 31.4132 127.584 31.7045C127.273 31.9959 126.902 32.2172 126.498 32.3536C126.093 32.4901 125.664 32.5385 125.24 32.4958H119.729Z" fill="white"/>
<path d="M38.5914 28.5318C38.6082 28.5212 38.6221 28.5065 38.6317 28.4891C38.6413 28.4717 38.6463 28.4521 38.6463 28.4322C38.6463 28.4124 38.6413 28.3928 38.6317 28.3754C38.6221 28.358 38.6082 28.3433 38.5914 28.3327C38.4132 28.22 38.2255 28.1232 38.0304 28.0432C37.4525 27.8235 36.8389 27.7131 36.2207 27.7174C35.4418 27.712 34.6717 27.8821 33.9676 28.2151C33.4114 28.441 32.9201 28.8017 32.538 29.2647V27.8803H29V42.2402H32.6194V33.5808C32.5839 33.248 32.6187 32.9115 32.7216 32.593C32.8245 32.2745 32.9932 31.9812 33.2167 31.7321C33.4402 31.483 33.7136 31.2837 34.0191 31.147C34.3246 31.0103 34.6554 30.9393 34.9901 30.9387C35.5715 30.9258 36.1344 31.1438 36.5555 31.5449C36.5717 31.5576 36.5908 31.566 36.611 31.5697C36.6313 31.5733 36.6521 31.5719 36.6717 31.5657C36.6913 31.5594 36.7091 31.5485 36.7235 31.5339C36.738 31.5192 36.7486 31.5013 36.7546 31.4816C37.0847 30.3484 37.7201 29.3279 38.5914 28.5318Z" fill="white"/>
<path d="M64.479 27.763C63.0547 27.7409 61.6347 27.9238 60.2624 28.3059C60.2325 28.3144 60.2071 28.3343 60.1918 28.3615C60.1765 28.3886 60.1727 28.4207 60.181 28.4507C60.4816 29.5136 60.9889 30.5068 61.674 31.3734C61.7044 31.412 61.7481 31.438 61.7965 31.4463C61.845 31.4547 61.8948 31.4448 61.9364 31.4186C62.751 30.9239 63.701 30.699 64.651 30.7762C66.5783 30.7762 67.3655 31.4367 67.3655 33.0292V33.7441H64.0085C60.9863 33.7441 59.1133 35.3366 59.1133 37.9245C59.1133 40.7295 60.923 42.3763 63.9542 42.3763C64.6481 42.3972 65.3395 42.2836 65.9901 42.0415C66.557 41.8111 67.0643 41.4554 67.4741 41.001V42.2406H70.9668V32.7849C70.9668 29.4279 69.0666 27.763 64.479 27.763ZM67.3926 36.9744C67.3926 38.7841 66.6507 39.4808 64.8048 39.4808C63.2937 39.4808 62.5517 38.9288 62.5517 37.834C62.5517 36.7391 63.2937 36.2143 64.5605 36.2143H67.3926V36.9744Z" fill="white"/>
<path d="M57.7379 39.3182C57.7295 39.2816 57.7087 39.2489 57.679 39.2258C57.6494 39.2027 57.6126 39.1906 57.575 39.1916H57.0502C56.2268 39.1916 55.8105 38.7482 55.8105 37.8976V31.0208H59.3847C59.4056 31.0198 59.4259 31.0137 59.4438 31.003C59.4617 30.9923 59.4768 30.9773 59.4875 30.9594C59.4983 30.9415 59.5044 30.9212 59.5054 30.9003C59.5064 30.8795 59.5022 30.8587 59.4933 30.8398C59.0718 30.0682 58.7466 29.2476 58.5251 28.3967C58.5189 28.3704 58.5038 28.3471 58.4823 28.3306C58.4609 28.3141 58.4345 28.3055 58.4075 28.3062H55.8015V24.0625H52.1821V28.2972H49.5942C49.5715 28.298 49.5493 28.3049 49.5302 28.3172C49.511 28.3295 49.4955 28.3468 49.4853 28.3671C49.4751 28.3875 49.4706 28.4103 49.4723 28.433C49.4739 28.4557 49.4817 28.4776 49.4947 28.4963C50.0886 29.2027 50.5209 30.0303 50.7615 30.9213C50.7674 30.9485 50.7822 30.973 50.8034 30.991C50.8247 31.009 50.8513 31.0194 50.8791 31.0208H52.2183V38.2053C52.1889 38.756 52.2767 39.3066 52.4758 39.8209C52.6748 40.3351 52.9807 40.8013 53.3732 41.1887C53.7657 41.576 54.2359 41.8758 54.7527 42.0681C55.2696 42.2604 55.8213 42.3409 56.3715 42.3042C57.27 42.3218 58.1636 42.1683 59.0047 41.8518C59.0233 41.8394 59.0386 41.8226 59.0492 41.8029C59.0598 41.7832 59.0654 41.7611 59.0654 41.7387C59.0654 41.7163 59.0598 41.6943 59.0492 41.6745C59.0386 41.6548 59.0233 41.638 59.0047 41.6256C58.3858 40.982 57.9487 40.1858 57.7379 39.3182Z" fill="white"/>
<path d="M43.8938 27.7632C40.0392 27.7632 37.6504 30.5682 37.6504 35.0563C37.6504 39.9243 39.9035 42.4308 44.3101 42.4308C45.3147 42.444 46.3128 42.2659 47.2508 41.906C48.1509 41.5301 48.9617 40.969 49.6306 40.2591C49.6426 40.2473 49.6522 40.2333 49.6587 40.2177C49.6652 40.2022 49.6686 40.1855 49.6686 40.1687C49.6686 40.1518 49.6652 40.1351 49.6587 40.1196C49.6522 40.104 49.6426 40.09 49.6306 40.0782L47.6399 38.1327C47.6165 38.1111 47.5858 38.0991 47.554 38.0991C47.5221 38.0991 47.4914 38.1111 47.468 38.1327C47.0821 38.5479 46.6136 38.8777 46.0926 39.1009C45.567 39.302 45.0085 39.4033 44.4458 39.3995C42.3556 39.3995 41.2879 38.359 41.1703 36.2054H49.7392C49.8448 36.2054 49.946 36.1635 50.0207 36.0888C50.0954 36.0141 50.1373 35.9129 50.1373 35.8073V34.6129C50.1373 30.4777 47.6942 27.7632 43.8938 27.7632ZM41.1793 33.7623C41.2607 31.835 42.2561 30.7401 43.8938 30.7401C45.5316 30.7401 46.5089 31.8169 46.6084 33.7623H41.1793Z" fill="white"/>
<path d="M76.6042 27.8804H73.021V42.2132H76.6042V27.8804Z" fill="white"/>
<path d="M74.8124 21.6103C74.2188 21.6079 73.6484 21.8408 73.2262 22.258C72.8039 22.6752 72.5641 23.2427 72.5593 23.8363C72.5665 24.4362 72.8118 25.0087 73.2411 25.4279C73.6704 25.847 74.2486 26.0784 74.8486 26.0712C75.4485 26.064 76.0211 25.8188 76.4402 25.3895C76.8593 24.9602 77.0908 24.3819 77.0836 23.782C77.0693 23.1932 76.8223 22.634 76.3966 22.227C75.9709 21.8199 75.4013 21.5982 74.8124 21.6103Z" fill="white"/>
<path d="M82.3137 22.6235H78.7395V42.2135H82.3137V22.6235Z" fill="white"/>
<path d="M107.405 45.1538L105.396 44.249C105.338 44.2196 105.273 44.2087 105.208 44.2179C105.144 44.2271 105.084 44.2559 105.037 44.3004C104.989 44.3449 104.957 44.4029 104.943 44.4665C104.93 44.5302 104.936 44.5964 104.962 44.6562L105.767 45.7058C103.827 46.5398 101.725 46.932 99.6147 46.8541C97.504 46.7762 95.437 46.2302 93.5633 45.2555C91.6895 44.2807 90.0559 42.9017 88.7805 41.2181C87.5051 39.5346 86.6198 37.5886 86.1888 35.5209C85.7577 33.4533 85.7917 31.3156 86.2881 29.2627C86.7845 27.2098 87.7311 25.2928 89.0593 23.6506C90.3875 22.0084 92.0641 20.6819 93.9678 19.7671C95.8715 18.8523 97.9548 18.3721 100.067 18.3613C101.931 18.361 103.776 18.7301 105.496 19.4471C105.538 19.465 105.582 19.4746 105.628 19.4752C105.673 19.4758 105.718 19.4674 105.76 19.4506C105.802 19.4338 105.84 19.4088 105.872 19.3772C105.905 19.3455 105.931 19.3078 105.948 19.2661C105.985 19.1809 105.986 19.0846 105.953 18.9983C105.919 18.9119 105.852 18.8423 105.767 18.8047C103.726 17.9581 101.522 17.5748 99.3146 17.6822C97.1072 17.7897 94.951 18.3854 93.0014 19.4262C91.0518 20.4671 89.3573 21.9274 88.0398 23.7018C86.7223 25.4763 85.8148 27.5208 85.3824 29.6882C84.95 31.8555 85.0036 34.0918 85.5393 36.236C86.075 38.3801 87.0795 40.3788 88.4804 42.0882C89.8814 43.7975 91.6439 45.1749 93.6412 46.1212C95.6384 47.0675 97.8206 47.5591 100.031 47.5607C102.079 47.5656 104.106 47.1466 105.985 46.3302L106.166 47.6784C106.167 47.7648 106.202 47.8471 106.264 47.9074C106.326 47.9676 106.409 48.0008 106.496 47.9996C106.582 47.9984 106.665 47.9629 106.725 47.901C106.785 47.839 106.818 47.7557 106.817 47.6693L107.577 45.5791C107.595 45.5401 107.604 45.4978 107.605 45.4549C107.606 45.412 107.598 45.3694 107.582 45.3296C107.566 45.2899 107.542 45.2538 107.512 45.2236C107.481 45.1933 107.445 45.1696 107.405 45.1538Z" fill="white"/>
<path d="M139.165 30.749C139.122 30.7011 139.065 30.6675 139.003 30.6527C138.94 30.6379 138.874 30.6427 138.814 30.6663C138.754 30.6899 138.703 30.7313 138.667 30.7849C138.631 30.8385 138.612 30.9017 138.613 30.9662L138.957 32.2601H136.17C136.137 32.2601 136.104 32.2468 136.081 32.223C136.057 32.1993 136.044 32.167 136.044 32.1334V19.4656C136.044 19.2688 135.965 19.0801 135.826 18.9409C135.687 18.8018 135.498 18.7236 135.302 18.7236H133.727C133.694 18.7236 133.661 18.7102 133.638 18.6865C133.614 18.6627 133.6 18.6305 133.6 18.5969V16.9048C133.6 16.8401 133.626 16.7779 133.672 16.7321C133.718 16.6863 133.78 16.6605 133.845 16.6605H151.155C151.187 16.6605 151.218 16.6669 151.248 16.6791C151.278 16.6914 151.305 16.7094 151.327 16.7321C151.35 16.7548 151.368 16.7817 151.38 16.8114C151.393 16.841 151.399 16.8728 151.399 16.9048V25.5914L150.105 25.2476C150.04 25.2465 149.977 25.2651 149.924 25.301C149.87 25.3369 149.829 25.3882 149.805 25.4483C149.781 25.5083 149.777 25.5741 149.791 25.6368C149.806 25.6996 149.84 25.7563 149.888 25.7995L151.526 27.3016C151.585 27.355 151.663 27.3845 151.743 27.3845C151.823 27.3845 151.9 27.355 151.96 27.3016L153.598 25.7995C153.646 25.7563 153.679 25.6996 153.694 25.6368C153.709 25.5741 153.704 25.5083 153.68 25.4483C153.657 25.3882 153.615 25.3369 153.562 25.301C153.508 25.2651 153.445 25.2465 153.38 25.2476L152.087 25.5914V16.742C152.087 16.5452 152.008 16.3565 151.869 16.2173C151.73 16.0782 151.541 16 151.345 16H133.655C133.458 16 133.269 16.0782 133.13 16.2173C132.991 16.3565 132.913 16.5452 132.913 16.742V18.615C132.913 18.6486 132.899 18.6808 132.876 18.7046C132.852 18.7283 132.82 18.7417 132.786 18.7417H110.273C110.077 18.7417 109.888 18.8199 109.749 18.959C109.61 19.0982 109.532 19.2869 109.532 19.4837V32.1515C109.532 32.1851 109.518 32.2174 109.494 32.2411C109.471 32.2649 109.438 32.2782 109.405 32.2782H101.315C101.231 31.9771 101.041 31.7166 100.779 31.5449C100.518 31.3733 100.203 31.3022 99.8935 31.3447C99.5837 31.3871 99.2998 31.5404 99.0942 31.7761C98.8886 32.0117 98.7754 32.3139 98.7754 32.6266C98.7754 32.9393 98.8886 33.2414 99.0942 33.4771C99.2998 33.7128 99.5837 33.866 99.8935 33.9085C100.203 33.951 100.518 33.8799 100.779 33.7082C101.041 33.5366 101.231 33.2761 101.315 32.975H110.862C110.895 32.975 110.927 32.9883 110.951 33.0121C110.975 33.0358 110.988 33.068 110.988 33.1016V45.86C110.988 46.0568 111.066 46.2455 111.206 46.3847C111.345 46.5238 111.534 46.602 111.73 46.602H136.677C136.874 46.602 137.062 46.5238 137.202 46.3847C137.341 46.2455 137.419 46.0568 137.419 45.86V33.0745C137.419 33.0409 137.432 33.0087 137.456 32.9849C137.48 32.9612 137.512 32.9478 137.546 32.9478H138.984L138.64 34.2417C138.639 34.3062 138.658 34.3695 138.694 34.4231C138.73 34.4767 138.781 34.518 138.841 34.5417C138.901 34.5653 138.967 34.57 139.03 34.5552C139.093 34.5404 139.149 34.5068 139.192 34.4589L140.694 32.8211C140.747 32.7629 140.776 32.6871 140.776 32.6085C140.776 32.5299 140.747 32.4541 140.694 32.3959L139.165 30.749ZM136.677 45.67C136.678 45.7028 136.673 45.7356 136.661 45.7663C136.649 45.7969 136.631 45.825 136.609 45.8486C136.586 45.8723 136.559 45.8911 136.528 45.9039C136.498 45.9168 136.466 45.9234 136.433 45.9233H111.929C111.896 45.9234 111.864 45.9168 111.834 45.9039C111.803 45.8911 111.776 45.8723 111.753 45.8486C111.731 45.825 111.713 45.7969 111.701 45.7663C111.689 45.7356 111.684 45.7028 111.685 45.67V33.0745C111.685 33.0409 111.698 33.0087 111.722 32.9849C111.746 32.9612 111.778 32.9478 111.812 32.9478H113.531L113.151 34.2417C113.15 34.3062 113.168 34.3695 113.204 34.4231C113.24 34.4767 113.292 34.518 113.352 34.5417C113.412 34.5653 113.477 34.57 113.54 34.5552C113.603 34.5404 113.66 34.5068 113.703 34.4589L115.205 32.8211C115.258 32.7629 115.287 32.6871 115.287 32.6085C115.287 32.5299 115.258 32.4541 115.205 32.3959L113.739 30.749C113.696 30.7011 113.639 30.6675 113.576 30.6527C113.514 30.6379 113.448 30.6427 113.388 30.6663C113.328 30.6899 113.276 30.7313 113.241 30.7849C113.205 30.8385 113.186 30.9017 113.187 30.9662L113.522 32.2873H110.355C110.321 32.2873 110.289 32.2739 110.265 32.2502C110.242 32.2264 110.228 32.1942 110.228 32.1606V19.6918C110.228 19.6395 110.243 19.5882 110.272 19.5447C110.301 19.5012 110.343 19.4673 110.391 19.4475H135.021C135.247 19.4475 135.356 19.5561 135.356 19.6918V32.1334C135.356 32.167 135.343 32.1993 135.319 32.223C135.295 32.2468 135.263 32.2601 135.229 32.2601H132.451C132.417 32.3816 132.371 32.4997 132.316 32.613C132.253 32.7382 132.177 32.8565 132.089 32.9659H136.614C136.647 32.9659 136.679 32.9793 136.703 33.003C136.727 33.0268 136.74 33.059 136.74 33.0926L136.677 45.67Z" fill="white"/>
<path d="M166.211 33.9067C166.151 33.8533 166.074 33.8237 165.994 33.8237C165.914 33.8237 165.837 33.8533 165.777 33.9067L164.139 35.4087C164.091 35.4519 164.058 35.5086 164.043 35.5714C164.028 35.6342 164.033 35.7 164.056 35.76C164.08 35.82 164.121 35.8714 164.175 35.9072C164.229 35.9431 164.292 35.9617 164.356 35.9607L165.65 35.6168V45.8597C165.65 45.9245 165.624 45.9867 165.579 46.0325C165.533 46.0783 165.471 46.104 165.406 46.104H152.385C152.32 46.104 152.258 46.0783 152.212 46.0325C152.167 45.9867 152.141 45.9245 152.141 45.8597V38.6209C152.141 38.5297 152.105 38.4423 152.04 38.3778C151.976 38.3133 151.888 38.2771 151.797 38.2771C151.707 38.2794 151.62 38.3164 151.556 38.3803C151.492 38.4443 151.455 38.5305 151.453 38.6209V46.0316C151.453 46.2284 151.531 46.4172 151.67 46.5563C151.81 46.6955 151.998 46.7736 152.195 46.7736H165.632C165.829 46.7736 166.018 46.6955 166.157 46.5563C166.296 46.4172 166.374 46.2284 166.374 46.0316V35.6168L167.668 35.9607C167.732 35.9617 167.796 35.9431 167.849 35.9072C167.903 35.8714 167.944 35.82 167.968 35.76C167.992 35.7 167.996 35.6342 167.981 35.5714C167.967 35.5086 167.933 35.4519 167.885 35.4087L166.211 33.9067Z" fill="white"/>
<path d="M171.658 32.3872L170.156 30.7494C170.113 30.7015 170.056 30.6679 169.994 30.6531C169.931 30.6383 169.865 30.6431 169.805 30.6667C169.745 30.6903 169.694 30.7316 169.658 30.7852C169.622 30.8388 169.603 30.9021 169.604 30.9666L169.948 32.2605H161.94V23.0039H157.796L151.788 31.2652L145.78 23.0039H141.608V42.241H145.228V28.243L151.345 36.6128H152.059L158.312 28.2701V42.241H161.931V32.9572H169.939L169.595 34.2512C169.594 34.3157 169.613 34.3789 169.649 34.4325C169.685 34.4861 169.736 34.5275 169.796 34.5511C169.856 34.5747 169.922 34.5794 169.985 34.5646C170.047 34.5498 170.104 34.5163 170.147 34.4683L171.64 32.8306C171.701 32.7738 171.737 32.6955 171.74 32.6126C171.743 32.5297 171.714 32.4487 171.658 32.3872Z" fill="white"/>
</g>
</svg>
