<svg width="18" height="18" viewBox="0 0 18 18" fill="none" xmlns="http://www.w3.org/2000/svg">
<path fill-rule="evenodd" clip-rule="evenodd" d="M0 9C0 4.0302 4.0302 0 9 0C13.9698 0 18 4.0302 18 9C18 13.9698 13.9689 18 9 18C4.0293 18 0 13.9698 0 9ZM10.899 14.0976H13.5639C13.8582 14.0967 14.0967 13.8573 14.0985 13.563L14.0967 11.43C14.0967 11.1366 13.8591 10.8981 13.5648 10.8981L11.4327 10.8972C11.1366 10.8972 10.8981 11.1366 10.8981 11.4318L10.899 12.4839C8.3187 12.3489 6.2496 10.278 6.1155 7.7004H7.1676C7.461 7.7004 7.7004 7.4619 7.7004 7.1676L7.6995 5.0337C7.7004 4.7403 7.461 4.5018 7.1667 4.5009L5.0346 4.5C4.7403 4.5018 4.5018 4.7403 4.5009 5.0346L4.5018 7.6995H4.5162C4.6521 11.16 7.4367 13.9446 10.899 14.0832V14.0976Z" fill="#1F282C"/>
</svg>
