<svg xmlns="http://www.w3.org/2000/svg" width="77" height="69" viewBox="0 0 77 69">
    <g fill="none" fill-rule="evenodd">
        <ellipse cx="11.054" cy="28.331" fill="#3DAFCC" rx="3.694" ry="3.676"/>
        <path fill="#3DAFCC" d="M30.744 7.977a3.684 3.684 0 0 0-3.694-3.675 3.684 3.684 0 0 0-3.693 3.676 3.684 3.684 0 0 0 3.693 3.675c.98 0 1.92-.387 2.612-1.076a3.667 3.667 0 0 0 1.082-2.6z"/>
        <path fill="#FFF" d="M17.939 51.365l5.558-5.533 3.322 3.306L9.604 66.273a4.663 4.663 0 0 1-1.376-3.306c0-1.24.495-2.429 1.376-3.305l8.335-8.297z"/>
        <path fill="#CEEAF2" d="M17.939 51.365l5.558-5.533 3.322 3.306L9.604 66.273a4.663 4.663 0 0 1-1.376-3.306c0-1.24.495-2.429 1.376-3.305l8.335-8.297z"/>
        <path fill="#1F282C" fill-rule="nonzero" d="M50.145 52.497c-12.464-.008-23.187-8.776-25.612-20.943C22.108 19.387 28.657 7.21 40.175 2.47c11.517-4.74 24.796-.724 31.716 9.593 6.919 10.317 5.552 24.061-3.266 32.828a26.115 26.115 0 0 1-18.48 7.607zm.001-50.276c-11.636.007-21.648 8.193-23.912 19.553-2.264 11.36 3.85 22.729 14.604 27.154 10.754 4.426 23.151.676 29.611-8.956 6.46-9.633 5.183-22.465-3.05-30.65a24.38 24.38 0 0 0-17.253-7.101z"/>
        <path fill="#1F282C" d="M12.926 68.504a5.563 5.563 0 0 1-5.142-3.417 5.516 5.516 0 0 1 1.207-6.035l13.893-13.828a.869.869 0 0 1 1.226 0l6.643 6.61a.86.86 0 0 1 0 1.22.87.87 0 0 1-1.226 0l-6.03-6-13.28 13.218a3.8 3.8 0 0 0 .007 5.383 3.844 3.844 0 0 0 5.41.01l8.335-8.298a.87.87 0 0 1 1.226 0 .86.86 0 0 1 0 1.22l-8.336 8.297a5.557 5.557 0 0 1-3.933 1.62z"/>
        <path fill="#1F282C" d="M26.819 50.001a.867.867 0 0 1-.801-.533.86.86 0 0 1 .188-.94l5.18-5.156a.87.87 0 0 1 1.45.387.86.86 0 0 1-.224.833l-5.18 5.156a.866.866 0 0 1-.613.253zM13.329 26.3a.853.853 0 0 1-.533-.184.86.86 0 0 1-.15-1.21l11.447-14.564a.868.868 0 0 1 1.485.208c.116.285.07.61-.12.853L14.01 25.968a.861.861 0 0 1-.682.332zM7.361 29.195H.867a.865.865 0 0 1-.863-.863c0-.475.386-.86.863-.863H7.36a.865.865 0 0 1 .863.863c0 .475-.386.86-.863.863z"/>
        <path fill="#1F282C" fill-rule="nonzero" d="M11.053 32.87a4.561 4.561 0 0 1-4.213-2.802 4.523 4.523 0 0 1 .989-4.947 4.577 4.577 0 0 1 4.97-.983 4.539 4.539 0 0 1 2.815 4.194c-.002 2.506-2.043 4.536-4.56 4.538zm0-7.352a2.82 2.82 0 0 0-2.826 2.813 2.82 2.82 0 0 0 2.826 2.813 2.82 2.82 0 0 0 2.828-2.812 2.823 2.823 0 0 0-2.828-2.814z"/>
        <path fill="#1F282C" d="M24.775 11.735a.853.853 0 0 1-.533-.184 4.527 4.527 0 0 1 1.24-7.835 4.576 4.576 0 0 1 4.548.827.86.86 0 0 1 .084 1.213.87.87 0 0 1-1.218.091 2.837 2.837 0 0 0-2.82-.51 2.806 2.806 0 1 0-.768 4.857.86.86 0 0 1 .286.96.867.867 0 0 1-.819.581z"/>
        <ellipse cx="55.375" cy="18.04" fill="#CEEAF2" rx="5.07" ry="5.045"/>
        <ellipse cx="44.322" cy="35.129" fill="#CEEAF2" rx="5.07" ry="5.045"/>
        <path fill="#1F282C" d="M68.145 18.536h-7.7a.865.865 0 0 1-.863-.862c0-.475.386-.861.863-.863h7.7a.865.865 0 0 1 .863.863c0 .475-.386.86-.863.862zM47.063 31.753a.867.867 0 0 1-.761-.45.859.859 0 0 1 .032-.88l5.568-8.61a.869.869 0 0 1 1.503.07.86.86 0 0 1-.044.864l-5.568 8.61a.868.868 0 0 1-.73.396zM41.404 31.87a.866.866 0 0 1-.728-.394l-8.672-13.334a.86.86 0 0 1-.043-.862.867.867 0 0 1 1.5-.075l8.67 13.335a.86.86 0 0 1 .034.88.868.868 0 0 1-.761.45z"/>
        <path fill="#1F282C" fill-rule="nonzero" d="M55.376 23.949a5.937 5.937 0 0 1-5.485-3.646 5.887 5.887 0 0 1 1.286-6.44 5.958 5.958 0 0 1 6.47-1.28 5.908 5.908 0 0 1 3.665 5.458c-.004 3.26-2.66 5.904-5.936 5.908zm0-10.09a4.203 4.203 0 0 0-3.883 2.58 4.168 4.168 0 0 0 .91 4.56 4.218 4.218 0 0 0 4.58.906 4.182 4.182 0 0 0 2.595-3.864c-.003-2.309-1.882-4.18-4.202-4.183zM44.322 41.038a5.938 5.938 0 0 1-5.486-3.646 5.888 5.888 0 0 1 1.285-6.44 5.958 5.958 0 0 1 6.47-1.283 5.909 5.909 0 0 1 3.667 5.46c-.003 3.26-2.658 5.904-5.936 5.909zm0-10.092a4.204 4.204 0 0 0-3.884 2.581 4.169 4.169 0 0 0 .91 4.56 4.218 4.218 0 0 0 4.582.907 4.183 4.183 0 0 0 2.594-3.866c-.002-2.308-1.882-4.18-4.202-4.182z"/>
    </g>
</svg>
