<svg xmlns="http://www.w3.org/2000/svg" width="69" height="68" viewBox="0 0 69 68">
    <g fill="none" fill-rule="evenodd">
        <ellipse cx="63.687" cy="34.505" fill="#3DAFCC" rx="4.555" ry="4.588"/>
        <ellipse cx="54.702" cy="13.896" fill="#3DAFCC" rx="4.555" ry="4.588"/>
        <ellipse cx="33.883" cy="5.724" fill="#3DAFCC" rx="4.555" ry="4.588"/>
        <ellipse cx="13.426" cy="14.775" fill="#3DAFCC" rx="4.555" ry="4.588"/>
        <ellipse cx="5.313" cy="35.748" fill="#3DAFCC" rx="4.555" ry="4.588"/>
        <path fill="#1F282C" d="M5.314 41.101C2.38 41.097.004 38.703 0 35.748a.765.765 0 0 1 .378-.665.754.754 0 0 1 .761 0c.235.138.38.391.378.665 0 1.547.924 2.942 2.343 3.534a3.776 3.776 0 0 0 4.137-.828 3.845 3.845 0 0 0 .824-4.168 3.796 3.796 0 0 0-3.507-2.36.761.761 0 0 1-.76-.765c0-.422.34-.764.76-.764 2.934 0 5.312 2.396 5.312 5.352 0 2.956-2.378 5.352-5.312 5.352z"/>
        <path fill="#1F282C" d="M14.527 36.512H9.87a.758.758 0 0 1-.66-.38.77.77 0 0 1 0-.767.758.758 0 0 1 .66-.381h4.658a.758.758 0 0 1 .66.38.77.77 0 0 1 0 .767.758.758 0 0 1-.66.381z"/>
        <path fill="#1F282C" fill-rule="nonzero" d="M13.426 20.126a5.311 5.311 0 0 1-4.91-3.302 5.38 5.38 0 0 1 1.153-5.833 5.408 5.408 0 0 1 7.514 0 5.387 5.387 0 0 1 0 7.57 5.277 5.277 0 0 1-3.757 1.565zm0-9.175A3.804 3.804 0 0 0 9.7 14.028a3.831 3.831 0 0 0 2.27 4.281c1.673.7 3.604.11 4.61-1.407a3.846 3.846 0 0 0-.47-4.83 3.758 3.758 0 0 0-2.684-1.121z"/>
        <path fill="#1F282C" d="M19.94 22.103a.753.753 0 0 1-.536-.224L16.11 18.56a.768.768 0 0 1 0-1.081.755.755 0 0 1 1.073 0l3.294 3.318a.768.768 0 0 1 .164.833.759.759 0 0 1-.7.472z"/>
        <path fill="#1F282C" fill-rule="nonzero" d="M33.884 11.076a5.288 5.288 0 0 1-4.406-2.36 5.334 5.334 0 0 1-.908-2.992c0-2.956 2.378-5.352 5.312-5.353 2.934 0 5.313 2.396 5.314 5.352 0 2.956-2.378 5.353-5.312 5.353zm0-9.176c-1.536 0-2.92.931-3.508 2.36a3.844 3.844 0 0 0 .822 4.167 3.775 3.775 0 0 0 4.137.83 3.824 3.824 0 0 0 2.343-3.533c-.002-2.11-1.7-3.821-3.794-3.824z"/>
        <path fill="#1F282C" d="M33.884 15.77a.755.755 0 0 1-.537-.223.767.767 0 0 1-.222-.54v-4.695a.761.761 0 0 1 .759-.761c.417 0 .756.34.758.76v4.695c0 .203-.08.398-.222.54a.755.755 0 0 1-.536.225z"/>
        <path fill="#1F282C" fill-rule="nonzero" d="M54.7 19.247a5.277 5.277 0 0 1-3.755-1.566 5.387 5.387 0 0 1 0-7.57 5.408 5.408 0 0 1 7.514 0 5.38 5.38 0 0 1 1.152 5.834 5.311 5.311 0 0 1-4.91 3.302zm-2.683-2.646a3.776 3.776 0 0 0 5.369 0 3.844 3.844 0 0 0 0-5.409 3.869 3.869 0 0 0-5.369 0 3.851 3.851 0 0 0 0 5.409z"/>
        <path fill="#1F282C" d="M48.187 21.224a.759.759 0 0 1-.7-.472.768.768 0 0 1 .164-.833l3.294-3.318a.755.755 0 0 1 1.269.342.768.768 0 0 1-.197.738L48.723 21a.753.753 0 0 1-.536.224zM63.686 39.858c-2.93-.005-5.304-2.4-5.304-5.353 0-2.952 2.374-5.347 5.304-5.352a.762.762 0 0 1 .756.764c0 .421-.338.763-.756.765a3.795 3.795 0 0 0-3.506 2.36 3.844 3.844 0 0 0 .824 4.168 3.775 3.775 0 0 0 4.136.828 3.824 3.824 0 0 0 2.343-3.533.765.765 0 0 1 .378-.665.754.754 0 0 1 .76 0c.236.137.38.39.379.665-.004 2.954-2.38 5.349-5.314 5.353z"/>
        <path fill="#1F282C" d="M59.133 35.269h-4.66a.761.761 0 0 1-.759-.764c0-.423.34-.765.759-.765h4.66c.419 0 .759.342.759.765 0 .422-.34.764-.76.764z"/>
        <path fill="#CEEAF2" d="M40.79 22.735l-4.886 9.844 2.534-.094v5.748s.361 5.097-2.534 6.103v6.321h4.886s4.071 1.089 4.071 16.207h8.267v-7.43s-.034-10.054-12.61-13.349l-1.361-.349.008-2.034.432-1.094s3.928-2.802 3.386-9.501V22.735H40.79z"/>
        <path fill="#1F282C" d="M53.127 67.629a.755.755 0 0 1-.536-.224.767.767 0 0 1-.222-.54v-5.787c0-8.174-6.76-13.434-13.12-14.234a.76.76 0 0 1-.606-.46.769.769 0 0 1 .093-.76.756.756 0 0 1 .7-.297c7.005.88 14.45 6.7 14.45 15.751v5.786c0 .203-.08.397-.222.54a.755.755 0 0 1-.537.225zM15.818 67.629a.755.755 0 0 1-.537-.224.767.767 0 0 1-.222-.54v-5.787c0-8.974 7.27-14.587 14.449-15.491a.76.76 0 0 1 .845.663c.052.418-.241.8-.655.853-6.522.823-13.121 5.886-13.121 13.975v5.786c0 .203-.08.397-.223.54a.755.755 0 0 1-.536.225zM34.473 45.1c-5.117-.005-9.264-4.182-9.27-9.337v-4.454a.765.765 0 0 1 .379-.665.754.754 0 0 1 .76 0c.236.137.38.39.379.665v4.454c.006 4.309 3.474 7.798 7.752 7.798 4.277 0 7.745-3.49 7.751-7.798V27a.761.761 0 0 1 .76-.761c.417 0 .756.34.758.76v8.763c-.006 5.154-4.152 9.331-9.269 9.337z"/>
        <path fill="#1F282C" d="M34.473 51.541a7.009 7.009 0 0 1-3.332-.78.768.768 0 0 1-.31-1.03.756.756 0 0 1 1.018-.323 5.517 5.517 0 0 0 2.624.605 4.32 4.32 0 0 0 3.413-1.181 3.376 3.376 0 0 0 .705-2.383.768.768 0 0 1 .147-.565.757.757 0 0 1 .5-.296.781.781 0 0 1 .856.652 4.9 4.9 0 0 1-1.064 3.596 5.728 5.728 0 0 1-4.557 1.705zM37.446 33.343h-6.598a.761.761 0 0 1-.76-.764c0-.422.34-.764.76-.764h6.598c2.638-.004 4.775-2.157 4.779-4.814v-3.502H32.48c-5.141 0-5.697 3.321-5.697 4.748 0 .58-.007 1.048-.007 1.048v3.284a.765.765 0 0 1-.379.665.754.754 0 0 1-.76 0 .765.765 0 0 1-.379-.665v-3.296c0-.015.008-.472.008-1.036 0-3.035 1.895-6.277 7.214-6.277h10.503c.201 0 .394.08.537.224a.767.767 0 0 1 .222.54v4.267c-.004 3.5-2.82 6.338-6.296 6.342zM22.514 67.629a.755.755 0 0 1-.537-.224.767.767 0 0 1-.222-.54v-6.672c0-.273.145-.525.38-.662a.754.754 0 0 1 .758 0c.235.137.38.39.38.662v6.671c0 .203-.08.397-.222.54a.755.755 0 0 1-.537.225zM46.431 67.629a.755.755 0 0 1-.536-.224.767.767 0 0 1-.222-.54v-6.672c0-.422.34-.764.758-.764.42 0 .759.342.759.764v6.671c0 .203-.08.397-.222.54a.755.755 0 0 1-.537.225zM34.473 60.957a.755.755 0 0 1-.536-.223.767.767 0 0 1-.222-.54v-2.447c0-.423.34-.765.758-.765.42 0 .759.342.759.765v2.446c0 .203-.08.397-.222.54a.755.755 0 0 1-.537.224z"/>
        <path fill="#1F282C" d="M39.34 47.11a.76.76 0 0 1-.755-.713L38.357 43a.763.763 0 0 1 .706-.807.76.76 0 0 1 .808.702l.229 3.398a.768.768 0 0 1-.185.555.757.757 0 0 1-.52.26l-.054.001zM29.604 47.11c-.018 0-.035 0-.053-.002a.757.757 0 0 1-.52-.26.768.768 0 0 1-.185-.555l.228-3.398a.76.76 0 0 1 .808-.702c.415.028.73.388.706.807l-.228 3.397a.76.76 0 0 1-.756.712z"/>
    </g>
</svg>
