<svg xmlns="http://www.w3.org/2000/svg" width="68" height="68" viewBox="0 0 68 68">
    <g fill="none" fill-rule="evenodd">
        <path fill="#CEEAF2" d="M41.409 41.38l-3.727-2.802a1.54 1.54 0 0 1-2.17-.001l-3.954-3.921L19.1 38.85v21.563l11.781-13.818a8.62 8.62 0 0 0 6.656 2.357 13.883 13.883 0 0 0 7.309-3.693l8.488-8.56c.615-.614 1.152-1.3 1.6-2.044H48.19l-6.781 6.724zM61.888 1.352c2.921 0 5.29 2.349 5.29 5.246v6.712a.486.486 0 0 1-.488.484h-9.603a.486.486 0 0 1-.489-.484V6.598c0-2.897 2.369-5.246 5.29-5.246z"/>
        <path fill="#1F282C" d="M64.267 68H19.102a.794.794 0 0 1-.56-.23.78.78 0 0 1-.23-.554v-8.16c0-.433.353-.784.79-.784.437 0 .79.351.79.784v7.376h43.585V35.44h-9.612a.787.787 0 0 1-.79-.784c0-.433.353-.784.79-.784h10.402c.21 0 .411.083.56.23a.78.78 0 0 1 .231.554v32.56a.78.78 0 0 1-.231.554.794.794 0 0 1-.56.23z"/>
        <path fill="#1F282C" fill-rule="nonzero" d="M66.689 14.578h-9.603a1.274 1.274 0 0 1-1.278-1.268V6.597c.005-3.326 2.726-6.02 6.08-6.02 3.355 0 6.076 2.694 6.081 6.02v6.713a1.275 1.275 0 0 1-1.28 1.268zm-9.3-1.569h8.999V6.597c-.005-2.46-2.018-4.453-4.5-4.453-2.481 0-4.494 1.992-4.5 4.453v6.412z"/>
        <path fill="#1F282C" d="M61.979 2.146a.746.746 0 0 1-.127-.01.792.792 0 0 1-.675-.44.78.78 0 0 1 .066-.798.794.794 0 0 1 .739-.325l.068.007v.004c.27.047.501.222.619.468.138.283.09.621-.122.855l-.01.009a.796.796 0 0 1-.558.23z"/>
        <path fill="#1F282C" d="M56.598 35.44a.794.794 0 0 1-.559-.23.78.78 0 0 1-.231-.554V6.597c-.001-1.7.723-3.32 1.993-4.46H27.248c-3.04.002-5.504 2.445-5.508 5.46v14.589a.787.787 0 0 1-.791.784.787.787 0 0 1-.79-.784V7.597c.004-3.88 3.176-7.025 7.09-7.029h34.639c.436 0 .79.351.79.784a.787.787 0 0 1-.79.784c-2.484.003-4.496 1.999-4.5 4.461v28.06a.78.78 0 0 1-.23.554.794.794 0 0 1-.56.23z"/>
        <path fill="#3DAFCC" d="M41.409 41.38L21.603 21.74s-6.02 4.78 2.44 11.964L3.254 49.73s-3.774 6.727.07 9.406c3.842 2.68 7.424 2.615 9.553 0L29.344 38.96l3.71 3.544c2.665 1.8 6.27 1.315 8.355-1.124z"/>
        <path fill="#1F282C" fill-rule="nonzero" d="M8.09 61.865a7.526 7.526 0 0 1-6.923-4.5 7.414 7.414 0 0 1 1.438-8.085.785.785 0 0 1 .142-.153c.379-.38.798-.717 1.251-1.005l19.56-15.039a.795.795 0 0 1 1.045.066l5.3 5.256a.78.78 0 0 1 .055 1.048L14.38 58.534a7.062 7.062 0 0 1-.943 1.155l-.005-.005-.006.01a.843.843 0 0 1-.168.154 7.578 7.578 0 0 1-5.166 2.017zM3.9 50.197a.766.766 0 0 1-.073.086 5.87 5.87 0 0 0 .055 8.298 5.992 5.992 0 0 0 8.368.053.559.559 0 0 1 .064-.055l.004-.003c.017-.016.05-.043.07-.057.264-.28.503-.583.714-.905l15.18-18.6-4.305-4.267L4.911 49.4c-.364.23-.703.497-1.012.796z"/>
        <path fill="#1F282C" d="M8.495 54.79a.79.79 0 0 1-.73-.484.78.78 0 0 1 .171-.855l.663-.658a.795.795 0 0 1 1.112.005.78.78 0 0 1 .006 1.104l-.663.658a.792.792 0 0 1-.559.23zM41.41 42.165a.792.792 0 0 1-.56-.23L24.79 26.008a.78.78 0 0 1 .005-1.103.795.795 0 0 1 1.113-.005l16.06 15.926a.78.78 0 0 1 .172.855.79.79 0 0 1-.73.484z"/>
        <path fill="#1F282C" d="M36.598 44.402a6.945 6.945 0 0 1-4.922-2.021L20.594 31.393a6.87 6.87 0 0 1 0-9.762l5.24-5.194c2.733-3.213-.856-6.428-1.009-6.564a.777.777 0 0 1-.262-.67.79.79 0 0 1 .398-.6c3.76-2.09 7.174-1.87 9.875.64l2.16 2.143a.78.78 0 0 1-.351 1.318.795.795 0 0 1-.767-.21l-2.142-2.125a6.008 6.008 0 0 0-7.078-.863 5.896 5.896 0 0 1 .338 7.99l-5.284 5.244a5.31 5.31 0 0 0 0 7.544l11.082 10.988a5.417 5.417 0 0 0 7.606 0l8.446-8.375a5.31 5.31 0 0 0 0-7.544.78.78 0 0 1 .351-1.318.795.795 0 0 1 .767.21 6.87 6.87 0 0 1 0 9.76l-8.446 8.376a6.944 6.944 0 0 1-4.92 2.021z"/>
        <path fill="#1F282C" d="M44.846 21.063a.791.791 0 0 1-.56-.23l-2.529-2.51a.78.78 0 0 1 .006-1.103.795.795 0 0 1 1.112-.005l2.53 2.51a.78.78 0 0 1 .171.854.79.79 0 0 1-.73.484zM37.007 22.2a.792.792 0 0 1-.714-.447.78.78 0 0 1 .098-.83 6.187 6.187 0 0 0-.513-8.428.78.78 0 0 1 .006-1.103.795.795 0 0 1 1.112-.006c5.044 5.002.667 10.47.622 10.524a.79.79 0 0 1-.611.29z"/>
        <path fill="#1F282C" d="M44.432 29.564a.792.792 0 0 1-.712-.447.78.78 0 0 1 .097-.83 6.186 6.186 0 0 0-.51-8.427.78.78 0 0 1 .005-1.104.795.795 0 0 1 1.112-.005c5.044 5.002.666 10.469.621 10.524a.791.791 0 0 1-.613.29zM41.685 50.23a.794.794 0 0 1-.56-.229.78.78 0 0 1-.231-.554v-2.558c0-.433.354-.784.79-.784.437 0 .791.351.791.784v2.558a.78.78 0 0 1-.231.554.794.794 0 0 1-.56.23zM47.309 53.252H44.73a.787.787 0 0 1-.79-.784c0-.433.353-.784.79-.784h2.579c.437 0 .79.351.79.784a.787.787 0 0 1-.79.784zM41.685 58.83a.794.794 0 0 1-.56-.23.78.78 0 0 1-.231-.554v-2.558c0-.433.354-.784.79-.784.437 0 .791.351.791.784v2.558a.78.78 0 0 1-.231.554.794.794 0 0 1-.56.23zM38.638 53.252h-2.58a.787.787 0 0 1-.79-.784c0-.433.354-.784.79-.784h2.58c.436 0 .79.351.79.784a.787.787 0 0 1-.79.784zM13.836 21.78a.795.795 0 0 1-.244-.038 10.447 10.447 0 0 1-7.02-6.97.78.78 0 0 1 .175-.767.796.796 0 0 1 1.338.308 8.798 8.798 0 0 0 5.995 5.937.784.784 0 0 1-.244 1.53z"/>
        <path fill="#1F282C" d="M7.328 28.232a.785.785 0 0 1-.757-1.014 10.448 10.448 0 0 1 7.02-6.968.792.792 0 0 1 .992.505c.134.41-.09.851-.503.987a8.799 8.799 0 0 0-5.995 5.936.793.793 0 0 1-.757.554zM.822 21.78a.784.784 0 1 1-.244-1.53A9.598 9.598 0 0 0 3.99 18.36a.796.796 0 0 1 .775-.156.78.78 0 1 1 .272 1.332 11.195 11.195 0 0 1-3.972 2.207.795.795 0 0 1-.244.038z"/>
        <path fill="#1F282C" d="M7.328 28.232a.793.793 0 0 1-.757-.554 8.794 8.794 0 0 0-5.993-5.936.783.783 0 0 1-.503-.986.792.792 0 0 1 .99-.506 10.449 10.449 0 0 1 7.02 6.968.785.785 0 0 1-.757 1.014zM42.607 11.372h-7.48a.787.787 0 0 1-.79-.784c0-.433.354-.784.79-.784h7.48c.436 0 .79.351.79.784a.787.787 0 0 1-.79.784zM51.212 11.372h-4.12a.787.787 0 0 1-.79-.784c0-.433.354-.784.79-.784h4.12c.436 0 .79.351.79.784a.787.787 0 0 1-.79.784zM51.212 16.158h-5.663a.787.787 0 0 1-.791-.784c0-.433.354-.784.79-.784h5.664c.436 0 .79.351.79.784a.787.787 0 0 1-.79.784zM51.212 20.945h-6.247a.787.787 0 0 1-.79-.784c0-.433.353-.784.79-.784h6.247c.436 0 .79.351.79.784a.787.787 0 0 1-.79.784z"/>
    </g>
</svg>
