<svg xmlns="http://www.w3.org/2000/svg" width="58" height="68" viewBox="0 0 58 68">
    <g fill="none" fill-rule="evenodd">
        <path fill="#CEEAF2" d="M53.913 42.827v-5.003c-.003-2.019-1.604-3.684-3.649-3.796v8.8h3.649zM50.264 55.432v2.19c0 2.254-1.852 4.08-4.138 4.08H2.398A5.215 5.215 0 0 1 .83 61.44v.644c0 1.364.55 2.673 1.529 3.638a5.256 5.256 0 0 0 3.69 1.506h43.727c1.097 0 2.15-.43 2.926-1.194a4.05 4.05 0 0 0 1.212-2.885v-7.716h-3.649zM26.55 10.218c-.056 0-.11.007-.166.008a11.392 11.392 0 0 0-.498 3.329c0 .057.008.113.008.17 3.576 2.066 5.823 5.801 5.946 9.886a11.788 11.788 0 0 0 6.917 1.446A12.17 12.17 0 0 0 36.24 14.77a12.544 12.544 0 0 0-9.69-4.552z"/>
        <path fill="#3DAFCC" d="M40.472 24.711c-1.848.456-3.78.456-5.627 0H31.59a11.56 11.56 0 0 1-2.003 5.376H9.83a11.555 11.555 0 0 1-2.002-5.376H5.543c-2.6.005-4.705 2.084-4.705 4.647s2.105 4.643 4.705 4.647h8.81l-.01-.005h10.732l-.01.005h28.848v-9.294H40.472z"/>
        <path fill="#1F282C" d="M50.797 68H6.25c-3.425-.004-6.2-2.74-6.204-6.117v-31.98c.003-3.292 2.71-5.961 6.05-5.965H7.81c.433 0 .784.346.784.773 0 .426-.35.772-.784.772H6.096c-2.475.003-4.48 1.981-4.483 4.42v31.98c.004 2.524 2.078 4.568 4.637 4.572h44.547c1.288-.002 2.33-1.031 2.332-2.3V55.43c0-.427.35-.773.784-.773.433 0 .784.346.784.773v8.723c-.003 2.123-1.747 3.843-3.9 3.846zM53.417 26.29a.786.786 0 0 1-.608-.284 1.436 1.436 0 0 0-1.111-.523h-2.542a.778.778 0 0 1-.783-.772c0-.427.35-.773.783-.773h2.542c.903-.001 1.758.4 2.326 1.093.191.23.23.55.1.819a.785.785 0 0 1-.707.44z"/>
        <path fill="#1F282C" d="M53.913 39.427a.79.79 0 0 1-.555-.226.767.767 0 0 1-.23-.547v-1.67c0-1.22-1.004-2.21-2.242-2.211H5.54C2.507 34.769.05 32.346.046 29.356c0-.427.35-.773.784-.773.433 0 .783.346.783.773.003 2.137 1.76 3.868 3.927 3.871h45.346c2.103.003 3.808 1.683 3.81 3.757v1.67a.767.767 0 0 1-.229.547.79.79 0 0 1-.554.226z"/>
        <path fill="#1F282C" fill-rule="nonzero" d="M54.576 56.204H46.06c-3.842-.004-6.956-3.073-6.96-6.861v-.426c.004-3.788 3.118-6.858 6.96-6.862h8.515c1.865.002 3.376 1.492 3.378 3.33v7.488c-.002 1.839-1.513 3.329-3.378 3.33zM46.06 43.6c-2.977.003-5.39 2.382-5.393 5.317v.426c.004 2.935 2.416 5.313 5.393 5.315h8.515c1-.001 1.809-.8 1.81-1.785v-7.487c-.001-.986-.81-1.784-1.81-1.786H46.06z"/>
        <path fill="#1F282C" d="M46.55 52.407c-1.834-.003-3.32-1.468-3.322-3.277 0-.427.35-.773.783-.773.433 0 .784.346.784.773 0 .9.7 1.651 1.611 1.725a1.751 1.751 0 0 0 1.877-1.44 1.731 1.731 0 0 0-1.302-1.963.78.78 0 0 1-.566-.538.766.766 0 0 1 .192-.752.792.792 0 0 1 .757-.21c1.626.404 2.692 1.94 2.485 3.581-.207 1.641-1.62 2.873-3.298 2.874zM53.913 31.548a.79.79 0 0 1-.555-.227.767.767 0 0 1-.23-.546v-.646H37.89a.778.778 0 0 1-.784-.773c0-.427.35-.773.784-.773h16.023a.79.79 0 0 1 .554.227c.147.144.23.341.23.546v1.419a.767.767 0 0 1-.23.546.79.79 0 0 1-.554.227zM10.12 10.43a.79.79 0 0 1-.554-.226.767.767 0 0 1-.23-.546v-5.33c0-.426.351-.772.784-.772.433 0 .784.346.784.772v5.33a.767.767 0 0 1-.23.546.79.79 0 0 1-.554.226zM17.265 6.875a.79.79 0 0 1-.555-.227.767.767 0 0 1-.23-.546V.772c0-.426.352-.772.785-.772.433 0 .783.346.783.773v5.329a.767.767 0 0 1-.229.546.79.79 0 0 1-.554.227zM29.476 31.081a.785.785 0 0 1-.697-.417.763.763 0 0 1 .057-.802 10.913 10.913 0 0 0-1.618-14.536c-4.19-3.744-10.555-3.816-14.83-.166-4.276 3.65-5.114 9.871-1.954 14.495a.765.765 0 0 1-.213 1.069.79.79 0 0 1-1.085-.206c-3.605-5.272-2.649-12.367 2.226-16.53 4.875-4.161 12.135-4.08 16.912.192 4.777 4.27 5.568 11.386 1.842 16.575a.786.786 0 0 1-.64.326z"/>
        <path fill="#1F282C" d="M19.71 29.907a.778.778 0 0 1-.784-.773c0-.427.35-.772.783-.772 2.728-.003 4.939-2.183 4.942-4.872 0-.427.35-.773.784-.773.433 0 .783.346.783.773-.003 3.542-2.915 6.413-6.509 6.417zM13.984 24.262a.79.79 0 0 1-.554-.226.767.767 0 0 1-.23-.546c.004-3.543 2.916-6.414 6.51-6.418.432 0 .783.346.783.773 0 .427-.35.773-.784.773-2.727.003-4.938 2.182-4.941 4.872a.767.767 0 0 1-.23.546.79.79 0 0 1-.554.226zM38.144 25.726a.778.778 0 0 1-.783-.753.777.777 0 0 1 .744-.79c5.231-.26 9.58-4.063 10.463-9.152.883-5.09-1.935-10.102-6.78-12.06-4.847-1.96-10.422-.34-13.417 3.896a.788.788 0 0 1-1.353-.114.764.764 0 0 1 .067-.77c3.414-4.831 9.772-6.678 15.298-4.444 5.526 2.233 8.739 7.95 7.73 13.753-1.007 5.803-5.966 10.14-11.931 10.433l-.038.001z"/>
        <path fill="#1F282C" d="M37.61 19.66a.778.778 0 0 1-.784-.77c-.001-.427.349-.774.782-.775 2.424-.002 4.485-1.747 4.854-4.11a.776.776 0 0 1 .493-.602.793.793 0 0 1 .776.12c.218.175.325.45.28.724-.488 3.112-3.203 5.41-6.397 5.414h-.003zM32.97 10.654a.785.785 0 0 1-.699-.421.764.764 0 0 1 .063-.805 6.56 6.56 0 0 1 5.277-2.66c.433 0 .784.347.784.774 0 .426-.351.772-.784.772a4.98 4.98 0 0 0-4.006 2.02.789.789 0 0 1-.636.32z"/>
    </g>
</svg>
