<svg xmlns="http://www.w3.org/2000/svg" width="57" height="57" viewBox="0 0 57 57">
    <g fill="none" fill-rule="evenodd">
        <path fill="#CEEAF2" d="M43.455 51.683s10.72-5.58 10.72-21.687c0-16.108-13.37-27.67-29.864-27.67-5.178 0 .825-.567 3.83 1.495 6.564 4.507 19.908 15.124 19.908 26.175 0 16.107-4.594 21.687-4.594 21.687z"/>
        <path stroke="#1F282C" stroke-linecap="round" stroke-width="3" d="M17.84 52.782A26.545 26.545 0 0 0 28.5 55C43.136 55 55 43.207 55 28.659 55 14.11 43.136 2.317 28.5 2.317S2 14.111 2 28.66c0 7.591 3.23 14.433 8.4 19.24"/>
        <g fill="#1EB0CD">
            <path d="M30.493 39.574c0 1.271-1.066 2.302-2.383 2.302-1.316 0-2.383-1.03-2.383-2.302 0-1.27 1.067-2.301 2.383-2.301.633 0 1.24.243 1.687.675.447.433.698 1.02.696 1.63v-.004zM21.134 22.187a2.207 2.207 0 0 1 .101-1.747c1.33-2.698 4.142-4.423 7.236-4.44h.048c4.397.017 7.997 3.38 8.163 7.622.11 3.44-2.126 6.545-5.505 7.64 0 0-.236.08-.236.215v1.826c0 1.265-1.062 2.29-2.371 2.29-1.31 0-2.371-1.025-2.371-2.29v-1.826c.022-2.076 1.411-3.907 3.454-4.552 1.408-.46 2.338-1.756 2.291-3.191-.096-1.756-1.585-3.14-3.405-3.164-1.292.014-2.462.737-3.015 1.864-.412.846-1.316 1.365-2.282 1.31-.966-.054-1.801-.67-2.108-1.557z"/>
        </g>
    </g>
</svg>
