<svg xmlns="http://www.w3.org/2000/svg" width="48" height="48" viewBox="0 0 48 48">
    <path fill="#8F9496" fill-rule="evenodd" d="M24.003 0C37.253 0 48 10.747 48 24.003 48 37.253 37.253 48 24.003 48 10.747 48 0 37.253 0 24.003 0 10.747 10.747 0 24.003 0zm3.243 30.8a15.306 15.306 0 0 0 4.656-1.863c1.097-.668 1.428-2.066.737-3.129-.692-1.062-2.14-1.383-3.24-.715-3.285 1.996-7.513 1.992-10.797 0-1.1-.668-2.549-.347-3.24.715-.692 1.059-.36 2.46.736 3.129a15.306 15.306 0 0 0 4.656 1.863l-4.478 4.328a2.211 2.211 0 0 0 0 3.207c.46.441 1.06.664 1.658.664.603 0 1.202-.223 1.663-.664l4.405-4.254 4.405 4.254a2.406 2.406 0 0 0 3.321 0 2.211 2.211 0 0 0 0-3.207L27.246 30.8zm-3.244-6.316c4.422 0 8.018-3.473 8.018-7.738C32.02 12.473 28.424 9 24.002 9c-4.421 0-8.018 3.473-8.018 7.742 0 4.27 3.597 7.742 8.018 7.742zm0-10.945c1.833 0 3.321 1.437 3.321 3.207 0 1.765-1.488 3.203-3.321 3.203-1.828 0-3.321-1.438-3.321-3.203 0-1.77 1.493-3.207 3.321-3.207z"/>
</svg>
