<svg id="Layer_1" data-name="Layer 1" xmlns="http://www.w3.org/2000/svg" viewBox="0 0 48 48"><defs><style>.cls-1{opacity:0.3;}.cls-2{fill:#3dafcc;}.cls-3{fill:#1f282c;}</style></defs><title>optimizatorArtboard 17 copy</title><g class="cls-1"><rect class="cls-2" x="0.48" y="39.14" width="6.03" height="7.64"/></g><g class="cls-1"><path class="cls-2" d="M31.75,43.87l9.76-9.77-.65-.65h.61V26.94H25.22a3.26,3.26,0,1,0,0,6.51h4.66L24.2,39.14H6.05v5.44H31Z"/></g><path class="cls-2" d="M33.24,1.07A14.26,14.26,0,0,0,19.83,20.18l5.1-5.1,3.44-1.76,2.47,1.42.88,2.14-.56,2.57-3.45,4-3.18,3.19A14.27,14.27,0,1,0,33.24,1.07Z"/><path class="cls-3" d="M20.06,20.46a.49.49,0,0,1-.47-.34,14.56,14.56,0,0,1-.8-4.77.5.5,0,0,1,.5-.5.5.5,0,0,1,.5.5,13.61,13.61,0,0,0,.74,4.44.51.51,0,0,1-.31.64A.45.45,0,0,1,20.06,20.46Z"/><path class="cls-3" d="M33.4,30a14.43,14.43,0,0,1-9-3.12.5.5,0,1,1,.62-.78A13.5,13.5,0,0,0,33.4,29,13.63,13.63,0,1,0,24.58,5a.49.49,0,0,1-.7,0,.51.51,0,0,1,.05-.71A14.62,14.62,0,1,1,41.57,27.48a14.43,14.43,0,0,1-3.9,1.86A14.63,14.63,0,0,1,33.4,30Z"/><path class="cls-3" d="M31.1,45H10.47a.5.5,0,0,1-.5-.5.51.51,0,0,1,.5-.5H30.89L41,33.93v-7a.5.5,0,1,1,1,0v7.19a.52.52,0,0,1-.14.36L31.45,44.88A.5.5,0,0,1,31.1,45Z"/><path class="cls-3" d="M6.21,45a.5.5,0,0,1-.5-.5V27.93a.5.5,0,0,1,.5-.5h.4a17.87,17.87,0,0,0,4.88-.62,12.35,12.35,0,0,0,3.39-2.37l9.7-9.71a5.08,5.08,0,0,1,3.86-1.65,3.64,3.64,0,0,1,2.79,1.35c2.14,2.7.54,5.84-1.67,7.88l-6,6a.5.5,0,0,1-.71-.71l6-6c.93-.86,3.73-3.82,1.58-6.54a2.69,2.69,0,0,0-2.05-1,4.09,4.09,0,0,0-3.1,1.34l-9.72,9.72a12.88,12.88,0,0,1-3.71,2.59,17.71,17.71,0,0,1-5.16.7V44.52A.5.5,0,0,1,6.21,45Z"/><path class="cls-3" d="M27.47,34h-.41l-2.67-.08a3.19,3.19,0,0,1-3.18-3.2,4.31,4.31,0,0,1,1.69-3.1.5.5,0,0,1,.71,0,.49.49,0,0,1,0,.7,3.36,3.36,0,0,0-1.36,2.36,2.2,2.2,0,0,0,2.2,2.2l2.7.08a5.56,5.56,0,0,0,2.82-.53l.32-.22a.49.49,0,0,1,.7.1.5.5,0,0,1-.1.7l-.39.27A6.06,6.06,0,0,1,27.47,34Z"/><path class="cls-3" d="M6.21,47.28H.48a.5.5,0,0,1-.49-.5V36.38a.5.5,0,0,1,.49-.5.5.5,0,0,1,.5.5v9.9H5.71V26.49H1V31a.5.5,0,1,1-1,0V26a.5.5,0,0,1,.49-.5H6.21a.51.51,0,0,1,.5.5V46.78A.51.51,0,0,1,6.21,47.28Z"/><path class="cls-3" d="M8.46,19.36a.5.5,0,0,1-.5-.5V2.17a.5.5,0,0,1,.5-.5.51.51,0,0,1,.5.5V18.86A.51.51,0,0,1,8.46,19.36Z"/><path class="cls-3" d="M8.46,19.36a.51.51,0,0,1-.36-.15L5,16.06a.5.5,0,0,1,0-.7.5.5,0,0,1,.71,0l2.79,2.79,2.79-2.79a.49.49,0,0,1,.7.7L8.81,19.21A.49.49,0,0,1,8.46,19.36Z"/><path class="cls-3" d="M27.29,9.43a.48.48,0,0,1-.36-.16.49.49,0,0,1,0-.7,9.39,9.39,0,0,1,12.52-.46.52.52,0,0,1,.07.71.51.51,0,0,1-.71.06,8.39,8.39,0,0,0-11.19.41A.52.52,0,0,1,27.29,9.43Z"/><path class="cls-3" d="M42.06,13.51a.5.5,0,0,1-.49-.37,8.08,8.08,0,0,0-.63-1.63.5.5,0,0,1,.22-.68.51.51,0,0,1,.67.22,9.25,9.25,0,0,1,.71,1.83.52.52,0,0,1-.35.62Z"/><path class="cls-3" d="M33.46,24.76a.5.5,0,0,1-.5-.5.51.51,0,0,1,.5-.5,8.37,8.37,0,0,0,8.29-7,.5.5,0,0,1,.58-.41.51.51,0,0,1,.41.58A9.38,9.38,0,0,1,33.46,24.76Z"/><path class="cls-3" d="M20.06,12.25a.5.5,0,0,1-.5-.5V5.24a.5.5,0,0,1,.5-.5.5.5,0,0,1,.5.5v6.51A.5.5,0,0,1,20.06,12.25Z"/><path class="cls-3" d="M23.31,9h-6.5a.5.5,0,0,1-.5-.5.5.5,0,0,1,.5-.5h6.5a.5.5,0,0,1,.5.5A.5.5,0,0,1,23.31,9Z"/></svg>