<svg id="Layer_1" data-name="Layer 1" xmlns="http://www.w3.org/2000/svg" viewBox="0 0 73 82"><defs><style>.cls-1{opacity:0.3;}.cls-2{fill:#3dafcc;}.cls-3{fill:#1f282c;}</style></defs><title>optimizatorArtboard 34</title><g class="cls-1"><path class="cls-2" d="M63,12.71a41.67,41.67,0,0,1-40.69,50.7,41.9,41.9,0,0,1-9-1A35.19,35.19,0,0,0,63,12.71Z"/></g><g class="cls-1"><polygon class="cls-2" points="16.08 15.99 8.61 8.51 1.42 8.65 8.08 15.64 9.29 16.3 16.08 15.99"/></g><g class="cls-1"><path class="cls-2" d="M24,69.3l-2,4.46A2.73,2.73,0,0,1,18.38,75h0a2.73,2.73,0,0,1-1.28-3.62L19.31,67l2.54,1.36Z"/></g><g class="cls-1"><path class="cls-2" d="M49.41,69l5,10.52A2.73,2.73,0,0,0,58,80.84h0a2.73,2.73,0,0,0,1.28-3.62l-5-10.54L51.75,68Z"/></g><path class="cls-2" d="M36.72,23A13.45,13.45,0,1,0,50.16,36.46,13.45,13.45,0,0,0,36.72,23Zm.08,21a7.69,7.69,0,1,1,7.69-7.68A7.68,7.68,0,0,1,36.8,44.05Z"/><path class="cls-2" d="M36.63,9.48A27.06,27.06,0,1,0,63.69,36.54,27.05,27.05,0,0,0,36.63,9.48Zm.22,48.26A21.42,21.42,0,1,1,58.27,36.32,21.41,21.41,0,0,1,36.85,57.74Z"/><path class="cls-3" d="M36.85,72A35.7,35.7,0,0,1,5.42,19.39a.5.5,0,0,1,.68-.21.51.51,0,0,1,.2.68A34.68,34.68,0,1,0,19.84,6.07a.5.5,0,0,1-.49-.87A35.7,35.7,0,1,1,36.85,72Z"/><path class="cls-3" d="M36.85,63.91A27.63,27.63,0,0,1,9.26,36.32a27.31,27.31,0,0,1,5-15.8.49.49,0,0,1,.69-.13.51.51,0,0,1,.13.7,26.35,26.35,0,0,0-4.81,15.23A26.59,26.59,0,1,0,36.85,9.73a26.35,26.35,0,0,0-15.73,5.16.5.5,0,1,1-.59-.8A27.32,27.32,0,0,1,36.85,8.73a27.59,27.59,0,0,1,0,55.18Z"/><path class="cls-3" d="M36.85,58.24A21.92,21.92,0,0,1,18.32,24.62a.5.5,0,0,1,.69-.15.49.49,0,0,1,.16.69,21,21,0,1,0,6-6.18.52.52,0,0,1-.7-.13.51.51,0,0,1,.14-.7A21.92,21.92,0,1,1,36.85,58.24Z"/><path class="cls-3" d="M36.85,50.13A13.83,13.83,0,0,1,23,36.32a13.68,13.68,0,0,1,1.21-5.64.49.49,0,0,1,.66-.25.5.5,0,0,1,.25.66A12.81,12.81,0,1,0,31,24.91a.5.5,0,1,1-.45-.89,13.61,13.61,0,0,1,6.27-1.51,13.81,13.81,0,0,1,0,27.62Z"/><path class="cls-3" d="M36.85,44.45a8.14,8.14,0,0,1-8.13-8.13,8.26,8.26,0,0,1,.06-1,.5.5,0,1,1,1,.12,8.49,8.49,0,0,0-.05.88,7.09,7.09,0,1,0,5.59-7,.5.5,0,0,1-.6-.38.49.49,0,0,1,.38-.59,8,8,0,0,1,1.76-.19,8.13,8.13,0,1,1,0,16.26Z"/><path class="cls-3" d="M16.76,81.64a3.26,3.26,0,0,1-1.38-.31,3.2,3.2,0,0,1-1.51-4.28l5-10.46a.49.49,0,0,1,.66-.24.5.5,0,0,1,.24.67l-5,10.46a2.21,2.21,0,0,0,4,1.91l5-10.44a.5.5,0,0,1,.9.43l-5,10.44A3.21,3.21,0,0,1,16.76,81.64Z"/><path class="cls-3" d="M56.94,81.64A3.21,3.21,0,0,1,54,79.82l-5-10.44a.49.49,0,0,1,.24-.66A.5.5,0,0,1,50,69l5,10.44a2.21,2.21,0,0,0,4-1.91L53.94,67a.5.5,0,1,1,.91-.43l5,10.46a3.21,3.21,0,0,1-2.9,4.59Z"/><path class="cls-3" d="M36.63,37a.5.5,0,0,1-.35-.15L11.42,12a.5.5,0,0,1,0-.71.51.51,0,0,1,.71,0L37,36.18a.51.51,0,0,1,0,.71A.51.51,0,0,1,36.63,37Z"/><path class="cls-3" d="M8.74,16.8a.54.54,0,0,1-.35-.14L.6,8.87a.5.5,0,0,1,0-.71.5.5,0,0,1,.71,0L9.1,16a.51.51,0,0,1,0,.71A.54.54,0,0,1,8.74,16.8Z"/><path class="cls-3" d="M16.4,9.15A.47.47,0,0,1,16.05,9L8.25,1.21a.51.51,0,0,1,0-.71A.51.51,0,0,1,9,.5l7.79,7.79a.5.5,0,0,1,0,.71A.47.47,0,0,1,16.4,9.15Z"/><path class="cls-3" d="M16.4,16.8a.5.5,0,0,1-.5-.5V8.65a.5.5,0,0,1,1,0V16.3A.5.5,0,0,1,16.4,16.8Z"/><path class="cls-3" d="M11,16.8H8.74a.5.5,0,0,1-.5-.5.51.51,0,0,1,.5-.5H11a.51.51,0,0,1,.5.5A.5.5,0,0,1,11,16.8Z"/><path class="cls-3" d="M8.61,9H1a.5.5,0,0,1-.5-.5A.51.51,0,0,1,1,8H8.11V.86a.5.5,0,0,1,.5-.5.5.5,0,0,1,.5.5V8.51A.5.5,0,0,1,8.61,9Z"/></svg>