<svg id="Layer_1" data-name="Layer 1" xmlns="http://www.w3.org/2000/svg" viewBox="0 0 423 420"><defs><style>.cls-1{isolation:isolate;}.cls-2{fill:#8dd8eb;}.cls-3{fill:#515c66;}.cls-4{fill:#3dafcc;}.cls-5{fill:#c8f1fa;}.cls-6{fill:#fff;}.cls-7{fill:#1995b3;}.cls-8{fill:#ca75ed;}.cls-9{fill:#8396a6;}.cls-10{fill:#1b95b3;}</style></defs><title>optimizatorArtboard 12</title><g class="cls-1"><polygon class="cls-2" points="194.23 53.32 168.89 68.05 143.38 53.32 168.72 38.59 194.23 53.32"/><polygon class="cls-3" points="194.23 53.32 193.76 175.37 168.42 190.1 168.89 68.05 194.23 53.32"/><polygon class="cls-4" points="168.89 68.05 168.42 190.1 142.91 175.37 143.38 53.32 168.89 68.05"/></g><g class="cls-1"><polygon class="cls-5" points="236.96 14.73 211.62 29.45 186.12 14.72 211.46 0 236.96 14.73"/><polygon class="cls-4" points="236.96 14.73 236.5 190.05 211.16 204.77 211.62 29.45 236.96 14.73"/><polygon class="cls-2" points="211.62 29.45 211.16 204.77 185.65 190.05 186.12 14.72 211.62 29.45"/></g><g class="cls-1"><polygon class="cls-6" points="279.7 65.45 254.36 80.18 228.85 65.45 254.19 50.72 279.7 65.45"/><polygon class="cls-2" points="279.7 65.45 279.23 224.72 253.89 239.45 254.36 80.18 279.7 65.45"/><polygon class="cls-5" points="254.36 80.18 253.89 239.45 228.38 224.72 228.85 65.45 254.36 80.18"/></g><polygon class="cls-2" points="370.74 109.3 322.66 137.06 358.29 200.24 406.37 172.48 370.74 109.3"/><path class="cls-2" d="M335.11,131.34c9.23,15.62,21.78,29.21,35.63,37.21s26.4,8.9,35.63,3.93l-35.63-63.17Z"/><path class="cls-5" d="M287,159.09c9.23,15.63,21.79,29.22,35.64,37.21s26.4,8.9,35.63,3.94l-35.63-63.18Z"/><path class="cls-4" d="M287,134.23l35.64-22,35.63,63.18C368,170.18,374,158.55,374,141.82c0-32.72-23-72.5-51.3-88.86C308.81,45,296.25,44,287,49c-9.66,5.19-15.67,16.84-15.67,33.57S277.37,117.88,287,134.23Z"/><path class="cls-2" d="M370.74,25.2c-13.84-8-26.41-8.91-35.64-3.95L287.08,49c9.22-4.93,21.76-4,35.58,4C351,69.32,374,109.1,374,141.82c0,16.72-6,28.35-15.65,33.55l48.06-27.75h0c9.66-5.2,15.68-16.82,15.68-33.55C422.05,81.35,399.08,41.56,370.74,25.2Z"/><path class="cls-4" d="M406.37,147.62c9.66-5.2,15.68-16.82,15.68-33.55,0-12.72-3.49-26.5-9.39-39.56l-48,27.9c5.87,13,9.32,26.74,9.32,39.41,0,10.9-2.56,19.62-7,25.82l2.37,1.37,37.05-21.39Z"/><path class="cls-3" d="M422.05,114.07a76.61,76.61,0,0,0-.52-8.61l-48.06,27.93a75.69,75.69,0,0,1,.49,8.43c0,16.72-6,28.35-15.65,33.55l48.06-27.75h0C416,142.42,422.05,130.8,422.05,114.07Z"/><path class="cls-5" d="M178,182.26c-15.88-7.94-26.24-22.77-36.21-39.1-9.72-15.93-17.47-34.09-30.7-41.73-10.31-6-17.49-8.84-27-2.13-7.07,5-16,10.24-28.94,3.94l-.58-9c8.16,4,15.32,3.09,23.92-3,11-7.79,22-8,34.65-.76,16.17,9.33,26.87,26.88,37.23,43.85,9.36,15.34,18.2,29.83,30.54,37.36,13.9,8.46,23.9,6.29,34.52,4,11-2.38,22.45-4.84,38.64,4.51s27.68,22.9,38.86,36.05c10.69,12.58,20.79,24.47,34.66,32.47,15,8.64,25.44,6.25,36.54,3.73,9.58-2.18,20.18-4.07,32.78,1.83V263c-10.62-5-19.29-3-28.47-.91-11.57,2.63-25.89,8.7-43.22-1.3-15.7-9.07-26-18.06-37-31-10.85-12.76-21.41-29.27-35.69-37.52-13.85-8-23.64-11.46-34.19-9.19C207.51,185.38,191.67,189.08,178,182.26Z"/><polygon class="cls-5" points="63.42 99.33 54.58 94.23 49.79 96.99 47.17 98.5 56.02 103.61 56.48 103.34 56.48 103.34 63.42 99.33"/><path class="cls-2" d="M174.66,185.36l-1.36-.81c-15.15-9.25-25.46-26.14-35.43-42.48-9.71-15.92-18.89-31-32.12-38.61-10.31-5.95-19.54-5.59-29.06,1.12-7.06,5-16,9.23-28.93,2.93l-.59-9c8.17,4,15.32,3.1,23.93-3,11-7.8,22.05-8,34.65-.77,16.16,9.34,26.87,26.88,37.22,43.85,9.36,15.35,18.21,29.84,30.55,37.36,13.89,8.47,23.9,6.3,34.52,4,11-2.37,22.45-4.83,38.64,4.51s27.68,22.91,38.86,36.06C296.23,233.13,306.33,245,320.19,253c15,8.64,25.45,6.25,36.55,3.72,9.57-2.18,20.18-4.06,32.78,1.84v8.7c-10.63-5-19.3-3-28.47-.91-11.57,2.63-23.53,5.35-40.86-4.65-15.7-9.07-27.1-22.48-38.13-35.45-10.85-12.77-21.1-24.83-35.38-33.08-13.85-8-23.82-5.85-34.38-3.57C201.46,192,190.26,194.36,174.66,185.36Z"/><polygon class="cls-3" points="396.92 254.3 389.52 258.58 389.52 267.28 396.92 263 396.92 254.3"/><path class="cls-2" d="M174.66,185.36l-1.36-.81c-15.15-9.25-25.46-26.14-35.43-42.48-9.71-15.92-18.89-31-32.12-38.61-10.31-5.95-19.54-5.59-29.06,1.12-7.06,5-16,9.23-28.93,2.93l-.59-9c8.17,4,15.32,3.1,23.93-3,11-7.8,22.05-8,34.65-.77,16.16,9.34,26.87,26.88,37.22,43.85,9.36,15.35,18.21,29.84,30.55,37.36,13.89,8.47,23.9,6.3,34.52,4,11-2.37,22.45-4.83,38.64,4.51s27.68,22.91,38.86,36.06C296.23,233.13,306.33,245,320.19,253c15,8.64,25.45,6.25,36.55,3.72,9.57-2.18,20.18-4.06,32.78,1.84v8.7c-10.63-5-19.3-3-28.47-.91-11.57,2.63-23.53,5.35-40.86-4.65-15.7-9.07-27.1-22.48-38.13-35.45-10.85-12.77-21.1-24.83-35.38-33.08-13.85-8-23.82-5.85-34.38-3.57C201.46,192,190.26,194.36,174.66,185.36Z"/><path class="cls-2" d="M146.24,104.74a66.16,66.16,0,0,0-7.4-3.69l-.29,75,34.93,20.17.25-67C165.67,119.11,156.27,110.53,146.24,104.74Z"/><path class="cls-4" d="M173.73,129.24l-.25,67,25.27-14.68C195,163.31,185.89,144.5,173.73,129.24Z"/><path class="cls-6" d="M205.24,194.74l1.75.93a122,122,0,0,0-7.23-25.74c-24.31-16.12-44.29-43.31-63.4-70.73-10.34-4.2-19.83-5-27.83-3,2,3,4,6.13,6.24,9.29C138.18,139.31,170.22,175.55,205.24,194.74Z"/><path class="cls-5" d="M207.91,203.38a101.87,101.87,0,0,0-2.27-14.68c-3.88-1.77-7.88-3.75-12-6-30.06-16.47-53.46-50.21-76.08-82.84l-3.16-4.56a33.6,33.6,0,0,0-7.58,1.48q-1.14,2.06-2.22,4.27l4.42,6.36c23.42,33.77,44.56,68.76,85,91.23,4.78,2.66,9.4,4.92,13.86,6.94C207.86,204.84,207.88,204.11,207.91,203.38Z"/><path class="cls-4" d="M69.1,331.83v3c0-1,0-2,.12-3Z"/><path class="cls-5" d="M289.53,294.15,179,230.36a12.44,12.44,0,0,0-15.1,2.06l-34.11,34.72-103,59.49a3.62,3.62,0,0,0,0,6.28l122.68,70.83a9.25,9.25,0,0,0,9.27,0l103.84-59.95,29.6-30.14A12.44,12.44,0,0,0,289.53,294.15Z"/><path class="cls-2" d="M262.58,343.79h0l35.06-35.7a6.4,6.4,0,0,0-1.36-10L175,228a6.42,6.42,0,0,0-7.78,1.06l-37.39,38.06h0Z"/><polygon class="cls-3" points="150.57 264.31 172.88 241.61 282.69 305.01 260.39 327.72 150.57 264.31"/><polygon class="cls-2" points="247.14 313.27 260.84 299.32 272.84 306.25 259.14 320.19 247.14 313.27"/><polygon class="cls-2" points="229.85 303.29 243.55 289.34 255.55 296.27 241.85 310.21 229.85 303.29"/><polygon class="cls-2" points="212.57 293.31 226.27 279.36 238.27 286.29 224.57 300.24 212.57 293.31"/><polygon class="cls-2" points="195.28 283.33 208.98 269.38 220.98 276.31 207.28 290.25 195.28 283.33"/><polygon class="cls-4" points="178 273.35 191.7 259.4 203.7 266.33 190 280.27 178 273.35"/><polygon class="cls-4" points="160.71 263.37 174.41 249.42 186.41 256.35 172.71 270.3 160.71 263.37"/><polygon class="cls-7" points="160.71 263.37 174.41 249.42 177.52 251.21 163.81 265.16 160.71 263.37"/><polygon class="cls-7" points="174.41 249.42 186.41 256.35 182.2 260.63 170.21 253.7 174.41 249.42"/><polygon class="cls-7" points="178 273.35 191.7 259.4 194.8 261.19 181.1 275.14 178 273.35"/><polygon class="cls-7" points="191.7 259.4 203.7 266.33 199.49 270.61 187.49 263.68 191.7 259.4"/><polygon class="cls-4" points="195.28 283.33 208.98 269.38 212.09 271.17 198.39 285.12 195.28 283.33"/><polygon class="cls-4" points="208.98 269.38 220.98 276.31 216.78 280.59 204.78 273.66 208.98 269.38"/><polygon class="cls-4" points="212.57 293.31 226.27 279.36 229.37 281.15 215.67 295.1 212.57 293.31"/><polygon class="cls-4" points="226.27 279.36 238.27 286.29 234.06 290.57 222.06 283.64 226.27 279.36"/><polygon class="cls-4" points="229.85 303.29 243.55 289.34 246.66 291.13 232.96 305.08 229.85 303.29"/><polygon class="cls-4" points="243.55 289.34 255.55 296.27 251.35 300.55 239.35 293.62 243.55 289.34"/><polygon class="cls-4" points="247.14 313.27 260.84 299.32 263.94 301.11 250.24 315.06 247.14 313.27"/><polygon class="cls-4" points="260.84 299.32 272.84 306.25 268.63 310.53 256.63 303.6 260.84 299.32"/><polygon class="cls-5" points="46.99 329.77 129.82 281.95 236.93 343.79 154.1 391.61 46.99 329.77"/><path class="cls-2" d="M118.15,367.11,130,360.29a2.14,2.14,0,0,1,2.16,0l12.25,7.08a2.15,2.15,0,0,1,0,3.73l-11.82,6.83a2.17,2.17,0,0,1-2.15,0l-12.26-7.08A2.16,2.16,0,0,1,118.15,367.11Z"/><path class="cls-2" d="M95.51,354l11.82-6.82a2.14,2.14,0,0,1,2.16,0l12.26,7.08a2.16,2.16,0,0,1,0,3.73l-11.83,6.83a2.17,2.17,0,0,1-2.15,0l-12.26-7.08A2.16,2.16,0,0,1,95.51,354Z"/><path class="cls-2" d="M72.87,341l11.82-6.82a2.14,2.14,0,0,1,2.16,0l12.26,7.07a2.17,2.17,0,0,1,0,3.74l-11.82,6.83a2.19,2.19,0,0,1-2.16,0l-12.26-7.08A2.16,2.16,0,0,1,72.87,341Z"/><path class="cls-4" d="M50.23,327.9l11.82-6.82a2.14,2.14,0,0,1,2.16,0l12.26,7.07a2.16,2.16,0,0,1,0,3.74l-11.82,6.83a2.19,2.19,0,0,1-2.16,0l-12.26-7.08A2.16,2.16,0,0,1,50.23,327.9Z"/><path class="cls-2" d="M140.25,354.35l11.82-6.82a2.14,2.14,0,0,1,2.16,0l12.26,7.07a2.16,2.16,0,0,1,0,3.74l-11.82,6.83a2.19,2.19,0,0,1-2.16,0l-12.26-7.08A2.16,2.16,0,0,1,140.25,354.35Z"/><path class="cls-2" d="M117.61,341.28l11.82-6.82a2.14,2.14,0,0,1,2.16,0l12.26,7.07a2.16,2.16,0,0,1,0,3.74L132,352.1a2.19,2.19,0,0,1-2.16,0L117.61,345A2.16,2.16,0,0,1,117.61,341.28Z"/><path class="cls-2" d="M95,328.21l11.82-6.82a2.14,2.14,0,0,1,2.16,0l12.26,7.07a2.16,2.16,0,0,1,0,3.74L109.39,339a2.19,2.19,0,0,1-2.16,0L95,332A2.16,2.16,0,0,1,95,328.21Z"/><path class="cls-4" d="M72.33,315.14l11.82-6.83a2.19,2.19,0,0,1,2.16,0l12.26,7.08a2.16,2.16,0,0,1,0,3.74L86.75,326a2.14,2.14,0,0,1-2.16,0l-12.26-7.07A2.16,2.16,0,0,1,72.33,315.14Z"/><path class="cls-2" d="M162.35,341.59l11.82-6.82a2.14,2.14,0,0,1,2.16,0l12.26,7.07a2.16,2.16,0,0,1,0,3.74l-11.82,6.83a2.19,2.19,0,0,1-2.16,0l-12.26-7.08A2.17,2.17,0,0,1,162.35,341.59Z"/><path class="cls-2" d="M139.71,328.52l11.83-6.83a2.17,2.17,0,0,1,2.15,0L166,328.77a2.16,2.16,0,0,1,0,3.74l-11.82,6.82a2.14,2.14,0,0,1-2.16,0l-12.26-7.07A2.17,2.17,0,0,1,139.71,328.52Z"/><path class="cls-2" d="M117.08,315.45l11.82-6.83a2.17,2.17,0,0,1,2.15,0l12.26,7.08a2.16,2.16,0,0,1,0,3.74l-11.82,6.82a2.14,2.14,0,0,1-2.16,0l-12.25-7.07A2.16,2.16,0,0,1,117.08,315.45Z"/><path class="cls-4" d="M94.44,302.38l11.82-6.83a2.19,2.19,0,0,1,2.16,0l12.25,7.08a2.16,2.16,0,0,1,0,3.74l-11.82,6.82a2.14,2.14,0,0,1-2.16,0l-12.25-7.07A2.16,2.16,0,0,1,94.44,302.38Z"/><path class="cls-2" d="M184.46,328.83,196.28,322a2.19,2.19,0,0,1,2.16,0l12.25,7.08a2.16,2.16,0,0,1,0,3.74l-11.82,6.82a2.12,2.12,0,0,1-2.15,0l-12.26-7.07A2.16,2.16,0,0,1,184.46,328.83Z"/><path class="cls-2" d="M161.82,315.76l11.82-6.83a2.19,2.19,0,0,1,2.16,0L188.06,316a2.17,2.17,0,0,1,0,3.74l-11.83,6.82a2.12,2.12,0,0,1-2.15,0l-12.26-7.07A2.16,2.16,0,0,1,161.82,315.76Z"/><path class="cls-2" d="M139.18,302.69,151,295.86a2.19,2.19,0,0,1,2.16,0l12.26,7.08a2.16,2.16,0,0,1,0,3.74L153.6,313.5a2.14,2.14,0,0,1-2.16,0l-12.26-7.08A2.15,2.15,0,0,1,139.18,302.69Z"/><path class="cls-6" d="M116.54,289.62l11.82-6.83a2.19,2.19,0,0,1,2.16,0l12.26,7.08a2.16,2.16,0,0,1,0,3.74L131,300.43a2.14,2.14,0,0,1-2.16,0l-12.26-7.08A2.15,2.15,0,0,1,116.54,289.62Z"/><path class="cls-4" d="M185,354.65l11.82-6.83a2.19,2.19,0,0,1,2.16,0l12.26,7.08a2.16,2.16,0,0,1,0,3.74l-11.82,6.82a2.14,2.14,0,0,1-2.16,0L185,358.39A2.16,2.16,0,0,1,185,354.65Z"/><path class="cls-4" d="M207.08,341.89l11.82-6.83a2.17,2.17,0,0,1,2.15,0l12.26,7.08a2.16,2.16,0,0,1,0,3.74l-11.82,6.82a2.14,2.14,0,0,1-2.16,0l-12.25-7.07A2.16,2.16,0,0,1,207.08,341.89Z"/><path class="cls-3" d="M140.82,380.2l33.92-19.58a2.14,2.14,0,0,1,2.16,0l12.21,7a2.17,2.17,0,0,1,0,3.74L155.18,391a2.19,2.19,0,0,1-2.16,0l-12.2-7.05A2.16,2.16,0,0,1,140.82,380.2Z"/><path class="cls-3" d="M176.9,360.62a2.14,2.14,0,0,0-2.16,0L140.82,380.2a2.1,2.1,0,0,0-.73.72,3.24,3.24,0,0,0,.35.27l12.21,7.05a2.19,2.19,0,0,0,2.16,0l33.92-19.59a2.07,2.07,0,0,0,.73-.71,2.39,2.39,0,0,0-.35-.28Z"/><path class="cls-8" d="M143.44,290.49a2.69,2.69,0,0,0-.27-.32A2.69,2.69,0,0,1,143.44,290.49Z"/><path class="cls-8" d="M143.44,290.49a2.21,2.21,0,0,1-.66.63L131,297.94a2.14,2.14,0,0,1-2.16,0l-12.26-7.08a2.07,2.07,0,0,1-.66-.62,2.13,2.13,0,0,0,.66,3.11l12.26,7.08a2.14,2.14,0,0,0,2.16,0l11.82-6.82A2.16,2.16,0,0,0,143.44,290.49Z"/><path class="cls-8" d="M116.15,289.92a2,2,0,0,0-.27.32A2.69,2.69,0,0,1,116.15,289.92Z"/><path class="cls-8" d="M121.34,303.25a2.07,2.07,0,0,0-.28-.32A2.07,2.07,0,0,1,121.34,303.25Z"/><path class="cls-3" d="M121.34,303.25a2.14,2.14,0,0,1-.67.63l-11.82,6.82a2.14,2.14,0,0,1-2.16,0l-12.25-7.08a2,2,0,0,1-.67-.62,2.15,2.15,0,0,0,.67,3.12l12.25,7.07a2.14,2.14,0,0,0,2.16,0l11.82-6.82A2.15,2.15,0,0,0,121.34,303.25Z"/><path class="cls-8" d="M94.05,302.68a2.07,2.07,0,0,0-.28.32A2.07,2.07,0,0,1,94.05,302.68Z"/><path class="cls-8" d="M99.23,316a2,2,0,0,0-.27-.32A2.69,2.69,0,0,1,99.23,316Z"/><path class="cls-3" d="M99.23,316a2.07,2.07,0,0,1-.66.62l-11.82,6.82a2.14,2.14,0,0,1-2.16,0l-12.26-7.07a2.21,2.21,0,0,1-.66-.63,2.16,2.16,0,0,0,.66,3.12L84.59,326a2.14,2.14,0,0,0,2.16,0l11.82-6.82A2.13,2.13,0,0,0,99.23,316Z"/><path class="cls-8" d="M71.94,315.44a2.69,2.69,0,0,0-.27.32A2.69,2.69,0,0,1,71.94,315.44Z"/><path class="cls-8" d="M77.13,328.78a2.16,2.16,0,0,0-.27-.33A2.16,2.16,0,0,1,77.13,328.78Z"/><path class="cls-3" d="M77.13,328.78a2.07,2.07,0,0,1-.66.62l-11.82,6.83a2.19,2.19,0,0,1-2.16,0l-12.26-7.08a2.21,2.21,0,0,1-.66-.63,2.14,2.14,0,0,0,.66,3.12l12.26,7.08a2.19,2.19,0,0,0,2.16,0l11.82-6.83A2.15,2.15,0,0,0,77.13,328.78Z"/><path class="cls-8" d="M49.84,328.2a2,2,0,0,0-.27.32A2.69,2.69,0,0,1,49.84,328.2Z"/><path class="cls-4" d="M166.08,303.56a2.69,2.69,0,0,0-.27-.32A2.69,2.69,0,0,1,166.08,303.56Z"/><path class="cls-4" d="M166.08,303.56a2.21,2.21,0,0,1-.66.63L153.6,311a2.14,2.14,0,0,1-2.16,0l-12.26-7.08a2.22,2.22,0,0,1-.67-.62,2.14,2.14,0,0,0,.67,3.11l12.26,7.08a2.14,2.14,0,0,0,2.16,0l11.82-6.82A2.16,2.16,0,0,0,166.08,303.56Z"/><path class="cls-4" d="M138.79,303a2,2,0,0,0-.27.32A2.69,2.69,0,0,1,138.79,303Z"/><path class="cls-4" d="M144,316.32a2.07,2.07,0,0,0-.28-.32A2.79,2.79,0,0,1,144,316.32Z"/><path class="cls-4" d="M144,316.32a2,2,0,0,1-.67.63l-11.82,6.82a2.14,2.14,0,0,1-2.16,0l-12.25-7.07a2.14,2.14,0,0,1-.67-.63,2.15,2.15,0,0,0,.67,3.12l12.25,7.07a2.14,2.14,0,0,0,2.16,0l11.82-6.82A2.15,2.15,0,0,0,144,316.32Z"/><path class="cls-4" d="M116.69,315.75a2.07,2.07,0,0,0-.28.32A2.07,2.07,0,0,1,116.69,315.75Z"/><path class="cls-4" d="M121.87,329.08a2,2,0,0,0-.27-.32A2.69,2.69,0,0,1,121.87,329.08Z"/><path class="cls-4" d="M121.87,329.09a2.07,2.07,0,0,1-.66.62l-11.82,6.82a2.14,2.14,0,0,1-2.16,0L95,329.46a2.21,2.21,0,0,1-.66-.63A2.16,2.16,0,0,0,95,332L107.23,339a2.19,2.19,0,0,0,2.16,0l11.82-6.83A2.13,2.13,0,0,0,121.87,329.09Z"/><path class="cls-4" d="M94.58,328.51a2.69,2.69,0,0,0-.27.32A2.69,2.69,0,0,1,94.58,328.51Z"/><path class="cls-4" d="M99.77,341.85a1.69,1.69,0,0,0-.27-.32A2.08,2.08,0,0,1,99.77,341.85Z"/><path class="cls-4" d="M99.77,341.85a2.07,2.07,0,0,1-.66.62L87.29,349.3a2.19,2.19,0,0,1-2.16,0l-12.26-7.08a2.13,2.13,0,0,1-.67-.63,2.15,2.15,0,0,0,.67,3.12l12.26,7.08a2.19,2.19,0,0,0,2.16,0L99.11,345A2.15,2.15,0,0,0,99.77,341.85Z"/><path class="cls-4" d="M72.48,341.27a2.79,2.79,0,0,0-.28.32C72.29,341.48,72.38,341.37,72.48,341.27Z"/><path class="cls-4" d="M188.72,316.63a2.69,2.69,0,0,0-.27-.32A2.69,2.69,0,0,1,188.72,316.63Z"/><path class="cls-4" d="M188.72,316.63a2.21,2.21,0,0,1-.66.63l-11.83,6.82a2.12,2.12,0,0,1-2.15,0L161.82,317a2.22,2.22,0,0,1-.67-.62,2.15,2.15,0,0,0,.67,3.12l12.26,7.07a2.12,2.12,0,0,0,2.15,0l11.83-6.82A2.16,2.16,0,0,0,188.72,316.63Z"/><path class="cls-4" d="M161.43,316.06a2.79,2.79,0,0,0-.28.32C161.24,316.27,161.33,316.16,161.43,316.06Z"/><path class="cls-4" d="M166.62,329.39a2.79,2.79,0,0,0-.28-.32C166.44,329.17,166.53,329.28,166.62,329.39Z"/><path class="cls-4" d="M166.62,329.4a2.11,2.11,0,0,1-.67.62l-11.82,6.82a2.14,2.14,0,0,1-2.16,0l-12.26-7.07a2.21,2.21,0,0,1-.66-.63,2.16,2.16,0,0,0,.66,3.12L152,339.33a2.14,2.14,0,0,0,2.16,0L166,332.51A2.14,2.14,0,0,0,166.62,329.4Z"/><path class="cls-4" d="M139.32,328.82a2.69,2.69,0,0,0-.27.32A2.69,2.69,0,0,1,139.32,328.82Z"/><path class="cls-4" d="M144.51,342.16a2.16,2.16,0,0,0-.27-.33A2.16,2.16,0,0,1,144.51,342.16Z"/><path class="cls-4" d="M144.51,342.16a2.07,2.07,0,0,1-.66.62L132,349.61a2.19,2.19,0,0,1-2.16,0l-12.26-7.08a2.21,2.21,0,0,1-.66-.63,2.15,2.15,0,0,0,.66,3.12l12.26,7.08a2.19,2.19,0,0,0,2.16,0l11.82-6.83A2.14,2.14,0,0,0,144.51,342.16Z"/><path class="cls-4" d="M117.22,341.58a2.69,2.69,0,0,0-.27.32A2.69,2.69,0,0,1,117.22,341.58Z"/><path class="cls-4" d="M122.41,354.92a1.69,1.69,0,0,0-.27-.32A2.08,2.08,0,0,1,122.41,354.92Z"/><path class="cls-4" d="M122.41,354.92a2.07,2.07,0,0,1-.66.62l-11.83,6.83a2.17,2.17,0,0,1-2.15,0l-12.26-7.08a2.11,2.11,0,0,1-.67-.62,2.14,2.14,0,0,0,.67,3.11l12.26,7.08a2.17,2.17,0,0,0,2.15,0L121.75,358A2.15,2.15,0,0,0,122.41,354.92Z"/><path class="cls-4" d="M95.12,354.34a2.79,2.79,0,0,0-.28.32A2.79,2.79,0,0,1,95.12,354.34Z"/><path class="cls-4" d="M211.36,329.7a2.07,2.07,0,0,0-.28-.32A2.07,2.07,0,0,1,211.36,329.7Z"/><path class="cls-4" d="M211.36,329.7a2,2,0,0,1-.67.63l-11.82,6.82a2.12,2.12,0,0,1-2.15,0l-12.26-7.07a2.14,2.14,0,0,1-.67-.63,2.15,2.15,0,0,0,.67,3.12l12.26,7.07a2.12,2.12,0,0,0,2.15,0l11.82-6.82A2.15,2.15,0,0,0,211.36,329.7Z"/><path class="cls-4" d="M184.07,329.13a2.07,2.07,0,0,0-.28.32A2.79,2.79,0,0,1,184.07,329.13Z"/><path class="cls-4" d="M189.25,342.46a2,2,0,0,0-.27-.32A2.69,2.69,0,0,1,189.25,342.46Z"/><path class="cls-4" d="M189.26,342.47a2.22,2.22,0,0,1-.67.62l-11.82,6.82a2.14,2.14,0,0,1-2.16,0l-12.26-7.07a2.21,2.21,0,0,1-.66-.63,2.16,2.16,0,0,0,.66,3.12l12.26,7.08a2.19,2.19,0,0,0,2.16,0l11.82-6.83A2.14,2.14,0,0,0,189.26,342.47Z"/><path class="cls-4" d="M162,341.89a2.69,2.69,0,0,0-.27.32A2.69,2.69,0,0,1,162,341.89Z"/><path class="cls-4" d="M167.15,355.23a1.69,1.69,0,0,0-.27-.32A2.08,2.08,0,0,1,167.15,355.23Z"/><path class="cls-4" d="M167.15,355.23a2.07,2.07,0,0,1-.66.62l-11.82,6.83a2.19,2.19,0,0,1-2.16,0l-12.26-7.08a2.1,2.1,0,0,1-.66-.63,2.14,2.14,0,0,0,.66,3.12l12.26,7.08a2.19,2.19,0,0,0,2.16,0l11.82-6.83A2.15,2.15,0,0,0,167.15,355.23Z"/><path class="cls-4" d="M139.86,354.65a2,2,0,0,0-.27.32A2.69,2.69,0,0,1,139.86,354.65Z"/><path class="cls-4" d="M145.05,368a1.69,1.69,0,0,0-.28-.32A1.69,1.69,0,0,1,145.05,368Z"/><path class="cls-4" d="M145.05,368a2,2,0,0,1-.67.62l-11.82,6.83a2.17,2.17,0,0,1-2.15,0l-12.26-7.08a2,2,0,0,1-.67-.62,2.14,2.14,0,0,0,.67,3.11l12.26,7.08a2.17,2.17,0,0,0,2.15,0l11.82-6.83A2.14,2.14,0,0,0,145.05,368Z"/><path class="cls-4" d="M117.76,367.41a1.75,1.75,0,0,0-.28.33A2.88,2.88,0,0,1,117.76,367.41Z"/><path class="cls-9" d="M143.44,290.49a2.69,2.69,0,0,0-.27-.32A2.69,2.69,0,0,1,143.44,290.49Z"/><path class="cls-2" d="M143.44,290.49a2.21,2.21,0,0,1-.66.63L131,297.94a2.14,2.14,0,0,1-2.16,0l-12.26-7.08a2.07,2.07,0,0,1-.66-.62,2.13,2.13,0,0,0,.66,3.11l12.26,7.08a2.14,2.14,0,0,0,2.16,0l11.82-6.82A2.16,2.16,0,0,0,143.44,290.49Z"/><path class="cls-9" d="M116.15,289.92a2,2,0,0,0-.27.32A2.69,2.69,0,0,1,116.15,289.92Z"/><path class="cls-4" d="M211.36,329.7a2.07,2.07,0,0,0-.28-.32A2.07,2.07,0,0,1,211.36,329.7Z"/><path class="cls-4" d="M211.36,329.7a2,2,0,0,1-.67.63l-11.82,6.82a2.12,2.12,0,0,1-2.15,0l-12.26-7.07a2.14,2.14,0,0,1-.67-.63,2.15,2.15,0,0,0,.67,3.12l12.26,7.07a2.12,2.12,0,0,0,2.15,0l11.82-6.82A2.15,2.15,0,0,0,211.36,329.7Z"/><path class="cls-4" d="M184.07,329.13a2.07,2.07,0,0,0-.28.32A2.79,2.79,0,0,1,184.07,329.13Z"/><path class="cls-9" d="M189.25,342.46a2,2,0,0,0-.27-.32A2.69,2.69,0,0,1,189.25,342.46Z"/><path class="cls-4" d="M189.26,342.47a2.22,2.22,0,0,1-.67.62l-11.82,6.82a2.14,2.14,0,0,1-2.16,0l-12.26-7.07a2.21,2.21,0,0,1-.66-.63,2.16,2.16,0,0,0,.66,3.12l12.26,7.08a2.19,2.19,0,0,0,2.16,0l11.82-6.83A2.14,2.14,0,0,0,189.26,342.47Z"/><path class="cls-9" d="M162,341.89a2.69,2.69,0,0,0-.27.32A2.69,2.69,0,0,1,162,341.89Z"/><path class="cls-3" d="M234,342.76a2.07,2.07,0,0,0-.28-.32A2.79,2.79,0,0,1,234,342.76Z"/><path class="cls-3" d="M234,342.76a2.14,2.14,0,0,1-.67.63l-11.82,6.82a2.14,2.14,0,0,1-2.16,0l-12.25-7.08a2,2,0,0,1-.67-.62,2.14,2.14,0,0,0,.67,3.11l12.25,7.08a2.14,2.14,0,0,0,2.16,0l11.82-6.82A2.15,2.15,0,0,0,234,342.76Z"/><path class="cls-3" d="M206.69,342.19a2.07,2.07,0,0,0-.28.32A2.07,2.07,0,0,1,206.69,342.19Z"/><path class="cls-3" d="M211.87,355.52a2,2,0,0,0-.27-.32A2.69,2.69,0,0,1,211.87,355.52Z"/><path class="cls-3" d="M211.87,355.52a2,2,0,0,1-.66.63L199.39,363a2.14,2.14,0,0,1-2.16,0L185,355.9a2.21,2.21,0,0,1-.66-.63,2.16,2.16,0,0,0,.66,3.12l12.26,7.07a2.14,2.14,0,0,0,2.16,0l11.82-6.82A2.14,2.14,0,0,0,211.87,355.52Z"/><path class="cls-3" d="M184.58,355a2.69,2.69,0,0,0-.27.32A2.69,2.69,0,0,1,184.58,355Z"/><path class="cls-2" d="M299.47,303.37v-.06h0Z"/><path class="cls-2" d="M297.64,308.09l-5.45,5.56h0l-29.6,30.14L158.74,403.74a9.25,9.25,0,0,1-9.27,0L26.79,332.91A3.56,3.56,0,0,1,25,330.23l-.05,0v10.41a3.59,3.59,0,0,0,1.81,3.14l122.68,70.83a9.3,9.3,0,0,0,9.27,0l103.84-60,29.6-30.13h0l5.45-5.55a6.33,6.33,0,0,0,1.83-4.73V303.65A6.3,6.3,0,0,1,297.64,308.09Z"/><path class="cls-2" d="M299.47,303.37v-.06h0Z"/><path class="cls-2" d="M299.47,303.37v-.06h0Z"/><path class="cls-4" d="M292.19,313.65h0l-29.6,30.14L158.74,403.74a9.32,9.32,0,0,1-3.16,1.11V415.7a9.32,9.32,0,0,0,3.16-1.11l103.84-60,29.6-30.13h0l5.45-5.55a6.33,6.33,0,0,0,1.83-4.73V303.65a6.3,6.3,0,0,1-1.83,4.44Z"/><polygon class="cls-2" points="266.27 398.37 260.64 395.12 257.83 399.12 260.64 406.38 266.27 409.63 269.09 405.62 266.27 398.37"/><polygon class="cls-5" points="389.52 320.75 336.44 351.39 336.36 351.39 257.62 396.86 263.25 411.37 305.87 386.76 305.88 386.8 397.07 334.15 408.43 318.98 389.52 320.75"/><polygon class="cls-2" points="391.92 325.87 386.29 322.62 383.47 326.62 386.29 333.88 391.92 337.13 394.73 333.12 391.92 325.87"/><path class="cls-2" d="M281.68,391.87h0a7.69,7.69,0,0,0-10.51-2.82l-24.94,14.38h0L254,416.71h0l24.85-14.34A7.69,7.69,0,0,0,281.68,391.87Z"/><polygon class="cls-2" points="257.73 403.3 391.92 325.87 392.42 322.22 386.29 322.62 252.1 400.05 257.73 403.3"/><polygon class="cls-4" points="257.73 403.3 391.92 325.87 396.72 327.81 394.73 333.12 260.55 410.55 257.73 403.3"/><polygon class="cls-3" points="260.55 410.55 257.73 414.56 391.92 337.13 396.72 334.36 394.73 333.12 260.55 410.55"/><path class="cls-4" d="M244.73,406.9a12,12,0,0,0,5.43,9.42c3,1.73,5.44.33,5.44-3.14a12,12,0,0,0-5.44-9.42c-1.54-.89-2.94-.95-3.93-.33A3.89,3.89,0,0,0,244.73,406.9Z"/><polygon class="cls-3" points="401.55 319.63 403.91 320.85 404.64 324.04 408.43 318.98 401.55 319.63"/><path class="cls-2" d="M255.6,413.18a12,12,0,0,0-5.44-9.42c-1.54-.89-2.94-.95-3.93-.33h0L243,405.27a7.7,7.7,0,1,0,7.69,13.34l3.28-1.89v0A3.8,3.8,0,0,0,255.6,413.18Z"/><path class="cls-4" d="M261.47,409.79a12,12,0,0,0-5.44-9.41c-1.55-.9-2.94-1-3.93-.33h0l-1.93,1.11h0L247,403l-.35.22a4,4,0,0,1,3.54.53,12,12,0,0,1,5.44,9.42,3.92,3.92,0,0,1-1.46,3.43c.17-.08.35-.17.52-.27l1.93-1.11h0l3.29-1.9h0A3.83,3.83,0,0,0,261.47,409.79Z"/><path class="cls-3" d="M256.59,415.23h0l3.29-1.9h0a3.83,3.83,0,0,0,1.6-3.53,9.31,9.31,0,0,0-.42-2.65l-5.86,3.39a9.54,9.54,0,0,1,.41,2.65,3.92,3.92,0,0,1-1.46,3.43c.17-.08.35-.17.52-.27Z"/><rect class="cls-2" x="-4.67" y="209.07" width="107.58" height="36.35" rx="18.18" ry="18.18" transform="translate(-106.07 54.13) rotate(-29.68)"/><path class="cls-4" d="M89.07,225.41a18.19,18.19,0,0,0,6.79-24.8h0c-.08-.14-.18-.27-.27-.42L2.16,253.44c.08.14.14.3.23.44a18.17,18.17,0,0,0,24.79,6.8Z"/><path class="cls-3" d="M104.66,182.84l11,19.24L95.9,213.32a11.07,11.07,0,0,1-15.11-4.14h0a11.08,11.08,0,0,1,4.14-15.1Z"/><path class="cls-9" d="M104.66,182.84,84.93,194.08a11.07,11.07,0,0,0-1.09,18.53,15.82,15.82,0,0,0,2.26-1l26.37-15Z"/><rect class="cls-9" x="90.9" y="186.48" width="18.91" height="15.77" transform="translate(-83.07 75.19) rotate(-29.68)"/><rect class="cls-3" x="92.48" y="186.06" width="18.91" height="22.15" transform="translate(-84.24 76.33) rotate(-29.68)"/><path class="cls-4" d="M104.66,182.84,84.93,194.08a11.07,11.07,0,0,0-1.09,18.53,15.82,15.82,0,0,0,2.26-1l26.37-15Z"/><rect class="cls-3" x="90.9" y="186.48" width="18.91" height="15.77" transform="translate(-83.07 75.19) rotate(-29.68)"/><polygon class="cls-3" points="212.09 238.73 193.87 228.21 173.64 239.88 191.87 250.41 212.09 238.73"/><path class="cls-10" d="M96,120.43c0,42.42,29.78,94,66.51,115.21s66.52,4,66.52-38.41-29.78-94-66.52-115.2c-18.89-10.91-35.95-11.66-48.06-4C103,85.18,96,99.83,96,120.43Zm120,69.26c0,34.08-23.93,47.89-53.44,30.85S109,162.06,109,128,133,80.08,162.49,97.12,215.93,155.61,215.93,189.69Z"/><path class="cls-5" d="M162.49,220.54C133,203.5,109,162.06,109,128c0-12.35,3.16-22,8.57-28.55-14.7,2.51-24.43,16-24.43,37.71,0,34.08,23.92,75.52,53.44,92.56,18.82,10.87,35.35,9.17,44.87-2.3C183.14,228.82,173.18,226.72,162.49,220.54Z"/><path class="cls-2" d="M109,128c0-12.35,3.16-22,8.57-28.55-14.7,2.51-24.43,16-24.43,37.71a96,96,0,0,0,5.91,31.63L115,159.61A96,96,0,0,1,109,128Z"/><path class="cls-3" d="M94.29,125.21,110.18,116a37.15,37.15,0,0,1,7.43-16.54C105.83,101.44,97.24,110.5,94.29,125.21Z"/><path class="cls-3" d="M162.48,82c-18.89-10.91-35.95-11.66-48.06-4a32.52,32.52,0,0,0-6.22,5.13c10.85-2.62,24.1-.2,38.42,8.07,36.73,21.21,66.51,72.79,66.51,115.2,0,16.53-4.54,29.21-12.23,37.3,17-4.1,28.1-20.57,28.1-46.46C229,154.82,199.22,103.24,162.48,82Z"/><path class="cls-5" d="M162.48,82c-18.89-10.91-35.95-11.66-48.06-4a32.52,32.52,0,0,0-6.22,5.13c10.85-2.62,24.1-.2,38.42,8.07,36.73,21.21,66.51,72.79,66.51,115.2,0,16.53-4.54,29.21-12.23,37.3,17-4.1,28.1-20.57,28.1-46.46C229,154.82,199.22,103.24,162.48,82Z"/><path class="cls-3" d="M229,197.23c0-12.13-2.45-25-6.79-37.73l-15.85,9.22c4.33,12.69,6.77,25.56,6.77,37.67,0,16.53-4.54,29.21-12.23,37.3C217.9,239.59,229,223.12,229,197.23Z"/><polygon class="cls-5" points="134.72 87.32 116.49 76.8 98.56 87.15 116.78 97.67 134.72 87.32"/><path class="cls-4" d="M80.1,129.59c0,42.42,29.78,94,66.52,115.21s66.51,4,66.51-38.41-29.78-94-66.51-115.2c-18.9-10.91-36-11.66-48.06-4C87.12,94.34,80.1,109,80.1,129.59Zm120,69.26c0,34.08-23.93,47.89-53.44,30.85s-53.44-58.48-53.44-92.56,23.92-47.9,53.44-30.86S200.06,164.77,200.06,198.85Z"/><path class="cls-3" d="M229,197.23c0-12.13-2.45-25-6.79-37.73l-15.85,9.22c4.33,12.69,6.77,25.56,6.77,37.67,0,16.53-4.54,29.21-12.23,37.3C217.9,239.59,229,223.12,229,197.23Z"/><path class="cls-2" d="M222.21,159.5l-15.85,9.22a119.24,119.24,0,0,1,6.75,36.11L229,195.61A119.59,119.59,0,0,0,222.21,159.5Z"/></svg>