<svg id="Layer_1" data-name="Layer 1" xmlns="http://www.w3.org/2000/svg" viewBox="0 0 63 65"><defs><style>.cls-1{opacity:0.3;}.cls-2{fill:#3dafcc;}.cls-3{fill:#1f282c;}</style></defs><title>optimizatorArtboard 29</title><g class="cls-1"><path class="cls-2" d="M53.94,32.5a23,23,0,0,0-.38-4l8.63-6.44L56,11.37,39.64,27.76a9.24,9.24,0,0,1,1.19,4.55,9.33,9.33,0,0,1-9.33,9.33A9.21,9.21,0,0,1,27,40.45L17.45,50a22.17,22.17,0,0,0,6.49,3.65L25.2,64.3H37.79l1.27-10.7a22.31,22.31,0,0,0,6.94-4l9.9,4.25L62.19,43l-8.63-6.44A23,23,0,0,0,53.94,32.5Z"/></g><path class="cls-2" d="M31.5,18.08A14.23,14.23,0,1,1,17.27,32.31h4.9A9.33,9.33,0,1,0,31.5,23v4l-7.83-6.42,7.83-6.41v4"/><path class="cls-3" d="M37.79,64.8H25.2a.5.5,0,0,1-.49-.44L23.48,54a22.63,22.63,0,0,1-6.57-3.79L7.3,54.31a.5.5,0,0,1-.63-.21L.38,43.2a.5.5,0,0,1,.86-.5L7.32,53.22l9.48-4.08a.52.52,0,0,1,.52.08,21.77,21.77,0,0,0,6.79,3.91.5.5,0,0,1,.33.41L25.65,63.8h11.7l1.21-10.26a.49.49,0,0,1,.56-.43.5.5,0,0,1,.44.55l-1.27,10.7A.5.5,0,0,1,37.79,64.8ZM55.9,54.35a.45.45,0,0,1-.2,0l-9.89-4.25a.5.5,0,1,1,.39-.92l9.48,4.08,5.86-10.13-8.28-6.18a.49.49,0,0,1-.19-.49,22.73,22.73,0,0,0,.37-3.92,22.73,22.73,0,0,0-.37-3.92.49.49,0,0,1,.19-.49l8.28-6.17L55.68,11.78,46.2,15.86a.52.52,0,0,1-.52-.08,21.77,21.77,0,0,0-6.79-3.91.51.51,0,0,1-.33-.41L37.35,1.2H25.65l-.74,6.28a.49.49,0,0,1-.56.43.5.5,0,0,1-.44-.55l.8-6.72A.5.5,0,0,1,25.2.2H37.79a.5.5,0,0,1,.5.44L39.52,11a22.76,22.76,0,0,1,6.57,3.79l9.61-4.13a.5.5,0,0,1,.63.21l6.29,10.9a.5.5,0,0,1-.13.65L54.1,28.71a21.29,21.29,0,0,1,0,7.58l8.39,6.26a.5.5,0,0,1,.13.65L56.33,54.1A.5.5,0,0,1,55.9,54.35ZM5.84,39.7a.5.5,0,0,1-.3-.9L8.9,36.29a21.29,21.29,0,0,1,0-7.58L.51,22.45a.5.5,0,0,1-.13-.65L6.67,10.9a.5.5,0,0,1,.63-.21l9.61,4.13a22.56,22.56,0,0,1,3.51-2.38.5.5,0,1,1,.48.87,21.5,21.5,0,0,0-3.58,2.47.52.52,0,0,1-.52.08L7.32,11.78,1.46,21.92l8.28,6.17a.49.49,0,0,1,.19.49,22.73,22.73,0,0,0-.37,3.92,22.73,22.73,0,0,0,.37,3.92.49.49,0,0,1-.19.49L6.13,39.6A.46.46,0,0,1,5.84,39.7Z"/><path class="cls-3" d="M31.5,27.45a.54.54,0,0,1-.32-.11l-7.83-6.42a.53.53,0,0,1-.18-.39.49.49,0,0,1,.18-.38l7.83-6.42a.5.5,0,0,1,.82.39v4a.5.5,0,0,1-1,0V15.17l-6.54,5.36L31,25.89V23a.5.5,0,0,1,1,0v4a.49.49,0,0,1-.29.45A.5.5,0,0,1,31.5,27.45Z"/><path class="cls-3" d="M31.5,42.14a9.84,9.84,0,0,1-9.83-9.83.5.5,0,0,1,1,0,8.83,8.83,0,1,0,8.83-8.83A.5.5,0,0,1,31,23a.5.5,0,0,1,.5-.5,9.83,9.83,0,0,1,0,19.66Z"/><path class="cls-3" d="M17.29,33.6a.51.51,0,0,1-.5-.47c0-.27,0-.54,0-.82a.51.51,0,0,1,.5-.5.5.5,0,0,1,.5.5c0,.26,0,.51,0,.76a.5.5,0,0,1-.47.53Z"/><path class="cls-3" d="M31.5,47a14.75,14.75,0,0,1-13.92-9.9.5.5,0,0,1,1-.32A13.73,13.73,0,1,0,35.72,19.24a.49.49,0,0,1-.32-.63.49.49,0,0,1,.62-.32A14.73,14.73,0,0,1,31.5,47Z"/></svg>