<svg id="Layer_1" data-name="Layer 1" xmlns="http://www.w3.org/2000/svg" viewBox="0 0 290 366"><defs><style>.cls-1{fill:#8dd8eb;}.cls-2{fill:#98daeb;}.cls-3{fill:#c8f1fa;}.cls-4{fill:#515c66;}.cls-5{fill:#3dafcc;}.cls-6{fill:#fff;}</style></defs><title>optimizatorArtboard 13</title><path class="cls-1" d="M184.57,294.71a2.5,2.5,0,0,1-1.24-4.67L201.06,280c12.68-6.75,26.28-6.7,39.44-6.65s25.31.1,36.12-6.15c6-3.48,8.84-7.79,7.73-11.82-2.15-7.77-18.92-16.63-59.1-16-26.44.39-44.46,4.95-63.55,9.77-10.87,2.75-22.1,5.59-35.51,7.85-28.56,4.81-49.74-.27-56.66-13.6-3.74-7.18-2.3-15.72,3.66-21.76C78,216.69,85.31,212.86,93,208.8c17.66-9.27,37.68-19.78,37.68-46.66V131.06a2.5,2.5,0,0,1,5,0v31.08c0,29.9-22.38,41.65-40.35,51.09C88,217.1,81,220.76,76.75,225.08,72.28,229.61,71.21,235.71,74,241c6.92,13.31,31.09,14.39,51.4,11,13.2-2.23,24.35-5,35.12-7.77,19.37-4.9,37.67-9.52,64.69-9.92,36.51-.56,60.44,6.82,64,19.71,1.74,6.3-2,12.84-10.05,17.48-12,6.92-25.53,6.87-38.64,6.82-12.54-.05-25.5-.09-37,6L185.8,294.39A2.48,2.48,0,0,1,184.57,294.71Z"/><path class="cls-2" d="M200.42,308v5.34s-1.55,3.37-2.59.64c-4.08-10.65-6.1-9.64-6.1-9.64l4.18.35Z"/><polygon class="cls-2" points="62.37 324.42 60.66 330.99 65.75 333.37 66.68 326.63 62.37 324.42"/><path class="cls-2" d="M170.64,288l21.46,12.39c12.52,7.23,11,19.85-3.5,28.2l-53.18,30.7c-18.71,10.44-40.55,6.81-53.06-.42l-9.2-5.31c-12.52-7.23-19-24.49-4.53-32.83L121.81,290C136.26,281.64,158.12,280.74,170.64,288Z"/><path class="cls-3" d="M126,346.55c9.88-7.45,13.38-17.95,35.35-27.12,14.76-6.16,30.32-2.74,38.15-9.39,3.52-3-3.53-12.46-11.22-16.9l-11.82-6.82c-14.93-8.27-40.59-12.4-67.73-1.74C84.49,294.1,79,301.48,69.56,312c-8.81,9.8-12.41,22.34.59,31.1l10.93,6.31C89.41,354.18,110.51,358.23,126,346.55Z"/><path class="cls-3" d="M126,346.55c9.88-7.45,13.38-17.95,35.35-27.12,14.76-6.16,30.32-2.74,38.15-9.39,3.52-3-3.53-12.46-11.22-16.9l-11.82-6.82c-14.93-8.27-40.59-12.4-67.73-1.74C84.49,294.1,79,301.48,69.56,312c-8.81,9.8-12.41,22.34.59,31.1l10.93,6.31C89.41,354.18,110.51,358.23,126,346.55Z"/><path class="cls-2" d="M180.75,315.17c7.66-.85,14.4-1.44,18.75-5.13,3.52-3-3.53-12.46-11.22-16.9l-11.82-6.82c-12.65-7-33-11-55.42-5.63Z"/><path class="cls-4" d="M177.39,291.28l-4.1-2.36-4.48-.58,5.35,3.08C175.29,291.36,176.38,291.31,177.39,291.28Z"/><path class="cls-5" d="M164.41,292.49a83.53,83.53,0,0,1,10-1.08c-.11-4.17-1.76-7-4.34-8.12-2.24-1-5.1-.52-8.38,1.21-4.18,2.22-7.76,6.5-10.05,11.28A118.4,118.4,0,0,1,164.41,292.49Z"/><path class="cls-6" d="M151.6,295.78c2.29-4.78,5.87-9.06,10.05-11.28,3.28-1.73,6.14-2.18,8.38-1.21.13.06.25.14.37.2l0,0s-3.82-2.31-4.59-2.71c-3.53-1.83-7.76-.61-10.9,1.36A24.66,24.66,0,0,0,146,292.56Z"/><polygon class="cls-4" points="151.59 295.78 146 292.56 141.52 293.83 147.1 297.06 151.59 295.78"/><path class="cls-4" d="M200.05,309.37a2.49,2.49,0,0,1-.55.67c-7.83,6.65-23.39,2.3-38.15,8.46-11.64,4.86-18.1,10.09-23.06,15.05-10.72,10.82-17.59,25.66-40.36,31,11.48,2.35,25.16,1.58,37.49-5.3l53.18-30.7C198.06,323.08,202,315.79,200.05,309.37Z"/><polygon class="cls-3" points="218.36 186.78 207.08 180.23 179.03 196.42 190.3 202.98 218.36 186.78"/><polygon class="cls-3" points="221.7 148.79 210.42 142.24 182.37 158.44 193.64 164.99 221.7 148.79"/><path class="cls-3" d="M216.85,156.5c0-7.69-2.94-12.89-7.59-14.9-3.89-1.68-9-1.12-14.57,2.11-12.23,7.06-22.15,24.24-22.15,38.37,0,7.06,2.48,12,6.49,14.34s9.54,2,15.66-1.55C206.93,187.81,216.85,170.63,216.85,156.5Z"/><path class="cls-2" d="M227.65,162.8c0-7.68-2.93-12.88-7.58-14.89-3.9-1.68-9-1.12-14.57,2.1-12.24,7.07-22.16,24.25-22.16,38.38,0,7.06,2.48,12,6.49,14.34s9.55,2,15.67-1.55C217.73,194.11,227.65,176.93,227.65,162.8Z"/><polygon class="cls-3" points="168.91 37.2 109.13 2.68 87.82 14.98 147.61 49.5 168.91 37.2"/><polygon class="cls-5" points="173.75 119.18 113.97 84.66 92.66 96.96 152.45 131.48 173.75 119.18"/><path class="cls-3" d="M94,33.89C94,18.1,99.82,7.25,109.13,2.68c8.4-4.13,19.64-3.12,32,4,26,15,47.12,51.56,47.12,81.61s-21.1,42.23-47.12,27.2S94,63.94,94,33.89Z"/><path class="cls-2" d="M141.12,115.5c26,15,47.12,2.85,47.12-27.2,0-10.07-2.38-20.86-6.5-31.32l-64.36,37.4C124.35,103.11,132.46,110.5,141.12,115.5Z"/><path class="cls-5" d="M141.12,115.5c26,15,47.12,2.85,47.12-27.2a70.37,70.37,0,0,0-.68-9.51l-54.19,31.49A70.13,70.13,0,0,0,141.12,115.5Z"/><path class="cls-2" d="M72.69,46.19c0-15.79,5.83-26.65,15.13-31.21,8.4-4.13,19.64-3.13,32,4,26,15,47.12,51.57,47.12,81.62s-21.1,42.22-47.12,27.2S72.69,76.24,72.69,46.19Z"/><path class="cls-5" d="M140.86,126.8c-5.18,0-11.17-1.88-17.33-5.44-23.53-13.58-43.4-48-43.4-75.17,0-12.17,4-21.12,11-24.54A17.18,17.18,0,0,1,98.77,20c5.17,0,11.16,1.88,17.32,5.44,23.53,13.59,43.41,48,43.41,75.18C159.5,117,152.53,126.8,140.86,126.8Z"/><path class="cls-6" d="M123.53,121.36c6.16,3.56,12.15,5.44,17.33,5.44,11.67,0,18.64-9.8,18.64-26.2a73.1,73.1,0,0,0-3.41-21.07l-49,28.47A72.69,72.69,0,0,0,123.53,121.36Z"/><path class="cls-3" d="M116.09,25.42C109.93,21.86,103.94,20,98.77,20a19.7,19.7,0,0,0-2.06.11h0c-7,3.42-11,12.37-11,24.54,0,27.16,19.88,61.59,43.4,75.17,6.17,3.56,12.16,5.44,17.33,5.44.67,0,1.33,0,2-.1,7.06-3.43,11.1-12.08,11.1-24.55C159.5,73.43,139.62,39,116.09,25.42Z"/><polygon class="cls-6" points="109.72 32.66 104.28 35.8 104.28 42.57 109.72 39.43 109.72 32.66"/><polygon class="cls-5" points="141.56 73.48 136.13 76.62 136.13 83.39 141.56 80.26 141.56 73.48"/><path class="cls-6" d="M109.72,80.35l-5.1-2.94V70l5.1,2.94V67.28l-5.1-2.94V55.6l5.1,2.94V32.66l18.89,10.91c10.94,6.31,16.79,16.61,16.79,27.52S138.05,83.73,128.16,78L119.39,73v5.54L138,89.22v7.45L119.39,85.94V99.7l-9.67-5.58Zm17.09-11.94c5.85,3.37,8.7,1.21,8.7-3.64S132.58,54.69,127,51.44l-7.57-4.37V64.12Z"/><path class="cls-3" d="M144.44,63.6,123.89,75.55,128.16,78c3.55,2,6.76,3.11,9.43,3.15a12.64,12.64,0,0,0,3.51-.7c2.69-1.28,4.3-4.34,4.3-9.38A29.93,29.93,0,0,0,144.44,63.6Z"/><path class="cls-5" d="M145.4,71.09c0-.8,0-1.61-.1-2.4l-16.58,9.63C138.33,83.64,145.4,81.7,145.4,71.09Z"/><polygon class="cls-5" points="137.98 89.22 132.54 92.36 132.54 99.81 137.98 96.67 137.98 89.22"/><polygon class="cls-5" points="119.39 92.25 113.95 95.39 113.95 102.84 119.39 99.7 119.39 92.25"/><polygon class="cls-6" points="104.62 69.97 99.19 73.1 99.19 80.55 104.62 77.41 104.62 69.97"/><polygon class="cls-6" points="104.62 55.6 99.19 58.73 99.19 66.18 104.62 63.04 104.62 55.6"/><path class="cls-2" d="M104.28,83.49l-5.09-2.94V73.1l5.09,3V70.42l-5.09-2.94V58.74l5.09,2.94V35.8l18.89,10.9C134.12,53,140,63.32,140,74.23s-7.34,12.64-17.24,6.92L114,76.09v5.54l18.59,10.73v7.45L114,89.07v13.77l-9.67-5.59Zm17.09-11.94c5.85,3.37,8.7,1.21,8.7-3.64s-2.92-10.08-8.55-13.33L114,50.21V67.26Z"/><polygon class="cls-5" points="113.95 67.26 119.39 64.12 119.39 53.35 113.95 50.21 113.95 67.26"/><polygon class="cls-5" points="113.95 81.63 118.75 78.86 113.95 76.09 113.95 81.63"/><polygon class="cls-5" points="113.95 102.84 119.39 99.7 119.39 92.25 113.95 89.02 113.95 102.84"/><path class="cls-2" d="M102,287.38s19-6.69,31.95.77L121,280.69a94.3,94.3,0,0,0-12.31,3.89Q105.1,286,102,287.38Z"/><path class="cls-2" d="M157,301.44l-.77-.44Z"/><path class="cls-2" d="M157.15,301.54l-.17-.1A1,1,0,0,0,157.15,301.54Z"/><path class="cls-2" d="M159,319.53h0c.77-.34,1.56-.69,2.38-1,6.27-2.61,12.68-3.33,18.58-3.81h0l-22.78-13.15c.31.18.66.39,1.06.61C168.7,308.21,165.22,315.34,159,319.53Z"/><path class="cls-2" d="M155.3,300.48Z"/><path class="cls-2" d="M156.21,301l-.27-.15Z"/><path class="cls-2" d="M155.94,300.85l-.64-.37Z"/><path class="cls-2" d="M61.35,160.85H52.3c-11.87-6.77-31-6.77-42.83,0h-9v12h0c-.21,4.66,2.75,9.36,8.91,12.92,11.9,6.87,31.19,6.87,43.09,0,6.16-3.56,9.12-8.26,8.9-12.92h0Z"/><ellipse class="cls-3" cx="30.88" cy="160.86" rx="30.47" ry="17.59"/><path class="cls-3" d="M30.88,173.53c-6.93,0-13.65-1.64-18.42-4.51-4-2.37-6.21-5.35-6.21-8.17s2.26-5.79,6.21-8.16c4.77-2.87,11.49-4.51,18.42-4.51s13.65,1.64,18.42,4.51c4,2.37,6.22,5.35,6.22,8.17s-2.27,5.79-6.21,8.16C44.53,171.89,37.82,173.53,30.88,173.53Z"/><path class="cls-2" d="M12.46,156.44c4.77-2.86,11.49-4.51,18.42-4.51s13.65,1.65,18.42,4.51c3.08,1.85,5.12,4.07,5.88,6.29a5.92,5.92,0,0,0,.34-1.87c0-2.82-2.27-5.8-6.22-8.17-4.77-2.87-11.48-4.51-18.42-4.51s-13.65,1.64-18.42,4.51c-4,2.37-6.21,5.35-6.21,8.16a6,6,0,0,0,.34,1.88C7.35,160.51,9.38,158.29,12.46,156.44Z"/><path class="cls-2" d="M42.13,166.84a22.49,22.49,0,0,1-11.25,2.76,22.48,22.48,0,0,1-11.24-2.76c-2.42-1.45-3.8-3.27-3.8-5h0v4.62c0,1.72,1.38,3.54,3.8,5a22.48,22.48,0,0,0,11.24,2.75,22.49,22.49,0,0,0,11.25-2.75c2.41-1.45,3.8-3.27,3.8-5h0v-4.62h0C45.93,163.57,44.54,165.39,42.13,166.84Z"/><path class="cls-3" d="M42.13,156.87a22.49,22.49,0,0,0-11.25-2.76A24,24,0,0,0,21.36,156L41.5,167.18c.21-.11.43-.22.63-.34,2.41-1.45,3.8-3.27,3.8-5S44.54,158.32,42.13,156.87Z"/><ellipse class="cls-2" cx="50.13" cy="157.09" rx="30.47" ry="17.59"/><rect class="cls-2" x="19.66" y="144.58" width="60.94" height="12.03"/><ellipse class="cls-3" cx="50.13" cy="144.58" rx="30.47" ry="17.59"/><path class="cls-3" d="M50.13,157.26c-6.94,0-13.65-1.64-18.42-4.51-3.95-2.37-6.22-5.35-6.22-8.17s2.27-5.79,6.22-8.16c4.77-2.87,11.48-4.51,18.42-4.51s13.65,1.64,18.42,4.51c4,2.37,6.21,5.35,6.21,8.16s-2.26,5.8-6.21,8.17C63.78,155.62,57.06,157.26,50.13,157.26Z"/><path class="cls-2" d="M31.71,140.17c4.77-2.86,11.48-4.51,18.42-4.51s13.65,1.65,18.42,4.51c3.08,1.85,5.11,4.07,5.87,6.29a5.93,5.93,0,0,0,.34-1.88c0-2.81-2.26-5.79-6.21-8.16-4.77-2.87-11.49-4.51-18.42-4.51s-13.65,1.64-18.42,4.51c-3.95,2.37-6.22,5.35-6.22,8.16a6,6,0,0,0,.34,1.88C26.59,144.24,28.63,142,31.71,140.17Z"/><path class="cls-2" d="M61.38,150.57a22.54,22.54,0,0,1-11.25,2.76,22.49,22.49,0,0,1-11.25-2.76c-2.41-1.45-3.79-3.27-3.79-5h0v4.63c0,1.72,1.38,3.54,3.79,5A22.49,22.49,0,0,0,50.13,158a22.54,22.54,0,0,0,11.25-2.75c2.41-1.45,3.79-3.27,3.79-5h0v-4.63h0C65.17,147.3,63.79,149.12,61.38,150.57Z"/><path class="cls-3" d="M61.38,140.6a22.54,22.54,0,0,0-11.25-2.76,23.91,23.91,0,0,0-9.52,1.88l20.14,11.19c.21-.11.43-.22.63-.34,2.41-1.45,3.79-3.27,3.79-5S63.79,142.05,61.38,140.6Z"/><path class="cls-5" d="M30.88,174.22a25.29,25.29,0,0,0,7.19-1,36.66,36.66,0,0,1-9.49-3.67v4.58C29.34,174.18,30.11,174.22,30.88,174.22Z"/><path class="cls-5" d="M49.72,174.67v12.5a28.61,28.61,0,0,0,2.71-1.37c5.91-3.41,8.87-7.88,8.91-12.36A50.77,50.77,0,0,1,49.72,174.67Z"/><ellipse class="cls-2" cx="238.38" cy="196.54" rx="30.47" ry="17.59"/><rect class="cls-2" x="207.91" y="184.03" width="60.94" height="12.03"/><ellipse class="cls-3" cx="238.38" cy="184.03" rx="30.47" ry="17.59"/><path class="cls-3" d="M238.38,196.71c-6.94,0-13.65-1.64-18.43-4.51-3.94-2.38-6.21-5.35-6.21-8.17s2.27-5.79,6.21-8.16c4.78-2.87,11.49-4.52,18.43-4.52S252,173,256.8,175.87c3.95,2.37,6.21,5.35,6.21,8.16s-2.26,5.79-6.21,8.17C252,195.07,245.31,196.71,238.38,196.71Z"/><path class="cls-2" d="M220,179.62c4.78-2.87,11.49-4.51,18.43-4.51s13.64,1.64,18.42,4.51c3.08,1.85,5.11,4.07,5.87,6.29A6,6,0,0,0,263,184c0-2.81-2.26-5.79-6.21-8.16-4.78-2.87-11.49-4.52-18.42-4.52S224.73,173,220,175.87c-3.94,2.37-6.21,5.35-6.21,8.16a6,6,0,0,0,.34,1.88C214.84,183.69,216.88,181.47,220,179.62Z"/><path class="cls-2" d="M249.62,190a24.37,24.37,0,0,1-22.49,0c-2.41-1.45-3.8-3.27-3.8-5h0v4.63c0,1.72,1.39,3.53,3.8,5a24.29,24.29,0,0,0,22.49,0c2.42-1.45,3.8-3.26,3.8-5h0V185h0C253.42,186.75,252,188.57,249.62,190Z"/><path class="cls-3" d="M249.62,180.05a22.37,22.37,0,0,0-11.24-2.76,23.91,23.91,0,0,0-9.52,1.88L249,190.36c.21-.11.42-.22.62-.34,2.42-1.45,3.8-3.27,3.8-5S252,181.49,249.62,180.05Z"/></svg>