<svg id="Layer_1" data-name="Layer 1" xmlns="http://www.w3.org/2000/svg" viewBox="0 0 53 50"><defs><style>.cls-1{opacity:0.3;}.cls-2{fill:#3dafcc;}.cls-3{fill:#1f282c;}</style></defs><title>optimizatorArtboard 20</title><g class="cls-1"><path class="cls-2" d="M.77,16.33l.32,1.11,5,4.79a14,14,0,0,1,2.83-3.85,14.42,14.42,0,0,1,4.19-2.67L9.72,14.35l-3-.37-3.28.8Z"/></g><g class="cls-1"><path class="cls-2" d="M45.24,25.32a15.21,15.21,0,0,1-14.55,11H19.39a15.13,15.13,0,0,1-12.1-6.07c-.34-.45,0-1.14-.34-1.63C6.31,27.49,4.56,26.43,4.46,27l-2.11.34L.77,29.18v3.39l.65,1.77,2.11,1.55L5.59,37.5l.29,0a15.37,15.37,0,0,0,8,7.27V49.2h6.48V45.86h9.85V49.2h6.47V44.61A15.19,15.19,0,0,0,45.84,30.7V29.51A15.26,15.26,0,0,0,45.24,25.32Z"/></g><path class="cls-2" d="M26.68.88a9.83,9.83,0,1,0,9.83,9.83H26.68Z"/><path class="cls-3" d="M34.13,17.61a.49.49,0,0,1-.32-.12.51.51,0,0,1-.05-.71,9.32,9.32,0,1,0-14.27-.14.5.5,0,0,1-.07.7.49.49,0,0,1-.7-.07,10.32,10.32,0,1,1,15.8.16A.5.5,0,0,1,34.13,17.61Z"/><path class="cls-3" d="M26.68,11.21a.51.51,0,0,1-.5-.5V4.47a.51.51,0,0,1,.5-.51.5.5,0,0,1,.5.51v6.24A.5.5,0,0,1,26.68,11.21Z"/><path class="cls-3" d="M30.28,11.21h-3.6a.51.51,0,0,1-.5-.5.5.5,0,0,1,.5-.5h3.6a.5.5,0,0,1,.5.5A.51.51,0,0,1,30.28,11.21Z"/><path class="cls-3" d="M13.88,45.17a.63.63,0,0,1-.19,0A16.47,16.47,0,0,1,6.26,39a.5.5,0,0,1,.84-.55,15.41,15.41,0,0,0,7,5.75.5.5,0,0,1,.28.65A.5.5,0,0,1,13.88,45.17Z"/><path class="cls-3" d="M30,46.36H20.25a.5.5,0,0,1,0-1h9.89a.52.52,0,0,1,.5.5.49.49,0,0,1-.49.5Z"/><path class="cls-3" d="M36.51,45a.5.5,0,0,1-.21-1,15.43,15.43,0,0,0,8.38-9.52.49.49,0,0,1,.62-.33.5.5,0,0,1,.34.62,16.42,16.42,0,0,1-8.93,10.14A.46.46,0,0,1,36.51,45Z"/><path class="cls-3" d="M45.84,30.52a.5.5,0,0,1-.5-.5,15.4,15.4,0,0,0-6.48-12.51.49.49,0,0,1-.12-.69.5.5,0,0,1,.7-.12A16.41,16.41,0,0,1,46.34,30,.5.5,0,0,1,45.84,30.52Z"/><path class="cls-3" d="M12.83,16.35a.5.5,0,0,1-.23-.94c.32-.16.65-.31,1-.45a.51.51,0,0,1,.66.26.52.52,0,0,1-.27.66c-.31.13-.62.27-.92.42A.44.44,0,0,1,12.83,16.35Z"/><path class="cls-3" d="M5.43,24.06A.51.51,0,0,1,5,23.35c.21-.46.44-.92.7-1.37a.49.49,0,0,1,.68-.18.5.5,0,0,1,.19.68c-.24.42-.46.85-.66,1.28A.5.5,0,0,1,5.43,24.06Z"/><path class="cls-3" d="M6.68,39.24a.51.51,0,0,1-.4-.2A11.76,11.76,0,0,0,2.65,36l-.19-.12A3.79,3.79,0,0,1,.27,32.57V30.21A3.91,3.91,0,0,1,4.18,26.3h.23a.5.5,0,1,1-.06,1,2.93,2.93,0,0,0-3.08,2.91v2.36c0,1,.49,1.67,1.71,2.4l.19.12a12.9,12.9,0,0,1,3.91,3.34.51.51,0,0,1-.4.81Z"/><path class="cls-3" d="M7.44,30.71a.5.5,0,0,1-.5-.5A2.82,2.82,0,0,0,4.23,27.3a.5.5,0,0,1-.5-.5.5.5,0,0,1,.5-.5,3.83,3.83,0,0,1,3.71,3.91A.5.5,0,0,1,7.44,30.71Z"/><path class="cls-3" d="M6.11,22.73a.52.52,0,0,1-.35-.14L.19,17a.5.5,0,0,1,0-.71,10.49,10.49,0,0,1,7-2.85,10.26,10.26,0,0,1,5.94,2,.5.5,0,0,1-.58.81,9.29,9.29,0,0,0-5.36-1.8,9.58,9.58,0,0,0-5.91,2.22l5.2,5.2a.51.51,0,0,1,0,.71A.54.54,0,0,1,6.11,22.73Z"/><circle class="cls-3" cx="13.81" cy="26.62" r="0.92"/><path class="cls-3" d="M32.86,21H20.51a.5.5,0,0,1,0-1H32.86a.5.5,0,0,1,0,1Z"/><path class="cls-3" d="M20.25,49.7H13.88a.51.51,0,0,1-.5-.5V44.67a.5.5,0,0,1,.5-.5.5.5,0,0,1,.5.5v4h5.37V45.86a.5.5,0,0,1,.5-.5.5.5,0,0,1,.5.5V49.2A.51.51,0,0,1,20.25,49.7Z"/><path class="cls-3" d="M36.51,49.7H30.14a.51.51,0,0,1-.5-.5V45.86a.5.5,0,0,1,.5-.5.5.5,0,0,1,.5.5V48.7H36V44.46a.5.5,0,0,1,.5-.5.5.5,0,0,1,.5.5V49.2A.51.51,0,0,1,36.51,49.7Z"/><path class="cls-3" d="M45.84,30.76a.5.5,0,0,1-.07-1s3.16-.5,4.61-2.13A7.53,7.53,0,0,0,52,23.53a.49.49,0,0,1,.53-.47.49.49,0,0,1,.47.52,8.4,8.4,0,0,1-1.91,4.71c-1.7,1.91-5.07,2.44-5.21,2.46Z"/></svg>