<svg id="Layer_1" data-name="Layer 1" xmlns="http://www.w3.org/2000/svg" viewBox="0 0 62 60"><defs><style>.cls-1{opacity:0.3;}.cls-2{fill:#3dafcc;}.cls-3{fill:#1f282c;}</style></defs><title>optimizatorArtboard 25</title><g class="cls-1"><rect class="cls-2" x="12.63" y="5.82" width="31.75" height="6.91"/></g><path class="cls-2" d="M44.52,5.81H39.25v5.27a5.26,5.26,0,0,1-3-1,5.32,5.32,0,0,1-3.06,1,5.26,5.26,0,0,1-3.05-1,5.21,5.21,0,0,1-6.11,0,5.26,5.26,0,0,1-8.33-4.29H.5V16.46H61.18V5.81Z"/><g class="cls-1"><polygon class="cls-2" points="56.04 45.28 41.88 59.44 41.88 45.28 49.86 45.28 56.04 45.28"/></g><g class="cls-1"><rect class="cls-2" x="56.04" y="17.09" width="5.13" height="42.35"/></g><path class="cls-3" d="M51.15,17H.5a.5.5,0,0,1-.5-.5V5.81a.5.5,0,0,1,.5-.5H15.73a.5.5,0,0,1,.5.5.5.5,0,0,1-.5.5H1V16H51.15a.5.5,0,0,1,.5.5A.5.5,0,0,1,51.15,17Z"/><path class="cls-3" d="M56,17a.5.5,0,0,1-.5-.5V6.31H39.25a.5.5,0,0,1-.5-.5.5.5,0,0,1,.5-.5H56a.5.5,0,0,1,.5.5V16.46A.5.5,0,0,1,56,17Z"/><path class="cls-3" d="M56,59.94H47.7a.51.51,0,0,1-.5-.5.5.5,0,0,1,.5-.5h7.84V45.45A.5.5,0,0,1,56,45a.5.5,0,0,1,.5.5v14A.5.5,0,0,1,56,59.94Z"/><path class="cls-3" d="M41.88,59.94H.5a.5.5,0,0,1-.5-.5v-43A.5.5,0,0,1,.5,16H51.15a.5.5,0,0,1,.5.5.5.5,0,0,1-.5.5H1v42H41.88a.5.5,0,0,1,.5.5A.5.5,0,0,1,41.88,59.94Z"/><path class="cls-3" d="M56,46a.5.5,0,0,1-.5-.5v-29A.51.51,0,0,1,56,16a.5.5,0,0,1,.5.5v29A.5.5,0,0,1,56,46Z"/><path class="cls-3" d="M19.68,11.45l-.12,0A5.81,5.81,0,0,1,19.5.21a.49.49,0,0,1,.62.35.5.5,0,0,1-.35.61,4.82,4.82,0,0,0,0,9.3.5.5,0,0,1,.36.61A.51.51,0,0,1,19.68,11.45Z"/><path class="cls-3" d="M25.75,11.45l-.13,0A5.81,5.81,0,0,1,25.57.21a.49.49,0,0,1,.62.35.5.5,0,0,1-.35.61,4.82,4.82,0,0,0,0,9.3.5.5,0,0,1,.36.61A.51.51,0,0,1,25.75,11.45Z"/><path class="cls-3" d="M31.82,11.45l-.13,0A5.81,5.81,0,0,1,31.64.21a.5.5,0,0,1,.62.35.5.5,0,0,1-.35.61,4.82,4.82,0,0,0,0,9.3.5.5,0,0,1,.36.61A.51.51,0,0,1,31.82,11.45Z"/><path class="cls-3" d="M39.25,11.62a5.81,5.81,0,1,1,5.81-5.81.5.5,0,0,1-.5.5.5.5,0,0,1-.5-.5,4.81,4.81,0,1,0-4.81,4.81.5.5,0,0,1,.5.5A.5.5,0,0,1,39.25,11.62Z"/><path class="cls-3" d="M61.18,59.94a.5.5,0,0,1-.5-.5v-43a.5.5,0,0,1,.5-.5.51.51,0,0,1,.5.5v43A.51.51,0,0,1,61.18,59.94Z"/><path class="cls-3" d="M49.86,31.77H6.68a.5.5,0,0,1-.5-.5.51.51,0,0,1,.5-.5H49.86a.51.51,0,0,1,.5.5A.5.5,0,0,1,49.86,31.77Z"/><path class="cls-3" d="M37.36,45.27H6.68a.5.5,0,0,1-.5-.5.51.51,0,0,1,.5-.5H37.36a.5.5,0,0,1,.5.5A.5.5,0,0,1,37.36,45.27Z"/><path class="cls-3" d="M28.27,54.5a.5.5,0,0,1-.5-.5V21.9a.5.5,0,0,1,1,0V54A.5.5,0,0,1,28.27,54.5Z"/><path class="cls-3" d="M41.88,40.37a.5.5,0,0,1-.5-.5v-18a.5.5,0,0,1,.5-.5.5.5,0,0,1,.5.5v18A.5.5,0,0,1,41.88,40.37Z"/><path class="cls-3" d="M14.66,54.5a.5.5,0,0,1-.5-.5V21.9a.5.5,0,0,1,.5-.5.5.5,0,0,1,.5.5V54A.5.5,0,0,1,14.66,54.5Z"/><path class="cls-3" d="M24.45,41.56a.5.5,0,0,1-.35-.14L18,35.34a.5.5,0,0,1,0-.71.48.48,0,0,1,.7,0l6.08,6.08a.5.5,0,0,1,0,.71A.52.52,0,0,1,24.45,41.56Z"/><path class="cls-3" d="M18.37,41.56a.5.5,0,0,1-.35-.85l6.08-6.08a.48.48,0,0,1,.7,0,.5.5,0,0,1,0,.71l-6.08,6.08A.5.5,0,0,1,18.37,41.56Z"/><path class="cls-3" d="M47.87,26.73a.5.5,0,0,1-.35-.15L45,24.07a.5.5,0,0,1,0-.7.5.5,0,0,1,.71,0l2.51,2.5a.51.51,0,0,1,0,.71A.51.51,0,0,1,47.87,26.73Z"/><path class="cls-3" d="M47.87,26.73a.5.5,0,0,1-.35-.15.5.5,0,0,1,0-.71l4.57-4.57a.5.5,0,0,1,.71.71l-4.57,4.57A.51.51,0,0,1,47.87,26.73Z"/><path class="cls-3" d="M34,54.89a.54.54,0,0,1-.36-.14l-2.5-2.51a.5.5,0,0,1,0-.71.51.51,0,0,1,.71,0L34.34,54a.5.5,0,0,1,0,.71A.52.52,0,0,1,34,54.89Z"/><path class="cls-3" d="M34,54.89a.54.54,0,0,1-.36-.14.51.51,0,0,1,0-.71l4.58-4.57a.49.49,0,1,1,.7.7l-4.57,4.58A.52.52,0,0,1,34,54.89Z"/><path class="cls-3" d="M41.88,59.94a.43.43,0,0,1-.19,0,.5.5,0,0,1-.31-.46V45.28a.5.5,0,0,1,.5-.5h8a.5.5,0,0,1,0,1H42.38V58.23l13.31-13.3a.49.49,0,0,1,.7.7L42.24,59.79A.51.51,0,0,1,41.88,59.94Z"/><path class="cls-3" d="M61.18,17H56a.5.5,0,0,1-.5-.5A.51.51,0,0,1,56,16h4.64V6.31H56a.5.5,0,0,1-.5-.5.51.51,0,0,1,.5-.5h5.14a.51.51,0,0,1,.5.5V16.46A.5.5,0,0,1,61.18,17Z"/></svg>