<svg id="Layer_1" data-name="Layer 1" xmlns="http://www.w3.org/2000/svg" viewBox="0 0 67 67"><defs><style>.cls-1{opacity:0.3;}.cls-2{fill:#3dafcc;}.cls-3{fill:#1f282c;}</style></defs><title>optimizatorArtboard 24</title><g class="cls-1"><path class="cls-2" d="M54.59,33.5a21.12,21.12,0,0,0-4.07-12.29,12.51,12.51,0,0,1,3.48-.5c.45,0,.89,0,1.33.07a25.08,25.08,0,0,1,2.83,6.93,7.25,7.25,0,0,1,0,11.58,25.08,25.08,0,0,1-2.83,6.93c-.44,0-.88.07-1.33.07a12.51,12.51,0,0,1-3.48-.5A21.12,21.12,0,0,0,54.59,33.5Z"/></g><g class="cls-1"><path class="cls-2" d="M12.41,33.5a21.12,21.12,0,0,1,4.07-12.29,12.51,12.51,0,0,0-3.48-.5c-.45,0-.89,0-1.33.07a25.08,25.08,0,0,0-2.83,6.93,7.25,7.25,0,0,0,0,11.58,25.08,25.08,0,0,0,2.83,6.93c.44,0,.88.07,1.33.07a12.51,12.51,0,0,0,3.48-.5A21.12,21.12,0,0,1,12.41,33.5Z"/></g><g class="cls-1"><polygon class="cls-2" points="7.14 7.61 0.92 7.74 2.05 9.12 7.4 14.47 9.07 14.81 14.53 14.53 7.61 7.61 7.14 7.61"/></g><path class="cls-2" d="M33.5,17.76A15.74,15.74,0,1,0,49.24,33.5,15.74,15.74,0,0,0,33.5,17.76Zm0,26.29A10.55,10.55,0,1,1,44.05,33.5,10.56,10.56,0,0,1,33.5,44.05Z"/><circle class="cls-2" cx="33.5" cy="33.5" r="4.94"/><path class="cls-3" d="M33.5,55.09A21.6,21.6,0,0,1,15.63,21.37a.5.5,0,0,1,.7-.13.49.49,0,0,1,.13.69A20.58,20.58,0,1,0,22,16.42a.5.5,0,0,1-.7-.13.51.51,0,0,1,.14-.7A21.59,21.59,0,1,1,33.5,55.09Z"/><path class="cls-3" d="M11.6,46.67h-.06a13.29,13.29,0,0,1,0-26.34.51.51,0,0,1,.56.43.5.5,0,0,1-.43.56,12.29,12.29,0,0,0,0,24.36.5.5,0,0,1-.07,1Z"/><path class="cls-3" d="M33.5,49.74a16.23,16.23,0,0,1-14-24.46.5.5,0,1,1,.86.5,15.2,15.2,0,1,0,5.46-5.45.5.5,0,0,1-.68-.17.51.51,0,0,1,.18-.69A16.24,16.24,0,1,1,33.5,49.74Zm0-5.19A11.06,11.06,0,0,1,23.32,29.19a.5.5,0,0,1,.93.39,9.92,9.92,0,0,0-.8,3.92,10.05,10.05,0,1,0,10.05-10,9.92,9.92,0,0,0-3.92.8.51.51,0,0,1-.65-.27.49.49,0,0,1,.26-.65A11,11,0,1,1,33.5,44.55Z"/><path class="cls-3" d="M33.5,38.94a5.46,5.46,0,0,1-5.38-4.65.5.5,0,1,1,1-.14,4.44,4.44,0,1,0,5-5,.51.51,0,0,1-.43-.57.5.5,0,0,1,.57-.42,5.44,5.44,0,0,1-.79,10.82Z"/><path class="cls-3" d="M8.85,39.7a.51.51,0,0,1-.31-.11,7.74,7.74,0,0,1,0-12.18.5.5,0,0,1,.61.79,6.74,6.74,0,0,0,0,10.6.52.52,0,0,1,.08.71A.52.52,0,0,1,8.85,39.7Z"/><path class="cls-3" d="M55.4,46.67a.5.5,0,0,1-.07-1,12.29,12.29,0,0,0,0-24.36.5.5,0,1,1,.13-1,13.29,13.29,0,0,1,0,26.34Z"/><path class="cls-3" d="M58.15,39.7a.52.52,0,0,1-.39-.19.52.52,0,0,1,.08-.71,6.74,6.74,0,0,0,0-10.6.5.5,0,1,1,.61-.79,7.74,7.74,0,0,1,0,12.18A.51.51,0,0,1,58.15,39.7Z"/><path class="cls-3" d="M33.5,34a.47.47,0,0,1-.35-.15l-23-23a.5.5,0,0,1,.71-.71l23,23a.48.48,0,0,1,0,.7A.47.47,0,0,1,33.5,34Z"/><path class="cls-3" d="M7.74,15.31a.51.51,0,0,1-.36-.15L.18,8a.5.5,0,0,1,0-.7.5.5,0,0,1,.71,0l7.2,7.19a.51.51,0,0,1,0,.71A.5.5,0,0,1,7.74,15.31Z"/><path class="cls-3" d="M14.81,8.24a.51.51,0,0,1-.36-.15L7.26.89a.5.5,0,0,1,0-.71.5.5,0,0,1,.7,0l7.2,7.2a.5.5,0,0,1,0,.71A.49.49,0,0,1,14.81,8.24Z"/><path class="cls-3" d="M14.81,10.25a.5.5,0,0,1-.5-.5v-2a.5.5,0,0,1,.5-.5.5.5,0,0,1,.5.5v2A.51.51,0,0,1,14.81,10.25Z"/><path class="cls-3" d="M14.52,15.31H7.74a.5.5,0,0,1-.5-.5.5.5,0,0,1,.5-.5h6.78a.5.5,0,0,1,.5.5A.5.5,0,0,1,14.52,15.31Z"/><path class="cls-3" d="M7.61,8.11H.54a.5.5,0,1,1,0-1H7.11V.54a.5.5,0,1,1,1,0V7.61A.5.5,0,0,1,7.61,8.11Z"/><path class="cls-3" d="M61.22,6.28H54.59a.51.51,0,0,1-.5-.5V.54a.5.5,0,0,1,.5-.5h9a.5.5,0,0,1,.5.5.5.5,0,0,1-.5.5h-8.5V5.28h6.13a.5.5,0,0,1,.5.5A.5.5,0,0,1,61.22,6.28Z"/><path class="cls-3" d="M66.46,12.91H61.22a.51.51,0,0,1-.5-.5V9.75a.5.5,0,0,1,.5-.5.5.5,0,0,1,.5.5v2.16H66V1H63.59a.51.51,0,0,1-.5-.5.5.5,0,0,1,.5-.5h2.87a.5.5,0,0,1,.5.5V12.41A.5.5,0,0,1,66.46,12.91Z"/><path class="cls-3" d="M66.46,64.09a.5.5,0,0,1-.5-.5v-8.5H61.72v6.13a.5.5,0,0,1-.5.5.5.5,0,0,1-.5-.5V54.59a.51.51,0,0,1,.5-.5h5.24a.5.5,0,0,1,.5.5v9A.5.5,0,0,1,66.46,64.09Z"/><path class="cls-3" d="M66.46,67H54.59a.5.5,0,0,1-.5-.5V61.22a.51.51,0,0,1,.5-.5h2.66a.5.5,0,0,1,.5.5.5.5,0,0,1-.5.5H55.09V66H66V63.59a.51.51,0,0,1,.5-.5.5.5,0,0,1,.5.5v2.87A.5.5,0,0,1,66.46,67Z"/><path class="cls-3" d="M12.41,67h-9a.5.5,0,0,1-.5-.5.5.5,0,0,1,.5-.5h8.5V61.72H5.78a.5.5,0,0,1-.5-.5.5.5,0,0,1,.5-.5h6.63a.51.51,0,0,1,.5.5v5.24A.5.5,0,0,1,12.41,67Z"/><path class="cls-3" d="M3.41,67H.54a.5.5,0,0,1-.5-.5V54.59a.5.5,0,0,1,.5-.5H5.78a.51.51,0,0,1,.5.5v2.66a.5.5,0,0,1-.5.5.5.5,0,0,1-.5-.5V55.09H1V66H3.41a.51.51,0,0,1,.5.5A.5.5,0,0,1,3.41,67Z"/></svg>