<svg id="Layer_1" data-name="Layer 1" xmlns="http://www.w3.org/2000/svg" xmlns:xlink="http://www.w3.org/1999/xlink" viewBox="0 0 346 440"><defs><style>.cls-1{fill:none;}.cls-2{fill:#c8f1fa;}.cls-3{fill:#515c66;}.cls-4{fill:#98daeb;}.cls-5{fill:#3dafcc;}.cls-6{fill:#fff;}.cls-7{isolation:isolate;}.cls-8{clip-path:url(#clip-path);}.cls-9{fill:#1b95b3;}.cls-10{fill:#a5c6ce;}.cls-11{fill:#318ea5;}.cls-12{fill:#3496af;}.cls-13{fill:#1eb0cd;}.cls-14{fill:#b7dce4;}.cls-15{fill:#bde4ed;}.cls-16{fill:#90cfdf;}.cls-17{fill:#3aa6c1;}.cls-18{fill:#38a0ba;}</style><clipPath id="clip-path"><path class="cls-1" d="M307.13,285.23l-6.06-3.52a2.53,2.53,0,0,1-1.09-1.33L306,283.9A2.53,2.53,0,0,0,307.13,285.23Z"/></clipPath></defs><title>optimizatorArtboard 11</title><path class="cls-2" d="M173,256.52c-95.4,0-172.73,41-172.73,91.65S77.6,439.82,173,439.82s172.73-41,172.73-91.65S268.4,256.52,173,256.52ZM292.17,407.38c-31.73,16.83-74.05,26.1-119.17,26.1s-87.44-9.27-119.17-26.1C23.37,391.22,6.6,370.19,6.6,348.17S23.37,305.12,53.83,289c31.73-16.83,74.05-26.1,119.17-26.1s87.44,9.27,119.17,26.1c30.46,16.16,47.23,37.19,47.23,59.21S322.63,391.22,292.17,407.38Z"/><ellipse class="cls-2" cx="173" cy="348.17" rx="55.95" ry="30.95"/><path class="cls-3" d="M22.58,197c29.67-27.8,85.91-46.57,150.42-46.57S293.75,169.24,323.42,197c14.2-13.31,22.31-28.69,22.31-45.08,0-50.62-77.33-91.65-172.73-91.65S.27,101.34.27,152C.27,168.35,8.38,183.73,22.58,197Z"/><path class="cls-3" d="M207.12,307.93c0-19.65-15.27-35.58-34.12-35.58s-34.12,15.93-34.12,35.58,15.27,31.54,34.12,31.54S207.12,327.59,207.12,307.93Z"/><ellipse class="cls-4" cx="173" cy="250.75" rx="48.2" ry="25.57"/><rect class="cls-4" x="124.8" y="222.52" width="96.39" height="28.22"/><path class="cls-4" d="M221.2,267.84c0,12.7-21.58,24.66-48.2,24.66s-48.2-8.63-48.2-21.33,21.58-24.66,48.2-24.66S221.2,255.14,221.2,267.84Z"/><path class="cls-4" d="M221.2,284.12c0,12.7-21.58,24.66-48.2,24.66s-48.2-8.63-48.2-21.32S146.38,262.8,173,262.8,221.2,271.42,221.2,284.12Z"/><path class="cls-4" d="M221.2,300.4c0,12.7-21.58,24.66-48.2,24.66s-48.2-8.63-48.2-21.32,21.58-24.66,48.2-24.66S221.2,287.7,221.2,300.4Z"/><path class="cls-5" d="M174.05,277.1c-20.5,0-38.93-6.07-45.08-15.65.49,13,21.06,21.78,45.08,21.78s44.39-12.06,45.08-25.05C213,268.69,194.54,277.1,174.05,277.1Z"/><path class="cls-5" d="M174.05,293.38c-20.5,0-38.93-6.07-45.08-15.65.49,13,21.06,21.78,45.08,21.78s44.39-12.06,45.08-25.05C213,285,194.54,293.38,174.05,293.38Z"/><path class="cls-5" d="M174.05,309.67c-20.5,0-38.93-6.08-45.08-15.66.49,13,21.06,21.78,45.08,21.78s44.39-12.05,45.08-25.05C213,301.25,194.54,309.67,174.05,309.67Z"/><path class="cls-5" d="M129.63,313.45h0l.06.05Z"/><path class="cls-3" d="M132.27,315.54c4.45,3.33,8.57,6.36,13,11.72l6.36-4.25h0C143.67,321.37,137,318.81,132.27,315.54Z"/><path class="cls-5" d="M216.37,313.45h0l-.06.05Z"/><path class="cls-3" d="M194.87,322.2l-.28.15,5.9,5a139.38,139.38,0,0,1,13.79-14.67h0C209.63,316.67,202.9,320,194.87,322.2Z"/><ellipse class="cls-2" cx="173" cy="220.5" rx="55.91" ry="32.52"/><path class="cls-2" d="M117.29,220.84c0-39.79-44-49.73-48.57-109.18L173,145.79v75.05Z"/><path class="cls-2" d="M228.71,220.84c0-39.79,44-49.73,48.57-109.18L173,145.79v75.05Z"/><path class="cls-2" d="M173,.18C115.11.18,68.19,46.43,68.19,104.32c0,39.4,46.92,82.24,104.81,82.24Z"/><path class="cls-2" d="M173,.18c57.89,0,104.81,46.25,104.81,104.14,0,39.4-46.92,82.24-104.81,82.24Z"/><path class="cls-4" d="M71.6,77.77a104,104,0,0,0-3.41,26.55,52.1,52.1,0,0,0,.53,7.34h0a100.11,100.11,0,0,0,18,51.06c25.39-7.78,54.85-12.25,86.29-12.25s60.9,4.47,86.29,12.25a100.11,100.11,0,0,0,18-51.06h0a52.1,52.1,0,0,0,.53-7.34,104,104,0,0,0-3.41-26.55c-28.47-11-63.51-17.46-101.4-17.46S100.07,66.79,71.6,77.77Z"/><path class="cls-6" d="M150,40.4A33.48,33.48,0,0,0,108.6,91.57,67.1,67.1,0,0,1,150,40.4Z"/><g class="cls-7"><polygon class="cls-2" points="167.34 107.6 186.45 96.5 223.72 118.02 204.62 129.12 167.34 107.6"/><polygon class="cls-5" points="179.74 61.61 198.84 50.5 186.45 96.5 167.34 107.6 179.74 61.61"/><polygon class="cls-6" points="204.62 129.12 150.48 170.27 162.86 124.27 125.6 102.76 179.74 61.61 167.34 107.6 204.62 129.12"/></g><path class="cls-5" d="M97.86,234.49c-31.69-8.14-58-21.25-75.26-37.44v0h0C8.38,183.73.27,168.35.27,152v90.16c0,36.33,39.83,67.71,97.59,82.54Z"/><path class="cls-5" d="M323.42,197h0v0c-17.27,16.19-43.57,29.3-75.26,37.44v90.17c57.76-14.83,97.59-46.21,97.59-82.54V152C345.73,168.35,337.62,183.73,323.42,197Z"/><g class="cls-7"><g class="cls-7"><g class="cls-8"><g class="cls-7"><path class="cls-9" d="M307.13,285.23l-6.06-3.52a2.53,2.53,0,0,1-1.09-1.33L306,283.9a2.53,2.53,0,0,0,1.09,1.33"/></g></g></g><polygon class="cls-10" points="306.08 283.72 300.02 280.19 300.02 228.59 306.08 232.11 306.08 283.72"/><polygon class="cls-11" points="306.08 283.72 300.02 280.19 292.87 261.75 298.93 265.27 306.08 283.72"/><polygon class="cls-9" points="306.04 283.9 299.98 280.38 291.97 259.41 298.03 262.93 306.04 283.9"/><path class="cls-2" d="M306.08,232.11l2.35,6.15,15,39.2-12.88,7.43c-2,1.17-3.81.76-4.49-1l-7.11-18.63-.9-2.34.9,2.34,7.15,18.45Z"/><polygon class="cls-3" points="306.08 232.38 306.08 283.99 297.83 263.69 306.08 232.38"/><polygon class="cls-12" points="298.03 262.93 291.97 259.41 300.02 228.59 306.08 232.11 298.03 262.93"/><polygon class="cls-2" points="272.83 306.66 266.77 303.14 283.78 237.97 289.84 241.49 272.83 306.66"/><polygon class="cls-6" points="289.84 241.49 283.78 237.97 300.02 228.59 306.08 232.11 289.84 241.49"/><path class="cls-4" d="M306.08,232.11,298,262.93l-7.86,30.13a10.59,10.59,0,0,1-4.47,6.17l-12.87,7.43,17-65.17Z"/></g><g class="cls-7"><polygon class="cls-13" points="29.62 264.56 35.9 260.91 35.85 279.48 29.57 283.13 29.62 264.56"/><polygon class="cls-14" points="29.62 264.22 35.9 260.56 35.9 260.91 29.62 264.56 29.62 264.22"/><polygon class="cls-2" points="29.62 264.22 29.62 264.56 29.57 283.13 20.22 277.73 20.27 259.17 20.27 258.82 29.62 264.22"/><polygon class="cls-15" points="20.27 258.82 26.55 255.17 35.9 260.56 29.62 264.22 20.27 258.82"/><polygon class="cls-14" points="32.83 266.07 39.12 262.42 39.11 262.77 32.83 266.42 32.83 266.07"/><polygon class="cls-13" points="42.18 271.82 48.46 268.17 48.41 286.74 42.13 290.38 42.18 271.82"/><polygon class="cls-14" points="42.18 271.47 48.46 267.82 48.46 268.17 42.18 271.82 42.18 271.47"/><polygon class="cls-15" points="32.83 266.07 39.12 262.42 48.46 267.82 42.18 271.47 32.83 266.07"/><polygon class="cls-2" points="42.18 271.47 42.18 271.82 42.13 290.38 32.78 284.99 32.83 266.42 32.83 266.07 42.18 271.47"/><polygon class="cls-14" points="45.4 273.33 51.68 269.68 51.68 270.02 45.4 273.68 45.4 273.33"/><polygon class="cls-14" points="33.06 251.12 39.34 247.47 39.33 252.37 33.05 256.02 33.06 251.12"/><polygon class="cls-13" points="54.75 279.07 61.03 275.42 61.02 280.68 54.74 284.33 54.75 279.07"/><polygon class="cls-15" points="45.4 273.33 51.68 269.68 61.03 275.08 54.75 278.73 45.4 273.33"/><polygon class="cls-2" points="54.75 278.73 54.75 279.07 54.74 284.33 45.39 278.93 45.4 273.68 45.4 273.33 54.75 278.73"/><polygon class="cls-14" points="54.75 278.73 61.03 275.08 61.03 275.42 54.75 279.07 54.75 278.73"/><polygon class="cls-14" points="33.09 240.37 39.38 236.72 39.36 241.63 33.08 245.28 33.09 240.37"/><polygon class="cls-15" points="33.05 256.02 39.33 252.37 60.87 264.81 54.59 268.46 33.05 256.02"/><polygon class="cls-16" points="58.06 280.98 64.34 277.33 73.6 282.68 67.31 286.33 58.06 280.98"/><polygon class="cls-14" points="67.32 285.98 73.6 282.33 73.6 282.68 67.31 286.33 67.32 285.98"/><polygon class="cls-3" points="67.32 285.98 73.6 282.33 73.6 302.43 71.34 303.74 67.32 285.98"/><polygon class="cls-2" points="67.32 285.98 71.34 303.74 61.99 298.34 58.06 280.98 67.31 286.33 67.32 285.98"/><polygon class="cls-17" points="33.06 251.12 39.34 247.47 60.89 259.9 54.61 263.55 33.06 251.12"/><polygon class="cls-18" points="54.61 263.55 60.89 259.9 60.87 264.81 54.59 268.46 54.61 263.55"/><polygon class="cls-13" points="54.61 263.55 54.59 268.46 33.05 256.02 33.06 251.12 54.61 263.55"/><polygon class="cls-15" points="33.08 245.28 39.36 241.63 60.91 254.06 54.62 257.71 33.08 245.28"/><polygon class="cls-18" points="54.64 252.81 60.92 249.16 60.91 254.06 54.62 257.71 54.64 252.81"/><polygon class="cls-13" points="54.64 252.81 54.62 257.71 33.08 245.28 33.09 240.37 54.64 252.81"/><polygon class="cls-17" points="33.09 240.37 39.38 236.72 60.92 249.16 54.64 252.81 33.09 240.37"/><polygon class="cls-3" points="67.42 249.67 73.7 246.02 73.6 282.33 67.32 285.98 67.42 249.67"/><polygon class="cls-6" points="20.37 222.5 26.65 218.85 73.7 246.02 67.42 249.67 20.37 222.5"/><path class="cls-2" d="M20.37,222.5l47.05,27.17L67.32,286v.35L58.06,281l-3.31-1.91v-.34l-9.35-5.4v.35l-3.22-1.86v-.35l-9.35-5.4v.35l-3.21-1.86v-.34l-9.35-5.4Zm34.22,46,0-4.91L33.06,251.12V256l21.54,12.44m0-10.75,0-4.9L33.09,240.37v4.91l21.54,12.43"/></g></svg>