<svg id="Layer_1" data-name="Layer 1" xmlns="http://www.w3.org/2000/svg" viewBox="0 0 67 67"><defs><style>.cls-1{opacity:0.3;}.cls-2{fill:#3dafcc;}.cls-3{fill:#1f282c;}</style></defs><title>optimizatorArtboard 26</title><g class="cls-1"><path class="cls-2" d="M48.71,26l-.15-.16L33.45,41l.15.15,6.17,6.17c2-2,6.5-4.6,10.27-6.29a46.75,46.75,0,0,1,10.81-2.86Z"/></g><g class="cls-1"><path class="cls-2" d="M56.68,25.27A5.18,5.18,0,0,0,49.45,18Z"/></g><g class="cls-1"><polygon class="cls-2" points="44.1 51.63 35.74 60.01 31.21 55.85 37.28 49.78 39.77 47.29 42.96 50.48 44.1 51.63"/></g><rect class="cls-2" x="47.81" y="3.14" width="6.15" height="41.39" rx="3.08" ry="3.08" transform="translate(-1.95 42.96) rotate(-45)"/><path class="cls-2" d="M27.43,35l-8.56,8.56a8.74,8.74,0,0,0,0,12.34h0a8.74,8.74,0,0,0,12.34,0l8.56-8.56ZM24.67,52.63a2.92,2.92,0,1,1,2.91-2.92A2.91,2.91,0,0,1,24.67,52.63Z"/><g class="cls-1"><path class="cls-2" d="M9.36,23.05l3.52-3.52A4.44,4.44,0,1,1,19,13.41l7.83-7.83-4.62,2a10.78,10.78,0,0,0-3.34-1.92L18.27.5h-6l-.61,5.14A10.62,10.62,0,0,0,8.28,7.56l-4.76-2-3,5.24,4.15,3.09a10.27,10.27,0,0,0-.18,1.93,10.08,10.08,0,0,0,.18,1.92L.5,20.8l3,5.24L8.28,24a10.52,10.52,0,0,0,1.08.77Z"/></g><path class="cls-3" d="M25,58.9a9.22,9.22,0,0,1-6.52-15.74l8.56-8.56a.5.5,0,0,1,.71,0L40.12,46.94a.48.48,0,0,1,0,.7L31.56,56.2h0A9.19,9.19,0,0,1,25,58.9Zm2.39-23.24-8.2,8.21A8.22,8.22,0,0,0,30.86,55.49l8.2-8.2Zm3.78,20.19h0Z"/><path class="cls-3" d="M45.77,66.86A4.76,4.76,0,0,1,43.09,66,68.28,68.28,0,0,1,30.86,56.2a.5.5,0,0,1,0-.71l4.6-4.6a.49.49,0,0,1,.36-.15h0a.47.47,0,0,1,.35.15,53.35,53.35,0,0,0,10.11,8c.62.39,1.16.74,1.63,1.06a4,4,0,0,1,1.62,2.61,3.65,3.65,0,0,1-3.76,4.28Zm-13.85-11a66.76,66.76,0,0,0,11.71,9.33c1.32.9,3.36,1,4.38-.33h0a2.74,2.74,0,0,0,.53-2.11,3,3,0,0,0-1.2-2c-.46-.32-1-.65-1.59-1A54.47,54.47,0,0,1,35.82,52Z"/><path class="cls-3" d="M40.37,55.86A.5.5,0,0,1,40,55l3.38-3.39-1.49-1.49a.49.49,0,0,1,.7-.7l1.85,1.84a.5.5,0,0,1,0,.71l-3.74,3.73A.47.47,0,0,1,40.37,55.86Z"/><path class="cls-3" d="M39.77,47.79a.47.47,0,0,1-.35-.15L27.08,35.31a.53.53,0,0,1-.15-.36.51.51,0,0,1,.15-.35c2.05-2.05,4.64-6.69,6.19-10.12h0a46.76,46.76,0,0,0,2.81-10.67.51.51,0,0,1,.34-.41.48.48,0,0,1,.51.12L61.2,37.79a.48.48,0,0,1,.12.51.51.51,0,0,1-.4.34,46.19,46.19,0,0,0-10.67,2.82c-3.44,1.54-8.08,4.13-10.13,6.18A.47.47,0,0,1,39.77,47.79ZM28.13,34.94,39.78,46.59a44.16,44.16,0,0,1,10.06-6.05,43.89,43.89,0,0,1,10-2.74L36.92,14.93a44.16,44.16,0,0,1-2.74,10C32.68,28.22,30.21,32.66,28.13,34.94Z"/><path class="cls-3" d="M63.35,39.87a3.56,3.56,0,0,1-2.53-1L35.9,13.9A3.58,3.58,0,0,1,41,8.84L65.88,33.76a3.58,3.58,0,0,1-2.53,6.11ZM38.43,8.8a2.58,2.58,0,0,0-1.82,4.4L61.53,38.11a2.57,2.57,0,0,0,3.64,0h0a2.56,2.56,0,0,0,0-3.64L40.25,9.55A2.57,2.57,0,0,0,38.43,8.8Z"/><path class="cls-3" d="M56.68,25.77a.52.52,0,0,1-.29-.09.5.5,0,0,1-.11-.7,4.68,4.68,0,0,0-6.54-6.53.5.5,0,1,1-.58-.82,5.68,5.68,0,0,1,7.93,7.93A.49.49,0,0,1,56.68,25.77Z"/><path class="cls-3" d="M26.77,52.18a.52.52,0,0,1-.35-.14.5.5,0,0,1,0-.71A2.36,2.36,0,1,0,23.08,48a.5.5,0,0,1-.71,0,.5.5,0,0,1,0-.7,3.37,3.37,0,0,1,4.76,0,3.33,3.33,0,0,1,1,2.37,3.37,3.37,0,0,1-1,2.38A.54.54,0,0,1,26.77,52.18Z"/><path class="cls-3" d="M59.23,16a.5.5,0,0,1-.35-.15.5.5,0,0,1,0-.71l2.74-2.74a.51.51,0,0,1,.71,0,.5.5,0,0,1,0,.71l-2.74,2.74A.51.51,0,0,1,59.23,16Z"/><path class="cls-3" d="M52.61,13.24a.5.5,0,0,1-.5-.5V8.86a.5.5,0,0,1,1,0v3.88A.5.5,0,0,1,52.61,13.24Z"/><path class="cls-3" d="M65.86,22.61H62a.5.5,0,0,1-.5-.5.5.5,0,0,1,.5-.5h3.88a.51.51,0,0,1,.5.5A.5.5,0,0,1,65.86,22.61Z"/><path class="cls-3" d="M21.38,35.56H15.65a.5.5,0,0,1-.5-.5.5.5,0,0,1,.5-.5h5.73a.5.5,0,0,1,.5.5A.5.5,0,0,1,21.38,35.56Z"/><path class="cls-3" d="M9.36,29.06a.51.51,0,0,1-.5-.5V23.05A.53.53,0,0,1,9,22.69L31.56.15a.48.48,0,0,1,.7,0L35.7,3.58a.5.5,0,0,1-.71.71L31.91,1.21l-22,22v5.31A.5.5,0,0,1,9.36,29.06Z"/><path class="cls-3" d="M16.45,31.34a3.32,3.32,0,0,1-2.38-1,.48.48,0,0,1,0-.7.5.5,0,0,1,.71,0,2.36,2.36,0,1,0,1.67-4,.5.5,0,0,1,0-1,3.36,3.36,0,0,1,0,6.72Z"/><path class="cls-3" d="M11.83,58.75a10.88,10.88,0,0,1-7.74-3.2l-.23-.23a11,11,0,0,1,0-15.47l10.21-10.2a.49.49,0,0,1,.7.7L4.57,40.56a10,10,0,0,0,0,14.06l.23.23a10,10,0,0,0,14.06,0L23.74,50a.49.49,0,0,1,.7.7l-4.88,4.88A10.84,10.84,0,0,1,11.83,58.75Z"/><path class="cls-3" d="M3.52,26.54a.52.52,0,0,1-.43-.25l-3-5.24A.5.5,0,0,1,.2,20.4l3.9-2.91A11.41,11.41,0,0,1,4,15.78a11.22,11.22,0,0,1,.13-1.71L.2,11.16a.5.5,0,0,1-.13-.65l3-5.24a.5.5,0,0,1,.63-.21L8.19,7a11.45,11.45,0,0,1,3-1.7L11.72.44a.51.51,0,0,1,.5-.44h6a.5.5,0,0,1,.49.44l.56,4.82a6.26,6.26,0,0,1,1.29.58.5.5,0,0,1,.15.69.48.48,0,0,1-.68.16,6,6,0,0,0-1.34-.57.49.49,0,0,1-.37-.42L17.82,1H12.66l-.55,4.7a.49.49,0,0,1-.33.41A10.39,10.39,0,0,0,8.6,7.94.48.48,0,0,1,8.08,8L3.73,6.15,1.16,10.62,5,13.45a.51.51,0,0,1,.19.49A10,10,0,0,0,5,15.78a9.82,9.82,0,0,0,.17,1.83A.5.5,0,0,1,5,18.1L1.16,20.93,3.73,25.4l1.72-.74a.5.5,0,0,1,.4.92l-2.13.92A.65.65,0,0,1,3.52,26.54Zm7.37-9.37a.49.49,0,0,1-.49-.4,4.68,4.68,0,0,1-.1-1,5,5,0,0,1,4.94-4.95,6,6,0,0,1,.84.07.51.51,0,0,1,.41.58.51.51,0,0,1-.58.41,3.71,3.71,0,0,0-.67-.06,4,4,0,0,0-3.94,3.95,3.47,3.47,0,0,0,.08.79.5.5,0,0,1-.39.59Z"/><path class="cls-3" d="M20.19,21.66a.51.51,0,0,1-.36-.15.51.51,0,0,1,0-.71l8.9-8.89a.5.5,0,0,1,.71,0,.5.5,0,0,1,0,.7l-8.9,8.9A.5.5,0,0,1,20.19,21.66Z"/><path class="cls-3" d="M23.27,24.74a.5.5,0,0,1-.35-.85l7.17-7.18a.5.5,0,0,1,.71.71L23.62,24.6A.5.5,0,0,1,23.27,24.74Z"/></svg>