<svg id="Layer_1" data-name="Layer 1" xmlns="http://www.w3.org/2000/svg" viewBox="0 0 1219 1132"><defs><style>.cls-1{opacity:0.3;}.cls-2{fill:#3dafcc;}.cls-3{fill:#1f282c;}</style></defs><title>optimizatorArtboard 38</title><g class="cls-1"><path class="cls-2" d="M1026.43,720.16H726.76a183.33,183.33,0,0,1-129.82-54A99,99,0,0,0,741.41,798.12V946.44h317.22a151.71,151.71,0,0,0,151.71-151.71V536.24C1210.34,637.4,1127.58,720.16,1026.43,720.16Z"/></g><path class="cls-2" d="M1210.34,307.4V477.51H1073.48A92.18,92.18,0,0,0,1085.3,433a93.24,93.24,0,0,0-186.48,0,92.29,92.29,0,0,0,11.81,44.56H741.41V291.16a93.24,93.24,0,1,1,0-181.43V8.58h317.22a151.71,151.71,0,0,1,151.71,151.71V307.4Z"/><path class="cls-2" d="M415.63,1079.87l17.84-4.47,147.17-36.84L547.4,905.79a92.24,92.24,0,0,1-40.35,22.29,93.24,93.24,0,0,1-45.29-180.9,92.23,92.23,0,0,1,46.1.64l-4.25-17L466.76,583.66,319.59,620.5,286,628.91A93.25,93.25,0,1,0,110,673L11.87,697.54,48.71,844.71l12.75,50.93L88.9,1005.26a151.71,151.71,0,0,0,184,110.33l55.15-13.8Z"/><path class="cls-3" d="M1058.63,954.75H741.41a8.31,8.31,0,0,1-8.31-8.31V813.83A105,105,0,0,1,680,828.21a107.69,107.69,0,1,1,0-215.38,105,105,0,0,1,53.08,14.39V477.51a8.31,8.31,0,0,1,8.31-8.31H897.54a97.68,97.68,0,0,1-7-36.25,101.55,101.55,0,1,1,203.09,0,97.68,97.68,0,0,1-7,36.25h123.77a8.31,8.31,0,0,1,8.31,8.31V794.73C1218.65,883,1146.86,954.75,1058.63,954.75ZM749.72,938.13h308.91c79.07,0,143.41-64.32,143.41-143.4V485.81H1073.48a8.3,8.3,0,0,1-7.28-12.3A83.66,83.66,0,0,0,1077,433a84.94,84.94,0,0,0-169.87,0,83.67,83.67,0,0,0,10.8,40.56,8.31,8.31,0,0,1-7.29,12.3H749.72V642.92a8.31,8.31,0,0,1-13.47,6.51c-16.5-13.08-35.94-20-56.23-20a91.08,91.08,0,1,0,0,182.16c20.3,0,39.74-6.92,56.23-20a8.3,8.3,0,0,1,13.47,6.5Z"/><path class="cls-3" d="M460.35,126.29h-80.1a8.31,8.31,0,0,1,0-16.62h80.1a8.31,8.31,0,0,1,0,16.62Z"/><path class="cls-3" d="M460.35,208.75h-80.1a8.31,8.31,0,0,1,0-16.61h80.1a8.31,8.31,0,0,1,0,16.61Z"/><path class="cls-3" d="M460.35,291.23h-80.1a8.31,8.31,0,0,1,0-16.62h80.1a8.31,8.31,0,0,1,0,16.62Z"/><path class="cls-3" d="M1072.15,619.13H992.06a8.31,8.31,0,1,1,0-16.61h80.09a8.31,8.31,0,1,1,0,16.61Z"/><path class="cls-3" d="M1072.15,701.61H992.06a8.31,8.31,0,1,1,0-16.62h80.09a8.31,8.31,0,0,1,0,16.62Z"/><path class="cls-3" d="M1072.15,784.07H992.06a8.31,8.31,0,1,1,0-16.61h80.09a8.31,8.31,0,1,1,0,16.61Z"/><path class="cls-3" d="M1210.34,485.81H1073.48a8.3,8.3,0,0,1-7.28-12.3A83.66,83.66,0,0,0,1077,433a84.94,84.94,0,0,0-169.87,0,83.67,83.67,0,0,0,10.8,40.56,8.31,8.31,0,0,1-7.29,12.3H741.41a8.3,8.3,0,0,1-8.31-8.3V301.13a92.5,92.5,0,0,1-12.5.86,101.55,101.55,0,1,1,0-203.09,91.16,91.16,0,0,1,12.5.87V8.57a8.3,8.3,0,0,1,8.31-8.3h317.22c88.23,0,160,71.78,160,160v56.85a8.31,8.31,0,1,1-16.61,0V160.29c0-79.07-64.34-143.41-143.41-143.41H749.72v92.85a8.31,8.31,0,0,1-3.13,6.5,8.14,8.14,0,0,1-7,1.6,84.94,84.94,0,1,0,0,165.23,8.31,8.31,0,0,1,10.17,8.1v178H897.54a97.68,97.68,0,0,1-7-36.25,101.55,101.55,0,1,1,203.09,0,97.68,97.68,0,0,1-7,36.25H1202V307.4a8.31,8.31,0,1,1,16.61,0V477.51A8.3,8.3,0,0,1,1210.34,485.81Z"/><path class="cls-3" d="M741.41,485.81H564.14a8.32,8.32,0,0,1-8.29-7.66c-3.65-47.13-43.33-84-90.32-84s-86.67,36.92-90.33,84a8.31,8.31,0,0,1-8.29,7.66H272.48a8.3,8.3,0,0,1-8.31-8.3V397.67a8.31,8.31,0,1,1,16.61,0V469.2h78.73c7.82-52,53-91.71,106-91.71s98.19,39.7,106,91.71H733.1V301.13a92.5,92.5,0,0,1-12.5.86,101.55,101.55,0,1,1,0-203.09,91.16,91.16,0,0,1,12.5.87V16.88H424.19c-79.07,0-143.41,64.34-143.41,143.41V307.4a8.31,8.31,0,1,1-16.61,0V160.29c0-88.24,71.79-160,160-160H741.41a8.3,8.3,0,0,1,8.31,8.3V109.73a8.31,8.31,0,0,1-3.13,6.5,8.14,8.14,0,0,1-7,1.6,84.94,84.94,0,1,0,0,165.23,8.31,8.31,0,0,1,10.17,8.1V477.51A8.3,8.3,0,0,1,741.41,485.81Z"/><path class="cls-3" d="M235.45,1131.73c-71.08,0-136.15-47.78-154.88-119.7L.62,705.05a8.31,8.31,0,0,1,6-10.14l88.24-23a93.18,93.18,0,0,1-4-11.88,101.55,101.55,0,0,1,196.54-51.19,94.44,94.44,0,0,1,2.31,12.33l170.69-44.47a8.32,8.32,0,0,1,10.13,5.95L511,738.14a8.31,8.31,0,0,1-2,7.82,8.44,8.44,0,0,1-7.7,2.41,89,89,0,0,0-107,87.11,8.31,8.31,0,0,1-16.61,0A105.67,105.67,0,0,1,483.23,729.92c2.85,0,5.69.11,8.53.35L456.5,594.89,284.22,639.77a8.3,8.3,0,0,1-10.4-7.79,84.93,84.93,0,1,0-159.91,41.64,8.32,8.32,0,0,1-5.28,11.88L18.79,708.9l77.86,298.94c19.92,76.51,98.38,122.54,174.92,102.63l298.94-77.86L541.9,922.79a104.62,104.62,0,0,1-133.23-12.58,8.31,8.31,0,0,1,11.74-11.76,88.34,88.34,0,0,0,62.82,26c21.37,0,41.46-7.65,58.09-22.13a8.23,8.23,0,0,1,7.91-1.67,8.32,8.32,0,0,1,5.59,5.84l33.86,130a8.32,8.32,0,0,1-5.95,10.13l-307,80A160,160,0,0,1,235.45,1131.73Z"/></svg>