<svg id="Layer_1" data-name="Layer 1" xmlns="http://www.w3.org/2000/svg" viewBox="0 0 78 84"><defs><style>.cls-1{opacity:0.3;}.cls-2{fill:#3dafcc;}.cls-3{fill:#1f282c;}</style></defs><title>optimizatorArtboard 33</title><g class="cls-1"><path class="cls-2" d="M55.37,19.31A34.91,34.91,0,0,1,59.7,36.2,35.14,35.14,0,0,1,5.87,66a35,35,0,1,0,49.5-46.67Z"/></g><path class="cls-2" d="M67.82,36.38a9.11,9.11,0,0,0-9.1,9.1c0,6.73,6.64,12.76,9.09,14.76,2.45-2,9.11-8.17,9.11-14.76A9.11,9.11,0,0,0,67.82,36.38Zm0,13.3a3.87,3.87,0,1,1,3.87-3.87A3.87,3.87,0,0,1,67.82,49.68Z"/><path class="cls-2" d="M26.27,47.27a9.11,9.11,0,0,0-9.1,9.1c0,6.72,6.64,12.76,9.09,14.75,2.45-2,9.11-8.17,9.11-14.75A9.11,9.11,0,0,0,26.27,47.27Zm0,13.3a3.87,3.87,0,1,1,3.87-3.87A3.87,3.87,0,0,1,26.27,60.57Z"/><path class="cls-2" d="M14.21.31a9.11,9.11,0,0,0-9.1,9.1c0,6.73,6.64,12.76,9.09,14.76,2.45-2,9.11-8.17,9.11-14.76A9.11,9.11,0,0,0,14.21.31Zm0,13.3a3.87,3.87,0,1,1,3.87-3.87A3.87,3.87,0,0,1,14.21,13.61Z"/><path class="cls-3" d="M66.39,32.72a.51.51,0,0,1-.44-.26A34.36,34.36,0,0,0,27.53,15.25a.5.5,0,0,1-.61-.37.5.5,0,0,1,.37-.6A35.36,35.36,0,0,1,66.83,32a.5.5,0,0,1-.2.68A.53.53,0,0,1,66.39,32.72Z"/><path class="cls-3" d="M35.65,83.94A35.33,35.33,0,0,1,8.51,26l.26-.31a.5.5,0,0,1,.76.65l-.26.3A34.33,34.33,0,1,0,65.84,65a.5.5,0,0,1,.88.48A35.35,35.35,0,0,1,35.65,83.94Z"/><path class="cls-3" d="M59.29,35.69a.5.5,0,0,1-.48-.36c-3.93-12.78-13-21-23.16-21a.5.5,0,0,1-.5-.5.51.51,0,0,1,.5-.5c10.59,0,20.05,8.54,24.12,21.76a.51.51,0,0,1-.34.63Z"/><path class="cls-3" d="M35.65,83.94c-14.39,0-26.1-15.85-26.1-35.33a44.84,44.84,0,0,1,4-18.85.5.5,0,0,1,.66-.24.5.5,0,0,1,.24.67,43.92,43.92,0,0,0-3.92,18.42c0,18.93,11.26,34.33,25.1,34.33,10.93,0,20.54-9.56,23.9-23.77a.5.5,0,0,1,.6-.38.51.51,0,0,1,.37.61C57.05,74.08,47.06,83.94,35.65,83.94Z"/><path class="cls-3" d="M35.65,83.94c-2.81,0-5.38-3-7.42-8.67a.5.5,0,0,1,.94-.34c1.86,5.16,4.16,8,6.48,8,5.54,0,10.21-15.72,10.21-34.33S41.19,14.28,35.65,14.28c-4.88,0-9.2,12.24-10,28.46a.49.49,0,0,1-.53.47.5.5,0,0,1-.47-.52c.91-17.32,5.45-29.41,11-29.41,6.29,0,11.21,15.52,11.21,35.33S41.94,83.94,35.65,83.94Z"/><path class="cls-3" d="M64.85,30.12H6.46a.5.5,0,0,1-.5-.5.5.5,0,0,1,.5-.5H64.85a.5.5,0,0,1,.5.5A.51.51,0,0,1,64.85,30.12Z"/><path class="cls-3" d="M64.85,68.1H36.17a.5.5,0,0,1-.5-.5.5.5,0,0,1,.5-.5H64.85a.51.51,0,0,1,.5.5A.5.5,0,0,1,64.85,68.1Z"/><path class="cls-3" d="M16,68.1H6.46a.5.5,0,0,1-.5-.5.5.5,0,0,1,.5-.5H16a.51.51,0,0,1,.5.5A.5.5,0,0,1,16,68.1Z"/><path class="cls-3" d="M54.22,49.11H37.29a.5.5,0,0,1,0-1H54.22a.5.5,0,0,1,0,1Z"/><path class="cls-3" d="M14.65,49.11H.83a.5.5,0,1,1,0-1H14.65a.5.5,0,0,1,0,1Z"/><path class="cls-3" d="M14.21,24.67a.5.5,0,0,1-.29-.09c-.39-.28-9.39-6.8-9.39-14.84A9.69,9.69,0,0,1,14.21.06h0a9.69,9.69,0,0,1,9.68,9.68c0,8-9,14.56-9.39,14.84A.52.52,0,0,1,14.21,24.67Zm0-23.61A8.69,8.69,0,0,0,5.53,9.74c0,6.75,7.14,12.62,8.68,13.8,1.54-1.18,8.68-7,8.68-13.8a8.7,8.7,0,0,0-8.68-8.68Z"/><path class="cls-3" d="M14.21,14.15a4.41,4.41,0,0,1,0-8.82.51.51,0,0,1,.5.5.5.5,0,0,1-.5.5,3.41,3.41,0,1,0,3.41,3.41.5.5,0,0,1,.5-.5.51.51,0,0,1,.5.5A4.42,4.42,0,0,1,14.21,14.15Z"/><path class="cls-3" d="M26.07,71.59a.53.53,0,0,1-.29-.1c-.39-.27-9.39-6.79-9.39-14.83A9.69,9.69,0,0,1,26.07,47h0a9.69,9.69,0,0,1,9.68,9.68c0,8-9,14.56-9.39,14.83A.53.53,0,0,1,26.07,71.59Zm0-23.61a8.68,8.68,0,0,0-8.68,8.68c0,6.75,7.14,12.61,8.68,13.8,1.54-1.19,8.68-7.06,8.68-13.8A8.69,8.69,0,0,0,26.07,48Z"/><path class="cls-3" d="M26.07,61.07a4.41,4.41,0,0,1,0-8.82.5.5,0,0,1,0,1,3.41,3.41,0,1,0,3.41,3.41.5.5,0,0,1,.5-.5.5.5,0,0,1,.5.5A4.42,4.42,0,0,1,26.07,61.07Z"/><path class="cls-3" d="M68,61A.52.52,0,0,1,67.7,61c-.38-.28-9.38-6.8-9.38-14.84A9.69,9.69,0,0,1,68,36.43h0a9.69,9.69,0,0,1,9.68,9.68c0,8-9,14.56-9.39,14.84A.48.48,0,0,1,68,61Zm0-23.61a8.69,8.69,0,0,0-8.67,8.68c0,6.76,7.13,12.62,8.67,13.8,1.55-1.18,8.68-7,8.68-13.8A8.69,8.69,0,0,0,68,37.43Z"/><path class="cls-3" d="M68,50.52a4.41,4.41,0,0,1,0-8.81.5.5,0,0,1,.5.5.5.5,0,0,1-.5.5,3.41,3.41,0,1,0,3.41,3.4.51.51,0,0,1,.5-.5.5.5,0,0,1,.5.5A4.42,4.42,0,0,1,68,50.52Z"/></svg>