<svg id="Layer_1" data-name="Layer 1" xmlns="http://www.w3.org/2000/svg" viewBox="0 0 67 67"><defs><style>.cls-1{opacity:0.3;}.cls-2{fill:#3dafcc;}.cls-3{fill:#1f282c;}</style></defs><title>optimizatorArtboard 23</title><g class="cls-1"><path class="cls-2" d="M49.16,33.65A11.51,11.51,0,1,1,29.63,45.36,12.71,12.71,0,1,0,49.16,33.65Z"/></g><path class="cls-2" d="M50.81,13.35,54.35,8a3.85,3.85,0,0,0-.09-4.41,4,4,0,0,0-4.18-1.19l-1.29.26a5.61,5.61,0,0,1-2.1.27,4.83,4.83,0,0,1-2.1-1,3.75,3.75,0,0,0-2.27-1,3.71,3.71,0,0,0-2.26,1,4.83,4.83,0,0,1-2.1,1,5.61,5.61,0,0,1-2.1-.27l-1.29-.26a4,4,0,0,0-4.18,1.19A3.85,3.85,0,0,0,30.3,8l.94,1.42,2.69,4H50.79Z"/><path class="cls-2" d="M62.68,37.1,54.54,23.48l-2.66-4.29H32.67L22.42,36.34h9.39v1.2a12.67,12.67,0,1,1,0,13.75v7.42H26.73v4.2l4.73,2a19.4,19.4,0,0,0,6.88,1.26h8C57.2,66.16,66,57,66,47.67A21.62,21.62,0,0,0,62.68,37.1Z"/><path class="cls-2" d="M26.73,43.8v7.45h5.06a12.57,12.57,0,0,1-2-6.84c0-.2,0-.41,0-.61Z"/><g class="cls-1"><path class="cls-2" d="M51,13.35h-.58v0a2.94,2.94,0,0,1-2.93,2.93H31.07A2.92,2.92,0,0,0,34,19.19H51a2.92,2.92,0,1,0,0-5.84Z"/></g><g class="cls-1"><circle class="cls-2" cx="22.77" cy="23.48" r="12.68"/></g><g class="cls-1"><rect class="cls-2" x="20.39" y="58.66" width="6.34" height="7.45"/></g><g class="cls-1"><rect class="cls-2" x="20.39" y="51.21" width="11.41" height="7.45"/></g><g class="cls-1"><rect class="cls-2" x="20.39" y="43.79" width="6.34" height="7.45"/></g><g class="cls-1"><rect class="cls-2" x="20.39" y="36.34" width="11.41" height="7.45"/></g><path class="cls-3" d="M16.11,13.44H9a.5.5,0,0,1-.5-.5.5.5,0,0,1,.5-.5h7.08a.5.5,0,0,1,.5.5A.51.51,0,0,1,16.11,13.44Z"/><path class="cls-3" d="M12.57,17a.5.5,0,0,1-.5-.5V9.4a.5.5,0,0,1,.5-.5.5.5,0,0,1,.5.5v7.08A.51.51,0,0,1,12.57,17Z"/><path class="cls-3" d="M18.68,29.8a.52.52,0,0,1-.29-.09,7.59,7.59,0,0,1,7.59-13,.5.5,0,0,1-.42.91A6.59,6.59,0,0,0,19,28.9a.51.51,0,0,1,.11.7A.51.51,0,0,1,18.68,29.8Z"/><path class="cls-3" d="M12.12,31a.48.48,0,0,1-.42-.23A13.3,13.3,0,0,1,10.07,20a.5.5,0,1,1,1,.27,12.33,12.33,0,0,0,1.51,10,.5.5,0,0,1-.15.69A.56.56,0,0,1,12.12,31Z"/><path class="cls-3" d="M19.64,11.71a.5.5,0,0,1-.12-1,13.49,13.49,0,0,1,6.5,0,.51.51,0,0,1,.37.61.51.51,0,0,1-.61.36,12.47,12.47,0,0,0-6,0Z"/><path class="cls-3" d="M44.1,57.58a.5.5,0,0,1-.07-1,12.23,12.23,0,1,0-6.92-23.14.49.49,0,0,1-.66-.23.5.5,0,0,1,.23-.67,13.23,13.23,0,1,1,7.48,25Z"/><path class="cls-3" d="M38.6,57.11l-.15,0A14.38,14.38,0,0,1,37,56.53a.51.51,0,0,1-.25-.67.49.49,0,0,1,.66-.24,12.27,12.27,0,0,0,1.36.51.5.5,0,0,1,.32.63A.49.49,0,0,1,38.6,57.11Z"/><path class="cls-3" d="M31.81,44.3H5.93a.51.51,0,0,1-.5-.5V36.34a.51.51,0,0,1,.5-.5H31.81a.51.51,0,0,1,.5.5V43.8A.51.51,0,0,1,31.81,44.3Zm-25.38-1H31.31V36.84H6.43Z"/><path class="cls-3" d="M25.47,44.3a.5.5,0,0,1-.5-.5V40.55a.5.5,0,0,1,.5-.5.51.51,0,0,1,.5.5V43.8A.51.51,0,0,1,25.47,44.3Z"/><path class="cls-3" d="M18.87,44.3a.5.5,0,0,1-.5-.5V40.55a.5.5,0,0,1,1,0V43.8A.5.5,0,0,1,18.87,44.3Z"/><path class="cls-3" d="M12.27,44.3a.51.51,0,0,1-.5-.5V40.55a.51.51,0,0,1,.5-.5.5.5,0,0,1,.5.5V43.8A.5.5,0,0,1,12.27,44.3Z"/><path class="cls-3" d="M31.81,59.21H5.93a.51.51,0,0,1-.5-.5V51.25a.51.51,0,0,1,.5-.5H31.81a.51.51,0,0,1,.5.5v7.46A.51.51,0,0,1,31.81,59.21Zm-25.38-1H31.31V51.75H6.43Z"/><path class="cls-3" d="M25.47,59.21a.5.5,0,0,1-.5-.5V55.46a.5.5,0,0,1,.5-.5.5.5,0,0,1,.5.5v3.25A.51.51,0,0,1,25.47,59.21Z"/><path class="cls-3" d="M18.87,59.21a.5.5,0,0,1-.5-.5V55.46a.5.5,0,0,1,1,0v3.25A.5.5,0,0,1,18.87,59.21Z"/><path class="cls-3" d="M12.27,59.21a.51.51,0,0,1-.5-.5V55.46a.5.5,0,0,1,.5-.5.5.5,0,0,1,.5.5v3.25A.5.5,0,0,1,12.27,59.21Z"/><path class="cls-3" d="M26.73,51.75H.86a.5.5,0,0,1-.5-.5V43.8a.5.5,0,0,1,.5-.5H26.73a.5.5,0,0,1,.5.5v7.45A.5.5,0,0,1,26.73,51.75Zm-25.37-1H26.23V44.3H1.36Z"/><path class="cls-3" d="M20.39,51.75a.5.5,0,0,1-.5-.5V48a.5.5,0,0,1,.5-.5.5.5,0,0,1,.5.5v3.24A.5.5,0,0,1,20.39,51.75Z"/><path class="cls-3" d="M13.8,51.75a.5.5,0,0,1-.5-.5V48a.5.5,0,0,1,.5-.5.5.5,0,0,1,.5.5v3.24A.5.5,0,0,1,13.8,51.75Z"/><path class="cls-3" d="M7.2,51.75a.5.5,0,0,1-.5-.5V48a.5.5,0,0,1,1,0v3.24A.5.5,0,0,1,7.2,51.75Z"/><path class="cls-3" d="M26.73,66.66H.86a.5.5,0,0,1-.5-.5V58.71a.5.5,0,0,1,.5-.5H26.73a.5.5,0,0,1,.5.5v7.45A.5.5,0,0,1,26.73,66.66Zm-25.37-1H26.23V59.21H1.36Z"/><path class="cls-3" d="M20.39,66.66a.5.5,0,0,1-.5-.5V62.91a.51.51,0,0,1,.5-.5.5.5,0,0,1,.5.5v3.25A.5.5,0,0,1,20.39,66.66Z"/><path class="cls-3" d="M13.8,66.66a.5.5,0,0,1-.5-.5V62.91a.5.5,0,0,1,.5-.5.51.51,0,0,1,.5.5v3.25A.5.5,0,0,1,13.8,66.66Z"/><path class="cls-3" d="M7.2,66.66a.5.5,0,0,1-.5-.5V62.91a.5.5,0,0,1,1,0v3.25A.5.5,0,0,1,7.2,66.66Z"/><path class="cls-3" d="M22.56,36.84a.51.51,0,0,1-.26-.07.5.5,0,0,1-.17-.68L32.39,18.94a.5.5,0,0,1,.43-.24h9.65a.5.5,0,0,1,.5.5.51.51,0,0,1-.5.5H33.1L23,36.6A.49.49,0,0,1,22.56,36.84Z"/><path class="cls-3" d="M46.46,66.66h-8a19.83,19.83,0,0,1-7-1.3.5.5,0,1,1,.35-.93,18.83,18.83,0,0,0,6.7,1.23h8A19.41,19.41,0,0,0,60,60a17.56,17.56,0,0,0,5.61-12.37,21.13,21.13,0,0,0-3.23-10.29L54.26,23.74a.49.49,0,0,1,.17-.68.5.5,0,0,1,.69.17l8.14,13.61a21.89,21.89,0,0,1,3.38,10.83,18.6,18.6,0,0,1-5.91,13.09A20.45,20.45,0,0,1,46.46,66.66Z"/><path class="cls-3" d="M51,19.7H34a3.43,3.43,0,1,1,0-6.85H51a.5.5,0,0,1,.5.5.5.5,0,0,1-.5.5H34a2.43,2.43,0,1,0,0,4.85H51a2.43,2.43,0,0,0,2.43-2.43.5.5,0,0,1,.5-.5.5.5,0,0,1,.5.5A3.44,3.44,0,0,1,51,19.7Z"/><path class="cls-3" d="M51,13.85a.46.46,0,0,1-.27-.09.5.5,0,0,1-.15-.69l3.54-5.36A3.33,3.33,0,0,0,54,3.89a3.47,3.47,0,0,0-3.63-1L49,3.13a5.92,5.92,0,0,1-2.25.28,5.37,5.37,0,0,1-2.37-1.15,3.27,3.27,0,0,0-1.94-.92,3.25,3.25,0,0,0-1.91.89,5.34,5.34,0,0,1-2.4,1.18,6.09,6.09,0,0,1-2.32-.3l-1.23-.24a3.49,3.49,0,0,0-3.69,1,3.33,3.33,0,0,0-.06,3.81l.94,1.42a.5.5,0,0,1-.84.55L30,8.26a4.31,4.31,0,0,1,.11-5A4.47,4.47,0,0,1,34.86,1.9l1.24.25A5.6,5.6,0,0,0,38,2.42a4.47,4.47,0,0,0,1.84-.93A4.22,4.22,0,0,1,42.47.34a4.19,4.19,0,0,1,2.61,1.18h0a4.56,4.56,0,0,0,1.82.9,5.32,5.32,0,0,0,1.87-.25l1.36-.28a4.43,4.43,0,0,1,4.66,1.37,4.28,4.28,0,0,1,.11,5l-3.53,5.36A.51.51,0,0,1,51,13.85Z"/><path class="cls-3" d="M53.63,13.87l-2.23,0a.51.51,0,0,1-.49-.51.49.49,0,0,1,.5-.49l2.22,0A10,10,0,0,0,60,10.31,8,8,0,0,0,62.17,5.1a.5.5,0,0,1,.52-.47.51.51,0,0,1,.48.53A9,9,0,0,1,60.68,11,11,11,0,0,1,53.63,13.87Z"/><path class="cls-3" d="M48.48,16.77a.5.5,0,0,1-.35-.15.48.48,0,0,1,0-.7L51.06,13a.5.5,0,0,1,.7,0,.5.5,0,0,1,0,.71l-2.92,2.92A.51.51,0,0,1,48.48,16.77Z"/><path class="cls-3" d="M39.57,19.64a.46.46,0,0,1-.35-.14.5.5,0,0,1,0-.71L45,13a.51.51,0,0,1,.71,0,.5.5,0,0,1,0,.71l-5.8,5.8A.46.46,0,0,1,39.57,19.64Z"/><path class="cls-3" d="M33.53,19.64a.5.5,0,0,1-.36-.14.51.51,0,0,1,0-.71l2.9-2.9a.51.51,0,0,1,.71,0,.5.5,0,0,1,0,.71l-2.9,2.9A.47.47,0,0,1,33.53,19.64Z"/><path class="cls-3" d="M39.83,52.17a.51.51,0,0,1-.5-.5V38.37a.5.5,0,0,1,.5-.5.5.5,0,0,1,.5.5v13.3A.5.5,0,0,1,39.83,52.17Z"/><path class="cls-3" d="M43.72,45.38H39.83a.5.5,0,0,1-.5-.5V38.37a.5.5,0,0,1,.5-.5h3.89a3.76,3.76,0,0,1,0,7.51Zm-3.39-1h3.39a2.76,2.76,0,0,0,0-5.51H40.33Z"/><path class="cls-3" d="M45,48.89H37.79a.51.51,0,0,1-.5-.5.5.5,0,0,1,.5-.5H45a.5.5,0,0,1,.5.5A.5.5,0,0,1,45,48.89Z"/><path class="cls-3" d="M40.57,45.38H37.79a.5.5,0,0,1-.5-.5.51.51,0,0,1,.5-.5h2.78a.5.5,0,0,1,.5.5A.5.5,0,0,1,40.57,45.38Z"/></svg>