<svg id="Layer_1" data-name="Layer 1" xmlns="http://www.w3.org/2000/svg" viewBox="0 0 57 58"><defs><style>.cls-1{opacity:0.3;}.cls-2{fill:#3dafcc;}.cls-3{fill:#1f282c;}</style></defs><title>optimizatorArtboard 27</title><g class="cls-1"><polygon class="cls-2" points="41.86 20.88 44.81 17.93 41.78 14.89 32.57 24.11 28.2 19.74 27.27 20.67 25.17 22.78 29.53 27.14 31.05 28.66 32.57 30.18 37.38 25.36 41.86 20.88"/></g><path class="cls-2" d="M10.93,3.65,6.86,7.36,3.6,13.27l.29,7.38,3.22,5.57,9.7,10.18L28.34,48.15l4.81,3.36L39.43,54l3.44.17,5.72-2.44,4.67-4.44L54.4,44l-1.81-3.2-4.48-3.71L45.6,35.36,43,34.46l-1.94.86-1.8,2.27s-2.12,4.12-5.86,2.85l-2.62-2.07L27.47,35l-8.28-8.29s-3.88-4.77.48-8.49c0,0,2.51-2.18,2.66-2.36a17.84,17.84,0,0,0,.51-2.36S21.75,11.12,21.66,11s-5.85-7.33-5.85-7.33l-2.32-.53Z"/><path class="cls-3" d="M41.61,54.63a15.57,15.57,0,0,1-2.26-.17c-3.57-.52-9.33-3.77-12.58-7.1l-.92-1C21,41.47,8.24,28.35,6.73,26.54A17.71,17.71,0,0,1,3,17.76,11.59,11.59,0,0,1,5.25,8.59c2.09-2.79,4-4.66,5.46-5.39,3.42-1.7,5.9.31,8.79,4.09l.83,1.09c2.29,3,3.24,4.19,3.05,6.32C23.27,16,22.22,16.81,21,17.78c-.52.42-1.05.85-1.56,1.35a.49.49,0,0,1-.7,0,.5.5,0,0,1,0-.71c.55-.53,1.12-1,1.63-1.4,1.08-.87,1.93-1.56,2-2.4.16-1.74-.66-2.8-2.84-5.62L18.71,7.9c-3.09-4-5.07-5-7.55-3.81-.77.38-2.45,1.55-5.11,5.1A10.65,10.65,0,0,0,4,17.6a16.79,16.79,0,0,0,3.47,8.3C9,27.68,22.21,41.25,26.56,45.71l.93.95c3.06,3.15,8.68,6.33,12,6.81a10.81,10.81,0,0,0,7.26-1.17,23.16,23.16,0,0,0,6.36-5.71c1.07-1.71.85-2.5.49-3.3-1-2.17-2.86-3.63-4.65-5L48.64,38c-2.13-1.68-4-3.12-5.58-3-1.41.08-2.28,1.34-3.38,2.94l-.28.41a.5.5,0,0,1-.82-.57l.27-.4C40.06,35.58,41.1,34.07,43,34s4,1.45,6.25,3.25l.31.25c1.89,1.49,3.85,3,4.94,5.41.54,1.17.65,2.34-.55,4.25a24,24,0,0,1-6.74,6.06A11.5,11.5,0,0,1,41.61,54.63Z"/><path class="cls-3" d="M41.53,43.84h-.05a21.2,21.2,0,0,1-10.39-4.49L18,26.25c-3.6-3.58-4.32-9.27-4.35-9.51a.5.5,0,0,1,.44-.56.5.5,0,0,1,.55.44c0,.05.71,5.59,4.07,8.92L31.77,38.62a20.56,20.56,0,0,0,9.82,4.23.5.5,0,0,1,.44.55A.51.51,0,0,1,41.53,43.84Z"/><path class="cls-3" d="M53.52,34.2a.53.53,0,0,1-.24-.06.5.5,0,0,1-.19-.68,21.42,21.42,0,0,0-29-29.09.49.49,0,0,1-.68-.2.51.51,0,0,1,.2-.68A22.42,22.42,0,0,1,54,33.94.51.51,0,0,1,53.52,34.2Z"/><path class="cls-3" d="M32.57,24.61a.53.53,0,0,1-.36-.15l-4-4-.57.58a.5.5,0,1,1-.71-.71l.93-.93a.51.51,0,0,1,.71,0l4,4,8.85-8.86a.51.51,0,0,1,.71,0l3,3a.5.5,0,0,1,0,.7l-3,2.95a.49.49,0,1,1-.7-.7l2.59-2.6L41.78,15.6l-8.86,8.86A.51.51,0,0,1,32.57,24.61Z"/><path class="cls-3" d="M39.5,23.74a.5.5,0,0,1-.35-.85l.27-.27a.49.49,0,0,1,.7.7l-.26.27A.51.51,0,0,1,39.5,23.74Z"/><path class="cls-3" d="M32.57,30.68h0a.53.53,0,0,1-.36-.15l-7.39-7.4a.5.5,0,0,1,0-.71.5.5,0,0,1,.7,0l7.05,7L37,25a.48.48,0,0,1,.7,0,.5.5,0,0,1,0,.71l-4.81,4.81A.51.51,0,0,1,32.57,30.68Z"/><path class="cls-3" d="M8.53,57.19H8.44A.49.49,0,0,1,8.1,57,.4.4,0,0,1,8,56.8S6.7,53.25,5.48,52,.66,49.44.63,49.43a.5.5,0,0,1-.32-.56.49.49,0,0,1,.23-.33.4.4,0,0,1,.15-.1s3.55-1.31,4.77-2.52S8,41.1,8.06,41.06a.49.49,0,0,1,.56-.31A.52.52,0,0,1,9,41a.71.71,0,0,1,.1.14s.67,1.73,1.37,3.1a.49.49,0,1,1-.88.45c-.38-.72-.74-1.52-1-2.14a15,15,0,0,1-2.38,4.1A14.56,14.56,0,0,1,2.1,49a15.34,15.34,0,0,1,4.09,2.38,14.56,14.56,0,0,1,2.33,4.06,15.31,15.31,0,0,1,2.37-4.09A14.7,14.7,0,0,1,15,49a24.67,24.67,0,0,1-2.24-1.08.5.5,0,0,1-.19-.68.5.5,0,0,1,.68-.2,30.17,30.17,0,0,0,3.22,1.49.49.49,0,0,1,.32.55.51.51,0,0,1-.23.34.45.45,0,0,1-.14.1S12.81,50.79,11.6,52,9,56.83,9,56.86A.49.49,0,0,1,8.53,57.19Z"/><path class="cls-3" d="M6.65,36.81H.8a.5.5,0,1,1,0-1H6.65a.5.5,0,0,1,0,1Z"/><path class="cls-3" d="M3.73,39.73a.5.5,0,0,1-.5-.5V33.39a.5.5,0,0,1,.5-.5.5.5,0,0,1,.5.5v5.84A.5.5,0,0,1,3.73,39.73Z"/><path class="cls-3" d="M21.2,57.21a.5.5,0,0,1-.5-.5V50.86a.5.5,0,0,1,1,0v5.85A.5.5,0,0,1,21.2,57.21Z"/><path class="cls-3" d="M24.12,54.28H18.28a.5.5,0,0,1-.5-.5.5.5,0,0,1,.5-.5h5.84a.5.5,0,0,1,.5.5A.5.5,0,0,1,24.12,54.28Z"/></svg>