<svg id="Layer_1" data-name="Layer 1" xmlns="http://www.w3.org/2000/svg" viewBox="0 0 60 58"><defs><style>.cls-1{opacity:0.3;}.cls-2{fill:#3dafcc;}.cls-3{fill:#1f282c;}</style></defs><title>optimizatorArtboard 28</title><g class="cls-1"><polygon class="cls-2" points="49.4 9.38 55.37 8.72 59.16 6.65 59.16 9.68 58.54 11.5 52.72 13.38 49.4 13.38 49.4 9.38"/></g><g class="cls-1"><polygon class="cls-2" points="46.56 15.9 49.4 13.38 53.34 13.18 56.32 13.18 56.32 16.2 55.7 18.02 49.88 19.9 46.56 19.9 46.56 15.9"/></g><g class="cls-1"><polygon class="cls-2" points="49.4 23.5 46.56 19.9 49.88 19.9 53.34 19.05 55.7 18.02 58.34 19.05 59.16 20.77 59.16 23.8 58.54 25.62 52.72 27.5 49.4 27.5 49.4 23.5"/></g><g class="cls-1"><polygon class="cls-2" points="46.56 31.16 49.44 27.59 53.17 27.44 56.32 26.82 56.32 31.45 55.7 33.27 49.88 35.15 46.56 35.15 46.56 31.16"/></g><g class="cls-1"><polygon class="cls-2" points="6.59 9.38 1.04 27.79 1.04 28.52 6.59 29.86 6.59 9.38"/></g><path class="cls-2" d="M53,34.37a24.36,24.36,0,0,1-6.39.78c-5.39,0-9.76-1.43-9.76-3.18V27.79c0-.94,1.25-1.79,3.25-2.37l1,.09a29.27,29.27,0,0,0-11-2.14V40.94a11.92,11.92,0,0,1,5.67,1.43l4-2.41-1.23,4.46a11.85,11.85,0,0,1,3.48,8.41H59.46A29.32,29.32,0,0,0,53,34.37Z"/><g class="cls-1"><path class="cls-2" d="M23.2,34.93V27.79c0-.35,0-3.41,0-3.41,1.52-.76,4.35-1,6.79-1V40.94a11.92,11.92,0,0,0-5.67,1.43l-2.74,2.05a11.85,11.85,0,0,0-3.48,8.41H.54A29.31,29.31,0,0,1,6.6,34.94C6.75,34.75,23.2,34.93,23.2,34.93Z"/></g><path class="cls-3" d="M1.12,48.25H1a.5.5,0,0,1-.41-.58,29.26,29.26,0,0,1,3.18-9.22.5.5,0,0,1,.68-.2.49.49,0,0,1,.2.67,28.81,28.81,0,0,0-3.08,8.92A.49.49,0,0,1,1.12,48.25Z"/><path class="cls-3" d="M39.83,25.65a.33.33,0,0,1-.17,0A29.61,29.61,0,0,0,30,23.87a28.71,28.71,0,0,0-6.81.81.5.5,0,1,1-.24-1A29.76,29.76,0,0,1,30,22.87a30.39,30.39,0,0,1,10,1.81.49.49,0,0,1,.29.64A.51.51,0,0,1,39.83,25.65Z"/><path class="cls-3" d="M58.88,48.25a.49.49,0,0,1-.49-.41,28.81,28.81,0,0,0-3.08-8.92.49.49,0,0,1,.2-.67.5.5,0,0,1,.68.2,29.52,29.52,0,0,1,3.18,9.22.5.5,0,0,1-.41.58Z"/><path class="cls-3" d="M30,35.65a.5.5,0,0,1-.5-.5V23.5a.5.5,0,0,1,1,0V35.15A.5.5,0,0,1,30,35.65Z"/><path class="cls-3" d="M18.92,57.65a.51.51,0,0,1-.47-.32A12.4,12.4,0,0,1,35.92,41.94a.5.5,0,0,1-.48.88,11.39,11.39,0,0,0-16.83,10A11.23,11.23,0,0,0,19.39,57a.5.5,0,0,1-.29.64A.39.39,0,0,1,18.92,57.65Z"/><path class="cls-3" d="M41,57.74a.58.58,0,0,1-.18,0,.5.5,0,0,1-.28-.65,11.23,11.23,0,0,0,.81-4.22,11.36,11.36,0,0,0-3.34-8.06.5.5,0,0,1,0-.7.5.5,0,0,1,.71,0,12.39,12.39,0,0,1,2.75,13.35A.51.51,0,0,1,41,57.74Z"/><path class="cls-3" d="M18.11,53.16H.71a.5.5,0,0,1,0-1h17.4a.5.5,0,0,1,0,1Z"/><path class="cls-3" d="M59.29,53.16H41.89a.5.5,0,0,1,0-1h17.4a.5.5,0,0,1,0,1Z"/><path class="cls-3" d="M49.4,9.88c-5,0-10.26-1.29-10.26-3.67S44.42,2.53,49.4,2.53,59.66,3.82,59.66,6.21,54.38,9.88,49.4,9.88Zm0-6.35c-5.74,0-9.26,1.56-9.26,2.68s3.52,2.67,9.26,2.67,9.26-1.56,9.26-2.67S55.14,3.53,49.4,3.53Z"/><path class="cls-3" d="M49.4,14.06c-5,0-10.26-1.28-10.26-3.67V6.21a.5.5,0,0,1,.5-.5.5.5,0,0,1,.5.5v4.18c0,1.12,3.52,2.67,9.26,2.67s9.26-1.55,9.26-2.67V6.21a.5.5,0,0,1,.5-.5.5.5,0,0,1,.5.5v4.18C59.66,12.78,54.38,14.06,49.4,14.06Z"/><path class="cls-3" d="M46.56,16.26c-5,0-10.26-1.29-10.26-3.68,0-1.1,1.1-2,3.2-2.72a.5.5,0,1,1,.31,1c-1.85.6-2.51,1.31-2.51,1.77,0,1.12,3.52,2.68,9.26,2.68h.16a.51.51,0,0,1,.5.49.5.5,0,0,1-.49.51Z"/><path class="cls-3" d="M46.56,20.44c-5,0-10.26-1.29-10.26-3.68V12.58a.5.5,0,0,1,.5-.5.5.5,0,0,1,.5.5v4.18c0,1.12,3.52,2.68,9.26,2.68s9.26-1.56,9.26-2.68V12.58a.5.5,0,0,1,.5-.5.5.5,0,0,1,.5.5v4.18C56.82,19.15,51.54,20.44,46.56,20.44Z"/><path class="cls-3" d="M54.94,23.44a.5.5,0,0,1-.11-1c2.65-.6,3.83-1.5,3.83-2.13s-.81-1.33-3.11-2a.48.48,0,0,1-.35-.61.49.49,0,0,1,.61-.35c2.49.68,3.85,1.72,3.85,2.92s-1.63,2.43-4.61,3.1Z"/><path class="cls-3" d="M49.4,24c-5,0-10.26-1.29-10.26-3.67A2,2,0,0,1,40,18.81a.5.5,0,0,1,.65.76,1.08,1.08,0,0,0-.46.76c0,1.11,3.52,2.67,9.26,2.67a.5.5,0,0,1,.5.5A.5.5,0,0,1,49.4,24Z"/><path class="cls-3" d="M49.4,28.19c-5,0-10.26-1.29-10.26-3.68V20.33a.5.5,0,0,1,.5-.5.5.5,0,0,1,.5.5v4.18c0,1.12,3.52,2.68,9.26,2.68s9.26-1.56,9.26-2.68V20.33a.5.5,0,0,1,.5-.5.5.5,0,0,1,.5.5v4.18C59.66,26.9,54.38,28.19,49.4,28.19Z"/><path class="cls-3" d="M46.56,31.47c-5,0-10.26-1.29-10.26-3.68,0-1.18,1.24-2.16,3.61-2.85a.5.5,0,0,1,.28,1c-2.14.62-2.89,1.41-2.89,1.89,0,1.12,3.52,2.68,9.26,2.68s9.26-1.56,9.26-2.68a.9.9,0,0,0-.27-.58.49.49,0,0,1,0-.7.5.5,0,0,1,.71,0,1.87,1.87,0,0,1,.54,1.26C56.82,30.18,51.54,31.47,46.56,31.47Z"/><path class="cls-3" d="M46.56,35.65c-5,0-10.26-1.29-10.26-3.68V27.79a.5.5,0,0,1,.5-.5.5.5,0,0,1,.5.5V32c0,1.12,3.52,2.68,9.26,2.68s9.26-1.56,9.26-2.68V27.79a.5.5,0,0,1,.5-.5.5.5,0,0,1,.5.5V32C56.82,34.36,51.54,35.65,46.56,35.65Z"/><g class="cls-1"><circle class="cls-2" cx="30" cy="52.83" r="1.99"/></g><path class="cls-3" d="M29.73,57.59a4.4,4.4,0,0,1-3.54-7l.95-1.25c3.46-4.68,11.94-9.78,12.29-10a.5.5,0,0,1,.56,0,.51.51,0,0,1,.19.52c-.1.4-2.51,10-6,14.67l-.92,1.27A4.42,4.42,0,0,1,29.73,57.59Zm9.15-16.75c-2.42,1.54-8.3,5.5-10.94,9.06L27,51.15a3.41,3.41,0,0,0,5.48,4.06L33.4,54h0C36,50.39,38.11,43.6,38.88,40.84Z"/><path class="cls-3" d="M31.66,53.24H31.6a.51.51,0,0,1-.44-.56,1,1,0,0,0-.53-1,1,1,0,0,0-1.1.07.5.5,0,0,1-.7-.1.51.51,0,0,1,.11-.7,2,2,0,0,1,3.22,1.87A.5.5,0,0,1,31.66,53.24Z"/><path class="cls-3" d="M23.09,35.43H6.59a.5.5,0,0,1-.5-.5V10.22A3.13,3.13,0,0,1,7,8L14.48.41a.53.53,0,0,1,.72,0L22.68,8a.5.5,0,0,1,0,.71.49.49,0,0,1-.7,0L14.84,1.47,7.71,8.7a2.17,2.17,0,0,0-.62,1.52V34.43h15.5V12.65a.5.5,0,0,1,.5-.5.51.51,0,0,1,.5.5V34.93A.5.5,0,0,1,23.09,35.43Z"/><path class="cls-3" d="M2.93,29.49H2.81L.59,28.93a.55.55,0,0,1-.32-.24.55.55,0,0,1,0-.4L3,19.42a.5.5,0,1,1,1,.3l-2.6,8.36,1.71.43a.5.5,0,0,1-.13,1Z"/><path class="cls-3" d="M14.84,14.6a3.47,3.47,0,0,1-1.6-6.55.5.5,0,1,1,.46.88,2.47,2.47,0,1,0,2.87,4,2.42,2.42,0,0,0,.74-1.76.5.5,0,0,1,.5-.5.5.5,0,0,1,.5.5,3.47,3.47,0,0,1-3.47,3.47Z"/><path class="cls-3" d="M28.93,19.55A10.12,10.12,0,0,1,26.12,19a.5.5,0,0,1,.29-1c2.44.72,3.2.42,3.26.31.22-.43-1.72-2.69-6.48-5.13s-7.73-2.68-8-2.24c-.05.09.1.77,1.71,2.09a.52.52,0,0,1,.07.71.51.51,0,0,1-.71.06c-1.71-1.4-2.37-2.52-2-3.32.94-1.84,6.49.38,9.29,1.81S31.5,17,30.56,18.84C30.32,19.31,29.77,19.55,28.93,19.55Z"/><path class="cls-3" d="M12.45,30.89a.51.51,0,0,1-.5-.5V18.5a.5.5,0,0,1,.5-.5.5.5,0,0,1,.5.5V30.39A.5.5,0,0,1,12.45,30.89Z"/><path class="cls-3" d="M15.92,24.82H12.45a.5.5,0,0,1-.5-.5V18.5a.5.5,0,0,1,.5-.5h3.47a3.41,3.41,0,1,1,0,6.82Zm-3-1h3a2.41,2.41,0,1,0,0-4.82H13Z"/><path class="cls-3" d="M17.11,27.86H10.63a.5.5,0,0,1,0-1h6.48a.5.5,0,0,1,0,1Z"/><path class="cls-3" d="M13.11,24.82H10.63a.5.5,0,0,1,0-1h2.48a.5.5,0,0,1,0,1Z"/></svg>