<svg id="Layer_1" data-name="Layer 1" xmlns="http://www.w3.org/2000/svg" viewBox="0 0 1440 139"><defs><style>.cls-1{opacity:0.1;}.cls-2{fill:#3d454d;}.cls-3{fill:#1eb0cd;}.cls-4{fill:#ca75ed;}</style></defs><title>optimizatorArtboard 15</title><g class="cls-1"><rect class="cls-2" y="136.61" width="1440" height="2"/></g><g class="cls-1"><rect class="cls-2" y="9.39" width="4" height="2"/><rect class="cls-2" x="1436" y="9.39" width="4" height="2"/></g><g class="cls-1"><rect class="cls-2" x="179" y="0.39" width="2" height="137.23"/></g><g class="cls-1"><rect class="cls-2" x="359" y="0.39" width="2" height="137.23"/></g><g class="cls-1"><rect class="cls-2" x="539" y="0.39" width="2" height="137.23"/></g><g class="cls-1"><rect class="cls-2" x="719" y="0.39" width="2" height="137.23"/></g><g class="cls-1"><rect class="cls-2" x="899" y="0.39" width="2" height="137.23"/></g><g class="cls-1"><rect class="cls-2" x="1079" y="0.39" width="2" height="137.23"/></g><g class="cls-1"><rect class="cls-2" x="1259" y="0.39" width="2" height="137.23"/></g><path class="cls-3" d="M180,138.61c-35.25,0-63.47-32.51-90.76-64C62.25,43.55,34.34,11.39,0,11.39v-2c35.25,0,63.47,32.51,90.76,64,27,31.11,54.9,63.27,89.24,63.27,27.09,0,49.66-18.9,75.2-47.28l1.49,1.34C230.79,119.45,207.83,138.61,180,138.61Z"/><path class="cls-3" d="M540,138.61c-35.25,0-63.47-32.51-90.76-64-27-31.11-54.9-63.27-89.24-63.27-27.09,0-49.66,18.9-75.2,47.28l-1.49-1.34C309.21,28.55,332.17,9.39,360,9.39c35.25,0,63.47,32.51,90.76,64,27,31.11,54.9,63.27,89.24,63.27,27.09,0,49.66-18.9,75.2-47.28l1.49,1.34C590.79,119.45,567.83,138.61,540,138.61Z"/><path class="cls-3" d="M900,138.61c-35.25,0-63.47-32.51-90.76-64-27-31.11-54.9-63.27-89.24-63.27-27.09,0-49.66,18.9-75.2,47.28l-1.49-1.34C669.21,28.55,692.17,9.39,720,9.39c35.25,0,63.47,32.51,90.76,64,27,31.11,54.9,63.27,89.24,63.27,27.09,0,49.66-18.9,75.2-47.28l1.49,1.34C950.79,119.45,927.83,138.61,900,138.61Z"/><path class="cls-3" d="M1260,138.61c-35.25,0-63.47-32.51-90.76-64-27-31.11-54.9-63.27-89.24-63.27-27.09,0-49.66,18.9-75.2,47.28l-1.49-1.34c25.9-28.78,48.86-47.94,76.69-47.94,35.25,0,63.47,32.51,90.76,64,27,31.11,54.9,63.27,89.24,63.27,27.09,0,49.66-18.9,75.2-47.28l1.49,1.34C1310.79,119.45,1287.83,138.61,1260,138.61Z"/><path class="cls-3" d="M1364.8,58.67l-1.49-1.34c25.9-28.78,48.86-47.94,76.69-47.94v2C1412.91,11.39,1390.34,30.29,1364.8,58.67Z"/><path class="cls-4" d="M0,138.61v-2c27.09,0,49.66-18.9,75.2-47.28l1.49,1.34C50.79,119.45,27.83,138.61,0,138.61Z"/><path class="cls-4" d="M360,138.61c-29.12,0-53.25-22.13-75-46.05-5.29-5.82-10.6-12-15.75-17.87-4.61-5.32-9.35-10.78-14.07-16C229.66,30.29,207.09,11.39,180,11.39s-49.66,18.9-75.2,47.28l-1.49-1.34C129.21,28.55,152.17,9.39,180,9.39s50.79,19.16,76.69,47.94c4.73,5.25,9.47,10.72,14.07,16,5.16,6,10.47,12.07,15.74,17.87,21.42,23.58,45.16,45.4,73.5,45.4,27.09,0,49.66-18.9,75.2-47.28l1.49,1.34C410.79,119.45,387.83,138.61,360,138.61Z"/><path class="cls-4" d="M720,138.61c-35.25,0-63.47-32.51-90.76-64-27-31.11-54.9-63.27-89.24-63.27-27.09,0-49.66,18.9-75.2,47.28l-1.49-1.34C489.21,28.55,512.17,9.39,540,9.39c35.25,0,63.47,32.51,90.76,64,27,31.11,54.9,63.27,89.24,63.27,27.09,0,49.66-18.9,75.2-47.28l1.49,1.34C770.79,119.45,747.83,138.61,720,138.61Z"/><path class="cls-4" d="M1080,138.61c-35.25,0-63.47-32.51-90.76-64-27-31.11-54.9-63.27-89.24-63.27-27.09,0-49.66,18.9-75.2,47.28l-1.49-1.34C849.21,28.55,872.17,9.39,900,9.39c35.25,0,63.47,32.51,90.76,64,27,31.11,54.9,63.27,89.24,63.27,27.09,0,49.66-18.9,75.2-47.28l1.49,1.34C1130.79,119.45,1107.83,138.61,1080,138.61Z"/><path class="cls-4" d="M1440,138.61c-35.25,0-63.47-32.51-90.76-64-27-31.11-54.9-63.27-89.24-63.27-27.09,0-49.66,18.9-75.2,47.28l-1.49-1.34c25.9-28.78,48.86-47.94,76.69-47.94,35.25,0,63.47,32.51,90.76,64,27,31.11,54.9,63.27,89.24,63.27Z"/></svg>