<svg id="Layer_1" data-name="Layer 1" xmlns="http://www.w3.org/2000/svg" viewBox="0 0 426 423"><defs><style>.cls-1{fill:#94d5e6;}.cls-2{fill:#3dafcc;}.cls-3{fill:#bcecfa;}.cls-4{fill:#515c66;}.cls-5{fill:#b9e2ed;}.cls-6{fill:#8dd8eb;}.cls-7{fill:#e8f5f9;}.cls-8{fill:#c8f1fa;}.cls-9{fill:#98daeb;}.cls-10{fill:#1b95b3;}.cls-11{fill:#fff;}</style></defs><title>optimizatorArtboard 14</title><path class="cls-1" d="M232.67,412.8.17,278.57v8.63a5.2,5.2,0,0,0,2.61,4.52l223.6,129.1a12.57,12.57,0,0,0,12.58,0l148.16-85.54a6.31,6.31,0,0,0,3.15-5.46v-8Z"/><path class="cls-2" d="M232.91,422.5a12.62,12.62,0,0,0,6.05-1.68l148.16-85.54a6.31,6.31,0,0,0,3.15-5.46v-8L232.91,412.66Z"/><polygon class="cls-2" points="398.48 316.08 357.19 283.72 350.42 286.44 391.7 318.81 398.48 316.08"/><polygon class="cls-3" points="233.6 33.08 192.31 0.72 185.53 3.44 226.82 35.8 233.6 33.08"/><path class="cls-3" d="M195.77,1.07l227.94,131.6a4.26,4.26,0,0,1,2.08,4.28l-25,175.93a4.25,4.25,0,0,1-6.33,3.08L166.51,184.36a4.26,4.26,0,0,1-2.08-4.28l25-175.93a4.25,4.25,0,0,1,6.33-3.08Z"/><path class="cls-2" d="M425.81,136.65l-17.44,7L383.24,309.49,394.45,316a4.25,4.25,0,0,0,6.33-3.08l25-175.93C425.8,136.85,425.8,136.75,425.81,136.65Z"/><path class="cls-3" d="M388.58,318.7,161,187.29a6.37,6.37,0,0,0-6.4,0L1.85,275.46a3.38,3.38,0,0,0,0,5.84L226.92,411.24a11.52,11.52,0,0,0,11.5,0l150.16-86.7A3.37,3.37,0,0,0,388.58,318.7Z"/><path class="cls-4" d="M236,356.1,199.51,335c-10-5.75-26.09-5.75-36,0s-10,17.6,0,23.35L200,379.45c9.95,5.74,27,5,36.93-.77S246,361.85,236,356.1Z"/><path class="cls-2" d="M235.66,359.61l-36.15-20.87c-9.86-5.69-25.84-5.69-35.69,0s-9.86,14.92,0,20.61L200,380.22c9.85,5.69,25.83,5.69,35.69,0S245.52,365.3,235.66,359.61Z"/><rect class="cls-5" x="200.38" y="363.25" width="4.84" height="6.07"/><ellipse class="cls-6" cx="218.94" cy="369.61" rx="18.55" ry="10.71"/><rect class="cls-5" x="232.64" y="363.25" width="4.84" height="6.07"/><ellipse class="cls-7" cx="218.94" cy="363.59" rx="18.55" ry="10.71"/><path class="cls-6" d="M189.51,3.59l227.94,131.6a4.24,4.24,0,0,1,2.08,4.28l-25,175.93a4.26,4.26,0,0,1-6.34,3.08L160.26,186.88a4.24,4.24,0,0,1-2.08-4.29l25-175.92a4.24,4.24,0,0,1,6.33-3.08Z"/><polygon class="cls-4" points="169.19 179.89 192.28 17.33 408.52 142.18 385.43 304.73 169.19 179.89"/><path class="cls-2" d="M91.66,252.06,162.81,211a7.57,7.57,0,0,1,7.54,0L345.81,312.29a3.42,3.42,0,0,1,0,5.92L273.47,360a10,10,0,0,1-10,0L91.66,260.77A5,5,0,0,1,91.66,252.06Z"/><path class="cls-6" d="M345.68,318.29,168.89,216.21a4.65,4.65,0,0,0-4.62,0L93.36,257.15a2.66,2.66,0,0,0,0,4.6l171.19,98.83a7.85,7.85,0,0,0,7.87,0Z"/><polygon class="cls-4" points="101.65 259.45 166.58 221.97 333.41 318.29 268.48 355.77 101.65 259.45"/><path class="cls-6" d="M337.2,321.54c1.18-.68,1.11-1.83-.14-2.55l-171.7-99.13a4.9,4.9,0,0,0-4.41-.08L97.86,256.2c-1.17.68-1.11,1.83.14,2.55l171.7,99.13a4.9,4.9,0,0,0,4.41.08Z"/><path class="cls-4" d="M163.34,234.32a1.23,1.23,0,0,1-1.06,0l-8.06-4.66a.32.32,0,0,1,0-.61l8.06-4.65a1.17,1.17,0,0,1,1.06,0l8.06,4.66c.29.16.29.44,0,.6Z"/><path class="cls-4" d="M169.24,251.21a1.17,1.17,0,0,1-1.06,0l-8.06-4.65c-.29-.17-.29-.44,0-.61l8.06-4.65a1.14,1.14,0,0,1,1.05,0l8,4.65c.3.17.3.44,0,.61Z"/><path class="cls-4" d="M160.32,259.55a1.14,1.14,0,0,1-1,0l-8.06-4.65a.32.32,0,0,1,0-.61l8.06-4.65a1.14,1.14,0,0,1,1,0l8.06,4.65a.32.32,0,0,1,0,.61Z"/><path class="cls-4" d="M142.92,263a1.18,1.18,0,0,1-1,0l-8.06-4.66a.32.32,0,0,1,0-.6l8.06-4.66a1.18,1.18,0,0,1,1,0l8.07,4.65a.32.32,0,0,1,0,.61Z"/><path class="cls-4" d="M115.17,262.12a1.14,1.14,0,0,1-1,0l-8.06-4.65a.32.32,0,0,1,0-.61l9.46-5.46a1.17,1.17,0,0,1,1.06,0l8.06,4.65a.32.32,0,0,1,0,.61Z"/><path class="cls-4" d="M126.82,268.85a1.14,1.14,0,0,1-1,0l-8.06-4.65a.32.32,0,0,1,0-.61l9.46-5.47a1.23,1.23,0,0,1,1.06,0l8.05,4.66a.32.32,0,0,1,0,.6Z"/><path class="cls-4" d="M138.47,275.57a1.14,1.14,0,0,1-1.05,0l-8.06-4.65a.32.32,0,0,1,0-.61l9.46-5.46a1.18,1.18,0,0,1,1.05,0l8.06,4.65c.29.17.29.45,0,.61Z"/><path class="cls-4" d="M238,333a1.18,1.18,0,0,1-1,0l-8.06-4.65a.32.32,0,0,1,0-.61l9.46-5.46a1.18,1.18,0,0,1,1,0l8.06,4.65a.32.32,0,0,1,0,.61Z"/><path class="cls-4" d="M249.52,339.85a1.14,1.14,0,0,1-1.05,0l-8.06-4.65a.32.32,0,0,1,0-.61l4.2-2.43a1.17,1.17,0,0,1,1.06,0l8.06,4.65a.32.32,0,0,1,0,.61Z"/><path class="cls-4" d="M272.88,353.34a1.21,1.21,0,0,1-1.05,0l-8.06-4.66a.32.32,0,0,1,0-.61l4.2-2.42a1.17,1.17,0,0,1,1.06,0l8.06,4.65a.32.32,0,0,1,0,.61Z"/><path class="cls-4" d="M153.09,284a1.18,1.18,0,0,1-1.05,0l-10.95-6.33a.32.32,0,0,1,0-.61l9.46-5.46a1.18,1.18,0,0,1,1,0l11,6.32a.32.32,0,0,1,0,.61Z"/><path class="cls-4" d="M226.22,326.24a1.21,1.21,0,0,1-1.05,0l-10.95-6.33a.32.32,0,0,1,0-.6l9.46-5.47a1.21,1.21,0,0,1,1,0l11,6.33c.3.16.29.44,0,.6Z"/><path class="cls-4" d="M210.41,317.11a1.2,1.2,0,0,1-1.06,0L156.9,286.82a.32.32,0,0,1,0-.61l9.46-5.46a1.23,1.23,0,0,1,1.06,0L219.86,311a.32.32,0,0,1,0,.61Z"/><path class="cls-4" d="M154.6,269.74a1.18,1.18,0,0,1-1,0l-8.06-4.65a.33.33,0,0,1,0-.61l8.06-4.65a1.2,1.2,0,0,1,1.06,0l8.06,4.66c.29.17.28.44,0,.61Z"/><path class="cls-4" d="M166.28,276.48a1.12,1.12,0,0,1-1,0l-8.06-4.65a.32.32,0,0,1,0-.61l8.06-4.65a1.17,1.17,0,0,1,1.06,0l8.06,4.65a.32.32,0,0,1,0,.61Z"/><path class="cls-4" d="M178,283.23a1.2,1.2,0,0,1-1.06,0l-8.06-4.66a.32.32,0,0,1,0-.6l8.06-4.66a1.23,1.23,0,0,1,1.06,0L186,278a.32.32,0,0,1,0,.61Z"/><path class="cls-4" d="M189.65,290a1.14,1.14,0,0,1-1.05,0l-8.06-4.65a.32.32,0,0,1,0-.61l8.06-4.65a1.14,1.14,0,0,1,1.05,0l8.06,4.65a.32.32,0,0,1,0,.61Z"/><path class="cls-4" d="M201.33,296.72a1.21,1.21,0,0,1-1.05,0l-8.06-4.66a.32.32,0,0,1,0-.6l8.06-4.66a1.21,1.21,0,0,1,1.05,0l8.06,4.66a.32.32,0,0,1,0,.6Z"/><path class="cls-4" d="M213,303.46a1.14,1.14,0,0,1-1,0l-8.06-4.65a.32.32,0,0,1,0-.61l8.06-4.65a1.14,1.14,0,0,1,1,0l8.06,4.65a.32.32,0,0,1,0,.61Z"/><path class="cls-4" d="M224.69,310.21a1.18,1.18,0,0,1-1.05,0l-8.06-4.65a.32.32,0,0,1,0-.61l8.06-4.65a1.14,1.14,0,0,1,1.05,0l8.06,4.65a.32.32,0,0,1,0,.61Z"/><path class="cls-4" d="M236.37,317a1.14,1.14,0,0,1-1.05,0l-8.06-4.65c-.28-.17-.29-.45,0-.61l8.06-4.66a1.23,1.23,0,0,1,1.06,0l8.05,4.66a.32.32,0,0,1,0,.61Z"/><path class="cls-4" d="M248.05,323.69a1.14,1.14,0,0,1-1.05,0L238.94,319a.32.32,0,0,1,0-.61l8.06-4.65a1.17,1.17,0,0,1,1.06,0l8.06,4.65c.29.17.28.44,0,.61Z"/><path class="cls-4" d="M259.74,330.44a1.23,1.23,0,0,1-1.06,0l-8.05-4.66a.32.32,0,0,1,0-.6l8.06-4.66a1.23,1.23,0,0,1,1.06,0l8.06,4.65a.32.32,0,0,1,0,.61Z"/><path class="cls-4" d="M285.68,345.42a1.21,1.21,0,0,1-1.05,0l-22-12.68a.32.32,0,0,1,0-.61l8.06-4.65a1.17,1.17,0,0,1,1.06,0l21.95,12.67a.32.32,0,0,1,0,.61Z"/><path class="cls-4" d="M172,266.29a1.18,1.18,0,0,1-1.05,0l-8.06-4.66a.32.32,0,0,1,0-.6l8.06-4.66a1.21,1.21,0,0,1,1.05,0l8.06,4.66c.29.17.29.44,0,.6Z"/><path class="cls-4" d="M183.69,273a1.17,1.17,0,0,1-1.06,0l-8.06-4.65a.32.32,0,0,1,0-.61l8.06-4.65a1.12,1.12,0,0,1,1,0l8.06,4.65a.32.32,0,0,1,0,.61Z"/><path class="cls-4" d="M195.36,279.78a1.12,1.12,0,0,1-1,0l-8.06-4.65c-.29-.17-.3-.44,0-.61l8.07-4.65a1.15,1.15,0,0,1,1,0l8.06,4.66c.3.16.29.43,0,.6Z"/><path class="cls-4" d="M207.05,286.53a1.18,1.18,0,0,1-1.05,0l-8.07-4.66c-.28-.16-.28-.43,0-.6l8.06-4.66a1.19,1.19,0,0,1,1,0l8.07,4.66a.32.32,0,0,1,0,.6Z"/><path class="cls-4" d="M218.73,293.27a1.14,1.14,0,0,1-1,0l-8.06-4.65c-.29-.17-.3-.44,0-.61l8.06-4.65a1.18,1.18,0,0,1,1,0l8.06,4.65a.32.32,0,0,1,0,.61Z"/><path class="cls-4" d="M230.41,300a1.18,1.18,0,0,1-1,0l-8.06-4.66c-.29-.16-.29-.43,0-.6l8.06-4.66a1.18,1.18,0,0,1,1,0l8.06,4.65a.32.32,0,0,1,0,.6Z"/><path class="cls-4" d="M242.09,306.76a1.14,1.14,0,0,1-1.05,0L233,302.11a.32.32,0,0,1,0-.61l8.06-4.65a1.14,1.14,0,0,1,1.05,0l8.06,4.65a.32.32,0,0,1,0,.61Z"/><path class="cls-4" d="M253.77,313.5a1.14,1.14,0,0,1-1.05,0l-8.06-4.65c-.29-.17-.29-.44,0-.6l8.06-4.66a1.21,1.21,0,0,1,1.05,0l8.06,4.66a.32.32,0,0,1,0,.6Z"/><path class="cls-4" d="M265.45,320.25a1.14,1.14,0,0,1-1.05,0l-8.06-4.66c-.29-.16-.29-.43,0-.6l8.06-4.65a1.14,1.14,0,0,1,1.05,0l8.06,4.65a.32.32,0,0,1,0,.61Z"/><path class="cls-4" d="M277.13,327a1.14,1.14,0,0,1-1.05,0L268,322.34c-.3-.17-.3-.44,0-.61l8.06-4.65a1.17,1.17,0,0,1,1.06,0l8.05,4.65a.32.32,0,0,1,0,.61Z"/><path class="cls-4" d="M288.81,333.74a1.15,1.15,0,0,1-1,0l-8.07-4.66c-.29-.16-.29-.43,0-.6l8.06-4.66a1.19,1.19,0,0,1,1,0l8.06,4.66a.32.32,0,0,1,0,.6Z"/><path class="cls-4" d="M180.92,258a1.2,1.2,0,0,1-1.06,0l-8.06-4.66a.32.32,0,0,1,0-.61l8.06-4.65a1.14,1.14,0,0,1,1,0l8.06,4.65a.32.32,0,0,1,0,.61Z"/><path class="cls-4" d="M192.6,264.7a1.17,1.17,0,0,1-1.06,0l-8.06-4.65a.32.32,0,0,1,0-.61l8.06-4.66a1.21,1.21,0,0,1,1,0l8.06,4.66a.32.32,0,0,1,0,.61Z"/><path class="cls-4" d="M204.28,271.44a1.14,1.14,0,0,1-1.05,0l-8.06-4.65a.32.32,0,0,1,0-.61l8.06-4.65a1.14,1.14,0,0,1,1.05,0l8.06,4.65a.32.32,0,0,1,0,.61Z"/><path class="cls-4" d="M216,278.18a1.18,1.18,0,0,1-1.05,0l-8.06-4.65a.32.32,0,0,1,0-.61l8.06-4.66a1.21,1.21,0,0,1,1.05,0l8.06,4.66a.32.32,0,0,1,0,.6Z"/><path class="cls-4" d="M227.64,284.93a1.14,1.14,0,0,1-1,0l-8.06-4.65a.32.32,0,0,1,0-.61l8.06-4.65a1.14,1.14,0,0,1,1,0l8.06,4.65a.32.32,0,0,1,0,.61Z"/><path class="cls-4" d="M239.32,291.67a1.18,1.18,0,0,1-1,0L230.21,287a.32.32,0,0,1,0-.61l8.06-4.65a1.14,1.14,0,0,1,1,0l8.06,4.66c.29.16.29.43,0,.6Z"/><path class="cls-4" d="M251,298.42a1.17,1.17,0,0,1-1.06,0l-8.06-4.65c-.29-.17-.29-.44,0-.61l8.06-4.65a1.15,1.15,0,0,1,1,0l8.06,4.66c.3.17.29.44,0,.6Z"/><path class="cls-4" d="M262.69,305.16a1.17,1.17,0,0,1-1.06,0l-8.06-4.65c-.29-.17-.29-.44,0-.61l8.06-4.65a1.12,1.12,0,0,1,1,0l8.06,4.65a.32.32,0,0,1,0,.61Z"/><path class="cls-4" d="M274.37,311.91a1.14,1.14,0,0,1-1.05,0l-8.07-4.65c-.29-.17-.28-.44,0-.61l8.06-4.66a1.18,1.18,0,0,1,1.05,0l8.06,4.65a.32.32,0,0,1,0,.6Z"/><path class="cls-4" d="M286.05,318.65a1.17,1.17,0,0,1-1.06,0L276.93,314a.32.32,0,0,1,0-.61l8.06-4.65a1.14,1.14,0,0,1,1.05,0l8.06,4.65a.32.32,0,0,1,0,.61Z"/><path class="cls-4" d="M297.73,325.39a1.18,1.18,0,0,1-1.05,0l-8.06-4.66a.32.32,0,0,1,0-.61l8.06-4.65a1.21,1.21,0,0,1,1.05,0l8.06,4.66a.32.32,0,0,1,0,.6Z"/><path class="cls-4" d="M157.41,244.38a1.17,1.17,0,0,1-1.06,0l-13.66-7.89a.32.32,0,0,1,0-.61l8.06-4.65a1.14,1.14,0,0,1,1.05,0l13.67,7.89a.32.32,0,0,1,0,.61Z"/><path class="cls-4" d="M320.94,325.31a1.14,1.14,0,0,1-1.05,0l-13.67-7.89c-.28-.16-.28-.44,0-.61l8-4.65a1.17,1.17,0,0,1,1.06,0L329,320.05a.32.32,0,0,1,0,.61Z"/><path class="cls-4" d="M148.42,252.68a1.14,1.14,0,0,1-1,0l-16.29-9.41c-.29-.16-.29-.43,0-.6l8.06-4.66a1.18,1.18,0,0,1,1.05,0l16.29,9.4a.32.32,0,0,1,0,.61Z"/><path class="cls-4" d="M131.17,256.21a1.14,1.14,0,0,1-1,0l-10.87-6.27a.32.32,0,0,1,0-.61l8.06-4.65a1.17,1.17,0,0,1,1.06,0L139.23,251a.32.32,0,0,1,0,.61Z"/><path class="cls-4" d="M175,241.06a1.17,1.17,0,0,1-1.06,0l-8.05-4.65a.32.32,0,0,1,0-.61l8.05-4.65a1.17,1.17,0,0,1,1.06,0l8,4.65c.3.17.3.44,0,.61Z"/><path class="cls-4" d="M186.7,247.8a1.14,1.14,0,0,1-1,0l-8.07-4.65a.32.32,0,0,1,0-.61l8.06-4.65a1.14,1.14,0,0,1,1,0l8.06,4.65a.32.32,0,0,1,0,.61Z"/><path class="cls-4" d="M198.38,254.55a1.2,1.2,0,0,1-1.06,0l-8-4.66a.32.32,0,0,1,0-.6l8-4.65a1.2,1.2,0,0,1,1.06,0l8.06,4.66a.32.32,0,0,1,0,.61Z"/><path class="cls-4" d="M210.06,261.29a1.14,1.14,0,0,1-1.05,0L201,256.64a.32.32,0,0,1,0-.61l8.05-4.65a1.17,1.17,0,0,1,1.06,0l8.06,4.65a.32.32,0,0,1,0,.61Z"/><path class="cls-4" d="M221.74,268a1.18,1.18,0,0,1-1.05,0l-8.06-4.66a.32.32,0,0,1,0-.61l8.06-4.65a1.14,1.14,0,0,1,1.05,0l8.06,4.65c.29.17.29.44,0,.61Z"/><path class="cls-4" d="M233.42,274.78a1.14,1.14,0,0,1-1,0l-8.06-4.65a.32.32,0,0,1,0-.61l8.06-4.65a1.17,1.17,0,0,1,1.06,0l8,4.65a.32.32,0,0,1,0,.61Z"/><path class="cls-4" d="M245.1,281.52a1.14,1.14,0,0,1-1,0L236,276.87a.32.32,0,0,1,0-.61l8.06-4.65a1.14,1.14,0,0,1,1,0l8.06,4.65a.32.32,0,0,1,0,.61Z"/><path class="cls-4" d="M256.78,288.27a1.18,1.18,0,0,1-1,0l-8.06-4.66a.32.32,0,0,1,0-.6l8.06-4.66a1.21,1.21,0,0,1,1,0l8.06,4.66a.32.32,0,0,1,0,.61Z"/><path class="cls-4" d="M268.46,295a1.14,1.14,0,0,1-1,0l-8.06-4.65a.32.32,0,0,1,0-.61l8.06-4.65a1.17,1.17,0,0,1,1.06,0l8.06,4.65a.32.32,0,0,1,0,.61Z"/><path class="cls-4" d="M280.15,301.76a1.21,1.21,0,0,1-1,0L271,297.1a.32.32,0,0,1,0-.6l8-4.66a1.23,1.23,0,0,1,1.06,0l8.06,4.66a.32.32,0,0,1,0,.6Z"/><path class="cls-4" d="M291.83,308.5a1.17,1.17,0,0,1-1.06,0l-8-4.65c-.3-.17-.3-.44,0-.61l8.06-4.65a1.17,1.17,0,0,1,1.06,0l8.06,4.65a.32.32,0,0,1,0,.61Z"/><path class="cls-4" d="M303.51,315.24a1.18,1.18,0,0,1-1.05,0l-8.07-4.66a.32.32,0,0,1,0-.61l8.06-4.65a1.12,1.12,0,0,1,1,0l8.07,4.65c.29.17.29.44,0,.61Z"/><path class="cls-4" d="M256,339.06l-3.79,2.19a.37.37,0,0,0-.22.3.39.39,0,0,0,.22.31l8.06,4.65a1,1,0,0,0,.53.13,1,1,0,0,0,.52-.13l3.79-2.19Z"/><path class="cls-4" d="M267.07,343.2l3.73-2.15a.36.36,0,0,0,.22-.3.39.39,0,0,0-.22-.31l-8.06-4.65a1,1,0,0,0-.53-.13,1,1,0,0,0-.52.13L258,337.94Z"/><path class="cls-4" d="M309.19,322.39a1.19,1.19,0,0,0-.53-.12,1.05,1.05,0,0,0-.52.13l-8.06,4.65a.32.32,0,0,0,0,.61l2.11,1.21L291.61,335a.37.37,0,0,0-.22.31.36.36,0,0,0,.22.3l5.43,3.13a1.06,1.06,0,0,0,.53.13,1,1,0,0,0,.52-.12l19.16-11.06a.34.34,0,0,0,.21-.31c0-.12-.08-.22-.21-.3Z"/><ellipse class="cls-2" cx="73.73" cy="281.98" rx="18.93" ry="10.93"/><rect class="cls-2" x="54.8" y="208.56" width="37.86" height="73.12"/><ellipse class="cls-8" cx="73.73" cy="208.56" rx="18.93" ry="10.93"/><ellipse class="cls-2" cx="60.92" cy="256.96" rx="18.93" ry="10.93"/><rect class="cls-2" x="41.99" y="249.19" width="37.86" height="7.47"/><ellipse class="cls-6" cx="60.92" cy="249.19" rx="18.93" ry="10.93"/><ellipse class="cls-2" cx="73.73" cy="247.92" rx="18.93" ry="10.93"/><rect class="cls-2" x="54.8" y="208.56" width="37.86" height="39.07"/><ellipse class="cls-6" cx="73.73" cy="208.56" rx="18.93" ry="10.93"/><ellipse class="cls-2" cx="100.53" cy="297.45" rx="18.93" ry="10.93"/><rect class="cls-2" x="81.6" y="247.53" width="37.86" height="49.63"/><ellipse class="cls-6" cx="100.53" cy="247.53" rx="18.93" ry="10.93"/><ellipse class="cls-2" cx="127.89" cy="313.25" rx="18.93" ry="10.93"/><rect class="cls-2" x="108.96" y="283.34" width="37.86" height="29.61"/><ellipse class="cls-9" cx="127.89" cy="283.34" rx="18.93" ry="10.93"/><ellipse class="cls-2" cx="120.31" cy="305.88" rx="18.93" ry="10.93"/><rect class="cls-2" x="101.38" y="298.11" width="37.86" height="7.47"/><ellipse class="cls-6" cx="120.31" cy="298.11" rx="18.93" ry="10.93"/><ellipse class="cls-2" cx="127.89" cy="292.79" rx="18.93" ry="10.93"/><rect class="cls-2" x="108.96" y="279.91" width="37.86" height="12.58"/><ellipse class="cls-6" cx="127.89" cy="279.91" rx="18.93" ry="10.93"/><path class="cls-3" d="M275.54,142.35l-9.89-7a56.67,56.67,0,0,0-2.88-9.67l6.19-5.44-8.32-14.42-7.81,2.64a57.56,57.56,0,0,0-6.93-7.32L244.75,89,233,82.22,222.29,88.4l-5.19-7.75-8.33,4.81h0l-4.26,2.46-4.21,13.17-10.7,6.18s16.77,11.66,17.07,11.47c.06,0,.7-.35,1.66-.78l3.75,2.67c.65,3.21-5,6.88-3.72,10.08l.41,5,8.33,14.42,8.5,7.55c2.15,2.69,3.86-2.27,6.32-.1l1,9.09-2.47,1.78L232.17,181l10.69-6.17,13.52,2.94L269,170.49l-4.11-8.37L275.54,156Zm-50.63-22.44a14.55,14.55,0,0,1,.65-4.49l11.11,4.31,9.07,19.94-.37,6.32a12.37,12.37,0,0,1-6.5-1.9C231.16,139.64,224.91,128.82,224.91,119.91Z"/><path class="cls-2" d="M275.54,142.35l-9.89-7a56.67,56.67,0,0,0-2.88-9.67l-18.54,10.71,1.51,3.31-.37,6.32a10.15,10.15,0,0,1-3.18-.44l-.77,7.72-9.21,6.9.45,3.89,23.72,13.7L269,170.49l-4.11-8.37L275.54,156Z"/><path class="cls-10" d="M262.77,125.65l6.19-5.44-12.58,7.27-6.2,5.44-5,2.91,6.24,7.72,14.26-8.23A56.67,56.67,0,0,0,262.77,125.65Z"/><path class="cls-6" d="M263,163.21V149.62l-9.89-7a56.67,56.67,0,0,0-2.88-9.67l6.2-5.44-8.33-14.42-7.81,2.64a57.61,57.61,0,0,0-6.93-7.33l-1.14-12.08-11.78-6.8-1.14,10.77a19,19,0,0,0-6.93-.68l-7.81-11.66-8.33,4.81,6.19,12.59a19.06,19.06,0,0,0-2.87,6.34l-9.9-4.39v13.59l9.9,7a57.71,57.71,0,0,0,2.87,9.66L196.18,143l8.33,14.42,7.81-2.64a57.61,57.61,0,0,0,6.93,7.33l1.14,12.08,11.78,6.8,1.14-10.76a19,19,0,0,0,6.93.67l7.81,11.66,8.33-4.8-6.2-12.6a18.87,18.87,0,0,0,2.88-6.34Zm-36.67-11.85c-7.71-4.45-14-15.28-14-24.18s6.25-12.51,14-8.06,14,15.28,14,24.18S234,155.81,226.28,151.36Z"/><polygon class="cls-10" points="262.95 149.62 275.54 142.35 275.54 155.95 262.95 163.22 262.95 149.62"/><path class="cls-2" d="M238.87,144.09c-7.71-4.45-14-15.27-14-24.18,0-.51,0-1,.06-1.47-7.09-3.33-12.65.35-12.65,8.74,0,8.9,6.25,19.73,14,24.18,7.27,4.2,13.23,1.22,13.89-6.59C239.74,144.57,239.31,144.35,238.87,144.09Z"/><path class="cls-2" d="M364.82,204.09l.33-3.19,12.59-7.27-6.58-22.7-14.4-3.77a100,100,0,0,0-7.85-13.82l4.24-14.07-16.22-17.36-12.53,7.23a51.58,51.58,0,0,0-6.11-3.16l-7.12-19.27-16.37-1.86-12.58,7.27,2.12,10.22L276.39,115l-12.58,7.27L274,150.6l-4.81,8.73-7,4-5.62,3.24,31,29.31-.17-10.83,2.75.72A101.76,101.76,0,0,0,298,199.63l-4.25,14.06L304.37,225l-3.69,1.86-3.27,11.43L310,231.05l6.05,3.2,7.11,19.26,16.37,1.87,12.59-7.27L350,237.89l7.95,7.32,12.59-7.27,6.93-14.74-13-16C364.64,206.17,364.75,205.14,364.82,204.09Zm-60.59-48.2a10.68,10.68,0,0,1,5.77-5.66l24.89,27.19-1.68,26.05c-5.38.16-11.94-3.08-18-9.52C304.63,182.58,299.69,165.54,304.23,155.89Z"/><path class="cls-3" d="M348.91,153.34l4.24-14.07-16.22-17.36-12.53,7.23a51.58,51.58,0,0,0-6.11-3.16l-7.12-19.27-16.37-1.86-12.58,7.27,2.12,10.22L276.39,115l-12.58,7.27,4,11,37.06,21.4a10.35,10.35,0,0,1,5.15-4.51l14.53,15.87L352,182l13.12,18.92,12.59-7.27-6.58-22.7-14.4-3.77A100,100,0,0,0,348.91,153.34Z"/><path class="cls-6" d="M357.94,245.21l6.93-14.74-13-16a54,54,0,0,0,.11-12.92l13.13-.63-6.57-22.7-14.41-3.77a100.64,100.64,0,0,0-7.85-13.83l4.24-14.06-16.22-17.37L317,139.87a55.62,55.62,0,0,0-11.25-6.62L298.59,114l-16.38-1.86,3.94,18.9a19.73,19.73,0,0,0-8,4.43l-14.3-13.16L256.88,137l13,16a54.47,54.47,0,0,0-.12,12.92l-13.12.64,6.57,22.7,14.4,3.77a101.06,101.06,0,0,0,7.86,13.82L281.18,221l16.23,17.36,7.39-10.69a55.54,55.54,0,0,0,11.25,6.62l7.11,19.26,16.37,1.87-3.93-18.91a19.61,19.61,0,0,0,8-4.43Zm-55.28-44c-10.62-11.38-15.56-28.41-11-38.06s16.82-8.25,27.45,3.12,15.55,28.41,11,38.06S313.28,212.59,302.66,201.22Z"/><path class="cls-2" d="M164.93,102.35,159,105.77l4.9,5.11s3.16-1.34,3.1-1.83S164.93,102.35,164.93,102.35Z"/><path class="cls-2" d="M297.08,323.36l5.42-3.13L298.9,309s-11.32-2-9.57,0S297.08,323.36,297.08,323.36Z"/><polygon class="cls-2" points="162.97 112.91 302.5 193.47 302.5 320.23 162.97 239.67 162.97 112.91"/><path class="cls-2" d="M167.4,102.58l130.9,75.57a8.41,8.41,0,0,1,4.2,7.28v8l-7.09,4.16L163,112.91v-7.77a2.94,2.94,0,0,1,2-2.79A2.9,2.9,0,0,1,167.4,102.58Z"/><path class="cls-4" d="M297.08,323.36l5.42-3.13V185.43a8.33,8.33,0,0,0-.78-3.5l-9.9,5.72Z"/><polygon class="cls-11" points="157.55 116.04 297.08 196.6 297.08 323.36 157.55 242.8 157.55 116.04"/><path class="cls-6" d="M162,105.7l130.9,75.58a8.39,8.39,0,0,1,4.2,7.27v8L157.55,116v-7.78A2.95,2.95,0,0,1,162,105.7Z"/><ellipse class="cls-4" cx="163.9" cy="113.69" rx="1.77" ry="3.07" transform="matrix(0.87, -0.5, 0.5, 0.87, -34.89, 97.18)"/><ellipse class="cls-4" cx="171.02" cy="117.8" rx="1.77" ry="3.07" transform="translate(-35.99 101.29) rotate(-30)"/><ellipse class="cls-4" cx="178.13" cy="121.91" rx="1.77" ry="3.07" transform="translate(-37.09 105.4) rotate(-30)"/><path class="cls-11" d="M190.84,126.21,244.08,157a.79.79,0,0,1,.39.68v3.46a.78.78,0,0,1-1.17.68L190.05,131a.79.79,0,0,1-.39-.68v-3.46A.79.79,0,0,1,190.84,126.21Z"/><path class="cls-6" d="M227.58,243.77C214.12,236.42,216,222,204.7,215.42c-12-7-17.45,22.05-35.51,15.36-13.28-4.92-15.37,15.24-15.37,10.58v15.51L277.06,328V221.39C257.59,212.27,247.78,254.79,227.58,243.77Z"/><path class="cls-2" d="M237.63,266.87c-7.28-3.63-8.47-14.5-18.16-19.15-13.24-6.36-24.73,19.83-34.77,14s-14.23-19.22-26.71-23c-17.6-5.34-18.23,26.23-18.23,26.23L263,336.14v-78.6C251.81,253.33,244.29,270.19,237.63,266.87Z"/><polygon class="cls-6" points="144.48 139.52 144.48 133.29 189.66 159.38 189.66 165.61 144.48 139.52"/><polygon class="cls-6" points="144.48 154.53 144.48 148.3 179.33 168.42 179.33 174.65 144.48 154.53"/><polygon class="cls-6" points="144.48 169.53 144.48 163.31 189.66 189.39 189.66 195.62 144.48 169.53"/><polygon class="cls-3" points="212.88 175.45 219.62 171.56 250.64 199.61 243.91 203.5 242.89 204.08 250.4 217.09 243.66 220.98 212.88 175.45"/><polygon class="cls-6" points="212.88 175.45 221.66 216.34 243.91 203.5 212.88 175.45"/><rect class="cls-6" x="228.89" y="194.9" width="7.78" height="30.04" transform="translate(-73.77 144.51) rotate(-30)"/><ellipse class="cls-8" cx="185.26" cy="192.59" rx="1.97" ry="3.42" transform="translate(-71.48 118.43) rotate(-30)"/><polygon class="cls-8" points="186.31 270.03 184.13 268.94 184.13 191.85 186.31 191.85 186.31 270.03"/><polygon class="cls-8" points="126.63 172.26 126.63 110.19 145 120.8 145 123.83 129.26 114.74 129.26 170.74 145 179.83 145 182.87 126.63 172.26"/><polygon class="cls-2" points="358.58 178.2 371.17 170.93 377.74 193.63 365.15 200.9 358.58 178.2"/><polygon class="cls-2" points="351.91 214.45 364.5 207.19 377.46 223.2 364.87 230.47 351.91 214.45"/><polygon class="cls-2" points="336.32 160.6 348.91 153.34 353.15 139.27 340.56 146.54 336.32 160.6"/></svg>