<svg id="Layer_1" data-name="Layer 1" xmlns="http://www.w3.org/2000/svg" viewBox="0 0 49 49"><defs><style>.cls-1{fill:#3dafcc;}.cls-2{opacity:0.3;}.cls-3{fill:#1f282c;}</style></defs><title>optimizatorArtboard 17</title><path class="cls-1" d="M10.38,14.67h.74a4,4,0,0,1,4,4v3.53a0,0,0,0,1,0,0H6.33a0,0,0,0,1,0,0V18.71A4,4,0,0,1,10.38,14.67Z"/><path class="cls-1" d="M20.49,12.86h.92a5,5,0,0,1,5,5v4.37a0,0,0,0,1,0,0H15.48a0,0,0,0,1,0,0V17.87A5,5,0,0,1,20.49,12.86Z"/><circle class="cls-1" cx="11.13" cy="12.1" r="3.6"/><circle class="cls-1" cx="20.95" cy="9.79" r="4.29"/><circle class="cls-1" cx="32.54" cy="6.18" r="5.37"/><g class="cls-2"><path class="cls-1" d="M48.11,29.88a1.65,1.65,0,0,0-1.76-1.51H45.06v11.5H34.87l1.4,3H.89v1.15a4.26,4.26,0,0,0,4.26,4.26H40.8a4.26,4.26,0,0,0,4.26-4.26V42.91h3V31.42H46.48A1.56,1.56,0,0,0,48.11,29.88Z"/></g><path class="cls-1" d="M32.13,9.94h1a6.47,6.47,0,0,1,6.47,6.47v5.83a0,0,0,0,1,0,0H25.66a0,0,0,0,1,0,0V16.41A6.47,6.47,0,0,1,32.13,9.94Z"/><path class="cls-3" d="M11,16.22a4.14,4.14,0,1,1,3.16-6.79.49.49,0,0,1-.06.7.51.51,0,0,1-.71-.06,3.13,3.13,0,0,0-5.53,2A3.15,3.15,0,0,0,11,15.22a3.1,3.1,0,0,0,1.37-.32.5.5,0,0,1,.67.23.51.51,0,0,1-.23.67A4.07,4.07,0,0,1,11,16.22Z"/><path class="cls-3" d="M11,22.74H6.33a.5.5,0,0,1-.5-.5V19.82a6.23,6.23,0,0,1,2.6-5.31A.5.5,0,1,1,9,15.3a5.18,5.18,0,0,0-2.21,4.52v1.92H11a.51.51,0,0,1,.5.5A.5.5,0,0,1,11,22.74Z"/><path class="cls-3" d="M15.7,22.74H11a.5.5,0,0,1-.5-.5.5.5,0,0,1,.5-.5H15.7a.51.51,0,0,1,.5.5A.5.5,0,0,1,15.7,22.74Z"/><path class="cls-3" d="M20.93,14.58a4.83,4.83,0,1,1,4.83-4.83.5.5,0,0,1-.5.5.5.5,0,0,1-.5-.5,3.83,3.83,0,1,0-3.83,3.83.5.5,0,0,1,.5.5A.5.5,0,0,1,20.93,14.58Z"/><path class="cls-3" d="M20.93,22.74H15.36a.5.5,0,0,1-.5-.5V19a7.33,7.33,0,0,1,3.05-6.25.5.5,0,1,1,.61.79A6.31,6.31,0,0,0,15.86,19v2.77h5.07a.5.5,0,0,1,.5.5A.5.5,0,0,1,20.93,22.74Z"/><path class="cls-3" d="M26.51,22.74H20.93a.5.5,0,0,1-.5-.5.51.51,0,0,1,.5-.5h5.58a.5.5,0,0,1,.5.5A.5.5,0,0,1,26.51,22.74Z"/><path class="cls-3" d="M32.63,12A5.93,5.93,0,1,1,34.94.65a.5.5,0,0,1,.26.66.49.49,0,0,1-.65.26,4.85,4.85,0,0,0-1.92-.39,4.93,4.93,0,1,0,4.92,4.93,4.85,4.85,0,0,0-.22-1.47A.5.5,0,0,1,37.66,4a.49.49,0,0,1,.63.32,6.21,6.21,0,0,1,.26,1.77A5.93,5.93,0,0,1,32.63,12Z"/><path class="cls-3" d="M32.63,22.74h-7a.5.5,0,0,1-.5-.5v-4.6a9,9,0,0,1,3.77-7.72.51.51,0,0,1,.71.09.5.5,0,0,1-.09.7,8,8,0,0,0-3.39,6.93v4.1h6.48a.5.5,0,0,1,.5.5A.5.5,0,0,1,32.63,22.74Z"/><path class="cls-3" d="M39.62,22.74h-7a.5.5,0,0,1-.5-.5.51.51,0,0,1,.5-.5h6.49v-4.1a8,8,0,0,0-3.39-6.93.5.5,0,1,1,.61-.79,8.93,8.93,0,0,1,3.78,7.72v4.6A.5.5,0,0,1,39.62,22.74Z"/><path class="cls-3" d="M45.06,22.74a.5.5,0,0,1-.5-.5,3.29,3.29,0,0,0-2-3,.49.49,0,0,1-.26-.65.5.5,0,0,1,.65-.27,4.28,4.28,0,0,1,2.62,3.94A.5.5,0,0,1,45.06,22.74Z"/><path class="cls-3" d="M41.28,26.52H4.67A4.27,4.27,0,0,1,3,18.32a.5.5,0,1,1,.39.91,3.28,3.28,0,0,0,1.3,6.29H41.28a.5.5,0,0,1,0,1Z"/><path class="cls-3" d="M44.94,29.37a.5.5,0,0,1-.48-.38,3.28,3.28,0,0,0-3.18-2.47.5.5,0,0,1,0-1,4.29,4.29,0,0,1,4.15,3.22.51.51,0,0,1-.36.61Z"/><path class="cls-3" d="M41.54,48.82H4.41a4,4,0,0,1-4-4V28.72a.5.5,0,0,1,.5-.5.5.5,0,0,1,.5.5V44.8a3,3,0,0,0,3,3H41.54a3,3,0,0,0,3-3V42.91a.5.5,0,0,1,.5-.5.51.51,0,0,1,.5.5V44.8A4,4,0,0,1,41.54,48.82Z"/><path class="cls-3" d="M45.06,29.34a.5.5,0,0,1-.5-.5V22a.5.5,0,0,1,.5-.5.5.5,0,0,1,.5.5v6.86A.51.51,0,0,1,45.06,29.34Z"/><path class="cls-3" d="M46.52,43.41H45.06a.5.5,0,0,1-.5-.5.5.5,0,0,1,.5-.5h1.46a1.08,1.08,0,0,0,1.09-1.08V30a1.12,1.12,0,0,0-.32-.77.5.5,0,0,1,0-.71.51.51,0,0,1,.71,0A2.11,2.11,0,0,1,48.61,30V41.33A2.09,2.09,0,0,1,46.52,43.41Z"/><path class="cls-3" d="M46.52,32H36.78a.5.5,0,0,1-.5-.5.5.5,0,0,1,.5-.5h9.74a1.08,1.08,0,0,0,1.09-1.08.5.5,0,0,1,.5-.5.51.51,0,0,1,.5.5A2.09,2.09,0,0,1,46.52,32Z"/><path class="cls-3" d="M46.52,43.41H36.78a.5.5,0,0,1-.5-.5.5.5,0,0,1,.5-.5h9.74a.5.5,0,0,1,.5.5A.5.5,0,0,1,46.52,43.41Z"/><path class="cls-3" d="M36.78,43.41a.52.52,0,0,1-.42-.22l-3.82-5.72a.52.52,0,0,1,0-.56l3.82-5.72a.5.5,0,0,1,.7-.14.5.5,0,0,1,.13.69l-3.63,5.45,3.63,5.45a.49.49,0,0,1-.41.77Z"/><path class="cls-3" d="M41,22.74H5a.5.5,0,0,1-.5-.5.5.5,0,0,1,.5-.5H41a.51.51,0,0,1,.5.5A.5.5,0,0,1,41,22.74Z"/><circle class="cls-3" cx="38.66" cy="37.19" r="0.92"/></svg>