<svg id="Layer_1" data-name="Layer 1" xmlns="http://www.w3.org/2000/svg" viewBox="0 0 67 68"><defs><style>.cls-1{opacity:0.3;}.cls-2{fill:#3dafcc;}.cls-3{fill:#1f282c;}</style></defs><title>optimizatorArtboard 22</title><g class="cls-1"><path class="cls-2" d="M21.59,3.3A12.33,12.33,0,1,1,.68,15.83,13.62,13.62,0,1,0,21.59,3.3Z"/></g><path class="cls-2" d="M52.34,21.44A14,14,0,0,0,38.41,35.37V53.11a13.93,13.93,0,1,0,27.86,0V35.37A14,14,0,0,0,52.34,21.44ZM54.94,36a2.54,2.54,0,0,1-2.53,2.53h-.14A2.54,2.54,0,0,1,49.74,36V31.36a2.54,2.54,0,0,1,2.53-2.53h.14a2.54,2.54,0,0,1,2.53,2.53Z"/><path class="cls-3" d="M11.85,22.21a.5.5,0,0,1-.5-.5V7.89a.5.5,0,1,1,1,0V21.71A.5.5,0,0,1,11.85,22.21Z"/><path class="cls-3" d="M16,15.3H11.85a.5.5,0,0,1-.5-.5V7.89a.5.5,0,0,1,.5-.5H16a4,4,0,0,1,0,7.91Zm-3.62-1H16a3,3,0,0,0,0-5.91H12.35Z"/><path class="cls-3" d="M17.37,18.42H9.68a.5.5,0,0,1-.5-.5.51.51,0,0,1,.5-.5h7.69a.5.5,0,0,1,.5.5A.5.5,0,0,1,17.37,18.42Z"/><path class="cls-3" d="M12.63,15.3h-3a.5.5,0,0,1,0-1h3a.5.5,0,0,1,0,1Z"/><g class="cls-1"><path class="cls-2" d="M52.41,34.47h-.14a2.54,2.54,0,0,1-2.53-2.53V36a2.54,2.54,0,0,0,2.53,2.53h.14A2.54,2.54,0,0,0,54.94,36V31.94A2.54,2.54,0,0,1,52.41,34.47Z"/></g><path class="cls-3" d="M14.25,28.78a14,14,0,0,1-14-14A13.82,13.82,0,0,1,1.45,9.05a.49.49,0,0,1,.66-.25.5.5,0,0,1,.25.66,12.87,12.87,0,0,0-1.13,5.3,13,13,0,1,0,13-13,12.8,12.8,0,0,0-5.9,1.41A13.74,13.74,0,0,0,6.87,4c-.27.19-.53.38-.78.58s-.44.37-.65.57a.51.51,0,0,1-.71,0,.5.5,0,0,1,0-.71l.7-.61.84-.62a14.2,14.2,0,0,1,1.59-1A13.86,13.86,0,0,1,14.25.75a14,14,0,0,1,0,28Z"/><path class="cls-3" d="M52.34,67.54A14.46,14.46,0,0,1,37.91,53.11V35.37a14.43,14.43,0,1,1,28.86,0V53.11A14.46,14.46,0,0,1,52.34,67.54Zm0-45.6A13.45,13.45,0,0,0,38.91,35.37V53.11A13.45,13.45,0,0,0,52.34,66.54h0A13.45,13.45,0,0,0,65.77,53.11V35.37A13.45,13.45,0,0,0,52.34,21.94Z"/><path class="cls-3" d="M52.34,44.74a.5.5,0,0,1-.5-.5v-5.7a.5.5,0,1,1,1,0v5.7A.5.5,0,0,1,52.34,44.74Z"/><path class="cls-3" d="M52.34,29.33a.5.5,0,0,1-.5-.5V26a.5.5,0,1,1,1,0v2.84A.5.5,0,0,1,52.34,29.33Z"/><path class="cls-3" d="M61.91,44.74H42.77a.5.5,0,0,1-.5-.5.5.5,0,0,1,.5-.5H61.91a.5.5,0,0,1,.5.5A.5.5,0,0,1,61.91,44.74Z"/><path class="cls-3" d="M52.41,39h-.14a3,3,0,0,1-3-3V31.36a3,3,0,0,1,3-3h.14a3,3,0,0,1,3,3V36A3,3,0,0,1,52.41,39Zm-.14-9.71a2,2,0,0,0-2,2V36a2,2,0,0,0,2,2h.14a2,2,0,0,0,2-2V31.36a2,2,0,0,0-2-2Z"/><path class="cls-3" d="M24.17,49.06H23.3a9.56,9.56,0,0,1-9.55-9.56V28.28a.5.5,0,0,1,.5-.5.5.5,0,0,1,.5.5V39.5a8.57,8.57,0,0,0,8.55,8.56h.87a8.57,8.57,0,0,0,8.56-8.56V10A9.57,9.57,0,0,1,42.29.46h1A9.57,9.57,0,0,1,52.84,10v6.7a.5.5,0,0,1-1,0V10a8.57,8.57,0,0,0-8.56-8.56h-1A8.57,8.57,0,0,0,33.73,10V39.5A9.57,9.57,0,0,1,24.17,49.06Z"/></svg>