<svg id="Layer_1" data-name="Layer 1" xmlns="http://www.w3.org/2000/svg" viewBox="0 0 1321 897"><defs><style>.cls-1{opacity:0.3;}.cls-2{fill:#3dafcc;}.cls-3{fill:#1f282c;}</style></defs><title>optimizatorArtboard 37</title><g class="cls-1"><rect class="cls-2" x="285.27" y="440.61" width="122.22" height="201.71" rx="61.11" ry="61.11" transform="translate(484.33 -86.33) rotate(45)"/><rect class="cls-2" x="371.69" y="527.04" width="122.22" height="201.71" rx="61.11" ry="61.11" transform="translate(570.75 -122.13) rotate(45)"/><rect class="cls-2" x="458.12" y="613.46" width="122.22" height="201.71" rx="61.11" ry="61.11" transform="translate(657.18 -157.93) rotate(45)"/><rect class="cls-2" x="544.54" y="699.88" width="122.22" height="201.71" rx="61.11" ry="61.11" transform="translate(743.59 -193.73) rotate(45)"/></g><rect class="cls-2" x="8.12" y="93.03" width="112.85" height="535.91" rx="56.42" ry="56.42"/><rect class="cls-2" x="1198.96" y="93.03" width="112.85" height="535.91" rx="56.42" ry="56.42"/><g class="cls-1"><path class="cls-2" d="M812.56,268l24.62,14.3,45.43,45.44L982.81,428,1081,523l5.17,47.3h125a188.85,188.85,0,0,0-54.49-114.5l-315-315c-74.1-74.09-194.22-74.09-268.32,0L492.19,222a188.71,188.71,0,0,0-47,78c8,5.42,8.95,3.53,10.13,3.14,2.54-.85,38.33-9.94,38.33-9.94l45.91-30.69L610,192.35l24.39-9.79,30.64,21,26.4,23.06,52.1,30.69,48,12.34Z"/></g><path class="cls-3" d="M64.54,637.06A64.61,64.61,0,0,1,0,572.52V506.69a8.12,8.12,0,0,1,16.23,0v65.83a48.31,48.31,0,0,0,96.62,0V149.45a48.31,48.31,0,0,0-96.62,0V390A8.12,8.12,0,1,1,0,390V149.45a64.54,64.54,0,0,1,129.08,0V572.52A64.61,64.61,0,0,1,64.54,637.06Z"/><path class="cls-3" d="M315,637.63A69,69,0,0,1,266,617.39h0a69.31,69.31,0,0,1,0-97.9l56.21-56.21a69.23,69.23,0,0,1,97.9,97.91l-56.21,56.2A69,69,0,0,1,315,637.63Zm-37.47-31.72a53.05,53.05,0,0,0,74.94,0l56.21-56.2a53,53,0,0,0-74.94-75L277.48,531a53.06,53.06,0,0,0,0,74.95Z"/><path class="cls-3" d="M1026.44,627.22a69,69,0,0,1-49-20.24A8.11,8.11,0,1,1,989,595.5a53,53,0,0,0,75-75L831.44,288.08a52.09,52.09,0,0,0-11.67-8.8,8.12,8.12,0,0,1,7.86-14.21,68.78,68.78,0,0,1,15.29,11.53l232.47,232.47a69.2,69.2,0,0,1-49,118.15Z"/><path class="cls-3" d="M466,306.93c-18.4,0-35.85-6.82-51.45-20.59-14.64-12.93-23-29.83-23.58-47.59-.66-20.66,9.16-41.78,28.41-61.08L491,106.06a8.12,8.12,0,0,1,11.48,11.48l-71.59,71.6c-16,16-24.18,33-23.67,49.09.43,13.24,6.85,26,18.11,35.93,41.06,36.27,85.69,4.59,108.65-17.51l61-61c1.63-2,20.74-23.93,40.66-21.09,18.19,2.72,34,21.73,35.76,23.9,42,39.49,80.3,63.26,149.92,65.53a8.11,8.11,0,0,1,7.85,8.37c-.15,4.48-4,8.25-8.38,7.85C746,277.75,705,252.39,659.48,209.43c-4.39-5.3-16.12-17.33-26.26-18.84-8.63-1.27-21.45,10.22-26.31,16l-61.62,61.65C518.61,293.92,491.38,306.93,466,306.93Z"/><path class="cls-3" d="M401.28,723.9a68.94,68.94,0,0,1-44-15.7,8.12,8.12,0,0,1,10.35-12.51,53.41,53.41,0,0,0,71.26-3.36l56.2-56.2a53.16,53.16,0,0,0,0-74.94c-19.92-19.93-55-19.93-74.94,0l-56.21,56.2a8.12,8.12,0,1,1-11.48-11.48l56.21-56.2a69.22,69.22,0,0,1,97.9,97.89l-56.2,56.21A69.3,69.3,0,0,1,401.28,723.9Z"/><path class="cls-3" d="M487.71,810.32a68.91,68.91,0,0,1-44-15.7A8.12,8.12,0,0,1,454,782.11a53.39,53.39,0,0,0,71.26-3.35l56.21-56.21a53,53,0,0,0-75-74.95l-56.2,56.21a8.12,8.12,0,0,1-11.48-11.48l56.2-56.2A69.23,69.23,0,1,1,593,734l-56.2,56.21A69.27,69.27,0,0,1,487.71,810.32Z"/><path class="cls-3" d="M574.13,896.74a68.86,68.86,0,0,1-44-15.7,8.12,8.12,0,0,1,10.35-12.51,53.4,53.4,0,0,0,71.26-3.35L667.9,809a53.16,53.16,0,0,0,0-74.94c-19.92-19.92-55-19.92-74.95,0l-56.2,56.21a8.12,8.12,0,0,1-11.48-11.48l56.21-56.21a69.23,69.23,0,0,1,97.9,97.9l-56.21,56.21A69.23,69.23,0,0,1,574.13,896.74Z"/><path class="cls-3" d="M302.23,157.62c-1.39,0-2.24-.06-2.43-.07l-178.84,0a8.12,8.12,0,0,1,0-16.23h179.4c.76,0,24.37,1.25,45.62-16,6.31-5.12,14.18-11.9,23.12-19.58C407,73.13,458.93,28.46,497,16.08a8.12,8.12,0,0,1,5,15.44c-35,11.36-87.56,56.61-122.35,86.54-9.06,7.8-17.06,14.68-23.47,19.88A88.08,88.08,0,0,1,302.23,157.62Z"/><path class="cls-3" d="M178.71,578.39H121a8.12,8.12,0,0,1,0-16.23h57.75a8.12,8.12,0,0,1,0,16.23Z"/><path class="cls-3" d="M1199.93,578.39h-37.45a8.12,8.12,0,0,1,0-16.23h37.45a8.12,8.12,0,1,1,0,16.23Z"/><path class="cls-3" d="M1256.35,637.06a64.62,64.62,0,0,1-64.54-64.54V149.45a64.54,64.54,0,0,1,129.08,0V390a8.12,8.12,0,1,1-16.23,0V149.45a48.31,48.31,0,1,0-96.61,0V572.52a48.31,48.31,0,0,0,96.61,0V506.69a8.12,8.12,0,0,1,16.23,0v65.83A64.61,64.61,0,0,1,1256.35,637.06Z"/><path class="cls-3" d="M999.19,158.76c-21.23,0-42.52-3.86-78.09-25.58-9.7-5.93-24.87-16.49-42.43-28.73C837.81,76,781.86,37,750.56,25.7,625.15-19.57,504,115.8,502.78,117.17a8.12,8.12,0,0,1-12.18-10.73c5.24-6,129.78-145,265.47-96,33.31,12,90.28,51.71,131.88,80.69,17.35,12.09,32.33,22.53,41.61,28.19,40.68,24.85,58.65,24,85.85,22.68,6.74-.32,13.93-.66,22-.66h162.51a8.12,8.12,0,1,1,0,16.23H1037.42c-7.79,0-14.74.33-21.23.64C1010.35,158.5,1004.77,158.76,999.19,158.76Z"/><path class="cls-3" d="M940,713.6a68.72,68.72,0,0,1-49-20.21l11.31-11.65.23.24c19.81,19.8,55,19.86,74.89-.06a53.16,53.16,0,0,0,0-74.94l11.24-11.72A69.16,69.16,0,0,1,940,713.6Z"/><path class="cls-3" d="M853.59,800.07a69,69,0,0,1-49-20.25,8.26,8.26,0,0,1-.12-11.59,8,8,0,0,1,11.35-.14l.24.24a53,53,0,1,0,74.95-74.94l11.31-11.65a69.21,69.21,0,0,1-48.78,118.33Z"/><path class="cls-3" d="M767.17,886.44a68.71,68.71,0,0,1-48.95-20.2l11.3-11.65.24.24c19.8,19.8,55,19.87,74.88-.07a53.05,53.05,0,0,0,0-74.94,8.26,8.26,0,0,1-.12-11.59,8,8,0,0,1,11.35-.14,69.15,69.15,0,0,1-48.7,118.35Z"/><path class="cls-3" d="M723.72,868.38A8.06,8.06,0,0,1,718,866l-47.83-47.82a8.11,8.11,0,1,1,11.48-11.47l47.82,47.82a8.12,8.12,0,0,1-5.74,13.85Z"/></svg>