<svg id="Layer_1" data-name="Layer 1" xmlns="http://www.w3.org/2000/svg" viewBox="0 0 47 43"><defs><style>.cls-1{opacity:0.3;}.cls-2{fill:#3dafcc;}.cls-3{fill:#1f282c;}</style></defs><title>optimizatorArtboard 21</title><g class="cls-1"><path class="cls-2" d="M43.73,42.35H.52V38.1H41.93S41.07,42,43.73,42.35Z"/></g><g class="cls-1"><path class="cls-2" d="M41.93,13.85h4.55a0,0,0,0,1,0,0V40.11a2.28,2.28,0,0,1-2.28,2.28h0a2.28,2.28,0,0,1-2.28-2.28V13.85a0,0,0,0,1,0,0Z"/></g><path class="cls-2" d="M39.38.62H3.07A2.55,2.55,0,0,0,.52,3.17V6.24H41.93V3.17A2.55,2.55,0,0,0,39.38.62Z"/><path class="cls-3" d="M41.93,6.74H4.83a.5.5,0,0,1,0-1h37.1a.5.5,0,0,1,0,1Z"/><path class="cls-3" d="M41.93,6.74a.5.5,0,0,1-.5-.5V3.58A2.46,2.46,0,0,0,39,1.12H3.48A2.46,2.46,0,0,0,1,3.58V6.24a.5.5,0,0,1-.5.5.5.5,0,0,1-.5-.5V3.58A3.46,3.46,0,0,1,3.48.12H39a3.46,3.46,0,0,1,3.46,3.46V6.24A.5.5,0,0,1,41.93,6.74Z"/><path class="cls-3" d="M.52,38.8a.5.5,0,0,1-.5-.5V6.24a.5.5,0,0,1,.5-.5.5.5,0,0,1,.5.5V38.3A.5.5,0,0,1,.52,38.8Z"/><path class="cls-3" d="M41.93,14.35a.5.5,0,0,1-.5-.5V6.24a.5.5,0,0,1,.5-.5.5.5,0,0,1,.5.5v7.61A.51.51,0,0,1,41.93,14.35Z"/><path class="cls-3" d="M46.48,40.55a.5.5,0,0,1-.5-.5V14.35H44.79a.51.51,0,0,1-.5-.5.5.5,0,0,1,.5-.5h1.69a.5.5,0,0,1,.5.5v26.2A.5.5,0,0,1,46.48,40.55Z"/><path class="cls-3" d="M44.2,42.88H2.8a.5.5,0,1,1,0-1H44.2a.5.5,0,0,1,0,1Z"/><path class="cls-3" d="M44.2,42.88a2.8,2.8,0,0,1-2.77-2.83V12.83a.5.5,0,0,1,.5-.5.5.5,0,0,1,.5.5V40.05a1.78,1.78,0,1,0,3.55,0,.5.5,0,0,1,.5-.5.5.5,0,0,1,.5.5A2.81,2.81,0,0,1,44.2,42.88Z"/><path class="cls-3" d="M2.8,42.88A2.81,2.81,0,0,1,0,40.05V12.83a.5.5,0,0,1,.5-.5.5.5,0,0,1,.5.5V40.05A1.81,1.81,0,0,0,2.8,41.88a.5.5,0,0,1,0,1Z"/><g class="cls-1"><path class="cls-2" d="M12.43,32h6.51A6.32,6.32,0,0,1,6.3,31.77a6.25,6.25,0,0,1,1.38-3.94h0L12.43,32"/></g><path class="cls-2" d="M15.8,22.12h-.19v6.51h6.51v-.19A6.32,6.32,0,0,0,15.8,22.12Z"/><path class="cls-3" d="M22.12,29.14H15.61a.5.5,0,0,1-.5-.5V22.13a.49.49,0,0,1,.48-.5h.21a6.83,6.83,0,0,1,6.82,6.83v.14A.59.59,0,0,1,22.12,29.14Zm-6-1h5.5a5.85,5.85,0,0,0-5.5-5.52Z"/><path class="cls-3" d="M12.43,32.46a.5.5,0,0,1-.5-.5V26a5,5,0,0,0-1.43.39.5.5,0,1,1-.42-.91A6.22,6.22,0,0,1,12.42,25a.54.54,0,0,1,.36.14.48.48,0,0,1,.15.36V32A.5.5,0,0,1,12.43,32.46Z"/><path class="cls-3" d="M12.62,38.6A6.83,6.83,0,0,1,5.8,31.77a6.71,6.71,0,0,1,1.49-4.25.51.51,0,0,1,.34-.19.58.58,0,0,1,.38.12L9.82,29l-.65.75L7.76,28.57a5.74,5.74,0,0,0-1,3.2,5.83,5.83,0,0,0,11.61.69h-6a.5.5,0,0,1-.5-.5.5.5,0,0,1,.5-.5h6.51a.5.5,0,0,1,.5.52A6.8,6.8,0,0,1,12.62,38.6Z"/><g class="cls-1"><path class="cls-2" d="M22.83,14.37l-3-2.1-3.68-1.42L13.3,11l-2.51.92L8.3,13.77,5.14,18h8.27L18,17.39l1.69-.7,2.82-1.84.37.31Z"/></g><path class="cls-2" d="M29.45,10.9,27,11.68l-1,.88L22.87,14.4l-.23-.16V15c.69.57,3.16,2.6,3.39,2.48a18,18,0,0,1,3.09.53l3.26-.74L36,14.4l1.67-3.81h-4Z"/><path class="cls-3" d="M29.12,18.51c-2.91,0-4.92-1.83-6.87-3.61s-4-3.6-6.9-3.6a9.63,9.63,0,0,0-7.29,3.48.5.5,0,1,1-.8-.59,10.47,10.47,0,0,1,8.09-3.89c3.33,0,5.49,2,7.57,3.87,1.89,1.71,3.67,3.34,6.2,3.34,6.87,0,8-6.77,8-7.06a.5.5,0,1,1,1,.15C38.1,10.68,36.84,18.51,29.12,18.51Z"/><path class="cls-3" d="M25.58,13.35a.53.53,0,0,1-.38-.18.5.5,0,0,1,.07-.71c3.51-2.93,8.7-2.42,8.92-2.4a.5.5,0,0,1,.44.55.49.49,0,0,1-.54.45c-.05,0-5-.48-8.19,2.17A.47.47,0,0,1,25.58,13.35Z"/><path class="cls-3" d="M13.41,18.51H5.14a.5.5,0,0,1,0-1h8.27c3.24,0,4.88-.63,6.33-1.57a.51.51,0,0,1,.69.15.5.5,0,0,1-.15.7C18.68,17.82,16.9,18.51,13.41,18.51Z"/><path class="cls-2" d="M35.54,28.06H29.12a1.83,1.83,0,0,1-1.83-1.84v-.5a1.83,1.83,0,0,1,1.83-1.83h6.42L33.8,25v2.22Z"/><path class="cls-3" d="M31.17,28.56H29a2.59,2.59,0,0,1,0-5.17h2.16a.5.5,0,0,1,.5.5.51.51,0,0,1-.5.5H29a1.59,1.59,0,0,0,0,3.17h2.16a.5.5,0,0,1,.5.5A.51.51,0,0,1,31.17,28.56Z"/><path class="cls-3" d="M35.54,28.56A2.59,2.59,0,1,1,38.12,26,2.59,2.59,0,0,1,35.54,28.56Zm0-4.17A1.59,1.59,0,1,0,37.12,26,1.58,1.58,0,0,0,35.54,24.39Z"/><g class="cls-1"><path class="cls-2" d="M29,38.1h6.42a1.83,1.83,0,0,0,1.83-1.83v-.5a1.83,1.83,0,0,0-1.83-1.83H29l1.74,1.14V37.3Z"/></g><path class="cls-3" d="M35.54,38.6H33.38a.5.5,0,0,1-.5-.5.51.51,0,0,1,.5-.5h2.16a1.58,1.58,0,0,0,0-3.16H33.38a.51.51,0,0,1-.5-.5.5.5,0,0,1,.5-.5h2.16a2.58,2.58,0,0,1,0,5.16Z"/><path class="cls-3" d="M29,38.6A2.58,2.58,0,1,1,31.59,36,2.59,2.59,0,0,1,29,38.6Zm0-4.16A1.58,1.58,0,1,0,30.59,36,1.58,1.58,0,0,0,29,34.44Z"/></svg>