<?xml version="1.0" encoding="UTF-8"?>
<!DOCTYPE svg PUBLIC "-//W3C//DTD SVG 1.1//EN" "http://www.w3.org/Graphics/SVG/1.1/DTD/svg11.dtd">
<!-- Creator: CorelDRAW 2017 -->
<svg xmlns="http://www.w3.org/2000/svg" xml:space="preserve" width="850px" height="144px" version="1.1" style="shape-rendering:geometricPrecision; text-rendering:geometricPrecision; image-rendering:optimizeQuality; fill-rule:evenodd; clip-rule:evenodd"
viewBox="0 0 211.34 35.89"
 xmlns:xlink="http://www.w3.org/1999/xlink">
 <defs>
  <style type="text/css">
   <![CDATA[
    .fil0 {fill:#2B2A29;fill-rule:nonzero}
    .fil2 {fill:#007DC4;fill-rule:nonzero}
    .fil1 {fill:#00BFFF;fill-rule:nonzero}
    .fil3 {fill:#2459AA;fill-rule:nonzero}
   ]]>
  </style>
 </defs>
 <g id="Слой_x0020_1">
  <metadata id="CorelCorpID_0Corel-Layer"/>
  <g id="_2358002532544">
   <path class="fil0" d="M72.98 13.53c0,-3.42 -1.9,-5.93 -5.2,-5.93 -3.15,0 -5.24,2.35 -5.24,5.93 0,3.6 2.09,5.92 5.24,5.92 3.12,0 5.2,-2.32 5.2,-5.92zm-12.57 0c0,-4.53 3.11,-7.65 7.37,-7.65 4.3,0 7.33,3.19 7.33,7.65 0,4.65 -3.17,7.64 -7.33,7.64 -4.24,0 -7.37,-3.02 -7.37,-7.64z"/>
   <polygon class="fil0" points="78,6.01 89.23,6.01 89.23,20.94 87.22,20.94 87.22,7.74 79.99,7.74 79.99,20.94 78,20.94 "/>
   <polygon class="fil0" points="95.9,7.74 91.59,7.74 91.59,6.01 102.65,6.01 102.65,7.74 97.91,7.74 97.91,20.94 95.9,20.94 "/>
   <path class="fil0" d="M104.83 6.01l2 0 0 9.02c0,1.04 0,1.79 -0.05,2.58l0.05 0c0.49,-0.72 1.13,-1.65 2.01,-2.79l6.64 -8.81 1.95 0 0 14.93 -2.02 0 0 -9.35c0,-1.09 0.02,-1.79 0.05,-2.5l-0.05 0c-0.5,0.73 -1.13,1.61 -1.95,2.7l-6.91 9.15 -1.72 0 0 -14.93z"/>
   <path class="fil0" d="M121.07 6.01l1.85 0 4.08 6.07c0.61,0.91 1,1.48 1.36,2.09l0.04 0c0.34,-0.59 0.75,-1.27 1.32,-2.18l3.8 -5.98 1.86 0 0 14.93 -1.99 0 0 -9.22c0,-0.7 0,-1.61 0.02,-2.35l-0.02 0c-0.3,0.56 -0.8,1.33 -1.07,1.76l-3.44 5.48 -1 0 -3.78 -5.59c-0.32,-0.45 -0.72,-1.04 -1.02,-1.61l-0.04 0c0.04,0.66 0.04,1.63 0.04,2.27l0 9.26 -2.01 0 0 -14.93z"/>
   <path class="fil0" d="M139.04 6.01l2 0 0 9.02c0,1.04 0,1.79 -0.05,2.58l0.05 0c0.5,-0.72 1.13,-1.65 2.01,-2.79l6.64 -8.81 1.95 0 0 14.93 -2.02 0 0 -9.35c0,-1.09 0.02,-1.79 0.05,-2.5l-0.05 0c-0.5,0.73 -1.13,1.61 -1.95,2.7l-6.9 9.15 -1.73 0 0 -14.93z"/>
   <path class="fil0" d="M154.5 20.46l0 -1.81c0.93,0.48 2.09,0.79 3.49,0.79 1.95,0 3.42,-0.88 3.42,-2.76 0,-1.65 -1.18,-2.51 -3.74,-2.51 -0.27,0 -0.92,0 -1.38,0.02l0 -1.7c0.39,0.02 0.82,0.02 1.11,0.02 2.65,0 3.65,-1.06 3.65,-2.51 0,-1.43 -0.91,-2.4 -2.88,-2.4 -1.13,0 -2.19,0.29 -3.26,0.84l-0.57 -1.57c0.91,-0.49 2.36,-0.99 4.04,-0.99 3.21,0 4.75,1.83 4.75,3.96 0,1.68 -0.86,2.81 -2.51,3.4l0 0.04c1.81,0.32 2.9,1.57 2.9,3.45 0,2.47 -1.72,4.44 -5.44,4.44 -1.45,0 -2.65,-0.3 -3.58,-0.71z"/>
   <path class="fil0" d="M166.47 6.01l1.86 0 4.07 6.07c0.62,0.91 1,1.48 1.36,2.09l0.05 0c0.34,-0.59 0.75,-1.27 1.31,-2.18l3.81 -5.98 1.85 0 0 14.93 -1.99 0 0 -9.22c0,-0.7 0,-1.61 0.02,-2.35l-0.02 0c-0.29,0.56 -0.79,1.33 -1.06,1.76l-3.45 5.48 -0.99 0 -3.79 -5.59c-0.31,-0.45 -0.72,-1.04 -1.01,-1.61l-0.05 0c0.05,0.66 0.05,1.63 0.05,2.27l0 9.26 -2.02 0 0 -14.93z"/>
   <path class="fil0" d="M183.9 19.85c0,-0.68 0.54,-1.24 1.22,-1.24 0.68,0 1.22,0.56 1.22,1.24 0,0.71 -0.54,1.27 -1.22,1.27 -0.68,0 -1.22,-0.56 -1.22,-1.27z"/>
   <path class="fil0" d="M192.42 13.9c0.9,0 1.56,-0.16 2.04,-0.41 0.97,-0.5 1.42,-1.43 1.42,-2.7 0,-1.17 -0.45,-2.13 -1.33,-2.65 -0.5,-0.29 -1.16,-0.47 -2.11,-0.47l-1.02 0 0 6.23 1 0zm-3.01 -7.89l3.05 0c1.45,0 2.47,0.23 3.29,0.68 1.4,0.77 2.24,2.18 2.24,4.1 0,1.72 -0.75,3.38 -2.63,4.22 -0.77,0.34 -1.74,0.54 -3.08,0.54l-0.86 0 0 5.39 -2.01 0 0 -14.93z"/>
   <path class="fil0" d="M200.78 21.01l0 -1.75c0.27,0.07 0.52,0.09 0.79,0.09 1.36,0 1.95,-0.9 2.81,-2.67l-5.28 -10.67 2.25 0 4.05 8.54 0.05 0 3.69 -8.54 2.2 0 -5.21 11.42c-1.2,2.67 -2.54,3.67 -4.38,3.67 -0.24,0 -0.67,-0.02 -0.97,-0.09z"/>
   <path class="fil1" d="M34.79 23.39c-3.04,2.21 -6.78,3.52 -10.83,3.52 -6.91,0 -12.95,-3.83 -16.12,-9.47l-7.84 4.38c4.71,8.39 13.68,14.07 23.96,14.07 6.01,0 11.57,-1.94 16.1,-5.23l-5.27 -7.27z"/>
   <path class="fil2" d="M42.11 11.91c-0.77,4.01 -2.84,7.57 -5.75,10.2l6.04 6.66c4.32,-3.92 7.39,-9.21 8.53,-15.17l-8.82 -1.69z"/>
   <path class="fil3" d="M51.33 10.61c0.06,-0.72 0.1,-1.44 0.1,-2.18 0,-2.27 -0.29,-4.47 -0.81,-6.59l-8.72 2.16c0.35,1.42 0.54,2.9 0.54,4.43 0,0.5 -0.03,0.99 -0.06,1.47l8.95 0.71z"/>
   <polygon class="fil2" points="22.89,16.86 13.9,16.86 13.9,4.84 22.89,4.84 "/>
   <polygon class="fil3" points="34.03,16.86 25.04,16.86 25.04,0 34.03,0 "/>
   <path class="fil2" d="M61.98 33.66l1.21 0 0 -2.88 3.19 0 0 2.88 1.23 0 0 -6.67 -1.23 0 0 2.75 -3.19 0 0 -2.75 -1.21 0 0 6.67zm6.98 0l1.26 0 0.63 -1.67 2.38 0 0.65 1.67 1.32 0 -2.69 -6.7 -0.97 0 -2.58 6.7zm2.25 -2.66l0.48 -1.32c0.06,-0.17 0.11,-0.32 0.16,-0.45 0.04,-0.12 0.08,-0.24 0.11,-0.33 0.03,-0.1 0.06,-0.18 0.08,-0.26l0.02 0c0.03,0.11 0.07,0.24 0.12,0.41 0.05,0.16 0.12,0.37 0.21,0.62l0.47 1.33 -1.65 0zm10.25 1.27c-0.24,0.14 -0.49,0.26 -0.75,0.34 -0.27,0.08 -0.57,0.13 -0.89,0.13 -0.34,0 -0.65,-0.06 -0.92,-0.17 -0.28,-0.12 -0.51,-0.28 -0.7,-0.49 -0.2,-0.21 -0.34,-0.46 -0.45,-0.75 -0.1,-0.29 -0.15,-0.61 -0.15,-0.96 0,-0.33 0.05,-0.64 0.15,-0.93 0.09,-0.29 0.24,-0.55 0.42,-0.77 0.2,-0.22 0.43,-0.4 0.71,-0.53 0.28,-0.12 0.61,-0.19 0.98,-0.19 0.32,0 0.63,0.04 0.91,0.12 0.28,0.07 0.55,0.18 0.81,0.32l0 -1.14c-0.21,-0.09 -0.46,-0.17 -0.76,-0.23 -0.29,-0.06 -0.63,-0.09 -0.99,-0.09 -0.43,0 -0.83,0.06 -1.19,0.17 -0.37,0.12 -0.69,0.28 -0.98,0.49 -0.29,0.21 -0.53,0.46 -0.73,0.75 -0.2,0.29 -0.36,0.61 -0.46,0.96 -0.11,0.35 -0.16,0.71 -0.17,1.1 0,0.49 0.08,0.94 0.22,1.35 0.15,0.41 0.37,0.76 0.65,1.06 0.29,0.3 0.64,0.54 1.06,0.7 0.42,0.17 0.9,0.25 1.45,0.25 0.22,0 0.45,-0.01 0.68,-0.04 0.23,-0.04 0.46,-0.09 0.7,-0.17 0.24,-0.07 0.49,-0.18 0.73,-0.31l-0.33 -0.97zm3.17 1.39l1.22 0 0 -5.64 1.78 0 0.34 -1.03 -5.28 0 0 1.03 1.94 0 0 5.64zm4.63 0l1.21 0 0 -2.3 0.29 0c0.29,0 0.56,-0.02 0.79,-0.06 0.24,-0.04 0.44,-0.1 0.62,-0.17 0.32,-0.13 0.57,-0.3 0.75,-0.51 0.19,-0.2 0.33,-0.43 0.41,-0.68 0.08,-0.25 0.12,-0.5 0.12,-0.76 0,-0.46 -0.1,-0.85 -0.28,-1.17 -0.19,-0.32 -0.46,-0.57 -0.8,-0.74 -0.2,-0.09 -0.42,-0.16 -0.67,-0.21 -0.25,-0.05 -0.52,-0.07 -0.83,-0.07l-1.61 0 0 6.67zm1.21 -3.29l0 -2.39 0.35 0c0.18,0 0.34,0.02 0.48,0.04 0.13,0.03 0.25,0.08 0.35,0.13 0.17,0.11 0.31,0.25 0.39,0.43 0.09,0.18 0.13,0.38 0.13,0.6 0,0.25 -0.04,0.46 -0.13,0.64 -0.1,0.17 -0.24,0.31 -0.42,0.4 -0.1,0.05 -0.21,0.09 -0.34,0.11 -0.13,0.03 -0.28,0.04 -0.44,0.04l-0.37 0zm7.81 3.39c0.48,0 0.93,-0.08 1.34,-0.24 0.41,-0.16 0.76,-0.39 1.07,-0.7 0.3,-0.3 0.53,-0.66 0.7,-1.07 0.16,-0.42 0.25,-0.89 0.25,-1.4 0,-0.51 -0.09,-0.97 -0.25,-1.38 -0.16,-0.42 -0.39,-0.78 -0.69,-1.09 -0.3,-0.3 -0.66,-0.54 -1.07,-0.7 -0.41,-0.17 -0.86,-0.25 -1.35,-0.25 -0.5,0 -0.95,0.08 -1.36,0.25 -0.41,0.16 -0.77,0.4 -1.07,0.7 -0.3,0.3 -0.53,0.66 -0.69,1.08 -0.16,0.42 -0.24,0.88 -0.25,1.39 0.01,0.51 0.09,0.98 0.25,1.4 0.17,0.41 0.4,0.77 0.7,1.07 0.3,0.31 0.65,0.54 1.06,0.7 0.41,0.16 0.86,0.24 1.36,0.24zm0 -1.02c-0.42,0 -0.78,-0.1 -1.09,-0.28 -0.31,-0.19 -0.55,-0.46 -0.72,-0.82 -0.17,-0.35 -0.26,-0.78 -0.26,-1.29 0,-0.51 0.09,-0.94 0.26,-1.3 0.17,-0.35 0.41,-0.63 0.72,-0.81 0.31,-0.19 0.67,-0.29 1.09,-0.29 0.42,0 0.79,0.1 1.09,0.29 0.31,0.2 0.55,0.47 0.72,0.83 0.16,0.36 0.25,0.79 0.25,1.28 0,0.38 -0.05,0.71 -0.15,1.01 -0.1,0.3 -0.24,0.55 -0.42,0.75 -0.18,0.21 -0.4,0.36 -0.65,0.47 -0.26,0.11 -0.54,0.16 -0.84,0.16zm5.16 0.92l1.1 0 2.85 -3.81c0.15,-0.18 0.28,-0.36 0.41,-0.53 0.12,-0.17 0.24,-0.33 0.35,-0.48l0.02 0c-0.01,0.14 -0.02,0.29 -0.02,0.47 0,0.18 -0.01,0.37 -0.01,0.56l0 3.79 1.23 0 0 -6.67 -1.21 0 -2.76 3.65c-0.15,0.2 -0.28,0.38 -0.4,0.55 -0.13,0.17 -0.24,0.33 -0.34,0.49l-0.02 0c0.01,-0.18 0.01,-0.37 0.01,-0.56 0.01,-0.19 0.01,-0.38 0.01,-0.57l0 -3.56 -1.22 0 0 6.67zm2.99 -6.93c0.3,-0.01 0.57,-0.05 0.8,-0.13 0.24,-0.09 0.43,-0.21 0.59,-0.36 0.15,-0.16 0.27,-0.34 0.35,-0.55 0.08,-0.21 0.11,-0.44 0.11,-0.69l-1.02 0c0,0.16 -0.02,0.3 -0.08,0.42 -0.05,0.13 -0.14,0.23 -0.26,0.3 -0.12,0.07 -0.29,0.11 -0.49,0.11 -0.2,0 -0.36,-0.04 -0.48,-0.11 -0.12,-0.07 -0.2,-0.17 -0.26,-0.3 -0.05,-0.12 -0.08,-0.26 -0.08,-0.42l-1.01 0c-0.01,0.25 0.03,0.48 0.1,0.69 0.08,0.21 0.19,0.39 0.35,0.55 0.15,0.15 0.35,0.27 0.58,0.36 0.23,0.08 0.5,0.12 0.8,0.13l0 0zm10.45 6.93l1.21 0 0 -2.88 3.19 0 0 2.88 1.23 0 0 -6.67 -1.23 0 0 2.75 -3.19 0 0 -2.75 -1.21 0 0 6.67zm6.98 0l1.26 0 0.63 -1.67 2.38 0 0.65 1.67 1.32 0 -2.69 -6.7 -0.97 0 -2.58 6.7zm2.25 -2.66l0.48 -1.32c0.06,-0.17 0.12,-0.32 0.16,-0.45 0.04,-0.12 0.08,-0.24 0.11,-0.33 0.03,-0.1 0.06,-0.18 0.08,-0.26l0.02 0c0.03,0.11 0.07,0.24 0.12,0.41 0.05,0.16 0.12,0.37 0.21,0.62l0.47 1.33 -1.65 0zm10.76 2.66l1.22 0 0 -2.3 0.28 0c0.3,0 0.57,-0.02 0.8,-0.06 0.23,-0.04 0.44,-0.1 0.62,-0.17 0.31,-0.13 0.56,-0.3 0.75,-0.51 0.19,-0.2 0.32,-0.43 0.4,-0.68 0.09,-0.25 0.13,-0.5 0.13,-0.76 -0.01,-0.46 -0.1,-0.85 -0.29,-1.17 -0.18,-0.32 -0.45,-0.57 -0.8,-0.74 -0.19,-0.09 -0.42,-0.16 -0.66,-0.21 -0.25,-0.05 -0.53,-0.07 -0.84,-0.07l-1.61 0 0 6.67zm1.22 -3.29l0 -2.39 0.34 0c0.19,0 0.35,0.02 0.48,0.04 0.14,0.03 0.26,0.08 0.35,0.13 0.18,0.11 0.31,0.25 0.4,0.43 0.09,0.18 0.13,0.38 0.13,0.6 0,0.25 -0.05,0.46 -0.14,0.64 -0.09,0.17 -0.23,0.31 -0.42,0.4 -0.09,0.05 -0.21,0.09 -0.34,0.11 -0.13,0.03 -0.27,0.04 -0.44,0.04l-0.36 0zm4.72 3.29l3.7 0 0 -1.03 -2.48 0 0 -1.83 2.14 0 0 -1.04 -2.14 0 0 -1.74 2.14 0 0.33 -1.03 -3.69 0 0 6.67zm7.04 0.1c0.43,0 0.81,-0.05 1.13,-0.15 0.32,-0.1 0.59,-0.24 0.8,-0.43 0.21,-0.18 0.38,-0.39 0.48,-0.63 0.11,-0.25 0.16,-0.52 0.16,-0.8 0,-0.27 -0.05,-0.51 -0.15,-0.71 -0.1,-0.21 -0.24,-0.38 -0.43,-0.51 -0.19,-0.14 -0.42,-0.23 -0.69,-0.28l0 -0.02c0.36,-0.13 0.63,-0.33 0.82,-0.58 0.2,-0.25 0.29,-0.56 0.3,-0.92 0,-0.24 -0.05,-0.46 -0.14,-0.68 -0.09,-0.21 -0.23,-0.41 -0.41,-0.57 -0.19,-0.17 -0.43,-0.31 -0.71,-0.4 -0.29,-0.1 -0.63,-0.15 -1.02,-0.15 -0.28,0 -0.55,0.02 -0.8,0.07 -0.24,0.04 -0.47,0.1 -0.68,0.18 -0.2,0.07 -0.39,0.15 -0.55,0.23l0.33 0.95c0.25,-0.14 0.51,-0.24 0.77,-0.31 0.26,-0.06 0.51,-0.1 0.77,-0.1 0.26,0 0.48,0.04 0.65,0.11 0.18,0.08 0.3,0.18 0.39,0.31 0.08,0.14 0.12,0.3 0.12,0.48 0,0.31 -0.13,0.55 -0.38,0.7 -0.25,0.16 -0.62,0.24 -1.11,0.24 -0.09,0 -0.19,0 -0.29,0 -0.11,0 -0.21,-0.01 -0.33,-0.02l0 1.01c0.1,-0.01 0.2,-0.02 0.3,-0.02 0.1,0 0.2,0 0.28,0 0.08,0 0.15,0 0.18,0 0.3,-0.01 0.56,0.02 0.79,0.09 0.22,0.06 0.4,0.16 0.52,0.3 0.13,0.14 0.19,0.32 0.19,0.56 0,0.22 -0.05,0.41 -0.16,0.56 -0.11,0.16 -0.27,0.27 -0.48,0.35 -0.2,0.08 -0.45,0.12 -0.74,0.12 -0.31,0 -0.61,-0.03 -0.89,-0.09 -0.28,-0.06 -0.54,-0.15 -0.78,-0.26l0 1.05c0.25,0.1 0.52,0.18 0.82,0.24 0.29,0.05 0.61,0.08 0.94,0.08zm4.99 -0.01c0.31,0 0.58,-0.05 0.84,-0.17 0.25,-0.11 0.49,-0.29 0.71,-0.55 0.21,-0.26 0.42,-0.6 0.62,-1.02l2.35 -5.02 -1.34 0 -1.49 3.5 -0.02 0 -1.68 -3.5 -1.35 0 2.4 4.74c-0.09,0.16 -0.18,0.31 -0.26,0.43 -0.08,0.13 -0.16,0.23 -0.24,0.32 -0.09,0.08 -0.18,0.14 -0.29,0.18 -0.1,0.04 -0.23,0.06 -0.37,0.06 -0.06,0 -0.13,-0.01 -0.2,-0.01 -0.08,-0.01 -0.14,-0.03 -0.21,-0.04l0 1.03c0.06,0.02 0.12,0.03 0.19,0.03 0.07,0.01 0.13,0.02 0.19,0.02 0.06,0 0.11,0 0.15,0zm5.57 -0.04c0.31,0 0.59,-0.05 0.83,-0.17 0.24,-0.11 0.46,-0.3 0.64,-0.56 0.13,-0.19 0.26,-0.42 0.37,-0.7 0.12,-0.27 0.22,-0.58 0.32,-0.91 0.1,-0.34 0.18,-0.69 0.26,-1.07 0.08,-0.37 0.14,-0.75 0.2,-1.15 0.05,-0.39 0.1,-0.78 0.13,-1.17l1.31 0 0 5.68 1.22 0 0 -6.67 -3.53 0c-0.04,0.41 -0.08,0.82 -0.14,1.23 -0.05,0.42 -0.11,0.82 -0.18,1.21 -0.07,0.39 -0.15,0.76 -0.23,1.1 -0.09,0.35 -0.18,0.66 -0.28,0.93 -0.11,0.27 -0.22,0.5 -0.33,0.68 -0.1,0.15 -0.21,0.26 -0.33,0.33 -0.13,0.07 -0.26,0.11 -0.4,0.11 -0.02,0 -0.04,0 -0.08,-0.01 -0.04,0 -0.08,0 -0.12,-0.01l0 1.12c0.03,0.01 0.07,0.02 0.12,0.02 0.04,0.01 0.08,0.01 0.13,0.01 0.04,0 0.07,0 0.09,0zm8.58 -1.05l0 -2.2 0.49 0c0.24,0 0.45,0.02 0.63,0.05 0.19,0.03 0.35,0.09 0.48,0.17 0.14,0.09 0.24,0.21 0.31,0.35 0.07,0.15 0.11,0.32 0.11,0.53 0,0.37 -0.11,0.64 -0.34,0.82 -0.24,0.19 -0.6,0.28 -1.09,0.28l-0.59 0zm-1.22 1l1.78 0c0.49,0 0.91,-0.05 1.25,-0.16 0.35,-0.1 0.62,-0.25 0.84,-0.45 0.21,-0.19 0.36,-0.41 0.46,-0.67 0.1,-0.26 0.14,-0.54 0.14,-0.84 0,-0.43 -0.09,-0.79 -0.26,-1.07 -0.18,-0.29 -0.42,-0.52 -0.74,-0.68 -0.24,-0.12 -0.51,-0.2 -0.81,-0.25 -0.3,-0.06 -0.63,-0.08 -0.98,-0.08l-0.46 0 0 -2.47 -1.22 0 0 6.67zm7.48 0l1.21 0 0 -5.64 1.78 0 0.34 -1.03 -5.28 0 0 1.03 1.95 0 0 5.64zm3.89 0l1.27 0 0.62 -1.67 2.38 0 0.65 1.67 1.32 0 -2.69 -6.7 -0.97 0 -2.58 6.7zm2.25 -2.66l0.48 -1.32c0.06,-0.17 0.12,-0.32 0.16,-0.45 0.04,-0.12 0.08,-0.24 0.11,-0.33 0.03,-0.1 0.06,-0.18 0.08,-0.26l0.02 0c0.03,0.11 0.07,0.24 0.12,0.41 0.05,0.16 0.12,0.37 0.21,0.62l0.47 1.33 -1.65 0zm6.62 2.66l1.21 0 0 -5.64 1.78 0 0.34 -1.03 -5.28 0 0 1.03 1.95 0 0 5.64z"/>
  </g>
 </g>
</svg>
