<svg xmlns="http://www.w3.org/2000/svg" width="48" height="57" viewBox="0 0 48 57">
    <g fill="none" fill-rule="evenodd">
        <path d="M-8-2h64v64H-8z"/>
        <g fill-rule="nonzero">
            <path fill="#1EB0CD" d="M7.685 13.603l-4.08-3.438A26.65 26.65 0 0 1 24.016.667a26.643 26.643 0 0 1 20.373 9.458l-4.072 3.443A21.313 21.313 0 0 0 24.02 6a21.308 21.308 0 0 0-16.334 7.603z"/>
            <path fill="#1EB0CD" d="M32.557 20.936a10.588 10.588 0 0 0-8.538-4.272c-3.39 0-6.502 1.555-8.534 4.267l-4.266-3.198c3.005-4.01 7.789-6.4 12.8-6.4 5.085 0 9.752 2.334 12.805 6.406l-4.267 3.197z"/>
            <g transform="translate(0 19.333)">
                <circle cx="34.667" cy="21.336" r="2.667" fill="#757575"/>
                <circle cx="13.333" cy="21.336" r="2.667" fill="#757575"/>
                <path fill="#1F282C" d="M42.667 5.336h-16V.003h-5.334v5.333h-16A5.337 5.337 0 0 0 0 10.669v21.334a5.337 5.337 0 0 0 5.333 5.333h37.334A5.337 5.337 0 0 0 48 32.003V10.669a5.337 5.337 0 0 0-5.333-5.333zm-29.334 24c-4.41 0-8-3.59-8-8s3.59-8 8-8c4.411 0 8 3.59 8 8s-3.589 8-8 8zm21.334 0c-4.411 0-8-3.59-8-8s3.589-8 8-8c4.41 0 8 3.59 8 8s-3.59 8-8 8z"/>
            </g>
        </g>
    </g>
</svg>
