<svg xmlns="http://www.w3.org/2000/svg" width="113" height="128" viewBox="0 0 113 128">
    <g fill="none" fill-rule="nonzero">
        <path fill="#1F282C" d="M98 128c0-8.836-7.164-16-16-16H30c-8.836 0-16 7.164-16 16h84z"/>
        <path fill="#1EB0CD" d="M56.031 0c-30.928 0-56 25.072-56 56 0 19.06 9.53 35.886 24.077 46h63.847c14.546-10.114 24.077-26.94 24.077-46-.001-30.928-25.073-56-56.001-56zM38.422 74.789l-5.039 12.018-5.039-12.018-12.016-5.039 12.016-5.039 5.039-12.016 5.039 12.016 12.016 5.039-12.016 5.039zm41.592-26.654l-6.74 16.068-6.736-16.068-16.066-6.738 16.066-6.74 6.736-16.066 6.74 16.068 16.066 6.738-16.066 6.738z"/>
    </g>
</svg>
