<svg xmlns="http://www.w3.org/2000/svg" width="56" height="64" viewBox="0 0 56 64">
    <g fill="none" fill-rule="nonzero">
        <path fill="#FFF" d="M49 63.963a8 8 0 0 0-8-8H15a8 8 0 0 0-8 8h42z"/>
        <path fill="#3CB0CB" d="M28.016.037c-15.464 0-28 12.536-28 28 0 8.916 4.187 16.836 10.681 21.963h34.639c6.494-5.127 10.681-13.047 10.681-21.963-.001-15.464-12.538-28-28.001-28zm-8.805 37.358l-2.52 6.009-2.52-6.009-6.008-2.52 6.008-2.52 2.52-6.008 2.52 6.008 6.008 2.52-6.008 2.52zm20.796-13.328l-3.37 8.034-3.368-8.034-8.033-3.369 8.033-3.37 3.368-8.033 3.37 8.034 8.033 3.369-8.033 3.369z"/>
    </g>
</svg>
