<svg width="48" height="48" viewBox="0 0 48 48" fill="none" xmlns="http://www.w3.org/2000/svg">
<path d="M20 7.6C22.9772 7.6 25.4 10.0228 25.4 13H29C29 8.0374 24.9626 4 20 4C15.0374 4 11 8.0374 11 13H14.6C14.6 10.0228 17.0228 7.6 20 7.6Z" fill="#3BA8C4"/>
<path d="M31.8697 20.1429C32.5978 20.1429 33.305 20.2183 34 20.3366L33.6116 15H5.74186L4 39H21.8715C20.4919 37.056 19.6767 34.6937 19.6767 32.1429C19.6767 25.5154 25.1357 20.1429 31.8697 20.1429Z" fill="#3BA8C4"/>
<path d="M39.2457 36.7398C40.1743 35.3398 40.7219 33.6651 40.7219 31.861C40.7219 26.975 36.7469 23 31.861 23C26.975 23 23 26.975 23 31.861C23 36.7469 26.975 40.7219 31.861 40.7219C33.6651 40.7219 35.3398 40.1743 36.7398 39.2457L42.4941 45L45 42.4941L39.2457 36.7398ZM31.861 37.1775C28.9298 37.1775 26.5444 34.7922 26.5444 31.861C26.5444 28.9298 28.9298 26.5444 31.861 26.5444C34.7922 26.5444 37.1775 28.9298 37.1775 31.861C37.1775 34.7922 34.7922 37.1775 31.861 37.1775Z" fill="#3BA8C4"/>
</svg>
