<svg width="40" height="38" viewBox="0 0 40 38" fill="none" xmlns="http://www.w3.org/2000/svg">
<path d="M40 8V2C40 0.896 39.106 0 38 0H2C0.894 0 0 0.896 0 2V8C0 9.104 0.894 10 2 10V30H0V34H18V38H22V34H40V30H38V10C39.106 10 40 9.104 40 8ZM16 17.334H11.332C10.964 17.334 10.666 17.632 10.666 18C10.666 18.368 10.964 18.666 11.332 18.666H12.666C14.504 18.666 16 20.164 16 22C16 23.61 14.852 24.954 13.332 25.266V26.666H10.666V25.334H8V22.666H12.666C13.034 22.666 13.332 22.368 13.332 22C13.332 21.632 13.034 21.334 12.666 21.334H11.332C9.494 21.334 8 19.838 8 18C8 16.392 9.146 15.046 10.666 14.734V13.334H13.332V14.666H16V17.334ZM26 28H22V18H26V28ZM32 28H28V14H32V28ZM36 6H4V4H36V6Z" fill="#3BA8C4"/>
</svg>
