<svg width="337" height="476" viewBox="0 0 337 476" fill="none" xmlns="http://www.w3.org/2000/svg">
<mask id="mask0" mask-type="alpha" maskUnits="userSpaceOnUse" x="0" y="0" width="337" height="476">
<rect width="337" height="476" fill="#C4C4C4"/>
</mask>
<g mask="url(#mask0)">
<path d="M50.1697 442.705C53.5844 446.134 57.0725 449.473 60.4826 452.689C51.4201 456.559 41.9261 460.224 32.0626 463.647C31.1398 463.967 30.217 464.286 29.3448 464.617C34.5013 446.659 34.1093 433.001 27.1761 428.93C15.3591 422.048 -11.1056 445.166 -32.6288 480.858C-43.3045 482.718 -53.3535 483.925 -62.4383 484.398C-54.1784 465.875 -43.5518 445.825 -30.8386 425.243C-22.1688 411.213 -13.1548 398.004 -3.99413 385.782C-2.05215 384.953 -0.0596758 384.135 1.9213 383.367C13.9355 402.431 30.4297 423.046 50.1697 442.705ZM9.65366 509.049C16.0896 498.061 21.2722 487.211 25.1533 477.177C35.0075 474.495 45.0155 471.37 55.1155 467.843C60.4776 465.991 65.7618 464.016 70.9449 462.017C72.136 463.084 73.389 464.111 74.5915 465.128L73.2552 467.261C47.1607 509.491 17.8452 544.414 -8.31179 566.647C-34.5812 588.908 -57.6416 598.491 -71.3266 590.018C-84.1831 582.105 -86.3271 560.521 -79.3597 532.058C-76.309 519.609 -71.447 505.505 -64.9391 490.241C-62.0241 490.269 -58.9966 490.27 -55.8957 490.182C-49.9692 490.049 -43.7719 489.66 -37.3037 489.015C-56.6279 524.149 -63.1784 556.841 -51.6529 563.603C-39.6179 570.693 -12.1637 546.264 9.65366 509.049ZM-68.6517 484.624C-86.5825 484.988 -99.3708 480.271 -102.848 470.361C-107.234 457.913 -95.4218 441.048 -72.7616 423.901C-58.8914 413.388 -41.0274 402.833 -20.3701 393.073C-22.9118 396.998 -25.4535 400.924 -27.9172 404.974C-44.4418 431.788 -58.1823 458.973 -68.6517 484.624ZM70.3337 487.531C73.9408 481.728 77.3344 475.929 80.6775 470.119C95.7091 482.239 110.337 491.934 123.469 498.638C145.403 509.84 163.138 512.664 171.391 504.422C181.231 494.581 176.765 471.302 161.507 441.535C158.125 434.933 154.082 427.969 149.383 420.856C150.347 420.122 151.3 419.438 152.253 418.754C175.432 401.195 187.522 383.81 182.948 370.789C178.44 357.942 158.941 350.74 129.915 349.211C137.779 313.319 135.586 287.06 121.38 278.309C107.174 269.558 83.3768 279.345 56.4416 302.196C51.6413 306.243 46.7377 310.743 41.8042 315.607C37.8843 313.229 34.0585 311.138 30.4002 309.244C8.46652 298.042 -9.26853 295.218 -17.5217 303.46C-27.3613 313.301 -22.8949 336.58 -7.63735 366.348C-6.82514 367.911 -6.01293 369.474 -5.09973 371.06C-5.73343 371.976 -6.35562 372.841 -7.0398 373.745C-43.8979 387.232 -75.5371 403.922 -97.2446 420.386C-120.424 437.945 -132.514 455.33 -127.94 468.351C-123.205 481.833 -102.111 489.027 -70.7461 490.083C-77.1923 506.475 -82.1969 522.135 -85.7805 536.689C-95.369 575.95 -93.8233 604.818 -78.7889 614.129C-64.5829 622.88 -40.7857 613.094 -13.8505 590.242C13.0227 567.43 43.2313 531.386 70.3337 487.531ZM86.5441 459.531C87.4626 457.833 88.381 456.134 89.2995 454.435C110.381 445.143 128.957 434.962 143.938 424.703C151.313 434.758 157.359 444.352 161.854 453.062C168.789 466.675 169.928 478.224 163.605 484.521C155.696 492.417 138.439 489.595 116.987 478.609C107.463 473.788 97.188 467.364 86.5441 459.531ZM10.1439 367.804C21.2259 354.377 32.3673 342.554 43.0608 332.695C52.4818 337.97 62.536 344.662 72.8425 352.577C53.2127 355.734 31.9275 360.792 10.1439 367.804ZM53.7403 323.364C78.7034 302.872 100.568 294.341 113.755 302.436C124.842 309.257 127.942 326.182 124.131 348.952C119.858 348.826 115.398 348.816 110.752 348.923C103.595 349.094 95.9818 349.637 88.0239 350.526C76.4326 340.092 64.8066 330.975 53.7403 323.364ZM31.0715 326.57C20.24 338.199 9.1809 351.525 -1.66042 366.226C-4.05588 362.288 -6.22186 358.508 -8.04586 354.859C-14.9817 341.246 -16.1201 329.697 -9.79761 323.4C-2.63946 316.234 12.2703 317.937 31.0715 326.57ZM138.926 405.91C128.878 392.436 117.001 378.598 103.588 365.204L103.548 365.142L103.537 365.193C100.765 362.441 97.9813 359.739 95.2366 357.099C105.355 355.59 114.795 354.721 123.283 354.536C141.338 354.094 154.278 358.846 157.744 368.806C161.265 378.99 154.021 392.126 138.926 405.91ZM127.545 415.294C112.846 426.412 93.664 437.622 71.4711 447.827C62.661 440.571 53.7318 432.44 44.9518 423.654C30.4096 409.155 18.0135 394.562 8.11217 380.91C12.8844 379.083 17.7577 377.278 22.7204 375.548L22.8329 375.52L22.7824 375.509C43.4437 368.294 63.315 362.913 81.4186 359.461C90.5087 366.887 99.6559 375.226 108.755 384.244L108.794 384.306C117.702 393.227 125.858 402.189 133.054 410.932C131.339 412.396 129.523 413.837 127.545 415.294Z" fill="#E3DDD5"/>
<path d="M123.556 530.769L52.3145 533.42L62.6664 470.842C64.7399 458.364 75.5096 449.234 88.1362 449.234C100.763 449.234 111.533 458.379 113.606 470.842L123.556 530.769Z" fill="#574589"/>
<path d="M113.498 541H62.7747L72.4767 449.234H103.796L113.498 541Z" fill="#D47776"/>
<path d="M88.1362 510.649C79.0686 510.649 71.9971 502.774 72.9564 493.737L77.6605 449.234H98.6274L103.331 493.737C104.275 502.774 97.2038 510.649 88.1362 510.649Z" fill="#FEC678"/>
<path d="M88.0434 492.11C83.8036 492.11 80.3684 488.669 80.3684 484.421V449.219H95.7029V484.421C95.7029 488.669 92.2677 492.11 88.0434 492.11Z" fill="#FCF0D2"/>
<path d="M-55.2902 530.769H15.5643L5.59914 470.842C3.52566 458.364 -7.24409 449.234 -19.8707 449.234C-32.4973 449.234 -43.267 458.379 -45.3405 470.842L-55.2902 530.769Z" fill="#574589"/>
<path d="M-45.2323 541H5.49074L-4.21132 449.234H-35.5302L-45.2323 541Z" fill="#D47776"/>
<path d="M-3.88635 332.559H72.1363V123.032C72.1363 98.928 63.1615 75.6921 46.9914 57.8505L38.6201 48.6274C36.2062 45.9767 32.0438 45.9767 29.6453 48.6274L21.274 57.8505C5.08844 75.6921 -3.88635 98.928 -3.88635 123.032V332.559Z" fill="#F29051"/>
<path d="M72.1365 123.032V332.559H34.1793V85.4267C34.1793 70.4063 54.2643 65.3065 61.3203 78.5753C61.6762 79.2418 62.0321 79.9394 62.388 80.6369C62.4344 80.7454 62.4963 80.8539 62.5428 80.9779C68.4228 93.1772 71.7187 106.57 72.1056 120.304C72.121 120.645 72.121 121.001 72.1365 121.358C72.1365 121.9 72.1365 122.459 72.1365 123.032Z" fill="#E06955"/>
<path opacity="0.6" d="M66.7514 91.1467C65.1112 86.4344 59.8656 84.1092 55.2853 86.0778C55.2389 86.0933 55.177 86.1243 55.1306 86.1398C51.061 87.9069 49.0494 92.5262 50.5039 96.7115C50.9217 97.9051 51.3086 99.1141 51.6645 100.323C52.8869 104.462 56.9874 107.066 61.2427 106.338C61.3046 106.322 61.351 106.322 61.4129 106.307C66.4419 105.47 69.614 100.385 68.1595 95.4869C67.7262 94.0453 67.2466 92.5882 66.7514 91.1467Z" fill="#C14F4F"/>
<path d="M63.5175 115.359C58.7052 115.359 54.8213 119.328 54.9296 124.148C54.9451 124.985 54.9605 125.528 54.9605 125.528V284.49C60.593 284.397 66.2719 284.227 72.1519 283.653V125.683C72.1519 125.683 72.1364 124.923 72.1209 123.807C72.0281 119.111 68.2061 115.359 63.5175 115.359Z" fill="#C14F4F"/>
<path d="M11.8505 70.0802C4.3612 81.582 -0.60588 94.5563 -2.72579 108.135C-3.49948 113.157 0.167805 117.777 5.2432 118.04L5.41342 118.056C9.79249 118.288 13.5836 115.126 14.2489 110.786C15.982 99.6096 20.0516 88.9604 26.2256 79.5048C28.6705 75.7536 27.8659 70.7313 24.2759 68.0496C24.1986 67.9876 24.1212 67.9256 24.0284 67.8636C20.1135 64.9494 14.512 65.988 11.8505 70.0802Z" fill="#FFB564"/>
<path d="M26.2566 79.4589C28.7015 75.7231 27.8659 70.7163 24.276 68.0502C24.1986 67.9882 24.1212 67.9262 24.0284 67.8641C20.1135 64.9655 14.543 65.9265 11.8815 70.0188C11.1542 71.1348 10.4424 72.2664 9.76156 73.4135C7.00723 78.0638 9.29735 84.0627 14.4037 85.7833C14.4656 85.7988 14.512 85.8143 14.5739 85.8453C18.3495 87.1163 22.5119 85.5972 24.5545 82.1715C25.0961 81.257 25.6686 80.3579 26.2566 79.4589Z" fill="#FFD07D"/>
<path d="M44.9179 55.5718L37.6453 47.5578C35.7574 45.4807 32.477 45.4807 30.5892 47.5578L23.3165 55.5718H44.9179Z" fill="#E06955"/>
<path d="M1.90084 122.242C-1.30223 122.242 -3.88635 124.83 -3.88635 128.039V130.953C-3.88635 134.162 -1.30223 136.751 1.90084 136.751C5.10391 136.751 7.68803 134.162 7.68803 130.953V128.039C7.68803 124.83 5.10391 122.242 1.90084 122.242Z" fill="#FFB564"/>
<path d="M72.0125 147.833H-3.88635V154.7H72.0125V147.833Z" fill="#E06955"/>
<path d="M72.1363 147.833H29.4132V154.7H72.1363V147.833Z" fill="#C14F4F"/>
<path d="M3.56653 201.239L3.56653 149.295H-0.611386L-0.611386 201.239H3.56653Z" fill="#FFB564"/>
<path d="M12.896 201.241L12.896 149.297H8.71808L8.71808 201.241H12.896Z" fill="#FFB564"/>
<path d="M22.2253 201.242L22.2253 149.299H18.0474L18.0474 201.242H22.2253Z" fill="#FFB564"/>
<path d="M31.5547 201.244L31.5547 149.3H27.3768L27.3768 201.244H31.5547Z" fill="#FFB564"/>
<path d="M40.8795 149.29H36.7015V201.234H40.8795V149.29Z" fill="#ED8652"/>
<path d="M50.21 149.29H46.0321V201.234H50.21V149.29Z" fill="#ED8652"/>
<path d="M15.7189 302.781H-3.76257V163.226C6.9917 163.226 15.7189 171.968 15.7189 182.742V302.781Z" fill="#E06955"/>
<path opacity="0.4" d="M15.7189 356.167H-3.76257V216.596C6.9917 216.596 15.7189 225.339 15.7189 236.112V356.167Z" fill="#C14F4F"/>
<path d="M72.0125 143.912H-3.88635V150.081H72.0125V143.912Z" fill="#FFD07D"/>
<path d="M72.1363 150.081H32.4925C30.7904 150.081 29.4132 148.702 29.4132 146.997C29.4132 145.292 30.7904 143.912 32.4925 143.912H72.1363V150.081Z" fill="#FFB564"/>
<path d="M16.3998 150.081H8.49274C6.79062 150.081 5.41345 148.702 5.41345 146.997C5.41345 145.292 6.79062 143.912 8.49274 143.912H16.3998C18.1019 143.912 19.4791 145.292 19.4791 146.997C19.4791 148.702 18.1019 150.081 16.3998 150.081Z" fill="#FCF0D2"/>
<path d="M-0.605713 201.25V163.443C-0.605713 162.296 0.322711 161.351 1.48324 161.351C2.6283 161.351 3.57221 162.281 3.57221 163.443V201.25H-0.605713Z" fill="#ED8652"/>
<path d="M8.72485 201.25V168.357C8.72485 167.21 9.65328 166.264 10.8138 166.264C11.9589 166.264 12.9028 167.194 12.9028 168.357V201.234H8.72485V201.25Z" fill="#ED8652"/>
<path d="M72.1363 197.964H-3.88635V204.133H72.1363V197.964Z" fill="#FFB564"/>
<path d="M72.1518 197.964H29.3049V204.133H72.1518V197.964Z" fill="#ED8652"/>
<path opacity="0.7" d="M25.4212 137.634C23.0073 137.634 21.0576 135.681 21.0576 133.263V118.645C21.0576 116.227 23.0073 114.274 25.4212 114.274C27.8351 114.274 29.7848 116.227 29.7848 118.645V133.263C29.7848 135.681 27.8351 137.634 25.4212 137.634Z" fill="#E06955"/>
<path d="M104.121 430.199H72.1362V176.294C72.1362 174.418 73.6527 172.899 75.525 172.899H100.732C102.604 172.899 104.121 174.418 104.121 176.294V430.199Z" fill="#FCA86A"/>
<path d="M81.0955 271.299C76.1594 271.299 72.1362 267.284 72.1362 262.34V188.276C72.1362 183.331 76.1439 179.301 81.0955 179.301C86.0317 179.301 90.0394 183.316 90.0394 188.276V262.34C90.0394 267.284 86.0317 271.299 81.0955 271.299Z" fill="#FED892"/>
<path d="M72.1362 247.211V359.329C72.1362 361.406 73.8074 363.065 75.8654 363.065H104.105V203.358C85.5829 209.264 72.1362 226.672 72.1362 247.211Z" fill="#E18574"/>
<path d="M90.3645 127.528L102.078 160.839H74.1945L85.9081 127.528C86.6508 125.42 89.6218 125.42 90.3645 127.528Z" fill="#FFD07D"/>
<path d="M102.449 166.109H73.823V161.257C73.823 160.761 74.2253 160.358 74.7205 160.358H101.552C102.047 160.358 102.449 160.761 102.449 161.257V166.109Z" fill="#FFD07D"/>
<path d="M74.7206 160.343H80.647C84.206 160.343 87.0841 157.459 87.0841 153.894V133.123C87.0841 131.371 84.6393 130.968 84.0822 132.627C83.7882 133.495 83.4633 134.471 83.0764 135.556L74.3337 160.436C74.4575 160.374 74.5813 160.343 74.7206 160.343Z" fill="#FCF0D2"/>
<path d="M102.449 166.109H88.4147C86.8209 166.109 85.5366 164.823 85.5366 163.226C85.5366 161.63 86.8209 160.343 88.4147 160.343H101.753C102.14 160.343 102.449 160.653 102.449 161.041V166.109Z" fill="#FCA86A"/>
<path d="M102.449 166.109H73.823V174.03H102.449V166.109Z" fill="#70575C"/>
<path d="M81.5443 220.797H72.1362V208.071C72.1362 205.467 74.2407 203.358 76.8403 203.358C79.4399 203.358 81.5443 205.467 81.5443 208.071V220.797Z" fill="#FCF0D2"/>
<path d="M101.49 273.624C100.036 273.624 98.8596 272.446 98.8596 270.989V214.72C98.8596 213.263 100.036 212.085 101.49 212.085C102.945 212.085 104.121 213.263 104.121 214.72V270.989C104.121 272.446 102.945 273.624 101.49 273.624Z" fill="#F19A6E"/>
<path d="M101.49 292.35C100.036 292.35 98.8596 291.171 98.8596 289.714V284.63C98.8596 283.173 100.036 281.995 101.49 281.995C102.945 281.995 104.121 283.173 104.121 284.63V289.714C104.121 291.156 102.945 292.35 101.49 292.35Z" fill="#F19A6E"/>
<path d="M75.2774 199.142C73.5443 199.142 72.1362 197.731 72.1362 195.995V191.112C72.1362 189.376 73.5443 187.966 75.2774 187.966C77.0105 187.966 78.4186 189.376 78.4186 191.112V195.995C78.4186 197.747 77.0105 199.142 75.2774 199.142Z" fill="#FCF0D2"/>
<path d="M85.7843 333.582C81.6838 333.582 78.3569 330.249 78.3569 326.141V287.637C78.3569 283.529 81.6838 280.196 85.7843 280.196C89.8849 280.196 93.2118 283.529 93.2118 287.637V326.141C93.2118 330.249 89.8849 333.582 85.7843 333.582Z" fill="#D47776"/>
<path d="M72.1362 247.118V262.123C72.1362 266.99 75.9118 271.129 80.7551 271.299C85.846 271.485 90.0394 267.393 90.0394 262.34C90.0394 207.327 90.0549 211.496 90.0084 210.783C79.1613 219.169 72.1672 232.33 72.1362 247.118Z" fill="#F19A6E"/>
<path d="M90.7978 135.557L96.1207 154.204C96.5695 155.785 95.6565 157.413 94.0937 157.863C92.5308 158.312 90.8906 157.397 90.4419 155.832C90.3955 155.677 90.3645 155.491 90.349 155.336L88.322 136.037C88.2446 135.34 88.7552 134.704 89.4516 134.627C90.055 134.58 90.6276 134.968 90.7978 135.557Z" fill="#FCA86A"/>
<path d="M103.656 200.041H72.616C71.5173 200.041 70.6199 199.142 70.6199 198.041C70.6199 196.941 71.5173 196.042 72.616 196.042H103.656C104.755 196.042 105.653 196.941 105.653 198.041C105.653 199.142 104.755 200.041 103.656 200.041Z" fill="#70575C"/>
<path d="M103.656 266.571H72.616C71.5173 266.571 70.6199 265.672 70.6199 264.571C70.6199 263.471 71.5173 262.572 72.616 262.572H103.656C104.755 262.572 105.653 263.471 105.653 264.571C105.653 265.672 104.755 266.571 103.656 266.571Z" fill="#70575C"/>
<path d="M103.656 221.758H72.616C71.5173 221.758 70.6199 220.859 70.6199 219.758C70.6199 218.658 71.5173 217.759 72.616 217.759H103.656C104.755 217.759 105.653 218.658 105.653 219.758C105.653 220.859 104.755 221.758 103.656 221.758Z" fill="#70575C"/>
<path d="M83.7882 200.041H78.5271C77.4285 200.041 76.531 199.142 76.531 198.041C76.531 196.941 77.4285 196.042 78.5271 196.042H83.7882C84.8868 196.042 85.7843 196.941 85.7843 198.041C85.7843 199.142 84.9023 200.041 83.7882 200.041Z" fill="#AF979F"/>
<path d="M83.7882 221.758H78.5271C77.4285 221.758 76.531 220.859 76.531 219.758C76.531 218.658 77.4285 217.759 78.5271 217.759H83.7882C84.8868 217.759 85.7843 218.658 85.7843 219.758C85.7843 220.859 84.9023 221.758 83.7882 221.758Z" fill="#9B8289"/>
<path d="M103.656 200.041H98.3953C97.2967 200.041 96.3992 199.142 96.3992 198.041C96.3992 196.941 97.2967 196.042 98.3953 196.042H103.656C104.755 196.042 105.652 196.941 105.652 198.041C105.652 199.142 104.755 200.041 103.656 200.041Z" fill="#564148"/>
<path d="M103.656 266.571H98.3953C97.2967 266.571 96.3992 265.672 96.3992 264.571C96.3992 263.471 97.2967 262.572 98.3953 262.572H103.656C104.755 262.572 105.652 263.471 105.652 264.571C105.652 265.672 104.755 266.571 103.656 266.571Z" fill="#564148"/>
<path d="M103.656 221.758H98.3953C97.2967 221.758 96.3992 220.859 96.3992 219.758C96.3992 218.658 97.2967 217.759 98.3953 217.759H103.656C104.755 217.759 105.652 218.658 105.652 219.758C105.652 220.859 104.755 221.758 103.656 221.758Z" fill="#564148"/>
<path d="M89.1885 146.996C90.0431 146.996 90.7359 146.302 90.7359 145.446C90.7359 144.59 90.0431 143.896 89.1885 143.896C88.3339 143.896 87.6411 144.59 87.6411 145.446C87.6411 146.302 88.3339 146.996 89.1885 146.996Z" fill="#876C72"/>
<path d="M82.8287 145.446C82.8287 146.299 83.5251 146.996 84.3761 146.996C85.2272 146.996 85.9235 146.299 85.9235 145.446C85.9235 144.594 85.2272 143.896 84.3761 143.896C83.5096 143.911 82.8287 144.594 82.8287 145.446Z" fill="#876C72"/>
<path d="M89.1885 151.631C90.0431 151.631 90.7359 150.937 90.7359 150.081C90.7359 149.225 90.0431 148.531 89.1885 148.531C88.3339 148.531 87.6411 149.225 87.6411 150.081C87.6411 150.937 88.3339 151.631 89.1885 151.631Z" fill="#876C72"/>
<path d="M82.8287 150.081C82.8287 150.934 83.5251 151.631 84.3761 151.631C85.2272 151.631 85.9235 150.934 85.9235 150.081C85.9235 149.229 85.2272 148.531 84.3761 148.531C83.5096 148.547 82.8287 149.229 82.8287 150.081Z" fill="#876C72"/>
<path d="M103.517 452.831H72.7399C71.1152 452.831 70.0166 451.156 70.6665 449.668L75.1693 439.407C75.68 438.244 76.825 437.485 78.0939 437.485H98.1479C99.4167 437.485 100.562 438.244 101.072 439.407L105.575 449.668C106.241 451.156 105.142 452.831 103.517 452.831Z" fill="#70575C"/>
<path d="M103.285 448.164H72.9721C71.9818 448.164 71.0688 448.753 70.6665 449.668C70.0166 451.156 71.0997 452.83 72.74 452.83H103.517C105.142 452.83 106.241 451.156 105.591 449.668C105.188 448.753 104.276 448.164 103.285 448.164Z" fill="#9B8289"/>
<path d="M89.2349 448.164H81.8075C80.4613 448.164 79.4091 449.311 79.5019 450.66C79.5019 450.675 79.5019 450.691 79.5019 450.706C79.5948 451.916 80.6006 452.846 81.8075 452.846H89.2349C90.643 452.846 91.7107 451.606 91.525 450.21C91.525 450.195 91.525 450.179 91.525 450.164C91.3703 449.017 90.3955 448.164 89.2349 448.164Z" fill="#C4ABB5"/>
<path d="M104.121 430.199H89.3741V382.503C89.3741 381.945 89.8229 381.495 90.3799 381.495H103.13C103.687 381.495 104.136 381.945 104.136 382.503V430.199H104.121Z" fill="#D47776"/>
<path d="M108.438 441.235H67.8191C65.6683 441.235 64.2292 439.018 65.0957 437.05L71.0377 423.502C71.703 421.967 73.2195 420.975 74.9061 420.975H101.382C103.053 420.975 104.569 421.967 105.25 423.502L111.192 437.05C112.028 439.018 110.589 441.235 108.438 441.235Z" fill="#FCA86A"/>
<path d="M111.161 437.05L105.219 423.502C104.539 421.967 103.022 420.975 101.351 420.975H86.1248C87.7959 420.975 89.3124 421.967 89.9932 423.502L95.1614 435.298C96.3839 438.088 94.3413 441.22 91.293 441.22H108.422C110.589 441.235 112.028 439.018 111.161 437.05Z" fill="#D47776"/>
<path d="M87.6721 436.787C86.1711 437.113 84.6702 436.167 84.3452 434.648L83.324 430.029C82.999 428.525 83.9429 427.022 85.4593 426.696C86.9603 426.371 88.4613 427.316 88.7862 428.835L89.8075 433.455C90.1324 434.958 89.1885 436.462 87.6721 436.787Z" fill="#E38874"/>
<path d="M81.1884 422.883H72.028V401.584C72.028 399.058 74.0705 396.996 76.6082 396.996C79.1304 396.996 81.1884 399.042 81.1884 401.584V422.883Z" fill="#FEC678"/>
<path d="M65.0958 437.05L71.0378 423.502C71.7186 421.967 73.2196 420.975 74.9062 420.975H83.5251C81.8539 420.975 80.3375 421.967 79.6566 423.502L73.7147 437.05C72.8482 439.018 74.2872 441.235 76.4381 441.235H67.8192C65.6838 441.235 64.2293 439.018 65.0958 437.05Z" fill="#FEC678"/>
<path d="M102.914 421.938H72.9874C71.6257 421.938 70.5271 420.837 70.5271 419.473C70.5271 418.109 71.6257 417.008 72.9874 417.008H102.914C104.275 417.008 105.374 418.109 105.374 419.473C105.374 420.837 104.275 421.938 102.914 421.938Z" fill="#FCA86A"/>
<path d="M102.914 408.498H72.9874C71.6257 408.498 70.5271 407.397 70.5271 406.033C70.5271 404.669 71.6257 403.568 72.9874 403.568H102.914C104.275 403.568 105.374 404.669 105.374 406.033C105.374 407.382 104.275 408.498 102.914 408.498Z" fill="#FCA86A"/>
<path d="M89.3742 421.938H72.9874C71.6257 421.938 70.5271 420.837 70.5271 419.473C70.5271 418.109 71.6257 417.008 72.9874 417.008H89.3742C90.7359 417.008 91.8345 418.109 91.8345 419.473C91.8345 420.837 90.7359 421.938 89.3742 421.938Z" fill="#FEC678"/>
<path d="M89.3742 408.498H72.9874C71.6257 408.498 70.5271 407.397 70.5271 406.033C70.5271 404.669 71.6257 403.568 72.9874 403.568H89.3742C90.7359 403.568 91.8345 404.669 91.8345 406.033C91.8345 407.382 90.7359 408.498 89.3742 408.498Z" fill="#FEC678"/>
<path d="M96.4612 408.498C95.0995 408.498 94.0009 407.397 94.0009 406.033C94.0009 404.669 95.0995 403.568 96.4612 403.568C97.8229 403.568 98.9215 404.669 98.9215 406.033C98.9215 407.382 97.8229 408.498 96.4612 408.498Z" fill="#FEC678"/>
<path d="M82.4574 421.938H72.9874C71.6257 421.938 70.5271 420.837 70.5271 419.473C70.5271 418.109 71.6257 417.008 72.9874 417.008H82.4574C83.8191 417.008 84.9177 418.109 84.9177 419.473C84.9177 420.837 83.8191 421.938 82.4574 421.938Z" fill="#FCF0D2"/>
<path d="M82.4574 408.498H72.9874C71.6257 408.498 70.5271 407.397 70.5271 406.033C70.5271 404.669 71.6257 403.568 72.9874 403.568H82.4574C83.8191 403.568 84.9177 404.669 84.9177 406.033C84.9177 407.382 83.8191 408.498 82.4574 408.498Z" fill="#FCF0D2"/>
<path d="M0.430862 441.235H-40.1723C-42.3232 441.235 -43.7622 439.018 -42.8957 437.05L-36.9538 423.502C-36.2729 421.967 -34.772 420.975 -33.0853 420.975H-6.6097C-4.93854 420.975 -3.4221 421.967 -2.74126 423.502L3.20067 437.05C4.02078 439.018 2.58172 441.235 0.430862 441.235Z" fill="#FCA86A"/>
<path d="M3.16978 437.05L-2.75668 423.502C-3.43752 421.967 -4.95395 420.975 -6.62512 420.975H-21.8513C-20.1802 420.975 -18.6637 421.967 -17.9829 423.502L-12.8146 435.298C-11.5922 438.088 -13.6347 441.22 -16.6831 441.22H0.446392C2.58177 441.235 4.02083 439.018 3.16978 437.05Z" fill="#D47776"/>
<path d="M-55.9865 383.804L33.1425 398.747C33.7924 398.856 34.4578 398.856 35.1231 398.747L124.252 383.804C127.13 383.324 129.25 380.813 129.25 377.883V371.962C129.25 368.645 126.573 365.963 123.262 365.963H-54.9961C-58.3075 365.963 -60.9845 368.645 -60.9845 371.962V377.883C-60.9845 380.828 -58.8646 383.324 -55.9865 383.804Z" fill="#FEC678"/>
<path d="M123.262 365.978H34.4424V398.84C34.6745 398.825 34.8911 398.809 35.1232 398.778L124.252 383.835C127.13 383.355 129.25 380.844 129.25 377.914V371.993C129.25 368.66 126.573 365.978 123.262 365.978Z" fill="#E38874"/>
<path d="M-58.8955 365.901H127.177C128.322 365.901 129.266 366.831 129.266 367.994V373.652C129.266 374.799 128.337 375.744 127.177 375.744H-58.8955C-60.0406 375.744 -60.9845 374.814 -60.9845 373.652V367.994C-60.9845 366.831 -60.0561 365.901 -58.8955 365.901Z" fill="#70575C"/>
<path d="M25.6996 365.901H127.161C128.306 365.901 129.25 366.831 129.25 367.994V373.652C129.25 374.799 128.322 375.744 127.161 375.744H25.6996C24.5545 375.744 23.6106 374.814 23.6106 373.652V367.994C23.6261 366.831 24.5545 365.901 25.6996 365.901Z" fill="#5D474D"/>
<path d="M127.161 375.729H96.9873C93.026 375.729 90.0705 379.402 90.9215 383.278C90.937 383.324 90.937 383.371 90.9525 383.417C91.6643 386.657 94.7745 388.765 98.0395 388.207L124.252 383.805C127.13 383.324 129.25 380.813 129.25 377.883V373.621C129.25 374.783 128.322 375.729 127.161 375.729Z" fill="#F19A6E"/>
<path d="M124.763 338.976L105.374 319.77L82.3491 296.953C78.6354 293.279 76.0048 288.66 74.7515 283.575L52.33 193.577C50.3029 185.408 43.5254 181.3 36.7169 181.253V365.978H126.465C128.012 365.978 129.266 364.723 129.266 363.173V349.749C129.25 345.703 127.625 341.828 124.763 338.976Z" fill="#5D474D"/>
<path d="M-56.4971 338.976L-37.1085 319.77L-14.0835 296.953C-10.3698 293.279 -7.73927 288.66 -6.48589 283.575L15.9356 193.577C17.9627 185.408 24.7402 181.3 31.5487 181.254V365.979H-58.1992C-59.7466 365.979 -61 364.723 -61 363.173V349.749C-60.9845 345.703 -59.3753 341.828 -56.4971 338.976Z" fill="#70575C"/>
<path d="M10.9067 256.805V365.978H-51.4062C-52.8608 365.978 -54.0522 364.8 -54.0522 363.328V354.926C-54.0522 351.95 -52.8608 349.098 -50.7563 347.021L-11.6386 308.253C-7.92492 304.579 -5.29438 299.96 -4.041 294.875L5.59916 256.139C6.38832 253.085 10.9067 253.643 10.9067 256.805Z" fill="#FEBC74"/>
<path d="M-0.884445 276.523C-2.30803 275.252 -4.56721 275.98 -5.03142 277.825L-6.47048 283.576C-7.73933 288.645 -10.3699 293.279 -14.0681 296.953L-37.0931 319.771L-52.505 335.039C-54.2071 336.729 -54.4547 339.426 -53.0465 341.379C-53.0311 341.41 -53.0001 341.425 -52.9847 341.456C-51.2361 343.844 -47.7545 344.076 -45.6501 341.999L-11.6232 308.284C-7.90954 304.611 -5.279 299.991 -4.02562 294.907L-0.0798073 279.08C0.152298 278.166 -0.126228 277.205 -0.822548 276.585C-0.838024 276.554 -0.868973 276.538 -0.884445 276.523Z" fill="#876C72"/>
<path d="M122.302 354.942V363.343C122.302 364.801 121.126 365.994 119.656 365.994H57.3589V256.821C57.3589 253.659 61.8772 253.101 62.6354 256.17L72.2756 294.907C73.5445 299.976 76.175 304.61 79.8732 308.284L119.006 347.052C121.111 349.114 122.302 351.966 122.302 354.942Z" fill="#E38874"/>
<path d="M119.006 347.036L79.8732 308.268C78.9448 307.354 78.0782 306.362 77.2891 305.323V341.797C77.2891 355.159 88.0898 365.979 101.428 365.979H119.656C121.111 365.979 122.302 364.8 122.302 363.328V354.926C122.302 351.966 121.111 349.113 119.006 347.036Z" fill="#F19A6E"/>
<path d="M-46.6867 359.856C-46.6867 356.88 -45.4952 354.027 -43.3908 351.95L-4.27308 313.182C-0.559368 309.509 2.07117 304.889 3.32454 299.805L10.8912 269.439V256.79C10.8912 253.628 6.37288 253.07 5.61467 256.139L-4.0255 294.876C-5.29435 299.945 -7.92489 304.579 -11.6231 308.253L-50.7408 347.036C-52.8453 349.129 -54.0367 351.981 -54.0367 354.942V363.343C-54.0367 364.801 -52.8607 365.994 -51.3907 365.994H-46.6712V359.856H-46.6867Z" fill="#FCF0D2"/>
<path d="M5.63005 256.154L-4.01011 294.891C-4.66001 297.526 -5.69675 300.037 -7.04297 302.362C-8.00235 304.005 -7.78572 306.083 -6.53234 307.509C-4.50528 309.803 -0.822514 309.384 0.647495 306.703C1.83898 304.548 2.75193 302.238 3.33993 299.82L10.9066 269.454V256.805C10.9066 253.643 6.38826 253.085 5.63005 256.154Z" fill="#FED892"/>
<path d="M114.937 359.856C114.937 356.88 113.745 354.027 111.641 351.95L72.5232 313.182C68.8095 309.509 66.1789 304.889 64.9256 299.805L57.3589 269.439V256.79C57.3589 253.628 61.8772 253.07 62.6354 256.139L72.2756 294.876C73.5445 299.945 76.175 304.579 79.8732 308.253L118.991 347.021C121.095 349.114 122.287 351.966 122.287 354.926V363.328C122.287 364.785 121.111 365.979 119.641 365.979H114.921V359.856H114.937Z" fill="#FEC678"/>
<path d="M62.6354 256.154L72.2756 294.891C72.9255 297.526 73.9622 300.037 75.3085 302.362C76.2678 304.005 76.0512 306.083 74.7978 307.509C72.7708 309.803 69.088 309.384 67.618 306.703C66.4265 304.548 65.5136 302.238 64.9256 299.82L57.3589 269.454V256.805C57.3589 253.643 61.8772 253.085 62.6354 256.154Z" fill="#FCA86A"/>
<path d="M87.4554 351.004C85.7379 351.004 84.3452 349.609 84.3452 347.889V337.472C84.3452 335.752 85.7379 334.356 87.4554 334.356C89.173 334.356 90.5657 335.752 90.5657 337.472V347.889C90.5657 349.609 89.173 351.004 87.4554 351.004Z" fill="#E38874"/>
<path d="M1.62231 339.271C-0.0952777 339.271 -1.48792 337.875 -1.48792 336.155V325.738C-1.48792 324.018 -0.0952777 322.623 1.62231 322.623C3.3399 322.623 4.73254 324.018 4.73254 325.738V336.155C4.73254 337.875 3.3399 339.271 1.62231 339.271Z" fill="#F19A6E"/>
<path d="M57.3589 364.77H10.9066V215.077C10.9066 198.661 15.5797 182.571 24.3688 168.714L28.1908 162.668C30.9606 158.312 37.3049 158.312 40.0747 162.668L43.8967 168.714C52.6858 182.571 57.3589 198.646 57.3589 215.077V364.77Z" fill="#FED892"/>
<path d="M57.359 271.299V215.077C57.359 207.683 56.4151 200.367 54.5737 193.283C54.5427 193.174 54.5118 193.066 54.4963 192.957C51.5253 181.843 35.1696 183.998 35.1696 195.515V271.299H57.359Z" fill="#FEBC74"/>
<path d="M24.6628 351.005V215.077C24.6628 203.59 27.3707 192.352 32.5235 182.184C33.1734 180.913 33.4055 179.455 33.1889 178.045C33.1734 177.983 33.1734 177.921 33.1579 177.843C32.1212 171.333 23.4094 169.907 20.3611 175.751C20.2837 175.906 20.2064 176.045 20.1445 176.169C14.0942 188.198 10.9066 201.529 10.9066 215.077V364.769H34.4422C33.715 360.197 33.0032 355.593 32.3378 350.989H24.6628V351.005Z" fill="#FCF0D2"/>
<path d="M38.7904 205.745H29.4752C26.3495 205.745 23.8118 203.203 23.8118 200.072C23.8118 196.941 26.3495 194.398 29.4752 194.398H38.7904C41.9161 194.398 44.4538 196.941 44.4538 200.072C44.4538 203.203 41.9161 205.745 38.7904 205.745Z" fill="#644D52"/>
<path d="M38.9296 180.943H29.3359C28.7015 180.943 28.2063 180.432 28.2063 179.812V170.728C28.2063 170.093 28.7169 169.597 29.3359 169.597H38.9296C39.5641 169.597 40.0592 170.108 40.0592 170.728V179.812C40.0592 180.432 39.5486 180.943 38.9296 180.943Z" fill="#81676D"/>
<path d="M24.8795 178.324H43.3861C46.976 178.324 50.21 180.51 51.5098 183.843C49.4828 178.588 46.9451 173.519 43.8967 168.714L40.0747 162.668C37.3049 158.312 30.9607 158.312 28.1909 162.668L24.3688 168.714C21.3205 173.519 18.7828 178.588 16.7557 183.843C18.0555 180.51 21.2896 178.324 24.8795 178.324Z" fill="#81676D"/>
<path d="M32.3998 159.63C32.4463 159.615 32.4928 159.615 32.5238 159.599C32.4773 159.599 32.4463 159.615 32.3998 159.63Z" fill="#644D52"/>
<path d="M33.2043 159.474C33.2508 159.474 33.2974 159.459 33.3439 159.459C33.3129 159.459 33.2663 159.459 33.2043 159.474Z" fill="#644D52"/>
<path d="M31.5642 159.893C31.6107 159.877 31.6572 159.862 31.7037 159.846C31.6572 159.862 31.6107 159.877 31.5642 159.893Z" fill="#644D52"/>
<path d="M29.4133 161.226C29.3823 161.257 29.3513 161.273 29.3358 161.304C29.3668 161.273 29.3823 161.242 29.4133 161.226Z" fill="#644D52"/>
<path d="M28.7169 161.955C28.7324 161.94 28.7479 161.909 28.7634 161.893C28.7479 161.909 28.7324 161.94 28.7169 161.955Z" fill="#644D52"/>
<path d="M43.8966 168.713L40.0746 162.668C38.8212 160.684 36.8251 159.614 34.7671 159.428C36.2526 159.614 37.0108 161.35 36.1907 162.637L36.1752 162.668L32.3532 168.713C32.3377 168.744 32.3068 168.775 32.2913 168.806C29.6762 172.929 32.6936 178.324 37.5679 178.324H43.386C46.9759 178.324 50.2099 180.509 51.5097 183.842C49.4827 178.587 46.945 173.518 43.8966 168.713Z" fill="#644D52"/>
<path d="M30.7749 160.265C30.8214 160.249 30.8524 160.218 30.8989 160.203C30.8524 160.218 30.8059 160.234 30.7749 160.265Z" fill="#644D52"/>
<path d="M30.0167 160.73C30.0477 160.699 30.0942 160.684 30.1252 160.653C30.0942 160.684 30.0632 160.699 30.0167 160.73Z" fill="#644D52"/>
<path d="M34.1328 201.405C21.305 201.405 10.9066 211.821 10.9066 224.672V368.924H57.3589V224.672C57.3589 211.821 46.9605 201.405 34.1328 201.405Z" fill="#FED892"/>
<path d="M46.5429 219.154C40.57 219.154 35.7267 224.005 35.7267 229.989V368.908H57.359V229.989C57.359 224.005 52.5157 219.154 46.5429 219.154Z" fill="#FEBC74"/>
<path d="M24.5235 359.608V224.904C24.5235 219.774 28.4384 215.371 33.5602 215.077C34.7208 215.015 35.8349 215.154 36.8716 215.464C39.2391 216.177 41.7923 215.464 43.5408 213.697C43.5718 213.666 43.6027 213.635 43.6337 213.604C47.2081 210.008 45.7381 203.901 40.8948 202.428C38.7594 201.777 36.4848 201.42 34.1328 201.42C21.305 201.42 10.9066 211.837 10.9066 224.687V359.623H24.5235V359.608Z" fill="#FCF0D2"/>
<path d="M31.6571 229.151H28.5159C27.7422 229.151 27.1078 228.516 27.1078 227.741V224.284C27.1078 223.509 27.7422 222.874 28.5159 222.874H31.6571C32.4308 222.874 33.0652 223.509 33.0652 224.284V227.741C33.0652 228.531 32.4308 229.151 31.6571 229.151Z" fill="#644D52"/>
<path d="M36.8407 229.151H39.9819C40.7556 229.151 41.39 228.516 41.39 227.741V224.284C41.39 223.509 40.7556 222.874 39.9819 222.874H36.8407C36.067 222.874 35.4326 223.509 35.4326 224.284V227.741C35.4326 228.531 36.067 229.151 36.8407 229.151Z" fill="#644D52"/>
<path d="M57.3589 308.858H10.9066V311.772H57.3589V308.858Z" fill="#FEBC74"/>
<path d="M57.3589 257.643H10.9066V260.557H57.3589V257.643Z" fill="#FEBC74"/>
<path d="M57.3589 311.772H34.5196C33.715 311.772 33.0651 311.121 33.0651 310.315C33.0651 309.509 33.715 308.858 34.5196 308.858H57.3589V311.772Z" fill="#F19A6E"/>
<path d="M57.3589 260.557H34.5196C33.715 260.557 33.0651 259.906 33.0651 259.1C33.0651 258.294 33.715 257.643 34.5196 257.643H57.3589V260.557Z" fill="#F19A6E"/>
<path d="M54.0629 324.095C52.2525 324.095 50.7825 322.623 50.7825 320.809V267.873C50.7825 266.06 52.2525 264.587 54.0629 264.587C55.8733 264.587 57.3433 266.06 57.3433 267.873V320.809C57.3588 322.623 55.8888 324.095 54.0629 324.095Z" fill="#FED892"/>
<path d="M54.0629 344.773C52.2525 344.773 50.7825 343.301 50.7825 341.487V337.659C50.7825 335.845 52.2525 334.372 54.0629 334.372C55.8733 334.372 57.3433 335.845 57.3433 337.659V341.487C57.3588 343.301 55.8888 344.773 54.0629 344.773Z" fill="#FED892"/>
<path d="M18.1791 245.288H16.3687C15.595 245.288 14.9761 244.668 14.9761 243.893C14.9761 243.118 15.595 242.498 16.3687 242.498H18.1791C18.9528 242.498 19.5718 243.118 19.5718 243.893C19.5718 244.668 18.9528 245.288 18.1791 245.288Z" fill="#EF976F"/>
<path d="M25.6376 245.288H23.8272C23.0535 245.288 22.4346 244.668 22.4346 243.893C22.4346 243.118 23.0535 242.498 23.8272 242.498H25.6376C26.4113 242.498 27.0303 243.118 27.0303 243.893C27.0303 244.668 26.4113 245.288 25.6376 245.288Z" fill="#EF976F"/>
<path d="M50.0709 245.288H51.8813C52.655 245.288 53.2739 244.668 53.2739 243.893C53.2739 243.118 52.655 242.498 51.8813 242.498H50.0709C49.2972 242.498 48.6782 243.118 48.6782 243.893C48.6782 244.668 49.3126 245.288 50.0709 245.288Z" fill="#D47776"/>
<path d="M42.6279 245.288H44.4383C45.212 245.288 45.8309 244.668 45.8309 243.893C45.8309 243.118 45.212 242.498 44.4383 242.498H42.6279C41.8542 242.498 41.2352 243.118 41.2352 243.893C41.2352 244.668 41.8542 245.288 42.6279 245.288Z" fill="#D47776"/>
<path d="M18.1791 330.946H16.3687C15.595 330.946 14.9761 330.326 14.9761 329.551C14.9761 328.776 15.595 328.156 16.3687 328.156H18.1791C18.9528 328.156 19.5718 328.776 19.5718 329.551C19.5718 330.326 18.9528 330.946 18.1791 330.946Z" fill="#EF976F"/>
<path d="M25.6376 330.946H23.8272C23.0535 330.946 22.4346 330.326 22.4346 329.551C22.4346 328.776 23.0535 328.156 23.8272 328.156H25.6376C26.4113 328.156 27.0303 328.776 27.0303 329.551C27.0303 330.326 26.4113 330.946 25.6376 330.946Z" fill="#EF976F"/>
<path d="M50.0709 330.946H51.8813C52.655 330.946 53.2739 330.326 53.2739 329.551C53.2739 328.776 52.655 328.156 51.8813 328.156H50.0709C49.2972 328.156 48.6782 328.776 48.6782 329.551C48.6782 330.326 49.3126 330.946 50.0709 330.946Z" fill="#D47776"/>
<path d="M42.6279 330.946H44.4383C45.212 330.946 45.8309 330.326 45.8309 329.551C45.8309 328.776 45.212 328.156 44.4383 328.156H42.6279C41.8542 328.156 41.2352 328.776 41.2352 329.551C41.2352 330.326 41.8542 330.946 42.6279 330.946Z" fill="#D47776"/>
<path d="M18.1791 278.228H16.3687C15.595 278.228 14.9761 277.608 14.9761 276.833C14.9761 276.058 15.595 275.438 16.3687 275.438H18.1791C18.9528 275.438 19.5718 276.058 19.5718 276.833C19.5718 277.608 18.9528 278.228 18.1791 278.228Z" fill="#EF976F"/>
<path d="M25.6376 278.228H23.8272C23.0535 278.228 22.4346 277.608 22.4346 276.833C22.4346 276.058 23.0535 275.438 23.8272 275.438H25.6376C26.4113 275.438 27.0303 276.058 27.0303 276.833C27.0303 277.608 26.4113 278.228 25.6376 278.228Z" fill="#EF976F"/>
<path d="M50.0709 278.228H51.8813C52.655 278.228 53.2739 277.608 53.2739 276.833C53.2739 276.058 52.655 275.438 51.8813 275.438H50.0709C49.2972 275.438 48.6782 276.058 48.6782 276.833C48.6782 277.608 49.3126 278.228 50.0709 278.228Z" fill="#D47776"/>
<path d="M42.6279 278.228H44.4383C45.212 278.228 45.8309 277.608 45.8309 276.833C45.8309 276.058 45.212 275.438 44.4383 275.438H42.6279C41.8542 275.438 41.2352 276.058 41.2352 276.833C41.2352 277.608 41.8542 278.228 42.6279 278.228Z" fill="#D47776"/>
<path d="M18.1791 290.287H16.3687C15.595 290.287 14.9761 289.667 14.9761 288.892C14.9761 288.117 15.595 287.497 16.3687 287.497H18.1791C18.9528 287.497 19.5718 288.117 19.5718 288.892C19.5718 289.667 18.9528 290.287 18.1791 290.287Z" fill="#EF976F"/>
<path d="M25.6376 290.287H23.8272C23.0535 290.287 22.4346 289.667 22.4346 288.892C22.4346 288.117 23.0535 287.497 23.8272 287.497H25.6376C26.4113 287.497 27.0303 288.117 27.0303 288.892C27.0303 289.667 26.4113 290.287 25.6376 290.287Z" fill="#EF976F"/>
<path d="M50.0709 290.287H51.8813C52.655 290.287 53.2739 289.667 53.2739 288.892C53.2739 288.117 52.655 287.497 51.8813 287.497H50.0709C49.2972 287.497 48.6782 288.117 48.6782 288.892C48.6782 289.667 49.3126 290.287 50.0709 290.287Z" fill="#D47776"/>
<path d="M42.6279 290.287H44.4383C45.212 290.287 45.8309 289.667 45.8309 288.892C45.8309 288.117 45.212 287.497 44.4383 287.497H42.6279C41.8542 287.497 41.2352 288.117 41.2352 288.892C41.2352 289.667 41.8542 290.287 42.6279 290.287Z" fill="#D47776"/>
<path d="M9.43661 412.884H32.6628V401.243C32.6628 394.81 27.4636 389.602 21.0419 389.602C14.6203 389.602 9.42114 394.81 9.42114 401.243V412.884H9.43661Z" fill="#70575C"/>
<path d="M17.0652 406.979H13.7229C12.8563 406.979 12.1445 406.266 12.1445 405.398C12.1445 404.529 12.8563 403.816 13.7229 403.816H17.0652C17.9317 403.816 18.6435 404.529 18.6435 405.398C18.6435 406.266 17.9317 406.979 17.0652 406.979Z" fill="#AF979F"/>
<path d="M16.8176 401.833H14.7441C13.8776 401.833 13.1658 401.12 13.1658 400.252C13.1658 399.383 13.8776 398.67 14.7441 398.67H16.8176C17.6841 398.67 18.3959 399.383 18.3959 400.252C18.3959 401.135 17.6841 401.833 16.8176 401.833Z" fill="#AF979F"/>
<path d="M59.4479 412.884H36.2063V401.243C36.2063 394.81 41.4055 389.602 47.8271 389.602C54.2487 389.602 59.4479 394.81 59.4479 401.243V412.884Z" fill="#5D474D"/>
<path d="M9.56043 412.885H32.539C33.6067 412.885 34.4577 412.063 34.4577 411.056C34.4577 410.048 33.5912 409.227 32.539 409.227H9.56043C8.49274 409.227 7.64168 410.048 7.64168 411.056C7.62621 412.063 8.49274 412.885 9.56043 412.885Z" fill="#FEC678"/>
<path d="M59.3241 412.885H36.3455C35.2778 412.885 34.4268 412.063 34.4268 411.056C34.4268 410.048 35.2933 409.227 36.3455 409.227H59.3241C60.3918 409.227 61.2428 410.048 61.2428 411.056C61.2428 412.063 60.3763 412.885 59.3241 412.885Z" fill="#FEC678"/>
<path d="M12.9337 373.729H32.1057C33.2198 373.729 34.1328 372.815 34.1328 371.698V351.547C34.1328 350.431 33.2198 349.517 32.1057 349.517H12.9337C11.8196 349.517 10.9066 350.431 10.9066 351.547V371.698C10.9066 372.815 11.8041 373.729 12.9337 373.729Z" fill="#70575C"/>
<path d="M55.3319 373.729H36.1444C35.0303 373.729 34.1173 372.815 34.1173 371.698V351.547C34.1173 350.431 35.0303 349.517 36.1444 349.517H55.3319C56.446 349.517 57.3589 350.431 57.3589 351.547V371.698C57.3589 372.815 56.446 373.729 55.3319 373.729Z" fill="#644D52"/>
<path d="M19.4017 352.477H25.9161C30.4499 352.477 34.1327 356.166 34.1327 360.708V393.384C34.1327 394.701 33.065 395.771 31.7497 395.771H6.26443C4.94916 395.771 3.88147 394.701 3.88147 393.384V368.024C3.88147 359.437 10.8292 352.477 19.4017 352.477Z" fill="#FEC678"/>
<path d="M26.9993 355.561C28.3146 354.585 27.6028 352.477 25.9626 352.477H25.9161H19.4017C10.8292 352.477 3.88147 359.437 3.88147 368.024V393.384C3.88147 394.701 4.94916 395.771 6.26443 395.771H20.7479V368.024C20.7479 362.924 23.2082 358.398 26.9993 355.561Z" fill="#FDE1AA"/>
<path d="M48.8637 352.477H42.3493C37.8154 352.477 34.1327 356.166 34.1327 360.708V393.384C34.1327 394.701 35.2004 395.771 36.5156 395.771H62.001C63.3162 395.771 64.3839 394.701 64.3839 393.384V368.024C64.3839 359.437 57.4362 352.477 48.8637 352.477Z" fill="#FCA86A"/>
<path d="M41.2663 355.561C39.951 354.585 40.6628 352.477 42.303 352.477H42.3494H48.8639C57.4364 352.477 64.3841 359.437 64.3841 368.024V393.384C64.3841 394.701 63.3164 395.771 62.0011 395.771H47.5177V368.024C47.5177 362.924 45.0573 358.398 41.2663 355.561Z" fill="#FEC678"/>
<path d="M58.736 362.987C58.8443 362.925 58.9526 362.879 59.061 362.817C61.1499 361.701 61.6451 358.864 59.9894 357.174C58.4265 355.562 56.5232 354.291 54.3879 353.485C52.2834 352.679 49.9624 354.028 49.5755 356.26C49.56 356.322 49.5601 356.399 49.5446 356.461C49.2661 358.151 50.2254 359.794 51.8347 360.414C52.9024 360.832 53.8618 361.468 54.6509 362.259C55.7186 363.359 57.3588 363.7 58.736 362.987Z" fill="#FEDEA2"/>
<path d="M10.7519 368.025C10.7519 364.847 12.4694 362.072 15.0226 360.569C16.3998 359.763 17.0342 358.12 16.57 356.6C16.5545 356.569 16.5545 356.554 16.5545 356.523C15.9201 354.461 13.5217 353.485 11.6648 354.57C7.02268 357.252 3.89697 362.289 3.89697 368.04V372.318C3.89697 374.163 5.35151 375.651 7.17741 375.729C7.19289 375.729 7.22383 375.729 7.23931 375.729C9.15806 375.806 10.7673 374.256 10.7673 372.318V368.025H10.7519Z" fill="#FCF0D2"/>
<path d="M7.3476 379.96C7.33212 379.96 7.30118 379.96 7.2857 379.96C5.41337 379.96 3.88147 381.479 3.88147 383.37V383.773C3.88147 385.711 5.49074 387.277 7.42497 387.184C7.44044 387.184 7.47139 387.184 7.48686 387.184C9.31277 387.106 10.7518 385.603 10.7518 383.773V383.37C10.7518 381.479 9.2354 379.96 7.3476 379.96Z" fill="#FCF0D2"/>
<path d="M45.5061 406.979H42.1638C41.2972 406.979 40.5854 406.266 40.5854 405.398C40.5854 404.529 41.2972 403.816 42.1638 403.816H45.5061C46.3726 403.816 47.0844 404.529 47.0844 405.398C47.0844 406.266 46.3726 406.979 45.5061 406.979Z" fill="#876C72"/>
<path d="M44.2681 401.833H42.1947C41.3281 401.833 40.6163 401.12 40.6163 400.252C40.6163 399.383 41.3281 398.67 42.1947 398.67H44.2681C45.1347 398.67 45.8465 399.383 45.8465 400.252C45.8465 401.135 45.1501 401.833 44.2681 401.833Z" fill="#876C72"/>
<path d="M34.1328 416.914C32.3069 416.914 30.8214 415.426 30.8214 413.597V360.119C30.8214 358.29 32.3069 356.802 34.1328 356.802C35.9587 356.802 37.4442 358.29 37.4442 360.119V413.597C37.4442 415.442 35.9587 416.914 34.1328 416.914Z" fill="#FCF0D2"/>
<path d="M120.707 489.338H113.841C105.067 489.338 97.9507 482.22 97.9507 473.444C97.9507 464.669 105.067 457.551 113.841 457.551H120.707C129.481 457.551 136.597 464.669 136.597 473.444C136.597 482.22 129.491 489.338 120.707 489.338Z" fill="#865882"/>
<path d="M156.364 474.039H66.504V492.392H156.364V474.039Z" fill="#865882"/>
<path d="M25.5023 398.833H17.2082C1.67237 398.833 -10.9147 386.232 -10.9147 370.703C-10.9147 355.164 1.68279 342.574 17.2082 342.574H25.5023C41.0381 342.574 53.6252 355.174 53.6252 370.703C53.6356 386.232 41.0381 398.833 25.5023 398.833Z" fill="#574589"/>
<path d="M32.8273 489.067H24.8875C10.0081 489.067 -2.05798 476.998 -2.05798 462.116C-2.05798 447.233 10.0081 435.164 24.8875 435.164H32.8273C47.7067 435.164 59.7728 447.233 59.7728 462.116C59.7728 476.998 47.7067 489.067 32.8273 489.067Z" fill="#574589"/>
<path d="M47.5504 435.852H37.9434C25.669 435.852 15.7181 425.899 15.7181 413.621C15.7181 401.344 25.669 391.391 37.9434 391.391H47.5504C59.8249 391.391 69.7757 401.344 69.7757 413.621C69.7757 425.899 59.8249 435.852 47.5504 435.852Z" fill="#574589"/>
<path d="M-13.1966 372.59H-22.8036C-35.0781 372.59 -45.0289 362.637 -45.0289 350.359C-45.0289 338.082 -35.0781 328.129 -22.8036 328.129H-13.1966C-0.922184 328.129 9.02867 338.082 9.02867 350.359C9.02867 362.637 -0.922184 372.59 -13.1966 372.59Z" fill="#574589"/>
<path d="M86.8641 484.065H78.1324C66.9728 484.065 57.9181 475.018 57.9181 463.846C57.9181 452.684 66.9624 443.627 78.1324 443.627H86.8641C98.0237 443.627 107.078 452.673 107.078 463.846C107.068 475.018 98.0237 484.065 86.8641 484.065Z" fill="#574589"/>
<path d="M136.598 473.09C136.41 464.544 129.054 457.551 120.499 457.551C117.519 457.551 115.102 459.968 115.102 462.949C115.102 463.116 115.102 463.293 115.102 463.46C115.091 466.451 117.519 468.869 120.499 468.869H120.603C123.041 468.869 125.136 470.735 125.282 473.173C125.323 473.913 125.188 474.632 124.917 475.258C124.104 477.134 124.323 479.291 125.584 480.896C125.667 481 125.751 481.104 125.834 481.209C128.356 484.429 133.378 483.877 135.118 480.167C136.118 478.03 136.65 475.622 136.598 473.09Z" fill="#B1697B"/>
<path d="M164.179 499.896H155.447C144.287 499.896 135.233 490.849 135.233 479.677C135.233 468.515 144.277 459.458 155.447 459.458H164.179C175.338 459.458 184.393 468.504 184.393 479.677C184.382 490.849 175.338 499.896 164.179 499.896Z" fill="#865882"/>
<path d="M161.178 485.784H155.447C152.394 485.784 149.914 483.304 149.914 480.25C149.914 477.196 152.394 474.716 155.447 474.716H161.178C164.231 474.716 166.711 477.196 166.711 480.25C166.711 483.304 164.241 485.784 161.178 485.784Z" fill="#574589"/>
<path d="M103.64 488.379H80.8936C74.7981 488.379 69.8591 483.439 69.8591 477.342C69.8591 471.245 74.7981 466.305 80.8936 466.305H103.64C109.735 466.305 114.674 471.245 114.674 477.342C114.674 483.439 109.735 488.379 103.64 488.379Z" fill="#574589"/>
<path d="M144.454 480.25H142.276C140.817 480.25 139.63 479.062 139.63 477.603C139.63 476.144 140.817 474.956 142.276 474.956H144.454C145.913 474.956 147.101 476.144 147.101 477.603C147.101 479.062 145.913 480.25 144.454 480.25Z" fill="#574589"/>
<path d="M36.2033 369.901H-80.3727V489.953H36.2033V369.901Z" fill="#574589"/>
<path d="M72.6619 466.493H38.2247V484.846H72.6619V466.493Z" fill="#574589"/>
<path d="M34.88 379.124H32.7023C31.2435 379.124 30.0557 377.936 30.0557 376.477C30.0557 375.018 31.2435 373.83 32.7023 373.83H34.88C36.3388 373.83 37.5266 375.018 37.5266 376.477C37.5266 377.947 36.3388 379.124 34.88 379.124Z" fill="#865882"/>
<path d="M14.8011 379.124H12.6234C11.1647 379.124 9.97681 377.936 9.97681 376.477C9.97681 375.018 11.1647 373.83 12.6234 373.83H14.8011C16.2599 373.83 17.4477 375.018 17.4477 376.477C17.4477 377.947 16.2599 379.124 14.8011 379.124Z" fill="#47376D"/>
<path d="M31.0664 375.247H27.9926C25.9295 375.247 24.2623 373.58 24.2623 371.516C24.2623 369.452 25.9295 367.785 27.9926 367.785H31.0664C33.1295 367.785 34.7967 369.452 34.7967 371.516C34.8071 373.569 33.1295 375.247 31.0664 375.247Z" fill="#6A4F8A"/>
<path d="M86.9891 467.149H84.8114C83.3527 467.149 82.1648 465.961 82.1648 464.502C82.1648 463.043 83.3527 461.855 84.8114 461.855H86.9891C88.4479 461.855 89.6358 463.043 89.6358 464.502C89.6358 465.961 88.4479 467.149 86.9891 467.149Z" fill="#865882"/>
<path d="M62.6591 470.735H59.6999C57.7201 470.735 56.1155 469.13 56.1155 467.149C56.1155 465.169 57.7201 463.564 59.6999 463.564H62.6591C64.6388 463.564 66.2435 465.169 66.2435 467.149C66.2539 469.13 64.6493 470.735 62.6591 470.735Z" fill="#6A4F8A"/>
<path d="M115.404 450.339H114.549C112.622 450.339 111.059 448.775 111.059 446.847C111.059 444.919 112.622 443.356 114.549 443.356H115.404C117.332 443.356 118.894 444.919 118.894 446.847C118.894 448.775 117.332 450.339 115.404 450.339Z" fill="#614A8A"/>
<path d="M48.1653 414.08H45.029C43.0492 414.08 41.4446 412.475 41.4446 410.495C41.4446 408.515 43.0492 406.91 45.029 406.91H48.1653C50.1451 406.91 51.7497 408.515 51.7497 410.495C51.7497 412.475 50.1451 414.08 48.1653 414.08Z" fill="#865882"/>
<path d="M86.8641 443.637H78.1324C75.2774 443.637 72.5578 444.231 70.0884 445.305C66.7436 446.753 65.66 450.964 67.8794 453.861C67.9002 453.893 67.9211 453.924 67.9523 453.955C69.5257 455.987 72.2661 456.696 74.6314 455.685C75.7046 455.227 76.8924 454.966 78.1324 454.966H86.7078C91.6259 454.966 95.7417 458.895 95.7626 463.814C95.7626 463.929 95.7626 464.044 95.7626 464.158C95.6792 466.795 97.4089 469.14 99.9826 469.724L100.191 469.765C103.629 470.537 106.974 468.004 107.078 464.471C107.089 464.273 107.089 464.065 107.089 463.867C107.068 452.694 98.0237 443.637 86.8641 443.637Z" fill="#865882"/>
<path d="M31.6916 349.4C31.702 349.359 31.702 349.317 31.7124 349.286C32.2021 345.909 29.7118 342.845 26.315 342.636C23.908 342.491 21.3656 342.47 19.1358 342.511C15.8432 342.574 13.2591 345.357 13.4466 348.65C13.4466 348.713 13.457 348.765 13.457 348.827C13.6342 351.954 16.2495 354.372 19.3754 354.299C21.3239 354.247 23.5017 354.278 25.5231 354.424C28.5761 354.632 31.2539 352.444 31.6916 349.4Z" fill="#865882"/>
<path d="M55.3131 447.254C50.4887 439.969 42.2155 435.154 32.8273 435.154C32.0145 435.154 31.2643 435.154 30.5766 435.154C27.4298 435.143 24.8978 437.749 24.9708 440.896C24.9708 440.938 24.9708 440.969 24.9708 441.011C25.0437 444.033 27.5132 446.451 30.5349 446.472C31.233 446.472 31.9937 446.482 32.8168 446.482C38.2351 446.482 43.0178 449.255 45.8207 453.455C47.4045 455.831 50.4991 456.675 53.0416 455.373L53.1666 455.31C56.1466 453.799 57.1469 450.036 55.3131 447.254Z" fill="#865882"/>
<path d="M60.3042 402.313L60.075 402.438C57.6263 403.804 56.5218 406.805 57.6159 409.39C58.1682 410.693 58.4703 412.121 58.4703 413.611C58.4703 417.488 56.4385 420.906 53.3751 422.835C51.2807 424.158 50.2908 426.691 50.9994 429.057C51.0306 429.171 51.0723 429.296 51.1036 429.411C52.1247 432.861 56.1467 434.424 59.2101 432.538C65.5453 428.619 69.7757 421.605 69.7757 413.611C69.7757 410.536 69.1506 407.608 68.0252 404.94C66.7436 401.949 63.1488 400.729 60.3042 402.313Z" fill="#865882"/>
<path d="M44.8309 391.37C44.7476 391.37 44.6642 391.37 44.5809 391.37C50.145 386.232 53.6356 378.874 53.6356 370.693C53.6356 368.556 53.396 366.472 52.9479 364.471C52.156 360.969 48.3737 359.041 45.0393 360.375C45.0081 360.385 44.9872 360.396 44.956 360.406C42.2885 361.469 40.8193 364.325 41.4445 367.128C41.705 368.275 41.8405 369.473 41.8405 370.693C41.8405 376.529 38.7562 381.667 34.1403 384.544C30.3163 386.93 28.3365 391.412 29.2639 395.831C30.1183 399.885 33.7339 402.72 37.881 402.699C37.9018 402.699 37.9331 402.699 37.9539 402.699C41.1007 402.699 43.2784 402.689 44.8309 402.689C47.6026 402.689 49.9366 400.635 50.3221 397.894C50.3326 397.822 50.343 397.759 50.3534 397.686C50.8015 394.351 48.2069 391.37 44.8309 391.37Z" fill="#865882"/>
<path d="M145.465 471.12C145.506 471.152 145.548 471.183 145.59 471.214C147.278 472.475 149.539 472.673 151.425 471.735C151.487 471.704 151.55 471.673 151.612 471.641C153.967 470.547 155.28 468.015 154.79 465.472C154.78 465.419 154.77 465.378 154.759 465.326C154.071 461.751 150.195 459.823 146.903 461.355C146.694 461.449 146.496 461.553 146.288 461.657C142.599 463.543 142.141 468.65 145.465 471.12Z" fill="#B1697B"/>
<path d="M5.22549 469.046H-18.8233C-27.0132 469.046 -33.6401 462.407 -33.6401 454.226C-33.6401 446.034 -27.0028 439.406 -18.8233 439.406H5.22549C13.4154 439.406 20.0424 446.045 20.0424 454.226C20.0528 462.407 13.4154 469.046 5.22549 469.046Z" fill="#47376D"/>
<path d="M6.74675 425.231H-25.2835C-33.2129 425.231 -39.6523 418.801 -39.6523 410.859C-39.6523 402.928 -33.2234 396.487 -25.2835 396.487H6.74675C14.6762 396.487 21.1156 402.918 21.1156 410.859C21.1051 418.801 14.6762 425.231 6.74675 425.231Z" fill="#47376D"/>
<path d="M38.6833 490.349H34.3487C27.6384 490.349 22.2097 484.909 22.2097 478.207C22.2097 471.495 27.6488 466.065 34.3487 466.065H38.6833C45.3936 466.065 50.8223 471.506 50.8223 478.207C50.8223 484.909 45.3832 490.349 38.6833 490.349Z" fill="#47376D"/>
<path d="M55.8654 486.92H48.4153C44.7684 486.92 41.8196 483.96 41.8196 480.323C41.8196 476.675 44.7788 473.726 48.4153 473.726H55.8654C59.5123 473.726 62.4611 476.686 62.4611 480.323C62.4611 483.971 59.5123 486.92 55.8654 486.92Z" fill="#47376D"/>
<path d="M27.6696 469.359L22.3972 474.632C19.8235 477.207 15.6452 477.207 13.0611 474.632C10.4874 472.058 10.4874 467.879 13.0611 465.294L18.3335 460.021C20.9072 457.446 25.0855 457.446 27.6696 460.021C30.2537 462.595 30.2537 466.774 27.6696 469.359Z" fill="#47376D"/>
<path d="M26.0962 431.412H18.6461C14.9992 431.412 12.0504 428.452 12.0504 424.815C12.0504 421.167 15.0096 418.218 18.6461 418.218H26.0962C29.7431 418.218 32.6919 421.177 32.6919 424.815C32.6919 428.462 29.7431 431.412 26.0962 431.412Z" fill="#47376D"/>
<path d="M8.62221 370.651H1.17211C-2.4748 370.651 -5.42358 367.691 -5.42358 364.054C-5.42358 360.406 -2.46438 357.457 1.17211 357.457H8.62221C12.2691 357.457 15.2179 360.417 15.2179 364.054C15.2283 367.691 12.2691 370.651 8.62221 370.651Z" fill="#47376D"/>
<path d="M86.9162 485.034H79.4661C75.8191 485.034 72.8704 482.074 72.8704 478.437C72.8704 474.789 75.8296 471.839 79.4661 471.839H86.9162C90.5631 471.839 93.5119 474.799 93.5119 478.437C93.5223 482.084 90.5631 485.034 86.9162 485.034Z" fill="#47376D"/>
<path d="M15.9578 500.021H-38.1727C-47.4567 500.021 -54.9797 492.496 -54.9797 483.21C-54.9797 473.924 -47.4567 466.399 -38.1727 466.399H15.9578C25.2418 466.399 32.7649 473.924 32.7649 483.21C32.7544 492.496 25.2314 500.021 15.9578 500.021Z" fill="#47376D"/>
<path d="M15.2806 474.664H12.1442C10.1645 474.664 8.55981 473.059 8.55981 471.079C8.55981 469.098 10.1645 467.493 12.1442 467.493H15.2806C17.2603 467.493 18.865 469.098 18.865 471.079C18.865 473.059 17.2603 474.664 15.2806 474.664Z" fill="#574589"/>
<path d="M4.5274 413.027H2.25588C0.828378 413.027 -0.338623 411.871 -0.338623 410.432C-0.338623 409.004 0.817958 407.837 2.25588 407.837H4.5274C5.9549 407.837 7.1219 408.994 7.1219 410.432C7.11148 411.871 5.9549 413.027 4.5274 413.027Z" fill="#574589"/>
<path d="M-6.32992 487.983H-15.3847C-19.8131 487.983 -23.3975 484.398 -23.3975 479.969C-23.3975 475.539 -19.8131 471.954 -15.3847 471.954H-6.32992C-1.90154 471.954 1.68286 475.539 1.68286 479.969C1.68286 484.388 -1.90154 487.983 -6.32992 487.983Z" fill="#3F3063"/>
<path d="M47.6964 374.288C47.2796 376.884 46.4148 379.374 45.1435 381.647C44.4454 382.897 44.7997 384.492 45.9771 385.305C45.9875 385.315 46.0084 385.326 46.0292 385.336C47.3942 386.274 49.2593 385.857 50.0721 384.419C51.6559 381.594 52.7604 378.468 53.2918 375.143C53.5315 373.632 52.4895 372.194 50.9786 371.954C50.9578 371.954 50.9369 371.944 50.9161 371.944C49.374 371.693 47.936 372.746 47.6964 374.288Z" fill="#B1697B"/>
<path d="M43.2889 437.269C42.8095 437.071 42.2781 437.061 41.7884 437.248C40.5276 437.738 39.4856 438.52 39.1626 439.906C39.1626 439.916 39.1626 439.916 39.1626 439.927C38.9334 440.896 39.4857 441.855 40.413 442.209C43.1847 443.262 45.7271 444.898 47.884 447.056C48.8843 448.056 49.7803 449.14 50.5514 450.297C50.9474 450.891 51.6351 451.214 52.3436 451.152C53.0521 451.089 53.7503 450.974 54.4484 450.818C55.7821 450.505 56.4177 448.994 55.6988 447.827C52.75 443.147 48.4258 439.437 43.2889 437.269Z" fill="#B1697B"/>
<path d="M59.7727 424.794C59.0746 425.555 58.314 426.253 57.4804 426.868C56.4592 427.639 56.0841 429.015 56.5843 430.193C56.5947 430.214 56.5947 430.234 56.6051 430.245C57.3241 431.912 59.3976 432.496 60.8564 431.412C61.9817 430.568 63.0237 429.63 63.9615 428.588C65.0555 427.389 64.8784 425.513 63.6072 424.513C63.5968 424.502 63.5759 424.492 63.5655 424.481C62.4089 423.575 60.7522 423.721 59.7727 424.794Z" fill="#B1697B"/>
<path d="M65.3473 406.847C65.3265 406.858 65.316 406.868 65.2952 406.868C64.0865 407.41 63.4405 408.734 63.7218 410.026C63.9823 411.183 64.1178 412.381 64.1178 413.621C64.1178 414.455 64.0553 415.279 63.9302 416.081C63.7218 417.478 64.5971 418.801 65.9517 419.187C65.9725 419.187 65.9933 419.197 66.0038 419.197C67.6292 419.666 69.2755 418.572 69.5256 416.894C69.6819 415.821 69.7653 414.726 69.7653 413.611C69.7653 411.944 69.5777 410.318 69.2339 408.754C68.8587 407.035 66.9624 406.107 65.3473 406.847Z" fill="#B1697B"/>
<path d="M159.25 462.314C159.188 463.856 160.448 465.127 161.99 465.127H164.179C167.867 465.127 171.233 466.503 173.806 468.775C174.89 469.734 176.547 469.724 177.568 468.692C177.63 468.629 177.703 468.556 177.766 468.494C178.818 467.368 178.756 465.596 177.61 464.575C174.036 461.396 169.336 459.468 164.189 459.468H162.011C160.552 459.468 159.344 460.615 159.271 462.074C159.25 462.157 159.25 462.23 159.25 462.314Z" fill="#D47776"/>
<path d="M122.562 460.406C122.562 460.427 122.552 460.448 122.552 460.459C122.166 461.865 122.906 463.325 124.261 463.835C125.573 464.325 126.761 465.076 127.762 466.013C129.022 467.212 131.033 467.024 132.023 465.597L132.055 465.544C132.836 464.419 132.69 462.887 131.7 461.938C130.148 460.448 128.283 459.27 126.22 458.51C124.688 457.968 122.989 458.843 122.562 460.406Z" fill="#D47776"/>
<path d="M73.4227 447.222C73.7353 448.608 75.0377 449.567 76.4548 449.4C77.0071 449.338 77.5697 449.307 78.1324 449.307H79.9037C81.2687 449.307 82.4357 448.327 82.665 446.983C82.6754 446.951 82.6754 446.91 82.6858 446.878C82.9567 445.18 81.6334 443.647 79.9142 443.647H78.1324C77.3613 443.647 76.5903 443.689 75.8401 443.773C74.1833 443.96 73.058 445.534 73.4123 447.17C73.4123 447.181 73.4227 447.201 73.4227 447.222Z" fill="#B1697B"/>
<path d="M89.2294 446.983C89.2294 447.004 89.2294 447.024 89.2294 447.035C89.146 448.327 89.9588 449.526 91.1987 449.891C94.3455 450.828 97.0546 452.809 98.9198 455.425C99.795 456.654 101.483 456.988 102.744 456.165L102.796 456.133C104.119 455.268 104.473 453.476 103.567 452.183C100.983 448.525 97.2109 445.763 92.8138 444.461C91.0841 443.96 89.344 445.201 89.2294 446.983Z" fill="#B1697B"/>
</g>
</svg>
