<svg width="246" height="640" viewBox="0 0 246 640" fill="none" xmlns="http://www.w3.org/2000/svg">
<path d="M238.618 626.772L146.508 630.199L159.892 549.291C162.573 533.158 176.497 521.353 192.823 521.353C209.148 521.353 223.072 533.178 225.753 549.291L238.618 626.772Z" fill="#574589"/>
<path d="M225.613 640H160.032L172.576 521.353H213.069L225.613 640Z" fill="#D47776"/>
<path d="M192.823 600.758C181.099 600.758 171.956 590.577 173.196 578.893L179.278 521.353H206.387L212.469 578.893C213.69 590.577 204.547 600.758 192.823 600.758Z" fill="#FEC678"/>
<path d="M192.703 576.789C187.221 576.789 182.779 572.339 182.779 566.848V521.333H202.606V566.848C202.606 572.339 198.164 576.789 192.703 576.789Z" fill="#FCF0D2"/>
<path d="M182.779 586.689C180.979 586.689 179.518 585.226 179.518 583.422V580.416C179.518 578.612 180.979 577.149 182.779 577.149C184.58 577.149 186.04 578.612 186.04 580.416V583.422C186.04 585.226 184.58 586.689 182.779 586.689Z" fill="#FCF0D2"/>
<path d="M193.543 593.563C191.742 593.563 190.282 592.1 190.282 590.296V587.29C190.282 585.486 191.742 584.023 193.543 584.023C195.343 584.023 196.804 585.486 196.804 587.29V590.296C196.804 592.1 195.343 593.563 193.543 593.563Z" fill="#FCF0D2"/>
<path d="M206.587 581.679C205.347 581.679 204.366 580.676 204.366 579.454V577.39C204.366 576.147 205.367 575.165 206.587 575.165C207.827 575.165 208.808 576.167 208.808 577.39V579.454C208.808 580.676 207.827 581.679 206.587 581.679Z" fill="#FCF0D2"/>
<path d="M172.136 604.005C170.896 604.005 169.915 603.003 169.915 601.781V599.716C169.915 598.474 170.916 597.492 172.136 597.492C173.376 597.492 174.357 598.494 174.357 599.716V601.781C174.377 603.023 173.376 604.005 172.136 604.005Z" fill="#FEC678"/>
<path d="M7.38232 626.772H98.9921L86.1079 549.291C83.427 533.158 69.5025 521.353 53.1772 521.353C36.8519 521.353 22.9274 533.178 20.2465 549.291L7.38232 626.772Z" fill="#574589"/>
<path d="M20.3867 640H85.968L73.424 521.353H32.9308L20.3867 640Z" fill="#D47776"/>
<path d="M53.1772 600.758C64.901 600.758 74.044 590.577 72.8036 578.893L66.7216 521.353H39.6328L33.5508 578.893C32.3104 590.577 41.4534 600.758 53.1772 600.758Z" fill="#FEC678"/>
<path d="M53.2973 576.789C58.7791 576.789 63.2206 572.339 63.2206 566.848V521.333H43.3941V566.848C43.3741 572.339 47.8155 576.789 53.2973 576.789Z" fill="#FCF0D2"/>
<path d="M45.2747 587.772C47.0753 587.772 48.5358 586.309 48.5358 584.505V581.499C48.5358 579.695 47.0753 578.232 45.2747 578.232C43.4741 578.232 42.0137 579.695 42.0137 581.499V584.505C42.0137 586.309 43.4741 587.772 45.2747 587.772Z" fill="#FCF0D2"/>
<path d="M35.1314 606.029C36.3718 606.029 37.3521 605.027 37.3521 603.805V601.74C37.3521 600.498 36.3518 599.516 35.1314 599.516C33.891 599.516 32.9106 600.518 32.9106 601.74V603.805C32.9106 605.027 33.911 606.029 35.1314 606.029Z" fill="#FEC678"/>
<path d="M59.9595 595.408C61.7601 595.408 63.2206 593.945 63.2206 592.141V589.135C63.2206 587.331 61.7601 585.868 59.9595 585.868C58.159 585.868 56.6985 587.331 56.6985 589.135V592.141C56.6985 593.945 58.159 595.408 59.9595 595.408Z" fill="#FCF0D2"/>
<path d="M73.844 370.5H172.136V99.5974C172.136 68.4326 160.532 38.3902 139.625 15.3223L128.802 3.39749C125.681 -0.0296321 120.299 -0.0296321 117.198 3.39749L106.375 15.3223C85.4478 38.3902 73.844 68.4326 73.844 99.5974V370.5Z" fill="#F29051"/>
<path d="M172.136 99.5969V370.5H123.06V50.9759C123.06 31.5555 149.029 24.9618 158.151 42.1175C158.612 42.9793 159.072 43.8811 159.532 44.783C159.592 44.9233 159.672 45.0636 159.732 45.2239C167.334 60.9967 171.596 78.3127 172.096 96.0696C172.116 96.5105 172.116 96.9715 172.136 97.4324C172.136 98.1339 172.136 98.8554 172.136 99.5969Z" fill="#E06955"/>
<path opacity="0.6" d="M165.174 58.3712C163.053 52.2786 156.271 49.2723 150.349 51.8176C150.289 51.8377 150.209 51.8777 150.149 51.8978C144.887 54.1825 142.286 60.1549 144.167 65.5662C144.707 67.1094 145.207 68.6726 145.667 70.2359C147.248 75.587 152.549 78.954 158.051 78.012C158.131 77.992 158.191 77.992 158.271 77.972C164.773 76.8897 168.875 70.3161 166.994 63.9829C166.434 62.119 165.814 60.2351 165.174 58.3712Z" fill="#C14F4F"/>
<path d="M160.992 89.6768C154.77 89.6768 149.749 94.8074 149.889 101.04C149.909 102.123 149.929 102.824 149.929 102.824V308.351C157.211 308.231 164.553 308.01 172.156 307.269V103.024C172.156 103.024 172.136 102.042 172.116 100.599C171.996 94.5268 167.054 89.6768 160.992 89.6768Z" fill="#C14F4F"/>
<path d="M94.1907 31.1341C84.5076 46.005 78.0855 62.7799 75.3446 80.3364C74.3443 86.8299 79.0858 92.8023 85.6479 93.143L85.868 93.163C91.5299 93.4637 96.4314 89.3752 97.2917 83.7635C99.5325 69.3135 104.794 55.5449 112.777 43.3195C115.938 38.4694 114.897 31.9759 110.256 28.5087C110.156 28.4285 110.056 28.3483 109.936 28.2682C104.874 24.5003 97.6318 25.8431 94.1907 31.1341Z" fill="#FFB564"/>
<path d="M112.817 43.2598C115.978 38.4298 114.897 31.9563 110.256 28.5092C110.156 28.429 110.056 28.3488 109.936 28.2687C104.874 24.5209 97.6718 25.7635 94.2307 31.0545C93.2904 32.4975 92.3701 33.9605 91.4898 35.4436C87.9286 41.4561 90.8896 49.2122 97.4917 51.4368C97.5718 51.4569 97.6318 51.4769 97.7118 51.517C102.593 53.1604 107.975 51.1963 110.616 46.7671C111.316 45.5846 112.056 44.4222 112.817 43.2598Z" fill="#FFD07D"/>
<path d="M136.944 12.3757L127.541 2.01419C125.101 -0.671395 120.859 -0.671395 118.418 2.01419L109.015 12.3757H136.944Z" fill="#E06955"/>
<path d="M81.3264 98.5752C77.1851 98.5752 73.844 101.922 73.844 106.071V109.839C73.844 113.987 77.1851 117.334 81.3264 117.334C85.4678 117.334 88.8089 113.987 88.8089 109.839V106.071C88.8089 101.922 85.4678 98.5752 81.3264 98.5752Z" fill="#FFB564"/>
<path d="M171.976 131.663H73.844V140.542H171.976V131.663Z" fill="#E06955"/>
<path d="M172.136 131.663H116.898V140.542H172.136V131.663Z" fill="#C14F4F"/>
<path d="M83.48 200.713L83.48 133.554H78.0782L78.0782 200.713H83.48Z" fill="#FFB564"/>
<path d="M95.5422 200.715L95.5422 133.556H90.1405L90.1405 200.715H95.5422Z" fill="#FFB564"/>
<path d="M107.604 200.717L107.604 133.558H102.203L102.203 200.717H107.604Z" fill="#FFB564"/>
<path d="M119.667 200.719L119.667 133.56H114.265L114.265 200.719H119.667Z" fill="#FFB564"/>
<path d="M131.723 133.547H126.321V200.706H131.723V133.547Z" fill="#ED8652"/>
<path d="M143.787 133.547H138.385V200.706H143.787V133.547Z" fill="#ED8652"/>
<path d="M99.1921 332H74.0039V151.565C87.9084 151.565 99.1921 162.868 99.1921 176.797V332Z" fill="#E06955"/>
<path opacity="0.4" d="M99.1921 401.024H74.0039V220.569C87.9084 220.569 99.1921 231.872 99.1921 245.801V401.024Z" fill="#C14F4F"/>
<path d="M171.976 126.593H73.844V134.57H171.976V126.593Z" fill="#FFD07D"/>
<path d="M172.136 134.57H120.879C118.679 134.57 116.898 132.786 116.898 130.582C116.898 128.377 118.679 126.593 120.879 126.593H172.136V134.57Z" fill="#FFB564"/>
<path d="M100.073 134.57H89.8492C87.6485 134.57 85.8679 132.786 85.8679 130.582C85.8679 128.377 87.6485 126.593 89.8492 126.593H100.073C102.273 126.593 104.054 128.377 104.054 130.582C104.054 132.786 102.273 134.57 100.073 134.57Z" fill="#FCF0D2"/>
<path d="M78.0854 200.727V151.846C78.0854 150.363 79.2858 149.14 80.7863 149.14C82.2668 149.14 83.4872 150.343 83.4872 151.846V200.727H78.0854Z" fill="#ED8652"/>
<path d="M90.1494 200.727V158.199C90.1494 156.716 91.3498 155.493 92.8503 155.493C94.3308 155.493 95.5512 156.696 95.5512 158.199V200.707H90.1494V200.727Z" fill="#ED8652"/>
<path d="M172.136 196.479H73.844V204.455H172.136V196.479Z" fill="#FFB564"/>
<path d="M172.156 196.479H116.758V204.455H172.156V196.479Z" fill="#ED8652"/>
<path opacity="0.7" d="M111.736 118.476C108.615 118.476 106.094 115.951 106.094 112.824V93.9252C106.094 90.7987 108.615 88.2734 111.736 88.2734C114.857 88.2734 117.378 90.7987 117.378 93.9252V112.824C117.378 115.951 114.857 118.476 111.736 118.476Z" fill="#E06955"/>
<path d="M50.4364 105.409L35.2915 148.479H71.3432L56.1983 105.409C55.258 102.684 51.3967 102.684 50.4364 105.409Z" fill="#FFD07D"/>
<path d="M71.8433 155.292H34.8313V149.019C34.8313 148.378 35.3515 147.857 35.9917 147.857H70.683C71.3232 147.857 71.8433 148.378 71.8433 149.019V155.292Z" fill="#FFD07D"/>
<path d="M35.9916 147.837H43.6541C48.2556 147.837 51.9768 144.109 51.9768 139.499V112.644C51.9768 110.379 48.8158 109.858 48.0956 112.002C47.7154 113.125 47.2953 114.387 46.7951 115.79L35.4915 147.957C35.6315 147.877 35.8116 147.837 35.9916 147.837Z" fill="#FCF0D2"/>
<path d="M71.8434 155.293H53.6975C51.6369 155.293 49.9763 153.629 49.9763 151.565C49.9763 149.501 51.6369 147.837 53.6975 147.837H70.9431C71.4433 147.837 71.8434 148.238 71.8434 148.739V155.293Z" fill="#FCA86A"/>
<path d="M71.8233 155.292H34.8113V165.534H71.8233V155.292Z" fill="#70575C"/>
<path d="M74.0041 496.743H32.6506V168.46C32.6506 166.035 34.6113 164.071 37.0321 164.071H69.6427C72.0634 164.071 74.0241 166.035 74.0241 168.46V496.743H74.0041Z" fill="#FCA86A"/>
<path d="M44.2344 351.541C37.8523 351.541 32.6707 346.35 32.6707 339.937V183.953C32.6707 177.559 37.8523 172.349 44.2344 172.349C50.6165 172.349 55.8182 177.539 55.8182 183.953V339.957C55.7982 346.35 50.6165 351.541 44.2344 351.541Z" fill="#FED892"/>
<path d="M38.7326 306.948C35.3715 306.948 32.6506 304.222 32.6506 300.855V211.049C32.6506 207.682 35.3715 204.956 38.7326 204.956C42.0937 204.956 44.8146 207.682 44.8146 211.049V300.855C44.8146 304.222 42.0937 306.948 38.7326 306.948Z" fill="#FCF0D2"/>
<path opacity="0.6" d="M70.603 270.051C68.7224 270.051 67.2019 268.528 67.2019 266.644V207.16C67.2019 205.277 68.7224 203.753 70.603 203.753C72.4836 203.753 74.0041 205.277 74.0041 207.16V266.644C74.0041 268.508 72.4836 270.051 70.603 270.051Z" fill="#FFD07D"/>
<path opacity="0.6" d="M70.603 187.199C68.7224 187.199 67.2019 185.676 67.2019 183.792V175.775C67.2019 173.891 68.7224 172.368 70.603 172.368C72.4836 172.368 74.0041 173.891 74.0041 175.775V183.792C74.0041 185.676 72.4836 187.199 70.603 187.199Z" fill="#FFD07D"/>
<path d="M38.7326 332C35.3715 332 32.6506 329.274 32.6506 325.907V320.877C32.6506 317.51 35.3715 314.784 38.7326 314.784C42.0937 314.784 44.8146 317.51 44.8146 320.877V325.907C44.8146 329.274 42.0937 332 38.7326 332Z" fill="#FCF0D2"/>
<path d="M36.712 198.001C34.4712 198.001 32.6506 196.178 32.6506 193.933V187.62C32.6506 185.375 34.4712 183.551 36.712 183.551C38.9527 183.551 40.7733 185.375 40.7733 187.62V193.933C40.7733 196.198 38.9527 198.001 36.712 198.001Z" fill="#FCF0D2"/>
<path d="M56.7584 115.79L63.6407 139.901C64.2209 141.945 63.0405 144.049 61.0198 144.63C58.9992 145.212 56.8785 144.029 56.2983 142.005C56.2383 141.804 56.1982 141.564 56.1782 141.364L53.5574 116.412C53.4574 115.51 54.1176 114.688 55.0179 114.588C55.8181 114.528 56.5384 115.029 56.7584 115.79Z" fill="#FCA86A"/>
<path d="M73.4038 199.164H33.2508C31.8303 199.164 30.6699 198.001 30.6699 196.579C30.6699 195.156 31.8303 193.993 33.2508 193.993H73.3838C74.8043 193.993 75.9646 195.156 75.9646 196.579C75.9646 198.001 74.8243 199.164 73.4038 199.164Z" fill="#70575C"/>
<path d="M73.4038 285.182H33.2508C31.8303 285.182 30.6699 284.02 30.6699 282.597C30.6699 281.174 31.8303 280.012 33.2508 280.012H73.3838C74.8043 280.012 75.9646 281.174 75.9646 282.597C75.9646 284.02 74.8243 285.182 73.4038 285.182Z" fill="#70575C"/>
<path d="M73.4038 227.243H33.2508C31.8303 227.243 30.6699 226.08 30.6699 224.657C30.6699 223.234 31.8303 222.072 33.2508 222.072H73.3838C74.8043 222.072 75.9646 223.234 75.9646 224.657C75.9646 226.08 74.8243 227.243 73.4038 227.243Z" fill="#70575C"/>
<path d="M47.7153 199.164H40.9131C39.4927 199.164 38.3323 198.001 38.3323 196.579C38.3323 195.156 39.4927 193.993 40.9131 193.993H47.7153C49.1358 193.993 50.2962 195.156 50.2962 196.579C50.2962 198.001 49.1358 199.164 47.7153 199.164Z" fill="#AF979F"/>
<path d="M47.7153 285.182H40.9131C39.4927 285.182 38.3323 284.02 38.3323 282.597C38.3323 281.174 39.4927 280.012 40.9131 280.012H47.7153C49.1358 280.012 50.2962 281.174 50.2962 282.597C50.2962 284.02 49.1358 285.182 47.7153 285.182Z" fill="#AF979F"/>
<path d="M47.7153 227.243H40.9131C39.4927 227.243 38.3323 226.08 38.3323 224.657C38.3323 223.234 39.4927 222.072 40.9131 222.072H47.7153C49.1358 222.072 50.2962 223.234 50.2962 224.657C50.2962 226.08 49.1358 227.243 47.7153 227.243Z" fill="#AF979F"/>
<path d="M73.4038 199.164H66.6016C65.1811 199.164 64.0208 198.001 64.0208 196.579C64.0208 195.156 65.1811 193.993 66.6016 193.993H73.4038C74.8243 193.993 75.9846 195.156 75.9846 196.579C75.9646 198.001 74.8243 199.164 73.4038 199.164Z" fill="#564148"/>
<path d="M73.4038 285.182H66.6016C65.1811 285.182 64.0208 284.02 64.0208 282.597C64.0208 281.174 65.1811 280.012 66.6016 280.012H73.4038C74.8243 280.012 75.9846 281.174 75.9846 282.597C75.9646 284.02 74.8243 285.182 73.4038 285.182Z" fill="#564148"/>
<path d="M73.4038 227.243H66.6016C65.1811 227.243 64.0208 226.08 64.0208 224.657C64.0208 223.234 65.1811 222.072 66.6016 222.072H73.4038C74.8243 222.072 75.9846 223.234 75.9846 224.657C75.9646 226.08 74.8243 227.243 73.4038 227.243Z" fill="#564148"/>
<path d="M51.977 130.581C53.0819 130.581 53.9776 129.684 53.9776 128.577C53.9776 127.47 53.0819 126.573 51.977 126.573C50.872 126.573 49.9763 127.47 49.9763 128.577C49.9763 129.684 50.872 130.581 51.977 130.581Z" fill="#876C72"/>
<path d="M58.1989 130.581C59.3038 130.581 60.1995 129.684 60.1995 128.577C60.1995 127.47 59.3038 126.573 58.1989 126.573C57.094 126.573 56.1982 127.47 56.1982 128.577C56.1982 129.684 57.094 130.581 58.1989 130.581Z" fill="#876C72"/>
<path d="M51.977 136.574C53.0819 136.574 53.9776 135.676 53.9776 134.57C53.9776 133.463 53.0819 132.565 51.977 132.565C50.872 132.565 49.9763 133.463 49.9763 134.57C49.9763 135.676 50.872 136.574 51.977 136.574Z" fill="#876C72"/>
<path d="M58.1989 136.574C59.3038 136.574 60.1995 135.676 60.1995 134.57C60.1995 133.463 59.3038 132.565 58.1989 132.565C57.094 132.565 56.1982 133.463 56.1982 134.57C56.1982 135.676 57.094 136.574 58.1989 136.574Z" fill="#876C72"/>
<path d="M213.489 496.743H172.136V168.46C172.136 166.035 174.097 164.071 176.517 164.071H209.108C211.529 164.071 213.489 166.035 213.489 168.46V496.743Z" fill="#FCA86A"/>
<path d="M183.72 291.296C177.338 291.296 172.136 286.105 172.136 279.712V183.953C172.136 177.559 177.318 172.349 183.72 172.349C190.102 172.349 195.284 177.539 195.284 183.953V279.712C195.284 286.105 190.102 291.296 183.72 291.296Z" fill="#FED892"/>
<path d="M172.136 260.151V405.112C172.136 407.798 174.297 409.942 176.958 409.942H213.469V203.453C189.522 211.089 172.136 233.596 172.136 260.151Z" fill="#E18574"/>
<path d="M195.704 105.409L210.849 148.479H174.797L189.942 105.409C190.902 102.684 194.743 102.684 195.704 105.409Z" fill="#FFD07D"/>
<path d="M211.329 155.292H174.317V149.019C174.317 148.378 174.837 147.857 175.477 147.857H210.168C210.809 147.857 211.329 148.378 211.329 149.019V155.292Z" fill="#FFD07D"/>
<path d="M175.477 147.837H183.139C187.741 147.837 191.462 144.109 191.462 139.499V112.644C191.462 110.379 188.301 109.858 187.581 112.002C187.201 113.125 186.781 114.387 186.28 115.79L174.977 147.957C175.137 147.877 175.297 147.837 175.477 147.837Z" fill="#FCF0D2"/>
<path d="M211.329 155.293H193.183C191.122 155.293 189.462 153.629 189.462 151.565C189.462 149.501 191.122 147.837 193.183 147.837H210.428C210.929 147.837 211.329 148.238 211.329 148.739V155.293Z" fill="#FCA86A"/>
<path d="M211.329 155.292H174.317V165.534H211.329V155.292Z" fill="#70575C"/>
<path d="M184.3 226H172.136V209.546C172.136 206.179 174.857 203.453 178.218 203.453C181.579 203.453 184.3 206.179 184.3 209.546V226Z" fill="#FCF0D2"/>
<path d="M210.088 294.302C208.208 294.302 206.687 292.779 206.687 290.895V218.143C206.687 216.259 208.208 214.736 210.088 214.736C211.969 214.736 213.489 216.259 213.489 218.143V290.895C213.489 292.779 211.969 294.302 210.088 294.302Z" fill="#F19A6E"/>
<path d="M210.088 318.512C208.208 318.512 206.687 316.989 206.687 315.105V308.532C206.687 306.648 208.208 305.125 210.088 305.125C211.969 305.125 213.489 306.648 213.489 308.532V315.105C213.489 316.969 211.969 318.512 210.088 318.512Z" fill="#F19A6E"/>
<path d="M176.197 198.001C173.957 198.001 172.136 196.178 172.136 193.933V187.62C172.136 185.375 173.957 183.551 176.197 183.551C178.438 183.551 180.259 185.375 180.259 187.62V193.933C180.259 196.198 178.438 198.001 176.197 198.001Z" fill="#FCF0D2"/>
<path d="M189.782 371.823C184.48 371.823 180.179 367.514 180.179 362.203V312.419C180.179 307.108 184.48 302.799 189.782 302.799C195.084 302.799 199.385 307.108 199.385 312.419V362.203C199.385 367.514 195.084 371.823 189.782 371.823Z" fill="#D47776"/>
<path d="M172.136 260.031V279.431C172.136 285.724 177.018 291.075 183.28 291.296C189.862 291.536 195.284 286.245 195.284 279.712C195.284 208.584 195.304 213.975 195.244 213.053C181.219 223.896 172.176 240.911 172.136 260.031Z" fill="#F19A6E"/>
<path d="M196.264 115.79L203.146 139.901C203.726 141.945 202.546 144.049 200.525 144.63C198.505 145.212 196.384 144.029 195.804 142.005C195.744 141.804 195.704 141.564 195.684 141.364L193.063 116.412C192.963 115.51 193.623 114.688 194.523 114.588C195.303 114.528 196.044 115.029 196.264 115.79Z" fill="#FCA86A"/>
<path d="M212.889 199.164H172.756C171.336 199.164 170.175 198.001 170.175 196.579C170.175 195.156 171.336 193.993 172.756 193.993H212.889C214.31 193.993 215.47 195.156 215.47 196.579C215.47 198.001 214.31 199.164 212.889 199.164Z" fill="#70575C"/>
<path d="M212.889 285.182H172.756C171.336 285.182 170.175 284.02 170.175 282.597C170.175 281.174 171.336 280.012 172.756 280.012H212.889C214.31 280.012 215.47 281.174 215.47 282.597C215.47 284.02 214.31 285.182 212.889 285.182Z" fill="#70575C"/>
<path d="M212.889 227.243H172.756C171.336 227.243 170.175 226.08 170.175 224.657C170.175 223.234 171.336 222.072 172.756 222.072H212.889C214.31 222.072 215.47 223.234 215.47 224.657C215.47 226.08 214.31 227.243 212.889 227.243Z" fill="#70575C"/>
<path d="M187.201 199.164H180.399C178.978 199.164 177.818 198.001 177.818 196.579C177.818 195.156 178.978 193.993 180.399 193.993H187.201C188.621 193.993 189.782 195.156 189.782 196.579C189.782 198.001 188.641 199.164 187.201 199.164Z" fill="#AF979F"/>
<path d="M187.201 227.243H180.399C178.978 227.243 177.818 226.08 177.818 224.657C177.818 223.234 178.978 222.072 180.399 222.072H187.201C188.621 222.072 189.782 223.234 189.782 224.657C189.782 226.08 188.641 227.243 187.201 227.243Z" fill="#9B8289"/>
<path d="M212.889 199.164H206.087C204.666 199.164 203.506 198.001 203.506 196.579C203.506 195.156 204.666 193.993 206.087 193.993H212.889C214.31 193.993 215.47 195.156 215.47 196.579C215.47 198.001 214.31 199.164 212.889 199.164Z" fill="#564148"/>
<path d="M212.889 285.182H206.087C204.666 285.182 203.506 284.02 203.506 282.597C203.506 281.174 204.666 280.012 206.087 280.012H212.889C214.31 280.012 215.47 281.174 215.47 282.597C215.47 284.02 214.31 285.182 212.889 285.182Z" fill="#564148"/>
<path d="M212.889 227.243H206.087C204.666 227.243 203.506 226.08 203.506 224.657C203.506 223.234 204.666 222.072 206.087 222.072H212.889C214.31 222.072 215.47 223.234 215.47 224.657C215.47 226.08 214.31 227.243 212.889 227.243Z" fill="#564148"/>
<path d="M194.183 130.581C195.288 130.581 196.184 129.684 196.184 128.577C196.184 127.47 195.288 126.573 194.183 126.573C193.078 126.573 192.182 127.47 192.182 128.577C192.182 129.684 193.078 130.581 194.183 130.581Z" fill="#876C72"/>
<path d="M185.96 128.577C185.96 129.679 186.861 130.581 187.961 130.581C189.061 130.581 189.962 129.679 189.962 128.577C189.962 127.475 189.061 126.573 187.961 126.573C186.841 126.593 185.96 127.475 185.96 128.577Z" fill="#876C72"/>
<path d="M194.183 136.574C195.288 136.574 196.184 135.676 196.184 134.57C196.184 133.463 195.288 132.565 194.183 132.565C193.078 132.565 192.182 133.463 192.182 134.57C192.182 135.676 193.078 136.574 194.183 136.574Z" fill="#876C72"/>
<path d="M185.96 134.57C185.96 135.672 186.861 136.574 187.961 136.574C189.061 136.574 189.962 135.672 189.962 134.57C189.962 133.467 189.061 132.565 187.961 132.565C186.841 132.585 185.96 133.467 185.96 134.57Z" fill="#876C72"/>
<path d="M212.709 526.003H172.916C170.815 526.003 169.395 523.839 170.235 521.915L176.057 508.647C176.717 507.144 178.198 506.162 179.838 506.162H205.767C207.407 506.162 208.888 507.144 209.548 508.647L215.37 521.915C216.23 523.839 214.81 526.003 212.709 526.003Z" fill="#70575C"/>
<path d="M212.409 519.97H173.216C171.936 519.97 170.755 520.732 170.235 521.914C169.395 523.838 170.795 526.003 172.916 526.003H212.709C214.81 526.003 216.23 523.838 215.39 521.914C214.87 520.732 213.689 519.97 212.409 519.97Z" fill="#9B8289"/>
<path d="M194.243 519.97H184.64C182.899 519.97 181.539 521.453 181.659 523.197C181.659 523.217 181.659 523.237 181.659 523.257C181.779 524.82 183.079 526.023 184.64 526.023H194.243C196.064 526.023 197.444 524.419 197.204 522.616C197.204 522.596 197.204 522.576 197.204 522.556C197.004 521.073 195.744 519.97 194.243 519.97Z" fill="#C4ABB5"/>
<path d="M213.49 496.742H194.423V435.074C194.423 434.353 195.004 433.771 195.724 433.771H212.209C212.929 433.771 213.51 434.353 213.51 435.074V496.742H213.49Z" fill="#D47776"/>
<path d="M219.071 511.011H166.554C163.773 511.011 161.913 508.145 163.033 505.6L170.715 488.084C171.576 486.1 173.536 484.817 175.717 484.817H209.948C212.109 484.817 214.07 486.1 214.95 488.084L222.632 505.6C223.713 508.145 221.852 511.011 219.071 511.011Z" fill="#FCA86A"/>
<path d="M222.592 505.6L214.91 488.084C214.03 486.1 212.069 484.817 209.908 484.817H190.222C192.383 484.817 194.343 486.1 195.224 488.084L201.906 503.335C203.486 506.943 200.845 510.991 196.904 510.991H219.051C221.852 511.011 223.713 508.145 222.592 505.6Z" fill="#D47776"/>
<path d="M192.222 505.26C190.282 505.681 188.341 504.459 187.921 502.495L186.601 496.522C186.18 494.578 187.401 492.634 189.361 492.213C191.302 491.792 193.243 493.015 193.663 494.979L194.983 500.951C195.403 502.895 194.183 504.839 192.222 505.26Z" fill="#E38874"/>
<path d="M183.84 487.283H171.996V459.745C171.996 456.479 174.637 453.813 177.918 453.813C181.179 453.813 183.84 456.458 183.84 459.745V487.283Z" fill="#FEC678"/>
<path d="M163.033 505.6L170.715 488.084C171.596 486.1 173.536 484.817 175.717 484.817H186.861C184.7 484.817 182.739 486.1 181.859 488.084L174.177 505.6C173.056 508.145 174.917 511.011 177.698 511.011H166.554C163.793 511.011 161.913 508.145 163.033 505.6Z" fill="#FEC678"/>
<path d="M211.929 486.061H173.236C171.476 486.061 170.055 484.638 170.055 482.874C170.055 481.11 171.476 479.688 173.236 479.688H211.929C213.689 479.688 215.11 481.11 215.11 482.874C215.11 484.638 213.689 486.061 211.929 486.061Z" fill="#FCA86A"/>
<path d="M211.929 468.684H173.236C171.476 468.684 170.055 467.261 170.055 465.497C170.055 463.733 171.476 462.311 173.236 462.311H211.929C213.689 462.311 215.11 463.733 215.11 465.497C215.11 467.241 213.689 468.684 211.929 468.684Z" fill="#FCA86A"/>
<path d="M194.423 486.061H173.236C171.476 486.061 170.055 484.638 170.055 482.874C170.055 481.11 171.476 479.688 173.236 479.688H194.423C196.184 479.688 197.604 481.11 197.604 482.874C197.604 484.638 196.184 486.061 194.423 486.061Z" fill="#FEC678"/>
<path d="M194.423 468.684H173.236C171.476 468.684 170.055 467.261 170.055 465.497C170.055 463.733 171.476 462.311 173.236 462.311H194.423C196.184 462.311 197.604 463.733 197.604 465.497C197.604 467.241 196.184 468.684 194.423 468.684Z" fill="#FEC678"/>
<path d="M203.586 468.684C201.825 468.684 200.405 467.261 200.405 465.497C200.405 463.733 201.825 462.311 203.586 462.311C205.347 462.311 206.767 463.733 206.767 465.497C206.767 467.241 205.347 468.684 203.586 468.684Z" fill="#FEC678"/>
<path d="M185.48 486.061H173.236C171.476 486.061 170.055 484.638 170.055 482.874C170.055 481.11 171.476 479.688 173.236 479.688H185.48C187.241 479.688 188.661 481.11 188.661 482.874C188.661 484.638 187.241 486.061 185.48 486.061Z" fill="#FCF0D2"/>
<path d="M185.48 468.684H173.236C171.476 468.684 170.055 467.261 170.055 465.497C170.055 463.733 171.476 462.311 173.236 462.311H185.48C187.241 462.311 188.661 463.733 188.661 465.497C188.661 467.241 187.241 468.684 185.48 468.684Z" fill="#FCF0D2"/>
<path d="M73.0838 526.003H33.2909C31.1902 526.003 29.7697 523.839 30.61 521.915L36.4319 508.647C37.0921 507.144 38.5726 506.162 40.2131 506.162H66.1416C67.7821 506.162 69.2626 507.144 69.9228 508.647L75.7447 521.915C76.585 523.839 75.1845 526.003 73.0838 526.003Z" fill="#70575C"/>
<path d="M33.591 519.97H72.7837C74.0641 519.97 75.2445 520.732 75.7647 521.914C76.605 523.838 75.2045 526.003 73.0838 526.003H33.2909C31.1902 526.003 29.7697 523.838 30.61 521.914C31.1302 520.732 32.2906 519.97 33.591 519.97Z" fill="#9B8289"/>
<path d="M56.6385 519.97H43.0341C41.5136 519.97 40.2532 521.113 40.0731 522.616C40.0731 522.636 40.0731 522.656 40.0731 522.676C39.853 524.46 41.2535 526.023 43.0341 526.023H56.6385C58.139 526.023 59.3994 524.9 59.5995 523.417C59.5995 523.397 59.5995 523.377 59.5995 523.357C59.8195 521.554 58.4391 519.97 56.6385 519.97Z" fill="#C4ABB5"/>
<path d="M73.844 496.742H54.7778V435.074C54.7778 434.353 55.358 433.771 56.0783 433.771H72.5636C73.2838 433.771 73.864 434.353 73.864 435.074V496.742H73.844Z" fill="#D47776"/>
<path d="M44.1942 487.283H32.3503V459.745C32.3503 456.479 34.9912 453.813 38.2723 453.813C41.5333 453.813 44.1942 456.458 44.1942 459.745V487.283Z" fill="#FEC678"/>
<path d="M79.4259 511.011H26.9288C24.1479 511.011 22.2873 508.145 23.4077 505.6L31.0902 488.084C31.9705 486.1 33.9111 484.817 36.0918 484.817H70.3229C72.4836 484.817 74.4443 486.1 75.3246 488.084L83.0071 505.6C84.0674 508.145 82.2068 511.011 79.4259 511.011Z" fill="#FCA86A"/>
<path d="M23.4077 505.6L31.0902 488.084C31.9505 486.1 33.9111 484.817 36.0918 484.817H47.2354C45.0747 484.817 43.1141 486.1 42.2338 488.084L34.5513 505.6C33.4309 508.145 35.2915 511.011 38.0724 511.011H26.9288C24.1479 511.011 22.2873 508.145 23.4077 505.6Z" fill="#FEC678"/>
<path d="M82.967 505.6L75.3045 488.084C74.4242 486.1 72.4636 484.817 70.3029 484.817H50.6165C52.7772 484.817 54.7378 486.1 55.6181 488.084L62.3003 503.335C63.8808 506.943 61.2399 510.991 57.2986 510.991H79.4458C82.2067 511.011 84.0673 508.145 82.967 505.6Z" fill="#D47776"/>
<path d="M72.3035 486.061H33.5909C31.8304 486.061 30.4099 484.638 30.4099 482.874C30.4099 481.11 31.8304 479.688 33.5909 479.688H72.2835C74.0441 479.688 75.4646 481.11 75.4646 482.874C75.4646 484.638 74.0441 486.061 72.3035 486.061Z" fill="#FCA86A"/>
<path d="M72.3035 468.684H33.5909C31.8304 468.684 30.4099 467.261 30.4099 465.497C30.4099 463.733 31.8304 462.311 33.5909 462.311H72.2835C74.0441 462.311 75.4646 463.733 75.4646 465.497C75.4646 467.241 74.0441 468.684 72.3035 468.684Z" fill="#FCA86A"/>
<path d="M54.7778 486.061H33.5909C31.8304 486.061 30.4099 484.638 30.4099 482.874C30.4099 481.11 31.8304 479.688 33.5909 479.688H54.7778C56.5384 479.688 57.9589 481.11 57.9589 482.874C57.9589 484.638 56.5384 486.061 54.7778 486.061Z" fill="#FEC678"/>
<path d="M54.7778 468.684H33.5909C31.8304 468.684 30.4099 467.261 30.4099 465.497C30.4099 463.733 31.8304 462.311 33.5909 462.311H54.7778C56.5384 462.311 57.9589 463.733 57.9589 465.497C57.9589 467.241 56.5384 468.684 54.7778 468.684Z" fill="#FEC678"/>
<path d="M63.9608 468.684C62.2002 468.684 60.7798 467.261 60.7798 465.497C60.7798 463.733 62.2002 462.311 63.9608 462.311C65.7214 462.311 67.1419 463.733 67.1419 465.497C67.1218 467.241 65.7014 468.684 63.9608 468.684Z" fill="#FEC678"/>
<path d="M45.8349 486.061H33.5909C31.8304 486.061 30.4099 484.638 30.4099 482.874C30.4099 481.11 31.8304 479.688 33.5909 479.688H45.8349C47.5955 479.688 49.016 481.11 49.016 482.874C49.016 484.638 47.5955 486.061 45.8349 486.061Z" fill="#FCF0D2"/>
<path d="M45.8349 468.684H33.5909C31.8304 468.684 30.4099 467.261 30.4099 465.497C30.4099 463.733 31.8304 462.311 33.5909 462.311H45.8349C47.5955 462.311 49.016 463.733 49.016 465.497C49.016 467.241 47.5955 468.684 45.8349 468.684Z" fill="#FCF0D2"/>
<path d="M52.597 505.26C50.6564 505.681 48.7158 504.458 48.2956 502.494L47.6154 499.368C47.1953 497.424 48.4157 495.48 50.3763 495.059C52.3169 494.638 54.2576 495.861 54.6777 497.825L55.3579 500.951C55.7781 502.895 54.5377 504.839 52.597 505.26Z" fill="#E38874"/>
<path d="M6.48212 436.758L121.72 456.078C122.56 456.218 123.42 456.218 124.28 456.078L239.518 436.758C243.239 436.137 245.98 432.89 245.98 429.102V421.446C245.98 417.157 242.519 413.69 238.237 413.69H7.76254C3.48114 413.69 0.0200195 417.157 0.0200195 421.446V429.102C0.0200195 432.91 2.76091 436.137 6.48212 436.758Z" fill="#FEC678"/>
<path d="M238.237 413.709H123.4V456.198C123.7 456.178 123.98 456.158 124.28 456.118L239.518 436.797C243.239 436.176 245.98 432.929 245.98 429.142V421.486C245.98 417.177 242.519 413.709 238.237 413.709Z" fill="#E38874"/>
<path d="M2.7209 413.609H243.299C244.78 413.609 246 414.812 246 416.315V423.63C246 425.113 244.8 426.336 243.299 426.336H2.7209C1.24042 426.336 0.0200195 425.133 0.0200195 423.63V416.315C0.0200195 414.812 1.22041 413.609 2.7209 413.609Z" fill="#70575C"/>
<path d="M112.096 413.609H243.279C244.76 413.609 245.98 414.812 245.98 416.315V423.63C245.98 425.113 244.78 426.336 243.279 426.336H112.096C110.616 426.336 109.396 425.133 109.396 423.63V416.315C109.416 414.812 110.616 413.609 112.096 413.609Z" fill="#5D474D"/>
<path d="M243.279 426.316H204.266C199.145 426.316 195.323 431.066 196.424 436.076C196.444 436.136 196.444 436.197 196.464 436.257C197.384 440.445 201.405 443.171 205.627 442.45L239.518 436.758C243.239 436.136 245.98 432.89 245.98 429.102V423.59C245.98 425.093 244.78 426.316 243.279 426.316Z" fill="#F19A6E"/>
<path d="M240.178 378.797L215.11 353.965L185.34 324.464C180.539 319.714 177.138 313.742 175.517 307.168L146.528 190.806C143.907 180.244 135.144 174.933 126.341 174.873V413.709H242.379C244.379 413.709 246 412.086 246 410.082V392.726C245.98 387.495 243.879 382.484 240.178 378.797Z" fill="#5D474D"/>
<path d="M5.82189 378.797L30.89 353.965L60.6597 324.464C65.4613 319.714 68.8624 313.742 70.4829 307.168L99.4723 190.806C102.093 180.244 110.856 174.933 119.659 174.873V413.709H3.62118C1.62053 413.709 0 412.086 0 410.082V392.726C0.0200065 387.495 2.10068 382.484 5.82189 378.797Z" fill="#70575C"/>
<path d="M92.9702 272.556V413.71H12.404C10.5234 413.71 8.98291 412.186 8.98291 410.282V399.42C8.98291 395.572 10.5234 391.884 13.2443 389.199L63.8207 339.074C68.6223 334.325 72.0234 328.352 73.6439 321.779L86.108 271.694C87.1283 267.746 92.9702 268.468 92.9702 272.556Z" fill="#FEBC74"/>
<path d="M77.7253 298.05C75.8847 296.406 72.9638 297.348 72.3636 299.733L70.503 307.169C68.8624 313.722 65.4613 319.715 60.6798 324.465L30.9101 353.966L10.9836 373.707C8.78291 375.892 8.46281 379.379 10.2834 381.904C10.3034 381.944 10.3434 381.964 10.3634 382.004C12.6242 385.091 17.1256 385.391 19.8465 382.706L63.8408 339.115C68.6424 334.365 72.0435 328.393 73.664 321.819L78.7657 301.357C79.0658 300.174 78.7056 298.932 77.8053 298.13C77.7853 298.09 77.7453 298.07 77.7253 298.05Z" fill="#876C72"/>
<path d="M236.997 399.44V410.303C236.997 412.187 235.477 413.73 233.576 413.73H153.03V272.576C153.03 268.488 158.872 267.766 159.852 271.735L172.316 321.819C173.957 328.372 177.358 334.365 182.139 339.115L232.736 389.239C235.457 391.904 236.997 395.592 236.997 399.44Z" fill="#E38874"/>
<path d="M232.736 389.219L182.139 339.095C180.939 337.912 179.818 336.629 178.798 335.287V382.445C178.798 399.721 192.763 413.71 210.008 413.71H233.576C235.457 413.71 236.997 412.186 236.997 410.283V399.42C236.997 395.592 235.457 391.904 232.736 389.219Z" fill="#F19A6E"/>
<path d="M13.2643 389.219L63.8608 339.095C65.0612 337.912 66.1815 336.629 67.2019 335.287V382.445C67.2019 399.721 53.2373 413.71 35.9917 413.71H12.424C10.5434 413.71 9.00293 412.186 9.00293 410.283V399.42C9.00293 395.592 10.5234 391.904 13.2643 389.219Z" fill="#FED892"/>
<path d="M18.506 405.793C18.506 401.945 20.0465 398.258 22.7674 395.572L73.3438 345.448C78.1454 340.698 81.5465 334.726 83.167 328.152L92.9502 288.89V272.536C92.9502 268.448 87.1083 267.726 86.128 271.695L73.6639 321.779C72.0234 328.332 68.6223 334.325 63.8408 339.075L13.2643 389.219C10.5434 391.924 9.00293 395.612 9.00293 399.44V410.303C9.00293 412.187 10.5234 413.73 12.424 413.73H18.526V405.793H18.506Z" fill="#FCF0D2"/>
<path d="M86.1479 271.714L73.6839 321.798C72.8436 325.205 71.5031 328.452 69.7626 331.458C68.5222 333.583 68.8023 336.268 70.4228 338.112C73.0436 341.078 77.8052 340.537 79.7058 337.07C81.2463 334.284 82.4267 331.298 83.1869 328.171L92.9701 288.91V272.556C92.9701 268.467 87.1282 267.746 86.1479 271.714Z" fill="#FED892"/>
<path d="M227.474 405.793C227.474 401.945 225.933 398.258 223.213 395.572L172.636 345.448C167.835 340.698 164.433 334.726 162.813 328.152L153.03 288.89V272.536C153.03 268.448 158.872 267.726 159.852 271.695L172.316 321.779C173.957 328.332 177.358 334.325 182.139 339.075L232.716 389.199C235.437 391.904 236.977 395.592 236.977 399.42V410.283C236.977 412.167 235.457 413.71 233.556 413.71H227.454V405.793H227.474Z" fill="#FEC678"/>
<path d="M159.852 271.714L172.316 321.798C173.156 325.205 174.497 328.452 176.237 331.458C177.478 333.583 177.198 336.268 175.577 338.112C172.956 341.078 168.195 340.537 166.294 337.07C164.754 334.284 163.573 331.298 162.813 328.171L153.03 288.91V272.556C153.03 268.467 158.872 267.746 159.852 271.714Z" fill="#FCA86A"/>
<path d="M62.1603 401.023H60.9999C56.1583 401.023 52.2371 397.095 52.2371 392.245C52.2371 387.395 56.1583 383.467 60.9999 383.467H62.1603C67.0019 383.467 70.9231 387.395 70.9231 392.245C70.9431 397.095 67.0019 401.023 62.1603 401.023Z" fill="#D47776"/>
<path d="M191.942 394.349C189.722 394.349 187.921 392.546 187.921 390.321V376.853C187.921 374.628 189.722 372.825 191.942 372.825C194.163 372.825 195.964 374.628 195.964 376.853V390.321C195.964 392.546 194.163 394.349 191.942 394.349Z" fill="#E38874"/>
<path d="M80.9664 379.178C78.7457 379.178 76.9451 377.374 76.9451 375.15V361.682C76.9451 359.457 78.7457 357.653 80.9664 357.653C83.1871 357.653 84.9877 359.457 84.9877 361.682V375.15C84.9877 377.374 83.1871 379.178 80.9664 379.178Z" fill="#F19A6E"/>
<path d="M39.9529 404.611C37.7322 404.611 35.9316 402.807 35.9316 400.583V396.173C35.9316 393.949 37.7322 392.145 39.9529 392.145C42.1737 392.145 43.9743 393.949 43.9743 396.173V400.583C43.9743 402.807 42.1737 404.611 39.9529 404.611Z" fill="#FEBC74"/>
<path d="M153.03 412.147H92.9702V218.605C92.9702 197.381 99.0122 176.577 110.376 158.66L115.317 150.844C118.899 145.212 127.101 145.212 130.682 150.844L135.624 158.66C146.988 176.577 153.03 197.361 153.03 218.605V412.147Z" fill="#FED892"/>
<path d="M153.03 291.295V218.604C153.03 209.045 151.81 199.585 149.429 190.426C149.389 190.286 149.349 190.145 149.329 190.005C145.487 175.635 124.341 178.421 124.341 193.312V291.295H153.03Z" fill="#FEBC74"/>
<path d="M110.756 394.349V218.604C110.756 203.753 114.257 189.223 120.919 176.076C121.76 174.432 122.06 172.549 121.78 170.725C121.76 170.645 121.76 170.564 121.74 170.464C120.399 162.047 109.135 160.203 105.194 167.759C105.094 167.959 104.994 168.139 104.914 168.3C97.0916 183.852 92.9702 201.088 92.9702 218.604V412.146H123.4C122.46 406.234 121.54 400.282 120.679 394.329H110.756V394.349Z" fill="#FCF0D2"/>
<path d="M129.022 206.539H116.978C112.937 206.539 109.656 203.252 109.656 199.204C109.656 195.155 112.937 191.869 116.978 191.869H129.022C133.063 191.869 136.344 195.155 136.344 199.204C136.344 203.252 133.063 206.539 129.022 206.539Z" fill="#644D52"/>
<path d="M129.202 174.472H116.798C115.978 174.472 115.338 173.811 115.338 173.009V161.265C115.338 160.443 115.998 159.802 116.798 159.802H129.202C130.022 159.802 130.663 160.463 130.663 161.265V173.009C130.663 173.811 130.002 174.472 129.202 174.472Z" fill="#81676D"/>
<path d="M111.036 171.086H134.964C139.605 171.086 143.787 173.912 145.467 178.221C142.846 171.427 139.565 164.873 135.624 158.66L130.683 150.844C127.101 145.212 118.899 145.212 115.318 150.844L110.376 158.66C106.435 164.873 103.154 171.427 100.533 178.221C102.213 173.912 106.395 171.086 111.036 171.086Z" fill="#81676D"/>
<path d="M120.759 146.916C120.819 146.896 120.88 146.896 120.92 146.875C120.859 146.875 120.819 146.896 120.759 146.916Z" fill="#644D52"/>
<path d="M121.8 146.714C121.86 146.714 121.92 146.694 121.98 146.694C121.94 146.694 121.88 146.694 121.8 146.714Z" fill="#644D52"/>
<path d="M119.679 147.255C119.739 147.235 119.799 147.215 119.859 147.195C119.799 147.215 119.739 147.235 119.679 147.255Z" fill="#644D52"/>
<path d="M116.898 148.979C116.858 149.02 116.818 149.04 116.798 149.08C116.838 149.04 116.858 149 116.898 148.979Z" fill="#644D52"/>
<path d="M115.998 149.922C116.018 149.902 116.038 149.862 116.058 149.842C116.038 149.862 116.018 149.902 115.998 149.922Z" fill="#644D52"/>
<path d="M135.624 158.659L130.682 150.843C129.062 148.278 126.481 146.895 123.82 146.654C125.741 146.895 126.721 149.139 125.661 150.803L125.641 150.843L120.699 158.659C120.679 158.699 120.639 158.739 120.619 158.78C117.238 164.111 121.139 171.085 127.441 171.085H134.964C139.605 171.085 143.787 173.911 145.467 178.22C142.846 171.426 139.565 164.872 135.624 158.659Z" fill="#644D52"/>
<path d="M118.658 147.736C118.719 147.716 118.759 147.676 118.819 147.656C118.759 147.676 118.699 147.696 118.658 147.736Z" fill="#644D52"/>
<path d="M117.678 148.338C117.718 148.298 117.778 148.278 117.819 148.238C117.778 148.278 117.738 148.298 117.678 148.338Z" fill="#644D52"/>
<path d="M123 200.927C106.415 200.927 92.9702 214.395 92.9702 231.01V417.517H153.03V231.01C153.03 214.395 139.585 200.927 123 200.927Z" fill="#FED892"/>
<path d="M139.045 223.875C131.323 223.875 125.061 230.149 125.061 237.885V417.498H153.03V237.885C153.03 230.149 146.768 223.875 139.045 223.875Z" fill="#FEBC74"/>
<path d="M110.576 405.473V231.311C110.576 224.677 115.638 218.985 122.26 218.604C123.76 218.524 125.201 218.705 126.541 219.105C129.602 220.027 132.903 219.105 135.164 216.821C135.204 216.781 135.244 216.741 135.284 216.7C139.905 212.051 138.005 204.154 131.743 202.25C128.982 201.409 126.041 200.948 123 200.948C106.415 200.948 92.9702 214.416 92.9702 231.03V405.493H110.576V405.473Z" fill="#FCF0D2"/>
<path d="M119.799 236.802H115.738C114.737 236.802 113.917 235.98 113.917 234.978V230.509C113.917 229.507 114.737 228.685 115.738 228.685H119.799C120.799 228.685 121.619 229.507 121.619 230.509V234.978C121.619 236 120.799 236.802 119.799 236.802Z" fill="#644D52"/>
<path d="M126.501 236.802H130.563C131.563 236.802 132.383 235.98 132.383 234.978V230.509C132.383 229.507 131.563 228.685 130.563 228.685H126.501C125.501 228.685 124.681 229.507 124.681 230.509V234.978C124.681 236 125.501 236.802 126.501 236.802Z" fill="#644D52"/>
<path d="M153.03 339.856H92.9702V343.624H153.03V339.856Z" fill="#FEBC74"/>
<path d="M153.03 273.639H92.9702V277.407H153.03V273.639Z" fill="#FEBC74"/>
<path d="M153.03 343.624H123.5C122.46 343.624 121.619 342.783 121.619 341.74C121.619 340.698 122.46 339.856 123.5 339.856H153.03V343.624Z" fill="#F19A6E"/>
<path d="M153.03 277.407H123.5C122.46 277.407 121.619 276.565 121.619 275.523C121.619 274.481 122.46 273.639 123.5 273.639H153.03V277.407Z" fill="#F19A6E"/>
<path d="M148.768 359.558C146.428 359.558 144.527 357.654 144.527 355.309V286.867C144.527 284.522 146.428 282.618 148.768 282.618C151.109 282.618 153.01 284.522 153.01 286.867V355.309C153.03 357.654 151.129 359.558 148.768 359.558Z" fill="#FED892"/>
<path d="M148.768 386.293C146.428 386.293 144.527 384.389 144.527 382.044V377.094C144.527 374.749 146.428 372.845 148.768 372.845C151.109 372.845 153.01 374.749 153.01 377.094V382.044C153.03 384.389 151.129 386.293 148.768 386.293Z" fill="#FED892"/>
<path d="M102.373 257.666H100.033C99.0322 257.666 98.2319 256.864 98.2319 255.862C98.2319 254.86 99.0322 254.058 100.033 254.058H102.373C103.374 254.058 104.174 254.86 104.174 255.862C104.174 256.864 103.374 257.666 102.373 257.666Z" fill="#EF976F"/>
<path d="M112.016 257.666H109.676C108.675 257.666 107.875 256.864 107.875 255.862C107.875 254.86 108.675 254.058 109.676 254.058H112.016C113.017 254.058 113.817 254.86 113.817 255.862C113.817 256.864 113.017 257.666 112.016 257.666Z" fill="#EF976F"/>
<path d="M143.607 257.666H145.947C146.948 257.666 147.748 256.864 147.748 255.862C147.748 254.86 146.948 254.058 145.947 254.058H143.607C142.606 254.058 141.806 254.86 141.806 255.862C141.806 256.864 142.626 257.666 143.607 257.666Z" fill="#D47776"/>
<path d="M133.983 257.666H136.324C137.325 257.666 138.125 256.864 138.125 255.862C138.125 254.86 137.325 254.058 136.324 254.058H133.983C132.983 254.058 132.183 254.86 132.183 255.862C132.183 256.864 132.983 257.666 133.983 257.666Z" fill="#D47776"/>
<path d="M102.373 368.416H100.033C99.0322 368.416 98.2319 367.614 98.2319 366.612C98.2319 365.61 99.0322 364.808 100.033 364.808H102.373C103.374 364.808 104.174 365.61 104.174 366.612C104.174 367.614 103.374 368.416 102.373 368.416Z" fill="#EF976F"/>
<path d="M112.016 368.416H109.676C108.675 368.416 107.875 367.614 107.875 366.612C107.875 365.61 108.675 364.808 109.676 364.808H112.016C113.017 364.808 113.817 365.61 113.817 366.612C113.817 367.614 113.017 368.416 112.016 368.416Z" fill="#EF976F"/>
<path d="M143.607 368.416H145.947C146.948 368.416 147.748 367.614 147.748 366.612C147.748 365.61 146.948 364.808 145.947 364.808H143.607C142.606 364.808 141.806 365.61 141.806 366.612C141.806 367.614 142.626 368.416 143.607 368.416Z" fill="#D47776"/>
<path d="M133.983 368.416H136.324C137.325 368.416 138.125 367.614 138.125 366.612C138.125 365.61 137.325 364.808 136.324 364.808H133.983C132.983 364.808 132.183 365.61 132.183 366.612C132.183 367.614 132.983 368.416 133.983 368.416Z" fill="#D47776"/>
<path d="M102.373 300.254H100.033C99.0322 300.254 98.2319 299.453 98.2319 298.451C98.2319 297.449 99.0322 296.647 100.033 296.647H102.373C103.374 296.647 104.174 297.449 104.174 298.451C104.174 299.453 103.374 300.254 102.373 300.254Z" fill="#EF976F"/>
<path d="M112.016 300.254H109.676C108.675 300.254 107.875 299.453 107.875 298.451C107.875 297.449 108.675 296.647 109.676 296.647H112.016C113.017 296.647 113.817 297.449 113.817 298.451C113.817 299.453 113.017 300.254 112.016 300.254Z" fill="#EF976F"/>
<path d="M143.607 300.254H145.947C146.948 300.254 147.748 299.453 147.748 298.451C147.748 297.449 146.948 296.647 145.947 296.647H143.607C142.606 296.647 141.806 297.449 141.806 298.451C141.806 299.453 142.626 300.254 143.607 300.254Z" fill="#D47776"/>
<path d="M133.983 300.254H136.324C137.325 300.254 138.125 299.453 138.125 298.451C138.125 297.449 137.325 296.647 136.324 296.647H133.983C132.983 296.647 132.183 297.449 132.183 298.451C132.183 299.453 132.983 300.254 133.983 300.254Z" fill="#D47776"/>
<path d="M102.373 315.846H100.033C99.0322 315.846 98.2319 315.045 98.2319 314.043C98.2319 313.04 99.0322 312.239 100.033 312.239H102.373C103.374 312.239 104.174 313.04 104.174 314.043C104.174 315.045 103.374 315.846 102.373 315.846Z" fill="#EF976F"/>
<path d="M112.016 315.846H109.676C108.675 315.846 107.875 315.045 107.875 314.043C107.875 313.04 108.675 312.239 109.676 312.239H112.016C113.017 312.239 113.817 313.04 113.817 314.043C113.817 315.045 113.017 315.846 112.016 315.846Z" fill="#EF976F"/>
<path d="M143.607 315.846H145.947C146.948 315.846 147.748 315.045 147.748 314.043C147.748 313.04 146.948 312.239 145.947 312.239H143.607C142.606 312.239 141.806 313.04 141.806 314.043C141.806 315.045 142.626 315.846 143.607 315.846Z" fill="#D47776"/>
<path d="M133.983 315.846H136.324C137.325 315.846 138.125 315.045 138.125 314.043C138.125 313.04 137.325 312.239 136.324 312.239H133.983C132.983 312.239 132.183 313.04 132.183 314.043C132.183 315.045 132.983 315.846 133.983 315.846Z" fill="#D47776"/>
<path d="M91.0696 474.356H121.099V459.305C121.099 450.987 114.377 444.253 106.074 444.253C97.7717 444.253 91.0496 450.987 91.0496 459.305V474.356H91.0696Z" fill="#70575C"/>
<path d="M100.933 466.72H96.6115C95.4911 466.72 94.5708 465.798 94.5708 464.676C94.5708 463.553 95.4911 462.631 96.6115 462.631H100.933C102.053 462.631 102.974 463.553 102.974 464.676C102.974 465.798 102.053 466.72 100.933 466.72Z" fill="#AF979F"/>
<path d="M100.613 460.067H97.9318C96.8114 460.067 95.8911 459.145 95.8911 458.022C95.8911 456.9 96.8114 455.978 97.9318 455.978H100.613C101.733 455.978 102.653 456.9 102.653 458.022C102.653 459.165 101.733 460.067 100.613 460.067Z" fill="#AF979F"/>
<path d="M155.731 474.356H125.681V459.305C125.681 450.987 132.403 444.253 140.706 444.253C149.008 444.253 155.731 450.987 155.731 459.305V474.356Z" fill="#5D474D"/>
<path d="M91.2296 474.356H120.939C122.32 474.356 123.42 473.294 123.42 471.991C123.42 470.689 122.3 469.626 120.939 469.626H91.2296C89.8492 469.626 88.7488 470.689 88.7488 471.991C88.7288 473.294 89.8492 474.356 91.2296 474.356Z" fill="#FEC678"/>
<path d="M155.571 474.356H125.861C124.48 474.356 123.38 473.294 123.38 471.991C123.38 470.689 124.5 469.626 125.861 469.626H155.571C156.951 469.626 158.051 470.689 158.051 471.991C158.051 473.294 156.931 474.356 155.571 474.356Z" fill="#FEC678"/>
<path d="M95.5911 423.731H120.379C121.82 423.731 123 422.548 123 421.105V395.051C123 393.608 121.82 392.426 120.379 392.426H95.5911C94.1506 392.426 92.9702 393.608 92.9702 395.051V421.105C92.9702 422.548 94.1306 423.731 95.5911 423.731Z" fill="#70575C"/>
<path d="M150.409 423.731H125.601C124.16 423.731 122.98 422.548 122.98 421.105V395.051C122.98 393.608 124.16 392.426 125.601 392.426H150.409C151.849 392.426 153.03 393.608 153.03 395.051V421.105C153.03 422.548 151.849 423.731 150.409 423.731Z" fill="#644D52"/>
<path d="M103.954 396.253H112.376C118.238 396.253 123 401.023 123 406.895V449.143C123 450.846 121.619 452.229 119.919 452.229H86.9682C85.2677 452.229 83.8872 450.846 83.8872 449.143V416.355C83.8872 405.252 92.8701 396.253 103.954 396.253Z" fill="#FEC678"/>
<path d="M113.777 400.241C115.477 398.979 114.557 396.253 112.436 396.253H112.376H103.954C92.8701 396.253 83.8872 405.252 83.8872 416.355V449.143C83.8872 450.846 85.2677 452.229 86.9682 452.229H105.694V416.355C105.694 409.761 108.875 403.909 113.777 400.241Z" fill="#FDE1AA"/>
<path d="M142.046 396.253H133.623C127.762 396.253 123 401.023 123 406.895V449.143C123 450.846 124.38 452.229 126.081 452.229H159.032C160.732 452.229 162.113 450.846 162.113 449.143V416.355C162.113 405.252 153.13 396.253 142.046 396.253Z" fill="#FCA86A"/>
<path d="M132.223 400.241C130.522 398.979 131.443 396.253 133.563 396.253H133.623H142.046C153.13 396.253 162.113 405.252 162.113 416.355V449.143C162.113 450.846 160.732 452.229 159.032 452.229H140.306V416.355C140.306 409.761 137.125 403.909 132.223 400.241Z" fill="#FEC678"/>
<path d="M154.81 409.842C154.95 409.762 155.09 409.702 155.23 409.622C157.931 408.179 158.571 404.511 156.431 402.327C154.41 400.242 151.949 398.599 149.188 397.557C146.468 396.514 143.467 398.258 142.966 401.144C142.946 401.224 142.946 401.324 142.926 401.405C142.566 403.589 143.807 405.714 145.887 406.515C147.268 407.056 148.508 407.878 149.529 408.9C150.909 410.323 153.03 410.764 154.81 409.842Z" fill="#FEDEA2"/>
<path d="M92.7701 416.355C92.7701 412.247 94.9908 408.659 98.2919 406.715C100.072 405.673 100.893 403.549 100.293 401.585C100.273 401.545 100.273 401.524 100.273 401.484C99.4523 398.819 96.3513 397.556 93.9505 398.959C87.9485 402.426 83.9072 408.94 83.9072 416.375V421.907C83.9072 424.292 85.7878 426.216 88.1486 426.316C88.1686 426.316 88.2086 426.316 88.2286 426.316C90.7094 426.416 92.7901 424.412 92.7901 421.907V416.355H92.7701Z" fill="#FCF0D2"/>
<path d="M88.3687 431.787C88.3487 431.787 88.3086 431.787 88.2886 431.787C85.8679 431.787 83.8872 433.751 83.8872 436.196V436.717C83.8872 439.223 85.9679 441.247 88.4687 441.127C88.4887 441.127 88.5287 441.127 88.5487 441.127C90.9095 441.026 92.7701 439.082 92.7701 436.717V436.196C92.7701 433.751 90.8095 431.787 88.3687 431.787Z" fill="#FCF0D2"/>
<path d="M137.705 466.72H133.383C132.263 466.72 131.343 465.798 131.343 464.676C131.343 463.553 132.263 462.631 133.383 462.631H137.705C138.825 462.631 139.745 463.553 139.745 464.676C139.745 465.798 138.825 466.72 137.705 466.72Z" fill="#876C72"/>
<path d="M136.104 460.067H133.423C132.303 460.067 131.383 459.145 131.383 458.022C131.383 456.9 132.303 455.978 133.423 455.978H136.104C137.224 455.978 138.145 456.9 138.145 458.022C138.145 459.165 137.244 460.067 136.104 460.067Z" fill="#876C72"/>
<path d="M123 479.566C120.639 479.566 118.719 477.642 118.719 475.277V406.134C118.719 403.769 120.639 401.845 123 401.845C125.361 401.845 127.282 403.769 127.282 406.134V475.277C127.282 477.662 125.361 479.566 123 479.566Z" fill="#FCF0D2"/>
</svg>
