<svg xmlns="http://www.w3.org/2000/svg" width="99" height="148" viewBox="0 0 99 148">
  <g fill="none" fill-rule="evenodd">
    <path fill="#FFF" d="M49.5960879,34.0225135 C49.832776,34.0225135 50.065867,34.0872611 50.2701814,34.2095619 C54.1068309,36.538314 57.1442085,39.9181339 59.05426,43.9842774 L59.2636103,44.4295964 L67.0211081,44.4295964 L67.0210812,37.0282368 C67.036189,23.9326935 60.6909331,11.5587252 50.0464428,3.92931046 L49.5953684,3.60629234 L49.1442941,3.92931046 C38.5012426,11.5594446 32.1567062,23.9334129 32.1703751,37.0296756 L32.1703531,44.4295964 L39.9285654,44.4295964 L40.1379157,43.9842774 C42.0472478,39.9181339 45.0853448,36.5375945 48.924872,34.2074036 C49.1270281,34.0865416 49.3593997,34.0225135 49.5960879,34.0225135"/>
    <polygon fill="#FFF" points="69.636 72.739 71.564 77.25 83.674 77.25 83.674 63.695 69.636 63.695"/>
    <polygon fill="#FFF" points="15.519 77.251 27.628 77.251 29.556 72.739 29.556 63.696 15.519 63.696"/>
    <path fill="#FFF" d="M76.0641499 29.5704029C72.6864882 33.5466194 70.5512593 38.3832582 69.8901152 43.5573036L69.7793251 44.4299561 83.530257 44.4299561 83.4194668 43.5573036C82.7590423 38.3839777 80.6230939 33.5473388 77.2447128 29.5704029L76.6540716 28.8768852 76.0641499 29.5704029zM21.9470313 29.5704029C18.5686502 33.5473388 16.4334212 38.3839777 15.7729966 43.5573036L15.661487 44.4299561 29.4131384 44.4299561 29.3023482 43.5573036C28.6412042 38.3832582 26.5059753 33.5458999 23.1275942 29.5704029L22.536953 28.8761657 21.9470313 29.5704029z"/>
    <polygon fill="#B9E2ED" points="73.526 81.817 83.673 87.905 83.673 79.864 72.693 79.864"/>
    <polygon fill="#FFF" points="16.352 81.817 26.499 87.905 26.499 79.864 15.519 79.864" transform="matrix(-1 0 0 1 42.018 0)"/>
    <path fill="#B9E2ED" d="M60.5678409,48.0156731 C61.0570443,49.8724878 61.3066819,51.7897334 61.310279,53.7134539 L61.310279,53.7458276 L61.3642353,53.9573361 L65.541169,63.1874532 L67.0210093,67.0428076 L67.0210093,47.0437411 L60.3117286,47.0437411 L60.5678409,48.0156731 Z"/>
    <polygon fill="#B9E2ED" points="69.636 61.081 83.674 61.081 83.674 47.044 69.636 47.044"/>
    <polygon fill="#B9E2ED" points="72.549 112.374 71.918 116.797 81.391 116.797 80.693 111.876"/>
    <polygon fill="#B9E2ED" points="50.904 116.797 58.696 116.797 58.696 111.086 50.904 111.086"/>
    <polygon fill="#B9E2ED" points="17.799 116.797 27.275 116.797 26.646 112.375 18.503 111.876"/>
    <polygon fill="#B9E2ED" points="61.31 110.47 91.999 108.551 91.999 104.842 61.31 104.842"/>
    <polygon fill="#FFF" points="40.496 116.797 48.288 116.797 48.288 111.086 40.496 111.086"/>
    <path fill="#B9E2ED" d="M50.9035559,108.472292 L58.6962782,108.472292 L58.6962782,105.616208 C58.6962782,101.745746 55.5481105,98.5968584 51.6776483,98.5968584 L50.9035559,98.5968584 L50.9035559,108.472292 Z"/>
    <path fill="#FFF" d="M40.5553687,108.472292 L48.3480911,108.472292 L48.3480911,105.616208 C48.3480911,101.745746 45.1999233,98.5968584 41.3294612,98.5968584 L40.5553687,98.5968584 L40.5553687,108.472292 Z" transform="matrix(-1 0 0 1 88.903 0)"/>
    <path fill="#B9E2ED" d="M58.6899474,53.7109359 C58.6690843,47.1232366 55.4331477,40.9412884 50.0332055,37.172264 L49.5900448,36.8636342 L49.5900448,87.6573352 L50.9036998,87.6573352 L50.9036998,95.9781094 L51.6734757,95.9831453 C52.2734693,95.9867424 52.8727434,96.046454 53.4540322,96.1601218 C53.5540311,96.1788267 53.6482747,96.2047257 53.7425183,96.2306247 L53.9986307,96.2975304 C54.3993458,96.3960905 54.7892697,96.5162331 55.1597693,96.6565194 C55.3216381,96.7205475 55.4835069,96.793928 55.654728,96.8701862 C56.0576014,97.0586734 56.4000438,97.2457217 56.7280979,97.4514749 L56.8273774,97.5111865 C56.9726996,97.5989554 57.0971587,97.6737747 57.2165818,97.7586659 C57.2741352,97.7982338 57.3302497,97.8320464 57.3863642,97.8651396 L57.4439175,97.8996716 L58.6964221,98.8831143 L58.6964221,58.2259955 L58.6899474,53.7109359 Z"/>
    <path fill="#FFF" d="M49.6552713,53.7109359 C49.6344083,47.1232366 46.3984717,40.9412884 40.9985295,37.172264 L40.5553687,36.8636342 L40.5553687,87.6573352 L41.8690237,87.6573352 L41.8690237,95.9781094 L42.6387997,95.9831453 C43.2387933,95.9867424 43.8380674,96.046454 44.4193562,96.1601218 C44.5193551,96.1788267 44.6135987,96.2047257 44.7078423,96.2306247 L44.9639546,96.2975304 C45.3646698,96.3960905 45.7545937,96.5162331 46.1250933,96.6565194 C46.2869621,96.7205475 46.4488308,96.793928 46.620052,96.8701862 C47.0229254,97.0586734 47.3653678,97.2457217 47.6934218,97.4514749 L47.7927013,97.5111865 C47.9380235,97.5989554 48.0624826,97.6737747 48.1819058,97.7586659 C48.2394592,97.7982338 48.2955737,97.8320464 48.3516882,97.8651396 L48.4092415,97.8996716 L49.6617461,98.8831143 L49.6617461,58.2259955 L49.6552713,53.7109359 Z" transform="matrix(-1 0 0 1 90.217 0)"/>
    <polygon fill="#B9E2ED" points="7.193 108.551 37.882 110.47 37.882 104.842 7.193 104.842"/>
    <path fill="#FFF" d="M37.8819686 102.22646L7.2240234 102.22646 7.37797858 101.322153C8.03624492 97.4552878 10.339098 94.0754679 13.6980548 92.0481515L27.3684121 83.8432033C27.6036614 83.69932 27.7856738 83.4892503 27.8935863 83.2352962L36.3934954 63.4218392 37.8819686 59.6801526 37.8819686 102.22646zM71.2909636 83.2374544C71.3988761 83.4906891 71.5787303 83.69932 71.8103825 83.8403256L85.4972863 92.0495903C88.8555238 94.0769067 91.156938 97.4574461 91.8123267 101.324311L91.9655624 102.228618 61.3104949 102.228618 61.3104949 59.6794332 62.795371 63.4153644 71.2909636 83.2374544z"/>
    <polygon fill="#FFF" points="15.52 61.082 29.556 61.082 29.556 47.044 15.52 47.044"/>
    <path fill="#FFF" d="M87.0282052 145.39794L12.1635389 145.39794C7.30819516 145.39794 3.04996736 141.410932 3.04996736 136.865657 3.04996736 132.320382 7.30819516 128.333375 12.1635389 128.333375 15.7822052 128.333375 19.2735347 130.563567 20.6555343 133.755619L20.9440204 134.42036 20.3001424 134.751292C19.4713743 135.179344 18.7217421 135.726101 18.0728281 136.376454 17.853406 136.596596 17.7332634 136.889398 17.7332634 137.200186 17.7339828 137.511694 17.8548449 137.803777 18.074267 138.023918 18.2944085 138.24334 18.5864917 138.364922 18.8979992 138.364922 19.2095066 138.364922 19.5023092 138.24334 19.7217314 138.02248 20.5253199 137.218172 21.5245898 136.633286 22.6137867 136.33185L22.7619866 136.826089 22.6188227 136.330411C23.1950755 136.17142 23.7893137 136.090126 24.3849908 136.090126 25.3677141 136.090126 26.3547539 136.315304 27.2381977 136.741198 27.9086941 137.062778 28.5158818 137.493708 29.0424949 138.02176 29.2626364 138.24334 29.5554391 138.364922 29.8683853 138.364922 30.1791734 138.364922 30.4705372 138.24406 30.6899593 138.025357 31.1446307 137.570686 31.1460695 136.831845 30.692837 136.377173 30.5029109 136.185809 30.2949995 135.997321 30.0762968 135.815309L29.4201887 135.269272 30.0259376 134.669278C31.6244817 133.085122 33.7532358 132.21247 36.0201181 132.21247 37.5301738 132.21247 39.006417 132.609588 40.2898565 133.360659L40.6725862 133.585117 40.6725862 138.805205C40.6725862 139.447644 41.1956022 139.97066 41.8387608 139.97066 42.4804806 139.97066 43.0034966 139.447644 43.0034966 138.805205L43.0034966 119.411887 56.1889669 119.411887 56.1889669 138.805205C56.1889669 139.447644 56.7112635 139.97066 57.3537027 139.97066 57.9968613 139.97066 58.5191578 139.447644 58.5191578 138.805205L58.5191578 133.577923 58.9040458 133.354184C60.1889241 132.60743 61.6651673 132.21247 63.1723454 132.21247 65.4385082 132.21247 67.566543 133.085122 69.1658065 134.669278L69.7722748 135.269272 69.1161667 135.815309C68.8967446 135.997321 68.6895526 136.185809 68.4989071 136.377173 68.0456746 136.831845 68.046394 137.570686 68.5017848 138.024638 68.7219263 138.24406 69.0140095 138.364922 69.325517 138.364922 69.6370244 138.364922 69.9298271 138.24334 70.1499686 138.02176 70.6765817 137.493708 71.2837694 137.062058 71.9564241 136.739759 72.838429 136.314584 73.82403 136.090126 74.8060339 136.090126 75.4045886 136.090126 76.0017045 136.17142 76.5801156 136.33185 77.6678737 136.633286 78.6671436 137.218891 79.4692933 138.02248 79.6894348 138.24334 79.9822374 138.364922 80.2944643 138.364922 80.6045329 138.364922 80.898055 138.24334 81.1174771 138.023918 81.3376186 137.803777 81.4592001 137.511694 81.4599195 137.200186 81.4599195 136.889398 81.3390575 136.596596 81.1189159 136.376454 80.470002 135.726101 79.7210892 135.179344 78.8916016 134.751292L78.2484431 134.42036 78.5354903 133.755619C79.9182094 130.563567 83.4102583 128.333375 87.0282052 128.333375 91.8835489 128.333375 96.1424961 132.320382 96.1424961 136.865657 96.1424961 141.410932 91.8835489 145.39794 87.0282052 145.39794zM38.6244067 48.0162487C38.1337645 49.8723439 37.8841269 51.7895896 37.8819686 53.71331L37.8819686 53.7449643 37.8129046 53.9996378 33.6496398 63.1966617 32.170519 66.3930304 32.170519 47.0443166 38.8805191 47.0443166 38.6244067 48.0162487z"/>
    <path fill="#B9E2ED" d="M87.0282052,128.333518 C83.4102583,128.333518 79.9174899,130.56371 78.5354903,133.755763 L78.2484431,134.420504 L78.8916016,134.751435 C79.7210892,135.179488 80.470002,135.725526 81.1189159,136.376598 C81.3390575,136.59602 81.4599195,136.889542 81.4599195,137.20033 C81.4592001,137.511838 81.3376186,137.803921 81.1174771,138.024062 C80.898055,138.242765 80.6045329,138.364346 80.2944643,138.364346 C79.9822374,138.364346 79.6894348,138.242765 79.4692933,138.022623 C78.6671436,137.219035 77.6678737,136.63343 76.5801156,136.331994 C76.0017045,136.172284 75.4045886,136.09027 74.8060339,136.09027 C73.82403,136.09027 72.838429,136.314728 71.9564241,136.739903 C71.2837694,137.062202 70.6765817,137.493852 70.1499686,138.021904 C69.9298271,138.242765 69.636305,138.364346 69.325517,138.364346 C69.0140095,138.364346 68.7219263,138.243484 68.5017848,138.024782 C68.0471134,137.57083 68.0456746,136.831989 68.4989071,136.377317 C68.6895526,136.185952 68.8967446,135.996746 69.1161667,135.814733 L69.7722748,135.269415 L69.1658065,134.669422 C67.566543,133.084547 65.4377888,132.212614 63.1723454,132.212614 C61.6651673,132.212614 60.1889241,132.606854 58.9040458,133.354328 L58.5191578,133.578067 L58.5191578,138.805349 C58.5191578,139.447788 57.9968613,139.970804 57.3537027,139.970804 C56.7112635,139.970804 56.1889669,139.447788 56.1889669,138.805349 L56.1889669,133.643534 C56.1889669,137.283782 53.2372,140.236269 49.5962317,140.236269 C45.9545441,140.236269 43.0034966,137.283782 43.0034966,133.643534 L43.0034966,138.805349 C43.0034966,139.447788 42.4804806,139.970804 41.8387608,139.970804 C41.1956022,139.970804 40.6725862,139.447788 40.6725862,138.805349 L40.6725862,133.585261 L40.2898565,133.360083 C39.006417,132.609012 37.5294544,132.212614 36.0201181,132.212614 C33.7532358,132.212614 31.6244817,133.084547 30.026657,134.669422 L29.4201887,135.269415 L30.0762968,135.814733 C30.2949995,135.996746 30.5029109,136.185952 30.692837,136.377317 C31.1460695,136.831989 31.1446307,137.57083 30.6899593,138.025501 C30.4705372,138.243484 30.1791734,138.364346 29.8683853,138.364346 C29.5554391,138.364346 29.2626364,138.242765 29.0424949,138.021904 C28.5158818,137.493852 27.9086941,137.062921 27.2381977,136.741342 C26.3547539,136.315447 25.3684335,136.09027 24.3849908,136.09027 C23.7893137,136.09027 23.1950755,136.171564 22.6188227,136.330555 L22.7619866,136.826233 L22.6137867,136.331994 C21.5245898,136.63343 20.5253199,137.218315 19.7217314,138.022623 C19.5023092,138.242765 19.2095066,138.364346 18.8979992,138.364346 C18.5864917,138.364346 18.2944085,138.242765 18.074267,138.024062 C17.8548449,137.803921 17.7339828,137.511838 17.7332634,137.20033 C17.7332634,136.889542 17.853406,136.59602 18.0728281,136.376598 C18.7217421,135.725526 19.4713743,135.179488 20.3001424,134.751435 L20.9440204,134.420504 L20.6555343,133.755763 C19.2735347,130.56371 15.7822052,128.333518 12.1635389,128.333518 C7.30819516,128.333518 3.04996736,132.320526 3.04996736,136.865801 C3.04996736,141.411076 7.30819516,145.398084 12.1635389,145.398084 L87.0282052,145.398084 C91.8835489,145.398084 96.1424961,141.411076 96.1424961,136.865801 C96.1424961,132.320526 91.8835489,128.333518 87.0282052,128.333518"/>
    <path fill="#1F282C" d="M87.0282052,145.39794 L12.1635389,145.39794 C7.30819516,145.39794 3.04996736,141.410932 3.04996736,136.865657 C3.04996736,132.320382 7.30819516,128.333375 12.1635389,128.333375 C15.7822052,128.333375 19.2735347,130.563567 20.6555343,133.755619 L20.9440204,134.42036 L20.3001424,134.751292 C19.4713743,135.179344 18.7217421,135.726101 18.0728281,136.376454 C17.853406,136.596596 17.7332634,136.889398 17.7332634,137.200186 C17.7339828,137.511694 17.8548449,137.803777 18.074267,138.023918 C18.2944085,138.24334 18.5864917,138.364922 18.8979992,138.364922 C19.2095066,138.364922 19.5023092,138.24334 19.7217314,138.02248 C20.5253199,137.218172 21.5245898,136.633286 22.6137867,136.33185 L22.7619866,136.826089 L22.6188227,136.330411 C23.1950755,136.17142 23.7893137,136.090126 24.3849908,136.090126 C25.3677141,136.090126 26.3547539,136.315304 27.2381977,136.741198 C27.9086941,137.062778 28.5158818,137.493708 29.0424949,138.02176 C29.2626364,138.24334 29.5554391,138.364922 29.8683853,138.364922 C30.1791734,138.364922 30.4705372,138.24406 30.6899593,138.025357 C31.1446307,137.570686 31.1460695,136.831845 30.692837,136.377173 C30.5029109,136.185809 30.2949995,135.997321 30.0762968,135.815309 L29.4201887,135.269272 L30.0259376,134.669278 C31.6244817,133.085122 33.7532358,132.21247 36.0201181,132.21247 C37.5301738,132.21247 39.006417,132.609588 40.2898565,133.360659 L40.6725862,133.585117 L40.6725862,138.805205 C40.6725862,139.447644 41.1956022,139.97066 41.8387608,139.97066 C42.4804806,139.97066 43.0034966,139.447644 43.0034966,138.805205 L43.0034966,119.411887 L56.1889669,119.411887 L56.1889669,138.805205 C56.1889669,139.447644 56.7112635,139.97066 57.3537027,139.97066 C57.9968613,139.97066 58.5191578,139.447644 58.5191578,138.805205 L58.5191578,133.577923 L58.9040458,133.354184 C60.1889241,132.60743 61.6651673,132.21247 63.1723454,132.21247 C65.4385082,132.21247 67.566543,133.085122 69.1658065,134.669278 L69.7722748,135.269272 L69.1161667,135.815309 C68.8967446,135.997321 68.6895526,136.185809 68.4989071,136.377173 C68.0456746,136.831845 68.046394,137.570686 68.5017848,138.024638 C68.7219263,138.24406 69.0140095,138.364922 69.325517,138.364922 C69.6370244,138.364922 69.9298271,138.24334 70.1499686,138.02176 C70.6765817,137.493708 71.2837694,137.062058 71.9564241,136.739759 C72.838429,136.314584 73.82403,136.090126 74.8060339,136.090126 C75.4045886,136.090126 76.0017045,136.17142 76.5801156,136.33185 C77.6678737,136.633286 78.6671436,137.218891 79.4692933,138.02248 C79.6894348,138.24334 79.9822374,138.364922 80.2944643,138.364922 C80.6045329,138.364922 80.898055,138.24334 81.1174771,138.023918 C81.3376186,137.803777 81.4592001,137.511694 81.4599195,137.200186 C81.4599195,136.889398 81.3390575,136.596596 81.1189159,136.376454 C80.470002,135.726101 79.7210892,135.179344 78.8916016,134.751292 L78.2484431,134.42036 L78.5354903,133.755619 C79.9182094,130.563567 83.4102583,128.333375 87.0282052,128.333375 C91.8835489,128.333375 96.1424961,132.320382 96.1424961,136.865657 C96.1424961,141.410932 91.8835489,145.39794 87.0282052,145.39794 Z M40.4963291,116.796807 L48.2883321,116.796807 L48.2883321,111.086077 L40.4963291,111.086077 L40.4963291,116.796807 Z M48.2883321,98.5970022 L48.2883321,108.472436 L40.4963291,108.472436 L40.4963291,105.616352 C40.4963291,101.745889 43.6444969,98.5970022 47.5142396,98.5970022 L48.2883321,98.5970022 Z M40.4898544,53.7097129 C40.5099981,47.122733 43.7466541,40.9407848 49.1465963,37.1724798 L49.589757,36.86385 L50.0329177,37.1724798 C55.4328599,40.9407848 58.6687965,47.122733 58.6896596,53.7111517 L58.6961343,58.2262113 L58.6961343,98.8833301 L57.4436298,97.8998874 L57.3867958,97.8653554 C57.3306813,97.8322622 57.2745668,97.7984496 57.2170135,97.7581623 C57.0975903,97.6739905 56.9731312,97.5991712 56.827809,97.5114023 L56.7285295,97.4516908 C56.4004755,97.2452181 56.0573137,97.0588892 55.6551597,96.870402 C55.4832191,96.7934244 55.3220697,96.7207633 55.1594816,96.6567352 C54.7889819,96.516449 54.3997775,96.3963064 53.9990623,96.2977463 L53.7422305,96.2301211 C53.6487064,96.2049415 53.5544628,96.1790425 53.4537444,96.1603377 C52.8724557,96.0459504 52.2731815,95.9862388 51.6731879,95.9826417 L50.903412,95.9783252 L50.903412,87.6568316 L48.2883321,87.6568316 L48.2883321,95.9783252 L47.5192756,95.9826417 C46.9243179,95.9869582 46.3214467,96.0481087 45.7243307,96.1653736 C45.6214541,96.1840784 45.5272105,96.2099774 45.4063485,96.24379 C45.3351263,96.2639337 45.263904,96.2833579 45.1847682,96.3035016 C44.797722,96.3963064 44.4106757,96.5157295 44.0380179,96.6567352 C43.8473724,96.732274 43.6552881,96.8135681 43.4718369,96.9013369 C43.125078,97.0639251 42.783355,97.2495346 42.4567398,97.4516908 L42.2574614,97.5739916 C42.1646566,97.6308255 42.070413,97.68694 41.9675364,97.7624788 C41.9128607,97.8013273 41.8553074,97.8365787 41.7790492,97.8804631 L41.7344454,97.907801 L40.4898544,98.8617476 L40.4898544,53.7097129 Z M39.9287093,44.4292367 L32.1704969,44.4292367 L32.170519,37.0293159 C32.1568501,23.9337726 38.5013865,11.5598043 49.144438,3.92967017 L49.5955123,3.60593263 L50.0465866,3.92967017 C60.691077,11.5590849 67.0363328,23.9323338 67.0205057,37.0285965 L67.0205352,44.4292367 L59.2637542,44.4292367 L59.0544039,43.9839177 C57.1443524,39.9184936 54.1062554,36.5386737 50.2696058,34.2099216 C50.0660109,34.0869013 49.8329199,34.0228733 49.5962317,34.0228733 C49.3595436,34.0228733 49.1264526,34.0861819 48.9250159,34.2077634 C45.0854887,36.5372348 42.0473917,39.9184936 40.1373402,43.9839177 L39.9287093,44.4292367 Z M38.6244067,48.0162487 C38.1337645,49.8723439 37.8841269,51.7895896 37.8819686,53.71331 L37.8819686,53.7449643 L37.8129046,53.9996378 L33.6496398,63.1966617 L32.170519,66.3930304 L32.170519,47.0443166 L38.8805191,47.0443166 L38.6244067,48.0162487 Z M37.8819686,102.22646 L7.2240234,102.22646 L7.37797858,101.322153 C8.03624492,97.4552878 10.339098,94.0754679 13.6980548,92.0481515 L27.3684121,83.8432033 C27.6036614,83.69932 27.7856738,83.4892503 27.8935863,83.2352962 L36.3934954,63.4218392 L37.8819686,59.6801526 L37.8819686,102.22646 Z M37.8819686,110.470256 L7.19236906,108.550853 L7.19236906,104.842259 L37.8819686,104.842259 L37.8819686,110.470256 Z M17.7994498,116.796807 L18.5023199,111.875997 L26.6453983,112.375272 L27.2741685,116.796807 L17.7994498,116.796807 Z M15.5196181,79.865548 L26.5015149,79.865548 L25.6648332,81.8173257 L15.5196181,87.9050303 L15.5196181,79.865548 Z M15.5196181,63.6952175 L29.5554391,63.6952175 L29.5554391,72.7390056 L27.6281216,77.2504681 L15.5196181,77.2504681 L15.5196181,63.6952175 Z M15.5196181,61.0815764 L29.5561585,61.0815764 L29.5561585,47.0443166 L15.5196181,47.0443166 L15.5196181,61.0815764 Z M15.7728528,43.5573036 C16.4332773,38.3839777 18.5685063,33.5473388 21.9468874,29.5704029 L22.5368091,28.8761657 L23.1274503,29.5704029 C26.5058314,33.5458999 28.6410604,38.3832582 29.3022044,43.5573036 L29.4129945,44.4299561 L15.6613432,44.4299561 L15.7728528,43.5573036 Z M71.2909636,83.2374544 C71.3988761,83.4906891 71.5787303,83.69932 71.8103825,83.8403256 L85.4972863,92.0495903 C88.8555238,94.0769067 91.156938,97.4574461 91.8123267,101.324311 L91.9655624,102.228618 L61.3104949,102.228618 L61.3104949,59.6794332 L62.795371,63.4153644 L71.2909636,83.2374544 Z M83.6735648,79.8641092 L83.6735648,87.9050303 L73.525472,81.8166063 L72.6931068,79.8641092 L83.6735648,79.8641092 Z M69.6355856,63.6952175 L83.6735648,63.6952175 L83.6735648,77.2504681 L71.5643419,77.2504681 L69.6355856,72.7390056 L69.6355856,63.6952175 Z M69.6355856,61.0815764 L83.6735648,61.0815764 L83.6735648,47.0443166 L69.6355856,47.0443166 L69.6355856,61.0815764 Z M69.8902591,43.5573036 C70.5514031,38.3832582 72.6859127,33.5466194 76.0642938,29.5704029 L76.6542155,28.8768852 L77.2441373,29.5704029 C80.6232378,33.5473388 82.7584667,38.3839777 83.4188913,43.5573036 L83.5304009,44.4299561 L69.7787495,44.4299561 L69.8902591,43.5573036 Z M91.9986556,108.550853 L61.3104949,110.470256 L61.3104949,104.842259 L91.9986556,104.842259 L91.9986556,108.550853 Z M71.9175756,116.796807 L72.5492235,112.374553 L80.6930212,111.875997 L81.3908555,116.796807 L71.9175756,116.796807 Z M60.5680568,48.0162487 L60.311225,47.0443166 L67.0205057,47.0443166 L67.0205057,67.0426637 L65.5413848,63.1880287 L61.3644511,53.9571923 L61.3104949,53.7456837 L61.3104949,53.71331 C61.3068978,51.7895896 61.0565407,49.8723439 60.5680568,48.0162487 Z M58.6961343,108.472436 L50.903412,108.472436 L50.903412,98.5970022 L51.6775044,98.5970022 C55.5479666,98.5970022 58.6961343,101.745889 58.6961343,105.616352 L58.6961343,108.472436 Z M50.903412,116.796807 L58.6961343,116.796807 L58.6961343,111.086077 L50.903412,111.086077 L50.903412,116.796807 Z M87.0282052,126.002464 C82.2699827,126.002464 77.8225483,128.996677 76.2139325,133.284401 L76.0110569,133.825402 L75.4348041,133.783676 C75.224015,133.770007 75.0132259,133.762093 74.8024368,133.762093 C73.979424,133.762093 73.1636054,133.875042 72.375844,134.098781 L71.8866406,134.236909 L71.5650614,133.844107 C69.5039323,131.325429 66.4449723,129.882279 63.1723454,129.882279 C61.9248768,129.882279 60.7069042,130.088751 59.5508015,130.496661 L58.5191578,130.859966 L58.5191578,119.411887 L60.0033146,119.411887 C60.7241702,119.411887 61.3104949,118.824843 61.3104949,118.104707 L61.3104949,113.088214 L69.8816261,112.552968 L69.1240803,117.919817 C69.0226425,118.63204 69.5190401,119.296061 70.2319821,119.398218 C70.2909743,119.406851 70.3499664,119.411887 70.409678,119.411887 L82.9023501,119.411887 C83.6210474,119.411887 84.2059332,118.824843 84.2059332,118.104707 C84.2059332,118.041398 84.2008973,117.979529 84.1929837,117.918378 L83.3066623,111.714128 L93.3878494,111.088235 C94.0763312,111.04507 94.6151743,110.470256 94.6137355,109.778897 L94.6137355,103.536518 C94.5979083,97.9502466 91.6166453,92.6869935 86.8325238,89.8028518 L86.2872059,89.4697618 L86.2872059,47.1033088 C86.3087884,39.2695797 83.1390382,31.6106689 77.5952126,26.09562 C77.3398197,25.8546154 77.0052909,25.7215233 76.6542155,25.7215233 C76.3038596,25.7215233 75.9736473,25.8510183 75.7312038,26.0797928 C73.7974116,28.0207792 72.1420336,30.2157198 70.8089543,32.6020251 L69.6247943,34.7257434 L69.3636461,32.3085031 C67.9816465,19.5072013 61.041433,8.07351071 50.3214038,0.939774114 C50.1055788,0.795890762 49.8545024,0.719632585 49.5955123,0.719632585 C49.3372417,0.719632585 49.0868847,0.795890762 48.8703402,0.941212947 C38.1510305,8.07279129 31.2100976,19.5064819 29.8273786,32.3085031 L29.5669497,34.7264628 L28.3813509,32.6020251 C27.0482716,30.2121227 25.3957713,28.0207792 23.4763674,26.09562 C23.2216939,25.8546154 22.8886039,25.7215233 22.5368091,25.7215233 C22.1857338,25.7215233 21.8555215,25.8517377 21.6116392,26.0819511 C16.056303,31.6085106 12.8829556,39.2695797 12.9052576,47.1047476 L12.9052576,89.4783948 L12.3549037,89.80501 C7.57222111,92.6891518 4.59239689,97.950966 4.57944739,103.535079 L4.57944739,109.781055 C4.57728914,110.471695 5.11613229,111.04507 5.80533355,111.087516 L15.8850818,111.719883 L14.9994797,117.922695 C14.8987614,118.635637 15.3937201,119.298939 16.099468,119.398218 C16.1634961,119.406132 16.2282436,119.411887 16.2937105,119.411887 L28.7849437,119.411887 C29.5043605,119.411887 30.0892463,118.824843 30.0892463,118.104707 C30.0892463,118.042118 30.0849298,117.979529 30.0762968,117.917659 L29.3180315,112.552249 L37.8819686,113.088214 L37.8819686,118.104707 C37.8819686,118.824843 38.4682933,119.411887 39.1891489,119.411887 L40.6725862,119.411887 L40.6725862,130.86716 L39.6395038,130.500977 C38.4826816,130.09091 37.2647091,129.882279 36.0201181,129.882279 C32.7474912,129.882279 29.6885312,131.326148 27.6266827,133.844826 L27.3051034,134.237628 L26.8166194,134.0995 C26.0266998,133.875042 25.208723,133.762093 24.3878685,133.762093 C24.1777988,133.762093 23.9677291,133.770007 23.7576594,133.783676 L23.1814066,133.825402 L22.9778116,133.284401 C21.3691957,128.997396 16.9224807,126.003184 12.1635389,126.003184 C5.96000815,126.003184 0.719057052,130.977231 0.719057052,136.865657 C0.719057052,142.754084 5.96000815,147.728131 12.1635389,147.728131 L87.0282052,147.728131 C93.2324553,147.728131 98.472687,142.754084 98.472687,136.865657 C98.472687,130.977231 93.2317359,126.002464 87.0282052,126.002464 Z"/>
    <path fill="#1F282C" d="M49.5974548,53.1042517 C50.4219064,53.1042517 51.2096677,53.3603641 51.8751282,53.845251 C51.9736883,53.9157539 52.0700902,53.9927314 52.1628949,54.074745 L54.2261822,52.6985007 C53.0513746,51.3740544 51.3823277,50.6222639 49.5895412,50.6222639 C48.3701298,50.6222639 47.1852504,50.9805335 46.164398,51.6589435 C45.719079,51.9546238 45.3176444,52.3028215 44.9658496,52.6985007 L47.0291369,54.0754644 C47.7348848,53.4546077 48.6550188,53.1042517 49.5974548,53.1042517"/>
  </g>
</svg>
