<svg xmlns="http://www.w3.org/2000/svg" width="96" height="96" viewBox="0 0 96 96">
  <g fill="none" fill-rule="evenodd">
    <path fill="#B9E2ED" d="M48.308181,30.5484613 C44.7673927,30.5484613 41.886692,33.429162 41.886692,36.9699504 C41.886692,40.5114394 44.7673927,43.3914394 48.308181,43.3914394 C51.8482686,43.3914394 54.7296701,40.5114394 54.7296701,36.9699504 C54.7296701,33.429162 51.8482686,30.5484613 48.308181,30.5484613"/>
    <path fill="#FFF" d="M60.8286131 59.3725664L66.6748029 68.1422015 68.7349489 59.0193985C68.7433577 58.9836613 68.7531679 58.9465226 68.7650803 58.9107854 70.2225985 54.5368292 68.7629781 49.6835737 65.2957664 47.3690628 64.7891387 47.0320117 64.246073 46.7377051 63.6812847 46.4938511L62.780146 46.1056467 60.8286131 59.3725664zM32.9458686 46.4903474C32.3768759 46.7342015 31.8303066 47.0306102 31.3201752 47.3690628 27.8522628 49.6835737 26.3933431 54.5375299 27.8501606 58.9107854 27.8627737 58.9472234 27.8725839 58.9829606 27.8809927 59.0193985L29.940438 68.1422015 35.7873285 59.3725664 33.8484088 46.1028438 32.9458686 46.4903474zM41.4527299 66.0610336L55.1632117 66.0610336 58.545635 59.2947854 61.6715912 38.0402453C61.7416642 37.483165 61.7991241 36.9232818 61.8439708 36.3718073 62.3365839 30.3469314 61.5125255 24.0746978 59.5224526 18.7113109L59.1636788 17.7429022 58.3501314 18.3805664C55.4925547 20.6236029 51.9265401 21.8589898 48.3079708 21.8589898 44.6431533 21.8589898 41.0414015 20.5955737 38.1663066 18.3020847L37.3807883 17.6749314 36.9988905 18.6040993C36.2196788 20.4946686 35.6058394 22.4335883 35.1727883 24.3683036 34.4195036 27.7409168 34.2842628 32.742727 34.8287299 37.1124788L37.9539854 58.504362 44.529635 58.504362C45.1553869 58.504362 45.6648175 59.0137927 45.6648175 59.6395445 45.6648175 60.2652964 45.1553869 60.7740263 44.529635 60.7740263L38.8095766 60.7740263 41.4527299 66.0610336z"/>
    <path fill="#B9E2ED" d="M59.5226628,18.7116613 L59.1631883,17.7425518 L58.3503416,18.3809168 C55.4976701,20.6197489 51.9386628,21.854435 48.3271007,21.8586394 L48.3271007,30.549092 C51.8587796,30.5603036 54.7296701,33.4353985 54.7296701,36.9698803 C54.7296701,40.504362 51.8587796,43.3808584 48.3271007,43.3906686 L48.3271007,66.0613839 L55.1627212,66.0613839 L58.5458453,59.2951358 L61.6718015,38.0398949 C61.7418745,37.4835153 61.7993343,36.9236321 61.844181,36.3721577 C62.3367942,30.3472818 61.5127358,24.0750482 59.5226628,18.7116613"/>
    <path fill="#FFF" d="M11.848292,77.0211504 C7.11906569,77.0211504 2.97074453,80.9045956 2.97074453,85.3318073 C2.97074453,89.759019 7.11906569,93.6424642 11.848292,93.6424642 L84.7676496,93.6424642 C89.4968759,93.6424642 93.6451971,89.759019 93.6451971,85.3318073 C93.6451971,80.9045956 89.4968759,77.0211504 84.7676496,77.0211504 C81.2436788,77.0211504 77.8423358,79.1927124 76.4962336,82.3025518 L76.2159416,82.9500263 L76.8423942,83.272362 C77.649635,83.6892964 78.3790949,84.2211504 79.011854,84.8553109 C79.4547153,85.2974715 79.4533139,86.0178219 79.0104526,86.4599825 C78.7967299,86.6730044 78.5115328,86.7914277 78.2088175,86.7914277 C77.9047007,86.7914277 77.6195036,86.6730044 77.405781,86.458581 C76.6237664,85.675165 75.6504526,85.1054715 74.5909489,84.8118657 C74.027562,84.6556029 73.4459562,84.5764204 72.8629489,84.5764204 C71.9064526,84.5764204 70.9464526,84.7950482 70.0873577,85.2084788 C69.4321752,85.5231066 68.8407591,85.9435445 68.3278248,86.4578803 C68.1134015,86.6730044 67.8282044,86.7914277 67.5240876,86.7914277 C67.222073,86.7914277 66.9368759,86.6737051 66.7231533,86.4606832 C66.2795912,86.0185226 66.2788905,85.2981723 66.7203504,84.8560117 C66.9053431,84.6696175 67.107854,84.4853255 67.3208759,84.3073401 L67.9599416,83.7768876 L67.3692263,83.1924788 C65.8115036,81.6487708 63.7387445,80.7987854 61.5314453,80.7987854 C60.0641168,80.7987854 58.626219,81.1834861 57.3747153,81.9108438 L56.9998248,82.1294715 L56.9998248,87.2209752 C56.9998248,87.846727 56.4903942,88.3561577 55.8646423,88.3561577 C55.2381898,88.3561577 54.7294599,87.846727 54.7294599,87.2209752 L54.7294599,68.3313985 L41.8864818,68.3313985 L41.8864818,87.2209752 C41.8864818,87.846727 41.3777518,88.3561577 40.7512993,88.3561577 C40.1255474,88.3561577 39.6168175,87.846727 39.6168175,87.2209752 L39.6168175,82.1364788 L39.2433285,81.9171504 C37.993927,81.1855883 36.5553285,80.7987854 35.0837956,80.7987854 C32.8771971,80.7987854 30.8037372,81.6487708 29.2467153,83.1924788 L28.656,83.7768876 L29.2950657,84.3080409 C29.5073869,84.4846248 29.7098978,84.6682161 29.8955912,84.8560117 C30.3370511,85.2981723 30.3356496,86.0185226 29.8927883,86.4613839 C29.6790657,86.6737051 29.3945693,86.7914277 29.0925547,86.7914277 C28.7877372,86.7914277 28.5025401,86.6730044 28.2881168,86.4578803 C27.7751825,85.9435445 27.1837664,85.5238073 26.5299854,85.2098803 C25.6701898,84.7957489 24.7094891,84.5764204 23.7515912,84.5764204 C23.1797956,84.5764204 22.6094015,84.6528 22.0565255,84.8027562 L22.0018686,84.8174715 C20.9493723,85.1152818 19.9844672,85.6814715 19.2101606,86.458581 C18.9957372,86.6730044 18.7112409,86.7914277 18.4071241,86.7914277 C18.1044088,86.7914277 17.8192117,86.6730044 17.6047883,86.4599825 C17.3910657,86.2455591 17.2726423,85.9610628 17.2719416,85.6576467 C17.2712409,85.3542307 17.3889635,85.0690336 17.6033869,84.8553109 C18.2354453,84.2211504 18.9649051,83.6892964 19.7728467,83.272362 L20.3992993,82.9500263 L20.119708,82.3025518 C18.7729051,79.1927124 15.371562,77.0211504 11.848292,77.0211504 Z"/>
    <path fill="#B9E2ED" d="M84.7673693,77.0210803 C81.2433985,77.0210803 77.8420555,79.1933431 76.4959533,82.3024818 L76.2156613,82.9499562 L76.8421139,83.272292 C77.6500555,83.6892263 78.3795153,84.2210803 79.0115737,84.8552409 C79.2259971,85.0689635 79.3437197,85.3548613 79.3437197,85.6575766 C79.343019,85.9609927 79.2245956,86.2454891 79.0101723,86.4599124 C78.7964496,86.6729343 78.5112526,86.7913577 78.2085372,86.7913577 C77.9051212,86.7913577 77.6192234,86.6729343 77.4055007,86.4585109 C76.6234861,85.6757956 75.6501723,85.1054015 74.5906686,84.8117956 C74.0272818,84.6562336 73.4463766,84.5763504 72.8633693,84.5763504 C71.9061723,84.5763504 70.9461723,84.7949781 70.0870774,85.2091095 C69.4325956,85.5230365 68.8404788,85.9434745 68.3282453,86.4578102 C68.1131212,86.6729343 67.8279241,86.7913577 67.524508,86.7913577 C67.221092,86.7913577 66.9365956,86.673635 66.722873,86.4606131 C66.2793109,86.0184526 66.2786102,85.2988029 66.7200701,84.8559416 C66.9050628,84.6695474 67.106873,84.4852555 67.3205956,84.3079708 L67.9596613,83.7768175 L67.368946,83.1924088 C65.8119241,81.6487007 63.7384642,80.7994161 61.5318657,80.7994161 C60.0638365,80.7994161 58.6259387,81.1834161 57.374435,81.9114745 L56.9995445,82.1294015 L56.9995445,87.2209051 C56.9995445,87.8466569 56.4901139,88.3560876 55.8636613,88.3560876 C55.2386102,88.3560876 54.7291796,87.8466569 54.7291796,87.2209051 L54.7291796,82.1931679 C54.7291796,85.7388613 51.8540847,88.6146569 48.3076905,88.6146569 C44.7612964,88.6146569 41.8862015,85.7388613 41.8862015,82.1931679 L41.8862015,87.2209051 C41.8862015,87.8466569 41.3774715,88.3560876 40.7517197,88.3560876 C40.1252672,88.3560876 39.6158365,87.8466569 39.6158365,87.2209051 L39.6158365,82.1364088 L39.2430482,81.9170803 C37.9936467,81.1855182 36.5550482,80.7994161 35.0842161,80.7994161 C32.8769168,80.7994161 30.8034569,81.6487007 29.246435,83.1924088 L28.6557197,83.7768175 L29.2947854,84.3079708 C29.5078073,84.4852555 29.7103182,84.6695474 29.8953109,84.8559416 C30.3374715,85.2988029 30.3360701,86.0184526 29.892508,86.4613139 C29.6787854,86.673635 29.3949898,86.7913577 29.0922745,86.7913577 C28.7874569,86.7913577 28.5022599,86.6729343 28.2878365,86.4578102 C27.7749022,85.9434745 27.1834861,85.5237372 26.5304058,85.2105109 C25.6699095,84.7956788 24.7092088,84.5763504 23.7520117,84.5763504 C23.1711066,84.5763504 22.5923036,84.6555328 22.031019,84.8103942 L22.1704642,85.2931971 L22.0268146,84.8117956 C20.9659095,85.1054015 19.9918949,85.6750949 19.2098803,86.4585109 C18.9961577,86.6729343 18.7102599,86.7913577 18.4068438,86.7913577 C18.1041285,86.7913577 17.8189314,86.6729343 17.6052088,86.4599124 C17.3907854,86.2454891 17.2730628,85.9609927 17.272362,85.6575766 C17.272362,85.3548613 17.3900847,85.0689635 17.6038073,84.8552409 C18.2358657,84.2210803 18.9653255,83.6892263 19.7732672,83.272292 L20.3997197,82.9499562 L20.1194277,82.3024818 C18.7733255,79.1933431 15.3719825,77.0210803 11.8473109,77.0210803 C7.1187854,77.0210803 2.97046423,80.9045255 2.97046423,85.3317372 C2.97046423,89.7589489 7.1187854,93.6423942 11.8473109,93.6423942 L84.7673693,93.6423942 C89.4965956,93.6423942 93.6449168,89.7589489 93.6449168,85.3317372 C93.6449168,80.9045255 89.4965956,77.0210803 84.7673693,77.0210803"/>
    <path fill="#1F282C" d="M52.0863066 60.7743066C51.459854 60.7743066 50.9511241 60.2648759 50.9511241 59.6398248 50.9511241 59.0133723 51.459854 58.5046423 52.0863066 58.5046423 52.7120584 58.5046423 53.2207883 59.0133723 53.2207883 59.6398248 53.2207883 60.2648759 52.7120584 60.7743066 52.0863066 60.7743066M48.308181 38.2613255C47.5962394 38.2613255 47.0167358 37.6825226 47.0167358 36.9698803 47.0167358 36.2586394 47.5962394 35.678435 48.308181 35.678435 49.0201226 35.678435 49.5989255 36.2586394 49.5989255 36.9698803 49.5989255 37.6825226 49.0201226 38.2613255 48.308181 38.2613255"/>
    <path fill="#1F282C" d="M48.308181,30.5484613 C44.7673927,30.5484613 41.886692,33.429162 41.886692,36.9699504 C41.886692,40.5114394 44.7673927,43.3914394 48.308181,43.3914394 C51.8482686,43.3914394 54.7296701,40.5114394 54.7296701,36.9699504 C54.7296701,33.429162 51.8482686,30.5484613 48.308181,30.5484613 M48.308181,45.6611036 C43.5158891,45.6611036 39.6170277,41.7629431 39.6170277,36.9699504 C39.6170277,32.1776584 43.5158891,28.2787971 48.308181,28.2787971 C53.100473,28.2787971 56.9993343,32.1776584 56.9993343,36.9699504 C56.9993343,41.7629431 53.100473,45.6611036 48.308181,45.6611036"/>
    <path fill="#1F282C" d="M47.8356788,3.09063942 C44.1701606,6.2628438 41.0175766,10.1701139 38.7170803,14.3878073 L38.4346861,14.9063474 L38.8705401,15.3057635 C41.4597372,17.6721285 44.8120292,18.9754861 48.3079708,18.9754861 C51.7955036,18.9754861 55.1407883,17.6777343 57.7264818,15.3218803 L58.1574307,14.9294715 L57.8855474,14.4130336 C55.753927,10.3635153 52.3644964,6.13040584 48.8202044,3.08853723 L48.3268905,2.66529635 L47.8356788,3.09063942 Z M41.4527299,65.4478949 L55.1632117,65.4478949 L58.545635,58.6816467 L61.6715912,37.4271066 C61.7416642,36.8700263 61.7991241,36.3101431 61.8439708,35.7586686 C62.3365839,29.7337927 61.5125255,23.4615591 59.5224526,18.0981723 L59.1636788,17.1297635 L58.3501314,17.7674277 C55.4925547,20.0104642 51.9265401,21.2458511 48.3079708,21.2458511 C44.6431533,21.2458511 41.0414015,19.982435 38.1663066,17.688946 L37.3807883,17.0617927 L36.9988905,17.9909606 C36.2196788,19.8815299 35.6058394,21.8204496 35.1727883,23.755165 C34.4195036,27.1277781 34.2842628,32.1295883 34.8287299,36.4993401 L37.9539854,57.8912234 L44.529635,57.8912234 C45.1553869,57.8912234 45.6648175,58.400654 45.6648175,59.0264058 C45.6648175,59.6521577 45.1553869,60.1608876 44.529635,60.1608876 L38.8095766,60.1608876 L41.4527299,65.4478949 Z M60.8286131,58.7594277 L66.6748029,67.5290628 L68.7349489,58.4062599 C68.7433577,58.3705226 68.7531679,58.3333839 68.7650803,58.2976467 C70.2225985,53.9236905 68.7629781,49.070435 65.2957664,46.7559241 C64.7891387,46.418873 64.246073,46.1245664 63.6812847,45.8807124 L62.780146,45.492508 L60.8286131,58.7594277 Z M32.9458686,45.8772088 C32.3768759,46.1210628 31.8303066,46.4174715 31.3201752,46.7559241 C27.8522628,49.070435 26.3933431,53.9243912 27.8501606,58.2976467 C27.8627737,58.3340847 27.8725839,58.3698219 27.8809927,58.4062599 L29.940438,67.5290628 L35.7873285,58.7594277 L33.8484088,45.4897051 L32.9458686,45.8772088 Z M11.848292,76.4080117 C7.11906569,76.4080117 2.97074453,80.2914569 2.97074453,84.7186686 C2.97074453,89.1458803 7.11906569,93.0293255 11.848292,93.0293255 L84.7676496,93.0293255 C89.4968759,93.0293255 93.6451971,89.1458803 93.6451971,84.7186686 C93.6451971,80.2914569 89.4968759,76.4080117 84.7676496,76.4080117 C81.2436788,76.4080117 77.8423358,78.5795737 76.4962336,81.6894131 L76.2159416,82.3368876 L76.8423942,82.6592234 C77.649635,83.0761577 78.3790949,83.6080117 79.011854,84.2421723 C79.4547153,84.6843328 79.4533139,85.4046832 79.0104526,85.8468438 C78.7967299,86.0598657 78.5115328,86.1782891 78.2088175,86.1782891 C77.9047007,86.1782891 77.6195036,86.0598657 77.405781,85.8454423 C76.6237664,85.0620263 75.6504526,84.4923328 74.5909489,84.198727 C74.027562,84.0424642 73.4459562,83.9632818 72.8629489,83.9632818 C71.9064526,83.9632818 70.9464526,84.1819095 70.0873577,84.5953401 C69.4321752,84.9099679 68.8407591,85.3304058 68.3278248,85.8447416 C68.1134015,86.0598657 67.8282044,86.1782891 67.5240876,86.1782891 C67.222073,86.1782891 66.9368759,86.0605664 66.7231533,85.8475445 C66.2795912,85.4053839 66.2788905,84.6850336 66.7203504,84.242873 C66.9053431,84.0564788 67.107854,83.8721869 67.3208759,83.6942015 L67.9599416,83.1637489 L67.3692263,82.5793401 C65.8115036,81.0356321 63.7387445,80.1856467 61.5314453,80.1856467 C60.0641168,80.1856467 58.626219,80.5703474 57.3747153,81.2977051 L56.9998248,81.5163328 L56.9998248,86.6078365 C56.9998248,87.2335883 56.4903942,87.743019 55.8646423,87.743019 C55.2381898,87.743019 54.7294599,87.2335883 54.7294599,86.6078365 L54.7294599,67.7182599 L41.8864818,67.7182599 L41.8864818,86.6078365 C41.8864818,87.2335883 41.3777518,87.743019 40.7512993,87.743019 C40.1255474,87.743019 39.6168175,87.2335883 39.6168175,86.6078365 L39.6168175,81.5233401 L39.2433285,81.3040117 C37.993927,80.5724496 36.5553285,80.1856467 35.0837956,80.1856467 C32.8771971,80.1856467 30.8037372,81.0356321 29.2467153,82.5793401 L28.656,83.1637489 L29.2950657,83.6949022 C29.5073869,83.8714861 29.7098978,84.0550774 29.8955912,84.242873 C30.3370511,84.6850336 30.3356496,85.4053839 29.8927883,85.8482453 C29.6790657,86.0605664 29.3945693,86.1782891 29.0925547,86.1782891 C28.7877372,86.1782891 28.5025401,86.0598657 28.2881168,85.8447416 C27.7751825,85.3304058 27.1837664,84.9106686 26.5299854,84.5967416 C25.6701898,84.1826102 24.7094891,83.9632818 23.7515912,83.9632818 C23.1797956,83.9632818 22.6094015,84.0396613 22.0565255,84.1896175 L22.0018686,84.2043328 C20.9493723,84.5021431 19.9844672,85.0683328 19.2101606,85.8454423 C18.9957372,86.0598657 18.7112409,86.1782891 18.4071241,86.1782891 C18.1044088,86.1782891 17.8192117,86.0598657 17.6047883,85.8468438 C17.3910657,85.6324204 17.2726423,85.3479241 17.2719416,85.044508 C17.2712409,84.741092 17.3889635,84.4558949 17.6033869,84.2421723 C18.2354453,83.6080117 18.9649051,83.0761577 19.7728467,82.6592234 L20.3992993,82.3368876 L20.119708,81.6894131 C18.7729051,78.5795737 15.371562,76.4080117 11.848292,76.4080117 Z M11.848292,95.2989898 C5.80589781,95.2989898 0.700379562,90.4541431 0.700379562,84.7186686 C0.700379562,78.9831942 5.80589781,74.1383474 11.848292,74.1383474 C16.4829197,74.1383474 20.8141314,77.0547854 22.3816642,81.230435 L22.5799708,81.7573839 L23.1405547,81.7167416 C23.3451679,81.7034277 23.5504818,81.6957197 23.7550949,81.6957197 C24.5546277,81.6957197 25.3506569,81.8057343 26.1200584,82.024362 L26.595854,82.1589022 L26.909781,81.7763036 C28.9166715,79.3230482 31.8961752,77.9159825 35.0837956,77.9159825 C36.2967591,77.9159825 37.4837956,78.1191942 38.6098686,78.5193109 L39.6168175,78.8752818 L39.6168175,66.8507562 L36.8328175,61.2834569 L30.3615766,70.9899679 C30.1499562,71.3073985 29.7974891,71.4958949 29.4176934,71.4958949 C29.3497226,71.4958949 29.2803504,71.4895883 29.2109781,71.4769752 C28.7632117,71.3949898 28.4093431,71.054435 28.3098394,70.610873 L25.6870073,58.9941723 C23.9204672,53.5635153 25.7213431,47.7635737 30.0602628,44.8681577 C30.9508905,44.2746394 31.9157956,43.7988438 32.9283504,43.4526832 L33.5204672,43.2501723 L32.5814891,36.8237781 C32.1211095,33.1428438 31.9781606,27.6421139 32.9584818,23.2597489 C34.9107153,14.5342599 40.035854,6.45274161 47.3893139,0.504245255 L47.5574891,0.36760292 C47.7705109,0.186113869 48.0367883,0.0880116788 48.3121752,0.0880116788 C48.5511241,0.0880116788 48.7781606,0.160186861 48.9694599,0.298230657 C49.0276204,0.339573723 54.7665985,4.4998073 59.2610803,12.2113401 C63.3070949,19.162581 65.0498102,28.6960117 63.9230365,37.7123036 L63.1087883,43.2515737 L63.7016058,43.4554861 C64.7099562,43.8023474 65.6699562,44.2774423 66.5549781,44.8674569 C70.8945985,47.7635737 72.7010803,53.5445956 70.9471533,58.9276029 L68.3061022,70.6101723 C68.2058978,71.0537343 67.8527299,71.3942891 67.4049635,71.4769752 C67.336292,71.4895883 67.2669197,71.4958949 67.1989489,71.4958949 C66.8184526,71.4958949 66.4652847,71.3066978 66.254365,70.9899679 L59.7824234,61.2834569 L56.9991241,66.8507562 L56.9991241,78.8689752 L58.0039708,78.5151066 C59.1300438,78.117092 60.3170803,77.9159825 61.5314453,77.9159825 C64.718365,77.9159825 67.6978686,79.3223474 69.7061606,81.7756029 L70.0200876,82.1582015 L70.4951825,82.0236613 C71.2631825,81.8057343 72.0585109,81.6957197 72.8594453,81.6957197 C73.0647591,81.6957197 73.270073,81.7034277 73.4753869,81.7167416 L74.0366715,81.7573839 L74.2342774,81.230435 C75.8011095,77.0540847 80.1330219,74.1383474 84.7676496,74.1383474 C90.8107445,74.1383474 95.915562,78.9831942 95.915562,84.7186686 C95.915562,90.4541431 90.8107445,95.2989898 84.7683504,95.2989898 L11.848292,95.2989898 Z" transform="translate(0 .613)"/>
    <polygon fill="#1F282C" points="43.33 60.774 59.329 60.774 59.329 58.505 43.33 58.505"/>
    <path fill="#FFF" d="M47.8356788,3.7037781 C44.1701606,6.87598248 41.0175766,10.7832526 38.7170803,15.000946 L38.4346861,15.5194861 L38.8705401,15.9189022 C41.4597372,18.2852672 44.8120292,19.5886248 48.3079708,19.5886248 C51.7955036,19.5886248 55.1407883,18.290873 57.7264818,15.935019 L58.1574307,15.5426102 L57.8855474,15.0261723 C55.753927,10.976654 52.3644964,6.74354453 48.8202044,3.70167591 L48.3268905,3.27843504 L47.8356788,3.7037781 Z"/>
  </g>
</svg>
