<svg xmlns="http://www.w3.org/2000/svg" width="67" height="66" viewBox="0 0 67 66">
    <g fill="none" fill-rule="evenodd">
        <path fill="#FFF" d="M4.188 24.239a3.59 3.59 0 0 1 4.477 2.917l1.109 7.157A1.15 1.15 0 0 0 12 34.5l7.5 7.5c.292 1.633.292 2.967 0 4-.55 1.94 5.138 3.125 4.5 4.5-.322.693 1.197 5.257.5 6-2.57 2.74-10.01 1.715-10.5 2.5-1.099 1.758-1.766.425-2-4-1.63-2.033-2.963-3.533-4-4.5a75.824 75.824 0 0 1-2.667-2.631 4 4 0 0 1-1.056-2.03L1.079 29.202c-.154-.805-.124-1.554.072-2.219a3.723 3.723 0 0 1 1.073-1.711c.512-.467 1.173-.821 1.964-1.033zM62.645 24.225a3.59 3.59 0 0 0-4.477 2.918l-1.109 7.156a1.15 1.15 0 0 1-2.226.188l-7.5 7.5c-.293 1.633-.293 2.967 0 4 .55 1.94-5.138 3.125-4.5 4.5.321.693-1.197 5.257-.5 6 2.57 2.74 10.009 1.714 10.5 2.5 1.099 1.758 1.765.425 2-4 1.63-2.033 2.963-3.533 4-4.5a75.824 75.824 0 0 0 2.666-2.631 4 4 0 0 0 1.057-2.03l3.197-16.637c.155-.805.125-1.554-.072-2.219a3.723 3.723 0 0 0-1.072-1.712c-.512-.467-1.173-.82-1.964-1.033z"/>
        <g fill-rule="nonzero" transform="translate(-1)">
            <path fill="#CEEAF2" d="M41.7 25.8l-17.13.18-3.18-12h26.085l-1.395 8.145A4.5 4.5 0 0 1 41.7 25.8z"/>
            <path fill="#3DAFCC" d="M26.175 7.335h17.79v6.585h-17.79z"/>
            <path fill="#3DAFCC" d="M30.12.765h9.885V7.35H30.12z"/>
            <path fill="#CEEAF2" d="M30.105 32.25a2.25 2.25 0 1 0-4.5 0c0 .203.03.406.09.6a2.19 2.19 0 0 0 2.19 1.65 2.22 2.22 0 0 0 2.22-2.25z"/>
            <circle cx="40.83" cy="32.25" r="2.22" fill="#CEEAF2"/>
            <path fill="#1F282C" d="M44.505 30.78h-16.29a4.11 4.11 0 0 1-4.02-3.165L19.5 10.17h-5.01a.765.765 0 1 1 0-1.5h5.64a.75.75 0 0 1 .735.57l4.785 18a2.64 2.64 0 0 0 2.565 2.01h16.29c.417.008.75.348.75.765a.75.75 0 0 1-.75.765z"/>
            <path fill="#1F282C" d="M39.735 26.745H24.57a.75.75 0 0 1-.75-.765.75.75 0 0 1 .75-.75h15.165c2.88 0 4.5-.15 5.31-3.24l1.5-7.32H21.39a.765.765 0 1 1 0-1.5h26.085a.765.765 0 0 1 .75.915L46.5 22.35c-1.155 4.08-3.54 4.395-6.765 4.395zM27.87 35.235a3 3 0 0 1-3-2.505.78.78 0 0 1 .63-.87.75.75 0 0 1 .87.63 1.5 1.5 0 0 0 1.5 1.23 1.5 1.5 0 0 0 0-3 .75.75 0 0 1-.75-.75c0-.417.333-.757.75-.765a3 3 0 0 1 0 6v.03zM40.83 35.235a3 3 0 0 1-2.79-1.92.75.75 0 0 1 .435-.975.765.765 0 0 1 .99.435 1.5 1.5 0 1 0 1.365-1.995.75.75 0 0 1-.765-.75c0-.422.343-.765.765-.765a3 3 0 0 1 0 6v-.03z"/>
            <path fill="#1F282C" d="M43.965 14.67h-17.79a.765.765 0 0 1-.765-.75V7.335a.75.75 0 0 1 .765-.75h17.79a.75.75 0 0 1 .75.75v6.585a.765.765 0 0 1-.75.75zM27 13.155h16.2V8.1H27v5.055z"/>
            <path fill="#1F282C" d="M40.005 8.1H30.12a.75.75 0 0 1-.75-.765V.75a.75.75 0 0 1 .75-.75h9.885c.417 0 .757.333.765.75v6.585a.765.765 0 0 1-.765.765zm-9.12-1.5h8.37V1.5h-8.37v5.1zM13.725 31.095a.765.765 0 0 1-.75-.765v-1.395a.765.765 0 0 1 1.5 0v1.395a.765.765 0 0 1-.75.765zM13.725 25.26a.75.75 0 0 1-.75-.75V19.5a.765.765 0 0 1 1.5 0v4.965a.75.75 0 0 1-.75.795zM18.105 26.55a.765.765 0 0 1-.765-.765V16.5c0-.422.343-.765.765-.765a.75.75 0 0 1 .75.765v9.255a.75.75 0 0 1-.75.795zM55.275 31.095a.765.765 0 0 1-.765-.765v-1.395a.75.75 0 0 1 .765-.75.75.75 0 0 1 .75.75v1.395a.75.75 0 0 1-.75.765zM55.275 25.26a.75.75 0 0 1-.765-.75V19.5a.765.765 0 0 1 .765-.75.75.75 0 0 1 .75.75v4.965a.75.75 0 0 1-.75.795zM50.895 26.55a.75.75 0 0 1-.75-.765V16.5a.75.75 0 0 1 .75-.765c.422 0 .765.343.765.765v9.255a.765.765 0 0 1-.765.795z"/>
            <path fill="#CEEAF2" d="M12.133 59.244l15.472-2.784 1.078 5.994-15.472 2.784z"/>
            <path fill="#1F282C" d="M16.995 49.83a.78.78 0 0 1-.57-.255L8.52 40.65a3.93 3.93 0 0 1 .75-5.715 4.275 4.275 0 0 1 6 .825l4.995 5.865a.765.765 0 0 1-.075 1.065.78.78 0 0 1-1.08-.075l-5.07-5.91a2.745 2.745 0 0 0-3.855-.555 2.385 2.385 0 0 0-.495 3.54l7.875 8.88a.765.765 0 0 1-.57 1.26z"/>
            <path fill="#1F282C" d="M14.19 59.64a.765.765 0 0 1-.75-.63 9.405 9.405 0 0 0-2.34-4.725L6.33 49.08a6.78 6.78 0 0 1-1.68-3.39L1.575 28.5a4.26 4.26 0 1 1 8.37-1.5l1.395 7.815a.762.762 0 1 1-1.5.27L8.43 27.27A2.762 2.762 0 0 0 3 28.29l3.135 17.13c.2.973.673 1.868 1.365 2.58l4.71 5.25a10.995 10.995 0 0 1 2.565 4.755l9.885-1.785-1.065-6.135a.76.76 0 1 1 1.5-.255l1.2 6.885a.75.75 0 0 1-.6.87l-11.37 2.04-.135.015z"/>
            <path fill="#1F282C" d="M13.215 66a.765.765 0 0 1-.75-.615l-1.065-6a.765.765 0 0 1 .6-.885l15.465-2.775a.705.705 0 0 1 .57.12c.166.11.28.284.315.48l1.08 6a.75.75 0 0 1-.615.885L13.35 66h-.135zm-.195-6.135l.81 4.5 13.965-2.52-.795-4.5-13.98 2.52z"/>
            <path fill="#CEEAF2" d="M55.782 65.245L40.311 62.46l1.078-5.994 15.472 2.784z"/>
            <path fill="#1F282C" d="M52.005 49.83a.78.78 0 0 0 .57-.255l7.905-8.925a3.93 3.93 0 0 0-.75-5.715 4.275 4.275 0 0 0-6 .825l-4.995 5.865a.765.765 0 0 0 .075 1.065.78.78 0 0 0 1.08-.075l5.025-5.91a2.745 2.745 0 0 1 3.855-.555 2.385 2.385 0 0 1 .495 3.54l-7.875 8.88a.765.765 0 0 0 .57 1.26h.045z"/>
            <path fill="#1F282C" d="M54.81 59.64a.765.765 0 0 0 .75-.63 9.405 9.405 0 0 1 2.34-4.725l4.77-5.205a6.78 6.78 0 0 0 1.68-3.39L67.5 28.5a4.26 4.26 0 1 0-8.37-1.5l-1.395 7.815a.762.762 0 1 0 1.5.27l1.41-7.815a2.736 2.736 0 1 1 5.385.975L62.865 45.42A5.205 5.205 0 0 1 61.5 48l-4.71 5.25a10.995 10.995 0 0 0-2.565 4.755L44.34 56.22l1.065-6.135a.76.76 0 1 0-1.5-.255l-1.2 6.885a.75.75 0 0 0 .6.87l11.355 2.04.15.015z"/>
            <path fill="#1F282C" d="M55.65 66l-15.465-2.79a.75.75 0 0 1-.615-.885l1.08-6a.735.735 0 0 1 .315-.48.705.705 0 0 1 .57-.12L57 58.5a.765.765 0 0 1 .6.885l-1.065 6a.765.765 0 0 1-.75.615h-.135zM42 57.345l-.795 4.5 13.965 2.52.81-4.5L42 57.345zM24 50.475a5.475 5.475 0 1 1 4.77-9 6.27 6.27 0 0 1 11.58 0 5.46 5.46 0 1 1 4.77 9 .75.75 0 0 1-.84-.66.735.735 0 0 1 .66-.84 3.96 3.96 0 1 0-4.17-5.31.765.765 0 0 1-1.5-.195 4.755 4.755 0 0 0-9.48 0 .75.75 0 0 1-.66.675.72.72 0 0 1-.81-.48 3.945 3.945 0 1 0-4.17 5.31.735.735 0 0 1 .66.84.75.75 0 0 1-.81.66z"/>
        </g>
    </g>
</svg>
