<svg width="328" height="240" viewBox="0 0 328 240" fill="none" xmlns="http://www.w3.org/2000/svg">
<mask id="mask0" mask-type="alpha" maskUnits="userSpaceOnUse" x="0" y="0" width="328" height="240">
<rect width="328" height="240" fill="#C4C4C4"/>
</mask>
<g mask="url(#mask0)">
<path d="M110.457 60.3767C109.526 91.8678 134.358 118.168 165.902 119.137C168.618 119.214 171.295 119.098 173.933 118.827C172.536 122.739 172.459 127.542 173.894 133.352C181.693 164.533 247.303 208.574 320.401 231.699C350.703 241.266 377.514 245.759 398 245.488C383.295 242.97 366.999 239.02 349.617 233.519C276.48 210.395 212.228 169.22 206.098 141.564C196.631 98.9174 294.134 124.753 332.778 138.581C299.682 123.01 242.026 104.185 205.749 104.573C209.241 101.474 212.306 97.949 214.944 94.0756C241.173 98.685 270.311 105.851 301.001 115.651L305.735 117.161C283.231 106.548 258.594 96.787 232.792 88.5753C228.524 87.2196 224.295 85.9027 220.105 84.7019C222.898 78.272 224.528 71.1836 224.76 63.7466C225.692 32.2556 200.86 5.95494 169.316 5.02531C137.733 4.09569 111.389 28.8857 110.457 60.3767ZM134.358 47.8655C133.659 71.3773 152.206 91.0156 175.757 91.7128C185.34 91.9839 194.264 89.1176 201.558 84.0047C193.721 96.0511 179.947 103.837 164.505 103.372C140.954 102.675 122.408 83.0363 123.106 59.5246C123.533 45.5415 130.633 33.3789 141.264 25.9031C137.074 32.2556 134.591 39.77 134.358 47.8655ZM136.957 129.208C119.575 123.436 105.995 109.608 100.525 92.2551C90.3593 97.6779 84.8109 105.502 85.0049 115.651C85.7033 154.811 171.683 213.804 276.985 247.386C314.698 259.433 349.772 266.56 379.26 269C365.835 265.591 351.945 261.602 337.744 257.07C225.498 221.241 135.599 164.378 136.919 130.021L136.957 129.208ZM337.861 150.899C324.048 143.384 307.947 136.451 291.069 131.144C245.829 116.851 212.383 119.408 216.341 136.916C219.911 152.564 252.308 174.875 291.534 189.633C261.969 176.038 239.892 157.716 238.806 144.392C237.487 127.968 268.798 125.45 308.722 138.775C318.927 142.184 328.704 146.29 337.667 150.821L337.861 150.899Z" fill="#E3DDD5"/>
<path d="M220.343 239.439C222.572 238.102 223.302 235.184 221.964 232.915L130.699 81.1565C129.362 78.9277 126.444 78.1983 124.175 79.5355C121.946 80.8728 121.216 83.7905 122.554 86.0597L213.818 237.859C215.196 240.087 218.114 240.817 220.343 239.439Z" fill="#E38874"/>
<path d="M152.016 125.811C154.245 124.474 154.975 121.557 153.637 119.287L130.699 81.1552C129.362 78.9265 126.444 78.1971 124.175 79.5343C121.946 80.8716 121.216 83.7892 122.554 86.0585L145.491 124.191C146.829 126.46 149.747 127.189 152.016 125.811Z" fill="#BF7172"/>
<path d="M136.09 101.214L137.751 100.201C139.534 99.107 140.102 96.7972 139.048 95.0142L130.497 80.7907C129.281 78.7645 126.606 78.0756 124.58 79.3318L123.851 79.7776C121.824 80.9933 121.135 83.6678 122.392 85.6939L130.943 99.9175C131.956 101.741 134.306 102.308 136.09 101.214Z" fill="#744A6A"/>
<path d="M135.036 97.6077C138.075 95.7842 139.048 91.8534 137.224 88.8142L132.969 81.7632C131.145 78.724 127.214 77.7515 124.175 79.575C121.135 81.3985 120.163 85.3293 121.986 88.3685L126.242 95.4195C128.065 98.4587 131.996 99.4312 135.036 97.6077Z" fill="#9D5D6F"/>
<path d="M139.534 112.237L145.856 108.428C147.153 107.658 147.558 105.996 146.788 104.699C146.018 103.403 144.357 102.997 143.06 103.767L136.738 107.577C135.441 108.347 135.036 110.008 135.806 111.305C136.576 112.602 138.237 113.007 139.534 112.237Z" fill="#9D5D6F"/>
<path d="M347.595 112.197C346.258 114.425 343.34 115.155 341.07 113.818L189.341 22.56C187.112 21.2228 186.382 18.3051 187.72 16.0359C189.057 13.8071 191.975 13.0777 194.244 14.4149L345.974 105.713C348.243 107.05 348.973 109.968 347.595 112.197Z" fill="#92586E"/>
<path d="M209.361 27.9487L208.347 29.6102C207.253 31.3932 204.943 31.9605 203.16 30.9069L188.935 22.3566C186.909 21.1409 186.22 18.4664 187.477 16.4402L187.922 15.7108C189.138 13.6847 191.813 12.9958 193.839 14.252L208.064 22.7618C209.847 23.8559 210.455 26.1657 209.361 27.9487Z" fill="#744A6A"/>
<path d="M205.754 26.8949C203.93 29.9341 199.999 30.9066 196.959 29.0831L189.908 24.8282C186.868 23.0047 185.896 19.0739 187.72 16.0347C189.543 12.9955 193.474 12.023 196.514 13.8465L203.565 18.1014C206.605 19.9249 207.577 23.8556 205.754 26.8949Z" fill="#9D5D6F"/>
<path d="M220.384 31.3932L216.574 37.7147C215.804 39.0115 214.143 39.4167 212.846 38.6468C211.549 37.8768 211.144 36.2154 211.914 34.9187L215.723 28.5971C216.493 27.3004 218.155 26.8951 219.452 27.6651C220.708 28.435 221.154 30.0964 220.384 31.3932Z" fill="#744A6A"/>
<path d="M125.626 78.9286C115.977 54.6341 127.851 27.118 152.147 17.4697C176.444 7.82137 203.962 19.6945 213.611 43.9891C223.26 68.2836 211.386 95.7998 187.089 105.448C162.793 115.096 135.275 103.223 125.626 78.9286Z" fill="#FED892"/>
<path d="M134.306 58.4217C135.724 60.6504 137.345 62.7576 139.169 64.7433C155.015 81.8439 181.924 83.2217 199.472 67.8635C201.498 66.0805 203.362 64.1354 204.983 62.0687C209.077 56.8818 217.344 60.3668 216.574 66.891C215.318 77.9537 210.171 88.5707 201.255 96.5942C181.762 114.181 151.975 112.641 134.428 93.1093C126.403 84.1942 122.391 73.091 122.27 61.9472C122.189 55.423 130.78 52.8295 134.306 58.4217Z" fill="#F19A6E"/>
<path d="M196.189 34.8778C181.519 20.2085 157.649 20.2085 142.979 34.8778C140.75 37.1066 138.845 39.5785 137.264 42.2124C135.968 44.4007 133.212 45.2517 130.942 44.117C130.902 44.117 130.861 44.0765 130.821 44.0765C128.389 42.7798 127.498 39.7 128.916 37.2687C131.267 33.2974 134.306 29.5693 137.953 26.2869C155.744 10.2399 183.099 10.1183 201.012 26.0843C202.633 27.5432 204.173 29.083 205.551 30.7039C207.375 32.8517 206.969 36.0935 204.7 37.7549C204.659 37.7549 204.659 37.7954 204.619 37.7954C202.592 39.2543 199.796 38.9301 198.175 37.0255C197.567 36.2961 196.919 35.5667 196.189 34.8778Z" fill="#FCF0D2"/>
<path opacity="0.8" d="M206.442 41.8071C206.483 41.7666 206.564 41.7261 206.605 41.6855C209.117 40.1052 212.481 41.1993 213.575 43.9548C214.061 45.211 214.507 46.4673 214.912 47.764C215.642 50.2359 214.223 52.8699 211.751 53.6398C211.67 53.6398 211.63 53.6803 211.549 53.6803C208.996 54.4503 206.321 53.032 205.551 50.479C205.267 49.5065 204.943 48.5744 204.578 47.6424C203.727 45.4947 204.497 43.0228 206.442 41.8071Z" fill="#FCF0D2"/>
<path d="M139.737 89.6249C141.479 88.6118 143.668 88.8145 145.208 90.1112C157.609 100.647 175.967 102.309 190.232 92.9478C191.164 92.3399 192.056 91.6916 192.907 91.0027C195.136 89.2197 198.418 89.7465 199.958 92.1373C199.958 92.1779 199.999 92.1779 199.999 92.2184C201.336 94.3256 200.85 97.0406 198.945 98.5805C197.851 99.4315 196.716 100.242 195.541 101.012C177.548 112.804 154.488 110.778 138.886 97.4864C136.373 95.3386 136.738 91.3269 139.615 89.6654C139.656 89.6654 139.696 89.6249 139.737 89.6249Z" fill="#D47776"/>
<path d="M133.415 71.6732C133.779 72.9294 134.185 74.2261 134.711 75.4418C135.684 77.9137 134.468 80.6693 131.996 81.6418C131.956 81.6823 131.875 81.6823 131.834 81.7229C129.403 82.6549 126.647 81.4797 125.674 79.0484C125.026 77.468 124.499 75.847 124.053 74.2261C123.283 71.4706 125.026 68.6745 127.863 68.1882C127.903 68.1882 127.984 68.1882 128.025 68.1477C130.456 67.8235 132.726 69.3229 133.415 71.6732Z" fill="#D47776"/>
<path opacity="0.5" d="M148.814 46.6707C148.733 46.5896 148.612 46.5086 148.531 46.4275C143.141 41.6458 143.951 33.0145 150.111 29.2864C159.027 23.8968 169.807 22.4785 179.736 25.2746C186.26 27.0981 189.381 34.4733 186.301 40.5112C186.26 40.5923 186.22 40.6328 186.179 40.7138C183.869 45.2524 178.682 47.6432 173.778 46.306C169.645 45.1713 165.106 45.7792 161.418 48.0079C157.446 50.3988 152.3 49.7909 148.814 46.6707Z" fill="#FCF0D2"/>
<path d="M200.445 21.9513C199.634 21.1409 198.297 21.1409 197.446 21.9513L130.051 89.3409C129.24 90.1514 129.24 91.4887 130.051 92.3396C130.861 93.1501 132.199 93.1501 133.05 92.3396L200.445 24.95C201.296 24.0991 201.296 22.7618 200.445 21.9513Z" fill="#E18574"/>
<path d="M209.117 30.6232C208.307 29.8128 206.969 29.8128 206.118 30.6232L138.764 98.0128C137.953 98.8233 137.953 100.161 138.764 101.012C139.574 101.822 140.912 101.822 141.763 101.012L209.117 33.6219C209.968 32.7709 209.968 31.4337 209.117 30.6232Z" fill="#E18574"/>
<path d="M200.445 21.9513C199.634 21.1409 198.297 21.1409 197.446 21.9513L180.789 38.6063C179.979 39.4167 179.979 40.754 180.789 41.605C181.6 42.4154 182.937 42.4154 183.788 41.605L200.445 24.95C201.296 24.0991 201.296 22.7618 200.445 21.9513Z" fill="#FEBC74"/>
<path d="M209.117 30.6232C208.307 29.8128 206.969 29.8128 206.118 30.6232L192.947 43.7932C192.137 44.6036 192.137 45.9409 192.947 46.7919C193.758 47.6023 195.095 47.6023 195.946 46.7919L209.117 33.6219C209.968 32.7709 209.968 31.4337 209.117 30.6232Z" fill="#FEBC74"/>
<path d="M151.246 61.2179C152.138 62.1095 153.637 62.1095 154.529 61.2179C155.42 60.3263 155.42 58.8269 154.529 57.9353C153.637 57.0437 152.138 57.0437 151.246 57.9353C150.355 58.8269 150.355 60.3263 151.246 61.2179Z" fill="#FCA86A"/>
<path d="M144.195 68.2684C145.086 69.16 146.586 69.16 147.477 68.2684C148.369 67.3769 148.369 65.8774 147.477 64.9858C146.586 64.0942 145.086 64.0942 144.195 64.9858C143.262 65.9179 143.262 67.3769 144.195 68.2684Z" fill="#FCA86A"/>
<path d="M137.103 75.3605C137.994 76.252 139.494 76.252 140.385 75.3605C141.277 74.4689 141.277 72.9694 140.385 72.0779C139.494 71.1863 137.994 71.1863 137.103 72.0779C136.211 72.9694 136.211 74.4284 137.103 75.3605Z" fill="#E18574"/>
<path d="M169.361 43.104C170.253 43.9956 170.253 45.495 169.361 46.3866C168.47 47.2782 166.97 47.2782 166.079 46.3866C165.187 45.495 165.187 43.9956 166.079 43.104C166.97 42.2124 168.429 42.2124 169.361 43.104Z" fill="#FCA86A"/>
<path d="M176.413 36.0531C177.304 36.9447 177.304 38.4441 176.413 39.3357C175.521 40.2273 174.022 40.2273 173.13 39.3357C172.238 38.4441 172.238 36.9447 173.13 36.0531C174.022 35.121 175.521 35.121 176.413 36.0531Z" fill="#FCA86A"/>
<path d="M183.505 28.9621C184.396 29.8537 184.396 31.3532 183.505 32.2448C182.613 33.1363 181.114 33.1363 180.222 32.2448C179.331 31.3532 179.331 29.8537 180.222 28.9621C181.114 28.0706 182.573 28.0706 183.505 28.9621Z" fill="#FEBC74"/>
<path d="M190.556 21.9106C191.448 22.8022 191.448 24.3017 190.556 25.1932C189.665 26.0848 188.165 26.0848 187.274 25.1932C186.382 24.3017 186.382 22.8022 187.274 21.9106C188.165 21.019 189.665 21.019 190.556 21.9106Z" fill="#FEBC74"/>
<path d="M169.847 79.818C168.956 78.9264 168.956 77.427 169.847 76.5354C170.739 75.6438 172.239 75.6438 173.13 76.5354C174.022 77.427 174.022 78.9264 173.13 79.818C172.239 80.7501 170.78 80.7501 169.847 79.818Z" fill="#FCA86A"/>
<path d="M162.796 86.9095C161.904 86.018 161.904 84.5185 162.796 83.6269C163.688 82.7354 165.187 82.7354 166.079 83.6269C166.97 84.5185 166.97 86.018 166.079 86.9095C165.187 87.8011 163.688 87.8011 162.796 86.9095Z" fill="#E18574"/>
<path d="M155.704 93.9606C154.812 93.069 154.812 91.5695 155.704 90.678C156.595 89.7864 158.095 89.7864 158.986 90.678C159.878 91.5695 159.878 93.069 158.986 93.9606C158.095 94.8521 156.636 94.8521 155.704 93.9606Z" fill="#E18574"/>
<path d="M187.963 61.7043C187.071 60.8128 185.572 60.8128 184.68 61.7043C183.789 62.5959 183.789 64.0954 184.68 64.9869C185.572 65.8785 187.071 65.8785 187.963 64.9869C188.854 64.0954 188.854 62.6364 187.963 61.7043Z" fill="#FCA86A"/>
<path d="M195.014 54.6533C194.123 53.7617 192.623 53.7617 191.732 54.6533C190.84 55.5449 190.84 57.0443 191.732 57.9359C192.623 58.8275 194.123 58.8275 195.014 57.9359C195.946 57.0443 195.946 55.5854 195.014 54.6533Z" fill="#FCA86A"/>
<path d="M202.106 47.6023C201.215 46.7107 199.715 46.7107 198.824 47.6023C197.932 48.4938 197.932 49.9933 198.824 50.8849C199.715 51.7765 201.215 51.7765 202.106 50.8849C202.998 49.9528 202.998 48.4938 202.106 47.6023Z" fill="#FCA86A"/>
<path d="M209.158 40.5107C208.266 39.6191 206.767 39.6191 205.875 40.5107C204.984 41.4023 204.984 42.9018 205.875 43.7933C206.767 44.6849 208.266 44.6849 209.158 43.7933C210.09 42.9018 210.09 41.4428 209.158 40.5107Z" fill="#FEBC74"/>
<path d="M314.85 206.736C316.714 204.872 316.714 201.873 314.85 200.05L162.431 47.6026C160.567 45.7386 157.568 45.7386 155.744 47.6026C153.88 49.4667 153.88 52.4654 155.744 54.2889L308.163 206.736C310.027 208.56 313.026 208.56 314.85 206.736Z" fill="#BF7172"/>
<path opacity="0.8" d="M271.528 163.376C273.392 161.512 273.392 158.513 271.528 156.69L232.46 117.626C230.596 115.762 227.597 115.762 225.774 117.626C223.909 119.49 223.909 122.489 225.774 124.312L264.841 163.376C266.664 165.24 269.663 165.24 271.528 163.376Z" fill="#E18574"/>
<path opacity="0.8" d="M292.479 184.327C294.344 182.463 294.344 179.464 292.479 177.641L284.779 169.941C282.915 168.077 279.916 168.077 278.093 169.941C276.228 171.805 276.228 174.804 278.093 176.628L285.793 184.327C287.616 186.191 290.656 186.191 292.479 184.327Z" fill="#E18574"/>
<path d="M172.482 65.7161L173.86 64.3383C175.319 62.8795 175.319 60.4886 173.86 58.9893L162.107 47.2782C160.405 45.5762 157.69 45.5762 156.028 47.2782L155.42 47.886C153.718 49.588 153.718 52.303 155.42 53.9645L167.173 65.6756C168.632 67.2155 171.023 67.2155 172.482 65.7161Z" fill="#9D5D6F"/>
<path d="M170.618 62.474C173.13 59.9616 173.13 55.9498 170.618 53.4374L164.782 47.6021C162.269 45.0897 158.217 45.0897 155.745 47.6021C153.232 50.1145 153.232 54.1668 155.745 56.6387L161.58 62.474C164.052 64.9864 168.105 64.9864 170.618 62.474Z" fill="#E89A7C"/>
<path d="M178.52 75.5629L183.707 70.376C184.761 69.3224 184.761 67.5799 183.707 66.5263C182.654 65.4727 180.911 65.4727 179.857 66.5263L174.67 71.7132C173.616 72.7668 173.616 74.5093 174.67 75.5629C175.724 76.6165 177.426 76.6165 178.52 75.5629Z" fill="#9D5D6F"/>
</g>
</svg>
