<svg width="328" height="240" viewBox="0 0 328 240" fill="none" xmlns="http://www.w3.org/2000/svg">
<mask id="mask0" mask-type="alpha" maskUnits="userSpaceOnUse" x="0" y="0" width="328" height="240">
<rect width="328" height="240" fill="#C4C4C4"/>
</mask>
<g mask="url(#mask0)">
<path d="M204.262 70.1747C227.387 67.6179 244.635 76.7394 242.838 90.5599C241.041 104.38 220.819 117.648 197.729 120.205C174.604 122.762 157.355 113.64 159.153 99.8197C159.706 95.6044 161.987 91.4237 165.513 87.5885C164.891 88.9015 164.441 90.2144 164.268 91.5274C162.989 101.167 175.053 107.525 191.161 105.762C207.269 103.966 221.372 94.7061 222.651 85.0663C222.755 84.2371 222.755 83.4078 222.686 82.6131C221.13 90.1108 210.138 97.1592 197.59 98.5413C184.663 99.9579 175.019 94.8788 176.021 87.1394C177.023 79.4344 188.327 72.0059 201.22 70.5547C202.222 70.4165 203.225 70.2783 204.262 70.1747ZM148.333 153.029C238.794 157.278 301.497 98.5413 303.606 60.2585C303.917 54.9376 302.707 50.0658 300.184 45.7124C288.57 25.7763 248.472 17.6222 191.334 35.8998C225.278 17.4494 303.571 7.8442 323.378 34.2759C332.02 45.7815 329.531 64.0937 307.443 91.4928C273.879 133.231 194.721 164.914 148.333 153.029ZM191.507 65.303C216.395 52.0698 289.883 35.7271 284.387 73.4916C281.794 91.1473 251.549 116.923 223.861 123.833C244.705 115.679 260.329 99.8888 261.158 84.3753C262.852 52.3117 213.837 54.4539 191.507 65.303ZM145.914 98.8522C142.353 123.245 171.458 138.275 210.968 132.402L212.627 132.16C204.296 135.753 195.413 138.379 186.322 139.726C149.267 145.22 123.1 127.461 127.87 100.027C136.892 48.3728 234.646 27.8494 260.19 36.8673C210.657 35.6234 151.755 59.0146 145.914 98.8522ZM118.883 151.439C156.698 181.119 259.119 159.801 313.872 104.415C236.27 198.567 19.6422 222.477 61.2602 127.703C80.4101 84.1334 150.476 31.7537 208.894 23.6687C147.988 40.2533 61.5368 106.35 118.883 151.439Z" fill="#E3DDD5"/>
<path d="M77.0855 144.933L150.016 71.0679L144.776 66.1512L71.8457 140.016L77.0855 144.933Z" fill="#70575C"/>
<path d="M115.647 86.8042L129.975 100.256C131.854 98.3543 131.781 95.326 129.831 93.4948L122.558 86.6634C120.632 84.8323 117.525 84.9027 115.647 86.8042Z" fill="#876C72"/>
<path d="M127.206 80.3483C127.976 79.5736 129.253 79.5502 130.047 80.3014L136.092 85.959C136.886 86.7103 136.911 87.9545 136.14 88.7292C135.369 89.5039 134.093 89.5274 133.298 88.7761L127.254 83.1185C126.459 82.3673 126.435 81.123 127.206 80.3483Z" fill="#876C72"/>
<path d="M99.0552 75.8644L68.4963 106.829C67.1959 108.167 67.22 110.256 68.5926 111.548L106.424 147.019C107.797 148.287 109.94 148.264 111.264 146.926L141.823 115.984C143.124 114.646 143.1 112.557 141.727 111.266L103.896 75.7705C102.547 74.5028 100.38 74.5497 99.0552 75.8644Z" fill="#6091D8"/>
<path d="M113.889 85.1372L103.895 75.7703C102.522 74.5026 100.379 74.5261 99.0547 75.8642L68.4958 106.829C67.1954 108.167 67.2195 110.256 68.5921 111.547L77.9115 120.28C81.0902 123.262 86.3158 122.276 88.1459 118.379L102.787 87.2265C104.762 83.0009 110.445 81.9445 113.889 85.1372Z" fill="#5966AE"/>
<path d="M108.206 147.912C107.556 147.794 106.93 147.513 106.424 147.02C106.93 147.513 107.556 147.794 108.206 147.912Z" fill="#5966AE"/>
<path d="M125.424 132.59L127.646 130.341L84.8921 90.2279L82.6708 92.4774L125.424 132.59Z" fill="#97C1FF"/>
<path d="M103.221 107.416L102.089 106.36C101.439 105.749 100.355 105.796 99.7772 106.477L99.7531 106.5C99.2233 107.134 99.2473 108.05 99.8735 108.613L101.005 109.67C101.535 110.163 102.354 110.233 102.98 109.857L103.004 109.834C103.847 109.294 103.968 108.097 103.221 107.416Z" fill="#83AFF1"/>
<path d="M88.6577 130.348L123.964 94.5928L121.656 92.4276L86.35 128.183L88.6577 130.348Z" fill="#97C1FF"/>
<path d="M86.3641 128.192L97.4896 116.923C98.1157 116.29 99.1271 116.29 99.7533 116.876C100.403 117.487 100.403 118.473 99.8014 119.083L88.6759 130.352L86.3641 128.192Z" fill="#7CA9EC"/>
<path d="M82.6802 92.4619L94.769 103.801C95.4192 104.411 96.4306 104.388 97.0326 103.754C97.6587 103.12 97.6346 102.134 96.9844 101.547L84.8957 90.2082L82.6802 92.4619Z" fill="#6091D8"/>
<path d="M111.938 85.8884L111.914 85.9119C111.24 86.6396 111.288 87.743 112.01 88.4238L112.829 89.175C113.576 89.8793 114.78 89.8324 115.478 89.1046L115.503 89.0811C116.177 88.3534 116.153 87.25 115.43 86.5692L114.611 85.818C113.841 85.0903 112.637 85.1372 111.938 85.8884Z" fill="#7CA9EC"/>
<path d="M111.264 146.926C109.964 148.264 107.796 148.287 106.424 147.019L102.763 143.592C102.041 142.911 101.993 141.784 102.691 141.057L102.715 141.033C103.414 140.282 104.618 140.258 105.364 140.963L108.254 143.686C108.543 143.968 109.024 143.944 109.313 143.662L117.597 135.282C118.272 134.601 119.403 134.53 120.126 135.164L120.15 135.188C120.969 135.868 121.017 137.066 120.27 137.817L111.264 146.926Z" fill="#7CA9EC"/>
<path d="M115.117 139.39C115.117 139.413 115.117 139.413 115.141 139.437C115.671 140.611 117.261 140.869 118.176 139.953L141.823 116.008C143.124 114.67 143.1 112.581 141.727 111.289L119.741 90.6542C118.994 89.95 117.766 89.9969 117.068 90.7481L117.044 90.7716C116.37 91.4994 116.418 92.6027 117.14 93.2835L138.356 113.191C138.645 113.473 138.669 113.919 138.38 114.224L115.479 137.418C114.949 137.934 114.828 138.709 115.117 139.39Z" fill="#97C1FF"/>
<path d="M125.64 132.371L128.458 129.507C129.06 128.896 129.156 127.934 128.65 127.229L128.626 127.206C127.952 126.267 126.579 126.15 125.76 126.971L122.919 129.835C122.268 130.493 122.22 131.502 122.798 132.206C122.822 132.23 122.846 132.253 122.87 132.3C123.593 133.122 124.893 133.145 125.64 132.371Z" fill="#D2E9FF"/>
<path d="M141.823 115.985C143.124 114.647 143.1 112.557 141.727 111.266L134.816 104.763C134.093 104.083 132.937 104.083 132.215 104.787L132.191 104.81C131.444 105.515 131.468 106.688 132.215 107.393L138.356 113.168C138.645 113.449 138.669 113.895 138.38 114.201L130.096 122.581C129.422 123.262 129.397 124.366 130.072 125.07L130.096 125.093C130.818 125.845 132.046 125.868 132.793 125.117L141.823 115.985Z" fill="#D2E9FF"/>
<path d="M59.5138 115.914L28.9548 146.879C27.6545 148.217 27.6785 150.306 29.0512 151.597L66.8826 187.069C68.2552 188.337 70.3984 188.313 71.7229 186.975L102.282 156.034C103.582 154.696 103.558 152.607 102.186 151.316L64.3541 115.82C63.0055 114.553 60.8382 114.6 59.5138 115.914Z" fill="#6091D8"/>
<path d="M77.6226 140.775C79.6214 136.55 85.3045 135.493 88.7481 138.709L64.3539 115.821C62.9813 114.553 60.8381 114.576 59.5136 115.914L28.9547 146.879C27.6543 148.217 27.6784 150.306 29.051 151.598L52.7709 173.853C55.9496 176.834 61.1752 175.848 63.0054 171.951L77.6226 140.775Z" fill="#5966AE"/>
<path d="M85.8829 172.642L88.1042 170.393L45.3507 130.28L43.1294 132.529L85.8829 172.642Z" fill="#97C1FF"/>
<path d="M74.2751 159.744L74.2511 159.767C73.7453 160.401 73.7935 161.293 74.3955 161.856L75.9128 163.288C76.5631 163.899 77.6227 163.852 78.2248 163.194L78.2489 163.171C78.8028 162.561 78.7547 161.622 78.1526 161.035L76.6353 159.603C75.961 158.969 74.8531 159.039 74.2751 159.744Z" fill="#83AFF1"/>
<path d="M49.1152 170.4L84.4213 134.645L82.1136 132.48L46.8075 168.235L49.1152 170.4Z" fill="#97C1FF"/>
<path d="M82.5835 136.526C81.837 135.798 80.9941 135.141 80.1513 134.484L73.8902 140.822C74.5645 141.644 75.2628 142.442 75.9612 143.24L82.5835 136.526Z" fill="#7CA9EC"/>
<path d="M69.0737 122.84L69.0496 122.863C68.3752 123.591 68.4234 124.694 69.1459 125.375L71.8914 127.934C72.638 128.638 73.8422 128.591 74.5407 127.863L74.5647 127.84C75.2391 127.112 75.215 126.009 74.4925 125.328L71.7469 122.769C70.9763 122.041 69.7721 122.065 69.0737 122.84Z" fill="#6091D8"/>
<path d="M71.7231 186.975C70.4227 188.313 68.2554 188.337 66.8828 187.069L63.2224 183.642C62.5 182.961 62.4518 181.834 63.1502 181.106L63.1743 181.083C63.8726 180.332 65.0767 180.308 65.8232 181.013L68.7129 183.736C69.0019 184.017 69.4835 183.994 69.7725 183.712L78.0323 175.331C78.7066 174.651 79.8384 174.58 80.5608 175.214L80.5849 175.237C81.4037 175.918 81.4518 177.116 80.7294 177.867L71.7231 186.975Z" fill="#7CA9EC"/>
<path d="M75.5759 179.44C75.5759 179.463 75.5759 179.463 75.6 179.487C76.1297 180.66 77.7191 180.919 78.6342 180.003L102.282 156.058C103.582 154.72 103.558 152.63 102.186 151.339L80.1995 130.704C79.453 130 78.2248 130.047 77.5265 130.798L77.5024 130.821C76.8281 131.549 76.8763 132.653 77.5987 133.333L98.8142 153.241C99.1031 153.522 99.1272 153.969 98.8382 154.274L75.9371 177.468C75.4073 177.984 75.2869 178.759 75.5759 179.44Z" fill="#97C1FF"/>
<path d="M102.282 156.034C103.582 154.696 103.558 152.607 102.186 151.316L98.5252 147.888C97.8028 147.207 96.6469 147.207 95.9244 147.912L95.9003 147.935C95.1538 148.639 95.1779 149.813 95.9244 150.518L98.8142 153.241C99.1031 153.522 99.1272 153.968 98.8382 154.274L90.5543 162.654C89.8801 163.335 89.856 164.439 90.5303 165.143L90.5543 165.166C91.2768 165.918 92.5049 165.941 93.2514 165.19L102.282 156.034Z" fill="#D2E9FF"/>
<path d="M77.5506 130.774L77.5265 130.798C76.8522 131.525 76.9004 132.629 77.6228 133.31L82.2945 137.676C83.0411 138.38 84.2451 138.333 84.9435 137.606L84.9675 137.582C85.6418 136.854 85.6177 135.751 84.8953 135.07L80.2236 130.704C79.453 129.976 78.2489 130.023 77.5506 130.774Z" fill="#7CA9EC"/>
<path d="M65.6547 153.663L68.5203 156.339C69.2428 157.02 70.3987 156.879 70.9525 156.058C70.9525 156.058 70.9525 156.034 70.9766 156.034C71.386 155.424 71.2897 154.602 70.7358 154.086L67.8701 151.409L76.6838 142.489C77.1414 142.043 77.2618 141.362 76.9969 140.798C76.9969 140.798 76.9969 140.775 76.9728 140.775C76.5153 139.765 75.1667 139.531 74.372 140.329L65.5584 149.273L45.3302 130.305L43.1147 132.558L63.3429 151.527L46.7991 168.288L49.1109 170.448L65.6547 153.663Z" fill="#6091D8"/>
<path d="M218.928 -8.92284L145.998 64.9419L151.238 69.8586L224.168 -4.00614L218.928 -8.92284Z" fill="#70575C"/>
<path d="M166.025 35.768L180.353 49.2196C178.475 51.1212 175.368 51.1681 173.418 49.3605L166.145 42.529C164.219 40.6979 164.146 37.6695 166.025 35.768Z" fill="#876C72"/>
<path d="M159.86 47.2707C159.089 48.0454 159.113 49.2896 159.908 50.0408L165.952 55.6985C166.747 56.4497 168.023 56.4263 168.794 55.6516C169.564 54.8769 169.54 53.6326 168.746 52.8814L162.701 47.2238C161.906 46.4725 160.63 46.496 159.86 47.2707Z" fill="#876C72"/>
<path d="M224.301 -50.9752L193.742 -20.0107C192.442 -18.6725 192.466 -16.5832 193.839 -15.292L231.646 20.1799C233.019 21.4476 235.162 21.4241 236.486 20.086L267.045 -10.8551C268.346 -12.1932 268.321 -14.2826 266.949 -15.5737L229.117 -51.0691C227.769 -52.3368 225.602 -52.3133 224.301 -50.9752Z" fill="#76A8E5"/>
<path d="M233.428 21.072C232.777 20.9546 232.151 20.6729 231.645 20.1799C232.175 20.6729 232.801 20.9546 233.428 21.072Z" fill="#5966AE"/>
<path d="M250.679 5.74193L252.9 3.49243L210.146 -36.6147L207.925 -34.3652L250.679 5.74193Z" fill="#A6CBFF"/>
<path d="M213.889 3.50773L249.195 -32.2473L246.887 -34.4125L211.581 1.34254L213.889 3.50773Z" fill="#A6CBFF"/>
<path d="M211.586 1.35193L222.711 -9.91643C223.337 -10.5503 224.349 -10.5503 224.975 -9.96339C225.625 -9.35302 225.625 -8.36703 225.023 -7.75666L213.898 3.51172L211.586 1.35193Z" fill="#8EBAF2"/>
<path d="M236.486 20.086C235.186 21.4241 233.018 21.4476 231.646 20.1799L227.986 16.7524C227.263 16.0716 227.215 14.9448 227.913 14.217L227.937 14.1935C228.636 13.4423 229.84 13.4189 230.586 14.1231L233.476 16.8463C233.765 17.128 234.247 17.1045 234.536 16.8228L242.82 8.442C243.494 7.7612 244.626 7.69077 245.348 8.32461L245.372 8.34809C246.191 9.02889 246.239 10.2261 245.493 10.9774L236.486 20.086Z" fill="#8EBAF2"/>
<path d="M240.363 12.5504C240.363 12.5738 240.363 12.5738 240.387 12.5973C240.917 13.7711 242.507 14.0293 243.422 13.1138L267.045 -10.855C268.346 -12.1931 268.321 -14.2825 266.949 -15.5736L244.963 -36.2089C244.216 -36.9131 242.988 -36.8662 242.29 -36.1149L242.266 -36.0915C241.591 -35.3637 241.64 -34.2604 242.362 -33.5796L263.578 -13.6721C263.866 -13.3904 263.891 -12.9444 263.602 -12.6392L240.7 10.5549C240.195 11.0949 240.05 11.8696 240.363 12.5504Z" fill="#A6CBFF"/>
<path d="M250.886 5.53123L253.704 2.6672C254.306 2.05683 254.402 1.09431 253.896 0.390039L253.872 0.366558C253.198 -0.572474 251.825 -0.68985 251.006 0.131804L248.165 2.99586C247.514 3.65318 247.466 4.66263 248.044 5.3669C248.068 5.39038 248.092 5.41386 248.116 5.46081C248.839 6.25898 250.115 6.30593 250.886 5.53123Z" fill="#D2E9FF"/>
<path d="M184.76 -10.9257L154.201 20.0389C152.9 21.377 152.924 23.4664 154.297 24.7575L192.104 60.2294C193.477 61.4971 195.62 61.4736 196.945 60.1355L227.504 29.1945C228.804 27.8563 228.78 25.767 227.407 24.4758L189.576 -11.0196C188.227 -12.2872 186.06 -12.2638 184.76 -10.9257Z" fill="#76A8E5"/>
<path d="M202.869 13.9352C204.867 9.70956 210.551 8.65316 213.994 11.8693L189.6 -11.0195C188.227 -12.2872 186.084 -12.2638 184.76 -10.9256L154.201 20.0389C152.9 21.377 152.924 23.4664 154.297 24.7575L178.017 47.0126C181.196 49.994 186.421 49.008 188.251 45.111L202.869 13.9352Z" fill="#5A77C3"/>
<path d="M211.127 45.7851L213.348 43.5356L170.595 3.42275L168.374 5.67224L211.127 45.7851Z" fill="#A6CBFF"/>
<path d="M199.521 32.9037L199.497 32.9271C198.991 33.561 199.039 34.4531 199.641 35.0165L201.159 36.4485C201.809 37.0589 202.868 37.0119 203.471 36.3546L203.495 36.3311C204.049 35.7208 204 34.7583 203.398 34.1948L201.881 32.7628C201.183 32.129 200.099 32.1994 199.521 32.9037Z" fill="#83AFF1"/>
<path d="M174.346 43.5588L209.652 7.80371L207.345 5.63853L172.038 41.3936L174.346 43.5588Z" fill="#97C1FF"/>
<path d="M207.806 9.68655C207.059 8.9588 206.216 8.30147 205.373 7.64415L199.112 13.9826C199.787 14.8043 200.485 15.6025 201.183 16.4006L207.806 9.68655Z" fill="#8EBAF2"/>
<path d="M194.319 -4.00026L194.295 -3.97677C193.621 -3.24903 193.669 -2.14567 194.392 -1.46487L197.137 1.09398C197.884 1.79826 199.088 1.75131 199.786 1.02356L199.81 1.00008C200.485 0.272328 200.461 -0.831033 199.738 -1.51183L196.993 -4.07068C196.222 -4.79843 195.018 -4.77496 194.319 -4.00026Z" fill="#76A8E5"/>
<path d="M196.945 60.1355C195.645 61.4736 193.477 61.4971 192.105 60.2294L188.444 56.802C187.722 56.1212 187.674 54.9943 188.372 54.2666L188.396 54.2431C189.095 53.4919 190.299 53.4684 191.045 54.1727L193.935 56.8959C194.224 57.1776 194.706 57.1541 194.994 56.8724L203.278 48.4915C203.953 47.8107 205.084 47.7403 205.807 48.3742L205.831 48.3976C206.65 49.0784 206.698 50.2757 205.975 51.0269L196.945 60.1355Z" fill="#8EBAF2"/>
<path d="M200.822 52.6002C200.822 52.6236 200.822 52.6236 200.846 52.6471C201.376 53.8209 202.965 54.0791 203.88 53.1636L227.528 29.2183C228.828 27.8802 228.804 25.7908 227.431 24.4996L205.445 3.86444C204.699 3.16016 203.471 3.20712 202.772 3.95834L202.748 3.98182C202.074 4.70957 202.122 5.81293 202.844 6.49373L224.06 26.4012C224.349 26.6829 224.373 27.1289 224.084 27.4341L201.183 50.6282C200.653 51.1447 200.509 51.9194 200.822 52.6002Z" fill="#A6CBFF"/>
<path d="M227.504 29.1947C228.805 27.8566 228.781 25.7672 227.408 24.4761L223.748 21.0486C223.025 20.3678 221.869 20.3678 221.147 21.0721L221.123 21.0956C220.376 21.7998 220.4 22.9736 221.147 23.6779L224.037 26.4011C224.326 26.6828 224.35 27.1288 224.061 27.434L215.777 35.8149C215.103 36.4957 215.078 37.5991 215.753 38.3033L215.777 38.3268C216.499 39.078 217.727 39.1015 218.474 38.3503L227.504 29.1947Z" fill="#D2E9FF"/>
<path d="M202.772 3.93452L202.748 3.958C202.074 4.68575 202.122 5.78911 202.845 6.46991L207.516 10.8364C208.263 11.5407 209.467 11.4937 210.165 10.766L210.189 10.7425C210.864 10.0148 210.84 8.91139 210.117 8.2306L205.445 3.86409C204.675 3.13634 203.471 3.18329 202.772 3.93452Z" fill="#8EBAF2"/>
<path d="M190.9 26.8239L193.766 29.5002C194.489 30.181 195.644 30.0401 196.198 29.2185L196.222 29.195C196.632 28.5846 196.535 27.763 195.982 27.2465L193.116 24.5702L201.93 15.6495C202.387 15.2034 202.508 14.5226 202.243 13.9592C202.243 13.9592 202.243 13.9357 202.219 13.9357C201.761 12.9263 200.413 12.6915 199.618 13.4897L190.804 22.434L170.576 3.46551L168.361 5.71918L188.589 24.6876L172.045 41.4494L174.357 43.6091L190.9 26.8239Z" fill="#76A8E5"/>
<path d="M84.9676 13.6069L89.832 8.677C92.5532 5.90686 97.0804 5.81295 99.922 8.48919L101.728 10.1795L86.9664 25.1335L85.1603 23.4433C82.3187 20.767 82.2224 16.3536 84.9676 13.6069Z" fill="#876C72"/>
<path d="M84.9677 13.6067L85.1363 13.4424C85.8587 12.7146 86.5812 12.1747 87.3277 11.8225C92.0717 9.49842 96.4785 15.5317 92.8182 19.2409L86.9905 25.1567L85.1845 23.4665C82.3188 20.7668 82.2225 16.3533 84.9677 13.6067Z" fill="#70575C"/>
<path d="M181.726 106.664L190.901 115.28C191.43 115.773 192.249 115.749 192.755 115.256L198.149 109.81C198.655 109.294 198.631 108.495 198.125 108.002L188.95 99.3869C188.42 98.8939 187.602 98.9173 187.096 99.4103L181.702 104.857C181.172 105.373 181.196 106.171 181.726 106.664Z" fill="#644D52"/>
<path d="M194.066 97.3275L188.046 91.6782L173.8 106.106L179.821 111.755L194.066 97.3275Z" fill="#70575C"/>
<path d="M178.065 111.501C178.908 112.299 180.281 112.275 181.099 111.454L193.79 98.589C194.609 97.7674 194.585 96.4293 193.742 95.6311C192.899 94.8329 191.527 94.8564 190.708 95.678L178.017 108.543C177.174 109.364 177.198 110.703 178.065 111.501Z" fill="#876C72"/>
<path d="M186.999 102.439C187.842 103.237 189.215 103.213 190.034 102.392L193.79 98.5652C194.609 97.7436 194.585 96.4054 193.742 95.6073C192.899 94.8091 191.527 94.8326 190.708 95.6542L186.951 99.4808C186.108 100.326 186.132 101.641 186.999 102.439Z" fill="#AF979F"/>
<path d="M181.653 119.037L190.491 127.324C191.117 127.911 192.104 127.887 192.682 127.277L210.454 109.271C211.056 108.66 211.032 107.698 210.406 107.134L201.568 98.8475C200.942 98.2606 199.955 98.2841 199.377 98.8945L181.605 116.9C181.027 117.487 181.051 118.45 181.653 119.037Z" fill="#FED892"/>
<path d="M181.653 119.037L190.491 127.324C191.117 127.911 192.105 127.887 192.683 127.277L203.013 116.806C203.615 116.196 203.591 115.234 202.965 114.67L194.128 106.383C193.501 105.796 192.514 105.82 191.936 106.43L181.605 116.9C181.027 117.487 181.051 118.45 181.653 119.037Z" fill="#FCA86A"/>
<path d="M228.395 136.103L233.572 148.287L220.881 143.709L221.748 141.456L229.117 144.108L226.107 137.019L228.395 136.103Z" fill="#FED892"/>
<path d="M224.614 106.031L230.875 133.216L218.04 146.221L189.937 141.174L224.614 106.031ZM227.407 132.277L222.808 112.322L196.294 139.178L216.932 142.888L227.407 132.277Z" fill="#FED892"/>
<path d="M229.521 133.566L230.093 130.542L205.725 126.16L205.152 129.184L229.521 133.566Z" fill="#FED892"/>
<path d="M215.272 145.582L218.35 144.909L212.926 121.337L209.847 122.01L215.272 145.582Z" fill="#FED892"/>
<path d="M215.174 144.156L228.635 130.516C229.382 129.765 230.634 129.741 231.405 130.469C232.175 131.197 232.199 132.418 231.453 133.169L217.991 146.808C217.245 147.56 215.993 147.583 215.222 146.855C214.427 146.128 214.403 144.907 215.174 144.156Z" fill="#FEBC74"/>
<path d="M230.947 149.625L230.537 149.25C229.43 148.193 229.381 146.48 230.465 145.376C231.549 144.296 233.307 144.249 234.439 145.306L234.848 145.681C235.956 146.738 236.004 148.452 234.921 149.555C233.861 150.658 232.079 150.682 230.947 149.625Z" fill="#FEBC74"/>
<path d="M230.057 100.843C217.318 97.1101 202.917 100.279 193.068 110.28C183.195 120.281 180.498 134.413 184.808 146.691L230.057 100.843Z" fill="#FCA86A"/>
<path d="M184.856 148.146C185.964 149.179 187.722 149.156 188.805 148.076L231.646 104.669C232.705 103.589 232.681 101.876 231.574 100.819C230.466 99.7862 228.708 99.8097 227.624 100.89L184.784 144.296C183.7 145.376 183.748 147.113 184.856 148.146Z" fill="#FCA86A"/>
<path d="M204.603 128.145C205.71 129.178 207.468 129.154 208.552 128.074L211.899 124.694C212.959 123.614 212.935 121.9 211.827 120.844C210.719 119.811 208.961 119.834 207.878 120.914L204.53 124.295C203.471 125.375 203.495 127.112 204.603 128.145Z" fill="#E18574"/>
<path d="M188.805 148.076L201.785 134.929C202.845 133.849 202.821 132.136 201.713 131.079C200.605 130.046 198.847 130.07 197.764 131.15L193.694 135.281C191.936 137.065 188.829 135.751 188.974 133.286C188.974 133.262 188.974 133.215 188.974 133.192C189.07 131.713 188.059 130.398 186.566 130.093C186.542 130.093 186.494 130.07 186.47 130.07C184.688 129.718 183.002 130.985 182.906 132.746C182.641 136.854 183.098 141.009 184.278 145C183.772 146.033 183.989 147.277 184.856 148.123C185.964 149.179 187.722 149.155 188.805 148.076Z" fill="#E18574"/>
<path d="M227.624 100.913C227.841 100.702 228.082 100.514 228.347 100.397C216.041 97.4152 202.484 100.749 193.068 110.28C192.562 110.796 192.08 111.313 191.599 111.853C183.989 120.539 196.993 131.925 205.108 123.708C210.864 117.863 218.233 110.421 227.624 100.913Z" fill="#FED892"/>
<path d="M185.482 153.405C186.59 154.438 188.348 154.414 189.432 153.334L237.04 105.091C238.1 104.012 238.075 102.298 236.968 101.241C235.86 100.209 234.102 100.232 233.018 101.312L185.41 149.555C184.35 150.634 184.375 152.348 185.482 153.405Z" fill="#FED892"/>
<path d="M217.245 121.243C218.353 122.276 220.111 122.252 221.194 121.173L230.393 111.853C231.453 110.773 231.429 109.059 230.321 108.003C229.214 106.97 227.456 106.993 226.372 108.073L217.173 117.393C216.089 118.473 216.137 120.187 217.245 121.243Z" fill="#FCF0D2"/>
<path d="M223.073 103.566C223.073 103.542 223.097 103.519 223.097 103.495C223.988 101.57 222.567 99.3872 220.4 99.3168C217.245 99.2464 214.091 99.5516 211.008 100.279C209.034 100.725 208.07 102.885 209.034 104.622C209.684 105.796 211.081 106.383 212.405 106.078C214.909 105.491 217.534 105.209 220.207 105.28C221.435 105.303 222.567 104.646 223.073 103.566Z" fill="#FCF0D2"/>
<path opacity="0.8" d="M204.025 109.365C204.169 109.294 204.29 109.2 204.434 109.13C205.759 108.402 206.288 106.782 205.662 105.397C205.638 105.374 205.638 105.327 205.614 105.303C204.892 103.73 202.941 103.097 201.4 103.942C201.255 104.036 201.086 104.106 200.942 104.2C199.617 104.951 199.112 106.594 199.762 107.956C199.762 107.98 199.786 108.003 199.786 108.003C200.508 109.599 202.483 110.233 204.025 109.365Z" fill="#FCF0D2"/>
<path d="M129.816 68.7187L148.052 50.2483L141.112 43.7361L122.875 62.2065L129.816 68.7187Z" fill="#644D52"/>
<path d="M121.378 64.9483C122.582 66.0751 124.485 66.0282 125.641 64.8779L143.942 46.3555C145.098 45.1817 145.05 43.3271 143.87 42.2003C142.666 41.0734 140.764 41.1204 139.608 42.2707L121.306 60.7931C120.15 61.9669 120.174 63.8215 121.378 64.9483Z" fill="#876C72"/>
<path d="M133.708 52.4593C134.912 53.5861 136.814 53.5392 137.97 52.3889L143.942 46.3556C145.098 45.1818 145.05 43.3272 143.87 42.2004C142.666 41.0735 140.764 41.1205 139.608 42.2708L133.636 48.3041C132.48 49.4779 132.504 51.3324 133.708 52.4593Z" fill="#AF979F"/>
<path d="M99.1032 42.4583L85.8827 30.0631C84.799 29.0302 84.7509 27.3399 85.8104 26.2835L102.86 9.00536C103.919 7.94895 105.653 7.902 106.737 8.93494L119.957 21.3301C121.041 22.3631 121.089 24.0533 120.03 25.1097L102.98 42.3879C101.921 43.4678 100.187 43.4913 99.1032 42.4583Z" fill="#EF976F"/>
<path d="M102.98 42.3879L120.03 25.1097C121.089 24.0533 121.041 22.3631 119.957 21.3301L114.202 15.9307C112.685 14.4987 110.253 14.5456 108.784 16.0246L100.355 24.5463C97.4416 27.4808 92.6495 27.5747 89.6393 24.7576C88.9651 24.1238 87.8814 24.1472 87.2312 24.8046L85.7864 26.26C84.7268 27.3165 84.775 29.0067 85.8586 30.0396L99.1032 42.4583C100.187 43.4913 101.921 43.4678 102.98 42.3879Z" fill="#CF6D6C"/>
<path d="M112.685 63.9854L92.1435 44.7118C90.5782 43.2563 90.53 40.8148 92.0471 39.2889L116.441 14.5689C117.934 13.043 120.439 12.996 122.004 14.475L142.545 33.7486C144.111 35.2041 144.159 37.6456 142.642 39.1715L118.223 63.8915C116.73 65.4174 114.25 65.4644 112.685 63.9854Z" fill="#FCA86A"/>
<path d="M118.248 63.892C122.173 59.9246 122.053 53.5861 117.983 49.7596L110.06 42.3178C104.04 36.6836 103.872 27.3402 109.651 21.4947L92.0718 39.3129C90.5788 40.8388 90.627 43.2568 92.1682 44.7358L112.709 64.0094C114.251 65.4649 116.731 65.4179 118.248 63.892Z" fill="#E18574"/>
<path d="M117.838 20.5083C120.656 17.6678 125.303 17.5739 128.217 20.3205L135.947 27.5746C138.861 30.3212 138.957 34.852 136.14 37.6926C133.323 40.5332 128.675 40.6271 125.761 37.8804L118.031 30.6264C115.117 27.8797 115.021 23.3489 117.838 20.5083Z" fill="#FED892"/>
<path d="M127.663 24.7578C129.06 23.3257 131.396 23.2788 132.865 24.6639L133.804 25.5559C135.273 26.9175 135.321 29.1947 133.9 30.6267C132.504 32.0587 130.168 32.1057 128.699 30.7206L127.76 29.8285C126.315 28.4435 126.267 26.1898 127.663 24.7578Z" fill="#FCF0D2"/>
<path d="M101.03 48.9611C102.186 47.7873 104.112 47.7404 105.316 48.8907L110.036 53.3041C111.24 54.431 111.288 56.309 110.108 57.4828C108.952 58.6566 107.026 58.7036 105.822 57.5533L101.102 53.1398C99.8979 52.013 99.8738 50.1349 101.03 48.9611Z" fill="#F19A6E"/>
<path d="M112.998 42.1064L114.804 43.7967C115.262 44.2427 115.286 44.947 114.828 45.4165L112.516 47.7641C112.059 48.2101 111.336 48.2336 110.855 47.7876L109.048 46.0973C108.591 45.6513 108.567 44.947 109.024 44.4775L111.336 42.1299C111.794 41.6839 112.516 41.6839 112.998 42.1064Z" fill="#70575C"/>
<path d="M118.922 36.0967L120.728 37.7869C121.186 38.233 121.21 38.9372 120.752 39.4068L118.44 41.7543C117.982 42.2004 117.26 42.2238 116.778 41.7778L114.972 40.0876C114.514 39.6415 114.49 38.9372 114.948 38.4677L117.26 36.1201C117.718 35.6741 118.464 35.6741 118.922 36.0967Z" fill="#876C72"/>
<path d="M163.159 111.36L126.82 77.2731C125.255 75.8176 125.207 73.3761 126.724 71.8502L151.142 47.1302C152.635 45.6043 155.14 45.5573 156.705 47.0363L193.019 81.1231C194.585 82.5786 194.633 85.0201 193.116 86.546L168.698 111.266C167.229 112.792 164.724 112.839 163.159 111.36Z" fill="#FCA86A"/>
<path d="M168.722 111.266C172.647 107.299 172.527 100.96 168.433 97.1336L144.713 74.8786C138.693 69.2444 138.524 59.901 144.304 54.0555L126.724 71.8737C125.231 73.3996 125.279 75.8176 126.821 77.2966L163.159 111.36C164.724 112.839 167.229 112.792 168.722 111.266Z" fill="#E18574"/>
<path d="M153.117 53.6093C155.935 50.7688 160.583 50.6749 163.496 53.4215L186.422 74.9488C189.335 77.6955 189.432 82.2263 186.614 85.0669C183.797 87.9074 179.149 88.0013 176.235 85.2547L153.31 63.7274C150.396 61.0042 150.3 56.4499 153.117 53.6093Z" fill="#FED892"/>
<path d="M168.939 63.493C170.335 62.061 172.671 62.014 174.14 63.3991L184.254 72.9068C185.723 74.2684 185.771 76.5455 184.351 77.9775C182.954 79.4095 180.618 79.4565 179.149 78.0714L169.035 68.5637C167.566 67.1787 167.542 64.9015 168.939 63.493Z" fill="#FCF0D2"/>
<path opacity="0.8" d="M160.679 55.746C162.075 54.314 164.411 54.2671 165.88 55.6521L166.844 56.5442C168.312 57.9058 168.361 60.183 166.94 61.615C165.543 63.047 163.207 63.0939 161.738 61.7089L160.799 60.8168C159.33 59.4317 159.282 57.1781 160.679 55.746Z" fill="#FCF0D2"/>
<path opacity="0.7" d="M145.507 66.8263C146.808 65.5116 148.975 65.4647 150.348 66.7324L154.466 70.6059C155.814 71.8736 155.862 73.9864 154.562 75.3245C153.262 76.6392 151.094 76.6861 149.722 75.4184L145.604 71.5449C144.231 70.2538 144.207 68.1644 145.507 66.8263Z" fill="#E18574"/>
<path d="M135.899 81.6629C137.055 80.4891 138.982 80.4421 140.186 81.5924L157.934 98.2368C159.138 99.3636 159.186 101.242 158.006 102.415C156.85 103.589 154.924 103.636 153.72 102.486L135.972 85.8416C134.768 84.7147 134.719 82.8367 135.899 81.6629Z" fill="#F19A6E"/>
<path d="M169.324 87.344C170.118 86.5458 171.419 86.5223 172.262 87.297L174.815 89.6915C175.633 90.4662 175.657 91.7339 174.863 92.5556C174.068 93.3538 172.767 93.3772 171.925 92.6025L169.372 90.208C168.553 89.4333 168.529 88.1656 169.324 87.344Z" fill="#876C72"/>
<path d="M165.037 91.687C165.831 90.8888 167.132 90.8653 167.975 91.64L170.528 94.0346C171.346 94.8093 171.371 96.077 170.576 96.8986C169.781 97.6968 168.481 97.7203 167.638 96.9456L165.085 94.551C164.266 93.7763 164.242 92.4852 165.037 91.687Z" fill="#70575C"/>
<path d="M160.751 96.0305C161.545 95.2323 162.846 95.2088 163.689 95.9835L166.242 98.3781C167.06 99.1528 167.085 100.42 166.29 101.242C165.495 102.04 164.195 102.064 163.352 101.289L160.799 98.8945C159.98 98.0964 159.956 96.8287 160.751 96.0305Z" fill="#70575C"/>
<path d="M153.021 86.1938C152.13 85.3722 152.106 84.0106 152.973 83.142C153.816 82.2734 155.212 82.2499 156.104 83.095C156.971 83.9167 157.019 85.2783 156.152 86.1469C155.285 86.992 153.888 87.0155 153.021 86.1938Z" fill="#70575C"/>
<path d="M144.52 78.2119C143.629 77.3902 143.605 76.0286 144.472 75.16C145.315 74.3149 146.712 74.2679 147.603 75.1131C148.47 75.9347 148.518 77.2963 147.651 78.1649C146.784 79.0101 145.387 79.0335 144.52 78.2119Z" fill="#70575C"/>
</g>
</svg>
