<svg xmlns="http://www.w3.org/2000/svg" xmlns:xlink="http://www.w3.org/1999/xlink" width="120" height="103" viewBox="0 0 120 103"><defs><path id="gt27a" d="M230.4 311.76H171.9v-7.3h58.51zm23.78-7.3c1 0 1.82-.81 1.82-1.82v-58.37c0-1-.81-1.82-1.82-1.82H148.12c-1.01 0-1.83.82-1.83 1.82v58.37c0 1 .82 1.82 1.83 1.82h20.11v7.3h-5.48c-3.7 0-7.13 1.8-9.2 4.84l-6.96 10.58a1.83 1.83 0 1 0 3.06 2l6.93-10.56a7.43 7.43 0 0 1 6.17-3.21h77.27a7.4 7.4 0 0 1 6.11 3.14l6.48 10.58a1.83 1.83 0 0 0 3.12-1.9l-6.53-10.66a11.1 11.1 0 0 0-9.18-4.81h-5.96v-7.3z"/><path id="gt27b" d="M139.43 233a2.57 2.57 0 0 1 2.57-2.57h102.86a2.57 2.57 0 0 1 2.57 2.57v56.66a2.57 2.57 0 0 1-2.57 2.57H142a2.57 2.57 0 0 1-2.57-2.57z"/><path id="gt27c" d="M136 229.57a2.57 2.57 0 0 1 2.57-2.57h102.86a2.57 2.57 0 0 1 2.57 2.57v56.66a2.57 2.57 0 0 1-2.57 2.57H138.57a2.57 2.57 0 0 1-2.57-2.57z"/></defs><g><g transform="translate(-136 -227)"><g><use fill="#1f282c" xlink:href="#gt27a"/></g><g><use fill="#fff" xlink:href="#gt27b"/></g><g><use fill="#1eb0cd" xlink:href="#gt27c"/></g></g></g></svg>