<svg width="32" height="33" viewBox="0 0 32 33" fill="none" xmlns="http://www.w3.org/2000/svg">
<path d="M5.59716 12.6664C6.03847 12.6664 6.45579 12.4477 6.70511 12.0771L10.3983 6.57329L2.15063 5.51733L4.33854 11.7731C4.5252 12.3091 5.03051 12.6664 5.59716 12.6664Z" fill="#3DAFCC"/>
<path d="M24.1111 15.0382C24.5524 15.0382 24.9697 14.8182 25.219 14.4462L28.9122 8.94376L20.6646 7.88647L22.8525 14.1435C23.0405 14.6809 23.5458 15.0382 24.1111 15.0382Z" fill="#3DAFCC"/>
<path d="M25.6816 27.0043C25.9843 27.4189 26.4949 27.6176 26.9802 27.5309C27.4789 27.4482 27.8869 27.0896 28.0348 26.6069L29.9694 20.2659L21.7698 21.6511L25.6816 27.0043Z" fill="#3DAFCC"/>
<path d="M16.4794 28.5589C16.7833 28.9749 17.2927 29.1709 17.778 29.0869C18.2766 29.0029 18.6846 28.6443 18.8326 28.1603L20.7672 21.8206L12.5688 23.2072L16.4794 28.5589Z" fill="#3DAFCC"/>
<path d="M7.27574 30.1149C7.57839 30.5295 8.08904 30.7282 8.57435 30.6442C9.073 30.5602 9.48098 30.2002 9.62897 29.7175L11.5636 23.3765L3.36523 24.7631L7.27574 30.1149Z" fill="#3DAFCC"/>
<path d="M14.854 13.8526C15.2953 13.8526 15.7113 13.634 15.9619 13.262L19.6551 7.75822L11.4075 6.70093L13.5954 12.958C13.7847 13.4993 14.294 13.8526 14.854 13.8526Z" fill="#3DAFCC"/>
<path d="M31.9973 5.3065L0 1.20801V3.8959L31.9973 7.99439V5.3065Z" fill="#1F282C"/>
<path d="M31.9973 15.866L0 21.2751V23.9776L31.9973 18.5699V15.866Z" fill="#1F282C"/>
</svg>
