<svg width="32" height="32" viewBox="0 0 32 32" fill="none" xmlns="http://www.w3.org/2000/svg">
<g opacity="0.25">
<path d="M15.9999 5.33325C7.91325 5.33325 1.33325 11.9119 1.33325 19.9999V26.6666H10.6666C10.6666 24.1893 12.3719 22.1199 14.6666 21.5226V14.6666H17.3333V21.5226C19.6279 22.1199 21.3333 24.1893 21.3333 26.6666H30.6666V19.9999C30.6666 11.9119 24.0866 5.33325 15.9999 5.33325ZM6.66659 21.3333C5.92925 21.3333 5.33325 20.7373 5.33325 19.9999C5.33325 19.2653 5.92925 18.6666 6.66659 18.6666C7.40392 18.6666 7.99992 19.2653 7.99992 19.9999C7.99992 20.7359 7.40392 21.3333 6.66659 21.3333ZM9.33325 14.6666C8.59592 14.6666 7.99992 14.0706 7.99992 13.3333C7.99992 12.5986 8.59592 11.9999 9.33325 11.9999C10.0706 11.9999 10.6666 12.5986 10.6666 13.3333C10.6666 14.0693 10.0706 14.6666 9.33325 14.6666ZM15.9999 11.9999C15.2626 11.9999 14.6666 11.4039 14.6666 10.6666C14.6666 9.93192 15.2626 9.33325 15.9999 9.33325C16.7373 9.33325 17.3333 9.93192 17.3333 10.6666C17.3333 11.4026 16.7373 11.9999 15.9999 11.9999ZM22.6666 14.6666C21.9293 14.6666 21.3333 14.0706 21.3333 13.3333C21.3333 12.5986 21.9293 11.9999 22.6666 11.9999C23.4039 11.9999 23.9999 12.5986 23.9999 13.3333C23.9999 14.0693 23.4039 14.6666 22.6666 14.6666ZM25.3333 21.3333C24.5959 21.3333 23.9999 20.7373 23.9999 19.9999C23.9999 19.2653 24.5959 18.6666 25.3333 18.6666C26.0706 18.6666 26.6666 19.2653 26.6666 19.9999C26.6666 20.7359 26.0706 21.3333 25.3333 21.3333Z" fill="white"/>
</g>
</svg>
