<svg width="32" height="32" viewBox="0 0 32 32" fill="none" xmlns="http://www.w3.org/2000/svg">
<g opacity="0.25">
<path d="M11.4468 22.6666L4.78149 29.332H8.55216L14.6668 23.2186V29.332H17.3335V23.2186L23.4482 29.332H27.2188L20.5535 22.6666H11.4468Z" fill="white"/>
<path d="M26.6667 2.66663H5.33341C3.86275 2.66663 2.66675 3.86263 2.66675 5.33329V18.6666C2.66675 20.136 3.86275 21.3333 5.33341 21.3333H26.6667C28.1387 21.3333 29.3334 20.136 29.3334 18.6666V5.33329C29.3334 3.86263 28.1387 2.66663 26.6667 2.66663ZM26.6667 9.88663L20.9427 15.6093C20.6827 15.8706 20.3414 16 20.0001 16C19.6587 16 19.3174 15.8706 19.0574 15.6093L17.3334 13.8866L15.6094 15.6093C15.0881 16.132 14.2454 16.132 13.7241 15.6093L10.6667 12.5533L8.94275 14.276C8.69208 14.5253 8.35475 14.6666 8.00008 14.6666H5.33341V12H7.44808L9.72408 9.72396C10.2454 9.20396 11.0881 9.20396 11.6094 9.72396L14.6667 12.7813L16.3907 11.0573C16.9121 10.5373 17.7547 10.5373 18.2761 11.0573L20.0001 12.7813L26.6667 6.11596V9.88663Z" fill="white"/>
</g>
</svg>
