<svg width="32" height="32" viewBox="0 0 32 32" fill="none" xmlns="http://www.w3.org/2000/svg">
<g opacity="0.25">
<path d="M0 16C0 16.9134 0.0933333 17.8054 0.268 18.6667H5.33333V13.3334H0.268C0.0933333 14.1947 0 15.0867 0 16Z" fill="white"/>
<path d="M1.12134 10.6668H5.33334V5.35876C3.51067 6.7321 2.048 8.5521 1.12134 10.6668Z" fill="white"/>
<path d="M5.33334 26.64V21.3334H1.12134C2.048 23.448 3.51067 25.268 5.33334 26.64Z" fill="white"/>
<path d="M13.3333 13.3334H8V18.6667H13.3333V13.3334Z" fill="white"/>
<path d="M8 28.212C9.636 28.9294 11.4373 29.3334 13.3333 29.3334V21.3334H8V28.212Z" fill="white"/>
<path d="M8 10.6666H13.3333V2.66663C11.4373 2.66663 9.636 3.07063 8 3.78796V10.6666Z" fill="white"/>
<path d="M29.3333 2.66663H18.6667C17.1947 2.66663 16 3.86263 16 5.33329V26.6666C16 28.1386 17.1947 29.3333 18.6667 29.3333H29.3333C30.8053 29.3333 32 28.1386 32 26.6666V5.33329C32 3.86263 30.8053 2.66663 29.3333 2.66663ZM25.3333 28H22.6667V25.3333H25.3333V28ZM29.3333 24H18.6667V5.33329H29.3333V24Z" fill="white"/>
</g>
</svg>
