<svg width="32" height="32" viewBox="0 0 32 32" fill="none" xmlns="http://www.w3.org/2000/svg">
<g opacity="0.25">
<path d="M27.4161 14.692C26.0627 8.78129 24.6654 2.66663 16.0014 2.66663C10.1201 2.66663 5.33472 7.45196 5.33472 13.3333V29.3333H21.3347V25.3333H22.6681C24.1387 25.3333 25.3347 24.1373 25.3347 22.6666V18.6666H28.3761C28.3761 18.6666 27.5894 15.456 27.4161 14.692ZM14.6681 6.66663H17.3347V9.33329H14.6681V6.66663ZM8.40672 11.8213L9.74005 9.51196L12.0494 10.8453L10.7161 13.1546L8.40672 11.8213ZM17.3347 22.6666C17.3347 23.404 16.7387 24 16.0014 24C15.2641 24 14.6681 23.404 14.6681 22.6666V21.3333H17.3347V22.6666ZM18.4041 17.8493C17.7307 18.352 17.3347 19.144 17.3347 19.9853V20H14.6681V19.984C14.6681 19.144 14.2694 18.3506 13.5987 17.848C12.6307 17.1226 12.0014 15.972 12.0014 14.6666C12.0014 12.4586 13.7921 10.6666 16.0014 10.6666C18.2094 10.6666 20.0014 12.4586 20.0014 14.6666C20.0014 15.972 19.3721 17.1226 18.4041 17.8493ZM21.2867 13.1546L19.9534 10.8453L22.2627 9.51196L23.5961 11.8213L21.2867 13.1546Z" fill="white"/>
</g>
</svg>
