<svg width="30" height="22" viewBox="0 0 30 22" fill="none" xmlns="http://www.w3.org/2000/svg">
<path d="M14.9999 0.333252C6.91325 0.333252 0.333252 6.91192 0.333252 14.9999V21.6666H9.66659C9.66659 19.1893 11.3719 17.1199 13.6666 16.5226V9.66659H16.3333V16.5226C18.6279 17.1199 20.3333 19.1893 20.3333 21.6666H29.6666V14.9999C29.6666 6.91192 23.0866 0.333252 14.9999 0.333252ZM5.66659 16.3333C4.92925 16.3333 4.33325 15.7373 4.33325 14.9999C4.33325 14.2653 4.92925 13.6666 5.66659 13.6666C6.40392 13.6666 6.99992 14.2653 6.99992 14.9999C6.99992 15.7359 6.40392 16.3333 5.66659 16.3333ZM8.33325 9.66659C7.59592 9.66659 6.99992 9.07059 6.99992 8.33325C6.99992 7.59859 7.59592 6.99992 8.33325 6.99992C9.07059 6.99992 9.66659 7.59859 9.66659 8.33325C9.66659 9.06925 9.07059 9.66659 8.33325 9.66659ZM14.9999 6.99992C14.2626 6.99992 13.6666 6.40392 13.6666 5.66659C13.6666 4.93192 14.2626 4.33325 14.9999 4.33325C15.7373 4.33325 16.3333 4.93192 16.3333 5.66659C16.3333 6.40259 15.7373 6.99992 14.9999 6.99992ZM21.6666 9.66659C20.9293 9.66659 20.3333 9.07059 20.3333 8.33325C20.3333 7.59859 20.9293 6.99992 21.6666 6.99992C22.4039 6.99992 22.9999 7.59859 22.9999 8.33325C22.9999 9.06925 22.4039 9.66659 21.6666 9.66659ZM24.3333 16.3333C23.5959 16.3333 22.9999 15.7373 22.9999 14.9999C22.9999 14.2653 23.5959 13.6666 24.3333 13.6666C25.0706 13.6666 25.6666 14.2653 25.6666 14.9999C25.6666 15.7359 25.0706 16.3333 24.3333 16.3333Z" fill="#3DAFCC"/>
</svg>
