<svg width="583" height="553" viewBox="0 0 583 553" fill="none" xmlns="http://www.w3.org/2000/svg">
<path d="M500.654 474.681C516.042 472.981 527.52 479.044 526.324 488.231C525.128 497.418 511.672 506.237 496.307 507.936C480.919 509.636 469.441 503.573 470.637 494.386C471.005 491.584 472.523 488.805 474.869 486.256C474.455 487.129 474.156 488.001 474.041 488.874C473.19 495.282 481.218 499.508 491.936 498.336C502.655 497.142 512.04 490.987 512.891 484.579C512.96 484.028 512.96 483.477 512.914 482.949C511.879 487.932 504.564 492.618 496.215 493.536C487.612 494.478 481.195 491.102 481.862 485.957C482.529 480.836 490.05 475.898 498.63 474.933C499.297 474.842 499.964 474.75 500.654 474.681ZM463.437 529.754C523.633 532.579 565.358 493.536 566.761 468.089C566.968 464.553 566.163 461.314 564.484 458.421C556.755 445.169 530.073 439.749 492.051 451.898C514.639 439.634 566.738 433.249 579.918 450.819C585.668 458.467 584.012 470.639 569.314 488.851C546.979 516.595 494.306 537.655 463.437 529.754ZM492.166 471.443C508.728 462.646 557.629 451.783 553.972 476.886C552.247 488.621 532.12 505.754 513.696 510.348C527.566 504.928 537.963 494.432 538.515 484.12C539.642 462.807 507.025 464.231 492.166 471.443ZM461.827 493.743C459.458 509.957 478.825 519.948 505.116 516.043L506.22 515.883C500.677 518.271 494.766 520.017 488.716 520.912C464.058 524.564 446.646 512.759 449.82 494.524C455.824 460.189 520.872 446.547 537.871 452.541C504.909 451.714 465.715 467.263 461.827 493.743ZM443.84 528.698C469.004 548.426 537.158 534.256 573.592 497.441C521.954 560.024 377.802 575.917 405.496 512.92C418.239 483.959 464.863 449.142 503.736 443.768C463.207 454.792 405.68 498.727 443.84 528.698Z" fill="#3DAFCC"/>
<path opacity="0.95" d="M30.409 61.2196L518.32 1L500 482L1 362.778L30.409 61.2196Z" fill="#3DAFCC"/>
<path d="M30.1748 60.6316L518 0L487.825 432L0 361.263L30.1748 60.6316Z" fill="#EADFD0"/>
</svg>
