<svg xmlns="http://www.w3.org/2000/svg" width="64" height="59" viewBox="0 0 64 59">
    <g fill="none" fill-rule="nonzero">
        <path fill="#746A5C" d="M64 .714s0-.214 0 0c0-.214 0-.214 0 0V.286h-.213-.214-.213-.213-.214-.213-.213-.214l-51.2 30c-.213-.215-.426 0-.426.428 0 .429.426.857.64.857l15.573 5.143L32 52.357c0 .214.213.429.213.429.214.214.427.214.64.214h.427c.213 0 .213-.214.213-.214l8.534-10.715 11.733 4.5h.427c.213 0 .426 0 .426-.214.214-.214.427-.428.427-.643l8.533-45C64 .93 64 .93 64 .714zM53.333 11.857L34.347 37.571c0 .215-.214.215-.214.429l-1.493 9.643L29.013 36.5l24.32-24.643zm-18.56 36.429l1.28-8.572 4.267 1.715-5.547 6.857z"/>
        <path fill="#1F282C" d="M1.92 45.929a1.028 1.028 0 0 0-1.493 0 1.039 1.039 0 0 0 0 1.5l1.92 1.928c.213.214.426.214.64.214.213 0 .64-.214.853-.428a1.039 1.039 0 0 0 0-1.5 5.044 5.044 0 0 1-1.92-1.714zM11.307 53.643a19.461 19.461 0 0 1-2.774-1.714c-.426-.429-1.066-.215-1.493.214-.427.428-.213 1.071.213 1.5 1.067.643 1.92 1.286 2.987 1.928.213 0 .427.215.427.215.426 0 .64-.215.853-.643.64-.643.427-1.286-.213-1.5zM24.747 56c-.427 0-.64.214-1.067.214-.64 0-1.067.643-.853 1.286 0 .429.64.857 1.066.857h.214c.426 0 .64-.214 1.066-.214.64-.214.854-.643.854-1.286-.214-.643-.64-1.071-1.28-.857zM18.987 56.214l-3.2-.643c-.64-.214-1.067.215-1.28.643-.214.643.213 1.072.64 1.286 1.066.429 2.346.643 3.413.857h.213c.427 0 1.067-.428 1.067-.857.213-.643-.213-1.286-.853-1.286zM29.867 53.857c-.64.429-1.494.857-2.347 1.072-.64.214-.853.857-.64 1.5.213.428.64.642 1.067.642h.426l2.56-1.285c.427-.215.64-.857.427-1.5-.427-.429-1.067-.643-1.493-.429z"/>
    </g>
</svg>
