<svg xmlns="http://www.w3.org/2000/svg" xmlns:xlink="http://www.w3.org/1999/xlink" width="202" height="245" viewBox="0 0 202 245"><defs><path id="ufvna" d="M742 1254c-55.78 0-101-43.88-101-98s45.22-98 101-98 101 43.88 101 98-45.22 98-101 98zm0-8.26c51.24 0 92.7-40.23 92.7-89.74s-41.46-89.74-92.7-89.74c-51.25 0-92.7 40.23-92.7 89.74s41.45 89.74 92.7 89.74z"/><path id="ufvnb" d="M748.52 1146.53l29.67 28.69a45.18 45.18 0 0 0-.8-57.63z"/><path id="ufvnc" d="M740.36 1154.77l-38.33 38.42c23 18.12 55.49 17.49 77.59-.46zm-12.06 26l12.15-11.96 12.14 11.95z"/><path id="ufvnd" d="M768.09 1112.04c-18.38-14.43-45.22-13.12-62.05 3.75a45.21 45.21 0 0 0-2.69 61.15z"/><path id="ufvne" d="M670.43 1237.95h-6.29V1222h156.98v15.95h-4.93v40.98h7.4v23.92H661v-23.92h9.43z"/><path id="ufvnf" d="M671.26 1164.09l1.33 4.12h4.3l-3.48 2.54 1.33 4.12-3.48-2.54-3.48 2.54 1.33-4.12-3.48-2.54h4.3z"/><path id="ufvng" d="M690.97 1112.88l1.33 4.12h4.3l-3.48 2.54 1.33 4.12-3.48-2.54-3.48 2.54 1.33-4.12-3.48-2.54h4.3z"/><path id="ufvnh" d="M795.14 1182.95l1.33 4.12h4.3l-3.48 2.54 1.33 4.12-3.48-2.54-3.48 2.54 1.33-4.12-3.48-2.54h4.3z"/><path id="ufvni" d="M817.66 1129.05l1.33 4.12h4.3l-3.48 2.54 1.33 4.12-3.48-2.54-3.48 2.54 1.33-4.12-3.48-2.54h4.3z"/><path id="ufvnj" d="M792.33 1139.83l1.99 6.18h6.45l-5.22 3.81 2 6.18-5.22-3.82-5.22 3.82 1.99-6.18-5.22-3.81h6.45z"/><path id="ufvnk" d="M758.54 1096.71l1.99 6.18h6.45l-5.22 3.81 2 6.18-5.22-3.82-5.22 3.82 1.99-6.18-5.22-3.81h6.45z"/><path id="ufvnl" d="M690.97 1188.34l2.66 8.23h8.6l-6.96 5.1 2.66 8.23-6.96-5.09-6.96 5.09 2.66-8.23-6.96-5.1h8.6z"/><path id="ufvnm" d="M724.75 1123.66l2.66 8.23h8.6l-6.96 5.1 2.66 8.23-6.96-5.09-6.96 5.09 2.66-8.23-6.96-5.1h8.6z"/><path id="ufvnn" d="M721.94 1075.15l1.99 6.18h6.45l-5.22 3.81 2 6.18-5.22-3.82-5.22 3.82 1.99-6.18-5.22-3.81h6.45z"/><path id="ufvno" d="M721.94 1172.17l1.99 6.18h6.45l-5.22 3.81 2 6.18-5.22-3.82-5.22 3.82 1.99-6.18-5.22-3.81h6.45z"/><path id="ufvnp" d="M710 1274v-24h64v24z"/></defs><g><g transform="translate(-641 -1058)"><g><use fill="#1eb0cd" xlink:href="#ufvna"/></g><g><g><use fill="#444b4c" xlink:href="#ufvnb"/></g><g><use fill="#1eb0cd" xlink:href="#ufvnc"/></g><g><use fill="#444b4c" xlink:href="#ufvnd"/></g></g><g><use fill="#444b4c" xlink:href="#ufvne"/></g><g><g opacity=".5"><use fill="#f2c400" xlink:href="#ufvnf"/></g><g opacity=".5"><use fill="#f2c400" xlink:href="#ufvng"/></g><g opacity=".5"><use fill="#f2c400" xlink:href="#ufvnh"/></g><g opacity=".5"><use fill="#f2c400" xlink:href="#ufvni"/></g><g opacity=".5"><use fill="#f2c400" xlink:href="#ufvnj"/></g><g opacity=".5"><use fill="#f2c400" xlink:href="#ufvnk"/></g><g opacity=".5"><use fill="#f2c400" xlink:href="#ufvnl"/></g><g opacity=".5"><use fill="#f2c400" xlink:href="#ufvnm"/></g><g opacity=".5"><use fill="#f2c400" xlink:href="#ufvnn"/></g><g opacity=".5"><use fill="#f2c400" xlink:href="#ufvno"/></g></g></g><g transform="translate(-641 -1058)"><use fill="#f2c400" xlink:href="#ufvnp"/></g></g></svg>