<svg width="1440" height="656" viewBox="0 0 1440 656" fill="none" xmlns="http://www.w3.org/2000/svg">
<mask id="mask0" mask-type="alpha" maskUnits="userSpaceOnUse" x="0" y="0" width="1440" height="656">
<rect width="1440" height="656" fill="#C4C4C4"/>
</mask>
<g mask="url(#mask0)">
<path d="M1329.35 617.58H946.027V671.16H1329.35V617.58Z" fill="#574589"/>
<path d="M550.643 683.725H530.202C504.085 683.725 482.9 662.535 482.9 636.412C482.9 610.289 504.085 589.099 530.202 589.099H550.643C576.76 589.099 597.945 610.289 597.945 636.412C597.945 662.535 576.791 683.725 550.643 683.725Z" fill="#865882"/>
<path d="M656.786 638.18H389.288V692.815H656.786V638.18Z" fill="#865882"/>
<path d="M1142.93 595.924H1104.09C1065.76 595.924 1034.71 564.837 1034.71 526.521C1034.71 488.175 1065.79 457.119 1104.09 457.119H1142.93C1181.27 457.119 1212.32 488.206 1212.32 526.521C1212.32 564.868 1181.27 595.924 1142.93 595.924Z" fill="#574589"/>
<path d="M910.543 739.322H871.708C833.37 739.322 802.321 708.235 802.321 669.919C802.321 631.572 833.401 600.516 871.708 600.516H910.543C948.881 600.516 979.929 631.603 979.929 669.919C979.929 708.235 948.881 739.322 910.543 739.322Z" fill="#865882"/>
<path d="M899.283 675.782H882.968C876.206 675.782 870.716 670.291 870.716 663.527C870.716 656.764 876.206 651.272 882.968 651.272H899.283C906.045 651.272 911.535 656.764 911.535 663.527C911.535 670.291 906.045 675.782 899.283 675.782Z" fill="#574589"/>
<path d="M267.233 414.305H242.543C196.295 414.305 158.825 376.795 158.825 330.568C158.825 284.31 196.326 246.832 242.543 246.832H267.233C313.48 246.832 350.95 284.341 350.95 330.568C350.981 376.795 313.48 414.305 267.233 414.305Z" fill="#574589"/>
<path d="M289.038 682.918H265.403C221.109 682.918 185.191 646.991 185.191 602.687C185.191 558.384 221.109 522.457 265.403 522.457H289.038C333.332 522.457 369.25 558.384 369.25 602.687C369.25 646.991 333.332 682.918 289.038 682.918Z" fill="#574589"/>
<path d="M332.866 524.505H304.268C267.729 524.505 238.107 494.876 238.107 458.329C238.107 421.782 267.729 392.153 304.268 392.153H332.866C369.405 392.153 399.027 421.782 399.027 458.329C399.027 494.876 369.405 524.505 332.866 524.505Z" fill="#574589"/>
<path d="M152.032 336.184H123.434C86.895 336.184 57.2729 306.555 57.2729 270.008C57.2729 233.46 86.895 203.832 123.434 203.832H152.032C188.571 203.832 218.193 233.46 218.193 270.008C218.193 306.555 188.571 336.184 152.032 336.184Z" fill="#574589"/>
<path d="M43.5011 251.858H8.23378C-19.217 251.858 -41.4568 229.613 -41.4568 202.156C-41.4568 174.699 -19.217 152.454 8.23378 152.454H43.5011C70.9518 152.454 93.1916 174.699 93.1916 202.156C93.1916 229.582 70.9208 251.858 43.5011 251.858Z" fill="#47376D"/>
<path d="M44.2456 152.423H36.8943C23.8668 152.423 13.8791 163.996 15.8022 176.871C17.3531 187.326 26.3173 195.083 36.8943 195.083C44.4317 195.083 50.5422 201.194 50.5422 208.734V302.212C50.5422 305.717 47.6886 308.572 44.1835 308.572H18.4698C17.8184 322.75 17.167 336.959 16.6707 351.231H44.1835C71.2621 351.231 93.1917 329.296 93.1917 302.212V201.381C93.1917 174.358 71.2621 152.423 44.2456 152.423Z" fill="#574589"/>
<path d="M75.9147 121.46H64.9344C50.8833 121.46 39.4998 110.074 39.4998 96.02C39.4998 81.9657 50.8833 70.5796 64.9344 70.5796H75.9147C89.9658 70.5796 101.349 81.9657 101.349 96.02C101.349 110.074 89.9658 121.46 75.9147 121.46Z" fill="#574589"/>
<path d="M39.6859 31.3329H33.7925C26.2552 31.3329 20.1136 25.221 20.1136 17.651C20.1136 10.1119 26.2242 4 33.7615 4H39.6549C47.1922 4 53.3338 10.1119 53.3338 17.682C53.3338 25.221 47.2232 31.3329 39.6859 31.3329Z" fill="#574589"/>
<path d="M449.897 668.026H423.904C390.684 668.026 363.729 641.097 363.729 607.838C363.729 574.61 390.653 547.649 423.904 547.649H449.897C483.117 547.649 510.071 574.579 510.071 607.838C510.04 641.097 483.117 668.026 449.897 668.026Z" fill="#574589"/>
<path d="M597.945 635.357C597.387 609.916 575.488 589.099 550.022 589.099C541.151 589.099 533.955 596.296 533.955 605.17C533.955 605.666 533.955 606.193 533.955 606.69C533.924 615.594 541.151 622.792 550.022 622.792H550.333C557.591 622.792 563.825 628.345 564.26 635.605C564.384 637.808 563.981 639.948 563.174 641.81C560.755 647.394 561.406 653.817 565.159 658.594C565.407 658.905 565.655 659.215 565.904 659.525C573.41 669.112 588.36 667.467 593.54 656.423C596.518 650.063 598.1 642.896 597.945 635.357Z" fill="#B1697B"/>
<path d="M680.049 715.153H654.056C620.836 715.153 593.881 688.223 593.881 654.965C593.881 621.737 620.805 594.776 654.056 594.776H680.049C713.269 594.776 740.223 621.706 740.223 654.965C740.192 688.223 713.269 715.153 680.049 715.153Z" fill="#865882"/>
<path d="M671.116 673.145H654.056C644.968 673.145 637.586 665.761 637.586 656.671C637.586 647.581 644.968 640.197 654.056 640.197H671.116C680.204 640.197 687.586 647.581 687.586 656.671C687.586 665.761 680.235 673.145 671.116 673.145Z" fill="#574589"/>
<path d="M499.835 680.87H432.124C413.978 680.87 399.276 666.165 399.276 648.015C399.276 629.865 413.978 615.16 432.124 615.16H499.835C517.981 615.16 532.683 629.865 532.683 648.015C532.683 666.165 517.981 680.87 499.835 680.87Z" fill="#574589"/>
<path d="M621.332 656.671H614.85C610.507 656.671 606.971 653.134 606.971 648.791C606.971 644.447 610.507 640.91 614.85 640.91H621.332C625.675 640.91 629.211 644.447 629.211 648.791C629.211 653.134 625.675 656.671 621.332 656.671Z" fill="#574589"/>
<path d="M838.395 653.32H831.912C827.57 653.32 824.034 649.783 824.034 645.44C824.034 641.096 827.57 637.56 831.912 637.56H838.395C842.737 637.56 846.274 641.096 846.274 645.44C846.243 649.814 842.737 653.32 838.395 653.32Z" fill="#574589"/>
<path d="M820.25 688.813V714.812C820.25 748.039 793.326 775 760.075 775C726.855 775 699.9 748.07 699.9 714.812V688.813C699.9 655.585 726.824 628.625 760.075 628.625C793.326 628.625 820.25 655.585 820.25 688.813Z" fill="#865882"/>
<path d="M1232.04 417.531H1216.53C1182.82 417.531 1155.49 390.198 1155.49 356.474C1155.49 322.75 1182.82 295.417 1216.53 295.417H1232.04C1265.76 295.417 1293.09 322.75 1293.09 356.474C1293.09 390.167 1265.76 417.531 1232.04 417.531Z" fill="#574589"/>
<path d="M1297.77 336.153H1284.9C1256.92 336.153 1234.21 313.473 1234.21 285.458C1234.21 257.473 1256.89 234.763 1284.9 234.763H1297.77C1325.75 234.763 1348.45 257.442 1348.45 285.458C1348.42 313.473 1325.75 336.153 1297.77 336.153Z" fill="#574589"/>
<path d="M1328.82 406.052H1315.95C1287.97 406.052 1265.26 383.373 1265.26 355.357C1265.26 327.373 1287.94 304.663 1315.95 304.663H1328.82C1356.8 304.663 1379.5 327.342 1379.5 355.357C1379.5 383.342 1356.83 406.052 1328.82 406.052Z" fill="#574589"/>
<path d="M1435.15 342.575H1412.78C1364.15 342.575 1324.72 303.142 1324.72 254.495C1324.72 205.848 1364.15 166.416 1412.78 166.416H1435.15C1483.78 166.416 1523.21 205.848 1523.21 254.495C1523.21 303.142 1483.78 342.575 1435.15 342.575Z" fill="#47376D"/>
<path d="M982.535 644.044H969.663C941.685 644.044 918.979 621.365 918.979 593.349C918.979 565.365 941.653 542.654 969.663 542.654H982.535C1010.51 542.654 1033.22 565.334 1033.22 593.349C1033.22 621.365 1010.51 644.044 982.535 644.044Z" fill="#865882"/>
<path d="M1054.93 658.688H1042.06C1014.08 658.688 991.375 636.008 991.375 607.993C991.375 580.009 1014.05 557.298 1042.06 557.298H1054.93C1082.91 557.298 1105.61 579.978 1105.61 607.993C1105.61 636.008 1082.94 658.688 1054.93 658.688Z" fill="#574589"/>
<path d="M1275.9 461.121H1260.39C1226.68 461.121 1199.35 433.788 1199.35 400.064C1199.35 366.34 1226.68 339.007 1260.39 339.007H1275.9C1309.62 339.007 1336.94 366.34 1336.94 400.064C1336.94 433.788 1309.62 461.121 1275.9 461.121Z" fill="#574589"/>
<path d="M1330.15 550.1H1314.64C1280.93 550.1 1253.6 522.767 1253.6 489.043C1253.6 455.319 1280.93 427.986 1314.64 427.986H1330.15C1363.87 427.986 1391.19 455.319 1391.19 489.043C1391.19 522.767 1363.87 550.1 1330.15 550.1Z" fill="#574589"/>
<path d="M1277.08 607.31H1261.57C1227.86 607.31 1200.53 579.977 1200.53 546.253C1200.53 512.529 1227.86 485.196 1261.57 485.196H1277.08C1310.8 485.196 1338.12 512.529 1338.12 546.253C1338.12 579.977 1310.8 607.31 1277.08 607.31Z" fill="#574589"/>
<path d="M299.088 328.179H-47.9395V685.555H299.088V328.179Z" fill="#574589"/>
<path d="M115.587 227.069H17.6632V425.908H115.587V227.069Z" fill="#574589"/>
<path d="M407.619 615.718H305.105V670.353H407.619V615.718Z" fill="#574589"/>
<path d="M1329.35 545.261H1095.66V617.58H1329.35V545.261Z" fill="#574589"/>
<path d="M1378.77 254.576C1378.77 253.894 1378.77 253.242 1378.8 252.56C1379.61 234.379 1395.18 220.325 1413.39 220.294C1424.18 220.294 1431.28 219.983 1436.9 220.418C1447.1 221.162 1456.94 216.291 1462.18 207.511L1462.64 206.736C1472.72 189.889 1461.87 167.955 1442.3 166.31C1439.85 166.093 1437.4 166 1434.88 166H1414.07C1369.19 166 1330.45 199.011 1325.11 243.593C1323.62 256.034 1324.83 267.979 1328.12 279.055H1319V694.168H1552.69V279.055H1404.33C1390.62 279.055 1378.96 268.289 1378.77 254.576Z" fill="#574589"/>
<path d="M1034.92 596.948H1028.44C1024.1 596.948 1020.56 593.411 1020.56 589.068C1020.56 584.724 1024.1 581.188 1028.44 581.188H1034.92C1039.27 581.188 1042.8 584.724 1042.8 589.068C1042.8 593.442 1039.27 596.948 1034.92 596.948Z" fill="#865882"/>
<path d="M1120.78 540.824H1114.3C1109.96 540.824 1106.42 537.287 1106.42 532.944C1106.42 528.6 1109.96 525.063 1114.3 525.063H1120.78C1125.12 525.063 1128.66 528.6 1128.66 532.944C1128.66 537.287 1125.12 540.824 1120.78 540.824Z" fill="#6A4F8A"/>
<path d="M295.149 355.636H288.666C284.323 355.636 280.787 352.099 280.787 347.756C280.787 343.412 284.323 339.875 288.666 339.875H295.149C299.491 339.875 303.027 343.412 303.027 347.756C303.027 352.13 299.491 355.636 295.149 355.636Z" fill="#865882"/>
<path d="M235.377 355.636H228.895C224.552 355.636 221.016 352.099 221.016 347.756C221.016 343.412 224.552 339.875 228.895 339.875H235.377C239.72 339.875 243.256 343.412 243.256 347.756C243.256 352.13 239.72 355.636 235.377 355.636Z" fill="#47376D"/>
<path d="M283.796 344.095H274.646C268.504 344.095 263.542 339.131 263.542 332.988C263.542 326.845 268.504 321.881 274.646 321.881H283.796C289.938 321.881 294.901 326.845 294.901 332.988C294.932 339.1 289.938 344.095 283.796 344.095Z" fill="#6A4F8A"/>
<path d="M450.269 617.673H443.786C439.444 617.673 435.908 614.136 435.908 609.792C435.908 605.449 439.444 601.912 443.786 601.912H450.269C454.611 601.912 458.147 605.449 458.147 609.792C458.147 614.136 454.611 617.673 450.269 617.673Z" fill="#865882"/>
<path d="M377.842 628.345H369.033C363.14 628.345 358.363 623.567 358.363 617.673C358.363 611.778 363.14 607 369.033 607H377.842C383.736 607 388.512 611.778 388.512 617.673C388.543 623.567 383.767 628.345 377.842 628.345Z" fill="#6A4F8A"/>
<path d="M1112.34 528.507H1103.01C1097.11 528.507 1092.34 523.729 1092.34 517.835C1092.34 511.94 1097.11 507.162 1103.01 507.162H1112.34C1118.24 507.162 1123.01 511.94 1123.01 517.835C1123.01 523.729 1118.24 528.507 1112.34 528.507Z" fill="#865882"/>
<path d="M1127.98 598.965H1113.96C1105.12 598.965 1097.95 591.798 1097.95 582.956C1097.95 574.114 1105.12 566.947 1113.96 566.947H1127.98C1136.82 566.947 1143.98 574.114 1143.98 582.956C1143.98 591.798 1136.82 598.965 1127.98 598.965Z" fill="#6A4F8A"/>
<path d="M1275.84 354.706H1266.5C1260.61 354.706 1255.83 349.928 1255.83 344.033C1255.83 338.138 1260.61 333.36 1266.5 333.36H1275.84C1281.73 333.36 1286.51 338.138 1286.51 344.033C1286.51 349.928 1281.73 354.706 1275.84 354.706Z" fill="#47376D"/>
<path d="M1336.2 300.877H1322.49C1313.84 300.877 1306.83 293.866 1306.83 285.21C1306.83 276.554 1313.84 269.542 1322.49 269.542H1336.2C1344.85 269.542 1351.86 276.554 1351.86 285.21C1351.83 293.866 1344.82 300.877 1336.2 300.877Z" fill="#47376D"/>
<path d="M1300.44 218.32H1297.09C1289.55 218.32 1283.44 212.208 1283.44 204.669C1283.44 197.13 1289.55 191.018 1297.09 191.018H1300.44C1307.97 191.018 1314.08 197.13 1314.08 204.669C1314.08 212.208 1307.97 218.32 1300.44 218.32Z" fill="#574589"/>
<path d="M1026.24 525.156H1022.89C1015.35 525.156 1009.24 519.045 1009.24 511.506C1009.24 503.966 1015.35 497.854 1022.89 497.854H1026.24C1033.78 497.854 1039.89 503.966 1039.89 511.506C1039.89 519.045 1033.78 525.156 1026.24 525.156Z" fill="#614A8A"/>
<path d="M534.855 567.629H532.311C526.573 567.629 521.92 562.976 521.92 557.236C521.92 551.497 526.573 546.843 532.311 546.843H534.855C540.593 546.843 545.246 551.497 545.246 557.236C545.246 562.976 540.593 567.629 534.855 567.629Z" fill="#614A8A"/>
<path d="M1178.44 558.384H1169.11C1163.21 558.384 1158.44 553.606 1158.44 547.712C1158.44 541.817 1163.21 537.039 1169.11 537.039H1178.44C1184.34 537.039 1189.11 541.817 1189.11 547.712C1189.11 553.606 1184.34 558.384 1178.44 558.384Z" fill="#47376D"/>
<path d="M334.696 459.694H325.36C319.467 459.694 314.69 454.916 314.69 449.021C314.69 443.126 319.467 438.349 325.36 438.349H334.696C340.59 438.349 345.367 443.126 345.367 449.021C345.367 454.916 340.59 459.694 334.696 459.694Z" fill="#865882"/>
<path d="M526.387 671.159H517.05C511.157 671.159 506.38 666.382 506.38 660.487C506.38 654.592 511.157 649.814 517.05 649.814H526.387C532.28 649.814 537.057 654.592 537.057 660.487C537.057 666.382 532.28 671.159 526.387 671.159Z" fill="#865882"/>
<path d="M449.897 547.681H423.904C415.405 547.681 407.309 549.449 399.958 552.645C390.001 556.957 386.776 569.491 393.382 578.116C393.444 578.209 393.506 578.302 393.599 578.395C398.283 584.445 406.441 586.555 413.482 583.545C416.677 582.18 420.213 581.405 423.904 581.405H449.432C464.072 581.405 476.324 593.101 476.386 607.745C476.386 608.086 476.386 608.427 476.386 608.769C476.138 616.618 481.287 623.599 488.948 625.336L489.569 625.46C499.804 627.756 509.761 620.217 510.071 609.699C510.102 609.11 510.102 608.489 510.102 607.9C510.04 574.641 483.117 547.681 449.897 547.681Z" fill="#865882"/>
<path d="M1105.3 457.119H1104.81C1066.66 457.119 1035.08 487.648 1034.71 525.808C1034.55 541.569 1039.64 556.151 1048.35 567.878C1055.36 577.31 1069.6 576.813 1075.9 566.916C1075.96 566.823 1076.02 566.73 1076.08 566.637C1079.81 560.773 1079.43 553.234 1075.31 547.65C1070.84 541.6 1068.27 534.092 1068.39 525.994C1068.67 506.387 1085.05 490.812 1104.68 490.812H1105.33C1115.11 490.812 1122.83 482.529 1122.12 472.787C1121.46 463.945 1114.14 457.119 1105.3 457.119Z" fill="#865882"/>
<path d="M1172.33 463.665C1166.22 460.811 1160.67 459.167 1155.46 458.267C1145.84 456.592 1136.88 463.696 1136.17 473.438C1136.17 473.562 1136.14 473.655 1136.14 473.779C1135.51 482.249 1141.28 489.943 1149.63 491.464C1152.36 491.96 1155.09 492.798 1158.1 494.225C1166.13 497.979 1175.65 494.597 1179.78 486.748C1179.87 486.593 1179.96 486.406 1180.03 486.251C1184.34 477.844 1180.83 467.636 1172.33 463.665Z" fill="#865882"/>
<path d="M285.657 267.153C285.688 267.029 285.688 266.905 285.719 266.812C287.177 256.76 279.764 247.639 269.652 247.018C262.487 246.584 254.919 246.522 248.281 246.646C238.479 246.832 230.787 255.116 231.345 264.919C231.345 265.106 231.376 265.261 231.376 265.447C231.903 274.754 239.689 281.952 248.994 281.735C254.794 281.58 261.277 281.673 267.295 282.107C276.383 282.728 284.354 276.213 285.657 267.153Z" fill="#865882"/>
<path d="M355.975 558.446C341.613 536.76 316.985 522.426 289.038 522.426C286.619 522.426 284.386 522.426 282.338 522.426C272.971 522.395 265.434 530.152 265.651 539.521C265.651 539.645 265.651 539.738 265.651 539.862C265.868 548.86 273.219 556.057 282.214 556.119C284.293 556.119 286.557 556.15 289.007 556.15C305.137 556.15 319.374 564.403 327.718 576.906C332.432 583.98 341.645 586.493 349.213 582.615L349.585 582.429C358.456 577.93 361.434 566.73 355.975 558.446Z" fill="#865882"/>
<path d="M370.832 424.667L370.15 425.039C362.861 429.103 359.573 438.038 362.83 445.733C364.474 449.611 365.373 453.861 365.373 458.298C365.373 469.839 359.325 480.015 350.205 485.755C343.971 489.695 341.024 497.234 343.133 504.277C343.226 504.618 343.35 504.99 343.444 505.331C346.483 515.601 358.456 520.254 367.575 514.639C386.434 502.973 399.027 482.094 399.027 458.298C399.027 449.145 397.166 440.427 393.816 432.485C390.001 423.581 379.3 419.951 370.832 424.667Z" fill="#865882"/>
<path d="M324.771 392.09C324.523 392.09 324.275 392.09 324.026 392.09C340.59 376.795 350.981 354.892 350.981 330.537C350.981 324.177 350.268 317.972 348.934 312.015C346.576 301.591 335.317 295.851 325.391 299.822C325.298 299.853 325.236 299.884 325.143 299.915C317.203 303.08 312.829 311.581 314.69 319.927C315.466 323.339 315.869 326.907 315.869 330.537C315.869 347.911 306.687 363.206 292.947 371.769C281.563 378.874 275.67 392.215 278.43 405.369C280.974 417.438 291.737 425.877 304.082 425.815C304.144 425.815 304.237 425.815 304.299 425.815C313.667 425.815 320.149 425.784 324.771 425.784C333.022 425.784 339.97 419.672 341.117 411.512C341.148 411.295 341.179 411.109 341.21 410.892C342.544 400.964 334.821 392.09 324.771 392.09Z" fill="#865882"/>
<path d="M760.106 628.624C751.638 628.624 743.574 630.393 736.284 633.557C731.632 621.365 723.133 611.064 712.277 604.177C702.847 598.189 690.347 603.029 687.307 613.763C687.276 613.888 687.245 613.981 687.214 614.105C685.198 621.209 688.176 628.748 694.379 632.751C701.7 637.466 706.538 645.688 706.538 655.027C706.538 656.764 706.383 658.439 706.042 660.084C704.212 669.453 710.509 678.543 719.876 680.498C720.124 680.56 720.341 680.591 720.589 680.653C727.413 682.08 734.423 679.35 738.425 673.642C743.45 666.475 751.421 662.473 759.641 662.348C766.124 662.224 771.769 657.819 773.723 651.645L774.715 648.542C777.786 638.77 770.559 628.717 760.323 628.686C760.23 628.624 760.168 628.624 760.106 628.624Z" fill="#B1697B"/>
<path d="M1217 383.838C1201.92 383.838 1189.11 371.49 1189.14 356.412C1189.14 354.519 1189.33 352.689 1189.7 350.921C1191.32 343.164 1187.13 335.346 1179.81 332.306C1179.72 332.275 1179.59 332.212 1179.5 332.181C1169.76 328.117 1158.78 333.981 1156.67 344.312C1155.86 348.252 1155.46 352.317 1155.46 356.474C1155.46 390.198 1182.79 417.531 1216.5 417.531H1224.6C1224.78 406.3 1225.78 395.007 1224.69 383.838H1217Z" fill="#865882"/>
<path d="M1267.9 285.489C1267.9 278.415 1271.22 272.676 1279.03 270.039C1285.52 267.867 1290.14 262.127 1290.6 255.302C1290.64 254.992 1290.64 254.65 1290.67 254.34C1291.5 242.582 1280.09 233.615 1268.92 237.369C1268.21 237.618 1267.5 237.866 1266.75 238.145C1247.74 245.436 1234.21 263.896 1234.21 285.489C1234.21 292.532 1235.64 299.233 1238.25 305.314C1243.18 316.886 1258.78 318.934 1266.57 309.037C1266.66 308.913 1266.75 308.789 1266.84 308.665C1270.54 303.949 1271.56 297.589 1269.23 292.097C1268.36 290.081 1267.9 287.847 1267.9 285.489Z" fill="#865882"/>
<path d="M953.44 598.406C952.789 596.359 952.541 594.125 952.727 591.798C953.502 582.987 961.133 576.348 969.973 576.348C970.159 576.348 970.376 576.348 970.562 576.348C979.371 576.348 986.629 569.491 987.187 560.711C987.187 560.494 987.219 560.277 987.219 560.06C987.839 550.628 980.302 542.655 970.872 542.686C970.686 542.686 970.5 542.686 970.314 542.686C942.15 542.686 918.669 565.737 918.979 593.908C919.103 607.528 924.625 619.845 933.496 628.873C938.924 622.885 944.414 616.99 950.245 611.344C953.688 607.993 954.867 602.998 953.44 598.406Z" fill="#B1697B"/>
<path d="M1233.03 400.064C1233.03 394.107 1234.96 388.616 1238.18 384.117C1242.28 378.409 1242.5 370.745 1238.49 364.975C1238.31 364.696 1238.09 364.416 1237.9 364.137C1231.39 355.047 1217.84 354.892 1211.23 363.92C1203.79 374.034 1199.38 386.537 1199.38 400.064C1199.38 422.898 1211.91 442.816 1230.46 453.272C1240.85 459.135 1253.91 452.341 1254.96 440.458C1255 440.148 1255.03 439.838 1255.06 439.528C1255.68 433.106 1252.36 427.025 1246.78 423.798C1238.59 419.051 1233.03 410.209 1233.03 400.064Z" fill="#865882"/>
<path d="M1234.21 546.253C1234.21 537.039 1238.8 528.879 1245.78 523.915C1250.99 520.224 1253.79 513.956 1252.79 507.658L1252.73 507.224C1250.84 495.093 1236.91 489.075 1226.83 496.055C1210.92 507.069 1200.53 525.467 1200.53 546.284C1200.53 553.886 1201.92 561.176 1204.47 567.878C1208.22 577.837 1220.32 581.684 1229.19 575.789L1229.68 575.479C1236.14 571.197 1238.62 563.069 1235.92 555.809C1234.8 552.8 1234.21 549.604 1234.21 546.253Z" fill="#865882"/>
<path d="M910.542 600.485H871.708C863.364 600.485 855.362 601.974 847.948 604.673C838.798 608.024 834.673 618.634 839.046 627.321C839.17 627.57 839.294 627.818 839.419 628.097C843.141 635.605 851.857 639.049 859.766 636.226C863.488 634.891 867.521 634.178 871.708 634.178H910.542C923.973 634.178 935.698 641.655 941.808 652.638C944.879 658.16 950.928 661.356 957.255 660.859L958.403 660.766C970.221 659.867 977.2 647.053 971.492 636.629C959.706 615.129 936.846 600.485 910.542 600.485Z" fill="#B1697B"/>
<path d="M624.341 629.493C624.465 629.587 624.589 629.68 624.713 629.773C629.738 633.527 636.469 634.116 642.083 631.324C642.269 631.231 642.455 631.138 642.641 631.045C649.651 627.787 653.56 620.248 652.102 612.678C652.071 612.523 652.04 612.399 652.009 612.244C649.962 601.602 638.423 595.862 628.621 600.423C628.001 600.702 627.412 601.013 626.791 601.323C615.811 606.938 614.446 622.141 624.341 629.493Z" fill="#B1697B"/>
<path d="M8.04774 319.306H-65.7127C-83.1447 319.306 -97.2888 305.159 -97.2888 287.723V278.26C-97.2888 260.824 -83.1447 246.677 -65.7127 246.677H8.04774C25.4798 246.677 39.6239 260.824 39.6239 278.26V287.692C39.6239 305.159 25.4798 319.306 8.04774 319.306Z" fill="#47376D"/>
<path d="M1167.46 647.053H1151.92C1132.07 647.053 1115.97 630.951 1115.97 611.096C1115.97 591.24 1132.07 575.138 1151.92 575.138H1167.46C1187.31 575.138 1203.41 591.24 1203.41 611.096C1203.41 630.951 1187.31 647.053 1167.46 647.053Z" fill="#47376D"/>
<path d="M206.872 623.319H135.283C110.903 623.319 91.1755 603.556 91.1755 579.202C91.1755 554.816 110.934 535.084 135.283 535.084H206.872C231.252 535.084 250.979 554.847 250.979 579.202C251.01 603.556 231.252 623.319 206.872 623.319Z" fill="#47376D"/>
<path d="M33.4823 249.903H-37.1453C-52.313 249.903 -64.5961 237.617 -64.5961 222.446C-64.5961 207.275 -52.313 194.989 -37.1453 194.989H33.5134C48.6811 194.989 60.9641 207.275 60.9641 222.446C60.9641 237.617 48.65 249.903 33.4823 249.903Z" fill="#47376D"/>
<path d="M211.401 492.89H116.052C92.4472 492.89 73.2782 473.748 73.2782 450.107C73.2782 426.497 92.4162 407.324 116.052 407.324H211.401C235.005 407.324 254.174 426.466 254.174 450.107C254.143 473.748 235.005 492.89 211.401 492.89Z" fill="#47376D"/>
<path d="M109.724 286.14H14.4994C4.51167 286.14 -3.61499 278.043 -3.61499 268.022C-3.61499 258.032 4.48065 249.903 14.4994 249.903H109.724C119.712 249.903 127.839 258.001 127.839 268.022C127.839 278.012 119.712 286.14 109.724 286.14Z" fill="#574589"/>
<path d="M306.47 686.734H293.567C273.591 686.734 257.431 670.539 257.431 650.59C257.431 630.61 273.622 614.446 293.567 614.446H306.47C326.446 614.446 342.606 630.641 342.606 650.59C342.606 670.539 326.415 686.734 306.47 686.734Z" fill="#47376D"/>
<path d="M357.619 676.527H335.441C324.585 676.527 315.807 667.716 315.807 656.888C315.807 646.03 324.616 637.25 335.441 637.25H357.619C368.475 637.25 377.253 646.061 377.253 656.888C377.253 667.747 368.475 676.527 357.619 676.527Z" fill="#47376D"/>
<path d="M273.684 624.25L257.989 639.948C250.328 647.612 237.89 647.612 230.197 639.948C222.536 632.285 222.536 619.844 230.197 612.15L245.892 596.451C253.554 588.788 265.992 588.788 273.684 596.451C281.377 604.115 281.377 616.556 273.684 624.25Z" fill="#47376D"/>
<path d="M269.001 511.288H246.823C235.967 511.288 227.189 502.477 227.189 491.649C227.189 480.791 235.998 472.011 246.823 472.011H269.001C279.857 472.011 288.635 480.822 288.635 491.649C288.635 502.508 279.857 511.288 269.001 511.288Z" fill="#47376D"/>
<path d="M216.984 330.413H194.806C183.95 330.413 175.172 321.602 175.172 310.774C175.172 299.916 183.981 291.136 194.806 291.136H216.984C227.84 291.136 236.618 299.947 236.618 310.774C236.649 321.602 227.84 330.413 216.984 330.413Z" fill="#47376D"/>
<path d="M450.052 670.911H427.874C417.018 670.911 408.24 662.1 408.24 651.273C408.24 640.414 417.049 631.634 427.874 631.634H450.052C460.908 631.634 469.686 640.445 469.686 651.273C469.717 662.131 460.908 670.911 450.052 670.911Z" fill="#47376D"/>
<path d="M1356.21 582.056H1318.68C1291.04 582.056 1268.64 559.656 1268.64 532.013C1268.64 504.37 1291.04 481.97 1318.68 481.97H1356.21C1383.84 481.97 1406.24 504.37 1406.24 532.013C1406.24 559.687 1383.84 582.056 1356.21 582.056Z" fill="#47376D"/>
<path d="M1499.57 530.43H1443.93C1402.98 530.43 1369.76 497.234 1369.76 456.25C1369.76 415.297 1402.95 382.069 1443.93 382.069H1499.57C1540.51 382.069 1573.73 415.266 1573.73 456.25C1573.7 497.234 1540.51 530.43 1499.57 530.43Z" fill="#47376D"/>
<path d="M1504.44 350.735H1469.39C1443.61 350.735 1422.71 329.824 1422.71 304.042C1422.71 278.26 1443.61 257.35 1469.39 257.35H1504.44C1530.22 257.35 1551.12 278.26 1551.12 304.042C1551.12 329.824 1530.22 350.735 1504.44 350.735Z" fill="#47376D"/>
<path d="M1560.71 772.859H1448.36C1365.7 772.859 1298.67 705.814 1298.67 623.133C1298.67 540.452 1365.7 473.407 1448.36 473.407H1560.71C1643.37 473.407 1710.4 540.452 1710.4 623.133C1710.4 705.845 1643.37 772.859 1560.71 772.859Z" fill="#47376D"/>
<path d="M1279.31 715.525H1160.14C1132.51 715.525 1110.11 693.125 1110.11 665.482C1110.11 637.839 1132.51 615.439 1160.14 615.439H1279.31C1306.95 615.439 1329.35 637.839 1329.35 665.482C1329.35 693.125 1306.95 715.525 1279.31 715.525Z" fill="#47376D"/>
<path d="M238.82 715.525H77.6828C50.0459 715.525 27.651 693.125 27.651 665.482C27.651 637.839 50.0459 615.439 77.6828 615.439H238.82C266.457 615.439 288.852 637.839 288.852 665.482C288.821 693.125 266.426 715.525 238.82 715.525Z" fill="#47376D"/>
<path d="M92.3852 451.007H-20.0234C-65.5265 451.007 -102.438 414.087 -102.438 368.574C-102.438 323.06 -65.5265 286.141 -20.0234 286.141H92.3852C137.888 286.141 174.8 323.06 174.8 368.574C174.8 414.087 137.888 451.007 92.3852 451.007Z" fill="#47376D"/>
<path d="M31.6523 699.454H-149.306C-222.601 699.454 -282 640.042 -282 566.73C-282 493.418 -222.601 434.005 -149.306 434.005H31.6833C104.978 434.005 164.378 493.418 164.378 566.73C164.347 640.042 104.947 699.454 31.6523 699.454Z" fill="#47376D"/>
<path d="M1130.24 671.16H1106.39C1088.83 671.16 1074.63 656.95 1074.63 639.39C1074.63 621.83 1088.83 607.621 1106.39 607.621H1130.24C1147.8 607.621 1162 621.83 1162 639.39C1162 656.919 1147.8 671.16 1130.24 671.16Z" fill="#47376D"/>
<path d="M1039.89 652.079H1025.28C1014.51 652.079 1005.83 643.361 1005.83 632.626C1005.83 621.861 1014.55 613.174 1025.28 613.174H1039.89C1050.65 613.174 1059.34 621.892 1059.34 632.626C1059.34 643.361 1050.65 652.079 1039.89 652.079Z" fill="#47376D"/>
<path d="M1236.54 636.66H1220.38C1208.5 636.66 1198.85 627.011 1198.85 615.128C1198.85 603.246 1208.5 593.597 1220.38 593.597H1236.54C1248.42 593.597 1258.07 603.246 1258.07 615.128C1258.04 627.042 1248.42 636.66 1236.54 636.66Z" fill="#47376D"/>
<path d="M1334.31 422.464H1313.22C1294.79 422.464 1279.87 407.541 1279.87 389.112C1279.87 370.683 1294.79 355.76 1313.22 355.76H1334.31C1352.73 355.76 1367.65 370.683 1367.65 389.112C1367.65 407.541 1352.73 422.464 1334.31 422.464Z" fill="#47376D"/>
<path d="M1461.64 140.262H1444.89C1430.28 140.262 1418.43 128.41 1418.43 113.797C1418.43 99.1845 1430.28 87.333 1444.89 87.333H1461.64C1476.25 87.333 1488.09 99.1845 1488.09 113.797C1488.13 128.41 1476.28 140.262 1461.64 140.262Z" fill="#574589"/>
<path d="M1351.71 515.632H1336.6C1318.18 515.632 1303.26 500.709 1303.26 482.28C1303.26 463.851 1318.18 448.928 1336.6 448.928H1351.71C1370.13 448.928 1385.05 463.851 1385.05 482.28C1385.05 500.709 1370.13 515.632 1351.71 515.632Z" fill="#47376D"/>
<path d="M236.804 640.041H227.468C221.574 640.041 216.798 635.264 216.798 629.369C216.798 623.474 221.574 618.696 227.468 618.696H236.804C242.698 618.696 247.474 623.474 247.474 629.369C247.474 635.264 242.698 640.041 236.804 640.041Z" fill="#574589"/>
<path d="M151.257 606.379H141.921C136.027 606.379 131.25 601.601 131.25 595.707C131.25 589.812 136.027 585.034 141.921 585.034H151.257C157.15 585.034 161.927 589.812 161.927 595.707C161.896 601.601 157.119 606.379 151.257 606.379Z" fill="#3F3063"/>
<path d="M204.794 456.56H198.032C193.782 456.56 190.308 453.117 190.308 448.835C190.308 444.585 193.751 441.11 198.032 441.11H204.794C209.043 441.11 212.517 444.554 212.517 448.835C212.486 453.117 209.043 456.56 204.794 456.56Z" fill="#574589"/>
<path d="M1215.48 650.156H1206.14C1200.25 650.156 1195.47 645.378 1195.47 639.483C1195.47 633.588 1200.25 628.811 1206.14 628.811H1215.48C1221.37 628.811 1226.15 633.588 1226.15 639.483C1226.15 645.378 1221.37 650.156 1215.48 650.156Z" fill="#574589"/>
<path d="M1177.89 629.183H1170.94C1166.53 629.183 1162.97 625.615 1162.97 621.21C1162.97 616.804 1166.53 613.236 1170.94 613.236H1177.89C1182.29 613.236 1185.86 616.804 1185.86 621.21C1185.86 625.615 1182.29 629.183 1177.89 629.183Z" fill="#574589"/>
<path d="M107.274 402.111H91.0824C79.4508 402.111 69.9904 392.68 69.9904 381.014C69.9904 369.38 79.4198 359.917 91.0824 359.917H107.274C118.905 359.917 128.366 369.349 128.366 381.014C128.335 392.68 118.905 402.111 107.274 402.111Z" fill="#574589"/>
<path d="M30.5976 488.175H14.4063C2.77463 488.175 -6.68579 478.743 -6.68579 467.078C-6.68579 455.444 2.74361 445.981 14.4063 445.981H30.5976C42.2293 445.981 51.6898 455.412 51.6898 467.078C51.6898 478.712 42.2603 488.175 30.5976 488.175Z" fill="#3F3063"/>
<path d="M28.5195 687.169H-83.8891C-129.392 687.169 -166.303 650.249 -166.303 604.735C-166.303 559.222 -129.392 522.302 -83.8891 522.302H28.5195C74.0227 522.302 110.934 559.222 110.934 604.735C110.934 650.249 74.0227 687.169 28.5195 687.169Z" fill="#3F3063"/>
<path d="M1552.05 767.678H1439.64C1394.14 767.678 1357.23 730.759 1357.23 685.245C1357.23 639.732 1394.14 602.812 1439.64 602.812H1552.05C1597.56 602.812 1634.47 639.732 1634.47 685.245C1634.47 730.79 1597.59 767.678 1552.05 767.678Z" fill="#3F3063"/>
<path d="M172.473 679.691H145.519C132.336 679.691 121.666 669.019 121.666 655.833C121.666 642.648 132.336 631.975 145.519 631.975H172.473C185.656 631.975 196.326 642.648 196.326 655.833C196.326 668.988 185.656 679.691 172.473 679.691Z" fill="#3F3063"/>
<path d="M1051.52 526.522C1051.52 519.696 1052.82 513.181 1055.21 507.193C1056.51 503.936 1055.64 500.182 1052.95 497.917C1052.73 497.731 1052.51 497.545 1052.26 497.358C1048.01 494.008 1041.69 495.621 1039.67 500.678C1036.48 508.682 1034.71 517.4 1034.71 526.522C1034.71 535.24 1036.32 543.585 1039.24 551.28C1041.07 556.12 1046.9 558.012 1051.24 555.22C1051.39 555.127 1051.55 555.003 1051.7 554.91C1054.93 552.8 1056.3 548.767 1054.93 545.137C1052.73 539.366 1051.52 533.099 1051.52 526.522Z" fill="#B1697B"/>
<path d="M1098.88 465.837C1098.88 465.775 1098.85 465.713 1098.85 465.682C1098.11 460.935 1093.55 457.77 1088.86 458.794C1081.73 460.377 1075 463.076 1068.89 466.706C1063.74 469.746 1063.46 477.099 1068.3 480.574C1068.36 480.636 1068.42 480.667 1068.52 480.729C1071.18 482.652 1074.75 482.808 1077.6 481.163C1082.2 478.464 1087.22 476.478 1092.52 475.269C1096.8 474.276 1099.57 470.18 1098.88 465.837Z" fill="#B1697B"/>
<path d="M871.708 617.332H883.278C887.527 617.332 891.125 614.105 891.56 609.886C891.56 609.824 891.56 609.762 891.591 609.73C892.118 604.798 888.241 600.516 883.309 600.516H871.739C864.45 600.516 857.409 601.633 850.802 603.743C846.367 605.139 843.947 609.979 845.467 614.415C845.498 614.477 845.498 614.539 845.529 614.57C847.049 618.852 851.64 621.148 855.951 619.783C860.914 618.2 866.218 617.332 871.708 617.332Z" fill="#D47776"/>
<path d="M333.301 341.241C332.06 348.966 329.485 356.381 325.701 363.145C323.623 366.868 324.678 371.614 328.183 374.034C328.214 374.065 328.276 374.096 328.338 374.127C332.401 376.92 337.953 375.679 340.373 371.397C345.087 362.989 348.375 353.682 349.957 343.785C350.671 339.286 347.569 335.005 343.071 334.291C343.009 334.291 342.947 334.26 342.885 334.26C338.295 333.516 334.014 336.649 333.301 341.241Z" fill="#B1697B"/>
<path d="M320.18 528.724C318.753 528.135 317.171 528.104 315.714 528.662C311.96 530.121 308.859 532.447 307.897 536.574C307.897 536.605 307.897 536.605 307.897 536.636C307.215 539.521 308.859 542.375 311.619 543.43C319.87 546.564 327.438 551.435 333.859 557.857C336.837 560.835 339.504 564.062 341.8 567.506C342.978 569.274 345.025 570.236 347.135 570.05C349.244 569.863 351.322 569.522 353.4 569.057C357.371 568.126 359.263 563.627 357.122 560.153C348.344 546.222 335.472 535.178 320.18 528.724Z" fill="#B1697B"/>
<path d="M369.25 491.587C367.172 493.852 364.908 495.931 362.427 497.761C359.387 500.057 358.27 504.152 359.759 507.658C359.79 507.72 359.79 507.782 359.821 507.813C361.961 512.777 368.134 514.515 372.476 511.288C375.826 508.775 378.928 505.983 381.72 502.88C384.976 499.312 384.449 493.728 380.665 490.75C380.634 490.719 380.572 490.688 380.541 490.657C377.098 487.957 372.166 488.392 369.25 491.587Z" fill="#B1697B"/>
<path d="M385.845 438.163C385.783 438.194 385.752 438.225 385.69 438.225C382.092 439.838 380.169 443.778 381.006 447.625C381.781 451.069 382.185 454.637 382.185 458.329C382.185 460.811 381.999 463.262 381.626 465.651C381.006 469.808 383.612 473.748 387.644 474.896C387.706 474.896 387.768 474.927 387.799 474.927C392.638 476.323 397.539 473.066 398.283 468.071C398.748 464.875 398.996 461.618 398.996 458.298C398.996 453.334 398.438 448.494 397.414 443.84C396.298 438.721 390.653 435.96 385.845 438.163Z" fill="#B1697B"/>
<path d="M665.378 603.277C665.192 607.869 668.945 611.654 673.535 611.654H680.049C691.029 611.654 701.048 615.749 708.71 622.512C711.935 625.367 716.867 625.336 719.907 622.264C720.093 622.078 720.31 621.861 720.496 621.675C723.629 618.324 723.443 613.05 720.031 610.009C709.392 600.547 695.403 594.807 680.08 594.807H673.597C669.255 594.807 665.657 598.22 665.44 602.563C665.378 602.812 665.378 603.029 665.378 603.277Z" fill="#D47776"/>
<path d="M556.164 597.6C556.164 597.662 556.133 597.724 556.133 597.755C554.985 601.943 557.187 606.287 561.22 607.807C565.128 609.265 568.664 611.499 571.642 614.291C575.395 617.859 581.381 617.301 584.328 613.05L584.421 612.895C586.747 609.544 586.313 604.984 583.366 602.16C578.745 597.724 573.193 594.218 567.051 591.953C562.492 590.34 557.436 592.946 556.164 597.6Z" fill="#D47776"/>
<path d="M1164.76 360.135C1164.61 360.166 1164.42 360.166 1164.27 360.197C1159.31 360.663 1155.96 365.409 1157.07 370.249C1159.58 381.17 1165.04 390.943 1172.52 398.761C1176.3 402.701 1182.82 401.833 1185.52 397.086C1185.58 396.962 1185.64 396.869 1185.7 396.744C1187.53 393.549 1187.04 389.578 1184.49 386.91C1179.16 381.294 1175.28 374.314 1173.48 366.526C1172.55 362.524 1168.86 359.763 1164.76 360.135Z" fill="#B1697B"/>
<path d="M949.625 546.812C941.157 550.473 933.868 556.368 928.564 563.752C926.051 567.226 926.579 572.066 929.805 574.921L929.867 574.983C933.558 578.24 939.327 577.682 942.181 573.68C945.748 568.685 950.649 564.713 956.325 562.262C959.644 560.835 961.66 557.392 961.288 553.793C961.288 553.731 961.288 553.669 961.257 553.638C960.698 547.991 954.836 544.547 949.625 546.812Z" fill="#D47776"/>
<path d="M409.884 558.353C410.814 562.479 414.691 565.334 418.91 564.837C420.554 564.651 422.229 564.558 423.904 564.558H429.177C433.24 564.558 436.714 561.642 437.396 557.639C437.427 557.546 437.427 557.422 437.459 557.329C438.265 552.272 434.326 547.711 429.208 547.711H423.904C421.608 547.711 419.313 547.836 417.08 548.084C412.148 548.642 408.798 553.327 409.853 558.198C409.853 558.229 409.884 558.291 409.884 558.353Z" fill="#B1697B"/>
<path d="M456.938 557.639C456.938 557.701 456.938 557.763 456.938 557.794C456.689 561.642 459.109 565.209 462.8 566.295C472.167 569.088 480.232 574.982 485.784 582.77C488.39 586.431 493.415 587.423 497.168 584.972L497.323 584.879C501.262 582.304 502.317 576.968 499.618 573.121C491.926 562.231 480.697 554.009 467.608 550.131C462.459 548.642 457.279 552.334 456.938 557.639Z" fill="#B1697B"/>
</g>
</svg>
