<svg xmlns="http://www.w3.org/2000/svg" width="155" height="48" viewBox="0 0 155 48">
    <g fill="#000" fill-rule="evenodd">
        <path d="M36.605 36.11L22.19 21.712 7.992 35.895A17.592 17.592 0 0 1 4.667 25.58c0-9.77 7.928-17.69 17.708-17.69 9.78 0 17.709 7.92 17.709 17.69 0 3.945-1.294 7.588-3.48 10.53m-14.229 7.16c-4.39 0-8.403-1.598-11.498-4.241L22.19 27.729l11.485 11.473a17.646 17.646 0 0 1-11.3 4.07m26.19-32.776h-6.726a.853.853 0 0 0-.854.853v1.99A22.376 22.376 0 0 0 37.208 9h1.777a.853.853 0 0 0 .854-.853V3.125a.853.853 0 0 0-.854-.853h-5.028a.853.853 0 0 0-.853.853v2.983a22.2 22.2 0 0 0-10.688-2.725C10.109 3.383.132 13.35.132 25.645s9.977 22.262 22.284 22.262c12.307 0 22.284-9.967 22.284-22.262 0-2.344-.364-4.602-1.037-6.724h4.901a.853.853 0 0 0 .854-.853v-6.719a.853.853 0 0 0-.854-.853M48.564.055h-3.513a.853.853 0 0 0-.854.853v3.51c0 .47.383.853.854.853h3.513a.853.853 0 0 0 .854-.853V.908a.853.853 0 0 0-.854-.853M62.342 15.163v-2.5c0-.679-.526-1.203-1.174-1.203-.65 0-1.174.524-1.174 1.203v2.068c0 1.266.957 2.901.957 2.901l2.658 5c1.08 1.976.988 3.427.988 3.427v2.747c0 1.512-1.236 2.747-2.78 2.747h-1.391a2.805 2.805 0 0 1-2.688-2.747v-2.223c0-.71.34-1.049.618-1.203.186-.062 1.081-.463 1.638-.71v3.765c0 .648.525 1.173 1.174 1.173.648 0 1.174-.525 1.174-1.203v-2.47c0-1.265-.958-2.932-.958-2.932l-2.657-4.97c-1.082-1.974-.989-3.425-.989-3.425v-2.222c0-1.513 1.236-2.87 2.78-2.87h1.391c1.483.03 2.688 1.388 2.688 2.87v.833c0 .71-.34 1.05-.618 1.204a41.84 41.84 0 0 1-1.637.74M81.436 12.848a1.175 1.175 0 0 0-1.174-1.049h-1.174v7.778h1.174c.618 0 1.112-.463 1.174-1.05v-5.679zm-.68-3.117c1.483 0 2.812 1.204 2.812 2.716v5.587c0 2.099-1.02 3.611-3.152 3.611h-1.328v9.692h-1.576c-.525 0-.618-.309-.618-.463V9.73h3.862zM102.106 31.337h-2.44L97.718 16.46l-1.947 14.877h-2.44L96.605 9.73h1.205c.927 0 1.082.587 1.175 1.173l3.12 20.433zM115.515 19.947c.587 0 1.144-.246 1.144-1.234V12.91c0-.802-.557-1.111-1.144-1.111h-1.174v8.148h1.174zm1.144 11.39v-7.902c0-1.05-.557-1.389-1.144-1.389h-1.174v9.29h-2.224V9.732h4.047a2.722 2.722 0 0 1 2.72 2.716v6.667s.092 1.698-.804 1.914c.865.432.803 2.037.803 2.037v8.272h-2.224zM137.7 11.336c-.124.278-.464.587-1.174.587h-1.73c-.31 0-.526.246-.557.524v18.89h-1.575c-.526 0-.618-.31-.618-.463V11.923h-3.121V10.41c0-.37.309-.679.68-.679h8.836l-.742 1.605zM154.94 31.337h-2.44l-1.947-14.877-1.947 14.877h-2.44L149.44 9.73h1.205c.927 0 1.082.587 1.175 1.173l3.12 20.433zM59.156 38.737c0-.235-.163-.326-.344-.326h-.425v5.03h.425c.18 0 .344-.09.344-.333v-4.371zm-.163-.976c.443 0 .795.352.804.795v4.732a.804.804 0 0 1-.804.795h-1.257v-6.322h1.257zM65.973 37.761c.19 0 .262.145.262.253v6.07h-.461c-.154 0-.18-.091-.19-.136V37.76h.389zM74.047 39.486c0 .217-.09.307-.181.352a7.113 7.113 0 0 1-.47.217V38.61a.343.343 0 0 0-.687 0v4.624a.343.343 0 0 0 .687 0v-1.887h-.027c-.145 0-.235-.208-.235-.208l-.217-.452h.813c.2 0 .317.109.317.352v2.304a.814.814 0 0 1-.787.803h-.397a.806.806 0 0 1-.805-.803v-4.841c0-.443.362-.804.805-.804h.397c.434.018.787.37.787.804v.984zM80.258 37.761c.19 0 .263.145.263.253v6.07h-.462c-.153 0-.18-.091-.19-.136V37.76h.39zM88.396 38.23c-.037.082-.136.172-.344.172h-.506c-.09 0-.154.073-.163.154v5.527h-.461c-.154 0-.181-.09-.181-.135v-5.546h-.913v-.442a.2.2 0 0 1 .199-.199h2.585l-.216.47zM95.583 44.083h-.714l-.57-4.353-.569 4.353h-.714l.958-6.322h.353c.271 0 .316.172.343.343l.913 5.98zM103.025 43.442c-.073.162-.181.415-.208.47-.046.08-.145.171-.353.171h-1.555v-6.322h.452c.109.01.199.09.199.199v5.482h1.465zM117.554 44.083h-.714l-.57-4.353-.57 4.353h-.713l.958-6.322h.352c.272 0 .317.172.344.343l.913 5.98zM124.679 39.486c0 .217-.09.307-.181.352a7.17 7.17 0 0 1-.47.217V38.61a.343.343 0 0 0-.687 0v4.624a.343.343 0 1 0 .687 0v-1.887H124c-.144 0-.234-.208-.234-.208l-.218-.452h.814c.2 0 .317.109.317.352v2.304a.814.814 0 0 1-.787.803h-.398a.806.806 0 0 1-.804-.803v-4.841c0-.443.361-.804.804-.804h.398c.434.018.787.37.787.804v.984zM132.554 43.442c-.073.162-.181.415-.208.47-.045.08-.145.171-.353.171h-1.446v-6.141c.009-.1.09-.18.199-.18h1.69l-.217.469c-.036.081-.135.18-.343.18h-.525a.147.147 0 0 0-.153.154v1.879h.976c-.072.162-.18.424-.208.478-.045.082-.136.172-.344.172h-.27a.158.158 0 0 0-.154.153v2.195h1.356zM139.913 44.083h-.298c-.353 0-.407-.28-.434-.406l-.696-3.125v3.531h-.65v-6.322h.297c.362 0 .425.172.461.352l.67 3.288v-3.64h.65v6.322zM147.481 43.343a.807.807 0 0 1-.778.803h-.397a.808.808 0 0 1-.814-.803v-4.841c0-.443.362-.804.814-.804h.397a.8.8 0 0 1 .778.804v.966c0 .208-.09.307-.172.343l-.47.217V38.61a.345.345 0 0 0-.352-.343.343.343 0 0 0-.344.343v4.615c0 .199.154.352.344.352a.347.347 0 0 0 .352-.352v-.849c0-.208.09-.307.172-.352.054-.027.307-.135.47-.208v1.527zM154.163 41.455v2.628h-.461c-.1 0-.181-.081-.19-.19v-2.438l-.778-3.694h.48c.018 0 .18.01.207.217l.416 2.393.416-2.393c.027-.208.19-.217.208-.217h.48l-.778 3.694z"/>
    </g>
</svg>
