<svg width="1440" height="407" viewBox="0 0 1440 407" fill="none" xmlns="http://www.w3.org/2000/svg">
<path fill-rule="evenodd" clip-rule="evenodd" d="M1042.49 21.2078L1042.42 21.072C1042.33 20.8997 1042.33 20.6931 1042.42 20.5208L1042.49 20.3861C1042.62 20.1619 1042.58 19.8846 1042.4 19.7035C1042.22 19.5235 1041.94 19.4837 1041.72 19.6063L1041.58 19.6803C1041.41 19.7742 1041.2 19.7742 1041.03 19.6803L1040.9 19.6063C1040.67 19.4837 1040.39 19.5235 1040.22 19.7035C1040.04 19.8846 1039.99 20.1619 1040.12 20.3861L1040.19 20.5208C1040.29 20.6931 1040.29 20.8997 1040.19 21.072L1040.12 21.2078C1039.99 21.4309 1040.04 21.7082 1040.22 21.8882C1040.39 22.0693 1040.67 22.108 1040.9 21.9865L1041.03 21.9125C1041.2 21.8186 1041.41 21.8186 1041.58 21.9125L1041.72 21.9865C1041.94 22.108 1042.22 22.0693 1042.4 21.8882C1042.58 21.7082 1042.62 21.4309 1042.49 21.2078Z" fill="#F2C43F"/>
<path fill-rule="evenodd" clip-rule="evenodd" d="M645.84 235.115L645.766 234.98C645.673 234.808 645.673 234.6 645.766 234.428L645.84 234.293C645.963 234.07 645.923 233.792 645.743 233.612C645.563 233.432 645.285 233.391 645.062 233.515L644.928 233.588C644.756 233.683 644.548 233.683 644.376 233.588L644.241 233.515C644.018 233.391 643.74 233.432 643.561 233.612C643.381 233.792 643.341 234.07 643.463 234.293L643.537 234.428C643.631 234.6 643.631 234.808 643.537 234.98L643.463 235.115C643.341 235.338 643.381 235.617 643.561 235.797C643.74 235.977 644.018 236.016 644.241 235.894L644.376 235.821C644.548 235.726 644.756 235.726 644.928 235.821L645.062 235.894C645.285 236.016 645.563 235.977 645.743 235.797C645.923 235.617 645.963 235.338 645.84 235.115Z" fill="#F2C43F"/>
<path fill-rule="evenodd" clip-rule="evenodd" d="M1357.9 75.6815L1357.83 75.5457C1357.74 75.3734 1357.74 75.1668 1357.83 74.9945L1357.9 74.8598C1358.02 74.6356 1357.98 74.3583 1357.8 74.1772C1357.62 73.9972 1357.35 73.9574 1357.12 74.08L1356.99 74.154C1356.82 74.2479 1356.61 74.2479 1356.44 74.154L1356.3 74.08C1356.08 73.9574 1355.8 73.9972 1355.62 74.1772C1355.44 74.3583 1355.4 74.6356 1355.52 74.8598L1355.6 74.9945C1355.69 75.1668 1355.69 75.3734 1355.6 75.5457L1355.52 75.6815C1355.4 75.9046 1355.44 76.1818 1355.62 76.3619C1355.8 76.543 1356.08 76.5817 1356.3 76.4602L1356.44 76.3862C1356.61 76.2923 1356.82 76.2923 1356.99 76.3862L1357.12 76.4602C1357.35 76.5817 1357.62 76.543 1357.8 76.3619C1357.98 76.1818 1358.02 75.9046 1357.9 75.6815Z" fill="#F2C43F"/>
<path fill-rule="evenodd" clip-rule="evenodd" d="M1439.93 254.455L1439.86 254.32C1439.76 254.148 1439.76 253.941 1439.86 253.768L1439.93 253.634C1440.05 253.409 1440.01 253.132 1439.83 252.952C1439.65 252.771 1439.37 252.731 1439.15 252.854L1439.02 252.928C1438.85 253.022 1438.64 253.022 1438.47 252.928L1438.33 252.854C1438.11 252.731 1437.83 252.771 1437.65 252.952C1437.47 253.132 1437.43 253.409 1437.55 253.634L1437.63 253.768C1437.72 253.941 1437.72 254.148 1437.63 254.32L1437.55 254.455C1437.43 254.679 1437.47 254.956 1437.65 255.137C1437.83 255.317 1438.11 255.356 1438.33 255.234L1438.47 255.16C1438.64 255.066 1438.85 255.066 1439.02 255.16L1439.15 255.234C1439.37 255.356 1439.65 255.317 1439.83 255.137C1440.01 254.956 1440.05 254.679 1439.93 254.455Z" fill="#F2C43F"/>
<path fill-rule="evenodd" clip-rule="evenodd" d="M1182.65 9.25683L1182.59 9.14859C1182.51 9.01384 1182.51 8.84816 1182.59 8.71231L1182.65 8.60407C1182.74 8.42735 1182.71 8.20646 1182.57 8.06398C1182.43 7.92039 1182.21 7.88836 1182.03 7.98666L1181.92 8.0441C1181.79 8.12031 1181.62 8.12031 1181.48 8.0441L1181.38 7.98666C1181.2 7.88836 1180.98 7.92039 1180.84 8.06398C1180.69 8.20646 1180.66 8.42735 1180.76 8.60407L1180.82 8.71231C1180.89 8.84816 1180.89 9.01384 1180.82 9.14859L1180.76 9.25683C1180.66 9.43465 1180.69 9.65444 1180.84 9.79802C1180.98 9.9405 1181.2 9.97143 1181.38 9.87534L1181.48 9.8168C1181.62 9.7417 1181.79 9.7417 1181.92 9.8168L1182.03 9.87534C1182.21 9.97143 1182.43 9.9405 1182.57 9.79802C1182.71 9.65444 1182.74 9.43465 1182.65 9.25683Z" fill="#F2C43F"/>
<path fill-rule="evenodd" clip-rule="evenodd" d="M1154.57 19.5661L1154.62 19.4137C1154.67 19.2215 1154.82 19.0724 1155.02 19.015L1155.17 18.9708C1155.42 18.8979 1155.59 18.6682 1155.59 18.4064C1155.59 18.1458 1155.42 17.916 1155.17 17.8409L1155.02 17.7967C1154.82 17.7426 1154.67 17.5913 1154.62 17.398L1154.57 17.2467C1154.5 16.996 1154.27 16.8237 1154.01 16.8237C1153.75 16.8237 1153.52 16.996 1153.45 17.2467L1153.4 17.398C1153.35 17.5913 1153.19 17.7426 1153 17.7967L1152.85 17.8409C1152.6 17.916 1152.43 18.1458 1152.43 18.4064C1152.43 18.6682 1152.6 18.8979 1152.85 18.9708L1153 19.015C1153.19 19.0724 1153.35 19.2215 1153.4 19.4137L1153.45 19.5661C1153.52 19.8168 1153.75 19.9891 1154.01 19.9891C1154.27 19.9891 1154.5 19.8168 1154.57 19.5661Z" fill="#9BDBEA"/>
<path fill-rule="evenodd" clip-rule="evenodd" d="M1246.64 69.0784L1246.56 68.9436C1246.47 68.7713 1246.47 68.5637 1246.56 68.3925L1246.64 68.2566C1246.76 68.0335 1246.72 67.7563 1246.54 67.5752C1246.36 67.3951 1246.08 67.3554 1245.86 67.478L1245.72 67.552C1245.55 67.6458 1245.34 67.6458 1245.17 67.552L1245.04 67.478C1244.81 67.3554 1244.54 67.3951 1244.36 67.5752C1244.18 67.7563 1244.14 68.0335 1244.26 68.2566L1244.33 68.3925C1244.43 68.5637 1244.43 68.7713 1244.33 68.9436L1244.26 69.0784C1244.14 69.3015 1244.18 69.5798 1244.36 69.7598C1244.54 69.941 1244.81 69.9796 1245.04 69.857L1245.17 69.7841C1245.34 69.6902 1245.55 69.6902 1245.72 69.7841L1245.86 69.857C1246.08 69.9796 1246.36 69.941 1246.54 69.7598C1246.72 69.5798 1246.76 69.3015 1246.64 69.0784Z" fill="#E096FF"/>
<path fill-rule="evenodd" clip-rule="evenodd" d="M88.378 107.796L88.3041 107.661C88.2103 107.489 88.2103 107.28 88.3041 107.109L88.378 106.974C88.5005 106.751 88.4608 106.473 88.2798 106.293C88.1 106.112 87.823 106.072 87.6001 106.195L87.4644 106.268C87.2933 106.363 87.0848 106.363 86.9137 106.268L86.7791 106.195C86.5551 106.072 86.2782 106.112 86.0983 106.293C85.9173 106.473 85.8776 106.751 86.0001 106.974L86.0751 107.109C86.1678 107.28 86.1678 107.489 86.0751 107.661L86.0001 107.796C85.8776 108.018 85.9173 108.296 86.0983 108.477C86.2782 108.657 86.5551 108.697 86.7791 108.573L86.9137 108.501C87.0848 108.407 87.2933 108.407 87.4644 108.501L87.6001 108.573C87.823 108.697 88.1 108.657 88.2798 108.477C88.4608 108.296 88.5005 108.018 88.378 107.796Z" fill="#E096FF"/>
<path fill-rule="evenodd" clip-rule="evenodd" d="M840.677 38.6995L840.603 38.5648C840.509 38.3925 840.509 38.1848 840.603 38.0125L840.677 37.8778C840.798 37.6547 840.759 37.3763 840.579 37.1963C840.399 37.0163 840.122 36.9765 839.899 37.0991L839.763 37.1731C839.592 37.267 839.384 37.267 839.213 37.1731L839.078 37.0991C838.854 36.9765 838.577 37.0163 838.397 37.1963C838.216 37.3763 838.177 37.6547 838.299 37.8778L838.373 38.0125C838.467 38.1848 838.467 38.3925 838.373 38.5648L838.299 38.6995C838.177 38.9226 838.216 39.2009 838.397 39.381C838.577 39.561 838.854 39.6008 839.078 39.4782L839.213 39.4053C839.384 39.3103 839.592 39.3103 839.763 39.4053L839.899 39.4782C840.122 39.6008 840.399 39.561 840.579 39.381C840.759 39.2009 840.798 38.9226 840.677 38.6995Z" fill="#E096FF"/>
<path fill-rule="evenodd" clip-rule="evenodd" d="M1088.78 95.0748L1088.71 94.94C1088.61 94.7677 1088.61 94.5601 1088.71 94.3878L1088.78 94.253C1088.9 94.0299 1088.86 93.7516 1088.68 93.5716C1088.5 93.3915 1088.22 93.3518 1088 93.4744L1087.87 93.5484C1087.7 93.6423 1087.49 93.6423 1087.32 93.5484L1087.18 93.4744C1086.96 93.3518 1086.68 93.3915 1086.5 93.5716C1086.32 93.7516 1086.28 94.0299 1086.4 94.253L1086.48 94.3878C1086.57 94.5601 1086.57 94.7677 1086.48 94.94L1086.4 95.0748C1086.28 95.2979 1086.32 95.5762 1086.5 95.7563C1086.68 95.9363 1086.96 95.9761 1087.18 95.8535L1087.32 95.7806C1087.49 95.6856 1087.7 95.6856 1087.87 95.7806L1088 95.8535C1088.22 95.9761 1088.5 95.9363 1088.68 95.7563C1088.86 95.5762 1088.9 95.2979 1088.78 95.0748Z" fill="#E096FF"/>
<path fill-rule="evenodd" clip-rule="evenodd" d="M1293.28 17.876L1293.32 17.7391C1293.37 17.5646 1293.5 17.4276 1293.68 17.3757L1293.82 17.3359C1294.04 17.2697 1294.2 17.0609 1294.2 16.8235C1294.2 16.5871 1294.04 16.3784 1293.82 16.311L1293.68 16.2712C1293.5 16.2193 1293.37 16.0835 1293.32 15.9089L1293.28 15.7709C1293.21 15.5434 1293 15.3865 1292.76 15.3865C1292.53 15.3865 1292.32 15.5434 1292.25 15.7709L1292.21 15.9089C1292.16 16.0835 1292.02 16.2193 1291.85 16.2712L1291.71 16.311C1291.49 16.3784 1291.33 16.5871 1291.33 16.8235C1291.33 17.0609 1291.49 17.2697 1291.71 17.3359L1291.85 17.3757C1292.02 17.4276 1292.16 17.5646 1292.21 17.7391L1292.25 17.876C1292.32 18.1036 1292.53 18.2615 1292.76 18.2615C1293 18.2615 1293.21 18.1036 1293.28 17.876Z" fill="#3DAFCC"/>
<path fill-rule="evenodd" clip-rule="evenodd" d="M48.4497 37.9045L48.4894 37.7664C48.5412 37.5919 48.6781 37.4561 48.8524 37.4042L48.9903 37.3644C49.2165 37.2981 49.3732 37.0894 49.3732 36.8519C49.3732 36.6145 49.2165 36.4068 48.9903 36.3394L48.8524 36.2997C48.6781 36.2478 48.5412 36.1108 48.4894 35.9363L48.4497 35.7993C48.3823 35.5718 48.1738 35.415 47.9377 35.415C47.7004 35.415 47.4919 35.5718 47.4257 35.7993L47.3859 35.9363C47.3341 36.1108 47.1983 36.2478 47.0229 36.2997L46.8861 36.3394C46.6577 36.4068 46.501 36.6145 46.501 36.8519C46.501 37.0894 46.6577 37.2981 46.8861 37.3644L47.0229 37.4042C47.1983 37.4561 47.3341 37.5919 47.3859 37.7664L47.4257 37.9045C47.4919 38.132 47.7004 38.2889 47.9377 38.2889C48.1738 38.2889 48.3823 38.132 48.4497 37.9045Z" fill="#3DAFCC"/>
<path fill-rule="evenodd" clip-rule="evenodd" d="M1220.82 8.51914L1220.74 8.49484C1220.63 8.46392 1220.55 8.38218 1220.52 8.27615L1220.49 8.19332C1220.45 8.05636 1220.33 7.96248 1220.19 7.96248C1220.04 7.96248 1219.92 8.05636 1219.88 8.19332L1219.85 8.27615C1219.82 8.38218 1219.74 8.46392 1219.64 8.49484L1219.55 8.51914C1219.42 8.5589 1219.32 8.68371 1219.32 8.82619C1219.32 8.96867 1219.42 9.09458 1219.55 9.13545L1219.64 9.15864C1219.74 9.18846 1219.82 9.2724 1219.85 9.37622L1219.88 9.46016C1219.92 9.59712 1220.04 9.691 1220.19 9.691C1220.33 9.691 1220.45 9.59712 1220.49 9.46016L1220.52 9.37622C1220.55 9.2724 1220.63 9.18846 1220.74 9.15864L1220.82 9.13545C1220.96 9.09458 1221.05 8.96867 1221.05 8.82619C1221.05 8.68371 1220.96 8.5589 1220.82 8.51914Z" fill="#CA75ED"/>
<path fill-rule="evenodd" clip-rule="evenodd" d="M1095.15 46.0458L1095.02 46.1143C1094.86 46.2048 1094.67 46.2048 1094.51 46.1143L1094.38 46.0458C1094.17 45.9309 1093.91 45.9685 1093.74 46.1375C1093.57 46.3053 1093.54 46.5671 1093.65 46.7747L1093.72 46.9018C1093.81 47.063 1093.81 47.2585 1093.72 47.4187L1093.65 47.5446C1093.54 47.7544 1093.57 48.0151 1093.74 48.1841C1093.91 48.3531 1094.17 48.3895 1094.38 48.2746L1094.51 48.2062C1094.67 48.1167 1094.86 48.1167 1095.02 48.2062L1095.15 48.2746C1095.36 48.3895 1095.62 48.3531 1095.79 48.1841C1095.96 48.0151 1096 47.7544 1095.88 47.5446L1095.81 47.4187C1095.72 47.2585 1095.72 47.063 1095.81 46.9018L1095.88 46.7747C1096 46.5671 1095.96 46.3053 1095.79 46.1375C1095.62 45.9685 1095.36 45.9309 1095.15 46.0458Z" fill="#3DAFCC"/>
<path fill-rule="evenodd" clip-rule="evenodd" d="M1331.77 177.285L1331.63 177.242C1331.45 177.189 1331.3 177.047 1331.25 176.865L1331.21 176.723C1331.14 176.485 1330.92 176.324 1330.68 176.324C1330.43 176.324 1330.21 176.485 1330.14 176.723L1330.1 176.865C1330.05 177.047 1329.91 177.189 1329.73 177.242L1329.58 177.285C1329.35 177.353 1329.18 177.571 1329.18 177.817C1329.18 178.063 1329.35 178.28 1329.58 178.351L1329.73 178.391C1329.91 178.444 1330.05 178.588 1330.1 178.769L1330.14 178.913C1330.21 179.148 1330.43 179.311 1330.68 179.311C1330.92 179.311 1331.14 179.148 1331.21 178.913L1331.25 178.769C1331.3 178.588 1331.45 178.444 1331.63 178.391L1331.77 178.351C1332.01 178.28 1332.17 178.063 1332.17 177.817C1332.17 177.571 1332.01 177.353 1331.77 177.285Z" fill="#875DF9"/>
<path fill-rule="evenodd" clip-rule="evenodd" d="M988.667 70.7016L988.524 70.6596C988.342 70.6066 988.2 70.4641 988.147 70.283L988.105 70.1394C988.037 69.9031 987.819 69.7407 987.573 69.7407C987.327 69.7407 987.111 69.9031 987.04 70.1394L986.999 70.283C986.946 70.4641 986.805 70.6066 986.622 70.6596L986.481 70.7016C986.245 70.7712 986.08 70.9877 986.08 71.234C986.08 71.4803 986.245 71.6967 986.481 71.7674L986.622 71.8094C986.805 71.8624 986.946 72.0049 986.999 72.186L987.04 72.3296C987.111 72.5649 987.327 72.7283 987.573 72.7283C987.819 72.7283 988.037 72.5649 988.105 72.3296L988.147 72.186C988.2 72.0049 988.342 71.8624 988.524 71.8094L988.667 71.7674C988.904 71.6967 989.065 71.4803 989.065 71.234C989.065 70.9877 988.904 70.7712 988.667 70.7016Z" fill="#875DF9"/>
<path fill-rule="evenodd" clip-rule="evenodd" d="M489.928 199.375L489.785 199.333C489.603 199.28 489.461 199.137 489.408 198.956L489.366 198.812C489.298 198.576 489.08 198.414 488.834 198.414C488.588 198.414 488.371 198.576 488.301 198.812L488.26 198.956C488.207 199.137 488.065 199.28 487.883 199.333L487.741 199.375C487.505 199.444 487.341 199.661 487.341 199.907C487.341 200.153 487.505 200.37 487.741 200.44L487.883 200.482C488.065 200.535 488.207 200.678 488.26 200.859L488.301 201.003C488.371 201.238 488.588 201.401 488.834 201.401C489.08 201.401 489.298 201.238 489.366 201.003L489.408 200.859C489.461 200.678 489.603 200.535 489.785 200.482L489.928 200.44C490.165 200.37 490.326 200.153 490.326 199.907C490.326 199.661 490.165 199.444 489.928 199.375Z" fill="#875DF9"/>
<path fill-rule="evenodd" clip-rule="evenodd" d="M842.074 397.35L841.931 397.308C841.749 397.255 841.608 397.112 841.555 396.931L841.512 396.788C841.445 396.551 841.226 396.389 840.98 396.389C840.734 396.389 840.518 396.551 840.447 396.788L840.406 396.931C840.353 397.112 840.212 397.255 840.03 397.308L839.888 397.35C839.652 397.419 839.487 397.636 839.487 397.882C839.487 398.129 839.652 398.346 839.888 398.416L840.03 398.458C840.212 398.511 840.353 398.653 840.406 398.834L840.447 398.978C840.518 399.214 840.734 399.376 840.98 399.376C841.226 399.376 841.445 399.214 841.512 398.978L841.555 398.834C841.608 398.653 841.749 398.511 841.931 398.458L842.074 398.416C842.311 398.346 842.472 398.129 842.472 397.882C842.472 397.636 842.311 397.419 842.074 397.35Z" fill="#875DF9"/>
<path fill-rule="evenodd" clip-rule="evenodd" d="M1146.72 32.6604L1146.57 32.6184C1146.39 32.5654 1146.25 32.4229 1146.2 32.2407L1146.15 32.0982C1146.09 31.8618 1145.87 31.6995 1145.62 31.6995C1145.38 31.6995 1145.16 31.8618 1145.09 32.0982L1145.05 32.2407C1144.99 32.4229 1144.85 32.5654 1144.67 32.6184L1144.53 32.6604C1144.29 32.7289 1144.13 32.9464 1144.13 33.1927C1144.13 33.439 1144.29 33.6555 1144.53 33.7262L1144.67 33.7682C1144.85 33.8201 1144.99 33.9637 1145.05 34.1448L1145.09 34.2884C1145.16 34.5237 1145.38 34.6871 1145.62 34.6871C1145.87 34.6871 1146.09 34.5237 1146.15 34.2884L1146.2 34.1448C1146.25 33.9637 1146.39 33.8201 1146.57 33.7682L1146.72 33.7262C1146.95 33.6555 1147.11 33.439 1147.11 33.1927C1147.11 32.9464 1146.95 32.7289 1146.72 32.6604Z" fill="#875DF9"/>
<path fill-rule="evenodd" clip-rule="evenodd" d="M953.732 14.1699L953.693 14.0981C953.642 14.0065 953.642 13.8938 953.693 13.801L953.732 13.7292C953.798 13.6077 953.777 13.4575 953.679 13.3625C953.583 13.2654 953.434 13.2422 953.314 13.3095L953.241 13.3482C953.148 13.4001 953.037 13.4001 952.944 13.3482L952.871 13.3095C952.752 13.2422 952.603 13.2654 952.505 13.3625C952.409 13.4575 952.387 13.6077 952.453 13.7292L952.494 13.801C952.544 13.8938 952.544 14.0065 952.494 14.0981L952.453 14.1699C952.387 14.2903 952.409 14.4405 952.505 14.5377C952.603 14.6338 952.752 14.6559 952.871 14.5896L952.944 14.551C953.037 14.4991 953.148 14.4991 953.241 14.551L953.314 14.5896C953.434 14.6559 953.583 14.6338 953.679 14.5377C953.777 14.4405 953.798 14.2903 953.732 14.1699Z" fill="#F2C43F"/>
<path fill-rule="evenodd" clip-rule="evenodd" d="M128.897 176.544L128.858 176.473C128.807 176.38 128.807 176.268 128.858 176.175L128.897 176.103C128.964 175.982 128.943 175.831 128.846 175.736C128.75 175.639 128.6 175.616 128.479 175.683L128.406 175.722C128.314 175.774 128.202 175.774 128.11 175.722L128.037 175.683C127.918 175.616 127.769 175.639 127.67 175.736C127.573 175.831 127.552 175.982 127.619 176.103L127.658 176.175C127.709 176.268 127.709 176.38 127.658 176.473L127.619 176.544C127.552 176.664 127.573 176.814 127.67 176.912C127.769 177.008 127.918 177.03 128.037 176.965L128.11 176.925C128.202 176.874 128.314 176.874 128.406 176.925L128.479 176.965C128.6 177.03 128.75 177.008 128.846 176.912C128.943 176.814 128.964 176.664 128.897 176.544Z" fill="#F2C43F"/>
<path fill-rule="evenodd" clip-rule="evenodd" d="M678.119 405.612L678.079 405.54C678.029 405.447 678.029 405.336 678.079 405.242L678.119 405.17C678.185 405.049 678.164 404.899 678.066 404.803C677.97 404.706 677.821 404.684 677.701 404.75L677.628 404.79C677.535 404.841 677.424 404.841 677.331 404.79L677.258 404.75C677.139 404.684 676.989 404.706 676.892 404.803C676.795 404.899 676.774 405.049 676.84 405.17L676.88 405.242C676.931 405.336 676.931 405.447 676.88 405.54L676.84 405.612C676.774 405.732 676.795 405.882 676.892 405.978C676.989 406.076 677.139 406.097 677.258 406.031L677.331 405.993C677.424 405.941 677.535 405.941 677.628 405.993L677.701 406.031C677.821 406.097 677.97 406.076 678.066 405.978C678.164 405.882 678.185 405.732 678.119 405.612Z" fill="#F2C43F"/>
<path fill-rule="evenodd" clip-rule="evenodd" d="M1313.33 137.856L1313.29 137.785C1313.24 137.692 1313.24 137.579 1313.29 137.486L1313.33 137.415C1313.4 137.293 1313.37 137.144 1313.28 137.048C1313.18 136.951 1313.03 136.929 1312.91 136.995L1312.84 137.035C1312.75 137.086 1312.63 137.086 1312.54 137.035L1312.47 136.995C1312.35 136.929 1312.2 136.951 1312.1 137.048C1312.01 137.144 1311.98 137.293 1312.05 137.415L1312.09 137.486C1312.14 137.579 1312.14 137.692 1312.09 137.785L1312.05 137.856C1311.98 137.976 1312.01 138.126 1312.1 138.223C1312.2 138.32 1312.35 138.341 1312.47 138.276L1312.54 138.236C1312.63 138.186 1312.75 138.186 1312.84 138.236L1312.91 138.276C1313.03 138.341 1313.18 138.32 1313.28 138.223C1313.37 138.126 1313.4 137.976 1313.33 137.856Z" fill="#F2C43F"/>
<path fill-rule="evenodd" clip-rule="evenodd" d="M1197.46 70.5269L1197.49 70.4242C1197.53 70.2927 1197.63 70.1911 1197.76 70.1525L1197.87 70.1238C1198.04 70.0729 1198.15 69.9172 1198.15 69.7394C1198.15 69.5627 1198.04 69.408 1197.87 69.3572L1197.76 69.3274C1197.63 69.2899 1197.53 69.1882 1197.49 69.0568L1197.46 68.9541C1197.41 68.7851 1197.26 68.6669 1197.08 68.6669C1196.9 68.6669 1196.75 68.7851 1196.7 68.9541L1196.67 69.0568C1196.63 69.1882 1196.53 69.2899 1196.4 69.3274L1196.3 69.3572C1196.13 69.408 1196.01 69.5627 1196.01 69.7394C1196.01 69.9172 1196.13 70.0729 1196.3 70.1238L1196.4 70.1525C1196.53 70.1911 1196.63 70.2927 1196.67 70.4242L1196.7 70.5269C1196.75 70.6959 1196.9 70.8141 1197.08 70.8141C1197.26 70.8141 1197.41 70.6959 1197.46 70.5269Z" fill="#9BDBEA"/>
<path fill-rule="evenodd" clip-rule="evenodd" d="M1169.61 179.311C1169.61 179.901 1169.13 180.382 1168.54 180.382C1167.95 180.382 1167.47 179.901 1167.47 179.311C1167.47 178.72 1167.95 178.241 1168.54 178.241C1169.13 178.241 1169.61 178.72 1169.61 179.311Z" fill="#9BDBEA"/>
<path fill-rule="evenodd" clip-rule="evenodd" d="M465.539 388.323C465.539 388.914 465.06 389.394 464.47 389.394C463.881 389.394 463.401 388.914 463.401 388.323C463.401 387.733 463.881 387.253 464.47 387.253C465.06 387.253 465.539 387.733 465.539 388.323Z" fill="#9BDBEA"/>
<path fill-rule="evenodd" clip-rule="evenodd" d="M1439.81 35.5909C1439.81 36.1818 1439.33 36.6612 1438.74 36.6612C1438.15 36.6612 1437.67 36.1818 1437.67 35.5909C1437.67 35.0011 1438.15 34.5207 1438.74 34.5207C1439.33 34.5207 1439.81 35.0011 1439.81 35.5909Z" fill="#9BDBEA"/>
<path fill-rule="evenodd" clip-rule="evenodd" d="M1165.52 51.5025C1165.52 52.2215 1164.94 52.8047 1164.22 52.8047C1163.5 52.8047 1162.92 52.2215 1162.92 51.5025C1162.92 50.7835 1163.5 50.2003 1164.22 50.2003C1164.94 50.2003 1165.52 50.7835 1165.52 51.5025Z" fill="#3DAFCC"/>
<path fill-rule="evenodd" clip-rule="evenodd" d="M659.856 45.9801C659.856 46.6991 659.274 47.2823 658.555 47.2823C657.836 47.2823 657.255 46.6991 657.255 45.9801C657.255 45.2611 657.836 44.6779 658.555 44.6779C659.274 44.6779 659.856 45.2611 659.856 45.9801Z" fill="#3DAFCC"/>
<path fill-rule="evenodd" clip-rule="evenodd" d="M1183.26 33.4865C1183.26 33.8455 1182.97 34.1371 1182.61 34.1371C1182.25 34.1371 1181.96 33.8455 1181.96 33.4865C1181.96 33.1265 1182.25 32.8349 1182.61 32.8349C1182.97 32.8349 1183.26 33.1265 1183.26 33.4865Z" fill="#EEF8FF"/>
<path fill-rule="evenodd" clip-rule="evenodd" d="M353.989 242.982C353.989 243.341 353.698 243.633 353.339 243.633C352.979 243.633 352.688 243.341 352.688 242.982C352.688 242.623 352.979 242.332 353.339 242.332C353.698 242.332 353.989 242.623 353.989 242.982Z" fill="#EEF8FF"/>
<path fill-rule="evenodd" clip-rule="evenodd" d="M80.5607 332.636C80.5607 332.995 80.2694 333.286 79.9107 333.286C79.551 333.286 79.2608 332.995 79.2608 332.636C79.2608 332.276 79.551 331.984 79.9107 331.984C80.2694 331.984 80.5607 332.276 80.5607 332.636Z" fill="#EEF8FF"/>
<path fill-rule="evenodd" clip-rule="evenodd" d="M35.1436 225.863C35.1436 226.222 34.8523 226.513 34.4937 226.513C34.134 226.513 33.8438 226.222 33.8438 225.863C33.8438 225.504 34.134 225.212 34.4937 225.212C34.8523 225.212 35.1436 225.504 35.1436 225.863Z" fill="#EEF8FF"/>
<path fill-rule="evenodd" clip-rule="evenodd" d="M1.30097 105.474C1.30097 105.833 1.00966 106.124 0.651034 106.124C0.29131 106.124 0 105.833 0 105.474C0 105.115 0.29131 104.823 0.651034 104.823C1.00966 104.823 1.30097 105.115 1.30097 105.474Z" fill="#EEF8FF"/>
<path fill-rule="evenodd" clip-rule="evenodd" d="M1356.71 278.109C1356.71 278.468 1356.42 278.76 1356.06 278.76C1355.7 278.76 1355.41 278.468 1355.41 278.109C1355.41 277.75 1355.7 277.459 1356.06 277.459C1356.42 277.459 1356.71 277.75 1356.71 278.109Z" fill="#EEF8FF"/>
<path fill-rule="evenodd" clip-rule="evenodd" d="M1436.41 152.598C1436.41 152.955 1436.12 153.248 1435.76 153.248C1435.4 153.248 1435.11 152.955 1435.11 152.598C1435.11 152.238 1435.4 151.946 1435.76 151.946C1436.12 151.946 1436.41 152.238 1436.41 152.598Z" fill="#EEF8FF"/>
<path fill-rule="evenodd" clip-rule="evenodd" d="M1115.8 1.30219C1115.8 2.02121 1115.21 2.60549 1114.5 2.60549C1113.78 2.60549 1113.2 2.02121 1113.2 1.30219C1113.2 0.584274 1113.78 0 1114.5 0C1115.21 0 1115.8 0.584274 1115.8 1.30219Z" fill="#F2C43F"/>
<path fill-rule="evenodd" clip-rule="evenodd" d="M1143.92 52.3999C1143.77 53.0736 1143.11 53.5 1142.43 53.352C1141.76 53.2051 1141.33 52.5358 1141.48 51.8609C1141.63 51.1861 1142.29 50.7609 1142.97 50.9089C1143.64 51.0569 1144.07 51.7251 1143.92 52.3999Z" fill="#9BDBEA"/>
<path fill-rule="evenodd" clip-rule="evenodd" d="M1083.75 209.295C1083.75 210.014 1083.17 210.598 1082.45 210.598C1081.73 210.598 1081.15 210.014 1081.15 209.295C1081.15 208.576 1081.73 207.993 1082.45 207.993C1083.17 207.993 1083.75 208.576 1083.75 209.295Z" fill="#1C9BE8"/>
<path fill-rule="evenodd" clip-rule="evenodd" d="M1169.24 32.3098C1170.8 30.7514 1171.29 28.7191 1170.35 27.7726C1169.4 26.8249 1167.37 27.3197 1165.81 28.8804C1164.26 30.4388 1163.76 32.4711 1164.71 33.4176C1165.65 34.3642 1167.68 33.8682 1169.24 32.3098Z" fill="white"/>
</svg>
