<svg width="1103" height="544" viewBox="0 0 1103 544" fill="none" xmlns="http://www.w3.org/2000/svg">
<path d="M597.284 97.257C599.176 96.733 599.176 94.084 597.284 93.56L589.483 91.435C588.231 87.6798 585.262 84.7396 581.536 83.4879L579.411 75.6864C578.887 73.7943 576.238 73.7943 575.715 75.6864L573.59 83.4879C569.835 84.7396 566.895 87.7089 565.643 91.435L557.842 93.56C555.95 94.084 555.95 96.733 557.842 97.257L565.643 99.382C566.895 103.137 569.864 106.077 573.59 107.329L575.715 115.131C576.238 117.023 578.887 117.023 579.411 115.131L581.536 107.329C585.291 106.077 588.231 103.108 589.483 99.382L597.284 97.257Z" fill="#6A4F8A"/>
<path d="M578.684 83.4879L580.284 89.339C580.721 90.9692 582.031 92.2791 583.661 92.7158L589.512 94.3168C590.647 94.6371 590.647 96.2381 589.512 96.5583L583.661 98.1594C582.031 98.5961 580.721 99.906 580.284 101.536L578.684 107.387C578.363 108.523 576.762 108.523 576.442 107.387L574.841 101.536C574.405 99.906 573.095 98.5961 571.465 98.1594L565.614 96.5583C564.479 96.2381 564.479 94.6371 565.614 94.3168L571.465 92.7158C573.095 92.2791 574.405 90.9692 574.841 89.339L576.442 83.4879C576.762 82.3526 578.363 82.3526 578.684 83.4879Z" fill="#FCF0D2"/>
<path d="M72.6616 322.147C74.117 321.74 74.117 319.673 72.6616 319.266L66.5781 317.606C65.5884 314.666 63.2889 312.367 60.349 311.377L58.6898 305.293C58.2823 303.837 56.2157 303.837 55.8081 305.293L54.149 311.377C51.2091 312.367 48.9096 314.666 47.9199 317.606L41.8363 319.266C40.3809 319.673 40.3809 321.74 41.8363 322.147L47.9199 323.807C48.9096 326.747 51.2091 329.047 54.149 330.036L55.8081 336.12C56.2157 337.576 58.2823 337.576 58.6898 336.12L60.349 330.036C63.2889 329.047 65.5884 326.747 66.5781 323.807L72.6616 322.147Z" fill="#6A4F8A"/>
<path d="M58.1076 311.377L59.3593 315.947C59.7086 317.228 60.7274 318.247 62.0081 318.596L66.5781 319.848C67.4804 320.081 67.4804 321.361 66.5781 321.594L62.0081 322.846C60.7274 323.195 59.7086 324.214 59.3593 325.495L58.1076 330.065C57.8748 330.968 56.594 330.968 56.3612 330.065L55.1095 325.495C54.7602 324.214 53.7414 323.195 52.4607 322.846L47.8907 321.594C46.9884 321.361 46.9884 320.081 47.8907 319.848L52.4607 318.596C53.7414 318.247 54.7602 317.228 55.1095 315.947L56.3612 311.377C56.594 310.474 57.8457 310.474 58.1076 311.377Z" fill="#FCF0D2"/>
<path d="M819.774 333.376C821.229 332.969 821.229 330.902 819.774 330.494L813.69 328.835C812.7 325.895 810.401 323.595 807.461 322.605L805.802 316.521C805.394 315.037 803.328 315.037 802.92 316.521L801.261 322.605C798.321 323.595 796.022 325.895 795.032 328.835L788.948 330.494C787.464 330.902 787.464 332.969 788.948 333.376L795.032 335.035C796.022 337.975 798.321 340.275 801.261 341.265L802.92 347.349C803.328 348.833 805.394 348.833 805.802 347.349L807.461 341.265C810.401 340.275 812.7 337.975 813.69 335.035L819.774 333.376Z" fill="#6A4F8A"/>
<path d="M805.22 322.605L806.471 327.176C806.821 328.457 807.839 329.475 809.12 329.825L813.69 331.076C814.592 331.309 814.592 332.59 813.69 332.823L809.12 334.075C807.839 334.424 806.821 335.443 806.471 336.724L805.22 341.294C804.987 342.196 803.706 342.196 803.473 341.294L802.222 336.724C801.872 335.443 800.853 334.424 799.573 334.075L795.003 332.823C794.1 332.59 794.1 331.309 795.003 331.076L799.573 329.825C800.853 329.475 801.872 328.457 802.222 327.176L803.473 322.605C803.735 321.732 804.987 321.732 805.22 322.605Z" fill="#FCF0D2"/>
<path d="M678.669 400.692C680.561 400.168 680.561 397.519 678.669 396.995L670.868 394.87C669.616 391.115 666.647 388.175 662.921 386.923L660.796 379.122C660.272 377.229 657.624 377.229 657.1 379.122L654.975 386.923C651.22 388.175 648.28 391.144 647.028 394.87L639.227 396.995C637.335 397.519 637.335 400.168 639.227 400.692L647.028 402.817C648.28 406.572 651.249 409.512 654.975 410.764L657.1 418.566C657.624 420.458 660.272 420.458 660.796 418.566L662.921 410.764C666.676 409.512 669.616 406.543 670.868 402.817L678.669 400.692Z" fill="#6A4F8A"/>
<path d="M660.04 386.923L661.641 392.774C662.077 394.404 663.387 395.714 665.017 396.151L670.868 397.752C672.003 398.072 672.003 399.673 670.868 399.993L665.017 401.594C663.387 402.031 662.077 403.341 661.641 404.971L660.04 410.822C659.719 411.958 658.119 411.958 657.798 410.822L656.197 404.971C655.761 403.341 654.451 402.031 652.821 401.594L646.97 399.993C645.835 399.673 645.835 398.072 646.97 397.752L652.821 396.151C654.451 395.714 655.761 394.404 656.197 392.774L657.798 386.923C658.119 385.758 659.749 385.758 660.04 386.923Z" fill="#FCF0D2"/>
<path d="M62.1745 524.404C64.0665 523.88 64.0665 521.231 62.1745 520.707L54.3736 518.582C53.122 514.827 50.1529 511.886 46.4271 510.635L44.3023 502.833C43.7783 500.941 41.1295 500.941 40.6056 502.833L38.4807 510.635C34.7258 511.886 31.7859 514.856 30.5342 518.582L22.7333 520.707C20.8413 521.231 20.8413 523.88 22.7333 524.404L30.5342 526.529C31.7859 530.284 34.7549 533.224 38.4807 534.476L40.6056 542.277C41.1295 544.17 43.7783 544.17 44.3023 542.277L46.4271 534.476C50.1821 533.224 53.122 530.255 54.3736 526.529L62.1745 524.404Z" fill="#6A4F8A"/>
<path d="M43.5745 510.635L45.1755 516.486C45.6121 518.116 46.922 519.426 48.552 519.863L54.4027 521.464C55.5379 521.784 55.5379 523.385 54.4027 523.705L48.552 525.306C46.922 525.743 45.6121 527.053 45.1755 528.683L43.5745 534.534C43.2544 535.669 41.6534 535.669 41.3332 534.534L39.7323 528.683C39.2957 527.053 37.9858 525.743 36.3558 525.306L30.5051 523.705C29.3699 523.385 29.3699 521.784 30.5051 521.464L36.3558 519.863C37.9858 519.426 39.2957 518.116 39.7323 516.486L41.3332 510.635C41.6534 509.5 43.2544 509.5 43.5745 510.635Z" fill="#FCF0D2"/>
<path d="M1031.86 434.99C1033.75 434.466 1033.75 431.817 1031.86 431.293L1024.06 429.168C1022.81 425.412 1019.84 422.472 1016.11 421.221L1013.99 413.419C1013.46 411.527 1010.82 411.527 1010.29 413.419L1008.17 421.221C1004.41 422.472 1001.47 425.442 1000.22 429.168L992.419 431.293C990.527 431.817 990.527 434.466 992.419 434.99L1000.22 437.115C1001.47 440.87 1004.44 443.81 1008.17 445.062L1010.29 452.863C1010.82 454.755 1013.46 454.755 1013.99 452.863L1016.11 445.062C1019.87 443.81 1022.81 440.841 1024.06 437.115L1031.86 434.99Z" fill="#6A4F8A"/>
<path d="M1013.26 421.221L1014.86 427.072C1015.3 428.702 1016.61 430.012 1018.24 430.448L1024.09 432.05C1025.22 432.37 1025.22 433.971 1024.09 434.291L1018.24 435.892C1016.61 436.329 1015.3 437.639 1014.86 439.269L1013.26 445.12C1012.94 446.255 1011.34 446.255 1011.02 445.12L1009.42 439.269C1008.98 437.639 1007.67 436.329 1006.04 435.892L1000.19 434.291C999.056 433.971 999.056 432.37 1000.19 432.05L1006.04 430.448C1007.67 430.012 1008.98 428.702 1009.42 427.072L1011.02 421.221C1011.34 420.085 1012.94 420.085 1013.26 421.221Z" fill="#FCF0D2"/>
<path d="M637.801 363.868C637.801 366.401 635.734 368.467 633.202 368.467C630.67 368.467 628.603 366.401 628.603 363.868C628.603 361.335 630.67 359.269 633.202 359.269C635.734 359.269 637.801 361.335 637.801 363.868Z" fill="#FCA86A"/>
<path d="M961.376 416.53C961.376 419.063 959.309 421.13 956.777 421.13C954.245 421.13 952.178 419.063 952.178 416.53C952.178 413.998 954.245 411.931 956.777 411.931C959.309 411.931 961.376 413.998 961.376 416.53Z" fill="#FCA86A"/>
<path d="M679.844 175.87C679.844 178.402 677.778 180.469 675.245 180.469C672.713 180.469 670.646 178.402 670.646 175.87C670.646 173.337 672.713 171.271 675.245 171.271C677.778 171.271 679.844 173.337 679.844 175.87Z" fill="#FCA86A"/>
<path d="M563.198 32.8655C563.198 35.3981 561.131 37.4649 558.599 37.4649C556.067 37.4649 554 35.3981 554 32.8655C554 30.3329 556.067 28.2661 558.599 28.2661C561.131 28.2661 563.198 30.3329 563.198 32.8655Z" fill="#FCA86A"/>
<path d="M617.659 3.84251C617.659 5.96754 615.942 7.68506 613.817 7.68506C611.692 7.68506 609.975 5.96754 609.975 3.84251C609.975 1.71747 611.692 0 613.817 0C615.942 0 617.659 1.71747 617.659 3.84251Z" fill="#7D5483"/>
<path d="M617.659 137.72C617.659 140.514 615.389 142.785 612.594 142.785C609.8 142.785 607.529 140.514 607.529 137.72C607.529 134.925 609.8 132.655 612.594 132.655C615.389 132.655 617.659 134.925 617.659 137.72Z" fill="#865882"/>
<path d="M751.421 416.26C753.687 416.26 755.525 414.422 755.525 412.156C755.525 409.889 753.687 408.051 751.421 408.051C749.154 408.051 747.316 409.889 747.316 412.156C747.316 414.422 749.154 416.26 751.421 416.26Z" fill="#FEDEA2"/>
<path d="M860.779 113.807C863.046 113.807 864.883 111.97 864.883 109.703C864.883 107.436 863.046 105.598 860.779 105.598C858.512 105.598 856.675 107.436 856.675 109.703C856.675 111.97 858.512 113.807 860.779 113.807Z" fill="#FEDEA2"/>
<path d="M376.947 426.041C376.947 428.312 375.114 430.146 372.843 430.146C370.573 430.146 368.739 428.312 368.739 426.041C368.739 423.771 370.573 421.937 372.843 421.937C375.085 421.937 376.947 423.771 376.947 426.041Z" fill="#FEDEA2"/>
<path d="M71.3226 354.46C71.3226 356.731 69.4888 358.564 67.2184 358.564C64.948 358.564 63.1142 356.731 63.1142 354.46C63.1142 352.189 64.948 350.355 67.2184 350.355C69.4888 350.355 71.3226 352.218 71.3226 354.46Z" fill="#FCA86A"/>
<path d="M368.797 452.56C368.797 455.5 366.41 457.858 363.5 457.858C360.56 457.858 358.202 455.471 358.202 452.56C358.202 449.62 360.589 447.262 363.5 447.262C366.41 447.262 368.797 449.62 368.797 452.56Z" fill="#FCF0D2"/>
<path d="M270.471 393.451C270.471 396.391 268.084 398.749 265.173 398.749C262.233 398.749 259.875 396.362 259.875 393.451C259.875 390.511 262.262 388.153 265.173 388.153C268.084 388.153 270.471 390.54 270.471 393.451Z" fill="#FCF0D2"/>
<path d="M381.197 69.298C381.197 72.2381 378.81 74.596 375.9 74.596C372.96 74.596 370.602 72.209 370.602 69.298C370.602 66.3579 372.989 64 375.9 64C378.81 64 381.197 66.387 381.197 69.298Z" fill="#865882"/>
<path d="M462.234 341.218C465.159 341.218 467.531 338.846 467.531 335.92C467.531 332.994 465.159 330.622 462.234 330.622C459.308 330.622 456.936 332.994 456.936 335.92C456.936 338.846 459.308 341.218 462.234 341.218Z" fill="#865882"/>
<path d="M718.5 70.6953C718.5 73.6354 716.113 75.9933 713.202 75.9933C710.262 75.9933 707.904 73.6063 707.904 70.6953C707.904 67.7552 710.291 65.3972 713.202 65.3972C716.142 65.3972 718.5 67.7843 718.5 70.6953Z" fill="#574589"/>
<path d="M614.195 358.221C614.195 360.142 612.652 361.685 610.731 361.685C608.81 361.685 607.267 360.142 607.267 358.221C607.267 356.299 608.81 354.757 610.731 354.757C612.623 354.727 614.195 356.299 614.195 358.221Z" fill="#FEDEA2"/>
<path d="M920.479 448.26C920.479 450.182 918.937 451.724 917.016 451.724C915.094 451.724 913.552 450.182 913.552 448.26C913.552 446.339 915.094 444.796 917.016 444.796C918.937 444.796 920.479 446.339 920.479 448.26Z" fill="#FEDEA2"/>
<g opacity="0.8">
<path opacity="0.8" d="M571.174 28.1788C570.33 28.1788 569.485 27.713 569.078 26.898C568.467 25.7336 568.932 24.3072 570.097 23.6959L601.417 7.5689C602.581 6.95759 604.007 7.42337 604.619 8.58777C605.23 9.75217 604.764 11.1786 603.6 11.7899L572.28 27.9168C571.93 28.0915 571.552 28.1788 571.174 28.1788Z" fill="#614A8A"/>
</g>
<path d="M586.834 79.1213C586.543 79.1213 586.281 79.0631 585.99 78.9757C584.767 78.51 584.156 77.1419 584.622 75.9192L607.733 14.5553C608.199 13.3327 609.567 12.7214 610.79 13.1871C612.012 13.6529 612.623 15.0211 612.158 16.2437L589.046 77.6076C588.697 78.5391 587.794 79.1213 586.834 79.1213Z" fill="#614A8A"/>
<g opacity="0.8">
<path opacity="0.8" d="M605.055 128.521C604.357 128.521 603.658 128.201 603.192 127.618L589.104 109.978C588.289 108.959 588.464 107.474 589.483 106.659C590.501 105.844 591.986 106.019 592.801 107.038L606.889 124.678C607.704 125.697 607.529 127.182 606.511 127.997C606.103 128.346 605.579 128.521 605.055 128.521Z" fill="#865882"/>
</g>
<path d="M782.595 429.913C782.595 432.038 780.878 433.755 778.753 433.755C776.628 433.755 774.911 432.038 774.911 429.913C774.911 427.788 776.628 426.07 778.753 426.07C780.849 426.041 782.595 427.788 782.595 429.913Z" fill="#7D5483"/>
<path d="M791.685 262.843C791.685 264.968 789.967 266.685 787.842 266.685C785.717 266.685 784 264.968 784 262.843C784 260.717 785.717 259 787.842 259C789.967 259 791.685 260.717 791.685 262.843Z" fill="#7D5483"/>
<path d="M1102.49 119.222C1102.49 121.347 1100.77 123.064 1098.65 123.064C1096.52 123.064 1094.81 121.347 1094.81 119.222C1094.81 117.096 1096.52 115.379 1098.65 115.379C1100.74 115.379 1102.49 117.096 1102.49 119.222Z" fill="#614A8A"/>
<path d="M47.213 448.921C47.213 451.454 45.1464 453.521 42.614 453.521C40.0816 453.521 38.0149 451.454 38.0149 448.921C38.0149 446.389 40.0816 444.322 42.614 444.322C45.1464 444.322 47.213 446.389 47.213 448.921Z" fill="#FCA86A"/>
<path d="M6.92768 410.118C6.92768 412.039 5.38496 413.582 3.46384 413.582C1.54272 413.582 0 412.039 0 410.118C0 408.197 1.54272 406.654 3.46384 406.654C5.38496 406.654 6.92768 408.197 6.92768 410.118Z" fill="#FEDEA2"/>
</svg>
