<svg xmlns="http://www.w3.org/2000/svg" width="116" height="116" viewBox="0 0 116 116">
    <g fill="none" fill-rule="evenodd">
        <path fill="#B9E2ED" d="M58.372 36.913c-4.278 0-7.759 3.48-7.759 7.759 0 4.28 3.48 7.76 7.76 7.76 4.277 0 7.759-3.48 7.759-7.76 0-4.278-3.482-7.76-7.76-7.76"/>
        <path fill="#FFF" fill-rule="nonzero" d="M73.501 71.742l7.064 10.596 2.49-11.023c.01-.043.022-.088.036-.131 1.761-5.285-.002-11.15-4.192-13.946a12.413 12.413 0 0 0-1.95-1.058l-1.09-.469-2.358 16.03zM39.81 56.176c-.688.294-1.348.653-1.965 1.062-4.19 2.796-5.953 8.662-4.193 13.946.016.044.027.087.038.131l2.488 11.023 7.065-10.596L40.9 55.708l-1.09.468zm10.279 23.648h16.567l4.087-8.176 3.777-25.683c.085-.673.154-1.35.208-2.016.595-7.28-.4-14.859-2.805-21.34l-.434-1.17-.983.77a19.743 19.743 0 0 1-12.134 4.204 19.73 19.73 0 0 1-12.254-4.298l-.95-.758-.461 1.123a42.967 42.967 0 0 0-2.207 6.965c-.91 4.075-1.073 10.12-.415 15.4l3.776 25.848h7.946c.756 0 1.371.615 1.371 1.371 0 .757-.615 1.371-1.371 1.371h-6.912l3.194 6.389z"/>
        <path fill="#B9E2ED" d="M71.923 22.61l-.434-1.171-.982.771a19.746 19.746 0 0 1-12.112 4.203v10.5c4.268.014 7.737 3.488 7.737 7.759 0 4.27-3.47 7.747-7.737 7.758v27.394h8.26l4.088-8.176 3.777-25.683c.085-.672.154-1.349.208-2.015.596-7.28-.4-14.86-2.805-21.34"/>
        <path fill="#FFF" d="M14.317 93.067c-5.715 0-10.727 4.693-10.727 10.042 0 5.35 5.012 10.042 10.727 10.042h88.11c5.715 0 10.728-4.692 10.728-10.042s-5.013-10.042-10.727-10.042c-4.259 0-8.369 2.624-9.995 6.382l-.339.782.757.39a10.5 10.5 0 0 1 2.622 1.913 1.372 1.372 0 0 1-1.941 1.937 7.737 7.737 0 0 0-5.49-2.274 7.78 7.78 0 0 0-3.353.763 7.706 7.706 0 0 0-2.126 1.51c-.26.26-.604.403-.971.403a1.372 1.372 0 0 1-.971-2.339c.223-.225.468-.448.725-.663l.772-.64-.714-.707a9.954 9.954 0 0 0-7.054-2.892c-1.773 0-3.51.465-5.022 1.344l-.453.264v6.152a1.373 1.373 0 0 1-2.743 0V82.567h-15.52v22.825c0 .756-.614 1.372-1.37 1.372-.757 0-1.372-.616-1.372-1.372v-6.144l-.451-.265a9.952 9.952 0 0 0-5.026-1.351 9.952 9.952 0 0 0-7.053 2.892l-.714.706.772.642c.257.214.501.435.726.662a1.374 1.374 0 0 1-.004 1.94 1.365 1.365 0 0 1-.966.399c-.369 0-.713-.143-.973-.403a7.7 7.7 0 0 0-2.124-1.508 7.782 7.782 0 0 0-5.405-.492l-.066.018a7.748 7.748 0 0 0-3.374 1.983 1.369 1.369 0 0 1-2.342-.968c0-.367.142-.711.4-.97a10.47 10.47 0 0 1 2.622-1.912l.757-.39-.338-.782c-1.627-3.758-5.737-6.382-9.994-6.382z"/>
        <path fill="#B9E2ED" d="M102.427 93.067c-4.258 0-8.368 2.625-9.994 6.382l-.34.782.758.39a10.47 10.47 0 0 1 2.621 1.912 1.366 1.366 0 0 1-.002 1.939c-.258.258-.602.4-.968.4-.367 0-.712-.142-.97-.401a7.745 7.745 0 0 0-8.843-1.51c-.791.38-1.507.887-2.126 1.509-.26.26-.604.403-.97.403a1.372 1.372 0 0 1-.972-2.339c.223-.225.466-.448.725-.662l.772-.642-.714-.706a9.95 9.95 0 0 0-7.053-2.891 9.997 9.997 0 0 0-5.024 1.343l-.453.264v6.152c0 .756-.615 1.372-1.372 1.372-.755 0-1.37-.616-1.37-1.372v-6.075a7.76 7.76 0 0 1-15.52 0v6.075a1.373 1.373 0 0 1-2.743 0v-6.144l-.45-.265a9.95 9.95 0 0 0-5.026-1.35 9.951 9.951 0 0 0-7.054 2.891l-.713.706.772.642c.257.214.502.437.726.662a1.373 1.373 0 0 1-.97 2.339c-.37 0-.714-.143-.973-.403a7.687 7.687 0 0 0-2.123-1.507 7.776 7.776 0 0 0-5.437-.484l.168.584-.173-.582a7.736 7.736 0 0 0-3.404 1.99c-.258.259-.604.402-.97.402s-.71-.143-.969-.4a1.365 1.365 0 0 1-.402-.97c0-.366.142-.711.4-.97a10.47 10.47 0 0 1 2.622-1.912l.757-.39-.339-.782c-1.627-3.757-5.737-6.382-9.995-6.382-5.714 0-10.727 4.693-10.727 10.042 0 5.35 5.013 10.042 10.727 10.042h88.111c5.715 0 10.727-4.692 10.727-10.042s-5.012-10.042-10.727-10.042"/>
        <path fill="#1F282C" fill-rule="nonzero" d="M62.938 73.436a1.372 1.372 0 1 1 1.37-1.37c0 .754-.614 1.37-1.37 1.37m-4.566-27.204c-.86 0-1.56-.699-1.56-1.56 0-.86.7-1.56 1.56-1.56a1.561 1.561 0 0 1 0 3.121"/>
        <path fill="#1F282C" fill-rule="nonzero" d="M58.372 36.913c-4.278 0-7.759 3.48-7.759 7.759 0 4.28 3.48 7.76 7.76 7.76 4.277 0 7.759-3.48 7.759-7.76 0-4.278-3.482-7.76-7.76-7.76m0 18.262c-5.79 0-10.501-4.71-10.501-10.502 0-5.79 4.71-10.502 10.501-10.502 5.791 0 10.502 4.711 10.502 10.502 0 5.792-4.71 10.502-10.502 10.502"/>
        <path fill="#1F282C" fill-rule="nonzero" d="M57.801 4.475c-4.429 3.833-8.238 8.555-11.018 13.651l-.341.627.527.482a16.87 16.87 0 0 0 11.403 4.434c4.214 0 8.256-1.568 11.38-4.414l.522-.475-.329-.624c-2.576-4.893-6.671-10.008-10.954-13.683l-.596-.512-.594.514zM50.09 79.824h16.567l4.087-8.176 3.777-25.683c.085-.673.154-1.35.208-2.016.595-7.28-.4-14.859-2.805-21.34l-.434-1.17-.983.77a19.743 19.743 0 0 1-12.134 4.204 19.73 19.73 0 0 1-12.254-4.298l-.95-.758-.461 1.123a42.967 42.967 0 0 0-2.207 6.965c-.91 4.075-1.073 10.119-.415 15.4l3.776 25.848h7.946c.756 0 1.371.615 1.371 1.371s-.615 1.371-1.371 1.371h-6.912l3.194 6.389zM73.5 71.742l7.064 10.596 2.49-11.023c.01-.043.022-.088.036-.131 1.761-5.285-.002-11.15-4.192-13.947a12.413 12.413 0 0 0-1.95-1.057l-1.09-.47-2.358 16.032zM39.81 56.176c-.688.294-1.348.652-1.965 1.061-4.19 2.797-5.953 8.662-4.193 13.947.016.044.027.087.038.13l2.488 11.024 7.065-10.596L40.9 55.707l-1.09.469zM14.317 93.067c-5.715 0-10.727 4.693-10.727 10.042 0 5.35 5.012 10.042 10.727 10.042h88.11c5.715 0 10.728-4.692 10.728-10.042s-5.013-10.042-10.727-10.042c-4.259 0-8.369 2.624-9.995 6.382l-.339.782.757.39a10.5 10.5 0 0 1 2.622 1.912 1.372 1.372 0 0 1-1.941 1.938 7.737 7.737 0 0 0-5.49-2.275 7.78 7.78 0 0 0-3.353.764 7.706 7.706 0 0 0-2.126 1.51c-.26.26-.604.403-.971.403a1.372 1.372 0 0 1-.971-2.339c.223-.225.468-.448.725-.663l.772-.64-.714-.707a9.954 9.954 0 0 0-7.054-2.892c-1.773 0-3.51.465-5.022 1.343l-.453.265v6.152a1.373 1.373 0 0 1-2.743 0V82.567h-15.52v22.825c0 .756-.614 1.372-1.37 1.372-.757 0-1.372-.616-1.372-1.372v-6.144l-.451-.265a9.952 9.952 0 0 0-5.026-1.351 9.952 9.952 0 0 0-7.053 2.892l-.714.706.772.642c.257.213.501.435.726.662a1.374 1.374 0 0 1-.004 1.94 1.365 1.365 0 0 1-.966.399c-.369 0-.713-.143-.973-.403a7.7 7.7 0 0 0-2.124-1.508 7.782 7.782 0 0 0-5.405-.492l-.066.018a7.748 7.748 0 0 0-3.374 1.983 1.369 1.369 0 0 1-2.342-.968c0-.367.142-.711.4-.97a10.47 10.47 0 0 1 2.622-1.912l.757-.39-.338-.782c-1.627-3.758-5.737-6.382-9.994-6.382zm0 22.827c-7.302 0-13.47-5.855-13.47-12.785s6.168-12.784 13.47-12.784c5.6 0 10.833 3.524 12.728 8.57l.24.636.677-.05a10.455 10.455 0 0 1 3.6.372l.575.163.379-.462a12.706 12.706 0 0 1 9.877-4.665c1.466 0 2.9.246 4.26.73l1.217.43v-14.53l-3.364-6.727-7.82 11.728a1.367 1.367 0 0 1-1.39.589c-.54-.1-.968-.51-1.088-1.047l-3.17-14.037c-2.134-6.562.042-13.57 5.285-17.069a15.003 15.003 0 0 1 3.465-1.71l.716-.245-1.135-7.765c-.556-4.448-.729-11.094.456-16.39C42.184 18.303 48.377 8.538 57.262 1.35l.203-.165c.258-.22.58-.338.912-.338.289 0 .563.087.794.254.07.05 7.005 5.077 12.436 14.395 4.89 8.4 6.995 19.92 5.633 30.814l-.984 6.693.717.246c1.218.42 2.378.994 3.448 1.707 5.243 3.499 7.426 10.484 5.307 16.989L82.537 86.06a1.37 1.37 0 0 1-2.48.46l-7.82-11.73-3.363 6.728V96.04l1.214-.428c1.36-.48 2.795-.724 4.262-.724 3.851 0 7.452 1.7 9.878 4.664l.38.462.574-.162a10.462 10.462 0 0 1 3.6-.371l.679.049.239-.637c1.893-5.046 7.127-8.57 12.728-8.57 7.302 0 13.47 5.855 13.47 12.785s-6.168 12.785-13.47 12.785H14.317z"/>
        <path fill="#1F282C" d="M52.357 73.435H71.69v-2.741H52.357z"/>
        <path fill="#FFF" d="M57.801 4.475c-4.429 3.833-8.238 8.555-11.018 13.651l-.341.627.527.482a16.87 16.87 0 0 0 11.403 4.435c4.214 0 8.256-1.569 11.38-4.415l.522-.474-.329-.624c-2.576-4.894-6.671-10.009-10.954-13.684l-.596-.512-.594.514z"/>
    </g>
</svg>
