<svg xmlns="http://www.w3.org/2000/svg" width="88" height="131" viewBox="0 0 88 131">
    <g fill="none" fill-rule="evenodd">
        <path fill="#FFF" d="M43.9 30.115c.209 0 .415.057.596.165a20.072 20.072 0 0 1 7.775 8.652l.185.394h6.867v-6.551A36.067 36.067 0 0 0 44.298 3.478l-.4-.286-.399.286a36.076 36.076 0 0 0-15.024 29.298v6.55h6.867l.185-.394a20.07 20.07 0 0 1 7.778-8.654c.18-.107.385-.163.594-.163M61.637 64.384l1.707 3.993h10.719V56.379H61.637zM13.736 68.378h10.719l1.706-3.994V56.38H13.736z"/>
        <path fill="#FFF" fill-rule="nonzero" d="M67.327 26.174c-2.99 3.52-4.88 7.8-5.465 12.38l-.098.773h12.172l-.098-.773a23.718 23.718 0 0 0-5.466-12.38l-.523-.614-.522.614zm-47.9 0a23.717 23.717 0 0 0-5.466 12.38l-.098.773h12.172l-.098-.773a23.716 23.716 0 0 0-5.466-12.38l-.523-.615-.522.615z"/>
        <path fill="#B9E2ED" d="M65.08 72.42l8.982 5.388V70.69h-9.719z"/>
        <path fill="#FFF" d="M22.718 72.42l-8.982 5.388V70.69h9.72z"/>
        <path fill="#B9E2ED" d="M53.61 42.5c.434 1.644.655 3.34.658 5.044v.028l.048.188 3.697 8.17 1.31 3.412V41.64h-5.939l.227.86zM61.637 54.065h12.426V41.64H61.637zM64.216 99.466l-.559 3.915h8.385l-.618-4.356zM45.057 103.381h6.897v-5.055h-6.897zM15.755 103.381h8.387l-.557-3.914-7.207-.442zM54.268 97.78l27.164-1.698V92.8H54.268z"/>
        <path fill="#FFF" d="M35.844 103.381h6.897v-5.055h-6.897z"/>
        <path fill="#B9E2ED" d="M45.057 96.013h6.897v-2.528a6.22 6.22 0 0 0-6.212-6.213h-.685v8.74z"/>
        <path fill="#FFF" d="M42.794 96.013h-6.897v-2.528a6.22 6.22 0 0 1 6.212-6.213h.685v8.74z"/>
        <path fill="#B9E2ED" d="M51.949 47.541a17.938 17.938 0 0 0-7.663-14.639l-.392-.273v44.96h1.163v7.365l.681.004a8.5 8.5 0 0 1 1.576.157c.089.016.172.04.255.062l.227.06c.355.087.7.193 1.028.317.143.057.286.122.438.19.357.166.66.332.95.514l.088.053c.129.077.239.143.344.219.051.035.101.065.15.094l.052.03 1.108.87V51.539l-.005-3.997z"/>
        <path fill="#FFF" d="M35.903 47.541a17.938 17.938 0 0 1 7.662-14.639l.392-.273v44.96h-1.163v7.365l-.68.004a8.5 8.5 0 0 0-1.577.157c-.088.016-.172.04-.255.062l-.227.06a8.94 8.94 0 0 0-1.028.317c-.143.057-.286.122-.438.19a8.65 8.65 0 0 0-.95.514l-.088.053c-.128.077-.239.143-.344.219-.051.035-.1.065-.15.094l-.051.03-1.11.87V51.539l.007-3.997z"/>
        <path fill="#B9E2ED" d="M6.367 96.082l27.164 1.699v-4.982H6.367z"/>
        <path fill="#FFF" fill-rule="nonzero" d="M33.53 90.484H6.395l.137-.8a11.915 11.915 0 0 1 5.594-8.209l12.1-7.262a1.16 1.16 0 0 0 .465-.539l7.523-17.537 1.318-3.312v37.66zm29.572-16.808c.096.225.255.41.46.534l12.115 7.266a11.904 11.904 0 0 1 5.59 8.21l.135.8H54.268V52.824l1.314 3.307 7.52 17.545z"/>
        <path fill="#FFF" d="M13.737 54.066h12.424V41.64H13.737z"/>
        <path fill="#FFF" fill-rule="nonzero" d="M77.032 128.697H10.766c-4.297 0-8.066-3.53-8.066-7.552 0-4.024 3.769-7.553 8.066-7.553 3.203 0 6.294 1.974 7.517 4.8l.255.588-.57.293a7.901 7.901 0 0 0-1.971 1.439c-.194.194-.3.454-.3.729a1.029 1.029 0 0 0 1.76.728 5.822 5.822 0 0 1 2.56-1.497l.13.438-.126-.44a5.851 5.851 0 0 1 4.089.364c.593.285 1.13.667 1.597 1.134.194.196.454.304.73.304.276 0 .534-.107.728-.3a1.033 1.033 0 0 0 .002-1.46 7.81 7.81 0 0 0-.545-.497l-.581-.483.536-.531a7.487 7.487 0 0 1 5.306-2.175c1.336 0 2.643.351 3.779 1.016l.339.199v4.62c0 .569.463 1.032 1.032 1.032.568 0 1.03-.463 1.03-1.032v-17.165h11.672v17.165a1.032 1.032 0 0 0 2.062 0v-4.626l.341-.199a7.525 7.525 0 0 1 3.778-1.01c2.006 0 3.89.772 5.305 2.175l.537.53-.58.484a7.823 7.823 0 0 0-.547.497 1.032 1.032 0 0 0 1.461 1.456 5.843 5.843 0 0 1 5.692-1.496 5.82 5.82 0 0 1 2.557 1.497c.195.195.454.303.73.303.275 0 .535-.108.729-.302a1.027 1.027 0 0 0 .001-1.458 7.89 7.89 0 0 0-1.971-1.439l-.57-.293.255-.588c1.223-2.826 4.314-4.8 7.517-4.8 4.297 0 8.067 3.53 8.067 7.553s-3.77 7.552-8.067 7.552zM34.188 42.5a19.83 19.83 0 0 0-.657 5.043v.028l-.061.225-3.686 8.14-1.309 2.83V41.64h5.94l-.227.86z"/>
        <path fill="#B9E2ED" d="M77.032 113.593c-3.203 0-6.294 1.974-7.517 4.799l-.255.588.57.293a7.874 7.874 0 0 1 1.971 1.439 1.027 1.027 0 0 1-.001 1.458 1.028 1.028 0 0 1-.729.301c-.276 0-.535-.107-.73-.302a5.82 5.82 0 0 0-4.128-1.71 5.843 5.843 0 0 0-4.12 1.709 1.025 1.025 0 0 1-.73.303 1.033 1.033 0 0 1-.732-1.759c.169-.169.352-.337.546-.498l.58-.482-.536-.531a7.486 7.486 0 0 0-5.305-2.175c-1.334 0-2.64.349-3.778 1.01l-.34.199v4.626a1.032 1.032 0 0 1-2.063 0v-4.568a5.836 5.836 0 0 1-11.671 0v4.568c0 .57-.463 1.032-1.031 1.032-.57 0-1.032-.463-1.032-1.032v-4.62l-.339-.2a7.487 7.487 0 0 0-3.78-1.015c-2.006 0-3.89.772-5.304 2.175l-.537.53.58.483c.194.161.378.329.546.498.401.403.4 1.057-.002 1.46-.194.192-.452.3-.727.3-.277 0-.537-.108-.731-.304a5.781 5.781 0 0 0-1.598-1.133 5.849 5.849 0 0 0-4.088-.364l.126.439-.13-.438a5.822 5.822 0 0 0-2.56 1.497 1.028 1.028 0 0 1-1.76-.728c0-.275.106-.535.3-.73a7.885 7.885 0 0 1 1.971-1.438l.57-.293-.255-.588c-1.223-2.825-4.314-4.8-7.517-4.8-4.297 0-8.066 3.53-8.066 7.553s3.769 7.552 8.066 7.552h66.266c4.297 0 8.067-3.53 8.067-7.552 0-4.023-3.77-7.552-8.067-7.552"/>
        <path fill="#1F282C" fill-rule="nonzero" d="M77.032 128.697H10.766c-4.297 0-8.066-3.53-8.066-7.552 0-4.024 3.769-7.553 8.066-7.553 3.203 0 6.294 1.974 7.517 4.8l.255.588-.57.293a7.901 7.901 0 0 0-1.971 1.439c-.194.194-.3.454-.3.729a1.029 1.029 0 0 0 1.76.728 5.822 5.822 0 0 1 2.56-1.497l.13.438-.126-.44a5.851 5.851 0 0 1 4.089.364c.593.285 1.13.667 1.597 1.134.194.196.454.304.73.304.276 0 .534-.107.728-.3a1.033 1.033 0 0 0 .002-1.46 7.81 7.81 0 0 0-.545-.497l-.581-.483.536-.531a7.487 7.487 0 0 1 5.306-2.175c1.336 0 2.643.351 3.779 1.016l.339.199v4.62c0 .569.463 1.032 1.032 1.032.568 0 1.03-.463 1.03-1.032v-17.165h11.672v17.165a1.032 1.032 0 0 0 2.062 0v-4.626l.341-.199a7.525 7.525 0 0 1 3.778-1.01c2.006 0 3.89.772 5.305 2.175l.537.53-.58.484a7.823 7.823 0 0 0-.547.497 1.032 1.032 0 0 0 1.461 1.456 5.843 5.843 0 0 1 5.692-1.496 5.82 5.82 0 0 1 2.557 1.497c.195.195.454.303.73.303.275 0 .535-.108.729-.302a1.027 1.027 0 0 0 .001-1.458 7.89 7.89 0 0 0-1.971-1.439l-.57-.293.255-.588c1.223-2.826 4.314-4.8 7.517-4.8 4.297 0 8.067 3.53 8.067 7.553s-3.77 7.552-8.067 7.552zM35.845 103.38h6.897v-5.055h-6.897v5.055zm6.897-16.11v8.742h-6.897v-2.528a6.22 6.22 0 0 1 6.212-6.213h.685zm-6.903-39.73a17.934 17.934 0 0 1 7.662-14.638l.393-.274.392.274a17.936 17.936 0 0 1 7.662 14.639l.006 3.996v35.987l-1.109-.87-.05-.03c-.05-.03-.1-.06-.15-.096-.106-.074-.216-.14-.345-.218l-.088-.053a8.6 8.6 0 0 0-.95-.515c-.152-.068-.294-.132-.438-.189a8.93 8.93 0 0 0-1.028-.317l-.227-.06c-.083-.023-.166-.046-.255-.062a8.446 8.446 0 0 0-1.576-.157l-.682-.004v-7.366h-2.314v7.366l-.681.004a8.582 8.582 0 0 0-1.589.161c-.09.017-.174.04-.281.07a7.542 7.542 0 0 1-.196.053 8.454 8.454 0 0 0-1.015.312 8.87 8.87 0 0 0-1.4.704l-.176.108c-.083.05-.166.1-.257.167-.048.034-.1.066-.167.104l-.04.025-1.101.844V47.54zm-.497-8.215h-6.867v-6.55A36.076 36.076 0 0 1 43.5 3.478l.4-.286.399.286a36.064 36.064 0 0 1 15.024 29.297v6.55h-6.866l-.185-.393a20.076 20.076 0 0 0-7.776-8.652 1.152 1.152 0 0 0-1.19-.002 20.074 20.074 0 0 0-7.778 8.654l-.185.394zM34.188 42.5a19.83 19.83 0 0 0-.657 5.043v.028l-.061.225-3.686 8.14-1.309 2.83V41.64h5.94l-.227.86zm-.657 47.983H6.394l.137-.8a11.915 11.915 0 0 1 5.594-8.209l12.1-7.262a1.16 1.16 0 0 0 .465-.539l7.523-17.537 1.318-3.312v37.66zm0 7.297L6.366 96.082V92.8h27.165v4.981zm-17.776 5.6l.622-4.356 7.208.442.556 3.914h-8.386zm-2.018-32.69h9.72l-.74 1.728-8.98 5.389v-7.116zm0-14.312h12.424v8.005l-1.706 3.993H13.737V56.38zm0-2.314h12.424V41.641H13.737v12.424zm.224-15.51a23.717 23.717 0 0 1 5.465-12.381l.522-.615.523.615c2.99 3.519 4.88 7.8 5.465 12.38l.098.773H13.862l.1-.773zm49.141 35.121c.096.225.255.41.46.534l12.115 7.266a11.904 11.904 0 0 1 5.59 8.21l.135.8H54.268V52.824l1.314 3.307 7.52 17.545zm10.96-2.985v7.117l-8.982-5.39-.737-1.727h9.72zM61.637 56.379h12.425v11.998H63.344l-1.707-3.993v-8.005zm0-2.314h12.425V41.641H61.637v12.424zm.225-15.51a23.718 23.718 0 0 1 5.465-12.381l.522-.614.522.614a23.713 23.713 0 0 1 5.466 12.38l.099.773H61.764l.098-.773zm19.57 57.527l-27.164 1.7V92.8h27.163v3.282zm-17.775 7.299l.559-3.914 7.208-.442.618 4.356h-8.385zM53.61 42.501l-.227-.86h5.938v17.7l-1.309-3.411-3.697-8.17-.048-.188v-.028a19.974 19.974 0 0 0-.657-5.043zm-1.657 53.512h-6.898v-8.741h.686a6.22 6.22 0 0 1 6.212 6.213v2.528zm-6.898 7.368h6.898v-5.055h-6.898v5.055zm31.976 8.148c-4.212 0-8.149 2.65-9.572 6.446l-.18.479-.51-.037a7.857 7.857 0 0 0-2.708.279l-.433.122-.284-.348a9.557 9.557 0 0 0-7.429-3.507 9.606 9.606 0 0 0-3.205.544l-.914.322v-10.133h1.314c.638 0 1.157-.52 1.157-1.157v-4.44l7.587-.474-.67 4.75a1.159 1.159 0 0 0 1.137 1.32H73.38a1.157 1.157 0 0 0 1.142-1.321l-.784-5.492 8.923-.554a1.16 1.16 0 0 0 1.085-1.159v-5.525c-.014-4.945-2.653-9.603-6.887-12.156l-.483-.295v-37.5c.019-6.934-2.787-13.713-7.694-18.595a1.21 1.21 0 0 0-.833-.331c-.31 0-.602.115-.817.317a26.47 26.47 0 0 0-4.357 5.773l-1.048 1.88-.23-2.14A38.185 38.185 0 0 0 44.54.832a1.155 1.155 0 0 0-1.284.001A38.183 38.183 0 0 0 26.4 28.597l-.23 2.14-1.05-1.88a26.314 26.314 0 0 0-4.341-5.759 1.204 1.204 0 0 0-.832-.331c-.31 0-.603.115-.819.32-4.917 4.89-7.726 11.672-7.706 18.607V79.2l-.487.29c-4.234 2.552-6.871 7.21-6.883 12.153v5.528a1.157 1.157 0 0 0 1.086 1.156l8.921.56-.783 5.49a1.154 1.154 0 0 0 1.145 1.319H25.48a1.157 1.157 0 0 0 1.143-1.323l-.672-4.749 7.58.474v4.44c0 .638.52 1.158 1.158 1.158H36v10.14l-.915-.325a9.564 9.564 0 0 0-3.203-.548 9.56 9.56 0 0 0-7.43 3.508l-.284.347-.433-.122a7.867 7.867 0 0 0-2.707-.28l-.51.038-.18-.48c-1.424-3.794-5.36-6.444-9.573-6.444-5.49 0-10.13 4.403-10.13 9.615 0 5.212 4.64 9.614 10.13 9.614h66.266c5.491 0 10.13-4.402 10.13-9.614 0-5.212-4.64-9.616-10.13-9.616z"/>
        <path fill="#1F282C" d="M43.9 47.004a3.402 3.402 0 0 1 2.271.86l1.826-1.219a5.453 5.453 0 0 0-4.104-1.837c-1.079 0-2.128.317-3.031.917a5.45 5.45 0 0 0-1.061.92l1.826 1.22c.625-.55 1.44-.86 2.273-.86"/>
    </g>
</svg>
