<?xml version="1.0" encoding="UTF-8"?>
<svg width="48px" height="48px" viewBox="0 0 48 48" version="1.1" xmlns="http://www.w3.org/2000/svg" xmlns:xlink="http://www.w3.org/1999/xlink">
    <!-- Generator: Sketch 49.2 (51160) - http://www.bohemiancoding.com/sketch -->
    <title>telegram</title>
    <desc>Created with Sketch.</desc>
    <defs></defs>
    <g id="menu" stroke="none" stroke-width="1" fill="none" fill-rule="evenodd">
        <g id="calltouch_calltracking_menu" transform="translate(-1192.000000, -2186.000000)" fill="#8F9496">
            <g id="footer" transform="translate(0.000000, 2092.000000)">
                <path d="M1216.00316,94 C1202.74674,94 1192,104.74674 1192,118.003161 C1192,131.25326 1202.74674,142 1216.00316,142 C1229.25326,142 1240,131.25326 1240,118.003161 C1240,104.74674 1229.25326,94 1216.00316,94 L1216.00316,94 Z M1204.40625,117.589927 L1209.70592,119.565425 L1211.75721,126.154015 C1211.88846,126.575991 1212.40512,126.731963 1212.74805,126.451948 L1215.70218,124.046741 C1216.01183,123.794751 1216.4529,123.782193 1216.77651,124.016803 L1222.10469,127.880279 C1222.47155,128.146588 1222.99127,127.945822 1223.08327,127.503096 L1226.98645,108.751873 C1227.08688,108.268259 1226.61109,107.864813 1226.15002,108.042914 L1204.40004,116.422776 C1203.86329,116.629514 1203.86797,117.388473 1204.40625,117.589927 Z M1211.42662,118.513817 L1221.78415,112.142684 C1221.9703,112.028519 1222.16181,112.279897 1222.00196,112.427983 L1213.454,120.363664 C1213.15354,120.64299 1212.95973,121.016803 1212.90484,121.422546 L1212.61366,123.577676 C1212.57509,123.865424 1212.17037,123.893985 1212.09087,123.615501 L1210.97099,119.685563 C1210.84273,119.237324 1211.02964,118.758534 1211.42662,118.513817 Z" id="telegram"></path>
            </g>
        </g>
    </g>
</svg>