<svg id="Layer_1" data-name="Layer 1" xmlns="http://www.w3.org/2000/svg" viewBox="0 0 42 45"><defs><style>.cls-1{fill:#ceeaf2;}.cls-2{fill:#3dafcc;}.cls-3{fill:#1f282c;}</style></defs><title>siteArtboard 158</title><path class="cls-1" d="M39.969,15.17376a2.13176,2.13176,0,0,1,1.03064,1.69465v15.598a11.30521,11.30521,0,0,1-1.99936,6.35491c-.73692.9571-3.00535,5.6743-3.00535,5.6743H31.08c0-4.415,2.09739-5.54919,3.40926-7.39118,2.03618-2.859,4.36577-5.373,4.36577-8.46644V17.20574C38.855,16.10152,38.91431,15.398,39.969,15.17376Z"/><path class="cls-1" d="M2.03124,15.17376A2.13176,2.13176,0,0,0,1.0006,16.86841v15.598A11.30521,11.30521,0,0,0,3,38.82127c.73691.9571,3.00534,5.6743,3.00534,5.6743h4.915c0-4.64194-2.59627-6.08139-3.40926-7.39118-2.069-3.33327-4.36578-4.74929-4.36578-8.46644V17.20574C3.14526,16.10152,3.086,15.398,2.03124,15.17376Z"/><path class="cls-1" d="M30.82225,8.19856a11.87361,11.87361,0,1,1-19.644,0,12.86656,12.86656,0,1,0,19.644,0Z"/><circle class="cls-2" cx="21.03895" cy="16.5006" r="1.41623"/><path class="cls-2" d="M21.039.53364A15.97487,15.97487,0,0,0,6.31914,22.69544a1.96583,1.96583,0,0,1,2.03733.41943c.74926.831.63554,3.86445.63554,3.86445a15.96791,15.96791,0,0,0,24.02462.07877s-.3483-2.74007.47333-3.768a2.025,2.025,0,0,1,2.25591-.56416s.4337-1.10863.60428-1.68362A15.97973,15.97973,0,0,0,21.039.53364Zm-.03889,28.83328A12.86692,12.86692,0,1,1,33.86681,16.49951,12.8668,12.8668,0,0,1,21.00013,29.36692Z"/><path class="cls-3" d="M21,33.02068A16.384,16.384,0,0,1,11.38955,29.936a.50383.50383,0,1,1,.58681-.81916,15.51035,15.51035,0,0,0,17.618.29734,2.06926,2.06926,0,0,0,.35445-.28356.50432.50432,0,1,1,.73646.6892,3.12138,3.12138,0,0,1-.53167.43322A16.43173,16.43173,0,0,1,21,33.02068Z"/><path class="cls-3" d="M5.44174,13.2386a.54451.54451,0,0,1-.11815-.01379.505.505,0,0,1-.37217-.60847A16.46188,16.46188,0,0,1,9.69411,4.47883a.50428.50428,0,1,1,.69118.73449,15.44229,15.44229,0,0,0-4.45324,7.63932A.50494.50494,0,0,1,5.44174,13.2386Z"/><path class="cls-3" d="M36.55824,13.2386a.50494.50494,0,0,1-.49031-.386A15.512,15.512,0,0,0,13.83524,2.75976a.50424.50424,0,1,1-.46669-.894,16.52128,16.52128,0,0,1,23.68,10.75057.50541.50541,0,0,1-.37217.60847A.54451.54451,0,0,1,36.55824,13.2386Z"/><path class="cls-3" d="M21,29.90745a13.29411,13.29411,0,0,1-9.62717-4.08008.50412.50412,0,1,1,.72464-.701,12.38965,12.38965,0,0,0,17.80506,0,.50412.50412,0,0,1,.72464.701A13.28919,13.28919,0,0,1,21,29.90745Z"/><path class="cls-3" d="M33.53658,20.03807a.54456.54456,0,0,1-.11815-.01378.50449.50449,0,0,1-.37217-.60847,12.38879,12.38879,0,1,0-24.09255.001.50412.50412,0,1,1-.98063.23433,13.397,13.397,0,1,1,26.05382.001A.50518.50518,0,0,1,33.53658,20.03807Z"/><path class="cls-3" d="M21,6.70889a.5038.5038,0,0,1-.5041-.5041V3.61733a.5041.5041,0,0,1,1.0082,0V6.20479A.50381.50381,0,0,1,21,6.70889Z"/><path class="cls-3" d="M33.893,17.01444H31.30554a.5041.5041,0,1,1,0-1.0082H33.893a.5041.5041,0,0,1,0,1.0082Z"/><path class="cls-3" d="M21,29.90745a.50381.50381,0,0,1-.5041-.5041V26.81588a.5041.5041,0,0,1,1.0082,0v2.58747A.50381.50381,0,0,1,21,29.90745Z"/><path class="cls-3" d="M10.69444,17.01444H8.107a.5041.5041,0,1,1,0-1.0082h2.58746a.5041.5041,0,1,1,0,1.0082Z"/><path class="cls-3" d="M15.27173,7.09288a.5031.5031,0,0,1-.43616-.252l-.71776-1.24352a.50376.50376,0,1,1,.87233-.5041l.71776,1.24351a.50431.50431,0,0,1-.43617.75616Z"/><path class="cls-3" d="M11.07843,11.28618a.5.5,0,0,1-.25205-.06793l-1.24352-.71776a.50376.50376,0,1,1,.5041-.87233l1.24352.71775a.504.504,0,0,1-.252.94027Z"/><path class="cls-3" d="M10.76336,22.82146a.504.504,0,0,1-.25205-.94027l1.024-.59074a.50376.50376,0,1,1,.5041.87233l-1.024.59075A.5.5,0,0,1,10.76336,22.82146Z"/><path class="cls-3" d="M14.554,28.18051a.50382.50382,0,0,1-.43715-.75616l.71775-1.2445a.50461.50461,0,0,1,.8743.5041l-.71775,1.2445A.50469.50469,0,0,1,14.554,28.18051Z"/><path class="cls-3" d="M27.447,28.18051a.50311.50311,0,0,1-.43617-.25206l-.71874-1.2445a.50376.50376,0,1,1,.87233-.5041l.71874,1.2445a.50431.50431,0,0,1-.43616.75616Z"/><path class="cls-3" d="M31.12733,22.86183a.5.5,0,0,1-.25205-.06793l-.96784-.55924a.50376.50376,0,0,1,.5041-.87234l.96784.55924a.504.504,0,0,1-.25205.94027Z"/><path class="cls-3" d="M30.92155,11.28618a.50424.50424,0,0,1-.25205-.94125l1.2445-.71776a.50461.50461,0,1,1,.50411.87431l-1.24451.71775A.50892.50892,0,0,1,30.92155,11.28618Z"/><path class="cls-3" d="M26.72825,7.09288a.4973.4973,0,0,1-.25205-.06794.50277.50277,0,0,1-.18412-.68822l.71874-1.24351a.50787.50787,0,0,1,.68822-.18412.50278.50278,0,0,1,.18411.68822l-.71874,1.24352A.50427.50427,0,0,1,26.72825,7.09288Z"/><path class="cls-3" d="M25.44141,19.53889a.49908.49908,0,0,1-.25008-.06695l-3.1979-1.82934a.50363.50363,0,0,1,.50016-.8743l3.1979,1.82934a.504.504,0,0,1-.25008.94125Z"/><path class="cls-3" d="M21,15.59074a.5038.5038,0,0,1-.5041-.5041V9.258a.5041.5041,0,0,1,1.0082,0v5.82868A.50381.50381,0,0,1,21,15.59074Z"/><path class="cls-3" d="M21.23432,18.34559a.50394.50394,0,0,1-.08566-1.00033.84675.84675,0,1,0-.94716-1.1106.50378.50378,0,0,1-.95307-.32688A1.85463,1.85463,0,1,1,21.322,18.33771.43947.43947,0,0,1,21.23432,18.34559Z"/><path class="cls-3" d="M1.00623,32.35707a.50382.50382,0,0,1-.50411-.5041V16.86577a2.50082,2.50082,0,0,1,5.00164,0V30.37709a.5041.5041,0,0,1-1.0082,0V16.86577a1.49262,1.49262,0,1,0-2.98523,0V31.853A.50381.50381,0,0,1,1.00623,32.35707Z"/><path class="cls-3" d="M15.94814,45a.50382.50382,0,0,1-.50411-.5041V40.06826c0-3.20479-2.77847-5.46537-5.01148-7.2829l-.46177-.3761A4.36337,4.36337,0,0,1,8.489,29.05481L8.488,24.573a1.49213,1.49213,0,1,0-2.98425,0v5.80407c0,.87135,0,2.683.55137,3.46472l1.88349,2.99508a.50429.50429,0,0,1-.85461.53561L5.21627,34.40007c-.72071-1.019-.72071-2.97342-.72071-4.023V24.573a2.50033,2.50033,0,1,1,5.00066,0v4.50542a3.39856,3.39856,0,0,0,1.11453,2.551l.45783.37414C13.467,33.955,16.45224,36.384,16.45224,40.06826V44.4959A.50381.50381,0,0,1,15.94814,45Z"/><path class="cls-3" d="M6.00491,45a.506.506,0,0,1-.48933-.381,17.47409,17.47409,0,0,0-2.3748-4.63144,15.91007,15.91007,0,0,1-2.34722-4.66,15.6987,15.6987,0,0,1-.29144-3.49426.48175.48175,0,0,1,.5238-.48441.50485.50485,0,0,1,.48441.52379,14.87387,14.87387,0,0,0,.2678,3.23728A15.2883,15.2883,0,0,0,3.99146,39.445a18.17313,18.17313,0,0,1,2.50279,4.9278.50518.50518,0,0,1-.36627.6124A.53173.53173,0,0,1,6.00491,45Z"/><path class="cls-3" d="M40.99375,32.35707a.50381.50381,0,0,1-.5041-.5041V16.86577a1.49213,1.49213,0,1,0-2.98425,0V30.37709a.5041.5041,0,0,1-1.0082,0V16.86577a2.50033,2.50033,0,1,1,5.00066,0V31.853A.50382.50382,0,0,1,40.99375,32.35707Z"/><path class="cls-3" d="M26.05283,45a.50381.50381,0,0,1-.5041-.5041V40.06826c0-3.68526,2.98523-6.11421,5.38365-8.06563l.45684-.37316a3.38862,3.38862,0,0,0,1.11454-2.52937V24.573a2.50082,2.50082,0,0,1,5.00164,0v5.80407c0,1.04956,0,3.00394-.73646,4.04562a.50372.50372,0,1,1-.8231-.5809c.55136-.78175.55136-2.59337.55136-3.46472V24.573a1.49262,1.49262,0,0,0-2.98523,0v4.50542a4.35843,4.35843,0,0,1-1.48277,3.33082l-.46078.37512c-2.233,1.81752-5.01149,4.07811-5.01149,7.28388V44.4959A.50381.50381,0,0,1,26.05283,45Z"/><path class="cls-3" d="M34.41285,37.7299a.49743.49743,0,0,1-.26878-.07778.50358.50358,0,0,1-.15754-.69511l.45291-.71973a.504.504,0,0,1,.85264.53758l-.4529.71972A.50326.50326,0,0,1,34.41285,37.7299Z"/><path class="cls-3" d="M35.99507,45a.53188.53188,0,0,1-.12308-.01477.50518.50518,0,0,1-.36626-.6124A18.18229,18.18229,0,0,1,38.00951,39.444a15.30565,15.30565,0,0,0,2.21332-4.33311,14.92213,14.92213,0,0,0,.26682-3.23827.50485.50485,0,0,1,.48441-.52379h.01969a.50443.50443,0,0,1,.50411.48441,15.73482,15.73482,0,0,1-.29045,3.49426,15.93031,15.93031,0,0,1-2.34723,4.659A17.45485,17.45485,0,0,0,36.4844,44.619.506.506,0,0,1,35.99507,45Z"/></svg>