<svg xmlns="http://www.w3.org/2000/svg" width="70" height="75" viewBox="0 0 70 75">
    <g fill="none" fill-rule="evenodd">
        <circle cx="35" cy="27" r="22" fill="#FFF"/>
        <path fill="#CEEAF2" d="M66.615 25.29a3.553 3.553 0 0 1 1.718 2.824v25.997A18.842 18.842 0 0 1 65 64.702c-1.228 1.595-5.008 9.457-5.008 9.457H51.8c0-7.358 3.496-9.248 5.682-12.318 3.394-4.765 7.276-8.955 7.276-14.111V28.676c0-1.84.1-3.013 1.857-3.386zM3.385 25.29a3.553 3.553 0 0 0-1.717 2.824v25.997A18.842 18.842 0 0 0 5 64.702c1.228 1.595 5.009 9.457 5.009 9.457H18.2c0-7.736-4.328-10.135-5.683-12.318-3.448-5.556-7.276-7.916-7.276-14.111V28.676c0-1.84-.099-3.013-1.857-3.386zM51.37 13.664c5.602 8.247 4.195 19.373-3.284 25.965-7.478 6.592-18.693 6.592-26.171 0-7.479-6.592-8.886-17.718-3.285-25.965-7.352 8.689-6.635 21.608 1.633 29.43 8.268 7.822 21.207 7.822 29.475 0s8.985-20.741 1.632-29.43z"/>
        <circle cx="35.065" cy="27.501" r="2.36" fill="#3DAFCC"/>
        <path fill="#3DAFCC" fill-rule="nonzero" d="M35.065.89a26.625 26.625 0 0 0-24.533 36.936 3.276 3.276 0 0 1 3.395.699c1.25 1.385 1.06 6.44 1.06 6.44a26.613 26.613 0 0 0 40.04.132s-.58-4.567.79-6.28a3.375 3.375 0 0 1 3.76-.94s.722-1.848 1.007-2.806A26.633 26.633 0 0 0 35.065.889zM35 48.944c-11.843 0-21.445-9.6-21.445-21.444s9.6-21.445 21.444-21.446c11.844 0 21.445 9.6 21.446 21.444A21.445 21.445 0 0 1 35 48.945z"/>
        <path fill="#1F282C" d="M35 55.034a27.307 27.307 0 0 1-16.017-5.14.84.84 0 1 1 .978-1.366 25.85 25.85 0 0 0 29.363.496c.214-.136.412-.294.59-.473a.84.84 0 0 1 1.228 1.149 5.202 5.202 0 0 1-.886.722A27.386 27.386 0 0 1 35 55.034zM9.07 22.064a.842.842 0 0 1-.817-1.037 27.436 27.436 0 0 1 7.904-13.562.84.84 0 1 1 1.152 1.224A25.737 25.737 0 0 0 9.887 21.42a.842.842 0 0 1-.817.643zM60.93 22.064a.842.842 0 0 1-.817-.643A25.853 25.853 0 0 0 23.06 4.6a.84.84 0 1 1-.778-1.49 27.535 27.535 0 0 1 39.467 17.917.842.842 0 0 1-.818 1.037z"/>
        <path fill="#1F282C" d="M35 49.846a22.157 22.157 0 0 1-16.045-6.8.84.84 0 1 1 1.207-1.169 20.65 20.65 0 0 0 29.676 0 .84.84 0 0 1 1.207 1.169A22.149 22.149 0 0 1 35 49.846zM55.894 33.397a.84.84 0 0 1-.817-1.037 20.648 20.648 0 1 0-40.154.001.84.84 0 1 1-1.635.39 22.328 22.328 0 1 1 43.424.003.842.842 0 0 1-.818.643z"/>
        <path fill="#1F282C" d="M35 11.181a.84.84 0 0 1-.84-.84V6.03a.84.84 0 0 1 1.68 0v4.312a.84.84 0 0 1-.84.84zM56.488 28.357h-4.312a.84.84 0 0 1 0-1.68h4.312a.84.84 0 1 1 0 1.68zM35 49.846a.84.84 0 0 1-.84-.84v-4.313a.84.84 0 0 1 1.68 0v4.313a.84.84 0 0 1-.84.84zM17.824 28.357h-4.312a.84.84 0 1 1 0-1.68h4.312a.84.84 0 1 1 0 1.68zM25.453 11.821c-.3 0-.577-.16-.727-.42L23.53 9.33a.84.84 0 1 1 1.454-.84l1.196 2.072a.84.84 0 0 1-.727 1.26zM18.464 18.81a.833.833 0 0 1-.42-.113l-2.073-1.196a.84.84 0 1 1 .84-1.454l2.073 1.196a.84.84 0 0 1-.42 1.567zM17.939 38.036a.84.84 0 0 1-.42-1.567l1.707-.985a.84.84 0 1 1 .84 1.454l-1.707.985a.833.833 0 0 1-.42.113zM24.257 46.968a.84.84 0 0 1-.729-1.26l1.196-2.075a.841.841 0 0 1 1.457.84l-1.196 2.074a.841.841 0 0 1-.728.42zM45.745 46.968c-.3 0-.577-.16-.727-.42l-1.198-2.075a.84.84 0 1 1 1.454-.84l1.198 2.074a.84.84 0 0 1-.727 1.26zM51.879 38.103a.833.833 0 0 1-.42-.113l-1.613-.932a.84.84 0 0 1 .84-1.454l1.613.932a.84.84 0 0 1-.42 1.567zM51.536 18.81a.84.84 0 0 1-.42-1.568l2.074-1.197a.841.841 0 0 1 .84 1.457L51.956 18.7a.848.848 0 0 1-.42.111zM44.547 11.821a.838.838 0 0 1-.727-1.26l1.198-2.072a.846.846 0 0 1 1.147-.307.838.838 0 0 1 .307 1.147L45.274 11.4a.84.84 0 0 1-.727.42zM42.402 32.565a.832.832 0 0 1-.416-.112l-5.33-3.049a.84.84 0 0 1 .833-1.457l5.33 3.05a.84.84 0 0 1-.417 1.568zM35 25.985a.84.84 0 0 1-.84-.84V15.43a.84.84 0 0 1 1.68 0v9.714a.84.84 0 0 1-.84.84z"/>
        <path fill="#1F282C" d="M35.39 30.576a.84.84 0 0 1-.142-1.667 1.411 1.411 0 1 0-1.579-1.851.84.84 0 0 1-1.588-.545 3.091 3.091 0 1 1 3.456 4.05.732.732 0 0 1-.146.013zM1.677 53.928a.84.84 0 0 1-.84-.84V28.11a4.168 4.168 0 1 1 8.336 0v22.518a.84.84 0 1 1-1.68 0V28.11a2.488 2.488 0 1 0-4.976 0v24.978a.84.84 0 0 1-.84.84z"/>
        <path fill="#1F282C" d="M26.58 75a.84.84 0 0 1-.84-.84v-7.38c0-5.34-4.63-9.109-8.352-12.138l-.77-.627a7.272 7.272 0 0 1-2.47-5.59l-.001-7.47a2.487 2.487 0 1 0-4.974 0v9.673c0 1.453 0 4.472.919 5.775l3.139 4.992a.84.84 0 0 1-1.424.892l-3.113-4.954c-1.201-1.698-1.201-4.955-1.201-6.705v-9.673a4.167 4.167 0 0 1 8.334 0v7.509a5.664 5.664 0 0 0 1.858 4.252l.763.623c3.997 3.253 8.972 7.301 8.972 13.441v7.38a.84.84 0 0 1-.84.84zM10.008 75a.843.843 0 0 1-.815-.635 29.123 29.123 0 0 0-3.958-7.72 26.517 26.517 0 0 1-3.912-7.766 26.165 26.165 0 0 1-.486-5.823.803.803 0 0 1 .873-.808c.464.019.825.41.807.873a24.79 24.79 0 0 0 .447 5.396 25.48 25.48 0 0 0 3.688 7.225 30.289 30.289 0 0 1 4.172 8.213.842.842 0 0 1-.816 1.045zM68.323 53.928a.84.84 0 0 1-.84-.84V28.11a2.487 2.487 0 1 0-4.974 0v22.518a.84.84 0 1 1-1.68 0V28.11a4.167 4.167 0 1 1 8.334 0v24.978a.84.84 0 0 1-.84.84z"/>
        <path fill="#1F282C" d="M43.421 75a.84.84 0 0 1-.84-.84v-7.38c0-6.142 4.976-10.19 8.973-13.442l.761-.622a5.648 5.648 0 0 0 1.858-4.216v-7.545a4.168 4.168 0 0 1 8.336 0v9.673c0 1.75 0 5.007-1.227 6.743a.84.84 0 0 1-1.372-.968c.919-1.303.919-4.322.919-5.775v-9.673a2.488 2.488 0 0 0-4.976 0v7.509a7.264 7.264 0 0 1-2.471 5.551l-.768.626c-3.722 3.029-8.352 6.796-8.352 12.14v7.379a.84.84 0 0 1-.84.84z"/>
        <path fill="#1F282C" d="M57.355 62.883a.84.84 0 0 1-.71-1.288l.754-1.2a.84.84 0 0 1 1.421.896l-.755 1.2a.839.839 0 0 1-.71.392zM59.992 75a.842.842 0 0 1-.816-1.045 30.304 30.304 0 0 1 4.173-8.215 25.51 25.51 0 0 0 3.69-7.222 24.87 24.87 0 0 0 .444-5.397.841.841 0 0 1 .807-.873h.033a.84.84 0 0 1 .84.807 26.225 26.225 0 0 1-.484 5.824 26.55 26.55 0 0 1-3.912 7.765 29.091 29.091 0 0 0-3.96 7.721.843.843 0 0 1-.815.635z"/>
    </g>
</svg>
