<svg xmlns="http://www.w3.org/2000/svg" width="33" height="33" viewBox="0 0 33 33">
    <g fill="none" fill-rule="evenodd">
        <path fill="#3CB0CB" d="M21.63 11.098l-6.776 7.234-3.62-3.864-2.232 2.381 5.852 6.249 9.008-9.62z"/>
        <path fill="#CEEAF2" d="M24.225 30.268s6.05-3.225 6.05-12.536c0-9.31-7.545-15.994-16.853-15.994-2.922 0 .465-.328 2.16.865 3.705 2.604 11.236 8.742 11.236 15.13 0 9.31-2.593 12.535-2.593 12.535z"/>
        <path stroke="#1F282C" stroke-linecap="round" stroke-width="3" d="M10.668 29.768A14.337 14.337 0 0 0 16.5 31C24.508 31 31 24.448 31 16.366S24.508 1.732 16.5 1.732 2 8.284 2 16.366c0 4.217 1.768 8.018 4.596 10.689"/>
    </g>
</svg>
