<svg xmlns="http://www.w3.org/2000/svg" width="24" height="24" viewBox="0 0 24 24">
    <g fill="none" fill-rule="evenodd">
        <rect width="2" height="4" x="18" fill="#3CB0CB" rx="1"/>
        <path fill="#3CB0CB" d="M5 0c.552 0 1 .436 1 .975v2.05A.988.988 0 0 1 5 4c-.552 0-1-.436-1-.975V.975A.988.988 0 0 1 5 0z"/>
        <path fill="#FFF" fill-rule="nonzero" d="M22.57 2h-1.65v.923c0 .557-.244 1.087-.666 1.454a1.963 1.963 0 0 1-1.542.462 1.986 1.986 0 0 1-1.693-1.987V2H6.979v.923c-.001.557-.244 1.086-.666 1.453a1.963 1.963 0 0 1-1.54.463A1.983 1.983 0 0 1 3.08 2.855V2H1.43c-.38 0-.743.15-1.011.415A1.412 1.412 0 0 0 0 3.418v19.164c0 .376.15.737.419 1.003.268.266.632.415 1.011.415h21.14c.38 0 .743-.15 1.011-.415.268-.266.419-.627.419-1.003V3.418c0-.376-.15-.737-.419-1.003A1.436 1.436 0 0 0 22.57 2zm-.437 19.807a.344.344 0 0 1-.345.342H2.212a.344.344 0 0 1-.345-.342V8.479c0-.19.154-.342.345-.342h19.576c.19 0 .345.153.345.342v13.328z"/>
        <rect width="15" height="2" x="5" y="11" fill="#FFF" rx="1"/>
        <rect width="7" height="2" x="4" y="16" fill="#FFF" rx="1"/>
    </g>
</svg>
