<svg xmlns="http://www.w3.org/2000/svg" width="48" height="48" viewBox="0 0 48 48">
    <path fill="#8F9496" fill-rule="evenodd" d="M24.003 0C37.253 0 48 10.747 48 24.003 48 37.253 37.253 48 24.003 48 10.747 48 0 37.253 0 24.003 0 10.747 10.747 0 24.003 0zM38.29 17.219c.215-.703 0-1.219-1.026-1.219h-3.391c-.863 0-1.26.446-1.476.938 0 0-1.724 4.11-4.168 6.78-.79.772-1.15 1.018-1.58 1.018-.216 0-.528-.246-.528-.948v-6.57c0-.842-.25-1.218-.97-1.218h-5.328c-.54 0-.864.391-.864.762 0 .8 1.222.984 1.348 3.232v4.883c0 1.07-.198 1.265-.629 1.265-1.15 0-3.946-4.13-5.605-8.853-.325-.918-.651-1.289-1.518-1.289H9.163c-.97 0-1.163.446-1.163.938 0 .878 1.15 5.234 5.353 10.995C16.156 31.867 20.104 34 23.697 34c2.156 0 2.423-.474 2.423-1.29v-2.973c0-.948.204-1.137.887-1.137.503 0 1.365.246 3.377 2.143 2.3 2.249 2.679 3.257 3.972 3.257h3.392c.969 0 1.453-.474 1.173-1.409-.305-.931-1.403-2.283-2.86-3.885-.79-.914-1.976-1.897-2.335-2.389-.504-.632-.36-.913 0-1.475 0 0 4.132-5.691 4.563-7.623z"/>
</svg>
