<svg xmlns="http://www.w3.org/2000/svg" xmlns:xlink="http://www.w3.org/1999/xlink" width="96" height="96" viewBox="0 0 96 96"><defs><path id="tnnua" d="M911.54 1486.55c-1 0-1.66-.66-1.66-1.65 0-1 .66-1.65 1.66-1.65h8.25a48.2 48.2 0 0 0-46.24-46.25v11.56c0 1-.66 1.65-1.65 1.65-1 0-1.65-.66-1.65-1.65V1437a48.2 48.2 0 0 0-46.25 46.25h8.26c.99 0 1.65.66 1.65 1.65 0 .99-.66 1.65-1.65 1.65H824a48.2 48.2 0 0 0 46.25 46.24v-11.56c0-.99.66-1.65 1.65-1.65.99 0 1.65.66 1.65 1.65v11.56a48.2 48.2 0 0 0 46.24-46.24z"/></defs><g><g transform="translate(-824 -1437)"><use fill="#1f282c" xlink:href="#tnnua"/></g></g></svg>