<svg width="300" height="241" viewBox="0 0 300 241" fill="none" xmlns="http://www.w3.org/2000/svg">
<path d="M147.786 0.391048C154.217 2.06166 158.07 8.62037 156.392 15.0244C154.714 21.4284 148.128 25.2646 141.697 23.594C135.266 21.9234 131.414 15.3647 133.091 8.96068C134.769 2.55666 141.355 -1.27957 147.786 0.391048ZM180.19 57.7797C195.072 61.6469 206.101 72.8153 210.419 86.4277C194.326 97.6889 177.425 110.713 160.804 124.852C156.268 128.719 151.856 132.555 147.6 136.36C131.32 126.894 122.621 107.496 127.623 88.4386C133.619 65.5141 157.169 51.7779 180.19 57.7797ZM215.328 98.8335C215.856 103.814 215.483 108.981 214.147 114.086C208.12 137.01 184.602 150.746 161.58 144.744C160.99 144.59 160.4 144.435 159.81 144.249C140.237 162.069 124.019 179.085 112.804 193.161C111.623 194.646 110.505 196.1 109.449 197.493C124.237 201.329 138.839 203.928 152.26 205.289C163.973 197.183 176.99 187.345 190.598 176.146C191.716 177.043 192.741 177.94 193.705 178.837C181.06 188.706 168.571 197.74 156.641 205.691C163.413 206.248 169.813 206.495 175.747 206.433C195.755 206.186 209.176 202.071 211.227 194.213C213.277 186.355 203.584 176.27 186.279 166.277C178.046 161.543 168.322 156.934 157.604 152.695C158.443 151.922 159.25 151.149 160.089 150.344C175.841 155.82 189.635 161.667 200.819 167.545C227.631 144.652 249.782 122.222 263.949 104.433C270.753 95.8945 275.661 88.4386 278.364 82.5605C281.067 76.6824 281.564 72.3203 279.545 69.969C279.359 69.7525 279.141 69.5669 278.893 69.3503C274.077 65.545 261.712 69.4431 245.588 78.7862C236.702 83.9836 226.45 90.728 215.328 98.8335ZM124.392 139.671C133.06 141.929 141.386 144.342 149.309 146.848C152.819 143.755 156.423 140.599 160.12 137.474C189.479 112.539 219.677 91.0683 244.749 76.4968C271.995 60.6879 291.879 53.3248 297.999 58.151C298.248 58.3366 298.465 58.5532 298.683 58.8316C300.826 61.3066 300.298 65.8234 297.502 71.9181C294.706 78.0127 289.673 85.6233 282.776 94.2858C268.081 112.755 244.842 136.206 216.633 160.213C212.749 163.493 208.866 166.741 204.982 169.897C205.572 170.237 206.163 170.546 206.722 170.887C224.835 181.312 234.963 191.8 232.85 199.906C230.737 208.011 216.726 212.219 195.817 212.497C183.576 212.652 168.695 211.414 152.074 208.785C145.114 213.332 138.373 217.509 132.004 221.191C104.757 237 84.8739 244.363 78.7536 239.536C78.505 239.351 78.2876 239.134 78.0701 238.856C75.9264 236.381 76.4546 231.833 79.2507 225.769C82.0468 219.675 87.0798 212.064 93.9768 203.402C106.342 187.871 124.734 168.814 147.072 148.859C139.647 146.291 131.88 143.909 123.864 141.836C99.7554 135.556 76.1128 132.586 57.3789 132.834C37.3712 133.081 23.9499 137.196 21.8995 145.054C19.849 152.912 29.5421 162.997 46.8469 172.99C59.709 180.384 76.2682 187.531 94.5982 193.285C94.0079 193.935 93.3865 194.584 92.7962 195.234C65.5808 187.19 42.5596 177.724 26.4043 168.442C8.29176 158.017 -1.83635 147.529 0.276259 139.423C2.38887 131.318 16.4005 127.11 37.3091 126.832C59.4605 126.522 90.2487 130.792 124.392 139.671ZM148.128 208.104C135.763 206.031 122.497 203.185 108.672 199.596L107.988 199.411C103.639 205.351 100.377 210.61 98.3574 215.003C95.6545 220.881 95.1574 225.243 97.1768 227.595C97.3632 227.811 97.5807 228.028 97.8292 228.213C102.645 232.019 115.01 228.121 131.134 218.777C136.353 215.777 142.07 212.188 148.128 208.104ZM92.7962 33.8343C107.491 37.6396 116.284 52.6132 112.431 67.2156C108.61 81.849 93.5729 90.6042 78.9089 86.768C64.2138 82.9627 55.4216 67.9891 59.2741 53.3867C63.1265 38.7842 78.1322 30.029 92.7962 33.8343Z" fill="white"/>
</svg>
