<svg xmlns="http://www.w3.org/2000/svg" xmlns:xlink="http://www.w3.org/1999/xlink" width="62" height="64" viewBox="0 0 62 64"><defs><path id="busva" d="M138.67 3014.33h58.67"/><path id="busvb" d="M197.33 3015.67h-58.67a1.33 1.33 0 0 1 0-2.67h58.67a1.33 1.33 0 0 1 0 2.67z"/><path id="busvc" d="M154.67 2997H144c-.73 0-1.33.6-1.33 1.33V3009c0 .74.6 1.33 1.33 1.33h10.67c.74 0 1.33-.6 1.33-1.33v-10.67c0-.73-.6-1.33-1.33-1.33z"/><path id="busvd" d="M173.33 2981h-10.67c-.73 0-1.33.6-1.33 1.33V3009c0 .74.6 1.33 1.33 1.33h10.67c.74 0 1.33-.6 1.33-1.33v-26.67c0-.73-.6-1.33-1.33-1.33z"/><path id="busve" d="M192 2986.33h-10.67c-.73 0-1.33.6-1.33 1.33V3009c0 .73.6 1.33 1.33 1.33H192c.74 0 1.33-.6 1.33-1.33v-21.34c0-.73-.6-1.33-1.33-1.33z"/><path id="busvf" d="M173.33 3018.33h-10.67c-.73 0-1.33.6-1.33 1.33v10.67c0 .74.6 1.33 1.33 1.33h10.67c.74 0 1.33-.6 1.33-1.33v-10.67c0-.73-.6-1.33-1.33-1.33z"/><path id="busvg" d="M154.67 3018.33H144c-.73 0-1.33.6-1.33 1.33v24c0 .74.6 1.34 1.33 1.34h10.67c.74 0 1.33-.6 1.33-1.34v-24c0-.73-.6-1.33-1.33-1.33z"/><path id="busvh" d="M192 3018.33h-10.67c-.73 0-1.33.6-1.33 1.33v16c0 .74.6 1.34 1.33 1.34H192c.74 0 1.33-.6 1.33-1.34v-16c0-.73-.6-1.33-1.33-1.33z"/></defs><g><g transform="translate(-137 -2981)"><g><g><use xlink:href="#busva"/></g><g><use xlink:href="#busvb"/></g></g><g><g><use fill="#1eb0cd" xlink:href="#busvc"/></g><g><use fill="#1eb0cd" xlink:href="#busvd"/></g><g><use fill="#1eb0cd" xlink:href="#busve"/></g><g><use xlink:href="#busvf"/></g><g><use xlink:href="#busvg"/></g><g><use xlink:href="#busvh"/></g></g></g></g></svg>