<svg xmlns="http://www.w3.org/2000/svg" xmlns:xlink="http://www.w3.org/1999/xlink" width="60" height="64" viewBox="0 0 60 64"><defs><path id="1poia" d="M166 2871v60a2 2 0 0 1-4.01 0v-60a2 2 0 0 1 4.02 0zm15.99 0v60a2 2 0 1 1-4 0v-60a2 2 0 1 1 4 0zm-8 8v44a2 2 0 0 1-2 2 2 2 0 0 1-2-2v-44a2 2 0 0 1 4 0zm16 0v44c0 1.1-.89 2-2 2a2 2 0 0 1-2-2v-44a2 2 0 0 1 4 0zm8 8v28a2 2 0 1 1-4 0v-28a2 2 0 0 1 4 0z"/><path id="1poib" d="M158 2887v28a2 2 0 1 1-4 0v-28a2 2 0 0 1 4 0zm-16 8v12a2 2 0 1 1-4 0v-12a2 2 0 1 1 4 0zm7.99-16v44a2 2 0 1 1-4 0v-44a2 2 0 1 1 4 0z"/></defs><g><g transform="translate(-138 -2869)"><g><use fill="#1eb0cd" xlink:href="#1poia"/></g><g><use fill="#1f282c" xlink:href="#1poib"/></g></g></g></svg>