<svg xmlns="http://www.w3.org/2000/svg" xmlns:xlink="http://www.w3.org/1999/xlink" width="62" height="62" viewBox="0 0 62 62"><defs><path id="9zbha" d="M170.45 2734.45v8.88a7.29 7.29 0 0 1 5.67 5.67h5.97v-14.55z"/><path id="9zbhb" d="M155.91 2749h5.97a7.29 7.29 0 0 1 5.67-5.67v-8.88H155.9z"/><path id="9zbhc" d="M167.55 2766.45H155.9v5.97a7.29 7.29 0 0 1 5.67 5.67h5.97z"/><path id="9zbhd" d="M167.55 2763.55v-5.97a7.29 7.29 0 0 1-5.67-5.67h-5.97v11.64z"/><path id="9zbhe" d="M164.64 2750.45a4.36 4.36 0 1 1 8.73 0 4.36 4.36 0 0 1-8.73 0z"/><path id="9zbhf" d="M153 2772.42v-5.97h-14.55v11.64h8.88a7.29 7.29 0 0 1 5.67-5.67z"/><path id="9zbhg" d="M185 2757.88a7.29 7.29 0 0 1 5.67 5.67h8.88v-11.64H185z"/><path id="9zbhh" d="M138.45 2763.55v-11.64H153v11.64z"/><path id="9zbhi" d="M170.45 2757.58v5.97h5.97a7.29 7.29 0 0 1 5.67-5.67v-5.97h-5.97a7.29 7.29 0 0 1-5.67 5.67z"/><path id="9zbhj" d="M179.18 2765a4.36 4.36 0 1 1 8.73 0 4.36 4.36 0 0 1-8.73 0z"/><path id="9zbhk" d="M153 2786.67a7.29 7.29 0 0 1-5.67-5.67h-8.88v7.27c0 4.01 3.26 7.28 7.27 7.28H153z"/><path id="9zbhl" d="M185 2749h14.55v-7.28c0-4-3.27-7.27-7.28-7.27H185z"/><path id="9zbhm" d="M150.09 2779.55a4.37 4.37 0 1 1 8.73 0 4.37 4.37 0 0 1-8.73 0z"/><path id="9zbhn" d="M185 2781v14.55h7.27c4.01 0 7.28-3.27 7.28-7.28V2781z"/><path id="9zbho" d="M153 2749v-14.55h-7.28c-4 0-7.27 3.26-7.27 7.27v7.28z"/><path id="9zbhp" d="M170.45 2795.55V2781h11.64v14.55z"/><path id="9zbhq" d="M199.55 2766.45h-8.88a7.29 7.29 0 0 1-5.67 5.67v5.97h14.55v-11.64z"/><path id="9zbhr" d="M167.55 2781h-5.97a7.29 7.29 0 0 1-5.67 5.67v8.88h11.64z"/><path id="9zbhs" d="M176.42 2766.45h-5.97v11.64h11.64v-5.97a7.29 7.29 0 0 1-5.67-5.67z"/></defs><g><g transform="translate(-138 -2734)"><g><use fill="#1eb0cd" xlink:href="#9zbha"/></g><g><use fill="#1eb0cd" xlink:href="#9zbhb"/></g><g><use fill="#1eb0cd" xlink:href="#9zbhc"/></g><g><use fill="#1eb0cd" xlink:href="#9zbhd"/></g><g><use fill="#1f282c" xlink:href="#9zbhe"/></g><g><use fill="#1eb0cd" xlink:href="#9zbhf"/></g><g><use fill="#1eb0cd" xlink:href="#9zbhg"/></g><g><use fill="#1eb0cd" xlink:href="#9zbhh"/></g><g><use fill="#1eb0cd" xlink:href="#9zbhi"/></g><g><use fill="#1f282c" xlink:href="#9zbhj"/></g><g><use fill="#1eb0cd" xlink:href="#9zbhk"/></g><g><use fill="#1eb0cd" xlink:href="#9zbhl"/></g><g><use fill="#1f282c" xlink:href="#9zbhm"/></g><g><use fill="#1eb0cd" xlink:href="#9zbhn"/></g><g><use fill="#1eb0cd" xlink:href="#9zbho"/></g><g><use fill="#1eb0cd" xlink:href="#9zbhp"/></g><g><use fill="#1eb0cd" xlink:href="#9zbhq"/></g><g><use fill="#1eb0cd" xlink:href="#9zbhr"/></g><g><use fill="#1eb0cd" xlink:href="#9zbhs"/></g></g></g></svg>