<svg xmlns="http://www.w3.org/2000/svg" xmlns:xlink="http://www.w3.org/1999/xlink" width="64" height="64" viewBox="0 0 64 64"><defs><path id="4uaha" d="M144.67 2599.67a4 4 0 0 0-4 4v50.65a4 4 0 0 0 4 4h50.65a4 4 0 0 0 4-4v-50.65a4 4 0 0 0-4-4zm50.66 61.33h-50.66c-3.68 0-6.67-3-6.67-6.67v-50.66a6.67 6.67 0 0 1 6.67-6.67h50.66c3.68 0 6.67 3 6.67 6.67v50.66a6.67 6.67 0 0 1-6.67 6.67z"/><path id="4uahb" d="M200.67 2610.34h-61.34a1.33 1.33 0 0 1 0-2.67h61.34a1.33 1.33 0 0 1 0 2.67z"/><path id="4uahc" d="M155.33 2605a1.33 1.33 0 1 1 0-2.67 1.33 1.33 0 0 1 0 2.67zm-5.33 0a1.33 1.33 0 1 1 0-2.66 1.33 1.33 0 0 1 0 2.66zm-5.33 0a1.33 1.33 0 1 1 0-2.67 1.33 1.33 0 0 1 0 2.67zm50.66-8h-50.66c-3.68 0-6.67 3-6.67 6.67v5.33c0 .74.6 1.33 1.33 1.33h61.34c.73 0 1.33-.6 1.33-1.33v-5.33a6.67 6.67 0 0 0-6.67-6.67z"/><path id="4uahd" d="M174.8 2640.24c0 1.01.84 1.8 1.86 1.8s1.87-.79 1.87-1.8c0-.96-.85-1.77-1.87-1.77s-1.87.81-1.87 1.77zm-4.29.03c0-3.2 2.72-5.88 6.15-5.88 3.4 0 6.15 2.68 6.15 5.88 0 3.26-2.75 5.84-6.15 5.84-3.43 0-6.15-2.58-6.15-5.84zm-8.36-11.62c1.02 0 1.87-.79 1.87-1.8 0-.96-.85-1.77-1.87-1.77s-1.87.81-1.87 1.77c0 1.01.85 1.8 1.87 1.8zm-4.8 17.06l18.76-24.3h5.16l-18.75 24.3zm4.8-12.99c-3.43 0-6.15-2.58-6.15-5.84 0-3.2 2.72-5.88 6.15-5.88 3.4 0 6.15 2.68 6.15 5.88 0 3.26-2.75 5.84-6.15 5.84z"/></defs><g><g transform="translate(-138 -2597)"><g><use fill="#1eb0cd" xlink:href="#4uaha"/></g><g><use fill="#1eb0cd" xlink:href="#4uahb"/></g><g><use fill="#1eb0cd" xlink:href="#4uahc"/></g><g><use fill="#444b4c" xlink:href="#4uahd"/></g></g></g></svg>