<svg xmlns="http://www.w3.org/2000/svg" xmlns:xlink="http://www.w3.org/1999/xlink" width="62" height="64" viewBox="0 0 62 64"><defs><path id="necba" d="M821 6548.33a4 4 0 0 1-4 4h-48a4 4 0 0 1-4-4v-44h56zm-52-52a1.33 1.33 0 1 1-.01 2.67 1.33 1.33 0 0 1 0-2.67zm5.32 0c.73 0 1.33.6 1.33 1.34a1.33 1.33 0 0 1-2.65 0c0-.74.6-1.34 1.32-1.34zm5.34 0a1.33 1.33 0 1 1 0 2.67 1.33 1.33 0 0 1 0-2.67zM817 6491h-48c-3.68 0-6.67 3-6.67 6.67v50.66A6.67 6.67 0 0 0 769 6555h48c3.67 0 6.66-3 6.66-6.67v-50.66A6.67 6.67 0 0 0 817 6491z"/><path id="necbb" d="M803.66 6520.33h4v12a1.33 1.33 0 0 0 2.67 0v-12h4c.74 0 1.33-.6 1.33-1.33v-5.33c0-.74-.6-1.34-1.33-1.34h-4v-4a1.33 1.33 0 0 0-2.67 0v4h-4c-.73 0-1.33.6-1.33 1.34v5.33c0 .74.6 1.33 1.33 1.33z"/><path id="necbc" d="M809.12 6536.33a6.67 6.67 0 1 0 0 13.33 6.67 6.67 0 0 0 0-13.33z"/><path id="necbd" d="M777 6549.66a6.67 6.67 0 1 0 0-13.33 6.67 6.67 0 0 0 0 13.33z"/><path id="necbe" d="M771.66 6528.33h4v4a1.33 1.33 0 0 0 2.67 0v-4h4c.74 0 1.33-.6 1.33-1.33v-5.33c0-.74-.6-1.34-1.33-1.34h-4v-12a1.33 1.33 0 0 0-2.67 0v12h-4c-.73 0-1.33.6-1.33 1.34v5.33c0 .74.6 1.33 1.33 1.33z"/><path id="necbf" d="M787.66 6531h4v1.33a1.33 1.33 0 0 0 2.67 0V6531h4c.74 0 1.33-.6 1.33-1.33v-5.34c0-.73-.6-1.33-1.33-1.33h-4v-14.67a1.33 1.33 0 0 0-2.67 0V6523h-4c-.73 0-1.33.6-1.33 1.33v5.34c0 .73.6 1.33 1.33 1.33z"/><path id="necbg" d="M793 6549.66a6.67 6.67 0 1 0 0-13.33 6.67 6.67 0 0 0 0 13.33z"/></defs><g><g transform="translate(-762 -6491)"><g><use xlink:href="#necba"/></g><g><use fill="#1eb0cd" xlink:href="#necbb"/></g><g><use fill="#1eb0cd" xlink:href="#necbc"/></g><g><use fill="#1eb0cd" xlink:href="#necbd"/></g><g><use fill="#1eb0cd" xlink:href="#necbe"/></g><g><use fill="#1eb0cd" xlink:href="#necbf"/></g><g><use fill="#1eb0cd" xlink:href="#necbg"/></g></g></g></svg>