<svg xmlns="http://www.w3.org/2000/svg" xmlns:xlink="http://www.w3.org/1999/xlink" width="62" height="52" viewBox="0 0 62 52"><defs><path id="u7m9a" d="M152.3 6537.24c5.23 0 14.08-1.08 14.08-5.14v-.55c-3.92 2.82-11.27 3.12-14.08 3.12-2.8 0-10.16-.3-14.08-3.12v.55c0 4.06 8.85 5.14 14.08 5.14z"/><path id="u7m9b" d="M138.22 6521.26v.55c0 4.06 8.85 5.14 14.08 5.14s14.08-1.08 14.08-5.14v-.55c-3.92 2.82-11.27 3.12-14.08 3.12-2.8 0-10.16-.3-14.08-3.12z"/><path id="u7m9c" d="M138.22 6516.12v.55c0 4.06 8.85 5.14 14.08 5.14s14.08-1.08 14.08-5.14v-.55c-3.92 2.82-11.27 3.12-14.08 3.12-2.8 0-10.16-.3-14.08-3.12z"/><path id="u7m9d" d="M138.22 6526.4v.55c0 4.06 8.85 5.14 14.08 5.14s14.08-1.08 14.08-5.14v-.55c-3.92 2.82-11.27 3.12-14.08 3.12-2.8 0-10.16-.3-14.08-3.12z"/><path id="u7m9e" d="M152.3 6544.95c-2.8 0-10.16-.3-14.08-3.12v.55c0 3.53 7.3 5.14 14.08 5.14s14.08-1.6 14.08-5.14v-.55c-3.92 2.82-11.27 3.12-14.08 3.12z"/><path id="u7m9f" d="M152.3 6511.53c5.23 0 14.08-1.09 14.08-5.15 0-3.53-7.3-5.14-14.08-5.14s-14.08 1.61-14.08 5.14c0 4.06 8.85 5.15 14.08 5.15z"/><path id="u7m9g" d="M152.3 6542.38c5.23 0 14.08-1.08 14.08-5.14v-.55c-3.92 2.82-11.27 3.12-14.08 3.12-2.8 0-10.16-.3-14.08-3.12v.55c0 4.06 8.85 5.14 14.08 5.14z"/><path id="u7m9h" d="M138.22 6510.97v.55c0 4.06 8.85 5.14 14.08 5.14s14.08-1.08 14.08-5.14v-.55c-3.92 2.82-11.27 3.12-14.08 3.12-2.8 0-10.16-.3-14.08-3.12z"/><path id="u7m9i" d="M171.5 6536.69v.55c0 4.06 8.85 5.14 14.08 5.14s14.08-1.08 14.08-5.14v-.55c-3.92 2.82-11.27 3.12-14.08 3.12-2.8 0-10.16-.3-14.08-3.12z"/><path id="u7m9j" d="M185.58 6547.52c5.23 0 14.08-1.08 14.08-5.14v-.55c-3.92 2.82-11.27 3.12-14.08 3.12-2.8 0-10.16-.3-14.08-3.12v.55c0 4.06 8.85 5.14 14.08 5.14z"/><path id="u7m9k" d="M185.58 6550.1c-2.8 0-10.16-.3-14.08-3.12v.55c0 3.53 7.3 5.14 14.08 5.14s14.08-1.6 14.08-5.14v-.55c-3.92 2.82-11.27 3.12-14.08 3.12z"/><path id="u7m9l" d="M185.58 6537.25c5.23 0 14.08-1.09 14.08-5.15 0-3.53-7.3-5.14-14.08-5.14s-14.08 1.61-14.08 5.14c0 4.06 8.85 5.15 14.08 5.15z"/></defs><g><g transform="translate(-138 -6501)"><g><g><use xlink:href="#u7m9a"/></g><g><use xlink:href="#u7m9b"/></g><g><use xlink:href="#u7m9c"/></g><g><use xlink:href="#u7m9d"/></g><g><use xlink:href="#u7m9e"/></g><g><use xlink:href="#u7m9f"/></g><g><use xlink:href="#u7m9g"/></g><g><use xlink:href="#u7m9h"/></g></g><g><g><use fill="#1eb0cd" xlink:href="#u7m9i"/></g><g><use fill="#1eb0cd" xlink:href="#u7m9j"/></g><g><use fill="#1eb0cd" xlink:href="#u7m9k"/></g><g><use fill="#1eb0cd" xlink:href="#u7m9l"/></g></g></g></g></svg>