<svg xmlns="http://www.w3.org/2000/svg" width="48" height="48" viewBox="0 0 48 48">
    <path fill="#8F9496" fill-rule="evenodd" d="M24.003 0C37.253 0 48 10.747 48 24.003 48 37.253 37.253 48 24.003 48 10.747 48 0 37.253 0 24.003 0 10.747 10.747 0 24.003 0zM10 24c0 3.667.488 5.71.488 5.71.34 2.303 2.558 4.402 4.905 4.698 0 0 3.464.592 8.607.592 5.143 0 8.604-.591 8.604-.591 2.352-.281 4.54-2.4 4.892-4.696 0 0 .504-2.328.504-5.713 0-3.385-.504-5.713-.504-5.713-.334-2.297-2.537-4.423-4.878-4.749 0 0-2.19-.538-8.618-.538-6.429 0-8.615.538-8.615.538-2.346.299-4.535 2.45-4.896 4.746 0 0-.489 2.05-.489 5.716zm11.79 4.912c-.673.403-1.219.098-1.219-.677v-8.47c0-.777.548-1.078 1.219-.677l6.992 4.183c.673.403.67 1.057 0 1.458l-6.992 4.183z"/>
</svg>
