<svg xmlns="http://www.w3.org/2000/svg" width="64" height="64" viewBox="0 0 64 64">
    <g fill="none" fill-rule="evenodd">
        <circle cx="32" cy="32" r="31" stroke="#1F282C" stroke-width="2"/>
        <path fill="#1EB0CD" d="M33.63 20.504c-.198.34.866.618 1.135.824-.321.017-.958-.107-.936.146.053.265.543.231.513.445-.08.567-1.897.473-1.764.977-.015.346.649.1.578.214-.497.794-.83 1.141-1.276 2.397-.007.08-.014.144-.022.19-.05.31-.178 1.015-.276 1.303l-.082-.29-.082.29c-.098-.288-.226-.992-.276-1.303a2.792 2.792 0 0 1-.022-.19c-.446-1.256-.78-1.603-1.276-2.397-.07-.114.593.132.578-.214.133-.504-1.684-.41-1.764-.977-.03-.214.46-.18.513-.445.022-.253-.615-.129-.936-.146.27-.206 1.333-.485 1.135-.824-.178-.151-.922-.047-1.37-.047 2.674-1.087 2.407-1.397 2.654-1.445.088-.018.474-.016.846.005.372-.02.758-.023.846-.005.247.048-.02.358 2.654 1.445-.448 0-1.192-.104-1.37.047zm-7.96 19.215c-.53.11-1.087.167-1.568.418-.522.271-.812.712-.834 1.27-.02.496.186 1.032.014 1.513-.11.306-.332.58-.608.768.43.52 1.047.058 1.54 0 .246.346.06.75.046 1.083.008-.121.1-.055 0 0 .307-.041.589-.178.8-.39.003.08-.032.153-.046.23.185-.115.431-.23.616-.057.061.058.061.231 0 .289-.555.577-1.294.808-2.033 1.097-.739.23-1.429-.233-1.816-.866-.6-.982-.816-.044-.878-.275 0 0-.323-.23-.462-.057l-.308-.347c.339-.476-.215-.447-.215-.563-.022-.02.215-.49-.632-1.053-.222-.148.34-.376-.245-.631 0 0-3.11-5.328-3.019-5.403.38-.312-.022-.486-.022-.486l.053-.279c.708-.061 1.67-1.107 1.57-.967-.307.346-.83.837-1.077 1.184-.123.23-.04.884.077 1.054.155.224 1.144.317 1.185.26.74-.693 2.134-2.382 2.202-2.498.246-.029-1.17 1.386-1.601 2.31-.185.404.185 1.27.323 1.227.2-.063.878.043 1.186-.188.615-.635 1.533-2.41 1.786-2.526.061.072-1.417 2.05-1.155 2.598.159.333.462.866.831.866.431-.058 1.032-.216 1.155-.62.238-.782.357-1.668.607-2.303 0-.008.006-.03.025-.065a.11.11 0 0 1 .003.032c.039.352-.114 1.203-.122 1.805-.006.432.52.533.797.792.122.114 1.07-.324 1.158-.685.147-.606-.05-1.269.043-1.886.118.063.174.125.292.188.637-.374.843-.22.94-.607.517.512.524 1.3.384 1.952-.056.263-.152 1.084.338 1.137-.16.427-.903.59-1.33.68zm14.523-19.411c.424-.218 1.367-.783 1.057-1.689-.122-.355-.988-2.267-.486-2.717.218-.195 1.523-.934 1.715-.9.82.142 1.097 1.392 1.305 1.494.245.12 2.012.164 1.599 1.455-.152.471-1.245 1.33-.574 1.514.652-.164 1.826-.512.764 1.228-.023-.203-.249-.439-.41-.452-.325-.026-1.209.04-1.301-.28-.032.153 1.226 1.879-.436 2.039.6-.795-.537-1.368-.41-2.488.11-.973.972-1.215.448-2.42-.343-.023-1.297-.54-1.507-.658-.32.41-.065 1.09.059 1.445.18.515.392.804.146 1.422-.277.695-1.243.96-1.785 1.055.104.052.195.154.194.355 0 0 2.471.362 1.1 2.427-1.633-.986-2.118-.343-2.327-.219.768-.073 1.928.644 2.341.751.7.181 1.163-.27 1.193-.226-1.342 1.94-2.266.03-3.325-.058.031.117 1.565.809.417 1.429.131-1.004-1.683-1.143-1.799-1.069-.78.5-1.153.106-1.153.106s-.464.56-.626.802c-.377.56-.917 1.598-.82 2.246.119.802.835 1.575 1.893 1.298.015.642-.537.875-1.193.875.478.7 1.67.642 2.193.204.79 1.43-.644 1.604-.687 1.838-.089.495 1.521 1.183 2.476.466 1.416-1.064-.459-2.098-.627-2.843-.193-.86 1.09-2.038 1.999-2.83 1.088-.947 1.043-1.322 1.695-1.151.122.031.825-.727 1.053-1.167.118-.227.597-.895.597-.895.14.017.382-.025.429-.081 3.865-4.585 2.49-4.818 3.46-5.35.485-.266 1.698 1.018.421 3.651-.296.613-1.12 1.532-1.189 1.761.375-.142 2.264-2.573 2.644-2.139 1.264 1.439-1.033 3.617-1.033 3.617.676-.35 1.913-.69 1.988-.059.1.837-.794 1.788-1.491 2.178.71.04 1.928-.233 1.789.37-.129.559-1.26 1.548-1.928 1.827.712.085 2.127-.039 1.829.895-.16.502-1.648 1.03-1.975 1.299-.185.151 1.618.43 1.584.867-.067.85-1.784 1.02-1.743 1.1.087.17.901.711.978 1.08-.693.845-2.304.456-2.304.456.557.311 1.392.973 1.082 1.835-1.102.693-2.136-.348-2.772-.687.434.392 1.117.782 1.253 1.312.08.31-.061.982-.061.982-.138.155-1.012.206-1.132.155-.835-.35-2.082-2.474-2.525-2.683 0 0 1.869 2.363 1.79 2.761-.1.497-.292 1.046-.315.965l-.933.022c-.556.11-1.499-2.513-1.974-2.931-.048.395 1.36 1.93 1.05 2.99-.072.244-.355.541-.632.704-.118-.121-.911.017-1.084-.515-.15-.466-.542-1.885-.88-2.523-.178.642.114 1.436.12 2.056.003.27-.745.54-.94.7 0 0-.751-.403-.805-.598-.104-.379-.137-1.567-.134-2.1l-.343.19c.017-.336-.838-.285-.91-.613-1.073 1.109.224 2.99-.507 3.107 0 0 .18.656 1.835.86 1.64.202 1.67 1.721 1.55 2.173-.328 1.24.718 1.666.642 1.72-.776.555-1.147-.072-1.581-.058-.021.4-.046.722.015 1.109-.322-.1-.328.043-.776-.394.239.598-.391-.027-.462.073-.568.799 2.514 1.716 3.206 1.662 1.23-.095 1.327-.54 1.327-.54-.442-.281-.551-.738-.551-.738-.368-.292-.378-.632-.01-.953 0 0 .239-.829.755-1.342.607-.602 1.501-.563 1.64-1.254 0 0-.41.29-.566.321-.01-.062-.042-.112 0-1.098l.566.379-.208-.671h1.043l-.248.67.566-.378v1.088c-.154-.028-.566-.31-.566-.31-.05.65 1.382.67 1.869 1.535.243.432.351.598.467 1.07.06.246.646.573-.12 1.273 0 0-.148.807-.909 1.196-.287.147-.023.447-.164.51-1.267.57-.99.305-1.148.613-.12.233-.455.046-.97.131-.532.088-.626.365-.864.365-.731 0-1.077-.46-1.8-.912-.629-.394-1.262-.131-1.958-.415-1.998-.817-2.818-.073-3.743-.642-.059-.387.428-.825.403-1.283-1.133.204-1.719-.344-1.537-.717.044-.09 1.194.192 1.225-.54.042-.98-.752-1.386-1.505-1.287-.896.117-1.411.836-1.434 1.669-.026.99 1.253.7 1.462 1.823-.567-.292-.863-.21-1.313-.16.948.362 2.488 1.158 3.326 1.793.444.337 1.222.933 1.46-.365-.004-.172 1.567.394.538 1.809-.094.128.886.208.716 1.473-.075.554-.895.554-.701 1.37.104.073-.686 0-.724-.894-.269.61-.317.906-1.021 1.244-.79.38-1.68-.167-1.68-.167.005.172-.453.66-.83.843-1.183.574-1.85-.1-1.939-.078.039.577-.53.698-1.03 1.08V54a1.401 1.401 0 0 0-.03-.023l-.03.023v-.045c-.4-.289-1.075-.502-1.031-1.083-.558.338-1.19.44-1.788.143-.392-.195-.91-.43-.981-.908-.37.21-1.138.435-1.679.202-.495-.214-.8-.696-.985-1.177-.013-.045-.032-.09-.037-.102 0 .013-.003.065 0 .114-.022.386-.32.795-.74.795 0-.175.06-.35 0-.467-.178-.408-.476-.598-.596-1.064-.119-.525.18-.977.597-1.21l.06-.117c-.239-.35-.374-.632-.299-1.05.194-1.08 1.03-.73 1.03-.73-.079.229-.016.555.163.73.18.175.358 0 .477-.059 1.372-.583 2.446-1.808 3.923-2.129-.444-.05-.907-.049-1.312.16.073-.247.193-.364.312-.539.12-.116.239-.175.298-.291.358-.292.835-.525.895-.992.06-1.05-.954-1.925-2.028-1.633-.656.175-1.312.816-.895 1.516.18.35 1.208.277 1.208.277.12.554-.612.89-1.223.657-.016.188.657.729.657 1.137 0 .408-1 .262-1.238.262-1.253.059-1.939-.055-3.579.7-.393.181-1.014.905-1.431.963 0 0 .164.437 0 .54 0 0 .696.315.198.772.289.059.249.36.083.482 0 .306-.06.636-.6.267-.109-.075-.596-.01-.526-.399 0 0-.686-.126-.368-.777-.02-.282-1.312-.137-1.133-.798 0 0-.756.059-.657-.758.013-.1-.934-.36.18-1.39 0 0-.05-.704-.12-.749-.11-.072-.537-.02-.288-.593.034-.08-.646-.466-.388-1.225 0 0-.517.02-.305-.612.024-.069-2.3-5.686-2.384-5.697-.293-.04-.41-.117-.353-.447-.696-.049-.188-.524-.452-.545-.06.233-.659-.29-.865-.35-1.496-.428-.987-1.654-.98-1.72l.682.218c-.164-.9.217-1.266.313-1.352l.253.04s.239-.292.343-.365c-.4-.113-1.7-.32-1.878-1.079.298-.408.805-.685 1.282-.685.12 0 .567-.103.507-.22-.597-.582-1.864-.51-2.103-1.385-.06-.408.254-.627.612-.685.358-.058.775-.175 1.139-.078-.057-.01-.056.008 0 0-.722-.505-1.676-.914-1.928-1.775-.182-.763 1.606-.427 1.922-.436-.676-.38-1.404-1.096-1.491-1.896-.12-1.11 1.381-.453 1.855-.21-.9-.855-1.738-2.4-1.022-3.624.477-.234 1.493 1.078 1.612 1.194.299.234 1.068.856 1.193.934-.03-.175-1.058-1.196-1.357-1.896-.06-.175-.999-1.983.075-3.34.314-.396.567-.13.745.277.06.117 2.923 4.784 3.102 4.9.835.409 1.074 1.225 1.61 1.925.12.117.24.175.358.175.239 0 .537 0 .716.117.895.933 1.909 1.691 2.744 2.741.298.409.417.992.179 1.459-.239.525-.776.933-.776 1.516-.06.642.418 1.167 1.074 1.284.656.116 1.491.175 1.849-.467-.358-.467-.954-.758-1.014-1.4 0-.292.06-.467.15-.67.602.5 1.73.472 2.192-.205-.542 0-1.212-.247-1.193-.875.929.309 1.91-.496 1.89-1.424-.026-1.112-.732-2.108-1.443-2.922-.403.321-.88-.087-1.298-.145-.119-.059-.358-.059-.476.086-.479.172-1.08.404-.995 1.022-.299-.16-.563-.465-.386-.808.137-.266.453-.378.62-.621-.657.056-1.077.63-1.672.838-.69.24-1.27-.234-1.64-.762a.151.151 0 0 1-.013-.018c.059.01.076.031.073.042.284.16.614.249.942.234.311-.014.609-.188.875-.332.42-.228.862-.497 1.346-.5.099.015.199.022.298.031-.761-.437-1.596-.262-2.312.204-.358-.35-.537-.816-.417-1.341.179-.7.894-.934 1.49-1.167.12-.058.24-.233.359-.35.06 0 .119.058.15.044-.02-.193.111-.37.283-.452-.322-.537-.74-1.25-.517-1.893.214-.62.967-.849 1.575-.849-.116-.335.02-.674.21-.955l-.366.226.007-.78c.133.062.236.168.366.233-.088-.144-.172-.291-.27-.428l.911.005c-.046.151-.16.268-.259.388l.393-.198-.015.78-.387-.233c.016.196.208.326.25.517.028.124.058.36-.065.445.54.058 1.239.155 1.491.7.32.691-.233 1.386-.392 2.042.056-.024.259-.082.28-.14.03-.016.057-.034.084-.052.307-.149.645-.285.983-.45.596-.35 1.371-.642 1.431-1.342.06-.233.06-.466-.12-.7-.536-.7-.894-1.4-.775-2.275.06-.583.478-1.05 1.014-1.283.418-.175.895-.291 1.313.059.179.116.119-.175.238-.234-.33-.322-.306-.873.165-1.05l-.395.008c.1-.16.22-.306.335-.455l-.457.214v-.933l.502.262-.194-.478c.104-.018.515 0 .515 0h.394l-.194.478.502-.262v.933l-.457-.214s.307.4.335.455l-.395-.008c.679.248.318.972.18.972-.01.331.372.479.355.077-.005-.115 4.006.25 1.294 3.91 0 0-.02.741.04.797.558.517 1.792 1.295 2.744 1.71.026-.494-1.638-2.471 1.088-2.74.074-.008-.273-.307.032-.56l.165-.403-.388.233-.015-.78.393.198s-.261-.33-.259-.388l.912-.005c-.003-.009-.27.428-.27.428.002.017.362-.252.365-.233l.007.78-.365-.226s.173.343.216.4c.109.147.09.36-.029.532-.03.045 2.773-.072 1.08 2.765.329.16.284.452.284.452s.05-.007.118-.001zM23 20.406s-1.77-.123-2.162-1.105c-.246-.618-.033-.907.146-1.422.124-.356.379-1.035.059-1.445-.21.118-1.164.635-1.507.659-.525 1.204.337 1.446.448 2.419.127 1.12-1.01 1.693-.41 2.488-1.662-.16-.404-1.886-.436-2.039-.092.32-.976.254-1.3.28-.162.013-.388.25-.41.452-1.063-1.74.111-1.392.763-1.228.671-.185-.422-1.043-.574-1.514-.413-1.291 1.354-1.335 1.6-1.455.207-.102.484-1.352 1.304-1.495.192-.033 1.497.706 1.715.901.502.45-.364 2.362-.486 2.717-.387 1.132 1.182 1.732 1.25 1.787z"/>
    </g>
</svg>
