<svg width="149" height="113" viewBox="0 0 149 113" fill="none" xmlns="http://www.w3.org/2000/svg">
<mask id="mask0" mask-type="alpha" maskUnits="userSpaceOnUse" x="0" y="0" width="149" height="113">
<rect width="149" height="113" fill="#C4C4C4"/>
</mask>
<g mask="url(#mask0)">
<path d="M68.1364 170.996C66.526 170.03 65.9989 167.922 66.9652 166.282L132.905 56.6361C133.871 55.0258 135.979 54.4988 137.619 55.465C139.229 56.4312 139.756 58.5392 138.79 60.1787L72.8505 169.854C71.855 171.465 69.7468 171.992 68.1364 170.996Z" fill="#E38874"/>
<path d="M117.503 88.8998C115.893 87.9336 115.366 85.8256 116.332 84.186L132.904 56.6354C133.871 55.0251 135.979 54.4981 137.619 55.4642C139.229 56.4304 139.756 58.5384 138.79 60.178L122.217 87.7287C121.251 89.3682 119.143 89.8952 117.503 88.8998Z" fill="#BF7172"/>
<path d="M129.01 71.1279L127.81 70.3959C126.521 69.6054 126.111 67.9366 126.873 66.6483L133.051 56.3717C133.929 54.9078 135.862 54.4101 137.326 55.3177L137.853 55.6398C139.317 56.5181 139.815 58.4505 138.907 59.9144L132.729 70.191C131.997 71.5085 130.298 71.9184 129.01 71.1279Z" fill="#744A6A"/>
<path d="M129.772 68.5223C127.576 67.2048 126.873 64.3648 128.19 62.169L131.265 57.0746C132.582 54.8787 135.423 54.1761 137.619 55.4936C139.815 56.8111 140.517 59.6511 139.2 61.8469L136.125 66.9413C134.808 69.1371 131.968 69.8398 129.772 68.5223Z" fill="#9D5D6F"/>
<path d="M126.521 79.0923L121.954 76.3399C121.017 75.7836 120.724 74.5831 121.28 73.6461C121.837 72.7092 123.037 72.4164 123.974 72.9727L128.542 75.725C129.479 76.2814 129.772 77.4819 129.215 78.4188C128.659 79.3558 127.458 79.6486 126.521 79.0923Z" fill="#9D5D6F"/>
<path d="M-23.8038 79.0629C-22.8376 80.6731 -20.7294 81.2001 -19.0897 80.234L90.5359 14.2998C92.1464 13.3336 92.6734 11.2256 91.7071 9.58605C90.7409 7.97576 88.6327 7.44875 86.993 8.41493L-22.6326 74.3784C-24.2723 75.3445 -24.7994 77.4526 -23.8038 79.0629Z" fill="#92586E"/>
<path d="M76.0713 18.1932L76.8033 19.3936C77.5939 20.6818 79.2629 21.0917 80.5512 20.3305L90.8286 14.1528C92.2927 13.2745 92.7904 11.3421 91.8827 9.87823L91.5606 9.35123C90.6822 7.88732 88.7497 7.3896 87.2857 8.29722L77.0083 14.4456C75.72 15.2361 75.2808 16.905 76.0713 18.1932Z" fill="#744A6A"/>
<path d="M78.6774 17.4316C79.995 19.6275 82.8352 20.3301 85.0312 19.0126L90.126 15.9384C92.3221 14.6209 93.0248 11.7809 91.7072 9.58509C90.3895 7.38923 87.5494 6.68656 85.3533 8.00407L80.2585 11.0783C78.0625 12.3958 77.3598 15.2358 78.6774 17.4316Z" fill="#9D5D6F"/>
<path d="M68.1071 20.6816L70.8595 25.249C71.4158 26.1859 72.6163 26.4787 73.5533 25.9224C74.4902 25.3661 74.7831 24.1657 74.2267 23.2288L71.4744 18.6614C70.918 17.7245 69.7176 17.4318 68.7806 17.988C67.8729 18.5443 67.5508 19.7447 68.1071 20.6816Z" fill="#744A6A"/>
<path d="M136.57 55.0265C143.542 37.4735 134.963 17.593 117.408 10.622C99.8541 3.65108 79.972 12.2295 73.0005 29.7825C66.029 47.3354 74.6081 67.216 92.1624 74.187C109.717 81.1579 129.599 72.5795 136.57 55.0265Z" fill="#FED892"/>
<path d="M130.299 40.21C129.274 41.8203 128.103 43.3428 126.785 44.7774C115.336 57.1327 95.8944 58.1282 83.216 47.0318C81.752 45.7436 80.4051 44.3382 79.2338 42.845C76.2765 39.0975 70.3033 41.6154 70.8597 46.3291C71.7673 54.322 75.4859 61.9929 81.9276 67.7899C96.0115 80.4966 117.533 79.3841 130.211 65.272C136.008 58.8309 138.907 50.8087 138.995 42.7572C139.054 38.0434 132.846 36.1697 130.299 40.21Z" fill="#F19A6E"/>
<path d="M85.5876 23.1996C96.1871 12.6009 113.433 12.6009 124.033 23.1996C125.643 24.8099 127.019 26.5958 128.161 28.4989C129.098 30.0799 131.089 30.6948 132.729 29.875C132.758 29.875 132.788 29.8457 132.817 29.8457C134.574 28.9088 135.218 26.6837 134.193 24.927C132.495 22.0577 130.299 19.3642 127.664 16.9926C114.809 5.39854 95.0452 5.3107 82.1033 16.8463C80.9321 17.9003 79.8194 19.0128 78.8239 20.184C77.5063 21.7357 77.7991 24.0779 79.4388 25.2783C79.4681 25.2783 79.4681 25.3076 79.4973 25.3076C80.9614 26.3616 82.9817 26.1274 84.1529 24.7513C84.5921 24.2243 85.0606 23.6973 85.5876 23.1996Z" fill="#FCF0D2"/>
<path opacity="0.8" d="M78.1797 28.2061C78.1505 28.1768 78.0919 28.1475 78.0626 28.1183C76.2472 26.9764 73.817 27.7669 73.0264 29.7578C72.675 30.6655 72.353 31.5731 72.0601 32.51C71.5331 34.2959 72.5579 36.199 74.344 36.7553C74.4026 36.7553 74.4319 36.7846 74.4904 36.7846C76.3351 37.3409 78.2676 36.3161 78.8239 34.4716C79.0289 33.7689 79.2631 33.0955 79.5266 32.4221C80.1415 30.8704 79.5852 29.0844 78.1797 28.2061Z" fill="#FCF0D2"/>
<path d="M126.375 62.7548C125.116 62.0228 123.535 62.1692 122.422 63.1061C113.462 70.7184 100.198 71.9188 89.8917 65.1556C89.2183 64.7164 88.5741 64.248 87.9592 63.7503C86.3488 62.462 83.9771 62.8426 82.8644 64.57C82.8644 64.5993 82.8352 64.5993 82.8352 64.6286C81.8689 66.1511 82.2203 68.1127 83.5964 69.2252C84.387 69.8401 85.2069 70.4256 86.056 70.9819C99.0565 79.5018 115.717 78.0379 126.99 68.4347C128.805 66.883 128.542 63.9845 126.463 62.7841C126.434 62.7841 126.404 62.7548 126.375 62.7548Z" fill="#D47776"/>
<path d="M130.943 49.7845C130.679 50.6921 130.386 51.629 130.006 52.5074C129.303 54.2933 130.182 56.2842 131.968 56.9869C131.997 57.0162 132.055 57.0162 132.085 57.0455C133.842 57.7188 135.833 56.8698 136.535 55.1131C137.004 53.9713 137.384 52.8001 137.707 51.629C138.263 49.6381 137.004 47.6179 134.954 47.2666C134.925 47.2666 134.866 47.2666 134.837 47.2373C133.08 47.0031 131.441 48.0864 130.943 49.7845Z" fill="#D47776"/>
<path opacity="0.5" d="M119.816 31.7198C119.875 31.6613 119.963 31.6027 120.021 31.5442C123.916 28.0893 123.33 21.8531 118.879 19.1595C112.438 15.2656 104.649 14.2408 97.4754 16.261C92.7613 17.5785 90.5067 22.9071 92.732 27.2696C92.7613 27.3281 92.7906 27.3574 92.8199 27.4159C94.4889 30.6951 98.2367 32.4225 101.78 31.4563C104.766 30.6365 108.046 31.0757 110.71 32.686C113.58 34.4134 117.298 33.9742 119.816 31.7198Z" fill="#FCF0D2"/>
<path d="M82.5132 13.8601C83.0988 13.2745 84.0651 13.2745 84.6799 13.8601L133.373 62.5495C133.959 63.135 133.959 64.1012 133.373 64.716C132.788 65.3016 131.821 65.3016 131.206 64.716L82.5132 16.0266C81.8983 15.4118 81.8983 14.4456 82.5132 13.8601Z" fill="#E18574"/>
<path d="M76.2472 20.1255C76.8328 19.5399 77.7991 19.5399 78.414 20.1255L127.078 68.8148C127.663 69.4004 127.663 70.3666 127.078 70.9814C126.492 71.567 125.526 71.567 124.911 70.9814L76.2472 22.292C75.6323 21.6772 75.6323 20.711 76.2472 20.1255Z" fill="#E18574"/>
<path d="M82.5132 13.8601C83.0988 13.2745 84.0651 13.2745 84.6799 13.8601L96.7142 25.8933C97.2998 26.4789 97.2998 27.4451 96.7142 28.0599C96.1286 28.6455 95.1623 28.6455 94.5474 28.0599L82.5132 16.0266C81.8983 15.4118 81.8983 14.4456 82.5132 13.8601Z" fill="#FEBC74"/>
<path d="M76.2472 20.1255C76.8328 19.5399 77.7991 19.5399 78.414 20.1255L87.9301 29.6408C88.5157 30.2264 88.5157 31.1926 87.9301 31.8074C87.3445 32.393 86.3782 32.393 85.7633 31.8074L76.2472 22.292C75.6323 21.6772 75.6323 20.711 76.2472 20.1255Z" fill="#FEBC74"/>
<path d="M118.059 42.2306C117.415 42.8747 116.332 42.8747 115.688 42.2306C115.044 41.5864 115.044 40.503 115.688 39.8589C116.332 39.2147 117.415 39.2147 118.059 39.8589C118.704 40.503 118.704 41.5864 118.059 42.2306Z" fill="#FCA86A"/>
<path d="M123.154 47.3243C122.51 47.9685 121.427 47.9685 120.782 47.3243C120.138 46.6801 120.138 45.5968 120.782 44.9526C121.427 44.3084 122.51 44.3084 123.154 44.9526C123.828 45.6261 123.828 46.6801 123.154 47.3243Z" fill="#FCA86A"/>
<path d="M128.278 52.4486C127.634 53.0927 126.551 53.0927 125.907 52.4486C125.262 51.8044 125.262 50.721 125.907 50.0769C126.551 49.4327 127.634 49.4327 128.278 50.0769C128.922 50.721 128.922 51.7751 128.278 52.4486Z" fill="#E18574"/>
<path d="M104.971 29.143C104.327 29.7872 104.327 30.8706 104.971 31.5147C105.615 32.1589 106.699 32.1589 107.343 31.5147C107.987 30.8706 107.987 29.7872 107.343 29.143C106.699 28.4989 105.645 28.4989 104.971 29.143Z" fill="#FCA86A"/>
<path d="M99.8765 24.0485C99.2323 24.6927 99.2323 25.7761 99.8765 26.4203C100.521 27.0644 101.604 27.0644 102.248 26.4203C102.892 25.7761 102.892 24.6927 102.248 24.0485C101.604 23.3751 100.521 23.3751 99.8765 24.0485Z" fill="#FCA86A"/>
<path d="M94.7524 18.9255C94.1082 19.5697 94.1082 20.6531 94.7524 21.2972C95.3966 21.9414 96.4799 21.9414 97.1241 21.2972C97.7683 20.6531 97.7683 19.5697 97.1241 18.9255C96.4799 18.2813 95.4258 18.2813 94.7524 18.9255Z" fill="#FEBC74"/>
<path d="M89.6575 13.8305C89.0133 14.4747 89.0133 15.5581 89.6575 16.2022C90.3016 16.8464 91.385 16.8464 92.0292 16.2022C92.6733 15.5581 92.6733 14.4747 92.0292 13.8305C91.385 13.1864 90.3016 13.1864 89.6575 13.8305Z" fill="#FEBC74"/>
<path d="M104.62 55.669C105.264 55.0249 105.264 53.9415 104.62 53.2973C103.976 52.6532 102.892 52.6532 102.248 53.2973C101.604 53.9415 101.604 55.0249 102.248 55.669C102.892 56.3425 103.946 56.3425 104.62 55.669Z" fill="#FCA86A"/>
<path d="M109.715 60.7928C110.359 60.1486 110.359 59.0653 109.715 58.4211C109.07 57.7769 107.987 57.7769 107.343 58.4211C106.699 59.0653 106.699 60.1486 107.343 60.7928C107.987 61.437 109.07 61.437 109.715 60.7928Z" fill="#E18574"/>
<path d="M114.839 65.8871C115.483 65.2429 115.483 64.1595 114.839 63.5154C114.194 62.8712 113.111 62.8712 112.467 63.5154C111.823 64.1595 111.823 65.2429 112.467 65.8871C113.111 66.5312 114.165 66.5312 114.839 65.8871Z" fill="#E18574"/>
<path d="M91.5314 42.5818C92.1755 41.9376 93.2589 41.9376 93.9031 42.5818C94.5472 43.2259 94.5472 44.3093 93.9031 44.9535C93.2589 45.5976 92.1755 45.5976 91.5314 44.9535C90.8872 44.3093 90.8872 43.2552 91.5314 42.5818Z" fill="#FCA86A"/>
<path d="M86.4367 37.4875C87.0809 36.8434 88.1642 36.8434 88.8084 37.4875C89.4525 38.1317 89.4525 39.2151 88.8084 39.8592C88.1642 40.5034 87.0809 40.5034 86.4367 39.8592C85.7632 39.2151 85.7632 38.161 86.4367 37.4875Z" fill="#FCA86A"/>
<path d="M81.3126 32.393C81.9568 31.7489 83.0402 31.7489 83.6843 32.393C84.3285 33.0372 84.3285 34.1206 83.6843 34.7647C83.0402 35.4089 81.9568 35.4089 81.3126 34.7647C80.6685 34.0913 80.6685 33.0372 81.3126 32.393Z" fill="#FCA86A"/>
<path d="M76.2178 27.2695C76.862 26.6253 77.9454 26.6253 78.5895 27.2695C79.2337 27.9137 79.2337 28.997 78.5895 29.6412C77.9454 30.2854 76.862 30.2854 76.2178 29.6412C75.5444 28.997 75.5444 27.9429 76.2178 27.2695Z" fill="#FEBC74"/>
<path d="M-0.145284 147.368C-1.49218 146.021 -1.49218 143.855 -0.145284 142.537L109.978 32.3931C111.325 31.0464 113.492 31.0464 114.809 32.3931C116.156 33.7399 116.156 35.9065 114.809 37.224L4.68597 147.368C3.33908 148.686 1.17233 148.686 -0.145284 147.368Z" fill="#BF7172"/>
<path opacity="0.8" d="M31.1553 116.04C29.8084 114.694 29.8084 112.527 31.1553 111.209L59.3816 82.9854C60.7285 81.6386 62.8952 81.6386 64.2128 82.9854C65.5597 84.3322 65.5597 86.4988 64.2128 87.8163L35.9866 116.04C34.669 117.387 32.5022 117.387 31.1553 116.04Z" fill="#E18574"/>
<path d="M102.717 45.4803L101.721 44.4849C100.667 43.4309 100.667 41.7035 101.721 40.6202L110.212 32.1588C111.442 30.9292 113.404 30.9292 114.604 32.1588L115.044 32.598C116.273 33.8277 116.273 35.7893 115.044 36.9897L106.552 45.4511C105.498 46.5636 103.771 46.5636 102.717 45.4803Z" fill="#9D5D6F"/>
<path d="M104.063 43.1377C102.248 41.3225 102.248 38.424 104.063 36.6087L108.28 32.3927C110.095 30.5774 113.023 30.5774 114.809 32.3927C116.625 34.2079 116.625 37.1357 114.809 38.9217L110.593 43.1377C108.807 44.953 105.879 44.953 104.063 43.1377Z" fill="#E89A7C"/>
<path d="M98.3538 52.5948L94.6059 48.8472C93.8447 48.086 93.8447 46.827 94.6059 46.0658C95.3672 45.3046 96.6263 45.3046 97.3876 46.0658L101.135 49.8134C101.897 50.5746 101.897 51.8336 101.135 52.5948C100.374 53.356 99.1444 53.356 98.3538 52.5948Z" fill="#9D5D6F"/>
</g>
</svg>
