<svg width="461" height="96" viewBox="0 0 461 96" fill="none" xmlns="http://www.w3.org/2000/svg">
<mask id="mask0" mask-type="alpha" maskUnits="userSpaceOnUse" x="0" y="0" width="461" height="96">
<rect width="461" height="96" fill="#C4C4C4"/>
</mask>
<g mask="url(#mask0)">
<path opacity="0.1" d="M40.302 65.0711C59.7095 95.7233 100.345 104.827 131.057 85.4314C133.697 83.7558 136.176 81.9204 138.518 79.9621C139.707 84.5953 142.728 89.2289 147.842 93.8488C175.377 118.582 266.341 118.347 350.968 93.3281C386.037 82.9387 414.505 69.9564 433.871 56.5012C418.222 63.5709 400.132 70.2977 380.008 76.2456C295.344 101.29 207.523 103.385 183.851 80.941C147.336 46.3412 256.988 8.18886 302.76 -3.50792C261.156 2.95143 194.03 22.1264 159.677 45.8646C161.011 40.6581 161.663 35.3198 161.683 29.9238C189.671 17.4273 222.082 5.49586 257.671 -4.92166L263.16 -6.52919C234.855 -2.16149 205.064 4.39405 175.162 13.178C170.217 14.6335 165.334 16.1009 160.564 17.6543C159.084 9.71861 156.07 1.90436 151.499 -5.34283C132.092 -35.995 91.456 -45.0984 60.7694 -25.6661C30.0458 -6.20886 20.8944 34.4189 40.302 65.0711ZM55.0355 37.7357C69.5225 60.6232 99.869 67.4176 122.782 52.9121C132.098 46.9975 138.762 38.5137 142.425 28.9356C142.713 45.4803 134.593 61.7828 119.564 71.2865C96.6509 85.792 66.3044 78.9976 51.8174 56.1101C43.2124 42.4909 42.1462 26.3102 47.4683 12.3279C47.5656 21.0894 50.04 29.8601 55.0355 37.7357ZM109.939 113.687C89.6402 119.376 67.7753 114.927 51.3733 101.891C45.1722 113.615 44.9228 124.655 51.6484 134.215C77.5532 171.137 197.583 172.049 319.666 136.266C363.402 123.469 401.45 107.677 431.149 91.0105C416.147 96.4053 400.327 101.545 383.862 106.368C253.706 144.481 131.311 148.126 110.427 114.488L109.939 113.687ZM315.546 4.97275C297.528 6.69915 277.702 10.4546 258.183 16.2625C205.82 31.7645 175.567 55.7483 190.625 69.9071C204.116 82.5415 249.396 82.9638 296.323 71.7793C259.36 77.8495 226.495 74.5863 216.871 62.5702C205.028 47.7469 233.271 25.1748 279.94 12.1727C291.869 8.85235 303.842 6.47234 315.311 5.0238L315.546 4.97275Z" fill="#F2C400"/>
</g>
</svg>
