<svg width="1147" height="692" viewBox="0 0 1147 692" fill="none" xmlns="http://www.w3.org/2000/svg">
<path d="M590.403 633.516C601.635 633.516 610.731 642.625 610.731 653.844C610.731 665.076 601.622 674.172 590.403 674.172C579.171 674.172 570.076 665.063 570.076 653.844C570.076 642.612 579.184 633.516 590.403 633.516ZM978.226 46.0684C978.226 51.2978 982.472 55.5442 987.702 55.5442C992.931 55.5442 997.177 51.2978 997.177 46.0684C997.177 40.839 992.931 36.5926 987.702 36.5926C982.472 36.5926 978.226 40.839 978.226 46.0684ZM36.067 204.601C36.067 209.831 40.3134 214.077 45.5427 214.077C50.7721 214.077 55.0185 209.831 55.0185 204.601C55.0185 199.372 50.7721 195.126 45.5427 195.126C40.3003 195.139 36.067 199.372 36.067 204.601ZM954.753 46.4878C950.559 -91.0622 700.167 110.839 842.473 210.276C871.687 230.696 901.844 254.34 911.844 288.547C921.922 322.99 908.41 363.056 879.524 384.367C850.638 405.677 808.371 406.752 778.437 386.962C749.066 367.538 744.072 326.699 728.777 297.328C693.181 228.966 588.634 269.884 538.49 294.93C494.768 316.778 455.056 335.087 405.79 339.95C368.241 343.659 322.213 344.93 287.849 326.555C248.334 305.415 222.606 264.562 183.969 241.862C141.165 216.712 82.8165 209.687 41.3226 241.862C-2.30768 275.69 -10.3286 338.508 12.2663 382.702C32.1745 421.641 105.7 368.311 146.237 384.707C190.627 402.663 207.456 492.572 254.507 483.659C295.044 475.979 330.076 451.51 363.877 427.853C397.678 404.196 433.143 380.146 473.877 373.567C514.611 366.988 551.085 390.238 578.45 421.103C598.529 443.751 599.381 476.346 592.12 503.24C550.508 657.317 729.092 667.566 859.917 582.808C954.072 521.812 1035.85 526.923 1009.31 601.353C962.394 732.979 1152 682.481 1152 682.481V11.9791C1095.43 101.259 961.699 273.894 954.753 46.4878Z" fill="#303141"/>
</svg>
