<svg width="480" height="96" viewBox="0 0 480 96" fill="none" xmlns="http://www.w3.org/2000/svg">
<mask id="mask0" mask-type="alpha" maskUnits="userSpaceOnUse" x="0" y="0" width="480" height="96">
<rect width="480" height="96" fill="#CABCAA"/>
</mask>
<g mask="url(#mask0)">
<g opacity="0.25">
<path d="M61 26.7173L46.0585 11.7733L55.8692 1.96015L21 -8L30.9626 26.8667L40.7734 17.056L55.7198 32L61 26.7173Z" fill="#1F282C"/>
<path d="M421 78.7173L406.059 63.7733L415.869 53.9601L381 44L390.963 78.8667L400.773 69.056L415.72 84L421 78.7173Z" fill="#1F282C"/>
<path d="M496 90.7173L481.059 75.7733L490.869 65.9601L456 56L465.963 90.8667L475.773 81.056L490.72 96L496 90.7173Z" fill="#1F282C"/>
<path d="M149 82.7173L134.059 67.7733L143.869 57.9601L109 48L118.963 82.8667L128.773 73.056L143.72 88L149 82.7173Z" fill="#1F282C"/>
<path d="M163 32.8304L154.035 23.864L159.922 17.9761L139 12L144.978 32.92L150.864 27.0336L159.832 36L163 32.8304Z" fill="#1F282C"/>
<path d="M17 56.8304L8.03512 47.864L13.9215 41.9761L-7 36L-1.02242 56.92L4.86401 51.0336L13.8319 60L17 56.8304Z" fill="#1F282C"/>
<path d="M58 79.8304L49.0351 70.864L54.9215 64.9761L34 59L39.9776 79.92L45.864 74.0336L54.8319 83L58 79.8304Z" fill="#1F282C"/>
<path d="M462 38.8304L453.035 29.864L458.922 23.9761L438 18L443.978 38.92L449.864 33.0336L458.832 42L462 38.8304Z" fill="#1F282C"/>
<path d="M346 61.8869L340.023 55.9093L343.948 51.9841L330 48L333.985 61.9467L337.909 58.0224L343.888 64L346 61.8869Z" fill="#1F282C"/>
<path d="M98 33.8869L92.0234 27.9093L95.9477 23.9841L82 20L85.9851 33.9467L89.9093 30.0224L95.8879 36L98 33.8869Z" fill="#1F282C"/>
<path d="M287 84.8869L281.023 78.9093L284.948 74.9841L271 71L274.985 84.9467L278.909 81.0224L284.888 87L287 84.8869Z" fill="#1F282C"/>
<path d="M409 21.8869L403.023 15.9093L406.948 11.9841L393 8L396.985 21.9467L400.909 18.0224L406.888 24L409 21.8869Z" fill="#1F282C"/>
</g>
</g>
</svg>
