<svg width="480" height="96" viewBox="0 0 480 96" fill="none" xmlns="http://www.w3.org/2000/svg">
<mask id="mask0" mask-type="alpha" maskUnits="userSpaceOnUse" x="0" y="0" width="480" height="96">
<rect width="480" height="96" fill="#F2C400"/>
</mask>
<g mask="url(#mask0)">
<g opacity="0.25">
<path d="M67.5556 -5H36.4444C33.9933 -5 32 -3.00667 32 -0.555555V30.5556C32 33.0067 33.9933 35 36.4444 35H67.5556C70.0089 35 72 33.0067 72 30.5556V-0.555555C72 -3.00667 70.0089 -5 67.5556 -5ZM45.3333 3.88889C47.7867 3.88889 49.7778 5.88 49.7778 8.33333C49.7778 10.7867 47.7867 12.7778 45.3333 12.7778C42.88 12.7778 40.8889 10.7867 40.8889 8.33333C40.8889 5.88 42.88 3.88889 45.3333 3.88889ZM41.54 22.3178L59.3178 4.54L62.46 7.68L44.6822 25.4578L41.54 22.3178ZM58.6667 26.1111C56.2133 26.1111 54.2222 24.12 54.2222 21.6667C54.2222 19.2089 56.2133 17.2222 58.6667 17.2222C61.12 17.2222 63.1111 19.2089 63.1111 21.6667C63.1111 24.12 61.12 26.1111 58.6667 26.1111Z" fill="#1F282C"/>
<path d="M437.556 64H406.444C403.993 64 402 65.9933 402 68.4444V99.5556C402 102.007 403.993 104 406.444 104H437.556C440.009 104 442 102.007 442 99.5556V68.4444C442 65.9933 440.009 64 437.556 64ZM415.333 72.8889C417.787 72.8889 419.778 74.88 419.778 77.3333C419.778 79.7867 417.787 81.7778 415.333 81.7778C412.88 81.7778 410.889 79.7867 410.889 77.3333C410.889 74.88 412.88 72.8889 415.333 72.8889ZM411.54 91.3178L429.318 73.54L432.46 76.68L414.682 94.4578L411.54 91.3178ZM428.667 95.1111C426.213 95.1111 424.222 93.12 424.222 90.6667C424.222 88.2089 426.213 86.2222 428.667 86.2222C431.12 86.2222 433.111 88.2089 433.111 90.6667C433.111 93.12 431.12 95.1111 428.667 95.1111Z" fill="#1F282C"/>
<path d="M350.556 -8H319.444C316.993 -8 315 -6.00667 315 -3.55556V27.5556C315 30.0067 316.993 32 319.444 32H350.556C353.009 32 355 30.0067 355 27.5556V-3.55556C355 -6.00667 353.009 -8 350.556 -8ZM328.333 0.888889C330.787 0.888889 332.778 2.88 332.778 5.33333C332.778 7.78667 330.787 9.77778 328.333 9.77778C325.88 9.77778 323.889 7.78667 323.889 5.33333C323.889 2.88 325.88 0.888889 328.333 0.888889ZM324.54 19.3178L342.318 1.54L345.46 4.68L327.682 22.4578L324.54 19.3178ZM341.667 23.1111C339.213 23.1111 337.222 21.12 337.222 18.6667C337.222 16.2089 339.213 14.2222 341.667 14.2222C344.12 14.2222 346.111 16.2089 346.111 18.6667C346.111 21.12 344.12 23.1111 341.667 23.1111Z" fill="#1F282C"/>
<path d="M24.5556 64H-6.55556C-9.00667 64 -11 65.9933 -11 68.4444V99.5556C-11 102.007 -9.00667 104 -6.55556 104H24.5556C27.0089 104 29 102.007 29 99.5556V68.4444C29 65.9933 27.0089 64 24.5556 64ZM2.33333 72.8889C4.78667 72.8889 6.77778 74.88 6.77778 77.3333C6.77778 79.7867 4.78667 81.7778 2.33333 81.7778C-0.12 81.7778 -2.11111 79.7867 -2.11111 77.3333C-2.11111 74.88 -0.12 72.8889 2.33333 72.8889ZM-1.46 91.3178L16.3178 73.54L19.46 76.68L1.68222 94.4578L-1.46 91.3178ZM15.6667 95.1111C13.2133 95.1111 11.2222 93.12 11.2222 90.6667C11.2222 88.2089 13.2133 86.2222 15.6667 86.2222C18.12 86.2222 20.1111 88.2089 20.1111 90.6667C20.1111 93.12 18.12 95.1111 15.6667 95.1111Z" fill="#1F282C"/>
<path d="M90.3333 54H71.6667C70.196 54 69 55.196 69 56.6667V75.3333C69 76.804 70.196 78 71.6667 78H90.3333C91.8053 78 93 76.804 93 75.3333V56.6667C93 55.196 91.8053 54 90.3333 54ZM77 59.3333C78.472 59.3333 79.6667 60.528 79.6667 62C79.6667 63.472 78.472 64.6667 77 64.6667C75.528 64.6667 74.3333 63.472 74.3333 62C74.3333 60.528 75.528 59.3333 77 59.3333ZM74.724 70.3907L85.3907 59.724L87.276 61.608L76.6093 72.2747L74.724 70.3907ZM85 72.6667C83.528 72.6667 82.3333 71.472 82.3333 70C82.3333 68.5253 83.528 67.3333 85 67.3333C86.472 67.3333 87.6667 68.5253 87.6667 70C87.6667 71.472 86.472 72.6667 85 72.6667Z" fill="#1F282C"/>
<path d="M447.333 20H428.667C427.196 20 426 21.196 426 22.6667V41.3333C426 42.804 427.196 44 428.667 44H447.333C448.805 44 450 42.804 450 41.3333V22.6667C450 21.196 448.805 20 447.333 20ZM434 25.3333C435.472 25.3333 436.667 26.528 436.667 28C436.667 29.472 435.472 30.6667 434 30.6667C432.528 30.6667 431.333 29.472 431.333 28C431.333 26.528 432.528 25.3333 434 25.3333ZM431.724 36.3907L442.391 25.724L444.276 27.608L433.609 38.2747L431.724 36.3907ZM442 38.6667C440.528 38.6667 439.333 37.472 439.333 36C439.333 34.5253 440.528 33.3333 442 33.3333C443.472 33.3333 444.667 34.5253 444.667 36C444.667 37.472 443.472 38.6667 442 38.6667Z" fill="#1F282C"/>
<path d="M400.222 12H387.778C386.797 12 386 12.7973 386 13.7778V26.2222C386 27.2027 386.797 28 387.778 28H400.222C401.204 28 402 27.2027 402 26.2222V13.7778C402 12.7973 401.204 12 400.222 12ZM391.333 15.5556C392.315 15.5556 393.111 16.352 393.111 17.3333C393.111 18.3147 392.315 19.1111 391.333 19.1111C390.352 19.1111 389.556 18.3147 389.556 17.3333C389.556 16.352 390.352 15.5556 391.333 15.5556ZM389.816 22.9271L396.927 15.816L398.184 17.072L391.073 24.1831L389.816 22.9271ZM396.667 24.4444C395.685 24.4444 394.889 23.648 394.889 22.6667C394.889 21.6836 395.685 20.8889 396.667 20.8889C397.648 20.8889 398.444 21.6836 398.444 22.6667C398.444 23.648 397.648 24.4444 396.667 24.4444Z" fill="#1F282C"/>
<path d="M479.222 58H466.778C465.797 58 465 58.7973 465 59.7778V72.2222C465 73.2027 465.797 74 466.778 74H479.222C480.204 74 481 73.2027 481 72.2222V59.7778C481 58.7973 480.204 58 479.222 58ZM470.333 61.5556C471.315 61.5556 472.111 62.352 472.111 63.3333C472.111 64.3147 471.315 65.1111 470.333 65.1111C469.352 65.1111 468.556 64.3147 468.556 63.3333C468.556 62.352 469.352 61.5556 470.333 61.5556ZM468.816 68.9271L475.927 61.816L477.184 63.072L470.073 70.1831L468.816 68.9271ZM475.667 70.4444C474.685 70.4444 473.889 69.648 473.889 68.6667C473.889 67.6836 474.685 66.8889 475.667 66.8889C476.648 66.8889 477.444 67.6836 477.444 68.6667C477.444 69.648 476.648 70.4444 475.667 70.4444Z" fill="#1F282C"/>
<path d="M9.22222 28H-3.22222C-4.20267 28 -5 28.7973 -5 29.7778V42.2222C-5 43.2027 -4.20267 44 -3.22222 44H9.22222C10.2036 44 11 43.2027 11 42.2222V29.7778C11 28.7973 10.2036 28 9.22222 28ZM0.333333 31.5556C1.31467 31.5556 2.11111 32.352 2.11111 33.3333C2.11111 34.3147 1.31467 35.1111 0.333333 35.1111C-0.648 35.1111 -1.44444 34.3147 -1.44444 33.3333C-1.44444 32.352 -0.648 31.5556 0.333333 31.5556ZM-1.184 38.9271L5.92711 31.816L7.184 33.072L0.0728889 40.1831L-1.184 38.9271ZM5.66667 40.4444C4.68533 40.4444 3.88889 39.648 3.88889 38.6667C3.88889 37.6836 4.68533 36.8889 5.66667 36.8889C6.648 36.8889 7.44444 37.6836 7.44444 38.6667C7.44444 39.648 6.648 40.4444 5.66667 40.4444Z" fill="#1F282C"/>
<path d="M108.222 24H95.7778C94.7973 24 94 24.7973 94 25.7778V38.2222C94 39.2027 94.7973 40 95.7778 40H108.222C109.204 40 110 39.2027 110 38.2222V25.7778C110 24.7973 109.204 24 108.222 24ZM99.3333 27.5556C100.315 27.5556 101.111 28.352 101.111 29.3333C101.111 30.3147 100.315 31.1111 99.3333 31.1111C98.352 31.1111 97.5556 30.3147 97.5556 29.3333C97.5556 28.352 98.352 27.5556 99.3333 27.5556ZM97.816 34.9271L104.927 27.816L106.184 29.072L99.0729 36.1831L97.816 34.9271ZM104.667 36.4444C103.685 36.4444 102.889 35.648 102.889 34.6667C102.889 33.6836 103.685 32.8889 104.667 32.8889C105.648 32.8889 106.444 33.6836 106.444 34.6667C106.444 35.648 105.648 36.4444 104.667 36.4444Z" fill="#1F282C"/>
<path d="M192.222 72H179.778C178.797 72 178 72.7973 178 73.7778V86.2222C178 87.2027 178.797 88 179.778 88H192.222C193.204 88 194 87.2027 194 86.2222V73.7778C194 72.7973 193.204 72 192.222 72ZM183.333 75.5556C184.315 75.5556 185.111 76.352 185.111 77.3333C185.111 78.3147 184.315 79.1111 183.333 79.1111C182.352 79.1111 181.556 78.3147 181.556 77.3333C181.556 76.352 182.352 75.5556 183.333 75.5556ZM181.816 82.9271L188.927 75.816L190.184 77.072L183.073 84.1831L181.816 82.9271ZM188.667 84.4444C187.685 84.4444 186.889 83.648 186.889 82.6667C186.889 81.6836 187.685 80.8889 188.667 80.8889C189.648 80.8889 190.444 81.6836 190.444 82.6667C190.444 83.648 189.648 84.4444 188.667 84.4444Z" fill="#1F282C"/>
<path d="M364.333 52H345.667C344.196 52 343 53.196 343 54.6667V73.3333C343 74.804 344.196 76 345.667 76H364.333C365.805 76 367 74.804 367 73.3333V54.6667C367 53.196 365.805 52 364.333 52ZM351 57.3333C352.472 57.3333 353.667 58.528 353.667 60C353.667 61.472 352.472 62.6667 351 62.6667C349.528 62.6667 348.333 61.472 348.333 60C348.333 58.528 349.528 57.3333 351 57.3333ZM348.724 68.3907L359.391 57.724L361.276 59.608L350.609 70.2747L348.724 68.3907ZM359 70.6667C357.528 70.6667 356.333 69.472 356.333 68C356.333 66.5253 357.528 65.3333 359 65.3333C360.472 65.3333 361.667 66.5253 361.667 68C361.667 69.472 360.472 70.6667 359 70.6667Z" fill="#1F282C"/>
</g>
</g>
</svg>
