<svg width="480" height="96" viewBox="0 0 480 96" fill="none" xmlns="http://www.w3.org/2000/svg">
<mask id="mask0" mask-type="alpha" maskUnits="userSpaceOnUse" x="0" y="0" width="480" height="96">
<rect width="480" height="96" fill="#CABCAA"/>
</mask>
<g mask="url(#mask0)">
<g opacity="0.25">
<path d="M30.8272 10.6275H29.2565V5.47339H31.4241C33.9372 5.47339 35.1937 6.32306 35.1937 8.02241C35.1937 8.93744 34.7958 9.60037 34 10.0112C33.2251 10.422 32.1675 10.6275 30.8272 10.6275Z" fill="#1F282C"/>
<path fill-rule="evenodd" clip-rule="evenodd" d="M10 12C10 0.972 18.972 -8 30 -8C41.03 -8 50 0.972 50 12C50 23.03 41.03 32 30 32C18.972 32 10 23.03 10 12ZM24.5131 19.0028V22H29.2565V19.0028H34.0942V16.2857H29.2565V14.1008H31.2984C33.4764 14.1008 35.1937 13.8114 36.4503 13.2325C37.7277 12.6536 38.6387 11.888 39.1832 10.9356C39.7277 9.98319 40 8.96545 40 7.88235C40 6.05229 39.3298 4.61438 37.9895 3.56863C36.6702 2.52288 34.5654 2 31.6754 2H24.5131V10.6275H22V14.1008H24.5131V16.2857H22V19.0028H24.5131Z" fill="#1F282C"/>
<path d="M439.827 46.6275H438.257V41.4734H440.424C442.937 41.4734 444.194 42.3231 444.194 44.0224C444.194 44.9374 443.796 45.6004 443 46.0112C442.225 46.422 441.168 46.6275 439.827 46.6275Z" fill="#1F282C"/>
<path fill-rule="evenodd" clip-rule="evenodd" d="M419 48C419 36.972 427.972 28 439 28C450.03 28 459 36.972 459 48C459 59.03 450.03 68 439 68C427.972 68 419 59.03 419 48ZM433.513 55.0028V58H438.257V55.0028H443.094V52.2857H438.257V50.1008H440.298C442.476 50.1008 444.194 49.8114 445.45 49.2325C446.728 48.6536 447.639 47.888 448.183 46.9356C448.728 45.9832 449 44.9655 449 43.8824C449 42.0523 448.33 40.6144 446.99 39.5686C445.67 38.5229 443.565 38 440.675 38H433.513V46.6275H431V50.1008H433.513V52.2857H431V55.0028H433.513Z" fill="#1F282C"/>
<path d="M159.827 82.6275H158.257V77.4734H160.424C162.937 77.4734 164.194 78.3231 164.194 80.0224C164.194 80.9374 163.796 81.6004 163 82.0112C162.225 82.422 161.168 82.6275 159.827 82.6275Z" fill="#1F282C"/>
<path fill-rule="evenodd" clip-rule="evenodd" d="M139 84C139 72.972 147.972 64 159 64C170.03 64 179 72.972 179 84C179 95.03 170.03 104 159 104C147.972 104 139 95.03 139 84ZM153.513 91.0028V94H158.257V91.0028H163.094V88.2857H158.257V86.1008H160.298C162.476 86.1008 164.194 85.8114 165.45 85.2325C166.728 84.6536 167.639 83.888 168.183 82.9356C168.728 81.9832 169 80.9655 169 79.8824C169 78.0523 168.33 76.6144 166.99 75.5686C165.67 74.5229 163.565 74 160.675 74H153.513V82.6275H151V86.1008H153.513V88.2857H151V91.0028H153.513Z" fill="#1F282C"/>
<path d="M79.4963 59.1765H78.5539V56.084H79.8545C81.3623 56.084 82.1162 56.5938 82.1162 57.6134C82.1162 58.1625 81.8775 58.5602 81.4 58.8067C80.9351 59.0532 80.3005 59.1765 79.4963 59.1765Z" fill="#1F282C"/>
<path fill-rule="evenodd" clip-rule="evenodd" d="M67 60C67 53.3832 72.3832 48 79 48C85.618 48 91 53.3832 91 60C91 66.618 85.618 72 79 72C72.3832 72 67 66.618 67 60ZM75.7079 64.2017V66H78.5539V64.2017H81.4565V62.5714H78.5539V61.2605H79.7791C81.0859 61.2605 82.1162 61.0868 82.8702 60.7395C83.6367 60.3922 84.1832 59.9328 84.5099 59.3613C84.8367 58.7899 85 58.1793 85 57.5294C85 56.4314 84.5979 55.5686 83.7937 54.9412C83.0021 54.3137 81.7393 54 80.0052 54H75.7079V59.1765H74.2V61.2605H75.7079V62.5714H74.2V64.2017H75.7079Z" fill="#1F282C"/>
<path d="M353.496 27.1765H352.554V24.084H353.854C355.362 24.084 356.116 24.5938 356.116 25.6134C356.116 26.1625 355.877 26.5602 355.4 26.8067C354.935 27.0532 354.301 27.1765 353.496 27.1765Z" fill="#1F282C"/>
<path fill-rule="evenodd" clip-rule="evenodd" d="M341 28C341 21.3832 346.383 16 353 16C359.618 16 365 21.3832 365 28C365 34.618 359.618 40 353 40C346.383 40 341 34.618 341 28ZM349.708 32.2017V34H352.554V32.2017H355.457V30.5714H352.554V29.2605H353.779C355.086 29.2605 356.116 29.0868 356.87 28.7395C357.637 28.3922 358.183 27.9328 358.51 27.3613C358.837 26.7899 359 26.1793 359 25.5294C359 24.4314 358.598 23.5686 357.794 22.9412C357.002 22.3137 355.739 22 354.005 22H349.708V27.1765H348.2V29.2605H349.708V30.5714H348.2V32.2017H349.708Z" fill="#1F282C"/>
<path d="M390.496 75.1765H389.554V72.084H390.854C392.362 72.084 393.116 72.5938 393.116 73.6134C393.116 74.1625 392.877 74.5602 392.4 74.8067C391.935 75.0532 391.301 75.1765 390.496 75.1765Z" fill="#1F282C"/>
<path fill-rule="evenodd" clip-rule="evenodd" d="M378 76C378 69.3832 383.383 64 390 64C396.618 64 402 69.3832 402 76C402 82.618 396.618 88 390 88C383.383 88 378 82.618 378 76ZM386.708 80.2017V82H389.554V80.2017H392.457V78.5714H389.554V77.2605H390.779C392.086 77.2605 393.116 77.0868 393.87 76.7395C394.637 76.3922 395.183 75.9328 395.51 75.3613C395.837 74.7899 396 74.1793 396 73.5294C396 72.4314 395.598 71.5686 394.794 70.9412C394.002 70.3137 392.739 70 391.005 70H386.708V75.1765H385.2V77.2605H386.708V78.5714H385.2V80.2017H386.708Z" fill="#1F282C"/>
<path d="M459.496 3.17647H458.554V0.084034H459.854C461.362 0.084034 462.116 0.593838 462.116 1.61345C462.116 2.16247 461.877 2.56022 461.4 2.80672C460.935 3.05322 460.301 3.17647 459.496 3.17647Z" fill="#1F282C"/>
<path fill-rule="evenodd" clip-rule="evenodd" d="M447 4C447 -2.6168 452.383 -8 459 -8C465.618 -8 471 -2.6168 471 4C471 10.618 465.618 16 459 16C452.383 16 447 10.618 447 4ZM455.708 8.20168V10H458.554V8.20168H461.457V6.57143H458.554V5.2605H459.779C461.086 5.2605 462.116 5.08684 462.87 4.7395C463.637 4.39216 464.183 3.93277 464.51 3.36135C464.837 2.78992 465 2.17927 465 1.52941C465 0.431373 464.598 -0.431372 463.794 -1.05882C463.002 -1.68627 461.739 -2 460.005 -2H455.708V3.17647H454.2V5.2605H455.708V6.57143H454.2V8.20168H455.708Z" fill="#1F282C"/>
<path d="M295.496 12.1765H294.554V9.08403H295.854C297.362 9.08403 298.116 9.59384 298.116 10.6134C298.116 11.1625 297.877 11.5602 297.4 11.8067C296.935 12.0532 296.301 12.1765 295.496 12.1765Z" fill="#1F282C"/>
<path fill-rule="evenodd" clip-rule="evenodd" d="M283 13C283 6.3832 288.383 1 295 1C301.618 1 307 6.3832 307 13C307 19.618 301.618 25 295 25C288.383 25 283 19.618 283 13ZM291.708 17.2017V19H294.554V17.2017H297.457V15.5714H294.554V14.2605H295.779C297.086 14.2605 298.116 14.0868 298.87 13.7395C299.637 13.3922 300.183 12.9328 300.51 12.3613C300.837 11.7899 301 11.1793 301 10.5294C301 9.43137 300.598 8.56863 299.794 7.94118C299.002 7.31373 297.739 7 296.005 7H291.708V12.1765H290.2V14.2605H291.708V15.5714H290.2V17.2017H291.708Z" fill="#1F282C"/>
<path d="M126.331 27.451H125.703V25.3894H126.57C127.575 25.3894 128.077 25.7292 128.077 26.409C128.077 26.775 127.918 27.0401 127.6 27.2045C127.29 27.3688 126.867 27.451 126.331 27.451Z" fill="#1F282C"/>
<path fill-rule="evenodd" clip-rule="evenodd" d="M118 28C118 23.5888 121.589 20 126 20C130.412 20 134 23.5888 134 28C134 32.412 130.412 36 126 36C121.589 36 118 32.412 118 28ZM123.805 30.8011V32H125.703V30.8011H127.638V29.7143H125.703V28.8403H126.519C127.391 28.8403 128.077 28.7246 128.58 28.493C129.091 28.2614 129.455 27.9552 129.673 27.5742C129.891 27.1933 130 26.7862 130 26.3529C130 25.6209 129.732 25.0458 129.196 24.6275C128.668 24.2092 127.826 24 126.67 24H123.805V27.451H122.8V28.8403H123.805V29.7143H122.8V30.8011H123.805Z" fill="#1F282C"/>
<path d="M30.3309 79.451H29.7026V77.3894H30.5696C31.5749 77.3894 32.0775 77.7292 32.0775 78.409C32.0775 78.775 31.9183 79.0401 31.6 79.2045C31.2901 79.3688 30.867 79.451 30.3309 79.451Z" fill="#1F282C"/>
<path fill-rule="evenodd" clip-rule="evenodd" d="M22 80C22 75.5888 25.5888 72 30 72C34.412 72 38 75.5888 38 80C38 84.412 34.412 88 30 88C25.5888 88 22 84.412 22 80ZM27.8052 82.8011V84H29.7026V82.8011H31.6377V81.7143H29.7026V80.8403H30.5194C31.3906 80.8403 32.0775 80.7246 32.5801 80.493C33.0911 80.2614 33.4555 79.9552 33.6733 79.5742C33.8911 79.1933 34 78.7862 34 78.3529C34 77.6209 33.7319 77.0458 33.1958 76.6275C32.6681 76.2092 31.8262 76 30.6702 76H27.8052V79.451H26.8V80.8403H27.8052V81.7143H26.8V82.8011H27.8052Z" fill="#1F282C"/>
<path d="M341.331 75.451H340.703V73.3894H341.57C342.575 73.3894 343.077 73.7292 343.077 74.409C343.077 74.775 342.918 75.0401 342.6 75.2045C342.29 75.3688 341.867 75.451 341.331 75.451Z" fill="#1F282C"/>
<path fill-rule="evenodd" clip-rule="evenodd" d="M333 76C333 71.5888 336.589 68 341 68C345.412 68 349 71.5888 349 76C349 80.412 345.412 84 341 84C336.589 84 333 80.412 333 76ZM338.805 78.8011V80H340.703V78.8011H342.638V77.7143H340.703V76.8403H341.519C342.391 76.8403 343.077 76.7246 343.58 76.493C344.091 76.2614 344.455 75.9552 344.673 75.5742C344.891 75.1933 345 74.7862 345 74.3529C345 73.6209 344.732 73.0458 344.196 72.6275C343.668 72.2092 342.826 72 341.67 72H338.805V75.451H337.8V76.8403H338.805V77.7143H337.8V78.8011H338.805Z" fill="#1F282C"/>
</g>
</g>
</svg>
