<svg width="480" height="96" viewBox="0 0 480 96" fill="none" xmlns="http://www.w3.org/2000/svg">
<mask id="mask0" mask-type="alpha" maskUnits="userSpaceOnUse" x="0" y="0" width="480" height="96">
<rect width="480" height="96" fill="#CA75ED"/>
</mask>
<g mask="url(#mask0)">
<g opacity="0.25">
<path d="M42.1288 17.7276L49.113 12.4135C50.0537 11.6999 51.1608 11.2375 52.3299 11.0702C53.4989 10.9028 54.6913 11.036 55.7946 11.457L66.9293 15.7042C67.6546 15.9773 68.4237 16.1158 69.1987 16.1129H71.0307C71.1595 16.1124 71.2871 16.1376 71.406 16.1871C71.5249 16.2366 71.6327 16.3094 71.723 16.4012C71.8134 16.493 71.8844 16.602 71.9319 16.7217C71.9794 16.8414 72.0025 16.9693 71.9998 17.0981V30.7102C71.9998 30.9661 71.8981 31.2115 71.7171 31.3924C71.5362 31.5733 71.2907 31.6749 71.0348 31.6749H68.614C68.2669 31.6757 67.9306 31.7955 67.6612 32.0142L67.1092 32.4639C67.0411 32.5179 66.9546 32.5431 66.8681 32.5339C66.7817 32.5247 66.7023 32.482 66.6471 32.4148L53.6723 16.6525C53.5141 16.4596 53.293 16.3285 53.0478 16.2822C52.8026 16.2359 52.5489 16.2772 52.3311 16.3991L46.3855 19.7306C45.7959 20.0599 45.1382 20.2486 44.4637 20.2819C43.7891 20.3153 43.116 20.1923 42.4968 19.9227C42.2934 19.8351 42.1152 19.6979 41.9786 19.5236C41.8419 19.3494 41.7512 19.1437 41.7146 18.9254C41.6779 18.707 41.6967 18.483 41.769 18.2737C41.8414 18.0645 41.9651 17.8767 42.1288 17.7276ZM32.9691 31.6668H35.0628L36.5226 29.8804C36.9571 29.3541 37.5275 28.9568 38.1719 28.7316C38.8163 28.5064 39.5101 28.462 40.178 28.6031C40.8459 28.7442 41.4624 29.0655 41.9606 29.5321C42.4587 29.9987 42.8195 30.5927 43.0038 31.2498C43.6215 31.4199 44.1848 31.7463 44.6396 32.1974C45.0944 32.6484 45.4253 33.209 45.6004 33.8251C46.518 34.0918 47.2982 34.7005 47.7799 35.5256C48.5724 35.6494 49.3045 36.0232 49.8695 36.5925C50.4516 37.203 50.8189 37.9866 50.9155 38.8246C51.0122 39.6625 50.833 40.5091 50.4051 41.2361L50.2089 41.5836C50.2048 41.5881 50.2026 41.5939 50.2026 41.5999C50.2026 41.606 50.2048 41.6118 50.2089 41.6163C50.5575 41.8594 50.9709 41.9929 51.3959 41.9997C51.821 42.0065 52.2384 41.8863 52.5946 41.6544C52.9509 41.4226 53.2298 41.0896 53.3956 40.6983C53.5613 40.307 53.6065 39.8751 53.5251 39.458C53.5201 39.4477 53.5191 39.436 53.5224 39.425C53.5257 39.4141 53.533 39.4048 53.5429 39.3991C53.5528 39.3934 53.5645 39.3916 53.5756 39.3942C53.5867 39.3968 53.5965 39.4035 53.6028 39.413L53.7623 39.5683C54.122 39.9278 54.5949 40.1518 55.101 40.2025C55.607 40.2532 56.115 40.1273 56.5388 39.8463C56.8785 39.6093 57.142 39.2788 57.2974 38.8949C57.4527 38.511 57.4932 38.0903 57.4139 37.6839C57.4088 37.6737 57.4078 37.6619 57.4111 37.6509C57.4144 37.64 57.4218 37.6307 57.4316 37.625C57.4415 37.6193 57.4532 37.6175 57.4644 37.6201C57.4755 37.6227 57.4852 37.6294 57.4916 37.6389L57.6511 37.7943C58.0105 38.1527 58.4826 38.3761 58.9878 38.4268C59.4929 38.4774 60 38.3522 60.4235 38.0722C60.7676 37.8367 61.0353 37.5058 61.1937 37.1201C61.3521 36.7345 61.3942 36.3109 61.3149 35.9016C61.3098 35.8914 61.3088 35.8796 61.3121 35.8687C61.3154 35.8577 61.3228 35.8485 61.3327 35.8427C61.3426 35.837 61.3543 35.8353 61.3654 35.8379C61.3765 35.8405 61.3863 35.8472 61.3926 35.8567L61.5725 36.0284C61.9132 36.3664 62.3557 36.5828 62.8317 36.6441C63.3077 36.7054 63.7907 36.6083 64.2059 36.3676C64.4774 36.2055 64.7096 35.9852 64.8859 35.7227C65.0621 35.4602 65.1781 35.1619 65.2254 34.8493C65.2727 34.5367 65.2502 34.2175 65.1595 33.9146C65.0687 33.6117 64.9121 33.3327 64.7007 33.0975L63.3922 31.5196L52.8177 18.6555C52.7657 18.5919 52.6927 18.5487 52.6119 18.5337C52.531 18.5188 52.4475 18.5329 52.3761 18.5737L47.3219 21.4025C46.5188 21.8525 45.6271 22.1222 44.7091 22.1928C43.7911 22.2634 42.8687 22.1332 42.0061 21.8112C41.5314 21.6449 41.0995 21.3753 40.7417 21.0218C40.3839 20.6684 40.109 20.2399 39.937 19.7674C39.7996 19.2811 39.76 18.7725 39.8204 18.2708C39.8807 17.7692 40.0399 17.2845 40.2886 16.8446C40.3285 16.7708 40.3483 16.6879 40.3463 16.604C40.3443 16.5202 40.3204 16.4383 40.2771 16.3665C40.2337 16.2947 40.1724 16.2354 40.0991 16.1945C40.0259 16.1536 39.9432 16.1326 39.8593 16.1334H32.9691C32.842 16.1328 32.7161 16.1574 32.5986 16.2056C32.481 16.2539 32.3741 16.3248 32.2841 16.4145C32.1941 16.5041 32.1226 16.6106 32.0738 16.728C32.0251 16.8453 32 16.971 32 17.0981V30.7102C32.0022 30.9654 32.1053 31.2093 32.287 31.3885C32.4686 31.5678 32.7139 31.6678 32.9691 31.6668ZM40.3541 30.6898C39.965 30.4721 39.5108 30.4006 39.0736 30.4883C38.6365 30.576 38.2451 30.8171 37.9701 31.168L36.5512 32.9094C36.4001 33.0946 36.2875 33.3079 36.2198 33.537C36.1522 33.7662 36.1308 34.0065 36.1571 34.244C36.1834 34.4814 36.2567 34.7113 36.3728 34.9201C36.4889 35.1289 36.6455 35.3125 36.8333 35.4602L37.0501 35.6278C37.3321 35.8495 37.6741 35.9816 38.032 36.0071C38.3899 36.0326 38.7472 35.9503 39.0578 35.7708C39.0724 35.761 39.0896 35.7559 39.1071 35.7561C39.1247 35.7564 39.1418 35.762 39.156 35.7722C39.1703 35.7825 39.1811 35.7969 39.1869 35.8134C39.1927 35.83 39.1934 35.8479 39.1887 35.8649C39.1243 36.1909 39.1513 36.5284 39.2668 36.84C39.3823 37.1516 39.5817 37.4253 39.8429 37.6308L40.0188 37.7697C40.2906 37.9836 40.6181 38.115 40.9624 38.1483C41.3067 38.1816 41.6533 38.1155 41.9611 37.9578C41.9762 37.9504 41.9929 37.9472 42.0097 37.9485C42.0264 37.9497 42.0425 37.9555 42.0563 37.9651C42.07 37.9747 42.081 37.9878 42.088 38.003C42.095 38.0183 42.0978 38.0351 42.096 38.0518C42.0606 38.36 42.1048 38.6721 42.2243 38.9583C42.3439 39.2445 42.5348 39.4954 42.7789 39.6869L42.9016 39.7809C43.1767 39.9963 43.508 40.1282 43.856 40.1608C44.204 40.1934 44.554 40.1254 44.8644 39.9648C44.8792 39.9557 44.8961 39.9505 44.9135 39.9498C44.9308 39.949 44.9481 39.9527 44.9637 39.9605C44.9792 39.9682 44.9926 39.9799 45.0024 39.9942C45.0122 40.0086 45.0182 40.0252 45.0198 40.0425C45.0932 40.4939 45.3341 40.9011 45.6945 41.183L45.7722 41.2443C45.9801 41.407 46.2206 41.5231 46.4774 41.5846C46.7342 41.6461 47.0013 41.6516 47.2604 41.6008C47.5195 41.55 47.7647 41.4441 47.9792 41.2902C48.1937 41.1363 48.3726 40.938 48.5037 40.7088L48.7695 40.2428C48.9894 39.874 49.0776 39.4414 49.0197 39.0159C48.9617 38.5905 48.7611 38.1972 48.4505 37.9005C48.1857 37.6606 47.8565 37.5034 47.5033 37.4482C47.1502 37.393 46.7887 37.4422 46.4632 37.5899C46.4547 37.5944 46.445 37.5965 46.4353 37.596C46.4257 37.5954 46.4163 37.5923 46.4083 37.5868C46.4003 37.5813 46.394 37.5738 46.3899 37.5649C46.3859 37.5561 46.3844 37.5464 46.3855 37.5367C46.4012 37.2358 46.3414 36.9358 46.2118 36.6638C46.0821 36.3918 45.8866 36.1564 45.643 35.979C45.3993 35.8016 45.1153 35.6878 44.8165 35.6479C44.5177 35.608 44.2137 35.6432 43.9321 35.7504C43.6622 35.7994 43.7194 35.5624 43.7194 35.5624C43.8622 35.216 43.8938 34.8339 43.8099 34.4688C43.7259 34.1038 43.5305 33.7738 43.2507 33.5247C42.9709 33.2755 42.6205 33.1194 42.2481 33.078C41.8757 33.0366 41.4996 33.112 41.1719 33.2937C40.9715 33.3223 40.9961 33.1343 40.9961 33.1343C41.2332 32.7245 41.2988 32.2377 41.1785 31.7799C41.0583 31.322 40.762 30.9302 40.3541 30.6898Z" fill="#1F282C"/>
<path d="M371.129 75.7276L378.113 70.4135C379.054 69.6999 380.161 69.2375 381.33 69.0702C382.499 68.9028 383.691 69.036 384.795 69.457L395.929 73.7042C396.655 73.9773 397.424 74.1158 398.199 74.1129H400.031C400.159 74.1124 400.287 74.1376 400.406 74.1871C400.525 74.2366 400.633 74.3094 400.723 74.4012C400.813 74.493 400.884 74.602 400.932 74.7217C400.979 74.8414 401.003 74.9693 401 75.0981V88.7102C401 88.9661 400.898 89.2115 400.717 89.3924C400.536 89.5733 400.291 89.6749 400.035 89.6749H397.614C397.267 89.6757 396.931 89.7955 396.661 90.0142L396.109 90.4639C396.041 90.5179 395.955 90.5431 395.868 90.5339C395.782 90.5247 395.702 90.482 395.647 90.4148L382.672 74.6525C382.514 74.4596 382.293 74.3285 382.048 74.2822C381.803 74.2359 381.549 74.2772 381.331 74.3991L375.386 77.7306C374.796 78.0599 374.138 78.2486 373.464 78.2819C372.789 78.3153 372.116 78.1923 371.497 77.9227C371.293 77.8351 371.115 77.6979 370.979 77.5236C370.842 77.3494 370.751 77.1437 370.715 76.9254C370.678 76.707 370.697 76.483 370.769 76.2737C370.841 76.0645 370.965 75.8767 371.129 75.7276ZM361.969 89.6668H364.063L365.523 87.8804C365.957 87.3541 366.527 86.9568 367.172 86.7316C367.816 86.5064 368.51 86.462 369.178 86.6031C369.846 86.7442 370.462 87.0655 370.961 87.5321C371.459 87.9987 371.82 88.5927 372.004 89.2498C372.621 89.4199 373.185 89.7463 373.64 90.1974C374.094 90.6484 374.425 91.209 374.6 91.8251C375.518 92.0918 376.298 92.7005 376.78 93.5256C377.572 93.6494 378.305 94.0232 378.869 94.5925C379.452 95.203 379.819 95.9866 379.916 96.8246C380.012 97.6625 379.833 98.5091 379.405 99.2361L379.209 99.5836C379.205 99.5881 379.203 99.5939 379.203 99.5999C379.203 99.606 379.205 99.6118 379.209 99.6163C379.558 99.8594 379.971 99.9929 380.396 99.9997C380.821 100.007 381.238 99.8863 381.595 99.6544C381.951 99.4226 382.23 99.0896 382.396 98.6983C382.561 98.307 382.606 97.8751 382.525 97.458C382.52 97.4477 382.519 97.436 382.522 97.425C382.526 97.4141 382.533 97.4048 382.543 97.3991C382.553 97.3934 382.564 97.3916 382.576 97.3942C382.587 97.3968 382.596 97.4035 382.603 97.413L382.762 97.5683C383.122 97.9278 383.595 98.1518 384.101 98.2025C384.607 98.2532 385.115 98.1273 385.539 97.8463C385.878 97.6093 386.142 97.2788 386.297 96.8949C386.453 96.511 386.493 96.0903 386.414 95.6839C386.409 95.6737 386.408 95.6619 386.411 95.6509C386.414 95.64 386.422 95.6307 386.432 95.625C386.442 95.6193 386.453 95.6175 386.464 95.6201C386.476 95.6227 386.485 95.6294 386.492 95.6389L386.651 95.7943C387.01 96.1527 387.483 96.3761 387.988 96.4268C388.493 96.4774 389 96.3522 389.423 96.0722C389.768 95.8367 390.035 95.5058 390.194 95.1201C390.352 94.7345 390.394 94.3109 390.315 93.9016C390.31 93.8914 390.309 93.8796 390.312 93.8687C390.315 93.8577 390.323 93.8485 390.333 93.8427C390.343 93.837 390.354 93.8353 390.365 93.8379C390.377 93.8405 390.386 93.8472 390.393 93.8567L390.573 94.0284C390.913 94.3664 391.356 94.5828 391.832 94.6441C392.308 94.7054 392.791 94.6083 393.206 94.3676C393.477 94.2055 393.71 93.9852 393.886 93.7227C394.062 93.4602 394.178 93.1619 394.225 92.8493C394.273 92.5367 394.25 92.2175 394.159 91.9146C394.069 91.6117 393.912 91.3327 393.701 91.0975L392.392 89.5196L381.818 76.6555C381.766 76.5919 381.693 76.5487 381.612 76.5337C381.531 76.5188 381.447 76.5329 381.376 76.5737L376.322 79.4025C375.519 79.8525 374.627 80.1222 373.709 80.1928C372.791 80.2634 371.869 80.1332 371.006 79.8112C370.531 79.6449 370.1 79.3753 369.742 79.0218C369.384 78.6684 369.109 78.2399 368.937 77.7674C368.8 77.2811 368.76 76.7725 368.82 76.2708C368.881 75.7692 369.04 75.2845 369.289 74.8446C369.328 74.7708 369.348 74.6879 369.346 74.604C369.344 74.5202 369.32 74.4383 369.277 74.3665C369.234 74.2947 369.172 74.2354 369.099 74.1945C369.026 74.1536 368.943 74.1326 368.859 74.1334H361.969C361.842 74.1328 361.716 74.1574 361.599 74.2056C361.481 74.2539 361.374 74.3248 361.284 74.4145C361.194 74.5041 361.123 74.6106 361.074 74.728C361.025 74.8453 361 74.971 361 75.0981V88.7102C361.002 88.9654 361.105 89.2093 361.287 89.3885C361.469 89.5678 361.714 89.6678 361.969 89.6668ZM369.354 88.6898C368.965 88.4721 368.511 88.4006 368.074 88.4883C367.636 88.576 367.245 88.8171 366.97 89.168L365.551 90.9094C365.4 91.0946 365.287 91.3079 365.22 91.537C365.152 91.7662 365.131 92.0065 365.157 92.244C365.183 92.4814 365.257 92.7113 365.373 92.9201C365.489 93.1289 365.645 93.3125 365.833 93.4602L366.05 93.6278C366.332 93.8495 366.674 93.9816 367.032 94.0071C367.39 94.0326 367.747 93.9503 368.058 93.7708C368.072 93.761 368.09 93.7559 368.107 93.7561C368.125 93.7564 368.142 93.762 368.156 93.7722C368.17 93.7825 368.181 93.7969 368.187 93.8134C368.193 93.83 368.193 93.8479 368.189 93.8649C368.124 94.1909 368.151 94.5284 368.267 94.84C368.382 95.1516 368.582 95.4253 368.843 95.6308L369.019 95.7697C369.291 95.9836 369.618 96.115 369.962 96.1483C370.307 96.1816 370.653 96.1155 370.961 95.9578C370.976 95.9504 370.993 95.9472 371.01 95.9485C371.026 95.9497 371.042 95.9555 371.056 95.9651C371.07 95.9747 371.081 95.9878 371.088 96.003C371.095 96.0183 371.098 96.0351 371.096 96.0518C371.061 96.36 371.105 96.6721 371.224 96.9583C371.344 97.2445 371.535 97.4954 371.779 97.6869L371.902 97.7809C372.177 97.9963 372.508 98.1282 372.856 98.1608C373.204 98.1934 373.554 98.1254 373.864 97.9648C373.879 97.9557 373.896 97.9505 373.913 97.9498C373.931 97.949 373.948 97.9527 373.964 97.9605C373.979 97.9682 373.993 97.9799 374.002 97.9942C374.012 98.0086 374.018 98.0252 374.02 98.0425C374.093 98.4939 374.334 98.9011 374.694 99.183L374.772 99.2443C374.98 99.407 375.221 99.5231 375.477 99.5846C375.734 99.6461 376.001 99.6516 376.26 99.6008C376.52 99.55 376.765 99.4441 376.979 99.2902C377.194 99.1363 377.373 98.938 377.504 98.7088L377.769 98.2428C377.989 97.874 378.078 97.4414 378.02 97.0159C377.962 96.5905 377.761 96.1972 377.451 95.9005C377.186 95.6606 376.856 95.5034 376.503 95.4482C376.15 95.393 375.789 95.4422 375.463 95.5899C375.455 95.5944 375.445 95.5965 375.435 95.596C375.426 95.5954 375.416 95.5923 375.408 95.5868C375.4 95.5813 375.394 95.5738 375.39 95.5649C375.386 95.5561 375.384 95.5464 375.386 95.5367C375.401 95.2358 375.341 94.9358 375.212 94.6638C375.082 94.3918 374.887 94.1564 374.643 93.979C374.399 93.8016 374.115 93.6878 373.817 93.6479C373.518 93.608 373.214 93.6432 372.932 93.7504C372.662 93.7994 372.719 93.5624 372.719 93.5624C372.862 93.216 372.894 92.8339 372.81 92.4688C372.726 92.1038 372.53 91.7738 372.251 91.5247C371.971 91.2755 371.621 91.1194 371.248 91.078C370.876 91.0366 370.5 91.112 370.172 91.2937C369.972 91.3223 369.996 91.1343 369.996 91.1343C370.233 90.7245 370.299 90.2377 370.179 89.7799C370.058 89.322 369.762 88.9302 369.354 88.6898Z" fill="#1F282C"/>
<path d="M418.129 2.72759L425.113 -2.58647C426.054 -3.30014 427.161 -3.76246 428.33 -3.92982C429.499 -4.09718 430.691 -3.96405 431.795 -3.543L442.929 0.704159C443.655 0.977285 444.424 1.11581 445.199 1.11293H447.031C447.159 1.11236 447.287 1.13757 447.406 1.18708C447.525 1.23659 447.633 1.3094 447.723 1.40121C447.813 1.49302 447.884 1.60198 447.932 1.72167C447.979 1.84135 448.003 1.96933 448 2.09808V15.7102C448 15.9661 447.898 16.2115 447.717 16.3924C447.536 16.5733 447.291 16.6749 447.035 16.6749H444.614C444.267 16.6757 443.931 16.7955 443.661 17.0142L443.109 17.4639C443.041 17.5179 442.955 17.5431 442.868 17.5339C442.782 17.5247 442.702 17.482 442.647 17.4148L429.672 1.65251C429.514 1.45963 429.293 1.32855 429.048 1.28221C428.803 1.23588 428.549 1.27725 428.331 1.39907L422.386 4.73057C421.796 5.05991 421.138 5.2486 420.464 5.28193C419.789 5.31525 419.116 5.19231 418.497 4.9227C418.293 4.83506 418.115 4.69786 417.979 4.52363C417.842 4.34941 417.751 4.14371 417.715 3.92537C417.678 3.70702 417.697 3.48298 417.769 3.27374C417.841 3.06449 417.965 2.87672 418.129 2.72759ZM408.969 16.6668H411.063L412.523 14.8804C412.957 14.3541 413.527 13.9568 414.172 13.7316C414.816 13.5064 415.51 13.462 416.178 13.6031C416.846 13.7442 417.462 14.0655 417.961 14.5321C418.459 14.9987 418.82 15.5927 419.004 16.2498C419.621 16.4199 420.185 16.7463 420.64 17.1974C421.094 17.6484 421.425 18.209 421.6 18.8251C422.518 19.0918 423.298 19.7005 423.78 20.5256C424.572 20.6494 425.305 21.0232 425.869 21.5925C426.452 22.203 426.819 22.9866 426.916 23.8246C427.012 24.6625 426.833 25.5091 426.405 26.2361L426.209 26.5836C426.205 26.5881 426.203 26.5939 426.203 26.5999C426.203 26.606 426.205 26.6118 426.209 26.6163C426.558 26.8594 426.971 26.9929 427.396 26.9997C427.821 27.0065 428.238 26.8863 428.595 26.6544C428.951 26.4226 429.23 26.0896 429.396 25.6983C429.561 25.307 429.606 24.8751 429.525 24.458C429.52 24.4477 429.519 24.436 429.522 24.425C429.526 24.4141 429.533 24.4048 429.543 24.3991C429.553 24.3934 429.564 24.3916 429.576 24.3942C429.587 24.3968 429.596 24.4035 429.603 24.413L429.762 24.5683C430.122 24.9278 430.595 25.1518 431.101 25.2025C431.607 25.2532 432.115 25.1273 432.539 24.8463C432.878 24.6093 433.142 24.2788 433.297 23.8949C433.453 23.511 433.493 23.0903 433.414 22.6839C433.409 22.6737 433.408 22.6619 433.411 22.6509C433.414 22.64 433.422 22.6307 433.432 22.625C433.442 22.6193 433.453 22.6175 433.464 22.6201C433.476 22.6227 433.485 22.6294 433.492 22.6389L433.651 22.7943C434.01 23.1527 434.483 23.3761 434.988 23.4268C435.493 23.4774 436 23.3522 436.423 23.0722C436.768 22.8367 437.035 22.5058 437.194 22.1201C437.352 21.7345 437.394 21.3109 437.315 20.9016C437.31 20.8914 437.309 20.8796 437.312 20.8687C437.315 20.8577 437.323 20.8485 437.333 20.8427C437.343 20.837 437.354 20.8353 437.365 20.8379C437.377 20.8405 437.386 20.8472 437.393 20.8567L437.573 21.0284C437.913 21.3664 438.356 21.5828 438.832 21.6441C439.308 21.7054 439.791 21.6083 440.206 21.3676C440.477 21.2055 440.71 20.9852 440.886 20.7227C441.062 20.4602 441.178 20.1619 441.225 19.8493C441.273 19.5367 441.25 19.2175 441.159 18.9146C441.069 18.6117 440.912 18.3327 440.701 18.0975L439.392 16.5196L428.818 3.6555C428.766 3.59185 428.693 3.54871 428.612 3.53374C428.531 3.51877 428.447 3.53295 428.376 3.57375L423.322 6.40246C422.519 6.85249 421.627 7.12219 420.709 7.19278C419.791 7.26338 418.869 7.13317 418.006 6.81123C417.531 6.64489 417.1 6.37526 416.742 6.02181C416.384 5.66836 416.109 5.2399 415.937 4.76736C415.8 4.28111 415.76 3.77248 415.82 3.27084C415.881 2.76919 416.04 2.28446 416.289 1.84464C416.328 1.77081 416.348 1.68788 416.346 1.60402C416.344 1.52017 416.32 1.4383 416.277 1.36649C416.234 1.29467 416.172 1.2354 416.099 1.19452C416.026 1.15364 415.943 1.13256 415.859 1.13337H408.969C408.842 1.13283 408.716 1.15739 408.599 1.20563C408.481 1.25387 408.374 1.32484 408.284 1.41448C408.194 1.50411 408.123 1.61064 408.074 1.72795C408.025 1.84526 408 1.97104 408 2.09808V15.7102C408.002 15.9654 408.105 16.2093 408.287 16.3885C408.469 16.5678 408.714 16.6678 408.969 16.6668ZM416.354 15.6898C415.965 15.4721 415.511 15.4006 415.074 15.4883C414.636 15.576 414.245 15.8171 413.97 16.168L412.551 17.9094C412.4 18.0946 412.287 18.3079 412.22 18.537C412.152 18.7662 412.131 19.0065 412.157 19.244C412.183 19.4814 412.257 19.7113 412.373 19.9201C412.489 20.1289 412.645 20.3125 412.833 20.4602L413.05 20.6278C413.332 20.8495 413.674 20.9816 414.032 21.0071C414.39 21.0326 414.747 20.9503 415.058 20.7708C415.072 20.761 415.09 20.7559 415.107 20.7561C415.125 20.7564 415.142 20.762 415.156 20.7722C415.17 20.7825 415.181 20.7969 415.187 20.8134C415.193 20.83 415.193 20.8479 415.189 20.8649C415.124 21.1909 415.151 21.5284 415.267 21.84C415.382 22.1516 415.582 22.4253 415.843 22.6308L416.019 22.7697C416.291 22.9836 416.618 23.115 416.962 23.1483C417.307 23.1816 417.653 23.1155 417.961 22.9578C417.976 22.9504 417.993 22.9472 418.01 22.9485C418.026 22.9497 418.042 22.9555 418.056 22.9651C418.07 22.9747 418.081 22.9878 418.088 23.003C418.095 23.0183 418.098 23.0351 418.096 23.0518C418.061 23.36 418.105 23.6721 418.224 23.9583C418.344 24.2445 418.535 24.4954 418.779 24.6869L418.902 24.7809C419.177 24.9963 419.508 25.1282 419.856 25.1608C420.204 25.1934 420.554 25.1254 420.864 24.9648C420.879 24.9557 420.896 24.9505 420.913 24.9498C420.931 24.949 420.948 24.9527 420.964 24.9605C420.979 24.9682 420.993 24.9799 421.002 24.9942C421.012 25.0086 421.018 25.0252 421.02 25.0425C421.093 25.4939 421.334 25.9011 421.694 26.183L421.772 26.2443C421.98 26.407 422.221 26.5231 422.477 26.5846C422.734 26.6461 423.001 26.6516 423.26 26.6008C423.52 26.55 423.765 26.4441 423.979 26.2902C424.194 26.1363 424.373 25.938 424.504 25.7088L424.769 25.2428C424.989 24.874 425.078 24.4414 425.02 24.0159C424.962 23.5905 424.761 23.1972 424.451 22.9005C424.186 22.6606 423.856 22.5034 423.503 22.4482C423.15 22.393 422.789 22.4422 422.463 22.5899C422.455 22.5944 422.445 22.5965 422.435 22.596C422.426 22.5954 422.416 22.5923 422.408 22.5868C422.4 22.5813 422.394 22.5738 422.39 22.5649C422.386 22.5561 422.384 22.5464 422.386 22.5367C422.401 22.2358 422.341 21.9358 422.212 21.6638C422.082 21.3918 421.887 21.1564 421.643 20.979C421.399 20.8016 421.115 20.6878 420.817 20.6479C420.518 20.608 420.214 20.6432 419.932 20.7504C419.662 20.7994 419.719 20.5624 419.719 20.5624C419.862 20.216 419.894 19.8339 419.81 19.4688C419.726 19.1038 419.53 18.7738 419.251 18.5247C418.971 18.2755 418.621 18.1194 418.248 18.078C417.876 18.0366 417.5 18.112 417.172 18.2937C416.972 18.3223 416.996 18.1343 416.996 18.1343C417.233 17.7245 417.299 17.2377 417.179 16.7799C417.058 16.322 416.762 15.9302 416.354 15.6898Z" fill="#1F282C"/>
<path d="M135.129 2.72759L142.113 -2.58647C143.054 -3.30014 144.161 -3.76246 145.33 -3.92982C146.499 -4.09718 147.691 -3.96405 148.795 -3.543L159.929 0.704159C160.655 0.977285 161.424 1.11581 162.199 1.11293H164.031C164.159 1.11236 164.287 1.13757 164.406 1.18708C164.525 1.23659 164.633 1.3094 164.723 1.40121C164.813 1.49302 164.884 1.60198 164.932 1.72167C164.979 1.84135 165.003 1.96933 165 2.09808V15.7102C165 15.9661 164.898 16.2115 164.717 16.3924C164.536 16.5733 164.291 16.6749 164.035 16.6749H161.614C161.267 16.6757 160.931 16.7955 160.661 17.0142L160.109 17.4639C160.041 17.5179 159.955 17.5431 159.868 17.5339C159.782 17.5247 159.702 17.482 159.647 17.4148L146.672 1.65251C146.514 1.45963 146.293 1.32855 146.048 1.28221C145.803 1.23588 145.549 1.27725 145.331 1.39907L139.386 4.73057C138.796 5.05991 138.138 5.2486 137.464 5.28193C136.789 5.31525 136.116 5.19231 135.497 4.9227C135.293 4.83506 135.115 4.69786 134.979 4.52363C134.842 4.34941 134.751 4.14371 134.715 3.92537C134.678 3.70702 134.697 3.48298 134.769 3.27374C134.841 3.06449 134.965 2.87672 135.129 2.72759ZM125.969 16.6668H128.063L129.523 14.8804C129.957 14.3541 130.527 13.9568 131.172 13.7316C131.816 13.5064 132.51 13.462 133.178 13.6031C133.846 13.7442 134.462 14.0655 134.961 14.5321C135.459 14.9987 135.82 15.5927 136.004 16.2498C136.621 16.4199 137.185 16.7463 137.64 17.1974C138.094 17.6484 138.425 18.209 138.6 18.8251C139.518 19.0918 140.298 19.7005 140.78 20.5256C141.572 20.6494 142.305 21.0232 142.869 21.5925C143.452 22.203 143.819 22.9866 143.916 23.8246C144.012 24.6625 143.833 25.5091 143.405 26.2361L143.209 26.5836C143.205 26.5881 143.203 26.5939 143.203 26.5999C143.203 26.606 143.205 26.6118 143.209 26.6163C143.558 26.8594 143.971 26.9929 144.396 26.9997C144.821 27.0065 145.238 26.8863 145.595 26.6544C145.951 26.4226 146.23 26.0896 146.396 25.6983C146.561 25.307 146.606 24.8751 146.525 24.458C146.52 24.4477 146.519 24.436 146.522 24.425C146.526 24.4141 146.533 24.4048 146.543 24.3991C146.553 24.3934 146.564 24.3916 146.576 24.3942C146.587 24.3968 146.596 24.4035 146.603 24.413L146.762 24.5683C147.122 24.9278 147.595 25.1518 148.101 25.2025C148.607 25.2532 149.115 25.1273 149.539 24.8463C149.878 24.6093 150.142 24.2788 150.297 23.8949C150.453 23.511 150.493 23.0903 150.414 22.6839C150.409 22.6737 150.408 22.6619 150.411 22.6509C150.414 22.64 150.422 22.6307 150.432 22.625C150.442 22.6193 150.453 22.6175 150.464 22.6201C150.476 22.6227 150.485 22.6294 150.492 22.6389L150.651 22.7943C151.01 23.1527 151.483 23.3761 151.988 23.4268C152.493 23.4774 153 23.3522 153.423 23.0722C153.768 22.8367 154.035 22.5058 154.194 22.1201C154.352 21.7345 154.394 21.3109 154.315 20.9016C154.31 20.8914 154.309 20.8796 154.312 20.8687C154.315 20.8577 154.323 20.8485 154.333 20.8427C154.343 20.837 154.354 20.8353 154.365 20.8379C154.377 20.8405 154.386 20.8472 154.393 20.8567L154.573 21.0284C154.913 21.3664 155.356 21.5828 155.832 21.6441C156.308 21.7054 156.791 21.6083 157.206 21.3676C157.477 21.2055 157.71 20.9852 157.886 20.7227C158.062 20.4602 158.178 20.1619 158.225 19.8493C158.273 19.5367 158.25 19.2175 158.159 18.9146C158.069 18.6117 157.912 18.3327 157.701 18.0975L156.392 16.5196L145.818 3.6555C145.766 3.59185 145.693 3.54871 145.612 3.53374C145.531 3.51877 145.447 3.53295 145.376 3.57375L140.322 6.40246C139.519 6.85249 138.627 7.12219 137.709 7.19278C136.791 7.26338 135.869 7.13317 135.006 6.81123C134.531 6.64489 134.1 6.37526 133.742 6.02181C133.384 5.66836 133.109 5.2399 132.937 4.76736C132.8 4.28111 132.76 3.77248 132.82 3.27084C132.881 2.76919 133.04 2.28446 133.289 1.84464C133.328 1.77081 133.348 1.68788 133.346 1.60402C133.344 1.52017 133.32 1.4383 133.277 1.36649C133.234 1.29467 133.172 1.2354 133.099 1.19452C133.026 1.15364 132.943 1.13256 132.859 1.13337H125.969C125.842 1.13283 125.716 1.15739 125.599 1.20563C125.481 1.25387 125.374 1.32484 125.284 1.41448C125.194 1.50411 125.123 1.61064 125.074 1.72795C125.025 1.84526 125 1.97104 125 2.09808V15.7102C125.002 15.9654 125.105 16.2093 125.287 16.3885C125.469 16.5678 125.714 16.6678 125.969 16.6668ZM133.354 15.6898C132.965 15.4721 132.511 15.4006 132.074 15.4883C131.636 15.576 131.245 15.8171 130.97 16.168L129.551 17.9094C129.4 18.0946 129.287 18.3079 129.22 18.537C129.152 18.7662 129.131 19.0065 129.157 19.244C129.183 19.4814 129.257 19.7113 129.373 19.9201C129.489 20.1289 129.645 20.3125 129.833 20.4602L130.05 20.6278C130.332 20.8495 130.674 20.9816 131.032 21.0071C131.39 21.0326 131.747 20.9503 132.058 20.7708C132.072 20.761 132.09 20.7559 132.107 20.7561C132.125 20.7564 132.142 20.762 132.156 20.7722C132.17 20.7825 132.181 20.7969 132.187 20.8134C132.193 20.83 132.193 20.8479 132.189 20.8649C132.124 21.1909 132.151 21.5284 132.267 21.84C132.382 22.1516 132.582 22.4253 132.843 22.6308L133.019 22.7697C133.291 22.9836 133.618 23.115 133.962 23.1483C134.307 23.1816 134.653 23.1155 134.961 22.9578C134.976 22.9504 134.993 22.9472 135.01 22.9485C135.026 22.9497 135.042 22.9555 135.056 22.9651C135.07 22.9747 135.081 22.9878 135.088 23.003C135.095 23.0183 135.098 23.0351 135.096 23.0518C135.061 23.36 135.105 23.6721 135.224 23.9583C135.344 24.2445 135.535 24.4954 135.779 24.6869L135.902 24.7809C136.177 24.9963 136.508 25.1282 136.856 25.1608C137.204 25.1934 137.554 25.1254 137.864 24.9648C137.879 24.9557 137.896 24.9505 137.913 24.9498C137.931 24.949 137.948 24.9527 137.964 24.9605C137.979 24.9682 137.993 24.9799 138.002 24.9942C138.012 25.0086 138.018 25.0252 138.02 25.0425C138.093 25.4939 138.334 25.9011 138.694 26.183L138.772 26.2443C138.98 26.407 139.221 26.5231 139.477 26.5846C139.734 26.6461 140.001 26.6516 140.26 26.6008C140.52 26.55 140.765 26.4441 140.979 26.2902C141.194 26.1363 141.373 25.938 141.504 25.7088L141.769 25.2428C141.989 24.874 142.078 24.4414 142.02 24.0159C141.962 23.5905 141.761 23.1972 141.451 22.9005C141.186 22.6606 140.856 22.5034 140.503 22.4482C140.15 22.393 139.789 22.4422 139.463 22.5899C139.455 22.5944 139.445 22.5965 139.435 22.596C139.426 22.5954 139.416 22.5923 139.408 22.5868C139.4 22.5813 139.394 22.5738 139.39 22.5649C139.386 22.5561 139.384 22.5464 139.386 22.5367C139.401 22.2358 139.341 21.9358 139.212 21.6638C139.082 21.3918 138.887 21.1564 138.643 20.979C138.399 20.8016 138.115 20.6878 137.817 20.6479C137.518 20.608 137.214 20.6432 136.932 20.7504C136.662 20.7994 136.719 20.5624 136.719 20.5624C136.862 20.216 136.894 19.8339 136.81 19.4688C136.726 19.1038 136.53 18.7738 136.251 18.5247C135.971 18.2755 135.621 18.1194 135.248 18.078C134.876 18.0366 134.5 18.112 134.172 18.2937C133.972 18.3223 133.996 18.1343 133.996 18.1343C134.233 17.7245 134.299 17.2377 134.179 16.7799C134.058 16.322 133.762 15.9302 133.354 15.6898Z" fill="#1F282C"/>
<path d="M91.0773 42.9063L95.2678 39.8208C95.8322 39.4064 96.4965 39.1379 97.1979 39.0408C97.8993 38.9436 98.6148 39.0209 99.2768 39.2654L105.958 41.7314C106.393 41.89 106.854 41.9705 107.319 41.9688H108.418C108.496 41.9685 108.572 41.9831 108.644 42.0119C108.715 42.0406 108.78 42.0829 108.834 42.1362C108.888 42.1895 108.931 42.2528 108.959 42.3223C108.988 42.3918 109.002 42.4661 109 42.5408V50.4446C109 50.5932 108.939 50.7357 108.83 50.8407C108.722 50.9458 108.574 51.0048 108.421 51.0048H106.968C106.76 51.0053 106.558 51.0748 106.397 51.2018L106.066 51.4629C106.025 51.4943 105.973 51.5089 105.921 51.5036C105.869 51.4982 105.821 51.4734 105.788 51.4344L98.0034 42.2821C97.9084 42.1701 97.7758 42.094 97.6287 42.0671C97.4815 42.0402 97.3293 42.0642 97.1987 42.1349L93.6313 44.0694C93.2776 44.2606 92.8829 44.3702 92.4782 44.3895C92.0735 44.4089 91.6696 44.3375 91.2981 44.1809C91.176 44.13 91.0691 44.0504 90.9872 43.9492C90.9052 43.848 90.8507 43.7286 90.8287 43.6018C90.8068 43.475 90.818 43.345 90.8614 43.2235C90.9048 43.102 90.979 42.9929 91.0773 42.9063ZM85.5815 51H86.8377L87.7135 49.9628C87.9742 49.6572 88.3165 49.4265 88.7031 49.2958C89.0898 49.165 89.5061 49.1392 89.9068 49.2211C90.3076 49.3031 90.6774 49.4896 90.9763 49.7606C91.2752 50.0315 91.4917 50.3764 91.6023 50.758C91.9729 50.8567 92.3109 51.0462 92.5838 51.3081C92.8567 51.5701 93.0552 51.8956 93.1602 52.2533C93.7108 52.4082 94.1789 52.7616 94.468 53.2407C94.9434 53.3126 95.3827 53.5296 95.7217 53.8601C96.071 54.2147 96.2913 54.6697 96.3493 55.1562C96.4073 55.6428 96.2998 56.1343 96.0431 56.5565L95.9253 56.7582C95.9229 56.7608 95.9216 56.7642 95.9216 56.7677C95.9216 56.7712 95.9229 56.7746 95.9253 56.7772C96.1345 56.9184 96.3825 56.9959 96.6376 56.9998C96.8926 57.0038 97.143 56.934 97.3568 56.7993C97.5705 56.6647 97.7379 56.4714 97.8373 56.2442C97.9368 56.017 97.9639 55.7662 97.9151 55.524C97.912 55.518 97.9114 55.5112 97.9134 55.5048C97.9154 55.4985 97.9198 55.4931 97.9257 55.4898C97.9317 55.4865 97.9387 55.4854 97.9454 55.4869C97.952 55.4885 97.9579 55.4924 97.9617 55.4979L98.0574 55.5881C98.2732 55.7968 98.5569 55.9269 98.8606 55.9563C99.1642 55.9857 99.469 55.9126 99.7233 55.7495C99.9271 55.6119 100.085 55.4199 100.178 55.197C100.272 54.9742 100.296 54.7299 100.248 54.4939C100.245 54.4879 100.245 54.4811 100.247 54.4747C100.249 54.4684 100.253 54.463 100.259 54.4597C100.265 54.4564 100.272 54.4553 100.279 54.4568C100.285 54.4583 100.291 54.4622 100.295 54.4678L100.391 54.558C100.606 54.7661 100.89 54.8958 101.193 54.9252C101.496 54.9546 101.8 54.8819 102.054 54.7194C102.261 54.5826 102.421 54.3904 102.516 54.1665C102.611 53.9426 102.637 53.6967 102.589 53.459C102.586 53.4531 102.585 53.4462 102.587 53.4399C102.589 53.4335 102.594 53.4281 102.6 53.4248C102.606 53.4215 102.613 53.4205 102.619 53.422C102.626 53.4235 102.632 53.4274 102.636 53.4329L102.744 53.5326C102.948 53.7289 103.213 53.8545 103.499 53.8901C103.785 53.9257 104.074 53.8693 104.324 53.7296C104.486 53.6354 104.626 53.5075 104.732 53.3551C104.837 53.2027 104.907 53.0295 104.935 52.848C104.964 52.6665 104.95 52.4811 104.896 52.3052C104.841 52.1294 104.747 51.9673 104.62 51.8308L103.835 50.9146L97.4906 43.4451C97.4594 43.4082 97.4156 43.3831 97.3671 43.3744C97.3186 43.3657 97.2685 43.374 97.2257 43.3977L94.1932 45.0401C93.7113 45.3014 93.1763 45.458 92.6255 45.499C92.0746 45.54 91.5212 45.4644 91.0036 45.2775C90.7188 45.1809 90.4597 45.0243 90.245 44.8191C90.0303 44.6139 89.8654 44.3651 89.7622 44.0907C89.6798 43.8084 89.656 43.5131 89.6922 43.2218C89.7284 42.9305 89.8239 42.649 89.9732 42.3937C89.9971 42.3508 90.009 42.3026 90.0078 42.2539C90.0066 42.2053 89.9923 42.1577 89.9662 42.116C89.9402 42.0743 89.9034 42.0399 89.8595 42.0162C89.8155 41.9924 89.7659 41.9802 89.7156 41.9807H85.5815C85.5052 41.9804 85.4297 41.9946 85.3591 42.0226C85.2886 42.0506 85.2245 42.0918 85.1705 42.1439C85.1164 42.1959 85.0736 42.2578 85.0443 42.3259C85.0151 42.394 85 42.4671 85 42.5408V50.4446C85.0013 50.5928 85.0632 50.7344 85.1722 50.8385C85.2812 50.9426 85.4283 51.0007 85.5815 51ZM90.0124 50.4328C89.779 50.3064 89.5065 50.2649 89.2442 50.3158C88.9819 50.3667 88.747 50.5067 88.5821 50.7105L87.7307 51.7216C87.6401 51.8291 87.5725 51.953 87.5319 52.086C87.4913 52.2191 87.4785 52.3586 87.4943 52.4965C87.51 52.6344 87.554 52.7678 87.6237 52.8891C87.6933 53.0103 87.7873 53.1169 87.9 53.2027L88.03 53.3C88.1993 53.4287 88.4045 53.5054 88.6192 53.5202C88.8339 53.535 89.0483 53.4873 89.2347 53.3831C89.2434 53.3774 89.2538 53.3744 89.2643 53.3745C89.2748 53.3747 89.2851 53.3779 89.2936 53.3839C89.3022 53.3898 89.3086 53.3982 89.3121 53.4078C89.3156 53.4174 89.316 53.4278 89.3132 53.4377C89.2746 53.627 89.2908 53.8229 89.3601 54.0039C89.4294 54.1848 89.549 54.3437 89.7058 54.463L89.8113 54.5437C89.9743 54.6679 90.1708 54.7442 90.3774 54.7635C90.584 54.7829 90.792 54.7445 90.9767 54.6529C90.9857 54.6486 90.9958 54.6467 91.0058 54.6475C91.0158 54.6482 91.0255 54.6516 91.0338 54.6571C91.042 54.6627 91.0486 54.6703 91.0528 54.6792C91.057 54.688 91.0587 54.6978 91.0576 54.7075C91.0364 54.8864 91.0629 55.0676 91.1346 55.2339C91.2063 55.4001 91.3209 55.5457 91.4674 55.6569L91.541 55.7115C91.706 55.8366 91.9048 55.9132 92.1136 55.9321C92.3224 55.951 92.5324 55.9115 92.7186 55.8183C92.7275 55.813 92.7376 55.81 92.7481 55.8095C92.7585 55.8091 92.7689 55.8112 92.7782 55.8158C92.7875 55.8203 92.7955 55.827 92.8014 55.8354C92.8073 55.8437 92.8109 55.8533 92.8119 55.8634C92.8559 56.1255 93.0005 56.362 93.2167 56.5256L93.2633 56.5612C93.3881 56.6557 93.5324 56.7231 93.6865 56.7588C93.8405 56.7945 94.0008 56.7977 94.1562 56.7682C94.3117 56.7387 94.4588 56.6772 94.5875 56.5878C94.7162 56.4985 94.8236 56.3833 94.9022 56.2503L95.0617 55.9797C95.1936 55.7655 95.2466 55.5144 95.2118 55.2673C95.177 55.0203 95.0566 54.7919 94.8703 54.6197C94.7114 54.4804 94.5139 54.389 94.302 54.357C94.0901 54.3249 93.8732 54.3535 93.6779 54.4393C93.6728 54.4419 93.667 54.4431 93.6612 54.4428C93.6554 54.4425 93.6498 54.4407 93.645 54.4375C93.6402 54.4343 93.6364 54.4299 93.634 54.4248C93.6316 54.4197 93.6306 54.414 93.6313 54.4084C93.6407 54.2337 93.6049 54.0595 93.5271 53.9016C93.4493 53.7436 93.332 53.607 93.1858 53.504C93.0396 53.4009 92.8692 53.3349 92.6899 53.3117C92.5106 53.2885 92.3282 53.309 92.1592 53.3712C91.9973 53.3997 92.0317 53.262 92.0317 53.262C92.1173 53.0609 92.1363 52.839 92.0859 52.6271C92.0355 52.4151 91.9183 52.2235 91.7504 52.0788C91.5825 51.9342 91.3723 51.8435 91.1489 51.8195C90.9254 51.7955 90.6998 51.8392 90.5031 51.9447C90.3829 51.9613 90.3976 51.8521 90.3976 51.8521C90.5399 51.6142 90.5793 51.3316 90.5071 51.0657C90.435 50.7999 90.2572 50.5724 90.0124 50.4328Z" fill="#1F282C"/>
<path d="M446.077 67.9063L450.268 64.8208C450.832 64.4064 451.496 64.1379 452.198 64.0408C452.899 63.9436 453.615 64.0209 454.277 64.2654L460.958 66.7314C461.393 66.89 461.854 66.9705 462.319 66.9688H463.418C463.496 66.9685 463.572 66.9831 463.644 67.0119C463.715 67.0406 463.78 67.0829 463.834 67.1362C463.888 67.1895 463.931 67.2528 463.959 67.3223C463.988 67.3918 464.002 67.4661 464 67.5408V75.4446C464 75.5932 463.939 75.7357 463.83 75.8407C463.722 75.9458 463.574 76.0048 463.421 76.0048H461.968C461.76 76.0053 461.558 76.0748 461.397 76.2018L461.066 76.4629C461.025 76.4943 460.973 76.5089 460.921 76.5036C460.869 76.4982 460.821 76.4734 460.788 76.4344L453.003 67.2821C452.908 67.1701 452.776 67.094 452.629 67.0671C452.482 67.0402 452.329 67.0642 452.199 67.1349L448.631 69.0694C448.278 69.2606 447.883 69.3702 447.478 69.3895C447.073 69.4089 446.67 69.3375 446.298 69.1809C446.176 69.13 446.069 69.0504 445.987 68.9492C445.905 68.848 445.851 68.7286 445.829 68.6018C445.807 68.475 445.818 68.345 445.861 68.2235C445.905 68.102 445.979 67.9929 446.077 67.9063ZM440.581 76H441.838L442.714 74.9628C442.974 74.6572 443.316 74.4265 443.703 74.2958C444.09 74.165 444.506 74.1392 444.907 74.2211C445.308 74.3031 445.677 74.4896 445.976 74.7606C446.275 75.0315 446.492 75.3764 446.602 75.758C446.973 75.8567 447.311 76.0462 447.584 76.3081C447.857 76.5701 448.055 76.8956 448.16 77.2533C448.711 77.4082 449.179 77.7616 449.468 78.2407C449.943 78.3126 450.383 78.5296 450.722 78.8601C451.071 79.2147 451.291 79.6697 451.349 80.1562C451.407 80.6428 451.3 81.1343 451.043 81.5565L450.925 81.7582C450.923 81.7608 450.922 81.7642 450.922 81.7677C450.922 81.7712 450.923 81.7746 450.925 81.7772C451.135 81.9184 451.383 81.9959 451.638 81.9998C451.893 82.0038 452.143 81.934 452.357 81.7993C452.571 81.6647 452.738 81.4714 452.837 81.2442C452.937 81.017 452.964 80.7662 452.915 80.524C452.912 80.518 452.911 80.5112 452.913 80.5048C452.915 80.4985 452.92 80.4931 452.926 80.4898C452.932 80.4865 452.939 80.4854 452.945 80.4869C452.952 80.4885 452.958 80.4924 452.962 80.4979L453.057 80.5881C453.273 80.7968 453.557 80.9269 453.861 80.9563C454.164 80.9857 454.469 80.9126 454.723 80.7495C454.927 80.6119 455.085 80.4199 455.178 80.197C455.272 79.9742 455.296 79.7299 455.248 79.4939C455.245 79.4879 455.245 79.4811 455.247 79.4747C455.249 79.4684 455.253 79.463 455.259 79.4597C455.265 79.4564 455.272 79.4553 455.279 79.4568C455.285 79.4583 455.291 79.4622 455.295 79.4678L455.391 79.558C455.606 79.7661 455.89 79.8958 456.193 79.9252C456.496 79.9546 456.8 79.8819 457.054 79.7194C457.261 79.5826 457.421 79.3904 457.516 79.1665C457.611 78.9426 457.637 78.6967 457.589 78.459C457.586 78.4531 457.585 78.4462 457.587 78.4399C457.589 78.4335 457.594 78.4281 457.6 78.4248C457.606 78.4215 457.613 78.4205 457.619 78.422C457.626 78.4235 457.632 78.4274 457.636 78.4329L457.744 78.5326C457.948 78.7289 458.213 78.8545 458.499 78.8901C458.785 78.9257 459.074 78.8693 459.324 78.7296C459.486 78.6354 459.626 78.5075 459.732 78.3551C459.837 78.2027 459.907 78.0295 459.935 77.848C459.964 77.6665 459.95 77.4811 459.896 77.3052C459.841 77.1294 459.747 76.9673 459.62 76.8308L458.835 75.9146L452.491 68.4451C452.459 68.4082 452.416 68.3831 452.367 68.3744C452.319 68.3657 452.268 68.374 452.226 68.3977L449.193 70.0401C448.711 70.3014 448.176 70.458 447.625 70.499C447.075 70.54 446.521 70.4644 446.004 70.2775C445.719 70.1809 445.46 70.0243 445.245 69.8191C445.03 69.6139 444.865 69.3651 444.762 69.0907C444.68 68.8084 444.656 68.5131 444.692 68.2218C444.728 67.9305 444.824 67.649 444.973 67.3937C444.997 67.3508 445.009 67.3026 445.008 67.2539C445.007 67.2053 444.992 67.1577 444.966 67.116C444.94 67.0743 444.903 67.0399 444.859 67.0162C444.816 66.9924 444.766 66.9802 444.716 66.9807H440.581C440.505 66.9804 440.43 66.9946 440.359 67.0226C440.289 67.0506 440.224 67.0918 440.17 67.1439C440.116 67.1959 440.074 67.2578 440.044 67.3259C440.015 67.394 440 67.4671 440 67.5408V75.4446C440.001 75.5928 440.063 75.7344 440.172 75.8385C440.281 75.9426 440.428 76.0007 440.581 76ZM445.012 75.4328C444.779 75.3064 444.506 75.2649 444.244 75.3158C443.982 75.3667 443.747 75.5067 443.582 75.7105L442.731 76.7216C442.64 76.8291 442.572 76.953 442.532 77.086C442.491 77.2191 442.479 77.3586 442.494 77.4965C442.51 77.6344 442.554 77.7678 442.624 77.8891C442.693 78.0103 442.787 78.1169 442.9 78.2027L443.03 78.3C443.199 78.4287 443.404 78.5054 443.619 78.5202C443.834 78.535 444.048 78.4873 444.235 78.3831C444.243 78.3774 444.254 78.3744 444.264 78.3745C444.275 78.3747 444.285 78.3779 444.294 78.3839C444.302 78.3898 444.309 78.3982 444.312 78.4078C444.316 78.4174 444.316 78.4278 444.313 78.4377C444.275 78.627 444.291 78.8229 444.36 79.0039C444.429 79.1848 444.549 79.3437 444.706 79.463L444.811 79.5437C444.974 79.6679 445.171 79.7442 445.377 79.7635C445.584 79.7829 445.792 79.7445 445.977 79.6529C445.986 79.6486 445.996 79.6467 446.006 79.6475C446.016 79.6482 446.025 79.6516 446.034 79.6571C446.042 79.6627 446.049 79.6703 446.053 79.6792C446.057 79.688 446.059 79.6978 446.058 79.7075C446.036 79.8864 446.063 80.0676 446.135 80.2339C446.206 80.4001 446.321 80.5457 446.467 80.6569L446.541 80.7115C446.706 80.8366 446.905 80.9132 447.114 80.9321C447.322 80.951 447.532 80.9115 447.719 80.8183C447.728 80.813 447.738 80.81 447.748 80.8095C447.759 80.8091 447.769 80.8112 447.778 80.8158C447.788 80.8203 447.796 80.827 447.801 80.8354C447.807 80.8437 447.811 80.8533 447.812 80.8634C447.856 81.1255 448 81.362 448.217 81.5256L448.263 81.5612C448.388 81.6557 448.532 81.7231 448.686 81.7588C448.841 81.7945 449.001 81.7977 449.156 81.7682C449.312 81.7387 449.459 81.6772 449.588 81.5878C449.716 81.4985 449.824 81.3833 449.902 81.2503L450.062 80.9797C450.194 80.7655 450.247 80.5144 450.212 80.2673C450.177 80.0203 450.057 79.7919 449.87 79.6197C449.711 79.4804 449.514 79.389 449.302 79.357C449.09 79.3249 448.873 79.3535 448.678 79.4393C448.673 79.4419 448.667 79.4431 448.661 79.4428C448.655 79.4425 448.65 79.4407 448.645 79.4375C448.64 79.4343 448.636 79.4299 448.634 79.4248C448.632 79.4197 448.631 79.414 448.631 79.4084C448.641 79.2337 448.605 79.0595 448.527 78.9016C448.449 78.7436 448.332 78.607 448.186 78.504C448.04 78.4009 447.869 78.3349 447.69 78.3117C447.511 78.2885 447.328 78.309 447.159 78.3712C446.997 78.3997 447.032 78.262 447.032 78.262C447.117 78.0609 447.136 77.839 447.086 77.6271C447.036 77.4151 446.918 77.2235 446.75 77.0788C446.583 76.9342 446.372 76.8435 446.149 76.8195C445.925 76.7955 445.7 76.8392 445.503 76.9447C445.383 76.9613 445.398 76.8521 445.398 76.8521C445.54 76.6142 445.579 76.3316 445.507 76.0657C445.435 75.7999 445.257 75.5724 445.012 75.4328Z" fill="#1F282C"/>
<path d="M375.077 30.9063L379.268 27.8208C379.832 27.4064 380.496 27.1379 381.198 27.0408C381.899 26.9436 382.615 27.0209 383.277 27.2654L389.958 29.7314C390.393 29.89 390.854 29.9705 391.319 29.9688H392.418C392.496 29.9685 392.572 29.9831 392.644 30.0119C392.715 30.0406 392.78 30.0829 392.834 30.1362C392.888 30.1895 392.931 30.2528 392.959 30.3223C392.988 30.3918 393.002 30.4661 393 30.5408V38.4446C393 38.5932 392.939 38.7357 392.83 38.8407C392.722 38.9458 392.574 39.0048 392.421 39.0048H390.968C390.76 39.0053 390.558 39.0748 390.397 39.2018L390.066 39.4629C390.025 39.4943 389.973 39.5089 389.921 39.5036C389.869 39.4982 389.821 39.4734 389.788 39.4344L382.003 30.2821C381.908 30.1701 381.776 30.094 381.629 30.0671C381.482 30.0402 381.329 30.0642 381.199 30.1349L377.631 32.0694C377.278 32.2606 376.883 32.3702 376.478 32.3895C376.073 32.4089 375.67 32.3375 375.298 32.1809C375.176 32.13 375.069 32.0504 374.987 31.9492C374.905 31.848 374.851 31.7286 374.829 31.6018C374.807 31.475 374.818 31.345 374.861 31.2235C374.905 31.102 374.979 30.9929 375.077 30.9063ZM369.581 39H370.838L371.714 37.9628C371.974 37.6572 372.316 37.4265 372.703 37.2958C373.09 37.165 373.506 37.1392 373.907 37.2211C374.308 37.3031 374.677 37.4896 374.976 37.7606C375.275 38.0315 375.492 38.3764 375.602 38.758C375.973 38.8567 376.311 39.0462 376.584 39.3081C376.857 39.5701 377.055 39.8956 377.16 40.2533C377.711 40.4082 378.179 40.7616 378.468 41.2407C378.943 41.3126 379.383 41.5296 379.722 41.8601C380.071 42.2147 380.291 42.6697 380.349 43.1562C380.407 43.6428 380.3 44.1343 380.043 44.5565L379.925 44.7582C379.923 44.7608 379.922 44.7642 379.922 44.7677C379.922 44.7712 379.923 44.7746 379.925 44.7772C380.135 44.9184 380.383 44.9959 380.638 44.9998C380.893 45.0038 381.143 44.934 381.357 44.7993C381.571 44.6647 381.738 44.4714 381.837 44.2442C381.937 44.017 381.964 43.7662 381.915 43.524C381.912 43.518 381.911 43.5112 381.913 43.5048C381.915 43.4985 381.92 43.4931 381.926 43.4898C381.932 43.4865 381.939 43.4854 381.945 43.4869C381.952 43.4885 381.958 43.4924 381.962 43.4979L382.057 43.5881C382.273 43.7968 382.557 43.9269 382.861 43.9563C383.164 43.9857 383.469 43.9126 383.723 43.7495C383.927 43.6119 384.085 43.4199 384.178 43.197C384.272 42.9742 384.296 42.7299 384.248 42.4939C384.245 42.4879 384.245 42.4811 384.247 42.4747C384.249 42.4684 384.253 42.463 384.259 42.4597C384.265 42.4564 384.272 42.4553 384.279 42.4568C384.285 42.4583 384.291 42.4622 384.295 42.4678L384.391 42.558C384.606 42.7661 384.89 42.8958 385.193 42.9252C385.496 42.9546 385.8 42.8819 386.054 42.7194C386.261 42.5826 386.421 42.3904 386.516 42.1665C386.611 41.9426 386.637 41.6967 386.589 41.459C386.586 41.4531 386.585 41.4462 386.587 41.4399C386.589 41.4335 386.594 41.4281 386.6 41.4248C386.606 41.4215 386.613 41.4205 386.619 41.422C386.626 41.4235 386.632 41.4274 386.636 41.4329L386.744 41.5326C386.948 41.7289 387.213 41.8545 387.499 41.8901C387.785 41.9257 388.074 41.8693 388.324 41.7296C388.486 41.6354 388.626 41.5075 388.732 41.3551C388.837 41.2027 388.907 41.0295 388.935 40.848C388.964 40.6665 388.95 40.4811 388.896 40.3052C388.841 40.1294 388.747 39.9673 388.62 39.8308L387.835 38.9146L381.491 31.4451C381.459 31.4082 381.416 31.3831 381.367 31.3744C381.319 31.3657 381.268 31.374 381.226 31.3977L378.193 33.0401C377.711 33.3014 377.176 33.458 376.625 33.499C376.075 33.54 375.521 33.4644 375.004 33.2775C374.719 33.1809 374.46 33.0243 374.245 32.8191C374.03 32.6139 373.865 32.3651 373.762 32.0907C373.68 31.8084 373.656 31.5131 373.692 31.2218C373.728 30.9305 373.824 30.649 373.973 30.3937C373.997 30.3508 374.009 30.3026 374.008 30.2539C374.007 30.2053 373.992 30.1577 373.966 30.116C373.94 30.0743 373.903 30.0399 373.859 30.0162C373.816 29.9924 373.766 29.9802 373.716 29.9807H369.581C369.505 29.9804 369.43 29.9946 369.359 30.0226C369.289 30.0506 369.224 30.0918 369.17 30.1439C369.116 30.1959 369.074 30.2578 369.044 30.3259C369.015 30.394 369 30.4671 369 30.5408V38.4446C369.001 38.5928 369.063 38.7344 369.172 38.8385C369.281 38.9426 369.428 39.0007 369.581 39ZM374.012 38.4328C373.779 38.3064 373.506 38.2649 373.244 38.3158C372.982 38.3667 372.747 38.5067 372.582 38.7105L371.731 39.7216C371.64 39.8291 371.572 39.953 371.532 40.086C371.491 40.2191 371.479 40.3586 371.494 40.4965C371.51 40.6344 371.554 40.7678 371.624 40.8891C371.693 41.0103 371.787 41.1169 371.9 41.2027L372.03 41.3C372.199 41.4287 372.404 41.5054 372.619 41.5202C372.834 41.535 373.048 41.4873 373.235 41.3831C373.243 41.3774 373.254 41.3744 373.264 41.3745C373.275 41.3747 373.285 41.3779 373.294 41.3839C373.302 41.3898 373.309 41.3982 373.312 41.4078C373.316 41.4174 373.316 41.4278 373.313 41.4377C373.275 41.627 373.291 41.8229 373.36 42.0039C373.429 42.1848 373.549 42.3437 373.706 42.463L373.811 42.5437C373.974 42.6679 374.171 42.7442 374.377 42.7635C374.584 42.7829 374.792 42.7445 374.977 42.6529C374.986 42.6486 374.996 42.6467 375.006 42.6475C375.016 42.6482 375.025 42.6516 375.034 42.6571C375.042 42.6627 375.049 42.6703 375.053 42.6792C375.057 42.688 375.059 42.6978 375.058 42.7075C375.036 42.8864 375.063 43.0676 375.135 43.2339C375.206 43.4001 375.321 43.5457 375.467 43.6569L375.541 43.7115C375.706 43.8366 375.905 43.9132 376.114 43.9321C376.322 43.951 376.532 43.9115 376.719 43.8183C376.728 43.813 376.738 43.81 376.748 43.8095C376.759 43.8091 376.769 43.8112 376.778 43.8158C376.788 43.8203 376.796 43.827 376.801 43.8354C376.807 43.8437 376.811 43.8533 376.812 43.8634C376.856 44.1255 377 44.362 377.217 44.5256L377.263 44.5612C377.388 44.6557 377.532 44.7231 377.686 44.7588C377.841 44.7945 378.001 44.7977 378.156 44.7682C378.312 44.7387 378.459 44.6772 378.588 44.5878C378.716 44.4985 378.824 44.3833 378.902 44.2503L379.062 43.9797C379.194 43.7655 379.247 43.5144 379.212 43.2673C379.177 43.0203 379.057 42.7919 378.87 42.6197C378.711 42.4804 378.514 42.389 378.302 42.357C378.09 42.3249 377.873 42.3535 377.678 42.4393C377.673 42.4419 377.667 42.4431 377.661 42.4428C377.655 42.4425 377.65 42.4407 377.645 42.4375C377.64 42.4343 377.636 42.4299 377.634 42.4248C377.632 42.4197 377.631 42.414 377.631 42.4084C377.641 42.2337 377.605 42.0595 377.527 41.9016C377.449 41.7436 377.332 41.607 377.186 41.504C377.04 41.4009 376.869 41.3349 376.69 41.3117C376.511 41.2885 376.328 41.309 376.159 41.3712C375.997 41.3997 376.032 41.262 376.032 41.262C376.117 41.0609 376.136 40.839 376.086 40.6271C376.036 40.4151 375.918 40.2235 375.75 40.0788C375.583 39.9342 375.372 39.8435 375.149 39.8195C374.925 39.7955 374.7 39.8392 374.503 39.9447C374.383 39.9613 374.398 39.8521 374.398 39.8521C374.54 39.6142 374.579 39.3316 374.507 39.0657C374.435 38.7999 374.257 38.5724 374.012 38.4328Z" fill="#1F282C"/>
<path d="M26.0773 72.9063L30.2678 69.8208C30.8322 69.4064 31.4965 69.1379 32.1979 69.0408C32.8993 68.9436 33.6148 69.0209 34.2768 69.2654L40.9576 71.7314C41.3928 71.89 41.8542 71.9705 42.3192 71.9688H43.4184C43.4957 71.9685 43.5723 71.9831 43.6436 72.0119C43.715 72.0406 43.7796 72.0829 43.8338 72.1362C43.888 72.1895 43.9306 72.2528 43.9591 72.3223C43.9877 72.3918 44.0015 72.4661 43.9999 72.5408V80.4446C43.9999 80.5932 43.9389 80.7357 43.8303 80.8407C43.7217 80.9458 43.5744 81.0048 43.4209 81.0048H41.9684C41.7602 81.0053 41.5584 81.0748 41.3967 81.2018L41.0655 81.4629C41.0247 81.4943 40.9727 81.5089 40.9209 81.5036C40.869 81.4982 40.8214 81.4734 40.7883 81.4344L33.0034 72.2821C32.9084 72.1701 32.7758 72.094 32.6287 72.0671C32.4815 72.0402 32.3293 72.0642 32.1987 72.1349L28.6313 74.0694C28.2776 74.2606 27.8829 74.3702 27.4782 74.3895C27.0735 74.4089 26.6696 74.3375 26.2981 74.1809C26.176 74.13 26.0691 74.0504 25.9872 73.9492C25.9052 73.848 25.8507 73.7286 25.8287 73.6018C25.8068 73.475 25.818 73.345 25.8614 73.2235C25.9048 73.102 25.979 72.9929 26.0773 72.9063ZM20.5815 81H21.8377L22.7135 79.9628C22.9742 79.6572 23.3165 79.4265 23.7031 79.2958C24.0898 79.165 24.5061 79.1392 24.9068 79.2211C25.3076 79.3031 25.6774 79.4896 25.9763 79.7606C26.2752 80.0315 26.4917 80.3764 26.6023 80.758C26.9729 80.8567 27.3109 81.0462 27.5838 81.3081C27.8567 81.5701 28.0552 81.8956 28.1602 82.2533C28.7108 82.4082 29.1789 82.7616 29.468 83.2407C29.9434 83.3126 30.3827 83.5296 30.7217 83.8601C31.071 84.2147 31.2913 84.6697 31.3493 85.1562C31.4073 85.6428 31.2998 86.1343 31.0431 86.5565L30.9253 86.7582C30.9229 86.7608 30.9216 86.7642 30.9216 86.7677C30.9216 86.7712 30.9229 86.7746 30.9253 86.7772C31.1345 86.9184 31.3825 86.9959 31.6376 86.9998C31.8926 87.0038 32.143 86.934 32.3568 86.7993C32.5705 86.6647 32.7379 86.4714 32.8373 86.2442C32.9368 86.017 32.9639 85.7662 32.9151 85.524C32.912 85.518 32.9114 85.5112 32.9134 85.5048C32.9154 85.4985 32.9198 85.4931 32.9257 85.4898C32.9317 85.4865 32.9387 85.4854 32.9454 85.4869C32.952 85.4885 32.9579 85.4924 32.9617 85.4979L33.0574 85.5881C33.2732 85.7968 33.5569 85.9269 33.8606 85.9563C34.1642 85.9857 34.469 85.9126 34.7233 85.7495C34.9271 85.6119 35.0852 85.4199 35.1784 85.197C35.2716 84.9742 35.2959 84.7299 35.2483 84.4939C35.2453 84.4879 35.2447 84.4811 35.2467 84.4747C35.2486 84.4684 35.2531 84.463 35.259 84.4597C35.2649 84.4564 35.2719 84.4553 35.2786 84.4568C35.2853 84.4583 35.2911 84.4622 35.2949 84.4678L35.3906 84.558C35.6063 84.7661 35.8896 84.8958 36.1927 84.9252C36.4957 84.9546 36.8 84.8819 37.0541 84.7194C37.2606 84.5826 37.4212 84.3904 37.5162 84.1665C37.6112 83.9426 37.6365 83.6967 37.5889 83.459C37.5859 83.4531 37.5853 83.4462 37.5873 83.4399C37.5893 83.4335 37.5937 83.4281 37.5996 83.4248C37.6055 83.4215 37.6126 83.4205 37.6192 83.422C37.6259 83.4235 37.6318 83.4274 37.6356 83.4329L37.7435 83.5326C37.9479 83.7289 38.2134 83.8545 38.499 83.8901C38.7846 83.9257 39.0744 83.8693 39.3236 83.7296C39.4864 83.6354 39.6258 83.5075 39.7315 83.3551C39.8373 83.2027 39.9069 83.0295 39.9352 82.848C39.9636 82.6665 39.9501 82.4811 39.8957 82.3052C39.8412 82.1294 39.7472 81.9673 39.6204 81.8308L38.8353 80.9146L32.4906 73.4451C32.4594 73.4082 32.4156 73.3831 32.3671 73.3744C32.3186 73.3657 32.2685 73.374 32.2257 73.3977L29.1932 75.0401C28.7113 75.3014 28.1763 75.458 27.6255 75.499C27.0746 75.54 26.5212 75.4644 26.0036 75.2775C25.7188 75.1809 25.4597 75.0243 25.245 74.8191C25.0303 74.6139 24.8654 74.3651 24.7622 74.0907C24.6798 73.8084 24.656 73.5131 24.6922 73.2218C24.7284 72.9305 24.8239 72.649 24.9732 72.3937C24.9971 72.3508 25.009 72.3026 25.0078 72.2539C25.0066 72.2053 24.9923 72.1577 24.9662 72.116C24.9402 72.0743 24.9034 72.0399 24.8595 72.0162C24.8155 71.9924 24.7659 71.9802 24.7156 71.9807H20.5815C20.5052 71.9804 20.4297 71.9946 20.3591 72.0226C20.2886 72.0506 20.2245 72.0918 20.1705 72.1439C20.1164 72.1959 20.0736 72.2578 20.0443 72.3259C20.0151 72.394 20 72.4671 20 72.5408V80.4446C20.0013 80.5928 20.0632 80.7344 20.1722 80.8385C20.2812 80.9426 20.4283 81.0007 20.5815 81ZM25.0124 80.4328C24.779 80.3064 24.5065 80.2649 24.2442 80.3158C23.9819 80.3667 23.747 80.5067 23.5821 80.7105L22.7307 81.7216C22.6401 81.8291 22.5725 81.953 22.5319 82.086C22.4913 82.2191 22.4785 82.3586 22.4943 82.4965C22.51 82.6344 22.554 82.7678 22.6237 82.8891C22.6933 83.0103 22.7873 83.1169 22.9 83.2027L23.03 83.3C23.1993 83.4287 23.4045 83.5054 23.6192 83.5202C23.8339 83.535 24.0483 83.4873 24.2347 83.3831C24.2434 83.3774 24.2538 83.3744 24.2643 83.3745C24.2748 83.3747 24.2851 83.3779 24.2936 83.3839C24.3022 83.3898 24.3086 83.3982 24.3121 83.4078C24.3156 83.4174 24.316 83.4278 24.3132 83.4377C24.2746 83.627 24.2908 83.8229 24.3601 84.0039C24.4294 84.1848 24.549 84.3437 24.7058 84.463L24.8113 84.5437C24.9743 84.6679 25.1708 84.7442 25.3774 84.7635C25.584 84.7829 25.792 84.7445 25.9767 84.6529C25.9857 84.6486 25.9958 84.6467 26.0058 84.6475C26.0158 84.6482 26.0255 84.6516 26.0338 84.6571C26.042 84.6627 26.0486 84.6703 26.0528 84.6792C26.057 84.688 26.0587 84.6978 26.0576 84.7075C26.0364 84.8864 26.0629 85.0676 26.1346 85.2339C26.2063 85.4001 26.3209 85.5457 26.4674 85.6569L26.541 85.7115C26.706 85.8366 26.9048 85.9132 27.1136 85.9321C27.3224 85.951 27.5324 85.9115 27.7186 85.8183C27.7275 85.813 27.7376 85.81 27.7481 85.8095C27.7585 85.8091 27.7689 85.8112 27.7782 85.8158C27.7875 85.8203 27.7955 85.827 27.8014 85.8354C27.8073 85.8437 27.8109 85.8533 27.8119 85.8634C27.8559 86.1255 28.0005 86.362 28.2167 86.5256L28.2633 86.5612C28.3881 86.6557 28.5324 86.7231 28.6865 86.7588C28.8405 86.7945 29.0008 86.7977 29.1562 86.7682C29.3117 86.7387 29.4588 86.6772 29.5875 86.5878C29.7162 86.4985 29.8236 86.3833 29.9022 86.2503L30.0617 85.9797C30.1936 85.7655 30.2466 85.5144 30.2118 85.2673C30.177 85.0203 30.0566 84.7919 29.8703 84.6197C29.7114 84.4804 29.5139 84.389 29.302 84.357C29.0901 84.3249 28.8732 84.3535 28.6779 84.4393C28.6728 84.4419 28.667 84.4431 28.6612 84.4428C28.6554 84.4425 28.6498 84.4407 28.645 84.4375C28.6402 84.4343 28.6364 84.4299 28.634 84.4248C28.6316 84.4197 28.6306 84.414 28.6313 84.4084C28.6407 84.2337 28.6049 84.0595 28.5271 83.9016C28.4493 83.7436 28.332 83.607 28.1858 83.504C28.0396 83.4009 27.8692 83.3349 27.6899 83.3117C27.5106 83.2885 27.3282 83.309 27.1592 83.3712C26.9973 83.3997 27.0317 83.262 27.0317 83.262C27.1173 83.0609 27.1363 82.839 27.0859 82.6271C27.0355 82.4151 26.9183 82.2235 26.7504 82.0788C26.5825 81.9342 26.3723 81.8435 26.1489 81.8195C25.9254 81.7955 25.6998 81.8392 25.5031 81.9447C25.3829 81.9613 25.3976 81.8521 25.3976 81.8521C25.5399 81.6142 25.5793 81.3316 25.5071 81.0657C25.435 80.7999 25.2572 80.5724 25.0124 80.4328Z" fill="#1F282C"/>
<path d="M73.0515 72.6042L75.8452 70.5472C76.2215 70.2709 76.6643 70.092 77.1319 70.0272C77.5996 69.9624 78.0765 70.0139 78.5178 70.1769L82.9717 71.821C83.2618 71.9267 83.5695 71.9803 83.8795 71.9792H84.6123C84.6638 71.979 84.7148 71.9887 84.7624 72.0079C84.81 72.0271 84.8531 72.0553 84.8892 72.0908C84.9253 72.1263 84.9537 72.1685 84.9728 72.2148C84.9918 72.2612 85.001 72.3107 84.9999 72.3605V77.6298C84.9999 77.7288 84.9592 77.8238 84.8869 77.8938C84.8145 77.9639 84.7163 78.0032 84.6139 78.0032H83.6456C83.5068 78.0035 83.3723 78.0499 83.2645 78.1345L83.0437 78.3086C83.0165 78.3295 82.9818 78.3393 82.9472 78.3357C82.9127 78.3322 82.8809 78.3156 82.8588 78.2896L77.6689 72.1881C77.6056 72.1134 77.5172 72.0627 77.4191 72.0447C77.321 72.0268 77.2196 72.0428 77.1324 72.09L74.7542 73.3796C74.5184 73.5071 74.2553 73.5801 73.9855 73.593C73.7156 73.6059 73.4464 73.5583 73.1987 73.4539C73.1174 73.42 73.0461 73.3669 72.9914 73.2995C72.9368 73.232 72.9005 73.1524 72.8858 73.0679C72.8712 72.9834 72.8787 72.8966 72.9076 72.8156C72.9366 72.7346 72.986 72.662 73.0515 72.6042ZM69.3876 78H70.2251L70.809 77.3085C70.9828 77.1048 71.211 76.951 71.4688 76.8638C71.7265 76.7767 72.0041 76.7595 72.2712 76.8141C72.5384 76.8687 72.785 76.9931 72.9842 77.1737C73.1835 77.3543 73.3278 77.5843 73.4015 77.8386C73.6486 77.9045 73.8739 78.0308 74.0559 78.2054C74.2378 78.38 74.3701 78.597 74.4402 78.8355C74.8072 78.9388 75.1193 79.1744 75.312 79.4938C75.629 79.5417 75.9218 79.6864 76.1478 79.9068C76.3807 80.1431 76.5275 80.4464 76.5662 80.7708C76.6049 81.0952 76.5332 81.4229 76.3621 81.7043L76.2835 81.8388C76.2819 81.8406 76.281 81.8428 76.281 81.8451C76.281 81.8475 76.2819 81.8497 76.2835 81.8515C76.423 81.9456 76.5883 81.9973 76.7584 81.9999C76.9284 82.0025 77.0954 81.956 77.2379 81.8662C77.3804 81.7765 77.4919 81.6476 77.5582 81.4961C77.6245 81.3446 77.6426 81.1775 77.6101 81.016C77.608 81.012 77.6076 81.0075 77.6089 81.0032C77.6103 80.999 77.6132 80.9954 77.6172 80.9932C77.6211 80.991 77.6258 80.9903 77.6302 80.9913C77.6347 80.9923 77.6386 80.9949 77.6411 80.9986L77.7049 81.0587C77.8488 81.1979 78.038 81.2846 78.2404 81.3042C78.4428 81.3238 78.646 81.2751 78.8155 81.1663C78.9514 81.0746 79.0568 80.9466 79.1189 80.798C79.1811 80.6494 79.1973 80.4866 79.1656 80.3292C79.1635 80.3253 79.1631 80.3207 79.1644 80.3165C79.1658 80.3123 79.1687 80.3087 79.1727 80.3065C79.1766 80.3042 79.1813 80.3036 79.1857 80.3046C79.1902 80.3056 79.1941 80.3082 79.1966 80.3118L79.2604 80.372C79.4042 80.5107 79.593 80.5972 79.7951 80.6168C79.9972 80.6364 80.2 80.5879 80.3694 80.4796C80.507 80.3884 80.6141 80.2603 80.6775 80.111C80.7408 79.9617 80.7577 79.7978 80.726 79.6393C80.7239 79.6354 80.7235 79.6308 80.7249 79.6266C80.7262 79.6224 80.7291 79.6188 80.7331 79.6165C80.737 79.6143 80.7417 79.6137 80.7462 79.6147C80.7506 79.6157 80.7545 79.6183 80.757 79.6219L80.829 79.6884C80.9653 79.8192 81.1423 79.903 81.3327 79.9267C81.5231 79.9505 81.7163 79.9129 81.8824 79.8197C81.991 79.757 82.0838 79.6717 82.1544 79.5701C82.2249 79.4685 82.2712 79.353 82.2902 79.232C82.3091 79.111 82.3001 78.9874 82.2638 78.8702C82.2275 78.7529 82.1648 78.6449 82.0803 78.5539L81.5569 77.9431L77.3271 72.9634C77.3063 72.9388 77.2771 72.9221 77.2448 72.9163C77.2124 72.9105 77.179 72.916 77.1504 72.9318L75.1288 74.0268C74.8075 74.201 74.4509 74.3054 74.0836 74.3327C73.7164 74.36 73.3475 74.3096 73.0024 74.185C72.8125 74.1206 72.6398 74.0162 72.4967 73.8794C72.3536 73.7426 72.2436 73.5767 72.1748 73.3938C72.1199 73.2056 72.104 73.0087 72.1282 72.8145C72.1523 72.6203 72.216 72.4327 72.3155 72.2624C72.3314 72.2339 72.3393 72.2018 72.3385 72.1693C72.3377 72.1368 72.3282 72.1051 72.3108 72.0773C72.2935 72.0496 72.269 72.0266 72.2396 72.0108C72.2103 71.995 72.1773 71.9868 72.1437 71.9871H69.3876C69.3368 71.9869 69.2864 71.9964 69.2394 72.0151C69.1924 72.0338 69.1497 72.0612 69.1136 72.0959C69.0776 72.1306 69.049 72.1719 69.0295 72.2173C69.01 72.2627 69 72.3114 69 72.3605V77.6298C69.0009 77.7285 69.0421 77.8229 69.1148 77.8923C69.1874 77.9617 69.2856 78.0005 69.3876 78ZM72.3416 77.6219C72.186 77.5376 72.0043 77.5099 71.8295 77.5439C71.6546 77.5778 71.498 77.6711 71.388 77.807L70.8205 78.4811C70.7601 78.5527 70.715 78.6353 70.6879 78.724C70.6609 78.8127 70.6523 78.9057 70.6628 78.9977C70.6733 79.0896 70.7027 79.1786 70.7491 79.2594C70.7956 79.3402 70.8582 79.4113 70.9333 79.4685L71.02 79.5333C71.1328 79.6191 71.2696 79.6703 71.4128 79.6802C71.5559 79.69 71.6989 79.6582 71.8231 79.5887C71.8289 79.5849 71.8358 79.5829 71.8429 79.583C71.8499 79.5831 71.8567 79.5853 71.8624 79.5893C71.8681 79.5932 71.8724 79.5988 71.8748 79.6052C71.8771 79.6116 71.8773 79.6186 71.8755 79.6251C71.8497 79.7513 71.8605 79.8819 71.9067 80.0026C71.9529 80.1232 72.0327 80.2291 72.1372 80.3087L72.2075 80.3625C72.3162 80.4453 72.4472 80.4961 72.5849 80.509C72.7227 80.5219 72.8613 80.4963 72.9844 80.4353C72.9905 80.4324 72.9972 80.4312 73.0039 80.4317C73.0106 80.4322 73.017 80.4344 73.0225 80.4381C73.028 80.4418 73.0324 80.4469 73.0352 80.4528C73.038 80.4587 73.0391 80.4652 73.0384 80.4717C73.0242 80.591 73.0419 80.7118 73.0897 80.8226C73.1375 80.9334 73.2139 81.0305 73.3116 81.1046L73.3606 81.141C73.4707 81.2244 73.6032 81.2754 73.7424 81.2881C73.8816 81.3007 74.0216 81.2744 74.1458 81.2122C74.1517 81.2087 74.1584 81.2067 74.1654 81.2064C74.1723 81.2061 74.1792 81.2075 74.1855 81.2105C74.1917 81.2135 74.197 81.218 74.2009 81.2236C74.2049 81.2291 74.2073 81.2356 74.2079 81.2423C74.2373 81.417 74.3337 81.5746 74.4778 81.6837L74.5089 81.7075C74.592 81.7705 74.6883 81.8154 74.791 81.8392C74.8937 81.863 75.0005 81.8652 75.1042 81.8455C75.2078 81.8258 75.3059 81.7848 75.3917 81.7252C75.4775 81.6656 75.549 81.5889 75.6015 81.5002L75.7078 81.3198C75.7958 81.177 75.831 81.0096 75.8079 80.8449C75.7847 80.6802 75.7044 80.528 75.5802 80.4131C75.4743 80.3202 75.3426 80.2594 75.2013 80.238C75.0601 80.2166 74.9155 80.2357 74.7853 80.2929C74.7819 80.2946 74.778 80.2954 74.7741 80.2952C74.7703 80.295 74.7665 80.2938 74.7633 80.2917C74.7601 80.2895 74.7576 80.2866 74.756 80.2832C74.7544 80.2798 74.7538 80.276 74.7542 80.2723C74.7605 80.1558 74.7366 80.0397 74.6847 79.9344C74.6328 79.8291 74.5546 79.738 74.4572 79.6693C74.3597 79.6006 74.2461 79.5566 74.1266 79.5411C74.0071 79.5257 73.8855 79.5393 73.7728 79.5808C73.6649 79.5998 73.6878 79.508 73.6878 79.508C73.7449 79.374 73.7575 79.226 73.7239 79.0847C73.6904 78.9434 73.6122 78.8157 73.5003 78.7192C73.3884 78.6228 73.2482 78.5624 73.0992 78.5463C72.9503 78.5303 72.7998 78.5595 72.6688 78.6298C72.5886 78.6409 72.5984 78.5681 72.5984 78.5681C72.6933 78.4095 72.7195 78.2211 72.6714 78.0438C72.6233 77.8666 72.5048 77.7149 72.3416 77.6219Z" fill="#1F282C"/>
<path d="M469.052 44.6042L471.845 42.5472C472.221 42.2709 472.664 42.092 473.132 42.0272C473.6 41.9624 474.077 42.0139 474.518 42.1769L478.972 43.821C479.262 43.9267 479.569 43.9803 479.879 43.9792H480.612C480.664 43.979 480.715 43.9887 480.762 44.0079C480.81 44.0271 480.853 44.0553 480.889 44.0908C480.925 44.1263 480.954 44.1685 480.973 44.2148C480.992 44.2612 481.001 44.3107 481 44.3605V49.6298C481 49.7288 480.959 49.8238 480.887 49.8938C480.814 49.9639 480.716 50.0032 480.614 50.0032H479.646C479.507 50.0035 479.372 50.0499 479.264 50.1345L479.044 50.3086C479.016 50.3295 478.982 50.3393 478.947 50.3357C478.913 50.3322 478.881 50.3156 478.859 50.2896L473.669 44.1881C473.606 44.1134 473.517 44.0627 473.419 44.0447C473.321 44.0268 473.22 44.0428 473.132 44.09L470.754 45.3796C470.518 45.5071 470.255 45.5801 469.985 45.593C469.716 45.6059 469.446 45.5583 469.199 45.4539C469.117 45.42 469.046 45.3669 468.991 45.2995C468.937 45.232 468.9 45.1524 468.886 45.0679C468.871 44.9834 468.879 44.8966 468.908 44.8156C468.937 44.7346 468.986 44.662 469.052 44.6042ZM465.388 50H466.225L466.809 49.3085C466.983 49.1048 467.211 48.951 467.469 48.8638C467.727 48.7767 468.004 48.7595 468.271 48.8141C468.538 48.8687 468.785 48.9931 468.984 49.1737C469.183 49.3543 469.328 49.5843 469.402 49.8386C469.649 49.9045 469.874 50.0308 470.056 50.2054C470.238 50.38 470.37 50.597 470.44 50.8355C470.807 50.9388 471.119 51.1744 471.312 51.4938C471.629 51.5417 471.922 51.6864 472.148 51.9068C472.381 52.1431 472.528 52.4464 472.566 52.7708C472.605 53.0952 472.533 53.4229 472.362 53.7043L472.284 53.8388C472.282 53.8406 472.281 53.8428 472.281 53.8451C472.281 53.8475 472.282 53.8497 472.284 53.8515C472.423 53.9456 472.588 53.9973 472.758 53.9999C472.928 54.0025 473.095 53.956 473.238 53.8662C473.38 53.7765 473.492 53.6476 473.558 53.4961C473.625 53.3446 473.643 53.1775 473.61 53.016C473.608 53.012 473.608 53.0075 473.609 53.0032C473.61 52.999 473.613 52.9954 473.617 52.9932C473.621 52.991 473.626 52.9903 473.63 52.9913C473.635 52.9923 473.639 52.9949 473.641 52.9986L473.705 53.0587C473.849 53.1979 474.038 53.2846 474.24 53.3042C474.443 53.3238 474.646 53.2751 474.816 53.1663C474.951 53.0746 475.057 52.9466 475.119 52.798C475.181 52.6494 475.197 52.4866 475.166 52.3292C475.164 52.3253 475.163 52.3207 475.164 52.3165C475.166 52.3123 475.169 52.3087 475.173 52.3065C475.177 52.3042 475.181 52.3036 475.186 52.3046C475.19 52.3056 475.194 52.3082 475.197 52.3118L475.26 52.372C475.404 52.5107 475.593 52.5972 475.795 52.6168C475.997 52.6364 476.2 52.5879 476.369 52.4796C476.507 52.3884 476.614 52.2603 476.677 52.111C476.741 51.9617 476.758 51.7978 476.726 51.6393C476.724 51.6354 476.724 51.6308 476.725 51.6266C476.726 51.6224 476.729 51.6188 476.733 51.6165C476.737 51.6143 476.742 51.6137 476.746 51.6147C476.751 51.6157 476.755 51.6183 476.757 51.6219L476.829 51.6884C476.965 51.8192 477.142 51.903 477.333 51.9267C477.523 51.9505 477.716 51.9129 477.882 51.8197C477.991 51.757 478.084 51.6717 478.154 51.5701C478.225 51.4685 478.271 51.353 478.29 51.232C478.309 51.111 478.3 50.9874 478.264 50.8702C478.227 50.7529 478.165 50.6449 478.08 50.5539L477.557 49.9431L473.327 44.9634C473.306 44.9388 473.277 44.9221 473.245 44.9163C473.212 44.9105 473.179 44.916 473.15 44.9318L471.129 46.0268C470.808 46.201 470.451 46.3054 470.084 46.3327C469.716 46.36 469.347 46.3096 469.002 46.185C468.813 46.1206 468.64 46.0162 468.497 45.8794C468.354 45.7426 468.244 45.5767 468.175 45.3938C468.12 45.2056 468.104 45.0087 468.128 44.8145C468.152 44.6203 468.216 44.4327 468.315 44.2624C468.331 44.2339 468.339 44.2018 468.339 44.1693C468.338 44.1368 468.328 44.1051 468.311 44.0773C468.293 44.0496 468.269 44.0266 468.24 44.0108C468.21 43.995 468.177 43.9868 468.144 43.9871H465.388C465.337 43.9869 465.286 43.9964 465.239 44.0151C465.192 44.0338 465.15 44.0612 465.114 44.0959C465.078 44.1306 465.049 44.1719 465.03 44.2173C465.01 44.2627 465 44.3114 465 44.3605V49.6298C465.001 49.7285 465.042 49.8229 465.115 49.8923C465.187 49.9617 465.286 50.0005 465.388 50ZM468.342 49.6219C468.186 49.5376 468.004 49.5099 467.829 49.5439C467.655 49.5778 467.498 49.6711 467.388 49.807L466.82 50.4811C466.76 50.5527 466.715 50.6353 466.688 50.724C466.661 50.8127 466.652 50.9057 466.663 50.9977C466.673 51.0896 466.703 51.1786 466.749 51.2594C466.796 51.3402 466.858 51.4113 466.933 51.4685L467.02 51.5333C467.133 51.6191 467.27 51.6703 467.413 51.6802C467.556 51.69 467.699 51.6582 467.823 51.5887C467.829 51.5849 467.836 51.5829 467.843 51.583C467.85 51.5831 467.857 51.5853 467.862 51.5893C467.868 51.5932 467.872 51.5988 467.875 51.6052C467.877 51.6116 467.877 51.6186 467.875 51.6251C467.85 51.7513 467.861 51.8819 467.907 52.0026C467.953 52.1232 468.033 52.2291 468.137 52.3087L468.208 52.3625C468.316 52.4453 468.447 52.4961 468.585 52.509C468.723 52.5219 468.861 52.4963 468.984 52.4353C468.99 52.4324 468.997 52.4312 469.004 52.4317C469.011 52.4322 469.017 52.4344 469.023 52.4381C469.028 52.4418 469.032 52.4469 469.035 52.4528C469.038 52.4587 469.039 52.4652 469.038 52.4717C469.024 52.591 469.042 52.7118 469.09 52.8226C469.138 52.9334 469.214 53.0305 469.312 53.1046L469.361 53.141C469.471 53.2244 469.603 53.2754 469.742 53.2881C469.882 53.3007 470.022 53.2744 470.146 53.2122C470.152 53.2087 470.158 53.2067 470.165 53.2064C470.172 53.2061 470.179 53.2075 470.185 53.2105C470.192 53.2135 470.197 53.218 470.201 53.2236C470.205 53.2291 470.207 53.2356 470.208 53.2423C470.237 53.417 470.334 53.5746 470.478 53.6837L470.509 53.7075C470.592 53.7705 470.688 53.8154 470.791 53.8392C470.894 53.863 471.001 53.8652 471.104 53.8455C471.208 53.8258 471.306 53.7848 471.392 53.7252C471.477 53.6656 471.549 53.5889 471.601 53.5002L471.708 53.3198C471.796 53.177 471.831 53.0096 471.808 52.8449C471.785 52.6802 471.704 52.528 471.58 52.4131C471.474 52.3202 471.343 52.2594 471.201 52.238C471.06 52.2166 470.915 52.2357 470.785 52.2929C470.782 52.2946 470.778 52.2954 470.774 52.2952C470.77 52.295 470.767 52.2938 470.763 52.2917C470.76 52.2895 470.758 52.2866 470.756 52.2832C470.754 52.2798 470.754 52.276 470.754 52.2723C470.76 52.1558 470.737 52.0397 470.685 51.9344C470.633 51.8291 470.555 51.738 470.457 51.6693C470.36 51.6006 470.246 51.5566 470.127 51.5411C470.007 51.5257 469.885 51.5393 469.773 51.5808C469.665 51.5998 469.688 51.508 469.688 51.508C469.745 51.374 469.758 51.226 469.724 51.0847C469.69 50.9434 469.612 50.8157 469.5 50.7192C469.388 50.6228 469.248 50.5624 469.099 50.5463C468.95 50.5303 468.8 50.5595 468.669 50.6298C468.589 50.6409 468.598 50.5681 468.598 50.5681C468.693 50.4095 468.72 50.2211 468.671 50.0438C468.623 49.8666 468.505 49.7149 468.342 49.6219Z" fill="#1F282C"/>
<path d="M288.052 8.60423L290.845 6.54717C291.221 6.27091 291.664 6.09195 292.132 6.02717C292.6 5.96238 293.077 6.01392 293.518 6.17691L297.972 7.82096C298.262 7.92669 298.569 7.98031 298.879 7.9792H299.612C299.664 7.97898 299.715 7.98874 299.762 8.0079C299.81 8.02707 299.853 8.05525 299.889 8.09079C299.925 8.12633 299.954 8.16851 299.973 8.21484C299.992 8.26117 300.001 8.31071 300 8.36055V13.6298C300 13.7288 299.959 13.8238 299.887 13.8938C299.814 13.9639 299.716 14.0032 299.614 14.0032H298.646C298.507 14.0035 298.372 14.0499 298.264 14.1345L298.044 14.3086C298.016 14.3295 297.982 14.3393 297.947 14.3357C297.913 14.3322 297.881 14.3156 297.859 14.2896L292.669 8.18807C292.606 8.11341 292.517 8.06266 292.419 8.04473C292.321 8.02679 292.22 8.0428 292.132 8.08996L289.754 9.37958C289.518 9.50706 289.255 9.5801 288.985 9.593C288.716 9.6059 288.446 9.55831 288.199 9.45395C288.117 9.42002 288.046 9.36691 287.991 9.29947C287.937 9.23203 287.9 9.15241 287.886 9.06788C287.871 8.98336 287.879 8.89664 287.908 8.81564C287.937 8.73464 287.986 8.66196 288.052 8.60423ZM284.388 14H285.225L285.809 13.3085C285.983 13.1048 286.211 12.951 286.469 12.8638C286.727 12.7767 287.004 12.7595 287.271 12.8141C287.538 12.8687 287.785 12.9931 287.984 13.1737C288.183 13.3543 288.328 13.5843 288.402 13.8386C288.649 13.9045 288.874 14.0308 289.056 14.2054C289.238 14.38 289.37 14.597 289.44 14.8355C289.807 14.9388 290.119 15.1744 290.312 15.4938C290.629 15.5417 290.922 15.6864 291.148 15.9068C291.381 16.1431 291.528 16.4464 291.566 16.7708C291.605 17.0952 291.533 17.4229 291.362 17.7043L291.284 17.8388C291.282 17.8406 291.281 17.8428 291.281 17.8451C291.281 17.8475 291.282 17.8497 291.284 17.8515C291.423 17.9456 291.588 17.9973 291.758 17.9999C291.928 18.0025 292.095 17.956 292.238 17.8662C292.38 17.7765 292.492 17.6476 292.558 17.4961C292.625 17.3446 292.643 17.1775 292.61 17.016C292.608 17.012 292.608 17.0075 292.609 17.0032C292.61 16.999 292.613 16.9954 292.617 16.9932C292.621 16.991 292.626 16.9903 292.63 16.9913C292.635 16.9923 292.639 16.9949 292.641 16.9986L292.705 17.0587C292.849 17.1979 293.038 17.2846 293.24 17.3042C293.443 17.3238 293.646 17.2751 293.816 17.1663C293.951 17.0746 294.057 16.9466 294.119 16.798C294.181 16.6494 294.197 16.4866 294.166 16.3292C294.164 16.3253 294.163 16.3207 294.164 16.3165C294.166 16.3123 294.169 16.3087 294.173 16.3065C294.177 16.3042 294.181 16.3036 294.186 16.3046C294.19 16.3056 294.194 16.3082 294.197 16.3118L294.26 16.372C294.404 16.5107 294.593 16.5972 294.795 16.6168C294.997 16.6364 295.2 16.5879 295.369 16.4796C295.507 16.3884 295.614 16.2603 295.677 16.111C295.741 15.9617 295.758 15.7978 295.726 15.6393C295.724 15.6354 295.724 15.6308 295.725 15.6266C295.726 15.6224 295.729 15.6188 295.733 15.6165C295.737 15.6143 295.742 15.6137 295.746 15.6147C295.751 15.6157 295.755 15.6183 295.757 15.6219L295.829 15.6884C295.965 15.8192 296.142 15.903 296.333 15.9267C296.523 15.9505 296.716 15.9129 296.882 15.8197C296.991 15.757 297.084 15.6717 297.154 15.5701C297.225 15.4685 297.271 15.353 297.29 15.232C297.309 15.111 297.3 14.9874 297.264 14.8702C297.227 14.7529 297.165 14.6449 297.08 14.5539L296.557 13.9431L292.327 8.96342C292.306 8.93878 292.277 8.92208 292.245 8.91629C292.212 8.91049 292.179 8.91598 292.15 8.93177L290.129 10.0268C289.808 10.201 289.451 10.3054 289.084 10.3327C288.716 10.36 288.347 10.3096 288.002 10.185C287.813 10.1206 287.64 10.0162 287.497 9.87941C287.354 9.74259 287.244 9.57674 287.175 9.39382C287.12 9.20559 287.104 9.0087 287.128 8.81452C287.152 8.62033 287.216 8.4327 287.315 8.26244C287.331 8.23386 287.339 8.20176 287.339 8.1693C287.338 8.13684 287.328 8.10515 287.311 8.07735C287.293 8.04955 287.269 8.02661 287.24 8.01078C287.21 7.99496 287.177 7.9868 287.144 7.98711H284.388C284.337 7.9869 284.286 7.99641 284.239 8.01508C284.192 8.03376 284.15 8.06123 284.114 8.09593C284.078 8.13062 284.049 8.17186 284.03 8.21727C284.01 8.26268 284 8.31137 284 8.36055V13.6298C284.001 13.7285 284.042 13.8229 284.115 13.8923C284.187 13.9617 284.286 14.0005 284.388 14ZM287.342 13.6219C287.186 13.5376 287.004 13.5099 286.829 13.5439C286.655 13.5778 286.498 13.6711 286.388 13.807L285.82 14.4811C285.76 14.5527 285.715 14.6353 285.688 14.724C285.661 14.8127 285.652 14.9057 285.663 14.9977C285.673 15.0896 285.703 15.1786 285.749 15.2594C285.796 15.3402 285.858 15.4113 285.933 15.4685L286.02 15.5333C286.133 15.6191 286.27 15.6703 286.413 15.6802C286.556 15.69 286.699 15.6582 286.823 15.5887C286.829 15.5849 286.836 15.5829 286.843 15.583C286.85 15.5831 286.857 15.5853 286.862 15.5893C286.868 15.5932 286.872 15.5988 286.875 15.6052C286.877 15.6116 286.877 15.6186 286.875 15.6251C286.85 15.7513 286.861 15.8819 286.907 16.0026C286.953 16.1232 287.033 16.2291 287.137 16.3087L287.208 16.3625C287.316 16.4453 287.447 16.4961 287.585 16.509C287.723 16.5219 287.861 16.4963 287.984 16.4353C287.99 16.4324 287.997 16.4312 288.004 16.4317C288.011 16.4322 288.017 16.4344 288.023 16.4381C288.028 16.4418 288.032 16.4469 288.035 16.4528C288.038 16.4587 288.039 16.4652 288.038 16.4717C288.024 16.591 288.042 16.7118 288.09 16.8226C288.138 16.9334 288.214 17.0305 288.312 17.1046L288.361 17.141C288.471 17.2244 288.603 17.2754 288.742 17.2881C288.882 17.3007 289.022 17.2744 289.146 17.2122C289.152 17.2087 289.158 17.2067 289.165 17.2064C289.172 17.2061 289.179 17.2075 289.185 17.2105C289.192 17.2135 289.197 17.218 289.201 17.2236C289.205 17.2291 289.207 17.2356 289.208 17.2423C289.237 17.417 289.334 17.5746 289.478 17.6837L289.509 17.7075C289.592 17.7705 289.688 17.8154 289.791 17.8392C289.894 17.863 290.001 17.8652 290.104 17.8455C290.208 17.8258 290.306 17.7848 290.392 17.7252C290.477 17.6656 290.549 17.5889 290.601 17.5002L290.708 17.3198C290.796 17.177 290.831 17.0096 290.808 16.8449C290.785 16.6802 290.704 16.528 290.58 16.4131C290.474 16.3202 290.343 16.2594 290.201 16.238C290.06 16.2166 289.915 16.2357 289.785 16.2929C289.782 16.2946 289.778 16.2954 289.774 16.2952C289.77 16.295 289.767 16.2938 289.763 16.2917C289.76 16.2895 289.758 16.2866 289.756 16.2832C289.754 16.2798 289.754 16.276 289.754 16.2723C289.76 16.1558 289.737 16.0397 289.685 15.9344C289.633 15.8291 289.555 15.738 289.457 15.6693C289.36 15.6006 289.246 15.5566 289.127 15.5411C289.007 15.5257 288.885 15.5393 288.773 15.5808C288.665 15.5998 288.688 15.508 288.688 15.508C288.745 15.374 288.758 15.226 288.724 15.0847C288.69 14.9434 288.612 14.8157 288.5 14.7192C288.388 14.6228 288.248 14.5624 288.099 14.5463C287.95 14.5303 287.8 14.5595 287.669 14.6298C287.589 14.6409 287.598 14.5681 287.598 14.5681C287.693 14.4095 287.72 14.2211 287.671 14.0438C287.623 13.8666 287.505 13.7149 287.342 13.6219Z" fill="#1F282C"/>
</g>
</g>
</svg>
