<svg width="480" height="96" viewBox="0 0 480 96" fill="none" xmlns="http://www.w3.org/2000/svg">
<mask id="mask0" mask-type="alpha" maskUnits="userSpaceOnUse" x="0" y="0" width="480" height="96">
<rect width="480" height="96" fill="#1EB0CD"/>
</mask>
<g mask="url(#mask0)">
<g opacity="0.25">
<path d="M33.8471 -12H13.5556C11.5947 -12 10 -10.3673 10 -8.36364V24.3636C10 26.3691 11.5947 28 13.5556 28H38.4444C40.4053 28 42 26.3691 42 24.3636V-3.66182L33.8471 -12ZM24.2222 19.6618L17.632 12.92L20.1458 10.3509L24.2222 14.52L31.8542 6.71455L34.368 9.28364L24.2222 19.6618ZM31.3333 -1.09091V-10.1818L40.2222 -1.09091H31.3333Z" fill="#1F282C"/>
<path d="M476.847 28H456.556C454.595 28 453 29.6327 453 31.6364V64.3636C453 66.3691 454.595 68 456.556 68H481.444C483.405 68 485 66.3691 485 64.3636V36.3382L476.847 28ZM467.222 59.6618L460.632 52.92L463.146 50.3509L467.222 54.52L474.854 46.7145L477.368 49.2836L467.222 59.6618ZM474.333 38.9091V29.8182L483.222 38.9091H474.333Z" fill="#1F282C"/>
<path d="M371.847 48H351.556C349.595 48 348 49.6327 348 51.6364V84.3636C348 86.3691 349.595 88 351.556 88H376.444C378.405 88 380 86.3691 380 84.3636V56.3382L371.847 48ZM362.222 79.6618L355.632 72.92L358.146 70.3509L362.222 74.52L369.854 66.7145L372.368 69.2836L362.222 79.6618ZM369.333 58.9091V49.8182L378.222 58.9091H369.333Z" fill="#1F282C"/>
<path d="M121.904 32H109.222C107.997 32 107 32.9796 107 34.1818V53.8182C107 55.0215 107.997 56 109.222 56H124.778C126.003 56 127 55.0215 127 53.8182V37.0029L121.904 32ZM115.889 50.9971L111.77 46.952L113.341 45.4105L115.889 47.912L120.659 43.2287L122.23 44.7702L115.889 50.9971ZM120.333 38.5455V33.0909L125.889 38.5455H120.333Z" fill="#1F282C"/>
<path d="M407.904 8H395.222C393.997 8 393 8.97964 393 10.1818V29.8182C393 31.0215 393.997 32 395.222 32H410.778C412.003 32 413 31.0215 413 29.8182V13.0029L407.904 8ZM401.889 26.9971L397.77 22.952L399.341 21.4105L401.889 23.912L406.659 19.2287L408.23 20.7702L401.889 26.9971ZM406.333 14.5455V9.09091L411.889 14.5455H406.333Z" fill="#1F282C"/>
<path d="M251.904 -4H239.222C237.997 -4 237 -3.02036 237 -1.81818V17.8182C237 19.0215 237.997 20 239.222 20H254.778C256.003 20 257 19.0215 257 17.8182V1.00291L251.904 -4ZM245.889 14.9971L241.77 10.952L243.341 9.41055L245.889 11.912L250.659 7.22873L252.23 8.77018L245.889 14.9971ZM250.333 2.54545V-2.90909L255.889 2.54545H250.333Z" fill="#1F282C"/>
<path d="M46.9044 59H34.2222C32.9967 59 32 59.9796 32 61.1818V80.8182C32 82.0215 32.9967 83 34.2222 83H49.7778C51.0033 83 52 82.0215 52 80.8182V64.0029L46.9044 59ZM40.8889 77.9971L36.77 73.952L38.3411 72.4105L40.8889 74.912L45.6589 70.2287L47.23 71.7702L40.8889 77.9971ZM45.3333 65.5455V60.0909L50.8889 65.5455H45.3333Z" fill="#1F282C"/>
<path d="M77.6879 43H69.4444C68.6478 43 68 43.6531 68 44.4545V57.5455C68 58.3476 68.6478 59 69.4444 59H79.5556C80.3522 59 81 58.3476 81 57.5455V46.3353L77.6879 43ZM73.7778 55.6647L71.1005 52.968L72.1217 51.9404L73.7778 53.608L76.8783 50.4858L77.8995 51.5135L73.7778 55.6647ZM76.6667 47.3636V43.7273L80.2778 47.3636H76.6667Z" fill="#1F282C"/>
<path d="M437.688 55H429.444C428.648 55 428 55.6531 428 56.4545V69.5455C428 70.3476 428.648 71 429.444 71H439.556C440.352 71 441 70.3476 441 69.5455V58.3353L437.688 55ZM433.778 67.6647L431.101 64.968L432.122 63.9404L433.778 65.608L436.878 62.4858L437.899 63.5135L433.778 67.6647ZM436.667 59.3636V55.7273L440.278 59.3636H436.667Z" fill="#1F282C"/>
<path d="M340.688 12H332.444C331.648 12 331 12.6531 331 13.4545V26.5455C331 27.3476 331.648 28 332.444 28H342.556C343.352 28 344 27.3476 344 26.5455V15.3353L340.688 12ZM336.778 24.6647L334.101 21.968L335.122 20.9404L336.778 22.608L339.878 19.4858L340.899 20.5135L336.778 24.6647ZM339.667 16.3636V12.7273L343.278 16.3636H339.667Z" fill="#1F282C"/>
</g>
</g>
</svg>
