<svg width="480" height="96" viewBox="0 0 480 96" fill="none" xmlns="http://www.w3.org/2000/svg">
<mask id="mask0" mask-type="alpha" maskUnits="userSpaceOnUse" x="0" y="0" width="480" height="96">
<rect width="480" height="96" fill="#CABCAA"/>
</mask>
<g mask="url(#mask0)">
<g opacity="0.25">
<path d="M30 -6C18.4509 -6 10 6 10 6C10 6 18.4509 18 30 18C41.5491 18 50 6 50 6C50 6 41.5491 -6 30 -6ZM30 12.8571C25.9836 12.8571 22.7273 9.78857 22.7273 6C22.7273 2.21143 25.9836 -0.857143 30 -0.857143C34.0164 -0.857143 37.2727 2.21143 37.2727 6C37.2727 9.78857 34.0164 12.8571 30 12.8571Z" fill="#1F282C"/>
<path d="M30 9.42857C32.0083 9.42857 33.6364 7.89355 33.6364 6C33.6364 4.10645 32.0083 2.57143 30 2.57143C27.9917 2.57143 26.3636 4.10645 26.3636 6C26.3636 7.89355 27.9917 9.42857 30 9.42857Z" fill="#1F282C"/>
<path d="M333 23C321.451 23 313 35 313 35C313 35 321.451 47 333 47C344.549 47 353 35 353 35C353 35 344.549 23 333 23ZM333 41.8571C328.984 41.8571 325.727 38.7886 325.727 35C325.727 31.2114 328.984 28.1429 333 28.1429C337.016 28.1429 340.273 31.2114 340.273 35C340.273 38.7886 337.016 41.8571 333 41.8571Z" fill="#1F282C"/>
<path d="M333 38.4286C335.008 38.4286 336.636 36.8935 336.636 35C336.636 33.1065 335.008 31.5714 333 31.5714C330.992 31.5714 329.364 33.1065 329.364 35C329.364 36.8935 330.992 38.4286 333 38.4286Z" fill="#1F282C"/>
<path d="M137 52C125.451 52 117 64 117 64C117 64 125.451 76 137 76C148.549 76 157 64 157 64C157 64 148.549 52 137 52ZM137 70.8571C132.984 70.8571 129.727 67.7886 129.727 64C129.727 60.2114 132.984 57.1429 137 57.1429C141.016 57.1429 144.273 60.2114 144.273 64C144.273 67.7886 141.016 70.8571 137 70.8571Z" fill="#1F282C"/>
<path d="M137 67.4286C139.008 67.4286 140.636 65.8935 140.636 64C140.636 62.1065 139.008 60.5714 137 60.5714C134.992 60.5714 133.364 62.1065 133.364 64C133.364 65.8935 134.992 67.4286 137 67.4286Z" fill="#1F282C"/>
<path d="M466 12C454.451 12 446 24 446 24C446 24 454.451 36 466 36C477.549 36 486 24 486 24C486 24 477.549 12 466 12ZM466 30.8571C461.984 30.8571 458.727 27.7886 458.727 24C458.727 20.2114 461.984 17.1429 466 17.1429C470.016 17.1429 473.273 20.2114 473.273 24C473.273 27.7886 470.016 30.8571 466 30.8571Z" fill="#1F282C"/>
<path d="M466 27.4286C468.008 27.4286 469.636 25.8935 469.636 24C469.636 22.1065 468.008 20.5714 466 20.5714C463.992 20.5714 462.364 22.1065 462.364 24C462.364 25.8935 463.992 27.4286 466 27.4286Z" fill="#1F282C"/>
<path d="M91 52C84.0705 52 79 59 79 59C79 59 84.0705 66 91 66C97.9295 66 103 59 103 59C103 59 97.9295 52 91 52ZM91 63C88.5902 63 86.6364 61.21 86.6364 59C86.6364 56.79 88.5902 55 91 55C93.4098 55 95.3636 56.79 95.3636 59C95.3636 61.21 93.4098 63 91 63Z" fill="#1F282C"/>
<path d="M91 61C92.205 61 93.1818 60.1046 93.1818 59C93.1818 57.8954 92.205 57 91 57C89.795 57 88.8182 57.8954 88.8182 59C88.8182 60.1046 89.795 61 91 61Z" fill="#1F282C"/>
<path d="M325 66C318.071 66 313 73 313 73C313 73 318.071 80 325 80C331.929 80 337 73 337 73C337 73 331.929 66 325 66ZM325 77C322.59 77 320.636 75.21 320.636 73C320.636 70.79 322.59 69 325 69C327.41 69 329.364 70.79 329.364 73C329.364 75.21 327.41 77 325 77Z" fill="#1F282C"/>
<path d="M325 75C326.205 75 327.182 74.1046 327.182 73C327.182 71.8954 326.205 71 325 71C323.795 71 322.818 71.8954 322.818 73C322.818 74.1046 323.795 75 325 75Z" fill="#1F282C"/>
<path d="M22 73C15.0705 73 10 80 10 80C10 80 15.0705 87 22 87C28.9295 87 34 80 34 80C34 80 28.9295 73 22 73ZM22 84C19.5902 84 17.6364 82.21 17.6364 80C17.6364 77.79 19.5902 76 22 76C24.4098 76 26.3636 77.79 26.3636 80C26.3636 82.21 24.4098 84 22 84Z" fill="#1F282C"/>
<path d="M22 82C23.205 82 24.1818 81.1046 24.1818 80C24.1818 78.8954 23.205 78 22 78C20.795 78 19.8182 78.8954 19.8182 80C19.8182 81.1046 20.795 82 22 82Z" fill="#1F282C"/>
<path d="M429 62C422.071 62 417 69 417 69C417 69 422.071 76 429 76C435.929 76 441 69 441 69C441 69 435.929 62 429 62ZM429 73C426.59 73 424.636 71.21 424.636 69C424.636 66.79 426.59 65 429 65C431.41 65 433.364 66.79 433.364 69C433.364 71.21 431.41 73 429 73Z" fill="#1F282C"/>
<path d="M429 71C430.205 71 431.182 70.1046 431.182 69C431.182 67.8954 430.205 67 429 67C427.795 67 426.818 67.8954 426.818 69C426.818 70.1046 427.795 71 429 71Z" fill="#1F282C"/>
<path d="M62 29C55.0705 29 50 36 50 36C50 36 55.0705 43 62 43C68.9295 43 74 36 74 36C74 36 68.9295 29 62 29ZM62 40C59.5902 40 57.6364 38.21 57.6364 36C57.6364 33.79 59.5902 32 62 32C64.4098 32 66.3636 33.79 66.3636 36C66.3636 38.21 64.4098 40 62 40Z" fill="#1F282C"/>
<path d="M62 38C63.205 38 64.1818 37.1046 64.1818 36C64.1818 34.8954 63.205 34 62 34C60.795 34 59.8182 34.8954 59.8182 36C59.8182 37.1046 60.795 38 62 38Z" fill="#1F282C"/>
<path d="M377 13C370.071 13 365 20 365 20C365 20 370.071 27 377 27C383.929 27 389 20 389 20C389 20 383.929 13 377 13ZM377 24C374.59 24 372.636 22.21 372.636 20C372.636 17.79 374.59 16 377 16C379.41 16 381.364 17.79 381.364 20C381.364 22.21 379.41 24 377 24Z" fill="#1F282C"/>
<path d="M377 22C378.205 22 379.182 21.1046 379.182 20C379.182 18.8954 378.205 18 377 18C375.795 18 374.818 18.8954 374.818 20C374.818 21.1046 375.795 22 377 22Z" fill="#1F282C"/>
<path d="M135 25C130.38 25 127 30 127 30C127 30 130.38 35 135 35C139.62 35 143 30 143 30C143 30 139.62 25 135 25ZM135 32.8571C133.393 32.8571 132.091 31.5786 132.091 30C132.091 28.4214 133.393 27.1429 135 27.1429C136.607 27.1429 137.909 28.4214 137.909 30C137.909 31.5786 136.607 32.8571 135 32.8571Z" fill="#1F282C"/>
<path d="M135 31.4286C135.803 31.4286 136.455 30.789 136.455 30C136.455 29.211 135.803 28.5714 135 28.5714C134.197 28.5714 133.545 29.211 133.545 30C133.545 30.789 134.197 31.4286 135 31.4286Z" fill="#1F282C"/>
<path d="M390 48C385.38 48 382 53 382 53C382 53 385.38 58 390 58C394.62 58 398 53 398 53C398 53 394.62 48 390 48ZM390 55.8571C388.393 55.8571 387.091 54.5786 387.091 53C387.091 51.4214 388.393 50.1429 390 50.1429C391.607 50.1429 392.909 51.4214 392.909 53C392.909 54.5786 391.607 55.8571 390 55.8571Z" fill="#1F282C"/>
<path d="M390 54.4286C390.803 54.4286 391.455 53.789 391.455 53C391.455 52.211 390.803 51.5714 390 51.5714C389.197 51.5714 388.545 52.211 388.545 53C388.545 53.789 389.197 54.4286 390 54.4286Z" fill="#1F282C"/>
<path d="M248 13C243.38 13 240 18 240 18C240 18 243.38 23 248 23C252.62 23 256 18 256 18C256 18 252.62 13 248 13ZM248 20.8571C246.393 20.8571 245.091 19.5786 245.091 18C245.091 16.4214 246.393 15.1429 248 15.1429C249.607 15.1429 250.909 16.4214 250.909 18C250.909 19.5786 249.607 20.8571 248 20.8571Z" fill="#1F282C"/>
<path d="M248 19.4286C248.803 19.4286 249.455 18.789 249.455 18C249.455 17.211 248.803 16.5714 248 16.5714C247.197 16.5714 246.545 17.211 246.545 18C246.545 18.789 247.197 19.4286 248 19.4286Z" fill="#1F282C"/>
<path d="M50 59C45.3804 59 42 64 42 64C42 64 45.3804 69 50 69C54.6196 69 58 64 58 64C58 64 54.6196 59 50 59ZM50 66.8571C48.3935 66.8571 47.0909 65.5786 47.0909 64C47.0909 62.4214 48.3935 61.1429 50 61.1429C51.6065 61.1429 52.9091 62.4214 52.9091 64C52.9091 65.5786 51.6065 66.8571 50 66.8571Z" fill="#1F282C"/>
<path d="M50 65.4286C50.8033 65.4286 51.4545 64.789 51.4545 64C51.4545 63.211 50.8033 62.5714 50 62.5714C49.1967 62.5714 48.5455 63.211 48.5455 64C48.5455 64.789 49.1967 65.4286 50 65.4286Z" fill="#1F282C"/>
<path d="M452 42C447.38 42 444 47 444 47C444 47 447.38 52 452 52C456.62 52 460 47 460 47C460 47 456.62 42 452 42ZM452 49.8571C450.393 49.8571 449.091 48.5786 449.091 47C449.091 45.4214 450.393 44.1429 452 44.1429C453.607 44.1429 454.909 45.4214 454.909 47C454.909 48.5786 453.607 49.8571 452 49.8571Z" fill="#1F282C"/>
<path d="M452 48.4286C452.803 48.4286 453.455 47.789 453.455 47C453.455 46.211 452.803 45.5714 452 45.5714C451.197 45.5714 450.545 46.211 450.545 47C450.545 47.789 451.197 48.4286 452 48.4286Z" fill="#1F282C"/>
</g>
</g>
</svg>
