<svg width="480" height="96" viewBox="0 0 480 96" fill="none" xmlns="http://www.w3.org/2000/svg">
<mask id="mask0" mask-type="alpha" maskUnits="userSpaceOnUse" x="0" y="0" width="480" height="96">
<rect width="480" height="96" fill="#1EB0CD"/>
</mask>
<g mask="url(#mask0)">
<g opacity="0.25">
<path d="M53.8824 32H65.6471C66.9482 32 68 30.9482 68 29.6471V20.2353C68 18.9341 66.9482 17.8824 65.6471 17.8824H56.2353C54.9341 17.8824 53.8824 18.9341 53.8824 20.2353V22.5882C44.4706 22.5882 37.56 15.3835 37.4118 6.11765H39.7647C41.0659 6.11765 42.1176 5.06588 42.1176 3.76471V-5.64706C42.1176 -6.94824 41.0659 -8 39.7647 -8H30.3529C29.0541 -8 28 -6.94824 28 -5.64706V6.11765C28 20.4118 39.5882 32 53.8824 32Z" fill="#1F282C"/>
<path d="M401.882 72H413.647C414.948 72 416 70.9482 416 69.6471V60.2353C416 58.9341 414.948 57.8824 413.647 57.8824H404.235C402.934 57.8824 401.882 58.9341 401.882 60.2353V62.5882C392.471 62.5882 385.56 55.3835 385.412 46.1176H387.765C389.066 46.1176 390.118 45.0659 390.118 43.7647V34.3529C390.118 33.0518 389.066 32 387.765 32H378.353C377.054 32 376 33.0518 376 34.3529V46.1176C376 60.4118 387.588 72 401.882 72Z" fill="#1F282C"/>
<path d="M115.882 104H127.647C128.948 104 130 102.948 130 101.647V92.2353C130 90.9341 128.948 89.8824 127.647 89.8824H118.235C116.934 89.8824 115.882 90.9341 115.882 92.2353V94.5882C106.471 94.5882 99.56 87.3835 99.4118 78.1176H101.765C103.066 78.1176 104.118 77.0659 104.118 75.7647V66.3529C104.118 65.0518 103.066 64 101.765 64H92.3529C91.0541 64 90 65.0518 90 66.3529V78.1176C90 92.4118 101.588 104 115.882 104Z" fill="#1F282C"/>
<path d="M134.529 43H141.588C142.369 43 143 42.3689 143 41.5882V35.9412C143 35.1605 142.369 34.5294 141.588 34.5294H135.941C135.16 34.5294 134.529 35.1605 134.529 35.9412V37.3529C128.882 37.3529 124.736 33.0301 124.647 27.4706H126.059C126.84 27.4706 127.471 26.8395 127.471 26.0588V20.4118C127.471 19.6311 126.84 19 126.059 19H120.412C119.632 19 119 19.6311 119 20.4118V27.4706C119 36.0471 125.953 43 134.529 43Z" fill="#1F282C"/>
<path d="M243.529 22H250.588C251.369 22 252 21.3689 252 20.5882V14.9412C252 14.1605 251.369 13.5294 250.588 13.5294H244.941C244.16 13.5294 243.529 14.1605 243.529 14.9412V16.3529C237.882 16.3529 233.736 12.0301 233.647 6.47059H235.059C235.84 6.47059 236.471 5.83953 236.471 5.05882V-0.588235C236.471 -1.36894 235.84 -2 235.059 -2H229.412C228.632 -2 228 -1.36894 228 -0.588235V6.47059C228 15.0471 234.953 22 243.529 22Z" fill="#1F282C"/>
<path d="M456.529 20H463.588C464.369 20 465 19.3689 465 18.5882V12.9412C465 12.1605 464.369 11.5294 463.588 11.5294H457.941C457.16 11.5294 456.529 12.1605 456.529 12.9412V14.3529C450.882 14.3529 446.736 10.0301 446.647 4.47059H448.059C448.84 4.47059 449.471 3.83953 449.471 3.05882V-2.58824C449.471 -3.36894 448.84 -4 448.059 -4H442.412C441.632 -4 441 -3.36894 441 -2.58824V4.47059C441 13.0471 447.953 20 456.529 20Z" fill="#1F282C"/>
<path d="M440.529 104H447.588C448.369 104 449 103.369 449 102.588V96.9412C449 96.1605 448.369 95.5294 447.588 95.5294H441.941C441.16 95.5294 440.529 96.1605 440.529 96.9412V98.3529C434.882 98.3529 430.736 94.0301 430.647 88.4706H432.059C432.84 88.4706 433.471 87.8395 433.471 87.0588V81.4118C433.471 80.6311 432.84 80 432.059 80H426.412C425.632 80 425 80.6311 425 81.4118V88.4706C425 97.0471 431.953 104 440.529 104Z" fill="#1F282C"/>
<path d="M451.353 68H456.059C456.579 68 457 67.5793 457 67.0588V63.2941C457 62.7736 456.579 62.3529 456.059 62.3529H452.294C451.774 62.3529 451.353 62.7736 451.353 63.2941V64.2353C447.588 64.2353 444.824 61.3534 444.765 57.6471H445.706C446.226 57.6471 446.647 57.2264 446.647 56.7059V52.9412C446.647 52.4207 446.226 52 445.706 52H441.941C441.422 52 441 52.4207 441 52.9412V57.6471C441 63.3647 445.635 68 451.353 68Z" fill="#1F282C"/>
<path d="M38.3529 75H43.0588C43.5793 75 44 74.5793 44 74.0588V70.2941C44 69.7736 43.5793 69.3529 43.0588 69.3529H39.2941C38.7736 69.3529 38.3529 69.7736 38.3529 70.2941V71.2353C34.5882 71.2353 31.824 68.3534 31.7647 64.6471H32.7059C33.2264 64.6471 33.6471 64.2264 33.6471 63.7059V59.9412C33.6471 59.4207 33.2264 59 32.7059 59H28.9412C28.4216 59 28 59.4207 28 59.9412V64.6471C28 70.3647 32.6353 75 38.3529 75Z" fill="#1F282C"/>
<path d="M347.353 28H352.059C352.579 28 353 27.5793 353 27.0588V23.2941C353 22.7736 352.579 22.3529 352.059 22.3529H348.294C347.774 22.3529 347.353 22.7736 347.353 23.2941V24.2353C343.588 24.2353 340.824 21.3534 340.765 17.6471H341.706C342.226 17.6471 342.647 17.2264 342.647 16.7059V12.9412C342.647 12.4207 342.226 12 341.706 12H337.941C337.422 12 337 12.4207 337 12.9412V17.6471C337 23.3647 341.635 28 347.353 28Z" fill="#1F282C"/>
</g>
</g>
</svg>
