<svg width="480" height="96" viewBox="0 0 480 96" fill="none" xmlns="http://www.w3.org/2000/svg">
<mask id="mask0" mask-type="alpha" maskUnits="userSpaceOnUse" x="0" y="0" width="480" height="96">
<rect width="480" height="96" fill="#CA75ED"/>
</mask>
<g mask="url(#mask0)">
<g opacity="0.25">
<path d="M43 20V48H83V20H43ZM57 44L47 34V24H69L79 34V44H57Z" fill="#1F282C"/>
<path d="M63 40C66.3137 40 69 37.3137 69 34C69 30.6863 66.3137 28 63 28C59.6863 28 57 30.6863 57 34C57 37.3137 59.6863 40 63 40Z" fill="#1F282C"/>
<path d="M383 59V87H423V59H383ZM397 83L387 73V63H409L419 73V83H397Z" fill="#1F282C"/>
<path d="M403 79C406.314 79 409 76.3137 409 73C409 69.6863 406.314 67 403 67C399.686 67 397 69.6863 397 73C397 76.3137 399.686 79 403 79Z" fill="#1F282C"/>
<path d="M446 16V44H486V16H446ZM460 40L450 30V20H472L482 30V40H460Z" fill="#1F282C"/>
<path d="M466 36C469.314 36 472 33.3137 472 30C472 26.6863 469.314 24 466 24C462.686 24 460 26.6863 460 30C460 33.3137 462.686 36 466 36Z" fill="#1F282C"/>
<path d="M127 73V101H167V73H127ZM141 97L131 87V77H153L163 87V97H141Z" fill="#1F282C"/>
<path d="M147 93C150.314 93 153 90.3137 153 87C153 83.6863 150.314 81 147 81C143.686 81 141 83.6863 141 87C141 90.3137 143.686 93 147 93Z" fill="#1F282C"/>
<path d="M86 59V76H110V59H86ZM94.4 73.5714L88.4 67.5V61.4286H101.6L107.6 67.5V73.5714H94.4Z" fill="#1F282C"/>
<path d="M98 71.1429C99.9882 71.1429 101.6 69.5119 101.6 67.5C101.6 65.4881 99.9882 63.8571 98 63.8571C96.0118 63.8571 94.4 65.4881 94.4 67.5C94.4 69.5119 96.0118 71.1429 98 71.1429Z" fill="#1F282C"/>
<path d="M399 -4V13H423V-4H399ZM407.4 10.5714L401.4 4.5V-1.57143H414.6L420.6 4.5V10.5714H407.4Z" fill="#1F282C"/>
<path d="M411 8.14286C412.988 8.14286 414.6 6.51189 414.6 4.5C414.6 2.48811 412.988 0.857143 411 0.857143C409.012 0.857143 407.4 2.48811 407.4 4.5C407.4 6.51189 409.012 8.14286 411 8.14286Z" fill="#1F282C"/>
<path d="M356 32V44H372V32H356ZM361.6 42.2857L357.6 38V33.7143H366.4L370.4 38V42.2857H361.6Z" fill="#1F282C"/>
<path d="M364 40.5714C365.325 40.5714 366.4 39.4202 366.4 38C366.4 36.5798 365.325 35.4286 364 35.4286C362.675 35.4286 361.6 36.5798 361.6 38C361.6 39.4202 362.675 40.5714 364 40.5714Z" fill="#1F282C"/>
<path d="M446 68V80H462V68H446ZM451.6 78.2857L447.6 74V69.7143H456.4L460.4 74V78.2857H451.6Z" fill="#1F282C"/>
<path d="M454 76.5714C455.325 76.5714 456.4 75.4202 456.4 74C456.4 72.5798 455.325 71.4286 454 71.4286C452.675 71.4286 451.6 72.5798 451.6 74C451.6 75.4202 452.675 76.5714 454 76.5714Z" fill="#1F282C"/>
<path d="M277 70V82H293V70H277ZM282.6 80.2857L278.6 76V71.7143H287.4L291.4 76V80.2857H282.6Z" fill="#1F282C"/>
<path d="M285 78.5714C286.325 78.5714 287.4 77.4202 287.4 76C287.4 74.5798 286.325 73.4286 285 73.4286C283.675 73.4286 282.6 74.5798 282.6 76C282.6 77.4202 283.675 78.5714 285 78.5714Z" fill="#1F282C"/>
<path d="M8 8V20H24V8H8ZM13.6 18.2857L9.6 14V9.71429H18.4L22.4 14V18.2857H13.6Z" fill="#1F282C"/>
<path d="M16 16.5714C17.3255 16.5714 18.4 15.4202 18.4 14C18.4 12.5798 17.3255 11.4286 16 11.4286C14.6745 11.4286 13.6 12.5798 13.6 14C13.6 15.4202 14.6745 16.5714 16 16.5714Z" fill="#1F282C"/>
<path d="M114 24V36H130V24H114ZM119.6 34.2857L115.6 30V25.7143H124.4L128.4 30V34.2857H119.6Z" fill="#1F282C"/>
<path d="M122 32.5714C123.325 32.5714 124.4 31.4202 124.4 30C124.4 28.5798 123.325 27.4286 122 27.4286C120.675 27.4286 119.6 28.5798 119.6 30C119.6 31.4202 120.675 32.5714 122 32.5714Z" fill="#1F282C"/>
<path d="M12 79V96H36V79H12ZM20.4 93.5714L14.4 87.5V81.4286H27.6L33.6 87.5V93.5714H20.4Z" fill="#1F282C"/>
<path d="M24 91.1429C25.9882 91.1429 27.6 89.5119 27.6 87.5C27.6 85.4881 25.9882 83.8571 24 83.8571C22.0118 83.8571 20.4 85.4881 20.4 87.5C20.4 89.5119 22.0118 91.1429 24 91.1429Z" fill="#1F282C"/>
</g>
</g>
</svg>
