<svg width="74" height="48" viewBox="0 0 74 48" fill="none" xmlns="http://www.w3.org/2000/svg">
<path d="M62.265 29.8371C63.2558 29.5606 64.1671 29.2366 65.1064 29.0632C66.2409 28.8542 67.3845 28.8998 68.4784 29.3707C69.2938 29.7221 69.9276 30.276 70.4374 31.0007C70.5875 31.2142 70.7927 31.4086 71.0124 31.55C72.2039 32.3148 72.758 33.504 73.088 34.8053C73.6774 37.1243 74.0092 39.4861 74.0002 41.8863C73.9957 43.0499 73.8573 44.197 73.2914 45.2411C72.6884 46.3554 71.8305 47.1028 70.5586 47.4222C68.8201 47.8593 67.079 48.0565 65.3315 47.664C64.5477 47.4879 63.8272 47.5317 63.047 47.6129C61.2028 47.8046 59.3767 47.612 57.6509 46.8463C56.7785 46.4594 56.0381 45.899 55.5346 45.0622C55.3528 44.761 55.154 44.7638 54.9958 45.0494C53.8476 47.1229 51.9736 47.7033 49.7913 47.6285C48.9804 47.6002 48.1704 47.5208 47.364 47.4277C46.3903 47.3154 45.4935 46.9668 44.6899 46.3992C44.4883 46.2568 44.3409 46.2513 44.1221 46.37C42.2318 47.4003 40.1842 47.498 38.1022 47.382C37.8807 47.3693 37.6556 47.3647 37.436 47.3912C35.844 47.5819 34.242 47.7079 32.6817 47.2616C31.9268 47.0462 31.2353 46.6127 30.5057 46.2988C30.3357 46.2258 30.1034 46.1692 29.9425 46.2276C29.4236 46.4156 28.9318 46.6803 28.4147 46.8755C28.1227 46.986 27.8054 47.0334 27.4953 47.0854C25.8771 47.3547 24.2652 47.6805 22.609 47.5983C20.641 47.5007 18.7181 47.205 16.882 46.4375C16.7085 46.3654 16.4418 46.3873 16.2673 46.4703C11.6748 48.6588 7.17009 48.5374 2.81811 45.858C0.160274 44.2235 -0.668717 41.4428 0.550813 38.5388C0.870838 37.7768 1.35992 37.0887 1.74865 36.354C1.83815 36.1843 1.88968 35.9534 1.86075 35.7663C1.52626 33.5633 2.68793 30.914 4.64153 29.8745C5.51211 29.4118 6.54179 29.1873 7.52718 29.0285C8.58851 28.8569 9.68238 28.8889 10.7618 28.8341C10.9236 28.8259 11.0863 28.8332 11.3304 28.8332C10.5403 26.9952 10.6524 25.2357 11.6522 23.572C12.6422 21.9247 14.1401 21.0185 16.1254 20.7392C14.1031 18.5554 13.3536 16.2109 15.1156 13.6209C16.8097 11.1303 19.2343 10.7471 22.0169 11.5045C21.8858 10.8648 21.7457 10.2816 21.649 9.69207C21.0433 6.01972 24.559 2.72975 28.0603 3.76192C28.93 4.01836 29.6975 4.63164 30.5093 5.08612C30.635 5.15639 30.7435 5.25769 30.9134 5.38637C31.0228 4.99121 31.1096 4.65902 31.2072 4.33048C31.9955 1.68116 34.2158 -0.0172081 36.8655 0.00013153C39.0171 0.0147333 40.8288 1.34167 41.5267 3.39505C41.9281 4.57506 42.0347 5.79704 42.0754 7.0309C42.0845 7.31381 42.0772 7.59763 42.0772 7.88054C42.1152 7.89605 42.1541 7.91065 42.192 7.92617C42.3168 7.78836 42.4434 7.65238 42.5654 7.51184C43.8799 6.00329 45.4511 4.9182 47.4679 4.68001C49.1503 4.48106 50.7667 4.69735 52.0513 5.9604C53.656 7.53831 54.0312 9.72675 53.0955 11.7883C52.9852 12.032 52.8668 12.272 52.7167 12.5887C53.1796 12.5321 53.5611 12.4664 53.9462 12.4418C55.7976 12.3259 57.5505 12.6133 58.9111 14.0087C60.7354 15.8796 61.1368 19.0491 58.9997 21.2832C58.9102 21.3772 58.8306 21.4812 58.6977 21.6391C60.5474 22.0744 62.0625 22.8821 62.7993 24.7082C63.5207 26.4969 63.1745 28.1871 62.265 29.8371ZM32.2794 9.97681C32.1664 9.69937 32.0444 9.42468 31.9413 9.14359C31.2796 7.3494 30.1007 6.01425 28.4038 5.17647C25.9566 3.96908 22.9399 5.83264 22.826 8.58234C22.7465 10.4952 23.4914 12.1169 24.5708 13.6017C25.1078 14.34 25.7614 14.9925 26.3833 15.7071C26.151 15.9188 25.8979 16.1497 25.6249 16.3989C25.1864 15.4315 24.5843 14.6393 23.806 13.9932C22.2646 12.7137 20.5497 12.0457 18.5274 12.5266C16.3035 13.056 14.1871 16.0968 16.1299 18.8164C17.2364 20.3651 18.7516 21.2941 20.584 21.7066C21.0053 21.8015 21.4383 21.8426 21.8894 21.912C21.6797 22.5398 21.4763 23.1467 21.2602 23.7919C21.0894 23.6523 20.9664 23.5437 20.8353 23.4461C19.3112 22.308 17.6441 21.6674 15.7222 22.0425C13.3238 22.5106 11.6613 24.9172 12.1006 27.237C12.4378 29.0148 13.934 30.4859 15.8921 30.8026C16.882 30.9623 17.9045 30.914 18.8103 30.9559C18.7814 30.9687 18.6268 31.0244 18.4867 31.1047C18.126 31.3109 17.7743 31.6924 17.4145 31.697C17.024 31.7025 16.6425 31.3201 16.2329 31.1795C12.907 30.0397 9.54316 29.5405 6.08255 30.5681C5.39006 30.7743 4.78798 31.0901 4.36128 31.666C3.97617 32.1861 3.63535 32.7447 3.31894 33.3114C2.87235 34.1127 2.89857 34.9806 3.10017 35.8421C3.20774 36.3029 3.14627 36.6424 2.81811 37.0294C2.40407 37.5185 2.06325 38.0953 1.79837 38.6839C1.35268 39.6741 1.05797 40.7209 1.27223 41.827C1.56332 43.331 2.54419 44.323 3.79446 45.0531C6.08797 46.3919 8.55867 46.9787 11.2111 46.6802C13.0237 46.4767 14.7793 46.1007 16.3017 44.9937C16.4065 44.918 16.6352 44.9472 16.7763 45.0038C17.2373 45.1881 17.6685 45.4583 18.1386 45.6052C22.2366 46.8865 26.2378 46.6072 30.136 44.803C30.324 44.7163 30.4768 44.5895 30.6874 44.8194C31.3898 45.5824 32.293 45.9976 33.2901 46.1783C34.7103 46.4357 36.1342 46.4265 37.5499 46.1044C37.6638 46.0788 37.7885 46.0734 37.9042 46.0889C40.2276 46.4138 42.4388 46.1993 44.3897 44.7218C44.4223 44.6971 44.472 44.6971 44.5317 44.6807C45.3164 45.4701 46.2348 46.0633 47.3468 46.1947C48.4651 46.3271 49.5978 46.4083 50.7215 46.3855C52.243 46.3554 53.3929 45.6371 54.0483 44.2034C54.0963 44.0985 54.1668 43.9716 54.2608 43.9269C54.8385 43.6504 55.4261 43.3939 56.0381 43.1183C56.3193 44.3193 56.9864 45.1927 58.0785 45.712C59.6886 46.4776 61.4107 46.5881 63.1202 46.3508C63.8986 46.2431 64.5766 46.1883 65.3532 46.4083C67.0003 46.8728 68.6637 46.6474 70.3072 46.234C70.9699 46.067 71.4852 45.7174 71.892 45.1845C72.5266 44.3531 72.7508 43.3757 72.777 42.3618C72.8466 39.6522 72.485 36.9938 71.6877 34.4047C71.4147 33.5176 70.884 32.8158 70.0297 32.3933C69.8769 32.3176 69.7151 32.1889 69.6365 32.0419C68.9313 30.7168 67.7859 30.1757 66.3585 30.1702C64.6661 30.1638 63.1419 30.7716 61.709 31.6139C61.1757 31.927 60.7219 32.3778 60.2735 32.7319C59.6886 32.1925 59.0964 31.6468 58.5061 31.102C58.5052 31.1029 58.5151 31.0883 58.5287 31.0828C58.5847 31.06 58.6408 31.0372 58.6977 31.0189C60.4009 30.465 61.4704 29.326 61.87 27.5501C62.3229 25.5396 61.3059 23.7436 59.3685 23.1002C58.0324 22.6566 56.6682 22.5882 55.3067 22.8264C54.3403 22.9952 53.402 23.3292 52.4111 23.6012C52.3759 23.4844 52.3117 23.2772 52.2439 23.0564C52.3524 23.0235 52.4075 22.9989 52.4645 22.9907C54.2861 22.7251 55.9522 22.0479 57.4583 20.9939C58.752 20.0895 59.4002 18.8273 59.1769 17.2302C58.9536 15.6341 58.1092 14.4705 56.557 13.9284C55.5382 13.5725 54.485 13.5679 53.43 13.7322C51.7702 13.9914 50.1827 14.4276 48.9614 15.698C48.7245 15.9444 48.5193 16.22 48.268 16.5184C48.0221 16.2483 47.8042 16.0101 47.5818 15.7664C48.0257 15.4643 48.4398 15.2143 48.8186 14.9186C50.1872 13.8481 51.4348 12.6699 52.0956 10.9953C52.8496 9.08245 52.0767 7.02633 50.2614 6.19038C49.2968 5.74594 48.2662 5.70031 47.2492 5.92937C45.2015 6.39207 43.7343 7.68068 42.6676 9.44293C42.1866 10.2387 41.8304 11.1112 41.401 11.9836C41.0096 11.8869 40.5639 11.7774 40.1191 11.6679C40.2845 11.144 40.469 10.6631 40.5874 10.1657C41.0249 8.32863 40.9273 6.48607 40.6055 4.6435C40.4527 3.77013 40.1309 2.97251 39.5134 2.33186C38.133 0.903618 35.7129 0.830609 34.0612 2.13929C32.7721 3.16051 32.2749 4.57141 32.0579 6.13654C31.878 7.4361 32.0254 8.71375 32.2695 9.98685L32.2794 9.97681Z" fill="#E33238"/>
<path d="M37.397 14.1104C40.7799 14.1396 43.5299 15.4565 45.8036 17.8083C48.2616 20.3508 49.9051 23.3423 50.4539 26.8878C50.5416 27.4555 50.5786 28.0386 50.5687 28.6127C50.5479 29.8027 49.4983 30.7007 48.3231 30.5803C47.5411 30.5 47.0692 30.0363 46.9987 29.2196C46.9246 28.3727 46.911 27.5194 46.8332 26.6725C46.4771 22.8085 44.5217 19.9876 41.1994 18.145C39.5034 17.2041 37.6366 17.0909 35.7481 17.4742C33.1752 17.9972 30.8853 19.0567 29.1243 21.0946C27.601 22.8577 26.8163 24.9513 26.4655 27.2301C26.3688 27.8589 26.3308 28.4986 26.2847 29.1347C26.2224 29.998 25.7116 30.4735 24.8293 30.4634C23.9099 30.4525 23.2201 29.8922 23.2282 29.0836C23.2861 23.4957 25.4973 19.0941 30.3149 16.1765C32.5108 14.8477 34.9037 14.1377 37.397 14.1104Z" fill="#E33238"/>
<path d="M33.3488 36.575C32.7295 36.4335 32.6247 36.2546 32.772 35.6888C32.8299 35.4689 32.9257 35.2562 32.9601 35.0326C33.1409 33.8499 33.987 33.3489 34.9842 33.0103C36.3122 32.5595 37.6917 32.3861 39.0785 32.4189C40.4291 32.4509 41.777 32.6151 43.1258 32.7237C43.5525 32.7584 43.8473 32.9829 44.0416 33.369C44.2116 33.7075 44.4276 34.0233 44.5877 34.3655C44.792 34.8036 44.7052 35.0062 44.2613 35.1796C43.7424 35.3831 43.2226 35.5893 42.6901 35.749C42.522 35.7992 42.2046 35.7719 42.1359 35.6633C41.7364 35.0354 41.1171 34.9642 40.4807 34.9058C40.3758 34.8958 40.27 34.8939 40.1652 34.893C39.1526 34.8821 38.9628 35.0801 38.9321 36.1031C38.9221 36.4408 39.0188 36.5175 39.3651 36.5339C40.2926 36.5795 41.2364 36.6115 42.1377 36.8132C44.0489 37.2412 44.669 38.392 44.1374 40.3048C43.5887 42.277 42.2471 43.3593 40.2212 43.4916C39.3434 43.5491 38.4855 43.6304 37.7378 42.9797C37.5317 42.7999 37.2596 42.9322 37.0445 43.1741C36.8736 43.3657 36.6006 43.5637 36.3628 43.5765C35.5546 43.6203 34.7347 43.6477 33.9319 43.5637C32.6364 43.4287 32.1039 42.7269 32.3327 41.4419C32.5795 40.0529 32.9203 38.6822 33.2177 37.3023C33.2674 37.0696 33.3027 36.8314 33.3488 36.575ZM38.0787 40.4025C38.1211 40.4317 38.1636 40.46 38.2061 40.4892C38.3453 40.4444 38.4882 40.4079 38.6238 40.3523C39.1273 40.1451 39.6399 39.9361 39.8388 39.3584C39.9491 39.0363 40.0079 38.6913 39.6969 38.4367C39.3705 38.1693 39.0668 38.3573 38.7937 38.548C38.1275 39.0144 38.2992 39.7773 38.0787 40.4025Z" fill="#E33238"/>
<path d="M27.9083 36.5616C27.7564 37.1484 27.6271 37.7087 27.4562 38.2563C27.4174 38.3813 27.2465 38.4954 27.1109 38.5538C26.2819 38.9125 25.4068 38.8641 24.5317 38.8312C23.6973 38.8002 23.8058 38.6606 23.6467 39.5632C23.5047 40.3699 23.5102 40.3726 24.3175 40.3736C24.6339 40.3736 24.9503 40.3489 25.2658 40.3571C26.4871 40.3882 27.525 39.9273 28.457 39.1689C28.6206 39.0357 28.7915 38.9106 28.9605 38.7838C29.4695 38.4023 29.7724 38.5292 29.87 39.168C29.9342 39.5878 29.9966 40.0085 30.0535 40.4301C30.1756 41.3336 29.7977 42.0144 28.8918 42.4242C25.6997 43.8679 22.4118 44.0331 19.0624 43.095C17.8935 42.7673 17.6711 42.4078 17.9432 41.1976C18.1791 40.1491 18.5308 39.1269 18.83 38.0938C18.8978 37.8611 18.9638 37.6275 19.0307 37.3939C19.094 37.1703 19.0588 37.0014 18.7957 36.9549C18.4775 36.8992 18.4295 36.6775 18.4775 36.4092C18.5823 35.826 18.6827 35.2419 18.8065 34.6633C18.9403 34.0364 19.3028 33.5947 19.9239 33.4076C23.3276 32.3827 26.7403 32.0441 30.1674 33.3017C30.6637 33.4842 31.1799 34.4206 31.0371 34.9316C31 35.0631 30.8861 35.2118 30.7677 35.2748C30.3844 35.4774 29.9966 35.6946 29.5834 35.8114C28.9235 35.9985 28.7255 35.8926 28.3449 35.3259C28.09 34.9472 27.76 34.7044 27.2872 34.7674C26.5911 34.8595 25.8896 34.9344 25.2043 35.085C24.6538 35.2054 24.322 35.7585 24.4395 36.3024C24.4648 36.4201 24.7134 36.5643 24.8626 36.568C25.7196 36.5871 26.5766 36.567 27.4345 36.5616C27.5828 36.5607 27.7293 36.5616 27.9083 36.5616Z" fill="#E33238"/>
<path d="M10.2906 44.0695C8.18696 44.0522 6.52536 43.5803 4.99574 42.6549C4.7164 42.4861 4.46689 42.2497 4.24721 42.0052C3.92628 41.6483 3.76356 41.1993 3.94707 40.7385C4.22551 40.0403 4.53379 39.3476 4.90715 38.6979C5.02829 38.487 5.38086 38.3748 5.65026 38.2981C5.92599 38.2196 6.06973 38.4086 6.22251 38.6677C6.6257 39.3522 7.05602 40.0321 7.56318 40.639C7.97361 41.1309 8.60823 41.213 9.04126 40.9885C9.49508 40.754 9.98326 39.8733 9.92901 39.3823C9.88924 39.0227 9.68221 38.8457 9.32964 38.8265C8.86407 38.8001 8.39759 38.7791 7.93383 38.7389C7.63098 38.7125 7.51617 38.5619 7.63821 38.2425C7.76749 37.903 7.87778 37.5525 7.95552 37.1975C8.03146 36.8507 8.20956 36.8252 8.5115 36.8909C8.87582 36.9703 9.25461 37.0351 9.62526 37.0259C10.3196 37.0095 10.8095 36.6162 11.1259 36.0148C11.38 35.5329 11.2218 35.1231 10.7345 34.8859C9.98778 34.5226 9.08285 34.7225 8.52325 35.3394C7.91846 36.0066 7.10212 36.2776 6.26319 36.4839C6.03718 36.5395 5.89435 36.4382 5.86903 36.1781C5.84553 35.9372 5.78677 35.6999 5.74518 35.4608C5.66924 35.0337 5.58336 34.6459 5.83016 34.1959C6.2207 33.485 6.73961 33.14 7.53425 32.9758C10.2698 32.4109 12.8906 32.8389 15.468 33.757C15.8151 33.8811 16.1388 34.1065 16.4353 34.3347C17.5698 35.2108 17.4424 36.8133 16.1957 37.5224C16.0909 37.5817 15.9824 37.6356 15.873 37.6858C15.1226 38.0307 15.0422 38.1056 15.5828 38.6942C16.5944 39.7948 16.1116 40.9474 15.5267 41.9112C14.8596 43.009 13.763 43.4982 12.5724 43.7473C11.7208 43.928 10.8466 43.9947 10.2906 44.0695Z" fill="#E33238"/>
<path d="M52.0015 40.7066C51.9491 40.933 51.8741 41.1566 51.8496 41.3856C51.8072 41.7936 51.8108 42.2061 51.7674 42.6131C51.7023 43.2318 51.3922 43.627 50.7856 43.6836C49.5109 43.8022 48.2308 43.8542 47.0203 43.2857C46.3984 42.9936 46.0729 42.51 46.2004 41.8264C46.3622 40.9631 46.5882 40.1125 46.8016 39.2601C46.9779 38.5538 47.174 37.8529 47.3666 37.1502C47.438 36.891 47.4073 36.7249 47.1053 36.6364C46.9896 36.6026 46.8269 36.3781 46.8495 36.2768C47.0429 35.4062 47.2454 34.5337 47.5157 33.6859C47.5799 33.4842 47.8991 33.2615 48.1251 33.2314C50.4195 32.923 52.7139 32.5406 55.0418 32.8354C55.4576 32.8883 55.8753 32.9795 56.2721 33.1119C58.0088 33.6914 58.7618 35.0183 58.4174 36.8372C58.186 38.0582 57.5206 39.001 56.509 39.6544C55.5869 40.2503 54.6015 40.7468 53.6369 41.2734C53.4552 41.3728 53.2418 41.423 53.0366 41.4632C52.685 41.5335 52.4083 41.4586 52.3315 41.0361C52.3098 40.9156 52.2284 40.807 52.1751 40.693C52.1172 40.6993 52.0594 40.703 52.0015 40.7066ZM52.3939 37.4577C52.4345 37.4824 52.4752 37.507 52.5168 37.5317C53.2663 37.1903 53.8801 36.6893 54.1829 35.8844C54.3041 35.5632 54.2724 35.2045 53.9099 35.0174C53.6233 34.8696 52.8866 35.1333 52.8115 35.4327C52.6443 36.1007 52.5295 36.7815 52.3939 37.4577Z" fill="#E33238"/>
<path d="M65.807 40.6226C65.0684 40.9357 64.4365 41.1766 63.8344 41.4787C63.6825 41.5544 63.5885 41.8118 63.5325 42.0052C63.4258 42.3685 63.3761 42.7481 63.283 43.1159C63.1727 43.5521 62.9015 43.8058 62.4341 43.762C61.5093 43.6762 60.5645 43.6689 59.6668 43.4609C58.695 43.2354 58.4618 42.6477 58.7881 41.6922C58.9364 41.2578 59.025 40.8453 58.9481 40.3644C58.8125 39.5129 59.2148 38.6477 59.8142 38.2736C60.5636 37.8054 60.7643 37.0945 61.1811 36.4739C61.6195 35.8195 61.9965 35.1214 62.4639 34.4899C62.689 34.186 63.0262 33.9031 63.3734 33.7652C64.2367 33.4212 65.1208 33.1082 66.0222 32.8928C66.8258 32.7002 67.1142 32.9457 67.4424 33.7041C67.5409 33.9313 67.7479 34.1777 67.9667 34.2727C68.8328 34.6459 69.2694 35.2692 69.4593 36.2083C69.8923 38.3621 70.2349 40.5158 70.0568 42.7216C69.9945 43.4983 69.905 43.5585 69.1609 43.7401C68.1647 43.9838 67.1621 43.9929 66.1541 43.8688C65.5991 43.8003 65.3713 43.5457 65.4354 42.9772C65.4978 42.4214 65.6479 41.8747 65.7482 41.3226C65.7817 41.1346 65.7817 40.9402 65.807 40.6226ZM64.3271 38.9845C64.9355 39.0228 65.421 38.9233 65.8468 38.6076C65.9272 38.5483 65.986 38.4068 65.9887 38.3018C66.0041 37.621 66.0086 36.9402 65.9977 36.2603C65.995 36.0961 65.92 35.9318 65.845 35.637C65.1371 36.7294 64.7158 37.7963 64.3271 38.9845Z" fill="#E33238"/>
<path d="M38.2612 20.2579C40.5213 20.3163 42.6385 21.8203 44.0171 24.4659C44.6744 25.7281 44.9591 27.087 44.9058 28.5152C44.8742 29.3639 44.4818 29.9526 43.7658 30.2081C43.0833 30.4518 41.9216 30.2419 41.5428 29.7153C41.3376 29.4296 41.2282 29.0244 41.2047 28.664C41.1026 27.1153 40.4878 25.8166 39.3967 24.7498C37.9041 23.2914 36.0572 23.0779 34.26 24.1255C32.3724 25.2252 31.1953 26.847 30.8744 29.0299C30.7063 30.1743 29.5835 30.6535 28.6333 30.3806C28.0105 30.2017 27.7148 29.7171 27.7817 29.0573C28.297 23.9266 32.3688 20.2387 38.2612 20.2579Z" fill="#E33238"/>
<path d="M38.2756 7.4579C38.1871 8.20351 38.1554 8.86059 38.018 9.49486C37.9231 9.92926 37.7278 10.3609 37.4937 10.7406C37.0995 11.3821 36.2805 11.4624 35.7399 10.9386C35.5374 10.7424 35.3466 10.5051 35.2345 10.2487C34.514 8.61145 34.4155 6.93315 34.994 5.23022C35.2209 4.56401 35.6865 4.13873 36.3618 3.9553C37.1266 3.74722 37.7305 4.02192 37.8996 4.79399C38.0967 5.69383 38.1635 6.62286 38.2756 7.4579Z" fill="#E33238"/>
<path d="M30.1548 12.9965C30.0861 13.6773 29.6395 14.0917 28.9995 13.9511C28.7002 13.8854 28.382 13.7576 28.1479 13.5651C26.8786 12.522 25.9918 11.2096 25.5533 9.60891C25.4828 9.35064 25.4557 9.06864 25.4683 8.80033C25.519 7.76452 26.5758 7.18592 27.4608 7.70337C28.4055 8.25642 29.117 9.04035 29.4452 10.0917C29.7417 11.0399 29.9234 12.0264 30.1548 12.9965Z" fill="#E33238"/>
<path d="M51.3687 20.3997C50.4276 20.4197 49.9846 19.9105 50.1645 18.9687C50.33 18.1017 50.7856 17.4063 51.5938 17.0413C52.7717 16.5083 54.0048 16.1944 55.3157 16.3741C55.9485 16.4608 56.3598 16.8058 56.5271 17.4319C56.6943 18.0588 56.377 18.4722 55.9178 18.8282C54.879 19.6322 52.7555 20.3705 51.3687 20.3997Z" fill="#E33238"/>
<path d="M48.3655 8.51966C48.5002 8.53062 48.6358 8.53883 48.7705 8.55252C49.481 8.62735 49.9041 9.20139 49.6501 9.87124C49.4657 10.3568 49.1827 10.8258 48.8555 11.2292C48.0762 12.1902 47.1478 12.9896 46.0223 13.5171C45.7303 13.654 45.3921 13.7416 45.0712 13.7562C44.3995 13.7882 43.9312 13.236 44.1356 12.5881C44.6753 10.8779 45.5974 9.45235 47.3114 8.72044C47.6359 8.58172 48.0048 8.54796 48.3528 8.46582C48.3564 8.48407 48.361 8.50233 48.3655 8.51966Z" fill="#E33238"/>
<path d="M56.7558 25.3394C57.3868 25.458 58.0241 25.5493 58.647 25.7026C59.1144 25.8185 59.3106 26.1808 59.3079 26.6645C59.3033 27.473 58.8206 28.1904 58.0061 28.4404C56.5406 28.8903 55.0861 28.7662 53.6921 28.1584C52.8414 27.787 52.7835 26.8433 53.5266 26.2638C54.2607 25.6916 55.1331 25.5401 56.0217 25.448C56.2595 25.4233 56.5018 25.4443 56.7422 25.4443C56.7459 25.4096 56.7504 25.3749 56.7558 25.3394Z" fill="#E33238"/>
<path d="M34.4787 30.3689C33.091 30.4 32.7384 29.9254 33.1905 28.7262C33.5801 27.6913 34.3765 27.11 35.4189 26.8645C36.284 26.661 37.1501 26.6655 37.9917 26.9941C38.639 27.2469 38.9572 27.6886 38.95 28.2827C38.9401 29.0794 38.6472 29.4089 37.8606 29.4883C37.5922 29.5156 37.3182 29.501 37.0515 29.5403C36.8481 29.5704 36.5887 29.5941 36.463 29.7255C35.8745 30.3434 35.1043 30.2841 34.4787 30.3689Z" fill="#E33238"/>
<path d="M17.3637 28.3629C16.8277 28.2215 16.2283 28.1302 15.6859 27.903C15.1091 27.6602 14.6987 27.2012 14.6987 26.5058C14.6987 25.7656 15.0648 25.2363 15.6922 24.8932C16.4552 24.477 17.2327 24.5875 18.0056 24.8804C18.8156 25.187 19.4746 25.7008 20.0053 26.3844C20.4528 26.9602 20.253 27.7159 19.5542 27.9121C18.8644 28.1074 18.1484 28.206 17.3637 28.3629Z" fill="#E33238"/>
<path d="M21.5991 19.164C20.4781 19.0846 19.2938 18.5288 18.4061 17.4117C17.7407 16.5749 18.1141 15.4305 19.1474 15.1466C19.4837 15.0545 19.8733 15.0316 20.2141 15.101C21.4445 15.3529 22.3775 16.0702 23.0157 17.1498C23.7308 18.3599 23.2679 19.1658 21.5991 19.164Z" fill="#E33238"/>
<path d="M32.2703 9.98721C32.546 10.6516 32.8217 11.3169 33.121 12.0369C33.0016 12.0771 32.8452 12.1309 32.6635 12.193C32.5306 11.4273 32.4041 10.7027 32.2784 9.97809C32.2793 9.97717 32.2703 9.98721 32.2703 9.98721Z" fill="#E33238"/>
</svg>
