<svg width="240" height="240" viewBox="0 0 240 240" fill="none" xmlns="http://www.w3.org/2000/svg">
<mask id="mask0" mask-type="alpha" maskUnits="userSpaceOnUse" x="0" y="0" width="240" height="240">
<circle cx="120" cy="120" r="120" fill="#4E4451"/>
</mask>
<g mask="url(#mask0)">
<circle cx="120" cy="120" r="120" fill="#CABCAA"/>
<path d="M126.327 123.699C125.477 123.699 124.682 123.172 124.388 122.329C123.216 119.006 120.825 116.341 117.653 114.82C114.481 113.299 110.904 113.107 107.581 114.272C106.513 114.649 105.334 114.087 104.957 113.018C104.581 111.949 105.142 110.771 106.211 110.394C110.569 108.859 115.262 109.113 119.421 111.113C123.586 113.107 126.724 116.608 128.252 120.966C128.629 122.034 128.067 123.213 126.998 123.59C126.786 123.665 126.553 123.699 126.327 123.699Z" fill="#746A5D"/>
<path d="M117.694 154.578C113.878 154.578 110.082 153.722 106.54 152.023C100.312 149.035 95.6189 143.808 93.3305 137.292C91.1381 131.071 91.9465 124.323 95.5435 118.787C96.1601 117.834 97.4345 117.567 98.3868 118.184C99.3392 118.8 99.6064 120.075 98.9898 121.027C96.0916 125.487 95.4407 130.92 97.2016 135.929C99.1268 141.41 103.073 145.808 108.315 148.316C113.549 150.824 119.455 151.146 124.929 149.22C129.663 147.556 133.85 144.644 137.036 140.807C137.762 139.937 139.057 139.814 139.927 140.54C140.804 141.266 140.92 142.561 140.194 143.431C136.535 147.843 131.726 151.187 126.293 153.098C123.483 154.092 120.585 154.578 117.694 154.578Z" fill="#746A5D"/>
<path d="M144.319 133.414C144.127 133.414 143.935 133.387 143.743 133.332C142.654 133.017 142.023 131.88 142.339 130.783C143.949 125.227 143.784 119.39 141.852 113.908C140.413 109.825 138.283 106.098 135.501 102.83C134.768 101.967 134.871 100.665 135.734 99.9316C136.597 99.1985 137.899 99.3013 138.632 100.165C141.736 103.816 144.12 107.982 145.73 112.545C147.943 118.841 148.135 125.542 146.285 131.928C146.031 132.825 145.216 133.414 144.319 133.414Z" fill="#746A5D"/>
<path d="M66.3429 146.117C65.3974 146.117 64.541 145.459 64.3355 144.493C59.2175 120.698 72.6942 96.6498 95.6943 88.5515C106.376 84.7969 118.16 85.8315 128.026 91.4017C129.013 91.9566 129.362 93.2104 128.807 94.2039C128.252 95.1905 126.998 95.5399 126.005 94.9849C117.173 89.9971 106.622 89.0653 97.0577 92.4294C76.0102 99.8357 63.6709 121.849 68.3504 143.623C68.5902 144.733 67.8845 145.829 66.7746 146.062C66.6307 146.103 66.4868 146.117 66.3429 146.117Z" fill="#746A5D"/>
<path d="M122.648 190.679C104.19 190.679 86.3832 182.155 74.7633 166.76C74.0781 165.856 74.2563 164.568 75.1607 163.883C76.065 163.198 77.3531 163.376 78.0382 164.287C92.7961 183.827 118.256 191.494 141.372 183.354C159.659 176.921 174.149 163.657 182.186 146.014C182.659 144.98 183.878 144.528 184.906 144.994C185.941 145.466 186.393 146.686 185.927 147.714C177.424 166.39 162.091 180.422 142.743 187.232C136.131 189.555 129.348 190.679 122.648 190.679Z" fill="#746A5D"/>
<path d="M190.12 127.159C190.038 127.159 189.962 127.153 189.88 127.146C188.75 127.015 187.941 125.995 188.078 124.864C189.318 114.176 188.126 103.577 184.522 93.3478C180.576 82.1389 174.574 72.0262 166.668 63.2907C165.907 62.448 165.969 61.1462 166.812 60.3857C167.654 59.6252 168.956 59.6869 169.717 60.5296C177.986 69.6694 184.276 80.2548 188.4 91.9843C192.21 102.803 193.47 114.025 192.155 125.337C192.032 126.392 191.148 127.159 190.12 127.159Z" fill="#746A5D"/>
<path d="M35.9502 58.5426C35.3541 58.5426 34.7717 58.2891 34.3606 57.7958C33.6412 56.9188 33.7646 55.6239 34.6416 54.9045C44.7816 46.5458 56.6756 39.9274 70.0084 35.2342C101.285 24.2309 136.344 30.8493 161.495 52.5134C162.351 53.2533 162.454 54.5551 161.714 55.4115C160.974 56.2748 159.673 56.3707 158.816 55.6239C134.768 34.919 101.264 28.5884 71.365 39.1052C58.4981 43.634 47.0152 50.0195 37.2519 58.0699C36.8683 58.385 36.4092 58.5426 35.9502 58.5426Z" fill="#746A5D"/>
<path d="M16.2662 80.3916C15.8756 80.3916 15.4851 80.2819 15.1357 80.0558C14.1902 79.4324 13.923 78.158 14.5465 77.2125C17.8831 72.1425 21.7267 67.3328 25.9814 62.9137C26.7693 62.0984 28.0711 62.071 28.8864 62.8589C29.7017 63.6468 29.7291 64.9485 28.9412 65.7639C24.8647 69.998 21.1786 74.609 17.9859 79.4666C17.5885 80.0695 16.9307 80.3916 16.2662 80.3916Z" fill="#746A5D"/>
<path d="M7.33195 176.517C6.48238 176.517 5.68762 175.989 5.39301 175.14C-4.63057 146.645 -4.45929 118.424 5.89316 93.5121C6.33165 92.4638 7.53064 91.9637 8.5789 92.4022C9.62716 92.8407 10.1205 94.0397 9.68882 95.0879C-0.266239 119.054 -0.410117 146.261 9.27089 173.783C9.64772 174.852 9.0859 176.03 8.01709 176.407C7.79099 176.482 7.55804 176.517 7.33195 176.517Z" fill="#746A5D"/>
<path d="M156.658 81.7685C155.521 81.7685 154.602 80.8505 154.602 79.7131V69.3196C154.602 68.1822 155.521 67.2642 156.658 67.2642C157.795 67.2642 158.713 68.1822 158.713 69.3196V79.7063C158.713 80.8436 157.788 81.7685 156.658 81.7685Z" fill="#746A5D"/>
<path d="M161.851 76.5754H151.465C150.327 76.5754 149.409 75.6573 149.409 74.52C149.409 73.3827 150.327 72.4646 151.465 72.4646H161.851C162.989 72.4646 163.907 73.3827 163.907 74.52C163.907 75.6505 162.989 76.5754 161.851 76.5754Z" fill="#746A5D"/>
<path d="M39.8212 130.468C38.6839 130.468 37.7658 129.55 37.7658 128.413V118.026C37.7658 116.889 38.6839 115.971 39.8212 115.971C40.9586 115.971 41.8766 116.889 41.8766 118.026V128.413C41.8766 129.55 40.9517 130.468 39.8212 130.468Z" fill="#746A5D"/>
<path d="M45.0146 125.275H34.621C33.4837 125.275 32.5656 124.357 32.5656 123.22C32.5656 122.082 33.4837 121.164 34.621 121.164H45.0077C46.1451 121.164 47.0631 122.082 47.0631 123.22C47.07 124.35 46.1519 125.275 45.0146 125.275Z" fill="#746A5D"/>
<path d="M21.8637 149.399C20.7264 149.399 19.8083 148.481 19.8083 147.343V136.957C19.8083 135.819 20.7264 134.901 21.8637 134.901C23.0011 134.901 23.9192 135.819 23.9192 136.957V147.343C23.9192 148.474 23.0011 149.399 21.8637 149.399Z" fill="#746A5D"/>
<path d="M27.0571 144.198H16.6704C15.533 144.198 14.615 143.28 14.615 142.143C14.615 141.006 15.533 140.088 16.6704 140.088H27.0571C28.1944 140.088 29.1125 141.006 29.1125 142.143C29.1125 143.28 28.1944 144.198 27.0571 144.198Z" fill="#746A5D"/>
<path d="M114.282 137.758C113.145 137.758 112.227 136.84 112.227 135.703V125.316C112.227 124.179 113.145 123.261 114.282 123.261C115.419 123.261 116.338 124.179 116.338 125.316V135.703C116.338 136.84 115.419 137.758 114.282 137.758Z" fill="#746A5D"/>
<path d="M119.475 132.565H109.089C107.951 132.565 107.033 131.647 107.033 130.51C107.033 129.372 107.951 128.454 109.089 128.454H119.475C120.613 128.454 121.531 129.372 121.531 130.51C121.531 131.64 120.613 132.565 119.475 132.565Z" fill="#746A5D"/>
<path d="M191.045 52.9996C186.585 52.9996 182.954 49.3684 182.954 44.9081C182.954 40.4479 186.585 36.8167 191.045 36.8167C195.505 36.8167 199.136 40.4479 199.136 44.9081C199.136 49.3684 195.512 52.9996 191.045 52.9996ZM191.045 40.9275C188.853 40.9275 187.064 42.7157 187.064 44.9081C187.064 47.1006 188.853 48.8888 191.045 48.8888C193.237 48.8888 195.026 47.1006 195.026 44.9081C195.026 42.7157 193.244 40.9275 191.045 40.9275Z" fill="#746A5D"/>
<path d="M199.445 76.5755C195.649 76.5755 192.559 73.4855 192.559 69.6898C192.559 65.8942 195.649 62.811 199.445 62.811C203.24 62.811 206.33 65.901 206.33 69.6898C206.33 73.4855 203.24 76.5755 199.445 76.5755ZM199.445 66.915C197.917 66.915 196.67 68.1551 196.67 69.683C196.67 71.2108 197.917 72.4578 199.445 72.4578C200.973 72.4578 202.22 71.2108 202.22 69.683C202.22 68.162 200.973 66.915 199.445 66.915Z" fill="#746A5D"/>
<path d="M215.265 62.8382C209.941 62.8382 205.604 58.5081 205.604 53.1846C205.604 47.8611 209.934 43.531 215.265 43.531C220.588 43.531 224.918 47.8611 224.918 53.1846C224.918 58.5013 220.588 62.8382 215.265 62.8382ZM215.265 47.635C212.209 47.635 209.715 50.122 209.715 53.1778C209.715 56.2335 212.202 58.7205 215.265 58.7205C218.32 58.7205 220.807 56.2335 220.807 53.1778C220.807 50.122 218.32 47.635 215.265 47.635Z" fill="#746A5D"/>
<path d="M37.5603 176.428C31.442 176.428 26.4679 171.454 26.4679 165.335C26.4679 159.217 31.442 154.243 37.5603 154.243C43.6785 154.243 48.6527 159.217 48.6527 165.335C48.6527 171.454 43.6785 176.428 37.5603 176.428ZM37.5603 158.354C33.7098 158.354 30.5787 161.485 30.5787 165.335C30.5787 169.186 33.7098 172.317 37.5603 172.317C41.4107 172.317 44.5418 169.186 44.5418 165.335C44.5418 161.485 41.4107 158.354 37.5603 158.354Z" fill="#746A5D"/>
<path d="M30.6266 203.175C26.413 203.175 22.9805 199.743 22.9805 195.529C22.9805 191.316 26.413 187.883 30.6266 187.883C34.8402 187.883 38.2728 191.316 38.2728 195.529C38.2728 199.75 34.8471 203.175 30.6266 203.175ZM30.6266 191.994C28.674 191.994 27.0913 193.577 27.0913 195.529C27.0913 197.482 28.6809 199.065 30.6266 199.065C32.5724 199.065 34.162 197.475 34.162 195.529C34.162 193.583 32.5793 191.994 30.6266 191.994Z" fill="#746A5D"/>
<path d="M56.7647 209.602C51.2699 209.602 46.8028 205.135 46.8028 199.64C46.8028 194.145 51.2699 189.678 56.7647 189.678C62.2595 189.678 66.7266 194.145 66.7266 199.64C66.7335 205.135 62.2595 209.602 56.7647 209.602ZM56.7647 193.789C53.5377 193.789 50.9136 196.413 50.9136 199.64C50.9136 202.867 53.5377 205.491 56.7647 205.491C59.9917 205.491 62.6158 202.867 62.6158 199.64C62.6226 196.413 59.9986 193.789 56.7647 193.789Z" fill="#746A5D"/>
<path d="M49.9407 79.5766C49.9407 82.372 47.6729 84.6329 44.8844 84.6329C42.089 84.6329 39.8212 82.3651 39.8212 79.5766C39.8212 76.7812 42.089 74.5203 44.8844 74.5203C47.6729 74.5203 49.9407 76.7812 49.9407 79.5766Z" fill="#746A5D"/>
<path d="M71.3239 84.6328C74.9943 84.6328 77.9697 81.6573 77.9697 77.9869C77.9697 74.3165 74.9943 71.3411 71.3239 71.3411C67.6535 71.3411 64.678 74.3165 64.678 77.9869C64.678 81.6573 67.6535 84.6328 71.3239 84.6328Z" fill="#746A5D"/>
<path d="M59.0257 64.195C59.0257 65.442 58.0117 66.456 56.7647 66.456C55.5178 66.456 54.5038 65.442 54.5038 64.195C54.5038 62.9481 55.5178 61.9341 56.7647 61.9341C58.0117 61.9409 59.0257 62.9481 59.0257 64.195Z" fill="#746A5D"/>
<path d="M156.658 153.88C156.658 155.312 155.493 156.476 154.061 156.476C152.629 156.476 151.465 155.312 151.465 153.88C151.465 152.448 152.629 151.283 154.061 151.283C155.493 151.283 156.658 152.448 156.658 153.88Z" fill="#746A5D"/>
<path d="M162.057 127.803C162.057 129.297 160.851 130.502 159.357 130.502C157.864 130.502 156.658 129.297 156.658 127.803C156.658 126.309 157.864 125.104 159.357 125.104C160.851 125.104 162.057 126.316 162.057 127.803Z" fill="#746A5D"/>
<path d="M179.644 136.95C179.644 140.225 176.986 142.883 173.711 142.883C170.436 142.883 167.778 140.225 167.778 136.95C167.778 133.675 170.436 131.017 173.711 131.017C176.993 131.017 179.644 133.675 179.644 136.95Z" fill="#746A5D"/>
</g>
</svg>
