<svg width="240" height="240" viewBox="0 0 240 240" fill="none" xmlns="http://www.w3.org/2000/svg">
<mask id="mask0" mask-type="alpha" maskUnits="userSpaceOnUse" x="0" y="0" width="240" height="240">
<circle cx="120" cy="120" r="120" fill="#4E4451"/>
</mask>
<g mask="url(#mask0)">
<circle cx="120" cy="120" r="120" fill="#CABCAA"/>
<path d="M19.0447 101.823C17.9672 101.823 17.0975 100.955 17.0975 99.8798V91.2978C17.0975 90.2226 17.9672 89.3547 19.0447 89.3547C20.1222 89.3547 20.9919 90.2226 20.9919 91.2978V99.8863C20.9919 100.955 20.1222 101.823 19.0447 101.823Z" fill="#746A5D"/>
<path d="M23.3481 97.5348H14.7414C13.6639 97.5348 12.7941 96.6669 12.7941 95.5918C12.7941 94.5166 13.6639 93.6487 14.7414 93.6487H23.3481C24.4255 93.6487 25.2953 94.5166 25.2953 95.5918C25.2953 96.6669 24.4255 97.5348 23.3481 97.5348Z" fill="#746A5D"/>
<path d="M40.503 78.2275C39.4255 78.2275 38.5558 77.3596 38.5558 76.2844V59.6645C38.5558 58.5893 39.4255 57.7214 40.503 57.7214C41.5805 57.7214 42.4502 58.5893 42.4502 59.6645V76.2844C42.4502 77.3596 41.5805 78.2275 40.503 78.2275Z" fill="#746A5D"/>
<path d="M48.8307 69.9177H32.1754C31.098 69.9177 30.2282 69.0498 30.2282 67.9746C30.2282 66.8994 31.098 66.0315 32.1754 66.0315H48.8242C49.9017 66.0315 50.7714 66.8994 50.7714 67.9746C50.7779 69.0498 49.9017 69.9177 48.8307 69.9177Z" fill="#746A5D"/>
<path d="M10.3536 66.7433C9.27613 66.7433 8.40637 65.8754 8.40637 64.8002V52.0212C8.40637 50.946 9.27613 50.0781 10.3536 50.0781C11.4311 50.0781 12.3008 50.946 12.3008 52.0212V64.8002C12.3008 65.8754 11.4246 66.7433 10.3536 66.7433Z" fill="#746A5D"/>
<path d="M16.7535 60.3571H3.94722C2.86976 60.3571 2 59.4892 2 58.414C2 57.3389 2.86976 56.4709 3.94722 56.4709H16.7535C17.8309 56.4709 18.7007 57.3389 18.7007 58.414C18.7007 59.4892 17.8309 60.3571 16.7535 60.3571Z" fill="#746A5D"/>
<path d="M100.322 175.893C100.211 175.893 100.095 175.887 99.9842 175.861C98.9262 175.673 98.2187 174.669 98.4004 173.613C98.6276 172.331 98.7379 171.003 98.7379 169.675C98.7379 157.136 88.515 146.935 75.9489 146.935C63.3829 146.935 53.1599 157.136 53.1599 169.675C53.1599 170.751 52.2902 171.618 51.2127 171.618C50.1353 171.618 49.2655 170.751 49.2655 169.675C49.2655 154.992 61.2344 143.049 75.9489 143.049C90.6635 143.049 102.632 154.992 102.632 169.675C102.632 171.223 102.496 172.778 102.236 174.28C102.074 175.226 101.25 175.893 100.322 175.893Z" fill="#746A5D"/>
<path d="M75.9555 180.524C69.958 180.524 65.0835 175.66 65.0835 169.676C65.0835 163.691 69.958 158.827 75.9555 158.827C81.9529 158.827 86.8275 163.691 86.8275 169.676C86.8275 175.66 81.9529 180.524 75.9555 180.524ZM75.9555 162.713C72.1065 162.713 68.9779 165.835 68.9779 169.676C68.9779 173.516 72.1065 176.638 75.9555 176.638C79.8045 176.638 82.933 173.516 82.933 169.676C82.933 165.841 79.8045 162.713 75.9555 162.713Z" fill="#746A5D"/>
<path d="M152.41 188.264C151.943 188.264 151.469 188.096 151.099 187.752C150.307 187.027 150.249 185.796 150.976 185.006C154.818 180.809 156.934 175.362 156.934 169.669C156.934 157.129 146.711 146.928 134.145 146.928C121.579 146.928 111.356 157.129 111.356 169.669C111.356 170.744 110.486 171.612 109.409 171.612C108.331 171.612 107.462 170.744 107.462 169.669C107.462 154.985 119.431 143.042 134.145 143.042C148.86 143.042 160.828 154.985 160.828 169.669C160.828 176.334 158.349 182.707 153.851 187.623C153.461 188.05 152.936 188.264 152.41 188.264Z" fill="#746A5D"/>
<path d="M141.512 176.645C141.136 176.645 140.753 176.535 140.415 176.301C139.526 175.693 139.299 174.488 139.909 173.601C140.701 172.441 141.123 171.088 141.123 169.676C141.123 165.835 137.994 162.713 134.145 162.713C130.296 162.713 127.167 165.835 127.167 169.676C127.167 170.751 126.298 171.619 125.22 171.619C124.143 171.619 123.273 170.751 123.273 169.676C123.273 163.691 128.148 158.827 134.145 158.827C140.142 158.827 145.017 163.691 145.017 169.676C145.017 171.871 144.361 173.989 143.122 175.796C142.745 176.347 142.135 176.645 141.512 176.645Z" fill="#746A5D"/>
<path d="M192.335 196.302C177.62 196.302 165.651 184.359 165.651 169.675C165.651 154.992 177.62 143.049 192.335 143.049C207.049 143.049 219.018 154.992 219.018 169.675C219.018 184.359 207.049 196.302 192.335 196.302ZM192.335 146.941C179.768 146.941 169.546 157.142 169.546 169.682C169.546 182.221 179.768 192.422 192.335 192.422C204.901 192.422 215.124 182.221 215.124 169.682C215.124 157.142 204.901 146.941 192.335 146.941Z" fill="#746A5D"/>
<path d="M192.335 180.524C186.337 180.524 181.463 175.66 181.463 169.676C181.463 163.691 186.337 158.827 192.335 158.827C198.332 158.827 203.207 163.691 203.207 169.676C203.207 175.66 198.332 180.524 192.335 180.524ZM192.335 162.713C188.486 162.713 185.357 165.835 185.357 169.676C185.357 173.516 188.486 176.638 192.335 176.638C196.184 176.638 199.312 173.516 199.312 169.676C199.312 165.841 196.184 162.713 192.335 162.713Z" fill="#746A5D"/>
<path d="M112.927 158.93H97.1738C96.0963 158.93 95.2266 158.062 95.2266 156.987C95.2266 155.912 96.0963 155.044 97.1738 155.044H112.927C114.004 155.044 114.874 155.912 114.874 156.987C114.874 158.062 114.004 158.93 112.927 158.93Z" fill="#746A5D"/>
<path d="M188.395 147.252C187.317 147.252 186.447 146.384 186.447 145.309V128.022C186.447 119.323 179.353 112.244 170.636 112.244H93.7207C85.0037 112.244 77.9093 119.323 77.9093 128.022V144.998C77.9093 146.073 77.0395 146.941 75.9621 146.941C74.8846 146.941 74.0148 146.073 74.0148 144.998V128.022C74.0148 117.18 82.8552 108.358 93.7207 108.358H170.636C181.502 108.358 190.342 117.18 190.342 128.022V145.309C190.342 146.384 189.472 147.252 188.395 147.252Z" fill="#746A5D"/>
<path d="M171.116 158.93H155.363C154.286 158.93 153.416 158.062 153.416 156.987C153.416 155.912 154.286 155.044 155.363 155.044H171.116C172.194 155.044 173.063 155.912 173.063 156.987C173.063 158.062 172.194 158.93 171.116 158.93Z" fill="#746A5D"/>
<path d="M166.768 95.9741C159.414 95.9741 152.507 93.1178 147.308 87.9297C137.196 77.8386 136.566 61.4584 145.867 50.6419C146.218 50.2338 146.731 49.9877 147.269 49.9683C147.808 49.9489 148.334 50.1561 148.723 50.5383L184.786 86.5242C185.169 86.9064 185.376 87.431 185.357 87.9751C185.338 88.5127 185.091 89.0243 184.682 89.3741C179.704 93.6294 173.343 95.9741 166.768 95.9741ZM147.522 54.8325C140.928 64.0751 141.882 77.0225 150.06 85.1835C154.519 89.6332 160.452 92.0879 166.761 92.0879C171.694 92.0879 176.491 90.5464 180.469 87.716L147.522 54.8325Z" fill="#746A5D"/>
<path d="M152.994 78.4928C152.326 78.4928 151.67 78.1495 151.307 77.5277C150.164 75.5652 149.411 73.4213 149.074 71.1609C148.918 70.0986 149.651 69.1077 150.716 68.9522C151.767 68.7968 152.767 69.5287 152.929 70.5909C153.195 72.3656 153.78 74.0431 154.675 75.5781C155.214 76.5043 154.902 77.6961 153.968 78.2337C153.669 78.4086 153.332 78.4928 152.994 78.4928Z" fill="#746A5D"/>
<path d="M165.379 71.8405C164.879 71.8405 164.379 71.6527 164.002 71.2705C163.243 70.5127 163.243 69.2821 164.002 68.5243L167.858 64.677C168.617 63.9192 169.851 63.9192 170.61 64.677C171.369 65.4348 171.369 66.6654 170.61 67.4232L166.755 71.2705C166.378 71.6527 165.878 71.8405 165.379 71.8405Z" fill="#746A5D"/>
<path d="M172.408 69.308C170.688 69.308 169.072 68.6409 167.858 67.4297C166.644 66.2185 165.976 64.6058 165.976 62.8894C165.976 61.173 166.644 59.5602 167.858 58.349C169.072 57.1378 170.688 56.4707 172.408 56.4707C174.128 56.4707 175.744 57.1378 176.958 58.349C179.463 60.8556 179.463 64.9296 176.958 67.4297C175.738 68.6409 174.122 69.308 172.408 69.308ZM172.408 60.3504C171.733 60.3504 171.09 60.616 170.61 61.0952C170.13 61.5745 169.864 62.2093 169.864 62.8894C169.864 63.563 170.13 64.2042 170.61 64.6835C171.571 65.6421 173.245 65.6421 174.199 64.6835C175.193 63.6925 175.193 62.0862 174.199 61.1017C173.719 60.616 173.083 60.3504 172.408 60.3504Z" fill="#746A5D"/>
<path d="M148.691 112.244C147.613 112.244 146.744 111.377 146.744 110.301V86.5569C146.744 85.4817 147.613 84.6138 148.691 84.6138C149.768 84.6138 150.638 85.4817 150.638 86.5569V110.301C150.638 111.377 149.762 112.244 148.691 112.244Z" fill="#746A5D"/>
<path d="M106.676 112.244C105.599 112.244 104.729 111.376 104.729 110.301V97.5349H94.1751C93.0976 97.5349 92.2278 96.6669 92.2278 95.5918C92.2278 94.5166 93.0976 93.6487 94.1751 93.6487H106.676C107.754 93.6487 108.623 94.5166 108.623 95.5918V110.301C108.623 111.376 107.747 112.244 106.676 112.244Z" fill="#746A5D"/>
<path d="M75.9945 128.871H55.3993C54.8801 128.871 54.3868 128.663 54.0233 128.301L43.7679 118.067C43.0085 117.309 43.0085 116.079 43.7679 115.321C44.5273 114.563 45.7606 114.563 46.52 115.321L56.2042 124.984H75.9945C77.0719 124.984 77.9417 125.852 77.9417 126.928C77.9417 128.003 77.0719 128.871 75.9945 128.871Z" fill="#746A5D"/>
<path d="M147.373 128.87H94.1751C93.0976 128.87 92.2278 128.002 92.2278 126.927C92.2278 125.852 93.0976 124.984 94.1751 124.984H147.373C148.451 124.984 149.32 125.852 149.32 126.927C149.32 128.002 148.451 128.87 147.373 128.87Z" fill="#746A5D"/>
<path d="M162.302 128.87H155.383C154.305 128.87 153.436 128.002 153.436 126.927C153.436 125.852 154.305 124.984 155.383 124.984H162.302C163.379 124.984 164.249 125.852 164.249 126.927C164.249 128.002 163.379 128.87 162.302 128.87Z" fill="#746A5D"/>
<path d="M98.3421 140.704H94.1751C93.0976 140.704 92.2278 139.836 92.2278 138.76C92.2278 137.685 93.0976 136.817 94.1751 136.817H98.3421C99.4196 136.817 100.289 137.685 100.289 138.76C100.289 139.836 99.4196 140.704 98.3421 140.704Z" fill="#746A5D"/>
<path d="M41.3533 119.68C38.783 119.68 36.2451 118.631 34.4277 116.642C33.7008 115.852 33.7592 114.621 34.5575 113.896C35.3494 113.17 36.5827 113.229 37.3096 114.025C39.0491 115.93 41.931 116.357 44.1509 115.029C45.0725 114.479 46.2733 114.777 46.8186 115.703C47.3703 116.623 47.0717 117.814 46.1435 118.365C44.6571 119.246 42.9955 119.68 41.3533 119.68Z" fill="#746A5D"/>
<path d="M49.8498 112.445C49.7329 112.445 49.6096 112.432 49.4863 112.412C48.4283 112.212 47.7338 111.195 47.935 110.139C48.2855 108.293 47.6364 106.356 46.2474 105.093C45.4555 104.368 45.3971 103.144 46.1176 102.347C46.8445 101.557 48.0713 101.499 48.8696 102.218C51.2517 104.381 52.3552 107.697 51.758 110.858C51.5828 111.797 50.7649 112.445 49.8498 112.445Z" fill="#746A5D"/>
<path d="M94.175 102.328H76.8707C75.7932 102.328 74.9235 101.46 74.9235 100.385V90.1902C74.9235 89.115 75.7932 88.2471 76.8707 88.2471H94.175C95.2525 88.2471 96.1222 89.115 96.1222 90.1902V100.385C96.1222 101.46 95.2525 102.328 94.175 102.328ZM78.8179 98.4418H92.2278V92.1332H78.8179V98.4418Z" fill="#746A5D"/>
<path d="M172.408 196.781H148.788V192.895H172.408C173.485 192.895 174.355 193.763 174.355 194.838C174.355 195.914 173.479 196.781 172.408 196.781Z" fill="#746A5D"/>
<path d="M148.788 196.781C148.1 196.781 147.432 196.412 147.075 195.771C141.123 184.883 129.712 178.121 117.295 178.121C106.585 178.121 96.7259 183.018 90.2481 191.561C89.7224 192.254 88.8007 192.513 87.9893 192.202C85.789 191.347 83.4783 190.913 81.1221 190.913C78.6362 190.913 76.2086 191.392 73.9174 192.332C72.9697 192.72 71.8858 192.312 71.4314 191.392C67.7772 183.996 60.3712 179.404 52.115 179.404C45.3387 179.404 39.0881 182.493 34.9794 187.882C34.3304 188.737 33.1036 188.899 32.2533 188.251C31.3965 187.603 31.2343 186.379 31.8833 185.531C36.7384 179.17 44.1119 175.517 52.1215 175.517C61.2799 175.517 69.5491 180.31 74.0991 188.135C78.5842 186.684 83.5237 186.671 88.0348 188.102C95.2525 179.274 105.839 174.241 117.308 174.241C131.146 174.241 143.868 181.781 150.508 193.918C151.021 194.858 150.677 196.043 149.729 196.555C149.418 196.704 149.1 196.781 148.788 196.781Z" fill="#746A5D"/>
<path d="M152.008 140.328C152.972 140.328 153.754 139.548 153.754 138.586C153.754 137.624 152.972 136.844 152.008 136.844C151.043 136.844 150.262 137.624 150.262 138.586C150.262 139.548 151.043 140.328 152.008 140.328Z" fill="#746A5D"/>
<path d="M167.28 141.416C167.28 143.942 165.229 145.989 162.698 145.989C160.166 145.989 158.115 143.942 158.115 141.416C158.115 138.89 160.166 136.844 162.698 136.844C165.223 136.844 167.28 138.89 167.28 141.416Z" fill="#746A5D"/>
<path d="M176.25 139.085C176.25 140.322 175.244 141.326 174.005 141.326C172.765 141.326 171.759 140.322 171.759 139.085C171.759 137.847 172.765 136.844 174.005 136.844C175.251 136.844 176.25 137.847 176.25 139.085Z" fill="#746A5D"/>
<path d="M37.764 168.108C36.9462 168.108 36.1867 167.59 35.9141 166.767C35.5896 165.776 35.278 164.766 34.986 163.768C34.6874 162.739 35.2845 161.657 36.3166 161.359C37.3486 161.061 38.4261 161.657 38.7311 162.687C39.0102 163.639 39.3088 164.61 39.6203 165.556C39.9579 166.573 39.3997 167.674 38.3741 168.011C38.1664 168.076 37.9652 168.108 37.764 168.108ZM34.2785 153.159C33.3243 153.159 32.487 152.46 32.3507 151.488C32.2079 150.465 32.0781 149.415 31.9678 148.373C31.8574 147.304 32.6298 146.352 33.7008 146.235C34.7653 146.125 35.7259 146.896 35.8427 147.965C35.9466 148.969 36.0699 149.966 36.2127 150.944C36.362 152.006 35.6221 152.991 34.5576 153.14C34.4602 153.153 34.3693 153.159 34.2785 153.159Z" fill="#746A5D"/>
<path d="M207.205 129.563C206.244 129.563 205.407 128.851 205.277 127.873C205.147 126.888 204.998 125.884 204.836 124.9C204.66 123.844 205.374 122.84 206.439 122.665C207.497 122.491 208.503 123.203 208.678 124.265C208.847 125.295 209.003 126.338 209.139 127.374C209.275 128.436 208.529 129.414 207.458 129.55C207.374 129.557 207.289 129.563 207.205 129.563ZM203.882 114.582C203.057 114.582 202.285 114.051 202.025 113.222C201.727 112.276 201.402 111.324 201.065 110.379C200.701 109.368 201.233 108.254 202.246 107.898C203.258 107.535 204.375 108.066 204.732 109.077C205.082 110.068 205.426 111.065 205.738 112.056C206.062 113.08 205.491 114.174 204.466 114.491C204.271 114.556 204.076 114.582 203.882 114.582ZM197.955 100.424C197.254 100.424 196.579 100.048 196.229 99.3808C195.768 98.5064 195.281 97.619 194.782 96.7511C194.249 95.8184 194.567 94.6331 195.502 94.102C196.437 93.5709 197.624 93.8948 198.157 94.821C198.682 95.7342 199.189 96.6604 199.669 97.5737C200.169 98.5258 199.805 99.6981 198.851 100.197C198.566 100.352 198.261 100.424 197.955 100.424Z" fill="#746A5D"/>
<path d="M51.6347 87.6836C51.2193 87.6836 50.7974 87.554 50.4469 87.2755C49.5966 86.6214 49.4408 85.3972 50.0964 84.5487C50.7325 83.7326 51.3945 82.9101 52.0631 82.1004C52.7511 81.2779 53.9778 81.1613 54.8022 81.8478C55.633 82.5344 55.7433 83.7585 55.0553 84.5811C54.4127 85.3519 53.7766 86.1421 53.173 86.9258C52.79 87.4245 52.2124 87.6836 51.6347 87.6836ZM62.0783 76.4137C61.546 76.4137 61.0203 76.1999 60.6373 75.7789C59.9169 74.9823 59.9753 73.7581 60.7736 73.0327C61.5525 72.3332 62.3444 71.6337 63.1428 70.9666C63.9671 70.2735 65.1938 70.3771 65.8883 71.1932C66.5829 72.0158 66.479 73.24 65.6612 73.933C64.9018 74.5742 64.1358 75.2413 63.3959 75.9149C63.0129 76.2518 62.5391 76.4137 62.0783 76.4137ZM74.3263 67.1452C73.6772 67.1452 73.0476 66.8213 72.6777 66.2384C72.1065 65.3316 72.3791 64.1334 73.2878 63.5569C74.1705 63.0064 75.0728 62.4558 75.9815 61.9312C76.9096 61.3936 78.1039 61.711 78.6427 62.6372C79.1814 63.5634 78.8633 64.7552 77.9352 65.2927C77.0654 65.7979 76.2021 66.3161 75.3583 66.8472C75.0403 67.048 74.6833 67.1452 74.3263 67.1452ZM88.0153 60.1565C87.2429 60.1565 86.5159 59.6966 86.2109 58.9388C85.8084 57.9414 86.2887 56.8144 87.2883 56.4064C88.2554 56.0177 89.242 55.6421 90.2221 55.2794C91.2282 54.9167 92.3511 55.4348 92.7146 56.4387C93.0846 57.4491 92.5588 58.5632 91.5527 58.9259C90.6116 59.2692 89.6704 59.6319 88.7487 60.0011C88.5021 60.1112 88.2554 60.1565 88.0153 60.1565ZM102.717 55.7004C101.815 55.7004 101.003 55.0721 100.815 54.1524C100.594 53.1031 101.269 52.0733 102.321 51.8531C103.34 51.6393 104.378 51.445 105.404 51.2637C106.462 51.0823 107.468 51.7883 107.656 52.8505C107.838 53.9062 107.131 54.9102 106.066 55.098C105.079 55.2664 104.093 55.4542 103.113 55.6615C102.983 55.6874 102.847 55.7004 102.717 55.7004ZM117.983 53.8933C116.938 53.8933 116.068 53.0642 116.036 52.0085C116.003 50.9333 116.847 50.0395 117.925 50.0071C118.84 49.9812 119.762 49.9683 120.683 49.9683H121.066C122.144 49.9747 123.007 50.8426 123.007 51.9178C123 52.9865 122.131 53.8544 121.06 53.8544H121.053H120.683C119.8 53.8544 118.918 53.8674 118.041 53.8933C118.022 53.8933 118.003 53.8933 117.983 53.8933Z" fill="#746A5D"/>
<path d="M230.987 143.573C230.974 143.573 230.954 143.573 230.941 143.573C229.864 143.547 229.014 142.66 229.04 141.585C229.059 140.723 229.072 139.855 229.072 138.987V138.566C229.066 137.491 229.935 136.617 231.013 136.617H231.019C232.097 136.617 232.967 137.478 232.967 138.554V138.987C232.967 139.888 232.954 140.788 232.934 141.682C232.908 142.731 232.045 143.573 230.987 143.573ZM230.292 128.236C229.319 128.236 228.475 127.504 228.358 126.513C228.241 125.509 228.112 124.511 227.969 123.521C227.819 122.458 228.553 121.474 229.617 121.325C230.682 121.176 231.668 121.908 231.824 122.97C231.973 123.993 232.103 125.036 232.227 126.072C232.35 127.141 231.584 128.1 230.513 128.223C230.442 128.236 230.364 128.236 230.292 128.236ZM227.475 113.151C226.612 113.151 225.82 112.574 225.593 111.7C225.34 110.722 225.074 109.757 224.788 108.792C224.49 107.762 225.08 106.68 226.112 106.382C227.144 106.085 228.222 106.674 228.527 107.704C228.813 108.682 229.092 109.699 229.358 110.716C229.63 111.752 229.007 112.814 227.962 113.086C227.806 113.125 227.638 113.151 227.475 113.151ZM222.575 98.5972C221.815 98.5972 221.089 98.1503 220.777 97.3989C220.388 96.4727 219.992 95.553 219.576 94.6398C219.135 93.6617 219.57 92.5089 220.55 92.0684C221.53 91.628 222.685 92.0619 223.127 93.04C223.555 93.9791 223.97 94.9442 224.366 95.9028C224.782 96.8937 224.308 98.0337 223.321 98.4417C223.075 98.5518 222.822 98.5972 222.575 98.5972ZM215.682 84.8919C215.02 84.8919 214.371 84.5487 214.007 83.9398C213.494 83.0719 212.969 82.217 212.43 81.3685C211.859 80.4617 212.131 79.2635 213.04 78.687C213.949 78.1106 215.15 78.3891 215.727 79.2959C216.279 80.1638 216.824 81.0641 217.356 81.9579C217.902 82.8841 217.596 84.0759 216.675 84.6199C216.363 84.8013 216.019 84.8919 215.682 84.8919ZM206.945 72.2684C206.374 72.2684 205.809 72.0158 205.42 71.5365C204.79 70.7527 204.154 69.9755 203.499 69.2048C202.804 68.3822 202.908 67.158 203.726 66.465C204.55 65.772 205.777 65.8756 206.471 66.6982C207.146 67.4948 207.808 68.298 208.458 69.1141C209.126 69.9496 208.99 71.1738 208.152 71.8474C207.802 72.1259 207.374 72.2684 206.945 72.2684ZM196.534 60.9661C196.054 60.9661 195.573 60.7912 195.197 60.435C194.464 59.7419 193.724 59.0618 192.971 58.3882C192.172 57.6693 192.101 56.4452 192.821 55.642C193.542 54.8453 194.769 54.7741 195.573 55.493C196.352 56.1861 197.118 56.8921 197.878 57.611C198.657 58.3494 198.695 59.58 197.956 60.3572C197.566 60.7653 197.053 60.9661 196.534 60.9661ZM184.656 51.2118C184.267 51.2118 183.871 51.0952 183.527 50.8491C182.702 50.2661 181.878 49.6897 181.034 49.1262C180.138 48.5303 179.905 47.3191 180.502 46.4318C181.099 45.538 182.313 45.3048 183.202 45.9007C184.072 46.4836 184.929 47.073 185.779 47.6818C186.655 48.3036 186.856 49.5148 186.233 50.3892C185.863 50.9268 185.266 51.2118 184.656 51.2118ZM65.2912 45.6869C64.6227 45.6869 63.9671 45.3437 63.6036 44.7219C63.0649 43.7957 63.3765 42.6039 64.3111 42.0663C65.2068 41.5482 66.1285 41.03 67.0437 40.5313C67.9914 40.0196 69.1727 40.3629 69.6855 41.3085C70.1982 42.2477 69.8542 43.4329 68.9066 43.9446C68.0173 44.4239 67.1411 44.9226 66.2713 45.4278C65.9598 45.6027 65.6287 45.6869 65.2912 45.6869ZM171.532 43.1868C171.227 43.1868 170.922 43.1156 170.636 42.9666C169.74 42.5003 168.838 42.0469 167.929 41.6064C166.962 41.1401 166.56 39.9743 167.027 39.0092C167.494 38.0441 168.663 37.6425 169.63 38.1089C170.565 38.5623 171.506 39.0351 172.434 39.5144C173.388 40.0066 173.758 41.1854 173.265 42.1376C172.914 42.8047 172.233 43.1868 171.532 43.1868ZM79.097 38.912C78.3311 38.912 77.5977 38.4522 77.2926 37.7008C76.8902 36.7099 77.364 35.5764 78.3636 35.1684C79.3307 34.7733 80.3108 34.3911 81.2844 34.0284C82.2905 33.6527 83.4134 34.1579 83.7898 35.1684C84.1663 36.1723 83.6535 37.2928 82.6475 37.6685C81.6998 38.0247 80.7652 38.3874 79.8305 38.7695C79.5903 38.8667 79.3437 38.912 79.097 38.912ZM157.414 37.0726C157.2 37.0726 156.979 37.0337 156.765 36.9625C155.811 36.6257 154.85 36.3018 153.89 35.9974C152.864 35.6671 152.3 34.5725 152.631 33.5556C152.962 32.5322 154.059 31.9752 155.078 32.2991C156.064 32.6164 157.07 32.9532 158.057 33.303C159.069 33.6592 159.602 34.7668 159.245 35.7837C158.966 36.5739 158.213 37.0726 157.414 37.0726ZM93.7207 34.1385C92.8509 34.1385 92.0526 33.5491 91.8319 32.6682C91.5722 31.6255 92.2018 30.5697 93.2469 30.3106C94.2529 30.058 95.2785 29.8184 96.2975 29.5917C97.3425 29.3585 98.3875 30.0192 98.6212 31.0684C98.8549 32.1177 98.1928 33.154 97.1413 33.3872C96.1612 33.6009 95.1681 33.8341 94.201 34.0802C94.0322 34.1191 93.8765 34.1385 93.7207 34.1385ZM142.57 32.9921C142.44 32.9921 142.317 32.9791 142.187 32.9532C141.2 32.7524 140.207 32.5711 139.214 32.3962C138.156 32.2149 137.442 31.2109 137.624 30.1487C137.806 29.093 138.812 28.3805 139.876 28.5619C140.902 28.7367 141.934 28.931 142.959 29.1383C144.011 29.352 144.699 30.3754 144.485 31.4247C144.29 32.3509 143.479 32.9921 142.57 32.9921ZM108.864 31.4506C107.883 31.4506 107.033 30.7122 106.929 29.7148C106.819 28.6461 107.591 27.6875 108.662 27.5774C109.694 27.4673 110.746 27.3701 111.784 27.2924C112.855 27.2082 113.797 28.0113 113.881 29.08C113.965 30.1487 113.167 31.0879 112.089 31.1721C111.083 31.2498 110.077 31.3469 109.078 31.4506C109 31.4441 108.928 31.4506 108.864 31.4506ZM127.317 31.0231C127.278 31.0231 127.239 31.0231 127.2 31.0166C126.194 30.9583 125.188 30.913 124.175 30.8806C123.098 30.8482 122.254 29.9479 122.293 28.8792C122.325 27.8041 123.234 26.9685 124.299 27.0009C125.344 27.0333 126.395 27.0786 127.427 27.1434C128.498 27.2082 129.322 28.1279 129.257 29.1966C129.193 30.2264 128.336 31.0231 127.317 31.0231Z" fill="#746A5D"/>
<path d="M15.7345 175.006C14.9166 175.006 14.1507 174.481 13.8846 173.665C13.5665 172.681 13.2485 171.677 12.9564 170.679C12.6514 169.649 13.242 168.568 14.274 168.263C15.3061 167.959 16.39 168.548 16.6886 169.578C16.9742 170.543 17.2728 171.508 17.5843 172.46C17.9153 173.484 17.3571 174.578 16.3381 174.909C16.1369 174.973 15.9357 175.006 15.7345 175.006ZM12.0153 160.109C11.0871 160.109 10.2628 159.442 10.1005 158.503C9.91875 157.479 9.74999 156.436 9.60071 155.419C9.44493 154.357 10.1784 153.373 11.2429 153.217C12.3138 153.062 13.2939 153.794 13.4497 154.856C13.599 155.853 13.7548 156.844 13.93 157.835C14.1183 158.891 13.4108 159.902 12.3463 160.083C12.2424 160.096 12.1256 160.109 12.0153 160.109ZM10.4185 144.836C9.37353 144.836 8.51026 144.007 8.47132 142.958C8.43237 141.922 8.4129 140.879 8.40641 139.836C8.39992 138.761 9.26319 137.886 10.3406 137.88C11.3986 137.88 12.2944 138.735 12.3009 139.81C12.3073 140.82 12.3268 141.824 12.3658 142.828C12.4047 143.903 11.5609 144.797 10.4899 144.836C10.464 144.836 10.438 144.836 10.4185 144.836ZM10.9378 129.492C10.8729 129.492 10.8015 129.486 10.7366 129.479C9.66561 129.369 8.88672 128.417 8.99707 127.348C9.10092 126.331 9.22424 125.282 9.36055 124.239C9.50334 123.177 10.477 122.426 11.5414 122.568C12.6059 122.711 13.3588 123.682 13.2225 124.745C13.0927 125.742 12.9759 126.74 12.872 127.743C12.7747 128.747 11.9244 129.492 10.9378 129.492Z" fill="#746A5D"/>
<path d="M236.147 196.781H216.428C215.351 196.781 214.481 195.914 214.481 194.838C214.481 193.763 215.351 192.895 216.428 192.895H236.147C237.224 192.895 238.094 193.763 238.094 194.838C238.094 195.914 237.224 196.781 236.147 196.781Z" fill="#746A5D"/>
</g>
</svg>
