<svg width="48" height="48" viewBox="0 0 48 48" fill="none" xmlns="http://www.w3.org/2000/svg">
<path d="M44 14.004V10C44 7.794 42.208 6 40 6H8C5.794 6 4 7.794 4 10V14.004H44ZM16 8C17.106 8 18 8.894 18 10C18 11.106 17.106 12 16 12C14.894 12 14 11.106 14 10C14 8.894 14.894 8 16 8ZM10 8C11.106 8 12 8.894 12 10C12 11.106 11.106 12 10 12C8.894 12 8 11.106 8 10C8 8.894 8.894 8 10 8Z" fill="white"/>
<path d="M4 16.004V38C4 40.206 5.794 42 8 42H40C42.208 42 44 40.206 44 38V16.004H4ZM16 36.006C12.688 36.006 10 33.32 10 30.006C10 26.694 12.688 24.006 16 24.006V30.006H22C22 33.32 19.312 36.006 16 36.006ZM18 28.006V22.006C21.312 22.006 24 24.694 24 28.006H18ZM38 32.006H30V28.006H38V32.006ZM38 26.006H32V22.006H38V26.006Z" fill="white"/>
</svg>
