<svg width="48" height="48" viewBox="0 0 48 48" fill="none" xmlns="http://www.w3.org/2000/svg">
<path d="M35 4H13C8.038 4 4 8.036 4 12.998C4 17.964 8.038 22 13 22H35C39.962 22 44 17.964 44 13C44 8.036 39.962 4 35 4ZM32 17C29.792 17 28 15.21 28 13C28 10.792 29.792 9 32 9C34.208 9 36 10.792 36 13C36 15.208 34.208 17 32 17Z" fill="white"/>
<path d="M35 26H13C8.038 26 4 30.036 4 35C4 39.964 8.038 44 13 44H35C39.962 44 44 39.964 44 35C44 30.036 39.962 26 35 26ZM16 39C13.792 39 12 37.21 12 35C12 32.792 13.792 31 16 31C18.208 31 20 32.792 20 35C20 37.208 18.208 39 16 39Z" fill="white"/>
</svg>
