<svg width="48" height="48" viewBox="0 0 48 48" fill="none" xmlns="http://www.w3.org/2000/svg">
<path d="M34.392 28.036L26 26.358V17.996C26 16.892 25.106 15.996 24 15.996H20C18.894 15.996 18 16.894 18 17.996V27.996H14C13.306 27.996 12.664 28.356 12.298 28.946C11.932 29.534 11.902 30.272 12.21 30.892L18.21 42.892C18.55 43.57 19.242 43.996 20 43.996H34C35.106 43.996 36 43.1 36 41.996V29.996C36 29.044 35.328 28.222 34.392 28.036Z" fill="white"/>
<path d="M14 15.996H8V19.996H14V15.996Z" fill="white"/>
<path d="M17.7575 10.9264L13.5149 6.68384L10.6865 9.51224L14.9291 13.7548L17.7575 10.9264Z" fill="white"/>
<path d="M24 3.99597H20V9.99597H24V3.99597Z" fill="white"/>
<path d="M29.0699 13.7553L33.3125 9.5127L30.4841 6.6843L26.2415 10.9269L29.0699 13.7553Z" fill="white"/>
<path d="M36 15.996H30V19.996H36V15.996Z" fill="white"/>
</svg>
