<svg width="64" height="64" viewBox="0 0 64 64" fill="none" xmlns="http://www.w3.org/2000/svg">
<path d="M41.9556 4.14945C41.9556 6.4 40.1067 8.2989 37.76 8.2989C35.4845 8.2989 33.5645 6.47033 33.5645 4.14945C33.5645 1.8989 35.4133 0 37.76 0C40.1067 0 41.9556 1.82857 41.9556 4.14945Z" fill="#EE3524"/>
<path d="M29.1555 6.40022L26.4533 5.13428C24.6755 2.8134 21.4755 1.82879 18.56 2.88373C16.5689 3.58703 15.1467 5.06395 14.4355 6.82219C13.8667 8.29912 13.7955 10.0574 14.3644 11.6749L11.0933 12.8705C12.3022 16.176 15.36 18.2859 18.7022 18.4969V27.1475H20.6933V18.4266C21.1911 18.3563 21.76 18.2156 22.2578 18.0046C26.0978 16.598 28.3733 12.8002 27.9467 8.93208L29.1555 6.40022ZM24.6755 9.42439C23.9644 9.70571 23.1822 9.28373 22.8978 8.58044C22.6133 7.87714 23.04 7.10351 23.7511 6.82219C24.4622 6.54087 25.2444 6.96285 25.5289 7.66615C25.7422 8.43978 25.3867 9.2134 24.6755 9.42439Z" fill="#EE3524"/>
<path d="M40.6756 16.5276C41.0311 15.5429 41.0311 14.5583 40.6756 13.644C40.2489 12.5891 39.3956 11.6748 38.2578 11.2528C36.5511 10.6199 34.6311 11.2528 33.5644 12.5891L31.9289 13.3627L32.64 14.91C32.3556 17.2309 33.7067 19.4814 36.0533 20.3254C36.3378 20.3957 36.6222 20.466 36.9067 20.5364V27.9913H38.8978V20.466C40.6044 20.1144 42.0267 18.9188 42.6667 17.2309L40.6756 16.5276ZM35.6267 14.699C35.4844 15.121 34.9867 15.332 34.56 15.1913C34.1333 15.0506 33.92 14.5583 34.0622 14.1364C34.2044 13.7144 34.7022 13.5034 35.1289 13.644C35.5556 13.855 35.7689 14.277 35.6267 14.699Z" fill="#EE3524"/>
<path d="M52.4089 14.3474C52.7645 13.3628 52.6933 12.3782 52.3378 11.4639C51.9111 10.4089 51.0578 9.49464 49.92 9.07266C48.2133 8.4397 46.2933 9.07266 45.2267 10.4089L43.5911 11.1826L44.3022 12.7298C44.0178 15.0507 45.3689 17.3012 47.7156 18.1452C48 18.2155 48.2845 18.2859 48.5689 18.3562V25.7408H50.56V18.3562C52.2667 18.0045 53.6889 16.8089 54.3289 15.121L52.4089 14.3474ZM47.36 12.5188C47.2178 12.9408 46.72 13.1518 46.2933 13.0111C45.8667 12.8705 45.6533 12.3782 45.7956 11.9562C45.9378 11.5342 46.4356 11.3232 46.8622 11.4639C47.2889 11.6749 47.5022 12.0968 47.36 12.5188Z" fill="#EE3524"/>
<path d="M14.6489 39.9474H18.4889L16.5689 35.5869L14.6489 39.9474Z" fill="#EE3524"/>
<path d="M38.9689 33.8286C38.0444 33.8286 37.2622 34.2506 36.6933 35.1649C36.1244 36.0088 35.84 37.1341 35.84 38.4C35.84 39.666 36.1244 40.7209 36.6933 41.6352C37.2622 42.5495 37.9733 42.9715 38.9689 42.9715C39.9644 42.9715 40.6755 42.5495 41.2444 41.6352C41.8133 40.7209 42.0978 39.666 42.0978 38.4C42.0978 37.1341 41.8133 36.0792 41.2444 35.1649C40.6755 34.2506 39.8933 33.8286 38.9689 33.8286Z" fill="#EE3524"/>
<path d="M59.6622 16.457C54.8267 20.2549 44.3022 22.9274 32.0711 22.9274C19.7689 22.9274 9.17333 20.2549 4.33778 16.3867C1.56444 21.0285 0 26.5142 0 32.3516C0 49.8636 14.3644 63.9999 32 63.9999C49.7067 63.9999 64 49.7933 64 32.3516C64 26.5845 62.4356 21.0988 59.6622 16.457ZM20.8356 45.2922L19.4844 42.268H13.5822L12.2311 45.2922H9.24444L15.36 31.8592C15.5733 31.4373 16 31.1559 16.4978 31.1559C17.0667 31.1559 17.4933 31.5076 17.7067 31.9296L23.8222 45.2922H20.8356ZM29.9378 45.3625H27.0933V34.6724L24.6044 35.868L23.4667 33.6878L27.1644 31.7186L27.9467 31.2966C28.0889 31.2263 28.3022 31.1559 28.5156 31.1559C29.2978 31.1559 29.9378 31.8592 29.9378 32.7032V45.3625ZM43.3778 43.4636C42.3111 44.8702 40.8178 45.5735 38.9689 45.5735C37.6889 45.6439 36.6222 45.2922 35.6978 44.5889C33.8489 43.2527 32.9244 41.0021 32.9244 38.3999C32.9244 37.134 33.1378 35.9384 33.6356 34.8834C34.56 32.7032 36.48 31.2263 38.9689 31.2263C40.8178 31.2263 42.24 31.9296 43.3778 33.3362C44.4444 34.7428 45.0133 36.4307 45.0133 38.3999C45.0133 40.3691 44.4444 42.057 43.3778 43.4636ZM52.3378 45.3625H49.5644V34.6724L47.0756 35.868L45.9378 33.6878L49.5644 31.7186L50.3467 31.2966C50.4889 31.2263 50.7022 31.1559 50.9156 31.1559C51.6978 31.1559 52.3378 31.8592 52.3378 32.7032V45.3625Z" fill="#EE3524"/>
</svg>
