<svg width="94" height="49" viewBox="0 0 94 49" fill="none" xmlns="http://www.w3.org/2000/svg">
<path d="M26.5481 6.43496C27.9023 5.33926 29.0623 4.21783 30.3885 3.35619C39.5845 -2.60844 51.9846 3.36133 53.2137 14.3158C53.2954 15.0488 53.3746 15.7922 53.3414 16.5252C53.3031 17.3508 53.648 17.5746 54.4095 17.5617C56.5813 17.5283 58.7532 17.5206 60.9251 17.5643C61.7504 17.5797 61.9446 17.2377 61.9421 16.4763C61.9165 12.0395 61.9191 7.60268 61.9293 3.16586C61.9344 1.16478 61.7044 1.31396 63.7971 1.31396C67.7244 1.31654 71.6542 1.31396 75.5815 1.31654C76.8233 1.31654 76.8616 1.37569 76.8565 2.62315C76.8386 7.15514 76.8284 11.6897 76.8207 16.2217C76.8182 17.5129 76.8591 17.5437 78.1903 17.5463C82.7257 17.5515 87.2611 17.5746 91.7965 17.536C92.7215 17.5283 93.0077 17.8292 93 18.75C92.9617 22.994 92.9642 27.2379 93.0025 31.4818C93.0102 32.3974 92.655 32.6161 91.8144 32.6084C87.2483 32.5775 82.6797 32.5929 78.1136 32.5955C76.8437 32.5955 76.8488 32.6392 76.854 33.8944C76.8693 38.4907 76.8437 43.087 76.8642 47.6833C76.8693 48.5629 76.6138 48.9153 75.6633 48.905C71.4805 48.8561 67.2951 48.8613 63.1123 48.9024C62.1848 48.9127 61.9114 48.6118 61.9191 47.691C61.9574 43.0613 61.9165 38.4315 61.9497 33.8018C61.9574 32.9041 61.7249 32.5646 60.7718 32.5749C56.2696 32.6186 51.7649 32.6084 47.2627 32.5801C46.4987 32.5749 45.9775 32.8064 45.446 33.3826C40.1415 39.1054 34.6019 44.5531 27.8588 48.6066C26.9978 49.1236 26.3436 49.1236 25.4979 48.6195C20.2649 45.497 15.773 41.4717 11.4548 37.2021C8.36301 34.1465 5.64688 30.8053 3.18116 27.2302C-0.347513 22.1169 -1.41557 13.7525 2.43761 7.82131C7.52748 -0.0157964 18.8673 -1.32241 25.4468 5.30839C25.8275 5.69163 26.2006 6.08258 26.5481 6.43496Z" fill="#00ADEF"/>
</svg>
