<svg width="240" height="240" viewBox="0 0 240 240" fill="none" xmlns="http://www.w3.org/2000/svg">
<mask id="mask0" mask-type="alpha" maskUnits="userSpaceOnUse" x="0" y="0" width="240" height="240">
<circle cx="120" cy="120" r="120" fill="#4E4451"/>
</mask>
<g mask="url(#mask0)">
<circle cx="120" cy="120" r="120" fill="#CABCAA"/>
<path d="M30.9915 108.609C26.7109 108.609 22.7948 106.103 21.0097 102.23C19.7839 99.5732 19.6708 96.6028 20.6891 93.8581C21.7074 91.1134 23.7377 88.9326 26.4028 87.7106C27.8549 87.0464 29.3949 86.708 30.9852 86.708C35.2658 86.708 39.1818 89.2083 40.967 93.0873C43.4939 98.5705 41.0801 105.081 35.5738 107.607C34.1218 108.271 32.5755 108.609 30.9915 108.609ZM30.9789 90.4679C29.9417 90.4679 28.9297 90.6872 27.9743 91.1259C26.2268 91.928 24.8943 93.363 24.2217 95.1615C23.5554 96.96 23.6308 98.9152 24.4354 100.657C25.6108 103.201 28.1817 104.843 30.9915 104.843C32.0286 104.843 33.0406 104.624 33.9961 104.185C37.6041 102.531 39.1944 98.2509 37.535 94.654C36.3658 92.1097 33.7886 90.4679 30.9789 90.4679Z" fill="#746A5D"/>
<path d="M55.8957 152.857C55.1854 152.857 54.5065 152.456 54.186 151.773L33.072 106.692C32.632 105.752 33.0406 104.63 33.9835 104.192C34.9264 103.753 36.0515 104.16 36.4915 105.1L57.5991 150.175C58.0392 151.115 57.6306 152.237 56.6877 152.676C56.43 152.801 56.1597 152.857 55.8957 152.857Z" fill="#746A5D"/>
<path d="M62.3386 168.323C59.4095 168.323 56.6563 167.189 54.5883 165.127C50.3014 160.866 50.2888 153.923 54.5631 149.643C56.6374 147.568 59.4032 146.422 62.3386 146.422C65.2678 146.422 68.021 147.556 70.089 149.618C74.3759 153.879 74.3885 160.822 70.1142 165.102C68.0399 167.183 65.2741 168.323 62.3386 168.323ZM62.3324 150.188C60.4026 150.188 58.586 150.94 57.2283 152.3C54.4249 155.107 54.4311 159.669 57.2472 162.464C58.6112 163.817 60.4152 164.563 62.3386 164.563C64.2684 164.563 66.085 163.811 67.4427 162.451C70.2462 159.644 70.2399 155.082 67.4238 152.287C66.0661 150.934 64.2558 150.188 62.3324 150.188Z" fill="#746A5D"/>
<path d="M68.7564 152.832C68.2786 152.832 67.8009 152.651 67.4301 152.293C66.6883 151.566 66.6821 150.376 67.4112 149.636L102.429 114.193C103.158 113.453 104.353 113.447 105.094 114.174C105.836 114.901 105.842 116.092 105.113 116.831L70.0952 152.275C69.7307 152.644 69.2404 152.832 68.7564 152.832Z" fill="#746A5D"/>
<path d="M110.287 120.128C107.301 120.128 104.51 118.956 102.423 116.819C100.374 114.726 99.2677 111.962 99.3054 109.036C99.3431 106.109 100.519 103.377 102.618 101.334C104.68 99.329 107.401 98.2261 110.28 98.2261C113.266 98.2261 116.063 99.3979 118.144 101.535C122.368 105.859 122.28 112.802 117.943 117.013C115.887 119.025 113.166 120.128 110.287 120.128ZM110.287 101.992C108.395 101.992 106.609 102.719 105.252 104.035C103.875 105.376 103.102 107.168 103.077 109.092C103.052 111.01 103.781 112.827 105.126 114.199C106.496 115.597 108.325 116.368 110.287 116.368C112.179 116.368 113.964 115.641 115.322 114.325C118.169 111.561 118.226 106.999 115.454 104.16C114.083 102.763 112.248 101.992 110.287 101.992Z" fill="#746A5D"/>
<path d="M142.526 143.721C142.042 143.721 141.552 143.533 141.181 143.163L115.296 117.001C114.567 116.261 114.573 115.07 115.315 114.344C116.057 113.617 117.251 113.623 117.98 114.362L143.865 140.525C144.594 141.264 144.588 142.455 143.846 143.182C143.482 143.539 143.004 143.721 142.526 143.721Z" fill="#746A5D"/>
<path d="M148.146 159.926C144.745 159.926 141.596 158.397 139.497 155.734C135.763 150.984 136.599 144.091 141.364 140.362C143.318 138.833 145.657 138.031 148.133 138.031C151.534 138.031 154.683 139.56 156.776 142.223C158.587 144.523 159.391 147.393 159.039 150.295C158.687 153.196 157.223 155.79 154.916 157.595C152.961 159.118 150.623 159.926 148.146 159.926ZM148.133 141.791C146.512 141.791 144.972 142.324 143.689 143.326C140.565 145.77 140.012 150.301 142.464 153.415C143.84 155.164 145.908 156.166 148.146 156.166C149.768 156.166 151.308 155.634 152.59 154.637C154.105 153.453 155.067 151.748 155.299 149.843C155.532 147.938 155.004 146.058 153.816 144.542C152.433 142.794 150.365 141.791 148.133 141.791Z" fill="#746A5D"/>
<path d="M155.293 145.262C154.733 145.262 154.186 145.018 153.809 144.548C153.162 143.733 153.306 142.549 154.124 141.91L192.014 112.1C192.831 111.455 194.019 111.599 194.661 112.413C195.308 113.228 195.163 114.412 194.346 115.052L156.456 144.861C156.116 145.131 155.701 145.262 155.293 145.262Z" fill="#746A5D"/>
<path d="M200.349 118.924C196.949 118.924 193.799 117.395 191.7 114.732C189.89 112.432 189.085 109.568 189.437 106.661C189.789 103.759 191.254 101.165 193.561 99.3602C195.515 97.8312 197.854 97.0291 200.33 97.0291C203.731 97.0291 206.88 98.5581 208.973 101.221C210.784 103.521 211.588 106.391 211.236 109.293C210.884 112.194 209.42 114.788 207.113 116.593C205.164 118.116 202.826 118.924 200.349 118.924ZM200.337 100.789C198.715 100.789 197.175 101.322 195.893 102.318C194.378 103.502 193.416 105.207 193.183 107.112C192.951 109.017 193.479 110.897 194.667 112.407C196.043 114.155 198.111 115.158 200.349 115.158C201.971 115.158 203.511 114.625 204.793 113.629C206.308 112.445 207.27 110.74 207.502 108.835C207.735 106.93 207.207 105.044 206.019 103.534C204.636 101.792 202.568 100.789 200.337 100.789Z" fill="#746A5D"/>
<path d="M92.4287 82.3717C91.3853 82.3717 90.543 81.532 90.543 80.4917V63.0457C90.543 62.0055 91.3853 61.1658 92.4287 61.1658C93.4721 61.1658 94.3144 62.0055 94.3144 63.0457V80.4917C94.3144 81.532 93.4659 82.3717 92.4287 82.3717Z" fill="#746A5D"/>
<path d="M101.178 73.6486H83.6726C82.6292 73.6486 81.7869 72.8089 81.7869 71.7686C81.7869 70.7284 82.6292 69.8887 83.6726 69.8887H101.172C102.216 69.8887 103.058 70.7284 103.058 71.7686C103.064 72.8089 102.216 73.6486 101.178 73.6486Z" fill="#746A5D"/>
<path d="M191.247 177.046C190.204 177.046 189.362 176.207 189.362 175.167V157.721C189.362 156.68 190.204 155.841 191.247 155.841C192.291 155.841 193.133 156.68 193.133 157.721V175.167C193.133 176.207 192.291 177.046 191.247 177.046Z" fill="#746A5D"/>
<path d="M199.997 168.324H182.497C181.454 168.324 180.612 167.484 180.612 166.444C180.612 165.403 181.454 164.564 182.497 164.564H199.997C201.04 164.564 201.883 165.403 201.883 166.444C201.883 167.484 201.04 168.324 199.997 168.324Z" fill="#746A5D"/>
<path d="M54.0917 43.2059C53.0482 43.2059 52.2059 42.3662 52.2059 41.326V23.88C52.2059 22.8397 53.0482 22 54.0917 22C55.1351 22 55.9774 22.8397 55.9774 23.88V41.326C55.9774 42.3662 55.1288 43.2059 54.0917 43.2059Z" fill="#746A5D"/>
<path d="M62.8415 34.4828H45.3356C44.2921 34.4828 43.4498 33.6431 43.4498 32.6029C43.4498 31.5626 44.2921 30.7229 45.3356 30.7229H62.8352C63.8786 30.7229 64.7209 31.5626 64.7209 32.6029C64.7272 33.6431 63.8849 34.4828 62.8415 34.4828Z" fill="#746A5D"/>
<path d="M142.526 87.3219C142.526 89.7283 140.565 91.6834 138.151 91.6834C135.738 91.6834 133.776 89.7283 133.776 87.3219C133.776 84.9156 135.738 82.9604 138.151 82.9604C140.565 82.9604 142.526 84.9156 142.526 87.3219Z" fill="#746A5D"/>
<path d="M157.235 71.7687C157.235 74.2753 155.198 76.3057 152.684 76.3057C150.17 76.3057 148.139 74.2753 148.139 71.7687C148.139 69.2621 150.176 67.238 152.684 67.238C155.198 67.238 157.235 69.2684 157.235 71.7687Z" fill="#746A5D"/>
<path d="M172.654 97.2422C172.654 102.024 168.77 105.896 163.974 105.896C159.177 105.896 155.293 102.024 155.293 97.2422C155.293 92.4608 159.177 88.5881 163.974 88.5881C168.77 88.5881 172.654 92.4608 172.654 97.2422Z" fill="#746A5D"/>
<path d="M110.287 151.554C110.287 153.346 108.828 154.8 107.031 154.8C105.233 154.8 103.775 153.346 103.775 151.554C103.775 149.762 105.233 148.308 107.031 148.308C108.828 148.308 110.287 149.762 110.287 151.554Z" fill="#746A5D"/>
<path d="M108.941 176.708C108.941 180.981 105.465 184.447 101.178 184.447C96.8916 184.447 93.4155 180.981 93.4155 176.708C93.4155 172.434 96.8916 168.969 101.178 168.969C105.465 168.969 108.941 172.434 108.941 176.708Z" fill="#746A5D"/>
<path d="M130.168 180.581C130.168 182.718 128.427 184.447 126.284 184.447C124.14 184.447 122.406 182.718 122.406 180.581C122.406 178.444 124.14 176.714 126.284 176.714C128.434 176.708 130.168 178.444 130.168 180.581Z" fill="#746A5D"/>
</g>
</svg>
