<svg width="1440" height="1193" viewBox="0 0 1440 1193" fill="none" xmlns="http://www.w3.org/2000/svg">
<path d="M1446 409.181C1359.87 391.508 1265.34 391.794 1180.21 411.697C1124.64 424.684 1073.73 445.264 1019.11 459.969C964.512 474.673 902.981 483.336 846.964 471.253C775.327 455.795 727.699 409.663 701.716 362.355C675.734 315.047 665.988 264.274 639.945 216.981C586.112 119.277 459.813 40.857 310.272 12.2915C208.977 -7.0535 98.7196 -3.18148 0 21.2107V626.571C86.5341 596.438 156.213 543.842 183.778 481.001C205.362 431.795 203.796 377.526 240.578 332.539C281.187 282.866 368.775 252.387 452.808 258.669C536.842 264.952 612.23 307.634 635.471 362.084C656.303 410.868 637.565 462.666 627.624 512.957C617.683 563.248 619.791 620.092 671.651 657.08C712.772 686.414 775.161 696.086 832.007 709.088C888.853 722.076 949.238 744.087 965.461 782.823C980.99 819.87 943.369 927.033 934 965C904.865 1341.27 1356 937 1446 1193L1446 904V409.181Z" fill="#303141"/>
</svg>
