<svg width="1125" height="543" viewBox="0 0 1125 543" fill="none" xmlns="http://www.w3.org/2000/svg">
<path d="M1052.34 284.698C1050.88 285.106 1050.88 287.173 1052.34 287.58L1058.42 289.239C1059.41 292.179 1061.71 294.479 1064.65 295.469L1066.31 301.553C1066.72 303.008 1068.78 303.008 1069.19 301.553L1070.85 295.469C1073.79 294.479 1076.09 292.179 1077.08 289.239L1083.16 287.58C1084.62 287.173 1084.62 285.106 1083.16 284.698L1077.08 283.039C1076.09 280.099 1073.79 277.799 1070.85 276.809L1069.19 270.725C1068.78 269.27 1066.72 269.27 1066.31 270.725L1064.65 276.809C1061.71 277.799 1059.41 280.099 1058.42 283.039L1052.34 284.698Z" fill="#6A4F8A"/>
<path d="M1066.89 295.469L1065.64 290.899C1065.29 289.618 1064.27 288.599 1062.99 288.25L1058.42 286.998C1057.52 286.765 1057.52 285.484 1058.42 285.252L1062.99 284C1064.27 283.651 1065.29 282.632 1065.64 281.351L1066.89 276.781C1067.13 275.878 1068.41 275.878 1068.64 276.781L1069.89 281.351C1070.24 282.632 1071.26 283.651 1072.54 284L1077.11 285.252C1078.01 285.484 1078.01 286.765 1077.11 286.998L1072.54 288.25C1071.26 288.599 1070.24 289.618 1069.89 290.899L1068.64 295.469C1068.41 296.372 1067.15 296.372 1066.89 295.469Z" fill="#FCF0D2"/>
<path d="M1.10603 15.0861C-0.349371 15.4936 -0.34937 17.5604 1.10603 17.968L7.18959 19.6272C8.17926 22.5673 10.4788 24.867 13.4187 25.8568L15.0779 31.9407C15.4854 33.4254 17.5521 33.4254 17.9596 31.9407L19.6188 25.8568C22.5587 24.867 24.8581 22.5673 25.8478 19.6272L31.9314 17.968C33.4159 17.5604 33.4159 15.4936 31.9314 15.0861L25.8478 13.4268C24.8581 10.4867 22.5587 8.18702 19.6188 7.19728L17.9596 1.11331C17.5521 -0.371302 15.4854 -0.371302 15.0779 1.11331L13.4187 7.19728C10.4788 8.18702 8.17926 10.4867 7.18959 13.4268L1.10603 15.0861Z" fill="#6A4F8A"/>
<path d="M15.66 25.8567L14.4084 21.2864C14.0591 20.0056 13.0403 18.9867 11.7596 18.6374L7.18965 17.3857C6.28731 17.1528 6.28731 15.872 7.18965 15.6391L11.7596 14.3874C13.0403 14.0381 14.0591 13.0192 14.4084 11.7384L15.66 7.16811C15.8929 6.2657 17.1737 6.2657 17.4065 7.16811L18.6581 11.7384C19.0074 13.0192 20.0262 14.0381 21.307 14.3874L25.8769 15.6391C26.7792 15.872 26.7792 17.1528 25.8769 17.3857L21.307 18.6374C20.0262 18.9867 19.0074 20.0056 18.6581 21.2864L17.4065 25.8567C17.1446 26.73 15.8929 26.73 15.66 25.8567Z" fill="#FCF0D2"/>
<path d="M446.331 206.154C444.439 206.678 444.439 209.327 446.331 209.851L454.132 211.976C455.384 215.731 458.353 218.671 462.079 219.923L464.204 227.724C464.728 229.617 467.376 229.617 467.9 227.724L470.025 219.923C473.78 218.671 476.72 215.702 477.972 211.976L485.773 209.851C487.665 209.327 487.665 206.678 485.773 206.154L477.972 204.029C476.72 200.274 473.751 197.334 470.025 196.082L467.9 188.28C467.376 186.388 464.728 186.388 464.204 188.28L462.079 196.082C458.324 197.334 455.384 200.303 454.132 204.029L446.331 206.154Z" fill="#6A4F8A"/>
<path d="M464.96 219.923L463.359 214.072C462.923 212.442 461.613 211.132 459.983 210.695L454.132 209.094C452.997 208.774 452.997 207.173 454.132 206.853L459.983 205.252C461.613 204.815 462.923 203.505 463.359 201.875L464.96 196.024C465.281 194.888 466.881 194.888 467.202 196.024L468.803 201.875C469.239 203.505 470.549 204.815 472.179 205.252L478.03 206.853C479.165 207.173 479.165 208.774 478.03 209.094L472.179 210.695C470.549 211.132 469.239 212.442 468.803 214.072L467.202 219.923C466.881 221.087 465.251 221.087 464.96 219.923Z" fill="#FCF0D2"/>
<path d="M1062.83 82.442C1060.93 82.966 1060.93 85.615 1062.83 86.139L1070.63 88.264C1071.88 92.0192 1074.85 94.9593 1078.57 96.2111L1080.7 104.013C1081.22 105.905 1083.87 105.905 1084.39 104.013L1086.52 96.2111C1090.27 94.9593 1093.21 91.9901 1094.47 88.264L1102.27 86.139C1104.16 85.615 1104.16 82.966 1102.27 82.442L1094.47 80.317C1093.21 76.5618 1090.25 73.6217 1086.52 72.37L1084.39 64.5685C1083.87 62.6763 1081.22 62.6763 1080.7 64.5685L1078.57 72.37C1074.82 73.6217 1071.88 76.5909 1070.63 80.317L1062.83 82.442Z" fill="#6A4F8A"/>
<path d="M1081.43 96.211L1079.82 90.3599C1079.39 88.7297 1078.08 87.4198 1076.45 86.9831L1070.6 85.3821C1069.46 85.0619 1069.46 83.4609 1070.6 83.1406L1076.45 81.5396C1078.08 81.1029 1079.39 79.793 1079.82 78.1628L1081.43 72.3117C1081.75 71.1764 1083.35 71.1764 1083.67 72.3117L1085.27 78.1628C1085.7 79.793 1087.01 81.1029 1088.64 81.5396L1094.49 83.1406C1095.63 83.4609 1095.63 85.0619 1094.49 85.3821L1088.64 86.9831C1087.01 87.4198 1085.7 88.7297 1085.27 90.3599L1083.67 96.211C1083.35 97.3463 1081.75 97.3463 1081.43 96.211Z" fill="#FCF0D2"/>
<path d="M110.406 137.856C108.514 138.38 108.514 141.029 110.406 141.553L118.207 143.678C119.459 147.433 122.428 150.373 126.154 151.625L128.278 159.427C128.802 161.319 131.451 161.319 131.975 159.427L134.1 151.625C137.855 150.373 140.795 147.404 142.047 143.678L149.847 141.553C151.739 141.029 151.739 138.38 149.847 137.856L142.047 135.731C140.795 131.976 137.826 129.036 134.1 127.784L131.975 119.983C131.451 118.09 128.802 118.09 128.278 119.983L126.154 127.784C122.399 129.036 119.459 132.005 118.207 135.731L110.406 137.856Z" fill="#6A4F8A"/>
<path d="M129.006 151.625L127.405 145.774C126.969 144.144 125.659 142.834 124.029 142.397L118.178 140.796C117.043 140.476 117.043 138.875 118.178 138.555L124.029 136.954C125.659 136.517 126.969 135.207 127.405 133.577L129.006 127.726C129.326 126.59 130.927 126.59 131.248 127.726L132.849 133.577C133.285 135.207 134.595 136.517 136.225 136.954L142.076 138.555C143.211 138.875 143.211 140.476 142.076 140.796L136.225 142.397C134.595 142.834 133.285 144.144 132.849 145.774L131.248 151.625C130.927 152.76 129.326 152.76 129.006 151.625Z" fill="#FCF0D2"/>
<path d="M487.199 242.978C487.199 240.445 489.266 238.378 491.798 238.378C494.33 238.378 496.397 240.445 496.397 242.978C496.397 245.51 494.33 247.577 491.798 247.577C489.266 247.577 487.199 245.51 487.199 242.978Z" fill="#FCA86A"/>
<path d="M163.624 190.316C163.624 187.783 165.691 185.716 168.223 185.716C170.755 185.716 172.822 187.783 172.822 190.316C172.822 192.848 170.755 194.915 168.223 194.915C165.691 194.915 163.624 192.848 163.624 190.316Z" fill="#FCA86A"/>
<path d="M445.156 430.976C445.156 428.443 447.222 426.376 449.755 426.376C452.287 426.376 454.354 428.443 454.354 430.976C454.354 433.508 452.287 435.575 449.755 435.575C447.222 435.575 445.156 433.508 445.156 430.976Z" fill="#FCA86A"/>
<path d="M373.579 190.586C371.313 190.586 369.475 192.424 369.475 194.69C369.475 196.957 371.313 198.795 373.579 198.795C375.846 198.795 377.684 196.957 377.684 194.69C377.684 192.424 375.846 190.586 373.579 190.586Z" fill="#FEDEA2"/>
<path d="M264.221 493.039C261.954 493.039 260.117 494.876 260.117 497.143C260.117 499.41 261.954 501.248 264.221 501.248C266.488 501.248 268.325 499.41 268.325 497.143C268.325 494.876 266.488 493.039 264.221 493.039Z" fill="#FEDEA2"/>
<path d="M748.052 180.805C748.052 178.534 749.886 176.7 752.157 176.7C754.427 176.7 756.261 178.534 756.261 180.805C756.261 183.075 754.427 184.909 752.157 184.909C749.915 184.909 748.052 183.075 748.052 180.805Z" fill="#FEDEA2"/>
<path d="M1053.68 252.386C1053.68 250.115 1055.51 248.281 1057.78 248.281C1060.05 248.281 1061.89 250.115 1061.89 252.386C1061.89 254.656 1060.05 256.49 1057.78 256.49C1055.51 256.49 1053.68 254.627 1053.68 252.386Z" fill="#FCA86A"/>
<path d="M756.203 154.286C756.203 151.345 758.59 148.987 761.5 148.987C764.44 148.987 766.798 151.375 766.798 154.286C766.798 157.226 764.411 159.583 761.5 159.583C758.59 159.583 756.203 157.226 756.203 154.286Z" fill="#FCF0D2"/>
<path d="M854.529 213.394C854.529 210.454 856.916 208.096 859.827 208.096C862.767 208.096 865.125 210.483 865.125 213.394C865.125 216.334 862.738 218.692 859.827 218.692C856.916 218.692 854.529 216.305 854.529 213.394Z" fill="#FCF0D2"/>
<path d="M743.803 537.548C743.803 534.608 746.19 532.25 749.1 532.25C752.04 532.25 754.398 534.637 754.398 537.548C754.398 540.488 752.011 542.846 749.1 542.846C746.19 542.846 743.803 540.459 743.803 537.548Z" fill="#865882"/>
<path d="M662.766 225.628C659.841 225.628 657.469 228 657.469 230.926C657.469 233.852 659.841 236.224 662.766 236.224C665.692 236.224 668.064 233.852 668.064 230.926C668.064 228 665.692 225.628 662.766 225.628Z" fill="#865882"/>
<path d="M406.5 536.151C406.5 533.211 408.887 530.853 411.798 530.853C414.738 530.853 417.096 533.24 417.096 536.151C417.096 539.091 414.709 541.449 411.798 541.449C408.858 541.449 406.5 539.062 406.5 536.151Z" fill="#574589"/>
<path d="M510.805 248.625C510.805 246.704 512.348 245.161 514.269 245.161C516.19 245.161 517.733 246.704 517.733 248.625C517.733 250.547 516.19 252.089 514.269 252.089C512.377 252.119 510.805 250.547 510.805 248.625Z" fill="#FEDEA2"/>
<path d="M204.52 158.585C204.52 156.664 206.063 155.121 207.984 155.121C209.905 155.121 211.448 156.664 211.448 158.585C211.448 160.506 209.905 162.049 207.984 162.049C206.063 162.049 204.52 160.506 204.52 158.585Z" fill="#FEDEA2"/>
<path d="M342.405 176.933C342.405 174.808 344.122 173.09 346.247 173.09C348.372 173.09 350.089 174.808 350.089 176.933C350.089 179.058 348.372 180.776 346.247 180.776C344.151 180.805 342.405 179.058 342.405 176.933Z" fill="#7D5483"/>
<path d="M29.1951 85.6199C29.1951 83.4949 30.9125 81.7773 33.0374 81.7773C35.1623 81.7773 36.8797 83.4949 36.8797 85.6199C36.8797 87.7449 35.1623 89.4624 33.0374 89.4624C30.9125 89.4624 29.1951 87.7449 29.1951 85.6199Z" fill="#7D5483"/>
<path d="M1077.79 157.924C1077.79 155.391 1079.85 153.325 1082.39 153.325C1084.92 153.325 1086.98 155.391 1086.98 157.924C1086.98 160.457 1084.92 162.523 1082.39 162.523C1079.85 162.523 1077.79 160.457 1077.79 157.924Z" fill="#FCA86A"/>
<path d="M1118.07 196.728C1118.07 194.807 1119.62 193.264 1121.54 193.264C1123.46 193.264 1125 194.807 1125 196.728C1125 198.649 1123.46 200.192 1121.54 200.192C1119.62 200.192 1118.07 198.649 1118.07 196.728Z" fill="#FEDEA2"/>
</svg>
