<svg width="1099" height="447" viewBox="0 0 1099 447" fill="none" xmlns="http://www.w3.org/2000/svg">
<path d="M261.284 353.257C263.176 352.733 263.176 350.084 261.284 349.56L253.483 347.435C252.231 343.68 249.262 340.74 245.536 339.488L243.411 331.686C242.887 329.794 240.238 329.794 239.715 331.686L237.59 339.488C233.835 340.74 230.895 343.709 229.643 347.435L221.842 349.56C219.95 350.084 219.95 352.733 221.842 353.257L229.643 355.382C230.895 359.137 233.864 362.077 237.59 363.329L239.715 371.131C240.238 373.023 242.887 373.023 243.411 371.131L245.536 363.329C249.291 362.077 252.231 359.108 253.483 355.382L261.284 353.257Z" fill="#6A4F8A"/>
<path d="M242.684 339.488L244.284 345.339C244.721 346.969 246.031 348.279 247.661 348.716L253.512 350.317C254.647 350.637 254.647 352.238 253.512 352.558L247.661 354.159C246.031 354.596 244.721 355.906 244.284 357.536L242.684 363.387C242.363 364.523 240.762 364.523 240.442 363.387L238.841 357.536C238.405 355.906 237.095 354.596 235.465 354.159L229.614 352.558C228.479 352.238 228.479 350.637 229.614 350.317L235.465 348.716C237.095 348.279 238.405 346.969 238.841 345.339L240.442 339.488C240.762 338.353 242.363 338.353 242.684 339.488Z" fill="#FCF0D2"/>
<path d="M120.662 258.147C122.117 257.74 122.117 255.673 120.662 255.266L114.578 253.606C113.588 250.666 111.289 248.367 108.349 247.377L106.69 241.293C106.282 239.837 104.216 239.837 103.808 241.293L102.149 247.377C99.2091 248.367 96.9096 250.666 95.9199 253.606L89.8363 255.266C88.3809 255.673 88.3809 257.74 89.8363 258.147L95.9199 259.807C96.9096 262.747 99.2091 265.047 102.149 266.036L103.808 272.12C104.216 273.576 106.282 273.576 106.69 272.12L108.349 266.036C111.289 265.047 113.588 262.747 114.578 259.807L120.662 258.147Z" fill="#6A4F8A"/>
<path d="M106.108 247.377L107.359 251.947C107.709 253.228 108.727 254.247 110.008 254.596L114.578 255.848C115.48 256.081 115.48 257.361 114.578 257.594L110.008 258.846C108.727 259.195 107.709 260.214 107.359 261.495L106.108 266.065C105.875 266.968 104.594 266.968 104.361 266.065L103.11 261.495C102.76 260.214 101.741 259.195 100.461 258.846L95.8907 257.594C94.9884 257.361 94.9884 256.081 95.8907 255.848L100.461 254.596C101.741 254.247 102.76 253.228 103.11 251.947L104.361 247.377C104.594 246.474 105.846 246.474 106.108 247.377Z" fill="#FCF0D2"/>
<path d="M979.774 267.968C981.229 267.561 981.229 265.494 979.774 265.086L973.69 263.427C972.7 260.487 970.401 258.187 967.461 257.197L965.802 251.113C965.394 249.629 963.328 249.629 962.92 251.113L961.261 257.197C958.321 258.187 956.022 260.487 955.032 263.427L948.948 265.086C947.464 265.494 947.464 267.561 948.948 267.968L955.032 269.627C956.022 272.568 958.321 274.867 961.261 275.857L962.92 281.941C963.328 283.426 965.394 283.426 965.802 281.941L967.461 275.857C970.401 274.867 972.7 272.568 973.69 269.627L979.774 267.968Z" fill="#6A4F8A"/>
<path d="M965.22 257.197L966.471 261.768C966.821 263.049 967.839 264.067 969.12 264.417L973.69 265.668C974.592 265.901 974.592 267.182 973.69 267.415L969.12 268.667C967.839 269.016 966.821 270.035 966.471 271.316L965.22 275.886C964.987 276.788 963.706 276.788 963.473 275.886L962.222 271.316C961.872 270.035 960.853 269.016 959.573 268.667L955.003 267.415C954.1 267.182 954.1 265.901 955.003 265.668L959.573 264.417C960.853 264.067 961.872 263.049 962.222 261.768L963.473 257.197C963.735 256.324 964.987 256.324 965.22 257.197Z" fill="#FCF0D2"/>
<path d="M690.402 270.936C692.294 270.412 692.294 267.763 690.402 267.239L682.601 265.114C681.349 261.359 678.38 258.419 674.654 257.167L672.529 249.365C672.005 247.473 669.357 247.473 668.833 249.365L666.708 257.167C662.953 258.419 660.013 261.388 658.761 265.114L650.96 267.239C649.068 267.763 649.068 270.412 650.96 270.936L658.761 273.061C660.013 276.816 662.982 279.756 666.708 281.008L668.833 288.809C669.357 290.702 672.005 290.702 672.529 288.809L674.654 281.008C678.409 279.756 681.349 276.787 682.601 273.061L690.402 270.936Z" fill="#6A4F8A"/>
<path d="M671.773 257.167L673.374 263.018C673.81 264.648 675.12 265.958 676.75 266.395L682.601 267.996C683.736 268.316 683.736 269.917 682.601 270.237L676.75 271.838C675.12 272.275 673.81 273.585 673.374 275.215L671.773 281.066C671.453 282.201 669.852 282.201 669.531 281.066L667.93 275.215C667.494 273.585 666.184 272.275 664.554 271.838L658.703 270.237C657.568 269.917 657.568 268.316 658.703 267.996L664.554 266.395C666.184 265.958 667.494 264.648 667.93 263.018L669.531 257.167C669.852 256.002 671.482 256.002 671.773 257.167Z" fill="#FCF0D2"/>
<path d="M62.1745 160.75C64.0665 160.226 64.0665 157.577 62.1745 157.053L54.3736 154.928C53.122 151.173 50.1529 148.233 46.4271 146.981L44.3023 139.179C43.7783 137.287 41.1295 137.287 40.6056 139.179L38.4807 146.981C34.7258 148.233 31.7859 151.202 30.5342 154.928L22.7333 157.053C20.8413 157.577 20.8413 160.226 22.7333 160.75L30.5342 162.875C31.7859 166.63 34.7549 169.57 38.4807 170.822L40.6056 178.624C41.1295 180.516 43.7783 180.516 44.3023 178.624L46.4271 170.822C50.1821 169.57 53.122 166.601 54.3736 162.875L62.1745 160.75Z" fill="#6A4F8A"/>
<path d="M43.5745 146.981L45.1755 152.832C45.6121 154.462 46.922 155.772 48.552 156.209L54.4027 157.81C55.5379 158.13 55.5379 159.731 54.4027 160.051L48.552 161.652C46.922 162.089 45.6121 163.399 45.1755 165.029L43.5745 170.88C43.2544 172.016 41.6534 172.016 41.3332 170.88L39.7323 165.029C39.2957 163.399 37.9858 162.089 36.3558 161.652L30.5051 160.051C29.3699 159.731 29.3699 158.13 30.5051 157.81L36.3558 156.209C37.9858 155.772 39.2957 154.462 39.7323 152.832L41.3332 146.981C41.6534 145.846 43.2544 145.846 43.5745 146.981Z" fill="#FCF0D2"/>
<path d="M1079.86 370.99C1081.75 370.466 1081.75 367.817 1079.86 367.293L1072.06 365.168C1070.81 361.412 1067.84 358.472 1064.11 357.221L1061.99 349.419C1061.46 347.527 1058.82 347.527 1058.29 349.419L1056.17 357.221C1052.41 358.472 1049.47 361.442 1048.22 365.168L1040.42 367.293C1038.53 367.817 1038.53 370.466 1040.42 370.99L1048.22 373.115C1049.47 376.87 1052.44 379.81 1056.17 381.062L1058.29 388.863C1058.82 390.755 1061.46 390.755 1061.99 388.863L1064.11 381.062C1067.87 379.81 1070.81 376.841 1072.06 373.115L1079.86 370.99Z" fill="#6A4F8A"/>
<path d="M1061.26 357.221L1062.86 363.072C1063.3 364.702 1064.61 366.012 1066.24 366.448L1072.09 368.05C1073.22 368.37 1073.22 369.971 1072.09 370.291L1066.24 371.892C1064.61 372.329 1063.3 373.639 1062.86 375.269L1061.26 381.12C1060.94 382.255 1059.34 382.255 1059.02 381.12L1057.42 375.269C1056.98 373.639 1055.67 372.329 1054.04 371.892L1048.19 370.291C1047.06 369.971 1047.06 368.37 1048.19 368.05L1054.04 366.448C1055.67 366.012 1056.98 364.702 1057.42 363.072L1059.02 357.221C1059.34 356.085 1060.94 356.085 1061.26 357.221Z" fill="#FCF0D2"/>
<path d="M649.534 234.112C649.534 236.644 647.468 238.711 644.935 238.711C642.403 238.711 640.336 236.644 640.336 234.112C640.336 231.579 642.403 229.512 644.935 229.512C647.468 229.512 649.534 231.579 649.534 234.112Z" fill="#FCA86A"/>
<path d="M1009.38 352.53C1009.38 355.063 1007.31 357.13 1004.78 357.13C1002.24 357.13 1000.18 355.063 1000.18 352.53C1000.18 349.998 1002.24 347.931 1004.78 347.931C1007.31 347.931 1009.38 349.998 1009.38 352.53Z" fill="#FCA86A"/>
<path d="M727.844 111.87C727.844 114.402 725.778 116.469 723.245 116.469C720.713 116.469 718.646 114.402 718.646 111.87C718.646 109.337 720.713 107.271 723.245 107.271C725.778 107.271 727.844 109.337 727.844 111.87Z" fill="#FCA86A"/>
<path d="M227.198 288.865C227.198 291.398 225.131 293.465 222.599 293.465C220.067 293.465 218 291.398 218 288.865C218 286.333 220.067 284.266 222.599 284.266C225.131 284.266 227.198 286.333 227.198 288.865Z" fill="#FCA86A"/>
<path d="M281.659 259.843C281.659 261.968 279.942 263.685 277.817 263.685C275.692 263.685 273.975 261.968 273.975 259.843C273.975 257.717 275.692 256 277.817 256C279.942 256 281.659 257.717 281.659 259.843Z" fill="#7D5483"/>
<path d="M281.659 393.72C281.659 396.514 279.389 398.785 276.594 398.785C273.8 398.785 271.529 396.514 271.529 393.72C271.529 390.925 273.8 388.655 276.594 388.655C279.389 388.655 281.659 390.925 281.659 393.72Z" fill="#865882"/>
<path d="M799.421 393.504C801.687 393.504 803.525 391.666 803.525 389.399C803.525 387.133 801.687 385.295 799.421 385.295C797.154 385.295 795.316 387.133 795.316 389.399C795.316 391.666 797.154 393.504 799.421 393.504Z" fill="#FEDEA2"/>
<path d="M868.104 81.209C870.371 81.209 872.208 79.3714 872.208 77.1045C872.208 74.8377 870.371 73 868.104 73C865.838 73 864 74.8377 864 77.1045C864 79.3714 865.838 81.209 868.104 81.209Z" fill="#FEDEA2"/>
<path d="M424.947 186.041C424.947 188.312 423.114 190.146 420.843 190.146C418.573 190.146 416.739 188.312 416.739 186.041C416.739 183.771 418.573 181.937 420.843 181.937C423.085 181.937 424.947 183.771 424.947 186.041Z" fill="#FEDEA2"/>
<path d="M119.323 290.46C119.323 292.731 117.489 294.564 115.218 294.564C112.948 294.564 111.114 292.731 111.114 290.46C111.114 288.189 112.948 286.355 115.218 286.355C117.489 286.355 119.323 288.218 119.323 290.46Z" fill="#FCA86A"/>
<path d="M416.797 212.56C416.797 215.5 414.41 217.858 411.5 217.858C408.56 217.858 406.202 215.471 406.202 212.56C406.202 209.62 408.589 207.262 411.5 207.262C414.41 207.262 416.797 209.62 416.797 212.56Z" fill="#FCF0D2"/>
<path d="M246.471 441.451C246.471 444.391 244.084 446.749 241.173 446.749C238.233 446.749 235.875 444.362 235.875 441.451C235.875 438.511 238.262 436.153 241.173 436.153C244.084 436.153 246.471 438.54 246.471 441.451Z" fill="#FCF0D2"/>
<path d="M429.197 5.29802C429.197 8.23813 426.81 10.596 423.9 10.596C420.96 10.596 418.602 8.20902 418.602 5.29802C418.602 2.35791 420.989 0 423.9 0C426.81 0 429.197 2.38702 429.197 5.29802Z" fill="#865882"/>
<path d="M510.234 277.218C513.159 277.218 515.531 274.846 515.531 271.92C515.531 268.994 513.159 266.622 510.234 266.622C507.308 266.622 504.936 268.994 504.936 271.92C504.936 274.846 507.308 277.218 510.234 277.218Z" fill="#865882"/>
<path d="M766.5 6.69524C766.5 9.63535 764.113 11.9933 761.202 11.9933C758.262 11.9933 755.904 9.60624 755.904 6.69524C755.904 3.75513 758.291 1.39722 761.202 1.39722C764.142 1.39722 766.5 3.78424 766.5 6.69524Z" fill="#574589"/>
<path d="M625.928 228.464C625.928 230.386 624.385 231.929 622.464 231.929C620.543 231.929 619 230.386 619 228.464C619 226.543 620.543 225 622.464 225C624.356 224.971 625.928 226.543 625.928 228.464Z" fill="#FEDEA2"/>
<path d="M968.479 384.26C968.479 386.182 966.937 387.724 965.016 387.724C963.094 387.724 961.552 386.182 961.552 384.26C961.552 382.339 963.094 380.796 965.016 380.796C966.937 380.796 968.479 382.339 968.479 384.26Z" fill="#FEDEA2"/>
<g opacity="0.8">
<path opacity="0.8" d="M235.174 284.179C234.33 284.179 233.485 283.713 233.078 282.898C232.467 281.734 232.932 280.307 234.097 279.696L265.417 263.569C266.581 262.958 268.007 263.423 268.619 264.588C269.23 265.752 268.764 267.179 267.6 267.79L236.28 283.917C235.93 284.091 235.552 284.179 235.174 284.179Z" fill="#614A8A"/>
</g>
<path d="M250.834 335.121C250.543 335.121 250.281 335.063 249.99 334.976C248.767 334.51 248.156 333.142 248.622 331.919L271.733 270.555C272.199 269.333 273.567 268.721 274.79 269.187C276.012 269.653 276.623 271.021 276.158 272.244L253.046 333.608C252.697 334.539 251.794 335.121 250.834 335.121Z" fill="#614A8A"/>
<g opacity="0.8">
<path opacity="0.8" d="M269.055 384.521C268.357 384.521 267.658 384.201 267.192 383.618L253.104 365.978C252.289 364.959 252.464 363.474 253.483 362.659C254.501 361.844 255.986 362.019 256.801 363.038L270.889 380.678C271.704 381.697 271.529 383.182 270.511 383.997C270.103 384.346 269.579 384.521 269.055 384.521Z" fill="#865882"/>
</g>
<path d="M830.595 407.157C830.595 409.282 828.878 410.999 826.753 410.999C824.628 410.999 822.911 409.282 822.911 407.157C822.911 405.032 824.628 403.314 826.753 403.314C828.849 403.285 830.595 405.032 830.595 407.157Z" fill="#7D5483"/>
<path d="M839.685 198.843C839.685 200.968 837.967 202.685 835.842 202.685C833.717 202.685 832 200.968 832 198.843C832 196.717 833.717 195 835.842 195C837.967 195 839.685 196.717 839.685 198.843Z" fill="#7D5483"/>
<path d="M1098.68 119.843C1098.68 121.968 1096.97 123.685 1094.84 123.685C1092.72 123.685 1091 121.968 1091 119.843C1091 117.717 1092.72 116 1094.84 116C1096.94 116 1098.68 117.717 1098.68 119.843Z" fill="#614A8A"/>
<path d="M47.213 85.2677C47.213 87.8002 45.1464 89.867 42.614 89.867C40.0816 89.867 38.0149 87.8002 38.0149 85.2677C38.0149 82.7351 40.0816 80.6683 42.614 80.6683C45.1464 80.6683 47.213 82.7351 47.213 85.2677Z" fill="#FCA86A"/>
<path d="M6.92768 46.4641C6.92768 48.3853 5.38496 49.9282 3.46384 49.9282C1.54272 49.9282 0 48.3853 0 46.4641C0 44.5428 1.54272 43 3.46384 43C5.38496 43 6.92768 44.5428 6.92768 46.4641Z" fill="#FEDEA2"/>
</svg>
