<svg width="1125" height="543" viewBox="0 0 1125 543" fill="none" xmlns="http://www.w3.org/2000/svg">
<path d="M1052.32 258.147C1050.87 257.74 1050.87 255.673 1052.32 255.266L1058.41 253.606C1059.4 250.666 1061.7 248.367 1064.64 247.377L1066.3 241.293C1066.7 239.837 1068.77 239.837 1069.18 241.293L1070.84 247.377C1073.78 248.367 1076.08 250.666 1077.07 253.606L1083.15 255.266C1084.6 255.673 1084.6 257.74 1083.15 258.147L1077.07 259.807C1076.08 262.747 1073.78 265.047 1070.84 266.036L1069.18 272.12C1068.77 273.576 1066.7 273.576 1066.3 272.12L1064.64 266.036C1061.7 265.047 1059.4 262.747 1058.41 259.807L1052.32 258.147Z" fill="#6A4F8A"/>
<path d="M1066.88 247.377L1065.63 251.947C1065.28 253.228 1064.26 254.246 1062.98 254.596L1058.41 255.848C1057.5 256.08 1057.5 257.361 1058.41 257.594L1062.98 258.846C1064.26 259.195 1065.28 260.214 1065.63 261.495L1066.88 266.065C1067.11 266.968 1068.39 266.968 1068.62 266.065L1069.88 261.495C1070.23 260.214 1071.24 259.195 1072.52 258.846L1077.09 257.594C1078 257.361 1078 256.08 1077.09 255.848L1072.52 254.596C1071.24 254.246 1070.23 253.228 1069.88 251.947L1068.62 247.377C1068.39 246.474 1067.14 246.474 1066.88 247.377Z" fill="#FCF0D2"/>
<path d="M1.0915 527.76C-0.363897 527.352 -0.363897 525.285 1.0915 524.878L7.17506 523.218C8.16473 520.278 10.4643 517.979 13.4042 516.989L15.0634 510.905C15.4709 509.42 17.5375 509.42 17.9451 510.905L19.6042 516.989C22.5441 517.979 24.8436 520.278 25.8333 523.218L31.9168 524.878C33.4014 525.285 33.4014 527.352 31.9168 527.76L25.8333 529.419C24.8436 532.359 22.5441 534.659 19.6042 535.648L17.945 541.732C17.5375 543.217 15.4709 543.217 15.0634 541.732L13.4042 535.648C10.4643 534.659 8.16473 532.359 7.17506 529.419L1.0915 527.76Z" fill="#6A4F8A"/>
<path d="M15.6455 516.989L14.3939 521.559C14.0446 522.84 13.0258 523.859 11.7451 524.208L7.17512 525.46C6.27278 525.693 6.27278 526.974 7.17512 527.207L11.7451 528.458C13.0258 528.808 14.0446 529.826 14.3939 531.107L15.6455 535.678C15.8784 536.58 17.1591 536.58 17.392 535.678L18.6436 531.107C18.9929 529.826 20.0117 528.808 21.2924 528.458L25.8624 527.207C26.7647 526.974 26.7647 525.693 25.8624 525.46L21.2924 524.208C20.0117 523.859 18.9929 522.84 18.6436 521.559L17.392 516.989C17.13 516.116 15.8784 516.116 15.6455 516.989Z" fill="#FCF0D2"/>
<path d="M446.317 336.692C444.425 336.168 444.425 333.519 446.317 332.995L454.118 330.87C455.369 327.115 458.338 324.174 462.064 322.923L464.189 315.121C464.713 313.229 467.362 313.229 467.886 315.121L470.011 322.923C473.766 324.174 476.706 327.144 477.957 330.87L485.758 332.995C487.65 333.519 487.65 336.168 485.758 336.692L477.957 338.817C476.706 342.572 473.737 345.512 470.011 346.764L467.886 354.565C467.362 356.457 464.713 356.457 464.189 354.565L462.064 346.764C458.309 345.512 455.369 342.543 454.118 338.817L446.317 336.692Z" fill="#6A4F8A"/>
<path d="M464.946 322.923L463.345 328.774C462.908 330.404 461.598 331.714 459.968 332.151L454.118 333.752C452.982 334.072 452.982 335.673 454.118 335.993L459.968 337.594C461.598 338.031 462.908 339.341 463.345 340.971L464.946 346.822C465.266 347.957 466.867 347.957 467.187 346.822L468.788 340.971C469.225 339.341 470.535 338.031 472.165 337.594L478.015 335.993C479.151 335.673 479.151 334.072 478.015 333.752L472.165 332.151C470.535 331.714 469.225 330.404 468.788 328.774L467.187 322.923C466.867 321.758 465.237 321.758 464.946 322.923Z" fill="#FCF0D2"/>
<path d="M1062.81 460.404C1060.92 459.88 1060.92 457.231 1062.81 456.707L1070.61 454.582C1071.86 450.827 1074.83 447.886 1078.56 446.635L1080.68 438.833C1081.21 436.941 1083.86 436.941 1084.38 438.833L1086.5 446.635C1090.26 447.886 1093.2 450.856 1094.45 454.582L1102.25 456.707C1104.14 457.231 1104.14 459.88 1102.25 460.404L1094.45 462.529C1093.2 466.284 1090.23 469.224 1086.5 470.476L1084.38 478.277C1083.86 480.169 1081.21 480.169 1080.68 478.277L1078.56 470.476C1074.8 469.224 1071.86 466.255 1070.61 462.529L1062.81 460.404Z" fill="#6A4F8A"/>
<path d="M1081.41 446.635L1079.81 452.486C1079.37 454.116 1078.06 455.426 1076.43 455.863L1070.58 457.464C1069.45 457.784 1069.45 459.385 1070.58 459.705L1076.43 461.306C1078.06 461.743 1079.37 463.053 1079.81 464.683L1081.41 470.534C1081.73 471.669 1083.33 471.669 1083.65 470.534L1085.25 464.683C1085.69 463.053 1087 461.743 1088.63 461.306L1094.48 459.705C1095.62 459.385 1095.62 457.784 1094.48 457.464L1088.63 455.863C1087 455.426 1085.69 454.116 1085.25 452.486L1083.65 446.635C1083.33 445.499 1081.73 445.499 1081.41 446.635Z" fill="#FCF0D2"/>
<path d="M110.392 404.99C108.5 404.466 108.5 401.817 110.392 401.293L118.193 399.168C119.444 395.412 122.413 392.472 126.139 391.221L128.264 383.419C128.788 381.527 131.437 381.527 131.961 383.419L134.086 391.221C137.84 392.472 140.78 395.442 142.032 399.168L149.833 401.293C151.725 401.817 151.725 404.466 149.833 404.99L142.032 407.115C140.78 410.87 137.811 413.81 134.086 415.062L131.961 422.863C131.437 424.755 128.788 424.755 128.264 422.863L126.139 415.062C122.384 413.81 119.444 410.841 118.193 407.115L110.392 404.99Z" fill="#6A4F8A"/>
<path d="M128.992 391.221L127.391 397.072C126.954 398.702 125.644 400.012 124.014 400.448L118.164 402.05C117.028 402.37 117.028 403.971 118.164 404.291L124.014 405.892C125.644 406.329 126.954 407.639 127.391 409.269L128.992 415.12C129.312 416.255 130.913 416.255 131.233 415.12L132.834 409.269C133.271 407.639 134.581 406.329 136.211 405.892L142.061 404.291C143.196 403.971 143.196 402.37 142.061 402.05L136.211 400.448C134.581 400.012 133.271 398.702 132.834 397.072L131.233 391.221C130.913 390.085 129.312 390.085 128.992 391.221Z" fill="#FCF0D2"/>
<path d="M487.184 299.868C487.184 302.401 489.251 304.467 491.783 304.467C494.316 304.467 496.382 302.401 496.382 299.868C496.382 297.335 494.316 295.269 491.783 295.269C489.251 295.269 487.184 297.335 487.184 299.868Z" fill="#FCA86A"/>
<path d="M163.609 352.53C163.609 355.063 165.676 357.129 168.208 357.129C170.741 357.129 172.807 355.063 172.807 352.53C172.807 349.997 170.741 347.931 168.208 347.931C165.676 347.931 163.609 349.997 163.609 352.53Z" fill="#FCA86A"/>
<path d="M445.141 111.87C445.141 114.402 447.208 116.469 449.74 116.469C452.273 116.469 454.339 114.402 454.339 111.87C454.339 109.337 452.273 107.271 449.74 107.271C447.208 107.271 445.141 109.337 445.141 111.87Z" fill="#FCA86A"/>
<path d="M373.565 352.26C371.298 352.26 369.461 350.422 369.461 348.155C369.461 345.888 371.298 344.051 373.565 344.051C375.831 344.051 377.669 345.888 377.669 348.155C377.669 350.422 375.831 352.26 373.565 352.26Z" fill="#FEDEA2"/>
<path d="M264.206 49.8072C261.94 49.8072 260.102 47.9695 260.102 45.7027C260.102 43.4358 261.94 41.5981 264.206 41.5981C266.473 41.5981 268.311 43.4358 268.311 45.7027C268.311 47.9695 266.473 49.8072 264.206 49.8072Z" fill="#FEDEA2"/>
<path d="M748.038 362.041C748.038 364.312 749.872 366.146 752.142 366.146C754.413 366.146 756.246 364.312 756.246 362.041C756.246 359.77 754.413 357.937 752.142 357.937C749.901 357.937 748.038 359.77 748.038 362.041Z" fill="#FEDEA2"/>
<path d="M1053.66 290.46C1053.66 292.731 1055.5 294.564 1057.77 294.564C1060.04 294.564 1061.87 292.731 1061.87 290.46C1061.87 288.189 1060.04 286.355 1057.77 286.355C1055.5 286.355 1053.66 288.218 1053.66 290.46Z" fill="#FCA86A"/>
<path d="M756.188 388.56C756.188 391.5 758.575 393.858 761.486 393.858C764.426 393.858 766.783 391.471 766.783 388.56C766.783 385.62 764.397 383.262 761.486 383.262C758.575 383.262 756.188 385.62 756.188 388.56Z" fill="#FCF0D2"/>
<path d="M854.515 329.451C854.515 332.391 856.902 334.749 859.812 334.749C862.752 334.749 865.11 332.362 865.11 329.451C865.11 326.511 862.723 324.153 859.812 324.153C856.902 324.153 854.515 326.54 854.515 329.451Z" fill="#FCF0D2"/>
<path d="M743.788 5.29802C743.788 8.23813 746.175 10.596 749.086 10.596C752.026 10.596 754.384 8.20902 754.384 5.29802C754.384 2.35791 751.997 -2.08664e-07 749.086 -4.63133e-07C746.175 -7.17602e-07 743.788 2.38702 743.788 5.29802Z" fill="#865882"/>
<path d="M662.752 317.218C659.826 317.218 657.454 314.846 657.454 311.92C657.454 308.994 659.826 306.622 662.752 306.622C665.678 306.622 668.049 308.994 668.049 311.92C668.049 314.846 665.678 317.218 662.752 317.218Z" fill="#865882"/>
<path d="M406.486 6.69499C406.486 9.6351 408.873 11.993 411.783 11.993C414.723 11.993 417.081 9.60599 417.081 6.69499C417.081 3.75488 414.694 1.39697 411.783 1.39697C408.843 1.39697 406.486 3.78399 406.486 6.69499Z" fill="#574589"/>
<path d="M510.791 294.22C510.791 296.142 512.334 297.684 514.255 297.684C516.176 297.684 517.719 296.142 517.719 294.22C517.719 292.299 516.176 290.756 514.255 290.756C512.363 290.727 510.791 292.299 510.791 294.22Z" fill="#FEDEA2"/>
<path d="M204.506 384.26C204.506 386.182 206.049 387.724 207.97 387.724C209.891 387.724 211.434 386.182 211.434 384.26C211.434 382.339 209.891 380.796 207.97 380.796C206.049 380.796 204.506 382.339 204.506 384.26Z" fill="#FEDEA2"/>
<path d="M342.39 365.913C342.39 368.038 344.108 369.755 346.232 369.755C348.357 369.755 350.075 368.038 350.075 365.913C350.075 363.788 348.357 362.07 346.232 362.07C344.137 362.041 342.39 363.788 342.39 365.913Z" fill="#7D5483"/>
<path d="M29.1806 457.226C29.1806 459.351 30.898 461.068 33.0229 461.068C35.1478 461.068 36.8652 459.351 36.8652 457.226C36.8652 455.101 35.1478 453.383 33.0229 453.383C30.898 453.383 29.1806 455.101 29.1806 457.226Z" fill="#7D5483"/>
<path d="M1077.77 384.922C1077.77 387.454 1079.84 389.521 1082.37 389.521C1084.9 389.521 1086.97 387.454 1086.97 384.922C1086.97 382.389 1084.9 380.322 1082.37 380.322C1079.84 380.322 1077.77 382.389 1077.77 384.922Z" fill="#FCA86A"/>
<path d="M1118.06 346.118C1118.06 348.039 1119.6 349.582 1121.52 349.582C1123.44 349.582 1124.99 348.039 1124.99 346.118C1124.99 344.197 1123.44 342.654 1121.52 342.654C1119.6 342.654 1118.06 344.197 1118.06 346.118Z" fill="#FEDEA2"/>
</svg>
