<svg width="1201" height="543" viewBox="0 0 1201 543" fill="none" xmlns="http://www.w3.org/2000/svg">
<path d="M72.6616 258.147C74.117 257.74 74.117 255.673 72.6616 255.266L66.5781 253.606C65.5884 250.666 63.2889 248.367 60.349 247.377L58.6898 241.293C58.2823 239.837 56.2157 239.837 55.8081 241.293L54.149 247.377C51.2091 248.367 48.9096 250.666 47.9199 253.606L41.8363 255.266C40.3809 255.673 40.3809 257.74 41.8363 258.147L47.9199 259.807C48.9096 262.747 51.2091 265.047 54.149 266.036L55.8081 272.12C56.2157 273.576 58.2823 273.576 58.6898 272.12L60.349 266.036C63.2889 265.047 65.5884 262.747 66.5781 259.807L72.6616 258.147Z" fill="#6A4F8A"/>
<path d="M58.1076 247.377L59.3593 251.947C59.7086 253.228 60.7274 254.247 62.0081 254.596L66.5781 255.848C67.4804 256.081 67.4804 257.361 66.5781 257.594L62.0081 258.846C60.7274 259.195 59.7086 260.214 59.3593 261.495L58.1076 266.065C57.8748 266.968 56.594 266.968 56.3612 266.065L55.1095 261.495C54.7602 260.214 53.7414 259.195 52.4607 258.846L47.8907 257.594C46.9884 257.361 46.9884 256.081 47.8907 255.848L52.4607 254.596C53.7414 254.247 54.7602 253.228 55.1095 251.947L56.3612 247.377C56.594 246.474 57.8457 246.474 58.1076 247.377Z" fill="#FCF0D2"/>
<path d="M1123.89 527.76C1125.35 527.352 1125.35 525.285 1123.89 524.878L1117.81 523.218C1116.82 520.278 1114.52 517.979 1111.58 516.989L1109.92 510.905C1109.51 509.42 1107.45 509.42 1107.04 510.905L1105.38 516.989C1102.44 517.979 1100.14 520.278 1099.15 523.218L1093.07 524.878C1091.58 525.285 1091.58 527.352 1093.07 527.76L1099.15 529.419C1100.14 532.359 1102.44 534.659 1105.38 535.648L1107.04 541.732C1107.45 543.217 1109.51 543.217 1109.92 541.732L1111.58 535.648C1114.52 534.659 1116.82 532.359 1117.81 529.419L1123.89 527.76Z" fill="#6A4F8A"/>
<path d="M1109.34 516.989L1110.59 521.559C1110.94 522.84 1111.96 523.859 1113.24 524.208L1117.81 525.46C1118.71 525.693 1118.71 526.974 1117.81 527.207L1113.24 528.458C1111.96 528.808 1110.94 529.826 1110.59 531.107L1109.34 535.678C1109.11 536.58 1107.83 536.58 1107.59 535.678L1106.34 531.107C1105.99 529.826 1104.97 528.808 1103.69 528.458L1099.12 527.207C1098.22 526.974 1098.22 525.693 1099.12 525.46L1103.69 524.208C1104.97 523.859 1105.99 522.84 1106.34 521.559L1107.59 516.989C1107.86 516.116 1109.11 516.116 1109.34 516.989Z" fill="#FCF0D2"/>
<path d="M678.669 336.692C680.561 336.168 680.561 333.519 678.669 332.995L670.868 330.87C669.616 327.115 666.647 324.175 662.921 322.923L660.796 315.122C660.272 313.229 657.624 313.229 657.1 315.122L654.975 322.923C651.22 324.175 648.28 327.144 647.028 330.87L639.227 332.995C637.335 333.519 637.335 336.168 639.227 336.692L647.028 338.817C648.28 342.572 651.249 345.512 654.975 346.764L657.1 354.566C657.624 356.458 660.272 356.458 660.796 354.566L662.921 346.764C666.676 345.512 669.616 342.543 670.868 338.817L678.669 336.692Z" fill="#6A4F8A"/>
<path d="M660.04 322.923L661.641 328.774C662.077 330.404 663.387 331.714 665.017 332.151L670.868 333.752C672.003 334.072 672.003 335.673 670.868 335.993L665.017 337.594C663.387 338.031 662.077 339.341 661.641 340.971L660.04 346.822C659.719 347.958 658.119 347.958 657.798 346.822L656.197 340.971C655.761 339.341 654.451 338.031 652.821 337.594L646.97 335.993C645.835 335.673 645.835 334.072 646.97 333.752L652.821 332.151C654.451 331.714 655.761 330.404 656.197 328.774L657.798 322.923C658.119 321.758 659.749 321.758 660.04 322.923Z" fill="#FCF0D2"/>
<path d="M62.1745 460.404C64.0665 459.88 64.0665 457.231 62.1745 456.707L54.3736 454.582C53.122 450.827 50.1529 447.886 46.4271 446.635L44.3023 438.833C43.7783 436.941 41.1295 436.941 40.6056 438.833L38.4807 446.635C34.7258 447.886 31.7859 450.856 30.5342 454.582L22.7333 456.707C20.8413 457.231 20.8413 459.88 22.7333 460.404L30.5342 462.529C31.7859 466.284 34.7549 469.224 38.4807 470.476L40.6056 478.277C41.1295 480.169 43.7783 480.169 44.3023 478.277L46.4271 470.476C50.1821 469.224 53.122 466.255 54.3736 462.529L62.1745 460.404Z" fill="#6A4F8A"/>
<path d="M43.5745 446.635L45.1755 452.486C45.6121 454.116 46.922 455.426 48.552 455.863L54.4027 457.464C55.5379 457.784 55.5379 459.385 54.4027 459.705L48.552 461.306C46.922 461.743 45.6121 463.053 45.1755 464.683L43.5745 470.534C43.2544 471.669 41.6534 471.669 41.3332 470.534L39.7323 464.683C39.2957 463.053 37.9858 461.743 36.3558 461.306L30.5051 459.705C29.3699 459.385 29.3699 457.784 30.5051 457.464L36.3558 455.863C37.9858 455.426 39.2957 454.116 39.7323 452.486L41.3332 446.635C41.6534 445.499 43.2544 445.499 43.5745 446.635Z" fill="#FCF0D2"/>
<path d="M1014.59 404.99C1016.49 404.466 1016.49 401.817 1014.59 401.293L1006.79 399.168C1005.54 395.412 1002.57 392.472 998.846 391.221L996.721 383.419C996.198 381.527 993.549 381.527 993.025 383.419L990.9 391.221C987.145 392.472 984.205 395.442 982.953 399.168L975.153 401.293C973.261 401.817 973.261 404.466 975.153 404.99L982.953 407.115C984.205 410.87 987.174 413.81 990.9 415.062L993.025 422.863C993.549 424.755 996.198 424.755 996.721 422.863L998.846 415.062C1002.6 413.81 1005.54 410.841 1006.79 407.115L1014.59 404.99Z" fill="#6A4F8A"/>
<path d="M995.994 391.221L997.595 397.072C998.031 398.702 999.341 400.012 1000.97 400.448L1006.82 402.05C1007.96 402.37 1007.96 403.971 1006.82 404.291L1000.97 405.892C999.341 406.329 998.031 407.639 997.595 409.269L995.994 415.12C995.673 416.255 994.073 416.255 993.752 415.12L992.151 409.269C991.715 407.639 990.405 406.329 988.775 405.892L982.924 404.291C981.789 403.971 981.789 402.37 982.924 402.05L988.775 400.448C990.405 400.012 991.715 398.702 992.151 397.072L993.752 391.221C994.073 390.085 995.673 390.085 995.994 391.221Z" fill="#FCF0D2"/>
<path d="M637.801 299.868C637.801 302.401 635.734 304.467 633.202 304.467C630.67 304.467 628.603 302.401 628.603 299.868C628.603 297.335 630.67 295.269 633.202 295.269C635.734 295.269 637.801 297.335 637.801 299.868Z" fill="#FCA86A"/>
<path d="M961.376 352.53C961.376 355.063 959.309 357.13 956.777 357.13C954.245 357.13 952.178 355.063 952.178 352.53C952.178 349.998 954.245 347.931 956.777 347.931C959.309 347.931 961.376 349.998 961.376 352.53Z" fill="#FCA86A"/>
<path d="M1015.84 279.87C1015.84 282.402 1013.78 284.469 1011.25 284.469C1008.71 284.469 1006.65 282.402 1006.65 279.87C1006.65 277.337 1008.71 275.271 1011.25 275.271C1013.78 275.271 1015.84 277.337 1015.84 279.87Z" fill="#FCA86A"/>
<path d="M751.421 352.26C753.687 352.26 755.525 350.422 755.525 348.156C755.525 345.889 753.687 344.051 751.421 344.051C749.154 344.051 747.316 345.889 747.316 348.156C747.316 350.422 749.154 352.26 751.421 352.26Z" fill="#FEDEA2"/>
<path d="M1196.78 217.807C1199.05 217.807 1200.88 215.97 1200.88 213.703C1200.88 211.436 1199.05 209.598 1196.78 209.598C1194.51 209.598 1192.67 211.436 1192.67 213.703C1192.67 215.97 1194.51 217.807 1196.78 217.807Z" fill="#FEDEA2"/>
<path d="M376.947 362.041C376.947 364.312 375.114 366.146 372.843 366.146C370.573 366.146 368.739 364.312 368.739 362.041C368.739 359.77 370.573 357.937 372.843 357.937C375.085 357.937 376.947 359.77 376.947 362.041Z" fill="#FEDEA2"/>
<path d="M71.3226 290.46C71.3226 292.731 69.4888 294.564 67.2184 294.564C64.948 294.564 63.1142 292.731 63.1142 290.46C63.1142 288.189 64.948 286.355 67.2184 286.355C69.4888 286.355 71.3226 288.218 71.3226 290.46Z" fill="#FCA86A"/>
<path d="M368.797 388.56C368.797 391.5 366.41 393.858 363.5 393.858C360.56 393.858 358.202 391.471 358.202 388.56C358.202 385.62 360.589 383.262 363.5 383.262C366.41 383.262 368.797 385.62 368.797 388.56Z" fill="#FCF0D2"/>
<path d="M270.471 329.451C270.471 332.391 268.084 334.749 265.173 334.749C262.233 334.749 259.875 332.362 259.875 329.451C259.875 326.511 262.262 324.153 265.173 324.153C268.084 324.153 270.471 326.54 270.471 329.451Z" fill="#FCF0D2"/>
<path d="M381.197 5.29802C381.197 8.23813 378.81 10.596 375.9 10.596C372.96 10.596 370.602 8.20902 370.602 5.29802C370.602 2.35791 372.989 0 375.9 0C378.81 0 381.197 2.38702 381.197 5.29802Z" fill="#865882"/>
<path d="M462.234 317.218C465.159 317.218 467.531 314.846 467.531 311.92C467.531 308.994 465.159 306.622 462.234 306.622C459.308 306.622 456.936 308.994 456.936 311.92C456.936 314.846 459.308 317.218 462.234 317.218Z" fill="#865882"/>
<path d="M1054.5 174.695C1054.5 177.635 1052.11 179.993 1049.2 179.993C1046.26 179.993 1043.9 177.606 1043.9 174.695C1043.9 171.755 1046.29 169.397 1049.2 169.397C1052.14 169.397 1054.5 171.784 1054.5 174.695Z" fill="#574589"/>
<path d="M614.195 294.221C614.195 296.142 612.652 297.685 610.731 297.685C608.81 297.685 607.267 296.142 607.267 294.221C607.267 292.299 608.81 290.757 610.731 290.757C612.623 290.727 614.195 292.299 614.195 294.221Z" fill="#FEDEA2"/>
<path d="M920.479 384.26C920.479 386.182 918.937 387.724 917.016 387.724C915.094 387.724 913.552 386.182 913.552 384.26C913.552 382.339 915.094 380.796 917.016 380.796C918.937 380.796 920.479 382.339 920.479 384.26Z" fill="#FEDEA2"/>
<path d="M782.595 365.913C782.595 368.038 780.878 369.755 778.753 369.755C776.628 369.755 774.911 368.038 774.911 365.913C774.911 363.788 776.628 362.07 778.753 362.07C780.849 362.041 782.595 363.788 782.595 365.913Z" fill="#7D5483"/>
<path d="M1095.8 457.226C1095.8 459.351 1094.09 461.069 1091.96 461.069C1089.84 461.069 1088.12 459.351 1088.12 457.226C1088.12 455.101 1089.84 453.384 1091.96 453.384C1094.09 453.384 1095.8 455.101 1095.8 457.226Z" fill="#7D5483"/>
<path d="M47.213 384.921C47.213 387.454 45.1464 389.521 42.614 389.521C40.0816 389.521 38.0149 387.454 38.0149 384.921C38.0149 382.389 40.0816 380.322 42.614 380.322C45.1464 380.322 47.213 382.389 47.213 384.921Z" fill="#FCA86A"/>
<path d="M6.92768 346.118C6.92768 348.039 5.38496 349.582 3.46384 349.582C1.54272 349.582 0 348.039 0 346.118C0 344.197 1.54272 342.654 3.46384 342.654C5.38496 342.654 6.92768 344.197 6.92768 346.118Z" fill="#FEDEA2"/>
</svg>
