<svg width="160" height="36" viewBox="0 0 160 36" fill="none" xmlns="http://www.w3.org/2000/svg">
<path fill-rule="evenodd" clip-rule="evenodd" d="M19.8725 23.5252C19.8847 22.6839 19.7284 21.8488 19.4127 21.0689C19.097 20.2891 18.6285 19.5804 18.0345 18.9845C17.4644 18.3933 16.7805 17.9235 16.024 17.6037C15.2674 17.2838 14.454 17.1205 13.6327 17.1235C12.8038 17.1255 11.9834 17.2909 11.2185 17.6103C10.4535 17.9296 9.75907 18.3966 9.17474 18.9845C7.99701 20.2028 7.3381 21.8306 7.33675 23.5252C7.34879 25.2176 8.00615 26.8417 9.17474 28.0659C9.75913 28.6537 10.4537 29.1204 11.2186 29.4396C11.9835 29.7587 12.8038 29.9239 13.6327 29.9258C14.4539 29.929 15.2673 29.7659 16.0238 29.4462C16.7803 29.1265 17.4644 28.657 18.0345 28.0659C19.2249 26.8559 19.886 25.2226 19.8725 23.5252ZM26.8932 11.7631V35.3409H20.987V33.0432C18.6692 34.9634 15.7508 36.0089 12.741 35.9971C11.0808 36.0327 9.43027 35.7364 7.88609 35.1255C6.3419 34.5147 4.93518 33.6017 3.74847 32.44C2.56175 31.2783 1.61887 29.8912 0.975191 28.3603C0.33151 26.8294 0 25.1854 0 23.5246C0 21.8639 0.33151 20.2198 0.975191 18.6889C1.61887 17.158 2.56175 15.771 3.74847 14.6093C4.93518 13.4476 6.3419 12.5346 7.88609 11.9238C9.43027 11.3129 11.0808 11.0165 12.741 11.0521C15.7508 11.0403 18.6692 12.0858 20.987 14.0061L21.5436 11.7631H26.8932ZM32.8199 35.3661H39.8656V0H32.8176V35.3661H32.8199ZM67.4542 23.4315C67.4449 21.7365 66.791 20.1086 65.6253 18.8782C65.0583 18.2855 64.3768 17.8144 63.622 17.4935C62.8672 17.1726 62.055 17.0085 61.2349 17.0114C60.4066 17.0084 59.5861 17.1721 58.8224 17.4928C58.0587 17.8135 57.3674 18.2847 56.7896 18.8782C55.6244 20.1089 54.9707 21.7366 54.9607 23.4315C54.9605 25.1289 55.6157 26.7609 56.7896 27.987C57.3675 28.5803 58.0589 29.0512 58.8226 29.3718C59.5863 29.6923 60.4066 29.8558 61.2349 29.8526C62.0549 29.8555 62.867 29.6915 63.6217 29.3708C64.3764 29.0501 65.0581 28.5793 65.6253 27.987C66.7996 26.7612 67.4549 25.129 67.4542 23.4315ZM53.2279 14.4325C55.6198 12.1409 58.805 10.8629 62.1173 10.8658C65.4496 10.8658 68.6454 12.1897 71.0017 14.5462C73.358 16.9027 74.6817 20.0988 74.6817 23.4315C74.6817 26.7641 73.358 29.9602 71.0017 32.3167C68.6454 34.6733 65.4496 35.9971 62.1173 35.9971C58.8051 36.0005 55.6199 34.7229 53.2279 32.4316V35.3398H46.1147V0H53.2279V14.4325ZM97.8799 23.5252C97.8922 22.6838 97.7358 21.8485 97.4199 21.0687C97.104 20.2888 96.635 19.5801 96.0407 18.9845C95.4709 18.3932 94.7872 17.9234 94.0308 17.6035C93.2745 17.2837 92.4612 17.1204 91.64 17.1235C90.8111 17.1253 89.9907 17.2907 89.2257 17.61C88.4608 17.9294 87.7663 18.3964 87.1821 18.9845C86.0038 20.2025 85.3448 21.8305 85.3441 23.5252C85.3556 25.2177 86.013 26.842 87.1821 28.0659C87.7664 28.6538 88.4609 29.1207 89.2258 29.4398C89.9908 29.759 90.8111 29.9241 91.64 29.9258C92.4611 29.9291 93.2744 29.766 94.0307 29.4463C94.7871 29.1267 95.4708 28.6571 96.0407 28.0659C96.6307 27.4671 97.0968 26.7578 97.4124 25.9787C97.728 25.1995 97.8868 24.3658 97.8799 23.5252ZM104.901 11.7631V35.3409H98.9944V33.0432C96.6765 34.9633 93.7581 36.0088 90.7484 35.9971C89.0882 36.0327 87.4376 35.7364 85.8934 35.1255C84.3492 34.5147 82.9425 33.6017 81.7558 32.44C80.5691 31.2783 79.6263 29.8912 78.9826 28.3603C78.3389 26.8294 78.0073 25.1854 78.0073 23.5246C78.0073 21.8639 78.3389 20.2198 78.9826 18.6889C79.6263 17.158 80.5691 15.771 81.7558 14.6093C82.9425 13.4476 84.3492 12.5346 85.8934 11.9238C87.4376 11.3129 89.0882 11.0165 90.7484 11.0521C93.7581 11.0405 96.6765 12.0859 98.9944 14.0061L99.5511 11.7631H104.901ZM130.689 11.6843V18.1134H123.285V35.3672H116.234V18.1134H109.385V11.6854H130.689V11.6843ZM152.978 23.4703C152.997 21.7987 152.357 20.1869 151.195 18.9845C150.624 18.375 149.934 17.8902 149.167 17.5607C148.399 17.2311 147.572 17.064 146.737 17.0697C145.919 17.0651 145.109 17.2333 144.361 17.5633C143.612 17.8932 142.942 18.3776 142.394 18.9845C141.781 19.5694 141.297 20.2749 140.971 21.0564C140.644 21.8379 140.484 22.6785 140.498 23.5252C140.484 24.38 140.644 25.2289 140.97 26.0193C141.296 26.8097 141.78 27.5249 142.394 28.1207C142.953 28.7104 143.626 29.1796 144.373 29.4994C145.12 29.8193 145.925 29.9831 146.737 29.9807C147.567 29.9841 148.389 29.8213 149.154 29.5018C149.92 29.1824 150.614 28.7128 151.195 28.1207C152.36 26.8544 152.998 25.191 152.978 23.4703ZM160 23.5252C160 30.4733 154.092 35.9971 146.678 35.9971C139.32 35.9971 133.41 30.4733 133.41 23.5252C133.41 16.6319 139.32 11.0521 146.678 11.0521C154.092 11.0521 160 16.6319 160 23.5252ZM109.384 6.47377H130.688V0H109.385V6.47377H109.384Z" fill="#E17352"/>
</svg>
