<svg width="96" height="96" viewBox="0 0 96 96" fill="none" xmlns="http://www.w3.org/2000/svg">
<path d="M48.0007 76.7413C39.1479 76.7411 30.4949 74.11 23.1405 69.1819C15.786 64.2539 10.0619 57.2513 6.69492 49.0634C6.96102 59.8424 11.4297 70.0905 19.1471 77.6201C26.8645 85.1497 37.2192 89.3643 48.0009 89.3642C58.7826 89.3641 69.1373 85.1495 76.8546 77.6198C84.5719 70.0901 89.0404 59.842 89.3064 49.0629C85.9396 57.2509 80.2155 64.2537 72.861 69.1818C65.5065 74.1099 56.8535 76.7412 48.0007 76.7413Z" fill="#CEEAF2"/>
<path d="M48.0013 90.2109C40.3857 90.2099 32.9122 88.1485 26.3728 84.2453C19.8334 80.3421 14.4716 74.7424 10.8556 68.0396C7.2396 61.3368 5.50411 53.7806 5.83302 46.1716C6.16193 38.5627 8.54299 31.1844 12.7239 24.8187C12.8718 24.5937 13.1031 24.4368 13.3668 24.3823C13.6305 24.3279 13.905 24.3804 14.13 24.5284C14.3549 24.6763 14.5119 24.9076 14.5663 25.1713C14.6208 25.435 14.5682 25.7096 14.4203 25.9345C8.90162 34.3328 6.73065 44.4945 8.33564 54.4148C9.94064 64.3351 15.2051 73.2937 23.0903 79.5231C30.9755 85.7525 40.9089 88.8004 50.9308 88.0654C60.9527 87.3304 70.3352 82.8659 77.2273 75.5527C84.1194 68.2395 88.0206 58.6087 88.1612 48.5603C88.3019 38.5119 84.6717 28.7757 77.987 21.2725C71.3022 13.7692 62.0484 9.04385 52.051 8.02862C42.0536 7.01338 32.0388 9.782 23.9823 15.7883C23.8756 15.8683 23.7542 15.9265 23.625 15.9596C23.4958 15.9926 23.3614 15.9999 23.2294 15.9808C23.0974 15.9618 22.9704 15.917 22.8558 15.8488C22.7411 15.7807 22.641 15.6906 22.5613 15.5837C22.4815 15.4768 22.4236 15.3553 22.3909 15.226C22.3582 15.0967 22.3513 14.9622 22.3706 14.8302C22.39 14.6983 22.4352 14.5714 22.5036 14.4569C22.572 14.3425 22.6624 14.2426 22.7695 14.1631C28.1268 10.1681 34.3562 7.50238 40.945 6.38531C47.5338 5.26824 54.2936 5.73175 60.6683 7.73771C67.043 9.74366 72.8502 13.2347 77.6122 17.9236C82.3742 22.6125 85.9548 28.3652 88.0594 34.7083C90.164 41.0514 90.7324 47.8037 89.7178 54.4094C88.7033 61.0151 86.1347 67.2855 82.2236 72.7045C78.3125 78.1236 73.1706 82.5365 67.221 85.58C61.2714 88.6235 54.6841 90.2107 48.0013 90.2109Z" fill="#1F282C"/>
<path d="M17.7147 21.0947C17.5173 21.0947 17.3242 21.0371 17.1591 20.929C16.9939 20.8209 16.8639 20.667 16.7848 20.4862C16.7057 20.3053 16.6811 20.1053 16.7139 19.9107C16.7467 19.7161 16.8355 19.5352 16.9695 19.3903C17.2371 19.1019 17.5079 18.8172 17.7821 18.5361C17.8745 18.4391 17.9853 18.3615 18.1079 18.3076C18.2305 18.2536 18.3626 18.2246 18.4965 18.222C18.6305 18.2194 18.7636 18.2434 18.8882 18.2926C19.0128 18.3417 19.1264 18.4151 19.2225 18.5085C19.3186 18.6018 19.3953 18.7132 19.448 18.8364C19.5008 18.9595 19.5286 19.0919 19.53 19.2258C19.5313 19.3598 19.5061 19.4927 19.4557 19.6168C19.4054 19.7409 19.331 19.8539 19.2367 19.9491C18.9751 20.2196 18.7162 20.4931 18.4599 20.7696C18.3648 20.8722 18.2495 20.9541 18.1213 21.01C17.993 21.066 17.8546 21.0948 17.7147 21.0947Z" fill="#1F282C"/>
<path d="M48.001 13.9194C47.8678 13.9194 47.7358 13.8932 47.6126 13.8423C47.4895 13.7913 47.3776 13.7166 47.2833 13.6223C47.1891 13.5281 47.1144 13.4162 47.0634 13.293C47.0124 13.1699 46.9862 13.0379 46.9863 12.9046V1.01929C46.9857 0.885647 47.0115 0.753207 47.0622 0.629568C47.113 0.50593 47.1876 0.393529 47.2819 0.29882C47.3762 0.204111 47.4882 0.128958 47.6117 0.0776781C47.7351 0.0263979 47.8674 0 48.001 0C48.1347 0 48.267 0.0263979 48.3904 0.0776781C48.5138 0.128958 48.6259 0.204111 48.7202 0.29882C48.8144 0.393529 48.8891 0.50593 48.9398 0.629568C48.9905 0.753207 49.0164 0.885647 49.0158 1.01929V12.9047C49.0158 13.038 48.9896 13.17 48.9386 13.2931C48.8877 13.4162 48.8129 13.5281 48.7187 13.6223C48.6245 13.7166 48.5126 13.7913 48.3894 13.8423C48.2663 13.8932 48.1343 13.9194 48.001 13.9194Z" fill="#1F282C"/>
<path d="M94.9815 49.0176H83.0962C82.9625 49.0182 82.8301 48.9924 82.7065 48.9416C82.5828 48.8909 82.4704 48.8163 82.3757 48.722C82.281 48.6277 82.2059 48.5156 82.1546 48.3922C82.1033 48.2688 82.0769 48.1365 82.0769 48.0028C82.0769 47.8692 82.1033 47.7369 82.1546 47.6135C82.2059 47.49 82.281 47.378 82.3757 47.2837C82.4704 47.1894 82.5828 47.1148 82.7065 47.064C82.8301 47.0133 82.9625 46.9875 83.0962 46.9881H94.9815C95.1152 46.9875 95.2476 47.0133 95.3712 47.064C95.4949 47.1148 95.6073 47.1894 95.702 47.2837C95.7967 47.378 95.8719 47.49 95.9231 47.6135C95.9744 47.7369 96.0008 47.8692 96.0008 48.0028C96.0008 48.1365 95.9744 48.2688 95.9231 48.3922C95.8719 48.5156 95.7967 48.6277 95.702 48.722C95.6073 48.8163 95.4949 48.8909 95.3712 48.9416C95.2476 48.9924 95.1152 49.0182 94.9815 49.0176Z" fill="#1F282C"/>
<path d="M48.001 96C47.8678 96.0001 47.7358 95.9739 47.6126 95.9229C47.4895 95.872 47.3776 95.7972 47.2833 95.703C47.1891 95.6087 47.1144 95.4968 47.0634 95.3737C47.0124 95.2505 46.9862 95.1186 46.9863 94.9853V83.0998C46.9857 82.9662 47.0115 82.8338 47.0622 82.7101C47.113 82.5865 47.1876 82.4741 47.2819 82.3794C47.3762 82.2847 47.4882 82.2095 47.6117 82.1582C47.7351 82.107 47.8674 82.0806 48.001 82.0806C48.1347 82.0806 48.267 82.107 48.3904 82.1582C48.5138 82.2095 48.6259 82.2847 48.7202 82.3794C48.8144 82.4741 48.8891 82.5865 48.9398 82.7101C48.9905 82.8338 49.0164 82.9662 49.0158 83.0998V94.9852C49.0158 95.1185 48.9897 95.2505 48.9387 95.3736C48.8877 95.4968 48.813 95.6087 48.7188 95.7029C48.6245 95.7972 48.5126 95.8719 48.3895 95.9229C48.2663 95.9739 48.1343 96.0001 48.001 96Z" fill="#1F282C"/>
<path d="M12.9047 49.0166H1.01929C0.885647 49.0172 0.753207 48.9914 0.629568 48.9406C0.50593 48.8899 0.393529 48.8153 0.29882 48.721C0.204111 48.6267 0.128958 48.5146 0.0776781 48.3912C0.0263979 48.2678 0 48.1355 0 48.0019C0 47.8682 0.0263979 47.7359 0.0776781 47.6125C0.128958 47.4891 0.204111 47.377 0.29882 47.2827C0.393529 47.1884 0.50593 47.1138 0.629568 47.0631C0.753207 47.0123 0.885647 46.9865 1.01929 46.9871H12.9047C13.0383 46.9865 13.1708 47.0123 13.2944 47.0631C13.4181 47.1138 13.5305 47.1884 13.6252 47.2827C13.7199 47.377 13.795 47.4891 13.8463 47.6125C13.8976 47.7359 13.924 47.8682 13.924 48.0019C13.924 48.1355 13.8976 48.2678 13.8463 48.3912C13.795 48.5146 13.7199 48.6267 13.6252 48.721C13.5305 48.8153 13.4181 48.8899 13.2944 48.9406C13.1708 48.9914 13.0383 49.0172 12.9047 49.0166Z" fill="#1F282C"/>
<path d="M57.1925 24.1327L53.8167 25.8629L50.5928 29.2083L49.4553 34.1601L50.5906 38.4362L55.2033 46.9448L60.7465 56.8211L63.3352 59.9165L67.0588 62.6758L69.3122 63.4075L73.5519 62.8229L77.4487 60.712L78.7881 58.778L78.0831 54.5371L75.1695 51.0269L73.436 50.0389C70.223 49.9593 68.723 53.5712 64.7955 49.5009L60.0794 41.0948C59.5711 40.1552 59.4546 39.0527 59.7554 38.0275C60.0562 37.0024 60.7498 36.1376 61.6853 35.6217C62.192 35.3019 62.6305 34.8851 62.9756 34.3953C63.3207 33.9055 63.5657 33.3523 63.6964 32.7676C63.6964 32.7676 63.734 31.0199 63.6964 30.9145C63.6588 30.8091 62.7539 27.6541 62.7539 27.6541L60.1486 23.824L57.1925 24.1327Z" fill="#3DAFCC"/>
<path d="M70.397 64.4633C69.1042 64.4434 67.8301 64.1517 66.6574 63.6071C63.567 61.9138 61.0063 59.3972 59.2595 56.3366L58.772 55.4606C55.1592 48.9729 50.2861 40.1932 49.6697 38.8623C49.2952 38.0517 46.166 30.7941 52.0895 25.8839C53.7754 24.4178 55.729 23.2915 57.8426 22.5673C61.0292 21.9251 62.5413 24.453 63.6927 27.2703L63.9186 27.8183C65.0661 30.6008 66.1501 33.2298 63.6947 35.1641C63.4831 35.3296 63.2145 35.4044 62.9477 35.3722C62.681 35.34 62.4379 35.2034 62.2717 34.9924C62.1055 34.7813 62.0297 34.513 62.0609 34.2461C62.0921 33.9793 62.2278 33.7357 62.4383 33.5687C63.5877 32.6659 63.2627 31.5501 62.0419 28.5922L61.8139 28.0372C60.3494 24.4461 59.3565 24.339 58.2388 24.5571C56.461 25.223 54.8167 26.2016 53.3835 27.4466C48.7303 31.3044 51.0073 36.922 51.5127 38.0091C52.1667 39.4261 58.4727 50.7516 60.5436 54.4736L61.0311 55.3496C62.5659 58.0166 64.7863 60.2245 67.4619 61.7441C68.8982 62.449 70.5381 62.6211 72.0894 62.2297C73.8719 61.7087 75.5442 60.8665 77.024 59.7443C78.7026 58.1995 78.0901 56.3821 76.368 53.5678C74.8044 51.0131 73.5916 50.1887 72.3312 50.81C72.2113 50.8698 72.0808 50.9054 71.9471 50.9145C71.8135 50.9237 71.6793 50.9062 71.5524 50.8633C71.4255 50.8203 71.3084 50.7527 71.2078 50.6642C71.1072 50.5758 71.0251 50.4683 70.9662 50.3479C70.9074 50.2276 70.8729 50.0967 70.8649 49.963C70.8568 49.8293 70.8753 49.6953 70.9193 49.5687C70.9633 49.4422 71.0319 49.3256 71.1212 49.2257C71.2104 49.1258 71.3186 49.0446 71.4394 48.9867C74.9135 47.2902 77.3094 51.2183 78.1002 52.5085C79.3308 54.5231 81.6237 58.2708 78.3974 61.2387C76.6476 62.6025 74.6492 63.6128 72.5136 64.2135C71.819 64.3723 71.1094 64.4561 70.397 64.4633Z" fill="#1F282C"/>
<path d="M70.0926 56.4972C69.9497 56.4971 69.8086 56.4667 69.6784 56.408C67.6139 55.2351 65.9257 53.4991 64.8108 51.4028L58.2568 40.0406C57.0776 38.1365 56.3992 35.965 56.2848 33.7283C56.2819 33.5926 56.3079 33.4579 56.361 33.333C56.414 33.2082 56.493 33.096 56.5927 33.0039C56.6924 32.9118 56.8104 32.8419 56.9391 32.7989C57.0678 32.7559 57.2041 32.7406 57.3391 32.7542C57.6067 32.7647 57.8592 32.8804 58.0419 33.0762C58.2245 33.272 58.3224 33.532 58.3142 33.7996C58.4571 35.6586 59.0429 37.4563 60.0226 39.0426L66.5589 50.3721C67.4785 52.0988 68.8464 53.5457 70.5187 54.5608C70.7278 54.6586 70.8974 54.8246 70.9995 55.0315C71.1017 55.2385 71.1303 55.4741 71.0807 55.6995C71.0311 55.9249 70.9062 56.1268 70.7266 56.2717C70.547 56.4167 70.3234 56.4962 70.0926 56.4971V56.4972Z" fill="#1F282C"/>
<path d="M38.5226 34.3187L36.0189 35.6019L33.628 38.0829L32.7844 41.7554L33.6264 44.9267L37.0473 51.237L41.1584 58.5615L43.0782 60.8573L45.8398 62.9036L47.5109 63.4462L50.6553 63.0127L53.5453 61.4472L54.5387 60.0128L54.076 58.1963L52.3627 55.7684L51.364 54.5657L50.5692 53.5317C48.1863 53.4727 47.0739 56.1514 44.1611 53.1327L40.6635 46.8985C40.2864 46.2016 40.2001 45.3839 40.4231 44.6237C40.6462 43.8634 41.1607 43.222 41.8544 42.8394C42.2158 42.6272 42.5171 42.3262 42.7297 41.965C42.9422 41.6037 43.0591 41.1942 43.0691 40.7752C43.0691 40.7752 42.8541 39.4427 42.8262 39.3646C42.7983 39.2864 40.9263 34.9701 40.9263 34.9701L39.8543 34.3999L38.5226 34.3187Z" fill="#CEEAF2"/>
<path d="M48.5182 64.3604C45.9221 64.3604 42.6146 63.1663 39.8322 58.3433L33.2923 46.4272C31.6911 43.0273 31.2036 38.3996 34.5448 35.4377C35.615 34.3107 36.9628 33.485 38.4529 33.0436C41.0252 32.6293 42.1984 34.0058 43.2646 36.3721L43.4985 36.8705C44.106 37.9613 44.445 39.1811 44.4874 40.429C44.4884 40.6978 44.3828 40.9561 44.1937 41.1472C44.0046 41.3384 43.7475 41.4468 43.4787 41.4486H43.4727C43.2044 41.4489 42.9469 41.3428 42.7567 41.1535C42.5665 40.9642 42.4591 40.7072 42.458 40.4389C42.4139 39.4931 42.1442 38.5716 41.6713 37.7514L41.4136 37.2064C40.3792 34.9054 39.8025 34.8767 38.7818 35.0471C37.6759 35.4367 36.6829 36.0925 35.8905 36.9567C33.3875 39.1754 33.8413 42.828 35.0998 45.5066L41.6019 57.3473C43.7105 61.0059 46.3166 62.6776 49.3784 62.2743C50.7315 61.9903 52.0164 61.4457 53.1616 60.6709C54.1842 59.7315 54.0058 58.4721 52.5472 56.3266L52.2599 55.8887C51.8624 55.1008 51.1833 54.491 50.3574 54.1803C50.2335 54.1304 50.1206 54.0566 50.0253 53.963C49.93 53.8695 49.8541 53.758 49.8019 53.635C49.7498 53.512 49.7225 53.38 49.7215 53.2464C49.7206 53.1128 49.746 52.9804 49.7964 52.8567C49.8468 52.733 49.9211 52.6204 50.015 52.5255C50.109 52.4306 50.2208 52.3552 50.344 52.3036C50.4672 52.252 50.5994 52.2252 50.733 52.2249C50.8665 52.2245 50.9989 52.2505 51.1224 52.3014C52.3348 52.7706 53.3427 53.6529 53.9682 54.7927L54.2258 55.1861C54.9769 56.291 57.2658 59.6552 54.5369 62.1653C53.0799 63.2244 51.4072 63.9491 49.638 64.2879C49.2667 64.3359 48.8927 64.3601 48.5182 64.3604Z" fill="#1F282C"/>
<path d="M47.0442 56.4961C46.8651 56.4963 46.6892 56.4484 46.5349 56.3574C45.3658 55.5607 44.407 54.4927 43.7404 53.2448L40.5417 47.7293C39.7961 46.4158 39.3889 44.9375 39.3565 43.4276C39.3764 43.1624 39.4956 42.9144 39.6903 42.7333C39.8851 42.5522 40.141 42.4512 40.4069 42.4505C40.6752 42.4598 40.9288 42.5751 41.1123 42.771C41.2958 42.967 41.3942 43.2276 41.386 43.4959C41.4325 44.634 41.7497 45.7445 42.3115 46.7353L45.4944 52.2231C45.9994 53.1642 46.7084 53.9805 47.5695 54.6123C47.7589 54.7272 47.9055 54.9009 47.987 55.1069C48.0685 55.3129 48.0804 55.5398 48.0209 55.7532C47.9614 55.9666 47.8338 56.1547 47.6575 56.2888C47.4812 56.4229 47.2659 56.4957 47.0443 56.496L47.0442 56.4961Z" fill="#1F282C"/>
<path d="M28.0646 56.6775C27.8876 56.6774 27.7137 56.6311 27.5601 56.5432C27.4064 56.4552 27.2784 56.3287 27.1887 56.1761L24.4933 51.5792C24.4259 51.4641 24.3818 51.3369 24.3635 51.2049C24.3453 51.0728 24.3532 50.9384 24.3869 50.8094C24.4206 50.6804 24.4793 50.5593 24.5598 50.453C24.6403 50.3467 24.7409 50.2573 24.856 50.1899C24.971 50.1224 25.0982 50.0784 25.2303 50.0601C25.3624 50.0418 25.4967 50.0498 25.6257 50.0835C25.7548 50.1171 25.8759 50.1759 25.9822 50.2564C26.0885 50.3369 26.1779 50.4375 26.2453 50.5525L28.9407 55.1495C29.0309 55.3038 29.0787 55.4791 29.0795 55.6577C29.0802 55.8364 29.0338 56.0121 28.945 56.1671C28.8561 56.3221 28.7279 56.4509 28.5734 56.5405C28.4188 56.6301 28.2434 56.6774 28.0647 56.6775H28.0646Z" fill="#1F282C"/>
<path d="M29.8262 64.4573C28.4679 64.3849 27.1576 63.9308 26.0457 63.1473C24.9338 62.3638 24.0653 61.2826 23.54 60.0278L18.7897 51.3987C18.1438 50.1637 17.9 48.7576 18.0926 47.3772C18.2852 45.9968 18.9045 44.7111 19.8639 43.7001C20.7034 42.8246 21.7588 42.1858 22.9237 41.848C23.7168 41.6639 24.5495 41.7687 25.2723 42.1434C25.9951 42.518 26.5607 43.1381 26.8675 43.8923L27.0161 44.1827C27.4759 44.9527 27.767 45.8117 27.8702 46.7026C27.8874 46.9713 27.7974 47.2358 27.6198 47.4381C27.4422 47.6405 27.1916 47.764 26.9229 47.7818C26.6567 47.7901 26.3973 47.697 26.1972 47.5213C25.997 47.3456 25.8711 47.1005 25.8449 46.8354C25.751 46.2262 25.5368 45.6417 25.2147 45.1161L25.0561 44.805C24.6419 43.9815 24.1128 43.6565 23.3875 43.824C22.6026 44.0745 21.8927 44.5173 21.3225 45.1122C20.6521 45.8155 20.2209 46.7125 20.0903 47.6753C19.9597 48.6382 20.1364 49.6176 20.5952 50.4741L25.3257 59.0646C25.7307 60.1779 26.5165 61.112 27.5441 61.7016C28.5716 62.2912 29.7745 62.4983 30.94 62.2862C31.6434 62.1139 32.3119 61.8216 32.9159 61.4221C33.1834 61.2209 33.8929 60.6868 32.8425 58.7544C32.5531 58.1895 32.1736 57.6754 31.7189 57.2324C31.5298 57.0414 31.4242 56.7832 31.4252 56.5145C31.4261 56.2457 31.5336 55.9883 31.724 55.7987C31.9144 55.609 32.1723 55.5026 32.441 55.5028C32.7097 55.5029 32.9674 55.6096 33.1576 55.7995C33.7486 56.3803 34.2442 57.0509 34.6261 57.7863C36.267 60.8047 35.0243 62.3754 34.1366 63.0432C33.3135 63.6053 32.3968 64.0161 31.4295 64.2561C30.9052 64.3879 30.3668 64.4554 29.8262 64.4573Z" fill="#1F282C"/>
</svg>
