<svg width="96" height="64" viewBox="0 0 96 64" fill="none" xmlns="http://www.w3.org/2000/svg">
<path d="M12.7977 6.46606V45.25H78.5548V6.46606H12.7977ZM60.9284 39.0402C58.7262 39.0403 56.5735 38.3873 54.7424 37.1638C52.9113 35.9404 51.4841 34.2014 50.6414 32.1668C49.7986 30.1323 49.5781 27.8935 50.0077 25.7336C50.4373 23.5737 51.4977 21.5897 53.0549 20.0325C54.6121 18.4753 56.5961 17.4149 58.756 16.9852C60.9159 16.5556 63.1546 16.7761 65.1892 17.6188C67.2238 18.4616 68.9628 19.8887 70.1862 21.7198C71.4097 23.5508 72.0627 25.7036 72.0627 27.9058C72.0627 29.368 71.7748 30.8158 71.2152 32.1667C70.6557 33.5176 69.8355 34.7451 68.8016 35.779C67.7677 36.8129 66.5402 37.6331 65.1894 38.1927C63.8385 38.7522 62.3906 39.0402 60.9284 39.0402Z" fill="#CEEAF2"/>
<path d="M80.5461 44.5457L77.2983 47.7935C76.4162 48.6756 76.4162 50.1059 77.2983 50.988L87.8569 61.5466C88.739 62.4287 90.1693 62.4287 91.0514 61.5466L94.2992 58.2988C95.1813 57.4167 95.1813 55.9864 94.2992 55.1042L83.7406 44.5457C82.8585 43.6636 81.4282 43.6636 80.5461 44.5457Z" fill="#3DAFCC"/>
<path d="M81.8584 27.9058C81.8576 23.2062 80.2748 18.6437 77.3651 14.9531C74.4554 11.2626 70.3881 8.65891 65.8184 7.5615C61.2487 6.4641 56.4426 6.93686 52.1743 8.90361C47.906 10.8704 44.424 14.2166 42.2891 18.4034C40.1542 22.5901 39.4908 27.3736 40.4057 31.9834C41.3206 36.5931 43.7605 40.7607 47.3325 43.8148C50.9045 46.8689 55.4005 48.6318 60.0964 48.8194C64.7923 49.007 69.4146 47.6085 73.2189 44.8491L76.7309 48.361L81.1138 43.9783L77.642 40.5065C80.3849 36.8789 81.8657 32.4536 81.8584 27.9058ZM60.9283 43.4388C57.8562 43.4388 54.853 42.5278 52.2986 40.8211C49.7442 39.1143 47.7533 36.6884 46.5776 33.8501C45.4019 31.0119 45.0943 27.8887 45.6936 24.8756C46.293 21.8625 47.7723 19.0947 49.9447 16.9224C52.117 14.7501 54.8847 13.2707 57.8978 12.6713C60.9109 12.072 64.0341 12.3796 66.8724 13.5552C69.7106 14.7309 72.1366 16.7218 73.8434 19.2762C75.5501 21.8306 76.4611 24.8337 76.4611 27.9058C76.4612 32.0254 74.8247 35.9763 71.9117 38.8892C68.9988 41.8022 65.0479 43.4388 60.9284 43.4388H60.9283Z" fill="#3DAFCC"/>
<path d="M60.928 44.4781C57.6503 44.478 54.4462 43.5059 51.721 41.6849C48.9957 39.8638 46.8717 37.2755 45.6174 34.2472C44.3632 31.219 44.0351 27.8869 44.6747 24.6722C45.3142 21.4575 46.8927 18.5046 49.2104 16.187C51.5282 13.8694 54.4811 12.2911 57.6959 11.6518C60.9106 11.0124 64.2427 11.3407 67.2709 12.5951C70.299 13.8495 72.8872 15.9737 74.7081 18.6991C76.529 21.4245 77.5009 24.6286 77.5008 27.9063C77.4958 32.3001 75.7482 36.5124 72.6412 39.6192C69.5342 42.726 65.3217 44.4734 60.928 44.4781ZM60.928 13.4122C58.0614 13.4123 55.2593 14.2624 52.8759 15.855C50.4926 17.4476 48.635 19.7112 47.538 22.3595C46.4411 25.0079 46.1541 27.922 46.7134 30.7335C47.2726 33.5449 48.653 36.1274 50.6799 38.1543C52.7069 40.1812 55.2893 41.5616 58.1008 42.1209C60.9122 42.6801 63.8264 42.3931 66.4747 41.2962C69.123 40.1993 71.3866 38.3417 72.9792 35.9583C74.5718 33.5749 75.422 30.7728 75.4221 27.9063C75.4177 24.0635 73.8892 20.3795 71.172 17.6622C68.4548 14.945 64.7707 13.4166 60.928 13.4122Z" fill="#1F282C"/>
<path d="M68.8958 36.9123C68.6902 36.9123 68.4893 36.8513 68.3184 36.7371C68.1475 36.6229 68.0143 36.4606 67.9356 36.2707C67.857 36.0807 67.8364 35.8718 67.8765 35.6702C67.9166 35.4686 68.0156 35.2834 68.1609 35.138C69.5876 33.7104 70.5598 31.8925 70.9553 29.9133C71.3507 27.9342 71.1517 25.8822 70.3832 24.016C69.6148 22.1497 68.3112 20.5526 66.6368 19.4257C64.9624 18.2988 62.992 17.6926 60.9737 17.6835C58.9554 17.6743 56.9796 18.2626 55.295 19.3742C53.6104 20.4858 52.2924 22.071 51.507 23.9302C50.7217 25.7895 50.504 27.8395 50.8815 29.8222C51.2589 31.8048 52.2146 33.6315 53.6282 35.0721C53.7244 35.1692 53.8005 35.2844 53.852 35.4111C53.9035 35.5377 53.9296 35.6733 53.9286 35.81C53.9276 35.9467 53.8997 36.0819 53.8463 36.2078C53.793 36.3336 53.7153 36.4478 53.6178 36.5436C53.5203 36.6394 53.4048 36.715 53.278 36.766C53.1511 36.8171 53.0155 36.8426 52.8788 36.8411C52.7421 36.8396 52.607 36.8112 52.4813 36.7574C52.3556 36.7036 52.2418 36.6255 52.1464 36.5276C50.4442 34.7941 49.2932 32.5956 48.8382 30.2091C48.3833 27.8226 48.6449 25.3548 49.59 23.1167C50.535 20.8786 52.1214 18.9702 54.1491 17.6321C56.1768 16.2939 58.5552 15.5858 60.9847 15.5969C63.4141 15.6081 65.7859 16.338 67.8013 17.6947C69.8166 19.0514 71.3854 20.9742 72.3099 23.2209C73.2344 25.4676 73.4733 27.9376 72.9966 30.3199C72.5198 32.7021 71.3486 34.8899 69.6306 36.6077C69.5342 36.7044 69.4197 36.7811 69.2936 36.8333C69.1675 36.8856 69.0323 36.9124 68.8958 36.9123Z" fill="#1F282C"/>
<path d="M60.9283 30.9112C62.5882 30.9112 63.9338 29.5656 63.9338 27.9057C63.9338 26.2458 62.5882 24.9002 60.9283 24.9002C59.2684 24.9002 57.9228 26.2458 57.9228 27.9057C57.9228 29.5656 59.2684 30.9112 60.9283 30.9112Z" fill="#1F282C"/>
<path d="M60.7717 29.0583C60.5507 29.0582 60.3355 28.9877 60.1573 28.857C59.9791 28.7263 59.8472 28.5422 59.7806 28.3315C59.7141 28.1207 59.7165 27.8943 59.7874 27.685C59.8582 27.4756 59.9939 27.2943 60.1748 27.1674L65.7005 23.2941C65.9263 23.1359 66.2058 23.0738 66.4774 23.1216C66.7491 23.1693 66.9906 23.3231 67.1489 23.5489C67.3071 23.7748 67.3692 24.0543 67.3214 24.3259C67.2737 24.5975 67.1199 24.839 66.8941 24.9973L61.3685 28.8705C61.1935 28.9929 60.9852 29.0584 60.7717 29.0583Z" fill="#1F282C"/>
<path d="M60.928 49.8748C56.583 49.8745 52.3356 48.5858 48.723 46.1716C45.1104 43.7574 42.2948 40.3262 40.6323 36.3118C38.9697 32.2974 38.5349 27.8802 39.3828 23.6187C40.2307 19.3572 42.3232 15.4428 45.3958 12.3706C48.4683 9.29833 52.3829 7.20617 56.6444 6.35867C60.906 5.51117 65.3232 5.94639 69.3374 7.6093C73.3516 9.27221 76.7826 12.0881 79.1965 15.7009C81.6103 19.3138 82.8987 23.5613 82.8985 27.9063C82.9121 32.3711 81.5521 36.7321 79.003 40.3978L81.849 43.2439C81.9456 43.3404 82.0221 43.455 82.0744 43.5811C82.1266 43.7072 82.1535 43.8423 82.1535 43.9788C82.1535 44.1153 82.1266 44.2504 82.0744 44.3765C82.0221 44.5026 81.9456 44.6172 81.849 44.7136L77.4663 49.0964C77.3698 49.1929 77.2553 49.2695 77.1292 49.3218C77.0031 49.374 76.8679 49.4009 76.7314 49.4009C76.5949 49.4009 76.4598 49.374 76.3337 49.3218C76.2076 49.2695 76.0931 49.1929 75.9966 49.0964L73.0999 46.1986C69.4982 48.6066 65.2605 49.8865 60.928 49.8748ZM60.928 8.01545C57.7902 8.01634 54.6971 8.75958 51.9015 10.1845C49.1058 11.6093 46.687 13.6754 44.8425 16.2139C42.998 18.7523 41.7803 21.6912 41.2888 24.7902C40.7973 27.8893 41.046 31.0607 42.0146 34.0453C42.9831 37.0299 44.644 39.743 46.8616 41.9629C49.0792 44.1829 51.7906 45.8467 54.7741 46.8184C57.7577 47.7901 60.9288 48.0421 64.0284 47.5539C67.128 47.0656 70.0681 45.851 72.6085 44.0092C72.8086 43.8635 73.054 43.794 73.3008 43.8131C73.5475 43.8323 73.7793 43.9389 73.9544 44.1138L76.7314 46.8918L79.6446 43.9787L76.9061 41.2413C76.7285 41.0642 76.6209 40.8288 76.6034 40.5786C76.5859 40.3284 76.6595 40.0803 76.8107 39.8802C79.424 36.4365 80.8327 32.2292 80.8199 27.9063C80.8138 22.6326 78.716 17.5767 74.9869 13.8477C71.2577 10.1188 66.2017 8.02129 60.928 8.01545Z" fill="#1F282C"/>
<path d="M89.4533 63.2473C89.0201 63.2487 88.591 63.1639 88.1909 62.9979C87.7908 62.8318 87.4277 62.5878 87.1229 62.28L76.5629 51.7231C75.9457 51.1039 75.5991 50.2654 75.5991 49.3911C75.5991 48.5169 75.9457 47.6783 76.5629 47.0592L79.8108 43.8112C80.4302 43.194 81.2689 42.8475 82.1433 42.8475C83.0177 42.8475 83.8564 43.194 84.4757 43.8112L95.0337 54.3691C95.34 54.6754 95.583 55.039 95.7488 55.4392C95.9146 55.8395 96 56.2684 96 56.7016C96 57.1348 95.9146 57.5637 95.7488 57.9639C95.583 58.3641 95.34 58.7278 95.0337 59.0341L91.7858 62.2811C91.4805 62.5887 91.117 62.8325 90.7166 62.9984C90.3161 63.1643 89.8867 63.2489 89.4533 63.2473ZM82.1433 44.9247C81.9831 44.9243 81.8245 44.9556 81.6764 45.0167C81.5283 45.0779 81.3938 45.1677 81.2806 45.2809L78.0326 48.5289C77.8044 48.7579 77.6763 49.0679 77.6763 49.3911C77.6763 49.7144 77.8044 50.0244 78.0326 50.2534L88.5926 60.8113C88.8245 61.0333 89.1331 61.1572 89.4541 61.1574C89.7751 61.1576 90.0839 61.034 90.3161 60.8123L93.564 57.5643C93.7928 57.3355 93.9213 57.0252 93.9213 56.7016C93.9213 56.378 93.7928 56.0677 93.564 55.8388L83.0061 45.2809C82.8929 45.1676 82.7583 45.0778 82.6103 45.0167C82.4622 44.9555 82.3036 44.9242 82.1434 44.9246L82.1433 44.9247Z" fill="#1F282C"/>
<path d="M50.0758 51.716H7.35864C7.22214 51.716 7.08696 51.6892 6.96083 51.637C6.83471 51.5848 6.7201 51.5082 6.62358 51.4117C6.52706 51.3152 6.45051 51.2006 6.3983 51.0745C6.3461 50.9483 6.31926 50.8132 6.31934 50.6766V3.23376C6.3204 2.37643 6.66144 1.55452 7.26767 0.948304C7.8739 0.342084 8.69581 0.0010493 9.55314 0L81.8005 0C82.6578 0.00106034 83.4797 0.3421 84.0859 0.948319C84.6921 1.55454 85.0332 2.37644 85.0342 3.23376V18.4201C85.0342 18.6957 84.9247 18.9601 84.7298 19.155C84.5349 19.3499 84.2706 19.4594 83.9949 19.4594C83.7193 19.4594 83.4549 19.3499 83.26 19.155C83.0651 18.9601 82.9556 18.6957 82.9556 18.4201V3.23376C82.9553 2.92751 82.8335 2.63391 82.6169 2.41736C82.4003 2.20082 82.1067 2.07903 81.8005 2.07872H9.55314C9.24691 2.07906 8.95331 2.20086 8.73677 2.4174C8.52023 2.63394 8.39842 2.92753 8.39807 3.23376V49.6373H50.0758C50.3514 49.6373 50.6158 49.7468 50.8107 49.9417C51.0056 50.1366 51.1151 50.401 51.1151 50.6767C51.1151 50.9523 51.0056 51.2167 50.8107 51.4116C50.6158 51.6065 50.3514 51.716 50.0758 51.716V51.716Z" fill="#1F282C"/>
<path d="M77.4521 58.5438H7.86823C5.78233 58.5415 3.7825 57.7119 2.30745 56.2371C0.832391 54.7622 0.0025632 52.7625 1.41806e-07 50.6766C-7.1181e-05 50.5401 0.0267626 50.4049 0.0789673 50.2788C0.131172 50.1526 0.207724 50.038 0.304247 49.9415C0.400769 49.845 0.51537 49.7684 0.641496 49.7162C0.767623 49.664 0.902802 49.6372 1.03931 49.6373H50.9059C51.1816 49.6373 51.446 49.7468 51.6409 49.9417C51.8358 50.1366 51.9453 50.401 51.9453 50.6766C51.9453 50.9523 51.8358 51.2166 51.6409 51.4116C51.446 51.6065 51.1816 51.716 50.9059 51.716H2.17209C2.41724 53.0483 3.12115 54.2528 4.16165 55.1203C5.20214 55.9878 6.51354 56.4636 7.86823 56.4651H77.4521C77.7278 56.4651 77.9921 56.5746 78.1871 56.7696C78.382 56.9645 78.4915 57.2288 78.4915 57.5045C78.4915 57.7801 78.382 58.0445 78.1871 58.2394C77.9921 58.4343 77.7278 58.5438 77.4521 58.5438V58.5438Z" fill="#1F282C"/>
<path d="M73.4997 51.716H68.6968C68.4211 51.716 68.1568 51.6065 67.9618 51.4116C67.7669 51.2166 67.6574 50.9523 67.6574 50.6766C67.6574 50.401 67.7669 50.1366 67.9618 49.9417C68.1568 49.7468 68.4211 49.6373 68.6968 49.6373H73.4997C73.7754 49.6373 74.0397 49.7468 74.2347 49.9417C74.4296 50.1366 74.5391 50.401 74.5391 50.6766C74.5391 50.9523 74.4296 51.2166 74.2347 51.4116C74.0397 51.6065 73.7754 51.716 73.4997 51.716Z" fill="#1F282C"/>
<path d="M43.0763 46.2887H12.7971C12.6606 46.2888 12.5254 46.2619 12.3992 46.2097C12.2731 46.1575 12.1585 46.081 12.062 45.9845C11.9655 45.8879 11.8889 45.7733 11.8367 45.6472C11.7845 45.5211 11.7577 45.3859 11.7578 45.2494V6.46545C11.7577 6.32895 11.7845 6.19377 11.8367 6.06764C11.8889 5.94152 11.9655 5.82692 12.062 5.73039C12.1585 5.63387 12.2731 5.55732 12.3992 5.50511C12.5254 5.45291 12.6606 5.42608 12.7971 5.42615H48.0437C48.3194 5.42615 48.5837 5.53565 48.7786 5.73057C48.9736 5.92549 49.0831 6.18985 49.0831 6.46551C49.0831 6.74116 48.9736 7.00552 48.7786 7.20044C48.5837 7.39536 48.3194 7.50486 48.0437 7.50486H13.8364V44.2101H43.0763C43.352 44.2101 43.6163 44.3196 43.8112 44.5145C44.0061 44.7094 44.1156 44.9738 44.1156 45.2494C44.1156 45.525 44.0061 45.7894 43.8112 45.9843C43.6163 46.1792 43.352 46.2887 43.0763 46.2887Z" fill="#1F282C"/>
<path d="M78.5543 11.6826C78.4178 11.6826 78.2827 11.6558 78.1565 11.6036C78.0304 11.5514 77.9158 11.4748 77.8193 11.3783C77.7227 11.2818 77.6462 11.1672 77.594 11.0411C77.5418 10.9149 77.515 10.7798 77.515 10.6433V7.50486H73.2195C72.9439 7.50486 72.6795 7.39536 72.4846 7.20044C72.2897 7.00552 72.1802 6.74116 72.1802 6.46551C72.1802 6.18985 72.2897 5.92549 72.4846 5.73057C72.6795 5.53565 72.9439 5.42615 73.2195 5.42615H78.5543C78.6908 5.42608 78.826 5.45291 78.9521 5.50511C79.0783 5.55732 79.1929 5.63387 79.2894 5.73039C79.3859 5.82692 79.4625 5.94152 79.5147 6.06764C79.5669 6.19377 79.5937 6.32895 79.5936 6.46545V10.6432C79.5937 10.7797 79.5669 10.9149 79.5147 11.041C79.4625 11.1672 79.3859 11.2818 79.2894 11.3783C79.1929 11.4748 79.0783 11.5514 78.9522 11.6036C78.826 11.6558 78.6908 11.6826 78.5543 11.6826Z" fill="#1F282C"/>
<path d="M83.9948 41.5457C83.8582 41.5457 83.7231 41.5189 83.5969 41.4667C83.4708 41.4145 83.3562 41.3379 83.2597 41.2414C83.1632 41.1449 83.0866 41.0303 83.0344 40.9042C82.9822 40.778 82.9554 40.6429 82.9554 40.5064V35.5633C82.9554 35.2877 83.0649 35.0233 83.2598 34.8284C83.4548 34.6335 83.7191 34.524 83.9948 34.524C84.2704 34.524 84.5347 34.6335 84.7297 34.8284C84.9246 35.0233 85.0341 35.2877 85.0341 35.5633V40.5063C85.0341 40.6428 85.0073 40.778 84.9551 40.9041C84.9029 41.0303 84.8263 41.1449 84.7298 41.2414C84.6333 41.3379 84.5187 41.4145 84.3926 41.4667C84.2664 41.5189 84.1313 41.5457 83.9948 41.5457Z" fill="#1F282C"/>
<path d="M34.867 35.5308H18.3734C18.2369 35.5309 18.1017 35.504 17.9756 35.4518C17.8495 35.3996 17.7349 35.3231 17.6383 35.2265C17.5418 35.13 17.4653 35.0154 17.4131 34.8893C17.3609 34.7632 17.334 34.628 17.3341 34.4915V15.3537C17.3341 15.078 17.4436 14.8137 17.6385 14.6188C17.8334 14.4238 18.0978 14.3143 18.3735 14.3143C18.6491 14.3143 18.9135 14.4238 19.1084 14.6188C19.3033 14.8137 19.4128 15.078 19.4128 15.3537V33.452H34.8671C35.1428 33.452 35.4071 33.5615 35.602 33.7565C35.7969 33.9514 35.9064 34.2157 35.9064 34.4914C35.9064 34.767 35.7969 35.0313 35.602 35.2263C35.4071 35.4212 35.1428 35.5307 34.8671 35.5307L34.867 35.5308Z" fill="#1F282C"/>
<path d="M22.0253 35.5309C21.8888 35.531 21.7536 35.5041 21.6275 35.4519C21.5014 35.3997 21.3868 35.3232 21.2903 35.2267C21.1937 35.1301 21.1172 35.0155 21.065 34.8894C21.0128 34.7633 20.9859 34.6281 20.986 34.4916V29.8652C20.986 29.5896 21.0955 29.3252 21.2904 29.1303C21.4854 28.9354 21.7497 28.8259 22.0254 28.8259C22.301 28.8259 22.5654 28.9354 22.7603 29.1303C22.9552 29.3252 23.0647 29.5896 23.0647 29.8652V34.4916C23.0648 34.6281 23.038 34.7633 22.9858 34.8894C22.9336 35.0155 22.857 35.1302 22.7605 35.2267C22.6639 35.3232 22.5493 35.3998 22.4232 35.452C22.297 35.5042 22.1618 35.531 22.0253 35.5309Z" fill="#1F282C"/>
<path d="M26.0549 35.5308C25.9184 35.5309 25.7832 35.5041 25.6571 35.4519C25.531 35.3997 25.4164 35.3231 25.3199 35.2266C25.2233 35.1301 25.1468 35.0155 25.0946 34.8893C25.0424 34.7632 25.0156 34.628 25.0156 34.4915V27.7864C25.0156 27.5108 25.1251 27.2464 25.32 27.0515C25.515 26.8566 25.7793 26.7471 26.055 26.7471C26.3306 26.7471 26.595 26.8566 26.7899 27.0515C26.9848 27.2464 27.0943 27.5108 27.0943 27.7864V34.4915C27.0944 34.628 27.0676 34.7632 27.0154 34.8893C26.9632 35.0155 26.8866 35.1301 26.7901 35.2266C26.6935 35.3231 26.5789 35.3997 26.4528 35.4519C26.3266 35.5041 26.1914 35.5309 26.0549 35.5308Z" fill="#1F282C"/>
<path d="M30.058 35.5309C29.9215 35.531 29.7864 35.5041 29.6602 35.4519C29.5341 35.3997 29.4195 35.3232 29.323 35.2266C29.2265 35.1301 29.1499 35.0155 29.0977 34.8894C29.0455 34.7633 29.0187 34.6281 29.0187 34.4916V23.6291C29.0187 23.3534 29.1282 23.0891 29.3232 22.8941C29.5181 22.6992 29.7824 22.5897 30.0581 22.5897C30.3338 22.5897 30.5981 22.6992 30.793 22.8941C30.9879 23.0891 31.0975 23.3534 31.0975 23.6291V34.4915C31.0975 34.6281 31.0707 34.7632 31.0185 34.8894C30.9663 35.0155 30.8897 35.1301 30.7932 35.2267C30.6967 35.3232 30.582 35.3997 30.4559 35.4519C30.3298 35.5041 30.1946 35.531 30.058 35.5309Z" fill="#1F282C"/>
<path d="M34.12 35.5309C33.9835 35.5309 33.8483 35.5041 33.7222 35.4519C33.5961 35.3997 33.4815 35.3231 33.3849 35.2266C33.2884 35.1301 33.2119 35.0155 33.1597 34.8894C33.1074 34.7632 33.0806 34.6281 33.0807 34.4916V25.7078C33.0807 25.4321 33.1902 25.1677 33.3851 24.9728C33.58 24.7779 33.8444 24.6684 34.12 24.6684C34.3957 24.6684 34.6601 24.7779 34.855 24.9728C35.0499 25.1677 35.1594 25.4321 35.1594 25.7078V34.4915C35.1595 34.628 35.1327 34.7632 35.0804 34.8894C35.0282 35.0155 34.9517 35.1301 34.8551 35.2266C34.7586 35.3232 34.644 35.3997 34.5178 35.4519C34.3917 35.5041 34.2565 35.531 34.12 35.5309Z" fill="#1F282C"/>
</svg>
