<svg width="94" height="96" viewBox="0 0 94 96" fill="none" xmlns="http://www.w3.org/2000/svg">
<path d="M39.7428 68.3566C39.7427 63.5366 41.0606 58.8079 43.5547 54.68C46.0488 50.5522 49.6244 47.1818 53.8963 44.932L53.8942 44.9222C52.2337 40.3689 45.8891 41.5403 45.8891 41.5403H14.9225C13.7361 41.5438 12.5993 42.0156 11.7604 42.8527C10.9215 43.6898 10.4487 44.8241 10.4452 46.008V50.4018C10.4487 51.5856 10.9216 52.72 11.7605 53.5571C12.5994 54.3941 13.7361 54.8659 14.9225 54.8694H5.62331C4.43694 54.8728 3.30016 55.3447 2.46127 56.1818C1.62238 57.0189 1.14955 58.1532 1.14606 59.337V63.7309C1.14954 64.9147 1.62237 66.0491 2.46126 66.8862C3.30015 67.7233 4.43694 68.1951 5.62331 68.1986H14.9225C13.7361 68.202 12.5993 68.6739 11.7605 69.511C10.9216 70.3481 10.4487 71.4824 10.4452 72.6662V77.0602C10.4487 78.244 10.9216 79.3783 11.7605 80.2154C12.5993 81.0525 13.7361 81.5243 14.9225 81.5278H5.62331C4.43696 81.5313 3.30019 82.0031 2.4613 82.8401C1.62241 83.6772 1.14957 84.8115 1.14606 85.9953V90.3893C1.14955 91.5731 1.62238 92.7074 2.46128 93.5445C3.30017 94.3816 4.43695 94.8534 5.62331 94.8568H39.9606C40.5598 94.8565 41.1528 94.7359 41.7042 94.5021C42.2556 94.2683 42.7543 93.9262 43.1705 93.4961C43.1705 93.4961 45.4423 93.082 45.4426 85.2008C45.4426 85.0612 45.4524 84.9002 45.4583 84.7478C41.7538 80.0843 39.7394 74.3074 39.7428 68.3566Z" fill="white"/>
<path d="M92.8569 68.3565C92.85 61.5077 90.1833 54.9281 85.4172 49.9998C80.6511 45.0715 74.1564 42.1782 67.2975 41.9275C60.4385 41.6769 53.7492 44.0885 48.6346 48.6557C43.52 53.2229 40.3782 59.5903 39.8692 66.4203C39.3603 73.2503 41.5237 80.0113 45.9051 85.2831C50.2865 90.555 56.5449 93.9273 63.3655 94.6917C70.1862 95.4561 77.0383 93.5531 82.4825 89.3824C87.9266 85.2117 91.5392 79.098 92.5612 72.3255C92.7593 71.0118 92.8582 69.6851 92.8569 68.3565Z" fill="white"/>
<path d="M51.8459 42.3442C45.8778 43.5881 40.5283 46.8626 36.7124 51.6076C32.8966 56.3526 30.8517 62.2732 30.9273 68.3566C30.7024 72.7236 31.7647 77.0606 33.9831 80.8316C36.751 85.1788 40.6299 88.7114 45.2204 91.0658C45.5616 90.2773 45.7432 89.4292 45.7546 88.5705V86.1093C45.339 84.925 44.7578 83.8052 44.0284 82.7829C41.2235 78.4927 39.7341 73.479 39.7428 68.3566C39.7968 63.5637 41.1383 58.8731 43.6273 54.7737C46.1164 50.6742 49.6619 47.3161 53.8942 45.0494C53.4914 43.9671 52.7792 43.0265 51.8459 42.3442Z" fill="#CEEAF2"/>
<path d="M71.9349 42.7769V36.2703V25.9384H64.8549L76.22 11.6051L84.1231 21.5732L86.7391 24.8723L86.2714 25.9384H80.5051V35.1744V45.9639L77.4879 44.2892L71.9349 42.7769Z" fill="#CEEAF2"/>
<path d="M19.5754 41.8563V25.938H26.655L15.29 11.6041L7.38549 21.5735L4.76947 24.8728L5.23838 25.938H11.0046V44.9906C11.0046 44.9906 11.6594 42.1723 13.2909 41.8562C15.3825 41.6921 17.4838 41.6921 19.5754 41.8563Z" fill="#CEEAF2"/>
<path d="M55.1895 44.2816V27.3998H66.5894L45.7545 1.12213L24.9196 27.3998H36.3194V41.5403H49.0195C50.0817 41.503 51.1254 41.8248 51.9815 42.4534C52.8375 43.082 53.4558 43.9806 53.736 45.0037L55.1895 44.2816Z" fill="#3DAFCC"/>
<path d="M34.7817 56.0129H14.9221C13.4313 56.011 12.0022 55.4192 10.9481 54.3672C9.8941 53.3152 9.30128 51.889 9.29974 50.4014V46.0083C9.30129 44.5207 9.89411 43.0944 10.9481 42.0425C12.0022 40.9905 13.4314 40.3986 14.9221 40.3968H45.89C46.193 40.3981 46.4832 40.5192 46.697 40.7335C46.9108 40.9478 47.0308 41.2379 47.0308 41.5403C47.0308 41.8427 46.9108 42.1328 46.697 42.3471C46.4832 42.5614 46.193 42.6825 45.89 42.6838H14.9221C14.039 42.6851 13.1925 43.0357 12.5681 43.659C11.9438 44.2822 11.5926 45.1271 11.5917 46.0083V50.4014C11.5926 51.2826 11.9438 52.1275 12.5681 52.7507C13.1925 53.3739 14.039 53.7246 14.9221 53.7259H34.7817C35.0857 53.7259 35.3772 53.8463 35.5921 54.0608C35.807 54.2752 35.9277 54.5661 35.9277 54.8694C35.9277 55.1726 35.807 55.4635 35.5921 55.678C35.3772 55.8924 35.0857 56.0129 34.7817 56.0129Z" fill="#1F282C"/>
<path d="M34.4102 82.6709H14.9221C13.4315 82.6691 12.0025 82.0775 10.9485 81.0257C9.89445 79.9739 9.30152 78.548 9.29974 77.0605V72.6663C9.30128 71.1787 9.8941 69.7525 10.9481 68.7005C12.0022 67.6485 13.4313 67.0566 14.9221 67.0548H31.6169C31.9209 67.0548 32.2123 67.1753 32.4272 67.3897C32.6422 67.6042 32.7629 67.895 32.7629 68.1983C32.7629 68.5016 32.6422 68.7924 32.4272 69.0069C32.2123 69.2213 31.9209 69.3418 31.6169 69.3418H14.9221C14.039 69.3431 13.1925 69.6938 12.5681 70.317C11.9438 70.9402 11.5926 71.7851 11.5917 72.6663V77.0605C11.5928 77.9416 11.9441 78.7862 12.5684 79.4092C13.1928 80.0322 14.0392 80.3827 14.9221 80.3839H34.4102C34.7133 80.3852 35.0034 80.5063 35.2172 80.7206C35.431 80.9349 35.5511 81.225 35.5511 81.5274C35.5511 81.8298 35.431 82.1199 35.2172 82.3342C35.0034 82.5485 34.7133 82.6695 34.4102 82.6709Z" fill="#1F282C"/>
<path d="M16.2472 69.3419H5.62238C4.13161 69.3401 2.70243 68.7482 1.6484 67.6962C0.594365 66.6443 0.00154715 65.218 0 63.7304L0 59.3373C0.00154715 57.8497 0.594365 56.4235 1.6484 55.3715C2.70243 54.3195 4.13161 53.7277 5.62238 53.7258H32.4764C32.7803 53.7258 33.0718 53.8463 33.2867 54.0608C33.5016 54.2752 33.6224 54.5661 33.6224 54.8693C33.6224 55.1726 33.5016 55.4635 33.2867 55.6779C33.0718 55.8924 32.7803 56.0128 32.4764 56.0128H5.62238C4.73928 56.0141 3.89271 56.3648 3.26837 56.988C2.64402 57.6112 2.29287 58.4561 2.29192 59.3373V63.7304C2.29287 64.6117 2.64402 65.4565 3.26837 66.0797C3.89271 66.703 4.73928 67.0536 5.62238 67.0549H16.2472C16.5511 67.0549 16.8426 67.1754 17.0575 67.3898C17.2724 67.6043 17.3931 67.8951 17.3931 68.1984C17.3931 68.5017 17.2724 68.7925 17.0575 69.007C16.8426 69.2214 16.5511 69.3419 16.2472 69.3419Z" fill="#1F282C"/>
<path d="M39.961 95.9999H5.62238C4.13178 95.9982 2.70274 95.4065 1.64872 94.3547C0.594705 93.303 0.00177782 91.877 0 90.3896L0 85.9953C0.00154714 84.5077 0.594365 83.0815 1.6484 82.0295C2.70243 80.9775 4.13161 80.3857 5.62238 80.3839H23.452C23.755 80.3852 24.0452 80.5063 24.259 80.7206C24.4728 80.9349 24.5928 81.225 24.5928 81.5274C24.5928 81.8298 24.4728 82.1199 24.259 82.3342C24.0452 82.5485 23.755 82.6695 23.452 82.6709H5.62238C4.73928 82.6721 3.89271 83.0228 3.26837 83.646C2.64402 84.2692 2.29287 85.1141 2.29192 85.9953V90.3896C2.2931 91.2706 2.64436 92.1153 3.26869 92.7382C3.89302 93.3612 4.73945 93.7117 5.62238 93.7129H39.961C40.4069 93.7136 40.8484 93.6242 41.2589 93.4502C41.6693 93.2761 42.0402 93.0209 42.3492 92.7001C42.4536 92.5909 42.5786 92.5035 42.7171 92.4428C42.8556 92.3821 43.0047 92.3494 43.1559 92.3466C43.3071 92.3437 43.4574 92.3708 43.598 92.4262C43.7387 92.4816 43.8669 92.5643 43.9754 92.6694C44.0839 92.7745 44.1704 92.9001 44.23 93.0388C44.2896 93.1775 44.3211 93.3266 44.3226 93.4774C44.3242 93.6283 44.2958 93.778 44.239 93.9179C44.1823 94.0578 44.0983 94.1851 43.992 94.2924C43.4705 94.8339 42.8444 95.2643 42.1516 95.5578C41.4588 95.8513 40.7136 96.0017 39.961 95.9999Z" fill="#1F282C"/>
<path d="M66.3002 96C60.4303 95.9916 54.7153 94.12 49.9819 90.656C45.2485 87.192 41.7422 82.3152 39.9702 76.7311C38.1982 71.147 38.2524 65.1452 40.125 59.5939C41.9976 54.0426 45.5915 49.2297 50.3867 45.8514C55.182 42.4731 60.9299 40.7047 66.799 40.8019C72.6681 40.8991 78.3541 42.857 83.0343 46.3922C87.7145 49.9274 91.1463 54.8567 92.8332 60.467C94.5201 66.0773 94.3747 72.0776 92.4179 77.5999C90.4994 82.9814 86.9593 87.6386 82.2833 90.933C77.6072 94.2273 72.0243 95.9972 66.3002 96ZM66.3002 42.9999C61.4332 42.9976 56.6677 44.3894 52.5699 47.0098C48.4721 49.6303 45.2142 53.3694 43.1831 57.7829C41.152 62.1965 40.4331 67.099 41.1119 71.9082C41.7906 76.7174 43.8384 81.2312 47.012 84.9133C50.1856 88.5955 54.3517 91.2913 59.0153 92.6806C63.679 94.0699 68.6443 94.0942 73.3215 92.7507C77.9986 91.4072 82.191 88.7524 85.4007 85.1015C88.6105 81.4506 90.7026 76.9572 91.4286 72.1549C91.6158 70.8975 91.7101 69.6282 91.7106 68.3571C91.7032 61.6344 89.0237 55.1891 84.26 50.4354C79.4963 45.6816 73.0373 43.0075 66.3002 42.9998V42.9999Z" fill="#1F282C"/>
<path d="M60.6816 75.0255H58.2141V73.1439H60.6816V70.2275H58.2141V68.2089H60.6816V56.783H68.0184C68.9644 56.6761 69.9224 56.7728 70.8278 57.0667C71.7331 57.3607 72.5648 57.845 73.2666 58.487C73.9684 59.129 74.524 59.9137 74.896 60.7882C75.268 61.6627 75.4477 62.6067 75.4229 63.5564C75.4229 67.7296 72.2344 70.2275 67.9498 70.2275H63.0476V73.1439H71.7202V75.0256H63.0476V80.8317H60.6815L60.6816 75.0255ZM67.7101 68.2089C68.3783 68.2936 69.0568 68.2327 69.6991 68.0305C70.3414 67.8284 70.9321 67.4896 71.4306 67.0377C71.9291 66.5858 72.3234 66.0314 72.5865 65.4127C72.8496 64.7941 72.9751 64.1258 72.9545 63.4541C72.9545 60.5125 70.9325 58.8016 67.7101 58.8016H63.0476V68.2089H67.7101Z" fill="#1F282C"/>
<path d="M66.3002 88.0523L65.6265 88.04C65.476 88.0354 65.3278 88.0013 65.1905 87.9395C65.0533 87.8777 64.9295 87.7896 64.8264 87.68C64.7233 87.5705 64.6429 87.4418 64.5897 87.3012C64.5365 87.1606 64.5115 87.011 64.5163 86.8608C64.5151 86.7089 64.5454 86.5585 64.6053 86.4189C64.6653 86.2793 64.7535 86.1536 64.8646 86.0497C64.9756 85.9459 65.107 85.8661 65.2504 85.8154C65.3939 85.7647 65.5463 85.7442 65.6981 85.7553L66.3002 85.7653C70.7189 85.7708 74.9747 84.1007 78.206 81.0932C81.4373 78.0857 83.4028 73.9653 83.7044 69.5663C83.7313 69.1665 83.7447 68.7634 83.7447 68.3569L83.7357 67.7673C83.7261 67.4643 83.8374 67.17 84.0452 66.9489C84.2529 66.7278 84.5401 66.598 84.8436 66.588C84.9966 66.5719 85.1513 66.5888 85.2971 66.6376C85.443 66.6863 85.5766 66.7659 85.6889 66.8707C85.8012 66.9756 85.8896 67.1034 85.9481 67.2454C86.0065 67.3873 86.0337 67.5402 86.0277 67.6936L86.0366 68.3569C86.0366 68.8148 86.0232 69.2715 85.9918 69.7227C85.648 74.6991 83.4235 79.3597 79.7681 82.7622C76.1127 86.1648 71.299 88.0556 66.3001 88.0524L66.3002 88.0523Z" fill="#1F282C"/>
<path d="M53.4327 82.8908C53.1372 82.8914 52.8531 82.7773 52.6404 82.5726C51.6952 81.6697 50.8427 80.675 50.0955 79.6033C50.0088 79.4801 49.9473 79.3411 49.9146 79.1942C49.8819 79.0472 49.8786 78.8953 49.9048 78.7471C49.9311 78.5989 49.9864 78.4573 50.0677 78.3305C50.1489 78.2037 50.2544 78.0941 50.3782 78.0081C50.502 77.9221 50.6415 77.8613 50.7889 77.8293C50.9363 77.7972 51.0885 77.7945 51.237 77.8213C51.3854 77.8481 51.527 77.9039 51.6538 77.9855C51.7805 78.0671 51.8899 78.1728 51.9756 78.2967C52.6373 79.2433 53.3907 80.1227 54.225 80.9221C54.3905 81.0798 54.5049 81.2833 54.5533 81.5065C54.6018 81.7297 54.5821 81.9622 54.4968 82.1741C54.4115 82.3861 54.2646 82.5676 54.0749 82.6953C53.8852 82.8231 53.6615 82.8912 53.4327 82.8908H53.4327Z" fill="#1F282C"/>
<path d="M47.7141 69.9561C47.416 69.9561 47.1296 69.8402 46.9156 69.6329C46.7017 69.4257 46.5771 69.1435 46.5682 68.8461L46.5615 68.357C46.5675 63.1351 48.6491 58.1288 52.3495 54.4364C56.05 50.7441 61.0671 48.6673 66.3002 48.6616L66.7725 48.6661C67.0761 48.6736 67.3644 48.8008 67.5742 49.0199C67.7839 49.2391 67.8981 49.5322 67.8916 49.8352C67.8725 50.1344 67.7412 50.4155 67.5239 50.6226C67.3066 50.8297 67.0192 50.9477 66.7188 50.9531L66.3003 50.9485C61.6749 50.9536 57.2403 52.7893 53.9695 56.0528C50.6988 59.3164 48.8589 63.7413 48.8535 68.3569L48.8602 68.779C48.8689 69.0822 48.7566 69.3765 48.548 69.5972C48.3395 69.8179 48.0516 69.9469 47.7478 69.956L47.7141 69.9561Z" fill="#1F282C"/>
<path d="M11.0052 35.8428C10.8547 35.8428 10.7056 35.8133 10.5665 35.7559C10.4275 35.6985 10.3011 35.6142 10.1947 35.508C10.0882 35.4018 10.0038 35.2757 9.94626 35.1369C9.8887 34.9982 9.85912 34.8494 9.85921 34.6992V27.0811H3.92582C3.71053 27.081 3.4996 27.0205 3.31717 26.9064C3.13474 26.7924 2.98819 26.6293 2.8943 26.436C2.80041 26.2427 2.76298 26.0269 2.78628 25.8133C2.80958 25.5998 2.89267 25.3971 3.02605 25.2284L14.3894 10.8955C14.5005 10.766 14.6383 10.662 14.7934 10.5907C14.9485 10.5195 15.1173 10.4825 15.2881 10.4825C15.4589 10.4825 15.6276 10.5195 15.7828 10.5907C15.9379 10.662 16.0757 10.766 16.1867 10.8955L22.7715 19.1961C22.96 19.4339 23.0461 19.7367 23.0108 20.0378C22.9756 20.339 22.8219 20.6138 22.5835 20.8019C22.3452 20.9899 22.0417 21.0758 21.7399 21.0407C21.4382 21.0055 21.1627 20.8521 20.9743 20.6143L15.2892 13.4471L6.29383 24.794H11.0052C11.1557 24.7939 11.3047 24.8235 11.4438 24.8809C11.5829 24.9383 11.7093 25.0226 11.8157 25.1288C11.9221 25.235 12.0065 25.3611 12.0641 25.4998C12.1216 25.6386 12.1512 25.7874 12.1511 25.9375V34.6992C12.1512 34.8494 12.1216 34.9982 12.0641 35.1369C12.0065 35.2757 11.9221 35.4018 11.8157 35.508C11.7093 35.6142 11.5829 35.6985 11.4438 35.7559C11.3047 35.8133 11.1557 35.8428 11.0052 35.8428Z" fill="#1F282C"/>
<path d="M80.5039 38.1299C80.3534 38.13 80.2043 38.1005 80.0652 38.043C79.9262 37.9856 79.7998 37.9014 79.6934 37.7952C79.5869 37.689 79.5025 37.5629 79.445 37.4241C79.3874 37.2853 79.3578 37.1366 79.3579 36.9864V25.9376C79.3578 25.7875 79.3874 25.6387 79.445 25.4999C79.5025 25.3612 79.5869 25.2351 79.6934 25.1289C79.7998 25.0227 79.9262 24.9384 80.0652 24.881C80.2043 24.8236 80.3534 24.794 80.5039 24.7941H85.2153L76.22 13.4472L70.5349 20.6143C70.3457 20.8497 70.0708 21.001 69.7702 21.035C69.4697 21.069 69.1678 20.983 68.9306 20.7958C68.6933 20.6086 68.5398 20.3353 68.5037 20.0357C68.4676 19.736 68.5516 19.4342 68.7376 19.1962L75.3224 10.8956C75.4294 10.7603 75.5657 10.6508 75.7212 10.5756C75.8767 10.5003 76.0472 10.4612 76.22 10.4612C76.3931 10.4612 76.5639 10.5003 76.7198 10.5755C76.8756 10.6508 77.0123 10.7602 77.1198 10.8956L88.4832 25.2286C88.6165 25.3972 88.6996 25.5999 88.7229 25.8135C88.7462 26.027 88.7088 26.2428 88.6149 26.4362C88.521 26.6295 88.3745 26.7925 88.192 26.9066C88.0096 27.0207 87.7987 27.0812 87.5834 27.0812H81.6499V36.9864C81.6499 37.1366 81.6204 37.2853 81.5628 37.4241C81.5052 37.5629 81.4208 37.689 81.3144 37.7952C81.208 37.9014 81.0816 37.9856 80.9425 38.043C80.8035 38.1005 80.6544 38.13 80.5039 38.1299Z" fill="#1F282C"/>
<path d="M55.1898 35.1281C55.0393 35.1282 54.8902 35.0987 54.7512 35.0412C54.6121 34.9838 54.4857 34.8996 54.3793 34.7934C54.2729 34.6872 54.1885 34.5611 54.1309 34.4223C54.0733 34.2835 54.0438 34.1348 54.0438 33.9846V27.3993C54.0438 27.2492 54.0733 27.1004 54.1309 26.9616C54.1885 26.8229 54.2729 26.6968 54.3793 26.5906C54.4857 26.4844 54.6121 26.4001 54.7512 26.3427C54.8902 26.2853 55.0393 26.2557 55.1898 26.2558H64.2209L45.7535 2.96459L27.2883 26.2558H36.3194C36.4699 26.2557 36.619 26.2853 36.7581 26.3427C36.8971 26.4001 37.0235 26.4844 37.1299 26.5906C37.2364 26.6968 37.3208 26.8229 37.3783 26.9616C37.4359 27.1004 37.4655 27.2492 37.4654 27.3993V33.9847C37.4654 34.1349 37.4357 34.2836 37.3781 34.4223C37.3206 34.561 37.2361 34.6871 37.1297 34.7933C37.0233 34.8995 36.897 34.9837 36.758 35.0411C36.6189 35.0986 36.4699 35.1282 36.3194 35.1282C36.1689 35.1282 36.0199 35.0986 35.8809 35.0411C35.7418 34.9837 35.6155 34.8995 35.5091 34.7933C35.4027 34.6871 35.3183 34.561 35.2607 34.4223C35.2031 34.2836 35.1735 34.1349 35.1735 33.9847V28.5429H24.9203C24.705 28.5428 24.4941 28.4823 24.3117 28.3682C24.1292 28.2542 23.9827 28.0911 23.8888 27.8978C23.7949 27.7045 23.7575 27.4887 23.7808 27.2751C23.8041 27.0616 23.8872 26.8589 24.0206 26.6902L44.8537 0.412916C44.965 0.283408 45.103 0.179451 45.2583 0.108177C45.4136 0.0369029 45.5826 0 45.7535 0C45.9245 0 46.0934 0.0369029 46.2487 0.108177C46.404 0.179451 46.542 0.283408 46.6533 0.412916L67.4888 26.6902C67.6221 26.8589 67.7052 27.0616 67.7285 27.2751C67.7518 27.4887 67.7144 27.7045 67.6205 27.8978C67.5266 28.0911 67.3801 28.2542 67.1976 28.3682C67.0152 28.4823 66.8043 28.5428 66.589 28.5429H56.3358V33.9847C56.3359 34.1349 56.3063 34.2836 56.2487 34.4224C56.1912 34.5611 56.1068 34.6872 56.0003 34.7934C55.8939 34.8996 55.7675 34.9838 55.6284 35.0413C55.4894 35.0987 55.3403 35.1282 55.1898 35.1281Z" fill="#1F282C"/>
</svg>
