<svg width="92" height="96" viewBox="0 0 92 96" fill="none" xmlns="http://www.w3.org/2000/svg">
<path d="M68.0194 46.9783V38.1326H60.1259V39.0853C60.1258 40.1218 60.33 41.1482 60.7266 42.1058C61.1233 43.0634 61.7047 43.9335 62.4377 44.6664C63.1707 45.3993 64.0409 45.9807 64.9986 46.3774C65.9563 46.7741 66.9828 46.9783 68.0194 46.9783Z" fill="#CEEAF2"/>
<path d="M82.2686 38.1327V46.9783H82.4958C83.5325 46.9784 84.559 46.7742 85.5168 46.3776C86.4745 45.9809 87.3448 45.3995 88.0778 44.6666C88.8109 43.9337 89.3923 43.0635 89.789 42.1059C90.1858 41.1482 90.3899 40.1218 90.3899 39.0853V38.1325L82.2686 38.1327Z" fill="#CEEAF2"/>
<path d="M45.9489 32.7724H31.9275V66.9865H45.9489V32.7724Z" fill="#CEEAF2"/>
<path d="M78.3813 10.7464H72.1342V24.6271H78.3813V10.7464Z" fill="#CEEAF2"/>
<path d="M82.2685 38.1326H68.2471V58.2749H82.2685V38.1326Z" fill="#3DAFCC"/>
<path d="M18.8873 80.9378C18.8873 80.012 18.6128 79.1069 18.0983 78.3371C17.5839 77.5673 16.8527 76.9673 15.9972 76.613C15.1417 76.2587 14.2004 76.166 13.2922 76.3467C12.3841 76.5273 11.5499 76.9731 10.8951 77.6278C10.2404 78.2824 9.79447 79.1165 9.61383 80.0246C9.43318 80.9326 9.52589 81.8738 9.88024 82.7292C10.2346 83.5846 10.8347 84.3156 11.6046 84.83C12.3745 85.3444 13.2796 85.6189 14.2056 85.6189C14.8212 85.6218 15.4313 85.5027 16.0006 85.2685C16.5699 85.0342 17.0872 84.6895 17.5225 84.2543C17.9578 83.819 18.3026 83.3018 18.5368 82.7326C18.7711 82.1634 18.8902 81.5534 18.8873 80.9378Z" fill="#CEEAF2"/>
<path d="M31.5252 85.6189C34.1109 85.6189 36.207 83.5231 36.207 80.9378C36.207 78.3525 34.1109 76.2567 31.5252 76.2567C28.9396 76.2567 26.8435 78.3525 26.8435 80.9378C26.8435 83.5231 28.9396 85.6189 31.5252 85.6189Z" fill="#CEEAF2"/>
<path d="M48.8448 85.6189C51.4305 85.6189 53.5266 83.5231 53.5266 80.9378C53.5266 78.3525 51.4305 76.2567 48.8448 76.2567C46.2592 76.2567 44.1631 78.3525 44.1631 80.9378C44.1631 83.5231 46.2592 85.6189 48.8448 85.6189Z" fill="#CEEAF2"/>
<path d="M66.1644 85.6189C68.75 85.6189 70.8461 83.5231 70.8461 80.9378C70.8461 78.3525 68.75 76.2567 66.1644 76.2567C63.5788 76.2567 61.4827 78.3525 61.4827 80.9378C61.4827 83.5231 63.5788 85.6189 66.1644 85.6189Z" fill="#CEEAF2"/>
<path d="M65.7022 96H1.11559C0.969329 96.0006 0.824374 95.9724 0.689053 95.9169C0.553733 95.8614 0.430712 95.7797 0.327054 95.6765C0.223396 95.5733 0.141143 95.4507 0.0850175 95.3156C0.0288921 95.1806 0 95.0358 0 94.8895C0 94.7433 0.0288921 94.5985 0.0850175 94.4634C0.141143 94.3284 0.223396 94.2057 0.327054 94.1026C0.430712 93.9994 0.553733 93.9177 0.689053 93.8622C0.824374 93.8067 0.969329 93.7784 1.11559 93.7791H65.7022C69.1054 93.7746 72.3677 92.4197 74.7726 90.012C77.1775 87.6043 78.5283 84.3406 78.5283 80.9378C78.5283 77.535 77.1775 74.2713 74.7726 71.8636C72.3677 69.4559 69.1054 68.101 65.7022 68.0965H1.11559C0.821041 68.0965 0.538551 67.9795 0.33027 67.7712C0.121989 67.563 0.00497838 67.2805 0.00497838 66.986C0.00497838 66.6915 0.121989 66.4091 0.33027 66.2008C0.538551 65.9925 0.821041 65.8755 1.11559 65.8755H65.7022C69.6974 65.8755 73.5291 67.4625 76.3542 70.2872C79.1793 73.1119 80.7664 76.943 80.7664 80.9378C80.7664 84.9325 79.1793 88.7637 76.3542 91.5884C73.5291 94.4131 69.6974 96 65.7022 96H65.7022Z" fill="#1F282C"/>
<path d="M14.2064 86.7292C13.0611 86.7291 11.9415 86.3894 10.9893 85.7531C10.037 85.1168 9.29482 84.2125 8.85656 83.1545C8.41831 82.0965 8.30367 80.9323 8.52713 79.8091C8.7506 78.6859 9.30214 77.6542 10.112 76.8445C10.9219 76.0347 11.9537 75.4832 13.077 75.2598C14.2003 75.0363 15.3647 75.151 16.4229 75.5892C17.481 76.0274 18.3855 76.7694 19.0219 77.7216C19.6583 78.6737 19.998 79.7931 19.9981 80.9383C19.996 82.4735 19.3852 83.9453 18.2995 85.0308C17.2138 86.1164 15.7419 86.7271 14.2064 86.7292ZM14.2064 77.3673C13.4096 77.367 12.6356 77.6332 12.0075 78.1236C11.3794 78.6139 10.9333 79.3001 10.7403 80.0731C10.5472 80.8462 10.6183 81.6615 10.9421 82.3895C11.2659 83.1175 11.8239 83.7163 12.5274 84.0906C13.2308 84.4649 14.0392 84.5933 14.824 84.4553C15.6088 84.3173 16.3249 83.9209 16.8584 83.329C17.3919 82.7372 17.7121 81.9839 17.768 81.1892C17.824 80.3944 17.6126 79.6037 17.1673 78.943C16.8403 78.4583 16.3993 78.0612 15.8831 77.7865C15.3669 77.5118 14.7912 77.3679 14.2064 77.3673Z" fill="#1F282C"/>
<path d="M31.525 86.7292C30.3794 86.7293 29.2595 86.3897 28.3069 85.7534C27.3543 85.117 26.6118 84.2126 26.1733 83.1543C25.7348 82.096 25.6201 80.9315 25.8436 79.8081C26.067 78.6846 26.6187 77.6526 27.4288 76.8426C28.2389 76.0327 29.271 75.4811 30.3946 75.2576C31.5183 75.0342 32.6829 75.1489 33.7413 75.5873C34.7997 76.0257 35.7043 76.7681 36.3408 77.7206C36.9772 78.6731 37.3168 79.7928 37.3167 80.9383C37.3148 82.4736 36.704 83.9454 35.6182 85.031C34.5325 86.1165 33.0605 86.7273 31.525 86.7292ZM31.525 77.3673C30.8188 77.3672 30.1283 77.5765 29.541 77.9687C28.9537 78.3609 28.4959 78.9185 28.2255 79.5709C27.9551 80.2233 27.8843 80.9412 28.022 81.6338C28.1597 82.3264 28.4997 82.9627 28.999 83.4621C29.4984 83.9615 30.1346 84.3017 30.8273 84.4396C31.52 84.5774 32.238 84.5068 32.8905 84.2367C33.5431 83.9666 34.1009 83.509 34.4933 82.9219C34.8858 82.3348 35.0954 81.6445 35.0955 80.9383C35.0947 79.9916 34.7183 79.0839 34.049 78.4144C33.3796 77.7449 32.4718 77.3683 31.525 77.3673Z" fill="#1F282C"/>
<path d="M48.8457 86.7292C47.7001 86.7293 46.5802 86.3897 45.6276 85.7534C44.6749 85.1171 43.9325 84.2126 43.494 83.1543C43.0555 82.096 42.9408 80.9315 43.1642 79.8081C43.3877 78.6846 43.9394 77.6526 44.7495 76.8426C45.5596 76.0327 46.5917 75.4811 47.7153 75.2576C48.8389 75.0342 50.0036 75.1489 51.062 75.5873C52.1204 76.0257 53.025 76.7681 53.6614 77.7206C54.2978 78.673 54.6375 79.7928 54.6374 80.9383C54.6353 82.4735 54.0245 83.9453 52.9388 85.0308C51.8531 86.1164 50.3811 86.7271 48.8457 86.7292ZM48.8457 77.3673C48.1395 77.3672 47.449 77.5765 46.8617 77.9687C46.2744 78.3609 45.8166 78.9185 45.5462 79.5709C45.2758 80.2233 45.205 80.9412 45.3427 81.6338C45.4804 82.3264 45.8204 82.9627 46.3197 83.4621C46.8191 83.9615 47.4553 84.3017 48.148 84.4396C48.8407 84.5774 49.5587 84.5068 50.2112 84.2367C50.8638 83.9666 51.4216 83.509 51.814 82.9219C52.2065 82.3348 52.416 81.6445 52.4162 80.9383C52.4149 79.9918 52.0384 79.0844 51.3691 78.4149C50.6998 77.7455 49.7924 77.3688 48.8457 77.3673Z" fill="#1F282C"/>
<path d="M66.1643 86.7292C65.0186 86.7293 63.8987 86.3897 62.9461 85.7534C61.9935 85.117 61.251 84.2126 60.8125 83.1543C60.3741 82.096 60.2593 80.9315 60.4828 79.8081C60.7063 78.6846 61.2579 77.6526 62.068 76.8426C62.8781 76.0327 63.9102 75.4811 65.0338 75.2576C66.1575 75.0342 67.3221 75.1489 68.3805 75.5873C69.4389 76.0257 70.3436 76.7681 70.98 77.7206C71.6164 78.6731 71.956 79.7928 71.9559 80.9383C71.954 82.4736 71.3432 83.9454 70.2575 85.031C69.1717 86.1166 67.6997 86.7273 66.1643 86.7292ZM66.1643 77.3673C65.458 77.3672 64.7675 77.5765 64.1802 77.9687C63.5929 78.3609 63.1351 78.9185 62.8647 79.5709C62.5944 80.2233 62.5235 80.9412 62.6612 81.6338C62.7989 82.3264 63.1389 82.9627 63.6382 83.4621C64.1376 83.9615 64.7738 84.3017 65.4665 84.4396C66.1592 84.5774 66.8772 84.5068 67.5298 84.2367C68.1823 83.9666 68.7401 83.509 69.1326 82.9219C69.525 82.3348 69.7346 81.6445 69.7347 80.9383C69.7339 79.9916 69.3576 79.0839 68.6882 78.4144C68.0188 77.7449 67.1111 77.3683 66.1643 77.3673Z" fill="#1F282C"/>
<path d="M9.17602 72.4233C9.03017 72.4234 8.88573 72.3948 8.75097 72.339C8.6162 72.2832 8.49375 72.2014 8.39062 72.0983C8.28749 71.9952 8.20569 71.8727 8.14991 71.738C8.09414 71.6032 8.06547 71.4587 8.06555 71.3129V66.986C8.06555 66.6915 8.18255 66.4091 8.3908 66.2008C8.59905 65.9925 8.8815 65.8755 9.17602 65.8755C9.47053 65.8755 9.75298 65.9925 9.96124 66.2008C10.1695 66.4091 10.2865 66.6915 10.2865 66.986V71.3129C10.2866 71.4587 10.2579 71.6032 10.2021 71.738C10.1463 71.8727 10.0646 71.9952 9.96142 72.0983C9.85828 72.2014 9.73584 72.2832 9.60107 72.339C9.46631 72.3948 9.32187 72.4234 9.17602 72.4233Z" fill="#1F282C"/>
<path d="M18.742 72.4233C18.5961 72.4234 18.4517 72.3948 18.3169 72.339C18.1822 72.2832 18.0597 72.2014 17.9566 72.0983C17.8535 71.9952 17.7717 71.8727 17.7159 71.738C17.6601 71.6032 17.6314 71.4587 17.6315 71.3129V66.986C17.6315 66.6915 17.7485 66.4091 17.9568 66.2008C18.165 65.9925 18.4475 65.8755 18.742 65.8755C19.0365 65.8755 19.319 65.9925 19.5272 66.2008C19.7355 66.4091 19.8525 66.6915 19.8525 66.986V71.3129C19.8525 71.4587 19.8239 71.6032 19.7681 71.738C19.7123 71.8727 19.6305 71.9952 19.5274 72.0983C19.4243 72.2014 19.3018 72.2832 19.167 72.339C19.0323 72.3948 18.8878 72.4234 18.742 72.4233Z" fill="#1F282C"/>
<path d="M28.3058 72.4234C28.1599 72.4235 28.0155 72.3948 27.8807 72.339C27.746 72.2833 27.6235 72.2015 27.5204 72.0983C27.4173 71.9952 27.3355 71.8728 27.2797 71.738C27.2239 71.6032 27.1952 71.4588 27.1953 71.3129V66.9861C27.1947 66.8398 27.2229 66.6949 27.2784 66.5596C27.3339 66.4243 27.4156 66.3013 27.5188 66.1976C27.622 66.094 27.7446 66.0117 27.8797 65.9556C28.0147 65.8995 28.1595 65.8706 28.3058 65.8706C28.452 65.8706 28.5968 65.8995 28.7319 65.9556C28.8669 66.0117 28.9896 66.094 29.0928 66.1976C29.1959 66.3013 29.2776 66.4243 29.3331 66.5596C29.3886 66.6949 29.4169 66.8398 29.4162 66.9861V71.3129C29.4163 71.4588 29.3877 71.6032 29.3319 71.738C29.2761 71.8728 29.1943 71.9952 29.0912 72.0983C28.988 72.2015 28.8656 72.2832 28.7308 72.339C28.5961 72.3948 28.4516 72.4235 28.3058 72.4234Z" fill="#1F282C"/>
<path d="M37.8697 72.4234C37.7238 72.4235 37.5794 72.3948 37.4446 72.339C37.3099 72.2832 37.1874 72.2015 37.0843 72.0983C36.9811 71.9952 36.8994 71.8728 36.8436 71.738C36.7878 71.6032 36.7591 71.4588 36.7592 71.3129V66.9861C36.7586 66.8398 36.7868 66.6949 36.8423 66.5596C36.8978 66.4243 36.9795 66.3013 37.0827 66.1976C37.1859 66.094 37.3085 66.0117 37.4436 65.9556C37.5786 65.8995 37.7234 65.8706 37.8697 65.8706C38.0159 65.8706 38.1607 65.8995 38.2958 65.9556C38.4308 66.0117 38.5535 66.094 38.6567 66.1976C38.7598 66.3013 38.8415 66.4243 38.897 66.5596C38.9526 66.6949 38.9808 66.8398 38.9801 66.9861V71.3129C38.9802 71.4588 38.9516 71.6032 38.8958 71.738C38.84 71.8728 38.7582 71.9952 38.6551 72.0983C38.5519 72.2015 38.4295 72.2833 38.2947 72.339C38.16 72.3948 38.0155 72.4235 37.8697 72.4234Z" fill="#1F282C"/>
<path d="M47.4356 72.4233C47.2897 72.4234 47.1453 72.3948 47.0105 72.339C46.8758 72.2832 46.7533 72.2014 46.6502 72.0983C46.5471 71.9952 46.4653 71.8727 46.4095 71.738C46.3537 71.6032 46.3251 71.4587 46.3251 71.3129V66.986C46.3251 66.6915 46.4421 66.4091 46.6504 66.2008C46.8586 65.9925 47.1411 65.8755 47.4356 65.8755C47.7301 65.8755 48.0126 65.9925 48.2208 66.2008C48.4291 66.4091 48.5461 66.6915 48.5461 66.986V71.3129C48.5461 71.4587 48.5175 71.6032 48.4617 71.738C48.4059 71.8727 48.3241 71.9952 48.221 72.0983C48.1179 72.2014 47.9954 72.2832 47.8606 72.339C47.7259 72.3948 47.5814 72.4234 47.4356 72.4233Z" fill="#1F282C"/>
<path d="M56.9996 72.4234C56.8537 72.4235 56.7093 72.3948 56.5745 72.339C56.4398 72.2833 56.3173 72.2015 56.2142 72.0983C56.111 71.9952 56.0293 71.8728 55.9735 71.738C55.9177 71.6032 55.889 71.4588 55.8891 71.3129V66.9861C55.8885 66.8398 55.9167 66.6949 55.9722 66.5596C56.0277 66.4243 56.1094 66.3013 56.2126 66.1976C56.3158 66.094 56.4384 66.0117 56.5735 65.9556C56.7085 65.8995 56.8533 65.8706 56.9996 65.8706C57.1458 65.8706 57.2906 65.8995 57.4257 65.9556C57.5607 66.0117 57.6834 66.094 57.7865 66.1976C57.8897 66.3013 57.9714 66.4243 58.0269 66.5596C58.0824 66.6949 58.1107 66.8398 58.11 66.9861V71.3129C58.1101 71.4588 58.0814 71.6032 58.0257 71.738C57.9699 71.8728 57.8881 71.9952 57.785 72.0983C57.6818 72.2015 57.5594 72.2832 57.4246 72.339C57.2899 72.3948 57.1454 72.4235 56.9996 72.4234Z" fill="#1F282C"/>
<path d="M66.5654 72.4234C66.4195 72.4235 66.2751 72.3948 66.1403 72.339C66.0056 72.2833 65.8831 72.2015 65.78 72.0983C65.6768 71.9952 65.595 71.8728 65.5393 71.738C65.4835 71.6032 65.4548 71.4588 65.4549 71.3129V66.9861C65.4543 66.8398 65.4825 66.6949 65.538 66.5596C65.5935 66.4243 65.6752 66.3013 65.7784 66.1976C65.8816 66.094 66.0042 66.0117 66.1393 65.9556C66.2743 65.8995 66.4191 65.8706 66.5654 65.8706C66.7116 65.8706 66.8564 65.8995 66.9915 65.9556C67.1265 66.0117 67.2492 66.094 67.3523 66.1976C67.4555 66.3013 67.5372 66.4243 67.5927 66.5596C67.6482 66.6949 67.6765 66.8398 67.6758 66.9861V71.3129C67.6759 71.4588 67.6472 71.6032 67.5915 71.738C67.5357 71.8728 67.4539 71.9952 67.3508 72.0983C67.2476 72.2015 67.1252 72.2832 66.9904 72.339C66.8557 72.3948 66.7112 72.4235 66.5654 72.4234Z" fill="#1F282C"/>
<path d="M9.17602 96C9.03017 96.0001 8.88573 95.9714 8.75096 95.9156C8.61619 95.8598 8.49374 95.778 8.39061 95.6749C8.28748 95.5718 8.20568 95.4493 8.14991 95.3146C8.09413 95.1798 8.06547 95.0354 8.06555 94.8895V90.5626C8.06555 90.2681 8.18255 89.9856 8.3908 89.7774C8.59905 89.5691 8.8815 89.4521 9.17602 89.4521C9.47053 89.4521 9.75298 89.5691 9.96124 89.7774C10.1695 89.9856 10.2865 90.2681 10.2865 90.5626V94.8895C10.2866 95.0354 10.2579 95.1798 10.2021 95.3146C10.1464 95.4493 10.0646 95.5718 9.96143 95.6749C9.85829 95.778 9.73584 95.8598 9.60108 95.9156C9.46631 95.9714 9.32187 96.0001 9.17602 96Z" fill="#1F282C"/>
<path d="M18.742 96C18.5961 96.0001 18.4517 95.9714 18.3169 95.9156C18.1822 95.8598 18.0597 95.778 17.9566 95.6749C17.8535 95.5718 17.7717 95.4493 17.7159 95.3146C17.6601 95.1798 17.6314 95.0354 17.6315 94.8895V90.5626C17.6315 90.2681 17.7485 89.9856 17.9568 89.7774C18.165 89.5691 18.4475 89.4521 18.742 89.4521C19.0365 89.4521 19.319 89.5691 19.5272 89.7774C19.7355 89.9856 19.8525 90.2681 19.8525 90.5626V94.8895C19.8525 95.0354 19.8239 95.1798 19.7681 95.3146C19.7123 95.4493 19.6305 95.5718 19.5274 95.6749C19.4243 95.778 19.3018 95.8598 19.1671 95.9156C19.0323 95.9714 18.8878 96.0001 18.742 96Z" fill="#1F282C"/>
<path d="M28.3058 96C28.1599 96.0001 28.0155 95.9714 27.8807 95.9156C27.746 95.8599 27.6235 95.7781 27.5204 95.6749C27.4172 95.5718 27.3354 95.4493 27.2797 95.3146C27.2239 95.1798 27.1952 95.0354 27.1953 94.8895V90.5626C27.1966 90.269 27.3142 89.9878 27.5223 89.7806C27.7304 89.5735 28.0121 89.4572 28.3058 89.4572C28.5994 89.4572 28.8811 89.5735 29.0892 89.7806C29.2973 89.9878 29.4149 90.269 29.4162 90.5626V94.8895C29.4163 95.0354 29.3876 95.1798 29.3319 95.3146C29.2761 95.4493 29.1943 95.5718 29.0912 95.6749C28.988 95.7781 28.8656 95.8599 28.7308 95.9156C28.5961 95.9714 28.4516 96.0001 28.3058 96Z" fill="#1F282C"/>
<path d="M37.8697 96C37.7238 96.0001 37.5794 95.9714 37.4446 95.9156C37.3098 95.8599 37.1874 95.7781 37.0843 95.6749C36.9811 95.5718 36.8993 95.4493 36.8436 95.3146C36.7878 95.1798 36.7591 95.0354 36.7592 94.8895V90.5626C36.7605 90.269 36.8781 89.9878 37.0862 89.7806C37.2943 89.5735 37.576 89.4572 37.8697 89.4572C38.1633 89.4572 38.445 89.5735 38.6531 89.7806C38.8612 89.9878 38.9788 90.269 38.9801 90.5626V94.8895C38.9802 95.0354 38.9515 95.1798 38.8958 95.3146C38.84 95.4493 38.7582 95.5718 38.6551 95.6749C38.5519 95.7781 38.4295 95.8599 38.2947 95.9156C38.16 95.9714 38.0155 96.0001 37.8697 96Z" fill="#1F282C"/>
<path d="M47.4356 96C47.2897 96.0001 47.1453 95.9714 47.0105 95.9156C46.8758 95.8598 46.7533 95.778 46.6502 95.6749C46.5471 95.5718 46.4653 95.4493 46.4095 95.3146C46.3537 95.1798 46.325 95.0354 46.3251 94.8895V90.5626C46.3251 90.2681 46.4421 89.9856 46.6504 89.7774C46.8586 89.5691 47.1411 89.4521 47.4356 89.4521C47.7301 89.4521 48.0126 89.5691 48.2208 89.7774C48.4291 89.9856 48.5461 90.2681 48.5461 90.5626V94.8895C48.5462 95.0354 48.5175 95.1798 48.4617 95.3146C48.4059 95.4493 48.3241 95.5718 48.221 95.6749C48.1179 95.778 47.9954 95.8598 47.8607 95.9156C47.7259 95.9714 47.5815 96.0001 47.4356 96Z" fill="#1F282C"/>
<path d="M56.9996 96C56.8537 96.0001 56.7093 95.9714 56.5745 95.9156C56.4397 95.8599 56.3173 95.7781 56.2142 95.6749C56.111 95.5718 56.0292 95.4493 55.9735 95.3146C55.9177 95.1798 55.889 95.0354 55.8891 94.8895V90.5626C55.8904 90.269 56.008 89.9878 56.2161 89.7806C56.4242 89.5735 56.7059 89.4572 56.9996 89.4572C57.2932 89.4572 57.5749 89.5735 57.783 89.7806C57.9911 89.9878 58.1087 90.269 58.11 90.5626V94.8895C58.1101 95.0354 58.0814 95.1798 58.0257 95.3146C57.9699 95.4493 57.8881 95.5718 57.785 95.6749C57.6818 95.7781 57.5594 95.8599 57.4246 95.9156C57.2899 95.9714 57.1454 96.0001 56.9996 96Z" fill="#1F282C"/>
<path d="M66.5654 96C66.4195 96.0001 66.2751 95.9714 66.1403 95.9156C66.0055 95.8599 65.8831 95.7781 65.78 95.6749C65.6768 95.5718 65.595 95.4493 65.5393 95.3146C65.4835 95.1798 65.4548 95.0354 65.4549 94.8895V90.5626C65.4562 90.269 65.5738 89.9878 65.7819 89.7806C65.99 89.5735 66.2717 89.4572 66.5653 89.4572C66.859 89.4572 67.1407 89.5735 67.3488 89.7806C67.5569 89.9878 67.6745 90.269 67.6758 90.5626V94.8895C67.6759 95.0354 67.6472 95.1798 67.5915 95.3146C67.5357 95.4493 67.4539 95.5718 67.3508 95.6749C67.2476 95.7781 67.1252 95.8599 66.9904 95.9156C66.8557 95.9714 66.7112 96.0001 66.5654 96Z" fill="#1F282C"/>
<path d="M79.6499 82.4489H75.791C75.6447 82.4495 75.4997 82.4213 75.3644 82.3658C75.2291 82.3103 75.1061 82.2286 75.0024 82.1254C74.8988 82.0222 74.8165 81.8996 74.7604 81.7645C74.7042 81.6295 74.6754 81.4847 74.6754 81.3384C74.6754 81.1922 74.7042 81.0474 74.7604 80.9123C74.8165 80.7773 74.8988 80.6546 75.0024 80.5515C75.1061 80.4483 75.2291 80.3666 75.3644 80.3111C75.4997 80.2556 75.6447 80.2273 75.791 80.228H79.6499C79.7961 80.2273 79.9411 80.2556 80.0764 80.3111C80.2117 80.3666 80.3348 80.4483 80.4384 80.5515C80.5421 80.6546 80.6243 80.7773 80.6804 80.9123C80.7366 81.0474 80.7655 81.1922 80.7655 81.3384C80.7655 81.4847 80.7366 81.6295 80.6804 81.7645C80.6243 81.8996 80.5421 82.0222 80.4384 82.1254C80.3348 82.2286 80.2117 82.3103 80.0764 82.3658C79.9411 82.4213 79.7961 82.4495 79.6499 82.4489Z" fill="#1F282C"/>
<path d="M73.2551 75.5259C73.0355 75.5259 72.8208 75.4607 72.6383 75.3387C72.4557 75.2167 72.3134 75.0433 72.2294 74.8404C72.1453 74.6375 72.1233 74.4142 72.1662 74.1989C72.209 73.9835 72.3147 73.7856 72.47 73.6303L75.1984 70.9019C75.4069 70.695 75.6889 70.5791 75.9827 70.5797C76.2764 70.5802 76.558 70.6972 76.7657 70.9049C76.9734 71.1126 77.0903 71.3941 77.0909 71.6879C77.0915 71.9816 76.9756 72.2636 76.7687 72.4721L74.0402 75.2006C73.9373 75.3038 73.8149 75.3858 73.6801 75.4416C73.5454 75.4974 73.401 75.5261 73.2551 75.5259Z" fill="#1F282C"/>
<path d="M75.4153 91.8651C75.2694 91.8653 75.125 91.8366 74.9902 91.7808C74.8555 91.725 74.7331 91.6431 74.6301 91.5398L71.9017 88.8125C71.7986 88.7094 71.7168 88.587 71.661 88.4522C71.6052 88.3175 71.5765 88.1731 71.5765 88.0273C71.5765 87.8815 71.6052 87.7371 71.661 87.6024C71.7168 87.4677 71.7986 87.3453 71.9017 87.2422C72.0048 87.1391 72.1272 87.0573 72.2619 87.0015C72.3966 86.9457 72.541 86.917 72.6868 86.917C72.8326 86.917 72.977 86.9457 73.1117 87.0015C73.2464 87.0573 73.3688 87.1391 73.4719 87.2422L76.2004 89.9695C76.3556 90.1248 76.4614 90.3227 76.5042 90.5381C76.547 90.7535 76.525 90.9767 76.441 91.1796C76.357 91.3825 76.2147 91.5559 76.0321 91.6779C75.8495 91.7999 75.6349 91.8651 75.4153 91.8651Z" fill="#1F282C"/>
<path d="M15.137 68.0965C14.9911 68.0966 14.8467 68.0679 14.7119 68.0121C14.5771 67.9564 14.4546 67.8746 14.3515 67.7714C14.2483 67.6683 14.1665 67.5458 14.1108 67.4111C14.055 67.2763 14.0263 67.1319 14.0264 66.986V19.3404H2.22616V59.9882C2.22682 60.1344 2.19858 60.2794 2.14306 60.4147C2.08754 60.55 2.00584 60.673 1.90264 60.7766C1.79945 60.8803 1.67679 60.9625 1.54172 61.0186C1.40665 61.0747 1.26183 61.1036 1.11556 61.1036C0.969292 61.1036 0.824466 61.0747 0.689396 61.0186C0.554325 60.9625 0.431672 60.8803 0.328477 60.7766C0.225283 60.673 0.143581 60.55 0.0880614 60.4147C0.032542 60.2794 0.00429936 60.1344 0.00495501 59.9882V18.23C0.00487287 18.0841 0.0335439 17.9397 0.0893287 17.8049C0.145114 17.6701 0.226918 17.5477 0.330065 17.4446C0.433212 17.3414 0.555678 17.2596 0.690461 17.2039C0.825244 17.1481 0.9697 17.1194 1.11557 17.1195H15.137C15.2829 17.1194 15.4273 17.1481 15.5621 17.2039C15.6969 17.2596 15.8193 17.3414 15.9225 17.4446C16.0256 17.5477 16.1074 17.6701 16.1632 17.8049C16.219 17.9397 16.2477 18.0841 16.2476 18.23V66.986C16.2477 67.1319 16.219 67.2763 16.1632 67.4111C16.1074 67.5459 16.0256 67.6683 15.9225 67.7714C15.8193 67.8746 15.6969 67.9564 15.5621 68.0121C15.4273 68.0679 15.2829 68.0966 15.137 68.0965Z" fill="#1F282C"/>
<path d="M45.9499 68.0965H31.9285C31.7826 68.0966 31.6382 68.0679 31.5034 68.0122C31.3686 67.9564 31.2461 67.8746 31.143 67.7715C31.0398 67.6683 30.958 67.5459 30.9022 67.4111C30.8465 67.2763 30.8178 67.1319 30.8179 66.986V32.7722C30.8178 32.6264 30.8465 32.4819 30.9022 32.3472C30.958 32.2124 31.0398 32.0899 31.143 31.9868C31.2461 31.8837 31.3686 31.8019 31.5034 31.7461C31.6382 31.6903 31.7826 31.6617 31.9285 31.6617H45.9499C46.0958 31.6617 46.2402 31.6903 46.375 31.7461C46.5098 31.8019 46.6323 31.8837 46.7354 31.9868C46.8386 32.0899 46.9204 32.2124 46.9761 32.3472C47.0319 32.4819 47.0606 32.6264 47.0605 32.7722V66.986C47.0606 67.1319 47.0319 67.2763 46.9761 67.4111C46.9204 67.5459 46.8386 67.6683 46.7354 67.7715C46.6323 67.8746 46.5098 67.9564 46.375 68.0122C46.2402 68.0679 46.0958 68.0966 45.9499 68.0965ZM33.0392 65.8756H44.8394V33.8827H33.0392V65.8756Z" fill="#1F282C"/>
<path d="M82.2681 59.3852H68.2467C68.1008 59.3853 67.9563 59.3566 67.8215 59.3008C67.6868 59.2451 67.5643 59.1633 67.4611 59.0601C67.358 58.957 67.2762 58.8346 67.2204 58.6998C67.1646 58.565 67.136 58.4206 67.136 58.2747V38.1325C67.136 37.9866 67.1646 37.8422 67.2204 37.7074C67.2762 37.5727 67.358 37.4502 67.4611 37.3471C67.5643 37.244 67.6868 37.1622 67.8215 37.1064C67.9563 37.0506 68.1008 37.0219 68.2467 37.022H82.2681C82.4139 37.0219 82.5584 37.0506 82.6932 37.1064C82.828 37.1622 82.9504 37.244 83.0536 37.3471C83.1567 37.4502 83.2385 37.5727 83.2943 37.7074C83.3501 37.8422 83.3788 37.9866 83.3787 38.1325V58.2747C83.3788 58.4206 83.3501 58.565 83.2943 58.6998C83.2385 58.8346 83.1567 58.957 83.0536 59.0601C82.9504 59.1633 82.828 59.2451 82.6932 59.3008C82.5584 59.3566 82.4139 59.3853 82.2681 59.3852ZM69.3573 57.1643H81.1575V39.243H69.3573V57.1643Z" fill="#1F282C"/>
<path d="M82.4958 48.0887H82.268C82.1222 48.0887 81.9777 48.0601 81.8429 48.0043C81.7081 47.9485 81.5857 47.8667 81.4825 47.7636C81.3794 47.6605 81.2976 47.538 81.2418 47.4033C81.186 47.2685 81.1573 47.1241 81.1574 46.9782V33.4673H69.1295V46.9783C69.1295 47.1241 69.1009 47.2686 69.0451 47.4033C68.9893 47.5381 68.9075 47.6606 68.8044 47.7637C68.7012 47.8668 68.5787 47.9486 68.444 48.0044C68.3092 48.0602 68.1647 48.0888 68.0188 48.0888C65.6316 48.0861 63.3429 47.1367 61.6548 45.4489C59.9668 43.7611 59.0173 41.4726 59.0148 39.0857V29.0439C59.0165 27.5783 59.5996 26.1732 60.6362 25.137C61.6728 24.1007 63.0781 23.5179 64.5439 23.5165H85.973C87.4385 23.5184 88.8434 24.1014 89.8795 25.1376C90.9156 26.1738 91.4984 27.5786 91.5 29.0439V39.0857C91.4974 41.4726 90.5479 43.7611 88.8598 45.4489C87.1718 47.1367 84.8831 48.0861 82.4958 48.0887ZM68.0188 31.2464H82.268C82.4139 31.2463 82.5584 31.2749 82.6931 31.3307C82.8279 31.3865 82.9504 31.4683 83.0535 31.5714C83.1567 31.6745 83.2385 31.797 83.2943 31.9318C83.3501 32.0665 83.3787 32.211 83.3786 32.3568V45.8103C85.0099 45.5942 86.5073 44.7934 87.5925 43.5566C88.6777 42.3197 89.2769 40.731 89.2788 39.0857V29.0439C89.2777 28.1674 88.9292 27.3272 88.3095 26.7074C87.6897 26.0875 86.8495 25.7387 85.973 25.7374H64.5439C63.667 25.7383 62.8262 26.0869 62.2061 26.7067C61.5859 27.3266 61.237 28.1671 61.2359 29.0439V39.0857C61.2377 40.6915 61.8085 42.2446 62.8469 43.4695C63.8854 44.6944 65.3243 45.5118 66.9082 45.7767V32.3568C66.9082 32.211 66.9368 32.0665 66.9926 31.9318C67.0484 31.797 67.1302 31.6745 67.2333 31.5714C67.3365 31.4683 67.4589 31.3865 67.5937 31.3307C67.7285 31.2749 67.873 31.2463 68.0188 31.2464Z" fill="#1F282C"/>
<path d="M78.381 25.7375H72.1338C71.9879 25.7376 71.8435 25.7089 71.7087 25.6531C71.5739 25.5973 71.4514 25.5155 71.3483 25.4124C71.2451 25.3093 71.1633 25.1868 71.1076 25.0521C71.0518 24.9173 71.0231 24.7729 71.0232 24.627V10.7463C71.0231 10.6004 71.0518 10.456 71.1076 10.3212C71.1633 10.1865 71.2451 10.064 71.3483 9.96089C71.4514 9.85775 71.5739 9.77596 71.7087 9.72019C71.8435 9.66441 71.9879 9.63575 72.1338 9.63583H78.381C78.5268 9.63575 78.6713 9.66441 78.8061 9.72019C78.9409 9.77596 79.0633 9.85775 79.1665 9.96088C79.2696 10.064 79.3514 10.1865 79.4072 10.3212C79.463 10.456 79.4917 10.6004 79.4916 10.7463V24.6271C79.4916 24.7729 79.463 24.9174 79.4072 25.0521C79.3514 25.1869 79.2696 25.3093 79.1664 25.4125C79.0633 25.5156 78.9408 25.5974 78.8061 25.6531C78.6713 25.7089 78.5268 25.7376 78.381 25.7375ZM73.2444 23.5165H77.2704V11.8567H73.2444V23.5165Z" fill="#1F282C"/>
<path d="M81.4351 11.5932H69.0796C68.9337 11.5933 68.7893 11.5646 68.6545 11.5089C68.5197 11.4531 68.3972 11.3713 68.2941 11.2682C68.191 11.165 68.1091 11.0426 68.0534 10.9078C67.9976 10.773 67.9689 10.6286 67.969 10.4828V1.11544C67.9683 0.969198 67.9966 0.824263 68.0521 0.68896C68.1076 0.553658 68.1893 0.430654 68.2925 0.32701C68.3957 0.223366 68.5184 0.141124 68.6534 0.085006C68.7885 0.0288882 68.9333 0 69.0796 0C69.2259 0 69.3707 0.0288882 69.5058 0.085006C69.6408 0.141124 69.7635 0.223366 69.8667 0.32701C69.9699 0.430654 70.0516 0.553658 70.1071 0.68896C70.1626 0.824263 70.1909 0.969198 70.1902 1.11544V9.37225H80.3245V1.11544C80.3239 0.969198 80.3521 0.824263 80.4076 0.68896C80.4631 0.553658 80.5448 0.430654 80.648 0.32701C80.7512 0.223366 80.8739 0.141124 81.009 0.085006C81.144 0.0288882 81.2888 0 81.4351 0C81.5814 0 81.7262 0.0288882 81.8613 0.085006C81.9964 0.141124 82.119 0.223366 82.2222 0.32701C82.3254 0.430654 82.4071 0.553658 82.4626 0.68896C82.5181 0.824263 82.5464 0.969198 82.5457 1.11544V10.4828C82.5458 10.6286 82.5171 10.773 82.4614 10.9078C82.4056 11.0426 82.3238 11.165 82.2206 11.2682C82.1175 11.3713 81.995 11.4531 81.8602 11.5089C81.7255 11.5646 81.581 11.5933 81.4351 11.5932Z" fill="#1F282C"/>
<path d="M81.0317 21.1807H79.9015C79.6078 21.1793 79.3266 21.0618 79.1194 20.8537C78.9122 20.6456 78.7959 20.3639 78.7959 20.0702C78.7959 19.7766 78.9122 19.4949 79.1194 19.2868C79.3266 19.0786 79.6078 18.9611 79.9015 18.9598H81.0317C82.4763 18.958 83.8612 18.3835 84.8827 17.3621C85.9042 16.3407 86.4789 14.956 86.4806 13.5116V12.3816C86.4791 10.9953 85.9497 9.66162 85 8.65162C84.0503 7.64162 82.7516 7.03113 81.3679 6.94424C81.0738 6.92619 80.7989 6.79211 80.6037 6.57147C80.4084 6.35083 80.3088 6.0617 80.3267 5.76764C80.3502 5.47594 80.4857 5.20466 80.7049 5.01076C80.9241 4.81686 81.21 4.7154 81.5024 4.72768C83.4505 4.84989 85.2789 5.70914 86.6162 7.13082C87.9535 8.5525 88.6992 10.4299 88.7018 12.3816V13.5116C88.6997 15.5449 87.8909 17.4943 86.4529 18.9321C85.015 20.3699 83.0653 21.1785 81.0317 21.1807Z" fill="#1F282C"/>
</svg>
