<svg width="96" height="92" viewBox="0 0 96 92" fill="none" xmlns="http://www.w3.org/2000/svg">
<path d="M83.256 50.7223L78.8525 51.2287C78.1173 54.0168 77.0017 56.6916 75.537 59.1782H68.4789C69.0558 60.6451 69.1908 62.2477 68.8673 63.7898C68.5439 65.3319 67.7761 66.7468 66.6578 67.8613L57.6464 76.8328H83.9224V50.7223H83.256Z" fill="#CEEAF2"/>
<path d="M43.2955 67.7047L43.0323 64.1218C42.9139 62.3919 43.3283 60.6673 44.2203 59.1781H20.4632V59.1775C18.9986 56.6911 17.8831 54.0165 17.1479 51.2285L12.7444 50.7222H12.0782V76.8327H34.1272L43.2955 67.7047Z" fill="#CEEAF2"/>
<path d="M75.5359 60.2839C75.3403 60.2842 75.1482 60.233 74.9789 60.1355C74.8096 60.038 74.6692 59.8977 74.5719 59.7289C74.4745 59.56 74.4238 59.3685 74.4247 59.1738C74.4257 58.9791 74.4783 58.7881 74.5772 58.6202C75.9914 56.2208 77.0686 53.6398 77.7786 50.9492C77.8346 50.7336 77.955 50.5399 78.1238 50.3938C78.2926 50.2477 78.502 50.156 78.7243 50.1308L89.1374 48.9324V37.3995L78.7243 36.2021C78.502 36.1769 78.2926 36.0852 78.1238 35.9391C77.955 35.793 77.8346 35.5993 77.7786 35.3837C77.0685 32.6935 75.9921 30.1126 74.5794 27.7127C74.4664 27.5205 74.4144 27.2988 74.4302 27.0766C74.4461 26.8545 74.5291 26.6423 74.6683 26.4679L81.1838 18.2852L72.9939 10.1283L64.7736 16.6182C64.5983 16.7569 64.385 16.8395 64.1616 16.8553C63.9383 16.8711 63.7154 16.8193 63.5221 16.7067C61.112 15.2984 58.519 14.2263 55.8158 13.5206C55.5994 13.4637 55.4053 13.3432 55.2587 13.1749C55.112 13.0066 55.0197 12.7982 54.9938 12.5769L53.7943 2.21113H42.2078L41.0062 12.5782C40.98 12.7992 40.8876 13.0074 40.741 13.1755C40.5944 13.3436 40.4004 13.4639 40.1842 13.5207C37.481 14.2264 34.888 15.2984 32.4779 16.7067C32.2848 16.8198 32.0618 16.8718 31.8383 16.856C31.6149 16.8402 31.4015 16.7573 31.2264 16.6182L23.0061 10.1283L14.8161 18.2852L21.3338 26.4679C21.4746 26.644 21.5579 26.8588 21.5727 27.0834C21.5874 27.308 21.5328 27.5318 21.4162 27.7246C19.985 30.1105 18.9089 32.6904 18.2214 35.3837C18.1651 35.5992 18.0447 35.7927 17.8759 35.9387C17.7071 36.0848 17.4979 36.1766 17.2758 36.2021L6.86265 37.3995V48.9324L17.2758 50.1308C17.4981 50.156 17.7074 50.2477 17.8763 50.3938C18.0451 50.5399 18.1654 50.7336 18.2214 50.9492C18.9315 53.6398 20.0086 56.2208 21.4227 58.6202C21.5714 58.8733 21.613 59.1749 21.5384 59.4585C21.4637 59.7422 21.279 59.9847 21.0247 60.1328C20.7705 60.2808 20.4676 60.3222 20.1826 60.2479C19.8977 60.1736 19.6541 59.9897 19.5054 59.7365C18.1184 57.3825 17.0334 54.8645 16.2758 52.2416L5.62409 51.0161C5.35352 50.985 5.10389 50.856 4.92271 50.6535C4.74154 50.451 4.64146 50.1893 4.64154 49.9182V36.4138C4.64146 36.1426 4.74154 35.8809 4.92271 35.6784C5.10389 35.476 5.35352 35.3469 5.62409 35.3158L16.2736 34.0914C16.9442 31.7055 17.9003 29.4084 19.1215 27.2496L12.4606 18.8865C12.291 18.6742 12.2059 18.4071 12.2215 18.1363C12.2371 17.8655 12.3523 17.6098 12.5452 17.4182L22.1363 7.86862C22.3289 7.67683 22.5856 7.56226 22.8576 7.54673C23.1296 7.5312 23.3978 7.61579 23.6112 7.7844L32.018 14.4221C34.1911 13.2189 36.495 12.2662 38.8849 11.5826L40.1148 0.978185C40.1464 0.708798 40.2764 0.460366 40.4799 0.280046C40.6834 0.0997265 40.9463 7.22597e-05 41.2187 0H54.7834C55.056 9.73477e-05 55.3191 0.0998986 55.5226 0.280437C55.7261 0.460976 55.856 0.709668 55.8874 0.979252L57.115 11.5826C59.5049 12.2662 61.8088 13.2188 63.9819 14.4221L72.3888 7.78436C72.602 7.61531 72.8703 7.53044 73.1424 7.54597C73.4145 7.56151 73.6713 7.67637 73.8637 7.86857L83.4547 17.4182C83.6476 17.6098 83.7628 17.8654 83.7784 18.1363C83.794 18.4071 83.7089 18.6742 83.5393 18.8865L76.8741 27.256C78.0813 29.4195 79.0374 31.7127 79.7241 34.0913L90.3758 35.3157C90.6464 35.3468 90.896 35.4759 91.0772 35.6783C91.2584 35.8808 91.3585 36.1425 91.3584 36.4137V49.9181C91.3585 50.1893 91.2584 50.451 91.0772 50.6534C90.896 50.8559 90.6464 50.985 90.3758 51.0161L79.7241 52.2415C78.9666 54.8644 77.8816 57.3824 76.4946 59.7365C76.3968 59.9032 76.2568 60.0415 76.0886 60.1375C75.9204 60.2336 75.7298 60.284 75.5359 60.2839Z" fill="#1F282C"/>
<path d="M90.2479 84.2242H5.75204C5.60618 84.2243 5.46174 84.1958 5.32697 84.1402C5.1922 84.0847 5.06975 84.0033 4.96661 83.9006C4.86348 83.7979 4.78168 83.676 4.7259 83.5418C4.67013 83.4077 4.64146 83.2639 4.64154 83.1187V58.3556C4.64286 58.0633 4.76044 57.7833 4.96856 57.5771C5.17667 57.3708 5.45838 57.255 5.75205 57.255C6.04571 57.255 6.32742 57.3708 6.53554 57.5771C6.74366 57.7833 6.86124 58.0633 6.86256 58.3556V82.0131H89.1374V58.3556C89.1387 58.0633 89.2563 57.7833 89.4644 57.5771C89.6726 57.3708 89.9543 57.255 90.2479 57.255C90.5416 57.255 90.8233 57.3708 91.0314 57.5771C91.2395 57.7833 91.3571 58.0633 91.3584 58.3556V83.1187C91.3585 83.2639 91.3298 83.4077 91.2741 83.5418C91.2183 83.676 91.1365 83.7979 91.0334 83.9006C90.9302 84.0033 90.8078 84.0847 90.673 84.1402C90.5382 84.1958 90.3938 84.2243 90.2479 84.2242Z" fill="#1F282C"/>
<path d="M87.0791 91.9999H8.9209C6.55573 91.9973 4.28819 91.0608 2.61576 89.3958C0.943337 87.7308 0.002618 85.4733 1.88962e-07 83.1187C-8.49199e-05 82.9735 0.0285807 82.8296 0.0843579 82.6955C0.140135 82.5613 0.22193 82.4394 0.325066 82.3367C0.428202 82.234 0.550656 82.1526 0.685426 82.0971C0.820196 82.0415 0.964639 82.013 1.1105 82.0131H69.0443C69.1905 82.0124 69.3354 82.0405 69.4708 82.0958C69.6061 82.1511 69.7291 82.2324 69.8327 82.3351C69.9364 82.4379 70.0186 82.56 70.0747 82.6944C70.1309 82.8289 70.1598 82.973 70.1598 83.1187C70.1598 83.2643 70.1309 83.4084 70.0747 83.5429C70.0186 83.6773 69.9364 83.7994 69.8327 83.9022C69.7291 84.0049 69.6061 84.0862 69.4708 84.1415C69.3354 84.1968 69.1905 84.2249 69.0443 84.2242H2.3121C2.57707 85.779 3.3858 87.1903 4.59524 88.2087C5.80468 89.227 7.33691 89.7867 8.9209 89.7888H87.0791C88.6631 89.7867 90.1953 89.227 91.4048 88.2087C92.6142 87.1903 93.4229 85.779 93.6879 84.2242H75.5359C75.2423 84.2229 74.9611 84.1059 74.7539 83.8987C74.5467 83.6915 74.4304 83.411 74.4304 83.1187C74.4304 82.8263 74.5467 82.5458 74.7539 82.3386C74.9611 82.1314 75.2423 82.0144 75.5359 82.0131H94.8895C95.0354 82.013 95.1798 82.0415 95.3146 82.0971C95.4493 82.1526 95.5718 82.234 95.6749 82.3367C95.7781 82.4394 95.8599 82.5613 95.9156 82.6955C95.9714 82.8296 96.0001 82.9735 96 83.1187C95.9974 85.4733 95.0567 87.7308 93.3842 89.3958C91.7118 91.0608 89.4443 91.9973 87.0791 91.9999Z" fill="#1F282C"/>
<path d="M61.6945 40.5679L52.4338 31.6151L35.0511 48.9206L40.3334 54.1794L51.3644 43.1973L61.6945 40.5679Z" fill="#CEEAF2"/>
<path d="M60.7889 23.2973L56.7707 27.2981L60.8015 31.3111C61.8675 30.2497 62.4664 28.8103 62.4664 27.3093C62.4664 25.8084 61.8675 24.3689 60.8015 23.3076L60.7889 23.2973Z" fill="#CEEAF2"/>
<path d="M29.748 43.6392L28.2511 45.0837C26.8473 46.4813 26.0587 48.3768 26.0587 50.3533C26.0587 52.3297 26.8473 54.2253 28.2511 55.6228C29.6549 57.0204 31.5589 57.8056 33.5442 57.8056C35.5294 57.8056 37.4334 57.0204 38.8372 55.6228L40.3341 54.1783L29.748 43.6392Z" fill="#3DAFCC"/>
<path d="M44.2011 18.9468L44.0463 19.1009C42.8918 20.2503 42.8918 22.1139 44.0463 23.2633L60.8461 39.9885C62.0007 41.1379 63.8726 41.1379 65.0271 39.9885L65.1819 39.8344C66.3364 38.685 66.3364 36.8214 65.1819 35.672L48.3821 18.9468C47.2276 17.7974 45.3557 17.7974 44.2011 18.9468Z" fill="#3DAFCC"/>
<path d="M40.8022 33.7869C40.7279 33.7873 40.6538 33.78 40.581 33.7653C40.2922 33.7072 40.0383 33.5373 39.8752 33.293C39.7121 33.0486 39.6532 32.7498 39.7112 32.4622L42.1145 20.6108C42.1729 20.3233 42.3436 20.0707 42.5891 19.9085C42.8346 19.7463 43.1347 19.6879 43.4235 19.746C43.7123 19.8041 43.966 19.9741 44.1289 20.2185C44.2918 20.4628 44.3505 20.7616 44.2922 21.0491L41.889 32.9006C41.8382 33.1504 41.7023 33.375 41.5043 33.5365C41.3062 33.6981 41.0582 33.7865 40.8022 33.7869Z" fill="#1F282C"/>
<path d="M51.3845 44.3255C51.1092 44.325 50.8438 44.2227 50.64 44.0385C50.4361 43.8543 50.3083 43.6012 50.2812 43.3284C50.2542 43.0556 50.33 42.7825 50.4937 42.5622C50.6575 42.3419 50.8977 42.19 51.1676 42.136L63.0708 39.7445C63.214 39.7154 63.3616 39.7146 63.505 39.7424C63.6485 39.7701 63.7851 39.8258 63.9069 39.9061C64.0287 39.9865 64.1334 40.09 64.215 40.2108C64.2965 40.3315 64.3533 40.4671 64.3821 40.6097C64.411 40.7524 64.4112 40.8993 64.3829 41.042C64.3546 41.1847 64.2983 41.3205 64.2172 41.4415C64.1361 41.5626 64.0317 41.6665 63.9102 41.7473C63.7887 41.8281 63.6523 41.8842 63.509 41.9125L51.6058 44.3039C51.533 44.3186 51.4588 44.3258 51.3845 44.3255Z" fill="#1F282C"/>
<path d="M60.8022 32.4169C60.6564 32.4169 60.512 32.3883 60.3773 32.3327C60.2425 32.2771 60.1201 32.1957 60.0171 32.093L51.9768 24.0894C51.8736 23.9868 51.7918 23.865 51.736 23.7308C51.6802 23.5967 51.6514 23.453 51.6514 23.3078C51.6514 23.1626 51.6802 23.0188 51.736 22.8847C51.7918 22.7506 51.8736 22.6287 51.9768 22.5261C53.2515 21.2596 54.9792 20.5487 56.7802 20.5496C58.5811 20.5504 60.3081 21.263 61.5816 22.5308C62.8552 23.7985 63.5711 25.5177 63.5722 27.3107C63.5733 29.1037 62.8594 30.8237 61.5873 32.093C61.4843 32.1957 61.3619 32.2771 61.2272 32.3327C61.0925 32.3883 60.9481 32.4169 60.8022 32.4169ZM54.4298 23.4039L60.7045 29.6519C61.2293 28.7811 61.4467 27.7607 61.3221 26.7528C61.1975 25.745 60.7381 24.8075 60.0169 24.0894C59.2957 23.3713 58.3541 22.9138 57.3418 22.7896C56.3295 22.6654 55.3045 22.8816 54.4298 23.4039Z" fill="#1F282C"/>
<path d="M62.9365 41.9567C62.4022 41.9579 61.8729 41.8536 61.3792 41.65C60.8856 41.4463 60.4374 41.1473 60.0605 40.7702L43.262 24.0452C42.8838 23.6694 42.5838 23.2231 42.3791 22.7318C42.1744 22.2405 42.069 21.7138 42.069 21.1819C42.069 20.65 42.1744 20.1233 42.3791 19.632C42.5838 19.1407 42.8838 18.6944 43.262 18.3187C43.6323 17.9104 44.082 17.5813 44.584 17.3514C45.0859 17.1215 45.6296 16.9955 46.182 16.9812C46.7343 16.9668 47.2838 17.0644 47.7971 17.268C48.3104 17.4715 48.7768 17.7768 49.168 18.1653C49.3762 18.3726 49.4932 18.6538 49.4932 18.947C49.4932 19.2402 49.3762 19.5213 49.168 19.7287C48.9598 19.936 48.6773 20.0524 48.3828 20.0524C48.0883 20.0524 47.8059 19.936 47.5977 19.7286C47.246 19.3942 46.7783 19.2076 46.292 19.2076C45.8056 19.2076 45.338 19.3942 44.9863 19.7286C44.7753 19.9095 44.6044 20.1321 44.4845 20.3823C44.3647 20.6325 44.2984 20.9048 44.29 21.1819C44.2896 21.4235 44.3374 21.6627 44.4304 21.8859C44.5235 22.109 44.6601 22.3115 44.8323 22.4818L61.6308 39.2068C61.9827 39.5407 62.4503 39.727 62.9365 39.727C63.4227 39.727 63.8903 39.5407 64.2422 39.2068C64.4532 39.0259 64.6241 38.8033 64.744 38.5531C64.8638 38.3029 64.9301 38.0306 64.9385 37.7536C64.9388 37.512 64.8911 37.2727 64.798 37.0496C64.705 36.8264 64.5684 36.6239 64.3962 36.4536L51.9768 24.0894C51.8737 23.9867 51.7919 23.8649 51.7361 23.7308C51.6803 23.5966 51.6516 23.4529 51.6516 23.3077C51.6516 23.1625 51.6803 23.0188 51.7361 22.8847C51.7919 22.7506 51.8737 22.6287 51.9768 22.526C52.0799 22.4234 52.2023 22.342 52.337 22.2864C52.4718 22.2309 52.6162 22.2023 52.762 22.2023C52.9078 22.2023 53.0522 22.2309 53.1869 22.2864C53.3216 22.342 53.444 22.4234 53.5471 22.5261L65.9665 34.8903C66.3447 35.2661 66.6447 35.7124 66.8494 36.2037C67.0541 36.695 67.1595 37.2217 67.1595 37.7536C67.1595 38.2855 67.0541 38.8121 66.8494 39.3035C66.6447 39.7948 66.3447 40.2411 65.9665 40.6168C65.5796 41.0336 65.1113 41.3674 64.5903 41.5978C64.0693 41.8282 63.5066 41.9503 62.9365 41.9567Z" fill="#1F282C"/>
<path d="M50.2177 58.3037C50.0719 58.3039 49.9274 58.2754 49.7927 58.2198C49.6579 58.1642 49.5356 58.0827 49.4326 57.9799L42.9973 51.5732C42.8942 51.4705 42.8124 51.3486 42.7566 51.2145C42.7008 51.0804 42.6721 50.9367 42.6721 50.7915C42.6721 50.6463 42.7008 50.5026 42.7566 50.3684C42.8124 50.2343 42.8942 50.1125 42.9973 50.0098C43.1004 49.9072 43.2228 49.8257 43.3575 49.7702C43.4922 49.7146 43.6366 49.686 43.7825 49.686C43.9283 49.686 44.0727 49.7146 44.2074 49.7702C44.3421 49.8257 44.4645 49.9072 44.5676 50.0098L50.2177 55.6348L53.0612 52.804L47.4111 47.178C47.2039 46.9704 47.0878 46.6896 47.0883 46.397C47.0887 46.1044 47.2057 45.8239 47.4135 45.617C47.6213 45.4101 47.9031 45.2937 48.197 45.2932C48.4909 45.2928 48.773 45.4083 48.9814 45.6146L55.4167 52.0225C55.5199 52.1251 55.6017 52.247 55.6575 52.3811C55.7133 52.5152 55.7421 52.659 55.7421 52.8042C55.7421 52.9493 55.7133 53.0931 55.6575 53.2272C55.6017 53.3613 55.5199 53.4832 55.4167 53.5858L51.0029 57.98C50.8999 58.0828 50.7776 58.1643 50.6428 58.2199C50.508 58.2754 50.3636 58.3039 50.2177 58.3037Z" fill="#1F282C"/>
<path d="M57.6464 77.9384C57.4268 77.9384 57.2121 77.8735 57.0295 77.7521C56.8469 77.6306 56.7046 77.4579 56.6206 77.2559C56.5366 77.0539 56.5146 76.8317 56.5574 76.6172C56.6002 76.4028 56.706 76.2058 56.8613 76.0512L65.4525 67.4981C68.9445 63.9169 65.6152 59.8012 64.021 58.1979L61.8065 55.7644C61.7016 55.6501 61.6222 55.515 61.5736 55.368C61.525 55.221 61.5083 55.0654 61.5245 54.9114C61.5855 54.449 61.5437 53.9788 61.402 53.5343C61.2603 53.0897 61.0223 52.6815 60.7046 52.3386C60.1603 51.824 59.4384 51.5371 58.6877 51.5369C57.9371 51.5366 57.215 51.8232 56.6704 52.3375L51.003 57.9798C50.8999 58.0825 50.7775 58.164 50.6427 58.2196C50.508 58.2751 50.3636 58.3037 50.2178 58.3037C50.072 58.3037 49.9276 58.2751 49.7928 58.2196C49.6581 58.164 49.5357 58.0825 49.4326 57.9798L48.0011 56.5547L46.3072 58.24C45.5482 58.995 44.9617 59.904 44.5878 60.9051C44.2139 61.9063 44.0612 62.9759 44.1404 64.0411L44.4028 67.6245C44.4137 67.7828 44.3905 67.9415 44.3348 68.0901C44.279 68.2387 44.1921 68.3737 44.0797 68.4861L34.9115 77.6146C34.8084 77.7173 34.686 77.7987 34.5512 77.8542C34.4165 77.9098 34.2721 77.9384 34.1263 77.9384C33.8318 77.9384 33.5494 77.8219 33.3412 77.6146C33.1329 77.4073 33.0159 77.1261 33.0159 76.8329C33.0159 76.5397 33.1329 76.2586 33.3412 76.0512L42.1493 67.2801L41.9238 64.202C41.8218 62.8201 42.0204 61.4325 42.5058 60.1339C42.9912 58.8353 43.7522 57.6561 44.7368 56.6768L47.2159 54.2097C47.319 54.1071 47.4414 54.0256 47.5761 53.97C47.7109 53.9144 47.8553 53.8858 48.0011 53.8858C48.1469 53.8858 48.2913 53.9144 48.426 53.97C48.5608 54.0256 48.6832 54.1071 48.7862 54.2097L50.2178 55.6349L55.1001 50.7742C56.0679 49.8582 57.3522 49.3474 58.6875 49.3474C60.0229 49.3474 61.3072 49.8582 62.275 50.7742C62.7713 51.2826 63.159 51.8859 63.4147 52.5476C63.6704 53.2093 63.7889 53.9157 63.7629 54.6242L65.6325 56.6788C69.8142 60.8809 70.363 65.6346 67.0337 69.0496L58.4316 77.6145C58.3286 77.7173 58.2062 77.7989 58.0715 77.8545C57.9367 77.9101 57.7923 77.9386 57.6464 77.9384Z" fill="#1F282C"/>
<path d="M40.3338 55.284C40.188 55.2842 40.0435 55.2556 39.9088 55.2C39.774 55.1445 39.6517 55.0629 39.5487 54.9601L28.962 44.4204C28.8587 44.3176 28.7768 44.1955 28.721 44.0611C28.6651 43.9267 28.6365 43.7827 28.6367 43.6372C28.6369 43.4918 28.666 43.3478 28.7222 43.2136C28.7784 43.0793 28.8606 42.9575 28.9642 42.8549L40.0172 31.8975C40.2256 31.6909 40.5077 31.5751 40.8018 31.5755C41.0958 31.5759 41.3777 31.6925 41.5854 31.8997L52.172 42.4382C52.2754 42.5411 52.3573 42.6632 52.4131 42.7976C52.4689 42.932 52.4976 43.076 52.4974 43.2215C52.4972 43.3669 52.4681 43.5109 52.4119 43.6451C52.3557 43.7794 52.2734 43.9012 52.1698 44.0038L48.9728 47.1736C48.764 47.3804 48.4812 47.4961 48.1867 47.4953C47.8922 47.4945 47.6101 47.3772 47.4025 47.1693C47.1948 46.9614 47.0786 46.6799 47.0794 46.3868C47.0802 46.0936 47.198 45.8127 47.4068 45.606L49.8143 43.2189L40.798 34.2436L31.3197 43.6409L40.336 52.6161L42.9821 49.9925C43.0854 49.8902 43.2079 49.8091 43.3426 49.7538C43.4773 49.6986 43.6217 49.6703 43.7674 49.6706C43.9131 49.6709 44.0574 49.6998 44.1919 49.7556C44.3264 49.8114 44.4485 49.893 44.5514 49.9958C44.6542 50.0986 44.7357 50.2205 44.7912 50.3547C44.8466 50.4888 44.875 50.6325 44.8747 50.7776C44.8744 50.9227 44.8454 51.0663 44.7894 51.2002C44.7333 51.3341 44.6514 51.4557 44.5481 51.5581L41.1168 54.9611C41.0141 55.0636 40.892 55.1448 40.7576 55.2002C40.6233 55.2556 40.4793 55.2841 40.3338 55.284Z" fill="#1F282C"/>
<path d="M33.5494 58.9085C31.8487 58.9104 30.1857 58.4098 28.771 57.4702C27.3562 56.5306 26.2533 55.1943 25.6019 53.6303C24.9505 52.0663 24.7798 50.345 25.1116 48.6845C25.4433 47.0239 26.2625 45.4986 27.4655 44.3018L28.975 42.8453C29.1839 42.6428 29.4646 42.5304 29.7561 42.5326C30.0477 42.5349 30.3266 42.6515 30.5323 42.8572L41.119 53.3968C41.2232 53.5005 41.3057 53.6237 41.3615 53.7594C41.4174 53.8951 41.4456 54.0405 41.4443 54.1872C41.4431 54.3338 41.4126 54.4787 41.3545 54.6135C41.2964 54.7483 41.2119 54.8702 41.106 54.9721L39.6094 56.4166C38.8139 57.2088 37.869 57.8368 36.8291 58.2644C35.7891 58.692 34.6745 58.9109 33.5494 58.9085ZM29.7342 45.1904L29.0227 45.877C27.8319 47.0697 27.1652 48.6842 27.1689 50.3659C27.1726 52.0476 27.8465 53.6591 29.0426 54.8465C30.2386 56.034 31.8592 56.7005 33.5484 56.6995C35.2376 56.6986 36.8574 56.0303 38.0521 54.8415L38.7505 54.1667L29.7342 45.1904Z" fill="#1F282C"/>
</svg>
