<svg width="96" height="96" viewBox="0 0 96 96" fill="none" xmlns="http://www.w3.org/2000/svg">
<path d="M38.0768 68.612C32.7189 68.6252 27.452 67.2248 22.8064 64.5519C18.1607 61.879 14.3003 58.0278 11.6137 53.386C8.92709 48.7442 7.50911 43.4757 7.5025 38.1108C7.49588 32.7458 8.90087 27.4738 11.576 22.8254C14.2512 18.177 18.1021 14.3163 22.7411 11.6319C27.3801 8.94747 32.6436 7.53411 38.0015 7.53408C43.3595 7.53405 48.6229 8.94734 53.262 11.6317C57.901 14.316 61.752 18.1767 64.4272 22.8251L64.4459 22.8013L69.9998 19.6504C66.7608 14.0425 62.1049 9.38686 56.5 6.15121C50.8951 2.91556 44.5384 1.21383 38.0687 1.21698C31.599 1.22014 25.244 2.92806 19.6422 6.16917C14.0404 9.41029 9.38908 14.0704 6.15553 19.6815C2.92199 25.2925 1.22008 31.6568 1.22079 38.1349C1.22151 44.6131 2.92482 50.977 6.1596 56.5873C9.39439 62.1976 14.0467 66.8568 19.6492 70.0966C25.2517 73.3365 31.6071 75.043 38.0768 75.0448V68.612Z" fill="#CEEAF2"/>
<path d="M45.8951 55.638V75.086C45.892 78.4706 47.2319 81.7178 49.6199 84.1133C52.0079 86.5088 55.2485 87.8563 58.6287 87.8595H68.5631C71.9434 87.8563 75.1839 86.5088 77.5719 84.1133C79.96 81.7179 81.2998 78.4706 81.2968 75.086V55.638H45.8951Z" fill="#3DAFCC"/>
<path d="M82.7712 55.638H81.2967V62.2411C81.7734 62.0869 82.2704 62.0049 82.7712 61.9979C84.1213 62.0046 85.4137 62.5464 86.3659 63.5046C87.3181 64.4628 87.8526 65.7596 87.8526 67.1114C87.8526 68.4632 87.3181 69.76 86.3659 70.7182C85.4137 71.6764 84.1213 72.2182 82.7712 72.2249C82.2704 72.2179 81.7734 72.1359 81.2967 71.9817V78.4787C82.8488 78.6785 84.4254 78.5576 85.9291 78.1235C87.4328 77.6894 88.8316 76.9514 90.0394 75.9549C91.2471 74.9584 92.238 73.7247 92.951 72.3298C93.6641 70.935 94.084 69.4086 94.1849 67.8449C94.2859 66.2812 94.0657 64.7134 93.538 63.2382C93.0103 61.763 92.1862 60.4118 91.1166 59.2679C90.0471 58.1241 88.7548 57.2118 87.3194 56.5875C85.8841 55.9632 84.3362 55.6401 82.7712 55.6381V55.638Z" fill="#3DAFCC"/>
<path d="M38.2086 87.8595H88.9832V87.8659C88.9832 88.7949 88.8005 89.7147 88.4454 90.573C88.0904 91.4312 87.57 92.2111 86.914 92.8679C86.2579 93.5248 85.4791 94.0459 84.622 94.4014C83.7649 94.7569 82.8462 94.9399 81.9184 94.9399H45.2734C43.3997 94.9399 41.6027 94.1946 40.2778 92.8679C38.9529 91.5413 38.2086 89.742 38.2086 87.8659V87.8595Z" fill="#3DAFCC"/>
<path d="M38.076 76.1462C31.3223 76.1556 24.6879 74.3635 18.8552 70.9544C13.0224 67.5453 8.20175 62.6421 4.88885 56.7491C1.57596 50.856 -0.109591 44.1857 0.00552518 37.4242C0.120641 30.6626 2.03227 24.0538 5.54384 18.2772C9.05541 12.5006 14.0402 7.76484 19.9856 4.55677C25.931 1.3487 32.6225 -0.21587 39.372 0.023954C46.1215 0.263778 52.6854 2.29934 58.3888 5.92132C64.0921 9.5433 68.7291 14.621 71.8229 20.6323C71.8867 20.7557 71.9256 20.8906 71.9374 21.0291C71.9492 21.1676 71.9335 21.3071 71.8915 21.4396C71.8494 21.5721 71.7817 21.695 71.6922 21.8013C71.6026 21.9075 71.4931 21.9951 71.3698 22.059C71.2465 22.1229 71.1118 22.1618 70.9735 22.1736C70.8351 22.1854 70.6958 22.1698 70.5635 22.1276C70.4312 22.0855 70.3085 22.0177 70.2023 21.9281C70.0962 21.8384 70.0087 21.7287 69.9449 21.6053C67.0186 15.9468 62.6414 11.1698 57.2623 7.76479C51.8832 4.35976 45.6961 2.44927 39.3361 2.22942C32.9761 2.00956 26.6721 3.48827 21.0714 6.51375C15.4706 9.53923 10.7747 14.0025 7.46569 19.4455C4.15669 24.8885 2.35375 31.1151 2.24194 37.4862C2.13012 43.8574 3.71346 50.1436 6.82943 55.6996C9.9454 61.2556 14.4818 65.8814 19.9729 69.102C25.4641 72.3227 31.7122 74.0222 38.0761 74.0263C38.8809 74.0263 39.6783 74.0001 40.468 73.9476C40.7458 73.9382 41.0168 74.0354 41.2255 74.2193C41.4342 74.4032 41.5648 74.66 41.5907 74.9372C41.6087 75.2174 41.5149 75.4934 41.33 75.7045C41.1451 75.9156 40.8841 76.0447 40.6042 76.0634C39.7683 76.1173 38.9256 76.1449 38.076 76.1462Z" fill="#1F282C"/>
<path d="M38.0761 69.6725C32.5349 69.6803 27.0893 68.227 22.287 65.4587C17.4847 62.6905 13.4951 58.7049 10.7192 53.9029C7.94342 49.1008 6.47929 43.6516 6.47412 38.1031C6.46895 32.5547 7.9229 27.1027 10.6898 22.2955C13.4566 17.4883 17.4389 13.4952 22.236 10.718C27.0331 7.94082 32.4759 6.47733 38.0171 6.47473C43.5583 6.47214 49.0025 7.93053 53.8022 10.7032C58.6019 13.476 62.5879 17.4652 65.3592 22.2699C65.4294 22.3901 65.4752 22.5231 65.494 22.6611C65.5128 22.7991 65.5041 22.9394 65.4686 23.0741C65.4331 23.2087 65.3714 23.335 65.2871 23.4458C65.2027 23.5565 65.0974 23.6495 64.977 23.7194C64.8567 23.7892 64.7238 23.8347 64.5859 23.853C64.4481 23.8714 64.3079 23.8623 64.1735 23.8263C64.0392 23.7903 63.9132 23.7281 63.8029 23.6433C63.6926 23.5584 63.6001 23.4526 63.5307 23.3319C60.942 18.8644 57.2253 15.1573 52.7534 12.5827C48.2816 10.0081 43.2121 8.65671 38.0538 8.66409C32.8955 8.67147 27.8298 10.0374 23.3654 12.6247C18.9009 15.2121 15.1947 18.9298 12.6188 23.4048C10.0429 27.8797 8.68794 32.9544 8.68989 38.1195C8.69184 43.2845 10.0507 48.3582 12.63 52.8312C15.2092 57.3041 18.9182 61.0191 23.3847 63.603C27.8511 66.187 32.9177 67.5491 38.0761 67.5525C38.356 67.5538 38.624 67.666 38.8215 67.8647C39.019 68.0633 39.1299 68.3322 39.1299 68.6125C39.1299 68.8928 39.019 69.1617 38.8215 69.3604C38.624 69.559 38.356 69.6712 38.0761 69.6725V69.6725Z" fill="#1F282C"/>
<path d="M38.076 13.8708C37.9371 13.8707 37.7996 13.8433 37.6712 13.79C37.5429 13.7367 37.4264 13.6586 37.3282 13.5601C37.2301 13.4617 37.1523 13.3448 37.0993 13.2163C37.0462 13.0877 37.0191 12.9499 37.0193 12.8108V7.53473C37.0173 7.39453 37.0431 7.25533 37.0954 7.12521C37.1476 6.9951 37.2251 6.87668 37.3234 6.77683C37.4217 6.67698 37.5389 6.59769 37.6681 6.54357C37.7972 6.48945 37.9359 6.46158 38.0759 6.46158C38.216 6.46158 38.3546 6.48945 38.4838 6.54357C38.613 6.59769 38.7301 6.67698 38.8284 6.77683C38.9268 6.87668 39.0043 6.9951 39.0565 7.12521C39.1087 7.25533 39.1346 7.39453 39.1326 7.53473V12.8108C39.1328 12.9499 39.1056 13.0876 39.0526 13.2162C38.9996 13.3448 38.9218 13.4616 38.8237 13.5601C38.7256 13.6585 38.609 13.7366 38.4807 13.7899C38.3525 13.8432 38.2149 13.8707 38.076 13.8708Z" fill="#1F282C"/>
<path d="M25.4849 17.2556C25.2993 17.2559 25.117 17.207 24.9565 17.1139C24.7959 17.0209 24.6628 16.8869 24.5706 16.7257L21.9414 12.1556C21.8717 12.0353 21.8264 11.9025 21.8081 11.7648C21.7897 11.627 21.7987 11.487 21.8344 11.3527C21.8701 11.2184 21.9319 11.0924 22.0162 10.9821C22.1006 10.8717 22.2058 10.779 22.3259 10.7094C22.446 10.6398 22.5787 10.5945 22.7163 10.5762C22.8539 10.558 22.9937 10.567 23.1278 10.6029C23.2619 10.6387 23.3877 10.7007 23.4978 10.7853C23.608 10.8698 23.7004 10.9753 23.7699 11.0956L26.3992 15.6657C26.4924 15.8266 26.5417 16.0092 26.542 16.1952C26.5423 16.3812 26.4936 16.564 26.401 16.7252C26.3083 16.8864 26.1748 17.0203 26.014 17.1134C25.8532 17.2065 25.6707 17.2556 25.485 17.2556H25.4849Z" fill="#1F282C"/>
<path d="M16.2681 26.5025C16.0826 26.5025 15.9003 26.4536 15.7397 26.3607L11.1828 23.7221C10.9408 23.5812 10.7644 23.3501 10.6922 23.0792C10.62 22.8083 10.6579 22.5199 10.7977 22.277C10.9375 22.0341 11.1677 21.8565 11.4379 21.7832C11.7081 21.7099 11.9964 21.7468 12.2395 21.8858L16.7963 24.5243C16.9977 24.6412 17.155 24.8213 17.244 25.0367C17.3329 25.2521 17.3485 25.4908 17.2884 25.7159C17.2283 25.9411 17.0957 26.1401 16.9113 26.2823C16.7268 26.4245 16.5007 26.5019 16.268 26.5025L16.2681 26.5025Z" fill="#1F282C"/>
<path d="M50.6692 17.2557C50.4835 17.2556 50.301 17.2066 50.1402 17.1134C49.9794 17.0203 49.846 16.8864 49.7533 16.7252C49.6606 16.564 49.6119 16.3812 49.6122 16.1952C49.6125 16.0092 49.6618 15.8266 49.755 15.6657L52.3843 11.0955C52.4537 10.9752 52.5462 10.8697 52.6563 10.7852C52.7665 10.7007 52.8922 10.6387 53.0263 10.6028C53.1604 10.5669 53.3003 10.5579 53.4379 10.5762C53.5755 10.5944 53.7081 10.6397 53.8282 10.7093C53.9484 10.779 54.0536 10.8716 54.1379 10.982C54.2223 11.0924 54.2841 11.2183 54.3198 11.3526C54.3555 11.4869 54.3644 11.627 54.3461 11.7647C54.3277 11.9025 54.2824 12.0353 54.2128 12.1555L51.5835 16.7257C51.4912 16.8868 51.358 17.0206 51.1975 17.1136C51.0369 17.2067 50.8547 17.2557 50.6692 17.2557Z" fill="#1F282C"/>
<path d="M59.8861 26.5024C59.6533 26.5018 59.4272 26.4245 59.2428 26.2823C59.0583 26.1401 58.9258 25.9411 58.8656 25.7159C58.8055 25.4907 58.8211 25.252 58.91 25.0366C58.999 24.8212 59.1563 24.6412 59.3577 24.5243L63.9124 21.8858C64.1556 21.7467 64.4438 21.7098 64.714 21.7832C64.9843 21.8565 65.2145 22.034 65.3542 22.2769C65.494 22.5198 65.532 22.8083 65.4598 23.0792C65.3876 23.35 65.2111 23.5812 64.9691 23.7221L60.4143 26.3606C60.2537 26.4535 60.0715 26.5025 59.8861 26.5024Z" fill="#1F282C"/>
<path d="M12.8938 39.1331H7.63334C7.35259 39.1331 7.08333 39.0214 6.88481 38.8227C6.68628 38.6239 6.57475 38.3543 6.57475 38.0731C6.57475 37.792 6.68628 37.5224 6.88481 37.3236C7.08333 37.1249 7.35259 37.0132 7.63334 37.0132H12.8938C13.1746 37.0132 13.4438 37.1249 13.6423 37.3236C13.8409 37.5224 13.9524 37.792 13.9524 38.0731C13.9524 38.3543 13.8409 38.6239 13.6423 38.8227C13.4438 39.0214 13.1746 39.1331 12.8938 39.1331Z" fill="#1F282C"/>
<path d="M31.6928 39.1331H18.4578C18.177 39.1331 17.9077 39.0214 17.7092 38.8227C17.5107 38.6239 17.3992 38.3543 17.3992 38.0731C17.3992 37.792 17.5107 37.5224 17.7092 37.3236C17.9077 37.1249 18.177 37.0132 18.4578 37.0132H31.6928C31.9735 37.0132 32.2428 37.1249 32.4413 37.3236C32.6398 37.5224 32.7513 37.792 32.7513 38.0731C32.7513 38.3543 32.6398 38.6239 32.4413 38.8227C32.2428 39.0214 31.9735 39.1331 31.6928 39.1331Z" fill="#1F282C"/>
<path d="M38.076 59.4589C37.9371 59.4589 37.7996 59.4314 37.6713 59.3781C37.5429 59.3248 37.4264 59.2467 37.3282 59.1483C37.2301 59.0498 37.1523 58.933 37.0993 58.8044C37.0463 58.6758 37.0191 58.538 37.0193 58.3989V38.0732C37.0192 37.7921 37.1305 37.5226 37.3289 37.3237L46.5209 28.1028C46.6192 28.0046 46.7359 27.9267 46.8642 27.8736C46.9926 27.8205 47.1301 27.7932 47.269 27.7933C47.4078 27.7935 47.5453 27.821 47.6736 27.8743C47.8018 27.9276 47.9184 28.0057 48.0165 28.1042C48.1146 28.2026 48.1924 28.3194 48.2454 28.4479C48.2984 28.5764 48.3256 28.7141 48.3255 28.8532C48.3254 28.9922 48.2979 29.1299 48.2447 29.2583C48.1914 29.3868 48.1134 29.5034 48.0151 29.6017L39.1327 38.512V58.399C39.1329 58.5381 39.1057 58.6758 39.0527 58.8044C38.9997 58.9329 38.9219 59.0498 38.8238 59.1482C38.7256 59.2467 38.6091 59.3248 38.4808 59.3781C38.3525 59.4314 38.2149 59.4589 38.076 59.4589Z" fill="#1F282C"/>
<path d="M38.076 69.6726C37.9371 69.6725 37.7996 69.6451 37.6712 69.5918C37.5429 69.5385 37.4264 69.4604 37.3282 69.3619C37.2301 69.2635 37.1523 69.1466 37.0993 69.018C37.0462 68.8895 37.0191 68.7517 37.0193 68.6126V63.3075C37.0173 63.1673 37.0431 63.0281 37.0954 62.898C37.1476 62.7679 37.2251 62.6495 37.3234 62.5496C37.4217 62.4498 37.5389 62.3705 37.6681 62.3164C37.7972 62.2622 37.9359 62.2344 38.0759 62.2344C38.216 62.2344 38.3546 62.2622 38.4838 62.3164C38.613 62.3705 38.7301 62.4498 38.8284 62.5496C38.9268 62.6495 39.0043 62.7679 39.0565 62.898C39.1087 63.0281 39.1346 63.1673 39.1326 63.3075V68.6126C39.1328 68.7517 39.1056 68.8894 39.0526 69.018C38.9996 69.1465 38.9218 69.2634 38.8237 69.3618C38.7256 69.4603 38.609 69.5384 38.4808 69.5917C38.3525 69.645 38.2149 69.6725 38.076 69.6726Z" fill="#1F282C"/>
<path d="M68.5622 88.9197H58.6292C54.9698 88.9121 51.4628 87.4513 48.8776 84.858C46.2924 82.2646 44.84 78.7504 44.8391 75.0862V55.6382C44.8388 55.4991 44.866 55.3614 44.919 55.2328C44.972 55.1042 45.0498 54.9873 45.148 54.8889C45.2461 54.7905 45.3627 54.7124 45.491 54.659C45.6193 54.6057 45.7569 54.5783 45.8958 54.5782H81.2958C81.4347 54.5783 81.5723 54.6057 81.7006 54.659C81.8289 54.7123 81.9455 54.7905 82.0436 54.8889C82.1418 54.9873 82.2196 55.1042 82.2726 55.2328C82.3256 55.3614 82.3528 55.4991 82.3526 55.6382V75.0862C82.3516 78.7505 80.8992 82.2647 78.3139 84.8581C75.7287 87.4514 72.2216 88.9121 68.5622 88.9197ZM46.9524 56.6982V75.0862C46.9529 78.189 48.1827 81.1648 50.3718 83.3608C52.5609 85.5567 55.5305 86.7935 58.6292 86.7997H68.5622C71.6609 86.7935 74.6306 85.5567 76.8197 83.3608C79.0088 81.1648 80.2385 78.189 80.2391 75.0862V56.6982H46.9524Z" fill="#1F282C"/>
<path d="M82.7713 79.6449C82.2321 79.6414 81.6937 79.6027 81.1595 79.529C80.9048 79.4958 80.6708 79.3708 80.5015 79.1774C80.3321 78.9841 80.2388 78.7356 80.2391 78.4784V71.9819C80.239 71.8167 80.2774 71.6538 80.3515 71.5061C80.4255 71.3585 80.533 71.2303 80.6654 71.1317C80.7977 71.0331 80.9513 70.9669 81.1138 70.9384C81.2763 70.9099 81.4432 70.9198 81.6012 70.9675C82.1565 71.1365 82.7418 71.1837 83.317 71.1057C83.8923 71.0277 84.4439 70.8264 84.9344 70.5156C85.4249 70.2047 85.8426 69.7916 86.1592 69.3044C86.4757 68.8172 86.6836 68.2674 86.7687 67.6925C86.8537 67.1175 86.814 66.531 86.6521 65.9728C86.4902 65.4146 86.21 64.898 85.8306 64.4581C85.4512 64.0182 84.9815 63.6654 84.4535 63.4238C83.9256 63.1822 83.3518 63.0574 82.7713 63.058C82.3743 63.0647 81.9805 63.1313 81.6032 63.2557C81.4451 63.3039 81.278 63.3142 81.1152 63.2859C80.9524 63.2576 80.7984 63.1915 80.6658 63.0929C80.5331 62.9942 80.4254 62.8658 80.3513 62.7179C80.2772 62.57 80.2388 62.4068 80.2391 62.2413V55.6382C80.2389 55.4991 80.266 55.3614 80.3191 55.2328C80.3721 55.1042 80.4499 54.9873 80.548 54.8889C80.6462 54.7905 80.7627 54.7124 80.891 54.659C81.0194 54.6057 81.1569 54.5783 81.2958 54.5782H82.7714C86.0911 54.5782 89.2749 55.8987 91.6223 58.2492C93.9697 60.5996 95.2884 63.7875 95.2884 67.1116C95.2884 70.4356 93.9697 73.6235 91.6223 75.974C89.2749 78.3244 86.0911 79.6449 82.7714 79.6449L82.7713 79.6449ZM82.3523 77.5136C82.4906 77.5209 82.6309 77.525 82.7713 77.525C85.5269 77.5211 88.1683 76.4222 90.1155 74.4697C92.0626 72.5173 93.1562 69.8708 93.1562 67.1116C93.1562 64.3524 92.0626 61.7059 90.1155 59.7535C88.1683 57.801 85.5269 56.7022 82.7713 56.6982H82.3523V60.9557C83.1942 60.8995 84.0386 61.017 84.8332 61.3009C85.6278 61.5848 86.3557 62.0291 86.9719 62.6062C87.588 63.1834 88.0792 63.881 88.415 64.656C88.7508 65.431 88.9241 66.2668 88.9241 67.1116C88.9241 67.9564 88.7508 68.7922 88.415 69.5673C88.0792 70.3423 87.588 71.0399 86.9719 71.6171C86.3557 72.1942 85.6278 72.6385 84.8332 72.9224C84.0386 73.2063 83.1942 73.3238 82.3523 73.2676V77.5136Z" fill="#1F282C"/>
<path d="M81.9251 96H45.2662C43.1128 95.9955 41.0492 95.136 39.5279 93.6099C38.0066 92.0839 37.152 90.016 37.1514 87.8598C37.1512 87.7207 37.1784 87.5829 37.2314 87.4543C37.2844 87.3257 37.3622 87.2089 37.4604 87.1104C37.5585 87.012 37.6751 86.9339 37.8034 86.8806C37.9317 86.8273 38.0693 86.7998 38.2082 86.7998H88.9833C89.1222 86.7998 89.2597 86.8273 89.3881 86.8806C89.5164 86.9339 89.6329 87.012 89.7311 87.1104C89.8292 87.2089 89.907 87.3257 89.96 87.4543C90.013 87.5829 90.0402 87.7207 90.04 87.8598C90.0395 90.016 89.1848 92.0839 87.6635 93.61C86.1422 95.136 84.0785 95.9956 81.9251 96ZM39.3576 88.9198C39.6063 90.3086 40.334 91.5659 41.4139 92.4725C42.4937 93.379 43.8571 93.8772 45.2662 93.8801H81.9251C83.3343 93.8772 84.6977 93.379 85.7775 92.4725C86.8573 91.5659 87.5851 90.3086 87.8338 88.9198H39.3576Z" fill="#1F282C"/>
<path d="M77.9586 56.6982C77.8197 56.6982 77.6822 56.6707 77.5539 56.6174C77.4255 56.5641 77.309 56.486 77.2108 56.3876C77.1127 56.2891 77.0349 56.1723 76.9819 56.0437C76.9289 55.9152 76.9017 55.7774 76.9019 55.6383V52.0422C76.9026 49.057 78.086 46.194 80.1923 44.0813C82.2985 41.9685 85.1558 40.7787 88.1371 40.7728H94.9414C95.2213 40.774 95.4894 40.8863 95.6869 41.0849C95.8844 41.2836 95.9953 41.5524 95.9953 41.8327C95.9953 42.113 95.8844 42.3819 95.6869 42.5806C95.4894 42.7792 95.2213 42.8915 94.9414 42.8927H88.1371C85.7166 42.8976 83.3969 43.8636 81.6868 45.5789C79.9767 47.2941 79.0159 49.6186 79.0152 52.0422V55.6383C79.0154 55.7774 78.9882 55.9151 78.9352 56.0437C78.8822 56.1722 78.8045 56.2891 78.7063 56.3875C78.6082 56.486 78.4917 56.5641 78.3634 56.6174C78.2351 56.6707 78.0976 56.6982 77.9586 56.6982Z" fill="#1F282C"/>
<path d="M48.6901 56.6982C48.5511 56.6982 48.4136 56.6707 48.2853 56.6174C48.157 56.5641 48.0404 56.486 47.9422 56.3876C47.8441 56.2891 47.7663 56.1723 47.7133 56.0437C47.6603 55.9151 47.6331 55.7773 47.6333 55.6382V53.1726C47.6336 51.1017 48.4542 49.1156 49.9152 47.6499C51.3761 46.1842 53.358 45.3586 55.4261 45.3542C56.9336 45.3514 58.3783 44.75 59.4435 43.6819C60.5086 42.6138 61.1071 41.1663 61.1077 39.6569V36.9582C61.108 34.8874 61.9286 32.9013 63.3896 31.4356C64.8505 29.9698 66.8324 29.1442 68.9005 29.1399H70.0501C71.5572 29.1366 73.0015 28.535 74.0662 27.4669C75.1309 26.3989 75.7291 24.9516 75.7296 23.4425C75.7302 20.637 76.8422 17.9464 78.8216 15.9608C80.801 13.9752 83.4862 12.8569 86.288 12.8512H94.9414C95.2222 12.8512 95.4915 12.9629 95.69 13.1617C95.8885 13.3605 96 13.6301 96 13.9112C96 14.1923 95.8885 14.4619 95.69 14.6607C95.4915 14.8595 95.2222 14.9712 94.9414 14.9712H86.288C84.047 14.9758 81.8993 15.8703 80.3162 17.4585C78.733 19.0466 77.8436 21.1987 77.843 23.4426C77.8425 25.5133 77.0218 27.4992 75.5608 28.9647C74.0999 30.4302 72.1181 31.2556 70.0502 31.2599H68.9006C67.3934 31.2634 65.9491 31.8652 64.8844 32.9335C63.8197 34.0017 63.2216 35.4491 63.2211 36.9583V39.657C63.2205 41.7279 62.3995 43.7141 60.9381 45.1796C59.4768 46.6452 57.4945 47.4704 55.4262 47.4743C53.919 47.4777 52.4747 48.0796 51.41 49.1478C50.3453 50.216 49.7471 51.6635 49.7467 53.1727V55.6383C49.7469 55.7774 49.7197 55.9152 49.6667 56.0437C49.6137 56.1723 49.5359 56.2891 49.4378 56.3876C49.3396 56.486 49.2231 56.5641 49.0948 56.6174C48.9665 56.6707 48.829 56.6982 48.6901 56.6982Z" fill="#1F282C"/>
<path d="M68.589 51.3466C68.4501 51.3465 68.3125 51.3191 68.1842 51.2658C68.0559 51.2125 67.9393 51.1344 67.8412 51.0359C67.7431 50.9375 67.6653 50.8206 67.6122 50.692C67.5592 50.5635 67.5321 50.4257 67.5323 50.2866V46.4773C67.5323 44.3959 68.357 42.3996 69.8253 40.9263C71.2936 39.453 73.2856 38.623 75.3643 38.6186H75.9938C77.5117 38.6154 78.9663 38.0095 80.0388 36.9339C81.1112 35.8583 81.7138 34.4008 81.7146 32.8809V27.168C81.7127 27.0279 81.7386 26.8887 81.7909 26.7587C81.8431 26.6287 81.9206 26.5104 82.019 26.4106C82.1173 26.3108 82.2344 26.2316 82.3635 26.1775C82.4927 26.1235 82.6312 26.0956 82.7712 26.0956C82.9112 26.0956 83.0498 26.1235 83.1789 26.1775C83.308 26.2316 83.4252 26.3108 83.5235 26.4106C83.6218 26.5104 83.6993 26.6287 83.7516 26.7587C83.8038 26.8887 83.8298 27.0279 83.8279 27.168V32.8809C83.8273 34.9624 83.0022 36.9586 81.5335 38.4317C80.0648 39.9048 78.0726 40.7344 75.9938 40.7385H75.3644C73.8465 40.7419 72.392 41.348 71.3199 42.4238C70.2478 43.4996 69.6457 44.9574 69.6456 46.4772V50.2864C69.6459 50.4255 69.6187 50.5633 69.5657 50.6919C69.5127 50.8205 69.4349 50.9374 69.3368 51.0358C69.2387 51.1343 69.1221 51.2124 68.9938 51.2657C68.8655 51.319 68.7279 51.3465 68.589 51.3466Z" fill="#1F282C"/>
</svg>
