<svg width="124" height="128" viewBox="0 0 124 128" fill="none" xmlns="http://www.w3.org/2000/svg">
<path d="M28.6193 101.941C33.7995 111.118 33.3628 119.921 27.51 126.524L49.1776 126.52L40.416 114.229L28.6193 101.941Z" fill="#CEEAF2"/>
<path d="M100.643 39.9068C104.066 40.0926 107.741 45.8577 107.279 49.5988C107.141 50.9989 106.786 52.3687 106.226 53.6585L101.111 61.0649C102.296 59.4207 102.834 57.3956 102.623 55.3776C102.412 53.3595 101.467 51.4906 99.969 50.1289L97.1982 46.8007L98.0198 43.5374C98.0198 43.5374 98.3559 39.7827 100.643 39.9068Z" fill="#CEEAF2"/>
<path d="M11.5497 32.0869C8.95224 37.1085 7.83236 42.7689 8.32109 48.4061C8.63106 53.7921 10.7224 58.9201 14.2636 62.9772L40.0468 89.0168L34.1923 89.0776L29.2972 86.76L22.9479 80.6376L6.76802 63.6371L2.3035 56.5722L1.48688 46.4845L11.5497 32.0869Z" fill="#CEEAF2"/>
<path d="M85.3638 82.5913C72.8092 101.062 81.9641 119.566 86.6951 126.524H74.5331L70.4651 120.111L69.1353 103.683L73.8634 94.3306L85.3638 82.5913Z" fill="#CEEAF2"/>
<path d="M72.6651 34.6021H47.7044V41.7791H72.6651V34.6021Z" fill="#3DAFCC"/>
<path d="M72.6651 49.937H47.7044V57.114H72.6651V49.937Z" fill="#3DAFCC"/>
<path d="M81.1293 13.6296C81.1221 13.0959 81.2279 12.5668 81.4397 12.0772C81.6514 11.5877 81.9643 11.1489 82.3577 10.7899C82.751 10.4309 83.2157 10.1599 83.7212 9.99487C84.2267 9.8298 84.7613 9.77443 85.2896 9.83243C88.4866 9.83243 89.399 13.629 89.399 13.629L89.4496 26.2589H97.77C97.77 26.2589 97.6383 12.9336 97.3552 11.913C96.754 9.34855 95.5638 6.96085 93.8797 4.94068C92.6747 3.46958 90.9749 2.4926 89.1014 2.19434H81.1294L76.0872 5.57822L72.8094 13.6296V66.0915L75.2034 62.9794L81.1293 68.0475L81.1293 13.6296Z" fill="#3DAFCC"/>
<path d="M47.7044 13.6297C47.6972 13.096 47.803 12.5669 48.0148 12.0773C48.2266 11.5878 48.5395 11.149 48.9328 10.79C49.3261 10.431 49.7909 10.16 50.2963 9.99494C50.8018 9.82988 51.3364 9.77451 51.8648 9.83251C55.0617 9.83251 55.9742 13.6291 55.9742 13.6291L56.0248 26.259H64.3451C64.3451 26.259 64.2135 12.9337 63.9304 11.9131C63.3292 9.3486 62.1389 6.96086 60.4548 4.94068C59.2498 3.46958 57.5499 2.4926 55.6764 2.19434H47.7044L42.6623 5.57822L39.3845 13.6297V70.2389L47.7044 68.0476V13.6297Z" fill="#3DAFCC"/>
<path d="M23.6991 82.89C23.5025 82.8904 23.3078 82.851 23.1267 82.7739C22.9456 82.6969 22.7819 82.5839 22.6455 82.4417C12.4964 71.9491 6.77721 65.941 5.64328 64.5846C2.73028 60.9 0.876601 56.4854 0.282967 51.8188C-0.150747 49.4581 -0.0852674 47.0323 0.475156 44.6987C1.03558 42.3651 2.07842 40.1759 3.53599 38.2732C5.61244 35.1265 8.32498 32.4538 11.4973 30.4286C16.7513 27.808 20.6215 30.9317 24.8074 36.4295L25.9817 37.9647C29.2288 42.194 30.7102 44.1242 30.4174 47.4367C30.2307 49.5413 28.5656 50.8905 26.8028 52.319C26.1137 52.8769 25.3701 53.475 24.6667 54.167C24.5289 54.3025 24.3659 54.4095 24.1869 54.4817C24.0079 54.554 23.8165 54.5901 23.6236 54.5881C23.4307 54.5861 23.2401 54.546 23.0627 54.47C22.8853 54.394 22.7245 54.2837 22.5895 54.1453C22.4545 54.0069 22.348 53.8432 22.276 53.6635C22.2041 53.4837 22.1681 53.2915 22.1701 53.0979C22.1721 52.9042 22.2121 52.7128 22.2877 52.5346C22.3634 52.3564 22.4733 52.1949 22.6111 52.0594C23.3834 51.2969 24.1987 50.6352 24.9567 50.0197C26.2745 48.953 27.4143 48.0319 27.4889 47.177C27.6727 45.0984 26.8458 43.925 23.6533 39.7665L22.4704 38.2227C17.8422 32.144 15.5081 31.7346 12.8007 33.0723C10.0243 34.8699 7.66713 37.2482 5.89027 40.0448C4.67484 41.6307 3.8056 43.4559 3.33914 45.4016C2.87268 47.3472 2.81945 49.3697 3.18291 51.3373C3.6984 55.48 5.32704 59.4036 7.89419 62.6876C8.64353 63.5828 12.1749 67.3796 24.7528 80.3861C24.9545 80.5939 25.0907 80.8569 25.1443 81.1421C25.1978 81.4273 25.1664 81.722 25.0539 81.9893C24.9414 82.2567 24.7528 82.4847 24.5119 82.6449C24.2709 82.8051 23.9882 82.8904 23.6992 82.89H23.6991Z" fill="#1F282C"/>
<path d="M46.7879 86.8044C46.5768 86.8044 46.3682 86.7587 46.1764 86.6703C43.9483 85.6649 41.8715 84.3509 40.0065 82.7667L21.5344 64.222C18.0918 60.3295 15.8854 55.4932 15.1981 50.3333C15.1536 49.9457 15.2638 49.5563 15.5046 49.2502C15.7454 48.9441 16.0972 48.7462 16.4829 48.6999C16.8686 48.6536 17.2569 48.7626 17.5628 49.003C17.8687 49.2435 18.0672 49.5959 18.115 49.983C18.7421 54.4794 20.6504 58.6979 23.6102 62.1303L42.0019 80.6029C43.6387 81.973 45.4547 83.1113 47.3994 83.9861C47.7048 84.126 47.9532 84.3667 48.1034 84.6681C48.2537 84.9695 48.2966 85.3134 48.2252 85.6427C48.1537 85.972 47.9721 86.2669 47.7107 86.4782C47.4492 86.6895 47.1235 86.8045 46.7879 86.8042V86.8044Z" fill="#1F282C"/>
<path d="M74.5333 128.001C74.2776 128.001 74.0263 127.934 73.8042 127.806C73.5821 127.679 73.397 127.495 73.2672 127.274C70.5257 123.063 68.8529 118.241 68.3951 113.231C67.8168 109.406 68.0217 105.503 68.9971 101.76C69.9726 98.0165 71.6981 94.5126 74.0682 91.4621C78.9117 84.9769 81.731 82.7527 84.7083 81.2694C92.1844 77.5489 97.5475 81.8762 103.778 90.0639L105.537 92.3616C110.295 98.5571 112.465 101.385 112.052 106.069C111.799 108.917 109.416 110.844 106.896 112.887C105.813 113.762 104.696 114.667 103.637 115.708C103.358 115.982 102.983 116.133 102.593 116.129C102.203 116.124 101.831 115.965 101.558 115.685C101.286 115.405 101.135 115.028 101.139 114.636C101.144 114.245 101.303 113.871 101.581 113.598C102.741 112.457 103.967 111.464 105.049 110.588C107.246 108.81 108.983 107.405 109.123 105.808C109.436 102.273 107.74 100.066 103.209 94.1649L101.441 91.8571C94.9951 83.3869 91.1108 81.3831 86.0146 83.9129C83.422 85.2045 80.9128 87.2139 76.4225 93.2321C74.2648 95.9925 72.6982 99.1707 71.8208 102.567C70.9434 105.964 70.7741 109.506 71.3236 112.972C71.7417 117.545 73.2793 121.943 75.7995 125.775C75.931 125.999 76.0013 126.254 76.003 126.515C76.0048 126.775 75.938 127.031 75.8095 127.257C75.6809 127.483 75.4952 127.671 75.2711 127.801C75.047 127.932 74.7925 128.001 74.5333 128.001V128.001Z" fill="#1F282C"/>
<path d="M98.2997 127.999C98.052 127.999 97.8083 127.936 97.5914 127.816C97.3745 127.696 97.1914 127.523 97.0594 127.313L96.646 126.663C92.4744 120.059 90.3814 116.745 90.657 110.158C90.6735 109.777 90.8356 109.418 91.1095 109.154C91.3833 108.891 91.7479 108.744 92.1271 108.744L92.1902 108.745C92.5796 108.762 92.9465 108.933 93.2103 109.221C93.4741 109.509 93.6132 109.891 93.597 110.282C93.3559 115.945 95.0469 118.619 99.1295 125.081L99.5401 125.733C99.6812 125.956 99.76 126.213 99.7683 126.477C99.7766 126.741 99.7142 127.003 99.5874 127.234C99.4607 127.466 99.2743 127.659 99.0478 127.794C98.8213 127.928 98.5629 127.999 98.2998 127.999L98.2997 127.999Z" fill="#1F282C"/>
<path d="M106.476 70.6456C106.188 70.6461 105.905 70.561 105.665 70.4012C105.424 70.2413 105.235 70.0138 105.122 69.7469C105.01 69.48 104.978 69.1857 105.031 68.9008C105.084 68.6158 105.219 68.3528 105.42 68.1446C108.693 64.7399 111.71 61.0208 112.997 59.4323L113.571 58.7318C115.56 56.184 116.821 53.141 117.22 49.9286C117.507 48.4185 117.47 46.8642 117.112 45.3696C116.753 43.8749 116.082 42.4742 115.141 41.2609C113.769 39.0939 111.947 37.2492 109.801 35.8525C107.771 34.8435 106.095 35.1779 102.56 39.8252L101.63 41.039C99.1669 44.2462 98.5266 45.1486 98.6616 46.671C98.7104 47.2129 99.6003 47.9351 100.545 48.6991L100.895 48.9845C101.197 49.2315 101.39 49.5889 101.43 49.9782C101.469 50.3675 101.354 50.7567 101.108 51.0603C100.862 51.3638 100.506 51.5568 100.118 51.5968C99.7304 51.6368 99.3428 51.5206 99.0405 51.2736L98.6988 50.9968C97.9543 50.5581 97.3071 49.971 96.797 49.2717C96.287 48.5724 95.9249 47.7756 95.7331 46.9304C95.4919 44.1959 96.7666 42.5382 99.3017 39.2358L100.223 38.0321C103.617 33.5707 106.769 31.0453 111.105 33.2089C113.658 34.8189 115.837 36.9607 117.495 39.4895C118.671 41.0234 119.512 42.7883 119.964 44.6697C120.416 46.551 120.469 48.5068 120.12 50.4102C119.643 54.1469 118.156 57.6813 115.822 60.6303L115.276 61.2977C113.964 62.9136 110.895 66.7004 107.533 70.1945C107.396 70.3374 107.232 70.4511 107.051 70.5286C106.869 70.6061 106.674 70.6459 106.476 70.6456Z" fill="#1F282C"/>
<path d="M99.4481 64.4555C99.1642 64.4559 98.8861 64.3736 98.6478 64.2186C98.4094 64.0636 98.221 63.8425 98.1052 63.5821C97.9894 63.3216 97.9514 63.0331 97.9956 62.7514C98.0398 62.4697 98.1644 62.207 98.3543 61.9949C105.807 53.6372 105.807 51.0123 105.807 48.4738C105.805 48.2786 105.842 48.0849 105.915 47.904C105.988 47.723 106.096 47.5583 106.232 47.4196C106.369 47.2808 106.532 47.1706 106.711 47.0954C106.891 47.0202 107.083 46.9814 107.277 46.9814C107.472 46.9814 107.664 47.0202 107.844 47.0954C108.023 47.1706 108.186 47.2808 108.323 47.4196C108.459 47.5583 108.567 47.723 108.64 47.904C108.713 48.0849 108.75 48.2786 108.747 48.4738C108.747 52.1583 108.159 55.4261 100.542 63.964C100.405 64.1188 100.236 64.2426 100.047 64.3273C99.8589 64.412 99.6547 64.4557 99.4481 64.4555Z" fill="#1F282C"/>
<path d="M49.1766 127.996C48.9015 127.996 48.6319 127.919 48.3984 127.773C48.1649 127.627 47.977 127.418 47.8559 127.17C46.6536 124.726 45.2262 122.401 43.5924 120.225C33.6099 106.859 27.2908 102.461 24.414 101.03C17.2508 97.461 11.4196 98.7871 4.27955 105.588C4.13949 105.721 3.97465 105.826 3.79446 105.895C3.61427 105.964 3.42225 105.997 3.22936 105.992C3.03648 105.987 2.84651 105.943 2.6703 105.864C2.49408 105.786 2.33508 105.672 2.20237 105.532C2.06966 105.391 1.96583 105.226 1.89682 105.045C1.82781 104.864 1.79497 104.671 1.80017 104.477C1.80537 104.284 1.84851 104.093 1.92713 103.916C2.00575 103.739 2.1183 103.579 2.25837 103.446C10.2398 95.8407 17.4776 94.2796 25.7173 98.385C31.1694 101.098 38.1632 108.037 45.9437 118.453C47.6878 120.778 49.2122 123.261 50.4971 125.87C50.607 126.095 50.658 126.344 50.6452 126.595C50.6325 126.845 50.5565 127.088 50.4244 127.301C50.2922 127.514 50.1083 127.689 49.89 127.811C49.6717 127.932 49.4261 127.996 49.1765 127.996L49.1766 127.996Z" fill="#1F282C"/>
<path d="M121.899 27.734H80.9845C80.7901 27.7361 80.5973 27.6995 80.417 27.6263C80.2368 27.5531 80.0729 27.4447 79.9346 27.3074C79.7964 27.1702 79.6867 27.0067 79.6118 26.8266C79.5369 26.6464 79.4984 26.4531 79.4984 26.2579C79.4984 26.0627 79.5369 25.8694 79.6118 25.6893C79.6867 25.5091 79.7964 25.3457 79.9346 25.2084C80.0729 25.0711 80.2368 24.9627 80.417 24.8895C80.5973 24.8163 80.7901 24.7797 80.9845 24.7818H121.899C122.286 24.7861 122.656 24.9435 122.928 25.2198C123.201 25.4962 123.353 25.8692 123.353 26.2579C123.353 26.6466 123.201 27.0196 122.928 27.296C122.656 27.5723 122.286 27.7297 121.899 27.734Z" fill="#1F282C"/>
<path d="M72.6644 27.7339H47.7037C47.3167 27.7296 46.9469 27.5723 46.6747 27.2959C46.4025 27.0195 46.2498 26.6465 46.2498 26.2578C46.2498 25.8691 46.4025 25.4961 46.6747 25.2198C46.9469 24.9434 47.3167 24.786 47.7037 24.7817H72.6644C73.0515 24.786 73.4212 24.9434 73.6934 25.2198C73.9656 25.4961 74.1183 25.8691 74.1183 26.2578C74.1183 26.6465 73.9656 27.0195 73.6934 27.2959C73.4212 27.5723 73.0515 27.7296 72.6644 27.7339Z" fill="#1F282C"/>
<path d="M39.3835 27.7339H24.7614C24.3744 27.7296 24.0046 27.5723 23.7324 27.2959C23.4602 27.0195 23.3075 26.6465 23.3075 26.2578C23.3075 25.8691 23.4602 25.4961 23.7324 25.2198C24.0046 24.9434 24.3744 24.786 24.7614 24.7817H39.3835C39.7706 24.786 40.1404 24.9434 40.4126 25.2198C40.6848 25.4961 40.8375 25.8691 40.8375 26.2578C40.8375 26.6465 40.6848 27.0195 40.4126 27.2959C40.1404 27.5723 39.7706 27.7296 39.3835 27.7339Z" fill="#1F282C"/>
<path d="M39.3835 71.7263C39.189 71.7287 38.996 71.6922 38.8156 71.619C38.6352 71.5459 38.4711 71.4376 38.3328 71.3003C38.1944 71.163 38.0846 70.9995 38.0096 70.8192C37.9346 70.639 37.896 70.4456 37.896 70.2503C37.896 70.0549 37.9346 69.8616 38.0096 69.6813C38.0846 69.5011 38.1944 69.3376 38.3328 69.2003C38.4711 69.063 38.6352 68.9546 38.8156 68.8815C38.996 68.8084 39.189 68.7719 39.3835 68.7742C41.5087 68.6789 43.5731 68.0328 45.3758 66.8985C47.1785 65.7643 48.658 64.1807 49.6704 62.3019C49.8507 61.9571 50.1593 61.6978 50.5292 61.5804C50.899 61.463 51.3 61.4971 51.6449 61.6752C51.9898 61.8533 52.2507 62.1611 52.3707 62.5314C52.4908 62.9018 52.4602 63.3048 52.2858 63.6526C51.0227 66.011 49.1675 67.9968 46.9043 69.413C44.641 70.8293 42.0484 71.6268 39.3835 71.7263Z" fill="#1F282C"/>
<path d="M63.0953 71.7263C60.3832 71.5899 57.7454 70.7895 55.412 69.3948C53.0785 68.0001 51.1202 66.0535 49.7077 63.7247C49.5168 63.3874 49.4658 62.9883 49.5657 62.6136C49.6655 62.2389 49.9083 61.9187 50.2414 61.7223C50.5745 61.5259 50.9712 61.469 51.3457 61.564C51.7203 61.659 52.0425 61.8982 52.2428 62.2299C53.408 64.1042 54.9991 65.6746 56.8855 66.8122C58.7719 67.9497 60.9 68.6221 63.0953 68.7742C65.2905 68.6221 67.4186 67.9497 69.305 66.8122C71.1914 65.6746 72.7825 64.1042 73.9477 62.2299C74.148 61.8982 74.4703 61.659 74.8448 61.564C75.2193 61.469 75.616 61.5259 75.9491 61.7223C76.2822 61.9187 76.525 62.2389 76.6248 62.6136C76.7247 62.9883 76.6737 63.3874 76.4828 63.7247C75.0703 66.0535 73.112 68.0001 70.7785 69.3948C68.4451 70.7895 65.8074 71.5899 63.0953 71.7263Z" fill="#1F282C"/>
<path d="M87.3295 71.7262C84.6176 71.5905 81.98 70.7904 79.647 69.3956C77.3139 68.0008 75.3562 66.0538 73.9448 63.7246C73.75 63.3871 73.6962 62.9859 73.7951 62.6087C73.894 62.2315 74.1376 61.909 74.4726 61.7116C74.8077 61.5143 75.2069 61.4581 75.583 61.5555C75.9592 61.6529 76.2816 61.8958 76.4799 62.2312C77.6448 64.1052 79.2354 65.6752 81.1214 66.8125C83.0073 67.9498 85.1348 68.6221 87.3295 68.7741C89.5247 68.6224 91.6528 67.9503 93.5392 66.813C95.4257 65.6756 97.0167 64.1054 98.182 62.2312C98.3803 61.8958 98.7027 61.6529 99.0788 61.5555C99.455 61.4581 99.8542 61.5143 100.189 61.7116C100.524 61.909 100.768 62.2315 100.867 62.6087C100.966 62.9859 100.912 63.3871 100.717 63.7246C99.3053 66.0541 97.3472 68.0013 95.0136 69.3961C92.68 70.7908 90.0419 71.5908 87.3295 71.7262Z" fill="#1F282C"/>
<path d="M111.567 71.7257C108.855 71.5893 106.217 70.7888 103.883 69.3942C101.55 67.9995 99.5916 66.0529 98.1791 63.724C97.9879 63.3867 97.9367 62.9875 98.0365 62.6126C98.1363 62.2377 98.3791 61.9173 98.7123 61.7208C99.0456 61.5243 99.4425 61.4675 99.8171 61.5626C100.192 61.6578 100.514 61.8972 100.714 62.2292C101.879 64.1036 103.47 65.6739 105.357 66.8115C107.243 67.9491 109.371 68.6215 111.567 68.7735C113.479 68.694 115.35 68.1934 117.049 67.3071C118.747 66.4208 120.23 65.1705 121.394 63.6447C121.517 63.4947 121.668 63.3703 121.838 63.2789C122.008 63.1874 122.195 63.1306 122.388 63.1117C122.58 63.0929 122.774 63.1123 122.959 63.1689C123.144 63.2255 123.316 63.3182 123.465 63.4416C123.614 63.565 123.738 63.7168 123.828 63.8882C123.919 64.0596 123.975 64.2473 123.993 64.4405C124.012 64.6337 123.992 64.8286 123.935 65.0141C123.878 65.1996 123.786 65.3721 123.662 65.5216C122.226 67.3866 120.397 68.9098 118.306 69.9824C116.215 71.0549 113.913 71.6502 111.567 71.7257Z" fill="#1F282C"/>
<path d="M37.1843 90.553C34.2492 90.4216 31.3863 89.5972 28.8278 88.1469C26.2693 86.6965 24.0874 84.661 22.4589 82.2054C22.2514 81.8751 22.1828 81.4758 22.2679 81.0948C22.353 80.7137 22.5849 80.3821 22.913 80.1724C23.241 79.9627 23.6384 79.8921 24.0182 79.9759C24.398 80.0598 24.7292 80.2913 24.9394 80.6198C26.3147 82.6445 28.1332 84.3262 30.2556 85.5363C32.3781 86.7463 34.7481 87.4525 37.1843 87.6009C39.6148 87.4345 41.9713 86.6912 44.0601 85.4322C46.1488 84.1733 47.9102 82.4345 49.1995 80.3589C49.3968 80.0213 49.7194 79.7762 50.0966 79.6776C50.4738 79.5789 50.8745 79.6347 51.2107 79.8327C51.5469 80.0308 51.7909 80.3548 51.8892 80.7335C51.9875 81.1123 51.9319 81.5147 51.7347 81.8523C50.2004 84.3846 48.0723 86.5014 45.536 88.018C42.9998 89.5346 40.1325 90.4049 37.1843 90.553Z" fill="#1F282C"/>
<path d="M63.7499 90.5538C60.8014 90.4055 57.9337 89.5351 55.3971 88.0185C52.8604 86.502 50.7317 84.3852 49.1967 81.853C49.0019 81.5155 48.948 81.1144 49.0469 80.7372C49.1459 80.36 49.3895 80.0374 49.7245 79.8401C50.0595 79.6427 50.4588 79.5866 50.8349 79.6839C51.211 79.7813 51.5335 80.0242 51.7318 80.3596C53.0218 82.4352 54.7838 84.1738 56.873 85.4328C58.9622 86.6917 61.319 87.435 63.7499 87.6016C63.9444 87.5993 64.1374 87.6358 64.3178 87.7089C64.4981 87.7821 64.6623 87.8904 64.8006 88.0277C64.939 88.165 65.0488 88.3285 65.1238 88.5088C65.1988 88.689 65.2374 88.8824 65.2374 89.0777C65.2374 89.273 65.1988 89.4664 65.1238 89.6466C65.0488 89.8269 64.939 89.9904 64.8006 90.1277C64.6623 90.265 64.4981 90.3733 64.3178 90.4465C64.1374 90.5196 63.9444 90.5561 63.7499 90.5538Z" fill="#1F282C"/>
<path d="M39.3835 71.7143C39.1904 71.7144 38.9992 71.6763 38.8208 71.6022C38.6424 71.528 38.4803 71.4193 38.3437 71.2822C38.2072 71.1451 38.0989 70.9823 38.0251 70.8032C37.9513 70.624 37.9133 70.432 37.9135 70.2381V13.6254C37.9134 13.4879 37.9327 13.351 37.9709 13.2189C38.1632 9.64665 39.7127 6.28453 42.3 3.82525C44.8874 1.36597 48.3155 -0.0031371 51.8782 5.39775e-06C55.4408 0.0031479 58.8666 1.3783 61.4496 3.84214C64.0327 6.30598 65.5763 9.67083 65.7623 13.2434C65.7971 13.3677 65.8145 13.4963 65.814 13.6254V26.2586C65.8141 26.4524 65.7762 26.6445 65.7024 26.8236C65.6285 27.0028 65.5202 27.1655 65.3837 27.3026C65.2472 27.4397 65.0851 27.5485 64.9067 27.6226C64.7283 27.6968 64.537 27.7349 64.344 27.7347H56.0239C55.8309 27.7349 55.6396 27.6968 55.4612 27.6226C55.2828 27.5485 55.1207 27.4397 54.9842 27.3026C54.8476 27.1655 54.7394 27.0028 54.6655 26.8236C54.5917 26.6445 54.5538 26.4524 54.5539 26.2586V19.4908C54.5585 19.1023 54.7154 18.7314 54.9905 18.4583C55.2657 18.1852 55.637 18.0321 56.0238 18.0321C56.4107 18.0321 56.782 18.1852 57.0571 18.4583C57.3323 18.7314 57.4892 19.1023 57.4938 19.4908V24.7825H62.8741V13.9512C62.8529 13.8594 62.8404 13.7658 62.8368 13.6716C62.7583 10.802 61.568 8.07635 59.519 6.07451C57.47 4.07266 54.724 2.95261 51.8652 2.95261C49.0064 2.95261 46.2604 4.07266 44.2114 6.07451C42.1624 8.07635 40.972 10.802 40.8936 13.6716C40.8905 13.7722 40.877 13.8722 40.8534 13.97V70.2382C40.8535 70.4321 40.8155 70.624 40.7417 70.8032C40.6679 70.9823 40.5596 71.1451 40.4231 71.2822C40.2866 71.4192 40.1245 71.528 39.9461 71.6021C39.7678 71.6763 39.5766 71.7144 39.3835 71.7143Z" fill="#1F282C"/>
<path d="M47.7037 36.0782C47.5107 36.0783 47.3194 36.0402 47.141 35.9661C46.9626 35.8919 46.8005 35.7832 46.664 35.6461C46.5274 35.509 46.4192 35.3462 46.3453 35.1671C46.2715 34.9879 46.2335 34.7959 46.2337 34.602V14.009C46.2343 12.7109 46.6798 11.4525 47.4951 10.4451C48.3105 9.43777 49.4463 8.74278 50.7116 8.47686C51.977 8.21094 53.2949 8.39027 54.4441 8.98475C55.5934 9.57923 56.504 10.5526 57.023 11.7416C57.1004 11.9191 57.1423 12.1103 57.1463 12.3041C57.1502 12.4979 57.116 12.6906 57.0458 12.8712C56.9755 13.0518 56.8705 13.2167 56.7368 13.3565C56.6031 13.4963 56.4433 13.6083 56.2664 13.6861C56.0896 13.7639 55.8993 13.806 55.7063 13.8099C55.5132 13.8139 55.3213 13.7796 55.1415 13.709C54.9617 13.6385 54.7975 13.5331 54.6582 13.3988C54.519 13.2645 54.4074 13.104 54.33 12.9265C54.0819 12.3584 53.6468 11.8934 53.0977 11.6093C52.5486 11.3253 51.9189 11.2396 51.3143 11.3665C50.7097 11.4934 50.167 11.8253 49.7772 12.3065C49.3874 12.7876 49.1743 13.3888 49.1737 14.009V34.602C49.1738 34.7959 49.1359 34.9879 49.062 35.1671C48.9882 35.3462 48.8799 35.509 48.7434 35.6461C48.6069 35.7832 48.4448 35.8919 48.2664 35.9661C48.088 36.0402 47.8968 36.0783 47.7037 36.0782Z" fill="#1F282C"/>
<path d="M47.7037 51.4147C47.5107 51.4148 47.3194 51.3767 47.141 51.3026C46.9626 51.2284 46.8005 51.1197 46.664 50.9826C46.5274 50.8455 46.4192 50.6827 46.3453 50.5036C46.2715 50.3244 46.2336 50.1324 46.2337 49.9385V41.7798C46.2314 41.5845 46.2677 41.3907 46.3405 41.2095C46.4134 41.0284 46.5213 40.8636 46.658 40.7247C46.7947 40.5858 46.9576 40.4755 47.1371 40.4002C47.3165 40.3249 47.5091 40.2861 47.7036 40.2861C47.8982 40.2861 48.0907 40.3249 48.2702 40.4002C48.4497 40.4755 48.6125 40.5858 48.7493 40.7247C48.886 40.8636 48.9939 41.0284 49.0667 41.2095C49.1396 41.3907 49.1759 41.5845 49.1736 41.7798V49.9386C49.1737 50.1325 49.1358 50.3244 49.0619 50.5036C48.9881 50.6827 48.8799 50.8455 48.7433 50.9826C48.6068 51.1196 48.4448 51.2284 48.2664 51.3025C48.088 51.3767 47.8968 51.4148 47.7037 51.4147Z" fill="#1F282C"/>
<path d="M47.7037 68.3367C47.5107 68.3368 47.3194 68.2987 47.141 68.2245C46.9626 68.1504 46.8005 68.0417 46.664 67.9046C46.5274 67.7675 46.4192 67.6047 46.3453 67.4255C46.2715 67.2464 46.2336 67.0544 46.2337 66.8605V57.1148C46.2314 56.9195 46.2677 56.7256 46.3405 56.5445C46.4134 56.3634 46.5213 56.1986 46.658 56.0597C46.7947 55.9207 46.9576 55.8104 47.1371 55.7351C47.3165 55.6599 47.5091 55.6211 47.7036 55.6211C47.8982 55.6211 48.0907 55.6599 48.2702 55.7351C48.4497 55.8104 48.6125 55.9207 48.7493 56.0597C48.886 56.1986 48.9939 56.3634 49.0667 56.5445C49.1396 56.7256 49.1759 56.9195 49.1736 57.1148V66.8606C49.1737 67.0545 49.1358 67.2465 49.0619 67.4256C48.9881 67.6047 48.8798 67.7675 48.7433 67.9045C48.6068 68.0416 48.4447 68.1504 48.2664 68.2245C48.088 68.2986 47.8968 68.3367 47.7037 68.3367Z" fill="#1F282C"/>
<path d="M72.6644 67.5671C72.4713 67.5673 72.2801 67.5292 72.1017 67.455C71.9233 67.3809 71.7612 67.2722 71.6246 67.1351C71.4881 66.998 71.3798 66.8352 71.306 66.656C71.2322 66.4769 71.1942 66.2849 71.1943 66.091V13.6254C71.1943 13.4879 71.2136 13.351 71.2518 13.2189C71.4441 9.64665 72.9936 6.28453 75.5809 3.82525C78.1683 1.36597 81.5964 -0.0031371 85.1591 5.39776e-06C88.7217 0.0031479 92.1475 1.3783 94.7305 3.84214C97.3136 6.30598 98.8571 9.67083 99.0432 13.2434C99.078 13.3677 99.0954 13.4963 99.0949 13.6254V26.2586C99.0951 26.4524 99.0571 26.6445 98.9833 26.8236C98.9094 27.0028 98.8012 27.1655 98.6646 27.3026C98.5281 27.4397 98.366 27.5485 98.1876 27.6226C98.0092 27.6968 97.818 27.7349 97.6249 27.7347H89.3048C89.1117 27.7349 88.9205 27.6968 88.7421 27.6226C88.5637 27.5485 88.4016 27.4397 88.2651 27.3026C88.1285 27.1655 88.0203 27.0028 87.9464 26.8236C87.8726 26.6445 87.8346 26.4524 87.8348 26.2586V19.4908C87.839 19.1021 87.9958 18.7308 88.271 18.4575C88.5462 18.1841 88.9177 18.0308 89.3047 18.0308C89.6918 18.0308 90.0633 18.1841 90.3385 18.4575C90.6137 18.7308 90.7705 19.1021 90.7747 19.4908V24.7825H96.155V13.9512C96.1338 13.8594 96.1213 13.7658 96.1177 13.6716C96.0392 10.802 94.8489 8.07635 92.7999 6.07451C90.7508 4.07266 88.0049 2.95261 85.1461 2.95261C82.2873 2.95261 79.5413 4.07266 77.4923 6.07451C75.4432 8.07635 74.2529 10.802 74.1745 13.6716C74.1714 13.7722 74.1579 13.8722 74.1343 13.97V66.0911C74.1344 66.2849 74.0964 66.4769 74.0226 66.656C73.9488 66.8352 73.8405 66.9979 73.704 67.135C73.5675 67.2721 73.4054 67.3808 73.227 67.455C73.0486 67.5291 72.8575 67.5672 72.6644 67.5671Z" fill="#1F282C"/>
<path d="M80.9846 68.3371C80.7915 68.3372 80.6003 68.2991 80.4218 68.225C80.2434 68.1508 80.0813 68.0421 79.9448 67.905C79.8083 67.7679 79.7 67.6051 79.6261 67.426C79.5523 67.2468 79.5144 67.0548 79.5145 66.8609V14.009C79.5152 12.7109 79.9606 11.4525 80.776 10.4451C81.5914 9.43777 82.7271 8.74278 83.9924 8.47686C85.2578 8.21094 86.5757 8.39027 87.725 8.98475C88.8742 9.57923 89.7848 10.5526 90.3038 11.7416C90.3813 11.9191 90.4232 12.1103 90.4271 12.3041C90.431 12.4979 90.3968 12.6906 90.3266 12.8712C90.2563 13.0518 90.1514 13.2167 90.0176 13.3565C89.8839 13.4963 89.7241 13.6083 89.5473 13.6861C89.3704 13.7639 89.1801 13.806 88.9871 13.8099C88.7941 13.8139 88.6022 13.7796 88.4223 13.709C88.2425 13.6385 88.0783 13.5331 87.939 13.3988C87.7998 13.2645 87.6883 13.104 87.6108 12.9265C87.3627 12.3584 86.9276 11.8933 86.3785 11.6092C85.8294 11.3251 85.1997 11.2393 84.595 11.3663C83.9904 11.4932 83.4477 11.8252 83.0579 12.3064C82.6681 12.7876 82.455 13.3887 82.4544 14.009V66.8609C82.4545 67.0548 82.4166 67.2468 82.3428 67.4259C82.269 67.605 82.1607 67.7678 82.0242 67.9049C81.8877 68.042 81.7256 68.1508 81.5472 68.2249C81.3688 68.2991 81.1776 68.3372 80.9846 68.3371Z" fill="#1F282C"/>
<path d="M72.6644 43.2555H47.7037C47.5092 43.2578 47.3162 43.2213 47.1358 43.1482C46.9555 43.075 46.7914 42.9667 46.653 42.8294C46.5146 42.6921 46.4048 42.5286 46.3298 42.3483C46.2549 42.1681 46.2162 41.9747 46.2162 41.7794C46.2162 41.5841 46.2549 41.3907 46.3298 41.2105C46.4048 41.0302 46.5146 40.8667 46.653 40.7294C46.7914 40.5921 46.9555 40.4838 47.1358 40.4106C47.3162 40.3375 47.5092 40.301 47.7037 40.3033H72.6644C73.0512 40.3079 73.4207 40.4655 73.6926 40.7418C73.9645 41.0181 74.117 41.3909 74.117 41.7794C74.117 42.1679 73.9645 42.5407 73.6926 42.817C73.4207 43.0933 73.0512 43.2509 72.6644 43.2555Z" fill="#1F282C"/>
<path d="M72.6644 58.5904H47.7037C47.3167 58.5861 46.9469 58.4287 46.6747 58.1523C46.4025 57.876 46.2498 57.503 46.2498 57.1143C46.2498 56.7256 46.4025 56.3526 46.6747 56.0762C46.9469 55.7998 47.3167 55.6425 47.7037 55.6382H72.6644C73.0515 55.6425 73.4212 55.7998 73.6934 56.0762C73.9656 56.3526 74.1183 56.7256 74.1183 57.1143C74.1183 57.503 73.9656 57.876 73.6934 58.1523C73.4212 58.4287 73.0515 58.5861 72.6644 58.5904Z" fill="#1F282C"/>
<path d="M63.0953 71.7263C60.3832 71.5899 57.7454 70.7895 55.412 69.3948C53.0785 68.0001 51.1202 66.0535 49.7077 63.7247C49.5168 63.3874 49.4658 62.9883 49.5657 62.6136C49.6655 62.2389 49.9083 61.9187 50.2414 61.7223C50.5745 61.5259 50.9712 61.469 51.3457 61.564C51.7203 61.659 52.0425 61.8982 52.2428 62.2299C53.408 64.1042 54.9991 65.6746 56.8855 66.8122C58.7719 67.9497 60.9 68.6221 63.0953 68.7742C65.2905 68.6221 67.4186 67.9497 69.305 66.8122C71.1914 65.6746 72.7825 64.1042 73.9477 62.2299C74.148 61.8982 74.4703 61.659 74.8448 61.564C75.2193 61.469 75.616 61.5259 75.9491 61.7223C76.2822 61.9187 76.525 62.2389 76.6248 62.6136C76.7247 62.9883 76.6737 63.3874 76.4828 63.7247C75.0703 66.0535 73.112 68.0001 70.7785 69.3948C68.4451 70.7895 65.8074 71.5899 63.0953 71.7263Z" fill="#1F282C"/>
<path d="M60.1841 114.913C60.069 114.913 59.9543 114.899 59.8424 114.873C55.6367 113.69 52.0224 110.972 49.7077 107.253C49.5167 106.916 49.4655 106.517 49.5653 106.142C49.6652 105.767 49.9079 105.447 50.2411 105.25C50.5743 105.054 50.9711 104.997 51.3457 105.092C51.7203 105.187 52.0426 105.426 52.2428 105.758C54.1618 108.776 57.1042 110.994 60.5257 112.001C60.8758 112.085 61.183 112.296 61.389 112.592C61.595 112.889 61.6855 113.251 61.6434 113.61C61.6012 113.969 61.4294 114.3 61.1604 114.54C60.8915 114.78 60.5441 114.913 60.1841 114.913Z" fill="#1F282C"/>
<path d="M40.4142 115.212C40.0351 115.211 39.6711 115.063 39.3981 114.799C39.1251 114.535 38.9642 114.175 38.949 113.795C38.9338 113.414 39.0655 113.043 39.3166 112.758C39.5676 112.472 39.9187 112.296 40.2965 112.264C42.2498 112.001 44.1146 111.282 45.7418 110.165C47.369 109.049 48.7134 107.565 49.6675 105.834C49.8453 105.485 50.1537 105.221 50.525 105.101C50.8962 104.981 51.2998 105.014 51.6471 105.192C51.9943 105.371 52.2566 105.68 52.3764 106.053C52.4962 106.426 52.4636 106.831 52.2859 107.18C51.1062 109.361 49.4245 111.228 47.381 112.624C45.3374 114.02 42.9912 114.906 40.5376 115.208C40.4974 115.211 40.4573 115.212 40.4142 115.212Z" fill="#1F282C"/>
</svg>
