<svg width="86" height="128" viewBox="0 0 86 128" fill="none" xmlns="http://www.w3.org/2000/svg">
<path d="M75.9351 1.4502H9.66183C8.5833 1.45018 7.51532 1.66261 6.51889 2.07534C5.52245 2.48807 4.61707 3.09303 3.85443 3.85567C3.09179 4.61831 2.48684 5.5237 2.07411 6.52013C1.66138 7.51657 1.44896 8.58455 1.44897 9.66308V92.493C1.4491 94.6711 2.31444 96.76 3.85464 98.3C5.39485 99.8401 7.48375 100.705 9.66183 100.705H75.9351C78.1131 100.705 80.2018 99.8399 81.7419 98.2999C83.282 96.7598 84.1472 94.671 84.1473 92.493V9.66308C84.1473 8.58459 83.935 7.51665 83.5223 6.52023C83.1096 5.52381 82.5047 4.61843 81.7422 3.85579C80.9796 3.09315 80.0743 2.48818 79.0779 2.07542C78.0815 1.66267 77.0136 1.45022 75.9351 1.4502ZM73.7773 90.3367H11.8196V11.8216H73.7774L73.7773 90.3367Z" fill="#CEEAF2"/>
<path d="M77.8933 102.156H7.7024C5.6601 102.153 3.70218 101.341 2.25819 99.8967C0.814201 98.4524 0.00207866 96.4944 0 94.4521V33.4205C0.00171741 33.0371 0.155229 32.67 0.426947 32.3995C0.698666 32.1289 1.06647 31.9771 1.44988 31.9771C1.83329 31.9771 2.20109 32.1289 2.47281 32.3995C2.74452 32.67 2.89804 33.0371 2.89975 33.4205V94.4521C2.90106 95.7255 3.40743 96.9465 4.30777 97.8471C5.20812 98.7477 6.42893 99.2545 7.7024 99.2562H77.8933C79.1673 99.2551 80.3887 98.7486 81.2896 97.848C82.1906 96.9473 82.6974 95.726 82.6989 94.4521V7.70382C82.6974 6.42991 82.1906 5.20861 81.2896 4.30794C80.3887 3.40728 79.1673 2.90082 77.8933 2.89972H7.7024C6.42893 2.90142 5.20812 3.40815 4.30777 4.30877C3.40743 5.20939 2.90106 6.43035 2.89975 7.70382V22.8042C2.89804 23.1876 2.74452 23.5547 2.47281 23.8252C2.20109 24.0957 1.83329 24.2476 1.44988 24.2476C1.06647 24.2476 0.698666 24.0957 0.426947 23.8252C0.155229 23.5547 0.00171741 23.1876 0 22.8042V7.70382C0.00207866 5.66153 0.814201 3.70345 2.25819 2.2592C3.70218 0.814942 5.6601 0.00245658 7.7024 0L77.8933 0C79.9359 0.00233988 81.8942 0.814697 83.3387 2.2589C84.7832 3.7031 85.5959 5.66123 85.5986 7.70382V94.4521C85.5959 96.4947 84.7832 98.4528 83.3387 99.897C81.8942 101.341 79.9359 102.154 77.8933 102.156Z" fill="#1F282C"/>
<path d="M63.474 128H22.1246C21.9342 128 21.7456 127.962 21.5696 127.89C21.3937 127.817 21.2338 127.71 21.0992 127.575C20.9645 127.441 20.8577 127.281 20.7849 127.105C20.7121 126.929 20.6746 126.74 20.6747 126.55V100.706C20.6746 100.515 20.7121 100.327 20.7849 100.151C20.8577 99.9748 20.9645 99.8149 21.0992 99.6803C21.2338 99.5456 21.3937 99.4388 21.5696 99.366C21.7456 99.2932 21.9342 99.2557 22.1246 99.2559H63.474C63.6644 99.2557 63.853 99.2932 64.029 99.366C64.2049 99.4388 64.3648 99.5456 64.4995 99.6803C64.6341 99.8149 64.7409 99.9748 64.8137 100.151C64.8866 100.327 64.924 100.515 64.9239 100.706V126.55C64.924 126.74 64.8866 126.929 64.8137 127.105C64.7409 127.281 64.6341 127.441 64.4995 127.575C64.3648 127.71 64.2049 127.817 64.029 127.89C63.853 127.962 63.6644 128 63.474 128ZM23.5745 125.1H62.0242V102.156H23.5745V125.1Z" fill="#1F282C"/>
<path d="M73.8099 128.001H11.7858C11.4013 128.001 11.0325 127.848 10.7606 127.576C10.4887 127.304 10.3359 126.935 10.3359 126.551C10.3359 126.166 10.4887 125.798 10.7606 125.526C11.0325 125.254 11.4013 125.101 11.7858 125.101H73.8099C74.1945 125.101 74.5633 125.254 74.8352 125.526C75.1071 125.798 75.2598 126.166 75.2598 126.551C75.2598 126.935 75.1071 127.304 74.8352 127.576C74.5633 127.848 74.1945 128.001 73.8099 128.001Z" fill="#1F282C"/>
<path d="M28.2638 26.3587L24.9601 29.3643L22.3264 34.1585L22.5584 40.1358L25.1652 44.6455L33.0269 52.894L42.3672 62.4101L46.2621 65.1305L51.3434 67.1195L54.1294 67.2571L58.7676 65.2874L62.5461 61.6888L63.4728 59.0786L62.0095 56.4873L58.3764 53.4785L56.3468 52.0503L54.6995 50.7961C51.0237 51.695 50.4312 56.2612 44.7146 52.8452L36.767 44.745C35.9 43.8337 35.4282 42.6168 35.4543 41.3593C35.4805 40.1017 36.0025 38.9055 36.9066 38.031C37.3723 37.5558 37.709 36.9696 37.8848 36.3279C38.0605 35.6861 38.0696 35.0102 37.911 34.364C37.911 34.364 37.0283 32.4115 36.9531 32.3034C36.8779 32.1952 32.2174 26.3589 32.2174 26.3589L30.3382 25.9302L28.2638 26.3587Z" fill="#3DAFCC"/>
<path d="M53.107 68.7059C52.4473 68.7027 51.7886 68.6525 51.1361 68.5558C47.0478 67.5713 43.3124 65.4732 40.3442 62.4944L39.9308 62.0697C30.1159 52.0071 24.9224 46.6125 24.0559 45.5775C22.1014 43.4674 20.9145 40.7606 20.6864 37.8935C20.4583 35.0264 21.2023 32.166 22.7986 29.7734C24.2827 27.5508 26.1886 25.641 28.4083 24.1523C31.9905 22.3726 34.5759 24.8334 36.8214 27.7671L37.2461 28.3207C39.3671 31.0817 41.5645 33.9361 39.2538 37.0454C39.1402 37.1982 38.9976 37.3272 38.8341 37.4249C38.6707 37.5226 38.4896 37.5872 38.3012 37.615C38.1128 37.6427 37.9208 37.6331 37.7361 37.5866C37.5514 37.5401 37.3777 37.4577 37.2248 37.3441C37.072 37.2305 36.943 37.0879 36.8453 36.9245C36.7476 36.761 36.683 36.5799 36.6553 36.3915C36.6275 36.2031 36.6372 36.0111 36.6836 35.8264C36.7301 35.6417 36.8125 35.468 36.9261 35.3152C37.8039 34.1343 37.2942 33.1404 34.9467 30.0877L34.5161 29.527C31.8656 26.0595 30.8009 26.1983 29.6965 26.7491C27.9243 28.0383 26.391 29.6272 25.1657 31.4441C23.9687 33.3242 23.4284 35.5479 23.6292 37.7677C23.8301 39.9874 24.7607 42.078 26.2757 43.7127C27.0856 44.6798 32.3782 50.1748 42.0061 60.045L42.4224 60.4711C44.9552 62.9791 48.1026 64.7773 51.5492 65.6858C53.3454 66.0313 55.2059 65.7309 56.8021 64.8377C58.6262 63.7156 60.2338 62.275 61.5484 60.5844C63.0747 58.166 60.26 55.2578 58.9772 54.1195C56.6806 52.0764 55.1062 51.1093 53.8489 52.2038C53.7058 52.3301 53.5393 52.4269 53.3587 52.4886C53.1782 52.5504 52.9872 52.5759 52.7968 52.5636C52.6064 52.5514 52.4203 52.5017 52.2492 52.4173C52.078 52.3329 51.9252 52.2156 51.7996 52.072C51.6739 51.9284 51.5778 51.7615 51.5169 51.5807C51.4559 51.3999 51.4312 51.2088 51.4443 51.0184C51.4574 50.8281 51.5079 50.6422 51.593 50.4714C51.6781 50.3006 51.7961 50.1484 51.9403 50.0233C55.3582 47.0216 59.1046 50.3518 60.9028 51.9518C64.7823 55.3952 65.9093 59.1062 64.0007 62.132C62.4137 64.2637 60.4193 66.0592 58.1333 67.4146C56.5923 68.2587 54.8641 68.7027 53.107 68.7059Z" fill="#1F282C"/>
<path d="M52.5774 59.4591C52.5006 59.4592 52.4239 59.4531 52.348 59.4407C49.5916 58.7341 47.093 57.258 45.144 55.1846L34.1908 44.288C32.2305 42.4531 30.7672 40.1515 29.9375 37.5979C29.8518 37.2234 29.9182 36.8302 30.122 36.5045C30.3259 36.1788 30.6505 35.9473 31.0249 35.8606C31.2096 35.8162 31.4014 35.8088 31.589 35.8391C31.7767 35.8693 31.9564 35.9365 32.1179 36.0367C32.2794 36.1369 32.4194 36.2682 32.5297 36.4229C32.64 36.5777 32.7186 36.7528 32.7607 36.9381C33.4885 38.961 34.6861 40.7822 36.2551 42.2519L47.1688 53.1104C48.7097 54.7505 50.6611 55.9487 52.821 56.5807C53.1775 56.6436 53.4976 56.8376 53.7185 57.1245C53.9393 57.4114 54.0448 57.7705 54.0143 58.1312C53.9837 58.492 53.8194 58.8283 53.5535 59.074C53.2876 59.3198 52.9395 59.4572 52.5774 59.4592L52.5774 59.4591Z" fill="#1F282C"/>
<path d="M63.4625 78.7576H34.1256C33.7411 78.7576 33.3723 78.6049 33.1004 78.333C32.8285 78.0611 32.6757 77.6923 32.6757 77.3078C32.6757 76.9232 32.8285 76.5545 33.1004 76.2826C33.3723 76.0107 33.7411 75.8579 34.1256 75.8579H63.4625C63.8471 75.8579 64.2159 76.0107 64.4878 76.2826C64.7597 76.5545 64.9124 76.9232 64.9124 77.3078C64.9124 77.6923 64.7597 78.0611 64.4878 78.333C64.2159 78.6049 63.8471 78.7576 63.4625 78.7576Z" fill="#1F282C"/>
<path d="M25.6077 78.7576H22.3257C21.9411 78.7576 21.5724 78.6049 21.3004 78.333C21.0285 78.0611 20.8758 77.6923 20.8758 77.3078C20.8758 76.9232 21.0285 76.5545 21.3004 76.2826C21.5724 76.0107 21.9411 75.8579 22.3257 75.8579H25.6077C25.9922 75.8579 26.361 76.0107 26.6329 76.2826C26.9048 76.5545 27.0575 76.9232 27.0575 77.3078C27.0575 77.6923 26.9048 78.0611 26.6329 78.333C26.361 78.6049 25.9922 78.7576 25.6077 78.7576Z" fill="#1F282C"/>
<path d="M54.6106 120.218C54.4201 120.218 54.2316 120.181 54.0556 120.108C53.8796 120.035 53.7198 119.928 53.5851 119.794C53.4505 119.659 53.3437 119.499 53.2708 119.323C53.198 119.147 53.1606 118.959 53.1607 118.768V100.706C53.1607 100.321 53.3135 99.9524 53.5854 99.6805C53.8573 99.4086 54.226 99.2559 54.6106 99.2559C54.9951 99.2559 55.3639 99.4086 55.6358 99.6805C55.9077 99.9524 56.0604 100.321 56.0604 100.706V118.768C56.0605 118.959 56.0231 119.147 55.9503 119.323C55.8775 119.499 55.7707 119.659 55.636 119.794C55.5014 119.928 55.3415 120.035 55.1655 120.108C54.9896 120.181 54.801 120.218 54.6106 120.218Z" fill="#1F282C"/>
<path d="M73.776 91.7852H11.8198C11.6294 91.7854 11.4408 91.7479 11.2648 91.6751C11.0889 91.6023 10.929 91.4955 10.7943 91.3608C10.6597 91.2262 10.5529 91.0663 10.4801 90.8904C10.4072 90.7144 10.3698 90.5258 10.3699 90.3354V11.8205C10.3698 11.63 10.4072 11.4415 10.4801 11.2655C10.5529 11.0895 10.6597 10.9297 10.7943 10.795C10.929 10.6604 11.0889 10.5536 11.2648 10.4807C11.4408 10.4079 11.6294 10.3705 11.8198 10.3706H73.776C73.9664 10.3705 74.155 10.4079 74.3309 10.4807C74.5069 10.5536 74.6668 10.6604 74.8014 10.795C74.9361 10.9297 75.0429 11.0895 75.1157 11.2655C75.1885 11.4415 75.2259 11.63 75.2258 11.8205V72.307C75.2258 72.6915 75.0731 73.0603 74.8012 73.3322C74.5293 73.6041 74.1605 73.7568 73.776 73.7568C73.3914 73.7568 73.0227 73.6041 72.7508 73.3322C72.4788 73.0603 72.3261 72.6915 72.3261 72.307V13.2703H13.2697V88.8855H72.3261V81.9364C72.3261 81.5518 72.4788 81.1831 72.7508 80.9112C73.0227 80.6393 73.3914 80.4865 73.776 80.4865C74.1605 80.4865 74.5293 80.6393 74.8012 80.9112C75.0731 81.1831 75.2258 81.5518 75.2258 81.9364V90.3353C75.2259 90.5257 75.1885 90.7143 75.1157 90.8903C75.0429 91.0662 74.9361 91.2261 74.8015 91.3608C74.6668 91.4955 74.5069 91.6023 74.331 91.6751C74.155 91.7479 73.9664 91.7854 73.776 91.7852Z" fill="#1F282C"/>
</svg>
