<svg width="128" height="128" viewBox="0 0 128 128" fill="none" xmlns="http://www.w3.org/2000/svg">
<path d="M103.598 20.402C82.9209 -0.274008 50.1039 -1.39101 28.1039 17.032L50.5589 39.487L69.7129 20.332L103.668 54.287L84.5129 73.441L106.968 95.896C125.39 73.896 124.274 41.079 103.598 20.402Z" fill="#3CB0CB"/>
<path d="M82.523 60H68.002V37.479L45.48 60H60.002V82.521L82.523 60Z" fill="#3CB0CB"/>
<path d="M58.2869 99.668L24.3319 65.715L43.4869 46.559L21.0319 24.104C2.60995 46.104 3.72495 78.921 24.4019 99.598C45.0789 120.275 77.896 121.391 99.8969 102.968L77.4419 80.514L58.2869 99.668Z" fill="#1F282C"/>
</svg>
