<svg width="128" height="128" viewBox="0 0 128 128" fill="none" xmlns="http://www.w3.org/2000/svg">
<path d="M89 68C89 81.785 77.785 93 64 93C53.77 93 44.959 86.8199 41.094 78H30.464C34.777 92.4399 48.176 103 64 103C83.299 103 99 87.299 99 68C99 54.0659 90.814 42.0119 79 36.3839V48.014C85.068 52.5789 89 59.839 89 68ZM79 14.049V25.58C96.458 31.7719 109 48.445 109 68C109 92.813 88.813 113 64 113C42.625 113 24.695 98.015 20.134 78H8.90799C13.625 104.153 36.487 124 64 124C94.928 124 120 98.9279 120 68C120 42.271 102.641 20.608 79 14.049Z" fill="#3CB0CB"/>
<path d="M59 4V12.233C30.459 14.773 8.002 38.804 8 68H39C39 55.927 47.603 45.826 59 43.503V68C59 70.761 61.24 73 64 73C66.76 73 69 70.761 69 68V4H59Z" fill="#1F282C"/>
</svg>
