<svg width="120" height="48" viewBox="0 0 120 48" fill="none" xmlns="http://www.w3.org/2000/svg">
<path d="M86.6408 15.1244L73.507 7.2099C70.0077 5.10123 66.0032 3.9873 61.9219 3.9873H55.1395C54.271 3.99222 53.4035 4.04764 52.5414 4.15328C49.472 6.0729 46.9016 8.69809 45.0426 11.812L43.0651 15.1244L82.3149 19.8912L82.3503 19.7108C82.5647 18.6192 83.0808 17.6102 83.8395 16.7992C84.5982 15.9881 85.569 15.4077 86.6408 15.1244Z" fill="#3DAFCC"/>
<path d="M10.1368 33.275C5.62781 30.7851 0.98996 25.9069 0.98996 20.376V27.0725C0.990877 29.9935 1.86244 32.8474 3.4925 35.2671C5.12257 37.6867 7.43657 39.5614 10.1368 40.6499C9.08273 38.8818 10.0822 33.7358 10.1368 33.275Z" fill="#CEEAF2"/>
<path d="M31.936 35.0156C31.8573 37.4397 31.0311 39.7796 29.5715 41.7123H89.0256C87.566 39.7796 86.7398 37.4397 86.6611 35.0156H31.936Z" fill="#CEEAF2"/>
<path d="M21.8722 24.084C19.614 24.084 17.4066 24.7561 15.529 26.0155C13.6515 27.2749 12.1881 29.0649 11.3239 31.1591C10.4597 33.2534 10.2336 35.5579 10.6741 37.7812C11.1147 40.0045 12.202 42.0467 13.7987 43.6496C15.3955 45.2525 17.4298 46.3441 19.6446 46.7864C21.8593 47.2286 24.1549 47.0017 26.2412 46.1342C28.3274 45.2667 30.1105 43.7977 31.3651 41.9129C32.6197 40.0281 33.2893 37.8122 33.2893 35.5454C33.2893 32.5056 32.0865 29.5904 29.9453 27.441C27.8042 25.2916 24.9002 24.084 21.8722 24.084ZM21.8722 39.9867C20.9971 39.9867 20.1417 39.7262 19.4141 39.2382C18.6865 38.7501 18.1194 38.0565 17.7845 37.2449C17.4496 36.4333 17.362 35.5403 17.5327 34.6787C17.7034 33.8171 18.1248 33.0257 18.7436 32.4046C19.3624 31.7834 20.1508 31.3604 21.009 31.1891C21.8673 31.0177 22.7569 31.1057 23.5653 31.4419C24.3738 31.7781 25.0648 32.3474 25.5509 33.0778C26.037 33.8082 26.2965 34.667 26.2965 35.5454C26.2964 36.7233 25.8303 37.8529 25.0006 38.6858C24.1708 39.5187 23.0455 39.9866 21.8722 39.9867Z" fill="#3DAFCC"/>
<path d="M21.8721 48.0002C19.4182 48.0002 17.0193 47.2698 14.9789 45.9012C12.9384 44.5327 11.3481 42.5874 10.409 40.3116C9.46988 38.0357 9.22414 35.5313 9.70287 33.1152C10.1816 30.6991 11.3633 28.4798 13.0985 26.7379C14.8337 24.996 17.0445 23.8097 19.4513 23.3292C21.8581 22.8486 24.3529 23.0953 26.62 24.038C28.8872 24.9807 30.8249 26.5772 32.1882 28.6255C33.5515 30.6738 34.2792 33.0819 34.2791 35.5453C34.2755 38.8475 32.9671 42.0133 30.6412 44.3482C28.3152 46.6832 25.1615 47.9965 21.8721 48.0002ZM21.8721 25.0772C19.8097 25.0772 17.7937 25.691 16.0788 26.8412C14.364 27.9914 13.0274 29.6262 12.2381 31.5389C11.4488 33.4516 11.2423 35.5563 11.6446 37.5869C12.0468 39.6174 13.0399 41.4826 14.4982 42.9466C15.9565 44.4106 17.8144 45.4076 19.8372 45.8116C21.8599 46.2155 23.9565 46.0083 25.8619 45.2161C27.7674 44.4239 29.396 43.0822 30.5418 41.3609C31.6876 39.6395 32.2993 37.6157 32.2993 35.5453C32.2963 32.7701 31.1968 30.1093 29.242 28.1468C27.2872 26.1844 24.6367 25.0804 21.8721 25.0772V25.0772ZM21.8721 40.9803C20.4367 40.9786 19.0607 40.4054 18.0457 39.3865C17.0307 38.3677 16.4598 36.9863 16.4581 35.5453C16.4581 35.2818 16.5624 35.029 16.748 34.8427C16.9337 34.6563 17.1854 34.5516 17.448 34.5516C17.7105 34.5516 17.9623 34.6563 18.1479 34.8427C18.3336 35.029 18.4378 35.2818 18.4378 35.5453C18.438 36.2272 18.6395 36.8937 19.017 37.4605C19.3944 38.0274 19.9308 38.4691 20.5584 38.73C21.1859 38.9908 21.8764 39.059 22.5425 38.9259C23.2087 38.7928 23.8205 38.4644 24.3008 37.9822C24.781 37.5 25.108 36.8857 25.2405 36.217C25.3729 35.5483 25.3049 34.8551 25.0449 34.2252C24.785 33.5953 24.3448 33.0569 23.78 32.6781C23.2153 32.2993 22.5513 32.0971 21.8721 32.0971C21.6102 32.0962 21.3594 31.9911 21.1745 31.8048C20.9896 31.6186 20.8858 31.3664 20.8858 31.1034C20.8858 30.8405 20.9896 30.5883 21.1745 30.4021C21.3594 30.2158 21.6102 30.1107 21.8721 30.1098C23.3066 30.112 24.6816 30.6856 25.6952 31.7047C26.7087 32.7238 27.278 34.1049 27.278 35.545C27.278 36.985 26.7087 38.3662 25.6952 39.3853C24.6816 40.4044 23.3066 40.978 21.8721 40.9802V40.9803Z" fill="#1F282C"/>
<path d="M98.3854 24.084C96.1273 24.084 93.9198 24.7561 92.0423 26.0155C90.1647 27.2749 88.7013 29.0649 87.8371 31.1591C86.973 33.2534 86.7468 35.5579 87.1874 37.7812C87.6279 40.0045 88.7152 42.0467 90.312 43.6496C91.9087 45.2525 93.943 46.3441 96.1578 46.7864C98.3725 47.2286 100.668 47.0017 102.754 46.1342C104.841 45.2667 106.624 43.7977 107.878 41.9129C109.133 40.0281 109.803 37.8122 109.803 35.5454C109.803 32.5056 108.6 29.5904 106.459 27.441C104.317 25.2916 101.413 24.084 98.3854 24.084ZM98.3854 39.9867C97.5103 39.9867 96.6549 39.7262 95.9273 39.2382C95.1997 38.7501 94.6326 38.0565 94.2977 37.2449C93.9628 36.4333 93.8752 35.5403 94.0459 34.6787C94.2167 33.8171 94.6381 33.0257 95.2568 32.4046C95.8756 31.7834 96.664 31.3604 97.5222 31.1891C98.3805 31.0177 99.2701 31.1057 100.079 31.4419C100.887 31.7781 101.578 32.3474 102.064 33.0778C102.55 33.8082 102.81 34.667 102.81 35.5454C102.81 36.7233 102.343 37.8529 101.514 38.6858C100.684 39.5187 99.5587 39.9866 98.3854 39.9867Z" fill="#3DAFCC"/>
<path d="M98.3853 48.0002C95.9313 48.0002 93.5325 47.2698 91.492 45.9012C89.4516 44.5327 87.8613 42.5874 86.9222 40.3116C85.9831 38.0357 85.7373 35.5313 86.2161 33.1152C86.6948 30.6991 87.8765 28.4798 89.6117 26.7379C91.3469 24.996 93.5577 23.8097 95.9645 23.3292C98.3713 22.8486 100.866 23.0953 103.133 24.038C105.4 24.9807 107.338 26.5772 108.701 28.6255C110.065 30.6738 110.792 33.0819 110.792 35.5453C110.789 38.8475 109.48 42.0133 107.154 44.3482C104.828 46.6832 101.675 47.9965 98.3853 48.0002ZM98.3853 25.0772C96.3229 25.0772 94.3069 25.691 92.592 26.8412C90.8772 27.9914 89.5406 29.6262 88.7513 31.5389C87.962 33.4516 87.7555 35.5563 88.1577 37.5869C88.56 39.6174 89.5531 41.4826 91.0114 42.9466C92.4696 44.4106 94.3276 45.4076 96.3504 45.8116C98.3731 46.2155 100.47 46.0083 102.375 45.2161C104.281 44.4239 105.909 43.0822 107.055 41.3609C108.201 39.6395 108.812 37.6157 108.813 35.5453C108.81 32.7701 107.71 30.1093 105.755 28.1468C103.8 26.1844 101.15 25.0804 98.3853 25.0772V25.0772ZM98.3853 40.9803C96.9499 40.9786 95.5738 40.4054 94.5589 39.3865C93.5439 38.3677 92.973 36.9863 92.9713 35.5453C92.9708 35.4145 92.9961 35.2849 93.0456 35.164C93.0951 35.043 93.168 34.933 93.2599 34.8404C93.3519 34.7477 93.4612 34.6742 93.5815 34.624C93.7018 34.5738 93.8308 34.548 93.9611 34.548C94.0914 34.548 94.2205 34.5738 94.3408 34.624C94.4611 34.6742 94.5704 34.7477 94.6624 34.8404C94.7543 34.933 94.8272 35.043 94.8767 35.164C94.9262 35.2849 94.9515 35.4145 94.951 35.5453C94.9512 36.2272 95.1527 36.8936 95.5301 37.4605C95.9076 38.0274 96.444 38.4691 97.0715 38.73C97.6991 38.9908 98.3896 39.059 99.0557 38.9259C99.7219 38.7928 100.334 38.4644 100.814 37.9822C101.294 37.5 101.621 36.8857 101.754 36.217C101.886 35.5483 101.818 34.8551 101.558 34.2252C101.298 33.5953 100.858 33.0569 100.293 32.6781C99.7285 32.2993 99.0645 32.0971 98.3853 32.0971C98.255 32.0976 98.1259 32.0723 98.0054 32.0225C97.8849 31.9728 97.7753 31.8997 97.683 31.8074C97.5907 31.7151 97.5175 31.6054 97.4675 31.4846C97.4175 31.3638 97.3918 31.2342 97.3918 31.1034C97.3918 30.9726 97.4175 30.8431 97.4675 30.7223C97.5175 30.6015 97.5907 30.4918 97.683 30.3995C97.7753 30.3072 97.8849 30.2341 98.0054 30.1843C98.1259 30.1346 98.255 30.1093 98.3853 30.1098C99.8198 30.112 101.195 30.6856 102.208 31.7047C103.222 32.7238 103.791 34.1049 103.791 35.545C103.791 36.985 103.222 38.3662 102.208 39.3853C101.195 40.4044 99.8198 40.978 98.3853 40.9802V40.9803Z" fill="#1F282C"/>
<path d="M11.098 16.1182C10.8354 16.1182 10.5837 16.0135 10.398 15.8271C10.2124 15.6408 10.1081 15.388 10.1081 15.1245C10.1081 14.8609 10.2124 14.6082 10.398 14.4218C10.5837 14.2355 10.8354 14.1308 11.098 14.1308C20.4271 14.1308 22.4287 13.086 25.1992 11.6394C25.7638 11.3444 26.3579 11.0352 27.0398 10.715C28.4163 10.0693 29.7999 9.40492 31.1849 8.7399C33.9264 7.42339 36.762 6.06159 39.5228 4.86216C43.8251 2.99317 52.0445 2.99317 55.1391 2.99317C55.2694 2.99269 55.3985 3.01804 55.519 3.06777C55.6395 3.11749 55.7491 3.19061 55.8414 3.28293C55.9337 3.37525 56.0069 3.48496 56.0569 3.60575C56.1069 3.72655 56.1326 3.85606 56.1326 3.98686C56.1326 4.11766 56.1069 4.24718 56.0569 4.36797C56.0069 4.48877 55.9337 4.59848 55.8414 4.6908C55.7491 4.78312 55.6395 4.85624 55.519 4.90596C55.3985 4.95568 55.2694 4.98103 55.1391 4.98056C52.1566 4.98056 44.235 4.98056 40.309 6.68652C37.5823 7.87102 34.7642 9.22376 32.0394 10.5325C30.6487 11.2008 29.2599 11.8678 27.8775 12.516C27.2235 12.8227 26.6544 13.1197 26.1124 13.4023C23.0931 14.9789 20.911 16.1182 11.098 16.1182Z" fill="#1F282C"/>
<path d="M81.9955 20.846C81.9554 20.8459 81.9154 20.8435 81.8756 20.8389L42.9456 16.1104C42.7817 16.0905 42.6254 16.0298 42.4909 15.9337C42.3564 15.8377 42.248 15.7094 42.1755 15.5606C42.103 15.4117 42.0687 15.247 42.0758 15.0815C42.0829 14.9159 42.1311 14.7548 42.2161 14.6128L44.1939 11.3005C46.137 8.05411 48.8183 5.31576 52.0182 3.3095C52.1423 3.23171 52.2821 3.18265 52.4274 3.16589C53.3273 3.05572 54.2327 2.99805 55.1392 2.99316H61.9221C66.1829 2.99346 70.3634 4.1565 74.0165 6.35788L88.8144 14.246C89.0095 14.35 89.1643 14.5165 89.2542 14.7191C89.3441 14.9216 89.364 15.1485 89.3106 15.3637C89.2573 15.5789 89.1338 15.77 88.9598 15.9066C88.7858 16.0432 88.5713 16.1175 88.3504 16.1176H87.9309C86.3635 16.1176 83.8676 18.1761 82.8919 20.2729C82.8121 20.444 82.6855 20.5888 82.5267 20.6903C82.368 20.7918 82.1837 20.8458 81.9955 20.846ZM44.6979 14.321L81.4361 18.7836C82.4257 17.0923 83.8562 15.7039 85.5735 14.7681L73.0428 8.08779C69.6858 6.05744 65.8413 4.98325 61.9221 4.98055H55.1392C54.3834 4.9844 53.6283 5.02932 52.8772 5.11511C50.0256 6.94382 47.6347 9.41082 45.892 12.3226L44.6979 14.321Z" fill="#1F282C"/>
<path d="M67.1569 36.0092H37.971C37.8407 36.0097 37.7116 35.9843 37.5911 35.9346C37.4705 35.8849 37.361 35.8118 37.2687 35.7195C37.1764 35.6271 37.1031 35.5174 37.0532 35.3966C37.0032 35.2758 36.9775 35.1463 36.9775 35.0155C36.9775 34.8847 37.0032 34.7552 37.0532 34.6344C37.1031 34.5136 37.1764 34.4039 37.2687 34.3116C37.361 34.2193 37.4705 34.1461 37.5911 34.0964C37.7116 34.0467 37.8407 34.0214 37.971 34.0218H67.1569C68.7955 34.0256 70.4086 33.6141 71.8467 32.8254C73.2847 32.0367 74.5012 30.8964 75.3833 29.5101L78.7467 24.2512C78.8888 24.0299 79.1126 23.8743 79.3689 23.8185C79.6251 23.7627 79.893 23.8112 80.1137 23.9534C80.3344 24.0956 80.4899 24.3199 80.546 24.5771C80.6022 24.8342 80.5544 25.1033 80.4132 25.3251L77.0498 30.5841C75.9888 32.251 74.5259 33.6221 72.7966 34.5705C71.0672 35.5188 69.1274 36.0137 67.1569 36.0092Z" fill="#1F282C"/>
<path d="M8.88228 15.1226L5.49722 7.71456C7.27193 7.79316 9.04967 7.76945 10.8217 7.64355L16.4916 14.9295C15.1832 15.0592 13.1374 15.1227 8.88228 15.1226Z" fill="#CEEAF2"/>
<path d="M10.0224 8.70914H5.98429C4.5224 8.70753 3.12084 8.12383 2.08713 7.08613C1.05342 6.04843 0.471973 4.64147 0.470367 3.17394V0.994405C0.470341 0.853103 0.500332 0.71342 0.55834 0.584676C0.616348 0.455931 0.701039 0.341085 0.806763 0.247799C0.911895 0.153693 1.03612 0.0836165 1.17087 0.0424089C1.30561 0.00120123 1.44766 -0.0101552 1.5872 0.00912393L14.6734 1.70675C14.912 1.73766 15.1311 1.85473 15.29 2.03606C15.4488 2.2174 15.5364 2.45059 15.5363 2.69204C15.584 3.45429 15.4775 4.21834 15.2234 4.93822C14.9693 5.65811 14.5728 6.31897 14.0577 6.88106C13.5426 7.44315 12.9196 7.89486 12.2261 8.20901C11.5327 8.52317 10.7831 8.69329 10.0224 8.70914ZM2.45012 2.12461V3.17394C2.45114 4.11456 2.82381 5.01636 3.48638 5.68148C4.14894 6.3466 5.04728 6.72072 5.98429 6.72174H10.0224C10.8854 6.7107 11.7144 6.38243 12.3525 5.79908C12.9906 5.21574 13.3936 4.41779 13.4851 3.55628L2.45012 2.12461Z" fill="#1F282C"/>
<path d="M8.94632 16.1157C8.74727 16.122 8.55063 16.0707 8.37981 15.9679C8.209 15.8651 8.07121 15.7153 7.98286 15.5361L4.59757 8.12801C4.52722 7.97435 4.49717 7.8052 4.51025 7.63661C4.52333 7.46801 4.57912 7.30558 4.67233 7.16471C4.76375 7.02196 4.89093 6.90583 5.04113 6.82794C5.19133 6.75005 5.35927 6.71315 5.52815 6.72092C7.20842 6.80639 8.89222 6.79343 10.571 6.68211C10.7581 6.63656 10.9542 6.6452 11.1366 6.70704C11.319 6.76887 11.4802 6.88136 11.6015 7.03145L17.2713 14.3173C17.3805 14.4574 17.4502 14.6245 17.4732 14.8009C17.4961 14.9774 17.4714 15.1568 17.4016 15.3204C17.3319 15.484 17.2197 15.6258 17.0767 15.731C16.9338 15.8362 16.7653 15.9009 16.5889 15.9184C15.1711 16.0582 12.9542 16.1157 8.94632 16.1157ZM7.05744 8.74454L9.51731 14.1277C11.7284 14.1245 13.3421 14.1025 14.5556 14.0559L10.386 8.69795C9.52052 8.76394 8.16976 8.76266 7.05744 8.74454Z" fill="#1F282C"/>
<path d="M116.787 42.7047H108.686C108.424 42.7047 108.172 42.6 107.986 42.4137C107.801 42.2273 107.696 41.9746 107.696 41.711C107.696 41.4475 107.801 41.1947 107.986 41.0084C108.172 40.822 108.424 40.7173 108.686 40.7173H115.798V35.1841C115.798 25.1022 109.653 19.2849 97.0132 17.3998L86.5202 16.1085C86.3911 16.0926 86.2665 16.0513 86.1533 15.9871C86.0401 15.9228 85.9406 15.8368 85.8606 15.734C85.7805 15.6311 85.7214 15.5135 85.6866 15.3877C85.6519 15.2619 85.6421 15.1305 85.6579 15.0009C85.6738 14.8714 85.7148 14.7462 85.7789 14.6326C85.8429 14.519 85.9285 14.4191 86.031 14.3387C86.1334 14.2584 86.2507 14.199 86.376 14.1641C86.5013 14.1292 86.6322 14.1194 86.7612 14.1353L97.2793 15.4305C110.889 17.4599 117.777 24.1046 117.777 35.1841V41.711C117.777 41.9745 117.673 42.2272 117.487 42.4136C117.302 42.5999 117.05 42.7046 116.787 42.7047Z" fill="#1F282C"/>
<path d="M89.0258 42.7061H31.495C31.2325 42.7061 30.9807 42.6015 30.7951 42.4151C30.6094 42.2287 30.5051 41.976 30.5051 41.7124C30.5051 41.4489 30.6094 41.1962 30.7951 41.0098C30.9807 40.8234 31.2325 40.7188 31.495 40.7188H89.0258C89.2883 40.7188 89.5401 40.8234 89.7257 41.0098C89.9114 41.1962 90.0157 41.4489 90.0157 41.7124C90.0157 41.976 89.9114 42.2287 89.7257 42.4151C89.5401 42.6015 89.2883 42.7061 89.0258 42.7061Z" fill="#1F282C"/>
<path d="M11.4719 41.8912C11.3451 41.8912 11.2196 41.8668 11.102 41.8194C11.0871 41.8221 10.7958 41.7632 10.4949 41.7004C10.1638 41.65 9.83726 41.5727 9.51855 41.4694C6.69634 40.277 4.28759 38.2748 2.59429 35.7138C0.900998 33.1528 -0.00148222 30.1469 1.82735e-06 27.0732V19.9685C0.00183401 18.4206 0.615197 16.9366 1.70554 15.842C2.79589 14.7475 4.2742 14.1317 5.81618 14.1299H11.0981C11.2284 14.1294 11.3575 14.1548 11.478 14.2045C11.5985 14.2542 11.7081 14.3273 11.8004 14.4197C11.8927 14.512 11.9659 14.6217 12.0159 14.7425C12.0659 14.8633 12.0916 14.9928 12.0916 15.1236C12.0916 15.2544 12.0659 15.3839 12.0159 15.5047C11.9659 15.6255 11.8927 15.7352 11.8004 15.8275C11.7081 15.9198 11.5985 15.993 11.478 16.0427C11.3575 16.0924 11.2284 16.1178 11.0981 16.1173H5.81618C4.79902 16.1183 3.82381 16.5244 3.10457 17.2464C2.38532 17.9684 1.9808 18.9474 1.97975 19.9685V27.0732C1.97828 29.755 2.76532 32.3777 4.24222 34.6124C5.71912 36.8472 7.8202 38.5948 10.2822 39.636C10.4829 39.6597 10.6817 39.698 10.877 39.7505C11.3487 39.8482 11.7934 39.9562 11.8417 39.9757C12.055 40.0619 12.2317 40.2199 12.3415 40.4226C12.4514 40.6253 12.4875 40.8601 12.4438 41.0866C12.4 41.3132 12.2791 41.5174 12.1018 41.6642C11.9244 41.811 11.7017 41.8913 11.4718 41.8912H11.4719Z" fill="#1F282C"/>
<path d="M119.01 42.7061H113.646C113.384 42.7061 113.132 42.6015 112.946 42.4151C112.761 42.2287 112.656 41.976 112.656 41.7124C112.656 41.4489 112.761 41.1962 112.946 41.0098C113.132 40.8234 113.384 40.7188 113.646 40.7188H119.01C119.273 40.7188 119.524 40.8234 119.71 41.0098C119.896 41.1962 120 41.4489 120 41.7124C120 41.976 119.896 42.2287 119.71 42.4151C119.524 42.6015 119.273 42.7061 119.01 42.7061Z" fill="#1F282C"/>
</svg>
