<svg width="59" height="67" viewBox="0 0 59 67" fill="none" xmlns="http://www.w3.org/2000/svg">
<path d="M37.882 23.1758H33.4469V43.2157L37.882 38.2879V23.1758Z" fill="#CEEAF2"/>
<path d="M19.4846 63.2546L34.761 65.7186L50.5301 63.7474C51.8442 63.5832 52.8298 62.9261 53.4869 61.7763L55.7865 57.6697L57.5934 53.5632C58.2505 52.2491 57.4292 50.6065 55.9508 50.2779C54.801 49.9494 53.4868 50.6065 52.994 51.7563L50.3659 57.6697C49.7088 58.9838 48.2304 59.8051 46.7521 59.8051H19.4846V63.2546Z" fill="#CEEAF2"/>
<path d="M36.7321 1H30.1617C26.5479 1 23.5912 3.95672 23.5912 7.57048V16.6049C23.5912 20.2187 26.5479 23.1754 30.1617 23.1754H36.7321C40.3459 23.1754 43.3026 20.2187 43.3026 16.6049V7.57048C43.3026 3.95672 40.3459 1 36.7321 1ZM39.1961 16.6049C39.1961 17.919 38.0462 19.0688 36.7321 19.0688H30.1617C28.8476 19.0688 27.6977 17.919 27.6977 16.6049V13.9767H39.3603V16.6049H39.1961ZM39.1961 10.1987H27.5334V7.57048C27.5334 6.25638 28.6832 5.10655 29.9973 5.10655H36.5678C37.8819 5.10655 39.0318 6.25638 39.0318 7.57048V10.1987H39.1961Z" fill="#3DAFCC"/>
<path d="M10.1217 47.9785H0.923035V65.3903H10.1217V47.9785Z" fill="#3DAFCC"/>
<path d="M10.1217 47.9785H0.923035V65.3903H10.1217V47.9785Z" stroke="#1F282C" stroke-miterlimit="10" stroke-linecap="round" stroke-linejoin="round"/>
<path d="M19.4846 48.9648H10.2859V65.2268H19.4846V48.9648Z" stroke="#1F282C" stroke-miterlimit="10" stroke-linecap="round" stroke-linejoin="round"/>
<path d="M19.4846 51.1001C19.4846 48.6362 22.4413 46.665 25.398 46.665H27.8619C29.8331 46.665 32.2971 48.1434 33.4469 50.1145H39.3603C41.0029 50.1145 42.1528 51.4286 42.1528 52.907V54.5496C42.1528 55.2067 41.66 55.5352 41.1672 55.5352H30.1617" stroke="#1F282C" stroke-miterlimit="10" stroke-linecap="round" stroke-linejoin="round"/>
<path d="M50.3659 57.8351L52.1727 53.7285C52.6655 52.4144 52.1727 51.1004 50.8586 50.4433C49.5445 49.9505 48.2305 50.4433 47.5734 51.7574L44.9453 57.8351" stroke="#1F282C" stroke-miterlimit="10" stroke-linecap="round" stroke-linejoin="round"/>
<path d="M50.3659 57.8348L52.994 51.9213C53.4868 50.7715 54.6367 50.1144 55.9508 50.443C57.4292 50.7715 58.2505 52.4141 57.5934 53.7282L55.7865 57.8348L53.4869 61.9413C52.8298 63.0911 51.8442 63.7482 50.5301 63.9125L34.761 65.8836L19.4846 63.4197" stroke="#1F282C" stroke-miterlimit="10" stroke-linecap="round" stroke-linejoin="round"/>
<path d="M39.6888 55.6992V57.8346" stroke="#1F282C" stroke-miterlimit="10" stroke-linecap="round" stroke-linejoin="round"/>
<path d="M44.9452 57.8351L46.7521 53.7285C47.2449 52.4144 46.7521 51.1004 45.438 50.4433C44.1239 49.9505 42.8098 50.4433 42.1527 51.7574L41.9885 52.0859" stroke="#1F282C" stroke-miterlimit="10" stroke-linecap="round" stroke-linejoin="round"/>
<path d="M50.3659 57.834H39.6888" stroke="#1F282C" stroke-miterlimit="10" stroke-linecap="round" stroke-linejoin="round"/>
<path d="M13.5712 5.76367V7.57055" stroke="#1F282C" stroke-miterlimit="10" stroke-linecap="round" stroke-linejoin="round"/>
<path d="M13.5712 12.498V14.3049" stroke="#1F282C" stroke-miterlimit="10" stroke-linecap="round" stroke-linejoin="round"/>
<path d="M17.842 10.0342H16.0351" stroke="#1F282C" stroke-miterlimit="10" stroke-linecap="round" stroke-linejoin="round"/>
<path d="M11.1072 10.0352H9.30035" stroke="#1F282C" stroke-miterlimit="10" stroke-linecap="round" stroke-linejoin="round"/>
<path d="M18.0063 32.0459V33.6885" stroke="#1F282C" stroke-miterlimit="10" stroke-linecap="round" stroke-linejoin="round"/>
<path d="M18.0063 35.4951V37.1377" stroke="#1F282C" stroke-miterlimit="10" stroke-linecap="round" stroke-linejoin="round"/>
<path d="M20.6346 34.6729H18.9919" stroke="#1F282C" stroke-miterlimit="10" stroke-linecap="round" stroke-linejoin="round"/>
<path d="M17.185 34.6729H15.5424" stroke="#1F282C" stroke-miterlimit="10" stroke-linecap="round" stroke-linejoin="round"/>
<path d="M52.5013 10.8555V12.4981" stroke="#1F282C" stroke-miterlimit="10" stroke-linecap="round" stroke-linejoin="round"/>
<path d="M52.5013 14.3047V16.1116" stroke="#1F282C" stroke-miterlimit="10" stroke-linecap="round" stroke-linejoin="round"/>
<path d="M55.1295 13.4824H53.3226" stroke="#1F282C" stroke-miterlimit="10" stroke-linecap="round" stroke-linejoin="round"/>
<path d="M51.68 13.4824H49.8731" stroke="#1F282C" stroke-miterlimit="10" stroke-linecap="round" stroke-linejoin="round"/>
<path d="M50.0374 35.9883V37.6309" stroke="#1F282C" stroke-miterlimit="10" stroke-linecap="round" stroke-linejoin="round"/>
<path d="M50.0374 42.7217V44.3643" stroke="#1F282C" stroke-miterlimit="10" stroke-linecap="round" stroke-linejoin="round"/>
<path d="M54.3082 40.0947H52.5013" stroke="#1F282C" stroke-miterlimit="10" stroke-linecap="round" stroke-linejoin="round"/>
<path d="M47.5734 40.0947H45.7665" stroke="#1F282C" stroke-miterlimit="10" stroke-linecap="round" stroke-linejoin="round"/>
<path d="M36.7321 23.1754H30.1617C26.5479 23.1754 23.5912 20.2187 23.5912 16.6049V7.57048C23.5912 3.95672 26.5479 1 30.1617 1H36.7321C40.3459 1 43.3026 3.95672 43.3026 7.57048V16.6049C43.3026 20.2187 40.3459 23.1754 36.7321 23.1754Z" stroke="#1F282C" stroke-miterlimit="10" stroke-linecap="round" stroke-linejoin="round"/>
<path d="M37.882 38.2879L33.4469 43.2157L29.0118 38.2879V23.1758H37.882V38.2879Z" stroke="#1F282C" stroke-miterlimit="10" stroke-linecap="round" stroke-linejoin="round"/>
<path d="M33.4469 43.215V27.7744" stroke="#1F282C" stroke-miterlimit="10" stroke-linecap="round" stroke-linejoin="round"/>
<path d="M36.7321 5.10645H30.1616C28.8475 5.10645 27.6977 6.25628 27.6977 7.57038V10.1986H39.3603V7.57038C39.196 6.25628 38.0462 5.10645 36.7321 5.10645Z" stroke="#1F282C" stroke-miterlimit="10" stroke-linecap="round" stroke-linejoin="round"/>
<path d="M36.7321 19.0697H30.1616C28.8475 19.0697 27.6977 17.9198 27.6977 16.6057V13.9775H39.3603V16.6057C39.196 17.9198 38.0462 19.0697 36.7321 19.0697Z" stroke="#1F282C" stroke-miterlimit="10" stroke-linecap="round" stroke-linejoin="round"/>
</svg>
