<svg width="66" height="61" viewBox="0 0 66 61" fill="none" xmlns="http://www.w3.org/2000/svg">
<path d="M52.2874 49.0158V44.2522L56.5581 41.7883H64.9355C63.1286 37.5175 58.6936 34.3965 53.7658 34.3965C49.4949 34.3965 45.7168 36.5319 43.5814 39.9814H36.5182V53.6151H43.5814C45.7168 56.9004 49.4949 59.2001 53.7658 59.2001C58.8579 59.2001 63.1286 56.2433 64.9355 51.8083H56.5581L52.2874 49.0158Z" fill="#CEEAF2"/>
<path d="M22.7202 0.722656H14.8356C12.2074 0.722656 9.90771 2.85806 9.90771 5.65052V10.0856C9.90771 13.8636 13.0288 16.8203 16.8068 16.8203H20.7492C24.5272 16.8203 27.6481 13.8636 27.6481 10.0856V5.48626C27.6481 2.85806 25.5127 0.722656 22.7202 0.722656Z" fill="#3DAFCC"/>
<path d="M7.6081 43.4316H1.20184C1.20184 43.4316 -0.769268 34.7257 7.6081 34.7257L14.3428 31.4404L18.7778 38.668L23.213 31.4404L29.9477 34.7257C29.9477 34.7257 35.5325 34.0686 36.1895 39.8178V43.4316H29.7835V52.9588H16.1496L11.5502 50.8233L7.11523 52.9588V43.4316H7.6081Z" fill="#3DAFCC"/>
<path d="M18.7779 28.6484C13.85 28.6484 9.90771 24.7061 9.90771 19.7782V5.48743C9.90771 2.85924 12.0431 0.55957 14.8356 0.55957H22.7202C25.3484 0.55957 27.6481 2.69498 27.6481 5.48743V19.7782C27.6481 24.7061 23.7058 28.6484 18.7779 28.6484Z" stroke="#1F282C" stroke-miterlimit="10" stroke-linecap="round" stroke-linejoin="round"/>
<path d="M9.49996 14H10V21H9.49996C7.66663 21 6 19.5 6 17.5C6 15.5 7.49996 14 9.49996 14Z" stroke="#1F282C" stroke-miterlimit="10" stroke-linecap="round" stroke-linejoin="round"/>
<path d="M28.1266 14.043H27.6482V20.942H28.1266C29.9335 20.942 31.5761 19.4636 31.5761 17.4925C31.5761 15.5213 29.9335 14.043 28.1266 14.043Z" stroke="#1F282C" stroke-miterlimit="10" stroke-linecap="round" stroke-linejoin="round"/>
<path d="M20.7492 16.8219H16.8068C13.0288 16.8219 9.90771 13.7009 9.90771 9.92285H27.6481C27.6481 13.7009 24.5272 16.8219 20.7492 16.8219Z" stroke="#1F282C" stroke-miterlimit="10" stroke-linecap="round" stroke-linejoin="round"/>
<path d="M13.2312 17.9233C13.2312 17.9233 13.718 17.4525 14.309 17.4906C14.9 17.5288 15.1465 17.9555 15.1465 17.9555" stroke="#1F282C" stroke-miterlimit="10" stroke-linecap="round" stroke-linejoin="round"/>
<path d="M24.4744 18.0873C24.4744 18.0873 24.0767 17.5392 23.488 17.4741C22.8993 17.409 22.5825 17.7864 22.5825 17.7864" stroke="#1F282C" stroke-miterlimit="10" stroke-linecap="round" stroke-linejoin="round"/>
<path d="M18.6138 16.8223L17.4641 20.1075H19.7636" stroke="#1F282C" stroke-miterlimit="10" stroke-linecap="round" stroke-linejoin="round"/>
<path d="M16.4783 23.5566C16.4783 23.5566 17.4639 24.5422 18.778 24.5422C20.0921 24.5422 21.0777 23.5566 21.0777 23.5566" stroke="#1F282C" stroke-miterlimit="10" stroke-linecap="round" stroke-linejoin="round"/>
<path d="M18.778 28.6489C17.1353 28.6489 15.6571 28.1561 14.343 27.499V31.4413L18.778 38.6688L23.2131 31.4413V27.499C21.8991 28.3203 20.4206 28.6489 18.778 28.6489Z" stroke="#1F282C" stroke-miterlimit="10" stroke-linecap="round" stroke-linejoin="round"/>
<path d="M30.7692 34.7257H30.1121L26.8268 33.4116L23.3774 31.4404L18.9422 38.668L14.5072 31.4404L11.0577 33.4116L7.77249 34.7257H7.11541C3.99443 34.7257 1.53046 37.1896 1.53046 40.3106V57.3938C1.53046 58.8722 2.84467 60.1863 4.32303 60.1863H33.8902C35.3686 60.1863 36.6826 58.8722 36.6826 57.3938V40.3106C36.354 37.1896 33.8902 34.7257 30.7692 34.7257Z" stroke="#1F282C" stroke-miterlimit="10" stroke-linecap="round" stroke-linejoin="round"/>
<path d="M10.8935 33.4121L15.3285 42.2823L18.778 38.6685" stroke="#1F282C" stroke-miterlimit="10" stroke-linecap="round" stroke-linejoin="round"/>
<path d="M26.8269 33.4121L22.3919 42.2823L18.778 38.6685V52.9593" stroke="#1F282C" stroke-miterlimit="10" stroke-linecap="round" stroke-linejoin="round"/>
<path d="M7.60828 34.7256V52.9587" stroke="#1F282C" stroke-miterlimit="10" stroke-linecap="round" stroke-linejoin="round"/>
<path d="M1.20197 43.4316H7.60822" stroke="#1F282C" stroke-miterlimit="10" stroke-linecap="round" stroke-linejoin="round"/>
<path d="M30.1122 34.7256V52.9587H16.4783L12.0433 50.8233L7.60834 52.9587L10.0723 60.1862" stroke="#1F282C" stroke-miterlimit="10" stroke-linecap="round" stroke-linejoin="round"/>
<path d="M36.3542 43.4316H30.1121" stroke="#1F282C" stroke-miterlimit="10" stroke-linecap="round" stroke-linejoin="round"/>
<path d="M23.3774 48.0322V49.3463" stroke="#1F282C" stroke-miterlimit="10" stroke-linecap="round" stroke-linejoin="round"/>
<path d="M51.4661 39.4902C48.3452 40.4758 46.0454 43.2683 46.0454 46.7178C46.0454 50.1673 48.3452 52.9597 51.4661 53.9453" stroke="#1F282C" stroke-miterlimit="10" stroke-linecap="round" stroke-linejoin="round"/>
<path d="M52.2875 49.0158V44.2522L56.5583 41.7883H64.9356C63.1287 37.5175 58.6937 34.3965 53.7659 34.3965C49.4951 34.3965 45.7169 36.5319 43.5815 39.9814H36.5184V53.6151H43.5815C45.7169 56.9004 49.4951 59.2001 53.7659 59.2001C58.858 59.2001 63.1287 56.2433 64.9356 51.8083H56.5583L52.2875 49.0158Z" stroke="#1F282C" stroke-miterlimit="10" stroke-linecap="round" stroke-linejoin="round"/>
<path d="M60.6648 49.0166V44.253L56.5582 41.7891L52.2875 44.253V49.0166L56.5582 51.4805L60.6648 49.0166Z" stroke="#1F282C" stroke-miterlimit="10" stroke-linecap="round" stroke-linejoin="round"/>
<path d="M52.2875 44.252L60.6648 49.0156" stroke="#1F282C" stroke-miterlimit="10" stroke-linecap="round" stroke-linejoin="round"/>
<path d="M41.4462 46.7182C41.4462 45.7327 41.6104 44.7471 41.7747 43.9258H36.3541V49.5107H41.7747C41.6104 48.5251 41.4462 47.7038 41.4462 46.7182Z" stroke="#1F282C" stroke-miterlimit="10" stroke-linecap="round" stroke-linejoin="round"/>
</svg>
