<svg width="91" height="92" viewBox="0 0 91 92" fill="none" xmlns="http://www.w3.org/2000/svg">
<path d="M82.9293 84.5643H81.7031V90.2866C86.1992 90.2866 89.8778 86.608 89.8778 82.1119V77.8202C89.8778 81.4988 86.8123 84.5643 82.9293 84.5643Z" fill="#3DAFCC"/>
<path d="M89.8778 72.3021V57.3833C87.4254 52.8872 81.7031 50.4348 81.7031 50.4348V65.3536H82.9293C86.8123 65.558 89.8778 68.6235 89.8778 72.3021Z" fill="#3DAFCC"/>
<path d="M8.94848 65.5581H10.1747V55.9528L68.4193 43.2821L61.6752 41.2384L58.2009 45.5301L40.2166 49.2087C33.2682 47.5738 30.407 41.2384 30.407 41.2384C14.0577 44.3039 2 57.5878 2 57.5878V72.5065C2 68.6236 5.06551 65.5581 8.94848 65.5581Z" fill="#3DAFCC"/>
<path d="M8.94848 84.5643C5.06551 84.5643 2 81.4988 2 77.8202V82.1119C2 86.608 5.67861 90.2866 10.1747 90.2866V84.7687H8.94848V84.5643Z" fill="#3DAFCC"/>
<path d="M69.6455 61.8796H22.2323V83.9513H69.6455V61.8796Z" fill="#CEEAF2"/>
<path d="M81.7031 65.5583V55.953H10.1747V65.5583" stroke="#1F282C" stroke-width="2.04367" stroke-miterlimit="10" stroke-linecap="round" stroke-linejoin="round"/>
<path d="M10.1747 84.5643V90.2866H81.7031V84.5643" stroke="#1F282C" stroke-width="2.04367" stroke-miterlimit="10" stroke-linecap="round" stroke-linejoin="round"/>
<path d="M14.262 90.2866H81.7031V84.5643" stroke="#1F282C" stroke-width="2.04367" stroke-miterlimit="10" stroke-linecap="round" stroke-linejoin="round"/>
<path d="M69.6455 84.1558H22.2323V90.2868H69.6455V84.1558Z" stroke="#1F282C" stroke-width="2.04367" stroke-miterlimit="10" stroke-linecap="round" stroke-linejoin="round"/>
<path d="M32.0419 83.7469C33.8478 83.7469 35.3118 82.2829 35.3118 80.477C35.3118 78.6711 33.8478 77.2072 32.0419 77.2072C30.236 77.2072 28.772 78.6711 28.772 80.477C28.772 82.2829 30.236 83.7469 32.0419 83.7469Z" fill="#CEEAF2"/>
<path d="M60.0402 83.7469C61.8461 83.7469 63.3101 82.2829 63.3101 80.477C63.3101 78.6711 61.8461 77.2072 60.0402 77.2072C58.2343 77.2072 56.7703 78.6711 56.7703 80.477C56.7703 82.2829 58.2343 83.7469 60.0402 83.7469Z" fill="#CEEAF2"/>
<path d="M66.9887 72.9154H65.5581C64.3319 72.9154 63.1057 72.3023 62.0839 71.6892C61.2664 71.2805 60.4489 70.6674 59.6315 70.2587C59.6315 70.2587 59.6315 70.2587 59.4271 70.2587L59.2227 70.6674L55.7485 72.9154H29.9982C25.9109 72.9154 22.8454 76.1853 22.8454 80.0683H28.9764C29.1808 78.4333 30.6113 77.2071 32.2463 77.2071C33.8812 77.2071 35.3118 78.4333 35.5161 80.0683H56.7703C56.9747 78.4333 58.4053 77.2071 60.0402 77.2071C61.6751 77.2071 63.1057 78.4333 63.3101 80.0683H66.3756L68.828 78.8421V74.7547C68.828 73.5285 68.2149 72.9154 66.9887 72.9154Z" fill="#3DAFCC"/>
<path d="M32.0419 83.7469C33.8478 83.7469 35.3118 82.2829 35.3118 80.477C35.3118 78.6711 33.8478 77.2072 32.0419 77.2072C30.236 77.2072 28.772 78.6711 28.772 80.477C28.772 82.2829 30.236 83.7469 32.0419 83.7469Z" stroke="#1F282C" stroke-width="2.04367" stroke-miterlimit="10" stroke-linecap="round" stroke-linejoin="round"/>
<path d="M60.0402 83.7469C61.8461 83.7469 63.3101 82.2829 63.3101 80.477C63.3101 78.6711 61.8461 77.2072 60.0402 77.2072C58.2343 77.2072 56.7703 78.6711 56.7703 80.477C56.7703 82.2829 58.2343 83.7469 60.0402 83.7469Z" stroke="#1F282C" stroke-width="2.04367" stroke-miterlimit="10" stroke-linecap="round" stroke-linejoin="round"/>
<path d="M48.3913 68.0106V76.7984L46.3476 80.0683" stroke="#1F282C" stroke-width="2.04367" stroke-miterlimit="10" stroke-linecap="round" stroke-linejoin="round"/>
<path d="M35.9249 72.9153H55.7485L59.2227 70.4629" stroke="#1F282C" stroke-width="2.04367" stroke-miterlimit="10" stroke-linecap="round" stroke-linejoin="round"/>
<path d="M66.9887 72.9154H65.5581C64.3319 72.9154 63.1057 72.3023 62.0839 71.6892C61.2664 71.2805 60.4489 70.6674 59.6315 70.2587C58.4053 69.6456 56.9747 69.0325 55.3398 68.6237C54.7267 68.4194 53.9092 68.215 53.0917 68.215C52.0699 68.0106 50.8437 68.0106 49.4131 68.0106C38.9904 68.0106 35.9249 72.9154 35.9249 72.9154H30.2026C26.1153 72.9154 23.0498 76.1853 23.0498 80.0683H29.1808C29.3852 78.4333 30.8157 77.2071 32.4507 77.2071C34.0856 77.2071 35.5162 78.4333 35.7205 80.0683H56.9747C57.1791 78.4333 58.6096 77.2071 60.2446 77.2071C61.8795 77.2071 63.3101 78.4333 63.5144 80.0683H66.3756L68.828 78.8421V74.7547C68.828 73.5285 68.2149 72.9154 66.9887 72.9154Z" stroke="#1F282C" stroke-width="2.04367" stroke-miterlimit="10" stroke-linecap="round" stroke-linejoin="round"/>
<path d="M10.1747 55.9529L81.7031 40.421V55.9529" stroke="#1F282C" stroke-width="2.04367" stroke-miterlimit="10" stroke-linecap="round" stroke-linejoin="round"/>
<path d="M34.9031 55.7486L81.7031 45.5303V60.8578" stroke="#1F282C" stroke-width="2.04367" stroke-miterlimit="10" stroke-linecap="round" stroke-linejoin="round"/>
<path d="M57.3835 55.953L81.7032 50.6394" stroke="#1F282C" stroke-width="2.04367" stroke-miterlimit="10" stroke-linecap="round" stroke-linejoin="round"/>
<path d="M69.6455 67.1932V61.8796H22.2323V67.1932" stroke="#1F282C" stroke-width="2.04367" stroke-miterlimit="10" stroke-linecap="round" stroke-linejoin="round"/>
<path d="M68.4193 43.2821C66.1712 42.4646 63.9232 41.8515 61.6752 41.2384" stroke="#1F282C" stroke-width="2.04367" stroke-miterlimit="10" stroke-linecap="round" stroke-linejoin="round"/>
<path d="M89.8778 57.5879C87.6298 55.1355 85.1774 52.6831 82.3162 50.6394" stroke="#1F282C" stroke-width="2.04367" stroke-miterlimit="10" stroke-linecap="round" stroke-linejoin="round"/>
<path d="M42.2603 40.421C42.2603 40.421 43.2821 42.056 45.9389 42.056C48.5957 42.056 49.6175 40.421 49.6175 40.421" stroke="#1F282C" stroke-width="2.04367" stroke-miterlimit="10" stroke-linecap="round" stroke-linejoin="round"/>
<path d="M57.9965 45.5303C61.062 42.6691 63.1057 38.9905 63.7188 34.6988C66.3756 34.4945 68.4193 32.4508 68.4193 29.794V29.3853C68.4193 26.7285 66.3756 24.6848 63.9232 24.4805V23.4586C63.9232 13.649 55.9529 5.67871 46.1433 5.67871H45.7345C35.9249 5.67871 27.9546 13.649 27.9546 23.4586V24.4805C25.5022 24.4805 23.4585 26.7285 23.4585 29.1809V29.5896C23.4585 32.2464 25.5022 34.4945 28.159 34.4945C28.9764 41.4429 33.8812 46.9608 40.2166 49.2089" stroke="#1F282C" stroke-width="2.04367" stroke-miterlimit="10" stroke-linecap="round" stroke-linejoin="round"/>
<path d="M27.9546 23.2543C27.9546 19.78 28.9765 16.7145 30.6114 14.0578C30.2027 13.8534 29.9983 13.8534 29.5896 13.8534H27.5459C25.9109 13.8534 24.4804 15.284 24.4804 16.9189V21.2106C24.4804 22.8455 25.9109 24.2761 27.5459 24.2761H27.9546V23.2543Z" stroke="#1F282C" stroke-width="2.04367" stroke-miterlimit="10" stroke-linecap="round" stroke-linejoin="round"/>
<path d="M63.9232 23.2543C63.9232 19.78 62.9014 16.7145 61.2664 14.0578C61.6752 13.8534 61.8795 13.8534 62.2883 13.8534H64.3319C65.9669 13.8534 67.3974 15.284 67.3974 16.9189V21.2106C67.3974 22.8455 65.9669 24.2761 64.3319 24.2761H63.9232V23.2543Z" stroke="#1F282C" stroke-width="2.04367" stroke-miterlimit="10" stroke-linecap="round" stroke-linejoin="round"/>
<path d="M37.9686 3.63494C40.421 2.6131 42.8734 2 45.7345 2H46.1433C51.4568 2 54.9311 4.65677 55.7485 8.13101V8.33538" stroke="#1F282C" stroke-width="2.04367" stroke-miterlimit="10" stroke-linecap="round" stroke-linejoin="round"/>
<path d="M51.2525 11.6053C49.8219 9.766 47.9826 7.9267 45.7345 6.70049L45.3258 6.49613C43.0778 5.06556 40.421 4.24809 37.9686 3.83936" stroke="#1F282C" stroke-width="2.04367" stroke-miterlimit="10" stroke-linecap="round" stroke-linejoin="round"/>
<path d="M35.9249 28.5678C35.9249 28.5678 37.5599 27.3416 38.5817 27.5459C39.3992 27.7503 40.0123 28.7721 40.0123 28.7721" stroke="#1F282C" stroke-width="2.04367" stroke-miterlimit="10" stroke-linecap="round" stroke-linejoin="round"/>
<path d="M55.9529 28.5678C55.9529 28.5678 54.3179 27.3416 53.2961 27.5459C52.4786 27.7503 51.8655 28.7721 51.8655 28.7721" stroke="#1F282C" stroke-width="2.04367" stroke-miterlimit="10" stroke-linecap="round" stroke-linejoin="round"/>
<path d="M30.407 41.2384C18.7581 44.0995 8.74411 49.8218 2 57.5878" stroke="#1F282C" stroke-width="2.04367" stroke-miterlimit="10" stroke-linecap="round" stroke-linejoin="round"/>
<path d="M10.1747 70.6673V65.3538H8.94848C5.06551 65.3538 2 68.4193 2 72.3022V77.6158C2 81.4988 5.06551 84.5643 8.94848 84.5643H11.1965C14.262 84.5643 16.5101 82.1119 16.5101 79.2507V74.1415C16.5101 72.3022 15.0795 70.8717 13.2402 70.8717H10.1747V70.6673Z" stroke="#1F282C" stroke-width="2.04367" stroke-miterlimit="10" stroke-linecap="round" stroke-linejoin="round"/>
<path d="M10.1747 65.5581V70.6673H7.92662" stroke="#1F282C" stroke-width="2.04367" stroke-miterlimit="10" stroke-linecap="round" stroke-linejoin="round"/>
<path d="M81.7031 70.6673V65.3538H82.9293C86.8123 65.3538 89.8778 68.4193 89.8778 72.3022V77.6158C89.8778 81.4988 86.8123 84.5643 82.9293 84.5643H80.6813C77.6158 84.5643 75.3677 82.1119 75.3677 79.2507V74.1415C75.3677 72.3022 76.7983 70.8717 78.6376 70.8717H81.7031V70.6673Z" stroke="#1F282C" stroke-width="2.04367" stroke-miterlimit="10" stroke-linecap="round" stroke-linejoin="round"/>
<path d="M81.7031 65.5581V70.6673H83.9512" stroke="#1F282C" stroke-width="2.04367" stroke-miterlimit="10" stroke-linecap="round" stroke-linejoin="round"/>
</svg>
