<svg width="88" height="86" viewBox="0 0 88 86" fill="none" xmlns="http://www.w3.org/2000/svg">
<path d="M71.4847 37.9682C71.4847 37.9682 71.4847 35.7201 71.4847 33.8808C71.4847 32.0415 71.4847 28.3629 74.9589 26.9324" fill="#3DAFCC"/>
<path d="M78.0245 44.0989C78.0245 40.8291 80.6812 38.3767 83.7467 38.3767C84.1554 38.3767 84.3598 38.3767 84.7685 38.581C84.3598 37.1505 83.5423 35.7199 81.9074 34.2894C77.4113 30.202 71.2802 34.085 71.2802 34.085C71.2802 34.085 65.3537 30.4064 60.6533 34.2894C55.9528 38.3767 57.9964 43.8946 57.9964 43.8946C57.9964 43.8946 60.2445 52.0693 60.8576 53.4998C61.4707 54.9304 62.6968 57.3828 65.1492 57.1785C67.6016 56.9741 69.0322 56.1566 71.2802 56.1566C73.5283 56.1566 74.9589 56.9741 77.4113 57.1785C79.8637 57.3828 81.0899 54.9304 81.703 53.4998C81.9074 52.8867 82.3161 51.6605 82.7249 50.0256C80.2725 49.4125 78.0245 47.1644 78.0245 44.0989Z" fill="#CEEAF2"/>
<path d="M49.2087 41.6472V25.2978C49.2087 15.6926 42.669 2 27.3414 2C12.0139 2 5.47426 15.6926 5.47426 25.2978V41.6472C3.43059 42.0559 2 43.8952 2 45.9389V47.3695C2 49.8219 4.04369 51.8655 6.4961 51.8655H23.2541V50.0262C15.4881 48.1869 11.8096 42.669 11.8096 34.4943V31.4288C11.8096 27.7502 14.6708 24.8891 18.3494 24.6847L21.2104 17.9406L23.6629 24.0716C26.9327 23.2542 29.1807 21.4149 30.4069 17.9406C32.2462 22.028 33.0637 24.0716 37.5598 24.8891H37.7642C40.6254 25.7066 42.669 28.3633 42.669 31.4288V34.4943C42.669 42.669 38.9904 48.1869 31.2245 50.0262V51.8655H47.9826C50.435 51.8655 52.4787 49.8219 52.4787 47.3695V45.9389C52.8874 43.8952 51.2524 42.0559 49.2087 41.6472Z" fill="#3DAFCC"/>
<path d="M10.3789 84.5642H2.20422V65.3537C2.20422 60.4489 6.08717 56.5659 10.992 56.5659H23.4584L27.5458 66.1712L31.6331 56.5659H44.0995C47.5737 56.5659 50.4348 58.6096 51.8654 61.4707L63.31 77.8201V67.6017H71.4847V84.5642H63.31H57.7921L47.5737 70.6672V84.5642H18.9623H10.3789Z" fill="#CEEAF2"/>
<path d="M19.1667 31.2249C19.1667 31.2249 20.393 31.2249 20.8017 31.2249C22.0279 31.2249 22.4366 31.6336 22.4366 32.451C22.4366 33.2685 22.4366 33.4729 22.4366 33.4729" stroke="#1F282C" stroke-width="2.04367" stroke-miterlimit="10" stroke-linecap="round" stroke-linejoin="round"/>
<path d="M35.7206 31.2244C35.7206 31.2244 34.4945 31.2244 34.0857 31.2244C32.8595 31.2244 32.4507 31.6331 32.4507 32.4505C32.4507 33.268 32.4507 33.4724 32.4507 33.4724" stroke="#1F282C" stroke-width="2.04367" stroke-miterlimit="10" stroke-linecap="round" stroke-linejoin="round"/>
<path d="M24.8892 41.6472C24.8892 41.6472 25.7066 42.8734 27.5459 42.8734C29.3852 42.8734 30.2027 41.6472 30.2027 41.6472" stroke="#1F282C" stroke-width="2.04367" stroke-miterlimit="10" stroke-linecap="round" stroke-linejoin="round"/>
<path d="M23.374 56.6141L16.5812 59.4392L20.5835 69.0625L27.3764 66.2374L23.374 56.6141Z" stroke="#1F282C" stroke-width="2.04367" stroke-miterlimit="10" stroke-linecap="round" stroke-linejoin="round"/>
<path d="M27.4074 66.2701L34.2003 69.0952L38.2026 59.4719L31.4098 56.6468L27.4074 66.2701Z" stroke="#1F282C" stroke-width="2.04367" stroke-miterlimit="10" stroke-linecap="round" stroke-linejoin="round"/>
<path d="M37.9685 24.6848C33.0637 23.8674 32.2463 21.8237 30.6113 17.532C29.5895 21.0062 27.1371 22.6412 23.8672 23.663L21.4148 17.532L18.5536 24.2761C14.875 24.4805 12.0139 27.3416 12.0139 31.0202V34.0857C12.0139 42.2604 15.6925 47.7783 23.4585 49.6176V56.3617L27.5458 65.967L31.6332 56.3617V49.6176C39.3991 47.7783 43.0777 42.2604 43.0777 34.0857V31.0202C42.8733 28.1591 40.8296 25.5023 37.9685 24.6848Z" stroke="#1F282C" stroke-width="2.04367" stroke-miterlimit="10" stroke-linecap="round" stroke-linejoin="round"/>
<path d="M49.2087 41.6472V25.2978C49.2087 15.6926 42.669 2 27.3414 2C12.0139 2 5.47426 15.6926 5.47426 25.2978V41.6472C3.43059 42.0559 2 43.8952 2 45.9389V47.3695C2 49.8219 4.04369 51.8655 6.4961 51.8655H23.2541V50.0262C15.4881 48.1869 11.8096 42.669 11.8096 34.4943V31.4288C11.8096 27.7502 14.6708 24.8891 18.3494 24.6847L21.2104 17.9406L23.6629 24.0716C26.9327 23.2542 29.1807 21.4149 30.4069 17.9406C32.2462 22.028 33.0637 24.0716 37.5598 24.8891H37.7642C40.6254 25.7066 42.669 28.3633 42.669 31.4288V34.4943C42.669 42.669 38.9904 48.1869 31.2245 50.0262V51.8655H47.9826C50.435 51.8655 52.4787 49.8219 52.4787 47.3695V45.9389C52.8874 43.8952 51.2524 42.0559 49.2087 41.6472Z" stroke="#1F282C" stroke-width="2.04367" stroke-miterlimit="10" stroke-linecap="round" stroke-linejoin="round"/>
<path d="M19.1667 84.5642H47.7781V70.6672L57.9964 84.5642H63.31H71.4847V67.6017H63.31V77.8201L51.8654 61.4707C50.4348 58.6096 47.5737 56.5659 44.0995 56.5659H31.6332L27.5458 66.1712L23.4585 56.5659H10.7877C5.88289 56.5659 1.99994 60.4489 1.99994 65.3537V84.5642H10.1746" stroke="#1F282C" stroke-width="2.04367" stroke-miterlimit="10" stroke-linecap="round" stroke-linejoin="round"/>
<path d="M71.4847 37.9682C71.4847 37.9682 71.4847 35.7201 71.4847 33.8808C71.4847 32.0415 71.4847 28.3629 74.9589 26.9324" stroke="#1F282C" stroke-width="2.04367" stroke-miterlimit="10" stroke-linecap="round" stroke-linejoin="round"/>
<path d="M78.0245 44.0989C78.0245 40.8291 80.6812 38.3767 83.7467 38.3767C84.1554 38.3767 84.3598 38.3767 84.7685 38.581C84.3598 37.1505 83.5423 35.7199 81.9074 34.2894C77.4113 30.202 71.2802 34.085 71.2802 34.085C71.2802 34.085 65.3537 30.4064 60.6533 34.2894C55.9528 38.3767 57.9964 43.8946 57.9964 43.8946C57.9964 43.8946 60.2445 52.0693 60.8576 53.4998C61.4707 54.9304 62.6968 57.3828 65.1492 57.1785C67.6016 56.9741 69.0322 56.1566 71.2802 56.1566C73.5283 56.1566 74.9589 56.9741 77.4113 57.1785C79.8637 57.3828 81.0899 54.9304 81.703 53.4998C81.9074 52.8867 82.3161 51.6605 82.7249 50.0256C80.2725 49.4125 78.0245 47.1644 78.0245 44.0989Z" stroke="#1F282C" stroke-width="2.04367" stroke-miterlimit="10" stroke-linecap="round" stroke-linejoin="round"/>
<path d="M83.1337 56.9744H80.2725H77.82H63.31C61.6751 56.9744 60.4489 58.2006 60.4489 59.8355C60.4489 61.4705 61.6751 62.6966 63.31 62.6966V67.3971H71.4847C71.4847 64.7403 73.5284 62.6966 76.1851 62.6966H83.1337C84.7686 62.6966 85.9947 61.4705 85.9947 59.8355C85.9947 58.2006 84.5642 56.9744 83.1337 56.9744Z" stroke="#1F282C" stroke-width="2.04367" stroke-miterlimit="10" stroke-linecap="round" stroke-linejoin="round"/>
<path d="M78.4331 62.9012C80.0681 62.9012 81.2943 61.675 81.2943 60.0401C81.2943 58.4051 80.0681 57.179 78.4331 57.179H77.0027H74.5502" stroke="#1F282C" stroke-width="2.04367" stroke-miterlimit="10" stroke-linecap="round" stroke-linejoin="round"/>
<path d="M66.3755 60.8574C66.3755 60.8574 66.9886 56.9744 71.076 56.9744" stroke="#1F282C" stroke-width="2.04367" stroke-miterlimit="10" stroke-linecap="round" stroke-linejoin="round"/>
<path d="M71.4847 19.371V13.6487" stroke="#1F282C" stroke-width="2.04367" stroke-miterlimit="10" stroke-linecap="round" stroke-linejoin="round"/>
<path d="M81.7031 23.8672L84.5641 21.0061" stroke="#1F282C" stroke-width="2.04367" stroke-miterlimit="10" stroke-linecap="round" stroke-linejoin="round"/>
<path d="M61.4707 23.8672L58.6097 21.0061" stroke="#1F282C" stroke-width="2.04367" stroke-miterlimit="10" stroke-linecap="round" stroke-linejoin="round"/>
</svg>
