<svg width="90" height="89" viewBox="0 0 90 89" fill="none" xmlns="http://www.w3.org/2000/svg">
<path d="M79.2507 51.4568C81.2944 54.5223 82.5206 58.4053 82.5206 62.4926C82.5206 73.3241 73.7328 82.1118 62.9014 82.1118C58.814 82.1118 55.1354 80.8857 51.8655 78.842C55.3398 84.1555 61.4708 87.6297 68.2149 87.6297C79.0464 87.6297 87.8341 78.842 87.8341 68.0105C88.0385 61.062 84.5643 54.931 79.2507 51.4568Z" fill="#CEEAF2"/>
<path d="M48.8 67.8063C48.8 65.1496 49.4131 62.4928 50.435 60.2448C49.0044 59.4273 47.5738 58.8142 45.7345 58.8142H33.6769V61.8797L28.3633 68.0107L23.0498 61.8797V58.8142H10.5834C5.88297 58.8142 2 62.6972 2 67.3976V87.4256H54.3179V81.4989C50.8437 78.0247 48.8 73.1199 48.8 67.8063Z" fill="#CEEAF2"/>
<path d="M50.2306 60.0402C48.8001 59.2227 47.3695 58.6096 45.5302 58.6096H42.6691C41.6472 61.4708 41.0341 64.5363 41.0341 67.6018C41.0341 75.3677 44.304 82.3162 49.4132 87.221H54.318V81.2944C50.8437 77.8201 48.8001 72.9153 48.8001 67.6018C48.8001 65.1494 49.2088 62.4926 50.2306 60.0402Z" fill="#3DAFCC"/>
<path d="M10.3791 25.5022C10.3791 25.5022 3.02185 9.15284 15.2839 10.5834C15.2839 10.5834 18.5537 2 26.9328 2C35.3118 2 35.3118 5.06551 40.6254 8.13101C40.6254 8.13101 43.2821 9.97031 45.9389 7.10917C45.9389 7.10917 52.2743 19.1668 46.1433 28.5677L36.3337 20.8018C36.3337 20.8018 30.6114 27.9546 10.3791 25.5022Z" fill="#3DAFCC"/>
<path d="M18.145 33.6769C18.145 33.6769 19.7799 32.4507 20.8018 32.6551C21.6192 32.8594 22.2323 33.8813 22.2323 33.8813" stroke="#1F282C" stroke-width="2.04367" stroke-miterlimit="10" stroke-linecap="round" stroke-linejoin="round"/>
<path d="M38.1729 33.6769C38.1729 33.6769 36.538 32.4507 35.5162 32.6551C34.6987 32.8594 34.0856 33.8813 34.0856 33.8813" stroke="#1F282C" stroke-width="2.04367" stroke-miterlimit="10" stroke-linecap="round" stroke-linejoin="round"/>
<path d="M24.4804 44.917C24.4804 44.917 25.5022 46.5519 28.159 46.5519C30.8158 46.5519 31.8376 44.917 31.8376 44.917" stroke="#1F282C" stroke-width="2.04367" stroke-miterlimit="10" stroke-linecap="round" stroke-linejoin="round"/>
<path d="M28.2484 68.2264L33.8009 73.0527L42.1129 63.4901L36.5604 58.6638L28.2484 68.2264Z" stroke="#1F282C" stroke-width="2.04367" stroke-miterlimit="10" stroke-linecap="round" stroke-linejoin="round"/>
<path d="M19.8076 58.6051L14.2551 63.4314L22.5671 72.994L28.1196 68.1677L19.8076 58.6051Z" stroke="#1F282C" stroke-width="2.04367" stroke-miterlimit="10" stroke-linecap="round" stroke-linejoin="round"/>
<path d="M46.1433 28.5677L36.3337 20.8018C36.3337 20.8018 30.8158 27.9546 10.3791 25.5022C10.3791 26.1153 10.1747 26.9328 10.1747 27.7503V28.7721C7.51792 28.9765 5.67862 31.0201 5.67862 33.6769V34.0856C5.67862 36.7424 7.72229 38.9904 10.3791 38.9904C11.1965 46.1433 16.3057 51.8656 23.0498 53.7049V61.8795L28.3634 68.0105L33.6769 61.8795V53.7049C40.2166 51.6612 45.1214 45.9389 45.9389 38.9904C48.5957 38.7861 50.6394 36.7424 50.6394 34.0856V33.6769C50.6394 31.0201 48.5957 28.7721 46.1433 28.5677Z" stroke="#1F282C" stroke-width="2.04367" stroke-miterlimit="10" stroke-linecap="round" stroke-linejoin="round"/>
<path d="M10.3791 25.5022C10.3791 25.5022 3.02185 9.15284 15.2839 10.5834C15.2839 10.5834 18.5537 2 26.9328 2C35.3118 2 35.3118 5.0655 40.6254 8.13101C40.6254 8.13101 43.2821 9.97031 45.9389 7.10917C45.9389 7.10917 52.2743 19.1668 46.1433 28.5677L36.3337 20.8018C36.3337 20.8018 30.6114 27.9546 10.3791 25.5022Z" stroke="#1F282C" stroke-width="2.04367" stroke-miterlimit="10" stroke-linecap="round" stroke-linejoin="round"/>
<path d="M68.4192 87.4255C79.2547 87.4255 88.0385 78.6416 88.0385 67.8062C88.0385 56.9708 79.2547 48.187 68.4192 48.187C57.5838 48.187 48.8 56.9708 48.8 67.8062C48.8 78.6416 57.5838 87.4255 68.4192 87.4255Z" stroke="#1F282C" stroke-width="2.04367" stroke-miterlimit="10" stroke-linecap="round" stroke-linejoin="round"/>
<path d="M68.4193 79.6592C74.9657 79.6592 80.2726 74.3523 80.2726 67.8059C80.2726 61.2595 74.9657 55.9526 68.4193 55.9526C61.8729 55.9526 56.566 61.2595 56.566 67.8059C56.566 74.3523 61.8729 79.6592 68.4193 79.6592Z" stroke="#1F282C" stroke-width="2.04367" stroke-miterlimit="10" stroke-linecap="round" stroke-linejoin="round"/>
<path d="M66.58 62.2883V73.3241" stroke="#1F282C" stroke-width="2.04367" stroke-miterlimit="10" stroke-linecap="round" stroke-linejoin="round"/>
<path d="M69.4411 67.6019H66.7844V62.2883H69.4411C70.8717 62.2883 72.0979 63.5145 72.0979 64.9451C72.0979 66.3757 70.8717 67.6019 69.4411 67.6019Z" stroke="#1F282C" stroke-width="2.04367" stroke-miterlimit="10" stroke-linecap="round" stroke-linejoin="round"/>
<path d="M64.7407 71.0764H69.4411" stroke="#1F282C" stroke-width="2.04367" stroke-miterlimit="10" stroke-linecap="round" stroke-linejoin="round"/>
<path d="M66.58 67.6021H64.7407" stroke="#1F282C" stroke-width="2.04367" stroke-miterlimit="10" stroke-linecap="round" stroke-linejoin="round"/>
<path d="M48.8 67.8063C48.8 65.1496 49.4131 62.4928 50.435 60.2448C49.0044 59.4273 47.5738 58.8142 45.7345 58.8142H33.6769V61.8797L28.3633 68.0107L23.0498 61.8797V58.8142H10.5834C5.88297 58.8142 2 62.6972 2 67.3976V87.4256H54.3179V81.4989C50.8437 78.0247 48.8 73.1199 48.8 67.8063Z" stroke="#1F282C" stroke-width="2.04367" stroke-miterlimit="10" stroke-linecap="round" stroke-linejoin="round"/>
<path d="M68.4193 79.6592C74.9657 79.6592 80.2726 74.3523 80.2726 67.8059C80.2726 61.2595 74.9657 55.9526 68.4193 55.9526C61.8729 55.9526 56.566 61.2595 56.566 67.8059C56.566 74.3523 61.8729 79.6592 68.4193 79.6592Z" stroke="#1F282C" stroke-width="2.04367" stroke-miterlimit="10" stroke-linecap="round" stroke-linejoin="round"/>
</svg>
