<svg width="88" height="88" viewBox="0 0 88 88" fill="none" xmlns="http://www.w3.org/2000/svg">
<path d="M27.3415 80.0683H42.0559L49.0044 59.4273C47.5739 58.4054 45.9389 57.9967 44.0996 57.9967H31.6332L27.5459 74.3461L23.4586 57.9967H10.9921C6.08729 57.9967 2.20435 61.8797 2.20435 66.7845V85.995H33.2682C29.7939 85.7906 27.3415 83.3382 27.3415 80.0683Z" fill="#CEEAF2"/>
<path d="M18.5537 37.9687C22.2783 37.9687 25.2977 34.9492 25.2977 31.2246C25.2977 27.4999 22.2783 24.4805 18.5537 24.4805C14.829 24.4805 11.8096 27.4999 11.8096 31.2246C11.8096 34.9492 14.829 37.9687 18.5537 37.9687Z" fill="#CEEAF2"/>
<path d="M35.9249 37.9687C39.6495 37.9687 42.669 34.9492 42.669 31.2246C42.669 27.4999 39.6495 24.4805 35.9249 24.4805C32.2002 24.4805 29.1808 27.4999 29.1808 31.2246C29.1808 34.9492 32.2002 37.9687 35.9249 37.9687Z" fill="#CEEAF2"/>
<path d="M50.6393 25.2978C50.6393 15.6926 43.4864 2 27.3414 2C11.1964 2 4.04367 15.6926 4.04367 25.2978L2 43.2821C2 51.2524 8.53969 57.7922 16.51 57.7922H23.0498V51.0481C15.2838 49.2088 11.6051 42.2603 11.6051 34.0856V31.0201C11.6051 27.3415 14.4663 24.4804 18.1449 24.276C22.641 22.8454 25.5022 18.5537 27.1371 13.4446C28.9764 18.9625 32.2463 23.4585 37.7642 24.4804C40.6254 25.2978 42.669 27.9546 42.669 31.0201V34.0856C42.669 42.2603 38.9904 49.2088 31.2245 51.0481V57.7922H37.7642C45.7345 57.7922 52.2742 51.2524 52.2742 43.2821L50.6393 25.2978Z" fill="#3DAFCC"/>
<path d="M16.9188 30.2028C16.9188 30.2028 18.145 30.2028 18.5537 30.2028C19.7799 30.2028 20.1886 30.6115 20.1886 31.429C20.1886 32.2464 20.1886 32.4508 20.1886 32.4508" stroke="#1F282C" stroke-width="2.04367" stroke-miterlimit="10" stroke-linecap="round" stroke-linejoin="round"/>
<path d="M37.5599 30.2028C37.5599 30.2028 36.3337 30.2028 35.925 30.2028C34.6987 30.2028 34.29 30.6115 34.29 31.429C34.29 32.2464 34.29 32.4508 34.29 32.4508" stroke="#1F282C" stroke-width="2.04367" stroke-miterlimit="10" stroke-linecap="round" stroke-linejoin="round"/>
<path d="M24.6847 41.8516C24.6847 41.8516 25.5021 43.0778 27.3414 43.0778C29.1807 43.0778 29.9982 41.8516 29.9982 41.8516" stroke="#1F282C" stroke-width="2.04367" stroke-miterlimit="10" stroke-linecap="round" stroke-linejoin="round"/>
<path d="M23.254 57.9967L14.6706 64.1277L19.3711 66.3758L16.3056 70.0544L27.3414 74.3461L23.254 57.9967Z" stroke="#1F282C" stroke-width="2.04367" stroke-miterlimit="10" stroke-linecap="round" stroke-linejoin="round"/>
<path d="M31.4288 57.9967L40.0123 64.1277L35.3119 66.3758L38.3774 70.0544L27.3415 74.3461L31.4288 57.9967Z" stroke="#1F282C" stroke-width="2.04367" stroke-miterlimit="10" stroke-linecap="round" stroke-linejoin="round"/>
<path d="M50.6393 25.2978C50.6393 15.6926 43.4864 2 27.3414 2C11.1964 2 4.04367 15.6926 4.04367 25.2978L2 43.2821C2 51.2524 8.53969 57.7922 16.51 57.7922H23.0498V51.0481C15.2838 49.2088 11.6051 42.2603 11.6051 34.0856V31.0201C11.6051 27.3415 14.4663 24.4804 18.1449 24.276C22.641 22.8454 25.5022 18.5537 27.1371 13.4446C28.9764 18.9625 32.2463 23.4585 37.7642 24.4804C40.6254 25.2978 42.669 27.9546 42.669 31.0201V34.0856C42.669 42.2603 38.9904 49.2088 31.2245 51.0481V57.7922H37.7642C45.7345 57.7922 52.2742 51.2524 52.2742 43.2821L50.6393 25.2978Z" stroke="#1F282C" stroke-width="2.04367" stroke-miterlimit="10" stroke-linecap="round" stroke-linejoin="round"/>
<path d="M41.6471 80.8857L48.7999 59.6315C47.3693 58.6097 45.7345 58.2009 43.8952 58.2009H31.4287L27.3414 74.5503L23.254 58.2009H10.7877C5.88289 58.2009 1.99994 62.0839 1.99994 66.9887V86.1992H45.3256C42.6689 85.7905 40.8296 83.3381 41.6471 80.8857Z" stroke="#1F282C" stroke-width="2.04367" stroke-miterlimit="10" stroke-linecap="round" stroke-linejoin="round"/>
<path d="M82.3162 55.953H52.683C51.048 55.953 49.6174 56.9748 49.2087 58.4054L41.6471 80.8858C40.8296 83.3382 42.669 85.9949 45.1214 85.9949H74.7546C76.3895 85.9949 77.8201 84.9731 78.2288 83.5426L85.7904 61.0622C86.8123 58.4054 84.9729 55.953 82.3162 55.953Z" stroke="#1F282C" stroke-width="2.04367" stroke-miterlimit="10" stroke-linecap="round" stroke-linejoin="round"/>
<path d="M63.9232 74.1416C65.7291 74.1416 67.193 72.6776 67.193 70.8717C67.193 69.0658 65.7291 67.6018 63.9232 67.6018C62.1173 67.6018 60.6533 69.0658 60.6533 70.8717C60.6533 72.6776 62.1173 74.1416 63.9232 74.1416Z" stroke="#1F282C" stroke-width="2.04367" stroke-miterlimit="10" stroke-linecap="round" stroke-linejoin="round"/>
<path d="M41.6471 80.8858L41.8515 80.2727H27.1371C27.1371 83.5426 29.7938 85.995 32.8593 85.995H45.1214C42.669 85.7906 40.8296 83.3382 41.6471 80.8858Z" stroke="#1F282C" stroke-width="2.04367" stroke-miterlimit="10" stroke-linecap="round" stroke-linejoin="round"/>
<path d="M18.5537 37.9687C22.2783 37.9687 25.2977 34.9492 25.2977 31.2246C25.2977 27.4999 22.2783 24.4805 18.5537 24.4805C14.829 24.4805 11.8096 27.4999 11.8096 31.2246C11.8096 34.9492 14.829 37.9687 18.5537 37.9687Z" stroke="#1F282C" stroke-width="2.04367" stroke-miterlimit="10" stroke-linecap="round" stroke-linejoin="round"/>
<path d="M35.9249 37.9687C39.6495 37.9687 42.669 34.9492 42.669 31.2246C42.669 27.4999 39.6495 24.4805 35.9249 24.4805C32.2002 24.4805 29.1808 27.4999 29.1808 31.2246C29.1808 34.9492 32.2002 37.9687 35.9249 37.9687Z" stroke="#1F282C" stroke-width="2.04367" stroke-miterlimit="10" stroke-linecap="round" stroke-linejoin="round"/>
<path d="M29.1808 31.2246C29.1808 30.2027 28.3634 29.1809 27.1372 29.1809C26.1153 29.1809 25.0935 29.9984 25.0935 31.2246" stroke="#1F282C" stroke-width="2.04367" stroke-miterlimit="10" stroke-linecap="round" stroke-linejoin="round"/>
<path d="M23.2541 57.9966V51.2525C15.4881 49.4132 11.8096 42.4647 11.8096 34.29V31.2245C11.8096 27.5459 14.6707 24.6847 18.3493 24.4804C22.8454 23.0498 25.7065 18.7581 27.3414 13.6489C29.1807 19.1668 32.4506 23.6629 37.9685 24.6847C40.8297 25.5022 42.8734 28.159 42.8734 31.2245V34.29C42.8734 42.4647 39.1947 49.4132 31.4288 51.2525V57.9966L27.3414 74.3459L23.2541 57.9966Z" stroke="#1F282C" stroke-width="2.04367" stroke-miterlimit="10" stroke-linecap="round" stroke-linejoin="round"/>
</svg>
