<svg width="128" height="128" viewBox="0 0 128 128" fill="none" xmlns="http://www.w3.org/2000/svg">
<path d="M41.1989 45.2969C41.6924 49.7074 42.655 54.0527 44.0704 58.259C44.4712 59.4652 44.9242 60.7065 45.4353 61.9619C45.9465 63.2173 46.516 64.487 47.1496 65.7497C49.028 69.4256 51.4087 72.8223 54.2231 75.842C64.5666 86.7098 76.3622 93.0573 82.3411 90.6844C86.212 89.1482 87.2122 85.7471 87.9081 82.4712C88.5782 79.3171 88.7569 77.6781 87.6835 75.9057C86.9341 74.6683 85.7897 74.0788 83.3984 73.1276C81.8283 72.503 80.3557 71.6734 79.4034 72.0243C77.1814 72.8429 74.2039 77.0736 71.3069 76.9542C68.8854 76.8543 61.9704 70.2138 58.9497 65.9949C55.5791 61.2872 52.5367 54.4489 53.0174 52.7335C53.5824 50.7168 60.227 47.3162 60.2936 45.9848C60.3444 44.9674 60.0782 43.8566 60.0481 42.6035C60.1973 41.5967 60.1153 40.5692 59.8082 39.5988C59.501 38.6285 58.977 37.7408 58.2757 37.0032C54.7426 35.422 50.8255 34.9039 47.0028 35.5124C45.3835 35.847 43.9518 36.7845 42.9976 38.135C41.4974 40.2012 40.853 42.767 41.1989 45.2969Z" fill="#3DAFCC"/>
<path d="M63.9997 95.9787C52.557 95.973 41.4836 91.9282 32.7312 84.5573C23.9788 77.1864 18.1092 66.9624 16.157 55.6875C14.9033 62.6848 15.1997 69.8719 17.0254 76.7422C18.8511 83.6124 22.1616 89.9986 26.7235 95.4505C31.2853 100.902 36.9876 105.287 43.4282 108.296C49.8688 111.305 56.891 112.864 63.9997 112.864C71.1084 112.864 78.1306 111.305 84.5712 108.296C91.0118 105.287 96.714 100.902 101.276 95.4505C105.838 89.9986 109.148 83.6124 110.974 76.7422C112.8 69.8719 113.096 62.6848 111.842 55.6875C109.89 66.9624 104.021 77.1863 95.2682 84.5572C86.5158 91.9282 75.4424 95.973 63.9997 95.9787Z" fill="#CEEAF2"/>
<path d="M64.0005 113.736C54.1635 113.736 44.5474 110.819 36.3682 105.354C28.189 99.8892 21.814 92.1215 18.0494 83.0335C14.2848 73.9454 13.2997 63.945 15.2187 54.2971C17.1376 44.6491 21.8745 35.7869 28.8302 28.831C35.7859 21.8752 44.648 17.1381 54.2959 15.219C63.9438 13.2998 73.9442 14.2847 83.0324 18.049C92.1206 21.8134 99.8884 28.1883 105.354 36.3674C110.819 44.5465 113.736 54.1625 113.736 63.9995C113.721 77.1856 108.476 89.8274 99.1523 99.1515C89.8283 108.476 77.1866 113.721 64.0005 113.736ZM64.0005 16.5277C54.6114 16.5275 45.4331 19.3115 37.6263 24.5276C29.8195 29.7437 23.7347 37.1577 20.1415 45.832C16.5483 54.5064 15.6081 64.0514 17.4397 73.2601C19.2713 82.4688 23.7924 90.9275 30.4314 97.5667C37.0704 104.206 45.5291 108.727 54.7377 110.559C63.9464 112.391 73.4914 111.451 82.1658 107.858C90.8402 104.265 98.2543 98.1802 103.471 90.3735C108.687 82.5667 111.471 73.3885 111.471 63.9995C111.457 51.4138 106.451 39.3477 97.5514 30.4482C88.6521 21.5487 76.5862 16.5424 64.0005 16.5277Z" fill="#1F282C"/>
<path d="M103.445 47.9764C116.381 47.9764 126.867 37.4901 126.867 24.5546C126.867 11.6191 116.381 1.13281 103.445 1.13281C90.5099 1.13281 80.0236 11.6191 80.0236 24.5546C80.0236 37.4901 90.5099 47.9764 103.445 47.9764Z" fill="#CEEAF2"/>
<path d="M103.446 49.1082C98.5894 49.1083 93.8421 47.6683 89.8041 44.9703C85.7661 42.2723 82.6189 38.4375 80.7604 33.9508C78.9018 29.4641 78.4156 24.5271 79.363 19.764C80.3104 15.0009 82.6489 10.6257 86.0829 7.19174C89.5169 3.75776 93.8921 1.41919 98.6551 0.471784C103.418 -0.475624 108.355 0.010676 112.842 1.86919C117.329 3.7277 121.164 6.87494 123.861 10.9129C126.559 14.9509 127.999 19.6983 127.999 24.5547C127.992 31.0644 125.403 37.3053 120.8 41.9083C116.196 46.5114 109.956 49.1007 103.446 49.1082ZM103.446 2.26451C99.0374 2.26441 94.7279 3.57156 91.0623 6.02068C87.3967 8.46981 84.5397 11.9509 82.8526 16.0237C81.1654 20.0966 80.7239 24.5783 81.5839 28.9021C82.4438 33.2258 84.5666 37.1975 87.6838 40.3149C90.8009 43.4322 94.7725 45.5552 99.0963 46.4153C103.42 47.2755 107.902 46.8342 111.975 45.1472C116.048 43.4603 119.529 40.6035 121.978 36.938C124.427 33.2726 125.735 28.9631 125.735 24.5547C125.729 18.6451 123.378 12.9793 119.2 8.80051C115.021 4.6217 109.355 2.27112 103.446 2.26451Z" fill="#1F282C"/>
<path d="M24.5539 126.868C37.4895 126.868 47.9757 116.382 47.9757 103.446C47.9757 90.5107 37.4895 80.0244 24.5539 80.0244C11.6184 80.0244 1.13214 90.5107 1.13214 103.446C1.13214 116.382 11.6184 126.868 24.5539 126.868Z" fill="#CEEAF2"/>
<path d="M24.553 128C19.6967 127.999 14.9495 126.559 10.9118 123.861C6.87412 121.163 3.72722 117.328 1.86904 112.841C0.0108708 108.354 -0.475115 103.417 0.47254 98.6542C1.4202 93.8913 3.75893 89.5163 7.193 86.0826C10.6271 82.6488 15.0023 80.3105 19.7653 79.3632C24.5283 78.416 29.4652 78.9024 33.9518 80.761C38.4384 82.6196 42.2731 85.7668 44.971 89.8048C47.6689 93.8427 49.1088 98.59 49.1087 103.446C49.1012 109.956 46.5116 116.198 41.9081 120.801C37.3045 125.404 31.063 127.993 24.553 128ZM24.553 81.1561C20.1446 81.1564 15.8353 82.464 12.17 84.9134C8.50475 87.3627 5.64809 90.844 3.96128 94.9169C2.27447 98.9898 1.83326 103.471 2.69345 107.795C3.55364 112.119 5.6766 116.09 8.79386 119.207C11.9111 122.324 15.8827 124.447 20.2064 125.307C24.5301 126.167 29.0117 125.726 33.0845 124.039C37.1573 122.352 40.6384 119.495 43.0876 115.829C45.5368 112.164 46.8441 107.855 46.8442 103.446C46.8379 97.5363 44.4873 91.8702 40.3082 87.6913C36.1291 83.5125 30.4629 81.1621 24.553 81.1561Z" fill="#1F282C"/>
<path d="M79.4717 92.314C74.4008 92.314 67.4525 88.9769 60.0751 82.8701C59.8437 82.6783 59.698 82.4024 59.67 82.1032C59.642 81.804 59.734 81.5059 59.9258 81.2745C60.1176 81.0432 60.3934 80.8974 60.6927 80.8694C60.9919 80.8414 61.29 80.9335 61.5213 81.1253C69.7545 87.9442 77.7666 91.2835 81.924 89.6315C85.2566 88.3091 86.1324 85.3789 86.8003 82.2354C87.4615 79.1239 87.5411 77.8567 86.714 76.4923C86.1545 75.5668 85.2478 75.0814 82.9811 74.1791C82.6494 74.0476 82.3221 73.9072 82.0037 73.77C81.3201 73.3974 80.569 73.165 79.7944 73.0866C78.8543 73.5855 77.9892 74.2146 77.2248 74.9552C75.6739 76.677 73.5584 77.7873 71.2605 78.0855C68.0849 77.9539 60.7851 70.5047 58.0295 66.6535C55.0728 62.5248 51.2249 54.9307 51.9259 52.4285C52.3019 51.085 53.9694 49.7924 56.4682 47.9746C57.4613 47.3277 58.3801 46.5734 59.2082 45.7255C59.1883 45.4303 59.1219 44.9084 59.0578 44.3533C58.9959 43.807 58.9295 43.2333 58.9163 42.6284C58.8721 40.7541 58.8234 38.8148 57.6027 37.9136C54.342 36.5452 50.769 36.0951 47.2709 36.6122C45.9187 36.8795 44.7213 37.6572 43.9272 38.7838C42.5736 40.6307 41.9987 42.9351 42.3261 45.2014C42.8084 49.5236 43.7537 53.7814 45.1457 57.9016C45.5393 59.0859 45.9838 60.3033 46.4836 61.535C46.9989 62.8022 47.565 64.0493 48.1621 65.2414C49.9861 68.8201 52.3026 72.1255 55.0441 75.0613C55.2511 75.2789 55.3632 75.5698 55.3557 75.8701C55.3483 76.1703 55.2218 76.4553 55.0042 76.6623C54.8965 76.7649 54.7696 76.8451 54.6309 76.8986C54.4921 76.9521 54.3441 76.9777 54.1955 76.974C53.8952 76.9666 53.6102 76.8401 53.4032 76.6225C50.5093 73.5231 48.0633 70.034 46.1365 66.2567C45.5129 65.0116 44.9246 63.7102 44.3873 62.3889C43.8654 61.1084 43.4032 59.8446 42.9963 58.6152C41.5503 54.3256 40.5695 49.8932 40.0706 45.3941C39.7018 42.5991 40.418 39.7691 42.0719 37.486C43.1803 35.9068 44.8475 34.8079 46.7358 34.4121C50.8826 33.7274 55.1394 34.3129 58.9474 36.0917C59.7967 36.9254 60.4406 37.9452 60.8282 39.0704C61.2159 40.1957 61.3366 41.3957 61.1809 42.5756C61.192 43.1086 61.2518 43.6139 61.307 44.0949C61.4005 44.7391 61.4397 45.3901 61.4242 46.0409C61.3689 47.1599 60.2079 48.0524 57.7996 49.8059C56.5768 50.696 54.2989 52.3535 54.1065 53.0402C53.8589 54.1072 56.1764 60.1765 59.8695 65.3358C63.295 70.1191 69.737 75.756 71.3535 75.8235C72.6759 75.8755 74.3058 74.4745 75.752 73.2361C76.706 72.3036 77.8073 71.5351 79.0117 70.9616C80.3524 70.7107 81.7385 70.9706 82.8972 71.6903C83.1979 71.8185 83.5053 71.9512 83.8171 72.0762C85.7506 72.575 87.456 73.7187 88.6514 75.3181C89.9871 77.5218 89.6797 79.5796 89.0163 82.7065C88.2799 86.1663 87.13 90.002 82.7602 91.7369C81.7103 92.1353 80.5944 92.3311 79.4717 92.314Z" fill="#1F282C"/>
<path d="M27.0939 112.741C26.9451 112.741 26.7979 112.712 26.6605 112.655C26.5231 112.598 26.3982 112.515 26.293 112.41C26.1879 112.304 26.1045 112.18 26.0476 112.042C25.9907 111.905 25.9615 111.757 25.9616 111.609V92.6435C25.9616 92.3432 26.0809 92.0552 26.2932 91.8429C26.5056 91.6305 26.7936 91.5112 27.0939 91.5112C27.3942 91.5112 27.6821 91.6305 27.8945 91.8429C28.1068 92.0552 28.2261 92.3432 28.2261 92.6435V111.609C28.2262 111.757 28.197 111.905 28.1401 112.042C28.0832 112.18 27.9998 112.304 27.8947 112.41C27.7895 112.515 27.6647 112.598 27.5273 112.655C27.3898 112.712 27.2426 112.741 27.0939 112.741Z" fill="#1F282C"/>
<path d="M34.0931 112.836C33.9444 112.836 33.7971 112.807 33.6597 112.75C33.5224 112.693 33.3976 112.609 33.2926 112.504L26.2933 105.505C26.0822 105.292 25.964 105.004 25.9645 104.705C25.965 104.405 26.0842 104.118 26.2961 103.906C26.5079 103.694 26.7951 103.575 27.0947 103.575C27.3943 103.574 27.6818 103.692 27.8944 103.904L34.8936 110.903C35.0519 111.061 35.1597 111.263 35.2034 111.482C35.2471 111.702 35.2246 111.93 35.139 112.137C35.0533 112.343 34.9082 112.52 34.722 112.645C34.5358 112.769 34.317 112.836 34.0931 112.836H34.0931Z" fill="#1F282C"/>
<path d="M28.3522 107.095C28.1283 107.095 27.9094 107.029 27.7232 106.905C27.5371 106.78 27.392 106.603 27.3063 106.396C27.2206 106.19 27.1982 105.962 27.2418 105.742C27.2855 105.523 27.3933 105.321 27.5516 105.163L33.036 99.6805C33.141 99.5748 33.2658 99.4909 33.4034 99.4335C33.5409 99.3761 33.6884 99.3464 33.8374 99.3462C33.9864 99.3459 34.1339 99.3751 34.2716 99.432C34.4094 99.4889 34.5345 99.5724 34.6398 99.6778C34.7452 99.7831 34.8287 99.9083 34.8856 100.046C34.9425 100.184 34.9717 100.331 34.9714 100.48C34.9712 100.629 34.9415 100.777 34.8841 100.914C34.8268 101.052 34.7428 101.177 34.6371 101.282L29.1527 106.764C29.0477 106.869 28.9229 106.953 28.7856 107.01C28.6482 107.066 28.5009 107.096 28.3522 107.095Z" fill="#1F282C"/>
<path d="M17.4078 112.741C17.2161 112.741 17.0275 112.692 16.8598 112.599C16.692 112.507 16.5505 112.373 16.4487 112.211C16.3468 112.048 16.2878 111.863 16.2772 111.671C16.2667 111.48 16.3049 111.289 16.3884 111.116L21.7599 99.9884C21.8238 99.8533 21.9138 99.7322 22.0247 99.6321C22.1356 99.532 22.2652 99.4548 22.4061 99.405C22.547 99.3552 22.6963 99.3338 22.8455 99.342C22.9947 99.3503 23.1408 99.3879 23.2753 99.4529C23.4099 99.5178 23.5302 99.6088 23.6295 99.7204C23.7287 99.8321 23.8049 99.9624 23.8535 100.104C23.9022 100.245 23.9224 100.394 23.913 100.544C23.9036 100.693 23.8648 100.838 23.7988 100.972L18.4273 112.1C18.3349 112.292 18.1902 112.454 18.0098 112.567C17.8295 112.681 17.6208 112.741 17.4078 112.741Z" fill="#1F282C"/>
<path d="M17.4078 112.741C17.1949 112.741 16.9862 112.681 16.8058 112.567C16.6255 112.454 16.4808 112.292 16.3884 112.1L11.0168 100.972C10.9508 100.838 10.912 100.693 10.9026 100.544C10.8932 100.394 10.9134 100.245 10.9621 100.104C11.0107 99.9624 11.0869 99.8321 11.1861 99.7204C11.2853 99.6088 11.4057 99.5178 11.5403 99.4529C11.6748 99.3879 11.8209 99.3503 11.9701 99.342C12.1193 99.3338 12.2686 99.3552 12.4095 99.405C12.5504 99.4548 12.68 99.532 12.7909 99.6321C12.9018 99.7322 12.9918 99.8533 13.0557 99.9884L18.4273 111.116C18.5108 111.289 18.549 111.48 18.5385 111.671C18.5279 111.863 18.4689 112.048 18.367 112.211C18.2651 112.373 18.1237 112.507 17.9559 112.599C17.7881 112.692 17.5996 112.741 17.4079 112.741H17.4078Z" fill="#1F282C"/>
<path d="M102.316 38.5506C102.167 38.5507 102.02 38.5215 101.882 38.4646C101.745 38.4077 101.62 38.3243 101.515 38.2192C101.41 38.114 101.326 37.9891 101.27 37.8517C101.213 37.7143 101.183 37.5671 101.184 37.4183V19.4714C101.186 17.108 102.126 14.8422 103.797 13.171C105.469 11.4998 107.734 10.5598 110.098 10.5571C110.247 10.5571 110.394 10.5864 110.531 10.6433C110.668 10.7002 110.793 10.7836 110.898 10.8888C111.004 10.9939 111.087 11.1187 111.144 11.2561C111.201 11.3935 111.23 11.5407 111.23 11.6894C111.23 11.8381 111.201 11.9853 111.144 12.1227C111.087 12.26 111.004 12.3849 110.898 12.49C110.793 12.5951 110.668 12.6785 110.531 12.7354C110.394 12.7923 110.247 12.8216 110.098 12.8216C108.335 12.8237 106.645 13.5249 105.398 14.7716C104.151 16.0182 103.45 17.7084 103.448 19.4714V37.4183C103.448 37.567 103.419 37.7143 103.362 37.8517C103.305 37.9891 103.222 38.114 103.117 38.2191C103.011 38.3243 102.887 38.4077 102.749 38.4646C102.612 38.5215 102.465 38.5507 102.316 38.5506Z" fill="#1F282C"/>
<path d="M107.712 25.6864H96.7939C96.4936 25.6864 96.2056 25.5671 95.9933 25.3547C95.7809 25.1424 95.6616 24.8544 95.6616 24.5541C95.6616 24.2538 95.7809 23.9658 95.9933 23.7535C96.2056 23.5412 96.4936 23.4219 96.7939 23.4219H107.712C108.012 23.4219 108.3 23.5412 108.512 23.7535C108.725 23.9658 108.844 24.2538 108.844 24.5541C108.844 24.8544 108.725 25.1424 108.512 25.3547C108.3 25.5671 108.012 25.6864 107.712 25.6864Z" fill="#1F282C"/>
</svg>
