<svg width="100" height="96" viewBox="0 0 100 96" fill="none" xmlns="http://www.w3.org/2000/svg">
<path d="M39.2028 68.5388C36.3273 65.448 33.895 61.9714 31.976 58.209C31.3285 56.9167 30.7468 55.6172 30.2245 54.3321C29.7022 53.0471 29.2394 51.7765 28.8299 50.542C27.3839 46.2368 26.4004 41.7893 25.8962 37.275C25.5428 34.6856 26.2012 32.0595 27.7339 29.9446C28.7088 28.5624 30.1715 27.6029 31.8259 27.2604C35.7315 26.6376 39.7335 27.1679 43.3432 28.7863C44.0597 29.5413 44.5951 30.4498 44.9089 31.443C45.2227 32.4361 45.3065 33.4878 45.1541 34.5183C45.1848 35.8009 45.4568 36.9378 45.4048 37.9792C45.3368 39.3419 38.5482 42.8225 37.9709 44.8866C37.4798 46.6424 40.5882 53.6415 44.0318 58.4599C47.1179 62.7781 54.183 69.5748 56.657 69.677C59.6167 69.7993 62.6588 65.469 64.9289 64.6312C65.9019 64.272 67.4065 65.1212 69.0106 65.7604C71.4537 66.734 72.6229 67.3374 73.3885 68.6039C74.4852 70.418 74.3026 72.0956 73.618 75.3239C72.907 78.6769 71.8851 82.158 67.9304 83.7303C63.0921 85.6539 54.5259 81.9783 45.9216 74.8395L39.2028 68.5388Z" fill="#3DAFCC"/>
<path d="M64.9977 85.3977C59.8147 85.3977 52.718 81.9821 45.183 75.7316C44.9466 75.5353 44.7977 75.2529 44.7691 74.9467C44.7405 74.6404 44.8345 74.3353 45.0305 74.0985C45.2264 73.8617 45.5082 73.7125 45.8139 73.6839C46.1197 73.6552 46.4242 73.7494 46.6606 73.9457C55.0722 80.9239 63.2535 84.3452 67.5033 82.6521C70.9126 81.2963 71.8052 78.2983 72.4853 75.0831C73.1608 71.8962 73.2444 70.6003 72.3994 69.2027C71.8278 68.2577 70.9014 67.7609 68.5833 66.8352C68.2421 66.7005 67.9055 66.5556 67.5779 66.4142C66.8847 66.0304 66.1204 65.7931 65.3321 65.717C64.3704 66.2275 63.4857 66.8718 62.7044 67.6308C61.1256 69.4013 58.9602 70.5391 56.6086 70.8335C53.3664 70.7 45.9082 63.0767 43.0908 59.1338C40.07 54.909 36.1409 47.1351 36.8572 44.5729C37.2413 43.1979 38.9426 41.8749 41.4957 40.0143C42.5106 39.3531 43.4494 38.5815 44.295 37.7135C44.2747 37.4091 44.2069 36.8715 44.1414 36.3C44.0781 35.7432 44.0126 35.1604 43.9968 34.5458C43.9516 32.6207 43.9019 30.6379 42.657 29.7179C39.3248 28.3173 35.6736 27.8566 32.0988 28.3858C30.7173 28.6586 29.4938 29.4543 28.6827 30.6074C27.2987 32.4972 26.7119 34.8565 27.0491 37.1759C27.5385 41.6002 28.5036 45.9585 29.9276 50.175C30.3297 51.3871 30.7839 52.6331 31.2945 53.8938C31.8368 55.2202 32.4129 56.4968 33.0094 57.6874C34.8736 61.3499 37.2403 64.733 40.0406 67.7383C40.2514 67.9611 40.3653 68.2586 40.3574 68.5656C40.3495 68.8725 40.2203 69.1637 39.9983 69.3754C39.7763 69.587 39.4795 69.7017 39.1731 69.6944C38.8668 69.6871 38.5758 69.5583 38.3641 69.3363C35.4088 66.1637 32.9106 62.5929 30.9421 58.7275C30.3185 57.4848 29.7175 56.1528 29.1526 54.7687C28.6194 53.4593 28.1472 52.1634 27.7315 50.9049C26.2528 46.5147 25.2513 41.9773 24.7446 37.3717C24.3645 34.5115 25.0956 31.6143 26.7871 29.2787C27.9189 27.662 29.6226 26.5375 31.5522 26.1337C35.7895 25.4318 40.1397 26.0311 44.0307 27.8528C44.8977 28.7049 45.5549 29.7474 45.9506 30.8978C46.3462 32.0482 46.4694 33.275 46.3104 34.4813C46.324 35.0302 46.3827 35.5451 46.4392 36.0352C46.5348 36.6976 46.5748 37.3669 46.559 38.0361C46.5025 39.1814 45.3186 40.0947 42.8581 41.8885C41.6087 42.7994 39.2815 44.4948 39.0849 45.1976C38.8319 46.2909 41.1974 52.5041 44.9706 57.7847C48.4704 62.6806 55.052 68.4501 56.7036 68.518C57.9891 68.6018 59.7198 67.1384 61.1997 65.8698C62.1746 64.9161 63.2997 64.1299 64.5299 63.5429C65.8971 63.2867 67.3105 63.5515 68.4929 64.2853C68.8001 64.4178 69.1164 64.5547 69.4373 64.6814C71.4175 65.1838 73.1633 66.357 74.3785 68.0019C75.7409 70.2586 75.4269 72.3636 74.7491 75.5641C73.999 79.103 72.8264 83.029 68.3573 84.8069C67.2847 85.2147 66.1448 85.4152 64.9977 85.3977Z" fill="#1F282C"/>
<path d="M92.841 1.15869H7.15756C5.56573 1.1587 4.0391 1.7922 2.9135 2.91983C1.7879 4.04746 1.15554 5.57685 1.15552 7.17156V16.5122H98.8424V7.17156C98.8425 6.38197 98.6873 5.6001 98.3857 4.8706C98.0842 4.14109 97.6421 3.47824 97.0848 2.91989C96.5275 2.36154 95.8659 1.91863 95.1377 1.61644C94.4096 1.31425 93.6291 1.15871 92.841 1.15869Z" fill="#CEEAF2"/>
<path d="M98.8432 17.6713H9.42168C9.11488 17.6713 8.82065 17.5492 8.60371 17.3318C8.38677 17.1145 8.26489 16.8198 8.26489 16.5124C8.26489 16.205 8.38677 15.9103 8.60371 15.6929C8.82065 15.4756 9.11488 15.3535 9.42168 15.3535H98.8432C99.15 15.3535 99.4443 15.4756 99.6612 15.6929C99.8781 15.9103 100 16.205 100 16.5124C100 16.8198 99.8781 17.1145 99.6612 17.3318C99.4443 17.5492 99.15 17.6713 98.8432 17.6713Z" fill="#1F282C"/>
<path d="M91.8639 96H8.13374C5.9773 95.9975 3.90989 95.1382 2.38505 93.6106C0.860214 92.083 0.00247433 90.0119 0 87.8516L0 8.14958C0.00223419 5.98906 0.85986 3.91766 2.38472 2.38983C3.90957 0.862007 5.97712 0.0025409 8.13374 0H91.8639C94.0209 0.00206588 96.089 0.861307 97.6143 2.38917C99.1396 3.91703 99.9976 5.9887 99.9999 8.14958V87.8516C99.9973 90.0123 99.1392 92.0837 97.6139 93.6113C96.0886 95.1389 94.0207 95.998 91.8639 96ZM8.13374 2.31778C6.5906 2.31991 5.11128 2.93505 4.02022 4.02829C2.92916 5.12154 2.31542 6.60365 2.3136 8.14958V87.8516C2.31547 89.3974 2.92927 90.8793 4.02035 91.9724C5.11143 93.0654 6.59072 93.6803 8.13374 93.6822H91.8639C93.4073 93.6808 94.8871 93.0662 95.9786 91.9731C97.0702 90.88 97.6843 89.3977 97.6863 87.8516V8.14958C97.6844 6.60329 97.0703 5.12091 95.9788 4.02763C94.8872 2.93435 93.4074 2.31944 91.8639 2.31778H8.13374Z" fill="#1F282C"/>
<path d="M16.8211 9.99549H9.42168C9.11488 9.99549 8.82065 9.8734 8.60371 9.65607C8.38677 9.43873 8.26489 9.14397 8.26489 8.83661C8.26489 8.52926 8.38677 8.23449 8.60371 8.01716C8.82065 7.79983 9.11488 7.67773 9.42168 7.67773H16.8211C17.1279 7.67773 17.4222 7.79983 17.6391 8.01716C17.856 8.23449 17.9779 8.52926 17.9779 8.83661C17.9779 9.14397 17.856 9.43873 17.6391 9.65607C17.4222 9.8734 17.1279 9.99549 16.8211 9.99549Z" fill="#1F282C"/>
<path d="M70.0338 9.99549H29.9638C29.657 9.99549 29.3628 9.8734 29.1458 9.65607C28.9289 9.43873 28.807 9.14397 28.807 8.83661C28.807 8.52926 28.9289 8.23449 29.1458 8.01716C29.3628 7.79983 29.657 7.67773 29.9638 7.67773H70.0338C70.3406 7.67773 70.6348 7.79983 70.8518 8.01716C71.0687 8.23449 71.1906 8.52926 71.1906 8.83661C71.1906 9.14397 71.0687 9.43873 70.8518 9.65607C70.6348 9.8734 70.3406 9.99549 70.0338 9.99549Z" fill="#1F282C"/>
<path d="M23.8409 85.396H12.5079C12.3559 85.3961 12.2055 85.3662 12.0651 85.308C11.9247 85.2498 11.7971 85.1644 11.6897 85.0568C11.5823 84.9492 11.4971 84.8214 11.439 84.6807C11.3809 84.5401 11.351 84.3894 11.3511 84.2371V72.8825C11.3511 72.5752 11.473 72.2804 11.6899 72.0631C11.9068 71.8457 12.2011 71.7236 12.5079 71.7236C12.8147 71.7236 13.1089 71.8457 13.3258 72.0631C13.5428 72.2804 13.6647 72.5752 13.6647 72.8825V83.0782H23.8409C23.9932 83.0776 24.1442 83.107 24.2852 83.165C24.4261 83.2229 24.5543 83.3081 24.6622 83.4158C24.7702 83.5235 24.8559 83.6515 24.9143 83.7924C24.9728 83.9334 25.0029 84.0845 25.0029 84.2371C25.0029 84.3898 24.9728 84.5409 24.9143 84.6818C24.8559 84.8228 24.7702 84.9508 24.6622 85.0584C24.5543 85.1661 24.4261 85.2514 24.2852 85.3093C24.1442 85.3672 23.9932 85.3967 23.8409 85.396Z" fill="#1F282C"/>
<path d="M87.492 39.4926C87.3401 39.4926 87.1896 39.4627 87.0492 39.4045C86.9088 39.3463 86.7813 39.261 86.6739 39.1533C86.5664 39.0457 86.4812 38.9179 86.4231 38.7773C86.365 38.6366 86.3351 38.4859 86.3352 38.3337V28.1391H76.1567C75.8499 28.1391 75.5557 28.017 75.3388 27.7996C75.1218 27.5823 74.9999 27.2875 74.9999 26.9802C74.9999 26.6728 75.1218 26.378 75.3388 26.1607C75.5557 25.9434 75.8499 25.8213 76.1567 25.8213H87.492C87.644 25.8212 87.7944 25.8511 87.9348 25.9093C88.0752 25.9675 88.2028 26.0529 88.3102 26.1605C88.4176 26.2682 88.5028 26.3959 88.5609 26.5366C88.619 26.6772 88.6489 26.828 88.6488 26.9802V38.3337C88.6489 38.4859 88.619 38.6366 88.5609 38.7773C88.5028 38.9179 88.4176 39.0457 88.3102 39.1533C88.2028 39.261 88.0752 39.3463 87.9348 39.4045C87.7944 39.4627 87.644 39.4926 87.492 39.4926Z" fill="#1F282C"/>
</svg>
