<svg width="100" height="100" viewBox="0 0 100 100" fill="none" xmlns="http://www.w3.org/2000/svg">
<path d="M49.9998 87.1782C38.0457 87.1762 26.5062 82.7961 17.5616 74.8654C8.61698 66.9347 2.88672 56.0027 1.45346 44.1348C0.653013 50.7565 1.21557 57.472 3.10654 63.8683C4.99751 70.2646 8.17691 76.2064 12.4492 81.3285C16.7216 86.4506 21.9965 90.6445 27.9497 93.6525C33.9028 96.6605 40.4084 98.4189 47.0663 98.8196C53.7242 99.2204 60.3937 98.2549 66.6647 95.9826C72.9357 93.7104 78.6755 90.1793 83.5314 85.6067C88.3872 81.034 92.2563 75.5164 94.9008 69.3931C97.5452 63.2697 98.9092 56.6702 98.9087 50.0002C98.9046 48.0396 98.7836 46.081 98.5463 44.1348C97.1131 56.0027 91.3828 66.9348 82.4382 74.8655C73.4935 82.7961 61.954 87.1763 49.9998 87.1782Z" fill="#CEEAF2"/>
<path d="M59.4934 31.9099V36.4923C59.4934 36.9743 59.3985 37.4517 59.214 37.8971C59.0295 38.3425 58.7591 38.7472 58.4182 39.088C58.0773 39.4289 57.6727 39.6993 57.2273 39.8838C56.7819 40.0683 56.3045 40.1633 55.8224 40.1633C55.3404 40.1633 54.863 40.0683 54.4176 39.8838C53.9722 39.6993 53.5675 39.4289 53.2267 39.088C52.8858 38.7472 52.6154 38.3425 52.4309 37.8971C52.2464 37.4517 52.1515 36.9743 52.1515 36.4923V22.0124C52.1515 21.5303 52.2464 21.0529 52.4309 20.6075C52.6154 20.1621 52.8858 19.7574 53.2266 19.4165C53.5675 19.0757 53.9722 18.8052 54.4176 18.6208C54.863 18.4363 55.3403 18.3413 55.8224 18.3413C56.3045 18.3413 56.7819 18.4363 57.2272 18.6207C57.6726 18.8052 58.0773 19.0756 58.4182 19.4165C58.7591 19.7574 59.0295 20.1621 59.214 20.6075C59.3985 21.0529 59.4934 21.5302 59.4934 22.0123V31.9098L59.4934 31.9099Z" fill="#CEEAF2"/>
<path d="M59.4934 48.7359C59.4934 46.7085 57.8499 45.0649 55.8225 45.0649C53.795 45.0649 52.1515 46.7085 52.1515 48.7359C52.1515 50.7634 53.795 52.4069 55.8225 52.4069C57.8499 52.4069 59.4934 50.7634 59.4934 48.7359Z" fill="#CEEAF2"/>
<path d="M49.9995 100C40.1105 99.9999 30.4436 97.0674 22.2212 91.5732C13.9988 86.0791 7.59026 78.2702 3.80595 69.1339C0.021629 59.9976 -0.968494 49.9444 0.960784 40.2454C2.89006 30.5464 7.65209 21.6373 14.6447 14.6447C21.6373 7.65209 30.5464 2.89006 40.2454 0.960784C49.9444 -0.968493 59.9977 0.021629 69.1339 3.80594C78.2702 7.59026 86.0792 13.9988 91.5733 22.2212C97.0674 30.4436 99.9999 40.1105 100 49.9995C99.9854 63.2559 94.7128 75.9653 85.339 85.339C75.9653 94.7127 63.256 99.9853 49.9995 100ZM49.9995 2.18195C40.542 2.18206 31.2969 4.98664 23.4333 10.241C15.5697 15.4954 9.44081 22.9637 5.82167 31.7013C2.20252 40.439 1.25567 50.0536 3.10085 59.3294C4.94602 68.6052 9.50035 77.1255 16.1879 83.8129C22.8755 90.5003 31.3959 95.0544 40.6717 96.8994C49.9475 98.7444 59.5621 97.7973 68.2997 94.178C77.0373 90.5586 84.5054 84.4296 89.7596 76.5659C95.0138 68.7022 97.8182 59.457 97.8181 49.9995C97.804 37.3216 92.7614 25.1671 83.7967 16.2026C74.832 7.2381 62.6773 2.19579 49.9995 2.18195Z" fill="#1F282C"/>
<path d="M24.4782 39.8712C24.9264 43.8771 25.8007 47.8238 27.0863 51.6443C27.4503 52.7398 27.8617 53.8672 28.326 55.0076C28.7903 56.1479 29.3075 57.301 29.8831 58.4479C31.5891 61.7866 33.7514 64.8717 36.3077 67.6145C45.7023 77.4853 56.4159 83.2505 61.8464 81.0953C65.3621 79.7001 66.2706 76.611 66.9027 73.6355C67.5113 70.7708 67.6736 69.2821 66.6986 67.6722C66.2495 67.0147 65.6742 66.453 65.006 66.0198C64.3379 65.5866 63.5903 65.2906 62.8067 65.149C61.3137 64.7935 60.0431 63.8282 59.1781 64.1468C57.16 64.8903 54.4556 68.733 51.8244 68.6245C49.625 68.5338 43.3443 62.5025 40.6007 58.6705C37.5393 54.3947 34.776 48.1837 35.2125 46.6257C35.7258 44.794 41.7608 41.7053 41.8213 40.496C41.8675 39.5719 41.6256 38.5631 41.5984 37.4249C41.7339 36.5105 41.6593 35.5772 41.3804 34.6958C41.1014 33.8145 40.6254 33.0083 39.9885 32.3383C36.7795 30.9022 33.2217 30.4317 29.7497 30.9843C28.2789 31.2882 26.9786 32.1396 26.1119 33.3662C24.7493 35.2429 24.164 37.5733 24.4782 39.8712Z" fill="#3DAFCC"/>
<path d="M59.2662 82.6309C54.7937 82.6309 48.6933 79.7842 42.2201 74.5649C42.1086 74.4751 42.0158 74.3642 41.9472 74.2385C41.8786 74.1129 41.8353 73.9749 41.82 73.8326C41.8047 73.6902 41.8175 73.5462 41.8578 73.4088C41.8981 73.2714 41.9651 73.1433 42.0549 73.0318C42.1448 72.9203 42.2557 72.8276 42.3813 72.7589C42.507 72.6903 42.6449 72.6471 42.7873 72.6317C42.9296 72.6164 43.0736 72.6293 43.211 72.6696C43.3484 72.7099 43.4765 72.7769 43.588 72.8667C50.8071 78.689 57.8237 81.5207 61.4439 80.0804C64.4419 78.8914 65.2324 76.2461 65.8354 73.4079C66.432 70.6006 66.5066 69.4596 65.7651 68.2376C65.0048 67.1639 63.8503 66.435 62.554 66.2102C61.9396 66.0492 61.3395 65.8375 60.7599 65.5774C60.3746 65.3847 59.9633 65.249 59.539 65.1746C58.7001 65.6273 57.9272 66.193 57.242 66.8558C55.8148 68.4228 53.8799 69.4352 51.7788 69.7143C48.8788 69.595 42.2244 62.8128 39.7144 59.3056C37.0211 55.5447 33.5203 48.6209 34.1616 46.3313C34.5089 45.0912 36.0303 43.9118 38.3102 42.252C39.2037 41.6691 40.0317 40.9915 40.7798 40.231C40.7542 39.9902 40.6945 39.5171 40.637 39.0153C40.5795 38.5189 40.5198 37.999 40.507 37.4514C40.4687 35.7617 40.4261 34.0166 39.3415 33.2165C36.3945 31.9835 33.1669 31.5783 30.0066 32.0446C28.7935 32.2835 27.7191 32.9806 27.0065 33.991C25.7854 35.6567 25.2674 37.7353 25.564 39.7792C26.0043 43.6996 26.8614 47.5618 28.1209 51.3003C28.4767 52.3731 28.8816 53.4779 29.3354 54.5966C29.8063 55.7514 30.3198 56.8829 30.8589 57.9589C32.5132 61.2031 34.6132 64.1999 37.0978 66.8623C37.6049 67.395 38.1156 67.9153 38.6298 68.4231C38.8358 68.6266 38.9525 68.9035 38.9543 69.193C38.9561 69.4825 38.8428 69.7609 38.6394 69.9669C38.436 70.1729 38.159 70.2896 37.8695 70.2914C37.58 70.2932 37.3017 70.1799 37.0957 69.9765C36.5672 69.4523 36.041 68.9157 35.5168 68.3667C32.8852 65.5466 30.6605 62.3727 28.9071 58.937C28.3425 57.8109 27.8077 56.6273 27.3155 55.4191C26.8403 54.2557 26.4227 53.1061 26.0498 51.9886C24.7372 48.0869 23.8457 44.056 23.3906 39.9647C23.0533 37.4113 23.7076 34.8258 25.2188 32.7403C26.2339 31.2935 27.7612 30.2868 29.491 29.9245C33.2763 29.2999 37.1619 29.8354 40.637 31.4608C41.4174 32.2228 42.0092 33.1564 42.3654 34.1873C42.7216 35.2182 42.8324 36.318 42.689 37.3992C42.6996 37.8765 42.755 38.3314 42.804 38.765C42.8898 39.3565 42.9254 39.9542 42.9105 40.5517C42.8573 41.5968 41.7961 42.4129 39.593 44.0163C38.4892 44.8207 36.4309 46.3175 36.2626 46.9195C36.0559 47.8996 38.1675 53.3991 41.4872 58.0357C44.5257 62.2791 50.447 67.476 51.8683 67.5346C53.1041 67.5815 54.5189 66.3158 55.823 65.1982C56.6948 64.3471 57.7013 63.6459 58.8018 63.1229C59.7588 62.9084 60.7616 63.0669 61.6059 63.5661C62.0758 63.7798 62.5626 63.9544 63.0612 64.0881C63.9848 64.2641 64.8644 64.6216 65.6489 65.1399C66.4334 65.6582 67.1073 66.3269 67.6317 67.1074C68.8569 69.1284 68.5777 71.0078 67.9705 73.8619C67.2993 77.0208 66.2466 80.5227 62.2494 82.1091C61.2969 82.47 60.2846 82.6471 59.2662 82.6309Z" fill="#1F282C"/>
<path d="M55.8228 41.2532C54.5604 41.2518 53.3501 40.7497 52.4574 39.8572C51.5646 38.9646 51.0623 37.7544 51.0606 36.492V22.0114C51.0633 20.7501 51.5662 19.5414 52.459 18.6505C53.3518 17.7596 54.5616 17.2593 55.8228 17.2593C57.0841 17.2593 58.2939 17.7596 59.1867 18.6505C60.0795 19.5414 60.5824 20.7501 60.5851 22.0114V36.492C60.5833 37.7544 60.081 38.9646 59.1883 39.8572C58.2955 40.7497 57.0852 41.2518 55.8228 41.2532ZM55.8228 19.4321C55.1388 19.4326 54.4829 19.7045 53.9992 20.188C53.5154 20.6716 53.2432 21.3274 53.2424 22.0114V36.492C53.2468 37.1735 53.5207 37.8255 54.0041 38.3058C54.4875 38.7861 55.1413 39.0557 55.8228 39.0557C56.5042 39.0557 57.158 38.7861 57.6415 38.3058C58.1249 37.8255 58.3987 37.1735 58.4031 36.492V22.0114C58.4023 21.3274 58.1302 20.6716 57.6464 20.1881C57.1627 19.7045 56.5068 19.4326 55.8228 19.4321Z" fill="#1F282C"/>
<path d="M55.8229 53.4977C54.881 53.4977 53.9602 53.2184 53.1771 52.6951C52.394 52.1718 51.7836 51.428 51.4232 50.5578C51.0627 49.6876 50.9684 48.7301 51.1522 47.8063C51.336 46.8825 51.7895 46.034 52.4555 45.368C53.1216 44.7019 53.9701 44.2484 54.8939 44.0646C55.8177 43.8809 56.7752 43.9752 57.6454 44.3357C58.5156 44.6961 59.2594 45.3065 59.7826 46.0897C60.3059 46.8728 60.5852 47.7935 60.5852 48.7354C60.5837 49.998 60.0815 51.2084 59.1887 52.1012C58.2959 52.994 57.0854 53.4962 55.8229 53.4977ZM55.8229 46.1551C55.3125 46.1551 54.8136 46.3064 54.3893 46.59C53.9649 46.8735 53.6342 47.2765 53.4389 47.748C53.2436 48.2195 53.1925 48.7383 53.292 49.2389C53.3916 49.7394 53.6374 50.1992 53.9982 50.5601C54.3591 50.921 54.8189 51.1667 55.3194 51.2663C55.82 51.3659 56.3388 51.3148 56.8103 51.1195C57.2818 50.9242 57.6848 50.5934 57.9684 50.1691C58.2519 49.7447 58.4033 49.2458 58.4033 48.7355C58.4027 48.0513 58.1306 47.3953 57.6468 46.9115C57.163 46.4277 56.507 46.1557 55.8229 46.1551Z" fill="#1F282C"/>
</svg>
