<svg width="243" height="260" viewBox="0 0 243 260" fill="none" xmlns="http://www.w3.org/2000/svg">
<path d="M124.835 196.521L110.214 188.04L55.235 219.908L0.513 251.519L2.47957 252.633L15.134 260L33.3462 249.377L88.3248 217.595L124.835 196.521Z" fill="#C8F1FA"/>
<path d="M243 201.232L165.192 156.257L104.57 191.295L182.378 236.27L243 201.232Z" fill="#C8F1FA"/>
<path d="M53.012 217.423L104.741 247.321L214.955 183.671V84.4679" stroke="#8DD8EB" stroke-miterlimit="10"/>
<path d="M45.1457 242.61L30.6101 234.128L14.5355 243.381L16.5021 244.494L29.1566 251.862L45.1457 242.61Z" fill="#3DAFCC"/>
<path d="M142.961 30.7545L130.307 23.3871C147.407 33.1532 147.493 65.0214 130.478 94.5766C121.927 109.311 110.812 120.705 99.6111 127.216C88.4102 133.727 77.2093 135.269 68.659 130.385L81.3135 137.753C89.8638 142.636 101.065 141.094 112.266 134.583C123.467 128.072 134.667 116.764 143.132 101.944C160.147 72.4745 160.062 40.5206 142.961 30.7545Z" fill="#3DAFCC"/>
<path d="M65.4099 153.858L52.7554 146.491L48.3948 154.115L61.0492 161.483L65.4099 153.858Z" fill="#8DD8EB"/>
<path d="M69.8561 60.0527L57.2016 52.6853C35.5693 90.1219 34.2013 130.3 52.7554 146.491L65.4099 153.858C46.8557 137.667 48.2238 97.4893 69.8561 60.0527Z" fill="#8DD8EB"/>
<path d="M154.162 11.3081L141.508 3.94069C129.794 -2.74135 114.574 -0.599673 99.2692 8.22405C84.0496 17.0478 68.7445 32.5535 57.2016 52.6853L69.8561 60.0527C81.4845 39.9209 96.7041 24.3295 112.009 15.5058C127.229 6.76771 142.534 4.62603 154.162 11.3081Z" fill="#8DD8EB"/>
<path d="M111.924 15.5914C127.229 6.76771 142.448 4.62603 154.162 11.3081C177.505 24.6722 177.676 68.1054 154.419 108.455C142.79 128.586 127.571 144.178 112.266 153.002C99.1837 160.54 86.1017 163.196 75.2428 159.598L70.8821 167.137L60.9638 161.483L65.3244 153.944C46.7702 137.667 48.1383 97.575 69.6851 60.1384C81.399 39.9209 96.7041 24.4152 111.924 15.5914ZM81.3135 137.753C89.8638 142.636 101.065 141.094 112.266 134.583C123.467 128.072 134.667 116.764 143.132 101.944C160.147 72.3888 160.062 40.5206 142.961 30.7545C134.411 25.8715 123.21 27.4135 112.009 33.9242C100.808 40.4349 89.6073 51.743 81.1425 66.5634C64.1274 96.1186 64.2129 127.987 81.3135 137.753Z" fill="#C8F1FA"/>
<path d="M12.6545 233.529L0 226.161C0 227.618 0 228.474 0 229.931L12.6545 237.298C12.6545 235.842 12.6545 235.071 12.6545 233.529Z" fill="#2496B3"/>
<path d="M57.6291 159.512L44.9746 152.145C43.6921 152.916 42.9226 153.344 41.64 154.03L54.2945 161.397C55.577 160.626 56.3466 160.198 57.6291 159.512Z" fill="#8DD8EB"/>
<path d="M57.6291 159.512C56.3466 160.283 55.5771 160.712 54.2945 161.397L12.6545 233.529C12.6545 234.985 12.6545 235.842 12.6545 237.298L29.4986 246.893C30.7811 246.122 31.4652 245.694 32.8332 245.008L74.4733 172.876C74.4733 171.42 74.4733 170.563 74.4733 169.107L71.0531 167.137L61.1348 161.483" fill="#8DD8EB"/>
<path d="M54.2945 161.397L41.64 154.03L0 226.161L12.6545 233.529L54.2945 161.397Z" fill="#3DAFCC"/>
<path d="M102.689 138.952C100.894 139.381 95.4215 140.58 93.7115 140.58V160.283C99.7822 159.084 106.024 156.6 112.351 152.916C113.805 152.059 117.994 149.575 119.533 148.204L102.689 138.952Z" fill="#5AC9E6"/>
<path d="M152.367 116.764C151.597 116.679 150.742 116.507 149.032 116.336C146.723 116.079 144.586 115.394 142.79 114.623C142.619 115.051 142.534 115.565 142.534 116.079C142.534 118.82 144.757 121.048 147.493 121.048C149.973 121.048 152.025 119.249 152.367 116.764Z" fill="white"/>
<path d="M186.653 96.547C186.653 97.4893 186.824 98.603 186.995 99.631C187.85 98.7743 188.363 97.575 188.363 96.29C188.363 94.7479 187.679 93.3773 186.568 92.5206C186.568 93.6343 186.653 95.0906 186.653 96.547Z" fill="white"/>
<path d="M240.52 129.786L91.4029 43.6046C86.6147 48.8303 82.083 54.9127 78.1499 61.7661C68.4025 78.8138 64.2984 96.547 65.7519 110.425L169.809 170.649L240.52 129.786Z" fill="#C8F1FA"/>
<path d="M240.52 129.786L169.895 170.649V177.759L240.52 136.896V129.786Z" fill="#3DAFCC"/>
<path d="M185.969 116.165L92.9419 62.4514L47.5397 88.7512L129.623 136.211C143.132 144.007 159.72 144.007 173.229 136.211L185.884 128.843C190.758 126.016 190.758 118.992 185.969 116.165Z" fill="#8DD8EB"/>
<path d="M63.3578 116.165L169.895 177.759V170.649L61.6478 108.112C61.9898 110.939 62.5028 113.68 63.3578 116.165Z" fill="#98DAEB"/>
<path d="M112.864 114.366L129.024 104.857C129.024 104.857 126.203 99.374 119.277 101.259C112.351 103.143 108.418 105.542 108.418 105.542L112.864 114.366Z" fill="#1C658A"/>
<path d="M119.362 111.881C119.362 118.306 123.296 125.845 128.084 128.672C132.957 131.499 136.805 128.501 136.805 122.076C136.805 115.651 132.872 108.112 128.084 105.285C123.21 102.458 119.362 105.456 119.362 111.881Z" fill="#1F282C"/>
<path d="M133.556 129.272L127.913 132.527L117.225 107.769L123.21 104.428L133.556 129.272Z" fill="#1F282C"/>
<path d="M113.634 115.137C113.634 121.562 117.567 129.1 122.355 131.928C127.229 134.755 131.076 131.756 131.076 125.331C131.076 118.906 127.143 111.367 122.355 108.54C117.567 105.713 113.634 108.712 113.634 115.137Z" fill="#1F282C"/>
<path d="M116.113 116.593C116.113 121.219 118.935 126.616 122.441 128.672C125.946 130.642 128.768 128.586 128.768 123.875C128.768 119.249 125.946 113.852 122.441 111.796C118.935 109.825 116.113 111.967 116.113 116.593Z" fill="#8DD8EB"/>
<path d="M121.329 122.333L122.184 122.675L124.322 128.073L120.987 126.959L121.329 122.333Z" fill="#1C658A"/>
<path d="M122.868 121.99L123.21 120.791L127.998 121.562L127.742 125.588L122.868 121.99Z" fill="#1C658A"/>
<path d="M121.756 118.82L122.184 119.763L126.716 117.193L124.322 114.023L121.756 118.82Z" fill="#1C658A"/>
<path d="M119.277 111.282L121.158 118.563L120.559 119.42L116.541 114.023L118.08 111.71L119.277 111.282Z" fill="#1C658A"/>
<path d="M120.046 119.763L117.225 120.02L118.764 124.217L120.645 120.876L120.046 119.763Z" fill="#1C658A"/>
<path d="M122.441 111.796C118.935 109.825 116.113 111.881 116.113 116.593C116.113 121.305 118.935 126.616 122.441 128.672C125.946 130.643 128.768 128.587 128.768 123.875C128.768 119.163 125.861 113.852 122.441 111.796ZM122.441 126.873C119.704 125.331 117.481 121.048 117.481 117.364C117.481 113.68 119.704 112.053 122.441 113.595C125.177 115.137 127.4 119.42 127.4 123.104C127.4 126.787 125.091 128.415 122.441 126.873Z" fill="#8DD8EB"/>
<path d="M119.533 119.163C119.533 120.705 120.474 122.504 121.671 123.189C122.868 123.875 123.809 123.189 123.809 121.562C123.809 120.02 122.868 118.221 121.671 117.535C120.474 116.936 119.533 117.621 119.533 119.163Z" fill="#8DD8EB"/>
<path d="M149.459 51.743C146.894 47.2026 138.601 42.9193 133.898 40.0066C125.177 34.6952 119.79 31.3542 115.6 28.9555C100.637 32.4679 93.0274 44.9753 83.8785 56.7117C83.964 56.7117 83.964 56.7974 84.0496 56.7974C94.2244 62.4514 110.214 76.1581 110.214 76.1581C110.214 76.1581 124.92 65.6211 134.838 58.682C140.738 54.57 145.013 53.1137 146.638 51.6573C147.835 50.3723 150.828 54.1417 149.459 51.743Z" fill="#5AC9E6"/>
<path d="M145.783 51.5717L110.556 30.4119C110.043 30.6689 109.444 30.8402 108.931 31.0972L144.757 52.0857L145.783 51.5717Z" fill="#3DAFCC"/>
<path d="M86.7002 52.9424C86.4437 53.285 86.1872 53.6277 85.9307 53.8847C97.4736 60.6524 113.89 70.2471 113.89 70.2471L115.002 69.4761C115.002 69.4761 105.596 63.7364 92.9419 56.5404C90.8898 55.341 88.7523 54.1417 86.7002 52.9424Z" fill="#3DAFCC"/>
<path d="M189.56 92.5206C187.252 85.7529 183.661 82.0692 183.661 82.0692L123.467 93.6343C122.44 92.5206 120.73 91.1499 120.046 89.7792C116.541 83.2685 112.95 74.2735 111.838 72.6458C110.556 70.6755 103.715 67.7628 98.6706 64.5931C94.0534 61.7661 88.8378 58.7677 84.1351 56.1977C82.6815 58.0824 81.228 59.8814 79.6889 61.6804C73.3617 68.7908 68.7445 78.1285 67.291 87.9802C81.057 95.9473 97.7301 105.628 110.983 113.252C110.983 104.771 116.199 100.83 122.611 104.514C129.024 108.198 134.24 118.135 134.24 126.702C143.902 132.099 156.984 135.183 180.241 121.733C186.995 117.878 190.672 112.395 191.784 107.084C193.066 101.43 190.415 95.0906 189.56 92.5206Z" fill="#3DAFCC"/>
<path d="M68.7445 87.2949C69.0865 87.4662 69.4286 87.6376 69.7706 87.8946C69.5996 84.8106 69.3431 82.4975 68.9155 80.9555C68.317 82.8402 67.8895 84.7249 67.5475 86.6096C68.146 86.9522 68.5735 87.2092 68.7445 87.2949Z" fill="#5AC9E6"/>
<path d="M123.809 102.115C120.645 100.231 117.738 100.145 115.429 101.344C105.596 95.6903 80.202 81.2125 70.8821 75.4728C70.1981 77.0148 69.5996 78.6425 69.0865 80.2702C71.3951 81.2982 80.544 85.5815 83.9641 87.5519C91.1464 91.5782 112.864 103.743 112.864 103.743C111.582 105.713 110.812 108.455 110.812 111.796C111.496 112.224 112.266 112.652 112.95 112.995C112.95 112.909 112.95 112.824 112.95 112.738C112.95 108.712 113.976 105.799 115.686 104.343L119.448 103.572C119.448 103.572 119.362 103.486 119.191 103.4C120.217 103.486 121.414 103.914 122.697 104.685C128.597 108.112 132.957 116.764 132.957 124.731C132.957 124.817 134.411 125.417 134.411 125.502C135.18 125.931 135.694 126.188 135.865 126.359C136.207 126.53 136.549 126.702 136.891 126.959C136.72 117.364 130.905 106.313 123.809 102.115Z" fill="#5AC9E6"/>
<path d="M122.612 104.6C129.024 108.283 134.24 118.221 134.24 126.787C133.898 126.616 133.641 126.445 133.385 126.273C133.214 126.188 132.786 125.931 132.102 125.502C132.102 125.417 132.102 125.331 132.102 125.245C132.102 118.135 127.827 109.911 122.526 106.827C117.225 103.743 112.95 106.998 112.95 114.109C112.95 114.194 112.95 114.28 112.95 114.366C112.351 114.023 111.667 113.68 111.069 113.252C110.983 104.771 116.199 100.83 122.612 104.6Z" fill="#2496B3"/>
<path d="M161.857 66.9061C161.857 66.9061 171.348 73.5025 182.378 80.9555C187.85 84.6392 189.731 94.9193 176.906 103.315C161.943 113.081 150.571 112.053 141.08 106.484C134.069 102.372 126.203 97.575 121.927 94.9193C120.987 94.3196 121.243 92.8633 122.355 92.6919C126.203 92.0923 133.128 90.2932 142.79 84.5535C155.701 77.0148 161.857 66.9061 161.857 66.9061Z" fill="#5AC9E6"/>
<path d="M156.727 107.855L128.853 91.9209L125.262 93.3773C125.262 93.3773 148.69 108.283 156.727 107.855Z" fill="#8DD8EB"/>
<path d="M162.114 70.2471C162.114 70.2471 175.367 78.7282 180.412 83.0115C185.542 87.2949 182.977 93.3773 182.977 93.3773L153.906 76.1582L162.114 70.2471Z" fill="#8DD8EB"/>
<path d="M106.195 73.0741C103.801 71.1038 93.3694 65.1927 82.254 58.5964C81.399 59.6244 80.544 60.7381 79.6034 61.7661C77.2948 64.3361 75.1573 67.2488 73.3617 70.4184L112.18 92.8633C113.377 93.5486 114.147 92.5206 113.548 90.9786C111.325 84.5535 108.76 75.1301 106.195 73.0741Z" fill="#1F282C"/>
<path d="M161.772 118.135C160.489 115.736 158.266 113.852 155.53 114.194C153.478 114.451 153.222 114.109 149.801 113.766C146.125 113.423 142.705 111.796 140.824 110.682C138.43 109.311 138.259 111.71 138.515 112.567C139.456 115.993 142.192 118.478 145.612 119.677C153.906 122.418 161.772 118.135 161.772 118.135Z" fill="#C8F1FA"/>
<path d="M166.304 109.911C164.081 110.425 161.858 110.853 160.318 111.11L159.805 110.425C159.805 110.425 168.441 108.797 175.966 104C180.754 101.002 184.516 95.9473 184.516 95.9473L184.943 96.9753C184.43 97.9176 183.661 99.2027 182.293 100.916C179.386 104.6 169.98 109.14 166.304 109.911Z" fill="#1F282C"/>
<path d="M167.415 111.624C165.62 112.053 163.397 112.481 161.943 112.824L161.002 111.796C162.627 111.453 164.85 110.939 166.988 110.339C171.006 109.226 177.248 105.97 180.925 103.058C183.062 101.344 184.516 99.2027 185.285 97.6606L185.627 99.0313C185.029 99.9737 184.345 101.43 183.062 102.801C179.899 106.399 171.006 110.768 167.415 111.624Z" fill="#1F282C"/>
<path d="M181.694 107.855C183.832 106.399 185.627 104.257 186.397 102.715C186.397 104.171 185.542 105.628 184.601 106.57C183.148 107.941 181.096 109.654 178.616 111.025C173.742 113.68 170.493 115.137 168.441 115.993C167.159 116.507 165.705 116.336 164.508 115.565C165.705 115.308 167.073 114.965 168.441 114.623C172.545 113.509 177.932 110.511 181.694 107.855Z" fill="#1F282C"/>
<path d="M181.267 105.456C183.404 104 185.029 101.858 185.969 100.316L186.226 101.344C186.226 101.43 186.226 101.43 186.226 101.516C185.713 102.458 184.943 103.657 183.832 105.028C180.925 108.797 171.434 113.081 167.843 113.852C166.475 114.194 165.021 114.537 163.739 114.794C163.739 114.794 163.739 114.794 163.653 114.708L162.542 113.509C164.081 113.166 165.876 112.738 167.586 112.31C171.69 111.196 177.505 108.112 181.267 105.456Z" fill="#1F282C"/>
<path d="M183.746 105.114C184.943 103.743 185.798 102.458 186.311 101.601C186.397 102.03 186.482 102.372 186.482 102.801C185.627 104.343 184.174 106.313 182.122 107.769C178.445 110.511 172.545 113.509 168.441 114.623C167.159 114.965 165.791 115.308 164.508 115.565C164.166 115.394 163.91 115.137 163.653 114.88C164.936 114.537 166.475 114.109 167.843 113.852C169.895 113.423 173.571 111.796 176.992 109.911C179.813 108.369 182.293 106.656 183.746 105.114Z" fill="#1C658A"/>
<path d="M167.415 111.624C171.092 110.853 179.899 106.399 183.062 102.801C184.345 101.43 185.029 99.9737 185.627 99.0313L185.969 100.316C185.029 101.858 183.404 104 181.267 105.456C179.813 106.484 178.531 107.512 176.82 108.54C174.17 110.082 170.921 111.539 168.014 112.31C166.218 112.738 164.081 113.252 162.541 113.595L161.857 112.824C163.396 112.481 165.62 111.967 167.415 111.624Z" fill="#1C658A"/>
<path d="M180.326 103.743C176.564 106.399 172.887 108.883 166.817 110.596C164.679 111.196 162.627 111.453 161.003 111.796L160.318 111.025C161.858 110.682 164.081 110.082 166.304 109.654C169.98 108.883 176.821 105.628 181.096 101.516C182.635 100.059 184.43 97.575 184.943 96.7183L185.2 97.6606C184.516 99.2026 182.806 102.03 180.326 103.743Z" fill="#1C658A"/>
<path d="M187.252 87.0379C187.252 87.0379 187.508 90.3789 187.508 93.9769C187.508 96.6326 188.62 100.316 188.62 100.316C188.62 100.316 189.988 95.262 189.817 93.3773C189.475 89.6936 187.252 87.0379 187.252 87.0379Z" fill="#C8F1FA"/>
<path d="M187.423 112.738C187.423 112.738 187.508 106.913 183.404 109.825C179.557 112.481 176.051 114.451 173.4 115.651C170.322 117.107 168.099 118.135 167.244 119.763C166.389 121.39 166.304 125.674 166.304 125.674C166.304 125.674 169.296 125.759 179.044 119.848C186.226 115.479 187.423 112.738 187.423 112.738Z" fill="#1F282C"/>
<path d="M178.616 118.478C176.992 119.506 170.921 122.333 170.921 122.333V118.478C170.921 118.478 175.281 116.507 178.616 114.537C181.78 112.652 184.088 110.682 184.088 110.682V114.623" fill="#C8F1FA"/>
<path d="M192.126 104.685C192.126 104.685 192.724 110.425 189.817 114.537C186.995 118.649 179.728 126.102 166.902 129.786C152.538 133.898 143.389 132.613 138.088 130.214C132.786 127.815 132.188 127.987 132.017 125.502C131.846 123.018 134.154 124.731 134.154 124.731C134.154 124.731 136.463 128.672 147.664 129.357C153.564 129.7 161.173 128.672 167.501 126.787C173.144 125.074 178.616 121.647 184.088 117.707C191.784 112.138 192.126 104.685 192.126 104.685Z" fill="#2496B3"/>
<path d="M158.266 123.618C158.865 123.618 159.207 124.303 158.95 124.817C158.608 125.417 158.095 126.188 157.497 126.787C155.616 128.501 147.236 128.586 146.296 127.73C145.355 126.873 145.954 124.132 148.262 124.217C151.341 124.303 155.616 123.532 158.266 123.618Z" fill="#1F282C"/>
<path d="M191.613 99.2026C191.613 99.2026 191.014 102.115 190.587 103.229C190.159 104.343 192.211 104.771 192.211 104.771C192.211 104.771 192.126 101.344 191.613 99.2026Z" fill="#1F282C"/>
<path d="M173.657 109.14C173.913 109.911 175.367 109.997 176.906 109.311C178.445 108.626 179.471 107.427 179.215 106.656C178.958 105.885 177.504 105.799 175.965 106.484C174.512 107.17 173.4 108.369 173.657 109.14Z" fill="#C8F1FA"/>
<path d="M67.291 87.9803L111.154 113.338L111.838 113.766V111.196L67.7185 85.5816C67.5475 86.3526 67.462 87.2092 67.291 87.9803Z" fill="#2496B3"/>
<path d="M105.767 76.0725C105.083 74.7018 103.544 72.9028 101.663 71.7035C96.362 68.4481 88.3247 63.9934 88.3247 63.9934L87.2987 76.4152L106.964 87.8089C106.964 87.8089 107.05 82.7545 106.964 80.6129C106.964 79.4992 106.537 77.7858 105.767 76.0725Z" fill="#1C658A"/>
<path d="M74.1312 69.1334L84.6481 75.3015L85.6741 62.7941L80.9715 60.0527C80.544 60.5667 80.1164 61.0807 79.6034 61.5947C77.6369 63.9077 75.7558 66.4778 74.1312 69.1334Z" fill="#1C658A"/>
<path d="M148.262 50.1153C150.828 53.1137 163.397 67.9341 163.397 67.9341L165.021 69.0478L164.508 70.3328L163.568 71.1038C163.568 71.1038 161.772 70.1615 160.062 68.1911C155.701 63.2224 148.177 53.799 146.98 52.257C145.697 50.715 144.586 50.458 144.586 50.458C144.586 50.458 145.783 47.117 148.262 50.1153Z" fill="#5AC9E6"/>
<path d="M159.207 66.6491L147.749 52.8567C146.894 51.9143 146.21 51.229 145.184 51.8287L113.121 70.6755C111.924 71.3608 111.496 72.8171 112.009 74.1021L119.106 90.1219C119.875 91.9209 121.842 92.9489 123.809 92.6063C128.853 91.5783 137.062 88.8369 147.151 82.0692C156.727 75.7298 159.121 73.1598 160.746 71.0181C161.772 69.9045 160.66 68.2768 159.207 66.6491Z" fill="#1F282C"/>
<path d="M158.352 68.1054C158.095 67.8484 157.839 67.4201 157.411 66.9918L147.065 54.7414L146.723 54.313C146.296 53.8847 145.697 53.799 145.099 54.056L114.232 72.2175C113.805 72.4745 113.634 72.9885 113.805 73.4168L120.901 88.4942C121.329 89.4366 122.184 89.9506 123.125 89.9506C123.296 89.9506 123.467 89.9506 123.638 89.8649C128.426 88.8369 135.693 86.3526 145.526 79.7562C153.906 74.1878 156.727 71.6178 158.181 69.8188C158.779 69.4761 158.779 68.7051 158.352 68.1054Z" fill="#1C658A"/>
<path d="M96.704 140.323C91.1463 141.094 85.8451 140.323 81.3135 137.753C64.2128 127.987 64.1273 96.1186 81.1425 66.5634C89.6928 51.8287 100.808 40.4349 112.009 33.9242C123.21 27.4135 134.411 25.8715 142.961 30.7545C147.236 33.2389 150.486 37.0082 152.623 41.8913C158.779 41.0346 165.192 40.1779 171.006 39.4926C169.04 26.7282 163.482 16.6194 154.162 11.3081C142.448 4.62603 127.229 6.76771 111.924 15.5914C96.6185 24.4152 81.399 39.9209 69.7705 60.1384C48.2237 97.575 46.7702 137.667 65.4099 153.944L61.0492 161.483L70.9676 167.137L75.3282 159.598C82.938 162.082 91.5738 161.568 100.552 158.399L96.704 140.323Z" fill="#C8F1FA"/>
<path d="M201.189 146.063L191.442 140.409L187.85 142.465L197.683 148.119L201.189 146.063Z" fill="white"/>
<path d="M185.627 137.068L178.616 133.041L175.025 135.097L182.036 139.124L185.627 137.068Z" fill="white"/>
<path d="M194.52 52.771L205.55 59.1961V71.9605L194.52 65.5354V52.771Z" fill="#3DAFCC"/>
<path d="M227.609 55.5124L238.639 61.8517V91.0642L227.609 84.7249V55.5124Z" fill="#C8F1FA"/>
<path d="M211.107 27.4135L222.137 33.7529V81.5552L211.107 75.1301V27.4135Z" fill="#98DAEB"/>
<path d="M58.9987 168.422C58.4857 168.764 58.1436 168.936 57.6306 169.193L43.7791 193.18C43.7791 193.779 43.7791 194.122 43.7791 194.722L50.7904 198.748C51.3034 198.405 51.6454 198.234 52.1584 197.977L66.0099 173.99C66.0099 173.39 66.0099 173.048 66.0099 172.448L64.5564 171.591L60.4522 169.193L58.9987 168.422Z" fill="#3DAFCC"/>
<path d="M60.3653 169.278L58.9117 168.422C58.3987 168.764 58.0567 168.936 57.5437 169.193L43.6921 193.18C43.6921 193.779 43.6921 194.122 43.6921 194.722L46.9413 196.606C47.0268 196.606 47.0268 196.521 47.1123 196.521L62.2463 170.306L60.3653 169.278Z" fill="#2496B3"/>
<path d="M60.7073 169.45C60.1942 169.792 59.8522 169.964 59.3392 170.221L54.6365 178.359C54.6365 178.959 54.6365 179.302 54.6365 179.901L59.5957 182.728C60.1087 182.386 60.4508 182.214 60.9638 181.957L65.6665 173.819C65.6665 173.219 65.6665 172.876 65.6665 172.277L64.2129 171.42L62.1608 170.221L60.7073 169.45Z" fill="#C8F1FA"/>
<path d="M63.2724 170.906C62.7594 171.249 62.4174 171.42 61.9043 171.677L57.2017 179.815C57.2017 180.415 57.2017 180.758 57.2017 181.357L62.0753 184.099C62.5884 183.756 62.9304 183.585 63.4434 183.328L68.1461 175.189C68.1461 174.59 68.1461 174.247 68.1461 173.647L66.6925 172.791L64.7259 171.677L63.2724 170.906Z" fill="white"/>
<path d="M67.7185 175.875L61.4768 172.362L60.7073 173.733L66.949 177.245L67.7185 175.875Z" fill="#8DD8EB"/>
<path d="M59.1682 176.389L65.4099 179.987L66.1795 178.616L59.9377 175.018L59.1682 176.389Z" fill="#8DD8EB"/>
<path d="M57.6292 179.044L63.8709 182.643L64.6404 181.272L58.3987 177.759L57.6292 179.044Z" fill="#8DD8EB"/>
<path d="M44.0467 212.21C45.4022 209.717 44.9547 206.852 43.0473 205.811C41.1399 204.77 38.4948 205.947 37.1393 208.44C35.7839 210.932 36.2313 213.797 38.1388 214.838C40.0462 215.879 42.6913 214.703 44.0467 212.21Z" fill="#2496B3"/>
<path d="M40.6995 206.544C40.614 206.544 40.614 206.544 40.6995 206.544C40.614 206.544 40.614 206.544 40.6995 206.544L40.101 206.201L39.588 205.944C38.6474 206.458 37.7069 207.315 37.1084 208.428C36.5099 209.542 36.2533 210.656 36.3388 211.769L38.3054 212.883L38.9039 213.226L39.5025 213.568L40.785 211.341C40.956 211.17 41.127 210.913 41.2125 210.656C41.298 210.484 41.3835 210.227 41.469 210.056L42.7516 207.829L40.6995 206.544Z" fill="#5AC9E6"/>
<path d="M43.2646 210.998L44.5472 208.771L42.4096 207.572C42.4096 207.572 42.4096 207.572 42.3241 207.572C41.127 206.886 39.417 207.657 38.4764 209.285C37.6214 210.827 37.8779 212.712 39.075 213.397L41.2125 214.596L42.4951 212.369C42.6661 212.198 42.8371 211.941 42.9226 211.684C43.0936 211.427 43.1791 211.17 43.2646 210.998Z" fill="#C8F1FA"/>
<path d="M45.2017 212.901C46.0827 211.281 45.7885 209.417 44.5445 208.738C43.3006 208.059 41.5779 208.822 40.6968 210.442C39.8158 212.062 40.11 213.926 41.354 214.605C42.5979 215.285 44.3206 214.521 45.2017 212.901Z" fill="white"/>
<path d="M194.52 72.6458L238.639 98.1746" stroke="#8DD8EB" stroke-miterlimit="10"/>
</svg>
