<svg width="128" height="128" viewBox="0 0 128 128" fill="none" xmlns="http://www.w3.org/2000/svg">
<path d="M59 30V0H69V30H59ZM89 30V12H79V30H89ZM49 30V18H39V30H49Z" fill="#1F282C"/>
<path d="M10 54H0V90H10V54Z" fill="#1F282C"/>
<path d="M128 54H118V90H128V54Z" fill="#1F282C"/>
<path d="M20 40V106.619C30.254 119.633 46.145 128 64 128C81.855 128 97.746 119.633 108 106.619V40H20ZM42 79C38.133 79 35 75.867 35 72C35 68.135 38.133 65 42 65C45.867 65 49 68.135 49 72C49 75.867 45.867 79 42 79ZM76 101H52V91H76V101ZM92 78H80V66H92V78Z" fill="#3CB0CB"/>
</svg>
