<svg width="128" height="128" viewBox="0 0 128 128" fill="none" xmlns="http://www.w3.org/2000/svg">
<path d="M23.3821 18.703L64.2796 59.514L105.177 18.703C94.0758 9.521 79.8261 4 64.2796 4C48.7331 4 34.4833 9.521 23.3821 18.703Z" fill="#1F282C"/>
<path d="M76.2135 73H120C118.961 84.708 114.32 95.379 107.178 103.899L76.2135 73ZM120 63C118.961 51.292 114.319 40.621 107.177 32.1L76.2125 63H120ZM8 68C8 98.928 33.1245 124 64.1172 124C77.8099 124 90.3511 119.101 100.092 110.971L21.0563 32.101C12.9093 41.821 8 54.337 8 68Z" fill="#1EB0CD"/>
</svg>
