<svg width="128" height="128" viewBox="0 0 128 128" fill="none" xmlns="http://www.w3.org/2000/svg">
<path d="M105.969 128C105.969 119.164 98.805 112 89.969 112C89.965 112 89.961 112 89.961 112H38.02C38.004 112 37.989 112 37.969 112C29.133 112 21.969 119.164 21.969 128H105.969Z" fill="#1F282C"/>
<path d="M64 0C33.072 0 8 25.072 8 56C8 75.06 17.53 91.886 32.077 102H95.924C110.47 91.886 120.001 75.06 120.001 56C120 25.072 94.928 0 64 0ZM46.391 74.789L41.352 86.807L36.313 74.789L24.297 69.75L36.313 64.711L41.352 52.695L46.391 64.711L58.407 69.75L46.391 74.789ZM87.983 48.135L81.243 64.203L74.507 48.135L58.441 41.397L74.507 34.657L81.243 18.591L87.983 34.659L104.049 41.397L87.983 48.135Z" fill="#3CB0CB"/>
</svg>
