<svg id="Layer_1" data-name="Layer 1" xmlns="http://www.w3.org/2000/svg" viewBox="0 0 83 90"><defs><style>.cls-1{fill:#ffd15c;}.cls-1,.cls-2,.cls-4{fill-rule:evenodd;}.cls-2,.cls-3{fill:#3dafcc;}.cls-4{fill:#fff;}</style></defs><title>certificate_ribbon</title><path class="cls-1" d="M10.20893,67.06681.22026,82.45754H8.88391l4.28088,7.44054L22.1342,75.93432A43.81137,43.81137,0,0,1,10.20893,67.06681Z"/><path class="cls-1" d="M60.8658,76.03624,69.83521,90l4.28088-7.44055h8.66365L72.79107,67.16873A44.90764,44.90764,0,0,1,60.8658,76.03624Z"/><path class="cls-2" d="M73.91221,37.5085l5.19823-6.52319-7.13481-4.38287,2.5481-7.84824L66.2678,17.02156l-.30575-8.256L57.70612,9.88675,54.54639,2.24234,47.10593,6.11551,41.5,0l-5.6059,6.11551L28.45355,2.24234,25.29393,9.88675l-8.256-1.12122-.30576,8.256L8.47621,18.7542l2.5481,7.84824-7.1347,4.38287L9.08773,37.5085,3.88961,44.03168l7.1347,4.38287-2.5481,7.84814,8.25593,1.73275.30576,8.256,8.256-1.12123,3.15962,7.64441,7.44057-3.87316L41.5,75.017l5.60591-6.1155,7.44046,3.87316,3.15973-7.64441,8.25593,1.12123.30575-8.256,8.25593-1.73275-2.5481-7.84814,7.13481-4.38287Zm-32.616,26.29668A26.195,26.195,0,1,1,67.59287,37.61042,26.20862,26.20862,0,0,1,41.29618,63.80518Z"/><path class="cls-3" d="M10.20893,67.06681.22026,82.45754H8.88391l4.28088,7.44054L22.1342,75.93432A43.81137,43.81137,0,0,1,10.20893,67.06681Z"/><path class="cls-3" d="M60.8658,76.03624,69.83521,90l4.28088-7.44055h8.66365L72.79107,67.16873A44.90764,44.90764,0,0,1,60.8658,76.03624Z"/><path class="cls-4" d="M41.29614,16.5025A21.1081,21.1081,0,1,0,62.5,37.61041,21.19041,21.19041,0,0,0,41.29614,16.5025ZM37.94092,47.32861l-8.90821-8.90838,3.81788-3.81781,5.09033,5.09045L49.7417,27.89221,53.55957,31.71Z"/></svg>