<svg id="Layer_1" data-name="Layer 1" xmlns="http://www.w3.org/2000/svg" xmlns:xlink="http://www.w3.org/1999/xlink" viewBox="0 0 276 124"><defs><style>.cls-1{fill:none;}.cls-2{fill:#3dafcc;}.cls-3{clip-path:url(#clip-path);}.cls-4{fill:#9bdbea;}.cls-5{fill:#474f54;}.cls-6{fill:#dffaff;}.cls-7{fill:#fff;}</style><clipPath id="clip-path"><rect class="cls-1" width="276" height="124"/></clipPath></defs><title>prepare_2</title><rect class="cls-2" width="276" height="124"/><g class="cls-3"><ellipse class="cls-4" cx="138" cy="62" rx="111.71647" ry="112.10567"/><path class="cls-4" d="M94.74776,153.05885,89,174.58459,48.2018,198.22149l114.40537,30.76162-18.32043-31.84246,5.74778-21.52574,15.51532-15.05422,5.74778-21.52574-67.92819-18.26471Z"/><path class="cls-2" d="M104.92541,71.12776A3.68781,3.68781,0,0,0,102.29,66.64715l-.023-.04a3.70054,3.70054,0,0,0-4.51013,2.6663L91.2082,94.42908,69.79036,88.67019a3.643,3.643,0,0,0-.9415-.06164,7.4107,7.4107,0,1,0-1.8205,6.81789,3.65011,3.65011,0,0,0,.84608.419l25.02617,6.72911a3.69817,3.69817,0,0,0,4.54155-2.65786Z"/><path class="cls-2" d="M112.05988,30.82208l-28.60134-7.6904L87.29039,8.78119a3.63636,3.63636,0,0,0,.05968-.94526A7.42106,7.42106,0,0,0,93.04225.71475a7.423,7.423,0,0,0-5.48582-7.28039A7.39081,7.39081,0,0,0,79.178-3.0131a7.44687,7.44687,0,0,0,1.3796,9.02266,3.70537,3.70537,0,0,0-.41755.849L75.35024,24.7967a3.71572,3.71572,0,0,0,2.6172,4.54892L110.144,37.99733a3.71334,3.71334,0,0,0,1.91593-7.17525Z"/><path class="cls-2" d="M111.9381,53.17525l-.05411-.01455L70.50281,42.71933a3.41319,3.41319,0,0,0-.85945-.03959,7.4107,7.4107,0,1,0-1.82051,6.81789,3.55366,3.55366,0,0,0,.82164.41243l.05761.01549L110.07978,60.366a3.71351,3.71351,0,0,0,1.85832-7.19074Z"/><path class="cls-5" d="M58.80817,101.09809a11.14,11.14,0,1,1,13.5994-7.879A11.14718,11.14718,0,0,1,58.80817,101.09809ZM62.64,86.74759a3.71334,3.71334,0,1,0,2.6172,4.54893A3.70016,3.70016,0,0,0,62.64,86.74759Z"/><path class="cls-5" d="M82.75726,11.40751A11.14718,11.14718,0,0,1,74.90564-2.23926a11.10047,11.10047,0,0,1,13.5994-7.879A11.14716,11.14716,0,0,1,96.35665,3.52854,11.10047,11.10047,0,0,1,82.75726,11.40751ZM86.58911-2.943A3.70015,3.70015,0,0,0,82.056-.31666a3.71572,3.71572,0,0,0,2.6172,4.54892,3.70016,3.70016,0,0,0,4.53314-2.62632A3.71572,3.71572,0,0,0,86.58911-2.943Z"/><path class="cls-5" d="M59.57823,55.16271a11.09919,11.09919,0,1,1,3.4278.364A11.144,11.144,0,0,1,59.57823,55.16271Zm3.83185-14.3505a3.788,3.788,0,0,0-1.11943-.117,3.70509,3.70509,0,1,0,1.11943.117Z"/><path class="cls-2" d="M188.09176,101.25338,161.278,94.04362a4.25468,4.25468,0,0,1-3.511-4.78925,4.23715,4.23715,0,0,1,5.42693-2.386l26.81376,7.20975a4.25466,4.25466,0,0,1,3.511,4.78925A4.23715,4.23715,0,0,1,188.09176,101.25338Z"/><path class="cls-2" d="M187.583,78.04536,158.98165,70.355a3.71334,3.71334,0,0,1,1.91593-7.17525l28.60134,7.69041a3.71333,3.71333,0,0,1-1.91592,7.17524Z"/><path class="cls-2" d="M193.33078,56.51962l-21.451-5.7678a3.71334,3.71334,0,0,1,1.91593-7.17525l21.451,5.76781a3.71333,3.71333,0,0,1-1.91592,7.17524Z"/><path class="cls-2" d="M217.91236,36.21276l-32.17651-8.6517a3.71573,3.71573,0,0,1-2.61721-4.54893l1.91593-7.17524L156.43323,8.14648,152.60137,22.497a3.70217,3.70217,0,1,1-7.15033-1.92261l4.78982-17.93811A3.70015,3.70015,0,0,1,154.774.00994l35.75168,9.613a3.71573,3.71573,0,0,1,2.6172,4.54893l-1.91593,7.17524,28.60135,7.69041Z"/><path class="cls-2" d="M142.25168,104.30859l7.15034,1.9226-1.91593,7.17524-7.15033-1.9226Z"/><path class="cls-2" d="M156.55236,108.15379l7.15033,1.9226-1.91592,7.17525-7.15034-1.92261Z"/><path class="cls-2" d="M170.853,111.999l21.451,5.76781-1.91592,7.17524-21.451-5.7678Z"/><path class="cls-2" d="M115.75417,131.79069a3.71572,3.71572,0,0,1-2.6172-4.54892l8.62167-32.28861a3.70217,3.70217,0,1,1,7.15034,1.9226l-8.62167,32.28861A3.70017,3.70017,0,0,1,115.75417,131.79069Z"/><path class="cls-5" d="M161.63468,67.22311a26.08161,26.08161,0,0,0,.59695-2.99939L177.85,57.09413l-3.83208-14.34965-17.09811,1.67736a25.60563,25.60563,0,0,0-4.28315-4.336l1.65982-17.13311-14.30067-3.8452-7.10088,15.65508a25.66816,25.66816,0,0,0-5.86977,1.606L113.04975,26.35121l-10.4686,10.50445,9.97345,14.01076a24.28022,24.28022,0,0,0-1.57446,5.89646L95.36181,63.89246l3.83208,14.34965L116.292,76.56476a25.785,25.785,0,0,0,4.28315,4.336l-.56827,5.891-1.08631,11.24352,14.30067,3.84521,7.09564-15.6565a25.4903,25.4903,0,0,0,5.86977-1.606L160.162,94.63539l10.46859-10.50445-9.97345-14.01077A26.06474,26.06474,0,0,0,161.63468,67.22311Zm-27.90007,4.03376a11.14,11.14,0,1,1,13.5994-7.879A11.146,11.146,0,0,1,133.73461,71.25687Z"/><path class="cls-2" d="M131.97077,128.46065l-15.32741,57.402L83.95348,207.8345l-35.75168-9.613L89,174.58459l14.36945-53.81435Z"/><path class="cls-6" d="M219.82829,29.03752,195.2467,49.34438,183.75114,92.39585l6.89365,17.2344-3.83185,14.35049-19.79177,2.36874-7.6637,28.701S183.169,180.679,186.74416,181.64029l21.451,5.76781,5.74778-21.52574,9.06626-5.25265,3.83185-14.35049,8.79827,2.3657a3.707,3.707,0,0,0,4.61459-4.16465l-4.79119-30.48966a25.343,25.343,0,0,0,11.77551-15.39889,61.2624,61.2624,0,0,0-18.43249-61.56027Z"/><path class="cls-4" d="M223.77927,114.69433l-10.72551-2.8839a3.71334,3.71334,0,0,1,1.91593-7.17525l7.15034,1.92261,1.91592-7.17525a3.70217,3.70217,0,1,1,7.15034,1.9226L228.3124,112.068A3.70015,3.70015,0,0,1,223.77927,114.69433Z"/><path class="cls-7" d="M205.97221,52.22828l7.15033,1.9226-3.83185,14.35049-7.15034-1.9226Z"/><path class="cls-7" d="M200.22443,73.754l7.15033,1.9226-1.91592,7.17525-7.15034-1.92261Z"/><path class="cls-7" d="M196.39257,88.10451l7.15034,1.9226L201.627,97.20236l-7.15033-1.9226Z"/></g></svg>