<svg id="Layer_1" data-name="Layer 1" xmlns="http://www.w3.org/2000/svg" xmlns:xlink="http://www.w3.org/1999/xlink" viewBox="0 0 276 124"><defs><style>.cls-1{fill:none;}.cls-2{fill:#3dafcc;}.cls-3{clip-path:url(#clip-path);}.cls-4{fill:#fd9d34;}.cls-5{fill:#ec5b20;}.cls-6{fill:#32393f;}.cls-7{fill:#9bdbea;}.cls-8{fill:#575f64;}.cls-9{fill:#474f54;}.cls-10{fill:#cde1e6;}.cls-11{fill:#b4d2d7;}.cls-12{fill:#f7d46a;}.cls-13{fill:#f2c43f;}.cls-14{fill:#dd96fa;}.cls-15{fill:#ca75ed;}.cls-16{fill:#e1ebf0;}.cls-17{fill:#77838a;}</style><clipPath id="clip-path"><rect class="cls-1" width="276" height="124"/></clipPath></defs><title>prepare_1</title><rect class="cls-2" width="276" height="124"/><g class="cls-3"><path class="cls-4" d="M1.73762,102.49087l-22.58727,13.50765L-48.22917,224.51936,77.93892,256.57342,109.8817,129.96578Z"/><path class="cls-5" d="M-2.82564,120.57768l90.12007,22.89575-9.1265,36.17362-90.12007-22.89576Z"/><path class="cls-6" d="M35.504,120.69258l18.024,4.57915-6.84488,27.13021-18.024-4.57915Z"/><path class="cls-7" d="M-9.44152,70.78151,262.1203,139.77406,247.871,196.25219-23.6908,127.25965Z"/><path class="cls-2" d="M125.73859,105.12514,262.1203,139.77406l-11.40814,45.217-136.3817-34.64891Z"/><path class="cls-8" d="M314.67293,7.49637l-18.55723,73.553L273.52843,94.557,146.15873,62.1977,132.698,39.53175l18.55723-73.553Z"/><path class="cls-9" d="M314.67293,7.49637l-18.55723,73.553L273.52843,94.557,209.84358,78.37737l23.12049-91.63982Z"/><path class="cls-10" d="M182.80756,71.50865l54.072,13.73745-11.40813,45.217-54.072-13.73746Z"/><path class="cls-11" d="M209.84358,78.37737l27.036,6.86873-11.40813,45.217-27.036-6.86873Z"/><path class="cls-12" d="M30.55647-11.73484l54.072,13.73745-21.974,87.0955L8.5825,75.36066Z"/><path class="cls-13" d="M48.58048-7.15569l36.048,9.1583-21.974,87.0955-36.048-9.1583Z"/><path class="cls-14" d="M69.72842-14.95847l36.048,9.1583L80.67855,93.67727,44.63053,84.519Z"/><path class="cls-15" d="M87.75244-10.37932l18.024,4.57915L80.67855,93.67727l-18.024-4.57916Z"/><path class="cls-16" d="M132.698,39.53175,296.1157,81.04939,286.98919,117.223,123.57146,75.70536Z"/><path class="cls-10" d="M214.40683,60.29057,296.1157,81.04939,286.98919,117.223,205.28033,96.46418Z"/><path class="cls-8" d="M-25.1839,57.159l307.60984,78.15086-4.56326,18.0868L-29.74716,75.24576Z"/><path class="cls-9" d="M128.02022,96.08174l154.40572,39.22807-4.56326,18.0868L123.457,114.16855Z"/><ellipse class="cls-17" cx="209.84358" cy="78.37738" rx="6.84488" ry="6.86873"/><path class="cls-8" d="M208.16524,85.02948a6.86058,6.86058,0,0,0,3.35654-13.30424Z"/></g></svg>