<svg id="Layer_1" data-name="Layer 1" xmlns="http://www.w3.org/2000/svg" xmlns:xlink="http://www.w3.org/1999/xlink" viewBox="0 0 276 124"><defs><style>.cls-1{fill:none;}.cls-2{clip-path:url(#clip-path);}.cls-3{fill:#3dafcc;}.cls-4{fill:#a749cf;}.cls-5{fill:#bf5de8;}.cls-6{fill:#fff;}</style><clipPath id="clip-path"><rect class="cls-1" width="276" height="124"/></clipPath></defs><title>prepare_4</title><g class="cls-2"><rect class="cls-3" width="276" height="124"/><path class="cls-4" d="M57.35691,103.253l129.08422,34.5538a16.75558,16.75558,0,0,0,20.459-11.80034l23.02737-85.85432a16.73554,16.73554,0,0,0-11.812-20.43879L89.03129-14.84048a16.75559,16.75559,0,0,0-20.459,11.80034L45.54489,82.81419A16.73552,16.73552,0,0,0,57.35691,103.253ZM124.517,23.411,171.739,70.5865,107.23248,87.854Z"/><path class="cls-5" d="M89.03131-14.8405a16.75551,16.75551,0,0,0-20.459,11.80026L45.54484,82.81416A16.73554,16.73554,0,0,0,57.3569,103.25291l64.27069,17.20426a20.39784,20.39784,0,0,0,4.75439-8.59093L154.81321,5.86454a20.42052,20.42052,0,0,0,.53893-2.952Z"/><polygon class="cls-6" points="124.517 23.411 107.232 87.854 171.739 70.586 124.517 23.411"/></g></svg>