<svg id="Layer_1" data-name="Layer 1" xmlns="http://www.w3.org/2000/svg" xmlns:xlink="http://www.w3.org/1999/xlink" viewBox="0 0 276 124"><defs><style>.cls-1{fill:none;}.cls-2{fill:#3dafcc;}.cls-3{clip-path:url(#clip-path);}.cls-4{fill:#00556b;}.cls-5{fill:#137f9b;}.cls-6{fill:#006782;}.cls-7{fill:#1f282c;}.cls-8{fill:#5c546a;}.cls-9{fill:#ffe671;}.cls-10{fill:#ffcd00;}</style><clipPath id="clip-path"><rect class="cls-1" width="276" height="124"/></clipPath></defs><title>prepare_3</title><rect class="cls-2" width="276" height="124"/><g class="cls-3"><path class="cls-4" d="M193.82381,47.51905a4.26234,4.26234,0,0,0-3.49588-5.31626L46.47526,21.18294a4.25191,4.25191,0,0,0-4.71642,3.1164L31.85977,61.37185c-4.341,16.25732,40.945,33.084,68.38812,40.46293S175.294,117.36336,179.635,101.106l.0022-.00823Z"/><path class="cls-5" d="M190.52206,59.88428l-73.88759-19.8671-16.4983,61.787c.03695.00993.07529.0208.11223.03073,26.72524,7.18595,72.55176,15.093,78.94171.48812Z"/><path class="cls-6" d="M248.47387,37.83658,153.07724-26.55034a55.33218,55.33218,0,0,0-34.61069-9.30622L3.77356-27.95909A12.60321,12.60321,0,0,0-7.674-18.50819,12.65688,12.65688,0,0,0-2.46863-4.58179L92.924,59.80351a55.35012,55.35012,0,0,0,34.6112,9.30636l114.69748-7.89571a12.80076,12.80076,0,0,0,6.24115-23.37758Z"/><path class="cls-7" d="M177.0286,126.89467a4.26485,4.26485,0,0,1-3.005-5.22289L188.39528,67.8492a4.27371,4.27371,0,0,0-1.73309-4.64361l-65.789-44.403a4.25915,4.25915,0,0,1,4.74209-7.0763l65.789,44.40305A12.81665,12.81665,0,0,1,196.605,70.05665l-14.37165,53.82258A4.247,4.247,0,0,1,177.0286,126.89467Z"/><path class="cls-6" d="M104.648,85.35823c29.78182,8.00782,61.022,11.553,77.41553,6.57651l2.98682-11.2805c-1.95822,5.51086-30.81546,9.20723-78.20256-3.53434-47.80732-12.85456-70.981-30.7525-69.488-36.34376L34.31114,52.19345C46.018,64.73392,74.8523,77.34669,104.648,85.35823Z"/><path class="cls-8" d="M181.95663,91.96228c.03406-.01016.07335-.01724.10689-.02754l2.98682-11.2805c-.02219.06246-.09391.121-.123.18269Z"/><path class="cls-7" d="M106.73582,77.08814C59.00706,64.236,35.86789,46.36328,37.35977,40.77614l-3.04864,11.4173c11.6924,12.52446,40.46866,25.12,70.22476,33.13356Z"/><ellipse class="cls-4" cx="123.34621" cy="15.33239" rx="8.52695" ry="17.00266" transform="translate(76.44437 130.43925) rotate(-74.91663)"/><path class="cls-9" d="M180.04039,132.082l-8.20973-2.20745a4.26623,4.26623,0,0,1-3.005-5.2229l6.59937-24.715a8.496,8.496,0,0,1,10.40953-6.03088h0a8.45394,8.45394,0,0,1,3.8127,2.20787,8.54549,8.54549,0,0,1,2.19724,8.23792l-6.59937,24.715A4.24835,4.24835,0,0,1,180.04039,132.082Z"/><path class="cls-10" d="M175.42506,99.93668l-6.59937,24.715a4.26623,4.26623,0,0,0,3.005,5.2229l4.10487,1.10372,9.89906-37.0725A8.49637,8.49637,0,0,0,175.42506,99.93668Z"/></g></svg>