<svg id="Layer_1" data-name="Layer 1" xmlns="http://www.w3.org/2000/svg" viewBox="0 0 57 57.00138"><defs><style>.cls-1{fill:#ceeaf2;}.cls-2{fill:#fff;}.cls-3{fill:#3dafcc;}.cls-4{fill:#1f282c;}</style></defs><title>questions</title><rect class="cls-1" x="0.64741" y="0.64878" width="13.2121" height="13.89281"/><rect class="cls-2" x="13.8595" y="0.64878" width="35.55554" height="13.89281"/><rect class="cls-2" x="13.8595" y="21.55408" width="35.55554" height="13.89281"/><rect class="cls-2" x="13.8595" y="42.45937" width="35.55554" height="13.89281"/><rect class="cls-1" x="0.64741" y="21.51264" width="13.2121" height="13.89281"/><rect class="cls-1" x="0.64741" y="42.37649" width="13.2121" height="13.89281"/><polygon class="cls-3" points="42.982 28.686 42.982 46.554 46.543 42.088 49.415 48.334 53.515 46.448 50.644 40.203 56.352 40.407 42.982 28.686"/><path class="cls-4" d="M49.41518,15.18927H.64763A.64778.64778,0,0,1,0,14.54117V.64879A.64778.64778,0,0,1,.64763.00069H49.41518a.64778.64778,0,0,1,.64763.6481V14.54117A.64778.64778,0,0,1,49.41518,15.18927ZM1.29526,13.89307H48.76755V1.2969H1.29526Z"/><path class="cls-4" d="M13.85963,15.18927H.64763A.64778.64778,0,0,1,0,14.54117V.64879A.64778.64778,0,0,1,.64763.00069h13.212a.64778.64778,0,0,1,.64763.6481V14.54117A.64778.64778,0,0,1,13.85963,15.18927ZM1.29526,13.89307H13.212V1.2969H1.29526Z"/><path class="cls-4" d="M33.3538,6.36106H18.04466a.64811.64811,0,0,1,0-1.29621H33.3538a.64811.64811,0,0,1,0,1.29621Z"/><path class="cls-4" d="M21.98106,10.12609h-3.9364a.64811.64811,0,0,1,0-1.29621h3.9364a.64811.64811,0,0,1,0,1.29621Z"/><path class="cls-4" d="M44.618,10.12609H26.40063a.64811.64811,0,0,1,0-1.29621H44.618a.64811.64811,0,0,1,0,1.29621Z"/><path class="cls-4" d="M7.25339,9.61812a.64811.64811,0,0,1,0-1.29621A1.92242,1.92242,0,1,0,5.33,6.4a.64763.64763,0,1,1-1.29526,0,3.2187,3.2187,0,1,1,3.2187,3.21814Z"/><path class="cls-4" d="M7.25339,12.45089a.64779.64779,0,0,1-.64764-.6481v-.60237a.64764.64764,0,1,1,1.29527,0v.60237A.64778.64778,0,0,1,7.25339,12.45089Z"/><path class="cls-4" d="M39.23893,36.095H.64763A.64778.64778,0,0,1,0,35.44688V21.5545a.64778.64778,0,0,1,.64763-.6481H49.41518a.64778.64778,0,0,1,.64763.6481v7.89013a.64763.64763,0,1,1-1.29526,0v-7.242H1.29526V34.79878H39.23893a.6481.6481,0,0,1,0,1.2962Z"/><path class="cls-4" d="M13.85963,36.095H.64763A.64778.64778,0,0,1,0,35.44688V21.5545a.64778.64778,0,0,1,.64763-.6481h13.212a.64778.64778,0,0,1,.64763.6481V35.44688A.64778.64778,0,0,1,13.85963,36.095ZM1.29526,34.79878H13.212V22.20261H1.29526Z"/><path class="cls-4" d="M33.3538,27.26579H18.04466a.6481.6481,0,0,1,0-1.2962H33.3538a.6481.6481,0,0,1,0,1.2962Z"/><path class="cls-4" d="M21.98106,31.03082h-3.9364a.6481.6481,0,0,1,0-1.2962h3.9364a.6481.6481,0,0,1,0,1.2962Z"/><path class="cls-4" d="M39.15768,31.03082h-12.757a.6481.6481,0,0,1,0-1.2962H39.15768a.6481.6481,0,0,1,0,1.2962Z"/><path class="cls-4" d="M7.25339,30.52382a.6481.6481,0,0,1,0-1.2962A1.9229,1.9229,0,1,0,5.33,27.30472a.64763.64763,0,1,1-1.29526,0,3.2187,3.2187,0,1,1,3.2187,3.2191Z"/><path class="cls-4" d="M7.25339,33.35563a.64779.64779,0,0,1-.64764-.64811v-.60139a.64764.64764,0,1,1,1.29527,0v.60139A.64779.64779,0,0,1,7.25339,33.35563Z"/><path class="cls-4" d="M49.41518,57.00069H.64763A.64778.64778,0,0,1,0,56.35259V42.45924a.64778.64778,0,0,1,.64763-.6481H39.15768a.6481.6481,0,0,1,0,1.2962H1.29526V55.70449H48.76755V51.8003a.64763.64763,0,1,1,1.29526,0v4.55229A.64778.64778,0,0,1,49.41518,57.00069Z"/><path class="cls-4" d="M13.85963,57.00069H.64763A.64778.64778,0,0,1,0,56.35259V42.45924a.64778.64778,0,0,1,.64763-.6481h13.212a.64778.64778,0,0,1,.64763.6481V56.35259A.64778.64778,0,0,1,13.85963,57.00069ZM1.29526,55.70449H13.212V43.10734H1.29526Z"/><path class="cls-4" d="M33.3538,48.1715H18.04466a.64811.64811,0,0,1,0-1.29621H33.3538a.64811.64811,0,0,1,0,1.29621Z"/><path class="cls-4" d="M21.98106,51.93653h-3.9364a.6481.6481,0,0,1,0-1.2962h3.9364a.6481.6481,0,0,1,0,1.2962Z"/><path class="cls-4" d="M44.618,51.93653H26.40063a.6481.6481,0,0,1,0-1.2962H44.618a.6481.6481,0,0,1,0,1.2962Z"/><path class="cls-4" d="M7.25339,51.42953a.6481.6481,0,0,1,0-1.2962A1.9229,1.9229,0,1,0,5.33,48.21043a.64763.64763,0,1,1-1.29526,0,3.2187,3.2187,0,1,1,3.2187,3.2191Z"/><path class="cls-4" d="M7.25339,54.26134a.64779.64779,0,0,1-.64764-.64811v-.60236a.64764.64764,0,1,1,1.29527,0v.60236A.64779.64779,0,0,1,7.25339,54.26134Z"/><path class="cls-4" d="M49.41518,48.98212a.64.64,0,0,1-.2248-.04087.64933.64933,0,0,1-.364-.33671L46.394,43.31365,43.48869,46.958a.64781.64781,0,0,1-1.15416-.40385V28.68559a.64768.64768,0,0,1,1.07484-.48657L56.7795,39.92035a.64728.64728,0,0,1,.17469.72595.6299.6299,0,0,1-.62525.40774l-4.65751-.1664,2.43239,5.28992a.64761.64761,0,0,1-.31773.85927l-4.10037,1.88593A.65518.65518,0,0,1,49.41518,48.98212ZM46.54341,41.4394a.71259.71259,0,0,1,.07834.00487.64732.64732,0,0,1,.50993.37271l2.60123,5.65776,2.92335-1.34486-2.60075-5.65679a.64642.64642,0,0,1,.04915-.62962.63232.63232,0,0,1,.56248-.288l3.89017.13915L43.62979,30.11511V44.7023l2.40709-3.01864A.6497.6497,0,0,1,46.54341,41.4394Z"/></svg>