<svg id="Layer_1" data-name="Layer 1" xmlns="http://www.w3.org/2000/svg" viewBox="0 0 54 54"><defs><style>.cls-1{fill:#fff;}.cls-2{fill:#ceeaf2;}.cls-3{fill:#1f282c;}.cls-4{fill:#3dafcc;}</style></defs><title>right_answer</title><polygon class="cls-1" points="14.634 33.578 10.963 37.249 13.736 40.022 17.104 36.654 14.634 33.578"/><path class="cls-1" d="M9.09458,34.34525h3.92183a0,0,0,0,1,0,0V52.68408A3.92182,3.92182,0,0,1,9.09459,56.6059h0a0,0,0,0,1,0,0V34.34525A0,0,0,0,1,9.09458,34.34525Z" transform="translate(35.39417 5.50207) rotate(45)"/><circle class="cls-1" cx="32.26077" cy="21.98004" r="16.10467"/><path class="cls-1" d="M5.37,42.84055,10.011,38.19994l2.77336,2.77313L1.79813,51.9591v-.00023a3.92087,3.92087,0,0,1,0-5.546Z"/><path class="cls-2" d="M5.37,42.84055l5.59312-5.59177,2.77335,2.77313L1.79813,51.9591v-.00023a3.92087,3.92087,0,0,1,0-5.546Z"/><path class="cls-2" d="M47.17864,7.06219a21.097,21.097,0,1,0,0,29.83559A21.09717,21.09717,0,0,0,47.17864,7.06219Zm-3.5302,26.30554a16.10459,16.10459,0,1,1,0-22.77533A16.10469,16.10469,0,0,1,43.64844,33.36773Z"/><path class="cls-3" d="M32.26082,43.71956a21.73955,21.73955,0,1,1,15.37894-6.36011A21.68337,21.68337,0,0,1,32.26082,43.71956Zm0-42.17473a20.43519,20.43519,0,1,0,14.45677,5.9789A20.38273,20.38273,0,0,0,32.26082,1.54483Z"/><path class="cls-3" d="M4.57176,53.75856A4.57214,4.57214,0,0,1,1.33732,45.952l9.16484-9.16485a.65182.65182,0,0,1,.92217,0l5.54574,5.54575a.65242.65242,0,0,1-.92216.92315l-5.08467-5.08515L2.25948,46.87512a3.26919,3.26919,0,0,0,4.62407,4.6226l3.57206-3.57205a.65242.65242,0,1,1,.92217.92315l-3.57206,3.572A4.55927,4.55927,0,0,1,4.57176,53.75856Z"/><path class="cls-3" d="M16.509,43.44811h0a.65486.65486,0,0,1-.46108-.1911l-5.54575-5.54673a.653.653,0,0,1,0-.92315l3.67054-3.67a.6639.6639,0,0,1,.52674-.18718.65176.65176,0,0,1,.47873.29008A20.63512,20.63512,0,0,0,17.804,36.4363h0a20.46787,20.46787,0,0,0,2.67782,2.23045.65255.65255,0,0,1,.08428.99371L16.97007,43.257A.65486.65486,0,0,1,16.509,43.44811Zm-4.62309-6.1994L16.509,41.87327l2.596-2.597a20.83417,20.83417,0,0,1-2.2231-1.91685h-.00049A22.0812,22.0812,0,0,1,14.5402,34.5949Z"/><path class="cls-3" d="M44.55427,12.22767a.65049.65049,0,0,1-.49832-.23128q-.41087-.48508-.86925-.94372a.65207.65207,0,1,1,.92314-.92119q.49612.49685.94177,1.02212a.65246.65246,0,0,1-.49734,1.07407Z"/><path class="cls-3" d="M32.26082,38.72849A16.75456,16.75456,0,1,1,40.8754,7.60213a.65252.65252,0,0,1-.67129,1.11915,15.45127,15.45127,0,1,0,5.86963,6.32287.65257.65257,0,0,1,1.16618-.586,16.75063,16.75063,0,0,1-14.9791,24.27037Z"/><polygon class="cls-4" points="37.39 22.27 29.568 30.093 22.067 22.592 25.404 19.255 29.568 23.419 39.118 13.868 42.455 17.204 40.461 19.198 37.39 22.27"/><path class="cls-3" d="M29.56781,30.74551a.65487.65487,0,0,1-.46108-.1911l-7.50132-7.50082a.653.653,0,0,1,0-.92315l3.33686-3.33685a.6518.6518,0,0,1,.92217,0L29.56781,22.497l9.08938-9.09135a.67433.67433,0,0,1,.92217,0l3.33686,3.33686a.653.653,0,0,1,0,.92315l-1.99378,1.99427a.65242.65242,0,1,1-.92217-.92314l1.5327-1.5327-2.41469-2.41469L30.0289,23.8807a.67431.67431,0,0,1-.92217,0l-3.70337-3.70337L22.98916,22.592l6.57865,6.57865L36.929,21.808a.65242.65242,0,0,1,.92217.92314L30.0289,30.55441A.6549.6549,0,0,1,29.56781,30.74551Z"/></svg>