<svg xmlns="http://www.w3.org/2000/svg" width="91" height="72" viewBox="0 0 91 72">
    <g fill="none" fill-rule="evenodd">
        <path fill="#1EB0CD" d="M48.974 33.632l10.845 9.91c4.926-5.763 4.907-14.083-.29-19.91l-10.555 10z"/>
        <path fill="#FFF" fill-rule="nonzero" d="M42.047 44.998l4.437-4.129L50.922 45h-8.875zm4.406-8.977L32.441 49.295c8.409 6.26 20.284 6.04 28.361-.161L46.453 36.02z"/>
        <path fill="#1EB0CD" d="M57.122 21.433c-6.717-4.984-16.53-4.532-22.682 1.295-6.151 5.828-6.459 14.966-.983 21.126l23.665-22.42z"/>
        <g fill="#F2C400" fill-rule="nonzero">
            <path d="M30.047.116c.205.03.391.062.557.093.669.122 1.036.23 1.036.23-3.534 6.865-10.362 11.24-17.023 14.165 0 0-.013-.096-.027-.275a6.786 6.786 0 0 1-.024-.775c.005-.332.021-.737.06-1.206.017-.237.055-.48.097-.74.042-.258.092-.532.15-.818l.095-.438a22.422 22.422 0 0 1 .427-1.384c.106-.327.249-.644.397-.973.15-.328.309-.665.488-1.001.189-.329.392-.661.61-.995.109-.165.218-.336.338-.499a18.014 18.014 0 0 1 .78-.963c.14-.158.276-.322.43-.469.304-.3.621-.597.953-.885.163-.148.338-.28.514-.408a19.848 19.848 0 0 1 1.06-.73c.18-.113.367-.212.55-.312a21.01 21.01 0 0 1 1.1-.552 23.195 23.195 0 0 1 1.65-.603A23.67 23.67 0 0 1 25.854.21a5.54 5.54 0 0 1 .507-.078 22.398 22.398 0 0 1 1.417-.126c.595-.016 1.139.01 1.61.04l.34.027c.11.013.218.028.32.043zM4.23 22.576a17.55 17.55 0 0 1-.34-2.165c-.03-.387-.039-.782-.04-1.193 0-.205.002-.413.008-.623.006-.211.015-.425.039-.638.089-.851.213-1.754.48-2.657.062-.227.129-.453.2-.677.07-.225.142-.448.23-.664.172-.435.356-.863.552-1.284.05-.104.098-.209.148-.312l.162-.304c.11-.201.222-.4.335-.597.232-.391.453-.78.714-1.139.254-.362.511-.713.771-1.05l.195-.252c.07-.08.138-.16.206-.24.136-.158.274-.312.41-.464.274-.301.541-.593.815-.863.28-.266.554-.518.821-.755l.395-.344.192-.165.196-.153A31.26 31.26 0 0 1 12.13 5.01c.215-.137.415-.258.596-.365.725-.43 1.157-.643 1.157-.643s-.022.419-.103 1.129c-.039.355-.094.781-.163 1.262-.06.49-.13 1.04-.222 1.625-.098.58-.182 1.224-.295 1.885-.054.332-.124.662-.18 1.013a30.403 30.403 0 0 1-.305 1.592c-.04.178-.07.366-.11.549-.074.367-.157.737-.251 1.106-.05.183-.093.372-.137.562-.045.19-.093.377-.143.567-.097.379-.223.75-.327 1.138-.111.385-.233.76-.364 1.124-.128.367-.245.735-.381 1.088-.067.177-.136.352-.206.524-.072.173-.13.35-.2.52a21.71 21.71 0 0 1-.42 1.002c-.14.327-.27.652-.413.964-.136.314-.294.613-.42.914-.134.3-.27.589-.407.868l-.206.41-.187.4a29.32 29.32 0 0 1-.554 1.095c-.059.112-.11.224-.164.33-.212.429-.412.802-.582 1.11-.088.153-.16.293-.223.413l-.166.307-.145.256s-.242-.297-.604-.864a11.869 11.869 0 0 1-.584-1.048c-.208-.415-.437-.9-.64-1.446a18.443 18.443 0 0 1-.552-1.822zm.094 20.528a16.555 16.555 0 0 1-1.135-1.2c-.2-.227-.375-.47-.561-.724a17.089 17.089 0 0 1-.546-.804c-.37-.563-.678-1.185-.975-1.857-.305-.67-.529-1.397-.722-2.169a19.22 19.22 0 0 1-.133-.58 19.875 19.875 0 0 1-.22-1.744c-.04-.385-.032-.767-.03-1.145.004-.379.018-.751.04-1.118.06-.73.17-1.435.29-2.096.143-.66.31-1.278.478-1.841.176-.563.38-1.07.558-1.515.092-.222.177-.43.265-.619.092-.189.178-.361.258-.515.318-.619.529-.96.529-.96s.19.304.476.843c.143.269.311.597.492.971.186.375.402.802.613 1.265.412.925.9 2.01 1.322 3.188.231.591.427 1.205.62 1.84.102.32.196.643.281.972.086.33.154.663.24 1.003.079.34.146.677.201 1.01l.077.5a17.794 17.794 0 0 1 .195 1.463l.02.24.027.236a19.2 19.2 0 0 1 .099 1.383c.003.15.014.297.023.443l.021.433c.027.57.01 1.117.026 1.62.005.505-.006.972-.027 1.39-.003.416-.015.781-.031 1.086a19.066 19.066 0 0 1-.073.967s-.079-.037-.214-.113c-.135-.077-.33-.194-.574-.352-.244-.158-.535-.36-.861-.608a11.346 11.346 0 0 1-1.05-.893zm7.033 14.501a8.943 8.943 0 0 1-1.04-.371c-.372-.157-.771-.344-1.188-.569-.207-.113-.425-.232-.634-.367a14.555 14.555 0 0 1-1.275-.935c-.107-.087-.214-.179-.321-.272a12.43 12.43 0 0 1-1.49-1.65 14.77 14.77 0 0 1-.966-1.56 16.214 16.214 0 0 1-.693-1.613 8.329 8.329 0 0 1-.254-.797 20.764 20.764 0 0 1-.358-1.515 21.37 21.37 0 0 1-.209-1.937c-.017-.37-.008-.694-.002-.96.016-.535.05-.84.05-.84s.242.144.637.422a20.256 20.256 0 0 1 1.104.834c.147.115.302.235.46.364.638.512 1.312 1.137 2.035 1.844a17.372 17.372 0 0 1 .783.844 14.41 14.41 0 0 1 1.273 1.58c.335.45.628.908.888 1.37.274.455.524.907.74 1.357.104.227.217.445.321.661.104.217.201.431.291.643.092.21.172.42.256.62.087.198.167.392.242.58.15.376.272.732.381 1.047.118.31.213.589.288.82.151.465.219.746.219.746s-.266-.03-.721-.132c-.228-.05-.503-.12-.817-.214zm9.341 9.083c-.37.037-.901.068-1.555.034-.33-.01-.669-.06-1.041-.12-.37-.063-.762-.148-1.17-.263a10.32 10.32 0 0 1-1.231-.466 10.86 10.86 0 0 1-.633-.309 9.03 9.03 0 0 1-.617-.38c-.204-.138-.404-.28-.597-.428-.19-.149-.384-.297-.554-.463-.347-.324-.67-.662-.965-1a6.475 6.475 0 0 1-.413-.517 14.806 14.806 0 0 1-.692-1.019l-.148-.243a14.313 14.313 0 0 1-.854-1.823c-.14-.4-.203-.637-.203-.637s.22.037.592.129c.365.095.906.227 1.52.428.308.1.636.216.975.35.346.132.71.274 1.076.44.183.083.366.172.55.265l.276.146a10.886 10.886 0 0 1 1.404.83c.37.253.73.508 1.055.784.165.136.319.279.475.415a13.072 13.072 0 0 1 .877.827c.134.14.26.282.391.411.257.265.49.526.7.776l.3.364a14.1 14.1 0 0 1 1.063 1.385s-.055.013-.153.029a7.495 7.495 0 0 1-.428.055zm8.268 3.882c.18.121.334.231.46.325.253.188.394.31.394.31s-.15.081-.425.194a7.913 7.913 0 0 1-5.116.319 4.738 4.738 0 0 1-.554-.184 9.617 9.617 0 0 1-1.035-.466 4.831 4.831 0 0 1-.473-.27A12.316 12.316 0 0 1 21 69.914c-.12-.096-.226-.202-.33-.3a12.735 12.735 0 0 1-.95-1.007c-.107-.129-.182-.24-.236-.313-.05-.075-.079-.115-.079-.115s.176-.029.479-.053c.303-.027.745-.065 1.26-.067.517-.004 1.108.028 1.755.088a9.8 9.8 0 0 1 .983.152c.334.07.685.137 1.029.242 1.372.42 2.569 1.065 3.453 1.637.217.15.424.271.602.393zm-5.535-54.367a13.037 13.037 0 0 1-.49.93c-.024.043-.048.085-.074.127a8.334 8.334 0 0 0-.07.135l-.148.273c-.103.183-.214.37-.334.558-.114.194-.227.398-.356.597-.063.1-.13.201-.197.3l-.104.151-.1.157c-.134.21-.277.42-.433.627-.162.202-.302.427-.471.637a8.209 8.209 0 0 1-.257.317l-.135.156-.13.163c-.178.218-.368.43-.572.64-.105.102-.202.212-.304.32a9.492 9.492 0 0 1-.319.318c-.453.413-.889.825-1.376 1.196-.123.093-.238.188-.355.282a16.08 16.08 0 0 1-.357.276c-.238.181-.49.353-.732.526a27.46 27.46 0 0 1-1.442.979c-.462.311-.924.6-1.365.864-.435.266-.83.513-1.203.727-.367.215-.71.398-.977.553-.54.307-.876.47-.876.47s-.016-.093-.039-.266l-.037-.32a4.926 4.926 0 0 1-.032-.43 20.323 20.323 0 0 1-.007-1.163c.003-.113.003-.23.013-.348l.033-.363c.025-.25.056-.511.092-.784l.06-.417.09-.426c.063-.29.135-.587.215-.89.074-.307.189-.608.298-.92.115-.309.23-.626.373-.938.148-.31.307-.621.476-.932.085-.155.166-.313.265-.463.099-.15.199-.301.302-.45.21-.298.417-.598.659-.879.244-.28.5-.552.765-.815.26-.267.558-.497.842-.721.143-.11.287-.218.431-.321.144-.104.289-.202.442-.29.303-.182.604-.347.902-.499.15-.074.294-.15.45-.213a15.027 15.027 0 0 1 1.345-.483c.287-.09.59-.148.87-.207a9.977 9.977 0 0 1 1.604-.203c.503-.023.955-.018 1.356.006.41.034.762.082 1.052.131.576.098.901.194.901.194s-.114.297-.347.757c-.058.115-.125.24-.197.374zM12.243 41.73c-.251.381-.468.727-.674 1.034a25.198 25.198 0 0 1-1.09 1.5s-.052-.066-.13-.199a14.71 14.71 0 0 1-.325-.577c-.133-.251-.29-.56-.457-.92a20.163 20.163 0 0 1-.46-1.234c-.165-.457-.276-.963-.39-1.502a77.383 77.383 0 0 1-.078-.41 4.85 4.85 0 0 1-.063-.424 17.164 17.164 0 0 1-.097-1.331l-.006-.23.007-.23a15.654 15.654 0 0 1 .12-1.41c.022-.157.057-.315.09-.473.067-.316.146-.632.238-.946.085-.313.21-.615.334-.908.125-.293.259-.573.4-.844.29-.54.633-1.033.972-1.48a10.954 10.954 0 0 1 2.211-2.102c.364-.26.699-.48 1.016-.658.32-.178.607-.318.847-.428.478-.218.768-.314.768-.314s.052.29.092.773c.01.122.02.254.026.397l.038.467c.026.331.03.697.038 1.094.017.4.014.825-.009 1.27 0 .45-.035.919-.089 1.403a10.64 10.64 0 0 1-.082.739c-.033.25-.093.502-.13.759a9.715 9.715 0 0 1-.275 1.172 8.665 8.665 0 0 1-.107.4c-.154.534-.371 1.054-.568 1.559-.205.506-.462.998-.686 1.47-.118.236-.242.469-.368.696-.124.227-.262.45-.378.666-.242.432-.492.842-.735 1.221zm-.552 9.096c-.134-.49-.24-.999-.307-1.515a9.54 9.54 0 0 1 .01-1.888 11.899 11.899 0 0 1 .197-1.043c.198-.88.553-1.663.882-2.293.084-.157.167-.307.25-.446a10.62 10.62 0 0 1 .712-1.013c.265-.333.438-.51.438-.51s.142.202.346.557c.104.177.216.394.35.64.138.245.282.522.425.826.585 1.218 1.201 2.815 1.413 4.644a10.136 10.136 0 0 1 .068 1.7 11.875 11.875 0 0 1-.044.98c-.019.215-.042.427-.07.637-.028.21-.045.41-.074.608-.055.397-.121.777-.193 1.133-.077.358-.135.676-.202.968-.066.29-.13.545-.188.758-.115.424-.2.672-.2.672s-.215-.158-.56-.46c-.174-.15-.38-.338-.607-.56-.22-.229-.454-.497-.701-.796-.124-.149-.249-.307-.375-.474-.125-.167-.239-.348-.358-.533a14.86 14.86 0 0 1-.351-.581 6.161 6.161 0 0 1-.326-.628 12.043 12.043 0 0 1-.535-1.383zm11.11 11.623a14 14 0 0 1 .185 1.969s-.054-.014-.146-.049a12.02 12.02 0 0 1-1.364-.614 13.128 13.128 0 0 1-1.206-.798c-.145-.103-.28-.224-.419-.348a12.407 12.407 0 0 1-.82-.812 7.074 7.074 0 0 1-.374-.474 7.54 7.54 0 0 1-.66-1.052 8.401 8.401 0 0 1-.531-1.418 8.762 8.762 0 0 1-.23-1.875c.004-.334.026-.648.058-.933a7.62 7.62 0 0 1 .27-1.37c.1-.33.176-.515.176-.515s.164.113.42.326c.263.208.637.503 1.028.888.048.05.098.098.148.149.052.049.106.098.16.15a8.58 8.58 0 0 1 .639.677c.104.123.208.252.319.379.216.257.424.536.618.838.093.155.198.3.29.458.095.157.185.32.27.49.085.169.16.343.233.513.077.168.147.336.212.506.13.34.231.688.323 1.025.098.33.176.66.24.978.068.317.11.634.16.912zm7.322 4.958c.205.412.358.78.457 1.042.101.265.149.425.149.425s-.171-.004-.464-.035c-.147-.016-.324-.04-.526-.073-.201-.035-.43-.07-.668-.143-.956-.262-2.2-.78-3.146-1.757a5.562 5.562 0 0 1-.63-.75 7.11 7.11 0 0 1-.462-.794 6.16 6.16 0 0 1-.524-1.496c-.1-.453-.146-.83-.16-1.106-.012-.277-.003-.438-.003-.438l.11.036.299.107c.26.088.62.225 1.022.421.102.048.202.106.311.157a7.963 7.963 0 0 1 1.012.573c.112.08.23.154.346.233a6.143 6.143 0 0 1 .684.543l.33.314c.864.863 1.455 1.902 1.863 2.74zm46.26-52.804c-6.662-2.926-13.49-7.3-17.025-14.166 0 0 .367-.108 1.036-.23.166-.03.354-.062.558-.092.102-.015.21-.031.32-.043.109-.01.223-.018.34-.027.471-.03 1.015-.056 1.61-.04A20.784 20.784 0 0 1 64.64.13c.168.02.338.042.506.078a21.12 21.12 0 0 1 1.588.368 20.905 20.905 0 0 1 1.651.603c.364.17.732.354 1.1.552.183.1.37.199.55.311a21.41 21.41 0 0 1 1.06.731c.175.129.351.26.514.408.332.287.649.584.952.885.156.147.292.31.43.47a21.508 21.508 0 0 1 .78.962c.121.162.23.333.34.499.217.335.42.666.61.995.178.336.338.673.487 1 .148.33.29.647.397.974a20.157 20.157 0 0 1 .427 1.384l.095.438c.058.286.108.56.15.819.043.26.081.502.096.739.04.469.056.874.06 1.206.01.33-.008.594-.023.775-.015.18-.027.275-.027.275zm1-8.206c-.07-.48-.125-.908-.161-1.262-.08-.71-.103-1.129-.103-1.129s.432.212 1.157.643c.181.108.382.229.596.365a31.26 31.26 0 0 1 1.609 1.18l.192.164.394.344c.267.237.542.49.82.755.275.27.54.562.816.863.136.152.273.306.41.464l.206.24a30.108 30.108 0 0 1 .967 1.302c.261.359.483.748.713 1.14.113.196.226.395.335.596l.163.304.147.312c.193.42.377.849.548 1.284.09.216.162.44.232.664.07.224.137.45.2.677.266.903.39 1.806.48 2.657.023.214.032.427.038.638.006.21.009.418.009.623-.002.41-.01.807-.042 1.193a17.55 17.55 0 0 1-.34 2.165c-.164.67-.354 1.278-.55 1.822-.205.545-.434 1.03-.64 1.446-.213.417-.401.765-.585 1.048-.362.567-.604.864-.604.864l-.145-.256-.166-.307c-.064-.12-.135-.26-.222-.413-.171-.309-.37-.681-.583-1.11-.053-.106-.105-.218-.164-.33l-.182-.347a29.32 29.32 0 0 1-.559-1.148l-.206-.41a25.248 25.248 0 0 1-.407-.868c-.126-.3-.283-.6-.42-.914-.144-.312-.273-.636-.414-.964a21.258 21.258 0 0 1-.42-1.002c-.068-.171-.127-.347-.199-.52-.07-.173-.14-.347-.206-.524-.136-.353-.253-.721-.381-1.088-.131-.365-.253-.74-.364-1.124-.103-.389-.229-.76-.327-1.139-.05-.188-.099-.377-.143-.566-.045-.19-.087-.379-.137-.562-.094-.37-.177-.738-.251-1.106-.039-.183-.07-.37-.11-.549l-.112-.535c-.072-.355-.135-.709-.193-1.057-.056-.35-.126-.68-.18-1.013-.113-.661-.197-1.306-.295-1.885a49.274 49.274 0 0 1-.222-1.625zm13.616 26.485c.001.377.008.76-.03 1.148a19.97 19.97 0 0 1-.22 1.744c-.041.193-.086.386-.133.58-.193.77-.416 1.497-.722 2.168-.297.672-.605 1.295-.975 1.857-.18.281-.362.55-.546.804-.187.255-.362.498-.561.723-.388.452-.772.852-1.136 1.2-.357.35-.724.645-1.049.893-.326.248-.617.449-.86.608-.244.158-.44.275-.575.352a3.466 3.466 0 0 1-.214.113s-.005-.089-.022-.255a22.502 22.502 0 0 1-.082-1.798c-.02-.419-.032-.886-.027-1.39.017-.503 0-1.05.026-1.62l.02-.433c.011-.146.021-.293.024-.443a19.3 19.3 0 0 1 .1-1.383c.007-.078.016-.157.026-.237l.02-.239a17.573 17.573 0 0 1 .195-1.464c.025-.165.05-.331.077-.498.055-.334.122-.672.201-1.011.086-.34.154-.674.24-1.003.085-.329.179-.652.28-.971.194-.636.39-1.25.62-1.841.421-1.178.91-2.263 1.323-3.188.211-.463.428-.89.613-1.265.18-.374.349-.702.492-.971.287-.539.476-.842.476-.842s.21.34.53.958c.08.155.166.326.258.515.088.19.173.397.265.619.178.445.382.952.558 1.515.168.564.336 1.18.478 1.84.12.662.229 1.365.29 2.097.023.367.036.74.04 1.118zM88.022 44.22s.035.305.049.843c.006.266.016.592-.002.961a20.665 20.665 0 0 1-.21 1.937 20.923 20.923 0 0 1-.357 1.515c-.072.264-.151.53-.254.797a16.352 16.352 0 0 1-.693 1.614c-.286.53-.608 1.056-.966 1.56a12.524 12.524 0 0 1-1.49 1.649 13.836 13.836 0 0 1-1.597 1.207c-.208.135-.427.254-.633.367-.418.225-.816.412-1.187.569a9.797 9.797 0 0 1-1.04.367c-.313.094-.59.163-.817.214-.456.102-.72.132-.72.132s.068-.281.218-.745c.076-.232.17-.51.288-.82.11-.316.232-.672.382-1.047.074-.189.154-.383.24-.581.085-.2.164-.41.257-.62.09-.212.187-.426.29-.643.105-.216.218-.434.322-.661.215-.45.466-.903.74-1.357.26-.462.554-.92.888-1.37a14.555 14.555 0 0 1 1.273-1.58 14.363 14.363 0 0 1 .783-.844c.723-.707 1.397-1.333 2.035-1.844.158-.129.313-.249.46-.364a19.305 19.305 0 0 1 1.104-.835c.395-.276.637-.421.637-.421zm-9.16 15.392c.614-.201 1.155-.334 1.52-.426.37-.092.59-.129.59-.129s-.062.236-.201.637a14.313 14.313 0 0 1-.855 1.823l-.148.243a15.404 15.404 0 0 1-.692 1.019c-.127.174-.262.35-.413.517-.296.34-.618.676-.965 1-.17.165-.362.313-.554.463-.193.148-.393.291-.597.428a9.03 9.03 0 0 1-.617.38c-.212.112-.423.214-.633.309-.42.188-.828.345-1.23.466-.409.115-.8.2-1.17.263-.373.06-.713.11-1.042.12a10.51 10.51 0 0 1-1.554-.036 7.496 7.496 0 0 1-.428-.055 2.41 2.41 0 0 1-.153-.03l.093-.135a15.033 15.033 0 0 1 .97-1.25l.3-.363c.21-.25.443-.51.7-.776.131-.13.256-.273.391-.41a13.683 13.683 0 0 1 .877-.828c.156-.136.31-.28.475-.415.326-.276.686-.53 1.055-.784a10.446 10.446 0 0 1 1.404-.83l.276-.146c.183-.093.367-.182.55-.264.365-.168.731-.31 1.076-.44.339-.135.667-.25.975-.351zm-9.008 8.446a14.861 14.861 0 0 1 1.738.12l-.08.115c-.053.073-.129.184-.236.313-.216.257-.536.612-.95 1.007-.103.098-.21.204-.329.3a12.316 12.316 0 0 1-1.216.885 4.918 4.918 0 0 1-.473.27 10.735 10.735 0 0 1-1.035.466c-.18.07-.362.136-.554.184a7.925 7.925 0 0 1-3.936.064 8.607 8.607 0 0 1-1.18-.383 5.046 5.046 0 0 1-.425-.194s.14-.122.394-.31c.126-.094.28-.204.46-.325.178-.121.385-.244.602-.393.885-.572 2.081-1.217 3.453-1.637.344-.105.696-.172 1.029-.242a9.89 9.89 0 0 1 .983-.152c.647-.06 1.238-.092 1.755-.088zm4.296-43.696c-.12-.09-.24-.182-.36-.278-.117-.094-.232-.19-.355-.282-.487-.371-.922-.783-1.376-1.196a8.64 8.64 0 0 1-.319-.318c-.1-.108-.199-.218-.304-.32a9.551 9.551 0 0 1-.571-.64l-.13-.163-.136-.156a9.289 9.289 0 0 1-.257-.317c-.168-.21-.31-.435-.471-.637-.156-.207-.3-.416-.434-.627-.033-.052-.067-.104-.099-.157l-.104-.15c-.068-.1-.134-.2-.197-.301-.128-.2-.241-.403-.356-.597-.12-.188-.23-.374-.334-.558l-.149-.273-.07-.135-.073-.126a14.25 14.25 0 0 1-.489-.93c-.071-.134-.138-.257-.196-.373-.233-.46-.347-.757-.347-.757s.325-.096.902-.194c.289-.049.641-.096 1.052-.131.401-.024.853-.03 1.356-.006a10.09 10.09 0 0 1 1.604.203c.28.059.582.117.87.207a14.243 14.243 0 0 1 1.346.483c.155.063.298.139.449.213.298.152.6.317.902.498.153.089.298.187.442.29.143.104.288.211.431.322.284.224.583.454.842.72.265.264.521.536.765.816.242.282.45.582.66.879.102.149.202.3.3.45.099.15.18.308.266.463.17.31.328.622.476.932.142.312.257.63.373.938.109.312.224.613.298.92.08.304.152.6.215.89l.09.426.06.417a20.206 20.206 0 0 1 .125 1.147c.009.119.01.235.013.348.01.449.004.84-.008 1.162-.003.16-.017.305-.03.431-.016.126-.028.232-.038.32-.023.174-.039.267-.039.267s-.335-.163-.876-.471c-.267-.155-.611-.338-.977-.553-.372-.214-.768-.461-1.203-.727-.441-.264-.903-.553-1.365-.864a26.86 26.86 0 0 1-1.442-.98c-.242-.172-.494-.344-.732-.525zm6.232 19.723a25.722 25.722 0 0 1-.946-1.318c-.208-.308-.425-.655-.675-1.035-.244-.38-.494-.79-.736-1.221-.115-.215-.254-.44-.378-.666-.126-.227-.25-.46-.368-.696-.224-.473-.481-.965-.686-1.47-.196-.505-.414-1.025-.568-1.56a8.664 8.664 0 0 1-.107-.4 10.026 10.026 0 0 1-.276-1.171c-.036-.257-.096-.51-.13-.76a9.997 9.997 0 0 1-.081-.738 12.575 12.575 0 0 1-.09-1.402 13.416 13.416 0 0 1-.008-1.271c.009-.397.012-.763.038-1.094l.038-.467c.007-.143.016-.276.026-.397.04-.483.092-.773.092-.773s.29.096.768.314c.239.11.525.251.847.428.317.179.652.399 1.016.658a10.954 10.954 0 0 1 2.211 2.103c.339.447.682.939.973 1.479.14.27.274.552.4.844.123.292.248.595.333.908.092.313.17.63.239.945.032.159.067.316.09.475a15.654 15.654 0 0 1 .12 1.41c0 .076.004.153.006.23l-.006.229A18.277 18.277 0 0 1 82.426 39a4.446 4.446 0 0 1-.063.424l-.079.41c-.113.539-.224 1.045-.39 1.502-.153.458-.31.872-.46 1.234a17.227 17.227 0 0 1-.782 1.497c-.077.132-.128.2-.128.2l-.142-.182zm-5.85 6.727l-.007-.33a10.315 10.315 0 0 1 .068-1.7c.212-1.83.828-3.426 1.413-4.644.143-.305.288-.58.426-.826.133-.246.245-.463.349-.64.204-.355.346-.557.346-.557s.174.177.438.51a10.62 10.62 0 0 1 .712 1.013c.083.14.166.289.25.446.33.63.684 1.412.882 2.294a10.398 10.398 0 0 1 .197 1.042 10.073 10.073 0 0 1 .01 1.888 11.095 11.095 0 0 1-.307 1.517c-.15.484-.338.944-.535 1.383a6.06 6.06 0 0 1-.326.628c-.115.2-.232.394-.35.58-.12.186-.235.367-.359.534-.126.167-.251.325-.375.474-.247.3-.48.568-.7.795-.228.223-.433.41-.606.562-.346.302-.56.459-.56.459s-.086-.248-.2-.672a18.616 18.616 0 0 1-.189-.758c-.068-.292-.125-.61-.202-.968a18.466 18.466 0 0 1-.193-1.133c-.03-.199-.047-.398-.075-.608a14.14 14.14 0 0 1-.107-1.289zm-1.273 3.35s.077.185.173.515c.105.334.204.796.27 1.37.032.285.055.598.059.933a8.883 8.883 0 0 1-.169 1.591c-.02.094-.039.19-.062.284a8.401 8.401 0 0 1-.532 1.418 7.54 7.54 0 0 1-.66 1.052 7.074 7.074 0 0 1-.373.474 10.928 10.928 0 0 1-.82.812c-.139.123-.274.244-.419.348a12.964 12.964 0 0 1-1.206.798c-.127.065-.248.127-.363.183-.23.111-.433.202-.603.274-.17.07-.305.123-.398.157-.092.036-.146.049-.146.049l.004-.146c.003-.097.008-.237.02-.414.025-.352.071-.846.164-1.41.051-.278.093-.596.16-.912.065-.319.144-.647.24-.978.093-.338.195-.686.324-1.025.064-.17.135-.338.212-.506a8.65 8.65 0 0 1 .233-.514c.084-.169.174-.332.27-.489.093-.158.197-.303.29-.458.193-.302.4-.581.618-.838.111-.127.216-.255.32-.38a8.58 8.58 0 0 1 .639-.677c.053-.05.107-.1.158-.15l.15-.148c.39-.385.763-.68 1.026-.888.257-.212.421-.326.421-.326zm-11.33 14.462c-.238.072-.468.108-.669.144-.202.034-.379.057-.526.073a6.09 6.09 0 0 1-.464.035s.049-.16.149-.425c.1-.265.253-.632.458-1.043.408-.84.999-1.878 1.863-2.741l.33-.314a6.37 6.37 0 0 1 .684-.543c.117-.08.234-.153.346-.233a7.523 7.523 0 0 1 1.012-.573c.109-.052.21-.109.31-.157a8.915 8.915 0 0 1 1.023-.42l.3-.108.109-.036s.009.161-.003.438c-.014.276-.06.653-.16 1.106-.101.452-.257.98-.524 1.496a7.27 7.27 0 0 1-.462.794 5.488 5.488 0 0 1-.63.75c-.946.978-2.19 1.495-3.146 1.757z"/>
        </g>
    </g>
</svg>
