<svg id="Layer_1" data-name="Layer 1" xmlns="http://www.w3.org/2000/svg" viewBox="0 0 58 58"><defs><style>.cls-1{fill:#fff;}.cls-2{fill:#3dafcc;}.cls-3{fill:#ceeaf2;}.cls-4{fill:#1f282c;}</style></defs><title>two_attempts</title><path class="cls-1" d="M32.27863,47.12785a2.40077,2.40077,0,0,1-1.68759-2.946l.662-2.436H27.71691a1.58784,1.58784,0,0,1-1.58783-1.58779v-.04443a2.85038,2.85038,0,0,1,2.85049-2.85042h3.49129l1.0505-3.867a4.63956,4.63956,0,0,0-3.10163,1.18911L25.931,38.62054a1.93165,1.93165,0,0,1-2.6132-2.84509l5.88342-5.51938a4.63942,4.63942,0,0,1,3.17417-1.25582h2.34015l.30363-1.11769V6.822H.659V57.34065H35.0192V45.94431A2.39812,2.39812,0,0,1,32.27863,47.12785Z"/><path class="cls-2" d="M42.34469,10.0743a2.40058,2.40058,0,0,1,1.68765,2.94589l-4.3414,15.98006h.75242a5.16969,5.16969,0,0,1,3.08693,1.02256l2.81821,2.09727a12.42728,12.42728,0,0,0,1.42825.909V.65992H35.01935v27.222l4.37937-16.12036A2.40034,2.40034,0,0,1,42.34469,10.0743Z"/><path class="cls-2" d="M36.23842,41.7459l-1.21907,4.20692v5.226h12.7574V43.33727C42.20309,44.42082,36.23842,41.7459,36.23842,41.7459Z"/><path class="cls-2" d="M39.38135,37.26317a1.93347,1.93347,0,1,0,0-3.86693h-.8847l-1.05043,3.86693Z"/><rect class="cls-3" x="5.33454" y="25.34352" width="9.01415" height="9.01392"/><rect class="cls-3" x="5.33454" y="40.9029" width="9.01415" height="9.01392"/><rect class="cls-3" x="5.33454" y="11.14393" width="21.42444" height="7.01583"/><path class="cls-1" d="M31.25305,41.7459h0l-.662,2.436a2.40064,2.40064,0,0,0,1.68764,2.94589h0a2.40046,2.40046,0,0,0,2.946-1.68727l1.00377-3.6946Z"/><path class="cls-1" d="M34.71555,29.00025l-1.12349,4.13564-1.12123,4.12728h4.97539l1.05043-3.86693h0l1.07328-3.95,4.46241-16.42609a2.40076,2.40076,0,0,0-4.63362-1.25861L34.71555,29.00025Z"/><rect class="cls-2" x="13.41663" y="0.65992" width="34.36012" height="6.16196"/><path class="cls-3" d="M42.34469,10.0743a2.40034,2.40034,0,0,0-2.946,1.68728l-1.13378,4.17378v.00016l4.59532,1.39925h0l1.17208-4.31458A2.40058,2.40058,0,0,0,42.34469,10.0743Z"/><path class="cls-4" d="M35.01934,58H.659A.65915.65915,0,0,1,0,57.34053V6.82149A.65915.65915,0,0,1,.659,6.162H35.01934a.65915.65915,0,0,1,.659.65947v7.94438a.659.659,0,1,1-1.318,0V7.481H1.318V56.68105H34.36034v-5.46a.659.659,0,1,1,1.318,0v6.11944A.65915.65915,0,0,1,35.01934,58Z"/><path class="cls-4" d="M14.34887,35.01646H5.33435a.65915.65915,0,0,1-.659-.65948V25.34319a.65915.65915,0,0,1,.659-.65947h5.73538a.65947.65947,0,0,1,0,1.31894H5.99334v7.69485h7.69653V30.20012a.659.659,0,1,1,1.318,0V34.357A.65915.65915,0,0,1,14.34887,35.01646Z"/><path class="cls-4" d="M9.73342,31.20914a.65644.65644,0,0,1-.4659-.19309l-1.5497-1.54967a.65922.65922,0,0,1,.9318-.93276l1.0838,1.08427,7.6396-7.6394a.65923.65923,0,1,1,.9318.93277l-8.10549,8.10479A.65644.65644,0,0,1,9.73342,31.20914Z"/><path class="cls-4" d="M14.34887,50.57647H5.33435a.65915.65915,0,0,1-.659-.65948V40.9032a.65915.65915,0,0,1,.659-.65947h5.73538a.65947.65947,0,0,1,0,1.31894H5.99334v7.69485h7.69653V45.75914a.659.659,0,1,1,1.318,0V49.917A.65915.65915,0,0,1,14.34887,50.57647Z"/><path class="cls-4" d="M9.73342,46.76915a.66178.66178,0,0,1-.4659-.19309l-1.5497-1.54967a.65922.65922,0,0,1,.9318-.93276l1.0838,1.08426,7.6396-7.64038a.65923.65923,0,1,1,.9318.93277l-8.10549,8.10578A.66178.66178,0,0,1,9.73342,46.76915Z"/><path class="cls-4" d="M26.75887,18.81876H5.33435a.65915.65915,0,0,1-.659-.65947V11.14372a.65915.65915,0,0,1,.659-.65948H26.75887a.65915.65915,0,0,1,.659.65948v7.01557A.65915.65915,0,0,1,26.75887,18.81876Zm-20.76553-1.319H26.09988V11.80319H5.99334Z"/><path class="cls-4" d="M10.86129,15.31147H9.32694a.65948.65948,0,0,1,0-1.31895h1.53435a.65948.65948,0,0,1,0,1.31895Z"/><path class="cls-4" d="M16.814,15.31147H15.27968a.65948.65948,0,0,1,0-1.31895H16.814a.65948.65948,0,0,1,0,1.31895Z"/><path class="cls-4" d="M22.76628,15.31147H21.23193a.65948.65948,0,0,1,0-1.31895h1.53435a.65948.65948,0,0,1,0,1.31895Z"/><path class="cls-4" d="M31.07972,26.84631H20.772a.65947.65947,0,0,1,0-1.31894H31.07972a.65947.65947,0,0,1,0,1.31894Z"/><path class="cls-4" d="M25.6107,30.57442H20.772a.65948.65948,0,0,1,0-1.319H25.6107a.65948.65948,0,0,1,0,1.319Z"/><path class="cls-4" d="M21.63693,34.30153h-.865a.65947.65947,0,0,1,0-1.31894h.865a.65947.65947,0,0,1,0,1.31894Z"/><path class="cls-4" d="M31.74317,50.05562a.67037.67037,0,0,1-.152-.01782.65977.65977,0,0,1-.49016-.79315l.53571-2.26855a.65931.65931,0,0,1,1.28334.303l-.53572,2.26855A.66046.66046,0,0,1,31.74317,50.05562Z"/><path class="cls-4" d="M42.85994,17.99392a.682.682,0,0,1-.1921-.02871L38.0727,16.56605a.65936.65936,0,0,1,.3842-1.26151l4.59515,1.39915a.65951.65951,0,0,1-.19211,1.29023Z"/><path class="cls-4" d="M47.77691,33.69652a.65915.65915,0,0,1-.659-.65947V1.319H14.07556V6.162H35.01934a.65947.65947,0,0,1,0,1.31894H13.41657a.65915.65915,0,0,1-.659-.65947V.65947A.65915.65915,0,0,1,13.41657,0H47.77691a.65914.65914,0,0,1,.659.65947V33.03705A.65914.65914,0,0,1,47.77691,33.69652Z"/><path class="cls-4" d="M47.77691,51.838H35.01934a.65947.65947,0,0,1,0-1.31894H47.11791V43.21037a.659.659,0,1,1,1.318,0v7.96814A.65914.65914,0,0,1,47.77691,51.838Z"/><path class="cls-4" d="M44.20764,44.30454c-.10051,0-.20052-.001-.301-.004a22.34718,22.34718,0,0,1-7.30687-1.71008l-.5778-.2218a.66185.66185,0,0,1-.44758-.62284.676.676,0,0,1,.90011-.61491l.5981.22972a21.17585,21.17585,0,0,0,6.86573,1.62294A21.12905,21.12905,0,0,0,50.103,41.92509l1.72745-.26637a17.44782,17.44782,0,0,1,2.59538-.19606H57.341a.65948.65948,0,0,1,0,1.319H54.42578a16.12985,16.12985,0,0,0-2.39833.18022l-1.64377.24854A22.435,22.435,0,0,1,44.20764,44.30454Z"/><path class="cls-4" d="M36.2383,42.40533H27.65849a2.19194,2.19194,0,0,1-1.68685-.79216,2.1348,2.1348,0,0,1-.46639-1.75661,3.9638,3.9638,0,0,1,3.9-3.25281h9.976a1.2739,1.2739,0,1,0,0-2.54779h-.88477a.66021.66021,0,0,1-.63622-.83176l1.19422-4.39649a.66008.66008,0,0,1,.63622-.48718h.75257a5.86647,5.86647,0,0,1,3.48064,1.15358l2.81818,2.09724a11.87384,11.87384,0,0,0,7.04546,2.33292H57.341a.65947.65947,0,0,1,0,1.31894H53.78758a13.20788,13.20788,0,0,1-7.83269-2.59432l-2.81818-2.09725a4.54029,4.54029,0,0,0-2.69341-.89217h-.24855L39.3585,32.737h.02278a2.59284,2.59284,0,0,1,0,5.18568h-9.976a2.64659,2.64659,0,0,0-2.6038,2.17151.81192.81192,0,0,0,.1827.67531.87521.87521,0,0,0,.67434.31687H36.2383a.65947.65947,0,0,1,0,1.31894Z"/><path class="cls-4" d="M24.64523,39.77536c-.06684,0-.13368-.003-.201-.00792a2.56876,2.56876,0,0,1-1.80667-.9397,2.59663,2.59663,0,0,1,.22924-3.533l5.88343-5.51937a5.28365,5.28365,0,0,1,3.62521-1.4348h2.33991a.6596.6596,0,0,1,.63622.83176l-1.19422,4.39649a.66008.66008,0,0,1-.63622.48718,3.966,3.966,0,0,0-2.66024,1.01991l-4.48919,4.03507A2.56788,2.56788,0,0,1,24.64523,39.77536Zm7.7302-10.11589a3.96855,3.96855,0,0,0-2.72361,1.07734L23.76888,36.2552a1.27366,1.27366,0,0,0,.77486,2.19824,1.302,1.302,0,0,0,.94665-.3228l4.4887-4.03507a5.28771,5.28771,0,0,1,3.03157-1.3338l.84268-3.1023Z"/><path class="cls-4" d="M32.90718,47.87124a3.06084,3.06084,0,0,1-2.95235-3.86178l.662-2.43689a.66036.66036,0,0,1,.63622-.48618H36.2284a.6596.6596,0,0,1,.63622.83176L35.861,45.61259A3.06551,3.06551,0,0,1,32.90718,47.87124ZM31.757,42.40533,31.22727,44.355a1.74155,1.74155,0,0,0,3.36132.913l.77782-2.86267Z"/><path class="cls-4" d="M37.44638,37.9227H32.471a.66022.66022,0,0,1-.63622-.83177l2.24435-8.26322v-.001l4.68327-17.2374a3.06008,3.06008,0,0,1,5.9062,1.60412l-6.586,24.24209A.6601.6601,0,0,1,37.44638,37.9227Zm-4.1134-1.319h3.60937l6.4538-23.7559a1.74168,1.74168,0,1,0-3.36132-.91395Z"/><path class="cls-4" d="M26.92325,52.51528h-8.463a.65948.65948,0,0,1,0-1.31895h8.463a.65948.65948,0,0,1,0,1.31895Z"/><path class="cls-4" d="M31.2337,52.51528H29.91423a.65948.65948,0,0,1,0-1.31895H31.2337a.65948.65948,0,0,1,0,1.31895Z"/><path class="cls-4" d="M32.90718,47.87124a3.06084,3.06084,0,0,1-2.95235-3.86178l.662-2.43689a.66036.66036,0,0,1,.63622-.48618H36.2284a.6596.6596,0,0,1,.63622.83176L35.861,45.61259A3.06551,3.06551,0,0,1,32.90718,47.87124ZM31.757,42.40533,31.22727,44.355a1.74155,1.74155,0,0,0,3.36132.913l.77782-2.86267Z"/><path class="cls-4" d="M37.44638,37.9227H32.471a.66022.66022,0,0,1-.63622-.83177l2.24435-8.26322v-.001l4.68327-17.2374a3.06008,3.06008,0,0,1,5.9062,1.60412l-6.586,24.24209A.6601.6601,0,0,1,37.44638,37.9227Zm-4.1134-1.319h3.60937l6.4538-23.7559a1.74168,1.74168,0,1,0-3.36132-.91395Z"/><path class="cls-4" d="M44.20764,44.30454c-.10051,0-.20052-.001-.301-.004a22.34718,22.34718,0,0,1-7.30687-1.71008l-.5778-.2218a.66185.66185,0,0,1-.44758-.62284.676.676,0,0,1,.90011-.61491l.5981.22972a21.17585,21.17585,0,0,0,6.86573,1.62294A21.12905,21.12905,0,0,0,50.103,41.92509l1.72745-.26637a17.44782,17.44782,0,0,1,2.59538-.19606H57.341a.65948.65948,0,0,1,0,1.319H54.42578a16.12985,16.12985,0,0,0-2.39833.18022l-1.64377.24854A22.435,22.435,0,0,1,44.20764,44.30454Z"/><path class="cls-4" d="M36.2383,42.40533H27.65849a2.19194,2.19194,0,0,1-1.68685-.79216,2.1348,2.1348,0,0,1-.46639-1.75661,3.9638,3.9638,0,0,1,3.9-3.25281h9.976a1.2739,1.2739,0,1,0,0-2.54779h-.88477a.66021.66021,0,0,1-.63622-.83176l1.19422-4.39649a.66008.66008,0,0,1,.63622-.48718h.75257a5.86647,5.86647,0,0,1,3.48064,1.15358l2.81818,2.09724a11.87384,11.87384,0,0,0,7.04546,2.33292H57.341a.65947.65947,0,0,1,0,1.31894H53.78758a13.20788,13.20788,0,0,1-7.83269-2.59432l-2.81818-2.09725a4.54029,4.54029,0,0,0-2.69341-.89217h-.24855L39.3585,32.737h.02278a2.59284,2.59284,0,0,1,0,5.18568h-9.976a2.64659,2.64659,0,0,0-2.6038,2.17151.81192.81192,0,0,0,.1827.67531.87521.87521,0,0,0,.67434.31687H36.2383a.65947.65947,0,0,1,0,1.31894Z"/></svg>