<svg id="Layer_1" data-name="Layer 1" xmlns="http://www.w3.org/2000/svg" viewBox="0 0 47 56"><defs><style>.cls-1{fill:#ceeaf2;}.cls-2{fill:#3dafcc;}.cls-3{fill:#fff;}.cls-4{fill:#1f282c;}</style></defs><title>unlimited_time</title><path class="cls-1" d="M41.35688,19.379l2.91668-2.91652a3.04433,3.04433,0,1,0-4.30533-4.30533L37.05316,15.072A22.52148,22.52148,0,0,1,41.35688,19.379Z"/><path class="cls-1" d="M5.64332,19.379A22.52114,22.52114,0,0,1,9.947,15.072L7.032,12.15712a3.04433,3.04433,0,0,0-4.30533,4.30533Z"/><path class="cls-1" d="M23.5001,10.48534a22.49035,22.49035,0,0,1,3.75265.33843V6.04809h-7.5053v4.77568A22.49025,22.49025,0,0,1,23.5001,10.48534Z"/><path class="cls-2" d="M19.679.64739h7.64217a2.55723,2.55723,0,0,1,2.55723,2.55723V6.048a0,0,0,0,1,0,0H17.12175a0,0,0,0,1,0,0V3.20462A2.55723,2.55723,0,0,1,19.679.64739Z"/><circle class="cls-3" cx="23.50006" cy="32.9194" r="22.43402"/><path class="cls-4" d="M23.50024,56A23.08066,23.08066,0,1,1,46.58041,32.91935,23.1073,23.1073,0,0,1,23.50024,56Zm0-44.86723A21.78658,21.78658,0,1,0,45.2873,32.91935,21.812,21.812,0,0,0,23.50024,11.13277Z"/><circle class="cls-1" cx="23.49245" cy="32.9194" r="16.17679"/><path class="cls-4" d="M35.33883,22.33355a.64573.64573,0,0,1-.46925-.20208A15.67292,15.67292,0,0,0,12.212,22.047a.6469.6469,0,0,1-.9317-.8977,16.96536,16.96536,0,0,1,24.52775.0923.64705.64705,0,0,1-.46925,1.092Z"/><path class="cls-4" d="M23.50024,49.88616A16.82746,16.82746,0,0,1,11.27887,44.6875a.6469.6469,0,0,1,.9317-.8977,15.6725,15.6725,0,0,0,22.66-.08355.64667.64667,0,1,1,.9385.88992A16.81412,16.81412,0,0,1,23.50024,49.88616Z"/><path class="cls-2" d="M39.98677,30.56043A8.28519,8.28519,0,0,0,26.168,27.0555l2.01942,3.12914a1.79819,1.79819,0,0,0,.19323-.19678,4.6713,4.6713,0,1,1,1.40712,7.03446l-.02074-.0086-.01778-.01155c-2.11959-1.08588-3.535-3.15212-5.03343-5.33927-1.56568-2.28585-3.1853-4.64771-5.75121-6.03839l-.01245-.0086a8.30983,8.30983,0,1,0,1.77166,13.30417l-2.19723-2.86746a1.71273,1.71273,0,0,0-.2116.14344,4.68863,4.68863,0,0,1-5.56036.82626,4.66935,4.66935,0,1,1,4.45848-8.20569l.00474.00208.00059.00029c1.79952.9697,3.10825,2.87946,4.49286,4.90184,1.59828,2.333,3.41054,4.97119,6.31223,6.485.00889.005.016.01215.02519.01719l.02015.00948.01838.01067c.00741.00385.01541.00474.02282.00844a8.3094,8.3094,0,0,0,11.87673-9.6912Z"/><path class="cls-4" d="M14.97215,41.872A8.95531,8.95531,0,1,1,19.261,25.048c2.71786,1.47479,4.38063,3.90264,5.988,6.24986,1.45244,2.11891,2.82229,4.11832,4.795,5.12871a.69721.69721,0,0,1,.067.03886,4.06312,4.06312,0,0,0,3.04867.31186A4.02335,4.02335,0,1,0,28.885,30.39337a2.49574,2.49574,0,0,1-.26134.26911.64712.64712,0,0,1-.87243-.956,1.12961,1.12961,0,0,0,.12629-.12435,5.31742,5.31742,0,1,1,1.6006,8.00833c-.02283-.01361-.08695-.04955-.10784-.0651-2.1806-1.10754-3.64032-3.23811-5.18652-5.494-1.52238-2.22384-3.09529-4.52054-5.52752-5.8389A7.66223,7.66223,0,1,0,20.2767,38.45318a.64661.64661,0,0,1,.89381.93462A8.92674,8.92674,0,0,1,14.97215,41.872Z"/><path class="cls-4" d="M32.00551,41.88269a8.96529,8.96529,0,0,1-4.1669-1.04343.49111.49111,0,0,1-.05537-.02623c-.016-.00777-.04275-.02331-.06947-.03983-3.04575-1.59234-4.89991-4.299-6.536-6.687-1.3378-1.95472-2.60127-3.80062-4.266-4.69735a.66245.66245,0,0,1-.05927-.03594,4.0534,4.0534,0,0,0-3.01028-.29243,4.02449,4.02449,0,1,0,4.01193,6.68218,1.13615,1.13615,0,0,1,.2628-.19527.657.657,0,0,1,.9147.11658.63941.63941,0,0,1-.11221.90158,1.3686,1.3686,0,0,1-.15739.103,5.34267,5.34267,0,0,1-6.31641.922,5.3158,5.3158,0,0,1,5.05682-9.352.6424.6424,0,0,1,.07383.04178c1.89012,1.01622,3.23957,2.98745,4.6687,5.07527,1.552,2.26561,3.31194,4.83434,6.07789,6.27706.0136.0068.02915.01652.04469.02623a.41812.41812,0,0,1,.04664.02235,7.66321,7.66321,0,0,0,7.26219-13.49651,7.597,7.597,0,0,0-9.05127,1.32809.64679.64679,0,0,1-.91421-.91518,8.94412,8.94412,0,1,1,8.84773,14.91105A8.99072,8.99072,0,0,1,32.00551,41.88269Z"/><path class="cls-4" d="M41.357,20.02616c-.01458,0-.02915-.001-.04372-.00194a.64569.64569,0,0,1-.47119-.25357,21.887,21.887,0,0,0-4.1805-4.18341.6473.6473,0,0,1-.06558-.9725l2.91508-2.91557a3.6913,3.6913,0,1,1,5.21955,5.221l-2.91654,2.91653A.64682.64682,0,0,1,41.357,20.02616ZM38.0256,15.014a23.1914,23.1914,0,0,1,3.38967,3.39258L43.81641,16.005a2.39772,2.39772,0,1,0-3.39113-3.39065Z"/><path class="cls-4" d="M5.64351,20.02616a.64686.64686,0,0,1-.45711-.18945l-2.917-2.91653a3.6913,3.6913,0,1,1,5.21955-5.221L10.404,14.61474a.6473.6473,0,0,1-.06558.9725,21.90716,21.90716,0,0,0-4.18,4.18244.64345.64345,0,0,1-.47071.25454C5.67265,20.02519,5.65808,20.02616,5.64351,20.02616ZM4.8794,11.91291A2.39677,2.39677,0,0,0,3.18359,16.005l2.40163,2.40162A23.16392,23.16392,0,0,1,8.9744,15.014L6.57472,12.61435A2.39063,2.39063,0,0,0,4.8794,11.91291Z"/><path class="cls-4" d="M29.87834,6.69482H17.12166a.64672.64672,0,0,1-.64656-.647V3.20508A3.20829,3.20829,0,0,1,19.67921,0h7.64206A3.20788,3.20788,0,0,1,30.5249,3.20508v2.8427A.64672.64672,0,0,1,29.87834,6.69482ZM17.76821,5.40074H29.23179V3.20508a1.91257,1.91257,0,0,0-1.91052-1.911H19.67921a1.913,1.913,0,0,0-1.911,1.911Z"/><path class="cls-4" d="M19.74722,11.47086a.64732.64732,0,0,1-.64655-.647v-4.776a.64671.64671,0,0,1,.64655-.647h7.50556a.64671.64671,0,0,1,.64655.647v4.776a.64515.64515,0,0,1-.22879.49354.62756.62756,0,0,1-.52511.14379,20.164,20.164,0,0,0-7.29086,0A.573.573,0,0,1,19.74722,11.47086Zm.64655-4.776v3.37412a20.90441,20.90441,0,0,1,6.21246,0V6.69482Z"/></svg>